<svg xmlns="http://www.w3.org/2000/svg" xmlns:xlink="http://www.w3.org/1999/xlink" viewBox="0 0 110.42 89.08"><defs><style>.cls-1{fill:#a59f9b;}.cls-2{isolation:isolate;}.cls-3{fill:#3a2f3f;opacity:0.4;mix-blend-mode:multiply;}.cls-4{fill:#6f5955;}.cls-5{fill:#423633;}.cls-6{fill:#baad87;}.cls-7{fill:#342825;}.cls-8{fill:#cfc3a0;}.cls-9{fill:#dcd1b6;}.cls-10{fill:#d4c8ac;}.cls-11{fill:#3b2e31;}.cls-12{fill:#eee7d5;}.cls-13{fill:#f1ece3;}.cls-14{fill:#8e866d;}.cls-15{fill:#827a79;}.cls-16{fill:#3b302a;}.cls-17{fill:#524339;}.cls-18{fill:#d6cfca;}.cls-19{clip-path:url(#clip-path);}.cls-20{fill:#6b5f5b;}.cls-21{fill:#b1a9a5;}.cls-22{clip-path:url(#clip-path-2);}.cls-23{fill:#d1cbb1;}.cls-24{fill:#e3dcc4;}.cls-25{fill:#76676a;}.cls-26{fill:#ebe4cd;}.cls-27{fill:#594945;}.cls-28{fill:#6b5f5c;}.cls-29{fill:#4e4043;}.cls-30{fill:#d07a49;}.cls-31{fill:#614c4a;}</style><clipPath id="clip-path"><path class="cls-1" d="M59.89,79.51a6.68,6.68,0,0,0,3,5.22c1.67,1,3,.19,3-1.73a6.69,6.69,0,0,0-3-5.22C61.25,76.82,59.89,77.59,59.89,79.51Z"/></clipPath><clipPath id="clip-path-2"><path class="cls-1" d="M19.28,56.09a6.67,6.67,0,0,0,3,5.22c1.67,1,3,.19,3-1.72a6.65,6.65,0,0,0-3-5.22C20.64,53.4,19.28,54.17,19.28,56.09Z"/></clipPath></defs><title>Recurso47</title><g class="cls-2"><g id="Capa_2" data-name="Capa 2"><g id="ELEMENTOS_INDIVIDUALES" data-name="ELEMENTOS INDIVIDUALES"><polygon class="cls-3" points="110.42 68.02 110.06 59.96 58.16 18.22 39.59 14.99 7.1 48.55 20.28 59.97 23.92 64.73 30.64 64.17 62.4 82.65 64.5 88.11 73.89 89.08 93.6 78.16 110.42 68.02"/><polygon class="cls-4" points="6.46 34.26 0 37.99 2.48 41.7 6.46 39.03 6.46 34.26"/><rect class="cls-5" x="105.07" y="61.43" width="1.73" height="3.29" transform="translate(-2.43 121.87) rotate(-59.25)"/><polygon class="cls-6" points="105.15 56.49 75.66 73.89 75.66 82.9 105.24 65.48 105.15 56.49"/><polygon class="cls-5" points="105.19 56.47 75.62 73.68 75.62 79.78 105.19 62.36 105.19 56.47"/><path class="cls-7" d="M78.28,75.21c0,1.47,1,2.06,2.33,1.32a5.11,5.11,0,0,0,2.32-4c0-1.47-1-2.06-2.32-1.32A5.08,5.08,0,0,0,78.28,75.21Z"/><path class="cls-7" d="M98.29,63.45c0,1.47,1,2.06,2.33,1.33a5.16,5.16,0,0,0,2.32-4c0-1.48-1-2.07-2.32-1.33A5.12,5.12,0,0,0,98.29,63.45Z"/><polygon class="cls-8" points="104.3 54.33 73.65 69.67 75.57 73.92 105.14 56.5 104.3 54.33"/><path class="cls-9" d="M85.41,40C74.66,46,68,50.45,55.83,57.45L74.72,71.72,104.3,54.3Z"/><path class="cls-10" d="M85.41,40C74.66,46,68,50.45,55.83,57.45L104.3,54.3Z"/><path class="cls-8" d="M77.11,22.09,47.53,39.52l8.4,18c11.8-6.61,19.77-12,29.57-17.42Z"/><path class="cls-11" d="M77.11,24.33l-28,16.57,7.19,15.39c12.36-7.24,21.38-12.63,28-16.57Z"/><path class="cls-12" d="M39.21,0,9.63,17.42,47.7,39.66,77.27,22.24C62.49,11.37,52.71,5.87,39.21,0Z"/><polygon class="cls-13" points="20.01 11.31 9.63 17.42 20.01 23.48 20.01 11.31"/><path class="cls-13" d="M65.91,28.93l11.36-6.69c-4.12-3-7.83-5.63-11.36-7.95Z"/><path class="cls-13" d="M58.77,9.84A173.41,173.41,0,0,0,39.21,0l-.87.51V34.19l9.36,5.47,11.07-6.53Z"/><polygon class="cls-14" points="63.74 68.02 56.9 71.69 56.9 75.56 63.74 71.88 63.74 68.02"/><polygon class="cls-15" points="15.36 47.48 14.89 54.37 22.96 50.41 23.43 43.53 15.36 47.48"/><path class="cls-16" d="M70.07,85.94a3.87,3.87,0,0,0,1.43-3.38,12,12,0,0,0-5.42-9.34,4.06,4.06,0,0,0-3.46-.56c-.2.07-3,1.67-3.08,1.7a3.93,3.93,0,0,0-1.38,3.35,11.92,11.92,0,0,0,5.42,9.34,4,4,0,0,0,3.54.59Z"/><path class="cls-17" d="M57.34,78.23a11.92,11.92,0,0,0,5.42,9.34c3,1.73,5.42.35,5.42-3.09a12,12,0,0,0-5.42-9.34C59.76,73.41,57.34,74.8,57.34,78.23Z"/><path class="cls-18" d="M59.26,79.33a7.72,7.72,0,0,0,3.5,6c1.94,1.12,3.5.22,3.5-2a7.72,7.72,0,0,0-3.5-6C60.82,76.22,59.26,77.11,59.26,79.33Z"/><path class="cls-1" d="M59.89,79.51a6.68,6.68,0,0,0,3,5.22c1.67,1,3,.19,3-1.73a6.69,6.69,0,0,0-3-5.22C61.25,76.82,59.89,77.59,59.89,79.51Z"/><g class="cls-19"><path class="cls-20" d="M63.21,79.81c.25.12.58-1.33.51-1.52-.16-.39-.92-.79-1.07-.61A4.41,4.41,0,0,0,63.21,79.81Z"/><path class="cls-20" d="M63.15,82.23c-.25-.13-.58,1.32-.51,1.51.16.4.92.79,1.06.61A4.33,4.33,0,0,0,63.15,82.23Z"/><path class="cls-20" d="M64.25,81.67c0,.3,1.45,1.51,1.57,1.49.27,0,.23-.92,0-1.22S64.23,81.36,64.25,81.67Z"/><path class="cls-20" d="M62.11,80.37c0-.31-1.45-1.51-1.58-1.5s-.22.92,0,1.23S62.13,80.67,62.11,80.37Z"/><path class="cls-20" d="M63.91,82.33c-.17.13.61,2,.75,2.13a.49.49,0,0,0,.76-.43C65.37,83.74,64.08,82.21,63.91,82.33Z"/><path class="cls-20" d="M62.44,79.7c.17-.12-.61-2-.75-2.12a.49.49,0,0,0-.76.43C61,78.29,62.27,79.82,62.44,79.7Z"/><path class="cls-20" d="M62.4,81.42c-.19-.31-1.44-.13-1.47,0a1.93,1.93,0,0,0,.75,1.29C61.91,82.8,62.59,81.72,62.4,81.42Z"/><path class="cls-20" d="M64,80.62c.2.3,1.44.13,1.48,0a1.94,1.94,0,0,0-.76-1.3C64.45,79.24,63.76,80.32,64,80.62Z"/></g><path class="cls-18" d="M62.29,80.5a2,2,0,0,0,.93,1.59c.51.3.92.06.92-.52A2,2,0,0,0,63.22,80C62.71,79.69,62.29,79.92,62.29,80.5Z"/><path class="cls-21" d="M62.2,80.69a1.8,1.8,0,0,0,.82,1.4c.44.26.81,0,.81-.46a1.79,1.79,0,0,0-.81-1.4C62.57,80,62.2,80.17,62.2,80.69Z"/><path class="cls-17" d="M62.48,80.83a1.32,1.32,0,0,0,.6,1c.32.19.59,0,.59-.34a1.33,1.33,0,0,0-.59-1C62.75,80.3,62.48,80.46,62.48,80.83Z"/><polygon class="cls-14" points="22.32 44.08 16.76 47.08 16.76 50.95 22.32 47.95 22.32 44.08"/><path class="cls-16" d="M29.45,62.53a3.87,3.87,0,0,0,1.44-3.38,12,12,0,0,0-5.42-9.35A4.1,4.1,0,0,0,22,49.24c-.21.08-3,1.67-3.07,1.7a3.88,3.88,0,0,0-1.39,3.35A11.93,11.93,0,0,0,23,63.63a4,4,0,0,0,3.53.59Z"/><path class="cls-17" d="M16.73,54.81a11.93,11.93,0,0,0,5.42,9.34c3,1.73,5.41.35,5.41-3.08a11.94,11.94,0,0,0-5.41-9.35C19.16,50,16.73,51.38,16.73,54.81Z"/><path class="cls-18" d="M18.64,55.91A7.72,7.72,0,0,0,22.15,62c1.93,1.12,3.5.23,3.5-2a7.71,7.71,0,0,0-3.5-6C20.21,52.8,18.64,53.69,18.64,55.91Z"/><path class="cls-1" d="M19.28,56.09a6.67,6.67,0,0,0,3,5.22c1.67,1,3,.19,3-1.72a6.65,6.65,0,0,0-3-5.22C20.64,53.4,19.28,54.17,19.28,56.09Z"/><g class="cls-22"><path class="cls-20" d="M22.59,56.39c.26.12.59-1.33.51-1.51-.16-.4-.91-.79-1.06-.62A4.48,4.48,0,0,0,22.59,56.39Z"/><path class="cls-20" d="M22.54,58.81c-.26-.13-.58,1.33-.51,1.51.16.4.91.79,1.06.62A4.34,4.34,0,0,0,22.54,58.81Z"/><path class="cls-20" d="M23.64,58.25c0,.3,1.44,1.51,1.57,1.49s.23-.92,0-1.22S23.62,58,23.64,58.25Z"/><path class="cls-20" d="M21.49,57c0-.3-1.44-1.51-1.56-1.49s-.24.91,0,1.22S21.52,57.25,21.49,57Z"/><path class="cls-20" d="M23.3,58.91c-.17.13.61,2,.75,2.13a.49.49,0,0,0,.76-.43C24.76,60.32,23.47,58.79,23.3,58.91Z"/><path class="cls-20" d="M21.83,56.29c.17-.13-.61-2-.75-2.13a.49.49,0,0,0-.75.43C20.38,54.88,21.66,56.41,21.83,56.29Z"/><path class="cls-20" d="M21.79,58c-.19-.31-1.44-.13-1.47,0a1.92,1.92,0,0,0,.75,1.3C21.3,59.38,22,58.3,21.79,58Z"/><path class="cls-20" d="M23.34,57.2c.2.3,1.44.13,1.48,0a1.94,1.94,0,0,0-.76-1.3C23.83,55.82,23.15,56.9,23.34,57.2Z"/></g><path class="cls-18" d="M21.69,57.09a2,2,0,0,0,.91,1.58c.52.3.93.06.93-.52a2,2,0,0,0-.93-1.59C22.1,56.27,21.69,56.51,21.69,57.09Z"/><path class="cls-21" d="M21.59,57.27a1.8,1.8,0,0,0,.82,1.4c.44.26.81,0,.81-.46a1.79,1.79,0,0,0-.81-1.4C22,56.55,21.59,56.76,21.59,57.27Z"/><path class="cls-17" d="M21.87,57.42a1.31,1.31,0,0,0,.6,1c.33.19.59,0,.59-.34a1.29,1.29,0,0,0-.59-1C22.14,56.89,21.87,57,21.87,57.42Z"/><path class="cls-23" d="M73.47,71.26,55.93,57.49l-8.12-18C34.35,29.79,21.9,22.6,9.63,17.47l-7.72,9L3.27,39.73l9.13,8.55,4.1,2.47c.86-2.51,3.33-3.26,6.23-1.59a14.63,14.63,0,0,1,6.5,10.43l27.5,15.87c.37-3.54,3.14-4.85,6.5-2.91A14.59,14.59,0,0,1,69.74,83l.71.41,5.22-.49V74Z"/><path class="cls-24" d="M74.72,71.58,55.93,57.49l-8.12-18C34.35,29.79,21.9,22.6,9.63,17.47l-7.72,9,.63,5.07L75.67,74Z"/><polygon class="cls-5" points="75.99 74.14 73.87 72.97 73.87 78.74 75.67 79.78 75.99 74.14"/><polygon class="cls-9" points="75.55 74.65 74.27 73.83 74.27 78.37 75.55 79.11 75.55 74.65"/><polygon class="cls-5" points="26.65 52.8 59.32 71.67 58.41 72.1 27.61 54.31 26.65 52.8"/><polygon class="cls-5" points="67.82 76.53 75.23 80.81 74.7 81.46 67.72 77.43 67.82 76.53"/><polygon class="cls-5" points="2.74 38.88 18.09 47.75 17.45 48.33 2.98 39.98 2.74 38.88"/><polygon class="cls-5" points="47.28 40.38 8.91 18.22 1.91 26.53 54.41 56.84 47.28 40.38"/><polygon class="cls-25" points="46.91 40.76 15.47 22.85 10.13 30.59 53.32 55.52 46.91 40.76"/><polygon class="cls-5" points="2.41 31.56 75.69 73.87 75.69 74.19 2.41 31.88 2.41 31.56"/><polygon class="cls-5" points="36.33 34.36 34.27 33.17 32.26 43.87 34.32 45.05 36.33 34.36"/><polygon class="cls-24" points="35.85 33.3 35.02 32.81 32.74 44.93 33.57 45.41 35.85 33.3"/><path class="cls-26" d="M15.34,50l1.4.93c.81-2.34,3.2-3.14,5.92-1.57a13.66,13.66,0,0,1,6.12,9.94l.68.4C28.85,49.73,17.52,41.87,15.34,50Z"/><path class="cls-26" d="M57,75.6c.28-3.46,2.93-4.76,6.15-2.9a13.75,13.75,0,0,1,6.16,10l1,.59c-.67-11.3-14.19-19.1-14.86-8.58Z"/><polygon class="cls-5" points="51.31 71.16 33.62 60.94 33.62 60.88 32.64 49.21 32.65 49.19 34.01 45.02 34.23 45.09 32.88 49.24 33.85 60.8 51.1 70.76 51.96 60.5 54.15 56.69 54.36 56.81 52.19 60.58 51.31 71.16"/><rect class="cls-5" x="55.94" y="60.69" width="4.11" height="1.39" transform="translate(-19.54 94.85) rotate(-69.98)"/><polygon class="cls-5" points="25.9 28.31 25.12 27.86 21.59 37.64 22.37 38.09 25.9 28.31"/><polygon class="cls-4" points="1.13 38.44 3.1 38.49 4.47 39.27 3.75 42.7 1.13 38.44"/><polygon class="cls-5" points="2.58 40.27 4.47 39.26 6.42 43.99 5.21 44.54 2.58 40.27"/><polygon class="cls-27" points="0.05 37.97 3.25 39.82 5.21 44.55 1.8 42.58 0.05 37.97"/><polygon class="cls-28" points="37.08 53.35 33.73 51.34 33.73 52.58 37.08 54.6 37.08 53.35"/><polygon class="cls-24" points="36.35 52.85 33.6 51.2 33.6 52.22 36.35 53.87 36.35 52.85"/><polygon class="cls-24" points="80.61 48.51 76.75 46.3 70 50.24 68.32 52.22 71.3 53.95 80.61 48.51"/><polygon class="cls-24" points="70.56 54.42 67.61 52.71 65.75 52.76 64.52 54.46 67.5 56.2 70.56 54.42"/><polygon class="cls-24" points="83.91 46.67 80.97 44.97 79.31 45 78.29 46.54 81.27 48.27 83.91 46.67"/><polygon class="cls-5" points="79.77 48.07 73.25 51.83 71.31 53.98 80.69 48.56 79.77 48.07"/><polygon class="cls-5" points="69.13 54.69 67.51 56.21 70.59 54.44 69.13 54.69"/><polygon class="cls-5" points="82.46 46.81 81.22 48.28 83.93 46.67 82.46 46.81"/><polygon class="cls-9" points="77.84 73.3 75.53 74.65 75.53 79.11 77.84 77.76 77.84 73.3"/><polygon class="cls-9" points="105.22 57.26 103.33 58.36 103.33 62.82 105.22 61.72 105.22 57.26"/><path class="cls-9" d="M79.08,74.87c0,1,.75,1.47,1.67.95a3.68,3.68,0,0,0,1.66-2.88c0-1-.74-1.48-1.66-1A3.68,3.68,0,0,0,79.08,74.87Z"/><path class="cls-9" d="M99.13,63.07c0,1.05.74,1.48,1.66.95a3.69,3.69,0,0,0,1.67-2.88c0-1-.75-1.48-1.67-1A3.67,3.67,0,0,0,99.13,63.07Z"/><path class="cls-29" d="M76.7,25.15l-27,16,6.74,14.52c11.92-7,20.62-12.17,27-16Z"/><polygon class="cls-25" points="76.4 25.32 67.75 30.33 82.67 38.94 76.4 25.32"/><polygon class="cls-11" points="68.06 32.94 63.8 34.79 63.71 36.46 67.96 34.61 68.06 32.94"/><polygon class="cls-11" points="65.67 31.51 65.29 31.6 66.36 34.12 66.75 34.03 65.67 31.51"/><rect class="cls-11" x="61.37" y="50.48" width="3.91" height="0.24" transform="translate(-8.77 87.67) rotate(-65.83)"/><polygon class="cls-11" points="68.32 47.28 60.75 49.91 60.97 50.43 68.36 47.69 68.32 47.28"/><polygon class="cls-11" points="73.67 43.37 73.45 43.27 71.84 46.83 72.05 46.93 73.67 43.37"/><polygon class="cls-11" points="77.74 41.78 70.17 44.4 70.39 44.92 77.78 42.19 77.74 41.78"/><polygon class="cls-30" points="75.55 76.94 75.55 74.65 74.27 73.83 74.27 76.11 75.55 76.94"/><polygon class="cls-30" points="77.84 75.61 77.84 73.3 75.53 74.65 75.53 76.95 77.84 75.61"/><polygon class="cls-30" points="105.22 59.66 105.22 57.26 103.33 58.36 103.33 60.75 105.22 59.66"/><path class="cls-6" d="M79.32,74.65c0,.7.49,1,1.11.63a2.43,2.43,0,0,0,1.1-1.91c0-.7-.49-1-1.1-.63A2.43,2.43,0,0,0,79.32,74.65Z"/><path class="cls-6" d="M102.81,62.81c0,.63.45.88,1,.57a2.18,2.18,0,0,0,1-1.71c0-.63-.44-.87-1-.56A2.16,2.16,0,0,0,102.81,62.81Z"/><polygon class="cls-4" points="79.67 80.14 75.72 80.39 73.57 79.18 71.96 80.03 76.54 84.49 79.67 80.14"/><polygon class="cls-31" points="107.75 63.22 105.24 63.03 75.7 80.38 79.81 80.79 107.75 63.22"/><polygon class="cls-27" points="75.18 81.84 71.97 79.99 70.01 82.46 75.18 85.44 75.18 81.84"/><polygon class="cls-5" points="107.77 63.19 75.18 81.89 75.18 85.43 107.77 66.74 107.77 63.19"/></g></g></g></svg>