<svg xmlns="http://www.w3.org/2000/svg" xmlns:xlink="http://www.w3.org/1999/xlink" viewBox="0 0 366.5 372.66"><defs><style>.cls-1{fill:url(#linear-gradient);}.cls-2{fill:url(#linear-gradient-2);}.cls-3{fill:#4d4d4d;}.cls-4{fill:#5e110e;}.cls-5{fill:#625026;}.cls-6{fill:#3b601a;}.cls-7{fill:#bf2611;}.cls-8{fill:url(#linear-gradient-3);}.cls-9{fill:#d8c232;}.cls-10{fill:#6caf31;}.cls-11{fill:url(#linear-gradient-4);}.cls-12{fill:url(#linear-gradient-5);}.cls-13{fill:url(#linear-gradient-6);}.cls-14{fill:url(#linear-gradient-7);}.cls-15{fill:url(#linear-gradient-8);}.cls-16{fill:url(#linear-gradient-9);}.cls-17{fill:url(#linear-gradient-10);}.cls-18{fill:url(#linear-gradient-11);}.cls-19{fill:url(#linear-gradient-12);}.cls-20{fill:url(#linear-gradient-13);}.cls-21{fill:url(#linear-gradient-14);}.cls-22{fill:url(#linear-gradient-15);}.cls-23{fill:url(#linear-gradient-16);}.cls-24{fill:url(#linear-gradient-17);}.cls-25{fill:url(#linear-gradient-18);}.cls-26{fill:url(#linear-gradient-19);}</style><linearGradient id="linear-gradient" x1="209.21" y1="101.31" x2="209.03" y2="112.84" gradientUnits="userSpaceOnUse"><stop offset="0" stop-color="#aaa"/><stop offset="1" stop-color="#717171"/></linearGradient><linearGradient id="linear-gradient-2" x1="213.61" y1="94.28" x2="213.61" y2="94.29" gradientUnits="userSpaceOnUse"><stop offset="0" stop-color="#999"/><stop offset="1" stop-color="#555"/></linearGradient><linearGradient id="linear-gradient-3" x1="213.27" y1="100.54" x2="213.27" y2="109.25" xlink:href="#linear-gradient-2"/><linearGradient id="linear-gradient-4" x1="213.34" y1="115.69" x2="213.22" y2="123.75" xlink:href="#linear-gradient-2"/><linearGradient id="linear-gradient-5" x1="213.32" y1="129.82" x2="213.23" y2="136.95" xlink:href="#linear-gradient-2"/><linearGradient id="linear-gradient-6" x1="204.99" y1="96.47" x2="207.72" y2="96.47" gradientUnits="userSpaceOnUse"><stop offset="0" stop-color="#e3e3e3"/><stop offset="1" stop-color="#6d6d6d"/></linearGradient><linearGradient id="linear-gradient-7" x1="211.58" y1="92.16" x2="213.85" y2="92.16" xlink:href="#linear-gradient-6"/><linearGradient id="linear-gradient-8" x1="352.21" y1="19.31" x2="352.03" y2="30.84" xlink:href="#linear-gradient"/><linearGradient id="linear-gradient-9" x1="356.61" y1="12.28" x2="356.61" y2="12.29" xlink:href="#linear-gradient-2"/><linearGradient id="linear-gradient-10" x1="356.27" y1="18.54" x2="356.27" y2="27.25" xlink:href="#linear-gradient-2"/><linearGradient id="linear-gradient-11" x1="356.34" y1="33.69" x2="356.22" y2="41.75" xlink:href="#linear-gradient-2"/><linearGradient id="linear-gradient-12" x1="356.32" y1="47.82" x2="356.23" y2="54.95" xlink:href="#linear-gradient-2"/><linearGradient id="linear-gradient-13" x1="347.99" y1="14.47" x2="350.72" y2="14.47" xlink:href="#linear-gradient-6"/><linearGradient id="linear-gradient-14" x1="354.58" y1="10.16" x2="356.85" y2="10.16" xlink:href="#linear-gradient-6"/><linearGradient id="linear-gradient-15" x1="22.87" y1="209.81" x2="26.16" y2="212.39" xlink:href="#linear-gradient-6"/><linearGradient id="linear-gradient-16" x1="2027.46" y1="-329.67" x2="2031.85" y2="-329.67" gradientTransform="matrix(0.5, 0.87, -0.87, 0.5, -1108.94, -1492.85)" xlink:href="#linear-gradient-6"/><linearGradient id="linear-gradient-17" x1="0" y1="356.84" x2="10.37" y2="356.84" xlink:href="#linear-gradient-6"/><linearGradient id="linear-gradient-18" x1="0.88" y1="341.18" x2="17.84" y2="341.18" xlink:href="#linear-gradient-6"/><linearGradient id="linear-gradient-19" x1="3.36" y1="274.04" x2="9.75" y2="274.04" xlink:href="#linear-gradient-6"/></defs><title>43(2)</title><g id="Capa_2" data-name="Capa 2"><g id="ELEMENTOS_INDIVIDUALES" data-name="ELEMENTOS INDIVIDUALES"><g id="_43" data-name="43"><path class="cls-1" d="M217.5,96.1a21.67,21.67,0,0,0-3.85-1.79l.7.27-.5-.2a2.26,2.26,0,0,0-1.72.24l-8.56,4.75c-1.47.87-3,2.46-3,4.16v39.53c0,.8,1.24,1.65,2,2a19.73,19.73,0,0,0,3.6,1.52c.82.11,1.5-1.24,1.5-1.24l.5-4.38,3.64-2.42a4.51,4.51,0,0,0,1.93-4.16V97.81l3.94-1.11S218.18,96.7,217.5,96.1Z"/><polygon class="cls-2" points="213.61 94.28 213.61 94.28 213.61 94.29 213.61 94.28"/><path class="cls-3" d="M205.48,145.14v-39.9a4.86,4.86,0,0,1,2.36-4.16l8.23-4.91a1.59,1.59,0,0,1,2.4,1.36v39.88a4.87,4.87,0,0,1-2.36,4.16l-8.23,4.93A1.58,1.58,0,0,1,205.48,145.14Z"/><path class="cls-4" d="M217.43,107.56c-.88,3.26-3.55,5.56-6.06,5.27s-4.22-3.27-3.52-6.77c.74-3.68,3.71-6.33,6.5-5.77S218.36,104.15,217.43,107.56Z"/><path class="cls-5" d="M217.43,122.2c-.88,3.25-3.55,5.56-6.06,5.26s-4.22-3.26-3.52-6.76c.74-3.68,3.71-6.33,6.5-5.77S218.36,118.79,217.43,122.2Z"/><path class="cls-6" d="M217.43,136.83c-.88,3.26-3.55,5.56-6.06,5.27s-4.22-3.27-3.52-6.77c.74-3.67,3.71-6.33,6.5-5.77S218.36,133.42,217.43,136.83Z"/><path class="cls-7" d="M216.63,107.39c-.73,2.7-2.95,4.61-5,4.37s-3.51-2.71-2.93-5.62,3.08-5.25,5.4-4.79S217.4,104.55,216.63,107.39Z"/><path class="cls-8" d="M207.7,108s1-1.91,2.79-1.51,3.08,2.61,5.86.73,3.41-2.82,1.38-5.09c-1.21-1.35-3.49-2.55-5.45-2a5.82,5.82,0,0,0-4,4A6.5,6.5,0,0,0,207.7,108Z"/><path class="cls-9" d="M216.7,122c-.75,2.75-3,4.7-5.12,4.45s-3.57-2.76-3-5.72,3.14-5.35,5.49-4.88S217.49,119.15,216.7,122Z"/><path class="cls-10" d="M216.66,136.67c-.74,2.72-3,4.65-5.07,4.41s-3.54-2.74-3-5.67,3.1-5.3,5.44-4.83S217.44,133.81,216.66,136.67Z"/><path class="cls-11" d="M207.7,122.68s1-1.91,2.79-1.51,3.08,2.6,5.86.73,3.41-2.83,1.38-5.1a6.1,6.1,0,0,0-5.45-2c-1.84.43-3.14,1.7-4,4.1S207.7,122.68,207.7,122.68Z"/><path class="cls-12" d="M207.7,137.31s1-1.91,2.79-1.5,3.08,2.6,5.86.72,3.41-2.82,1.38-5.09c-1.21-1.35-3.49-2.5-5.45-1.95a5.73,5.73,0,0,0-4.1,3.95A6.28,6.28,0,0,0,207.7,137.31Z"/><polygon class="cls-13" points="207.72 100.16 204.99 100.16 204.99 94.31 207.27 92.78 207.72 100.16"/><polygon class="cls-14" points="213.85 95.77 211.58 95.77 211.58 90.22 213.63 88.54 213.85 95.77"/><path class="cls-15" d="M360.5,14.1a21.67,21.67,0,0,0-3.85-1.79l.7.27-.5-.2a2.26,2.26,0,0,0-1.72.24l-8.56,4.75c-1.47.87-3,2.46-3,4.16V61.06c0,.8,1.24,1.65,2,2a19.73,19.73,0,0,0,3.6,1.52c.82.11,1.5-1.24,1.5-1.24l.5-4.38,3.64-2.42a4.51,4.51,0,0,0,1.93-4.16V15.81l3.94-1.11S361.18,14.7,360.5,14.1Z"/><polygon class="cls-16" points="356.61 12.28 356.61 12.29 356.61 12.29 356.61 12.28"/><path class="cls-3" d="M348.48,63.14V23.24a4.86,4.86,0,0,1,2.36-4.16l8.23-4.91a1.59,1.59,0,0,1,2.4,1.36V55.41a4.87,4.87,0,0,1-2.36,4.16l-8.23,4.93A1.58,1.58,0,0,1,348.48,63.14Z"/><path class="cls-4" d="M360.43,25.56c-.88,3.26-3.55,5.56-6.06,5.27s-4.22-3.27-3.52-6.77c.74-3.68,3.71-6.33,6.5-5.77S361.36,22.15,360.43,25.56Z"/><path class="cls-5" d="M360.43,40.2c-.88,3.25-3.55,5.56-6.06,5.26s-4.22-3.26-3.52-6.76c.74-3.68,3.71-6.33,6.5-5.77S361.36,36.79,360.43,40.2Z"/><path class="cls-6" d="M360.43,54.83c-.88,3.26-3.55,5.56-6.06,5.27s-4.22-3.27-3.52-6.77c.74-3.67,3.71-6.33,6.5-5.77S361.36,51.42,360.43,54.83Z"/><path class="cls-7" d="M359.63,25.39c-.73,2.7-2.95,4.61-5,4.37s-3.51-2.71-2.93-5.62,3.08-5.25,5.4-4.79S360.4,22.55,359.63,25.39Z"/><path class="cls-17" d="M350.7,26s1-1.91,2.79-1.51,3.08,2.61,5.86.73,3.41-2.82,1.38-5.09c-1.21-1.35-3.49-2.55-5.45-2a5.82,5.82,0,0,0-4,4A6.5,6.5,0,0,0,350.7,26Z"/><path class="cls-9" d="M359.7,40c-.75,2.75-3,4.7-5.12,4.45s-3.57-2.76-3-5.72c.63-3.11,3.14-5.35,5.49-4.88S360.49,37.15,359.7,40Z"/><path class="cls-10" d="M359.66,54.67c-.74,2.72-3,4.65-5.07,4.41s-3.54-2.74-2.95-5.67,3.1-5.3,5.44-4.83S360.44,51.81,359.66,54.67Z"/><path class="cls-18" d="M350.7,40.68s1-1.91,2.79-1.51,3.08,2.6,5.86.73,3.41-2.83,1.38-5.1a6.1,6.1,0,0,0-5.45-1.95c-1.84.43-3.14,1.7-4,4.1S350.7,40.68,350.7,40.68Z"/><path class="cls-19" d="M350.7,55.31s1-1.91,2.79-1.5,3.08,2.6,5.86.72,3.41-2.82,1.38-5.09c-1.21-1.35-3.49-2.5-5.45-1.95a5.73,5.73,0,0,0-4.1,3.95A6.28,6.28,0,0,0,350.7,55.31Z"/><polygon class="cls-20" points="350.72 18.16 347.99 18.16 347.99 12.31 350.27 10.78 350.72 18.16"/><polygon class="cls-21" points="356.85 13.77 354.58 13.77 354.58 8.22 356.63 6.54 356.85 13.77"/><path class="cls-22" d="M4.07,235.15l.58.25a1.85,1.85,0,0,1-.08-2.61L41.2,186.23a1.84,1.84,0,0,1,2.6-.09l-.58-.24a1.84,1.84,0,0,1,.09,2.6L6.68,235.06A1.84,1.84,0,0,1,4.07,235.15Z"/><path class="cls-23" d="M5.52,208.34h0a1.85,1.85,0,0,1,.68-2.52L363.74.24a1.84,1.84,0,0,1,2.51.69h0a1.85,1.85,0,0,1-.68,2.52L8,209A1.84,1.84,0,0,1,5.52,208.34Z"/><path class="cls-24" d="M11.94,341.18.88,341,0,368.28c0,2.33,3.05,4.38,6.53,4.38s6.12-1.89,6.12-4.22Z"/><path class="cls-25" d="M11.94,341.18c0,2.06-2.34,3.74-5.42,3.74S.88,343.24.88,341.18s2.55-3.75,5.64-3.75S11.94,339.11,11.94,341.18Z"/><path class="cls-26" d="M6.52,342.19h0c-1.45,0-3.16-1.26-3.16-2.72l.53-131a2.64,2.64,0,0,1,2.63-2.64h0a2.64,2.64,0,0,1,2.64,2.64L9.75,339.3A3.06,3.06,0,0,1,6.52,342.19Z"/></g></g></g></svg>