<svg xmlns="http://www.w3.org/2000/svg" viewBox="0 0 131.35 114.44"><defs><style>.cls-1{fill:#1d1d1b;opacity:0.3;}.cls-2{fill:#5d5414;}.cls-3{fill:#74a8ab;}.cls-4{fill:#2e2e2b;}.cls-5{fill:#f3f3f3;}.cls-6{fill:#fff;}.cls-7{fill:#d7d7d7;}.cls-8{fill:#b5ada3;}.cls-9{fill:#67b67f;}.cls-10{opacity:0.1;}.cls-11{fill:#c8c23d;}.cls-12{fill:#93862e;}.cls-13{fill:#a8c2cc;}.cls-14{fill:#3b5f6e;}.cls-15{fill:#42390d;}.cls-16{fill:#b0ad32;}.cls-17{fill:#453d0e;}</style></defs><title>Recurso52</title><g id="Capa_2" data-name="Capa 2"><g id="ELEMENTOS_INDIVIDUALES" data-name="ELEMENTOS INDIVIDUALES"><path class="cls-1" d="M47.55,89.34C60.44,81.89,74.18,77.05,82.7,76.52l34.39-19.86L123,60.05,90.55,78.76c2.57,4.32-6.38,13.9-21.81,22.81C51.56,111.49,32.88,116.8,27,113.42S30.37,99.26,47.55,89.34Z"/><polygon class="cls-2" points="30.35 100.4 33.59 102.24 33.59 100.88 30.35 99.05 30.35 100.4"/><path class="cls-3" d="M26.84,102.87l11-11.53V94l-11,11.53c-.66.38-1.19.07-1.19-.67A2.57,2.57,0,0,1,26.84,102.87Z"/><path d="M30.24,102.94A7.11,7.11,0,0,1,27,108.52c-1.81,1-3.28.19-3.28-1.86A7.11,7.11,0,0,1,27,101.08C28.77,100.06,30.23,100.88,30.24,102.94Z"/><path d="M29.13,100.77l-4.63,7.89,2.12,1.2c3.34-1.34,4.93-3.94,4.63-7.88Z"/><path d="M30.68,104.92c0-1.1-.78-1.55-1.75-1a3.81,3.81,0,0,0-1.76,3c0,1.1.79,1.55,1.76,1A3.8,3.8,0,0,0,30.68,104.92Z"/><path class="cls-4" d="M32.2,104.05c0-2-1.47-2.88-3.28-1.85a7.1,7.1,0,0,0-3.27,5.58c0,2,1.47,2.88,3.28,1.85A7.09,7.09,0,0,0,32.2,104.05Zm-1.26.72a4.34,4.34,0,0,1-2,3.43c-1.12.64-2,.13-2-1.14a4.37,4.37,0,0,1,2-3.43C30,103,30.94,103.51,30.94,104.77Z"/><path class="cls-5" d="M31.25,104.6c0-1.46-1-2-2.33-1.32a5,5,0,0,0-2.31,4c0,1.45,1,2,2.32,1.31A5,5,0,0,0,31.25,104.6Zm-.25.14a4.48,4.48,0,0,1-2.07,3.52c-1.15.65-2.07.13-2.07-1.17a4.49,4.49,0,0,1,2.06-3.52C30.07,102.92,31,103.44,31,104.74Z"/><path class="cls-6" d="M30.35,105.11c0-.89-.64-1.25-1.43-.81a3.1,3.1,0,0,0-1.42,2.43c0,.89.64,1.25,1.43.8A3.1,3.1,0,0,0,30.35,105.11Zm-.53.3a1.94,1.94,0,0,1-.89,1.52c-.5.28-.9,0-.9-.5a1.93,1.93,0,0,1,.9-1.53C29.42,104.62,29.82,104.85,29.82,105.41Z"/><path class="cls-7" d="M29.82,105.41c0-.56-.4-.79-.89-.51a1.93,1.93,0,0,0-.9,1.53c0,.55.4.78.9.5A1.94,1.94,0,0,0,29.82,105.41Zm-.55.7c.05-.08.13-.13.18-.1s.05.12,0,.2-.13.13-.18.11S29.22,106.2,29.27,106.11Zm-.42.47a.16.16,0,0,1,.08-.12s.07,0,.07,0a.15.15,0,0,1-.07.12A0,0,0,0,1,28.85,106.58Zm-.45,0c.05-.08.13-.13.18-.1s.05.12,0,.21-.13.13-.18.1S28.35,106.69,28.4,106.6Zm0-.46s.07,0,.07,0a.15.15,0,0,1-.07.12,0,0,0,0,1-.08,0A.18.18,0,0,1,28.38,106.14Zm.2-.42c0,.09-.13.13-.18.11s0-.12,0-.21.13-.13.18-.1S28.63,105.64,28.58,105.72Zm.42-.47a.17.17,0,0,1-.07.13c-.05,0-.08,0-.08,0a.14.14,0,0,1,.08-.13S29,105.2,29,105.25Zm.27.47a.74.74,0,0,1-.34.58c-.19.11-.34,0-.34-.19a.74.74,0,0,1,.34-.58A.21.21,0,0,1,29.27,105.72Zm.18-.49c-.05.09-.13.13-.18.1s-.05-.12,0-.2.13-.13.18-.1S29.5,105.15,29.45,105.23Zm.1.33a.17.17,0,0,1-.07.13c-.05,0-.08,0-.08,0a.14.14,0,0,1,.08-.13S29.55,105.52,29.55,105.56Z"/><path class="cls-7" d="M31,104.74c0-1.3-.93-1.82-2.08-1.17a4.49,4.49,0,0,0-2.06,3.52c0,1.3.92,1.82,2.07,1.17A4.48,4.48,0,0,0,31,104.74ZM30.24,106a.34.34,0,0,1,.3-.23c.11,0,.15.13.1.26a.37.37,0,0,1-.3.24C30.23,106.29,30.19,106.17,30.24,106Zm-1.31,1.5c-.79.45-1.43.09-1.43-.8a3.1,3.1,0,0,1,1.42-2.43c.79-.44,1.43-.08,1.43.81A3.1,3.1,0,0,1,28.93,107.53Zm.76-.55c.09-.12.22-.14.28,0a.35.35,0,0,1,0,.37c-.1.11-.22.13-.29,0A.32.32,0,0,1,29.69,107Zm-1,1a.46.46,0,0,1,.2-.37c.11-.06.19,0,.19.15a.45.45,0,0,1-.19.37C28.82,108.22,28.73,108.15,28.73,108Zm-.85.11c.07-.16.19-.29.29-.28s.12.14,0,.3-.19.29-.28.28S27.82,108.27,27.88,108.12Zm-.57-.49c.11-.13.25-.18.3-.1s0,.24-.1.38-.24.18-.29.1S27.21,107.77,27.31,107.63Zm-.13-.94c.12-.07.23,0,.23.09a.48.48,0,0,1-.23.35c-.13.07-.23,0-.23-.09A.45.45,0,0,1,27.18,106.69Zm.43-.89a.33.33,0,0,1-.3.23c-.1,0-.15-.12-.1-.26a.34.34,0,0,1,.3-.23C27.62,105.55,27.66,105.67,27.61,105.8Zm.56-.94c-.1.11-.22.13-.29,0a.32.32,0,0,1,.06-.36c.09-.12.22-.14.28-.05A.35.35,0,0,1,28.17,104.86Zm.95-1a.45.45,0,0,1-.2.37c-.1.06-.19,0-.19-.14a.5.5,0,0,1,.19-.38C29,103.61,29.12,103.68,29.12,103.82Zm.85-.1c-.06.16-.19.28-.29.27s-.11-.14-.05-.3.19-.28.28-.28S30,103.56,30,103.72Zm.57.48c-.11.14-.24.18-.3.11a.38.38,0,0,1,.1-.38c.11-.14.24-.18.3-.11A.38.38,0,0,1,30.54,104.2Zm.36.59a.47.47,0,0,1-.23.36c-.12.07-.22,0-.22-.1a.47.47,0,0,1,.22-.35C30.8,104.63,30.9,104.67,30.9,104.79Z"/><path class="cls-3" d="M29.16,104.55,40.2,93v2.7l-11,11.53c-.66.38-1.19.08-1.19-.67A2.57,2.57,0,0,1,29.16,104.55Z"/><polygon class="cls-3" points="59.6 82.35 77.09 92.27 79.82 90.72 62.33 80.8 59.6 82.35"/><path class="cls-8" d="M68.2,78.76c-.39-.77,1-1.93,1.51-1l7.21,12.49H74.81Z"/><path d="M81.35,89.23A7.35,7.35,0,0,1,78,95c-1.87,1.06-3.39.2-3.39-1.92A7.33,7.33,0,0,1,78,87.31C79.83,86.25,81.35,87.11,81.35,89.23Z"/><path d="M80.21,87l-4.79,8.16,2.19,1.24c3.45-1.39,5.1-4.07,4.79-8.15Z"/><path d="M81.81,91.28c0-1.14-.81-1.6-1.81-1a3.94,3.94,0,0,0-1.82,3.09c0,1.14.82,1.6,1.82,1A3.93,3.93,0,0,0,81.81,91.28Z"/><path class="cls-4" d="M83.38,90.38c0-2.12-1.52-3-3.39-1.91a7.32,7.32,0,0,0-3.38,5.76c0,2.13,1.52,3,3.39,1.92A7.3,7.3,0,0,0,83.38,90.38Zm-1.3.74A4.5,4.5,0,0,1,80,94.67c-1.15.66-2.09.13-2.09-1.18A4.52,4.52,0,0,1,80,89.94C81.15,89.29,82.08,89.82,82.08,91.12Z"/><path class="cls-5" d="M82.4,91c0-1.51-1.08-2.11-2.4-1.36a5.18,5.18,0,0,0-2.4,4.08c0,1.51,1.07,2.11,2.4,1.36A5.2,5.2,0,0,0,82.4,91Zm-.26.14A4.67,4.67,0,0,1,80,94.74c-1.18.67-2.14.13-2.14-1.21A4.61,4.61,0,0,1,80,89.88C81.18,89.21,82.13,89.75,82.14,91.09Z"/><path class="cls-6" d="M81.47,91.47c0-.92-.66-1.29-1.47-.83a3.16,3.16,0,0,0-1.47,2.51c0,.92.66,1.29,1.47.83A3.19,3.19,0,0,0,81.47,91.47Zm-.55.31A2,2,0,0,1,80,93.36c-.51.29-.93,0-.93-.52A2,2,0,0,1,80,91.26C80.51,91,80.92,91.2,80.92,91.78Z"/><path class="cls-7" d="M80.92,91.78c0-.58-.41-.81-.92-.52a2,2,0,0,0-.93,1.58c0,.57.42.81.93.52A2,2,0,0,0,80.92,91.78Zm-.57.73c.05-.09.14-.14.19-.11s0,.13,0,.22-.14.13-.19.1S80.3,92.6,80.35,92.51Zm-.43.49a.17.17,0,0,1,.08-.13s.07,0,.07,0A.16.16,0,0,1,80,93,0,0,0,0,1,79.92,93Zm-.46,0c.05-.09.13-.14.18-.11s.06.13,0,.21-.13.14-.18.11S79.41,93.11,79.46,93Zm0-.47a0,0,0,0,1,.08,0,.17.17,0,0,1-.08.13s-.08,0-.08,0A.17.17,0,0,1,79.43,92.55Zm.21-.44c0,.09-.13.13-.18.11s-.06-.13,0-.22.13-.13.18-.1S79.69,92,79.64,92.11Zm.43-.49a.16.16,0,0,1-.07.13s-.08,0-.08,0a.14.14,0,0,1,.08-.13S80.07,91.57,80.07,91.62Zm.28.49a.77.77,0,0,1-.35.6c-.2.11-.35,0-.35-.2a.75.75,0,0,1,.35-.6C80.19,91.8,80.35,91.89,80.35,92.11Zm.19-.51c-.05.09-.14.14-.19.11s0-.13,0-.21.13-.14.19-.11S80.59,91.51,80.54,91.6Zm.1.34a.14.14,0,0,1-.08.13s-.07,0-.07,0a.16.16,0,0,1,.07-.13S80.64,91.89,80.64,91.94Z"/><path class="cls-7" d="M82.14,91.09c0-1.34-1-1.88-2.14-1.21a4.61,4.61,0,0,0-2.14,3.65c0,1.34,1,1.88,2.14,1.21A4.67,4.67,0,0,0,82.14,91.09Zm-.78,1.34a.34.34,0,0,1,.3-.24c.12,0,.16.13.11.27a.37.37,0,0,1-.31.24C81.35,92.69,81.3,92.57,81.36,92.43ZM80,94c-.81.46-1.47.09-1.47-.83A3.16,3.16,0,0,1,80,90.64c.81-.46,1.47-.09,1.47.83A3.19,3.19,0,0,1,80,94Zm.78-.57c.1-.12.23-.14.3,0a.35.35,0,0,1-.06.38c-.1.11-.23.14-.29,0A.33.33,0,0,1,80.78,93.41Zm-1,1.06a.47.47,0,0,1,.2-.38c.11-.06.2,0,.2.15a.5.5,0,0,1-.2.39C79.89,94.69,79.8,94.62,79.8,94.47Zm-.88.11c.07-.16.2-.29.29-.28s.13.15.06.31-.2.3-.29.29S78.85,94.75,78.92,94.58Zm-.59-.5c.11-.14.25-.19.31-.11a.38.38,0,0,1-.11.39c-.11.14-.25.19-.3.11S78.22,94.22,78.33,94.08Zm-.14-1c.13-.08.24,0,.24.09a.5.5,0,0,1-.24.37c-.13.07-.24,0-.24-.1A.47.47,0,0,1,78.19,93.11Zm.45-.92a.37.37,0,0,1-.31.24c-.11,0-.16-.13-.1-.27a.33.33,0,0,1,.3-.24C78.65,91.93,78.69,92.05,78.64,92.19Zm.57-1c-.1.12-.23.14-.29.05a.34.34,0,0,1,0-.38c.1-.12.23-.14.3,0A.35.35,0,0,1,79.21,91.21Zm1-1.06a.5.5,0,0,1-.2.38c-.12.06-.21,0-.21-.15A.48.48,0,0,1,80,90C80.11,89.93,80.2,90,80.2,90.15Zm.87-.11c-.06.16-.19.29-.29.28s-.12-.15-.06-.31.2-.3.3-.29S81.14,89.87,81.07,90Zm.59.5c-.11.14-.25.18-.3.11s0-.26.1-.4.25-.18.31-.11A.4.4,0,0,1,81.66,90.54Zm.38.61a.48.48,0,0,1-.24.36c-.13.08-.23,0-.23-.09a.49.49,0,0,1,.23-.37C81.93,91,82,91,82,91.15Z"/><path class="cls-9" d="M113.43,12.66l-7.22,19.93a5.75,5.75,0,0,1-2.06,2.73l-8.38,5.47L78.5,52.08,72,56.35V47l6.52-3.71h0l17.27-9.79h0l5.7-3.24A7.37,7.37,0,0,0,104.31,27l7-14.64a2,2,0,0,1,1.6-1.3h0C113.51,11.09,113.74,11.8,113.43,12.66Z"/><polygon class="cls-9" points="113.17 11.12 105.24 31.34 71.98 56.35 76.62 58.99 109.5 34.27 117.73 13.71 113.17 11.12"/><path class="cls-9" d="M76.62,49.6l29.49-16.73A7.53,7.53,0,0,0,109,29.63L116,15a2.05,2.05,0,0,1,1.59-1.31h0c.6,0,.83.74.51,1.6l-7.21,19.93A5.71,5.71,0,0,1,108.79,38l-8.38,5.48L83.15,54.72,76.62,59Z"/><path class="cls-10" d="M100.41,36.1v7.33L108.79,38a5.71,5.71,0,0,0,2.07-2.73l7.21-19.93c.32-.86.09-1.57-.51-1.6h0A2.05,2.05,0,0,0,116,15l-7,14.63a7.53,7.53,0,0,1-2.85,3.24Z"/><polygon class="cls-10" points="76.62 49.6 83.15 45.9 83.15 54.72 76.62 58.99 76.62 49.6"/><path class="cls-6" d="M131.35,1.61c-.16-.56-.34-1.1-.54-1.61L118.2,13.82h0l0,0,0,0h0l0,0h0l0,0,0,0H118l0,0h0l-.05,0h-.53l0,0h0l-.05,0h0l0,0h0l0,0,0,0,0,0,0,0,0,0,0,0v0l0,0h0l0,0h0l0,0,0,0h0l0,0,0,0v0s0,0,0,0v0l0,0v0h0L105.64,6c-.28.62-.55,1.27-.8,1.92L116,15.55h0v.13s0,.05,0,.08V16h0v.27a0,0,0,0,0,0,0v.2s0,0,0,0v.08s0,.05,0,.07v0l0,.07h0s0,0,0,0v0h0v.07h0l0,.06v0l0,.05v0l0,0,0,0,0,0,0,0v0l0,0v0l0,0h0l0,0h0s0,0,0,0h0l0,0h0l0,0h0l0,0h0l0,0h0l-1.89,22.12.66-.13.67-.18,1.47-22h0l.05,0h0l0-.05h0l0,0,0,0h0l0,0,0,0h0l0-.06h0l0-.06,0,0,0-.05,0,0,0,0,0,0,0,0,0-.05v0a.1.1,0,0,0,0,0s0,0,0,0l0-.07h0l0-.08h0s0,0,0,0l0,0h0s0,0,0,0,0,0,0,0v0l0-.08v0s0-.05,0-.08v0l0-.07v0s0,0,0-.06v-.05a.06.06,0,0,1,0,0v-.1s0,0,0-.07v0s0-.06,0-.08v0s0-.06,0-.09h0a.09.09,0,0,1,0,0V15h0Z"/><path class="cls-2" d="M117.91,17l-.75-.19a.61.61,0,0,1-.39-.45,1.86,1.86,0,0,1,.42-1.62.62.62,0,0,1,.57-.22l.75.19Z"/><path class="cls-2" d="M118,15a1.81,1.81,0,0,0-.42,1.62c.14.51.57.61,1,.23a1.85,1.85,0,0,0,.42-1.61A.52.52,0,0,0,118,15Z"/><path class="cls-11" d="M117.91,17l-.75-.19a.61.61,0,0,1-.39-.45,1.86,1.86,0,0,1,.42-1.62.62.62,0,0,1,.57-.22l.75.19Z"/><path class="cls-12" d="M118,15a1.81,1.81,0,0,0-.42,1.62c.14.51.57.61,1,.23a1.85,1.85,0,0,0,.42-1.61A.52.52,0,0,0,118,15Z"/><path class="cls-9" d="M70,41.67,41.19,58l-9.61,5.45a12.85,12.85,0,0,0-1.81,1.26,18.38,18.38,0,0,0-4.64,6.06l-.21.45v0l-.41.9L21.27,79.3l-.4.88,0,0c-7.8,10-6.38,13.26,2.26,11.26a21.79,21.79,0,0,0,6.68-2.43l.44-.24,2.94-1.67,1-.55,4.78-2.71.22-.13,2.06-1.17,9.62-5.46a41.7,41.7,0,0,0,10.11-8.3,55,55,0,0,0,7.21-10.11l3.28-5.86a14.2,14.2,0,0,0,1.93-6.69v-2.6C73.34,41.47,71.84,40.62,70,41.67Z"/><polygon class="cls-9" points="72.56 41.56 16.97 91.66 32.06 100.22 87.65 50.12 72.56 41.56"/><path class="cls-9" d="M85.67,50.57,76.6,55.72h0L56.88,66.91l-9.61,5.45a12.3,12.3,0,0,0-1.81,1.26,18.12,18.12,0,0,0-4.64,6.06l-.21.45v0l-.4.9L37,88.2l-.4.88a.1.1,0,0,1,0,0c-7.79,10-6.38,13.26,2.27,11.25A21.59,21.59,0,0,0,45.46,98l.44-.24,11-6.23L66.5,86a41.71,41.71,0,0,0,10.1-8.31,54.66,54.66,0,0,0,7.22-10.1l3.27-5.86A14.26,14.26,0,0,0,89,55.07v-2.6C89,50.37,87.52,49.52,85.67,50.57Z"/><path d="M63.85,72.61c0,1.81,1.29,2.55,2.89,1.64a6.26,6.26,0,0,0,2.89-4.93c0-1.81-1.29-2.54-2.89-1.64A6.26,6.26,0,0,0,63.85,72.61Z"/><path class="cls-13" d="M64.53,72.22c0,1.39,1,2,2.21,1.26A4.79,4.79,0,0,0,69,69.71c0-1.39-1-1.95-2.21-1.26A4.82,4.82,0,0,0,64.53,72.22Z"/><path class="cls-9" d="M89,52.47v2.6a14.23,14.23,0,0,1-1.93,6.69l-3.27,5.86a54.66,54.66,0,0,1-7.22,10.1v-22l9.07-5.15C87.52,49.52,89,50.37,89,52.47Z"/><path class="cls-10" d="M56.88,66.91l-9.61,5.45a12.3,12.3,0,0,0-1.81,1.26V98l.44-.24,11-6.23V66.91Z"/><path class="cls-14" d="M51.91,88.89c0,1.89,1.35,2.66,3,1.71l3.91-2.22a6.51,6.51,0,0,0,3-5.12V71.17c0-1.88-1.35-2.65-3-1.71l-3.91,2.23a6.51,6.51,0,0,0-3,5.12Z"/><path class="cls-15" d="M54,78.2c0,1.82,1.3,2.55,2.9,1.65a6.27,6.27,0,0,0,2.89-4.93c0-1.81-1.29-2.55-2.89-1.64A6.27,6.27,0,0,0,54,78.2Z"/><path class="cls-13" d="M54.66,77.82c0,1.39,1,2,2.22,1.25a4.79,4.79,0,0,0,2.21-3.76c0-1.39-1-2-2.21-1.26A4.77,4.77,0,0,0,54.66,77.82Z"/><path class="cls-13" d="M45.88,77.14l-.42.24-4.85,2.75v0l-.4.9L37,88.2l-.4.88a.1.1,0,0,1,0,0l9-5.07.42-.24a5.87,5.87,0,0,0,2.51-4.73V79C48.39,77.19,47.27,76.35,45.88,77.14Z"/><path d="M45.88,77.14l-.42.24-4.85,2.75v0l-.4.9,1-.57,4.27-2.42.42-.24c1-.6,1.91.1,1.92,1.54v.07a4.61,4.61,0,0,1-1.91,3.71l-.42.23L37.13,88.1l-.18.1-.4.88a.1.1,0,0,1,0,0l9-5.07.42-.24a5.87,5.87,0,0,0,2.51-4.73V79C48.39,77.19,47.27,76.35,45.88,77.14Z"/><path d="M73.71,67c0,1.82,1.29,2.55,2.89,1.65a6.27,6.27,0,0,0,2.89-4.93c0-1.81-1.29-2.55-2.89-1.64A6.26,6.26,0,0,0,73.71,67Z"/><path class="cls-13" d="M74.39,66.63c0,1.39,1,2,2.21,1.25a4.8,4.8,0,0,0,2.22-3.76c0-1.39-1-2-2.22-1.26A4.79,4.79,0,0,0,74.39,66.63Z"/><polygon points="40.6 80.15 24.92 71.25 24.51 72.15 21.27 79.3 20.87 80.19 36.55 89.08 36.95 88.2 38.91 83.89 40.2 81.05 40.6 80.15"/><path class="cls-13" d="M40.2,81.05l-15.69-8.9L21.27,79.3,37,88.2c.81-1.51,1.56-3,2.18-4.44C39.53,82.84,39.89,81.93,40.2,81.05Z"/><path class="cls-10" d="M56.88,66.91,41.19,58l-9.61,5.45a12.85,12.85,0,0,0-1.81,1.26l15.69,8.9a12.3,12.3,0,0,1,1.81-1.26Z"/><path class="cls-14" d="M70.69,42.5l0,0A2.65,2.65,0,0,0,68,41.21L60.74,42.4,65.79,51l4.65-5.55A2.55,2.55,0,0,0,70.69,42.5Z"/><path class="cls-3" d="M59.3,44.84c0-2.27,1.62-3.19,3.62-2.06a7.84,7.84,0,0,1,3.62,6.16c0,2.27-1.62,3.19-3.62,2.05A7.82,7.82,0,0,1,59.3,44.84Z"/><polygon class="cls-3" points="59.31 43.13 64.43 51.84 65.48 51.24 60.36 42.53 59.31 43.13"/><polygon class="cls-16" points="59.21 43.19 64.32 51.9 53.97 57.92 48.85 49.22 59.21 43.19"/><polygon class="cls-14" points="48.85 49.22 53.97 57.92 43.94 63.65 38.82 54.94 48.85 49.22"/><path class="cls-14" d="M58.15,45.49c0-2.26,1.62-3.18,3.61-2.05a7.82,7.82,0,0,1,3.62,6.16c0,2.27-1.62,3.18-3.62,2A7.84,7.84,0,0,1,58.15,45.49Z"/><path class="cls-17" d="M49,50.81c0-2.27,1.62-3.19,3.62-2.06a7.84,7.84,0,0,1,3.62,6.16c0,2.27-1.62,3.19-3.62,2.06A7.85,7.85,0,0,1,49,50.81Z"/><polygon class="cls-17" points="49.05 49.1 54.17 57.81 55.22 57.21 50.1 48.51 49.05 49.1"/><path class="cls-14" d="M47.79,51.52c0-2.27,1.62-3.19,3.62-2.06A7.86,7.86,0,0,1,55,55.62c0,2.27-1.62,3.19-3.61,2.05A7.82,7.82,0,0,1,47.79,51.52Z"/><path class="cls-3" d="M37.76,57.24c0-2.27,1.62-3.19,3.62-2.05A7.82,7.82,0,0,1,45,61.34c0,2.27-1.62,3.19-3.62,2.06A7.84,7.84,0,0,1,37.76,57.24Z"/><path d="M39.31,58.12c0-1.3.93-1.83,2.07-1.18a4.48,4.48,0,0,1,2.08,3.53c0,1.3-.93,1.82-2.08,1.17A4.5,4.5,0,0,1,39.31,58.12Z"/><path class="cls-14" d="M77.86,46.53l0,0a2.64,2.64,0,0,0-2.71-1.25l-7.22,1.18L73,55l4.65-5.55A2.55,2.55,0,0,0,77.86,46.53Z"/><path class="cls-3" d="M66.47,48.86c0-2.27,1.62-3.19,3.62-2A7.82,7.82,0,0,1,73.71,53c0,2.26-1.62,3.18-3.62,2.05A7.84,7.84,0,0,1,66.47,48.86Z"/><polygon class="cls-3" points="66.48 47.15 71.6 55.86 72.65 55.27 67.53 46.56 66.48 47.15"/><polygon class="cls-14" points="66.38 47.22 71.49 55.92 61.13 61.95 56.02 53.24 66.38 47.22"/><polygon class="cls-14" points="56.02 53.24 61.13 61.95 51.11 67.67 45.99 58.96 56.02 53.24"/><path class="cls-14" d="M65.32,49.52c0-2.27,1.62-3.19,3.61-2.06a7.85,7.85,0,0,1,3.62,6.16c0,2.27-1.62,3.19-3.62,2.06A7.87,7.87,0,0,1,65.32,49.52Z"/><path class="cls-3" d="M56.21,54.83c0-2.27,1.62-3.18,3.62-2a7.82,7.82,0,0,1,3.62,6.16c0,2.26-1.62,3.18-3.62,2.05A7.82,7.82,0,0,1,56.21,54.83Z"/><polygon class="cls-3" points="56.22 53.13 61.34 61.83 62.39 61.24 57.27 52.53 56.22 53.13"/><path class="cls-14" d="M55,55.54c0-2.27,1.62-3.18,3.62-2a7.84,7.84,0,0,1,3.61,6.16c0,2.26-1.62,3.18-3.61,2.05A7.82,7.82,0,0,1,55,55.54Z"/><path class="cls-3" d="M44.93,61.26c0-2.26,1.62-3.18,3.62-2a7.82,7.82,0,0,1,3.62,6.16c0,2.27-1.62,3.18-3.62,2A7.82,7.82,0,0,1,44.93,61.26Z"/><path d="M46.48,62.14c0-1.3.93-1.83,2.07-1.18a4.48,4.48,0,0,1,2.08,3.53c0,1.3-.93,1.83-2.08,1.18A4.5,4.5,0,0,1,46.48,62.14Z"/><path class="cls-2" d="M62.47,46.2v4.61a3.53,3.53,0,0,1-2.12,2.91,11.5,11.5,0,0,1-10.26,0A3.54,3.54,0,0,1,48,50.81V46.2Z"/><path class="cls-2" d="M50.08,49.11a11.52,11.52,0,0,0,10.27,0c2.83-1.61,2.83-4.21,0-5.82a11.52,11.52,0,0,0-10.27,0C47.25,44.9,47.25,47.5,50.08,49.11Z"/><path class="cls-3" d="M62.47,46.2v4.61a3.53,3.53,0,0,1-2.12,2.91,11.5,11.5,0,0,1-10.26,0A3.54,3.54,0,0,1,48,50.81V46.2Z"/><path class="cls-3" d="M50.08,49.11a11.52,11.52,0,0,0,10.27,0c2.83-1.61,2.83-4.21,0-5.82a11.52,11.52,0,0,0-10.27,0C47.25,44.9,47.25,47.5,50.08,49.11Z"/><path class="cls-6" d="M4.29,16.74Q2,18,0,19.43L49.5,44.84h0l0,0-.08.13,0,0a1.09,1.09,0,0,0-.08.15s0,0,0,0a.36.36,0,0,1,0,.09s0,0,0,.06h0s0,0,0,0a.64.64,0,0,0,0,.07l0,.08v0s0,.09,0,.14v0l0,.13v0s0,.08,0,.12v.24a.28.28,0,0,1,0,.09.31.31,0,0,1,0,.1s0,0,0,.06a.5.5,0,0,0,0,.12.06.06,0,0,1,0,0,.74.74,0,0,1,0,.14l0,0a.88.88,0,0,0,0,.15s0,0,0,0a.36.36,0,0,1,0,.09l0,.06h0v0s0,0,0,.06a.22.22,0,0,0,0,.08v0l.1.14s0,0,0,0l.1.12,0,0,.09.1.06.06.08.09L50,48a.27.27,0,0,0,.08.07l.1.09.06,0,.13.09,0,0,.15.1,0,0,.18.11,0,0,.11.06.09,0h0l.08,0,.12.06,0,0,.2.09,0,0,.19.08.07,0h0L35.87,85.89c2,.33,4.11.63,6.2.86L56.13,49.67h.09l.23,0h.06a2.3,2.3,0,0,0,.26,0h0l.14,0,.28,0,.14,0h0l.24-.06h.06l.21-.05.08,0,.19-.05.09,0,.16,0,.12,0,.12-.05.15,0,.09,0,.17-.07.06,0,.18-.09,0,0,.19-.1,0,0,.11-.06.07,0h0l.08,0,.1-.07,0,0a.91.91,0,0,0,.16-.11l0,0,.14-.11.05,0,.11-.1.06,0,.09-.09.07-.07a.46.46,0,0,1,.07-.07l.07-.09,0-.06a.76.76,0,0,0,.08-.11l0,0,.09-.12v0a.64.64,0,0,0,.08-.14l0,0a.36.36,0,0,1,0-.09s0,0,0-.06h0s0,0,0,0a.25.25,0,0,1,0-.07l0-.08v0c0-.05,0-.1,0-.14v0l0-.13v-.05h0l65.86-10.85c-.26-.59-.56-1.17-.87-1.76s-.66-1.16-1-1.74L60.2,44h0l0,0L60,43.85l0,0-.18-.11,0,0-.1-.06-.09,0h0l-.08,0-.12-.06,0,0-.2-.09-.05,0-.19-.08-.07,0-.18-.06-.09,0-.15,0-.13,0-.13,0-.16,0-.1,0-.2,0-.07,0-.23,0h-.05l-.25,0h0l-.15,0h-.28l-.14,0h0l-.26,0H56l-.24,0H54.62l-.21,0h-.08l-.23,0H54l-.25,0h-.05l-.14,0-.28.05-.14,0h-.05l-.24,0-.06,0-.21,0-.08,0h0Z"/><path class="cls-2" d="M59.09,43.28v2.25a1.73,1.73,0,0,1-1,1.43,5.68,5.68,0,0,1-5,0,1.75,1.75,0,0,1-1-1.43V43.28Z"/><path class="cls-2" d="M53,44.7a5.61,5.61,0,0,0,5,0c1.39-.78,1.39-2.06,0-2.84a5.61,5.61,0,0,0-5,0C51.65,42.64,51.65,43.92,53,44.7Z"/><path class="cls-9" d="M59.09,43.28v2.25a1.73,1.73,0,0,1-1,1.43,5.68,5.68,0,0,1-5,0,1.75,1.75,0,0,1-1-1.43V43.28Z"/><path class="cls-9" d="M53,44.7a5.61,5.61,0,0,0,5,0c1.39-.78,1.39-2.06,0-2.84a5.61,5.61,0,0,0-5,0C51.65,42.64,51.65,43.92,53,44.7Z"/></g></g></svg>