<svg xmlns="http://www.w3.org/2000/svg" viewBox="0 0 436.85 413.48"><defs><style>.cls-1{fill:#1d1d1b;opacity:0.3;}.cls-2{fill:#575756;}.cls-3{fill:#706f6f;}.cls-4{fill:#9b9b9a;}.cls-5{fill:#ebebeb;}.cls-6{fill:#fff;}.cls-7{fill:#d4ccc3;}.cls-8{fill:#b5ada3;}.cls-9{fill:#f4f4f4;}.cls-10{fill:#d32441;}.cls-11{fill:#bd4016;}.cls-12{fill:#74a8ab;}</style></defs><title>Recurso51</title><g id="Capa_2" data-name="Capa 2"><g id="ELEMENTOS_INDIVIDUALES" data-name="ELEMENTOS INDIVIDUALES"><path class="cls-1" d="M156.73,306l42.84,24.74-5.95.79-60.9,8.26-7.72,1-61,8.32H63.9l-18.34,2.46,21.93,12.64,2.32,1.33,6.39,3.69,17.22-.35a79.35,79.35,0,0,0,10.92,9.89q11.73,8.26,24,15.79c4.87,2.9,9.74,5.75,14.71,8.51,1.43.83,3.39.74,5.61-.54a15.3,15.3,0,0,0,4.92-4.92,17.31,17.31,0,0,0,2.8-6.69,14.25,14.25,0,0,0,.15-2c0-2.51-.89-4.28-2.31-5.06v0c-4.82-2.86-9.55-5.61-14.27-8.22a2.74,2.74,0,0,0-.64-.39c-.59-.35-1.23-.64-1.82-.94l-2.7-6.24,30.2-.69a84.38,84.38,0,0,0,10,8.95c7.87,5.51,15.84,10.77,24.06,15.79,4.87,2.9,9.74,5.76,14.71,8.51,1.42.84,3.39.74,5.6-.54,4.33-2.51,7.87-8.61,7.87-13.63,0-2.51-.88-4.28-2.31-5.11-4.82-2.86-9.54-5.61-14.26-8.27-.2-.09-.4-.24-.59-.34-.64-.35-1.23-.64-1.87-1L206,366.48l50-1.08c7.38,4.08,13,6.54,17.07,7.77L319.5,400s5.06,2.7,5.8,3.05a98,98,0,0,0,9.49,4.43,81.27,81.27,0,0,0,14,4.52,62.13,62.13,0,0,0,22,.84c8.46-1.18,10.77-11.27,5.51-18.25-3-3.94-5.36-7.43-7.48-10.53-1.62-2.41-3.1-4.62-4.52-6.64-.74-1.08-1.53-2.16-2.31-3.2a48.11,48.11,0,0,0-15.65-13.87c-.19-.1-.34-.24-.54-.34l-29.41-17c2.85-3.05,4.87-7.43,4.87-11.22,0-2.51-.89-4.28-2.32-5.11-4.77-2.86-9.54-5.61-14.21-8.22a4.39,4.39,0,0,0-.64-.39c-.64-.35-1.23-.64-1.87-1l-1.57-3.64,1.08-16.38c4.13,2.46,8.26,4.87,12.49,7.23,1.43.84,3.4.74,5.61-.54,3.94-2.26,7.18-7.52,7.77-12.2l-66.16-38.17-5.85,14.42-1.38,3.34-11.81,29.12-61.78-35.66a.17.17,0,0,0-.1-.05L121.11,234.9l-3.93-36.25-15.74-9.1-1,2.46-7.28-20.27-15.74-9.1.64,6.29,4.48,43.44.44,3.94C76.45,215,72.81,222,76.35,227.77l-2.51.34-8.21,1.13-7.38,1-28.19,3.83-8.66,1.13,15.79,9.1,51.6,1.87,3.15.1c1.92,2.26,3.89,4.53,5.81,6.79C116.59,274.69,136.46,295.45,156.73,306Z"/><path class="cls-2" d="M399.23,233.31a8.07,8.07,0,0,1-4.69-5.6c-.41-2.3,1-3.51,3.23-2.71a8,8,0,0,1,4.7,5.6C402.87,232.9,401.43,234.11,399.23,233.31Z"/><rect class="cls-2" x="396.04" y="224.88" width="2.79" height="10.35" transform="translate(-54.96 308.92) rotate(-39.95)"/><path class="cls-3" d="M396.94,235.23c2.2.8,3.65-.41,3.24-2.71a8.06,8.06,0,0,0-4.7-5.61c-2.19-.8-3.64.42-3.23,2.72A8.07,8.07,0,0,0,396.94,235.23Z"/><path class="cls-4" d="M396.68,233.7c1.38.5,2.29-.26,2-1.71a5.1,5.1,0,0,0-3-3.54c-1.38-.51-2.29.26-2,1.71A5.12,5.12,0,0,0,396.68,233.7Z"/><path class="cls-5" d="M396.53,232.88c1,.34,1.58-.18,1.4-1.18a3.48,3.48,0,0,0-2-2.43c-.95-.35-1.58.18-1.41,1.18A3.54,3.54,0,0,0,396.53,232.88Z"/><rect class="cls-3" x="392.69" y="216.43" width="2.75" height="16.96" transform="translate(-32.97 71.58) rotate(-9.96)"/><path class="cls-2" d="M394.61,237.28a8.06,8.06,0,0,1-4.7-5.6c-.41-2.3,1-3.52,3.24-2.72a8.07,8.07,0,0,1,4.69,5.61C398.25,236.87,396.8,238.08,394.61,237.28Z"/><rect class="cls-2" x="391.41" y="228.85" width="2.79" height="10.35" transform="translate(-58.58 306.89) rotate(-39.96)"/><path class="cls-3" d="M392.32,239.2c2.19.8,3.64-.41,3.23-2.71a8.07,8.07,0,0,0-4.69-5.61c-2.2-.8-3.64.42-3.24,2.71A8.06,8.06,0,0,0,392.32,239.2Z"/><path class="cls-4" d="M392.05,237.67c1.38.5,2.29-.26,2-1.71a5.08,5.08,0,0,0-3-3.54c-1.39-.51-2.3.26-2.05,1.71A5.12,5.12,0,0,0,392.05,237.67Z"/><path class="cls-5" d="M391.9,236.85c1,.34,1.58-.18,1.41-1.18a3.52,3.52,0,0,0-2-2.43c-.95-.35-1.58.18-1.4,1.17A3.5,3.5,0,0,0,391.9,236.85Z"/><path class="cls-6" d="M306.92,125.61c-.85-4.8-4.56-6.16-8.3-3A16.87,16.87,0,0,0,293.38,137c.84,4.8,4.56,6.16,8.29,3A16.91,16.91,0,0,0,306.92,125.61Z"/><path class="cls-7" d="M335.43,130.55c-10.85-3.74-21.41-6.92-31.57-9.43a84.31,84.31,0,0,0-22.77-2.34c-8.89.33-10,3.6-3.58,9.8a85.57,85.57,0,0,0,18.93,12.88q14.9,7,30.26,13c6,2.32,12.14,4.58,18.29,6.7l8.73-23.95C347.55,134.88,341.45,132.62,335.43,130.55Z"/><path class="cls-6" d="M339.24,136c-.92-5.77-5.28-7.39-9.78-3.56s-7.09,11.25-6.18,16.93,5.28,7.14,9.78,3.56S340.13,141.63,339.24,136Z"/><path class="cls-6" d="M335.43,130.55,326.7,154.5c6,2.32,12.14,4.58,18.29,6.7l8.73-23.95C347.55,134.88,341.45,132.62,335.43,130.55Z"/><path class="cls-5" d="M357.34,142.56c-1-5.66-5.37-7.26-9.78-3.57s-7.17,11.27-6.18,16.93,5.38,7.26,9.78,3.57S358.33,148.22,357.34,142.56Z"/><path class="cls-3" d="M355.75,143.88c-.79-4.53-4.3-5.81-7.83-2.85A15.94,15.94,0,0,0,343,154.6c.79,4.53,4.3,5.81,7.83,2.85A15.94,15.94,0,0,0,355.75,143.88Z"/><path class="cls-8" d="M313.49,128.39,334.22,136a1.32,1.32,0,0,0,1.55-2l-11.59-17.59a1.24,1.24,0,0,0-.64-.51l-20.73-7.57a1.32,1.32,0,0,0-1.55,2l11.58,17.59A1.26,1.26,0,0,0,313.49,128.39Z"/><path class="cls-6" d="M305.92,77.35c-.84-4.8-4.56-6.16-8.3-3a16.93,16.93,0,0,0-5.24,14.37c.84,4.8,4.56,6.16,8.3,3A16.9,16.9,0,0,0,305.92,77.35Z"/><path class="cls-7" d="M281,70.51a85.43,85.43,0,0,1,21.82,2.35c10.17,2.51,20.73,5.69,31.58,9.43,6,2.07,12.11,4.33,18.29,6.7l-8.74,24c-6.15-2.12-12.25-4.37-18.29-6.7q-15.39-6-30.26-13a99.2,99.2,0,0,1-11.66-7.08Z"/><path class="cls-6" d="M338.24,87.69c-.91-5.77-5.28-7.39-9.78-3.56s-7.09,11.25-6.17,16.93,5.28,7.15,9.77,3.56S339.14,93.37,338.24,87.69Z"/><path class="cls-6" d="M334.44,82.29l-8.74,23.95c6,2.33,12.14,4.58,18.29,6.7l8.74-24C346.55,86.62,340.45,84.36,334.44,82.29Z"/><path class="cls-5" d="M356.34,94.3c-1-5.66-5.37-7.26-9.77-3.57s-7.18,11.27-6.18,16.93,5.37,7.26,9.77,3.57S357.33,100,356.34,94.3Z"/><path class="cls-3" d="M354.76,95.62c-.8-4.53-4.31-5.81-7.84-2.85A16,16,0,0,0,342,106.34c.8,4.53,4.31,5.81,7.84,2.85A16,16,0,0,0,354.76,95.62Z"/><path class="cls-8" d="M312.49,80.13l20.73,7.57a1.32,1.32,0,0,0,1.55-2L323.19,68.15a1.3,1.3,0,0,0-.65-.51l-20.73-7.57a1.32,1.32,0,0,0-1.55,2l11.59,17.59A1.24,1.24,0,0,0,312.49,80.13Z"/><polygon class="cls-9" points="258.37 140.03 335.03 168.01 321.07 39.75 315.74 37.8 314.08 37.21 283 25.88 280.68 36.63 270.6 83.36 269.72 87.42 261.52 125.51 258.37 140.03"/><polygon class="cls-5" points="315.84 147.71 316.69 147.7 317.53 147.69 315.74 37.8 314.08 37.21 315.84 147.71"/><rect class="cls-5" x="293.7" y="91.74" width="1.67" height="45.81" transform="translate(84.81 351.09) rotate(-69.7)"/><rect class="cls-5" x="297.93" y="48.87" width="1.67" height="36.16" transform="translate(141.61 329.71) rotate(-71.75)"/><polygon class="cls-10" points="270.6 83.36 279.39 86.5 287.68 39.44 280.68 36.63 270.6 83.36"/><polygon class="cls-10" points="261.52 125.51 271.49 128.78 278.46 90.63 269.72 87.42 261.52 125.51"/><polygon class="cls-10" points="81.19 25.54 72.46 65.97 114.84 81.44 100.78 32.69 81.19 25.54"/><polygon class="cls-10" points="81.19 25.54 72.46 65.97 114.84 81.44 100.78 32.69 81.19 25.54"/><polygon class="cls-11" points="81.19 25.54 72.46 65.97 114.84 81.44 100.78 32.69 81.19 25.54"/><polygon class="cls-10" points="81.19 25.54 72.46 65.97 114.84 81.44 100.78 32.69 81.19 25.54"/><polygon class="cls-6" points="81.78 56.34 91.82 54.58 88.31 34.56 77.15 29.93 81.78 56.34"/><path class="cls-6" d="M211.68,205.81c-.84-4.81-4.56-6.16-8.29-3a16.92,16.92,0,0,0-5.25,14.37c.85,4.81,4.56,6.16,8.3,3A16.88,16.88,0,0,0,211.68,205.81Z"/><path class="cls-7" d="M240.2,210.74c-10.85-3.74-21.41-6.92-31.57-9.42A84,84,0,0,0,185.85,199c-8.89.32-10,3.59-3.58,9.8a86,86,0,0,0,18.94,12.87q14.88,7,30.25,13c6,2.33,12.14,4.59,18.29,6.71l8.74-24Q249.22,213.88,240.2,210.74Z"/><path class="cls-6" d="M244,216.15c-.91-5.77-5.28-7.39-9.77-3.57s-7.1,11.26-6.18,16.93,5.28,7.15,9.77,3.57S244.9,221.82,244,216.15Z"/><path class="cls-6" d="M240.2,210.74l-8.74,23.95c6,2.33,12.14,4.59,18.29,6.71l8.74-24Q249.22,213.88,240.2,210.74Z"/><path class="cls-5" d="M262.1,222.75c-1-5.66-5.37-7.25-9.77-3.56s-7.17,11.27-6.18,16.93,5.37,7.25,9.77,3.56S263.1,228.41,262.1,222.75Z"/><path class="cls-3" d="M260.52,224.08c-.8-4.54-4.31-5.82-7.84-2.86a16,16,0,0,0-5,13.57c.8,4.54,4.31,5.82,7.84,2.86A16,16,0,0,0,260.52,224.08Z"/><path class="cls-8" d="M218.26,208.59,239,216.15a1.32,1.32,0,0,0,1.55-2L229,196.6a1.37,1.37,0,0,0-.65-.51l-20.72-7.56a1.32,1.32,0,0,0-1.56,2l11.59,17.59A1.32,1.32,0,0,0,218.26,208.59Z"/><path class="cls-6" d="M132.45,222.65c-.85-4.8-4.56-6.16-8.3-3A16.88,16.88,0,0,0,118.91,234c.84,4.81,4.55,6.16,8.29,3A16.92,16.92,0,0,0,132.45,222.65Z"/><path class="cls-7" d="M161,227.59c-10.85-3.75-21.41-6.92-31.57-9.43a84.38,84.38,0,0,0-22.78-2.34c-8.88.32-10,3.59-3.57,9.8A86.26,86.26,0,0,0,122,238.5q14.9,7,30.25,13c6.05,2.33,12.15,4.59,18.3,6.71l8.73-24C173.07,231.91,167,229.66,161,227.59Z"/><path class="cls-6" d="M164.76,233c-.91-5.77-5.27-7.39-9.77-3.57s-7.09,11.26-6.18,16.93,5.28,7.15,9.78,3.57S165.66,238.67,164.76,233Z"/><path class="cls-6" d="M161,227.59l-8.74,23.94c6.05,2.33,12.15,4.59,18.3,6.71l8.73-24C173.07,231.91,167,229.66,161,227.59Z"/><path class="cls-5" d="M182.87,239.59c-1-5.65-5.37-7.25-9.78-3.56s-7.17,11.27-6.18,16.93,5.37,7.26,9.78,3.57S183.86,245.25,182.87,239.59Z"/><path class="cls-3" d="M181.28,240.92c-.79-4.54-4.3-5.82-7.83-2.86a16,16,0,0,0-4.95,13.57c.79,4.54,4.3,5.82,7.83,2.86A16,16,0,0,0,181.28,240.92Z"/><path class="cls-8" d="M139,225.43,159.74,233a1.31,1.31,0,0,0,1.55-2l-11.58-17.58a1.29,1.29,0,0,0-.65-.52l-20.72-7.56a1.32,1.32,0,0,0-1.55,2l11.58,17.59A1.37,1.37,0,0,0,139,225.43Z"/><path class="cls-5" d="M193.13,106c-2.14-12.16-11.54-15.59-21-7.66s-15.4,24.2-13.27,36.35,11.53,15.59,21,7.66S195.26,118.1,193.13,106Z"/><path class="cls-6" d="M62.44,75.45c33.23,27.43,70.2,59.73,104.18,70.55l202.25,73.8s6.24,2.06,7.1,2.33c19.2,6,35.6,7.77,53.28,2,9.34-3,9.9-14.86,2.6-21.68-4.13-3.86-7.52-7.3-10.5-10.4-2.32-2.41-4.4-4.59-6.41-6.57-1.08-1.1-2.15-2.17-3.24-3.17a55.36,55.36,0,0,0-20.41-12.55,5.32,5.32,0,0,0-.66-.29L185.36,94.59,68.69,59.84C57.94,56.74,53.84,69.12,62.44,75.45Z"/><path class="cls-10" d="M0,92.92l19.6,7.14L97.82,89.21a2.11,2.11,0,0,0,.43-4.08C88.05,78,76.09,75,63.8,72.56l-6.1,2L9.51,89.89Z"/><path class="cls-10" d="M0,92.92l19.6,7.14L97.82,89.21a2.11,2.11,0,0,0,.43-4.08C88.05,78,76.09,75,63.8,72.56l-6.1,2L9.51,89.89Z"/><path class="cls-10" d="M48.73,0l2,7L64.39,55.06l2.19,7.62C79.26,70,99.06,78.31,106.3,78.8a1.68,1.68,0,0,0,1.55-2.54L68.32,7.14Z"/><path class="cls-10" d="M48.73,0l2,7L64.39,55.06l2.19,7.62C79.26,70,99.06,78.31,106.3,78.8a1.68,1.68,0,0,0,1.55-2.54L68.32,7.14Z"/><path class="cls-10" d="M214.76,155.33c1,5.67,40.19,25.2,69.75,36s38.31,8.74,37.31,3.07-11.35-12.84-40.91-23.63S213.76,149.65,214.76,155.33Z"/><path class="cls-6" d="M50.29,219.45l27.24,9.93,2.86,1,8,2.91,215.49-42.64a.47.47,0,0,0,.24-.76c-3.19-3.71-8.52-7-15.35-10-.82-.39-1.66-.76-2.53-1.11-14.74-6.09-35.27-11.21-55.2-16.59a1.6,1.6,0,0,0-1.12,0l-16.57,5.28-25.11,8-41.94,13.36-8.54,2.72-28.58,9.12L70.52,213h0Z"/><path class="cls-2" d="M394.76,203.67c15.32,1.93,23.74-5.59,26.59-11.61-2.32-2.41-4.4-4.59-6.41-6.57.38,4.91-11.34,12.37-21.12,12.07C394.15,199.6,394.47,201.65,394.76,203.67Z"/><path class="cls-12" d="M123.46,106.23a9.51,9.51,0,0,0,5.53,6.61l254.25,92.83c2.58.94,4.29-.49,3.81-3.2h0a9.5,9.5,0,0,0-5.54-6.61L127.27,103c-2.58-.94-4.29.49-3.81,3.2Z"/><path class="cls-2" d="M294.81,169.87a3.8,3.8,0,0,0,2.18,2.61h0c1,.37,1.69-.2,1.51-1.26l-.36-2a3.71,3.71,0,0,0-2.18-2.6h0c-1-.38-1.68.19-1.5,1.25Z"/><path class="cls-2" d="M285.53,166.49a3.78,3.78,0,0,0,2.18,2.6h0c1,.37,1.69-.19,1.51-1.26l-.36-2a3.71,3.71,0,0,0-2.18-2.6h0c-1-.37-1.69.19-1.5,1.26Z"/><path class="cls-2" d="M276.25,163.1a3.76,3.76,0,0,0,2.18,2.6h0c1,.37,1.69-.19,1.51-1.26l-.36-2a3.73,3.73,0,0,0-2.18-2.6h0c-1-.37-1.69.2-1.5,1.26Z"/><path class="cls-2" d="M267,159.72a3.78,3.78,0,0,0,2.18,2.6h0c1,.37,1.69-.19,1.51-1.26l-.36-2a3.71,3.71,0,0,0-2.18-2.6h0c-1-.37-1.69.19-1.5,1.26Z"/><path class="cls-2" d="M257.69,156.33a3.76,3.76,0,0,0,2.18,2.6h0c1,.37,1.69-.19,1.51-1.26l-.36-2a3.73,3.73,0,0,0-2.18-2.6h0c-1-.37-1.69.19-1.5,1.26Z"/><path class="cls-2" d="M248.41,152.94a3.78,3.78,0,0,0,2.18,2.61h0c1,.37,1.69-.2,1.5-1.26l-.35-2a3.71,3.71,0,0,0-2.18-2.6h0c-1-.37-1.69.19-1.5,1.25Z"/><path class="cls-2" d="M239.13,149.56a3.78,3.78,0,0,0,2.18,2.6h0c1,.37,1.69-.19,1.5-1.26l-.35-2a3.76,3.76,0,0,0-2.18-2.6h0c-1-.37-1.69.19-1.5,1.26Z"/><path class="cls-2" d="M229.85,146.17a3.76,3.76,0,0,0,2.18,2.6h0c1,.38,1.69-.19,1.5-1.25l-.35-2A3.77,3.77,0,0,0,231,142.9h0c-1-.37-1.69.2-1.5,1.26Z"/><path class="cls-2" d="M220.57,142.79a3.78,3.78,0,0,0,2.18,2.6h0c1,.37,1.69-.19,1.5-1.26l-.35-2a3.74,3.74,0,0,0-2.18-2.6h0c-1-.37-1.69.19-1.5,1.26Z"/><path class="cls-2" d="M211.29,139.4a3.76,3.76,0,0,0,2.18,2.6h0c1,.37,1.69-.19,1.5-1.26l-.35-2a3.76,3.76,0,0,0-2.18-2.6h0c-1-.37-1.69.2-1.5,1.26Z"/><path class="cls-2" d="M202,136a3.78,3.78,0,0,0,2.18,2.6h0c1,.37,1.69-.2,1.5-1.26l-.35-2a3.74,3.74,0,0,0-2.18-2.6h0c-1-.37-1.69.19-1.5,1.25Z"/><path class="cls-2" d="M192.73,132.63a3.76,3.76,0,0,0,2.18,2.6h0c1,.37,1.69-.19,1.5-1.26l-.35-2a3.76,3.76,0,0,0-2.18-2.6h0c-1-.37-1.69.19-1.5,1.26Z"/><path class="cls-2" d="M183.45,129.24a3.8,3.8,0,0,0,2.18,2.61h0c1,.37,1.69-.2,1.5-1.26l-.35-2a3.74,3.74,0,0,0-2.18-2.6h0c-1-.38-1.69.19-1.5,1.25Z"/><path class="cls-2" d="M174.17,125.86a3.76,3.76,0,0,0,2.18,2.6h0c1,.37,1.69-.19,1.5-1.26l-.35-2a3.76,3.76,0,0,0-2.18-2.6h0c-1-.37-1.69.19-1.5,1.26Z"/><path class="cls-2" d="M164.89,122.47a3.74,3.74,0,0,0,2.18,2.6h0c1,.37,1.69-.19,1.5-1.25l-.35-2A3.75,3.75,0,0,0,166,119.2h0c-1-.37-1.69.2-1.5,1.26Z"/><path class="cls-2" d="M155.61,119.09a3.76,3.76,0,0,0,2.18,2.6h0c1,.37,1.69-.19,1.5-1.26l-.35-2a3.74,3.74,0,0,0-2.18-2.6h0c-1-.37-1.69.19-1.5,1.26Z"/><path class="cls-2" d="M146.33,115.7a3.74,3.74,0,0,0,2.18,2.6h0c1,.37,1.69-.19,1.5-1.26l-.35-2a3.76,3.76,0,0,0-2.18-2.6h0c-1-.37-1.69.19-1.5,1.26Z"/><path class="cls-2" d="M137.05,112.32a3.76,3.76,0,0,0,2.18,2.6h0c1,.37,1.69-.2,1.5-1.26l-.35-2a3.74,3.74,0,0,0-2.18-2.6h0c-1-.37-1.69.19-1.5,1.26Z"/><path class="cls-2" d="M127.77,108.93a3.76,3.76,0,0,0,2.18,2.6h0c1,.37,1.69-.19,1.5-1.26l-.35-2a3.76,3.76,0,0,0-2.18-2.6h0c-1-.37-1.69.19-1.5,1.26Z"/><path class="cls-2" d="M378.31,200.2a3.74,3.74,0,0,0,2.18,2.6h0c1,.37,1.69-.19,1.5-1.26l-.35-2a3.76,3.76,0,0,0-2.18-2.6h0c-1-.37-1.69.19-1.5,1.26Z"/><path class="cls-2" d="M369,196.81a3.75,3.75,0,0,0,2.18,2.61h0c1,.37,1.69-.2,1.5-1.26l-.35-2a3.74,3.74,0,0,0-2.18-2.6h0c-1-.37-1.69.19-1.5,1.25Z"/><path class="cls-2" d="M359.75,193.43a3.76,3.76,0,0,0,2.18,2.6h0c1,.37,1.69-.19,1.5-1.26l-.35-2a3.76,3.76,0,0,0-2.18-2.6h0c-1-.37-1.69.19-1.5,1.26Z"/><path class="cls-2" d="M350.47,190a3.77,3.77,0,0,0,2.18,2.61h0c1,.37,1.69-.2,1.5-1.26l-.35-2a3.77,3.77,0,0,0-2.18-2.61h0c-1-.37-1.69.2-1.5,1.26Z"/><path class="cls-2" d="M341.19,186.66a3.76,3.76,0,0,0,2.18,2.6h0c1,.37,1.69-.19,1.5-1.26l-.35-2a3.74,3.74,0,0,0-2.18-2.6h0c-1-.37-1.69.19-1.5,1.26Z"/><path class="cls-2" d="M331.91,183.27a3.74,3.74,0,0,0,2.18,2.6h0c1,.37,1.69-.19,1.5-1.26l-.35-2a3.76,3.76,0,0,0-2.18-2.6h0c-1-.37-1.69.2-1.5,1.26Z"/><path class="cls-2" d="M322.63,179.89a3.76,3.76,0,0,0,2.18,2.6h0c1,.37,1.69-.2,1.5-1.26l-.35-2a3.74,3.74,0,0,0-2.18-2.6h0c-1-.37-1.69.19-1.5,1.26Z"/><path class="cls-2" d="M313.35,176.5a3.74,3.74,0,0,0,2.18,2.6h0c1,.37,1.69-.19,1.5-1.26l-.35-2a3.76,3.76,0,0,0-2.18-2.6h0c-1-.37-1.69.19-1.5,1.26Z"/><path class="cls-2" d="M304.07,173.11a3.75,3.75,0,0,0,2.18,2.61h0c1,.37,1.69-.2,1.5-1.26l-.35-2a3.74,3.74,0,0,0-2.18-2.6h0c-1-.37-1.69.19-1.5,1.25Z"/><path class="cls-2" d="M294.79,169.73a3.76,3.76,0,0,0,2.18,2.6h0c1,.37,1.69-.19,1.5-1.26l-.35-2a3.76,3.76,0,0,0-2.18-2.6h0c-1-.37-1.69.19-1.5,1.26Z"/><path class="cls-3" d="M344.67,198.11c-5-1.88-5.8-4.35-6.76-7.21a27.08,27.08,0,0,1-1.28-11.07c.37-3.38,2.14-3.88,3.15-3.88a4.49,4.49,0,0,1,1.64.35c3.29,1.26,5.89,2.25,6.17,7.48a40.73,40.73,0,0,0,1.81,10.29,3.48,3.48,0,0,1-.23,3.27,3,3,0,0,1-2.55,1.14A5.59,5.59,0,0,1,344.67,198.11Zm-7.06-18.18a26,26,0,0,0,1.23,10.65c1,2.84,1.65,4.89,6.17,6.61,1.44.53,2.8.36,3.36-.43a2.6,2.6,0,0,0,.09-2.38,41.9,41.9,0,0,1-1.85-10.54c-.25-4.6-2.24-5.36-5.62-6.65a3.34,3.34,0,0,0-1.21-.26C338.56,176.93,337.82,177.94,337.61,179.93Z"/><path class="cls-3" d="M206,148.17c-5-1.88-5.79-4.35-6.76-7.21A27.06,27.06,0,0,1,198,129.89c.37-3.38,2.14-3.88,3.16-3.88a4.44,4.44,0,0,1,1.63.35c3.3,1.26,5.9,2.25,6.17,7.49a41,41,0,0,0,1.81,10.28,3.48,3.48,0,0,1-.23,3.27,3,3,0,0,1-2.55,1.15A5.66,5.66,0,0,1,206,148.17ZM198.94,130a26.13,26.13,0,0,0,1.23,10.65c1,2.84,1.66,4.89,6.17,6.62,1.45.51,2.81.35,3.36-.43a2.6,2.6,0,0,0,.09-2.38,42.35,42.35,0,0,1-1.85-10.55c-.24-4.6-2.23-5.36-5.62-6.65a3.34,3.34,0,0,0-1.2-.26C199.89,127,199.16,128,198.94,130Z"/><path class="cls-6" d="M50.7,7,64.39,55.06l10.24,3.87a1.33,1.33,0,0,0,1.67-1.72l-16-46.43a1.37,1.37,0,0,0-.86-.8Z"/><polygon class="cls-6" points="9.51 89.89 18.66 93.34 70.54 78.7 57.7 74.51 9.51 89.89"/><polygon class="cls-5" points="77.53 229.38 80.39 230.41 132.78 217.72 221.74 196.17 288.74 179.94 289.62 179.71 289.23 178.09 286.2 178.82 222.1 194.34 219.37 195.03 132.95 215.96 130.45 216.57 77.53 229.38"/><rect class="cls-5" x="204.96" y="170.76" width="1.67" height="35.25" transform="translate(-47.69 304.96) rotate(-67.17)"/><rect class="cls-5" x="120.76" y="198.32" width="1.67" height="25.81" transform="translate(-121.68 225.96) rotate(-63.54)"/><polygon class="cls-10" points="70.52 213.02 80.52 216.65 149.21 195.78 137.73 191.59 70.52 213.02"/><polygon class="cls-10" points="146.27 188.87 158.17 192.72 225.71 172.01 213.32 167.5 146.27 188.87"/></g></g></svg>