<svg xmlns="http://www.w3.org/2000/svg" viewBox="0 0 156.35 139.15"><defs><style>.cls-1{isolation:isolate;}.cls-2{fill:#301404;opacity:0.4;mix-blend-mode:multiply;}.cls-3{fill:#3b2e31;}.cls-4{fill:#999e53;}.cls-5{fill:#5b4a47;}.cls-6{fill:#e1ce8a;}.cls-7{fill:#786f6b;}.cls-8{fill:#faefc5;}.cls-9{fill:#f9eab0;}.cls-10{fill:#4e4043;}.cls-11{fill:#b8ba62;}.cls-12{fill:#cccc73;}.cls-13{fill:#663;}.cls-14{fill:#443e35;}.cls-15{fill:#372e2e;}.cls-16{fill:#493e3d;}.cls-17{fill:#cdc8bd;}.cls-18{fill:#ded8cd;}.cls-19{fill:#818241;}.cls-20{fill:#7d7e3c;}.cls-21{fill:#ebd899;}.cls-22{fill:#423633;}.cls-23{fill:#d37040;}.cls-24{fill:#eebf50;}.cls-25{fill:#a15a3d;}.cls-26{fill:#587e8e;}.cls-27{fill:#fbf3d3;}.cls-28{fill:#76676a;}.cls-29{fill:#8f7b80;}.cls-30{fill:#d3be7b;}.cls-31{fill:#bba261;}.cls-32{fill:#faf1cc;}.cls-33{fill:#c05736;}</style></defs><title>Recurso36</title><g class="cls-1"><g id="Capa_2" data-name="Capa 2"><g id="ELEMENTOS_INDIVIDUALES" data-name="ELEMENTOS INDIVIDUALES"><polygon class="cls-2" points="77.92 134.1 156.35 80.78 68.41 19.77 46.63 32.28 28.87 42.48 24.54 58.83 21.14 74.86 13.46 91.2 0 109.29 50.96 139.15 77.92 134.1"/><path class="cls-3" d="M18.65,53.72a.53.53,0,0,1,.27-.47.54.54,0,0,1,.55,0l2.43,1.39a.88.88,0,0,1,.44.76v5.84a.8.8,0,0,1-.4.69.75.75,0,0,1-.79,0l-1.92-1.1a1.17,1.17,0,0,1-.58-1Z"/><path class="cls-3" d="M25.58,56.5l1-1.32c-.51-.38-1-.77-1.47-1.13-1.93-1.51-3.33-2.59-4.47-2-.95.46-1,1.75-1,2.18v0L19.79,56l1.63-.14-.14-1.68a2.52,2.52,0,0,1,.08-.64,12.89,12.89,0,0,1,2.7,1.83C24.55,55.72,25.05,56.12,25.58,56.5Z"/><polygon class="cls-4" points="10.07 88.35 44.96 108.5 44.74 126.8 9.85 106.66 10.07 88.35"/><polygon class="cls-5" points="9.93 95.42 44.82 115.56 44.82 121.64 9.92 101.5 9.93 95.42"/><polygon class="cls-6" points="14.8 99.29 36.7 111.93 36.7 115.75 14.79 103.11 14.8 99.29"/><polygon class="cls-7" points="8.21 104.53 43.1 124.68 43.1 128.6 8.21 108.45 8.21 104.53"/><polygon class="cls-8" points="21.14 74.86 56.03 95 44.89 108.64 10 88.5 21.14 74.86"/><polygon class="cls-9" points="27.64 44.74 62.54 64.88 55.88 95.11 20.99 74.97 27.64 44.74"/><polygon class="cls-10" points="26.81 53.22 59.77 72.28 55.06 93.47 22.09 74.41 26.81 53.22"/><polygon class="cls-4" points="27.63 44.7 62.53 64.84 61.11 71.42 26.22 51.27 27.63 44.7"/><polygon class="cls-11" points="28.91 42.41 63.8 62.55 62.53 64.98 27.64 44.84 28.91 42.41"/><polygon class="cls-11" points="102.81 0 137.7 20.14 63.77 62.63 28.87 42.48 102.81 0"/><polygon class="cls-12" points="126.93 13.93 137.7 20.14 126.93 26.33 126.93 13.93"/><polygon class="cls-12" points="49.56 30.59 49.56 54.43 28.87 42.48 49.56 30.59"/><polygon class="cls-12" points="68.41 19.77 91.95 6.24 91.95 46.43 68.41 59.97 68.41 19.77"/><polygon class="cls-13" points="56.41 102.59 65.78 108 65.78 115.35 56.41 109.94 56.41 102.59"/><polygon class="cls-13" points="113.37 69.85 122.74 75.26 122.74 82.61 113.37 77.2 113.37 69.85"/><polygon class="cls-14" points="128.42 72.38 137.41 67.18 141.68 69.89 134.38 75.05 128.42 72.38"/><polygon class="cls-14" points="132.68 75.06 141.67 69.87 141.67 71.59 132.68 76.78 132.68 75.06"/><path class="cls-15" d="M48.61,121.19A14.18,14.18,0,0,1,55,110.09a4.87,4.87,0,0,1,4.11-.67c.33.13,2.87,1.65,3,1.75a4.7,4.7,0,0,1,1.54,3.9,14.21,14.21,0,0,1-6.43,11.1,4.75,4.75,0,0,1-4.21.62s-3-1.76-3.09-1.85A4.86,4.86,0,0,1,48.61,121.19Z"/><path class="cls-16" d="M52,123.2a14.18,14.18,0,0,1,6.43-11.1c3.55-2,6.43-.41,6.43,3.67a14.16,14.16,0,0,1-6.43,11.09C54.9,128.92,52,127.28,52,123.2Z"/><path class="cls-17" d="M54.11,122a9.44,9.44,0,0,1,4.29-7.39c2.36-1.36,4.28-.28,4.28,2.44a9.45,9.45,0,0,1-4.28,7.39C56,125.76,54.11,124.67,54.11,122Z"/><path class="cls-15" d="M57.58,116a1.6,1.6,0,0,1,.57-1.27c.31-.18.56.1.56.62a1.6,1.6,0,0,1-.56,1.28C57.84,116.76,57.58,116.49,57.58,116Z"/><path class="cls-15" d="M57.58,123.29a1.62,1.62,0,0,1,.57-1.28c.31-.18.56.1.56.63a1.6,1.6,0,0,1-.56,1.28C57.84,124.09,57.58,123.81,57.58,123.29Z"/><path class="cls-15" d="M55,121.79c-.46.26-.83.19-.83-.17A1.59,1.59,0,0,1,55,120.5c.46-.27.83-.19.83.17A1.61,1.61,0,0,1,55,121.79Z"/><path class="cls-15" d="M61.35,118.1c-.46.26-.83.19-.83-.17a1.55,1.55,0,0,1,.83-1.12c.45-.27.82-.2.82.17A1.63,1.63,0,0,1,61.35,118.1Z"/><path class="cls-15" d="M56.29,123.42c-.33.56-.77.91-1,.79s-.13-.68.19-1.24.77-.92,1-.79S56.61,122.87,56.29,123.42Z"/><path class="cls-15" d="M60.81,115.63c-.33.56-.77.91-1,.78s-.13-.68.19-1.24.76-.91,1-.78S61.13,115.06,60.81,115.63Z"/><path class="cls-15" d="M60.81,119.9a.8.8,0,0,1-.8,1.37.74.74,0,0,1-.19-1A.75.75,0,0,1,60.81,119.9Z"/><path class="cls-15" d="M56.29,117.32a.74.74,0,0,1,.19,1,.75.75,0,0,1-1,.35.73.73,0,0,1-.18-1A.74.74,0,0,1,56.29,117.32Z"/><path class="cls-16" d="M56.31,120.37a4.07,4.07,0,0,1,1.85-3.18c1-.59,1.85-.12,1.85,1a4.06,4.06,0,0,1-1.85,3.19C57.14,122,56.31,121.55,56.31,120.37Z"/><path class="cls-18" d="M56.9,120.51a3.66,3.66,0,0,1,1.65-2.86c.92-.52,1.66-.1,1.66.95a3.63,3.63,0,0,1-1.66,2.85C57.64,122,56.9,121.55,56.9,120.51Z"/><path class="cls-15" d="M105.79,88.56a14.17,14.17,0,0,1,6.44-11.09,4.74,4.74,0,0,1,4.27-.61c.18.08,2.81,1.64,3,1.76a4.8,4.8,0,0,1,1.44,3.82,14.15,14.15,0,0,1-6.44,11.09,5,5,0,0,1-3.87.75c-.24-.07-3.22-1.79-3.35-1.91A4.77,4.77,0,0,1,105.79,88.56Z"/><path class="cls-16" d="M109.2,90.57a14.18,14.18,0,0,1,6.43-11.1c3.55-2,6.44-.41,6.44,3.67a14.16,14.16,0,0,1-6.44,11.09C112.08,96.29,109.2,94.65,109.2,90.57Z"/><path class="cls-17" d="M111.3,89.33a9.42,9.42,0,0,1,4.28-7.39c2.36-1.36,4.28-.27,4.28,2.44a9.47,9.47,0,0,1-4.28,7.39C113.21,93.14,111.3,92,111.3,89.33Z"/><path class="cls-15" d="M114.77,83.33a1.6,1.6,0,0,1,.56-1.28c.31-.18.57.1.57.63a1.58,1.58,0,0,1-.57,1.27C115,84.13,114.77,83.85,114.77,83.33Z"/><path class="cls-15" d="M114.77,90.66a1.61,1.61,0,0,1,.56-1.28c.31-.18.57.1.57.63a1.6,1.6,0,0,1-.57,1.28C115,91.47,114.77,91.19,114.77,90.66Z"/><path class="cls-15" d="M112.13,89.16c-.45.27-.82.19-.82-.17a1.62,1.62,0,0,1,.82-1.13c.47-.25.84-.18.84.17A1.58,1.58,0,0,1,112.13,89.16Z"/><path class="cls-15" d="M118.53,85.47c-.46.27-.83.19-.83-.17a1.58,1.58,0,0,1,.83-1.12c.46-.27.83-.19.83.16A1.61,1.61,0,0,1,118.53,85.47Z"/><path class="cls-15" d="M113.47,90.8c-.32.56-.76.9-1,.78s-.14-.68.19-1.24.76-.91,1-.78S113.8,90.23,113.47,90.8Z"/><path class="cls-15" d="M118,83c-.32.56-.77.91-1,.78s-.13-.68.19-1.23.77-.92,1-.79S118.31,82.44,118,83Z"/><path class="cls-15" d="M118,87.27a.74.74,0,0,1,.19,1,.69.69,0,1,1-1.18-.67A.75.75,0,0,1,118,87.27Z"/><path class="cls-15" d="M113.47,84.69a.73.73,0,0,1,.19,1,.75.75,0,0,1-1,.36.81.81,0,0,1,.79-1.38Z"/><path class="cls-16" d="M113.5,87.74a4.07,4.07,0,0,1,1.85-3.18c1-.59,1.85-.12,1.85,1a4.08,4.08,0,0,1-1.85,3.19C114.33,89.39,113.5,88.92,113.5,87.74Z"/><path class="cls-18" d="M114.08,87.88A3.61,3.61,0,0,1,115.74,85c.91-.53,1.65-.11,1.65.94a3.65,3.65,0,0,1-1.65,2.85C114.82,89.35,114.08,88.93,114.08,87.88Z"/><path class="cls-19" d="M55.81,95l6.68-30.19,1.32-2.29L137.7,20V73.17l-14.1,8.14c-.19-5.17-4-7.2-8.62-4.51s-8.44,9.07-8.63,14.46L65.92,114.61c0-5.19-3.75-7.27-8.31-4.64s-8.27,9-8.32,14.24l-4.57,2.63v-18.4Z"/><polygon class="cls-20" points="44.79 113.65 137.48 60.36 137.38 59.75 44.61 113.35 44.79 113.65"/><polygon class="cls-4" points="44.92 113.26 138.15 59.44 138.05 58.83 44.74 112.95 44.92 113.26"/><polygon class="cls-10" points="43.02 124.67 47.79 121.91 47.79 125.86 43.02 128.61 43.02 124.67"/><polygon class="cls-21" points="44.72 108.44 55.81 95 61.02 71.45 137.7 27.18 137.7 54.9 44.72 108.44"/><polygon class="cls-4" points="66.47 113.79 106.75 90.53 106.75 91.73 66.47 114.99 66.47 113.79"/><polygon class="cls-4" points="122.88 81.3 138.11 72.52 138.11 73.72 122.88 82.5 122.88 81.3"/><polygon class="cls-3" points="61.3 76.92 76.26 68.28 76.26 83.19 58.9 93.21 61.3 76.92"/><polygon class="cls-10" points="61.63 77.39 75.55 69.35 75.54 82.75 59.38 92.09 61.63 77.39"/><polygon class="cls-3" points="77.38 67.64 85.89 62.72 85.89 77.63 77.38 82.55 77.38 67.64"/><polygon class="cls-22" points="67.03 111.41 76.75 105.8 76.75 82.52 75.23 82.52 75.23 104.91 67.42 109.42 63.21 103.91 63.21 90.86 61.68 90.86 61.68 104.42 67.03 111.41"/><polygon class="cls-22" points="61.63 77.12 63.26 76.17 63.26 90.25 61.63 91.2 61.63 77.12"/><polygon class="cls-9" points="62.11 75.98 62.79 75.59 62.79 91.38 62.11 91.78 62.11 75.98"/><path class="cls-22" d="M51.85,107.07a2.65,2.65,0,0,1-1.19,2.06c-.66.38-1.2.08-1.2-.68a2.65,2.65,0,0,1,1.2-2.06C51.31,106,51.85,106.32,51.85,107.07Z"/><path class="cls-23" d="M51.49,107.28a1.87,1.87,0,0,1-.83,1.44c-.47.26-.84,0-.84-.48a1.83,1.83,0,0,1,.84-1.44C51.11,106.54,51.49,106.75,51.49,107.28Z"/><path class="cls-24" d="M51.86,107.47A1.81,1.81,0,0,1,51,108.9c-.46.27-.83.06-.83-.47A1.81,1.81,0,0,1,51,107C51.49,106.73,51.86,106.94,51.86,107.47Z"/><polygon class="cls-25" points="85.79 98.36 87.49 97.38 87.49 98.71 85.79 99.69 85.79 98.36"/><polygon class="cls-24" points="86.07 98.64 87.78 97.66 87.78 98.99 86.07 99.97 86.07 98.64"/><polygon class="cls-25" points="102.63 88.65 104.33 87.66 104.33 88.99 102.63 89.98 102.63 88.65"/><polygon class="cls-24" points="103 88.94 104.7 87.96 104.7 89.29 103 90.28 103 88.94"/><polygon class="cls-25" points="132.48 71.41 134.19 70.43 134.19 71.76 132.48 72.74 132.48 71.41"/><polygon class="cls-24" points="132.93 71.66 134.63 70.67 134.63 72.01 132.93 72.99 132.93 71.66"/><path class="cls-26" d="M105.21,60c0,6.57,4.7,9.08,10.49,5.6S126.18,54,126.18,47.43s-4.69-9.08-10.48-5.61S105.21,53.44,105.21,60Z"/><path class="cls-27" d="M106.55,59.2c0,5.73,4.09,7.93,9.15,4.89s9.15-10.14,9.15-15.87-4.1-7.91-9.15-4.88S106.55,53.48,106.55,59.2Z"/><polygon class="cls-22" points="44.58 115.53 46.92 114.38 46.92 120.32 44.68 121.62 44.58 115.53"/><polygon class="cls-10" points="77.69 68.04 85.14 63.74 85.14 76.78 77.69 81.07 77.69 68.04"/><path class="cls-4" d="M65.68,115.39c0-.18,0-.35,0-.53,0-5.1-3.62-7.18-8-4.63s-7.94,8.71-7.92,13.81l-1.19.65c0-5.87,4.17-13,9.28-15.94s9.27-.59,9.27,5.29c0,.19,0,.39,0,.57Z"/><path class="cls-4" d="M114.85,76.57c5.1-2.94,9.23-.62,9.28,5.2l-1.43.82c-.06-5-3.64-7.07-8-4.55a17.55,17.55,0,0,0-7.91,13.82l-1.19.65C105.61,86.64,109.75,79.52,114.85,76.57Z"/><polygon class="cls-28" points="27.98 54.09 59.7 72.43 55.16 92.81 23.44 74.47 27.98 54.09"/><polygon class="cls-29" points="23.35 74.08 27.82 54.28 39.52 61.07 39.52 64.74 23.35 74.08"/><polygon class="cls-10" points="37.79 64.1 42.54 66.3 42.44 68.66 37.69 66.45 37.79 64.1"/><rect class="cls-10" x="40.04" y="60.99" width="0.3" height="5.61"/><polygon class="cls-30" points="71.25 87.94 73.97 86.36 73.97 87.92 71.25 89.5 71.25 87.94"/><polygon class="cls-31" points="71.61 87.73 73.69 86.52 73.69 87.72 71.61 88.93 71.61 87.73"/><polygon class="cls-32" points="72.21 87.26 74.02 86.21 74.02 87.25 72.21 88.3 72.21 87.26"/><polygon class="cls-24" points="37.19 52.91 49.85 60.21 49.65 61.74 36.99 54.44 37.19 52.91"/><polygon class="cls-8" points="37.84 105.87 44.12 109.5 44.12 113.81 37.84 110.19 37.84 105.87"/><polygon class="cls-8" points="11 90.7 17.28 94.33 17.28 98.64 11 95.01 11 90.7"/><polygon class="cls-33" points="128.88 42.75 99.7 60.18 99.7 67.87 128.88 50.45 128.88 42.75"/><polygon class="cls-33" points="102.81 69.56 102.81 54.61 95.21 67.15 102.81 69.56"/><path class="cls-3" d="M66.86,82.5a.57.57,0,0,1,.28-.48.54.54,0,0,1,.55,0l2.43,1.41a.85.85,0,0,1,.43.74V90a.79.79,0,0,1-.39.68.77.77,0,0,1-.8,0l-1.91-1.1a1.16,1.16,0,0,1-.59-1Z"/><path class="cls-3" d="M68.07,85.15l1.65,0-.06-4.34a2.82,2.82,0,0,0-1.39-2.38l-4.72-2.73-.82,1.43,4.71,2.72a1.13,1.13,0,0,1,.57,1Z"/><polygon class="cls-10" points="27.82 82.48 40.15 89.61 40.21 90.89 27.87 83.77 27.82 82.48"/><rect class="cls-20" x="59.55" y="43.44" width="81.9" height="0.45" transform="translate(-8.31 56.58) rotate(-30.25)"/><polygon class="cls-4" points="65.41 63.98 136.16 22.72 135.94 22.33 65.18 63.6 65.41 63.98"/><polygon class="cls-20" points="64.79 67.57 135.55 26.31 135.32 25.92 64.57 67.18 64.79 67.57"/><polygon class="cls-4" points="64.96 67.07 135.71 25.81 135.49 25.41 64.73 66.68 64.96 67.07"/><polygon class="cls-23" points="41.41 107.94 44.12 109.5 44.12 113.81 41.41 112.25 41.41 107.94"/><polygon class="cls-23" points="13.27 92.02 13.27 96.33 11 95.01 11 90.7 13.27 92.02"/><polygon class="cls-22" points="15.43 100.15 36.03 111.98 36.02 114.82 15.43 102.99 15.43 100.15"/><polygon class="cls-6" points="15 101.69 36.34 113.99 36.34 114.37 15 102.07 15 101.69"/><polygon class="cls-6" points="15.03 100.69 36.38 112.98 36.38 113.35 15.03 101.06 15.03 100.69"/><polygon class="cls-10" points="43.63 83.05 44.02 82.94 47.16 88.71 46.15 88.09 43.63 83.05"/><polygon class="cls-10" points="45.78 81.13 46.19 81.42 41.98 84.4 41.57 84.11 45.78 81.13"/><polygon class="cls-10" points="33.2 76.99 33.59 76.88 36.73 82.66 35.72 82.04 33.2 76.99"/><polygon class="cls-10" points="35.35 75.07 35.76 75.37 31.56 78.35 31.14 78.05 35.35 75.07"/></g></g></g></svg>