<svg xmlns="http://www.w3.org/2000/svg" viewBox="0 0 361.02 267.01"><defs><style>.cls-1{fill:#1d1d1b;opacity:0.3;}.cls-2{fill:#575756;}.cls-3{fill:#706f6f;}.cls-4{fill:#9b9b9a;}.cls-5{fill:#ebebeb;}.cls-6{fill:#fff;}.cls-7{fill:#d4ccc3;}.cls-8{fill:#b5ada3;}.cls-9{fill:#f4f4f4;}.cls-10{fill:#74a8ab;}.cls-11{fill:#d32441;}</style></defs><title>Recurso49</title><g id="Capa_2" data-name="Capa 2"><g id="ELEMENTOS_INDIVIDUALES" data-name="ELEMENTOS INDIVIDUALES"><path class="cls-1" d="M222.4,159.53c22.34-11.69,44.25-35.79,64.75-59.73l54.76-2,15.77-9.1-8.63-1.17-43.77-5.94-2.53-.35c3.57-5.81-.1-12.72-6.58-11.47l.42-3.9,4.52-43.43.64-6.3L286,25.27,278.69,45.5l-1-2.46-15.78,9.11L258,88.43l-59.44,29.7-.11.06-61.75,35.65-11.83-29.12-1.37-3.36L107.79,82.69l-3.62-8.89-25,14.44L77.81,89l-4.29,2.48,1.73,26.44L70.44,129l-1.84,1a3.63,3.63,0,0,0-.64.36c-4.7,2.61-9.44,5.37-14.23,8.24h0v0c-1.42.82-2.31,2.58-2.31,5.09a17.38,17.38,0,0,0,7.87,13.63c2.19,1.26,4.17,1.37,5.59.53,4.22-2.34,8.38-4.79,12.51-7.25L78.46,167l-1.59,3.67c-.62.34-1.22.63-1.85,1a3.72,3.72,0,0,0-.64.36q-7,3.91-14.22,8.24h0c-1.43.82-2.31,2.59-2.31,5.1,0,3.78,2,8.18,4.85,11.19l-29.42,17a4.82,4.82,0,0,0-.53.35A48.1,48.1,0,0,0,17.1,227.78c-.79,1-1.55,2.1-2.31,3.21-1.43,2-2.89,4.2-4.52,6.62-2.1,3.12-4.49,6.59-7.47,10.52-5.24,7-3,17.06,5.52,18.26a60.92,60.92,0,0,0,22-.86,82,82,0,0,0,14-4.49c3.12-1.27,6.28-2.76,9.51-4.42.7-.36,5.76-3.08,5.76-3.08l46.49-26.84c4.12-1.27,9.69-3.72,17.09-7.76l50,1.08-2.28,5.26c-.62.33-1.22.63-1.84,1a3.63,3.63,0,0,0-.64.36q-7.05,3.91-14.23,8.25h0c-1.43.82-2.32,2.58-2.32,5.09a17.41,17.41,0,0,0,7.87,13.63c2.19,1.27,4.17,1.37,5.59.53,5-2.75,9.86-5.6,14.7-8.51q12.31-7.52,24-15.78a84.6,84.6,0,0,0,10-8.93l30.2.65-2.71,6.25c-.62.34-1.22.63-1.84,1a3.68,3.68,0,0,0-.64.37q-7.05,3.92-14.23,8.24h0c-1.42.82-2.31,2.58-2.31,5.1a17.41,17.41,0,0,0,7.87,13.63c2.19,1.26,4.17,1.37,5.59.52,5-2.74,9.86-5.6,14.7-8.51q12.32-7.5,24-15.78a82.85,82.85,0,0,0,10.95-9.9l17.18.37,6.41-3.7,2.31-1.32,21.93-12.65-18.35-2.48h0l-61-8.28-7.76-1-60.89-8.26-5.93-.8,42.84-24.74Z"/><path class="cls-2" d="M38.85,253.57A7,7,0,0,0,42,248c0-2-1.43-2.86-3.19-1.84a7.06,7.06,0,0,0-3.19,5.53C35.66,253.77,37.09,254.59,38.85,253.57Z"/><rect class="cls-2" x="35.39" y="249.28" width="9.03" height="2.44" transform="translate(-196.99 159.82) rotate(-60)"/><path class="cls-3" d="M41.11,254.88c-1.77,1-3.19.19-3.19-1.85a7,7,0,0,1,3.19-5.53c1.76-1,3.19-.19,3.19,1.85A7.08,7.08,0,0,1,41.11,254.88Z"/><path class="cls-4" d="M41.11,253.52c-1.11.64-2,.12-2-1.17a4.49,4.49,0,0,1,2-3.49c1.11-.64,2-.12,2,1.17A4.47,4.47,0,0,1,41.11,253.52Z"/><path class="cls-5" d="M41.11,252.79c-.77.44-1.39.08-1.39-.8a3.06,3.06,0,0,1,1.39-2.4c.76-.44,1.38-.08,1.38.8A3.07,3.07,0,0,1,41.11,252.79Z"/><rect class="cls-3" x="40.83" y="238.16" width="2.4" height="14.81"/><path class="cls-2" d="M43.43,256.29a7.08,7.08,0,0,0,3.19-5.53c0-2-1.43-2.86-3.19-1.85a7.08,7.08,0,0,0-3.19,5.54C40.24,256.48,41.67,257.31,43.43,256.29Z"/><rect class="cls-2" x="39.97" y="251.99" width="9.03" height="2.44" transform="translate(-197.04 165.12) rotate(-60)"/><path class="cls-3" d="M45.69,257.59c-1.76,1-3.19.2-3.19-1.84a7.06,7.06,0,0,1,3.19-5.53c1.76-1,3.19-.2,3.19,1.84A7.06,7.06,0,0,1,45.69,257.59Z"/><path class="cls-4" d="M45.69,256.23c-1.11.65-2,.13-2-1.16a4.45,4.45,0,0,1,2-3.49c1.11-.65,2-.12,2,1.16A4.44,4.44,0,0,1,45.69,256.23Z"/><path class="cls-5" d="M45.69,255.5c-.77.45-1.39.09-1.39-.8a3,3,0,0,1,1.39-2.39c.76-.44,1.38-.09,1.38.8A3.06,3.06,0,0,1,45.69,255.5Z"/><path class="cls-6" d="M102,147c0-4.26,3-6,6.68-3.86a14.76,14.76,0,0,1,6.68,11.57c0,4.26-3,6-6.68,3.86A14.76,14.76,0,0,1,102,147Z"/><path class="cls-7" d="M78.21,155.56c8.76-4.86,17.37-9.18,25.73-12.87a73.67,73.67,0,0,1,19.23-5.46c7.7-1.06,9.19,1.58,4.56,7.89a75.24,75.24,0,0,1-14.34,13.94q-11.74,8.26-24,15.78c-4.85,2.91-9.75,5.77-14.72,8.52L63.49,164.09C68.45,161.11,73.35,158.25,78.21,155.56Z"/><path class="cls-6" d="M75.75,160.78c-.08-5.1,3.43-7.15,7.87-4.54s7.8,8.61,7.87,13.63-3.46,6.94-7.87,4.54S75.84,165.8,75.75,160.78Z"/><path class="cls-6" d="M78.21,155.56l11.13,19.28c-4.85,2.91-9.75,5.77-14.72,8.52L63.49,164.09C68.45,161.11,73.35,158.25,78.21,155.56Z"/><path class="cls-5" d="M61.18,169.19c0-5,3.53-7.05,7.87-4.54a17.38,17.38,0,0,1,7.87,13.63c0,5-3.52,7.05-7.87,4.54A17.41,17.41,0,0,1,61.18,169.19Z"/><path class="cls-3" d="M62.75,170.1c0-4,2.82-5.66,6.3-3.65a14,14,0,0,1,6.31,10.93c0,4-2.82,5.65-6.31,3.64A13.94,13.94,0,0,1,62.75,170.1Z"/><path class="cls-8" d="M96.76,150.39,80.07,160a1.15,1.15,0,0,1-1.63-1.46l7.31-16.87a1.15,1.15,0,0,1,.48-.54l16.68-9.63a1.15,1.15,0,0,1,1.63,1.45l-7.3,16.87A1.15,1.15,0,0,1,96.76,150.39Z"/><path class="cls-6" d="M95.56,105.35c0-4.26,3-6,6.68-3.85a14.76,14.76,0,0,1,6.68,11.56c0,4.26-3,6-6.68,3.86A14.76,14.76,0,0,1,95.56,105.35Z"/><path class="cls-7" d="M115.93,95.71A74.94,74.94,0,0,0,97.51,101c-8.36,3.69-17,8-25.73,12.87-4.86,2.69-9.76,5.55-14.72,8.53l11.13,19.28c5-2.75,9.88-5.61,14.72-8.53q12.32-7.5,24-15.78a87.48,87.48,0,0,0,9-7.85Z"/><path class="cls-6" d="M69.33,119.13c-.09-5.11,3.42-7.16,7.86-4.55s7.81,8.61,7.87,13.63-3.46,6.95-7.87,4.54S69.41,124.14,69.33,119.13Z"/><path class="cls-6" d="M71.78,113.9l11.13,19.28c-4.84,2.92-9.75,5.78-14.72,8.53L57.06,122.43C62,119.45,66.92,116.59,71.78,113.9Z"/><path class="cls-5" d="M54.76,127.54c0-5,3.52-7.05,7.86-4.55a17.4,17.4,0,0,1,7.87,13.63c0,5-3.52,7.06-7.87,4.55S54.75,132.56,54.76,127.54Z"/><path class="cls-3" d="M56.32,128.44c0-4,2.82-5.65,6.3-3.64a13.92,13.92,0,0,1,6.31,10.92c0,4-2.82,5.65-6.31,3.64A13.94,13.94,0,0,1,56.32,128.44Z"/><path class="cls-8" d="M90.33,108.74l-16.69,9.63A1.15,1.15,0,0,1,72,116.92L79.32,100a1.25,1.25,0,0,1,.48-.54l16.68-9.63a1.15,1.15,0,0,1,1.63,1.45l-7.3,16.88A1.2,1.2,0,0,1,90.33,108.74Z"/><polygon class="cls-9" points="145.91 152.08 84.21 187.72 76.86 75.3 81.14 72.82 82.49 72.06 107.51 57.63 111.12 66.52 126.84 105.19 128.21 108.54 141.01 140.07 145.91 152.08"/><polygon class="cls-5" points="97.65 167.36 96.92 167.48 96.19 167.6 81.14 72.82 82.49 72.06 97.65 167.36"/><rect class="cls-5" x="90.98" y="134.98" width="40" height="1.46" transform="translate(-53.28 74.45) rotate(-30.27)"/><rect class="cls-5" x="84.36" y="94.59" width="31.57" height="1.46" transform="translate(-33.18 58.72) rotate(-28.23)"/><polygon class="cls-10" points="126.84 105.19 119.76 109.21 105.53 69.99 111.12 66.52 126.84 105.19"/><polygon class="cls-10" points="141.01 140.07 132.94 144.38 121.19 112.63 128.21 108.54 141.01 140.07"/><polygon class="cls-10" points="281.02 26.87 294.63 60.32 260.51 80.02 265.25 35.97 281.02 26.87"/><polygon class="cls-6" points="285.16 53.44 276.26 53.44 276.26 35.7 285.16 30.03 285.16 53.44"/><path class="cls-6" d="M196,201.6c0-4.25,3-6,6.68-3.85a14.76,14.76,0,0,1,6.68,11.57c0,4.26-3,6-6.68,3.85A14.76,14.76,0,0,1,196,201.6Z"/><path class="cls-7" d="M172.22,210.15C181,205.3,189.59,201,198,197.28a73.68,73.68,0,0,1,19.24-5.45c7.69-1.06,9.18,1.57,4.55,7.89a74.33,74.33,0,0,1-14.34,13.93q-11.75,8.26-24.05,15.78c-4.84,2.92-9.75,5.78-14.72,8.53L157.5,218.68C162.46,215.7,167.36,212.84,172.22,210.15Z"/><path class="cls-6" d="M169.77,215.38c-.09-5.1,3.42-7.16,7.87-4.55a17.68,17.68,0,0,1,7.86,13.63c.07,4.9-3.46,6.95-7.86,4.55S169.85,220.39,169.77,215.38Z"/><path class="cls-6" d="M172.22,210.15l11.13,19.28c-4.84,2.92-9.75,5.78-14.72,8.53L157.5,218.68C162.46,215.7,167.36,212.84,172.22,210.15Z"/><path class="cls-5" d="M155.2,223.79c0-5,3.52-7,7.86-4.54a17.38,17.38,0,0,1,7.87,13.63c0,5-3.52,7.05-7.87,4.54A17.4,17.4,0,0,1,155.2,223.79Z"/><path class="cls-3" d="M156.76,224.69c0-4,2.82-5.65,6.3-3.64A13.92,13.92,0,0,1,169.37,232c0,4-2.82,5.66-6.31,3.65A14,14,0,0,1,156.76,224.69Z"/><path class="cls-8" d="M190.77,205l-16.68,9.63a1.15,1.15,0,0,1-1.63-1.45l7.3-16.87a1.15,1.15,0,0,1,.48-.54l16.69-9.64a1.15,1.15,0,0,1,1.63,1.46l-7.31,16.87A1.15,1.15,0,0,1,190.77,205Z"/><path class="cls-6" d="M266.69,204.13c0-4.26,3-6,6.68-3.86a14.76,14.76,0,0,1,6.68,11.57c0,4.26-3,6-6.68,3.86A14.76,14.76,0,0,1,266.69,204.13Z"/><path class="cls-7" d="M242.91,212.68c8.77-4.86,17.37-9.19,25.73-12.88a74.08,74.08,0,0,1,19.24-5.45c7.69-1.06,9.18,1.58,4.55,7.89a74.33,74.33,0,0,1-14.34,13.93q-11.74,8.28-24,15.79c-4.84,2.91-9.75,5.77-14.72,8.52l-11.13-19.27C233.15,218.23,238.05,215.37,242.91,212.68Z"/><path class="cls-6" d="M240.46,217.9c-.09-5.1,3.42-7.15,7.87-4.54s7.8,8.61,7.86,13.63-3.46,6.94-7.86,4.54S240.54,222.92,240.46,217.9Z"/><path class="cls-6" d="M242.91,212.68,254,232c-4.84,2.91-9.75,5.77-14.72,8.52l-11.13-19.27C233.15,218.23,238.05,215.37,242.91,212.68Z"/><path class="cls-5" d="M225.89,226.31c0-5,3.52-7.05,7.86-4.54a17.38,17.38,0,0,1,7.87,13.63c0,5-3.52,7-7.87,4.54A17.4,17.4,0,0,1,225.89,226.31Z"/><path class="cls-3" d="M227.45,227.21c0-4,2.82-5.65,6.3-3.64a13.94,13.94,0,0,1,6.31,10.93c0,4-2.82,5.65-6.31,3.64A13.94,13.94,0,0,1,227.45,227.21Z"/><path class="cls-8" d="M261.46,207.51l-16.69,9.63a1.14,1.14,0,0,1-1.62-1.45l7.3-16.87a1.15,1.15,0,0,1,.48-.54l16.69-9.63a1.15,1.15,0,0,1,1.63,1.45L261.94,207A1.15,1.15,0,0,1,261.46,207.51Z"/><path class="cls-5" d="M196.89,112.92c0-10.78,7.56-15.14,16.89-9.76s16.9,18.49,16.9,29.27-7.57,15.14-16.9,9.75S196.89,123.69,196.89,112.92Z"/><path class="cls-6" d="M304.67,67c-24.43,28.61-51.35,62-78.94,76.4l-162.8,94-5.76,3.07c-15.61,8.05-29.44,12.06-45.52,9.77C3.16,249,.89,238.93,6.14,232c3-3.94,5.37-7.41,7.46-10.53,1.64-2.42,3.1-4.61,4.52-6.62.76-1.11,1.52-2.19,2.31-3.21a48.27,48.27,0,0,1,15.66-13.88c.17-.11.35-.26.52-.35L201.85,102,297,54.48C305.72,50.19,311.12,60.22,304.67,67Z"/><path class="cls-10" d="M361,72.56l-15.78,9.09-68.91,2.48a1.84,1.84,0,0,1-1-3.44c7.7-7.67,17.52-12.1,27.73-16l5.54.76,43.77,6Z"/><path class="cls-10" d="M305.08,0l-.64,6.3-4.52,43.42-.73,6.88c-9.8,8.23-25.57,18.35-31.73,19.86a1.47,1.47,0,0,1-1.72-1.95L289.31,9.1Z"/><path class="cls-10" d="M185.74,158.65c0,5-30.77,27.75-54.56,41.49s-31.63,13.3-31.63,8.27,7.83-12.76,31.63-26.5S185.74,153.62,185.74,158.65Z"/><path class="cls-6" d="M336.87,189l-21.93,12.66-2.3,1.31-6.42,3.71L114.45,202.5a.4.4,0,0,1-.32-.61c2.19-3.67,6.27-7.29,11.69-10.9.64-.47,1.31-.91,2-1.35,11.76-7.46,28.64-15,45-22.6a1.4,1.4,0,0,1,1-.17l15,2L211.62,172l38.08,5.16,7.76,1.05,26,3.53,35.08,4.75h0Z"/><path class="cls-2" d="M38.22,227.4c-12.88,4-21.26-1.22-24.62-6,1.64-2.42,3.1-4.61,4.52-6.62.42,4.29,11.62,8.93,20,7.2C38.14,223.81,38.16,225.62,38.22,227.4Z"/><path class="cls-11" d="M256.85,102.64a8.33,8.33,0,0,1-3.77,6.53L48.44,227.38c-2.08,1.2-3.77.23-3.77-2.17h0a8.32,8.32,0,0,1,3.77-6.52L253.08,100.47c2.08-1.2,3.77-.23,3.77,2.17Z"/><path class="cls-2" d="M119.08,183.25a3.29,3.29,0,0,1-1.48,2.57h0c-.82.47-1.48.08-1.48-.86v-1.78a3.26,3.26,0,0,1,1.48-2.57h0c.82-.47,1.48-.09,1.48.86Z"/><path class="cls-2" d="M126.55,178.94a3.26,3.26,0,0,1-1.48,2.56h0c-.82.47-1.48.09-1.48-.85v-1.78a3.26,3.26,0,0,1,1.48-2.57h0c.82-.47,1.48-.09,1.48.85Z"/><path class="cls-2" d="M134,174.62a3.26,3.26,0,0,1-1.48,2.57h0c-.82.47-1.48.09-1.48-.86v-1.78a3.26,3.26,0,0,1,1.48-2.56h0c.82-.48,1.48-.09,1.48.85Z"/><path class="cls-2" d="M141.49,170.31a3.28,3.28,0,0,1-1.48,2.57h0c-.82.47-1.48.09-1.48-.86v-1.78a3.28,3.28,0,0,1,1.48-2.57h0c.82-.47,1.48-.09,1.48.86Z"/><path class="cls-2" d="M149,166a3.26,3.26,0,0,1-1.48,2.56h0c-.82.48-1.48.09-1.48-.85v-1.78a3.26,3.26,0,0,1,1.48-2.57h0c.82-.47,1.48-.09,1.48.86Z"/><path class="cls-2" d="M156.43,161.68a3.26,3.26,0,0,1-1.48,2.57h0c-.82.47-1.48.09-1.48-.85v-1.79a3.26,3.26,0,0,1,1.48-2.56h0c.82-.48,1.48-.09,1.48.85Z"/><path class="cls-2" d="M163.9,157.37a3.26,3.26,0,0,1-1.48,2.57h0c-.82.47-1.48.09-1.48-.86V157.3a3.29,3.29,0,0,1,1.48-2.57h0c.82-.47,1.48-.08,1.48.86Z"/><path class="cls-2" d="M171.37,153.06a3.29,3.29,0,0,1-1.48,2.57h0c-.82.47-1.48.08-1.48-.86V153a3.26,3.26,0,0,1,1.48-2.57h0c.82-.47,1.48-.09,1.48.86Z"/><path class="cls-2" d="M178.84,148.75a3.26,3.26,0,0,1-1.48,2.56h0c-.82.48-1.48.09-1.48-.85v-1.79a3.26,3.26,0,0,1,1.48-2.56h0c.82-.47,1.48-.09,1.48.85Z"/><path class="cls-2" d="M186.31,144.43a3.26,3.26,0,0,1-1.48,2.57h0c-.82.47-1.48.09-1.48-.86v-1.78a3.26,3.26,0,0,1,1.48-2.56h0c.82-.48,1.48-.09,1.48.85Z"/><path class="cls-2" d="M193.78,140.12a3.28,3.28,0,0,1-1.48,2.57h0c-.82.47-1.48.09-1.48-.86v-1.78a3.26,3.26,0,0,1,1.48-2.57h0c.82-.47,1.48-.09,1.48.86Z"/><path class="cls-2" d="M201.25,135.81a3.26,3.26,0,0,1-1.48,2.56h0c-.82.48-1.48.09-1.48-.85v-1.78a3.26,3.26,0,0,1,1.48-2.57h0c.82-.47,1.48-.09,1.48.86Z"/><path class="cls-2" d="M208.72,131.49a3.26,3.26,0,0,1-1.48,2.57h0c-.82.47-1.48.09-1.48-.85v-1.79a3.26,3.26,0,0,1,1.48-2.56h0c.82-.48,1.48-.09,1.48.85Z"/><path class="cls-2" d="M216.19,127.18a3.26,3.26,0,0,1-1.48,2.57h0c-.82.47-1.48.09-1.48-.86v-1.78a3.29,3.29,0,0,1,1.48-2.57h0c.82-.47,1.48-.09,1.48.86Z"/><path class="cls-2" d="M223.66,122.87a3.29,3.29,0,0,1-1.48,2.57h0c-.82.47-1.48.08-1.48-.86V122.8a3.26,3.26,0,0,1,1.48-2.57h0c.82-.47,1.48-.09,1.48.86Z"/><path class="cls-2" d="M231.13,118.56a3.26,3.26,0,0,1-1.48,2.56h0c-.82.47-1.48.09-1.48-.85v-1.79a3.26,3.26,0,0,1,1.48-2.56h0c.82-.47,1.48-.09,1.48.85Z"/><path class="cls-2" d="M238.6,114.24a3.26,3.26,0,0,1-1.48,2.57h0c-.82.47-1.48.09-1.48-.86v-1.78a3.26,3.26,0,0,1,1.48-2.56h0c.82-.48,1.48-.09,1.48.85Z"/><path class="cls-2" d="M246.07,109.93a3.29,3.29,0,0,1-1.48,2.57h0c-.82.47-1.48.09-1.48-.86v-1.78a3.26,3.26,0,0,1,1.48-2.57h0c.82-.47,1.48-.09,1.48.86Z"/><path class="cls-2" d="M253.55,105.62a3.27,3.27,0,0,1-1.49,2.56h0c-.81.48-1.48.09-1.48-.85v-1.78a3.29,3.29,0,0,1,1.48-2.57h0c.82-.47,1.49-.09,1.49.85Z"/><path class="cls-2" d="M51.85,221.94a3.27,3.27,0,0,1-1.49,2.56h0c-.81.48-1.48.09-1.48-.85v-1.79a3.29,3.29,0,0,1,1.48-2.56h0c.82-.47,1.49-.09,1.49.85Z"/><path class="cls-2" d="M59.32,217.62a3.29,3.29,0,0,1-1.48,2.57h0c-.82.47-1.49.09-1.49-.86v-1.78A3.27,3.27,0,0,1,57.84,215h0c.81-.48,1.48-.09,1.48.85Z"/><path class="cls-2" d="M66.79,213.31a3.31,3.31,0,0,1-1.48,2.57h0c-.82.47-1.49.09-1.49-.86v-1.78a3.29,3.29,0,0,1,1.49-2.57h0c.81-.47,1.48-.09,1.48.86Z"/><path class="cls-2" d="M74.26,209a3.29,3.29,0,0,1-1.48,2.56h0c-.82.48-1.49.09-1.49-.85v-1.78a3.27,3.27,0,0,1,1.49-2.57h0c.81-.47,1.48-.09,1.48.86Z"/><path class="cls-2" d="M81.73,204.68a3.29,3.29,0,0,1-1.48,2.57h0c-.82.47-1.49.09-1.49-.85v-1.79a3.27,3.27,0,0,1,1.49-2.56h0c.81-.47,1.48-.09,1.48.85Z"/><path class="cls-2" d="M89.2,200.37a3.29,3.29,0,0,1-1.48,2.57h0c-.82.47-1.49.09-1.49-.86V200.3a3.31,3.31,0,0,1,1.49-2.57h0c.81-.47,1.48-.09,1.48.86Z"/><path class="cls-2" d="M96.67,196.06a3.29,3.29,0,0,1-1.48,2.57h0c-.82.47-1.48.09-1.48-.86V196a3.26,3.26,0,0,1,1.48-2.57h0c.81-.47,1.48-.09,1.48.86Z"/><path class="cls-2" d="M104.14,191.75a3.26,3.26,0,0,1-1.48,2.56h0c-.82.48-1.49.09-1.49-.85v-1.78a3.27,3.27,0,0,1,1.49-2.57h0c.82-.47,1.48-.09,1.48.85Z"/><path class="cls-2" d="M111.61,187.43a3.26,3.26,0,0,1-1.48,2.57h0c-.82.47-1.48.09-1.48-.86v-1.78a3.26,3.26,0,0,1,1.48-2.56h0c.82-.48,1.48-.09,1.48.85Z"/><path class="cls-2" d="M119.08,183.12a3.28,3.28,0,0,1-1.48,2.57h0c-.82.47-1.48.09-1.48-.86v-1.78a3.28,3.28,0,0,1,1.48-2.57h0c.82-.47,1.48-.09,1.48.86Z"/><path class="cls-3" d="M76.3,215a3.2,3.2,0,0,1-.57-2.68,36,36,0,0,0,0-9.11c-.56-4.59,1.54-5.84,4.26-7.46a3.38,3.38,0,0,1,1.78-.57c.94,0,2.2.51,2.91,3a23.67,23.67,0,0,1,.57,9.72c-.4,2.63-.75,4.89-4.76,7.28a4.63,4.63,0,0,1-2.27.68h0A2.45,2.45,0,0,1,76.3,215Zm4.14-18.38c-2.63,1.57-4.22,2.51-3.74,6.47a36.66,36.66,0,0,1,0,9.37,2.33,2.33,0,0,0,.35,1.9,1.5,1.5,0,0,0,1.17.47,3.51,3.51,0,0,0,1.77-.54c3.61-2.15,3.9-4,4.29-6.58a22.7,22.7,0,0,0-.55-9.31c-.43-1.49-1.09-2.24-2-2.24A2.55,2.55,0,0,0,80.44,196.6Z"/><path class="cls-3" d="M188,151.1a3.21,3.21,0,0,1-.57-2.69,35.46,35.46,0,0,0,0-9.1c-.56-4.59,1.54-5.85,4.26-7.46a3.4,3.4,0,0,1,1.78-.58c.94,0,2.2.52,2.92,3A23.82,23.82,0,0,1,197,144c-.4,2.62-.74,4.88-4.76,7.28a4.58,4.58,0,0,1-2.26.67h0A2.47,2.47,0,0,1,188,151.1Zm4.14-18.38c-2.63,1.57-4.21,2.52-3.74,6.47a36.66,36.66,0,0,1,0,9.37,2.38,2.38,0,0,0,.35,1.9,1.5,1.5,0,0,0,1.18.47h0a3.67,3.67,0,0,0,1.77-.54c3.6-2.15,3.89-4,4.28-6.58a22.69,22.69,0,0,0-.54-9.31c-.44-1.49-1.1-2.24-2-2.24A2.65,2.65,0,0,0,192.16,132.72Z"/><path class="cls-6" d="M304.44,6.3l-4.52,43.42-8.22,4.87A1.15,1.15,0,0,1,290,53.37L296.74,11a1.13,1.13,0,0,1,.62-.81Z"/><polygon class="cls-6" points="352.38 71.39 345.04 75.73 298.2 70.98 308.61 65.44 352.38 71.39"/><polygon class="cls-5" points="314.94 201.63 312.64 202.94 265.66 199.94 185.9 194.84 125.82 190.99 125.03 190.93 125.12 189.47 127.83 189.64 185.31 193.32 187.76 193.49 265.25 198.45 267.49 198.6 314.94 201.63"/><rect class="cls-5" x="183.05" y="185.01" width="30.78" height="1.46" transform="translate(-68.97 137.08) rotate(-32.79)"/><rect class="cls-5" x="263.03" y="191.93" width="22.53" height="1.46" transform="translate(-60.81 200.51) rotate(-36.43)"/><polygon class="cls-10" points="318.5 186.49 310.45 191.13 248.22 183.55 257.46 178.21 318.5 186.49"/><polygon class="cls-10" points="249.7 177.16 240.05 182.26 178.84 174.65 188.81 168.91 249.7 177.16"/></g></g></svg>