<svg xmlns="http://www.w3.org/2000/svg" viewBox="0 0 76.44 55.99"><defs><style>.cls-1{opacity:0.3;}.cls-2{fill:#1d1d1b;}.cls-3{fill:#575756;}.cls-4{fill:#3c3c3b;}.cls-5{fill:#706f6f;}.cls-6{fill:#9b9b9a;}.cls-7{fill:#fff;}.cls-8{fill:#d4ccc3;}.cls-9{fill:#ebebeb;}.cls-10{fill:#c4c4c4;}.cls-11{fill:#25415f;}</style></defs><title>Recurso53</title><g id="Capa_2" data-name="Capa 2"><g id="ELEMENTOS_INDIVIDUALES" data-name="ELEMENTOS INDIVIDUALES"><g class="cls-1"><polygon class="cls-2" points="76.44 21.57 16.89 55.99 0 46.24 59.55 11.82 76.44 21.57"/></g><path class="cls-3" d="M19.23,51.25a6.53,6.53,0,0,0,2.89-5.15c0-1.89-1.36-2.63-3-1.67a6.54,6.54,0,0,0-2.9,5.15C16.28,51.46,17.61,52.21,19.23,51.25Z"/><rect class="cls-4" x="15.99" y="47.26" width="8.35" height="2.26" transform="matrix(0.49, -0.87, 0.87, 0.49, -31.9, 42.29)"/><path class="cls-5" d="M21.33,52.43c-1.62,1-2.95.21-3-1.67a6.51,6.51,0,0,1,2.89-5.15c1.62-1,2.95-.22,3,1.67A6.53,6.53,0,0,1,21.33,52.43Z"/><path class="cls-6" d="M21.32,51.17c-1,.61-1.87.14-1.88-1.05a4.09,4.09,0,0,1,1.82-3.25c1-.61,1.87-.14,1.88,1.05A4.11,4.11,0,0,1,21.32,51.17Z"/><path class="cls-7" d="M21.31,50.5c-.7.41-1.28.09-1.29-.73a2.84,2.84,0,0,1,1.25-2.23c.7-.42,1.28-.09,1.29.72A2.84,2.84,0,0,1,21.31,50.5Z"/><path class="cls-4" d="M33,43a6.54,6.54,0,0,0,2.9-5.15c0-1.89-1.36-2.63-3-1.67a6.53,6.53,0,0,0-2.89,5.15C30.09,43.2,31.43,44,33,43Z"/><rect class="cls-4" x="29.81" y="39" width="8.35" height="2.26" transform="translate(-17.64 50.12) rotate(-60.69)"/><path class="cls-5" d="M35.15,44.17c-1.62,1-2.95.21-3-1.67a6.54,6.54,0,0,1,2.9-5.15c1.61-1,3-.22,3,1.67A6.53,6.53,0,0,1,35.15,44.17Z"/><path class="cls-6" d="M35.13,42.91c-1,.61-1.86.14-1.87-1a4.09,4.09,0,0,1,1.82-3.25c1-.61,1.86-.14,1.88,1A4.12,4.12,0,0,1,35.13,42.91Z"/><path class="cls-7" d="M35.12,42.24c-.7.41-1.27.09-1.28-.73a2.84,2.84,0,0,1,1.25-2.23c.7-.42,1.28-.09,1.29.72A2.83,2.83,0,0,1,35.12,42.24Z"/><path class="cls-4" d="M44.29,36.33a6.53,6.53,0,0,0,2.89-5.15c0-1.89-1.36-2.63-3-1.67a6.53,6.53,0,0,0-2.89,5.15C41.33,36.54,42.67,37.29,44.29,36.33Z"/><rect class="cls-4" x="41.05" y="32.34" width="8.35" height="2.26" transform="translate(-6.09 56.53) rotate(-60.7)"/><path class="cls-5" d="M46.39,37.51c-1.62,1-3,.21-3-1.67a6.51,6.51,0,0,1,2.89-5.15c1.62-1,2.95-.22,3,1.67A6.53,6.53,0,0,1,46.39,37.51Z"/><path class="cls-6" d="M46.37,36.25c-1,.61-1.86.14-1.87-1A4.09,4.09,0,0,1,46.32,32c1-.61,1.86-.14,1.88,1.05A4.12,4.12,0,0,1,46.37,36.25Z"/><path class="cls-7" d="M46.37,35.58c-.71.41-1.28.09-1.29-.73a2.84,2.84,0,0,1,1.25-2.23c.7-.42,1.28-.09,1.29.72A2.84,2.84,0,0,1,46.37,35.58Z"/><path class="cls-4" d="M68.34,22.16A6.49,6.49,0,0,0,71.23,17c0-1.88-1.35-2.63-3-1.67a6.51,6.51,0,0,0-2.89,5.15C65.39,22.38,66.72,23.13,68.34,22.16Z"/><rect class="cls-4" x="65.11" y="18.18" width="8.35" height="2.26" transform="translate(18.54 70.28) rotate(-60.7)"/><path class="cls-5" d="M70.44,23.34c-1.62,1-3,.22-3-1.67a6.55,6.55,0,0,1,2.89-5.15c1.62-1,3-.21,3,1.67A6.53,6.53,0,0,1,70.44,23.34Z"/><path class="cls-6" d="M70.43,22.09c-1,.6-1.86.13-1.88-1.06a4.12,4.12,0,0,1,1.83-3.25c1-.61,1.86-.13,1.87,1.06A4.12,4.12,0,0,1,70.43,22.09Z"/><path class="cls-7" d="M70.42,21.41c-.7.42-1.28.1-1.29-.72a2.81,2.81,0,0,1,1.25-2.23c.71-.42,1.28-.1,1.29.72A2.81,2.81,0,0,1,70.42,21.41Z"/><polygon class="cls-8" points="55.96 7.04 69.99 14.92 45.66 29.36 31.63 21.49 55.96 7.04"/><polygon class="cls-9" points="43.67 25.67 45.66 29.36 69.99 14.92 71.78 8.98 73.64 7.88 73.76 17.56 42.01 36.41 41.9 26.72 43.67 25.67"/><polygon class="cls-8" points="27.98 28.53 42.01 36.41 41.9 26.72 27.86 18.85 27.98 28.53"/><polygon class="cls-7" points="29.64 17.79 43.67 25.67 41.9 26.72 27.86 18.85 29.64 17.79"/><polygon class="cls-10" points="59.61 0 73.64 7.88 71.86 8.93 57.83 1.06 59.61 0"/><polygon class="cls-7" points="55.96 7.04 69.99 14.92 71.86 8.93 57.83 1.06 55.96 7.04"/><path class="cls-7" d="M24.26,20.72,1.48,45l13.63,7.65C24.66,44.75,37.72,36,37.92,29.49A1.76,1.76,0,0,0,37,27.9Z"/><path class="cls-7" d="M23.65,20.79l-5.09,3A4.12,4.12,0,0,0,16.75,27v1.54a.81.81,0,0,1-.37.63l-4.12,2.45-.89.53c-.13.08-.25.07-.32,0l-1.45-2-.07-.07c-.38-.21-1.31.8-1.24,1.41a2.61,2.61,0,0,0-.31.28l-4.58,5A7.79,7.79,0,0,0,1.5,40.61a4.77,4.77,0,0,0-.06.83l0,3.54,14.79-9,1.8-1.09,7-4.25-.39-2.51L24.48,27l-.65-4.17a.93.93,0,0,0-.11-.32l0,0C24.66,21.93,24.71,20.17,23.65,20.79Z"/><path class="cls-4" d="M14.27,32.75l1.49.83,2.93,1.65,2.2,1.24,2.28,1.28-.72.79a.23.23,0,0,0,.3,0l.69-.41,4.31-2.56a.81.81,0,0,0,.31-.37.66.66,0,0,0,.06-.27V33.4a4.17,4.17,0,0,1,1.81-3.19l2.62-1.55h0l-7.9-4.43-1.48-.84h0L20.55,25a4.1,4.1,0,0,0-1.81,3.19v1.53a.84.84,0,0,1-.37.64Z"/><path class="cls-3" d="M23.17,23.4,23.35,38l.09.13,4.31-2.56a.8.8,0,0,0,.37-.64V33.4a4.17,4.17,0,0,1,1.81-3.19l2.62-1.55L23.18,23.4Z"/><path class="cls-3" d="M20.89,36.47l2.28,1.28-.72.79a.23.23,0,0,0,.3,0l.69-.41,4.31-2.56a.81.81,0,0,0,.31-.37l-4.79-2.69-4.58,2.72Z"/><path class="cls-9" d="M5.8,43a7.78,7.78,0,0,1,1.89-3.87l4.58-5a1.37,1.37,0,0,1,.32-.28l1.56.87.26.15,1.05.59.86.48a2.44,2.44,0,0,0-.3.27l-4.58,5a7.82,7.82,0,0,0-1.9,3.85h0a6,6,0,0,0-.06.83l0,3.55L5.79,47.4h0l0-3.54A3.82,3.82,0,0,1,5.8,43Z"/><path class="cls-11" d="M11.13,48a2.18,2.18,0,0,0,1,1.69c.55.31,1,.05,1-.58a2.21,2.21,0,0,0-1-1.69C11.56,47.08,11.12,47.34,11.13,48Z"/><path class="cls-11" d="M2.49,43.08a2.16,2.16,0,0,0,1,1.69c.54.31,1,0,1-.58a2.14,2.14,0,0,0-1-1.69C2.92,42.19,2.48,42.45,2.49,43.08Z"/><path class="cls-9" d="M38.68,38.28,15.11,52.63l0-3.54a6,6,0,0,1,.06-.83A7.76,7.76,0,0,1,17,44.4l4.58-5c.51-.55,1.1-.68,1.39-.28L24,40.58c.2.28.57.3,1,.07l5-3a2.5,2.5,0,0,0,1.09-1.91V34.23a2.48,2.48,0,0,1,1.09-1.91l4-2.37c.63-.37,1.16-.16,1.27.5l.64,4.17.19,1.15Z"/><path class="cls-3" d="M23.17,37.74,9.52,30.08c-.38-.21-1.31.8-1.24,1.41L21.9,39.13C22.82,39,23.4,38.65,23.17,37.74Z"/></g></g></svg>