<svg xmlns="http://www.w3.org/2000/svg" viewBox="0 0 301.57 230.47"><defs><style>.cls-1{isolation:isolate;}.cls-2{fill:#301404;opacity:0.4;mix-blend-mode:multiply;}.cls-3{fill:#333;}.cls-4{fill:#4a4a4a;}.cls-5{fill:#949494;}.cls-6{fill:#fff;}.cls-7{fill:#3b3b3b;}.cls-8{fill:#6b6b6b;}.cls-9{fill:#5b5b5b;}.cls-10{fill:#8a8a8a;}.cls-11{fill:#2a2a2a;}.cls-12{fill:#ebebeb;}.cls-13{fill:#cacaca;}.cls-14{fill:#a2a2a2;}.cls-15{fill:#8c8c8c;}.cls-16{fill:#cc3854;}.cls-17,.cls-22{fill:#df6187;}.cls-18{fill:#bd2337;}.cls-19{fill:#a8122d;}.cls-20{fill:#ecb879;}.cls-21{fill:#d84f71;}.cls-22{opacity:0.5;}.cls-23{fill:#b9b9b9;}.cls-24{fill:#ccc;}</style></defs><title>Recurso35</title><g class="cls-1"><g id="Capa_2" data-name="Capa 2"><g id="ELEMENTOS_INDIVIDUALES" data-name="ELEMENTOS INDIVIDUALES"><polygon class="cls-2" points="301.57 196.78 112.48 87.54 53.88 90.25 6.44 122.85 0 125.58 25.95 140.8 30.73 148.31 40.97 149.77 151.98 213.77 159.01 221.95 173.08 221.28 188.91 230.47 257.24 230.13 264.57 225.95 301.57 196.78"/><polygon class="cls-3" points="97.48 152.58 87.16 158.54 87.16 169.11 97.48 163.15 97.48 152.58"/><path class="cls-3" d="M9.86,110c0,6.9,4.2,14.92,9.37,17.91s9.38-.18,9.38-7.09-4.2-14.92-9.38-17.91S9.86,103.1,9.86,110Z"/><polygon class="cls-3" points="18.27 132.35 25.05 128.54 12.94 102.52 6.45 106.15 18.27 132.35"/><path class="cls-4" d="M2.81,113.92c0,6.91,4.2,14.93,9.38,17.91s9.37-.18,9.37-7.08-4.19-14.92-9.37-17.91S2.81,107,2.81,113.92Z"/><path class="cls-5" d="M6.11,116.05c0,4.47,2.72,9.67,6.08,11.61s6.08-.12,6.08-4.59-2.73-9.68-6.08-11.62S6.11,111.57,6.11,116.05Z"/><path class="cls-6" d="M7.83,117c0,3.21,1.95,6.94,4.36,8.33s4.36-.08,4.36-3.3-2-6.94-4.36-8.33S7.83,113.83,7.83,117Z"/><path class="cls-7" d="M10.08,118.34a5,5,0,0,0,2.11,4c1.16.67,2.11,0,2.11-1.6a5,5,0,0,0-2.11-4C11,116.07,10.08,116.79,10.08,118.34Z"/><path class="cls-7" d="M11.78,115a1,1,0,0,0,.41.78c.22.12.4,0,.4-.31a1,1,0,0,0-.4-.77C12,114.54,11.78,114.68,11.78,115Z"/><path class="cls-7" d="M9.05,115a1,1,0,0,0,.4.78c.23.12.41,0,.41-.31a1,1,0,0,0-.41-.77C9.23,114.54,9.05,114.68,9.05,115Z"/><path class="cls-7" d="M14.3,118a1,1,0,0,0,.4.77c.22.13.4,0,.4-.31a1,1,0,0,0-.4-.77C14.48,117.56,14.3,117.7,14.3,118Z"/><path class="cls-7" d="M9.05,120.65a1,1,0,0,0,.4.77c.23.13.41,0,.41-.3a1,1,0,0,0-.41-.78C9.23,120.21,9.05,120.35,9.05,120.65Z"/><path class="cls-7" d="M14.3,123.67a1,1,0,0,0,.4.78c.22.13.4,0,.4-.31a1,1,0,0,0-.4-.77C14.48,123.24,14.3,123.38,14.3,123.67Z"/><path class="cls-7" d="M8.4,117.59a1,1,0,0,0,.4.77c.22.13.41,0,.41-.3a1,1,0,0,0-.41-.78C8.58,117.16,8.4,117.29,8.4,117.59Z"/><path class="cls-7" d="M15.1,121.45a1,1,0,0,0,.41.78c.22.13.4,0,.4-.31a1,1,0,0,0-.4-.77C15.29,121,15.1,121.16,15.1,121.45Z"/><path class="cls-7" d="M11.78,123.67a1,1,0,0,0,.41.78c.22.13.4,0,.4-.31a1,1,0,0,0-.4-.77C12,123.24,11.78,123.38,11.78,123.67Z"/><path class="cls-3" d="M31.86,122.88c0,6.91,4.2,14.93,9.38,17.92s9.37-.19,9.37-7.09-4.2-14.92-9.37-17.91S31.86,116,31.86,122.88Z"/><polygon class="cls-3" points="40.27 145.24 47.06 141.42 34.94 115.4 28.45 119.03 40.27 145.24"/><path class="cls-4" d="M24.82,126.81c0,6.9,4.19,14.92,9.37,17.91s9.38-.18,9.38-7.09-4.2-14.92-9.38-17.91S24.82,119.91,24.82,126.81Z"/><path class="cls-5" d="M28.11,128.93c0,4.48,2.73,9.68,6.08,11.62s6.08-.12,6.08-4.6-2.72-9.67-6.08-11.61S28.11,124.46,28.11,128.93Z"/><path class="cls-6" d="M29.83,129.92c0,3.22,2,7,4.36,8.34s4.36-.09,4.36-3.3-1.95-6.94-4.36-8.33S29.83,126.71,29.83,129.92Z"/><path class="cls-7" d="M32.08,131.22a5.05,5.05,0,0,0,2.11,4c1.17.67,2.11,0,2.11-1.59a5,5,0,0,0-2.11-4C33,129,32.08,129.67,32.08,131.22Z"/><path class="cls-7" d="M33.79,127.86a1,1,0,0,0,.4.77c.23.13.41,0,.41-.31a1,1,0,0,0-.41-.77C34,127.42,33.79,127.56,33.79,127.86Z"/><path class="cls-7" d="M31.05,127.86a1,1,0,0,0,.41.77c.22.13.4,0,.4-.31a1,1,0,0,0-.4-.77C31.23,127.42,31.05,127.56,31.05,127.86Z"/><path class="cls-7" d="M36.3,130.88a1,1,0,0,0,.4.77c.23.13.41,0,.41-.3a1,1,0,0,0-.41-.77C36.48,130.45,36.3,130.59,36.3,130.88Z"/><path class="cls-7" d="M31.05,133.53a1,1,0,0,0,.41.78c.22.13.4,0,.4-.31a1,1,0,0,0-.4-.77C31.23,133.1,31.05,133.24,31.05,133.53Z"/><path class="cls-7" d="M36.3,136.56a1,1,0,0,0,.4.77c.23.13.41,0,.41-.3a1,1,0,0,0-.41-.78C36.48,136.12,36.3,136.26,36.3,136.56Z"/><path class="cls-7" d="M30.4,130.48a1,1,0,0,0,.41.77c.22.13.4,0,.4-.31a1,1,0,0,0-.4-.77C30.58,130,30.4,130.18,30.4,130.48Z"/><path class="cls-7" d="M37.11,134.34a1,1,0,0,0,.4.77c.23.13.41,0,.41-.3a1,1,0,0,0-.41-.78C37.29,133.9,37.11,134,37.11,134.34Z"/><path class="cls-7" d="M33.79,136.56a1,1,0,0,0,.4.77c.23.13.41,0,.41-.3a1,1,0,0,0-.41-.78C34,136.12,33.79,136.26,33.79,136.56Z"/><polygon class="cls-8" points="105.92 149.19 64.46 124.61 45.7 135.44 87.16 160.01 105.92 149.19"/><polygon class="cls-9" points="87.16 159.95 87.16 169.1 45.7 144.6 45.7 135.44 87.16 159.95"/><polygon class="cls-10" points="87.16 166.45 87.16 167.49 47.43 144.19 47.43 143.15 87.16 166.45"/><polygon class="cls-10" points="87.16 164.18 87.16 165.22 47.43 141.93 47.43 140.88 87.16 164.18"/><path class="cls-3" d="M95.81,159.46c0,6.9,4.2,14.92,9.38,17.91s9.37-.18,9.37-7.09-4.2-14.92-9.37-17.91S95.81,152.55,95.81,159.46Z"/><polygon class="cls-3" points="104.22 181.81 111.01 178 98.89 151.98 92.4 155.61 104.22 181.81"/><path class="cls-4" d="M88.77,163.38c0,6.91,4.2,14.92,9.37,17.91s9.38-.18,9.38-7.08-4.2-14.93-9.38-17.91S88.77,156.48,88.77,163.38Z"/><path class="cls-5" d="M92.07,165.51c0,4.47,2.72,9.67,6.07,11.61s6.08-.12,6.08-4.6-2.72-9.67-6.08-11.61S92.07,161,92.07,165.51Z"/><path class="cls-6" d="M93.78,166.5c0,3.21,2,6.94,4.36,8.33s4.36-.09,4.36-3.3-2-6.94-4.36-8.33S93.78,163.29,93.78,166.5Z"/><path class="cls-7" d="M96,167.8a5.08,5.08,0,0,0,2.11,4c1.17.67,2.11,0,2.11-1.6a5.05,5.05,0,0,0-2.11-4C97,165.53,96,166.25,96,167.8Z"/><path class="cls-7" d="M97.74,164.43a1,1,0,0,0,.4.77c.23.13.41,0,.41-.3a.93.93,0,0,0-.41-.77C97.92,164,97.74,164.13,97.74,164.43Z"/><path class="cls-7" d="M95,164.43a1,1,0,0,0,.41.77c.22.13.4,0,.4-.3a1,1,0,0,0-.4-.77C95.19,164,95,164.13,95,164.43Z"/><path class="cls-7" d="M100.25,167.46a1,1,0,0,0,.41.77c.22.13.4,0,.4-.31a1,1,0,0,0-.4-.77C100.43,167,100.25,167.16,100.25,167.46Z"/><path class="cls-7" d="M95,170.11a1,1,0,0,0,.41.77c.22.13.4,0,.4-.31a1,1,0,0,0-.4-.77C95.19,169.67,95,169.81,95,170.11Z"/><path class="cls-7" d="M100.25,173.13a1,1,0,0,0,.41.78c.22.12.4,0,.4-.31a1,1,0,0,0-.4-.77C100.43,172.7,100.25,172.84,100.25,173.13Z"/><path class="cls-7" d="M94.35,167.05a1,1,0,0,0,.41.77c.22.13.4,0,.4-.3a1,1,0,0,0-.4-.78C94.53,166.61,94.35,166.75,94.35,167.05Z"/><path class="cls-7" d="M101.06,170.91a1,1,0,0,0,.4.78c.23.12.41,0,.41-.31a1,1,0,0,0-.41-.77C101.24,170.48,101.06,170.62,101.06,170.91Z"/><path class="cls-7" d="M97.74,173.13a1,1,0,0,0,.4.78c.23.12.41,0,.41-.31a1,1,0,0,0-.41-.77C97.92,172.7,97.74,172.84,97.74,173.13Z"/><path class="cls-3" d="M115.33,170.75c0,6.9,4.2,14.92,9.37,17.91s9.38-.19,9.38-7.09-4.2-14.92-9.38-17.91S115.33,163.84,115.33,170.75Z"/><polygon class="cls-3" points="123.74 193.1 130.53 189.28 118.41 163.26 111.92 166.9 123.74 193.1"/><path class="cls-4" d="M108.28,174.67c0,6.9,4.2,14.92,9.38,17.91s9.37-.18,9.37-7.08-4.19-14.93-9.37-17.92S108.28,167.77,108.28,174.67Z"/><path class="cls-5" d="M111.58,176.8c0,4.47,2.72,9.67,6.08,11.61s6.08-.12,6.08-4.6-2.73-9.67-6.08-11.61S111.58,172.32,111.58,176.8Z"/><path class="cls-6" d="M113.3,177.79c0,3.21,2,6.94,4.36,8.33s4.36-.09,4.36-3.3-2-6.94-4.36-8.33S113.3,174.58,113.3,177.79Z"/><path class="cls-7" d="M115.55,179.09a5.05,5.05,0,0,0,2.11,4c1.16.67,2.11-.05,2.11-1.6a5.08,5.08,0,0,0-2.11-4C116.49,176.82,115.55,177.54,115.55,179.09Z"/><path class="cls-7" d="M117.25,175.72a1,1,0,0,0,.41.77c.22.13.4,0,.4-.3a1,1,0,0,0-.4-.77C117.44,175.29,117.25,175.42,117.25,175.72Z"/><path class="cls-7" d="M114.52,175.72a1,1,0,0,0,.4.77c.23.13.41,0,.41-.3a.93.93,0,0,0-.41-.77C114.7,175.29,114.52,175.42,114.52,175.72Z"/><path class="cls-7" d="M119.77,178.75a1,1,0,0,0,.4.77c.22.13.4,0,.4-.31a1,1,0,0,0-.4-.77C120,178.31,119.77,178.45,119.77,178.75Z"/><path class="cls-7" d="M114.52,181.4a1,1,0,0,0,.4.77c.23.13.41,0,.41-.31a1,1,0,0,0-.41-.77C114.7,181,114.52,181.1,114.52,181.4Z"/><path class="cls-7" d="M119.77,184.42a1,1,0,0,0,.4.77c.22.13.4,0,.4-.3a1,1,0,0,0-.4-.77C120,184,119.77,184.12,119.77,184.42Z"/><path class="cls-7" d="M113.87,178.34a1,1,0,0,0,.4.77c.23.13.41,0,.41-.31a1,1,0,0,0-.41-.77C114.05,177.9,113.87,178,113.87,178.34Z"/><path class="cls-7" d="M120.57,182.2a1,1,0,0,0,.41.77c.22.13.4,0,.4-.3a1,1,0,0,0-.4-.77C120.76,181.77,120.57,181.9,120.57,182.2Z"/><path class="cls-7" d="M117.25,184.42a1,1,0,0,0,.41.77c.22.13.4,0,.4-.3a1,1,0,0,0-.4-.77C117.44,184,117.25,184.12,117.25,184.42Z"/><path class="cls-11" d="M161,202.7l7.19-4.35,4.85-3.88s-3.86-1.42-4.22-1.64S159.18,195.92,161,202.7Z"/><polygon class="cls-8" points="180.97 192.29 147.55 173.18 128.8 184 162.37 203.24 180.97 192.29"/><polygon class="cls-9" points="128.8 184 162.54 203.3 162.54 212.45 128.8 193.17 128.8 184"/><polygon class="cls-10" points="140.97 197.57 159.32 208.1 159.32 209.14 140.97 198.61 140.97 197.57"/><polygon class="cls-10" points="140.97 195.3 159.32 205.84 159.32 206.87 140.97 196.34 140.97 195.3"/><polygon class="cls-12" points="144.1 109.32 3.88 28.41 53.08 0 193.29 80.91 144.1 109.32"/><polygon class="cls-13" points="185.93 82.35 50.73 4.42 53.51 2.99 188.72 80.91 185.93 82.35"/><polygon class="cls-13" points="143.84 106.52 8.63 28.6 11.42 27.16 146.62 105.09 143.84 106.52"/><polygon class="cls-13" points="193.29 80.91 193.29 142.37 193.29 147.2 193.29 158.24 144.1 186.63 144.1 175.59 144.1 170.78 144.1 109.32 193.29 80.91"/><polygon class="cls-6" points="64.05 75.57 102.06 97.5 107.77 104.99 64.05 79.77 64.05 75.57"/><polygon class="cls-6" points="64.05 68.18 92.87 85.12 98.59 92.61 64.05 72.38 64.05 68.18"/><polygon class="cls-14" points="144.1 109.17 144.1 170.78 144.1 179.4 144.1 186.63 3.88 105.74 3.88 98.51 3.88 89.87 3.88 28.26 144.1 109.17"/><polygon class="cls-15" points="136.03 109.11 137.85 110.16 137.85 177.84 136.03 176.79 136.03 109.11"/><polygon class="cls-15" points="127.89 104.42 129.71 105.47 129.71 173.14 127.89 172.09 127.89 104.42"/><polygon class="cls-15" points="100.02 88.28 101.84 89.33 101.84 157 100.02 155.96 100.02 88.28"/><polygon class="cls-15" points="91.88 83.58 93.69 84.64 93.69 152.31 91.88 151.26 91.88 83.58"/><polygon class="cls-15" points="83.19 78.71 85.01 79.76 85.01 147.43 83.19 146.38 83.19 78.71"/><polygon class="cls-15" points="75.05 74.02 76.87 75.06 76.87 142.74 75.05 141.69 75.05 74.02"/><polygon class="cls-15" points="66.21 68.57 68.03 69.62 68.03 137.29 66.21 136.25 66.21 68.57"/><polygon class="cls-15" points="58.06 63.88 59.88 64.92 59.88 132.6 58.06 131.55 58.06 63.88"/><polygon class="cls-15" points="24.72 44.49 26.54 45.54 26.54 113.22 24.72 112.17 24.72 44.49"/><polygon class="cls-15" points="16.58 39.8 18.4 40.85 18.4 108.53 16.58 107.47 16.58 39.8"/><path class="cls-3" d="M168.64,202c0,6.9,4.2,14.92,9.37,17.91s9.38-.19,9.38-7.09-4.2-14.92-9.38-17.91S168.64,195.05,168.64,202Z"/><polygon class="cls-3" points="177.04 224.31 183.83 220.49 171.72 194.47 165.23 198.11 177.04 224.31"/><path class="cls-4" d="M161.59,205.88c0,6.9,4.2,14.92,9.38,17.91s9.37-.18,9.37-7.08-4.19-14.93-9.37-17.92S161.59,199,161.59,205.88Z"/><path class="cls-5" d="M164.89,208c0,4.48,2.72,9.68,6.08,11.62s6.08-.12,6.08-4.6-2.73-9.67-6.08-11.61S164.89,203.53,164.89,208Z"/><path class="cls-6" d="M166.61,209c0,3.21,1.95,6.94,4.36,8.33s4.36-.09,4.36-3.3-2-6.94-4.36-8.33S166.61,205.79,166.61,209Z"/><path class="cls-7" d="M168.86,210.3a5,5,0,0,0,2.11,4c1.16.68,2.11,0,2.11-1.59a5.08,5.08,0,0,0-2.11-4C169.8,208,168.86,208.74,168.86,210.3Z"/><path class="cls-7" d="M170.56,206.93a1,1,0,0,0,.41.77c.22.13.4,0,.4-.3a1,1,0,0,0-.4-.78C170.74,206.5,170.56,206.63,170.56,206.93Z"/><path class="cls-7" d="M167.83,206.93a1,1,0,0,0,.4.77c.23.13.41,0,.41-.3a1,1,0,0,0-.41-.78C168,206.5,167.83,206.63,167.83,206.93Z"/><path class="cls-7" d="M173.08,210a1,1,0,0,0,.4.78c.22.13.4,0,.4-.31a1,1,0,0,0-.4-.77C173.26,209.52,173.08,209.66,173.08,210Z"/><path class="cls-7" d="M167.83,212.61a1,1,0,0,0,.4.77c.23.13.41,0,.41-.31a1,1,0,0,0-.41-.77C168,212.17,167.83,212.31,167.83,212.61Z"/><path class="cls-7" d="M173.08,215.63a1,1,0,0,0,.4.77c.22.13.4,0,.4-.3a1,1,0,0,0-.4-.77C173.26,215.2,173.08,215.33,173.08,215.63Z"/><path class="cls-7" d="M167.18,209.55a1,1,0,0,0,.4.77c.22.13.41,0,.41-.31a1,1,0,0,0-.41-.77C167.36,209.11,167.18,209.25,167.18,209.55Z"/><path class="cls-7" d="M173.88,213.41a1,1,0,0,0,.41.77c.22.13.4,0,.4-.3a1,1,0,0,0-.4-.77C174.07,213,173.88,213.11,173.88,213.41Z"/><path class="cls-7" d="M170.56,215.63a1,1,0,0,0,.41.77c.22.13.4,0,.4-.3a1,1,0,0,0-.4-.77C170.74,215.2,170.56,215.33,170.56,215.63Z"/><polygon class="cls-16" points="172.32 155.62 200.69 142.3 200.69 109.17 235.92 129.5 176.5 163.81 172.32 155.62"/><path class="cls-16" d="M246.61,149.83,248.7,172l-.28,24.48-14.26-8.23-34.81,20.35L181.16,173l61.54-35.53A35.43,35.43,0,0,1,246.61,149.83Z"/><path class="cls-17" d="M235.92,129.5l.25.14c2.44,1.29,4.72,4.31,6.53,7.79L181.16,173l-4.67-9.15Z"/><path class="cls-18" d="M151.79,137.6l35.47,20.48c5.41,2.84,10,14.16,10.44,20.19l1.82,22.12v24.52l-14.76-8.52c-1.22-8.38-6.32-17.09-12.44-20.63s-11.23-.71-12.44,6.27l-8.09-4.68Z"/><polygon class="cls-19" points="176.95 199.5 176.95 152.24 175.92 151.65 175.92 199.5 176.95 199.5"/><path class="cls-6" d="M172.32,197c5.54,3.2,10.17,11.1,11.27,18.7l1.17.67c-1.22-8.38-6.32-17.09-12.44-20.63s-11.23-.71-12.44,6.27l1.16.67C162.14,196.37,166.77,193.82,172.32,197Z"/><polygon class="cls-16" points="248.7 172 199.51 200.39 199.51 224.91 248.7 196.51 248.7 172"/><path class="cls-20" d="M248.8,177.31,244.56,180a5.85,5.85,0,0,0-2.4,4.63v6.88c0,1.75,1.08,2.57,2.4,1.81l4.24-2.69Z"/><path class="cls-20" d="M203.73,203.37l-4.22,2.43v13.27l4.22-2.44a5.75,5.75,0,0,0,2.4-4.57v-6.88C206.13,203.42,205.05,202.61,203.73,203.37Z"/><path class="cls-6" d="M205.08,206.3a5.4,5.4,0,0,1-2.26,4.32c-1.25.72-2.26-.05-2.26-1.71a5.42,5.42,0,0,1,2.26-4.32C204.07,203.87,205.08,204.64,205.08,206.3Z"/><path class="cls-6" d="M204.08,213.22a4.21,4.21,0,0,1-1.76,3.36c-1,.56-1.76,0-1.76-1.33a4.22,4.22,0,0,1,1.76-3.36C203.29,211.33,204.08,211.93,204.08,213.22Z"/><path class="cls-6" d="M247.88,181.45a5.4,5.4,0,0,1-2.26,4.31c-1.25.73-2.26,0-2.26-1.7a5.4,5.4,0,0,1,2.26-4.32C246.87,179,247.88,179.78,247.88,181.45Z"/><path class="cls-6" d="M246.88,188.37a4.22,4.22,0,0,1-1.76,3.36c-1,.56-1.76,0-1.76-1.33a4.21,4.21,0,0,1,1.76-3.36C246.09,186.48,246.88,187.07,246.88,188.37Z"/><path class="cls-14" d="M190.08,217.67v4.76c0,2.48,2.54,3.92,2.54,3.92l.68-5.58Z"/><polygon class="cls-13" points="199.35 225.31 199.47 230.4 207.98 225.47 207.91 220.37 199.35 225.31"/><polygon class="cls-13" points="251.87 195.05 243.35 199.96 243.35 205 251.87 200.07 251.87 195.05"/><polygon class="cls-7" points="207.91 220.37 207.98 225.47 243.35 205 243.35 199.96 207.91 220.37"/><polygon class="cls-6" points="237.39 204.44 215.01 217.33 215.08 220.36 237.39 207.45 237.39 204.44"/><path class="cls-14" d="M199.47,225.37v5l-6.29-3.63a3.48,3.48,0,0,1-1.69-2.39v-3.61Z"/><path class="cls-12" d="M190.08,217.67l9.39,5.43,49.23-28.43v-1.38l3.17,1.76-52.4,30.32L193,221.63a5.85,5.85,0,0,1-2.54-2.3Z"/><path class="cls-6" d="M213,220a3.14,3.14,0,0,1-1.32,2.51c-.73.42-1.32,0-1.32-1a3.16,3.16,0,0,1,1.32-2.52C212.45,218.59,213,219,213,220Z"/><path class="cls-6" d="M241.9,203.34a3.16,3.16,0,0,1-1.32,2.52c-.73.42-1.32,0-1.32-1a3.16,3.16,0,0,1,1.32-2.52C241.31,201.93,241.9,202.37,241.9,203.34Z"/><polygon class="cls-21" points="187.06 158.08 151.79 137.71 200.98 109.3 236.26 129.67 187.06 158.08"/><path class="cls-18" d="M200.29,102.44c1.59.72,4.08,1.87,6.08,2.83,7,3.39,18.68,9.4,22.65,13.48a34.46,34.46,0,0,1,7.3,11l-49.13,28.46a34.29,34.29,0,0,0-7.34-11c-4-4.09-16.06-9.71-23-13.09a32.83,32.83,0,0,1-5-2.94Z"/><path class="cls-22" d="M225.23,115.7s3.06,1.41,7.28,7.22l-51.58,29.61-7.48-7.48Z"/><path class="cls-19" d="M158.75,134.41c7,3.38,17.14,8.63,21.1,12.72a34.29,34.29,0,0,1,7.34,11l-35.4-19.6V131.1C153.4,131.88,156.79,133.5,158.75,134.41Z"/><polygon class="cls-6" points="188.99 214.98 185.79 213.13 185.79 208.87 188.99 210.72 188.99 214.98"/><polygon class="cls-23" points="189.85 210.22 188.99 210.72 188.99 214.98 189.85 214.48 189.85 210.22"/><polygon class="cls-24" points="189.85 210.22 186.65 208.38 185.79 208.88 188.99 210.72 189.85 210.22"/><polygon class="cls-6" points="158.1 198.81 154.91 196.96 154.91 192.7 158.1 194.54 158.1 198.81"/><polygon class="cls-23" points="158.96 194.05 158.1 194.54 158.1 198.81 158.96 198.31 158.96 194.05"/><polygon class="cls-24" points="158.96 194.05 155.77 192.21 154.91 192.71 158.1 194.54 158.96 194.05"/><path class="cls-7" d="M192.1,174.14a5.24,5.24,0,0,0-2.18-4.17l-9.35-5.4a1.61,1.61,0,0,0-1-.24,1.28,1.28,0,0,1,2-.72L191,169a5.25,5.25,0,0,1,2.19,4.18l1.09,17.23c0,1.13-.49,1.82-1.2,1.89a2.94,2.94,0,0,0,.15-.94Z"/><path class="cls-4" d="M192.06,192.07l-10.44-6.15a5.25,5.25,0,0,1-2.19-4.18V165.26a2.83,2.83,0,0,1,.15-.93,1.61,1.61,0,0,1,1,.24l9.35,5.4a5.24,5.24,0,0,1,2.18,4.17l1.1,17.23a2.94,2.94,0,0,1-.15.94A1.61,1.61,0,0,1,192.06,192.07Z"/><polygon class="cls-7" points="199.51 203.71 248.7 175.32 248.7 172 199.51 200.39 199.51 203.71"/><path class="cls-7" d="M207.41,198.76l14.12-8.15,19.35-11.16s-.15.89-.35,2.2l-32.76,18.91C207.56,199.49,207.41,198.76,207.41,198.76Z"/><path class="cls-7" d="M240.24,183.48l-.57,3.57-31,17.93c-.19-1-.38-2-.56-2.92Z"/><path class="cls-7" d="M239,191.35a2.38,2.38,0,0,1,0,.26l-29.63,17.11c0-.08,0-.13-.05-.21-.09-.5-.22-1.22-.38-2l30.49-17.6C239.23,189.87,239.1,190.74,239,191.35Z"/><path class="cls-7" d="M234.55,197.84c-1.88,1.28-7.18,4.27-10.4,6.07s-8.53,5.05-10.41,6-3.17,1.07-3.86.2l28.53-16.47A9.54,9.54,0,0,1,234.55,197.84Z"/><path class="cls-4" d="M239.39,188.87l-30.49,17.6c-.09-.47-.18-1-.28-1.49l31-17.93C239.57,187.68,239.48,188.3,239.39,188.87Z"/><path class="cls-4" d="M207.77,200.56l32.76-18.91c-.09.55-.19,1.17-.29,1.83l-32.18,18.58C208,201.52,207.85,201,207.77,200.56Z"/><path class="cls-4" d="M238.41,193.59l-28.53,16.47a3.28,3.28,0,0,1-.55-1.34L239,191.61A8.82,8.82,0,0,1,238.41,193.59Z"/><path class="cls-6" d="M226.76,190.07a5.4,5.4,0,0,1-2.26,4.31c-1.25.72-2.26,0-2.26-1.71a5.4,5.4,0,0,1,2.26-4.31C225.75,187.64,226.76,188.4,226.76,190.07Z"/><path class="cls-4" d="M246.33,164a5.23,5.23,0,0,1-2.19,4.18l-40.71,22.93c-1.2.69-2.18-.05-2.18-1.66l-1.56-13.69,45-26Z"/><path class="cls-7" d="M201.45,167.82l40.71-22.93c1.21-.69,2.19.05,2.19,1.66l.37,3.23-45,26-.42-3.78A5.24,5.24,0,0,1,201.45,167.82Z"/><polygon class="cls-6" points="11.43 106.69 8.23 104.85 8.23 100.58 11.43 102.43 11.43 106.69"/><polygon class="cls-23" points="12.29 101.94 11.43 102.43 11.43 106.69 12.29 106.2 12.29 101.94"/><polygon class="cls-24" points="12.29 101.94 9.09 100.1 8.23 100.59 11.43 102.43 12.29 101.94"/><polygon class="cls-6" points="116.21 167.44 113.02 165.6 113.02 161.33 116.21 163.18 116.21 167.44"/><polygon class="cls-23" points="117.07 162.68 116.21 163.18 116.21 167.44 117.07 166.95 117.07 162.68"/><polygon class="cls-24" points="117.07 162.68 113.88 160.84 113.02 161.34 116.21 163.18 117.07 162.68"/></g></g></g></svg>