<svg xmlns="http://www.w3.org/2000/svg" viewBox="0 0 125.17 81.58"><defs><style>.cls-1{isolation:isolate;}.cls-2{fill:#301404;mix-blend-mode:multiply;}.cls-17,.cls-2{opacity:0.3;}.cls-3{fill:#f3edea;}.cls-4{fill:#fcf7f4;}.cls-5{fill:#918287;}.cls-6{fill:#d4d0cc;}.cls-7{fill:#6d6871;}.cls-8{fill:#9b9690;}.cls-9{fill:#524b47;}.cls-10{fill:#aea9a6;}.cls-11{fill:#cac6c2;}.cls-12{fill:#7e7773;}.cls-13{fill:#372e2e;}.cls-14{fill:#493e3d;}.cls-15{fill:#ebe5dd;}.cls-16{fill:#c9c4be;}.cls-18{fill:#7b7272;}.cls-19{fill:#dfdcda;}.cls-20{fill:#c9853e;}.cls-21{fill:#423633;}.cls-22{fill:#625957;}.cls-23{fill:#4a3f4f;}.cls-24{fill:#ebe6e4;}.cls-25{fill:#76676a;}.cls-26{fill:#817e85;}.cls-27{fill:#3b2e31;}.cls-28{fill:#4e4043;}.cls-29{fill:#464142;}.cls-30{fill:#363232;}.cls-31{fill:#e9e4e0;}.cls-32{fill:#565059;}.cls-33{fill:#5b575e;}.cls-34{fill:#89858b;}.cls-35{fill:#5b4c51;}</style></defs><title>Recurso57</title><g class="cls-1"><g id="Capa_2" data-name="Capa 2"><g id="ELEMENTOS_INDIVIDUALES" data-name="ELEMENTOS INDIVIDUALES"><polygon class="cls-2" points="37.41 8.17 0 28.78 88.51 81.58 123.67 60.82 37.41 8.17"/><polygon class="cls-3" points="43.99 3.72 32.15 0.69 7.02 13.63 20.33 17.12 43.99 3.72"/><polygon class="cls-4" points="54.41 0.31 52.21 0.01 28.3 13.55 30.75 13.71 54.41 0.31"/><polygon class="cls-3" points="52.31 0 41.79 3.25 17.88 16.32 28.45 13.65 52.31 0"/><polygon class="cls-5" points="50.23 1.02 40.47 4.22 21.54 14.56 30.5 12.34 50.23 1.02"/><path class="cls-6" d="M84.24,17.45C77.4,22.31,69.31,26.64,59.88,31l6.76,14.8c10.26-4.6,18.92-7.76,26.41-13.1Z"/><path class="cls-3" d="M84.26,17.47,54.38.28,30.27,13.81,60.18,31.07A122.64,122.64,0,0,0,84.26,17.47Z"/><polygon class="cls-7" points="120.81 52.57 125.17 55.25 121.74 55.7 120.81 52.57"/><polygon class="cls-8" points="123.68 51.62 94.92 67.89 90.86 75.58 119.64 58.94 123.68 51.62"/><polygon class="cls-9" points="122.5 52.4 96.61 67.06 95.13 70.66 120.89 55.74 122.5 52.4"/><polygon class="cls-10" points="123.53 50.74 94.75 67.25 94.88 68.11 123.67 51.65 123.53 50.74"/><path class="cls-6" d="M93,32.55,66.22,47.78,95,67.26l28.51-16.52C112.22,43.6,104.51,38.19,93,32.55Z"/><path class="cls-11" d="M93,32.55,65.58,47.48l58,3.26C112.22,43.6,104.51,38.19,93,32.55Z"/><polygon class="cls-12" points="76.51 56.28 70.42 59.66 70.47 65 76.55 61.62 76.51 56.28"/><path class="cls-13" d="M86.33,72.6a4.57,4.57,0,0,0,1.29-3.54,13.28,13.28,0,0,0-6-10.4A4.62,4.62,0,0,0,77.82,58s-4.29,2.32-4.29,2.32a4.24,4.24,0,0,0-1.69,3.83,13.29,13.29,0,0,0,6,10.41,4.52,4.52,0,0,0,3.91.6S86.2,72.7,86.33,72.6Z"/><path class="cls-14" d="M71.21,64.49a13.32,13.32,0,0,0,6,10.41c3.33,1.92,6,.38,6-3.44a13.3,13.3,0,0,0-6-10.41C73.91,59.13,71.21,60.66,71.21,64.49Z"/><path class="cls-15" d="M73,65.53a9.32,9.32,0,0,0,4.22,7.29c2.34,1.35,4.23.27,4.23-2.41a9.32,9.32,0,0,0-4.23-7.29C74.91,61.78,73,62.86,73,65.53Z"/><path class="cls-16" d="M73.72,65.63a8.52,8.52,0,0,0,3.85,6.66c2.14,1.23,3.87.25,3.87-2.2a8.49,8.49,0,0,0-3.87-6.66C75.44,62.2,73.72,63.18,73.72,65.63Z"/><g class="cls-17"><path class="cls-14" d="M77.74,69.21c-.16-.09-.29.52-.29,1.37A5.77,5.77,0,0,0,77.6,72l0,0,.27.14A4.29,4.29,0,0,0,78,70.92,3.13,3.13,0,0,0,77.74,69.21Z"/><path class="cls-14" d="M77.74,66.27c.17.1.3-.51.3-1.36a7.41,7.41,0,0,0-.06-1l-.35-.22-.12-.06a5.89,5.89,0,0,0-.06.92A3.24,3.24,0,0,0,77.74,66.27Z"/><path class="cls-14" d="M76.46,67c0-.19-.59-.68-1.34-1.11A4.25,4.25,0,0,0,74,65.4c0,.12,0,.24,0,.36a6.29,6.29,0,0,0,1.13.81C75.87,67,76.46,67.19,76.46,67Z"/><path class="cls-14" d="M79,68.49c0,.18.6.68,1.34,1.11a5.59,5.59,0,0,0,.88.42V70a3.46,3.46,0,0,0,0-.45,7.48,7.48,0,0,0-.86-.59C79.63,68.49,79,68.3,79,68.49Z"/><path class="cls-14" d="M76.84,66.18c.12-.07-.21-.86-.75-1.75a10.87,10.87,0,0,0-.72-1.13,1.46,1.46,0,0,0-.31.14,10.86,10.86,0,0,0,.62,1.22C76.21,65.57,76.72,66.25,76.84,66.18Z"/><path class="cls-14" d="M78.65,69.31c-.11.07.22.85.74,1.75a10.66,10.66,0,0,0,.81,1.22,1.44,1.44,0,0,0,.25-.18,10,10,0,0,0-.64-1.28C79.28,69.92,78.77,69.24,78.65,69.31Z"/><path class="cls-14" d="M78.65,67.22c.12.2.63.12,1.16-.18a2.51,2.51,0,0,0,.52-.39c-.11-.2-.22-.39-.34-.57a2.21,2.21,0,0,0-.6.24C78.87,66.62,78.54,67,78.65,67.22Z"/><path class="cls-14" d="M76.09,69.16c.54-.3.87-.7.75-.9s-.63-.12-1.16.18a1.81,1.81,0,0,0-.73.69l.18.32A1.7,1.7,0,0,0,76.09,69.16Z"/><path class="cls-14" d="M78.92,67.84c.07.21.67.42,1.35.48a3.35,3.35,0,0,0,.73,0c0-.2-.12-.4-.19-.6a4.23,4.23,0,0,0-.77-.14C79.36,67.51,78.85,67.63,78.92,67.84Z"/><path class="cls-14" d="M76.57,67.64c-.07-.2-.68-.42-1.35-.47a2,2,0,0,0-1,.11c0,.12.07.24.11.36a2.87,2.87,0,0,0,1.14.28C76.13,68,76.63,67.86,76.57,67.64Z"/><path class="cls-14" d="M78.94,69c-.06.14.45.83,1.13,1.54a9.94,9.94,0,0,0,.92.84,3.35,3.35,0,0,0,.14-.38,8.2,8.2,0,0,0-.84-1C79.6,69.29,79,68.84,78.94,69Z"/><path class="cls-14" d="M76.55,66.51c.06-.14-.45-.83-1.13-1.53a7.84,7.84,0,0,0-1-.91,1.68,1.68,0,0,0-.15.3,10.15,10.15,0,0,0,.94,1.11C75.89,66.19,76.49,66.65,76.55,66.51Z"/><path class="cls-14" d="M78.25,69.39c-.15,0,0,.75.26,1.69a9.93,9.93,0,0,0,.56,1.43h.31a8.74,8.74,0,0,0-.32-1.39A4,4,0,0,0,78.25,69.39Z"/><path class="cls-14" d="M77.24,66.1c.15,0,0-.75-.27-1.7a10,10,0,0,0-.41-1.13,2,2,0,0,0-.42-.06c.06.3.16.7.29,1.15A4.17,4.17,0,0,0,77.24,66.1Z"/><path class="cls-14" d="M77.05,70.26c.27-.63.37-1.26.22-1.42s-.5.23-.77.86a3.18,3.18,0,0,0-.28,1.19l.24.24A1.93,1.93,0,0,0,77.05,70.26Z"/><path class="cls-14" d="M78.22,66.65c.15.16.49-.23.76-.86a3.72,3.72,0,0,0,.24-.74c-.14-.16-.28-.32-.43-.46a3,3,0,0,0-.35.63C78.17,65.85,78.07,66.49,78.22,66.65Z"/></g><path class="cls-14" d="M77.65,69.31c-.16-.1-.29.51-.29,1.36a5.77,5.77,0,0,0,.15,1.43h0l.27.15A3.82,3.82,0,0,0,78,71,3.21,3.21,0,0,0,77.65,69.31Z"/><path class="cls-14" d="M77.65,66.37c.16.09.3-.52.3-1.38a7.37,7.37,0,0,0-.06-1l-.36-.22-.11-.06a5.94,5.94,0,0,0-.06.93A3.3,3.3,0,0,0,77.65,66.37Z"/><path class="cls-14" d="M76.38,67.09c0-.18-.61-.68-1.34-1.11a4.42,4.42,0,0,0-1.12-.49c0,.12,0,.24,0,.37a7.19,7.19,0,0,0,1.14.8C75.77,67.09,76.38,67.28,76.38,67.09Z"/><path class="cls-14" d="M78.94,68.57c0,.19.6.69,1.33,1.12a5.19,5.19,0,0,0,.89.42v-.06c0-.15,0-.31,0-.46a7.29,7.29,0,0,0-.87-.58C79.54,68.58,78.94,68.39,78.94,68.57Z"/><path class="cls-14" d="M76.75,66.27c.11-.07-.22-.84-.74-1.75a10.62,10.62,0,0,0-.74-1.13,1.64,1.64,0,0,0-.3.14,8.82,8.82,0,0,0,.62,1.23C76.11,65.66,76.63,66.34,76.75,66.27Z"/><path class="cls-14" d="M78.56,69.4c-.11.06.22.85.74,1.75a8.53,8.53,0,0,0,.81,1.22,2.2,2.2,0,0,0,.25-.17,11.61,11.61,0,0,0-.64-1.29C79.19,70,78.67,69.34,78.56,69.4Z"/><path class="cls-14" d="M78.56,67.31c.11.21.63.13,1.16-.17a2,2,0,0,0,.51-.4,5.3,5.3,0,0,0-.33-.57,2.46,2.46,0,0,0-.61.25C78.78,66.71,78.45,67.12,78.56,67.31Z"/><path class="cls-14" d="M76,69.25c.52-.29.85-.7.74-.9s-.64-.12-1.16.18a1.64,1.64,0,0,0-.73.7l.18.31A1.73,1.73,0,0,0,76,69.25Z"/><path class="cls-14" d="M78.84,67.93c0,.21.66.42,1.33.48a2.9,2.9,0,0,0,.74,0,5.8,5.8,0,0,0-.19-.59,4.32,4.32,0,0,0-.78-.15C79.26,67.59,78.77,67.72,78.84,67.93Z"/><path class="cls-14" d="M76.48,67.74c-.06-.21-.67-.43-1.35-.48a2,2,0,0,0-1,.11c0,.12.07.24.11.36a3.18,3.18,0,0,0,1.15.29C76,68.08,76.54,68,76.48,67.74Z"/><path class="cls-14" d="M78.84,69.07c-.06.13.45.82,1.14,1.54a8.54,8.54,0,0,0,.92.83,3.35,3.35,0,0,0,.14-.38,10.42,10.42,0,0,0-.84-1C79.51,69.39,78.91,68.93,78.84,69.07Z"/><path class="cls-14" d="M76.46,66.6c.06-.13-.45-.83-1.14-1.54a7.44,7.44,0,0,0-1-.89,1.13,1.13,0,0,0-.15.29,10.08,10.08,0,0,0,.93,1.11C75.79,66.28,76.4,66.74,76.46,66.6Z"/><path class="cls-14" d="M78.17,69.48c-.16,0,0,.75.25,1.69A9.46,9.46,0,0,0,79,72.61h.3A7.72,7.72,0,0,0,79,71.22,4.36,4.36,0,0,0,78.17,69.48Z"/><path class="cls-14" d="M77.14,66.19c.15,0,0-.75-.26-1.69a9.22,9.22,0,0,0-.42-1.15l-.4-.05a6.63,6.63,0,0,0,.29,1.15A4,4,0,0,0,77.14,66.19Z"/><path class="cls-14" d="M77,70.36c.27-.63.37-1.28.22-1.43s-.5.23-.76.86a3,3,0,0,0-.3,1.19l.25.24A2,2,0,0,0,77,70.36Z"/><path class="cls-14" d="M78.12,66.74c.16.16.5-.23.77-.86a4,4,0,0,0,.24-.74c-.14-.16-.29-.31-.43-.46a3,3,0,0,0-.36.63C78.07,65.94,78,66.59,78.12,66.74Z"/><path class="cls-14" d="M77.16,67.47a1.5,1.5,0,0,0,.69,1.18c.38.22.68,0,.68-.39a1.51,1.51,0,0,0-.68-1.18C77.47,66.86,77.16,67,77.16,67.47Z"/><path class="cls-15" d="M76.91,67.56a1.52,1.52,0,0,0,.69,1.18c.37.22.68.05.68-.39a1.5,1.5,0,0,0-.68-1.17C77.22,67,76.91,67.13,76.91,67.56Z"/><path class="cls-18" d="M77.13,67.82a.77.77,0,0,0,.35.59c.19.11.35,0,.35-.2a.76.76,0,0,0-.35-.59C77.29,67.51,77.13,67.6,77.13,67.82Z"/><path class="cls-15" d="M77.24,68a.42.42,0,0,0,.19.33.12.12,0,0,0,.2-.11.45.45,0,0,0-.2-.33C77.32,67.79,77.24,67.84,77.24,68Z"/><polygon class="cls-12" points="23.82 25.83 15.65 29.24 17.77 34.55 23.86 31.17 23.82 25.83"/><path class="cls-13" d="M33.63,42.15a4.56,4.56,0,0,0,1.3-3.54,13.3,13.3,0,0,0-6-10.41,4.63,4.63,0,0,0-3.76-.66s-4.3,2.34-4.3,2.34c-1,.63-1.69,2-1.69,3.83a13.29,13.29,0,0,0,6,10.4,4.49,4.49,0,0,0,3.91.6S33.51,42.25,33.63,42.15Z"/><path class="cls-14" d="M18.52,34a13.32,13.32,0,0,0,6,10.41c3.33,1.92,6,.38,6-3.44a13.3,13.3,0,0,0-6-10.41C21.22,28.67,18.52,30.22,18.52,34Z"/><path class="cls-15" d="M20.33,35.08a9.32,9.32,0,0,0,4.22,7.29c2.33,1.35,4.23.26,4.23-2.41a9.33,9.33,0,0,0-4.23-7.28C22.22,31.33,20.33,32.41,20.33,35.08Z"/><path class="cls-16" d="M21,35.18a8.52,8.52,0,0,0,3.87,6.66c2.13,1.23,3.86.24,3.86-2.2A8.51,8.51,0,0,0,24.89,33C22.76,31.75,21,32.73,21,35.18Z"/><g class="cls-17"><path class="cls-14" d="M25.05,38.77c-.16-.1-.3.51-.3,1.36a5.7,5.7,0,0,0,.16,1.43h0a1.74,1.74,0,0,0,.27.14,3.74,3.74,0,0,0,.15-1.24A3.06,3.06,0,0,0,25.05,38.77Z"/><path class="cls-14" d="M25.05,35.82c.17.1.3-.51.3-1.36a7.31,7.31,0,0,0-.07-1c-.11-.08-.23-.15-.35-.22l-.11-.06a5.75,5.75,0,0,0-.07.92A3.18,3.18,0,0,0,25.05,35.82Z"/><path class="cls-14" d="M23.77,36.56c0-.2-.6-.69-1.34-1.12A4.62,4.62,0,0,0,21.32,35c0,.12,0,.24,0,.36a6.29,6.29,0,0,0,1.13.81C23.17,36.55,23.77,36.74,23.77,36.56Z"/><path class="cls-14" d="M26.33,38c0,.18.61.68,1.34,1.11a5.63,5.63,0,0,0,.89.42V39.5c0-.14,0-.3,0-.45a7.29,7.29,0,0,0-.87-.58C26.94,38,26.33,37.85,26.33,38Z"/><path class="cls-14" d="M24.14,35.73c.12-.07-.21-.85-.73-1.75a12.44,12.44,0,0,0-.74-1.13,1.23,1.23,0,0,0-.31.14A12.14,12.14,0,0,0,23,34.21C23.51,35.11,24,35.8,24.14,35.73Z"/><path class="cls-14" d="M26,38.86c-.11.06.21.85.74,1.75a9.47,9.47,0,0,0,.81,1.22,2.27,2.27,0,0,0,.25-.18,12.55,12.55,0,0,0-.64-1.28C26.59,39.47,26.08,38.79,26,38.86Z"/><path class="cls-14" d="M26,36.77c.11.2.63.13,1.16-.18a2.2,2.2,0,0,0,.52-.39c-.11-.19-.22-.39-.34-.58a2.48,2.48,0,0,0-.6.25C26.17,36.17,25.85,36.57,26,36.77Z"/><path class="cls-14" d="M23.41,38.71c.52-.3.85-.7.73-.9s-.63-.12-1.15.18a1.68,1.68,0,0,0-.73.69l.18.31A1.65,1.65,0,0,0,23.41,38.71Z"/><path class="cls-14" d="M26.23,37.39c.06.21.67.42,1.34.48a2.9,2.9,0,0,0,.74,0,6,6,0,0,0-.2-.6,4.08,4.08,0,0,0-.77-.14C26.66,37.05,26.16,37.18,26.23,37.39Z"/><path class="cls-14" d="M23.87,37.2c-.06-.21-.66-.43-1.34-.48a2.11,2.11,0,0,0-1,.11c0,.12.07.24.11.36a2.83,2.83,0,0,0,1.14.28C23.44,37.53,23.94,37.41,23.87,37.2Z"/><path class="cls-14" d="M26.25,38.52c-.06.14.44.83,1.13,1.54a9.94,9.94,0,0,0,.92.84c.05-.12.09-.25.14-.37a10.39,10.39,0,0,0-.84-1C26.91,38.85,26.3,38.38,26.25,38.52Z"/><path class="cls-14" d="M23.86,36.06c.06-.14-.45-.82-1.14-1.53a7.88,7.88,0,0,0-1-.91c0,.1-.11.19-.16.3a11.75,11.75,0,0,0,1,1.11C23.2,35.74,23.8,36.2,23.86,36.06Z"/><path class="cls-14" d="M25.56,38.94c-.15,0,0,.75.26,1.7a9.51,9.51,0,0,0,.56,1.42,1.53,1.53,0,0,0,.3,0,7.75,7.75,0,0,0-.32-1.39A4.08,4.08,0,0,0,25.56,38.94Z"/><path class="cls-14" d="M24.54,35.65c.16,0,0-.74-.26-1.7a10.81,10.81,0,0,0-.41-1.13,1.56,1.56,0,0,0-.41-.06,7.5,7.5,0,0,0,.28,1.15A4.36,4.36,0,0,0,24.54,35.65Z"/><path class="cls-14" d="M24.37,39.82c.26-.64.36-1.27.21-1.43s-.5.23-.77.86a3.18,3.18,0,0,0-.29,1.18l.25.25A2.12,2.12,0,0,0,24.37,39.82Z"/><path class="cls-14" d="M25.53,36.2c.14.15.49-.23.76-.86a3,3,0,0,0,.24-.74,6.33,6.33,0,0,0-.44-.46,3.58,3.58,0,0,0-.34.63C25.47,35.4,25.37,36,25.53,36.2Z"/></g><path class="cls-14" d="M25,38.86c-.16-.1-.29.52-.29,1.36a5.77,5.77,0,0,0,.15,1.43l0,0,.27.14a4,4,0,0,0,.14-1.25A3.22,3.22,0,0,0,25,38.86Z"/><path class="cls-14" d="M25,35.91c.16.1.29-.51.29-1.36a7.52,7.52,0,0,0-.05-1l-.36-.22-.11-.06a5.89,5.89,0,0,0-.06.92A3.24,3.24,0,0,0,25,35.91Z"/><path class="cls-14" d="M23.68,36.65c0-.19-.6-.69-1.34-1.12A4.39,4.39,0,0,0,21.23,35c0,.12,0,.23,0,.36a5.83,5.83,0,0,0,1.13.81C23.08,36.64,23.68,36.83,23.68,36.65Z"/><path class="cls-14" d="M26.25,38.12c0,.2.59.69,1.33,1.11a5,5,0,0,0,.89.43V39.6a3.44,3.44,0,0,0,0-.46,6.4,6.4,0,0,0-.86-.58C26.84,38.13,26.25,37.94,26.25,38.12Z"/><path class="cls-14" d="M24.05,35.82c.12-.07-.22-.85-.74-1.75a10.74,10.74,0,0,0-.73-1.13,1.38,1.38,0,0,0-.3.14,11.43,11.43,0,0,0,.61,1.23C23.42,35.21,23.93,35.89,24.05,35.82Z"/><path class="cls-14" d="M25.86,39c-.11.06.22.85.74,1.75a12.18,12.18,0,0,0,.81,1.22,1.7,1.7,0,0,0,.26-.18A11.08,11.08,0,0,0,27,40.46C26.5,39.56,26,38.88,25.86,39Z"/><path class="cls-14" d="M25.86,36.87c.12.2.64.12,1.16-.18a2.22,2.22,0,0,0,.52-.4c-.1-.19-.21-.38-.33-.58a2.6,2.6,0,0,0-.61.26C26.08,36.26,25.75,36.67,25.86,36.87Z"/><path class="cls-14" d="M23.32,38.81c.51-.3.85-.7.73-.91s-.63-.12-1.16.18a1.77,1.77,0,0,0-.72.69c0,.11.11.21.17.32A1.91,1.91,0,0,0,23.32,38.81Z"/><path class="cls-14" d="M26.14,37.48c.06.21.66.42,1.34.48a3.47,3.47,0,0,0,.74,0c-.06-.2-.12-.4-.2-.6a5.07,5.07,0,0,0-.77-.14C26.57,37.14,26.07,37.27,26.14,37.48Z"/><path class="cls-14" d="M23.78,37.29c-.06-.21-.67-.42-1.35-.48a2,2,0,0,0-1,.11c0,.12.07.24.11.36a3.18,3.18,0,0,0,1.14.29C23.35,37.63,23.85,37.5,23.78,37.29Z"/><path class="cls-14" d="M26.15,38.62c-.06.14.45.82,1.14,1.53a7.8,7.8,0,0,0,.92.84,3.37,3.37,0,0,0,.13-.38,10.16,10.16,0,0,0-.83-1C26.82,38.94,26.21,38.48,26.15,38.62Z"/><path class="cls-14" d="M23.77,36.15c.06-.13-.45-.83-1.14-1.53a7,7,0,0,0-1-.9,2,2,0,0,0-.16.29,8.62,8.62,0,0,0,1,1.11C23.1,35.83,23.71,36.29,23.77,36.15Z"/><path class="cls-14" d="M25.47,39c-.16,0,0,.74.26,1.69a8.35,8.35,0,0,0,.56,1.43h.3a7,7,0,0,0-.32-1.39A4.08,4.08,0,0,0,25.47,39Z"/><path class="cls-14" d="M24.45,35.74c.15,0,0-.74-.26-1.7a8.82,8.82,0,0,0-.42-1.13l-.41-.06A9.17,9.17,0,0,0,23.65,34,4.08,4.08,0,0,0,24.45,35.74Z"/><path class="cls-14" d="M24.27,39.91c.27-.63.37-1.27.21-1.43s-.49.23-.76.86a3.22,3.22,0,0,0-.29,1.19l.24.24A1.88,1.88,0,0,0,24.27,39.91Z"/><path class="cls-14" d="M25.44,36.29c.14.16.48-.23.76-.86a4,4,0,0,0,.24-.74c-.14-.16-.28-.31-.43-.46a2.76,2.76,0,0,0-.36.63C25.38,35.49,25.28,36.13,25.44,36.29Z"/><path class="cls-14" d="M24.47,37a1.55,1.55,0,0,0,.68,1.19c.38.21.69,0,.69-.4a1.52,1.52,0,0,0-.69-1.18C24.78,36.41,24.47,36.59,24.47,37Z"/><path class="cls-15" d="M24.22,37.11a1.49,1.49,0,0,0,.69,1.18c.37.22.68.05.68-.39a1.52,1.52,0,0,0-.69-1.18C24.53,36.5,24.22,36.68,24.22,37.11Z"/><path class="cls-18" d="M24.44,37.36a.77.77,0,0,0,.35.6c.19.11.35,0,.35-.19a.77.77,0,0,0-.35-.6C24.6,37.06,24.44,37.14,24.44,37.36Z"/><path class="cls-15" d="M24.54,37.51a.42.42,0,0,0,.2.33.12.12,0,0,0,.19-.11.44.44,0,0,0-.19-.33C24.63,37.34,24.54,37.39,24.54,37.51Z"/><path class="cls-19" d="M5.86,14.71l2.92,10.4,1,1.94,7.18,7,.82.47A9.41,9.41,0,0,1,17.64,33c0-4.25,3-6,6.73-3.83,6.38,3.7,6.63,11.17,6.88,13.17l38.4,22.18.94-.33c0-.21,0-.42,0-.63,0-4.25,3-6,6.72-3.83A14.81,14.81,0,0,1,84,71.32c0,.12,0,.23,0,.35l.85.49,6,3.48L95,67.85Z"/><polygon class="cls-7" points="94.14 67.86 92.83 67.11 91.55 69.34 92.85 70.09 94.14 67.86"/><polygon class="cls-20" points="90.3 67.42 88.89 66.61 88.61 67.08 90.03 67.89 90.3 67.42"/><path class="cls-21" d="M63,59.43,31.7,41.52a21.66,21.66,0,0,0-4.3-11.8c0-.32-.83-7.76-.85-8.15l.59.29.54,7.7A23.09,23.09,0,0,1,32,41L62.74,58.79l1.41-15.23.59.43Z"/><polygon class="cls-21" points="43.27 32.4 42.67 32.05 43.13 48.08 43.72 48.41 43.27 32.4"/><polygon class="cls-22" points="30.17 36.36 71.49 60.21 71.21 60.63 30.39 37.05 30.17 36.36"/><polygon class="cls-22" points="83.06 66.87 92.58 72.4 92.58 72.97 83.24 67.58 83.06 66.87"/><polygon class="cls-22" points="8.46 23.84 18.46 29.61 18.46 30.17 8.46 24.4 8.46 23.84"/><polygon class="cls-23" points="70.49 64.18 30.94 41.48 30.95 42.35 70.49 65.05 70.49 64.18"/><path class="cls-24" d="M67.49,46.63,60.34,30.92,30.57,13.73l-2-.29L18.1,16.25l-11-2.63L5.87,14.75,95,67.89l.07-.66C86.88,61.28,76.55,52.88,67.49,46.63Z"/><polygon class="cls-21" points="58.74 32.97 34.45 18.94 26.5 22.09 27.02 25.1 65.02 47.04 65.74 46.44 58.74 32.97"/><polygon class="cls-25" points="58.35 33.06 34.92 19.56 27.4 22.54 27.73 24.68 63.62 45.41 64.36 44.59 58.35 33.06"/><polygon class="cls-26" points="96.06 72.18 92.89 71.78 88.24 69.1 87.22 69.67 93.63 73.38 96.06 72.18"/><polygon class="cls-7" points="124.33 56.2 125.13 55.24 121.78 55.29 93.18 71.76 96.03 72.39 124.33 56.2"/><polygon class="cls-7" points="93.64 73.37 87.22 69.67 86.15 71.24 92.57 74.95 93.64 73.37"/><path class="cls-27" d="M84.46,18.47A145.45,145.45,0,0,1,60.79,32l6.7,14.63A134.36,134.36,0,0,0,92.27,32.08Z"/><path class="cls-28" d="M84.13,19.31a143,143,0,0,1-22.75,13l6.31,13.82a131.13,131.13,0,0,0,23.8-14Z"/><path class="cls-29" d="M91.93,35.54c-.72-.36-.42-.16-1.16-.52-5.45,4.76-9.87,7.37-18.2,11l.93.73C83.61,43.59,88.32,40.78,91.93,35.54Z"/><path class="cls-30" d="M73.46,46.76C83.41,43.71,88,41,91.51,36a3.82,3.82,0,0,0-.55-.27c-5.31,4.46-9.72,7-18.13,10.52Z"/><polygon class="cls-11" points="82.11 44.46 78.58 42.46 78.61 42.97 82.14 44.97 82.11 44.46"/><polygon class="cls-11" points="91.2 38.45 87.7 36.39 87.71 36.9 91.21 38.96 91.2 38.45"/><polygon class="cls-21" points="65.43 46.24 64.91 46.09 63.63 49.19 64.07 49.76 65.43 46.24"/><polygon class="cls-21" points="44.43 34.64 43.85 34.46 42.8 36.78 43.33 37.34 44.43 34.64"/><polygon class="cls-21" points="28.68 25.45 28.26 25.32 27.16 27.49 27.48 27.97 28.68 25.45"/><polygon class="cls-21" points="46.4 25.96 44.99 25.24 43.5 34.08 44.91 34.81 46.4 25.96"/><polygon class="cls-31" points="46.13 25.51 45.39 25.06 43.56 34.67 44.31 35.13 46.13 25.51"/><polygon class="cls-25" points="47.04 40.38 44.15 38.68 44.15 39.99 47.04 41.7 47.04 40.38"/><polygon class="cls-31" points="46.38 39.75 43.94 38.32 43.94 39.43 46.38 40.86 46.38 39.75"/><polygon class="cls-25" points="32.11 31.28 29.22 29.57 29.22 30.9 32.11 32.6 32.11 31.28"/><polygon class="cls-31" points="31.46 30.65 29.02 29.22 29.02 30.33 31.46 31.76 31.46 30.65"/><polygon class="cls-21" points="24.03 21.69 20.51 19.68 19.09 20.42 24.03 23.3 24.03 21.69"/><path class="cls-32" d="M97.84,67.69c.31-.91-.15-1.23-1-.73a5.54,5.54,0,0,0-2.13,2.55c-.31.91.16,1.23,1,.72A5.43,5.43,0,0,0,97.84,67.69Z"/><path class="cls-19" d="M97.67,67.9c.25-.74-.13-1-.84-.59a4.59,4.59,0,0,0-1.74,2.07c-.24.74.13,1,.84.59A4.47,4.47,0,0,0,97.67,67.9Z"/><path class="cls-32" d="M101.12,65.71c.26-.77-.13-1-.88-.61a4.72,4.72,0,0,0-1.85,2.19c-.27.78.13,1.06.88.62A4.69,4.69,0,0,0,101.12,65.71Z"/><polygon class="cls-33" points="10.77 26.23 12.1 25.36 12.82 27.97 11.89 28.55 10.77 26.23"/><polygon class="cls-34" points="6.88 23.49 8.07 22.68 12.09 25.37 11.09 26.08 6.88 23.49"/><polygon class="cls-7" points="6.88 23.46 11.18 25.95 11.9 28.56 7.59 26.08 6.88 23.46"/><path class="cls-35" d="M90.67,30.67,84.13,19.31c-2.28,1.61-4.62,3.16-7.08,4.67L90,31.44Z"/><polygon class="cls-27" points="78.45 25.38 74.55 27.07 74.46 28.61 78.37 26.91 78.45 25.38"/><polygon class="cls-27" points="76.26 24.06 75.92 24.13 76.91 26.45 77.25 26.38 76.26 24.06"/><rect class="cls-27" x="71.21" y="42.73" width="3.59" height="0.22" transform="translate(-2.29 81.5) rotate(-57.58)"/><polygon class="cls-27" points="87.77 35.13 87.78 34.91 84.3 35.16 84.3 35.38 87.77 35.13"/><polygon class="cls-27" points="77.97 40.46 70.75 41.87 70.88 42.37 77.95 40.84 77.97 40.46"/><polygon class="cls-27" points="85.81 33.48 81.72 38.12 82.07 38.4 85.99 33.74 85.81 33.48"/><path class="cls-10" d="M96.8,68.21c.15-.41-.07-.57-.47-.33a2.46,2.46,0,0,0-1,1.19c-.14.42.07.57.47.33A2.51,2.51,0,0,0,96.8,68.21Z"/><path class="cls-32" d="M122.4,53.61c.29-.85-.14-1.16-1-.69a5.13,5.13,0,0,0-2,2.4c-.29.85.14,1.15,1,.68A5.14,5.14,0,0,0,122.4,53.61Z"/><path class="cls-19" d="M122.24,53.8c.23-.69-.11-.94-.79-.56a4.2,4.2,0,0,0-1.65,1.95c-.23.7.12,1,.79.56A4.17,4.17,0,0,0,122.24,53.8Z"/><path class="cls-10" d="M121.42,54.1c.14-.4-.06-.55-.45-.32A2.38,2.38,0,0,0,120,54.9c-.14.39.06.53.45.32A2.49,2.49,0,0,0,121.42,54.1Z"/><path class="cls-19" d="M100.81,66c.18-.55-.09-.74-.62-.44a3.31,3.31,0,0,0-1.3,1.55c-.2.54.09.74.62.43A3.29,3.29,0,0,0,100.81,66Z"/><path class="cls-10" d="M100.37,66.1c.12-.36-.06-.49-.41-.28a2.2,2.2,0,0,0-.87,1c-.12.36.06.49.42.29A2.21,2.21,0,0,0,100.37,66.1Z"/><path class="cls-32" d="M118.9,55.64c.25-.73-.13-1-.84-.58a4.49,4.49,0,0,0-1.76,2.08c-.25.74.13,1,.85.59A4.5,4.5,0,0,0,118.9,55.64Z"/><path class="cls-19" d="M118.6,56c.17-.53-.09-.71-.6-.42A3.06,3.06,0,0,0,116.78,57c-.18.51.08.71.59.41A3.16,3.16,0,0,0,118.6,56Z"/><path class="cls-10" d="M118.18,56c.11-.35-.06-.47-.39-.28a2.13,2.13,0,0,0-.83,1c-.11.34.07.46.4.27A2.08,2.08,0,0,0,118.18,56Z"/><polygon class="cls-32" points="125.17 55.25 93.62 73.27 92.55 74.91 124.15 56.84 125.17 55.25"/><polygon class="cls-19" points="113.77 57.14 107.54 60.74 105.48 64.56 111.7 60.98 113.77 57.14"/><polygon class="cls-9" points="112.94 58.05 108.34 60.7 106.81 63.54 111.4 60.88 112.94 58.05"/><polygon class="cls-19" points="111.33 58.78 110.71 59.06 108.84 62.5 109.47 62.21 111.33 58.78"/><polygon class="cls-19" points="107.85 59.85 80.67 44.38 107.13 60.2 107.85 59.85"/></g></g></g></svg>