<svg xmlns="http://www.w3.org/2000/svg" viewBox="0 0 306.99 193.17"><defs><style>.cls-1{isolation:isolate;}.cls-2{fill:#77676a;}.cls-3{fill:#301404;opacity:0.4;mix-blend-mode:multiply;}.cls-4{fill:#797333;}.cls-5{fill:#aa9ca2;}.cls-6{fill:#453639;}.cls-7{fill:#a69598;}.cls-8{fill:#907e83;}.cls-9{fill:#c4afb5;}.cls-10{fill:#36292c;}.cls-11{fill:#f0e8eb;}.cls-12{fill:#cdc3c8;}.cls-13{fill:#7c6f76;}.cls-14{fill:#958d42;}.cls-15{fill:#c6bcbf;}.cls-16{fill:#3b2e31;}.cls-17{fill:#4e4043;}.cls-18{fill:#5b4c51;}.cls-19{fill:#b4ac50;}.cls-20{fill:#d5d4d5;}.cls-21{fill:#e4e1e2;}.cls-22{fill:#c8bd5a;}.cls-23{fill:#e6dfe2;}.cls-24{fill:#654f54;}.cls-25{fill:#ccc65d;}.cls-26{fill:#bcb4b7;}.cls-27{fill:#d7cb5e;}.cls-28{fill:#b4ac52;}.cls-29{fill:#e2d760;}.cls-30{fill:#eee067;}.cls-31,.cls-34{fill:#8f8185;}.cls-31{opacity:0.1;}.cls-32{fill:#887f84;}.cls-33{fill:#c6bb55;}.cls-34{opacity:0.5;}.cls-35{fill:#c97738;}.cls-36{fill:#e8db63;}.cls-37{fill:#fbf4f7;}.cls-38{fill:none;stroke:#c6bcbf;stroke-miterlimit:10;}.cls-39{fill:#b4acb2;}</style></defs><title>Recurso34</title><g class="cls-1"><g id="Capa_2" data-name="Capa 2"><g id="ELEMENTOS_INDIVIDUALES" data-name="ELEMENTOS INDIVIDUALES"><polygon class="cls-2" points="5.76 78.33 0 81.25 0 82.57 5.76 79.66 5.76 78.33"/><polygon class="cls-3" points="306.99 159.48 117.89 50.24 59.3 52.95 11.85 85.55 5.41 88.28 31.36 103.5 36.14 111.01 46.38 112.47 157.4 176.47 164.42 184.66 178.49 183.98 194.32 193.17 262.66 192.84 269.99 188.65 306.99 159.48"/><polygon class="cls-4" points="28.14 98.62 35.21 95.4 28.46 94.13 28.14 98.62"/><polygon class="cls-5" points="232.56 164.23 230.42 162.96 230.78 165.28 232.56 164.23"/><polygon class="cls-4" points="155.4 172.65 162.21 168.81 154.6 167.38 155.4 172.65"/><path class="cls-6" d="M171.76,179.5A12.92,12.92,0,0,0,166,169.32c-1.68-1-3.21-1.06-4.29-.37l0-.21L158,171c-1.32.47-2.17,1.85-2.2,3.94a13,13,0,0,0,5.75,10.18c1.82,1.08,3.46,1.07,4.55.19l3.6-1.95C170.92,182.91,171.74,181.55,171.76,179.5Z"/><path class="cls-6" d="M171.76,179.5A12.92,12.92,0,0,0,166,169.32c-3.21-1.9-5.86-.44-5.9,3.28a12.9,12.9,0,0,0,5.75,10.17C169.08,184.68,171.72,183.22,171.76,179.5Z"/><path class="cls-6" d="M167.41,181.88a12.91,12.91,0,0,0-5.75-10.18c-3.21-1.9-5.85-.44-5.9,3.28a13,13,0,0,0,5.75,10.18C164.73,187.06,167.37,185.6,167.41,181.88Z"/><polygon class="cls-6" points="165.44 185.68 170.1 183.17 166.69 181.14 165.44 185.68"/><polygon class="cls-6" points="161.36 172.47 157.39 171.38 161.74 168.74 161.36 172.47"/><path class="cls-7" d="M165.24,181.2a9.09,9.09,0,0,0-4-7.15c-2.26-1.34-4.13-.31-4.16,2.3a9.06,9.06,0,0,0,4,7.15C163.35,184.84,165.2,183.81,165.24,181.2Z"/><path class="cls-8" d="M163,180.91a11.71,11.71,0,0,1,1.66,2.3,3.5,3.5,0,0,0,.56-2,9.09,9.09,0,0,0-4-7.15c-2.26-1.34-4.13-.31-4.16,2.3a7.49,7.49,0,0,0,.16,1.46A9.06,9.06,0,0,1,163,180.91Z"/><path class="cls-9" d="M163.57,180.21a5.41,5.41,0,0,0-2.39-4.23c-1.34-.8-2.44-.18-2.45,1.36a5.37,5.37,0,0,0,2.38,4.23C162.45,182.36,163.55,181.75,163.57,180.21Z"/><path class="cls-10" d="M166,169.32c-1.68-1-3.21-1.06-4.29-.37l0-.21L158,171l-.13.05c3-1.51,12.48,6.47,8.89,13.9l2.94-1.59c1.26-.49,2.08-1.85,2.1-3.9A12.92,12.92,0,0,0,166,169.32Z"/><path class="cls-6" d="M163.38,176.91a1.05,1.05,0,0,0-.47-.83c-.27-.16-.48,0-.48.27a1,1,0,0,0,.47.83C163.16,177.34,163.38,177.22,163.38,176.91Z"/><path class="cls-6" d="M164.41,178.67a1.05,1.05,0,0,0-.48-.83c-.26-.16-.47-.05-.48.26a1.09,1.09,0,0,0,.47.84C164.18,179.1,164.41,179,164.41,178.67Z"/><path class="cls-6" d="M164.89,180.53a1,1,0,0,0-.47-.84c-.26-.16-.48,0-.48.27a1.07,1.07,0,0,0,.47.83C164.68,181,164.89,180.83,164.89,180.53Z"/><path class="cls-6" d="M164.75,182.14a1.07,1.07,0,0,0-.47-.84c-.26-.16-.48,0-.48.27a1,1,0,0,0,.47.83C164.53,182.56,164.75,182.44,164.75,182.14Z"/><path class="cls-6" d="M163.87,183.15a1.08,1.08,0,0,0-.47-.83c-.27-.16-.48,0-.48.27a1.06,1.06,0,0,0,.47.84C163.65,183.58,163.87,183.46,163.87,183.15Z"/><path class="cls-6" d="M162.31,183a1.09,1.09,0,0,0-.47-.84c-.27-.16-.48,0-.49.27a1.05,1.05,0,0,0,.48.83C162.09,183.44,162.31,183.32,162.31,183Z"/><path class="cls-6" d="M160.9,182.18a1.08,1.08,0,0,0-.48-.83c-.26-.16-.47,0-.48.26a1.09,1.09,0,0,0,.47.84C160.68,182.61,160.89,182.49,160.9,182.18Z"/><path class="cls-6" d="M159.53,180.92a1.09,1.09,0,0,0-.47-.84c-.27-.16-.48,0-.49.27a1.11,1.11,0,0,0,.48.84C159.31,181.34,159.53,181.22,159.53,180.92Z"/><path class="cls-6" d="M158.6,179.06a1,1,0,0,0-.47-.83c-.27-.16-.48,0-.48.27a1,1,0,0,0,.48.83C158.39,179.49,158.6,179.37,158.6,179.06Z"/><path class="cls-6" d="M158.41,177.21a1.09,1.09,0,0,0-.47-.84c-.27-.16-.48,0-.49.26a1.1,1.1,0,0,0,.48.85C158.19,177.63,158.41,177.51,158.41,177.21Z"/><path class="cls-6" d="M158.85,175.55a1.11,1.11,0,0,0-.48-.84c-.26-.15-.48,0-.48.27a1.08,1.08,0,0,0,.48.84C158.63,176,158.85,175.86,158.85,175.55Z"/><path class="cls-6" d="M160.07,174.92a1.07,1.07,0,0,0-.48-.84c-.26-.16-.47,0-.47.27a1,1,0,0,0,.46.83C159.85,175.34,160.07,175.22,160.07,174.92Z"/><path class="cls-6" d="M161.77,175.45a1.07,1.07,0,0,0-.47-.83c-.26-.16-.48,0-.48.26a1.09,1.09,0,0,0,.47.84C161.55,175.88,161.77,175.75,161.77,175.45Z"/><path class="cls-6" d="M44.55,105.46a12.92,12.92,0,0,0-5.74-10.18c-1.69-1-3.22-1.07-4.29-.38v-.2L30.75,97c-1.32.47-2.16,1.85-2.19,4a12.89,12.89,0,0,0,5.75,10.18c1.82,1.07,3.46,1.07,4.54.19l3.61-2C43.72,108.87,44.53,107.51,44.55,105.46Z"/><path class="cls-6" d="M44.55,105.46a12.92,12.92,0,0,0-5.74-10.18c-3.22-1.91-5.86-.44-5.91,3.27a12.9,12.9,0,0,0,5.75,10.18C41.87,110.65,44.51,109.17,44.55,105.46Z"/><path class="cls-6" d="M40.21,107.84a13,13,0,0,0-5.75-10.18c-3.22-1.91-5.87-.44-5.9,3.28a12.89,12.89,0,0,0,5.75,10.18C37.52,113,40.16,111.55,40.21,107.84Z"/><polygon class="cls-6" points="38.23 111.64 42.89 109.13 39.48 107.1 38.23 111.64"/><polygon class="cls-6" points="34.16 98.43 30.18 97.34 34.53 94.7 34.16 98.43"/><path class="cls-7" d="M38,107.16A9.08,9.08,0,0,0,34,100c-2.26-1.34-4.11-.31-4.14,2.3a9.07,9.07,0,0,0,4,7.15C36.14,110.8,38,109.77,38,107.16Z"/><path class="cls-8" d="M35.82,106.87a12,12,0,0,1,1.66,2.29,3.52,3.52,0,0,0,.55-2A9.08,9.08,0,0,0,34,100c-2.26-1.34-4.11-.31-4.14,2.3a6.22,6.22,0,0,0,.16,1.46A9.11,9.11,0,0,1,35.82,106.87Z"/><path class="cls-9" d="M36.36,106.17A5.36,5.36,0,0,0,34,101.94c-1.34-.8-2.43-.18-2.45,1.36a5.34,5.34,0,0,0,2.39,4.23C35.25,108.32,36.35,107.71,36.36,106.17Z"/><path class="cls-10" d="M38.81,95.28c-1.69-1-3.22-1.07-4.29-.38v-.2L30.75,97l-.12.06c3-1.5,12.47,6.47,8.88,13.9l3-1.59c1.26-.49,2.07-1.85,2.09-3.9A12.92,12.92,0,0,0,38.81,95.28Z"/><path class="cls-6" d="M36.18,102.87a1.07,1.07,0,0,0-.48-.83c-.26-.16-.48,0-.48.27a1.07,1.07,0,0,0,.47.83C36,103.3,36.18,103.18,36.18,102.87Z"/><path class="cls-6" d="M37.2,104.63a1.05,1.05,0,0,0-.47-.83c-.27-.16-.49,0-.49.26a1.07,1.07,0,0,0,.48.84C37,105.06,37.2,104.93,37.2,104.63Z"/><path class="cls-6" d="M37.69,106.48a1.05,1.05,0,0,0-.48-.83c-.26-.16-.47,0-.47.26a1,1,0,0,0,.47.84C37.47,106.91,37.69,106.79,37.69,106.48Z"/><path class="cls-6" d="M37.54,108.09a1,1,0,0,0-.47-.83c-.27-.16-.48,0-.48.27a1,1,0,0,0,.47.83C37.32,108.52,37.53,108.4,37.54,108.09Z"/><path class="cls-6" d="M36.67,109.12a1.1,1.1,0,0,0-.48-.84c-.26-.16-.48,0-.48.27a1.07,1.07,0,0,0,.47.83C36.45,109.55,36.67,109.42,36.67,109.12Z"/><path class="cls-6" d="M35.1,109a1.07,1.07,0,0,0-.47-.84c-.27-.15-.48,0-.49.27a1.08,1.08,0,0,0,.48.84C34.88,109.39,35.1,109.28,35.1,109Z"/><path class="cls-6" d="M33.69,108.14a1.05,1.05,0,0,0-.48-.83c-.26-.16-.47,0-.48.26a1.1,1.1,0,0,0,.48.84C33.47,108.57,33.68,108.45,33.69,108.14Z"/><path class="cls-6" d="M32.33,106.88a1.1,1.1,0,0,0-.48-.84c-.27-.16-.48,0-.48.27a1,1,0,0,0,.47.83C32.11,107.3,32.33,107.18,32.33,106.88Z"/><path class="cls-6" d="M31.4,105a1.06,1.06,0,0,0-.48-.83c-.26-.16-.47,0-.48.26a1.09,1.09,0,0,0,.47.84C31.18,105.45,31.39,105.32,31.4,105Z"/><path class="cls-6" d="M31.2,103.17a1.09,1.09,0,0,0-.47-.84c-.27-.16-.48,0-.49.27a1.11,1.11,0,0,0,.48.84C31,103.6,31.2,103.48,31.2,103.17Z"/><path class="cls-6" d="M31.64,101.51a1.09,1.09,0,0,0-.47-.84c-.27-.16-.48,0-.49.27a1.1,1.1,0,0,0,.48.84C31.42,101.94,31.64,101.82,31.64,101.51Z"/><path class="cls-6" d="M32.86,100.88a1.07,1.07,0,0,0-.48-.84c-.26-.16-.47,0-.47.26a1,1,0,0,0,.47.84C32.64,101.3,32.86,101.18,32.86,100.88Z"/><path class="cls-6" d="M34.57,101.41a1.05,1.05,0,0,0-.48-.83c-.27-.17-.48,0-.48.26a1.07,1.07,0,0,0,.48.84C34.35,101.84,34.57,101.72,34.57,101.41Z"/><polygon class="cls-11" points="231.32 110.04 42.22 0.8 2.58 22.34 191.98 132.3 231.32 110.04"/><polygon class="cls-12" points="148.17 98.07 152.2 97.31 177.13 83.06 124.6 52.62 120.21 52.82 100.16 69.6 148.17 98.07"/><path class="cls-13" d="M238.07,120.34a.5.5,0,0,0-.36,0,.41.41,0,0,0-.14-.12.48.48,0,0,0-.48,0l-1,.52c-.42-1.25-1.67-2.18-5.55-1.48l-.33.65c3.52-.63,4.75.11,5.18,1.21l-1.58.86a.93.93,0,0,0-.5.81v8.86a.46.46,0,0,0,.25.41.45.45,0,0,0,.36,0,.29.29,0,0,0,.14.13.53.53,0,0,0,.49,0l3.31-1.79a.81.81,0,0,0,.43-.7v-8.94A.46.46,0,0,0,238.07,120.34Z"/><polygon class="cls-14" points="230.66 111.23 189.6 133.84 188.13 180.22 189.6 191.97 230.66 168.97 230.66 111.23"/><polygon class="cls-15" points="230.66 117.1 189.6 140.81 189.6 179.65 230.66 155.95 230.66 117.1"/><polygon class="cls-5" points="232.56 164.2 190.04 188.75 190.04 192.63 232.56 168.08 232.56 164.2"/><polygon class="cls-16" points="230.64 116.71 188.87 140.42 189.59 176.33 230.64 152.62 230.64 116.71"/><polygon class="cls-17" points="229.77 119.51 191.11 141.82 191.11 173.88 229.77 151.56 229.77 119.51"/><polygon class="cls-18" points="229.77 146.62 206.61 132.81 229.77 119.51 229.77 146.62"/><polygon class="cls-17" points="218.17 126.33 217.1 126.82 217.1 145.45 218.17 145.45 218.17 126.33"/><polygon class="cls-14" points="231.03 112.75 189.84 135.92 190.5 141.11 231.12 117.67 231.03 112.75"/><polygon class="cls-16" points="231.2 109.92 191.82 132.15 190.5 140.11 231.56 116.4 231.2 109.92"/><path class="cls-19" d="M34.73,96.29c3.73,2,5.09,6,5.55,9.3l115.39,66.62c.46-2.73,2.67-4,5.43-2.45,4.76,2.63,6.28,6.18,6.74,9.44l21.76,12.59V178.23l-3-44.83L.72,31.52.8,82.79,28.34,98.62C28.8,95.89,31.12,94.33,34.73,96.29Z"/><polygon class="cls-20" points="189.59 179.64 189.59 176.35 188.18 150.15 0.62 40.67 0.62 70.44 79.96 116.28 95.39 125.2 189.59 179.64"/><polygon class="cls-6" points="189.6 139.57 8.15 34.82 8.15 63.92 84.53 108 97.92 123.4 189.6 176.33 189.6 139.57"/><polygon class="cls-15" points="232.59 164.23 230.71 163.84 189.32 187.74 190.63 188.46 232.59 164.23"/><polygon class="cls-11" points="192.13 187.65 189.55 187.61 188.44 186.99 187.6 187.48 190.04 188.84 192.13 187.65"/><polygon class="cls-21" points="190.04 188.84 187.61 187.47 187.61 191.26 190.04 192.63 190.04 188.84"/><polygon class="cls-22" points="147.17 89.09 99.82 61.76 93.82 66.79 148.18 98.17 147.17 89.09"/><polygon class="cls-2" points="187.54 140.57 173.2 132.28 173.2 165.2 187.54 173.49 187.54 140.57"/><polygon class="cls-2" points="117.11 99.79 86 81.93 86 106.43 98.2 121.08 117.06 132.59 117.11 99.79"/><polygon class="cls-2" points="84.17 80.86 62.48 68.38 62.48 93.24 84.17 105.72 84.17 80.86"/><polygon class="cls-2" points="31.46 50.43 9.22 37.95 9.22 62.8 31.46 75.28 31.46 50.43"/><polygon class="cls-23" points="2.57 22.18 192.42 131.79 190.51 141.11 0.77 31.5 2.57 22.18"/><polygon class="cls-24" points="187.61 131.62 189.96 132.97 189.96 138.24 187.62 136.89 187.61 131.62"/><polygon class="cls-6" points="135.91 112.62 117.56 102.02 117.56 150.36 135.91 160.96 135.91 112.62"/><polygon class="cls-25" points="0.71 30.52 190.51 140.1 190.51 141.11 0.71 31.53 0.71 30.52"/><path class="cls-21" d="M28.55,97.86,0,81.26v1.28L28.34,99A5.48,5.48,0,0,1,28.55,97.86Z"/><path class="cls-21" d="M167.52,178.38a8.65,8.65,0,0,1,.22,1.4L190,192.61v-1.29Z"/><polygon class="cls-26" points="197.34 130.55 196.69 134.96 225.48 118.34 225.1 114.81 197.34 130.55"/><polygon class="cls-22" points="105.43 62.33 93.27 55.31 91.72 56.6 105.69 64.66 105.43 62.33"/><polygon class="cls-27" points="110.47 59.54 98.25 52.48 93.24 55.32 105.44 62.42 110.47 59.54"/><polygon class="cls-28" points="118.83 55.54 108.35 61.6 108.89 66.29 122.79 58.24 118.83 55.54"/><polygon class="cls-29" points="166.76 78.24 119.21 50.78 99.72 61.83 147.21 89.48 166.76 78.24"/><polygon class="cls-30" points="100.79 61.94 119.83 51.13 119.21 50.78 99.72 61.83 147.21 89.48 147.66 89.22 100.79 61.94"/><polygon class="cls-2" points="154.88 77.26 147.11 81.73 147.65 82.05 155.43 77.57 154.88 77.26"/><polygon class="cls-2" points="153.12 76.38 145.35 80.85 145.9 81.17 153.67 76.7 153.12 76.38"/><polygon class="cls-2" points="150.93 75.5 143.15 79.97 143.7 80.29 151.48 75.82 150.93 75.5"/><polygon class="cls-28" points="166.64 78.17 147.1 89.47 148.1 98.22 174.01 83.21 166.64 78.17"/><polygon class="cls-31" points="190.96 157.55 229.77 151.56 191.11 173.88 190.96 157.55"/><rect class="cls-16" x="211.76" y="129.06" width="1.43" height="33.16"/><polygon class="cls-6" points="195.26 178.51 189.64 181.76 189.64 186.59 195.26 183.34 195.26 178.51"/><polygon class="cls-6" points="230.68 157.73 225.05 160.98 225.05 165.81 230.68 162.56 230.68 157.73"/><polygon class="cls-6" points="186.59 181.79 184.49 180.56 184.49 181.88 186.59 183.1 186.59 181.79"/><polygon class="cls-2" points="136.32 144.03 171.79 164.42 171.79 131.5 136.32 111.11 136.32 144.03"/><polygon class="cls-2" points="60.92 67.5 32.88 51.27 32.88 76.12 60.92 92.36 60.92 67.5"/><polygon class="cls-6" points="219.34 164.48 205.54 172.6 205.54 177.19 219.34 169.06 219.34 164.48"/><polygon class="cls-32" points="218.96 173.55 209.44 179.16 209.44 182.31 218.96 176.71 218.96 173.55"/><polygon class="cls-33" points="32.08 48.68 30.14 38 2.57 22.18 0.7 30.57 32.08 48.68"/><polygon class="cls-29" points="68.44 15.8 40.98 0 2.65 22.15 30.1 37.96 68.44 15.8"/><polygon class="cls-6" points="92.53 84.8 91.5 84.36 91.5 89.26 92.53 89.26 92.53 84.8"/><polygon class="cls-6" points="110.82 95.43 109.8 94.99 109.8 99.89 110.82 99.89 110.82 95.43"/><polygon class="cls-16" points="219.85 128.18 214.27 131.3 214.27 134.22 219.85 131.11 219.85 128.18"/><polygon class="cls-2" points="135.04 110.33 118.29 100.66 118.43 145.29 135.19 154.96 135.04 110.33"/><polygon class="cls-34" points="187.54 173.49 187.54 156.23 173.2 146.11 173.2 165.2 187.54 173.49"/><polygon class="cls-34" points="86 84.59 86 106.28 117.06 131.09 117.1 106.52 86 84.59"/><polygon class="cls-34" points="65.49 70.11 62.48 68.38 62.48 87.48 84.17 104.8 84.17 83.28 65.49 70.11"/><polygon class="cls-34" points="9.22 37.95 9.22 44.92 31.46 62.69 31.46 50.43 9.22 37.95"/><polygon class="cls-34" points="171.79 164.42 171.79 145.11 136.32 120.09 136.32 144.03 171.79 164.42"/><polygon class="cls-34" points="32.88 51.27 32.88 63.83 60.92 86.23 60.92 67.5 32.88 51.27"/><polygon class="cls-34" points="118.31 107.38 118.39 132.15 135.16 145.55 135.07 119.2 118.31 107.38"/><rect class="cls-6" x="126.02" y="105.06" width="1.04" height="46.33"/><polygon class="cls-15" points="194.82 179.29 190.13 181.98 190.13 185.81 194.84 183 194.82 179.29"/><polygon class="cls-15" points="230.23 158.43 225.54 161.13 225.54 164.96 230.25 162.15 230.23 158.43"/><polygon class="cls-35" points="230.25 158.43 228.88 159.2 228.88 162.99 230.26 162.18 230.25 158.43"/><polygon class="cls-36" points="2.97 21.98 2.51 22.17 2.48 22.72 30.39 38.83 30.39 37.82 2.97 21.98"/><polygon class="cls-37" points="192.17 131.22 30.39 37.82 30.39 38.83 192.17 132.24 192.17 131.22"/><polygon class="cls-6" points="91.5 88.28 91.5 92.83 110.82 103.99 110.82 99.44 91.5 88.28"/><polygon class="cls-2" points="41.52 8.58 46.51 5.69 51.55 8.54 46.47 11.47 41.52 8.58"/><polygon class="cls-30" points="41.52 8.29 46.51 5.4 51.46 7.32 46.38 10.24 41.52 8.29"/><polygon class="cls-4" points="95.94 136.01 107.8 142.92 107.8 135.98 95.94 129.13 95.94 136.01"/><polygon class="cls-19" points="107.4 135.99 96.32 129.59 96.32 135.97 107.4 142.37 107.4 135.99"/><polygon class="cls-6" points="135.64 148.14 117.87 137.97 118.16 137.46 135.94 147.63 135.64 148.14"/><rect class="cls-6" x="126.39" y="130" width="0.58" height="20.48" transform="translate(-57.96 180.55) rotate(-60.22)"/><polygon class="cls-6" points="135.21 142.66 117.43 132.48 117.72 131.98 135.5 142.15 135.21 142.66"/><polygon class="cls-35" points="191.95 180.94 190.13 181.98 190.13 185.81 191.95 184.72 191.95 180.94"/><polygon class="cls-38" points="219.34 164.48 205.54 172.6 205.54 177.19 219.34 169.06 219.34 164.48"/><path class="cls-20" d="M184.91,148.16a.54.54,0,0,0-.26-.46.53.53,0,0,0-.52,0l-3.47,2a1.05,1.05,0,0,0-.53.91v10a.52.52,0,0,0,.26.45.49.49,0,0,0,.52,0l3.54-2a.91.91,0,0,0,.46-.78Z"/><path class="cls-39" d="M185.44,148.35a.51.51,0,0,0-.26-.45.53.53,0,0,0-.52,0l-3.46,2a1.06,1.06,0,0,0-.53.92v10a.54.54,0,0,0,.26.46.53.53,0,0,0,.52,0l3.54-2a.91.91,0,0,0,.45-.79Z"/><path class="cls-39" d="M183,150.81h-.59v-.17c0-2.1,0-5,5.06-7.77l.28.51C183,146,183,148.58,183,150.64Z"/><polygon class="cls-6" points="65.38 69.6 47.03 59 47.03 109.25 65.38 119.84 65.38 69.6"/><polygon class="cls-2" points="64.51 69.21 47.76 59.54 47.9 104.16 64.66 113.84 64.51 69.21"/><polygon class="cls-34" points="64.51 69.21 47.76 59.54 47.81 75.7 64.58 89.02 64.51 69.21"/><rect class="cls-6" x="55.49" y="63.94" width="1.04" height="46.33"/><polygon class="cls-6" points="65.11 107.02 47.34 96.86 47.63 96.34 65.41 106.52 65.11 107.02"/><polygon class="cls-6" points="64.89 104.47 47.12 94.29 47.41 93.79 65.19 103.95 64.89 104.47"/><polygon class="cls-6" points="64.67 101.54 46.9 91.36 47.19 90.85 64.97 101.03 64.67 101.54"/><path class="cls-21" d="M155.8,171.6,40.06,104.68a12,12,0,0,1,.21,1.41l115.31,66.67A5.69,5.69,0,0,1,155.8,171.6Z"/><polygon class="cls-16" points="216.61 126.61 216.19 126.72 217.15 130.62 217.57 130.52 216.61 126.61"/><polygon class="cls-15" points="205.76 174.43 205.35 173.73 219.14 165.65 219.55 166.34 205.76 174.43"/><polygon class="cls-15" points="205.76 175.85 205.35 175.16 219.14 167.07 219.55 167.76 205.76 175.85"/><polygon class="cls-5" points="218.56 174.16 209.91 179.26 209.91 181.74 218.56 176.63 218.56 174.16"/><polygon class="cls-15" points="212.03 178.77 210.37 179.76 210.37 181 212.03 180.01 212.03 178.77"/><polygon class="cls-15" points="214.08 177.51 212.42 178.5 212.42 179.74 214.08 178.75 214.08 177.51"/><polygon class="cls-15" points="216.18 176.27 214.51 177.26 214.51 178.5 216.18 177.51 216.18 176.27"/><polygon class="cls-15" points="218.22 175.03 216.56 176.03 216.56 177.27 218.22 176.28 218.22 175.03"/></g></g></g></svg>