<svg xmlns="http://www.w3.org/2000/svg" viewBox="0 0 124.76 127.57"><defs><style>.cls-1{isolation:isolate;}.cls-2{fill:#475156;opacity:0.4;mix-blend-mode:multiply;}.cls-3{fill:#afc2df;}.cls-4{fill:#4e4043;}.cls-5{fill:#8e9598;}.cls-6{fill:#313438;}.cls-7{fill:#282b2f;}.cls-8{fill:#9a4832;}.cls-9{fill:#46494d;}.cls-10{fill:#372e2e;}.cls-11{fill:#493e3d;}.cls-12{fill:#cdc8bd;}.cls-13{fill:#ded8cd;}.cls-14{fill:#4a5873;}.cls-15{fill:#adb7b9;}.cls-16{fill:#e1e6e8;}.cls-17{fill:#bfc8ca;}.cls-18{fill:#5f6e8d;}.cls-19{fill:#cfd6d9;}.cls-20{fill:#3b2e31;}.cls-21{fill:#e9eff0;}.cls-22{fill:#7381a4;}.cls-23{fill:#8495b8;}.cls-24{fill:#90a3ca;}.cls-25{fill:#abb5b7;}.cls-26{fill:#a1aaac;}.cls-27{fill:#585e63;}.cls-28{fill:#453639;}.cls-29{fill:#767d80;}.cls-30{fill:#5b6366;}.cls-31{fill:#647592;}.cls-32{fill:#c88b3f;}.cls-33{fill:#76676a;}.cls-34{fill:#5b4c51;}.cls-35{fill:#434a4d;}</style></defs><title>Recurso46</title><g class="cls-1"><g id="Capa_2" data-name="Capa 2"><g id="ELEMENTOS_INDIVIDUALES" data-name="ELEMENTOS INDIVIDUALES"><polygon class="cls-2" points="88.88 127.57 124.76 106.42 44.24 58.27 4.77 79.05 23.11 89.64 31.79 99.87 41.1 100 66.85 114.89 75.23 124.43 84.5 125.08 88.88 127.57"/><polygon class="cls-3" points="88.96 29.35 38.08 0 2.73 20.16 53.62 49.5 88.96 29.35"/><path class="cls-4" d="M119.05,73.8a.32.32,0,0,0-.16-.27.34.34,0,0,0-.31,0l-1.57.91a1.24,1.24,0,0,0-.64,1.1v4a.38.38,0,0,0,.17.3.34.34,0,0,0,.34,0l2-1.13a.43.43,0,0,0,.21-.36Z"/><path class="cls-4" d="M119.33,73.93a.3.3,0,0,0-.16-.27.29.29,0,0,0-.31,0l-1.57.9a1.29,1.29,0,0,0-.64,1.11v4a.34.34,0,0,0,.17.29.3.3,0,0,0,.34,0l2-1.13a.41.41,0,0,0,.21-.36Z"/><path class="cls-4" d="M118.48,74.29h-.38c0-.69-.15-1.13-.46-1.32s-1.23-.1-2.36.48l-.17-.33c1.27-.66,2.16-.82,2.72-.48A1.79,1.79,0,0,1,118.48,74.29Z"/><polygon class="cls-5" points="76.11 100.82 67.68 105.86 67.68 111.65 76.11 106.61 76.11 100.82"/><polygon class="cls-6" points="15.65 74.89 13.71 73.76 13.71 79.88 14.96 80.56 22.97 76.6 15.65 74.89"/><polygon class="cls-7" points="63.37 105.58 25.11 83.48 25.11 85.15 63.37 107.24 63.37 105.58"/><polygon class="cls-7" points="85.16 97.16 46.9 75.06 30.52 81.24 68.79 103.33 85.16 97.16"/><polygon class="cls-6" points="38.89 89.6 23.33 80.61 23.33 86.5 38.89 95.49 38.89 89.6"/><polygon class="cls-7" points="47.09 91.14 20.29 75.67 19.92 81.34 46.71 96.81 47.09 91.14"/><polygon class="cls-8" points="14.28 77.23 13.31 76.68 13.31 79.68 14.28 80.24 14.28 77.23"/><polygon class="cls-7" points="28.1 79.33 22.76 79.25 23.24 88.84 28.04 85.99 28.1 79.33"/><polygon class="cls-9" points="23.36 81.19 20.91 79.77 20.91 87.45 23.36 88.87 23.36 81.19"/><polygon class="cls-7" points="44.06 88.82 38.73 88.75 39.2 98.34 44.01 95.49 44.06 88.82"/><path class="cls-10" d="M37.36,94.94a11.3,11.3,0,0,0-5.13-8.86c-1.61-.92-3-.92-4-.14a2.56,2.56,0,0,0-.95.6c-1.21.38-2,1.62-2,3.51a11.33,11.33,0,0,0,5.14,8.86c1.71,1,3.23.9,4.16,0a2.39,2.39,0,0,0,.83-.45C36.62,98,37.36,96.8,37.36,94.94Z"/><path class="cls-11" d="M34.65,96.54a11.34,11.34,0,0,0-5.14-8.86c-2.84-1.64-5.14-.32-5.14,2.93a11.31,11.31,0,0,0,5.14,8.86C32.34,101.11,34.65,99.79,34.65,96.54Z"/><path class="cls-12" d="M33,95.55a7.53,7.53,0,0,0-3.42-5.9c-1.89-1.09-3.42-.21-3.42,1.95a7.53,7.53,0,0,0,3.42,5.9C31.44,98.58,33,97.71,33,95.55Z"/><path class="cls-10" d="M30.2,90.76a1.25,1.25,0,0,0-.46-1c-.24-.15-.44.08-.44.5a1.27,1.27,0,0,0,.44,1C30,91.4,30.2,91.18,30.2,90.76Z"/><path class="cls-10" d="M30.2,96.61a1.25,1.25,0,0,0-.46-1c-.24-.15-.44.07-.44.49a1.28,1.28,0,0,0,.44,1C30,97.26,30.2,97,30.2,96.61Z"/><path class="cls-10" d="M32.3,95.42c.36.21.66.15.66-.14a1.32,1.32,0,0,0-.66-.9c-.36-.21-.66-.15-.66.14A1.32,1.32,0,0,0,32.3,95.42Z"/><path class="cls-10" d="M27.2,92.47c.36.21.66.15.66-.13a1.3,1.3,0,0,0-.66-.91c-.37-.2-.67-.14-.67.14A1.27,1.27,0,0,0,27.2,92.47Z"/><path class="cls-10" d="M31.23,96.72c.26.45.61.73.79.63s.11-.54-.15-1-.61-.73-.79-.63S31,96.27,31.23,96.72Z"/><path class="cls-10" d="M27.63,90.49c.25.45.6.73.78.64s.11-.55-.15-1-.61-.73-.79-.63S27.36,90.05,27.63,90.49Z"/><path class="cls-10" d="M27.63,93.91a.58.58,0,0,0-.16.81.6.6,0,0,0,.79.28.64.64,0,0,0-.63-1.09Z"/><path class="cls-10" d="M31.23,91.85a.6.6,0,0,0-.15.82.59.59,0,0,0,.79.27.58.58,0,0,0,.15-.81A.59.59,0,0,0,31.23,91.85Z"/><path class="cls-11" d="M31.21,94.29a3.26,3.26,0,0,0-1.47-2.55c-.82-.47-1.48-.09-1.48.84a3.24,3.24,0,0,0,1.48,2.55C30.55,95.6,31.21,95.23,31.21,94.29Z"/><path class="cls-13" d="M30.75,94.4a2.93,2.93,0,0,0-1.33-2.29c-.72-.42-1.32-.08-1.32.76a3,3,0,0,0,1.32,2.28C30.15,95.57,30.75,95.23,30.75,94.4Z"/><polygon class="cls-9" points="39.23 90.94 36.78 89.52 36.78 96.92 39.23 98.33 39.23 90.94"/><polygon class="cls-9" points="63.9 103.65 15.74 75.84 15.92 77.61 64.09 105.42 63.9 103.65"/><polygon class="cls-6" points="63.75 103.02 15.9 75.39 15.87 76.71 63.73 104.34 63.75 103.02"/><polygon class="cls-14" points="90.39 32.73 54.03 53.75 53.09 76.21 54.33 99.1 90.39 78.2 90.39 32.73"/><polygon class="cls-15" points="121.08 94.83 91.04 112.26 88.27 123.12 118.31 105.68 121.08 94.83"/><polygon class="cls-16" points="112.99 101.18 99.53 108.99 97.8 116.37 111.25 108.55 112.99 101.18"/><polygon class="cls-17" points="121.02 92.39 90.98 109.82 90.97 112.54 121.02 95.1 121.02 92.39"/><polygon class="cls-18" points="121.02 93.99 90.98 111.43 90.97 112.58 121.02 95.15 121.02 93.99"/><polygon class="cls-19" points="113.02 66.06 82.97 83.49 90.97 109.83 121.02 92.4 113.02 66.06"/><polygon class="cls-20" points="113.02 71.25 85.34 86.98 91.54 106.42 119.22 90.7 113.02 71.25"/><polygon class="cls-21" points="92.5 54.17 62.45 71.6 83.04 83.63 113.08 66.2 92.5 54.17"/><polygon class="cls-17" points="92.5 54.17 62.45 71.6 80.08 75.69 104.9 61.33 92.5 54.17"/><polygon class="cls-22" points="54.25 52.81 8.77 26.07 0.04 22.25 0.04 67.79 54.33 99.12 54.33 53.65 54.25 52.81"/><polygon class="cls-23" points="0.04 47.12 0.04 51.82 54.33 83.74 54.33 79.03 0.04 47.12"/><polygon class="cls-23" points="0.04 43.03 0.04 44.92 54.33 76.84 54.33 74.94 0.04 43.03"/><polygon class="cls-24" points="53.7 49.41 2.87 20.11 0 22.25 54.44 53.64 53.7 49.41"/><polygon class="cls-25" points="96.21 61.57 86.7 52.95 68.39 63.6 78.4 73.9 96.72 63.37 96.21 61.57"/><polygon class="cls-26" points="96.21 61.57 86.7 52.95 68.39 63.6 96.72 63.37 96.21 61.57"/><polygon class="cls-7" points="66.03 90.23 59.06 86.2 59.06 100.73 66.03 104.75 66.03 90.23"/><polygon class="cls-27" points="66.31 91.1 59.91 87.4 59.91 100.74 66.31 104.44 66.31 91.1"/><polygon class="cls-7" points="76.01 84.9 69.04 80.88 59.03 86.25 66 90.28 76.01 84.9"/><path class="cls-10" d="M81.4,119A11.93,11.93,0,0,0,76,109.68c-1.69-1-3.19-1-4.19-.14a2.61,2.61,0,0,0-1,.63c-1.27.4-2.09,1.7-2.09,3.71a11.94,11.94,0,0,0,5.42,9.35c1.81,1,3.41,1,4.39,0a2.35,2.35,0,0,0,.87-.46C80.61,122.29,81.4,121,81.4,119Z"/><path class="cls-11" d="M78.53,120.73a12,12,0,0,0-5.42-9.36c-3-1.73-5.43-.34-5.43,3.09a11.94,11.94,0,0,0,5.43,9.36C76.1,125.55,78.53,124.16,78.53,120.73Z"/><path class="cls-12" d="M76.76,119.68a8,8,0,0,0-3.62-6.23c-2-1.15-3.6-.23-3.6,2.06a8,8,0,0,0,3.6,6.22C75.14,122.89,76.76,122,76.76,119.68Z"/><path class="cls-10" d="M73.83,114.62a1.34,1.34,0,0,0-.47-1.07c-.27-.16-.47.08-.47.52a1.33,1.33,0,0,0,.47,1.08C73.62,115.31,73.83,115.06,73.83,114.62Z"/><path class="cls-10" d="M73.83,120.8a1.39,1.39,0,0,0-.47-1.08c-.27-.14-.47.09-.47.54a1.32,1.32,0,0,0,.47,1.07C73.62,121.48,73.83,121.25,73.83,120.8Z"/><path class="cls-10" d="M76.06,119.54c.38.22.69.16.69-.14a1.35,1.35,0,0,0-.69-1c-.39-.23-.71-.16-.71.14A1.36,1.36,0,0,0,76.06,119.54Z"/><path class="cls-10" d="M70.67,116.43c.38.23.69.16.69-.14a1.35,1.35,0,0,0-.69-1c-.39-.22-.71-.16-.71.14A1.34,1.34,0,0,0,70.67,116.43Z"/><path class="cls-10" d="M74.93,120.92c.27.47.64.76.82.66s.12-.57-.16-1-.63-.77-.82-.66S74.65,120.44,74.93,120.92Z"/><path class="cls-10" d="M71.12,114.34c.26.47.64.77.83.66s.11-.56-.16-1-.65-.76-.84-.66S70.84,113.88,71.12,114.34Z"/><path class="cls-10" d="M71.11,118a.63.63,0,0,0-.16.86.63.63,0,0,0,.84.29.62.62,0,0,0,.16-.85A.63.63,0,0,0,71.11,118Z"/><path class="cls-10" d="M74.92,115.77a.63.63,0,0,0-.15.87.62.62,0,0,0,.82.29.61.61,0,0,0,.16-.86A.63.63,0,0,0,74.92,115.77Z"/><path class="cls-11" d="M74.9,118.34a3.44,3.44,0,0,0-1.56-2.68c-.86-.49-1.55-.1-1.55.89a3.43,3.43,0,0,0,1.55,2.69C74.2,119.73,74.9,119.33,74.9,118.34Z"/><path class="cls-13" d="M74.41,118.46a3.06,3.06,0,0,0-1.39-2.4c-.77-.45-1.4-.09-1.4.79a3.07,3.07,0,0,0,1.4,2.4C73.79,119.7,74.41,119.35,74.41,118.46Z"/><path class="cls-19" d="M83,83.45,62.47,71.59V108.5l5.41,3.12c.45-3,3-4,6.12-2.19a13.64,13.64,0,0,1,6.13,9.26l8.22,4.75,2.8-11.1v-2.52Z"/><polygon class="cls-16" points="83.01 83.44 62.47 71.59 62.47 93.26 91.15 109.82 83.01 83.44"/><path class="cls-28" d="M83.13,87.24a3.1,3.1,0,0,0-1.29-1.69L74,81c-.79-.44-1.43-.11-1.43.75V96.05A3.09,3.09,0,0,0,74,98.45l13.93,8a.64.64,0,0,0,.79,0,1,1,0,0,0,.08-.92Z"/><polygon class="cls-29" points="122.03 103.41 89.35 122.31 88.54 124.81 121.21 105.92 122.03 103.41"/><polygon class="cls-5" points="89.4 122.35 85.97 120.41 85.97 123.31 88.56 124.8 89.4 122.35"/><path class="cls-5" d="M68,111.64c.46-2.87,2.94-3.84,5.92-2.11s6.83,6.86,7.3,10.27l.53-.22a17.38,17.38,0,0,0-7.83-12.13c-4-2.33-7.34-.92-7.82,3.1l1.43,1.39Z"/><path class="cls-16" d="M67.48,111.89c.47-2.87,2.94-3.84,5.93-2.11a13.23,13.23,0,0,1,5.91,9l1.91,1.1a17.34,17.34,0,0,0-7.82-12.13c-4-2.33-7.35-.91-7.83,3.1Z"/><polygon class="cls-30" points="70.54 79.03 64.09 75.3 64.09 92.49 70.54 96.22 70.54 79.03"/><polygon class="cls-19" points="69.8 80.34 64 76.99 64 92.43 69.8 95.78 69.8 80.34"/><polygon class="cls-21" points="69.55 80.6 63.98 77.39 63.98 92.25 69.55 95.48 69.55 80.6"/><polygon class="cls-31" points="88.84 29.25 53.72 49.4 54.44 53.61 90.39 32.73 88.84 29.25"/><polygon class="cls-19" points="77.93 72.15 68.43 63.53 68.43 68.14 78.45 73.94 77.93 72.15"/><polygon class="cls-25" points="96.25 61.57 77.98 72.1 78.42 73.94 96.7 63.4 96.25 61.57"/><polygon class="cls-32" points="86.29 112.25 84.54 111.3 84.54 112.29 86.29 113.24 86.29 112.25"/><path class="cls-33" d="M83,87.62a2.87,2.87,0,0,0-1.19-1.56L74.6,81.89c-.73-.41-1.32-.11-1.32.69V95.74a2.82,2.82,0,0,0,1.32,2.2l12.84,7.42c.3.17.57.17.73,0a.9.9,0,0,0,.08-.85Z"/><polygon class="cls-4" points="112.55 71.89 85.59 87.22 91.63 106.16 118.59 90.83 112.55 71.89"/><path class="cls-34" d="M104,81.6,116.82,89c.29.16.57.16.72,0a.86.86,0,0,0,.08-.85l-3.94-12.71-1.13-3.56-9.88,5.63V79.4A2.81,2.81,0,0,0,104,81.6Z"/><polygon class="cls-22" points="91.21 111.36 62.48 95.72 62.64 96.82 91.21 112.5 91.21 111.36"/><path class="cls-30" d="M94.93,114.84c0-1.17-.83-1.64-1.84-1A4,4,0,0,0,91.25,117c0,1.16.82,1.63,1.84,1.05A4.08,4.08,0,0,0,94.93,114.84Z"/><path class="cls-30" d="M97.79,113.18c0-.71-.5-1-1.11-.64a2.49,2.49,0,0,0-1.12,1.92c0,.71.51,1,1.12.64A2.46,2.46,0,0,0,97.79,113.18Z"/><path class="cls-16" d="M94.68,115.24c0-.85-.6-1.19-1.34-.76a2.92,2.92,0,0,0-1.34,2.3c0,.85.61,1.19,1.35.76A3,3,0,0,0,94.68,115.24Z"/><path class="cls-5" d="M93.58,115.53c0-.43-.29-.59-.66-.38a1.45,1.45,0,0,0-.67,1.15c0,.42.3.59.67.38A1.46,1.46,0,0,0,93.58,115.53Z"/><path class="cls-30" d="M119.2,100.71c0-1.16-.82-1.63-1.83-1a4,4,0,0,0-1.85,3.17c0,1.16.83,1.63,1.85,1A4,4,0,0,0,119.2,100.71Z"/><path class="cls-16" d="M119,101.12c0-.85-.6-1.19-1.34-.76a2.94,2.94,0,0,0-1.34,2.3c0,.84.6,1.18,1.34.76A3,3,0,0,0,119,101.12Z"/><path class="cls-5" d="M117.87,101.41a.41.41,0,0,0-.67-.39,1.47,1.47,0,0,0-.68,1.15c0,.43.3.61.68.39A1.51,1.51,0,0,0,117.87,101.41Z"/><path class="cls-16" d="M97.63,113.41c0-.51-.35-.72-.8-.46a1.77,1.77,0,0,0-.8,1.39c0,.5.36.71.8.46A1.8,1.8,0,0,0,97.63,113.41Z"/><path class="cls-5" d="M97,113.58c0-.25-.18-.36-.41-.22a.89.89,0,0,0-.4.69c0,.25.18.35.4.23A.88.88,0,0,0,97,113.58Z"/><path class="cls-30" d="M115.08,103.12c0-.7-.5-1-1.11-.63a2.43,2.43,0,0,0-1.12,1.91c0,.71.5,1,1.12.63A2.44,2.44,0,0,0,115.08,103.12Z"/><path class="cls-16" d="M114.92,103.34c0-.5-.36-.71-.8-.45a1.8,1.8,0,0,0-.81,1.39c0,.51.37.71.81.46A1.79,1.79,0,0,0,114.92,103.34Z"/><path class="cls-5" d="M114.26,103.52c0-.25-.18-.36-.4-.23a.9.9,0,0,0-.4.7c0,.26.18.36.4.23A.9.9,0,0,0,114.26,103.52Z"/><path class="cls-16" d="M83.05,94.94a.28.28,0,0,0-.15-.27.31.31,0,0,0-.32,0l-1.56.9a1.29,1.29,0,0,0-.64,1.1v4a.35.35,0,0,0,.17.3.34.34,0,0,0,.34,0l2-1.13a.41.41,0,0,0,.21-.36Z"/><path class="cls-10" d="M83.34,95.05a.3.3,0,0,0-.16-.27.29.29,0,0,0-.31,0l-1.57.9a1.29,1.29,0,0,0-.64,1.1v4.07a.34.34,0,0,0,.51.29l2-1.13a.41.41,0,0,0,.21-.36Z"/><path class="cls-10" d="M82.49,95.42h-.38c0-2,.3-2.7,2.31-3.7l.17.34C82.74,93,82.49,93.57,82.49,95.42Z"/><polygon class="cls-20" points="103.61 79.86 98.91 82.39 99.1 84.79 103.81 82.27 103.61 79.86"/><polygon class="cls-20" points="101.09 77.97 100.8 78.26 100.8 81.61 101.09 81.32 101.09 77.97"/><polygon class="cls-20" points="100.56 92.73 100.23 92.68 99.57 102.59 100.05 102.47 100.56 92.73"/><polygon class="cls-20" points="99.89 90.65 99.51 90.81 101.97 97.62 102.35 97.46 99.89 90.65"/><polygon class="cls-20" points="105.42 89.6 105.67 89.42 111.21 96.84 110.74 96.96 105.42 89.6"/><polygon class="cls-20" points="104.93 87.67 105.34 87.62 106.69 94.07 106.29 94.11 104.93 87.67"/><polygon class="cls-35" points="111.86 102.61 100.18 109.38 98.96 115.01 110.64 108.23 111.86 102.61"/><polygon class="cls-16" points="106.24 105.67 105.77 105.58 104.7 111.96 105.17 112.04 106.24 105.67"/><polygon class="cls-16" points="107.1 104.75 105.23 105.79 104.8 108.43 106.68 107.39 107.1 104.75"/><polygon class="cls-35" points="106.67 105.44 105.49 106.09 105.23 107.74 106.4 107.1 106.67 105.44"/></g></g></g></svg>