<svg xmlns="http://www.w3.org/2000/svg" viewBox="0 0 156.08 150.42"><defs><style>.cls-1{isolation:isolate;}.cls-2{fill:#301404;opacity:0.4;mix-blend-mode:multiply;}.cls-3{fill:#faf1d6;}.cls-4{fill:#fcf7ea;}.cls-5{fill:#c8b68b;}.cls-6{fill:#ddcda1;}.cls-7{fill:#f1e4be;}.cls-8{fill:#766642;}.cls-9{fill:#b9aa87;}.cls-10{fill:#b99238;}.cls-11{fill:#3b2e31;}.cls-12{fill:#4e4043;}.cls-13{fill:#5b4c51;}.cls-14{fill:#8c6c23;}.cls-15{fill:#332825;}.cls-16{fill:#423633;}.cls-17{fill:#302623;}.cls-18{fill:#615451;}.cls-19{fill:#796b67;}.cls-20{fill:#9d908c;}.cls-21{fill:#b18835;}.cls-22{fill:#c8a644;}.cls-23{fill:#ba9536;}.cls-24{fill:#e2c26b;}.cls-25{fill:#76676a;}.cls-26{fill:#8f8185;}.cls-27{fill:#8e4c37;}.cls-28{fill:#cbbc94;}.cls-29{fill:#fbf2db;}.cls-30{fill:#c39941;}.cls-31{fill:#e7d7b0;}.cls-32{fill:#b8a47f;}.cls-33{fill:#85672d;}.cls-34{fill:#674d23;}.cls-35{fill:#ca6f4c;}</style></defs><title>Recurso43</title><g class="cls-1"><g id="Capa_2" data-name="Capa 2"><g id="ELEMENTOS_INDIVIDUALES" data-name="ELEMENTOS INDIVIDUALES"><polygon class="cls-2" points="105.75 150.42 156.08 120.43 54.8 56.31 4.46 90.16 21.33 100.15 24.77 105.17 34.95 108.29 84.59 137.71 87.08 142.89 96.1 144.69 105.75 150.42"/><polygon class="cls-3" points="90.67 71.83 130.77 49.73 47.78 0 7.68 22.12 90.67 71.83"/><polygon class="cls-4" points="104.12 33.76 103.62 64.7 130.77 49.73 104.12 33.76"/><polygon class="cls-4" points="77.38 17.74 47.78 0 46.34 0.8 45.63 44.85 76.64 63.43 77.38 17.74"/><polygon class="cls-5" points="78.57 48.49 81.91 48.43 98.36 39.49 74.83 25.78 78.57 48.49"/><polygon class="cls-6" points="78.57 48.43 95.71 38.98 94.08 36.51 54.39 34.23 78.57 48.43"/><polygon class="cls-7" points="78.57 48.43 76.86 42.59 55.99 31.97 54.39 34.23 78.57 48.43"/><polygon class="cls-8" points="78.84 47.08 93.87 38.8 93.13 36.22 78.12 44.51 78.84 47.08"/><polygon class="cls-7" points="78.27 45.16 94.1 36.43 71.77 23.31 55.95 32.04 78.27 45.16"/><polygon class="cls-3" points="77.5 44.61 93.33 35.87 71.89 23.97 55.95 32.04 77.5 44.61"/><polygon class="cls-9" points="137.73 70.05 134.97 71.78 134.95 72.95 137.71 71.22 137.73 70.05"/><polygon class="cls-9" points="137.85 75.02 135.09 76.75 135.07 77.92 137.84 76.19 137.85 75.02"/><polygon class="cls-9" points="137.83 70.61 135.06 72.34 135.03 72.95 137.79 71.22 137.83 70.61"/><polygon class="cls-9" points="137.95 75.53 135.18 77.27 135.15 77.87 137.92 76.14 137.95 75.53"/><polygon class="cls-9" points="141.33 66.36 136.48 68.95 136.74 77.24 137.66 77.86 142.27 66.85 141.33 66.36"/><polygon class="cls-9" points="142.31 66.75 137.46 69.34 137.63 77.89 142.47 75.3 142.31 66.75"/><polygon class="cls-10" points="121.62 105.33 136.83 96.07 143.67 101.69 127.52 110.66 121.62 105.33"/><polygon class="cls-10" points="134.29 56.31 94.21 78.62 97.42 118.96 137.49 96.65 134.29 56.31"/><polygon class="cls-11" points="134.15 61.3 95.73 83.15 97.88 115.69 136.34 94.22 134.15 61.3"/><polygon class="cls-12" points="132.95 63.5 96.92 83.79 98.97 114.15 135.37 93.71 132.95 63.5"/><polygon class="cls-13" points="135.35 93.7 135.4 93.67 132.98 63.46 131.02 64.56 130.6 90.87 135.35 93.7"/><polygon class="cls-13" points="127.28 88.79 127.64 66.47 112.74 74.86 112.66 80.13 127.28 88.79"/><path class="cls-14" d="M78.3,129.38l9-5.41s-2.85-5-6.66-2.34C79.19,122.62,77.4,124.87,78.3,129.38Z"/><path class="cls-15" d="M95.61,136.45a14,14,0,0,0-6.18-11c-2-1.22-3.42-1.52-7.88,1.41a4.57,4.57,0,0,0-1.71,3.92A14,14,0,0,0,86,141.79c1.7,1,3.26,1.15,4.41.57C93.07,141,95.56,139.44,95.61,136.45Z"/><path class="cls-16" d="M79,131.12a14,14,0,0,0,6.17,11c3.48,2.09,6.35.52,6.41-3.51a14,14,0,0,0-6.17-11.06C82,125.52,79.09,127.1,79,131.12Z"/><path class="cls-17" d="M80.82,132.65a8.83,8.83,0,0,0,3.89,7c2.19,1.32,4,.32,4-2.21a8.85,8.85,0,0,0-3.89-7C82.67,129.12,80.86,130.11,80.82,132.65Z"/><path class="cls-18" d="M82.73,133.45a4.81,4.81,0,0,0,2.13,3.81c1.2.73,2.19.18,2.22-1.22a4.82,4.82,0,0,0-2.14-3.81C83.74,131.5,82.75,132.05,82.73,133.45Z"/><path class="cls-19" d="M87.24,134.36a.74.74,0,0,0,.33.59c.18.11.34,0,.34-.18a.75.75,0,0,0-.33-.6A.21.21,0,0,0,87.24,134.36Z"/><path class="cls-19" d="M87.58,136a.76.76,0,0,0,.33.58c.19.12.34,0,.34-.18a.76.76,0,0,0-.32-.6C87.74,135.66,87.58,135.75,87.58,136Z"/><path class="cls-19" d="M87.43,137.42a.75.75,0,0,0,.33.6c.19.11.34,0,.34-.19a.74.74,0,0,0-.33-.59C87.59,137.13,87.44,137.21,87.43,137.42Z"/><path class="cls-19" d="M86.75,138.3a.74.74,0,0,0,.33.59c.19.11.34,0,.35-.19a.78.78,0,0,0-.34-.6C86.91,138,86.75,138.08,86.75,138.3Z"/><path class="cls-19" d="M85.48,138.39a.69.69,0,0,0,.33.58c.18.11.34,0,.34-.18a.76.76,0,0,0-.33-.59C85.63,138.09,85.48,138.17,85.48,138.39Z"/><path class="cls-19" d="M84,137.55a.75.75,0,0,0,.33.59c.18.11.34,0,.34-.18a.75.75,0,0,0-.33-.6C84.18,137.25,84,137.33,84,137.55Z"/><path class="cls-19" d="M82.81,136a.72.72,0,0,0,.33.59c.18.11.33,0,.34-.18a.78.78,0,0,0-.33-.6C83,135.71,82.81,135.79,82.81,136Z"/><path class="cls-19" d="M81.9,134a.71.71,0,0,0,.33.58c.19.12.34,0,.34-.18a.74.74,0,0,0-.33-.59C82.06,133.69,81.9,133.78,81.9,134Z"/><path class="cls-19" d="M81.83,132.17a.75.75,0,0,0,.33.59c.18.11.34,0,.34-.19a.74.74,0,0,0-.33-.59C82,131.87,81.83,132,81.83,132.17Z"/><path class="cls-19" d="M82.55,130.93a.74.74,0,0,0,.33.59c.18.12.34,0,.34-.18a.71.71,0,0,0-.33-.59C82.71,130.64,82.56,130.72,82.55,130.93Z"/><path class="cls-19" d="M83.86,130.75a.71.71,0,0,0,.33.59c.18.11.34,0,.34-.19a.69.69,0,0,0-.33-.58C84,130.45,83.86,130.54,83.86,130.75Z"/><path class="cls-19" d="M85.29,131.42a.73.73,0,0,0,.33.58.21.21,0,0,0,.34-.19.75.75,0,0,0-.33-.59C85.45,131.11,85.29,131.19,85.29,131.42Z"/><path class="cls-19" d="M86.47,132.82a.75.75,0,0,0,.33.59c.19.11.34,0,.34-.19a.72.72,0,0,0-.33-.59C86.63,132.52,86.48,132.6,86.47,132.82Z"/><path class="cls-19" d="M82.24,133.79a4.84,4.84,0,0,0,2.13,3.82c1.2.72,2.2.18,2.22-1.22a4.83,4.83,0,0,0-2.14-3.82C83.25,131.85,82.26,132.4,82.24,133.79Z"/><path class="cls-20" d="M84.56,134a4.14,4.14,0,0,1,1.68,2.32.77.77,0,0,0,0-.15A4.08,4.08,0,0,0,84.44,133c-1-.61-1.85-.15-1.87,1a3,3,0,0,0,.13.92C82.79,133.85,83.59,133.45,84.56,134Z"/><path class="cls-14" d="M17.44,92.3l9-5.41s-2.83-5-6.65-2.34C18.33,85.54,16.54,87.8,17.44,92.3Z"/><path class="cls-15" d="M34.74,99.37a14,14,0,0,0-6.17-11.05c-2-1.22-3.42-1.52-7.88,1.41A4.6,4.6,0,0,0,19,93.65a14,14,0,0,0,6.18,11.06c1.7,1,3.26,1.16,4.41.57C32.21,103.91,34.7,102.36,34.74,99.37Z"/><path class="cls-16" d="M18.16,94a14,14,0,0,0,6.18,11.06c3.47,2.08,6.35.51,6.41-3.52a14,14,0,0,0-6.18-11.06C21.1,88.45,18.23,90,18.16,94Z"/><path class="cls-17" d="M20,95.57a8.79,8.79,0,0,0,3.89,7c2.19,1.32,4,.32,4-2.22a8.8,8.8,0,0,0-3.89-7C21.81,92,20,93,20,95.57Z"/><path class="cls-18" d="M21.86,96.36A4.86,4.86,0,0,0,24,100.19c1.2.72,2.19.17,2.22-1.22a4.89,4.89,0,0,0-2.14-3.83C22.88,94.42,21.89,95,21.86,96.36Z"/><path class="cls-19" d="M26.37,97.28a.73.73,0,0,0,.34.59c.18.12.33,0,.34-.18a.74.74,0,0,0-.33-.59C26.53,97,26.38,97.07,26.37,97.28Z"/><path class="cls-19" d="M26.72,98.89a.72.72,0,0,0,.33.58c.18.12.34,0,.34-.18a.74.74,0,0,0-.33-.6C26.87,98.59,26.72,98.67,26.72,98.89Z"/><path class="cls-19" d="M26.57,100.35a.75.75,0,0,0,.33.59c.19.11.34,0,.35-.19a.76.76,0,0,0-.33-.59C26.73,100.05,26.57,100.14,26.57,100.35Z"/><path class="cls-19" d="M25.89,101.22a.72.72,0,0,0,.33.59c.18.11.34,0,.34-.19a.76.76,0,0,0-.33-.59C26.05,100.92,25.89,101,25.89,101.22Z"/><path class="cls-19" d="M24.62,101.31a.72.72,0,0,0,.33.59c.18.11.33,0,.34-.19a.78.78,0,0,0-.33-.59C24.77,101,24.62,101.09,24.62,101.31Z"/><path class="cls-19" d="M23.16,100.47a.73.73,0,0,0,.33.6c.18.1.33,0,.34-.2a.76.76,0,0,0-.33-.58C23.31,100.17,23.16,100.26,23.16,100.47Z"/><path class="cls-19" d="M21.94,98.93a.74.74,0,0,0,.33.59c.19.12.34,0,.34-.18a.71.71,0,0,0-.33-.59C22.1,98.63,22,98.72,21.94,98.93Z"/><path class="cls-19" d="M21,96.92a.75.75,0,0,0,.33.59c.18.11.34,0,.34-.19a.77.77,0,0,0-.33-.6C21.2,96.62,21,96.7,21,96.92Z"/><path class="cls-19" d="M21,95.09a.72.72,0,0,0,.33.59c.18.11.34,0,.34-.19a.78.78,0,0,0-.33-.59C21.12,94.79,21,94.87,21,95.09Z"/><path class="cls-19" d="M21.69,93.86a.75.75,0,0,0,.33.59.21.21,0,0,0,.34-.19.71.71,0,0,0-.33-.59C21.85,93.56,21.69,93.64,21.69,93.86Z"/><path class="cls-19" d="M23,93.67a.71.71,0,0,0,.33.59c.18.11.34,0,.34-.19a.78.78,0,0,0-.33-.59A.21.21,0,0,0,23,93.67Z"/><path class="cls-19" d="M24.43,94.34a.71.71,0,0,0,.33.58c.18.11.34,0,.34-.18a.76.76,0,0,0-.33-.59C24.58,94,24.43,94.12,24.43,94.34Z"/><path class="cls-19" d="M25.61,95.74a.72.72,0,0,0,.33.59c.18.11.34,0,.34-.19a.74.74,0,0,0-.33-.59C25.77,95.44,25.61,95.52,25.61,95.74Z"/><path class="cls-19" d="M21.38,96.7a4.82,4.82,0,0,0,2.13,3.83c1.2.72,2.2.18,2.22-1.22a4.88,4.88,0,0,0-2.13-3.82C22.39,94.77,21.4,95.31,21.38,96.7Z"/><path class="cls-20" d="M23.71,97a4.18,4.18,0,0,1,1.67,2.32s0-.1,0-.15a4.09,4.09,0,0,0-1.81-3.24c-1-.61-1.86-.15-1.88,1a3.37,3.37,0,0,0,.13.93C21.93,96.77,22.73,96.37,23.71,97Z"/><polygon class="cls-21" points="112.99 118.98 104.21 112.83 104.1 116.36 111.95 121.13 112.99 118.98"/><path class="cls-22" d="M97.13,118.36,94.27,78.64l-3.64-5.56L7.32,23.17l-4,1-1,59.13,15.26,9.14c.48-4.36,3.9-5.93,8-3.49s7.38,8,7.72,12.89l45.07,27c.48-4.36,3.89-5.94,8-3.5s7.38,8,7.71,12.9l7.71,4.61,1.65-19Z"/><polygon class="cls-23" points="18.3 90.02 3.52 81.17 3.5 83.1 17.6 91.55 18.3 90.02"/><polygon class="cls-23" points="32.76 98.68 79.03 126.4 78.43 127.99 33.32 100.96 32.76 98.68"/><polygon class="cls-23" points="93.51 135.08 102.05 140.19 101.45 141.78 94.08 137.36 93.51 135.08"/><polygon class="cls-24" points="103.23 125.96 2.65 65.7 2.51 74.45 102.48 134.34 103.23 125.96"/><polygon class="cls-7" points="0.13 76.5 6 80.06 5.9 86.07 0.03 82.51 0.13 76.5"/><path class="cls-7" d="M16.86,92,0,81.83l0,2.06,16.55,10A7.61,7.61,0,0,1,16.86,92Z"/><path class="cls-7" d="M32,101a13.36,13.36,0,0,1,.25,2.24l45,27a8.29,8.29,0,0,1,.31-1.9Z"/><polygon class="cls-16" points="94.17 83.55 8.21 32.05 7.67 65.07 96.79 118.46 94.17 83.55"/><polygon class="cls-25" points="93.22 84.37 9.18 34.02 8.69 64.5 95.81 116.7 93.22 84.37"/><polygon class="cls-26" points="72.56 71.99 18.72 39.73 36.88 81.38 77.1 105.48 72.56 71.99"/><polygon class="cls-16" points="73.88 72.26 71.21 70.66 70.69 102.66 73.36 104.26 73.88 72.26"/><polygon class="cls-16" points="50.26 58.11 47.59 56.51 47.07 88.51 49.73 90.1 50.26 58.11"/><polygon class="cls-16" points="91.57 82.86 88.61 81.09 88.1 113.08 91.06 114.85 91.57 82.86"/><polygon class="cls-16" points="71.59 70.03 49.82 56.99 48.97 109.65 70.75 122.69 71.59 70.03"/><polygon class="cls-16" points="49.66 94.68 47.59 93.44 47.55 96.02 49.62 97.27 49.66 94.68"/><polygon class="cls-16" points="49.56 101.3 47.48 100.06 47.44 102.66 49.51 103.89 49.56 101.3"/><polygon class="cls-22" points="72.81 68.89 71.59 68.16 71 104.7 72.22 105.43 72.81 68.89"/><polygon class="cls-22" points="90.8 79.67 89.58 78.94 88.99 115.48 90.21 116.21 90.8 79.67"/><polygon class="cls-22" points="49.84 55.1 48.62 54.37 48.03 90.91 49.26 91.64 49.84 55.1"/><polygon class="cls-22" points="94.58 82.19 93.36 81.46 96.32 119.74 97.55 120.47 94.58 82.19"/><polygon class="cls-22" points="70.61 70.39 50.24 58.2 49.42 109.41 69.78 121.6 70.61 70.39"/><polygon class="cls-16" points="69.69 71.54 51.11 60.41 50.61 91.02 69.19 102.16 69.69 71.54"/><polygon class="cls-26" points="68.96 72.28 51.8 62 51.34 90.28 68.5 100.56 68.96 72.28"/><polygon class="cls-16" points="61.89 67.33 59.03 65.61 58.55 95.49 61.41 97.21 61.89 67.33"/><polygon class="cls-22" points="61.04 65.66 59.78 64.91 59.24 97.94 60.51 98.69 61.04 65.66"/><polygon class="cls-16" points="29.6 45.47 28.27 44.67 27.75 76.58 29.08 77.38 29.6 45.47"/><polygon class="cls-24" points="69.4 105.92 50.29 94.47 50.15 103.22 69.26 114.66 69.4 105.92"/><polygon class="cls-7" points="90.82 71.85 7.51 21.93 3.44 24.09 94.17 78.44 90.82 71.85"/><polygon class="cls-16" points="46.85 58.92 31.84 49.93 31.76 54.85 46.77 63.84 46.85 58.92"/><polygon class="cls-16" points="32.56 47.36 31.88 46.94 31.8 52.05 32.48 52.46 32.56 47.36"/><polygon class="cls-16" points="46.9 55.94 46.11 55.47 46.03 60.58 46.81 61.04 46.9 55.94"/><polygon class="cls-27" points="98.59 125 94.97 122.83 94.94 124.54 98.57 126.72 98.59 125"/><polygon class="cls-16" points="88.8 87.7 73.25 78.39 73.23 79.67 88.78 88.98 88.8 87.7"/><polygon class="cls-16" points="81.55 82.13 78.66 80.41 78.64 82.13 81.52 83.86 81.55 82.13"/><polygon class="cls-28" points="78.73 127.32 77.31 128.09 77.28 130.18 78.7 129.42 78.73 127.32"/><polygon class="cls-28" points="17.97 90.98 16.54 91.75 16.51 93.85 17.94 93.08 17.97 90.98"/><polygon class="cls-28" points="7.43 79.33 6 80.1 5.92 85.43 7.34 84.67 7.43 79.33"/><polygon class="cls-21" points="143.63 101.72 138.27 104.52 126.58 110.04 112.66 118.77 108.81 120.11 103.42 123.85 101.76 142.83 141.97 120.71 143.63 101.72"/><path class="cls-7" d="M92.72,136.92a14.36,14.36,0,0,1,.25,2.23l7.57,4.53,0-2.06Z"/><polygon class="cls-29" points="101.56 140.87 93.93 136.29 92.72 136.96 100.36 141.53 101.56 140.87"/><polygon class="cls-6" points="144.99 115.36 142.52 113.92 142.5 114.93 101.99 138.48 103.58 139.44 144.99 115.36"/><polygon class="cls-29" points="78.78 127.38 33.41 100.29 31.93 101.1 77.31 128.2 78.78 127.38"/><polygon class="cls-29" points="17.99 91.01 7.34 84.63 5.87 85.45 16.52 91.82 17.99 91.01"/><polygon class="cls-29" points="7.5 79.25 2.48 76.21 2.5 75.23 0.12 76.49 6.03 80.06 7.5 79.25"/><polygon class="cls-29" points="107.49 137.88 102.12 138.53 99.8 137.14 98.7 137.87 104.95 141.62 107.49 137.88"/><polygon class="cls-28" points="144.94 115.23 102.36 140.07 102.28 144.72 144.87 119.88 144.94 115.23"/><polygon class="cls-22" points="97.32 118.6 104.22 114.72 112.68 118.78 103.22 123.94 97.32 118.6"/><polygon class="cls-30" points="104.18 112.86 132.17 97.22 138.24 104.55 112.68 118.78 104.18 112.86"/><polygon class="cls-7" points="98.73 137.84 102.39 140.03 102.32 144.75 98.65 142.55 98.73 137.84"/><polygon class="cls-6" points="134.15 56.32 130.61 49.52 90.65 71.77 94.19 78.59 134.15 56.32"/><polygon class="cls-11" points="124.94 71.94 119.14 73.83 119.38 76.36 125.18 74.48 124.94 71.94"/><polygon class="cls-11" points="122.35 69.41 121.92 69.4 121.84 74.58 122.26 74.58 122.35 69.41"/><polygon class="cls-10" points="97.32 118.6 104.22 114.72 112.68 118.78 108.55 121.11 97.32 118.6"/><polygon class="cls-22" points="101.99 138.48 103.23 123.62 143.63 101.72 103.96 124.22 101.99 138.48"/><polygon class="cls-22" points="118.85 104.18 125.54 111.65 126.62 111.06 119.31 104.04 118.85 104.18"/><polygon class="cls-31" points="95.13 93.85 92.36 95.58 92.34 96.75 95.11 95.02 95.13 93.85"/><polygon class="cls-31" points="95.25 98.83 92.49 100.56 92.47 101.72 95.24 99.99 95.25 98.83"/><polygon class="cls-32" points="95.22 94.41 92.46 96.14 92.42 96.75 95.19 95.02 95.22 94.41"/><polygon class="cls-32" points="95.35 99.34 92.58 101.07 92.54 101.67 95.31 99.95 95.35 99.34"/><polygon class="cls-31" points="92.44 94.05 87.59 96.64 87.84 104.93 88.77 105.55 93.38 94.54 92.44 94.05"/><polygon class="cls-32" points="93.42 94.45 88.57 97.04 88.74 105.58 93.59 103 93.42 94.45"/><polygon class="cls-6" points="132.44 110.97 116.78 119.78 115.55 128.23 131.21 119.43 132.44 110.97"/><polygon class="cls-33" points="131.57 112.19 117.32 120.21 116.31 127.16 130.56 119.14 131.57 112.19"/><polygon class="cls-34" points="125.28 115.84 117.32 120.21 116.31 127.16 130.56 119.14 125.28 115.84"/><rect class="cls-6" x="115.13" y="120.68" width="17.13" height="1.88" transform="translate(-43.81 76.52) rotate(-29.45)"/><rect class="cls-6" x="115.41" y="118.89" width="17.12" height="1.87" transform="translate(-42.85 76.25) rotate(-29.39)"/><rect class="cls-6" x="115.6" y="117.09" width="17.13" height="1.88" transform="translate(-42.03 76.47) rotate(-29.51)"/><polygon class="cls-6" points="125.57 115.39 124.96 115.39 123.87 123.13 124.48 123.14 125.57 115.39"/><polygon class="cls-33" points="110.44 125.15 104.44 128.59 103.59 134.42 109.58 130.98 110.44 125.15"/><polygon class="cls-6" points="109.94 125.84 104.83 128.77 104.1 133.73 109.2 130.81 109.94 125.84"/><polygon class="cls-35" points="106.95 127.52 104.82 128.74 104.51 130.81 106.65 129.59 106.95 127.52"/><polygon class="cls-33" points="142.35 107.04 136.84 110.29 136.28 115.83 141.78 112.57 142.35 107.04"/><polygon class="cls-6" points="141.9 107.69 137.22 110.46 136.73 115.17 141.41 112.39 141.9 107.69"/><polygon class="cls-35" points="139.16 109.27 137.2 110.44 137 112.41 138.96 111.24 139.16 109.27"/></g></g></g></svg>