<svg xmlns="http://www.w3.org/2000/svg" viewBox="0 0 85.33 67.24"><defs><style>.cls-1{isolation:isolate;}.cls-2{fill:#301404;opacity:0.3;mix-blend-mode:multiply;}.cls-3{fill:#f3f3f3;}.cls-4{fill:#625a65;}.cls-5{fill:#47404a;}.cls-6{fill:#d4d2d6;}.cls-7{fill:#3b2e31;}.cls-8{fill:#4e4043;}.cls-9{fill:#969298;}.cls-10{fill:#2e2523;}.cls-11{fill:#423633;}.cls-12{fill:#937c76;}.cls-13{fill:#9e827f;}.cls-14{fill:#baa19c;}.cls-15{fill:#4f4952;}.cls-16{fill:#ada7af;}.cls-17{fill:#bcbabe;}.cls-18{fill:#c9c6cc;}.cls-19{fill:#e6e6e6;}.cls-20{fill:#716d74;}.cls-21{fill:#524b47;}.cls-22{fill:#76676a;}.cls-23{fill:#706376;}.cls-24{fill:#5b4c51;}.cls-25{fill:#c1bfc3;}.cls-26{fill:#c88b4b;}.cls-27{fill:#c6c5c7;}</style></defs><title>Recurso56</title><g class="cls-1"><g id="Capa_2" data-name="Capa 2"><g id="ELEMENTOS_INDIVIDUALES" data-name="ELEMENTOS INDIVIDUALES"><polygon class="cls-2" points="37.41 15.96 0 36.57 50.17 67.25 85.33 46.48 37.41 15.96"/><polygon class="cls-3" points="59.54 12.45 37.83 0 17.43 11.48 39.07 24.2 59.54 12.45"/><polygon class="cls-4" points="84.62 42.2 82.16 40.8 81.03 41.37 83.8 44.47 84.61 44.07 84.62 42.2"/><polygon class="cls-5" points="11.46 23.17 5.17 26.27 5.82 31.42 13.06 27.22 11.46 23.17"/><polygon class="cls-5" points="9.3 21.78 3.01 24.9 4.17 28.26 10.9 25.84 9.3 21.78"/><polygon class="cls-6" points="59.48 12.27 38.99 24.1 43.28 40.88 68.46 26.36 59.48 12.27"/><polygon class="cls-7" points="60.07 13.21 39.3 25.36 43.47 40.89 68.47 26.35 60.07 13.21"/><polygon class="cls-8" points="59.91 14.25 40.05 25.59 43.47 38.37 66.77 24.73 59.91 14.25"/><polygon class="cls-6" points="67.61 24.88 42.87 39.35 43.99 44.08 70.24 28.17 67.61 24.88"/><polygon class="cls-9" points="49.52 46.39 43.23 49.5 43.88 54.63 51.13 50.44 49.52 46.39"/><path class="cls-10" d="M56.84,59.32a10.83,10.83,0,0,0-4.91-8.46A3.82,3.82,0,0,0,49,50.28c-.17,0-2.81,1.49-2.87,1.55a3.46,3.46,0,0,0-1.09,2.93A10.83,10.83,0,0,0,50,63.21a3.77,3.77,0,0,0,3.06.53,12,12,0,0,0,3.18-2.06A4.23,4.23,0,0,0,56.84,59.32Z"/><path class="cls-11" d="M44.55,55a10.82,10.82,0,0,0,4.9,8.46c2.71,1.56,4.9.31,4.9-2.8a10.81,10.81,0,0,0-4.9-8.46C46.74,50.66,44.55,51.91,44.55,55Z"/><path class="cls-12" d="M49.45,53.87c-1.92-1.1-3.47-.22-3.47,2a7.61,7.61,0,0,0,3.47,6c1.91,1.11,3.46.23,3.46-2A7.66,7.66,0,0,0,49.45,53.87Zm.07,7.44a6.92,6.92,0,0,1-3.15-5.44c0-2,1.41-2.79,3.15-1.79a7,7,0,0,1,3.16,5.44C52.68,61.52,51.26,62.33,49.52,61.31Z"/><path class="cls-12" d="M46.85,56.15a6.14,6.14,0,0,0,2.78,4.79c1.54.89,2.78.18,2.78-1.58a6.1,6.1,0,0,0-2.78-4.79C48.1,53.68,46.85,54.39,46.85,56.15Z"/><path class="cls-10" d="M50.89,58.48a1.56,1.56,0,0,0,.7,1.22c.4.22.71,0,.71-.4a1.53,1.53,0,0,0-.71-1.22C51.2,57.86,50.89,58,50.89,58.48Z"/><path class="cls-10" d="M47,56.23a1.55,1.55,0,0,0,.71,1.21c.39.23.7.05.7-.4a1.56,1.56,0,0,0-.7-1.22C47.3,55.59,47,55.78,47,56.23Z"/><path class="cls-10" d="M49.64,59.19c-.39-.22-.71,0-.71.4a1.55,1.55,0,0,0,.71,1.22c.39.22.71,0,.71-.4A1.57,1.57,0,0,0,49.64,59.19Z"/><path class="cls-10" d="M49.64,54.71c-.39-.23-.71-.05-.71.4a1.55,1.55,0,0,0,.71,1.22c.39.22.71,0,.71-.41A1.55,1.55,0,0,0,49.64,54.71Z"/><path class="cls-10" d="M48.76,58.26c-.28-.47-.72-.72-1-.57s-.28.67,0,1.14.72.73,1,.58S49,58.74,48.76,58.26Z"/><path class="cls-10" d="M51.52,56.69c-.27-.47-.72-.73-1-.58s-.28.67,0,1.15.73.73,1,.57S51.8,57.16,51.52,56.69Z"/><path class="cls-10" d="M48.76,56.24c.27-.16.27-.67,0-1.15s-.72-.73-1-.57-.28.67,0,1.14S48.48,56.39,48.76,56.24Z"/><path class="cls-10" d="M51.52,61c.28-.15.28-.67,0-1.14s-.72-.73-1-.58-.28.67,0,1.15S51.25,61.16,51.52,61Z"/><path class="cls-13" d="M47.93,57a3.3,3.3,0,0,0,1.52,2.59c.83.47,1.5.08,1.5-.87a3.28,3.28,0,0,0-1.5-2.58C48.61,55.64,47.93,56,47.93,57Z"/><path class="cls-14" d="M47.71,57.12a3.34,3.34,0,0,0,1.51,2.6c.83.48,1.5.09,1.5-.86a3.31,3.31,0,0,0-1.5-2.6C48.39,55.79,47.71,56.17,47.71,57.12Z"/><polygon class="cls-9" points="12.41 22.06 6.13 25.17 6.7 30.3 14.02 26.11 12.41 22.06"/><path class="cls-10" d="M18.88,37.9A10.82,10.82,0,0,0,14,29.44a3.9,3.9,0,0,0-2.89-.59c-.17,0-2.81,1.5-2.87,1.55a3.48,3.48,0,0,0-1.08,2.93A10.81,10.81,0,0,0,12,41.79a3.79,3.79,0,0,0,3.05.54,12.34,12.34,0,0,0,3.19-2.07A4.31,4.31,0,0,0,18.88,37.9Z"/><path class="cls-11" d="M6.59,33.6a10.81,10.81,0,0,0,4.9,8.46c2.71,1.56,4.9.3,4.9-2.8a10.81,10.81,0,0,0-4.9-8.46C8.78,29.24,6.59,30.49,6.59,33.6Z"/><path class="cls-12" d="M11.49,32.45c-1.92-1.1-3.46-.22-3.46,2a7.59,7.59,0,0,0,3.46,6c1.91,1.11,3.46.23,3.46-2A7.65,7.65,0,0,0,11.49,32.45Zm.08,7.45a7,7,0,0,1-3.16-5.44c0-2,1.41-2.81,3.16-1.8a6.94,6.94,0,0,1,3.15,5.44C14.72,40.1,13.31,40.91,11.57,39.9Z"/><path class="cls-12" d="M8.9,34.73a6.1,6.1,0,0,0,2.78,4.79c1.54.89,2.78.18,2.78-1.58a6.1,6.1,0,0,0-2.78-4.79C10.14,32.26,8.9,33,8.9,34.73Z"/><path class="cls-10" d="M12.93,37.06a1.57,1.57,0,0,0,.71,1.22c.39.22.7,0,.7-.41a1.54,1.54,0,0,0-.7-1.21C13.25,36.43,12.93,36.61,12.93,37.06Z"/><path class="cls-10" d="M9,34.81A1.59,1.59,0,0,0,9.73,36c.39.22.71,0,.71-.41a1.53,1.53,0,0,0-.71-1.21C9.35,34.18,9,34.36,9,34.81Z"/><path class="cls-10" d="M11.69,37.77c-.4-.22-.71,0-.71.4a1.54,1.54,0,0,0,.71,1.22c.39.22.71,0,.71-.4A1.57,1.57,0,0,0,11.69,37.77Z"/><path class="cls-10" d="M11.69,33.29c-.4-.22-.71,0-.71.4a1.56,1.56,0,0,0,.71,1.22c.39.22.71,0,.71-.41A1.55,1.55,0,0,0,11.69,33.29Z"/><path class="cls-10" d="M10.81,36.84c-.28-.48-.73-.73-1-.58s-.28.67,0,1.15.72.74,1,.58S11.08,37.32,10.81,36.84Z"/><path class="cls-10" d="M13.56,35.26c-.27-.47-.72-.73-1-.57s-.28.67,0,1.15.72.73,1,.57S13.85,35.74,13.56,35.26Z"/><path class="cls-10" d="M10.81,34.82c.27-.16.27-.68,0-1.15s-.73-.73-1-.58-.28.67,0,1.15S10.53,35,10.81,34.82Z"/><path class="cls-10" d="M13.56,39.59c.29-.16.29-.67,0-1.15s-.72-.74-1-.58-.28.67,0,1.14S13.29,39.74,13.56,39.59Z"/><path class="cls-13" d="M10,35.56a3.35,3.35,0,0,0,1.51,2.6c.83.48,1.51.1,1.51-.86a3.34,3.34,0,0,0-1.51-2.6C10.66,34.21,10,34.6,10,35.56Z"/><path class="cls-14" d="M9.76,35.7a3.28,3.28,0,0,0,1.5,2.59c.83.49,1.5.1,1.5-.85a3.31,3.31,0,0,0-1.5-2.6C10.43,34.37,9.76,34.75,9.76,35.7Z"/><polygon class="cls-9" points="84.08 41.17 58.78 55.83 56.05 60.5 81.34 45.85 84.08 41.17"/><polygon class="cls-15" points="84.62 44.07 58.84 59.01 58.41 59.92 84.09 45.08 84.62 44.07"/><polygon class="cls-16" points="84.58 37.41 59.32 52.06 58.82 55.9 84.09 41.17 84.58 37.41"/><polygon class="cls-17" points="84.55 37.08 58.98 51.03 59.19 52.17 84.59 37.41 84.55 37.08"/><polygon class="cls-18" points="68.86 26.67 42.9 40.85 59.23 51.8 84.52 37.13 68.86 26.67"/><path class="cls-6" d="M3.93,20l-.75,2.56,2.48,7.18,1,.58c.77-2,2.85-2.64,5.29-1.22a12.34,12.34,0,0,1,5.61,9.67v.14l.21.72L43.6,54.49l.31.15q0-.36,0-.72c0-3.55,2.51-5,5.61-3.19a12.47,12.47,0,0,1,5.6,9.21l1,.59L59,55.76,59.32,52Z"/><polygon class="cls-19" points="59.02 53.16 4.37 21.48 4.51 21.22 59.16 52.92 59.02 53.16"/><polygon class="cls-19" points="45.11 50.48 15.72 33.26 15.95 33.07 45.37 50.21 45.11 50.48"/><polygon class="cls-9" points="59.56 56.52 57.1 55.13 55.97 55.7 58.74 58.79 59.55 58.4 59.56 56.52"/><polygon class="cls-20" points="5.82 26.51 3.02 24.89 3.69 29 5.82 31.45 5.82 26.51"/><polygon class="cls-11" points="38.33 51.07 19.85 40.35 15.06 26.17 15.3 26.2 20.02 40.16 38.09 50.64 39.03 38.85 39.29 39.03 38.33 51.07"/><polygon class="cls-11" points="26.67 44.23 26.39 44.07 26.39 31.31 26.67 31.47 26.67 44.23"/><polygon class="cls-19" points="43.74 53.51 17.79 38.52 18.05 39.95 43.59 54.7 43.74 53.51"/><polygon class="cls-21" points="84.24 37.94 59.66 52.26 59.39 55.15 83.6 41.03 84.24 37.94"/><polygon class="cls-6" points="43.33 40.67 39.05 24.04 17.47 11.46 5.32 18.85 43.33 40.67"/><polygon class="cls-19" points="59.23 51.75 43.34 40.54 5.32 18.85 3.93 19.97 59.3 52.08 59.23 51.75"/><polygon class="cls-11" points="38.42 24.56 21.64 14.88 15.3 20.41 15.64 24.16 41.13 38.89 41.64 37.63 38.42 24.56"/><polygon class="cls-22" points="37.72 24.87 22.03 15.82 16.16 20.66 16.5 24.04 40.36 37.83 40.83 36.71 37.72 24.87"/><polygon class="cls-19" points="21.91 14.03 11.81 22.67 5.32 18.85 17.47 11.46 21.91 14.03"/><polygon class="cls-11" points="40.65 38.27 40.48 38.01 38.92 40.18 39.1 40.44 40.65 38.27"/><polygon class="cls-11" points="16.34 24.13 16.17 23.87 15.12 26.32 15.29 26.57 16.34 24.13"/><polygon class="cls-11" points="15.27 23.87 12.73 22.4 14.96 20.88 15.27 23.87"/><polygon class="cls-11" points="30.4 20.3 28.98 19.39 26.97 30.24 28.38 31.15 30.4 20.3"/><polygon class="cls-6" points="29.97 19.53 29.48 19.23 27.25 31 27.78 31.36 29.97 19.53"/><path class="cls-19" d="M44,54.37c0-3.78,2.47-5.29,5.51-3.4,2.7,1.69,4.94,5.49,5.41,9l1,.61c-.43-4-3-8.59-6.21-10.57-3.46-2.16-6.28-.44-6.28,3.87,0,.24,0,.49,0,.74l.55.33A5.17,5.17,0,0,1,44,54.37Z"/><polygon class="cls-11" points="27.54 31.03 27.36 30.78 26.4 32.89 26.58 33.15 27.54 31.03"/><path class="cls-23" d="M10.19,20.13a1.24,1.24,0,0,0-.33-1.64,1.08,1.08,0,0,0-1.45.62,1.25,1.25,0,0,0,.33,1.64A1.08,1.08,0,0,0,10.19,20.13Z"/><path class="cls-19" d="M10.08,20.06a1.1,1.1,0,0,0-.29-1.42,1,1,0,0,0-1.27.53,1.1,1.1,0,0,0,.3,1.43A.93.93,0,0,0,10.08,20.06Z"/><polygon class="cls-4" points="84.16 42.26 58.37 57.19 58.84 59.02 84.62 44.08 84.16 42.26"/><polygon class="cls-20" points="58.45 57.13 55.97 55.69 55.97 58.54 58.39 59.94 58.94 58.93 58.45 57.13"/><polygon class="cls-24" points="64.96 22.81 59.65 14.4 54.15 17.54 65.03 23.83 64.96 22.81"/><polygon class="cls-7" points="55.09 19.18 51.51 20.73 51.44 22.14 55.01 20.58 55.09 19.18"/><polygon class="cls-7" points="53.09 17.98 52.77 18.05 53.67 20.16 53.99 20.09 53.09 17.98"/><path class="cls-19" d="M12.31,28.25C9.4,26.27,6.92,27.11,6,30l.74.4c.92-2.11,3-2.62,5.31-1,2.86,1.93,5.23,6.32,5.73,10.32l1.08.7C18.42,35.76,15.66,30.52,12.31,28.25Z"/><polygon class="cls-25" points="68.39 26.07 43.09 40.73 84.55 37.1 68.39 26.07"/><polygon class="cls-26" points="56.75 52.22 55.06 51.16 55.06 51.91 56.75 52.97 56.75 52.22"/><path class="cls-19" d="M62.37,52.06c0-.75-.52-1-1.19-.66a2.73,2.73,0,0,0-1.24,2.06c0,.75.53,1,1.2.65A2.69,2.69,0,0,0,62.37,52.06Z"/><path class="cls-19" d="M84,39.39c0-.71-.5-1-1.13-.62a2.54,2.54,0,0,0-1.18,1.95c0,.71.49,1,1.13.63A2.62,2.62,0,0,0,84,39.39Z"/><polygon class="cls-7" points="50.06 33.32 49.88 33.21 48.12 35.98 48.29 36.09 50.06 33.32"/><polygon class="cls-7" points="62.39 27.83 62.4 27.63 59.21 27.87 59.2 28.08 62.39 27.83"/><polygon class="cls-7" points="53.64 32.48 47.03 33.76 47.15 34.22 53.63 32.82 53.64 32.48"/><polygon class="cls-7" points="60.59 26.33 56.86 30.58 57.17 30.83 60.77 26.57 60.59 26.33"/><path class="cls-27" d="M61.54,52.31c0-.43-.29-.59-.67-.37a1.56,1.56,0,0,0-.71,1.17c0,.43.29.6.68.37A1.53,1.53,0,0,0,61.54,52.31Z"/><path class="cls-27" d="M83.2,39.73c0-.4-.28-.56-.64-.35a1.45,1.45,0,0,0-.66,1.1c0,.39.28.55.64.34A1.42,1.42,0,0,0,83.2,39.73Z"/><polygon class="cls-19" points="43.84 41.64 39.05 24.04 38.01 23.36 42.12 40.7 43.84 41.64"/></g></g></g></svg>