<svg xmlns="http://www.w3.org/2000/svg" xmlns:xlink="http://www.w3.org/1999/xlink" viewBox="0 0 323.43 219.34"><defs><style>.cls-1{isolation:isolate;}.cls-2{fill:#301404;opacity:0.25;mix-blend-mode:multiply;}.cls-3{fill:url(#Áåçûìÿííûé_ãðàäèåíò_11);}.cls-4{fill:#e4efef;}.cls-5{fill:#bac4c5;}.cls-6{fill:#a4a6a8;}.cls-7{fill:#dde0e4;}.cls-8{fill:#d8d9db;}.cls-9{fill:#737679;}.cls-10{fill:#9dacb7;}.cls-11{fill:#d0d9d9;}.cls-12{fill:url(#Áåçûìÿííûé_ãðàäèåíò_35);}.cls-13{fill:#464952;}.cls-14{fill:url(#Áåçûìÿííûé_ãðàäèåíò_40);}.cls-15{fill:#d6d7d9;}.cls-16{fill:url(#Áåçûìÿííûé_ãðàäèåíò_34);}.cls-17{fill:#e2e3e4;}.cls-18{fill:url(#Áåçûìÿííûé_ãðàäèåíò_24);}.cls-19{fill:url(#Áåçûìÿííûé_ãðàäèåíò_34-2);}.cls-20{fill:url(#Áåçûìÿííûé_ãðàäèåíò_11-2);}.cls-21{fill:#8c9093;}.cls-22{fill:#818788;}.cls-23{fill:url(#Áåçûìÿííûé_ãðàäèåíò_11-3);}.cls-24{fill:#dfc542;}.cls-25{fill:#538cac;}.cls-26{fill:#82ccfc;}.cls-27{fill:#90c5ab;}.cls-28{fill:#8fc8ea;}.cls-29{fill:#99d7fd;}.cls-30{fill:#315775;}.cls-31{fill:#373737;}.cls-32{fill:#858585;}.cls-33{fill:#505050;}.cls-34{fill:#80a6ad;}.cls-35{fill:#6a969e;}.cls-36{fill:#3c6b92;}.cls-37{fill:#92403b;}.cls-38{fill:#d4813c;}.cls-39{fill:#dfbb59;}.cls-40{fill:url(#Áåçûìÿííûé_ãðàäèåíò_11-4);}.cls-41{fill:url(#Áåçûìÿííûé_ãðàäèåíò_35-2);}.cls-42{fill:url(#Áåçûìÿííûé_ãðàäèåíò_35-3);}.cls-43{fill:url(#Áåçûìÿííûé_ãðàäèåíò_40-2);}.cls-44{fill:url(#Áåçûìÿííûé_ãðàäèåíò_34-3);}.cls-45{fill:url(#Áåçûìÿííûé_ãðàäèåíò_34-4);}.cls-46{fill:url(#Áåçûìÿííûé_ãðàäèåíò_34-5);}.cls-47{fill:url(#Áåçûìÿííûé_ãðàäèåíò_35-4);}.cls-48{fill:url(#Áåçûìÿííûé_ãðàäèåíò_35-5);}.cls-49{fill:url(#Áåçûìÿííûé_ãðàäèåíò_40-3);}.cls-50{fill:url(#Áåçûìÿííûé_ãðàäèåíò_34-6);}.cls-51{fill:url(#Áåçûìÿííûé_ãðàäèåíò_34-7);}.cls-52{fill:url(#Áåçûìÿííûé_ãðàäèåíò_34-8);}.cls-53{fill:#bb4f44;}.cls-54{fill:#3e4246;}.cls-55{fill:#973d2d;}.cls-56{fill:#821906;}.cls-57{fill:#737373;}.cls-58{fill:#363636;}.cls-59{fill:url(#Áåçûìÿííûé_ãðàäèåíò_35-6);}.cls-60{fill:url(#Áåçûìÿííûé_ãðàäèåíò_35-7);}.cls-61{fill:#76c6d5;}.cls-62{fill:#467c97;}.cls-63{fill:url(#Áåçûìÿííûé_ãðàäèåíò_40-4);}.cls-64{fill:url(#Áåçûìÿííûé_ãðàäèåíò_34-9);}.cls-65{fill:url(#Áåçûìÿííûé_ãðàäèåíò_24-2);}.cls-66{fill:url(#Áåçûìÿííûé_ãðàäèåíò_34-10);}.cls-67{fill:#a2a2a2;}.cls-68{fill:url(#Áåçûìÿííûé_ãðàäèåíò_28);}.cls-69{fill:url(#Áåçûìÿííûé_ãðàäèåíò_34-11);}.cls-70{fill:#b9b9b9;}.cls-71{fill:url(#Áåçûìÿííûé_ãðàäèåíò_35-8);}.cls-72{fill:url(#Áåçûìÿííûé_ãðàäèåíò_35-9);}.cls-73{fill:url(#Áåçûìÿííûé_ãðàäèåíò_40-5);}.cls-74{fill:url(#Áåçûìÿííûé_ãðàäèåíò_34-12);}.cls-75{fill:url(#Áåçûìÿííûé_ãðàäèåíò_24-3);}.cls-76{fill:url(#Áåçûìÿííûé_ãðàäèåíò_34-13);}.cls-77{fill:#b2b2b2;}.cls-78{fill:#868686;}.cls-79{fill:#5b5c55;}.cls-80{fill:#bcbfc2;}.cls-81{fill:#858781;}.cls-82{fill:#bd4242;}.cls-83{fill:#c27129;}.cls-84{fill:#721616;}.cls-85{fill:#fbf4f4;}.cls-86{fill:#ab8d8d;}.cls-87{fill:#e48a39;}.cls-88{fill:#9c5113;}.cls-89{fill:#992f2f;}.cls-90{fill:#f9fbfb;}.cls-91{fill:#dedede;}.cls-92{fill:#f9ffff;}.cls-93{fill:#83b3fb;}.cls-94{fill:#80a4e9;}.cls-95{fill:#232a48;}.cls-96{fill:#5470c9;}.cls-97{fill:#3d3d39;}.cls-98{fill:url(#Áåçûìÿííûé_ãðàäèåíò_35-10);}.cls-99{fill:url(#Áåçûìÿííûé_ãðàäèåíò_40-6);}.cls-100{fill:url(#Áåçûìÿííûé_ãðàäèåíò_34-14);}.cls-101{fill:url(#Áåçûìÿííûé_ãðàäèåíò_24-4);}.cls-102{fill:url(#Áåçûìÿííûé_ãðàäèåíò_34-15);}.cls-103{fill:url(#Áåçûìÿííûé_ãðàäèåíò_35-11);}.cls-104{fill:url(#Áåçûìÿííûé_ãðàäèåíò_40-7);}.cls-105{fill:url(#Áåçûìÿííûé_ãðàäèåíò_34-16);}.cls-106{fill:url(#Áåçûìÿííûé_ãðàäèåíò_24-5);}.cls-107{fill:url(#Áåçûìÿííûé_ãðàäèåíò_34-17);}.cls-108{fill:#222a37;}.cls-109{fill:#929292;}.cls-110{fill:#747474;}.cls-111{fill:#c2c2c2;}.cls-112{fill:#edf1f5;}.cls-113{fill:#cad3e0;}.cls-114{fill:#c1cad6;}.cls-115{fill:#737e85;}.cls-116{fill:#8f8f8f;}.cls-117{fill:#b6babb;}.cls-118{fill:#e9e9e9;}.cls-119{fill:#657072;}.cls-120{fill:#7d8491;}.cls-121{fill:#a6bbbc;}.cls-122{fill:#d7d7d7;}.cls-123{fill:#b6b6b6;}.cls-124{fill:#c9d0d9;}.cls-125{fill:#393939;}.cls-126{fill:#a8b9c4;}</style><linearGradient id="Áåçûìÿííûé_ãðàäèåíò_11" x1="-1887.38" y1="-21932.02" x2="-1882.15" y2="-21932.02" gradientTransform="matrix(1, 0, 0, -1, 2135.1, -21900.22)" gradientUnits="userSpaceOnUse"><stop offset="0.16" stop-color="#a5a7a9"/><stop offset="0.16" stop-color="#bdc0c3"/><stop offset="0.56" stop-color="#bdc0c3"/><stop offset="0.56" stop-color="#dee1e5"/><stop offset="0.87" stop-color="#dee1e5"/><stop offset="0.87" stop-color="#d8dce0"/></linearGradient><linearGradient id="Áåçûìÿííûé_ãðàäèåíò_35" x1="-1830.19" y1="-21966.31" x2="-1845" y2="-21991.96" gradientTransform="matrix(1, 0, 0, -1, 2135.1, -21900.22)" gradientUnits="userSpaceOnUse"><stop offset="0.13" stop-color="#6b727a"/><stop offset="0.13" stop-color="#6f777f"/><stop offset="0.44" stop-color="#6f777f"/><stop offset="0.44" stop-color="#53595e"/><stop offset="0.84" stop-color="#53595e"/><stop offset="0.84" stop-color="#3f4347"/></linearGradient><linearGradient id="Áåçûìÿííûé_ãðàäèåíò_40" x1="-1828.59" y1="-21973.12" x2="-1838.33" y2="-21989.99" gradientTransform="matrix(1, 0, 0, -1, 2135.1, -21900.22)" gradientUnits="userSpaceOnUse"><stop offset="0.13" stop-color="#dadee1"/><stop offset="0.13" stop-color="#e0e3e6"/><stop offset="0.44" stop-color="#e0e3e6"/><stop offset="0.44" stop-color="#bfc2c4"/><stop offset="0.84" stop-color="#bfc2c4"/><stop offset="0.84" stop-color="#a6a8aa"/></linearGradient><linearGradient id="Áåçûìÿííûé_ãðàäèåíò_34" x1="-1828.7" y1="-21974.44" x2="-1837.4" y2="-21989.51" gradientTransform="matrix(1, 0, 0, -1, 2135.1, -21900.22)" gradientUnits="userSpaceOnUse"><stop offset="0.16" stop-color="#797a7c"/><stop offset="0.16" stop-color="#909294"/><stop offset="0.56" stop-color="#909294"/><stop offset="0.56" stop-color="#b0b3b5"/><stop offset="0.87" stop-color="#b0b3b5"/><stop offset="0.87" stop-color="#abadb0"/></linearGradient><linearGradient id="Áåçûìÿííûé_ãðàäèåíò_24" x1="-1831.63" y1="-21975.35" x2="-1837.72" y2="-21985.9" gradientTransform="matrix(1, 0, 0, -1, 2135.1, -21900.22)" gradientUnits="userSpaceOnUse"><stop offset="0.13" stop-color="#abadb0"/><stop offset="0.13" stop-color="#b0b3b5"/><stop offset="0.44" stop-color="#b0b3b5"/><stop offset="0.44" stop-color="#909294"/><stop offset="0.84" stop-color="#909294"/><stop offset="0.84" stop-color="#797a7c"/></linearGradient><linearGradient id="Áåçûìÿííûé_ãðàäèåíò_34-2" x1="-1832.19" y1="-21979.04" x2="-1834.96" y2="-21983.86" xlink:href="#Áåçûìÿííûé_ãðàäèåíò_34"/><linearGradient id="Áåçûìÿííûé_ãðàäèåíò_11-2" x1="-1853.2" y1="-21991.91" x2="-1860.41" y2="-21979.42" xlink:href="#Áåçûìÿííûé_ãðàäèåíò_11"/><linearGradient id="Áåçûìÿííûé_ãðàäèåíò_11-3" x1="-1887.02" y1="-21953.73" x2="-1899.89" y2="-21976.02" xlink:href="#Áåçûìÿííûé_ãðàäèåíò_11"/><linearGradient id="Áåçûìÿííûé_ãðàäèåíò_11-4" x1="-1845.24" y1="-21955.34" x2="-1840.01" y2="-21955.34" xlink:href="#Áåçûìÿííûé_ãðàäèåíò_11"/><linearGradient id="Áåçûìÿííûé_ãðàäèåíò_35-2" x1="-1918.78" y1="-21963.41" x2="-1933.58" y2="-21989.06" xlink:href="#Áåçûìÿííûé_ãðàäèåíò_35"/><linearGradient id="Áåçûìÿííûé_ãðàäèåíò_35-3" x1="-1911.69" y1="-21967.41" x2="-1926.5" y2="-21993.06" xlink:href="#Áåçûìÿííûé_ãðàäèåíò_35"/><linearGradient id="Áåçûìÿííûé_ãðàäèåíò_40-2" x1="-1911.25" y1="-21987.2" x2="-1918.67" y2="-21978.11" xlink:href="#Áåçûìÿííûé_ãðàäèåíò_40"/><linearGradient id="Áåçûìÿííûé_ãðàäèåíò_34-3" x1="-1910.2" y1="-21975.55" x2="-1918.9" y2="-21990.61" xlink:href="#Áåçûìÿííûé_ãðàäèåíò_34"/><linearGradient id="Áåçûìÿííûé_ãðàäèåíò_34-4" x1="-1913.13" y1="-21976.45" x2="-1919.22" y2="-21986.99" xlink:href="#Áåçûìÿííûé_ãðàäèåíò_34"/><linearGradient id="Áåçûìÿííûé_ãðàäèåíò_34-5" x1="-1913.69" y1="-21980.14" x2="-1916.46" y2="-21984.96" xlink:href="#Áåçûìÿííûé_ãðàäèåíò_34"/><linearGradient id="Áåçûìÿííûé_ãðàäèåíò_35-4" x1="-1944.26" y1="-21978.12" x2="-1959.07" y2="-22003.77" xlink:href="#Áåçûìÿííûé_ãðàäèåíò_35"/><linearGradient id="Áåçûìÿííûé_ãðàäèåíò_35-5" x1="-1937.17" y1="-21982.12" x2="-1951.98" y2="-22007.77" xlink:href="#Áåçûìÿííûé_ãðàäèåíò_35"/><linearGradient id="Áåçûìÿííûé_ãðàäèåíò_40-3" x1="-1936.73" y1="-22001.91" x2="-1944.15" y2="-21992.82" xlink:href="#Áåçûìÿííûé_ãðàäèåíò_40"/><linearGradient id="Áåçûìÿííûé_ãðàäèåíò_34-6" x1="-1935.69" y1="-21990.26" x2="-1944.39" y2="-22005.32" xlink:href="#Áåçûìÿííûé_ãðàäèåíò_34"/><linearGradient id="Áåçûìÿííûé_ãðàäèåíò_34-7" x1="-1938.61" y1="-21991.16" x2="-1944.7" y2="-22001.7" xlink:href="#Áåçûìÿííûé_ãðàäèåíò_34"/><linearGradient id="Áåçûìÿííûé_ãðàäèåíò_34-8" x1="-1939.17" y1="-21994.85" x2="-1941.95" y2="-21999.67" xlink:href="#Áåçûìÿííûé_ãðàäèåíò_34"/><linearGradient id="Áåçûìÿííûé_ãðàäèåíò_35-6" x1="-1879.28" y1="-21986.51" x2="-1894.09" y2="-22012.16" xlink:href="#Áåçûìÿííûé_ãðàäèåíò_35"/><linearGradient id="Áåçûìÿííûé_ãðàäèåíò_35-7" x1="-1872.19" y1="-21990.52" x2="-1887" y2="-22016.16" xlink:href="#Áåçûìÿííûé_ãðàäèåíò_35"/><linearGradient id="Áåçûìÿííûé_ãðàäèåíò_40-4" x1="-1870.59" y1="-21997.32" x2="-1880.33" y2="-22014.2" xlink:href="#Áåçûìÿííûé_ãðàäèåíò_40"/><linearGradient id="Áåçûìÿííûé_ãðàäèåíò_34-9" x1="-1870.7" y1="-21998.65" x2="-1879.4" y2="-22013.72" xlink:href="#Áåçûìÿííûé_ãðàäèåíò_34"/><linearGradient id="Áåçûìÿííûé_ãðàäèåíò_24-2" x1="-1873.63" y1="-21999.56" x2="-1879.72" y2="-22010.1" xlink:href="#Áåçûìÿííûé_ãðàäèåíò_24"/><linearGradient id="Áåçûìÿííûé_ãðàäèåíò_34-10" x1="-1874.19" y1="-22003.25" x2="-1876.96" y2="-22008.06" xlink:href="#Áåçûìÿííûé_ãðàäèåíò_34"/><linearGradient id="Áåçûìÿííûé_ãðàäèåíò_28" x1="-1911.97" y1="-21978.34" x2="-1901.86" y2="-21978.34" gradientTransform="matrix(1, 0, 0, -1, 2135.1, -21900.22)" gradientUnits="userSpaceOnUse"><stop offset="0.16" stop-color="#4e4f50"/><stop offset="0.16" stop-color="#646668"/><stop offset="0.56" stop-color="#646668"/><stop offset="0.56" stop-color="#848688"/><stop offset="0.87" stop-color="#848688"/><stop offset="0.87" stop-color="#808183"/></linearGradient><linearGradient id="Áåçûìÿííûé_ãðàäèåíò_34-11" x1="-1903.93" y1="-21968.89" x2="-1910.46" y2="-21980.19" xlink:href="#Áåçûìÿííûé_ãðàäèåíò_34"/><linearGradient id="Áåçûìÿííûé_ãðàäèåíò_35-8" x1="-1904.76" y1="-22001.22" x2="-1919.57" y2="-22026.87" xlink:href="#Áåçûìÿííûé_ãðàäèåíò_35"/><linearGradient id="Áåçûìÿííûé_ãðàäèåíò_35-9" x1="-1897.67" y1="-22005.22" x2="-1912.48" y2="-22030.87" xlink:href="#Áåçûìÿííûé_ãðàäèåíò_35"/><linearGradient id="Áåçûìÿííûé_ãðàäèåíò_40-5" x1="-1896.07" y1="-22012.03" x2="-1905.81" y2="-22028.9" xlink:href="#Áåçûìÿííûé_ãðàäèåíò_40"/><linearGradient id="Áåçûìÿííûé_ãðàäèåíò_34-12" x1="-1896.19" y1="-22013.36" x2="-1904.89" y2="-22028.43" xlink:href="#Áåçûìÿííûé_ãðàäèåíò_34"/><linearGradient id="Áåçûìÿííûé_ãðàäèåíò_24-3" x1="-1899.11" y1="-22014.27" x2="-1905.2" y2="-22024.81" xlink:href="#Áåçûìÿííûé_ãðàäèåíò_24"/><linearGradient id="Áåçûìÿííûé_ãðàäèåíò_34-13" x1="-1899.67" y1="-22017.96" x2="-1902.45" y2="-22022.77" xlink:href="#Áåçûìÿííûé_ãðàäèåíò_34"/><linearGradient id="Áåçûìÿííûé_ãðàäèåíò_35-10" x1="-1998.59" y1="-22064.11" x2="-2013.47" y2="-22089.88" xlink:href="#Áåçûìÿííûé_ãðàäèåíò_35"/><linearGradient id="Áåçûìÿííûé_ãðàäèåíò_40-6" x1="-1996.98" y1="-22070.95" x2="-2006.77" y2="-22087.9" xlink:href="#Áåçûìÿííûé_ãðàäèåíò_40"/><linearGradient id="Áåçûìÿííûé_ãðàäèåíò_34-14" x1="-1997.1" y1="-22072.28" x2="-2005.84" y2="-22087.42" xlink:href="#Áåçûìÿííûé_ãðàäèåíò_34"/><linearGradient id="Áåçûìÿííûé_ãðàäèåíò_24-4" x1="-2000.04" y1="-22073.19" x2="-2006.15" y2="-22083.79" xlink:href="#Áåçûìÿííûé_ãðàäèåíò_24"/><linearGradient id="Áåçûìÿííûé_ãðàäèåíò_34-15" x1="-2000.6" y1="-22076.9" x2="-2003.39" y2="-22081.74" xlink:href="#Áåçûìÿííûé_ãðàäèåíò_34"/><linearGradient id="Áåçûìÿííûé_ãðàäèåíò_35-11" x1="-2024.2" y1="-22078.74" x2="-2039.08" y2="-22104.52" xlink:href="#Áåçûìÿííûé_ãðàäèåíò_35"/><linearGradient id="Áåçûìÿííûé_ãðàäèåíò_40-7" x1="-2022.59" y1="-22085.58" x2="-2032.38" y2="-22102.53" xlink:href="#Áåçûìÿííûé_ãðàäèåíò_40"/><linearGradient id="Áåçûìÿííûé_ãðàäèåíò_34-16" x1="-2022.7" y1="-22086.91" x2="-2031.45" y2="-22102.06" xlink:href="#Áåçûìÿííûé_ãðàäèåíò_34"/><linearGradient id="Áåçûìÿííûé_ãðàäèåíò_24-5" x1="-2025.64" y1="-22087.83" x2="-2031.76" y2="-22098.42" xlink:href="#Áåçûìÿííûé_ãðàäèåíò_24"/><linearGradient id="Áåçûìÿííûé_ãðàäèåíò_34-17" x1="-2026.2" y1="-22091.54" x2="-2028.99" y2="-22096.37" xlink:href="#Áåçûìÿííûé_ãðàäèåíò_34"/></defs><title>Recurso65</title><g class="cls-1"><g id="Capa_2" data-name="Capa 2"><g id="ELEMENTOS_INDIVIDUALES" data-name="ELEMENTOS INDIVIDUALES"><polygon class="cls-2" points="239.9 32.34 323.43 80.7 83.53 219.34 0 170.99 239.9 32.34"/><path class="cls-3" d="M247.72,12.52v37c0,.94,1.17,1.7,2.61,1.7s2.62-.76,2.62-1.7v-37Z"/><path class="cls-4" d="M253,12.52c0,.94-1.17,1.71-2.62,1.71s-2.61-.77-2.61-1.71,1.17-1.69,2.61-1.69S253,11.58,253,12.52Z"/><path class="cls-5" d="M251.64,4.52v7.7a1.43,1.43,0,0,1-1.32.62,2,2,0,0,1-.61-.09,1.37,1.37,0,0,1-.58-.34V5.86A4,4,0,0,0,249,4.58a.22.22,0,0,0,0-.06.61.61,0,0,0-.27-.31c-.26-.13-.64,0-1.11-.23l-.08-.34-.31-1.36L246.82.57,246.7.1h0l.88-.09a7.28,7.28,0,0,1,2.23.43C251.33,1,251.64,2.29,251.64,4.52Z"/><path class="cls-6" d="M249.71,6.58v6.17a1.37,1.37,0,0,1-.58-.34V5.86A4,4,0,0,0,249,4.58a.22.22,0,0,0,0-.06.61.61,0,0,0-.27-.31c-.26-.13-.64,0-1.11-.23l-.08-.34-.31-1.36a4.05,4.05,0,0,1,.67.21C249.39,3.07,249.71,4.33,249.71,6.58Z"/><path class="cls-7" d="M249.81.43A7.28,7.28,0,0,0,247.58,0l-.88.09h0l.12.47.11.51h0a7.15,7.15,0,0,1,2.23.43C250.7,2.1,251,3.37,251,5.6v7.11a1.09,1.09,0,0,0,.62-.49V4.52C251.64,2.29,251.33,1,249.81.43Z"/><path class="cls-8" d="M245.87,1.2a4,4,0,0,0,1.92,3c1.06.61,1.92.25,1.92-.81a2.4,2.4,0,0,0,0-.37A4.19,4.19,0,0,0,247.79.38l-.23-.12C246.61-.18,245.87.21,245.87,1.2Z"/><path class="cls-6" d="M249.3,3.18a.92.92,0,0,1-.21.65c-.26.3-.75.31-1.3,0a3.18,3.18,0,0,1-1.52-2.4c0-.79.59-1.09,1.34-.73l.18.08c.08,0,.14.09.22.14a3.32,3.32,0,0,1,1.27,2A1.52,1.52,0,0,1,249.3,3.18Z"/><path class="cls-9" d="M249.3,3.18a.92.92,0,0,1-.21.65,3.11,3.11,0,0,1-1.3-2.25A1,1,0,0,1,248,.92a3.32,3.32,0,0,1,1.27,2A1.52,1.52,0,0,1,249.3,3.18Z"/><polygon class="cls-10" points="274.08 51.24 321.3 78.55 321.3 68.27 274.08 40.96 274.08 51.24"/><polygon class="cls-4" points="319.32 78.29 320.44 78.81 322.62 67.57 320.9 67.38 318.18 68.82 319.32 78.29"/><polygon class="cls-11" points="320.44 78.81 322.95 77.68 323.2 67.26 319.32 69.34 320.44 78.81"/><polygon class="cls-4" points="275.92 39.91 323.2 67.26 321.3 68.27 274.08 40.96 275.92 39.91"/><polygon class="cls-10" points="319.32 69.34 318.18 68.82 319.32 78.29 320.44 78.81 319.32 69.34"/><path class="cls-12" d="M285,84.58c0,2.62.91,4.5,2.43,5.52,2,1.37,6.4,3.73,6.4,3.73C300,90.3,312,78,312,71.88c0-2.67-5.74-4.68-7.31-5.69-2-1.31-5.12-1.11-8.58.89C290,70.61,285,78.45,285,84.58Z"/><path class="cls-13" d="M291,88.07c0,6.13,5,8.23,11.1,4.69s11.09-11.37,11.09-17.5-5-8.22-11.09-4.69S291,82,291,88.07Z"/><path class="cls-14" d="M294.28,85.59c0,4.07,3.3,5.46,7.36,3.11S309,81.16,309,77.09s-3.29-5.46-7.36-3.12S294.28,81.52,294.28,85.59Z"/><path class="cls-15" d="M294.73,85.92c0,4.07,3.3,5.46,7.37,3.11s7.36-7.54,7.36-11.61-3.3-5.46-7.36-3.12S294.73,81.85,294.73,85.92Z"/><path class="cls-16" d="M308.7,77.85c0,3.66-3,8.32-6.6,10.43s-6.61.84-6.61-2.8a6.47,6.47,0,0,1,.11-1.23,14.3,14.3,0,0,1,6.5-9.19,7.2,7.2,0,0,1,.78-.4C306.16,73.14,308.7,74.47,308.7,77.85Z"/><path class="cls-17" d="M305.49,77.47v.06c0,2.76-2.23,6.29-5,7.88A5.38,5.38,0,0,1,299,86c-1.54.42-2.76-.06-3.26-1.3a2.56,2.56,0,0,1-.16-.49,11,11,0,0,1,.36-1.51,15,15,0,0,1,5.2-7.06,9.53,9.53,0,0,1,.94-.62c.22-.13.44-.24.65-.34l.13-.06C304.42,74.6,305.47,75.61,305.49,77.47Z"/><path class="cls-18" d="M305,76.78c0,2.71-3.43,7.64-6.14,9.25h0l-.12,0a1.09,1.09,0,0,1-.36-.12.48.48,0,0,1-.14-.05,16.9,16.9,0,0,1-2.49-1.11,2.56,2.56,0,0,1-.16-.49,11,11,0,0,1,.36-1.51,15,15,0,0,1,5.2-7.06,9.53,9.53,0,0,1,.94-.62c.22-.13.44-.24.65-.34a18,18,0,0,1,2,1.74v0Z"/><path class="cls-8" d="M305.67,78.6c0,2.38-1.93,5.42-4.31,6.8s-4.31.55-4.31-1.82a4.43,4.43,0,0,1,.07-.81,9.35,9.35,0,0,1,4.24-6q.25-.15.51-.27C304,75.52,305.67,76.39,305.67,78.6Z"/><path class="cls-19" d="M303.62,80a4.38,4.38,0,0,1-2.1,3.32c-1.16.66-2.1.26-2.1-.89a1.87,1.87,0,0,1,0-.4,4.52,4.52,0,0,1,2.06-2.91l.25-.14C302.82,78.52,303.62,79,303.62,80Z"/><path class="cls-17" d="M301.83,80.3a1.75,1.75,0,0,1-.84,1.33c-.47.27-.84.11-.84-.36a.92.92,0,0,1,0-.16A1.79,1.79,0,0,1,301,80l.1-.06C301.5,79.7,301.83,79.87,301.83,80.3Z"/><path class="cls-20" d="M271.64,97.62l16.62-9.84c2.21-1.27,2.42-5.07.45-8.46s-5.34-5.12-7.56-3.85l-16.82,10Z"/><path class="cls-21" d="M264.53,85.3c2.22-1.27,5.6.45,7.56,3.85s1.76,7.19-.45,8.47-5.6-.45-7.56-3.84S262.32,86.58,264.53,85.3Z"/><path class="cls-22" d="M264.44,87c1.78-1,4.48.36,6.05,3.08s1.41,5.76-.36,6.78-4.48-.35-6.05-3.07S262.67,88,264.44,87Z"/><path class="cls-23" d="M236.31,76.43l16.62-9.83c2.21-1.28,2.41-5.07.45-8.47S248,53,245.82,54.29L229,64.23Z"/><path class="cls-21" d="M229.2,64.12c2.22-1.28,5.6.44,7.56,3.84s1.76,7.19-.45,8.47-5.6-.44-7.56-3.84S227,65.39,229.2,64.12Z"/><path class="cls-22" d="M229.11,65.81c1.77-1,4.48.35,6.06,3.07s1.4,5.76-.37,6.78-4.48-.35-6.05-3.07S227.34,66.83,229.11,65.81Z"/><polygon class="cls-24" points="281.67 40.38 261.22 52.19 261.22 12.9 280.17 4.49 279.12 8.94 281.67 20.86 281.67 40.38"/><path class="cls-24" d="M285.82,44.31l-8.39,4.85s.58-9.61-11.19-3.11l19.58-15.51Z"/><polygon class="cls-24" points="285.82 36.79 281.46 39.31 281.46 20.65 285.82 18.61 285.82 36.79"/><path class="cls-25" d="M319.11,42.48V62l-2.46,1.41-2.52,1.47-.47.27-1.2.69-1.36.78c-1.37-.39-3.29-.23-5.92,1.29l-6.52,3.77V34.52l5.6-7.33,13.35-1.08-1.06,4.45Z"/><path class="cls-26" d="M280.17,4.49C290.49,6,317.61,26.11,317.61,26.11s-6.47.11-18.95,8.41c-9,6-37.44-21.62-37.44-21.62S275,3.74,280.17,4.49Z"/><polygon class="cls-27" points="273.33 36.25 278.5 33.26 278.5 24.97 273.33 27.96 273.33 36.25"/><polygon class="cls-27" points="280.69 52.05 287.64 48.04 287.64 36.38 280.69 40.39 280.69 52.05"/><path class="cls-25" d="M320.7,67.26l-5.83,3.53s.58-9.61-11.19-3.11l17-14.2Z"/><polygon class="cls-25" points="320.7 59.73 318.91 60.93 318.91 42.28 320.7 45.55 320.7 59.73"/><path class="cls-28" d="M280.77,31.08l17.89.84s-27.37-17.7-37.44-21.62c-14.08-5.47-21.74-3-21.74-3Z"/><path class="cls-25" d="M291.4,27.1l.15.06c-7.13-4.7-15.24-9.71-20.09-11.59-14.07-5.48-22.3-2.69-22.3-2.69l19.47,11.25C270.74,23.39,278.84,22.22,291.4,27.1Z"/><path class="cls-29" d="M291.4,27.14l.15.05c-7.13-4.7-15.24-10.27-20.09-12.15-14.07-5.48-22.3-3.74-22.3-3.74l19.47,11.24C270.74,21.8,278.84,22.25,291.4,27.14Z"/><path class="cls-25" d="M280.77,81.67,298.66,70v-38s-12.34-5.06-17.89-.84Z"/><polygon class="cls-30" points="239.48 7.32 280.77 31.08 280.77 81.67 239.48 57.92 239.48 7.32"/><polygon class="cls-30" points="249.16 11.3 249.16 15.32 268.61 26.23 268.61 22.54 249.16 11.3"/><path class="cls-31" d="M316.5,73l-1.87-1.42-.45-2.14a.41.41,0,0,1,0-.09,4.51,4.51,0,0,0-.25-.5,7.46,7.46,0,0,0-.44-.63,4.8,4.8,0,0,1,2.31,2.05,4.59,4.59,0,0,1,.25.49.39.39,0,0,0,0,.1Z"/><path class="cls-32" d="M316.15,70.06,316.5,73l-.45-2.14a.39.39,0,0,1,0-.1,4.59,4.59,0,0,0-.25-.49,4.8,4.8,0,0,0-2.31-2.05,4.61,4.61,0,0,0-2.35-1.58c-1.37-.39-1.94.88-4.57,2.39l-13.67,8.5L291,76.11V74.48l7.67-4.42,3.2-1.85,3.32-1.92a9.46,9.46,0,0,1,.95-.54,11.28,11.28,0,0,1,2.44-1h0a6.29,6.29,0,0,1,5.07.38A10.71,10.71,0,0,1,316.11,67h0a2.5,2.5,0,0,1,.58,1Z"/><path class="cls-33" d="M318.13,72,316.5,73l-.45-2.14a.39.39,0,0,1,0-.1,4.59,4.59,0,0,0-.25-.49,4.8,4.8,0,0,0-2.31-2.05l-.49-.16c-1.36-.4-3.28-.23-5.91,1.29l-6.52,3.76-7.67,4.42V75.89l7.67-4.42,3.2-1.85,3.32-1.91c.29-.19.61-.37.95-.55a11.48,11.48,0,0,1,2.44-1h0a6.38,6.38,0,0,1,5.07.38,4.62,4.62,0,0,1,.47.34,1.09,1.09,0,0,0,.11.1h0a5.26,5.26,0,0,1,1.55,2.77l.35,1.68Z"/><path class="cls-33" d="M314.87,44.64A6.94,6.94,0,0,0,316,42.79a2.41,2.41,0,0,0,.07-1.62l-1.61-8.8c-.33-1.13-1.25-1.36-2.53-.66l-5.47,3a3.81,3.81,0,0,0-.94.84,7.39,7.39,0,0,0-1.74,3.82V49c0,1.61.86,2.08,2.25,1.23l7.79-4.74a5.09,5.09,0,0,0,1.07-.85Z"/><path class="cls-34" d="M314.05,44.76l-7.79,4.73c-1.24.76-2,.34-2-1.09V38.76a5.14,5.14,0,0,1,1.9-3.3l5.48-3c1.17-.65,2-.44,2.3.58l1.62,8.81A4,4,0,0,1,314.05,44.76Z"/><path class="cls-33" d="M310.9,60.2a1.45,1.45,0,0,1-1.44-1.44V51.39a2.15,2.15,0,0,1,1.06-1.84l3-1.71a1.51,1.51,0,0,1,.71-.19,1.43,1.43,0,0,1,1.44,1.43v7.37a2.12,2.12,0,0,1-1.06,1.84l-3,1.71A1.36,1.36,0,0,1,310.9,60.2Z"/><path class="cls-35" d="M314.33,57.85l-3,1.71a.93.93,0,0,1-1.39-.8V51.39a1.61,1.61,0,0,1,.8-1.4l3-1.71a.93.93,0,0,1,1.4.8v7.37A1.62,1.62,0,0,1,314.33,57.85Z"/><path class="cls-36" d="M284.69,64.23a1.45,1.45,0,0,1-1.44-1.44V47.7a2.14,2.14,0,0,1,1.06-1.84l3-1.71A1.42,1.42,0,0,1,288,44a1.44,1.44,0,0,1,1.43,1.44V60.48a2.12,2.12,0,0,1-1.06,1.84l-3,1.71A1.42,1.42,0,0,1,284.69,64.23Z"/><path class="cls-25" d="M288.22,61.88l-3,1.72a.93.93,0,0,1-1.39-.81V47.69a1.63,1.63,0,0,1,.8-1.39l3-1.72a.93.93,0,0,1,1.4.81v15.1A1.61,1.61,0,0,1,288.22,61.88Z"/><polygon class="cls-31" points="292.86 75.89 290.99 74.48 290.99 76.11 292.86 77.52 292.86 75.89"/><polygon class="cls-7" points="298.26 68.03 280.77 78.32 280.77 81.72 281.58 82.23 299.07 68.53 298.26 68.03"/><polygon class="cls-6" points="299.07 68.53 281.58 78.83 281.58 82.23 299.07 71.92 299.07 68.53"/><path class="cls-22" d="M295.63,72v.54a.67.67,0,0,1-.34.59L293,74.45a.28.28,0,0,1-.42-.24v-.15l1.93-1.12a.69.69,0,0,0,.35-.59V72l.38-.21A.27.27,0,0,1,295.63,72Z"/><path class="cls-24" d="M294.84,72v.39a.69.69,0,0,1-.35.59l-1.93,1.12v-.38a.71.71,0,0,1,.35-.6Z"/><path class="cls-22" d="M290.22,75.18v.54a.68.68,0,0,1-.34.59l-2.3,1.34a.28.28,0,0,1-.42-.24v-.15l1.93-1.12a.69.69,0,0,0,.35-.59v-.39l.38-.21A.27.27,0,0,1,290.22,75.18Z"/><path class="cls-24" d="M289.43,75.16v.39a.69.69,0,0,1-.35.59l-1.93,1.12v-.38a.71.71,0,0,1,.35-.6Z"/><path class="cls-37" d="M298.35,23.5l-1,.64c-.28.17-.3.48-.58.31l-.46-.35c-.31-.18-.64-.84-.34-1l1-.64c.28-.17,1.38-.65,1.67-.49l.11,0C299.06,22.17,298.65,23.31,298.35,23.5Z"/><path class="cls-38" d="M299.78,23.64l-1.61,1a1,1,0,0,1-1,0l-.38-.22c-.35-.2.1-1.63.44-1.84l1.15-.1c.31-.19.79-.69,1.11-.5l.26.2A1.12,1.12,0,0,1,299.78,23.64Z"/><path class="cls-39" d="M299.37,22.74l-1,.64a.9.9,0,0,1-.91,0l-.12-.06a.48.48,0,0,1,0-.81l1-.64a.88.88,0,0,1,.91,0l.12.05A.48.48,0,0,1,299.37,22.74Z"/><path class="cls-37" d="M279.87,12.78l-1,.65c-.28.17-.29.48-.58.31l-.45-.35c-.31-.18-.65-.84-.35-1l1-.64c.27-.17,1.37-.65,1.66-.49l.11,0C280.58,11.46,280.17,12.6,279.87,12.78Z"/><path class="cls-38" d="M281.31,12.92l-1.62,1a1,1,0,0,1-1,0l-.39-.22c-.35-.2.11-1.63.44-1.84l1.15-.1c.32-.19.79-.69,1.11-.5l.27.2C281.6,11.7,281.64,12.72,281.31,12.92Z"/><path class="cls-39" d="M280.9,12l-1,.64a.9.9,0,0,1-.91,0l-.12-.06a.47.47,0,0,1,0-.81l1-.65a.92.92,0,0,1,.92,0l.12.05A.49.49,0,0,1,280.9,12Z"/><path class="cls-37" d="M289.5,17.83l-1,.64c-.27.17-.29.48-.58.31l-.45-.35c-.31-.18-.65-.84-.35-1l1-.65c.28-.17,1.37-.65,1.66-.49l.12.06C290.22,16.5,289.81,17.65,289.5,17.83Z"/><path class="cls-38" d="M290.94,18l-1.62,1a1,1,0,0,1-1,0l-.39-.23c-.34-.19.11-1.63.44-1.84l1.16-.1c.31-.19.79-.69,1.11-.5l.26.2A1.13,1.13,0,0,1,290.94,18Z"/><path class="cls-39" d="M290.53,17.07l-1,.64a.88.88,0,0,1-.91,0l-.12,0a.48.48,0,0,1,0-.82l1-.64a.9.9,0,0,1,.91,0l.12.05A.48.48,0,0,1,290.53,17.07Z"/><path class="cls-40" d="M289.86,35.84V72.78c0,.94,1.17,1.7,2.61,1.7s2.62-.76,2.62-1.7v-37Z"/><path class="cls-4" d="M295.09,35.84c0,.93-1.17,1.7-2.62,1.7s-2.61-.77-2.61-1.7,1.17-1.7,2.61-1.7S295.09,34.9,295.09,35.84Z"/><path class="cls-5" d="M293.78,27.84v7.69a1.42,1.42,0,0,1-1.32.62,2,2,0,0,1-.61-.09,1.28,1.28,0,0,1-.58-.34V29.18a4,4,0,0,0-.14-1.29.13.13,0,0,0,0-.08.52.52,0,0,0-.25-.29c-.27-.13-.64,0-1.11-.23l-.07-.34-.32-1.36L289,23.88l-.12-.47h0l.87-.09a7.93,7.93,0,0,1,2.24.43C293.47,24.34,293.78,25.6,293.78,27.84Z"/><path class="cls-6" d="M291.85,29.89v6.17a1.28,1.28,0,0,1-.58-.34V29.18a4,4,0,0,0-.14-1.29.13.13,0,0,0,0-.08.52.52,0,0,0-.25-.29c-.27-.13-.64,0-1.11-.23l-.07-.34-.32-1.36a4.05,4.05,0,0,1,.67.21C291.53,26.38,291.85,27.65,291.85,29.89Z"/><path class="cls-7" d="M292,23.74a7.93,7.93,0,0,0-2.24-.43l-.87.09h0l.12.47.12.51h0a7.66,7.66,0,0,1,2.24.43c1.51.6,1.83,1.86,1.83,4.1V36a1.09,1.09,0,0,0,.62-.49V27.84C293.78,25.6,293.47,24.34,292,23.74Z"/><path class="cls-8" d="M288,24.51a4,4,0,0,0,1.92,3c1.06.61,1.92.25,1.92-.81a2.19,2.19,0,0,0,0-.36,4.19,4.19,0,0,0-1.89-2.68l-.23-.11C288.75,23.14,288,23.52,288,24.51Z"/><path class="cls-6" d="M291.45,26.5a.92.92,0,0,1-.22.64c-.27.3-.74.32-1.3,0a3.21,3.21,0,0,1-1.52-2.4c0-.78.58-1.09,1.34-.73a1,1,0,0,1,.18.09,1.2,1.2,0,0,1,.21.13,3.29,3.29,0,0,1,1.28,2A1.09,1.09,0,0,1,291.45,26.5Z"/><path class="cls-9" d="M291.45,26.5a.92.92,0,0,1-.22.64,3.11,3.11,0,0,1-1.3-2.25,1,1,0,0,1,.21-.66,3.29,3.29,0,0,1,1.28,2A1.09,1.09,0,0,1,291.45,26.5Z"/><polygon class="cls-27" points="271.95 60.5 234.19 82.32 234.19 70.16 263.12 53.61 271.95 60.5"/><path class="cls-41" d="M196.41,81.67c0,2.63.91,4.51,2.43,5.53,2,1.37,6.4,3.73,6.4,3.73,6.12-3.54,18.16-15.82,18.16-22,0-2.67-5.74-4.68-7.3-5.69-2-1.31-5.13-1.11-8.59.88C201.38,67.72,196.41,75.55,196.41,81.67Z"/><path class="cls-13" d="M202.42,85.18c0,6.12,5,8.22,11.09,4.68s11.09-11.37,11.09-17.5-5-8.22-11.09-4.69S202.42,79,202.42,85.18Z"/><path class="cls-42" d="M203.5,85.68c0,2.62.91,4.5,2.43,5.52,2,1.37,6.39,3.73,6.39,3.73,6.13-3.53,18.17-15.82,18.17-22,0-2.67-5.74-4.68-7.31-5.69-2-1.31-5.12-1.11-8.59.89C208.47,71.71,203.5,79.55,203.5,85.68Z"/><path class="cls-13" d="M209.5,89.17c0,6.13,5,8.23,11.1,4.7s11.09-11.38,11.09-17.51-5-8.22-11.09-4.69S209.5,83.05,209.5,89.17Z"/><path class="cls-43" d="M212.78,86.69c0,4.07,3.3,5.46,7.36,3.11s7.37-7.54,7.37-11.61-3.3-5.46-7.37-3.12S212.78,82.62,212.78,86.69Z"/><path class="cls-15" d="M213.23,87c0,4.07,3.3,5.46,7.37,3.11S228,82.59,228,78.52s-3.3-5.46-7.36-3.12S213.23,83,213.23,87Z"/><path class="cls-44" d="M227.2,79c0,3.66-2.95,8.32-6.61,10.43s-6.61.85-6.61-2.79a6.51,6.51,0,0,1,.12-1.24,14.32,14.32,0,0,1,6.49-9.19c.27-.15.54-.29.79-.4C224.66,74.24,227.2,75.57,227.2,79Z"/><path class="cls-17" d="M224,78.57v.06c0,2.76-2.23,6.29-5,7.88a5.38,5.38,0,0,1-1.47.63c-1.54.42-2.76-.06-3.25-1.3a1.89,1.89,0,0,1-.17-.49,8.74,8.74,0,0,1,.37-1.51,14.81,14.81,0,0,1,5.19-7.06,10.73,10.73,0,0,1,.93-.62c.23-.12.44-.24.66-.34l.13-.06C222.92,75.7,224,76.71,224,78.57Z"/><path class="cls-45" d="M223.54,77.88c0,2.71-3.42,7.65-6.14,9.25l0,0-.11,0a1.5,1.5,0,0,1-.36-.11l-.14-.06a16,16,0,0,1-2.48-1.11,1.89,1.89,0,0,1-.17-.49,8.74,8.74,0,0,1,.37-1.51,14.81,14.81,0,0,1,5.19-7.06,10.73,10.73,0,0,1,.93-.62c.23-.12.44-.24.66-.34a17.13,17.13,0,0,1,2,1.74v0Z"/><path class="cls-8" d="M224.17,79.7c0,2.38-1.93,5.42-4.31,6.8s-4.31.55-4.31-1.82a4.43,4.43,0,0,1,.07-.81,9.35,9.35,0,0,1,4.24-6c.17-.1.35-.19.51-.27C222.51,76.62,224.17,77.49,224.17,79.7Z"/><path class="cls-46" d="M222.12,81.12a4.37,4.37,0,0,1-2.1,3.32c-1.15.66-2.1.27-2.1-.89a1.87,1.87,0,0,1,0-.4A4.48,4.48,0,0,1,220,80.24l.25-.14C221.31,79.62,222.12,80.05,222.12,81.12Z"/><path class="cls-17" d="M220.33,81.4a1.74,1.74,0,0,1-.85,1.33c-.46.27-.84.11-.84-.35a1,1,0,0,1,0-.17,1.81,1.81,0,0,1,.82-1.16l.1-.06C220,80.8,220.33,81,220.33,81.4Z"/><path class="cls-47" d="M170.93,96.38c0,2.63.91,4.51,2.43,5.53,2,1.37,6.39,3.73,6.39,3.73,6.13-3.54,18.17-15.83,18.17-22,0-2.67-5.74-4.68-7.3-5.69-2-1.31-5.13-1.11-8.59.88C175.9,82.42,170.93,90.26,170.93,96.38Z"/><path class="cls-13" d="M176.93,99.88c0,6.13,5,8.23,11.1,4.69s11.09-11.37,11.09-17.5-5-8.22-11.09-4.69S176.93,93.75,176.93,99.88Z"/><path class="cls-48" d="M178,100.39c0,2.62.91,4.5,2.43,5.52,2,1.37,6.39,3.73,6.39,3.73C193,106.11,205,93.82,205,87.69,205,85,199.27,83,197.7,82c-2-1.31-5.12-1.11-8.59.89C183,86.42,178,94.26,178,100.39Z"/><path class="cls-13" d="M184,103.88c0,6.13,5,8.23,11.1,4.7s11.09-11.38,11.09-17.51-5-8.22-11.09-4.69S184,97.76,184,103.88Z"/><path class="cls-49" d="M187.3,101.4c0,4.07,3.29,5.46,7.36,3.11S202,97,202,92.9s-3.29-5.46-7.36-3.12S187.3,97.33,187.3,101.4Z"/><path class="cls-15" d="M187.75,101.73c0,4.07,3.3,5.46,7.37,3.11s7.36-7.54,7.36-11.61-3.3-5.46-7.36-3.12S187.75,97.66,187.75,101.73Z"/><path class="cls-50" d="M201.72,93.66c0,3.66-3,8.32-6.61,10.43s-6.6.85-6.6-2.8a6.47,6.47,0,0,1,.11-1.23,14.32,14.32,0,0,1,6.49-9.19c.27-.15.53-.29.78-.4C199.18,89,201.72,90.28,201.72,93.66Z"/><path class="cls-17" d="M198.51,93.28v0c0,2.77-2.24,6.3-5,7.89a5.71,5.71,0,0,1-1.47.63c-1.54.42-2.77-.06-3.26-1.3a1.88,1.88,0,0,1-.16-.49,10.65,10.65,0,0,1,.36-1.51,14.9,14.9,0,0,1,5.2-7.06,10.73,10.73,0,0,1,.93-.62c.23-.13.45-.24.66-.34l.12-.06C197.44,90.4,198.49,91.42,198.51,93.28Z"/><path class="cls-51" d="M198.06,92.59c0,2.71-3.43,7.65-6.14,9.25l0,0-.12,0a1.12,1.12,0,0,1-.35-.12.48.48,0,0,1-.14,0,16.9,16.9,0,0,1-2.49-1.11,1.88,1.88,0,0,1-.16-.49,10.65,10.65,0,0,1,.36-1.51,14.9,14.9,0,0,1,5.2-7.06,10.73,10.73,0,0,1,.93-.62c.23-.13.45-.24.66-.34a18,18,0,0,1,2,1.74v0Z"/><path class="cls-8" d="M198.69,94.41c0,2.38-1.93,5.42-4.31,6.8s-4.32.55-4.32-1.82a4.45,4.45,0,0,1,.08-.81,9.29,9.29,0,0,1,4.24-6l.51-.27C197,91.33,198.69,92.2,198.69,94.41Z"/><path class="cls-52" d="M196.64,95.83a4.38,4.38,0,0,1-2.1,3.32c-1.16.66-2.1.26-2.1-.89a1.87,1.87,0,0,1,0-.4,4.53,4.53,0,0,1,2.06-2.92l.25-.13C195.84,94.33,196.64,94.76,196.64,95.83Z"/><path class="cls-17" d="M194.85,96.11a1.75,1.75,0,0,1-.84,1.33c-.47.26-.85.11-.85-.36a1,1,0,0,1,0-.16,1.79,1.79,0,0,1,.83-1.16l.1-.06C194.52,95.51,194.85,95.68,194.85,96.11Z"/><path class="cls-53" d="M223.57,68.92c-.27-2.59-.4.19-.4.19-3-2-9.76-6.28-9.8-6.26L212.8,61c.21-.07,5.27-1.63,9,.81a8,8,0,0,1,.74.56c.79.68,9.36,5.29,9.83,6.3s-7.08-1.42-6.93,0Z"/><path class="cls-54" d="M225.45,68.72l7.91,6.46a3.11,3.11,0,0,0-.29-3.78c-1.58-2.11-5-3.88-5.88-3.49S225.45,68.72,225.45,68.72Z"/><path class="cls-55" d="M233.36,75.18c-.27-2.59-1.21-4.43-2.79-5.47-3-2-7.36-.61-7.4-.6l-.58-1.8c.21-.07,5.27-1.64,9,.81,2.09,1.36,3.32,3.67,3.65,6.86Z"/><polygon class="cls-56" points="222.59 67.31 212.8 61.05 213.37 62.85 223.17 69.11 222.59 67.31"/><polygon class="cls-32" points="177.82 106.67 203.19 120.86 276.39 70.67 251.04 55.2 188.54 91.3 177.82 101.5 177.82 106.67"/><polygon class="cls-57" points="188.54 91.3 213.9 106.7 203.19 116.97 177.82 101.5 188.54 91.3"/><polygon class="cls-58" points="205.24 118.3 179.88 102.83 179.88 108.01 205.24 123.48 205.24 118.3"/><polygon class="cls-33" points="203.19 122.14 276.39 79.13 276.39 70.66 213.9 106.7 203.19 116.97 203.19 122.14"/><path class="cls-54" d="M264.47,91.28l7.91,6.46a3.11,3.11,0,0,0-.29-3.78c-1.58-2.1-5-3.87-5.88-3.48Z"/><path class="cls-59" d="M235.91,104.78c0,2.62.91,4.5,2.43,5.53,2,1.36,6.4,3.72,6.4,3.72,6.12-3.53,18.16-15.82,18.16-22,0-2.67-5.74-4.68-7.3-5.69-2-1.31-5.13-1.11-8.59.89C240.88,90.81,235.91,98.65,235.91,104.78Z"/><path class="cls-13" d="M241.92,108.28c0,6.13,5,8.22,11.09,4.69s11.09-11.37,11.09-17.5-5-8.23-11.09-4.69S241.92,102.15,241.92,108.28Z"/><path class="cls-60" d="M243,108.78c0,2.62.91,4.51,2.43,5.53,2,1.36,6.39,3.73,6.39,3.73C258,114.5,270,102.21,270,96.08c0-2.66-5.74-4.68-7.31-5.69-2-1.31-5.12-1.11-8.59.89C248,94.82,243,102.65,243,108.78Z"/><path class="cls-61" d="M262.58,91.48c-.26-2.59-.4.2-.4.2-3-2-9.75-6.28-9.79-6.27l-.58-1.8c.21-.07,5.27-1.64,9,.81a6.76,6.76,0,0,1,.74.55c.8.68,9.36,5.29,9.84,6.31s-7.08-1.43-6.93,0Z"/><path class="cls-25" d="M272.38,97.74c-.27-2.59-1.21-4.43-2.8-5.47-3-2-7.36-.61-7.4-.59l-.57-1.81c.21-.07,5.27-1.63,9,.81,2.08,1.37,3.31,3.68,3.64,6.87Z"/><polygon class="cls-62" points="261.61 89.87 251.81 83.61 252.39 85.41 262.18 91.68 261.61 89.87"/><path class="cls-13" d="M249,112.28c0,6.12,5,8.23,11.1,4.69s11.09-11.38,11.09-17.5-5-8.23-11.09-4.69S249,106.15,249,112.28Z"/><path class="cls-63" d="M252.28,109.79c0,4.07,3.29,5.46,7.36,3.11s7.37-7.54,7.37-11.61-3.3-5.46-7.37-3.11S252.28,105.73,252.28,109.79Z"/><path class="cls-15" d="M252.73,110.12c0,4.07,3.3,5.46,7.37,3.12s7.36-7.55,7.36-11.62-3.3-5.46-7.36-3.11S252.73,106.06,252.73,110.12Z"/><path class="cls-64" d="M266.7,102.06c0,3.65-2.95,8.31-6.61,10.42s-6.61.85-6.61-2.79a6.59,6.59,0,0,1,.12-1.24,14.28,14.28,0,0,1,6.49-9.18,6.64,6.64,0,0,1,.79-.41C264.16,97.35,266.7,98.67,266.7,102.06Z"/><path class="cls-17" d="M263.49,101.68v0c0,2.77-2.23,6.29-5,7.88a5.76,5.76,0,0,1-1.47.64c-1.54.41-2.76-.07-3.26-1.3a2.66,2.66,0,0,1-.16-.5A8.42,8.42,0,0,1,254,107a14.77,14.77,0,0,1,5.19-7.07c.3-.22.62-.42.93-.61l.66-.35.13-.06C262.42,98.8,263.47,99.81,263.49,101.68Z"/><path class="cls-65" d="M263,101c0,2.7-3.43,7.64-6.14,9.24,0,0,0,0,0,0l-.11,0a1.15,1.15,0,0,1-.36-.11l-.14,0a18.75,18.75,0,0,1-2.49-1.11,2.66,2.66,0,0,1-.16-.5A8.42,8.42,0,0,1,254,107a14.77,14.77,0,0,1,5.19-7.07c.3-.22.62-.42.93-.61l.66-.35a18,18,0,0,1,2,1.75h0Z"/><path class="cls-8" d="M263.67,102.8c0,2.38-1.93,5.43-4.31,6.8s-4.31.55-4.31-1.82a4.51,4.51,0,0,1,.07-.81,9.35,9.35,0,0,1,4.24-6,4.92,4.92,0,0,1,.51-.26C262,99.73,263.67,100.59,263.67,102.8Z"/><path class="cls-66" d="M261.62,104.23a4.37,4.37,0,0,1-2.1,3.31c-1.15.66-2.1.27-2.1-.89a1.72,1.72,0,0,1,0-.39,4.53,4.53,0,0,1,2.06-2.92,2,2,0,0,1,.25-.13C260.81,102.73,261.62,103.15,261.62,104.23Z"/><path class="cls-17" d="M259.83,104.51a1.72,1.72,0,0,1-.85,1.32c-.46.27-.84.11-.84-.35a.88.88,0,0,1,0-.16,1.83,1.83,0,0,1,.82-1.17l.07,0C259.5,103.9,259.83,104.07,259.83,104.51Z"/><polygon class="cls-67" points="206.12 82.01 233.62 66.14 249.36 75.08 221.85 90.96 206.12 82.01"/><path class="cls-32" d="M237.57,76.17c0,3.37-4.2,6.11-9.38,6.11s-9.38-2.74-9.38-6.11,4.2-6.11,9.38-6.11S237.57,72.79,237.57,76.17Z"/><polygon class="cls-57" points="221 90.53 248.5 74.65 250.17 77.92 219.34 95.72 221 90.53"/><polygon class="cls-33" points="205.26 81.59 221 90.53 219.34 95.72 203.6 86.77 205.26 81.59"/><path class="cls-68" d="M223.13,75.21V77.9c0,1.82,2.27,3.29,5.06,3.29s5.05-1.47,5.05-3.29V75.05Z"/><path class="cls-69" d="M218.81,72.67v1.2c0,3.37,4.2,6.1,9.38,6.1s9.38-2.73,9.38-6.1v-1.5Z"/><path class="cls-70" d="M237.57,72.67c0,3.37-4.2,6.11-9.38,6.11s-9.38-2.74-9.38-6.11,4.2-6.1,9.38-6.1S237.57,69.3,237.57,72.67Z"/><path class="cls-71" d="M210.43,119.49c0,2.62.91,4.5,2.43,5.53,2,1.36,6.39,3.72,6.39,3.72,6.13-3.53,18.17-15.82,18.17-22,0-2.67-5.74-4.68-7.3-5.69-2-1.31-5.13-1.11-8.59.89C215.4,105.52,210.43,113.36,210.43,119.49Z"/><path class="cls-13" d="M216.43,123c0,6.13,5,8.23,11.1,4.7s11.1-11.37,11.1-17.5-5-8.23-11.1-4.69S216.43,116.86,216.43,123Z"/><path class="cls-72" d="M217.52,123.49c0,2.62.91,4.5,2.43,5.53,2,1.36,6.39,3.73,6.39,3.73,6.13-3.54,18.17-15.83,18.17-22,0-2.66-5.74-4.68-7.31-5.69-2-1.31-5.12-1.11-8.59.89C222.49,109.53,217.52,117.36,217.52,123.49Z"/><path class="cls-13" d="M223.52,127c0,6.12,5,8.23,11.09,4.69s11.1-11.38,11.1-17.5-5-8.23-11.1-4.69S223.52,120.86,223.52,127Z"/><path class="cls-73" d="M226.8,124.5c0,4.07,3.29,5.46,7.36,3.11s7.36-7.54,7.36-11.61-3.29-5.46-7.36-3.11S226.8,120.44,226.8,124.5Z"/><path class="cls-15" d="M227.25,124.83c0,4.07,3.3,5.46,7.36,3.11S242,120.4,242,116.33s-3.3-5.46-7.37-3.11S227.25,120.77,227.25,124.83Z"/><path class="cls-74" d="M241.22,116.77c0,3.65-3,8.31-6.61,10.42s-6.6.85-6.6-2.79a6.57,6.57,0,0,1,.11-1.24,14.28,14.28,0,0,1,6.49-9.18,7.4,7.4,0,0,1,.78-.41C238.68,112.06,241.22,113.38,241.22,116.77Z"/><path class="cls-17" d="M238,116.39v0c0,2.77-2.24,6.29-5,7.88a5.76,5.76,0,0,1-1.47.64c-1.54.41-2.76-.07-3.26-1.31a1.88,1.88,0,0,1-.16-.49,10.52,10.52,0,0,1,.36-1.5,14.92,14.92,0,0,1,5.2-7.07c.3-.22.62-.42.93-.61l.66-.35.12-.06C236.94,113.51,238,114.52,238,116.39Z"/><path class="cls-75" d="M237.56,115.7c0,2.7-3.43,7.64-6.14,9.24l0,0-.12,0a.91.91,0,0,1-.35-.12l-.14,0a18.29,18.29,0,0,1-2.49-1.12,1.88,1.88,0,0,1-.16-.49,10.52,10.52,0,0,1,.36-1.5,14.92,14.92,0,0,1,5.2-7.07c.3-.22.62-.42.93-.61l.66-.35a17.91,17.91,0,0,1,2,1.75h0Z"/><path class="cls-8" d="M238.19,117.51c0,2.38-1.93,5.42-4.31,6.8s-4.32.55-4.32-1.82a4.54,4.54,0,0,1,.08-.81,9.31,9.31,0,0,1,4.24-6l.51-.27C236.53,114.44,238.19,115.3,238.19,117.51Z"/><path class="cls-76" d="M236.14,118.94a4.37,4.37,0,0,1-2.1,3.31c-1.16.66-2.1.27-2.1-.89a1.72,1.72,0,0,1,0-.39,4.53,4.53,0,0,1,2.06-2.92,1.49,1.49,0,0,1,.25-.13C235.34,117.44,236.14,117.86,236.14,118.94Z"/><path class="cls-17" d="M234.35,119.22a1.75,1.75,0,0,1-.84,1.32c-.47.27-.85.11-.85-.35a.88.88,0,0,1,0-.16,1.81,1.81,0,0,1,.83-1.17l.09,0C234,118.61,234.35,118.78,234.35,119.22Z"/><polygon class="cls-77" points="207.05 121.55 209.34 120.37 168.43 95.95 166.14 97.13 207.05 121.55"/><polygon class="cls-78" points="207.05 128.03 209.34 126.86 209.34 120.37 207.05 121.55 207.05 128.03"/><polygon class="cls-79" points="166.14 97.13 207.05 121.55 207.05 128.03 166.14 103.62 166.14 97.13"/><polygon class="cls-80" points="270.52 41.19 268.45 53.92 268.45 65.03 266.45 66.14 264.51 75.19 274.06 69.48 272.6 39.99 270.52 41.19"/><polygon class="cls-6" points="245.14 51.55 268.45 65.03 266.45 66.14 243.15 52.66 245.14 51.55"/><polygon class="cls-79" points="245.14 51.55 268.45 65.03 268.45 53.92 245.14 40.44 245.14 51.55"/><polygon class="cls-81" points="247.22 27.73 270.52 41.2 268.45 53.92 245.14 40.44 247.22 27.73"/><polygon class="cls-79" points="241.07 61.19 264.6 75.11 266.45 66.14 243.15 52.66 241.07 61.19"/><polygon class="cls-6" points="272.6 39.99 270.52 41.2 247.22 27.73 249.29 26.51 272.6 39.99"/><polygon class="cls-82" points="201.52 120.42 202.91 119.69 199.2 117.53 197.81 118.27 201.52 120.42"/><polygon class="cls-83" points="201.52 125.73 202.91 124.99 202.91 119.69 201.52 120.42 201.52 125.73"/><polygon class="cls-84" points="197.81 118.27 201.52 120.42 201.52 125.73 197.81 123.57 197.81 118.27"/><polygon class="cls-85" points="203.03 121.29 204.42 120.55 202.87 119.66 201.49 120.4 203.03 121.29"/><polygon class="cls-83" points="203.03 126.6 204.42 125.85 204.42 120.55 203.03 121.29 203.03 126.6"/><polygon class="cls-86" points="201.49 120.4 203.03 121.29 203.03 126.6 201.49 125.7 201.49 120.4"/><polygon class="cls-87" points="204.5 122.15 205.89 121.41 204.34 120.52 202.95 121.25 204.5 122.15"/><polygon class="cls-83" points="204.5 127.45 205.89 126.71 205.89 121.41 204.5 122.15 204.5 127.45"/><polygon class="cls-88" points="202.95 121.25 204.5 122.15 204.5 127.45 202.95 126.56 202.95 121.25"/><polygon class="cls-87" points="166.59 99.49 167.97 98.75 166.43 97.86 165.04 98.59 166.59 99.49"/><polygon class="cls-83" points="166.59 104.79 167.97 104.05 167.97 98.75 166.59 99.49 166.59 104.79"/><polygon class="cls-88" points="165.04 98.59 166.59 99.49 166.59 104.79 165.04 103.9 165.04 98.59"/><polygon class="cls-85" points="168.12 100.36 169.51 99.62 167.96 98.72 166.58 99.46 168.12 100.36"/><polygon class="cls-83" points="168.12 105.66 169.51 104.92 169.51 99.62 168.12 100.36 168.12 105.66"/><polygon class="cls-86" points="166.58 99.46 168.12 100.36 168.12 105.66 166.58 104.77 166.58 99.46"/><polygon class="cls-82" points="171.84 102.51 173.22 101.77 169.52 99.62 168.13 100.36 171.84 102.51"/><polygon class="cls-89" points="171.84 107.81 173.22 107.07 173.22 101.77 171.84 102.51 171.84 107.81"/><polygon class="cls-84" points="168.13 100.36 171.84 102.51 171.84 107.81 168.13 105.66 168.13 100.36"/><path class="cls-90" d="M186.34,116.83a2.64,2.64,0,0,1-1.23-2V111c0-.74.55-1,1.23-.62l9.08,5.31a2.65,2.65,0,0,1,1.22,2v3.77c0,.73-.55,1-1.22.62Z"/><path class="cls-91" d="M186,117a2.67,2.67,0,0,1-1.23-2v-3.77c0-.74.55-1,1.23-.62l9.08,5.3a2.7,2.7,0,0,1,1.23,2.06v3.76c0,.74-.55,1-1.23.63Z"/><path class="cls-92" d="M195.06,122,186,116.7a2.15,2.15,0,0,1-1-1.67v-3.76c0-.6.44-.83,1-.51l9.08,5.31a2.15,2.15,0,0,1,1,1.67v3.76C196.06,122.1,195.61,122.32,195.06,122Z"/><path class="cls-93" d="M196.05,117.71a2.14,2.14,0,0,0-1-1.64L186,110.76c-.54-.31-1-.09-1,.49Z"/><path class="cls-93" d="M185,115.06a2.17,2.17,0,0,0,1,1.64l9.08,5.31c.54.31,1,.09,1-.49Z"/><polygon class="cls-79" points="42.31 182.7 83.42 206.44 83.42 200.66 42.31 176.93 42.31 182.7"/><polygon class="cls-78" points="83.42 206.44 84.43 205.86 84.43 200.08 83.42 200.66 83.42 206.44"/><polygon class="cls-77" points="43.31 176.34 84.43 200.08 83.42 200.66 42.31 176.93 43.31 176.34"/><path class="cls-94" d="M55.2,182.35l-9.1-5.08c1.08-11.7,11.38-20.43,11.82-20.8l.14-.1,34.86-20.1c.22-.06,5.3-1.64,9,.81,1,.67,8.5,4,9.1,5.08s-5.6.17-5.43,1.83l-1.9.19c-.27-2.61-.42-2-1.41-1.84-3.26.52-2.47,1.67-3.11,1.85L67.69,162.76C66.86,163.49,56.17,171.88,55.2,182.35Z"/><path class="cls-95" d="M103.74,144.18l9.1,5.08s1-2.81,0-3.66-3.67-4.37-6.19-4.19-3.27,1-3.27,1Z"/><path class="cls-96" d="M57.1,182.52l-1.9-.17c1.08-11.7,11.38-20.43,11.82-20.8l.13-.1L102,141.35c.21-.06,5.3-1.64,9,.81,2.1,1.38,3.34,3.7,3.66,6.9l-1.89.2c-.27-2.61-1.21-4.46-2.81-5.5-2.76-1.81-6.7-.8-7.34-.62L68.18,163.06C67.35,163.78,58.06,172.05,57.1,182.52Z"/><polygon class="cls-77" points="200.18 145.4 195.95 147.84 193.19 146.2 197.42 143.76 200.18 145.4"/><polygon class="cls-97" points="147.4 168.85 90.14 201.91 96.36 184.72 138.88 161.05 147.4 168.85"/><path class="cls-98" d="M116.5,182.46c0,2.64.91,4.53,2.44,5.56,2,1.37,6.43,3.74,6.43,3.74,6.16-3.55,18.25-15.9,18.25-22.06,0-2.68-5.77-4.7-7.34-5.72-2-1.31-5.15-1.11-8.63.9C121.49,168.43,116.5,176.3,116.5,182.46Z"/><path class="cls-13" d="M122.53,186c0,6.15,5,8.27,11.15,4.71s11.15-11.43,11.15-17.59-5-8.27-11.15-4.71S122.53,179.82,122.53,186Z"/><path class="cls-99" d="M125.82,183.48c0,4.09,3.32,5.49,7.41,3.13s7.4-7.59,7.4-11.68-3.32-5.48-7.4-3.12S125.82,179.39,125.82,183.48Z"/><path class="cls-15" d="M126.28,183.81c0,4.09,3.31,5.49,7.4,3.13s7.4-7.59,7.4-11.67-3.31-5.49-7.4-3.13S126.28,179.73,126.28,183.81Z"/><path class="cls-100" d="M140.32,175.71c0,3.66-3,8.35-6.64,10.47s-6.64.85-6.64-2.8a7.64,7.64,0,0,1,.11-1.25,14.4,14.4,0,0,1,6.53-9.23c.27-.15.53-.29.79-.41C137.77,171,140.32,172.3,140.32,175.71Z"/><path class="cls-17" d="M137.1,175.33v0c0,2.78-2.25,6.32-5,7.92a5.77,5.77,0,0,1-1.48.63c-1.55.42-2.78-.06-3.27-1.3a2.11,2.11,0,0,1-.17-.5,9.76,9.76,0,0,1,.37-1.51,15,15,0,0,1,5.22-7.1,9.53,9.53,0,0,1,.94-.62c.23-.13.44-.24.66-.34l.13-.07C136,172.43,137.07,173.45,137.1,175.33Z"/><path class="cls-101" d="M136.64,174.63c0,2.72-3.44,7.68-6.17,9.29l0,0-.12,0a1.12,1.12,0,0,1-.35-.12.48.48,0,0,1-.14,0,16.07,16.07,0,0,1-2.5-1.11,2.11,2.11,0,0,1-.17-.5,9.76,9.76,0,0,1,.37-1.51,15,15,0,0,1,5.22-7.1,9.53,9.53,0,0,1,.94-.62c.23-.13.44-.24.66-.34a17.29,17.29,0,0,1,2,1.75h0Z"/><path class="cls-8" d="M137.27,176.46c0,2.39-1.93,5.45-4.33,6.83s-4.33.55-4.33-1.83a4.62,4.62,0,0,1,.07-.82,9.42,9.42,0,0,1,4.26-6,4.2,4.2,0,0,1,.52-.26C135.61,173.36,137.27,174.23,137.27,176.46Z"/><path class="cls-102" d="M135.22,177.89a4.38,4.38,0,0,1-2.11,3.32c-1.17.68-2.12.28-2.12-.89a2.72,2.72,0,0,1,0-.39,4.57,4.57,0,0,1,2.08-2.94l.25-.13C134.4,176.38,135.22,176.8,135.22,177.89Z"/><path class="cls-17" d="M133.41,178.17a1.77,1.77,0,0,1-.84,1.33c-.47.27-.85.11-.85-.36a.92.92,0,0,1,0-.16,1.82,1.82,0,0,1,.84-1.17l.09-.05C133.08,177.56,133.41,177.73,133.41,178.17Z"/><path class="cls-103" d="M90.89,197.09c0,2.64.92,4.53,2.44,5.56,2,1.37,6.43,3.74,6.43,3.74,6.16-3.55,18.26-15.9,18.26-22.06,0-2.68-5.77-4.7-7.35-5.71-2-1.32-5.15-1.12-8.62.89C95.89,183.06,90.89,190.94,90.89,197.09Z"/><path class="cls-13" d="M96.92,200.61c0,6.16,5,8.27,11.16,4.71s11.14-11.43,11.14-17.58-5-8.27-11.14-4.72S96.92,194.45,96.92,200.61Z"/><path class="cls-104" d="M100.22,198.11c0,4.09,3.31,5.49,7.4,3.13s7.4-7.58,7.4-11.67-3.32-5.49-7.4-3.13S100.22,194,100.22,198.11Z"/><path class="cls-15" d="M100.68,198.45c0,4.08,3.31,5.48,7.4,3.13s7.4-7.59,7.4-11.68-3.32-5.48-7.4-3.13S100.68,194.36,100.68,198.45Z"/><path class="cls-105" d="M114.71,190.34c0,3.67-3,8.35-6.64,10.48s-6.64.85-6.64-2.81a6.78,6.78,0,0,1,.12-1.25,14.37,14.37,0,0,1,6.52-9.23,8.39,8.39,0,0,1,.79-.4C112.16,185.6,114.71,186.94,114.71,190.34Z"/><path class="cls-17" d="M111.49,190v0c0,2.78-2.25,6.33-5,7.93a6.08,6.08,0,0,1-1.47.63c-1.55.42-2.78-.07-3.28-1.31a2,2,0,0,1-.16-.5,9.33,9.33,0,0,1,.36-1.5,15,15,0,0,1,5.22-7.1c.31-.23.63-.44.94-.63l.66-.34.09-.05C110.41,187.06,111.46,188.08,111.49,190Z"/><path class="cls-106" d="M111,189.26c0,2.72-3.44,7.68-6.17,9.3l0,0-.11,0a1.52,1.52,0,0,1-.36-.12.48.48,0,0,1-.14-.05,18.33,18.33,0,0,1-2.5-1.12,2,2,0,0,1-.16-.5,9.33,9.33,0,0,1,.36-1.5,15,15,0,0,1,5.22-7.1c.31-.23.63-.44.94-.63l.66-.34a18.31,18.31,0,0,1,2,1.75v0Z"/><path class="cls-8" d="M111.67,191.09c0,2.39-1.94,5.45-4.34,6.83s-4.33.56-4.33-1.83a4.45,4.45,0,0,1,.08-.81,9.32,9.32,0,0,1,4.25-6l.52-.27C110,188,111.67,188.87,111.67,191.09Z"/><path class="cls-107" d="M109.61,192.52a4.39,4.39,0,0,1-2.11,3.33c-1.16.67-2.11.27-2.11-.9a2.66,2.66,0,0,1,0-.39,4.55,4.55,0,0,1,2.08-2.93,1.49,1.49,0,0,1,.25-.13C108.8,191,109.61,191.44,109.61,192.52Z"/><path class="cls-17" d="M107.8,192.8a1.73,1.73,0,0,1-.84,1.33c-.47.27-.85.11-.85-.35a.88.88,0,0,1,0-.16,1.8,1.8,0,0,1,.83-1.18l.1-.05C107.48,192.2,107.8,192.37,107.8,192.8Z"/><path class="cls-94" d="M91,203.33l-9.11-5.08c1.09-11.7,11.39-20.44,11.82-20.8l.14-.1,34.86-20.1c.22-.07,5.3-1.65,9,.81,1,.67,8.5,4,9.11,5.08s-5.61.17-5.44,1.82l-1.9.2c-.27-2.61-.41-2-1.41-1.84-3.26.52-2.46,1.67-3.11,1.85l-31.53,18.57C102.65,184.46,92,192.86,91,203.33Z"/><polygon class="cls-97" points="198.62 126.48 90.19 189.16 90.19 183.96 198.62 121.29 198.62 126.48"/><polygon class="cls-79" points="196.33 146.83 194.82 145.94 194.82 124.44 196.33 125.33 196.33 146.83"/><polygon class="cls-77" points="196.18 130.24 151.99 157.26 151.99 154.39 195.01 129.47 196.18 130.24"/><polygon class="cls-77" points="196.18 137.53 151.99 164.54 151.99 161.67 195.01 136.75 196.18 137.53"/><polygon class="cls-97" points="90.19 183.96 55.2 163.71 55.2 168.91 90.19 189.16 90.19 183.96"/><path class="cls-108" d="M139.53,165.16l9.11,5.08s1-2.81,0-3.66-3.68-4.37-6.19-4.19-3.28,1-3.28,1Z"/><path class="cls-96" d="M92.89,203.5,91,203.33c1.08-11.7,11.37-20.44,11.81-20.81l.14-.09,34.86-20.1c.22-.07,5.31-1.65,9.06.81,2.1,1.38,3.33,3.7,3.66,6.9l-1.89.2c-.28-2.61-1.22-4.46-2.82-5.51-2.76-1.8-6.7-.79-7.34-.61L104,184C103.15,184.76,93.86,193,92.89,203.5Z"/><polygon class="cls-78" points="196.18 133.12 153.16 158.04 153.16 155.17 196.18 130.24 196.18 133.12"/><polygon class="cls-78" points="196.18 140.4 153.16 165.32 153.16 162.44 196.18 137.53 196.18 140.4"/><polygon class="cls-78" points="154.88 167.81 152.71 169.06 152.71 150.37 154.88 149.11 154.88 167.81"/><polygon class="cls-78" points="198.5 145.58 196.33 146.83 196.33 125.33 198.5 124.08 198.5 145.58"/><polygon class="cls-78" points="200.18 146.67 195.95 149.11 195.95 147.84 200.18 145.4 200.18 146.67"/><polygon class="cls-79" points="152.71 168.85 151.2 168.17 151.2 149.47 152.71 150.37 152.71 168.85"/><polygon class="cls-109" points="79.94 198.54 80.59 198.16 80.59 193.97 79.94 194.35 79.94 198.54"/><polygon class="cls-110" points="79.94 198.54 79.2 198.11 79.2 193.92 79.94 194.35 79.94 198.54"/><polygon class="cls-111" points="80.59 193.97 79.94 194.35 79.2 193.92 79.85 193.54 80.59 193.97"/><polygon class="cls-109" points="68.94 192.17 69.6 191.79 69.6 187.59 68.94 187.98 68.94 192.17"/><polygon class="cls-110" points="68.94 192.17 68.2 191.74 68.2 187.55 68.94 187.98 68.94 192.17"/><polygon class="cls-111" points="69.6 187.59 68.94 187.98 68.2 187.55 68.86 187.17 69.6 187.59"/><polygon class="cls-109" points="57.95 185.8 58.6 185.42 58.6 181.22 57.95 181.61 57.95 185.8"/><polygon class="cls-110" points="57.95 185.8 57.2 185.37 57.2 181.18 57.95 181.61 57.95 185.8"/><polygon class="cls-111" points="58.6 181.22 57.95 181.61 57.2 181.18 57.86 180.8 58.6 181.22"/><polygon class="cls-109" points="46.95 179.43 47.6 179.04 47.6 174.85 46.95 175.24 46.95 179.43"/><polygon class="cls-110" points="46.95 179.43 46.21 179 46.21 174.81 46.95 175.24 46.95 179.43"/><polygon class="cls-111" points="47.6 174.85 46.95 175.24 46.21 174.81 46.86 174.42 47.6 174.85"/><polygon class="cls-77" points="82.38 190.48 86.13 188.32 45.01 164.58 41.26 166.74 82.38 190.48"/><polygon class="cls-78" points="82.38 197 86.13 194.84 86.13 188.32 82.38 190.48 82.38 197"/><polygon class="cls-79" points="41.26 166.74 82.38 190.48 82.38 197 41.26 173.26 41.26 166.74"/><polygon class="cls-112" points="234.16 4.99 275.28 28.73 83.53 139.42 42.41 115.68 234.16 4.99"/><polygon class="cls-113" points="275.28 65.09 216.6 98.96 212.06 116.09 83.53 190.28 83.53 139.42 275.28 28.73 275.28 65.09"/><polygon class="cls-114" points="87.08 141.47 271.72 34.89 271.72 63.04 213.54 96.62 209 113.75 87.08 184.12 87.08 141.47"/><polygon class="cls-112" points="269.76 36.02 269.76 62.02 211.59 95.6 207.04 112.73 87.08 181.98 87.08 184.12 209 113.75 213.54 96.62 271.72 63.04 271.72 34.89 269.76 36.02"/><polygon class="cls-10" points="83.53 190.29 42.41 166.55 42.41 115.68 83.53 139.42 83.53 190.29"/><path class="cls-115" d="M82.21,187.51,43.73,165.3V118.45l38.48,22.22ZM44.72,164.72l36.5,21.08V141.24l-36.5-21.07Z"/><rect class="cls-115" x="61.28" y="129.19" width="0.99" height="46.64"/><polygon class="cls-116" points="55.87 166.21 59.56 168.42 59.56 171.19 55.87 168.98 55.87 166.21"/><polygon class="cls-117" points="60.2 168.05 59.56 168.42 59.56 171.19 60.2 170.83 60.2 168.05"/><polygon class="cls-118" points="56.51 165.84 55.87 166.21 59.56 168.42 60.2 168.05 56.51 165.84"/><polygon class="cls-116" points="63.5 170.52 67.19 172.74 67.19 175.51 63.5 173.3 63.5 170.52"/><polygon class="cls-117" points="67.82 172.37 67.19 172.74 67.19 175.51 67.82 175.15 67.82 172.37"/><polygon class="cls-118" points="64.13 170.16 63.5 170.52 67.19 172.74 67.82 172.37 64.13 170.16"/><polygon class="cls-116" points="55.87 130.07 59.56 132.28 59.56 135.06 55.87 132.85 55.87 130.07"/><polygon class="cls-117" points="60.2 131.91 59.56 132.28 59.56 135.06 60.2 134.69 60.2 131.91"/><polygon class="cls-118" points="56.51 129.7 55.87 130.07 59.56 132.28 60.2 131.91 56.51 129.7"/><polygon class="cls-116" points="63.5 134.39 67.19 136.6 67.19 139.38 63.5 137.16 63.5 134.39"/><polygon class="cls-117" points="67.82 136.24 67.19 136.6 67.19 139.38 67.82 139.01 67.82 136.24"/><polygon class="cls-118" points="64.13 134.02 63.5 134.39 67.19 136.6 67.82 136.24 64.13 134.02"/><polygon class="cls-116" points="77.92 143.69 81.61 145.91 81.61 147.3 77.92 145.08 77.92 143.69"/><polygon class="cls-117" points="82.24 145.54 81.61 145.91 81.61 147.3 82.24 146.93 82.24 145.54"/><polygon class="cls-118" points="78.55 143.33 77.92 143.69 81.61 145.91 82.24 145.54 78.55 143.33"/><polygon class="cls-116" points="77.92 179.81 81.61 182.02 81.61 183.41 77.92 181.19 77.92 179.81"/><polygon class="cls-117" points="82.24 181.66 81.61 182.02 81.61 183.41 82.24 183.04 82.24 181.66"/><polygon class="cls-118" points="78.55 179.44 77.92 179.81 81.61 182.02 82.24 181.66 78.55 179.44"/><polygon class="cls-116" points="43.69 123.87 47.39 126.08 47.39 127.47 43.69 125.26 43.69 123.87"/><polygon class="cls-117" points="48.02 125.71 47.39 126.08 47.39 127.47 48.02 127.1 48.02 125.71"/><polygon class="cls-118" points="44.33 123.5 43.69 123.87 47.39 126.08 48.02 125.71 44.33 123.5"/><polygon class="cls-116" points="43.69 159.98 47.39 162.19 47.39 163.58 43.69 161.37 43.69 159.98"/><polygon class="cls-117" points="48.02 161.83 47.39 162.19 47.39 163.58 48.02 163.21 48.02 161.83"/><polygon class="cls-118" points="44.33 159.62 43.69 159.98 47.39 162.19 48.02 161.83 44.33 159.62"/><polygon class="cls-119" points="64.78 131.28 65.66 131.81 65.66 178.61 64.78 178.08 64.78 131.28"/><polygon class="cls-120" points="66.29 131.44 65.66 131.81 65.66 178.61 66.29 178.25 66.29 131.44"/><polygon class="cls-121" points="65.41 130.91 64.78 131.28 65.66 131.81 66.29 131.44 65.41 130.91"/><polygon class="cls-119" points="57.28 126.96 58.16 127.5 58.16 174.48 57.28 173.95 57.28 126.96"/><polygon class="cls-120" points="58.79 127.13 58.16 127.5 58.16 174.48 58.79 174.11 58.79 127.13"/><polygon class="cls-121" points="57.91 126.6 57.28 126.96 58.16 127.5 58.79 127.13 57.91 126.6"/><polygon class="cls-79" points="193.19 146.2 195.95 147.84 195.95 149.11 193.19 147.47 193.19 146.2"/><polygon class="cls-87" points="43.26 179.94 44.65 179.19 43.09 178.3 41.7 179.04 43.26 179.94"/><polygon class="cls-83" points="43.26 185.27 44.65 184.52 44.65 179.19 43.26 179.94 43.26 185.27"/><polygon class="cls-88" points="41.7 179.04 43.26 179.94 43.26 185.27 41.7 184.37 41.7 179.04"/><polygon class="cls-85" points="44.8 180.81 46.19 180.07 44.64 179.17 43.24 179.91 44.8 180.81"/><polygon class="cls-83" points="44.8 186.14 46.19 185.39 46.19 180.07 44.8 180.81 44.8 186.14"/><polygon class="cls-86" points="43.24 179.91 44.8 180.81 44.8 186.14 43.24 185.24 43.24 179.91"/><polygon class="cls-82" points="48.53 182.97 49.92 182.23 46.2 180.07 44.81 180.81 48.53 182.97"/><polygon class="cls-89" points="48.53 188.3 49.92 187.56 49.92 182.23 48.53 182.97 48.53 188.3"/><polygon class="cls-84" points="44.81 180.81 48.53 182.97 48.53 188.3 44.81 186.14 44.81 180.81"/><polygon class="cls-82" points="78.36 200.18 79.75 199.44 76.03 197.28 74.63 198.02 78.36 200.18"/><polygon class="cls-83" points="78.36 205.51 79.75 204.77 79.75 199.44 78.36 200.18 78.36 205.51"/><polygon class="cls-84" points="74.63 198.02 78.36 200.18 78.36 205.51 74.63 203.35 74.63 198.02"/><polygon class="cls-85" points="79.88 201.06 81.28 200.31 79.72 199.41 78.32 200.16 79.88 201.06"/><polygon class="cls-83" points="79.88 206.38 81.28 205.64 81.28 200.31 79.88 201.06 79.88 206.38"/><polygon class="cls-86" points="78.32 200.16 79.88 201.06 79.88 206.38 78.32 205.48 78.32 200.16"/><polygon class="cls-87" points="81.35 201.91 82.75 201.17 81.19 200.27 79.8 201.01 81.35 201.91"/><polygon class="cls-83" points="81.35 207.24 82.75 206.5 82.75 201.17 81.35 201.91 81.35 207.24"/><polygon class="cls-88" points="79.8 201.01 81.35 201.91 81.35 207.24 79.8 206.34 79.8 201.01"/><path class="cls-112" d="M264.33,30.77l-.58-.32,0,0L228.67,9.74l-62.59,36,35.66,21S264.32,30.71,264.33,30.77Z"/><polygon class="cls-122" points="264.33 30.77 264.33 32.71 201.74 68.54 201.74 66.66 264.33 30.77"/><polygon class="cls-123" points="201.74 66.66 201.74 68.54 166.08 47.34 166.08 45.7 201.74 66.66"/><path class="cls-124" d="M235.65,21.48l9.57,7.38h0L215.55,13,168.8,42.6l12.94,7.57S235.64,21.44,235.65,21.48Z"/><path class="cls-112" d="M251.32,26.9l-.49-.27h0L221.16,9.12,178.71,33.54l30.16,17.73S251.32,26.86,251.32,26.9Z"/><polygon class="cls-122" points="251.32 26.91 262.2 30.96 205.2 63.67 208.87 51.27 251.32 26.91"/><polygon class="cls-123" points="208.87 51.27 205.2 63.67 170.49 43.69 178.71 33.54 208.87 51.27"/><path class="cls-125" d="M183.76,34.27l37.5-21.59,24.1,14.13s-24.4,14-37.5,21.53Z"/><path class="cls-112" d="M210.32,48.46l1.39-.66L185,32.12l-.31.31.2.12-1.09.4C187.1,34.85,201.6,43.42,210.32,48.46Z"/><path class="cls-112" d="M212.72,47.06l1.4-.66L187.36,30.72l-.31.31.2.13-1.09.39C189.5,33.45,204,42,212.72,47.06Z"/><path class="cls-112" d="M215.13,45.66l1.39-.66L189.76,29.33l-.31.31.2.12-1.08.39C191.91,32.05,206.41,40.63,215.13,45.66Z"/><path class="cls-112" d="M217.53,44.27l1.39-.66L192.17,27.93l-.31.31.2.12-1.09.4C194.31,30.65,208.81,39.23,217.53,44.27Z"/><path class="cls-112" d="M219.93,42.87l1.4-.66L194.57,26.53l-.31.31.2.12-1.09.4C196.71,29.26,211.22,37.83,219.93,42.87Z"/><path class="cls-112" d="M222.34,41.47l1.39-.66L197,25.13l-.31.31.2.13-1.08.39C199.12,27.86,213.62,36.44,222.34,41.47Z"/><path class="cls-112" d="M224.74,40.08l1.39-.66L199.38,23.74l-.31.31.2.12-1.09.4C201.52,26.46,216,35,224.74,40.08Z"/><path class="cls-112" d="M227.14,38.68l1.4-.66L201.78,22.34l-.31.31.2.12-1.09.4C203.92,25.07,218.43,33.64,227.14,38.68Z"/><path class="cls-112" d="M229.55,37.28l1.39-.66L204.19,20.94l-.32.31.2.13-1.08.39C206.33,23.67,220.83,32.24,229.55,37.28Z"/><path class="cls-112" d="M232,35.89l1.4-.66L206.59,19.55l-.31.31.19.12-1.08.4C208.73,22.27,223.23,30.85,232,35.89Z"/><path class="cls-112" d="M234.35,34.49l1.4-.66L209,18.15l-.31.31.2.12-1.09.4C211.13,20.88,225.64,29.45,234.35,34.49Z"/><path class="cls-112" d="M236.76,33.09l1.39-.66L211.4,16.75l-.32.31.2.13-1.08.39C213.54,19.48,228,28.05,236.76,33.09Z"/><path class="cls-112" d="M239.16,31.69l1.4-.66L213.8,15.36l-.31.31.19.12-1.08.39C215.94,18.08,230.44,26.66,239.16,31.69Z"/><path class="cls-112" d="M241.56,30.3l1.4-.66L216.2,14l-.31.31.2.12-1.09.4C218.34,16.68,232.85,25.26,241.56,30.3Z"/><path class="cls-112" d="M244,28.9l1.39-.66L218.61,12.56l-.32.31.2.12-1.08.4C220.75,15.29,235.25,23.86,244,28.9Z"/><polygon class="cls-10" points="271.72 34.89 271.72 63.04 269.76 62.02 269.76 36.02 271.72 34.89"/><polygon class="cls-126" points="213.54 96.62 211.59 95.6 207.04 112.73 209 113.75 213.54 96.62"/><polygon class="cls-124" points="221.16 9.12 227.48 10.75 262.2 30.96 251.32 26.91 221.16 9.12"/></g></g></g></svg>