<svg xmlns="http://www.w3.org/2000/svg" xmlns:xlink="http://www.w3.org/1999/xlink" viewBox="0 0 109.5 224.66"><defs><style>.cls-1{fill:url(#linear-gradient);}.cls-2{fill:url(#linear-gradient-2);}.cls-3{fill:#4d4d4d;}.cls-4{fill:#5e110e;}.cls-5{fill:#625026;}.cls-6{fill:#3b601a;}.cls-7{fill:#bf2611;}.cls-8{fill:url(#linear-gradient-3);}.cls-9{fill:#d8c232;}.cls-10{fill:#6caf31;}.cls-11{fill:url(#linear-gradient-4);}.cls-12{fill:url(#linear-gradient-5);}.cls-13{fill:url(#linear-gradient-6);}.cls-14{fill:url(#linear-gradient-7);}.cls-15{fill:url(#linear-gradient-8);}.cls-16{fill:url(#linear-gradient-9);}.cls-17{fill:url(#linear-gradient-10);}.cls-18{fill:url(#linear-gradient-11);}.cls-19{fill:url(#linear-gradient-12);}</style><linearGradient id="linear-gradient" x1="10849.39" y1="24.31" x2="10849.21" y2="35.84" gradientTransform="matrix(-1, 0, 0, 1, 10871.68, 0)" gradientUnits="userSpaceOnUse"><stop offset="0" stop-color="#aaa"/><stop offset="1" stop-color="#717171"/></linearGradient><linearGradient id="linear-gradient-2" x1="10853.79" y1="17.28" x2="10853.79" y2="17.29" gradientTransform="matrix(-1, 0, 0, 1, 10871.68, 0)" gradientUnits="userSpaceOnUse"><stop offset="0" stop-color="#999"/><stop offset="1" stop-color="#555"/></linearGradient><linearGradient id="linear-gradient-3" x1="10853.45" y1="23.54" x2="10853.45" y2="32.25" xlink:href="#linear-gradient-2"/><linearGradient id="linear-gradient-4" x1="10853.52" y1="38.69" x2="10853.4" y2="46.75" xlink:href="#linear-gradient-2"/><linearGradient id="linear-gradient-5" x1="10853.5" y1="52.82" x2="10853.41" y2="59.95" xlink:href="#linear-gradient-2"/><linearGradient id="linear-gradient-6" x1="10845.17" y1="19.47" x2="10847.9" y2="19.47" gradientTransform="matrix(-1, 0, 0, 1, 10871.68, 0)" gradientUnits="userSpaceOnUse"><stop offset="0" stop-color="#e3e3e3"/><stop offset="1" stop-color="#6d6d6d"/></linearGradient><linearGradient id="linear-gradient-7" x1="10851.76" y1="15.16" x2="10854.03" y2="15.16" xlink:href="#linear-gradient-6"/><linearGradient id="linear-gradient-8" x1="10785.05" y1="61.81" x2="10788.34" y2="64.39" xlink:href="#linear-gradient-6"/><linearGradient id="linear-gradient-9" x1="6351.96" y1="-9116.85" x2="6355.65" y2="-9116.85" gradientTransform="matrix(-0.5, 0.87, 0.87, 0.5, 11121.56, -952.12)" xlink:href="#linear-gradient-6"/><linearGradient id="linear-gradient-10" x1="10762.18" y1="208.84" x2="10772.55" y2="208.84" xlink:href="#linear-gradient-6"/><linearGradient id="linear-gradient-11" x1="10763.06" y1="193.18" x2="10780.02" y2="193.18" xlink:href="#linear-gradient-6"/><linearGradient id="linear-gradient-12" x1="10765.54" y1="126.04" x2="10771.93" y2="126.04" xlink:href="#linear-gradient-6"/></defs><title>43</title><g id="Capa_2" data-name="Capa 2"><g id="ELEMENTOS_INDIVIDUALES" data-name="ELEMENTOS INDIVIDUALES"><g id="_43" data-name="43"><path class="cls-1" d="M14,19.1a21.6,21.6,0,0,1,3.84-1.79l-.69.27.5-.2a2.26,2.26,0,0,1,1.72.24l8.56,4.75c1.46.87,3,2.46,3,4.16V66.06c0,.8-1.24,1.65-2,2a20,20,0,0,1-3.6,1.52c-.82.11-1.5-1.24-1.5-1.24L23.29,64l-3.64-2.42a4.51,4.51,0,0,1-1.93-4.16V20.81L13.78,19.7S13.32,19.7,14,19.1Z"/><polygon class="cls-2" points="17.89 17.28 17.89 17.29 17.89 17.29 17.89 17.28"/><path class="cls-3" d="M26,68.14V28.24a4.86,4.86,0,0,0-2.36-4.16l-8.23-4.91A1.59,1.59,0,0,0,13,20.53V60.41a4.87,4.87,0,0,0,2.36,4.16l8.23,4.93A1.58,1.58,0,0,0,26,68.14Z"/><path class="cls-4" d="M14.07,30.56c.88,3.26,3.55,5.56,6.06,5.27s4.22-3.27,3.52-6.77c-.74-3.68-3.71-6.33-6.5-5.77S13.14,27.15,14.07,30.56Z"/><path class="cls-5" d="M14.07,45.2c.88,3.25,3.55,5.56,6.06,5.26s4.22-3.26,3.52-6.76c-.74-3.68-3.71-6.33-6.5-5.77S13.14,41.79,14.07,45.2Z"/><path class="cls-6" d="M14.07,59.83c.88,3.26,3.55,5.56,6.06,5.27s4.22-3.27,3.52-6.77c-.74-3.67-3.71-6.33-6.5-5.77S13.14,56.42,14.07,59.83Z"/><path class="cls-7" d="M14.87,30.39c.73,2.7,3,4.61,5,4.37s3.51-2.71,2.92-5.62-3.07-5.25-5.39-4.79S14.1,27.55,14.87,30.39Z"/><path class="cls-8" d="M23.8,31s-1-1.91-2.8-1.51-3.07,2.61-5.85.73-3.41-2.82-1.38-5.09c1.21-1.35,3.48-2.55,5.45-2a5.82,5.82,0,0,1,4,4A6.5,6.5,0,0,1,23.8,31Z"/><path class="cls-9" d="M14.8,45c.74,2.75,3,4.7,5.12,4.45s3.57-2.76,3-5.72c-.63-3.11-3.14-5.35-5.49-4.88S14,42.15,14.8,45Z"/><path class="cls-10" d="M14.84,59.67c.74,2.72,3,4.65,5.07,4.41s3.54-2.74,2.95-5.67-3.11-5.3-5.44-4.83S14.06,56.81,14.84,59.67Z"/><path class="cls-11" d="M23.8,45.68s-1-1.91-2.8-1.51-3.07,2.6-5.85.73-3.41-2.83-1.38-5.1a6.09,6.09,0,0,1,5.45-1.95c1.84.43,3.14,1.7,4,4.1S23.8,45.68,23.8,45.68Z"/><path class="cls-12" d="M23.8,60.31s-1-1.91-2.8-1.5-3.07,2.6-5.85.72-3.41-2.82-1.38-5.09c1.21-1.35,3.48-2.5,5.45-1.95a5.73,5.73,0,0,1,4.1,3.95A6.28,6.28,0,0,1,23.8,60.31Z"/><polygon class="cls-13" points="23.78 23.16 26.51 23.16 26.51 17.31 24.23 15.78 23.78 23.16"/><polygon class="cls-14" points="17.65 18.77 19.92 18.77 19.92 13.22 17.86 11.54 17.65 18.77"/><path class="cls-15" d="M105.43,87.15l-.58.25a1.85,1.85,0,0,0,.08-2.61L68.3,38.23a1.86,1.86,0,0,0-2.61-.09l.59-.24a1.84,1.84,0,0,0-.09,2.6l36.63,46.56A1.84,1.84,0,0,0,105.43,87.15Z"/><path class="cls-16" d="M104,60.34h0a1.85,1.85,0,0,0-.68-2.52L2.76.24A1.85,1.85,0,0,0,.24.93h0A1.85,1.85,0,0,0,.93,3.45L101.46,61A1.85,1.85,0,0,0,104,60.34Z"/><path class="cls-17" d="M97.56,193.18l11.06-.16.88,27.26c0,2.33-3,4.38-6.53,4.38s-6.12-1.89-6.12-4.22Z"/><path class="cls-18" d="M97.56,193.18c0,2.06,2.33,3.74,5.42,3.74s5.64-1.68,5.64-3.74-2.56-3.75-5.64-3.75S97.56,191.11,97.56,193.18Z"/><path class="cls-19" d="M103,194.19h0c1.46,0,3.17-1.26,3.17-2.72l-.53-130.95A2.64,2.64,0,0,0,103,57.88h0a2.64,2.64,0,0,0-2.63,2.64L99.75,191.3A3.06,3.06,0,0,0,103,194.19Z"/></g></g></g></svg>