<svg xmlns="http://www.w3.org/2000/svg" viewBox="0 0 149.44 139.22"><defs><style>.cls-1{isolation:isolate;}.cls-2{fill:#2e1711;opacity:0.4;mix-blend-mode:multiply;}.cls-3{fill:#bcb29a;}.cls-4{fill:#8f9243;}.cls-5{fill:#634e32;}.cls-6{fill:#4e3c26;}.cls-7{fill:#a6a64c;}.cls-8{fill:#80803d;}</style></defs><title>Recurso66</title><g class="cls-1"><g id="Capa_2" data-name="Capa 2"><g id="ELEMENTOS_INDIVIDUALES" data-name="ELEMENTOS INDIVIDUALES"><path class="cls-2" d="M51.14,135.29c9.28-5.21,9.34-13.86.14-19.34s-24.2-5.66-33.48-.47-9.35,13.86-.14,19.33S41.86,140.49,51.14,135.29Z"/><path class="cls-3" d="M47.2,133.8c9.29-5.22,9.35-13.85.14-19.34s-24.19-5.67-33.47-.46-9.35,13.85-.14,19.31S37.93,139,47.2,133.8Z"/><path class="cls-4" d="M47.23,131.38c9.29-5.21,9.35-13.87.14-19.34s-24.19-5.68-33.47-.47-9.35,13.86-.14,19.33S38,136.58,47.23,131.38Z"/><path class="cls-2" d="M148.13,117.91l-8.55-9.27c-2.07-2.26-5.84-3.76-10-4l-69.49-4.11a7.09,7.09,0,0,0-5.33,1.64L41,116.33a5.25,5.25,0,0,0-1.1,1.58l-11-.14,0,2.44,10.63.13a5.35,5.35,0,0,0,1.41,2.83L52.72,136c2,2.12,5.73,3.38,9.68,3.25l66.39-2.28c4.37-.13,8.31-1.59,10.53-3.9l8.73-9A4.15,4.15,0,0,0,148.13,117.91Z"/><rect class="cls-5" x="10.31" y="97.58" width="40.46" height="3.99" transform="translate(-69.41 128.88) rotate(-89.29)"/><rect class="cls-6" x="11.65" y="98.55" width="40.46" height="2.08" transform="translate(-68.1 130.24) rotate(-89.29)"/><path class="cls-7" d="M58.72,20.66A13.2,13.2,0,0,0,52.3,10.15L37.56,1.4a10,10,0,0,0-10-.12l-15,8.41a12.71,12.71,0,0,0-6.43,10L0,88.69A5.62,5.62,0,0,0,2.75,94l23.12,13.74a11.16,11.16,0,0,0,11.15.13l20.7-11.61a10.28,10.28,0,0,0,5.22-9.61Z"/><path class="cls-4" d="M59,22.37a13,13,0,0,0-6-10.3L39.09,3.5a9,9,0,0,0-9.36-.1l-14.1,8.29a12.4,12.4,0,0,0-6.05,9.73L3.83,89.14a5.54,5.54,0,0,0,2.55,5.22L28.11,107.8a10.09,10.09,0,0,0,10.49.11l19.46-11.4A10.14,10.14,0,0,0,63,87.08Z"/><path class="cls-8" d="M37,107.87,57.72,96.28a10.33,10.33,0,0,0,5.22-9.63l-4.22-66a13.13,13.13,0,0,0-2.87-7.43L41.72,19.31c-4.51,2-8.95,6.08-9.42,11-4,14.86-1.74,67-1.82,73.62C30.42,108.29,32.49,109.94,37,107.87Z"/></g></g></g></svg>