<svg xmlns="http://www.w3.org/2000/svg" viewBox="0 0 360.34 266.32"><defs><style>.cls-1{fill:#1d1d1b;opacity:0.3;}.cls-2{fill:#575756;}.cls-3{fill:#706f6f;}.cls-4{fill:#9b9b9a;}.cls-5{fill:#ebebeb;}.cls-6{fill:#fff;}.cls-7{fill:#d4ccc3;}.cls-8{fill:#b5ada3;}.cls-9{fill:#f4f4f4;}.cls-10{fill:#de5f59;}.cls-11{fill:#25415f;}.cls-12{fill:#74a8ab;}</style></defs><title>Recurso48</title><g id="Capa_2" data-name="Capa 2"><g id="ELEMENTOS_INDIVIDUALES" data-name="ELEMENTOS INDIVIDUALES"><path class="cls-1" d="M135.28,158.85c-22.34-11.7-44.24-35.8-64.74-59.74l-54.76-2L0,88l8.63-1.16,43.78-5.95,2.52-.35c-3.57-5.81.1-12.72,6.58-11.47l-.41-3.9L56.58,21.79l-.65-6.3,15.78,9.1L79,44.81l1-2.46,15.77,9.11,3.9,36.29,59.44,29.69.11.06L221,153.15,232.8,124l1.37-3.35L249.89,82l3.62-8.9,25,14.44,1.34.76,4.29,2.47-1.73,26.45,4.81,11.11c.62.33,1.23.63,1.85,1a4,4,0,0,1,.64.36q7,3.92,14.23,8.25h0c1.43.82,2.31,2.58,2.31,5.09a17.38,17.38,0,0,1-7.87,13.63c-2.19,1.27-4.16,1.37-5.59.53-4.22-2.34-8.37-4.78-12.51-7.25l-1.07,16.39,1.59,3.67c.62.34,1.23.63,1.85,1a3.63,3.63,0,0,1,.64.36c4.7,2.61,9.44,5.37,14.23,8.24h0c1.43.82,2.31,2.59,2.31,5.1A17.51,17.51,0,0,1,295,195.87l29.42,17a5.37,5.37,0,0,1,.53.35,48.15,48.15,0,0,1,15.66,13.88c.79,1,1.54,2.1,2.3,3.21,1.43,2,2.89,4.2,4.52,6.62,2.1,3.12,4.49,6.59,7.47,10.53,5.25,7,3,17.05-5.51,18.25a61,61,0,0,1-22-.86,82.34,82.34,0,0,1-14-4.49c-3.12-1.27-6.27-2.75-9.51-4.42-.7-.36-5.76-3.08-5.76-3.08L251.61,226c-4.12-1.26-9.7-3.71-17.09-7.76l-50,1.08,2.28,5.26c.62.34,1.23.63,1.85,1a3.06,3.06,0,0,1,.63.37q7,3.91,14.23,8.24h0c1.43.82,2.31,2.58,2.31,5.1,0,5-3.52,11.12-7.87,13.62-2.19,1.27-4.16,1.37-5.59.53-5-2.75-9.86-5.6-14.69-8.51q-12.33-7.51-24.06-15.78a85.29,85.29,0,0,1-10-8.93l-30.2.66,2.7,6.24c.62.34,1.23.63,1.85,1a3.38,3.38,0,0,1,.64.36q7.05,3.92,14.22,8.24h0c1.43.82,2.31,2.59,2.31,5.1a17.38,17.38,0,0,1-7.87,13.63c-2.19,1.26-4.16,1.37-5.59.52-5-2.74-9.86-5.6-14.69-8.51q-12.33-7.5-24.06-15.78a83.49,83.49,0,0,1-11-9.9l-17.17.37-6.42-3.7-2.3-1.31L24.15,204.46,42.49,202h0l61-8.28,7.75-1,60.89-8.25,5.93-.81L135.3,158.86Z"/><path class="cls-2" d="M324.82,253.57a7,7,0,0,1-3.19-5.53c0-2,1.43-2.86,3.19-1.84a7,7,0,0,1,3.2,5.53C328,253.77,326.59,254.59,324.82,253.57Z"/><rect class="cls-2" x="322.55" y="245.98" width="2.44" height="9.03" transform="translate(-81.87 195.43) rotate(-30)"/><path class="cls-3" d="M322.56,254.88c1.77,1,3.2.19,3.2-1.85a7.06,7.06,0,0,0-3.2-5.53c-1.76-1-3.19-.19-3.19,1.85A7.08,7.08,0,0,0,322.56,254.88Z"/><path class="cls-4" d="M322.56,253.52c1.12.64,2,.12,2-1.17a4.46,4.46,0,0,0-2-3.49c-1.11-.64-2-.12-2,1.17A4.46,4.46,0,0,0,322.56,253.52Z"/><path class="cls-5" d="M322.56,252.79c.77.44,1.39.08,1.39-.8a3.06,3.06,0,0,0-1.39-2.4c-.76-.44-1.38-.08-1.38.8A3.07,3.07,0,0,0,322.56,252.79Z"/><rect class="cls-3" x="320.44" y="238.16" width="2.4" height="14.81"/><path class="cls-2" d="M320.24,256.29a7.08,7.08,0,0,1-3.19-5.53c0-2,1.43-2.86,3.19-1.85a7.09,7.09,0,0,1,3.2,5.54C323.44,256.48,322,257.31,320.24,256.29Z"/><rect class="cls-2" x="317.97" y="248.69" width="2.44" height="9.03" transform="translate(-83.84 193.49) rotate(-30)"/><path class="cls-3" d="M318,257.59c1.77,1,3.2.2,3.2-1.84a7,7,0,0,0-3.2-5.53c-1.76-1-3.19-.2-3.19,1.84A7,7,0,0,0,318,257.59Z"/><path class="cls-4" d="M318,256.23c1.12.65,2,.13,2-1.16a4.43,4.43,0,0,0-2-3.49c-1.11-.65-2-.12-2,1.16A4.44,4.44,0,0,0,318,256.23Z"/><path class="cls-5" d="M318,255.5c.77.45,1.39.09,1.39-.79a3,3,0,0,0-1.39-2.4c-.76-.44-1.38-.09-1.38.8A3.06,3.06,0,0,0,318,255.5Z"/><path class="cls-6" d="M261.68,147c0-4.26-3-6-6.68-3.86a14.78,14.78,0,0,0-6.67,11.57c0,4.26,3,6,6.67,3.86A14.76,14.76,0,0,0,261.68,147Z"/><path class="cls-7" d="M285.46,155.56c-8.76-4.86-17.37-9.18-25.73-12.87a73.67,73.67,0,0,0-19.23-5.46c-7.7-1.06-9.19,1.58-4.56,7.89a75.24,75.24,0,0,0,14.34,13.94q11.75,8.26,24,15.78c4.85,2.91,9.75,5.77,14.72,8.52l11.13-19.27C295.23,161.11,290.32,158.25,285.46,155.56Z"/><path class="cls-6" d="M287.92,160.78c.08-5.1-3.43-7.15-7.87-4.54s-7.8,8.61-7.87,13.63,3.46,6.94,7.87,4.54S287.83,165.8,287.92,160.78Z"/><path class="cls-6" d="M285.46,155.56l-11.13,19.28c4.85,2.91,9.75,5.77,14.72,8.52l11.13-19.27C295.23,161.11,290.32,158.25,285.46,155.56Z"/><path class="cls-5" d="M302.49,169.19c0-5-3.52-7.05-7.87-4.54a17.38,17.38,0,0,0-7.87,13.63c0,5,3.52,7.05,7.87,4.54A17.38,17.38,0,0,0,302.49,169.19Z"/><path class="cls-3" d="M300.93,170.1c0-4-2.83-5.66-6.31-3.65a14,14,0,0,0-6.31,10.93c0,4,2.83,5.65,6.31,3.64A14,14,0,0,0,300.93,170.1Z"/><path class="cls-8" d="M266.92,150.39,283.6,160a1.15,1.15,0,0,0,1.63-1.46l-7.31-16.87a1.1,1.1,0,0,0-.48-.54l-16.68-9.63a1.15,1.15,0,0,0-1.63,1.45l7.31,16.88A1.07,1.07,0,0,0,266.92,150.39Z"/><path class="cls-6" d="M268.11,105.35c0-4.26-3-6-6.68-3.85a14.76,14.76,0,0,0-6.68,11.56c0,4.26,3,6,6.68,3.86A14.76,14.76,0,0,0,268.11,105.35Z"/><path class="cls-7" d="M247.74,95.71A74.94,74.94,0,0,1,266.16,101c8.36,3.69,17,8,25.73,12.87,4.86,2.69,9.77,5.55,14.72,8.53l-11.13,19.28c-5-2.75-9.87-5.62-14.72-8.53q-12.31-7.5-24.05-15.78a87.48,87.48,0,0,1-9-7.85Z"/><path class="cls-6" d="M294.35,119.13c.08-5.11-3.43-7.16-7.87-4.55s-7.8,8.61-7.87,13.63,3.46,6.95,7.87,4.54S294.26,124.14,294.35,119.13Z"/><path class="cls-6" d="M291.89,113.9l-11.13,19.28c4.85,2.91,9.75,5.78,14.72,8.53l11.13-19.28C301.66,119.45,296.75,116.59,291.89,113.9Z"/><path class="cls-5" d="M308.92,127.54c0-5-3.53-7.05-7.87-4.55a17.4,17.4,0,0,0-7.87,13.63c0,5,3.52,7.06,7.87,4.55A17.41,17.41,0,0,0,308.92,127.54Z"/><path class="cls-3" d="M307.36,128.44c0-4-2.83-5.65-6.31-3.64a13.92,13.92,0,0,0-6.31,10.92c0,4,2.82,5.65,6.31,3.64A14,14,0,0,0,307.36,128.44Z"/><path class="cls-8" d="M273.34,108.74,290,118.37a1.15,1.15,0,0,0,1.63-1.45L284.35,100a1.25,1.25,0,0,0-.48-.54l-16.68-9.63a1.15,1.15,0,0,0-1.63,1.45l7.3,16.88A1.2,1.2,0,0,0,273.34,108.74Z"/><polygon class="cls-9" points="217.76 152.08 279.46 187.72 286.81 75.3 282.53 72.82 281.19 72.06 256.16 57.63 252.55 66.52 236.83 105.19 235.46 108.54 222.66 140.07 217.76 152.08"/><polygon class="cls-5" points="266.02 167.36 266.75 167.48 267.48 167.6 282.53 72.82 281.19 72.06 266.02 167.36"/><rect class="cls-5" x="251.96" y="115.71" width="1.46" height="40" transform="translate(8.11 285.54) rotate(-59.73)"/><rect class="cls-5" x="262.8" y="79.54" width="1.46" height="31.57" transform="translate(54.88 282.4) rotate(-61.77)"/><polygon class="cls-10" points="236.83 105.19 243.92 109.21 258.15 69.99 252.55 66.52 236.83 105.19"/><polygon class="cls-10" points="222.66 140.07 230.73 144.38 242.49 112.63 235.46 108.54 222.66 140.07"/><polygon class="cls-10" points="82.65 26.87 69.04 60.32 103.16 80.02 98.43 35.97 82.65 26.87"/><polygon class="cls-6" points="78.51 53.44 87.41 53.44 87.41 35.7 78.51 30.03 78.51 53.44"/><path class="cls-6" d="M167.67,201.6c0-4.25-3-6-6.68-3.85a14.76,14.76,0,0,0-6.68,11.57c0,4.26,3,6,6.68,3.85A14.76,14.76,0,0,0,167.67,201.6Z"/><path class="cls-10" d="M191.45,210.16c-8.76-4.86-17.37-9.19-25.73-12.88a73.58,73.58,0,0,0-19.24-5.45c-7.69-1.06-9.18,1.57-4.55,7.89a74.91,74.91,0,0,0,14.34,13.93q11.74,8.26,24,15.78c4.85,2.92,9.75,5.78,14.72,8.53l11.13-19.28C201.21,215.7,196.31,212.84,191.45,210.16Z"/><path class="cls-6" d="M193.9,215.38c.09-5.1-3.42-7.16-7.86-4.55s-7.8,8.61-7.87,13.63,3.46,6.95,7.87,4.55S193.82,220.39,193.9,215.38Z"/><path class="cls-6" d="M191.45,210.16l-11.13,19.27c4.85,2.92,9.75,5.78,14.72,8.53l11.13-19.28C201.21,215.7,196.31,212.84,191.45,210.16Z"/><path class="cls-5" d="M208.48,223.79c0-5-3.53-7-7.87-4.54a17.38,17.38,0,0,0-7.87,13.63c0,5,3.52,7.05,7.87,4.54A17.41,17.41,0,0,0,208.48,223.79Z"/><path class="cls-3" d="M206.91,224.69c0-4-2.82-5.65-6.3-3.64A13.92,13.92,0,0,0,194.3,232c0,4,2.82,5.66,6.31,3.65A14,14,0,0,0,206.91,224.69Z"/><path class="cls-8" d="M172.9,205l16.69,9.63a1.15,1.15,0,0,0,1.63-1.45l-7.31-16.87a1.15,1.15,0,0,0-.48-.54l-16.68-9.64a1.15,1.15,0,0,0-1.63,1.46l7.3,16.87A1.15,1.15,0,0,0,172.9,205Z"/><path class="cls-6" d="M97,204.13c0-4.26-3-6-6.68-3.86a14.76,14.76,0,0,0-6.68,11.57c0,4.26,3,6,6.68,3.86A14.76,14.76,0,0,0,97,204.13Z"/><path class="cls-10" d="M120.76,212.68C112,207.82,103.39,203.49,95,199.8a73.62,73.62,0,0,0-19.23-5.45c-7.7-1.06-9.19,1.58-4.56,7.89a74.9,74.9,0,0,0,14.34,13.93q11.74,8.28,24,15.79c4.85,2.91,9.75,5.77,14.72,8.52l11.13-19.27C130.52,218.23,125.62,215.37,120.76,212.68Z"/><path class="cls-6" d="M123.21,217.9c.09-5.1-3.42-7.15-7.86-4.54s-7.8,8.61-7.87,13.63,3.46,6.94,7.87,4.54S123.13,222.92,123.21,217.9Z"/><path class="cls-6" d="M120.76,212.68,109.63,232c4.85,2.91,9.75,5.77,14.72,8.52l11.13-19.27C130.52,218.23,125.62,215.37,120.76,212.68Z"/><path class="cls-5" d="M137.79,226.31c0-5-3.53-7.05-7.87-4.54a17.38,17.38,0,0,0-7.87,13.63c0,5,3.52,7,7.87,4.54A17.41,17.41,0,0,0,137.79,226.31Z"/><path class="cls-3" d="M136.22,227.21c0-4-2.82-5.65-6.3-3.64a13.94,13.94,0,0,0-6.31,10.93c0,4,2.82,5.65,6.31,3.64A13.94,13.94,0,0,0,136.22,227.21Z"/><path class="cls-8" d="M102.21,207.51l16.69,9.63a1.15,1.15,0,0,0,1.63-1.45l-7.31-16.87a1.15,1.15,0,0,0-.48-.54l-16.68-9.63a1.15,1.15,0,0,0-1.63,1.45l7.3,16.87A1.15,1.15,0,0,0,102.21,207.51Z"/><path class="cls-5" d="M166.79,112.92c0-10.78-7.57-15.15-16.9-9.76S133,121.65,133,132.43s7.57,15.14,16.9,9.75S166.79,123.69,166.79,112.92Z"/><path class="cls-6" d="M59,67c24.43,28.61,51.35,62,78.94,76.4l162.8,94,5.76,3.07c15.61,8.05,29.44,12.06,45.52,9.77,8.49-1.19,10.76-11.28,5.51-18.25-3-3.94-5.36-7.41-7.46-10.53-1.64-2.42-3.09-4.61-4.52-6.62-.76-1.11-1.52-2.19-2.31-3.21a48.27,48.27,0,0,0-15.66-13.88c-.17-.11-.35-.26-.52-.35L161.82,102l-95.1-47.5C58,50.19,52.55,60.22,59,67Z"/><path class="cls-10" d="M2.65,72.56l15.78,9.1,68.91,2.47a1.84,1.84,0,0,0,1-3.44c-7.7-7.67-17.52-12.1-27.73-16l-5.54.76-43.77,6Z"/><path class="cls-11" d="M58.59,0l.64,6.3,4.52,43.42.73,6.88C74.28,64.83,90.05,75,96.21,76.46a1.47,1.47,0,0,0,1.72-1.95L74.37,9.1Z"/><path class="cls-10" d="M58.59,0l.64,6.3,4.52,43.42.73,6.88C74.28,64.83,90.05,75,96.21,76.46a1.47,1.47,0,0,0,1.72-1.95L74.37,9.1Z"/><path class="cls-10" d="M177.94,158.65c0,5,30.76,27.75,54.56,41.49s31.62,13.3,31.62,8.27-7.83-12.76-31.62-26.5S177.94,153.62,177.94,158.65Z"/><path class="cls-6" d="M26.8,189l21.93,12.66L51,202.94l6.41,3.71,191.77-4.15a.4.4,0,0,0,.32-.61c-2.18-3.67-6.27-7.29-11.69-10.9-.64-.47-1.31-.91-2-1.35-11.75-7.46-28.64-15-45-22.6a1.38,1.38,0,0,0-1-.17l-15,2L152.05,172,114,177.16l-7.76,1.05-25.95,3.53-35.09,4.75h0Z"/><path class="cls-2" d="M325.45,227.4c12.88,4,21.26-1.22,24.62-6-1.64-2.42-3.09-4.61-4.52-6.62-.42,4.29-11.62,8.93-20,7.2C325.54,223.81,325.51,225.62,325.45,227.4Z"/><path class="cls-12" d="M106.82,102.64a8.33,8.33,0,0,0,3.77,6.53L315.24,227.38c2.08,1.2,3.76.23,3.76-2.17h0a8.31,8.31,0,0,0-3.76-6.52L110.59,100.47c-2.08-1.2-3.77-.23-3.77,2.17Z"/><path class="cls-2" d="M244.59,183.25a3.32,3.32,0,0,0,1.48,2.57h0c.82.47,1.49.08,1.49-.86v-1.78a3.27,3.27,0,0,0-1.49-2.57h0c-.81-.47-1.48-.09-1.48.86Z"/><path class="cls-2" d="M237.12,178.94a3.29,3.29,0,0,0,1.48,2.56h0c.82.48,1.49.09,1.49-.85v-1.79a3.27,3.27,0,0,0-1.49-2.56h0c-.81-.47-1.48-.09-1.48.85Z"/><path class="cls-2" d="M229.65,174.62a3.29,3.29,0,0,0,1.48,2.57h0c.82.47,1.49.09,1.49-.86v-1.78a3.27,3.27,0,0,0-1.49-2.56h0c-.81-.48-1.48-.09-1.48.85Z"/><path class="cls-2" d="M222.18,170.31a3.31,3.31,0,0,0,1.48,2.57h0c.82.47,1.49.09,1.49-.86v-1.78a3.29,3.29,0,0,0-1.49-2.57h0c-.81-.47-1.48-.09-1.48.86Z"/><path class="cls-2" d="M214.71,166a3.29,3.29,0,0,0,1.48,2.56h0c.82.48,1.48.09,1.48-.85v-1.78a3.26,3.26,0,0,0-1.48-2.57h0c-.81-.47-1.48-.09-1.48.86Z"/><path class="cls-2" d="M207.24,161.68a3.26,3.26,0,0,0,1.48,2.57h0c.82.47,1.48.09,1.48-.85v-1.79a3.26,3.26,0,0,0-1.48-2.56h0c-.82-.48-1.48-.09-1.48.85Z"/><path class="cls-2" d="M199.77,157.37a3.26,3.26,0,0,0,1.48,2.57h0c.82.47,1.48.09,1.48-.86V157.3a3.29,3.29,0,0,0-1.48-2.57h0c-.82-.47-1.48-.09-1.48.86Z"/><path class="cls-2" d="M192.3,153.06a3.29,3.29,0,0,0,1.48,2.57h0c.82.47,1.48.08,1.48-.86V153a3.26,3.26,0,0,0-1.48-2.57h0c-.82-.47-1.48-.09-1.48.86Z"/><path class="cls-2" d="M184.83,148.75a3.26,3.26,0,0,0,1.48,2.56h0c.82.48,1.48.09,1.48-.85v-1.79a3.26,3.26,0,0,0-1.48-2.56h0c-.82-.47-1.48-.09-1.48.85Z"/><path class="cls-2" d="M177.36,144.43a3.26,3.26,0,0,0,1.48,2.57h0c.82.47,1.48.09,1.48-.86v-1.78a3.26,3.26,0,0,0-1.48-2.56h0c-.82-.48-1.48-.09-1.48.85Z"/><path class="cls-2" d="M169.89,140.12a3.28,3.28,0,0,0,1.48,2.57h0c.82.47,1.48.09,1.48-.86v-1.78a3.28,3.28,0,0,0-1.48-2.57h0c-.82-.47-1.48-.09-1.48.86Z"/><path class="cls-2" d="M162.42,135.81a3.26,3.26,0,0,0,1.48,2.56h0c.82.48,1.48.09,1.48-.85v-1.78a3.26,3.26,0,0,0-1.48-2.57h0c-.82-.47-1.48-.09-1.48.86Z"/><path class="cls-2" d="M155,131.49a3.26,3.26,0,0,0,1.48,2.57h0c.82.47,1.48.09,1.48-.85v-1.79a3.26,3.26,0,0,0-1.48-2.56h0c-.82-.48-1.48-.09-1.48.85Z"/><path class="cls-2" d="M147.48,127.18a3.26,3.26,0,0,0,1.48,2.57h0c.82.47,1.48.09,1.48-.86v-1.78a3.29,3.29,0,0,0-1.48-2.57h0c-.82-.47-1.48-.09-1.48.86Z"/><path class="cls-2" d="M140,122.87a3.29,3.29,0,0,0,1.48,2.57h0c.82.47,1.48.08,1.48-.86V122.8a3.26,3.26,0,0,0-1.48-2.57h0c-.82-.47-1.48-.09-1.48.86Z"/><path class="cls-2" d="M132.54,118.56a3.26,3.26,0,0,0,1.48,2.56h0c.82.47,1.48.09,1.48-.85v-1.79a3.26,3.26,0,0,0-1.48-2.56h0c-.82-.47-1.48-.09-1.48.85Z"/><path class="cls-2" d="M125.07,114.24a3.26,3.26,0,0,0,1.48,2.57h0c.82.47,1.48.09,1.48-.86v-1.78a3.29,3.29,0,0,0-1.48-2.57h0c-.82-.47-1.48-.08-1.48.86Z"/><path class="cls-2" d="M117.6,109.93a3.29,3.29,0,0,0,1.48,2.57h0c.82.47,1.48.09,1.48-.86v-1.78a3.26,3.26,0,0,0-1.48-2.57h0c-.82-.47-1.48-.09-1.48.86Z"/><path class="cls-2" d="M110.13,105.62a3.26,3.26,0,0,0,1.48,2.56h0c.82.48,1.48.09,1.48-.85v-1.78a3.26,3.26,0,0,0-1.48-2.57h0c-.82-.47-1.48-.09-1.48.85Z"/><path class="cls-2" d="M311.83,221.94a3.26,3.26,0,0,0,1.48,2.56h0c.82.48,1.48.09,1.48-.85v-1.79a3.26,3.26,0,0,0-1.48-2.56h0c-.82-.47-1.48-.09-1.48.85Z"/><path class="cls-2" d="M304.36,217.62a3.26,3.26,0,0,0,1.48,2.57h0c.81.47,1.48.09,1.48-.86v-1.78a3.26,3.26,0,0,0-1.48-2.56h0c-.82-.48-1.48-.09-1.48.85Z"/><path class="cls-2" d="M296.88,213.31a3.29,3.29,0,0,0,1.49,2.57h0c.82.47,1.48.09,1.48-.86v-1.78a3.28,3.28,0,0,0-1.48-2.57h0c-.82-.47-1.49-.09-1.49.86Z"/><path class="cls-2" d="M289.41,209a3.27,3.27,0,0,0,1.49,2.56h0c.81.48,1.48.09,1.48-.85v-1.78a3.29,3.29,0,0,0-1.48-2.57h0c-.82-.47-1.49-.09-1.49.86Z"/><path class="cls-2" d="M281.94,204.68a3.27,3.27,0,0,0,1.49,2.57h0c.81.47,1.48.09,1.48-.85v-1.79a3.29,3.29,0,0,0-1.48-2.56h0c-.82-.48-1.49-.09-1.49.85Z"/><path class="cls-2" d="M274.47,200.37a3.27,3.27,0,0,0,1.49,2.57h0c.81.47,1.48.09,1.48-.86V200.3a3.32,3.32,0,0,0-1.48-2.57h0c-.82-.47-1.49-.09-1.49.86Z"/><path class="cls-2" d="M267,196.06a3.31,3.31,0,0,0,1.49,2.57h0c.81.47,1.48.09,1.48-.86V196a3.29,3.29,0,0,0-1.48-2.57h0c-.82-.47-1.49-.09-1.49.86Z"/><path class="cls-2" d="M259.53,191.75a3.27,3.27,0,0,0,1.49,2.56h0c.81.47,1.48.09,1.48-.85v-1.78a3.29,3.29,0,0,0-1.48-2.57h0c-.82-.47-1.49-.09-1.49.85Z"/><path class="cls-2" d="M252.06,187.43a3.29,3.29,0,0,0,1.48,2.57h0c.82.47,1.49.09,1.49-.86v-1.78a3.27,3.27,0,0,0-1.49-2.56h0c-.81-.48-1.48-.09-1.48.85Z"/><path class="cls-2" d="M244.59,183.12a3.31,3.31,0,0,0,1.48,2.57h0c.82.47,1.49.09,1.49-.86v-1.78a3.29,3.29,0,0,0-1.49-2.57h0c-.81-.47-1.48-.09-1.48.86Z"/><path class="cls-3" d="M283.17,215.12c-4-2.39-4.35-4.65-4.75-7.27a23.76,23.76,0,0,1,.57-9.74c.71-2.44,2-3,2.91-3a3.52,3.52,0,0,1,1.84.6c2.66,1.59,4.76,2.84,4.2,7.43a36.38,36.38,0,0,0,0,9.1,3.18,3.18,0,0,1-.57,2.69,2.45,2.45,0,0,1-1.92.82A4.73,4.73,0,0,1,283.17,215.12Zm-3.23-16.75a22.79,22.79,0,0,0-.55,9.33c.4,2.57.68,4.42,4.28,6.57a3.71,3.71,0,0,0,1.78.54,1.53,1.53,0,0,0,1.18-.47,2.33,2.33,0,0,0,.34-1.9,36.66,36.66,0,0,1,0-9.37c.48-3.95-1.11-4.9-3.8-6.5a2.5,2.5,0,0,0-1.27-.43C281,196.14,280.37,196.9,279.94,198.37Z"/><path class="cls-3" d="M171.45,151.23c-4-2.38-4.35-4.65-4.75-7.26a23.75,23.75,0,0,1,.57-9.74c.71-2.44,2-3,2.91-3a3.54,3.54,0,0,1,1.84.61c2.66,1.59,4.76,2.84,4.2,7.43a35.91,35.91,0,0,0,0,9.1,3.21,3.21,0,0,1-.57,2.69,2.45,2.45,0,0,1-1.92.81A4.59,4.59,0,0,1,171.45,151.23Zm-3.23-16.74a22.75,22.75,0,0,0-.55,9.32c.39,2.57.68,4.43,4.28,6.58a3.71,3.71,0,0,0,1.78.54,1.5,1.5,0,0,0,1.17-.47,2.39,2.39,0,0,0,.35-1.91,36.58,36.58,0,0,1,0-9.36c.48-3.95-1.11-4.9-3.8-6.51a2.57,2.57,0,0,0-1.27-.42C169.31,132.26,168.65,133,168.22,134.49Z"/><path class="cls-6" d="M59.23,6.3l4.52,43.42L72,54.59a1.16,1.16,0,0,0,1.7-1.22L66.93,11a1.14,1.14,0,0,0-.61-.81Z"/><polygon class="cls-6" points="11.29 71.39 18.64 75.73 65.47 70.98 55.06 65.44 11.29 71.39"/><polygon class="cls-5" points="48.73 201.63 51.03 202.94 98.02 199.94 177.78 194.84 237.85 190.99 238.64 190.93 238.55 189.47 235.84 189.64 178.36 193.32 175.91 193.49 98.42 198.45 96.18 198.6 48.73 201.63"/><rect class="cls-5" x="164.5" y="170.34" width="1.46" height="30.78" transform="translate(-80.38 224.1) rotate(-57.22)"/><rect class="cls-5" x="88.65" y="181.39" width="1.46" height="22.53" transform="translate(-118.72 150.18) rotate(-53.57)"/><polygon class="cls-10" points="45.17 186.49 53.22 191.13 115.45 183.55 106.21 178.21 45.17 186.49"/><polygon class="cls-10" points="113.97 177.16 123.62 182.27 184.83 174.65 174.86 168.91 113.97 177.16"/></g></g></svg>