<svg xmlns="http://www.w3.org/2000/svg" xmlns:xlink="http://www.w3.org/1999/xlink" viewBox="0 0 1335.36 735.4"><defs><style>.cls-1{fill:#85a295;}.cls-2{isolation:isolate;}.cls-3{fill:#595351;}.cls-4{fill:#d7cbca;}.cls-5{fill:#301404;}.cls-19,.cls-5{opacity:0.3;mix-blend-mode:multiply;}.cls-6{fill:#ae8b59;}.cls-7{fill:#c3a068;}.cls-8{fill:#dec087;}.cls-9{fill:#b28e5a;}.cls-10{fill:#e9dcb8;}.cls-11{fill:#c4ad7e;}.cls-12{fill:#c5a166;}.cls-13{fill:#b6806a;}.cls-14,.cls-37{fill:#a3c2b5;}.cls-15{fill:#b09768;}.cls-16{fill:#5f7469;}.cls-17{fill:#748c80;}.cls-18{fill:#6f4333;}.cls-19{fill:#6d522f;}.cls-20{fill:#975f47;}.cls-21{clip-path:url(#clip-path);}.cls-22{fill:#94b3a3;}.cls-23{fill:#7b9787;}.cls-24{fill:#95b5a4;}.cls-25{fill:#92af9f;}.cls-26{fill:#87a794;}.cls-27{fill:#87a292;}.cls-28{fill:#b4d4c3;}.cls-29{fill:#82533f;}.cls-30{fill:#a06f58;}.cls-31{fill:#6a8075;}.cls-32,.cls-37{opacity:0.5;}.cls-33{clip-path:url(#clip-path-2);}.cls-34{fill:#769183;}.cls-35{fill:#9dbdac;}.cls-36{fill:#cdcf54;}.cls-37{mix-blend-mode:overlay;}</style><clipPath id="clip-path"><polygon class="cls-1" points="531.05 378.94 160.54 165.03 160.54 233.44 531.05 447.37 531.05 378.94"/></clipPath><clipPath id="clip-path-2"><polygon class="cls-1" points="624.7 303.62 758.13 247.53 402.19 49.48 268.76 105.58 624.7 303.62"/></clipPath></defs><title>Recurso 42</title><g class="cls-2"><g id="Capa_2" data-name="Capa 2"><g id="ELEMENTOS_INDIVIDUALES" data-name="ELEMENTOS INDIVIDUALES"><polygon class="cls-3" points="1115.36 490.37 417.18 98.6 0 343.63 698.19 735.4 1115.36 490.37"/><path class="cls-4" d="M817.7,571.81h-3.78a13,13,0,0,1-13-13V483.3h9.89v75.48a3.15,3.15,0,0,0,3.14,3.15h3.78a2.06,2.06,0,0,0,2.06-2.06v-69h9.88v69A12,12,0,0,1,817.7,571.81Z"/><path class="cls-4" d="M883,599.31h-3.79a13,13,0,0,1-13-13V510.79H876v75.49a3.15,3.15,0,0,0,3.15,3.14H883a2.06,2.06,0,0,0,2.06-2.06v-69h9.88v69A12,12,0,0,1,883,599.31Z"/><path class="cls-4" d="M519.46,578.84a17.87,17.87,0,0,1-8.9-2.37L78,328.83a14.56,14.56,0,0,1-.06-25.25l387-220.78,4.89,8.59-387,220.76a4.68,4.68,0,0,0,0,8.1L515.48,567.9a8,8,0,0,0,8,0L738.15,443.73l5,8.56L528.42,576.44A17.89,17.89,0,0,1,519.46,578.84Z"/><polygon class="cls-5" points="537.91 535.33 919.89 535.33 956.15 566.44 985.16 566.44 1335.36 491.2 681.93 104.12 508.54 104.12 537.91 535.33"/><path class="cls-6" d="M973,562.52c10.65-6.15,10.59-16.14-.12-22.33l-244.2-140-36.93,21.31,245.85,140.9C947.42,568.12,963.26,568.15,973,562.52Z"/><polygon class="cls-7" points="825.77 377.96 97.74 311.18 97.74 317.43 512.87 557.11 825.77 377.96"/><polygon class="cls-8" points="825.77 370.71 410.63 131.04 97.74 310.18 512.87 549.86 825.77 370.71"/><polygon class="cls-9" points="825.77 370.71 410.63 131.04 516.68 533.81 540.97 533.81 825.77 370.71"/><polygon class="cls-10" points="728.51 318.77 511.51 411.35 511.51 524.86 516.73 528.19 728.51 399.58 728.51 318.77"/><polygon class="cls-11" points="800.69 368.49 401.12 62.95 516.18 264.55 516.18 534.26 800.69 368.49"/><path class="cls-8" d="M970.55,553.27c10.65-6.15,10.59-16.14-.12-22.33L732.55,394l-36.92,21.32L935.14,553.2C945,558.87,960.8,558.9,970.55,553.27Z"/><polygon class="cls-12" points="965.49 527.59 732.55 394.04 695.63 415.36 888.72 527.76 965.49 527.59"/><polygon class="cls-11" points="739.23 383.11 702 361.51 702 418.67 739.23 440.27 739.23 383.11"/><polygon class="cls-13" points="575.95 369.96 826.25 261.64 372.71 0 122.41 108.33 575.95 369.96"/><polygon class="cls-1" points="511.84 458.9 188.27 272.09 188.27 341.71 511.84 528.53 511.84 458.9"/><polygon class="cls-14" points="511.36 495.13 286.55 367.34 243.54 367.34 511.36 522.69 511.36 495.13"/><polygon class="cls-1" points="511.47 528.31 511.49 519.27 232.34 357.22 232.31 366.26 511.47 528.31"/><rect class="cls-1" x="345.75" y="422.63" width="43.68" height="2.52"/><rect class="cls-1" x="304.95" y="398.9" width="43.68" height="2.51"/><rect class="cls-1" x="326.34" y="411.93" width="43.68" height="1.26"/><polygon class="cls-1" points="476.78 467.69 469.06 463.32 412.64 466.81 420.34 471.18 476.78 467.69"/><polygon class="cls-1" points="491.71 476.5 484 472.13 427.57 475.63 435.28 480 491.71 476.5"/><polygon class="cls-1" points="509.05 485.9 501.34 481.52 444.9 485.03 452.61 489.39 509.05 485.9"/><polygon class="cls-10" points="516.27 397.64 181.48 203.94 179.86 279.09 516.25 472.78 516.27 397.64"/><path class="cls-12" d="M226.64,307.11H149.86a1.16,1.16,0,0,0-.42-.08c-1.2,0-2.16,1.56-2.16,3.48s.84,3.28,1.92,3.46v0h77.44Z"/><polygon class="cls-10" points="243.63 250.82 179.27 213.66 179.27 338.87 243.63 376.04 243.63 250.82"/><polygon class="cls-1" points="416.38 415.74 408.79 411.5 408.78 465.93 416.37 470.17 416.38 415.74"/><polygon class="cls-1" points="431.62 424.88 424.02 420.65 424.02 475.06 431.6 479.31 431.62 424.88"/><polygon class="cls-1" points="447.98 433.26 440.41 429.02 440.39 483.45 447.98 487.69 447.98 433.26"/><polygon class="cls-10" points="412.42 408.55 404.82 404.31 404.82 468.07 412.42 472.31 412.42 408.55"/><polygon class="cls-10" points="427.65 417.69 420.07 413.46 420.06 477.21 427.64 481.45 427.65 417.69"/><polygon class="cls-10" points="444.04 426.07 436.45 421.84 436.45 485.59 444.02 489.83 444.04 426.07"/><polygon class="cls-1" points="306.1 355.28 303.1 354 303.1 407.67 306.1 408.97 306.1 355.28"/><polygon class="cls-1" points="345.87 379.01 342.88 377.72 342.87 431.4 345.87 432.69 345.87 379.01"/><polygon class="cls-10" points="303.94 344.01 300.94 342.72 300.94 406.47 303.93 407.76 303.94 344.01"/><polygon class="cls-10" points="343.72 367.73 340.71 366.44 340.71 430.2 343.71 431.49 343.72 367.73"/><polygon class="cls-1" points="326.7 364.62 325.62 363.93 325.62 418.7 326.7 419.38 326.7 364.62"/><polygon class="cls-10" points="325.81 360.67 324.72 359.98 324.72 418.88 325.8 419.56 325.81 360.67"/><polygon class="cls-1" points="657.86 396.25 524.6 453.1 524.6 522.82 657.86 445.88 657.86 396.25"/><polygon class="cls-14" points="525.53 501.42 525.53 519.79 539.73 510.84 525.53 501.42"/><polygon class="cls-15" points="773.19 343.06 739.16 362.71 739.16 439.66 773.19 420.01 773.19 343.06"/><polygon class="cls-16" points="766.93 362.67 746.38 374.54 746.38 421.03 766.94 409.15 766.93 362.67"/><polygon class="cls-17" points="765.24 369.19 748.9 378.62 748.9 398.55 765.24 406.14 765.24 369.19"/><polygon class="cls-18" points="826.18 261.95 575.73 368.8 575.73 499.83 826.18 355.23 826.18 261.95"/><polygon class="cls-19" points="516.24 359.57 179.22 162.51 179.22 289.45 516.24 483.81 516.24 359.57"/><rect class="cls-18" x="532.9" y="467.74" width="1.35" height="16.71"/><rect class="cls-18" x="540.27" y="471.51" width="1.35" height="16.72"/><path class="cls-10" d="M146.87,235.25V312a1.54,1.54,0,0,0-.06.43c0,1.19,1.56,2.15,3.48,2.15s3.27-.83,3.47-1.92h0V235.25Z"/><polygon class="cls-20" points="575.74 367.06 124.38 106.46 124.38 239.14 575.74 499.73 575.74 367.06"/><polygon class="cls-10" points="516.21 534.81 516.24 525.76 231.27 360.1 231.23 369.14 516.21 534.81"/><polygon class="cls-1" points="531.05 378.94 160.54 165.03 160.54 233.44 531.05 447.37 531.05 378.94"/><g class="cls-21"><polygon class="cls-22" points="162.41 231.38 161.7 167.76 216.94 200.22 162.41 231.38"/><polygon class="cls-23" points="502.01 198.05 341.93 290.48 357.33 299.38 517.42 206.95 502.01 198.05"/><polygon class="cls-23" points="531.98 217.22 371.88 309.66 387.3 318.54 547.38 226.12 531.98 217.22"/><polygon class="cls-23" points="458.64 172.41 298.54 264.83 313.95 273.74 474.05 181.3 458.64 172.41"/><polygon class="cls-23" points="614.66 265.63 454.56 358.06 469.97 366.96 630.07 274.53 614.66 265.63"/><polygon class="cls-24" points="621.25 262.52 461.16 354.95 476.56 363.84 636.66 271.41 621.25 262.52"/><polygon class="cls-25" points="499.97 320.29 461.08 342.73 461.19 354.95 500.08 332.52 499.97 320.29"/><polygon class="cls-24" points="468.34 170.01 308.25 262.44 323.67 271.34 483.76 178.91 468.34 170.01"/><polygon class="cls-26" points="347.07 227.78 308.18 250.22 308.29 262.45 347.18 240.02 347.07 227.78"/><polygon class="cls-24" points="541.45 212.91 381.35 305.34 396.76 314.24 556.86 221.8 541.45 212.91"/><polygon class="cls-25" points="420.17 270.69 381.28 293.11 381.4 305.34 420.27 282.91 420.17 270.69"/><polygon class="cls-24" points="500.1 187.74 340 280.18 355.42 289.07 515.52 196.64 500.1 187.74"/><polygon class="cls-23" points="419.09 150.12 259 242.55 274.42 251.45 434.51 159.01 419.09 150.12"/><polygon class="cls-23" points="375.71 124.47 215.62 216.9 231.04 225.8 391.12 133.37 375.71 124.47"/><polygon class="cls-24" points="385.43 122.08 225.33 214.51 240.74 223.41 400.84 130.97 385.43 122.08"/><polygon class="cls-24" points="417.18 139.81 257.08 232.25 272.5 241.14 432.59 148.71 417.18 139.81"/><polygon class="cls-27" points="394.28 254.86 355.39 277.3 355.51 289.53 394.39 267.09 394.28 254.86"/><polygon class="cls-23" points="578.95 246.46 418.86 338.89 434.26 347.79 594.36 255.36 578.95 246.46"/><polygon class="cls-24" points="577.03 236.15 416.93 328.58 432.34 337.48 592.44 245.05 577.03 236.15"/><polygon class="cls-27" points="471.21 303.28 432.33 325.7 432.45 337.93 471.32 315.5 471.21 303.28"/><polygon class="cls-23" points="651.32 288.64 491.23 381.07 506.64 389.97 666.73 297.54 651.32 288.64"/><polygon class="cls-24" points="649.41 278.33 489.31 370.76 504.72 379.67 664.82 287.23 649.41 278.33"/><polygon class="cls-27" points="543.59 345.45 504.7 367.89 504.81 380.12 543.7 357.68 543.59 345.45"/><polygon class="cls-26" points="311.12 206.46 272.24 228.89 272.34 241.12 311.22 218.69 311.12 206.46"/><polygon class="cls-26" points="264.15 180.09 225.26 202.52 225.38 214.75 264.26 192.32 264.15 180.09"/></g><polygon class="cls-28" points="531.05 421.14 229.26 252.73 160.54 233.44 531.05 447.37 531.05 421.14"/><polygon class="cls-1" points="221.79 268.81 237.58 257.37 235.66 256.3 219.91 267.72 221.79 268.81"/><polygon class="cls-1" points="336.25 334.89 342.73 316.04 338.94 313.94 332.49 332.72 336.25 334.89"/><polygon class="cls-1" points="490.07 423.69 502.14 405 499.06 403.29 487.01 421.94 490.07 423.69"/><polygon class="cls-1" points="277.92 301.22 334.05 311.21 323.41 305.27 267.8 295.37 277.92 301.22"/><polygon class="cls-1" points="377.87 358.92 434.89 367.47 424.84 361.87 368.28 353.39 377.87 358.92"/><polygon class="cls-20" points="197.25 177.19 191.65 175.01 212.46 269.36 218.06 271.53 197.25 177.19"/><polygon class="cls-20" points="312.54 248.97 306.94 246.81 327.75 341.15 333.35 343.31 312.54 248.97"/><polygon class="cls-20" points="469.18 329.46 463.58 327.3 484.39 421.65 489.98 423.81 469.18 329.46"/><polygon class="cls-20" points="307.11 248.44 312.05 251.51 223.24 289.63 218.29 286.56 307.11 248.44"/><polygon class="cls-20" points="432.2 311.52 437.14 314.59 348.32 352.72 343.38 349.65 432.2 311.52"/><path class="cls-8" d="M816,387.85v76.76a1.31,1.31,0,0,0-.07.44c0,1.18,1.55,2.14,3.48,2.14s3.28-.83,3.46-1.92h0V387.85Z"/><path class="cls-8" d="M874.8,421.82v76.76a1.25,1.25,0,0,0-.07.43c0,1.19,1.56,2.16,3.48,2.16s3.27-.84,3.46-1.92h0V421.82Z"/><path class="cls-12" d="M970.17,531.23H942.86a1.68,1.68,0,0,0-.45-.06c-1.19,0-2.15,1.55-2.15,3.48s.85,3.27,1.93,3.45v0h35.54Z"/><path class="cls-8" d="M939.86,459v76.76a1.33,1.33,0,0,0-.07.43c0,1.2,1.56,2.17,3.49,2.17s3.27-.85,3.45-1.93h0V459Z"/><path class="cls-29" d="M1037.64,519.92c20.06-11.58,23.78-42.87,3.6-54.52L754.06,377.65V394.7L971,519.8C989.43,530.47,1019.29,530.52,1037.64,519.92Z"/><path class="cls-13" d="M1037.35,502.87c20.06-11.58,20-30.41-.22-42.07L823.53,337.48,754,377.64l216.68,125.1C989.12,513.41,1019,513.46,1037.35,502.87Z"/><polygon class="cls-30" points="1020.51 450.96 823.53 337.48 753.97 377.64 910.46 468.18 1020.51 450.96"/><polygon class="cls-31" points="625.67 307.96 768.26 246.25 397.04 39.71 254.44 101.42 625.67 307.96"/><g class="cls-32"><polygon class="cls-1" points="624.7 303.62 758.13 247.53 402.19 49.48 268.76 105.58 624.7 303.62"/><g class="cls-33"><polygon class="cls-25" points="499.97 320.29 461.08 342.73 461.19 354.95 500.08 332.52 499.97 320.29"/><polygon class="cls-22" points="162.41 231.38 161.7 167.76 216.94 200.22 162.41 231.38"/><polygon class="cls-23" points="502.01 198.05 341.93 290.48 357.33 299.38 517.42 206.95 502.01 198.05"/><polygon class="cls-34" points="541.68 220.82 381.59 313.25 397 322.15 557.1 229.71 541.68 220.82"/><polygon class="cls-23" points="467.63 175.64 307.53 268.07 322.94 276.97 483.04 184.54 467.63 175.64"/><polygon class="cls-34" points="619.37 269.21 454.56 358.06 469.97 366.96 634.78 278.12 619.37 269.21"/><polygon class="cls-35" points="621.25 262.52 461.16 354.95 476.56 363.84 636.66 271.41 621.25 262.52"/><polygon class="cls-25" points="621.47 251.15 461.08 342.73 461.19 354.95 621.58 263.38 621.47 251.15"/><polygon class="cls-35" points="468.34 170.01 308.25 262.44 323.67 271.34 483.76 178.91 468.34 170.01"/><polygon class="cls-25" points="469.28 158.04 416.02 189.1 416.15 201.34 469.4 170.28 469.28 158.04"/><polygon class="cls-35" points="541.45 212.91 381.35 305.34 396.76 314.24 556.86 221.8 541.45 212.91"/><polygon class="cls-25" points="541.67 200.22 486.2 232.81 486.31 245.04 541.78 212.45 541.67 200.22"/><polygon class="cls-24" points="500.1 187.74 340 280.18 355.42 289.07 515.52 196.64 500.1 187.74"/><polygon class="cls-23" points="419.09 150.12 259 242.55 274.42 251.45 434.51 159.01 419.09 150.12"/><polygon class="cls-23" points="386.14 130.94 226.05 223.38 241.46 232.28 401.55 139.84 386.14 130.94"/><polygon class="cls-35" points="385.43 122.08 225.33 214.51 240.74 223.41 400.84 130.97 385.43 122.08"/><polygon class="cls-24" points="417.18 139.81 257.08 232.25 272.5 241.14 432.59 148.71 417.18 139.81"/><polygon class="cls-27" points="515.31 184.64 464.68 213.67 464.78 225.9 515.42 196.87 515.31 184.64"/><polygon class="cls-34" points="578.95 246.46 418.86 338.89 434.26 347.79 594.36 255.36 578.95 246.46"/><polygon class="cls-24" points="577.03 236.15 416.93 328.58 432.34 337.48 592.44 245.05 577.03 236.15"/><polygon class="cls-27" points="594.93 233.75 543.47 264.1 552.15 268.56 592.36 245.4 594.93 233.75"/><polygon class="cls-23" points="651.32 288.64 491.23 381.07 506.64 389.97 666.73 297.54 651.32 288.64"/><polygon class="cls-24" points="649.41 278.33 489.31 370.76 504.72 379.67 664.82 287.23 649.41 278.33"/><polygon class="cls-27" points="670.72 278.12 504.89 367.61 505 379.85 665.8 287.82 670.72 278.12"/><polygon class="cls-27" points="432.38 136.11 380.44 167.06 380.55 179.29 432.5 148.34 432.38 136.11"/><polygon class="cls-25" points="381.7 112.75 329.57 144.02 338.61 149.33 386.01 122.1 381.7 112.75"/></g></g><polygon class="cls-35" points="426.36 68.56 426.36 115.24 699.92 267.45 747.69 246.77 426.36 68.56"/><polygon class="cls-1" points="444.77 75.59 440.72 73.93 478.74 146.25 482.8 147.91 444.77 75.59"/><polygon class="cls-1" points="535.57 124.65 531.52 122.85 569.55 201.14 573.61 202.94 535.57 124.65"/><polygon class="cls-1" points="654.4 192.32 650.35 190.66 688.37 262.97 692.42 264.63 654.4 192.32"/><polygon class="cls-1" points="532.05 124.19 535.95 126.75 490.84 158.38 486.94 155.83 532.05 124.19"/><polygon class="cls-1" points="626.62 178.56 630.53 180.92 585.41 210.14 581.53 207.79 626.62 178.56"/><polygon class="cls-36" points="545.85 488.58 528.61 478.64 528.58 498.08 545.82 508.02 545.85 488.58"/><polygon class="cls-37" points="728.7 231.15 629.84 176.15 395.6 176.15 494.46 231.15 728.7 231.15"/><polygon class="cls-37" points="571.96 144.87 501.5 103.88 267.24 103.88 366.1 158.89 571.96 144.87"/></g></g></g></svg>