<svg xmlns="http://www.w3.org/2000/svg" viewBox="0 0 1011.76 489.86"><defs><style>.cls-1{isolation:isolate;}.cls-2{fill:#595351;}.cls-3{fill:#c8c4ad;}.cls-4{fill:#e6e1c4;}.cls-5{fill:#939743;}.cls-19,.cls-6{fill:#301404;}.cls-6{opacity:0.25;}.cls-19,.cls-21,.cls-6{mix-blend-mode:multiply;}.cls-7{fill:#f1ecd6;}.cls-8{fill:#a86c55;}.cls-9{fill:#884e3e;}.cls-10{fill:#76372b;}.cls-11{fill:#bc674c;}.cls-12{fill:#435251;}.cls-13{fill:#637474;}.cls-14{fill:#546362;}.cls-15{fill:#879e9c;}.cls-16{fill:#c7c09a;}.cls-17{fill:#aca380;}.cls-18{fill:#b4ac80;}.cls-19,.cls-21{opacity:0.4;}.cls-20{fill:#b4aa83;}.cls-21{fill:#4f2419;}.cls-22{fill:#ca8067;}.cls-23{fill:#c7c19e;}.cls-24{fill:#dbd3aa;}.cls-25{fill:#667674;}</style></defs><title>Recurso114</title><g class="cls-1"><g id="Capa_2" data-name="Capa 2"><g id="ELEMENTOS_INDIVIDUALES" data-name="ELEMENTOS INDIVIDUALES"><polygon class="cls-2" points="670.7 313.24 307.01 103.26 0 279.89 363.7 489.86 670.7 313.24"/><polygon class="cls-3" points="648.78 307.44 648.69 303.53 30.93 272.92 30.86 276.73 365.94 470.18 648.78 307.44"/><polygon class="cls-4" points="648.78 303.58 313.72 110.12 30.86 272.84 365.94 466.3 648.78 303.58"/><polygon class="cls-5" points="638.77 304.39 312.71 115.44 39.88 272.49 365.94 461.44 638.77 304.39"/><polygon class="cls-6" points="807.71 430.62 1011.76 313.24 718.83 144.11 356.96 139.61 237.56 411.48 246.75 411.48 253.57 408.41 261.65 408.41 268.61 405.01 276.59 405.01 282.94 402.26 290.7 402.26 297.61 398.73 365.59 398.73 377.76 430.62 807.71 430.62"/><polygon class="cls-7" points="574.51 158.23 298.11 0 99.75 115.66 376.11 274.79 574.51 158.23"/><polygon class="cls-8" points="557.43 156.85 305.3 11.68 124.32 117.2 376.45 262.38 557.43 156.85"/><polygon class="cls-9" points="305.3 21.38 549.05 161.73 557.43 156.85 305.3 11.68 124.32 117.2 132.69 122.02 305.3 21.38"/><polygon class="cls-4" points="499.54 87.59 366.44 10.73 156.21 132.79 289.15 209.3 499.54 87.59"/><polygon class="cls-10" points="574.63 161.14 376.17 275.72 376.17 429.8 574.63 315.21 574.63 161.14"/><polygon class="cls-4" points="376.17 272.7 376.17 288.31 574.63 173.72 574.63 158.12 376.17 272.7"/><polygon class="cls-3" points="107.92 240.47 98.59 245.85 98.59 256 107.92 250.59 107.92 240.47"/><polygon class="cls-11" points="376.86 274.31 101.17 115.14 101.17 270.61 376.86 429.77 376.86 274.31"/><polygon class="cls-4" points="376.93 273.91 100.27 114.19 100.27 128.5 376.93 288.21 376.93 273.91"/><polygon class="cls-10" points="306.57 199.34 289.21 209.38 289.21 399.14 306.57 389.12 306.57 199.34"/><polygon class="cls-4" points="161.72 282.56 98.61 245.88 98.61 267.17 161.72 303.86 161.72 282.56"/><polygon class="cls-3" points="161.72 300.23 98.61 263.56 98.61 268.78 161.72 305.46 161.72 300.23"/><polygon class="cls-11" points="289.25 209.34 156.42 132.65 156.42 322.82 289.25 399.52 289.25 209.34"/><polygon class="cls-4" points="272.96 199.28 176.16 143.4 176.16 313.88 272.96 369.78 272.96 199.28"/><polygon class="cls-12" points="182.37 185.18 180.62 186.73 180.62 308.86 201.97 321.18 203.5 319.7 182.37 185.18"/><polygon class="cls-12" points="212.99 202.85 211.08 204.32 211.08 261.76 232.44 274.09 233.89 272.7 212.99 202.85"/><polygon class="cls-12" points="232.43 292.57 212.66 278.96 211.08 279.49 211.08 333.27 232.43 345.6 232.43 292.57"/><polygon class="cls-12" points="243.81 220.96 241.88 222.1 241.88 344.23 263.24 356.56 265.16 355.27 243.81 220.96"/><polygon class="cls-13" points="203.49 197.75 182.13 185.41 182.13 307.54 203.49 319.87 203.49 197.75"/><polygon class="cls-14" points="203 199.31 182.9 187.71 182.9 302.63 203 293.58 203 199.31"/><polygon class="cls-14" points="233.94 215.32 212.58 202.99 212.58 260.44 233.94 272.78 233.94 215.32"/><polygon class="cls-13" points="233.94 291.25 212.58 278.92 212.58 331.95 233.94 344.29 233.94 291.25"/><polygon class="cls-4" points="354.1 291.25 329.94 277.31 329.94 387.38 354.1 401.33 354.1 291.25"/><polygon class="cls-13" points="264.74 233.11 243.4 220.78 243.4 342.91 264.74 355.24 264.74 233.11"/><polygon class="cls-14" points="264.74 233.11 243.4 220.78 243.4 275.22 264.74 265.51 264.74 233.11"/><polygon class="cls-15" points="248.88 307.46 243.59 307.46 243.59 321.05 264.41 321.05 264.41 316.89 248.88 307.46"/><polygon class="cls-15" points="264.57 307.46 253.08 307.46 264.57 314.31 264.57 307.46"/><rect class="cls-13" x="243.81" y="313.62" width="20.6" height="0.94"/><polygon class="cls-15" points="264.74 342.95 243.4 342.91 264.74 355.24 264.74 342.95"/><rect class="cls-13" x="254.16" y="347.9" width="10.35" height="0.95"/><polygon class="cls-15" points="233.7 327 212.35 326.95 233.7 339.28 233.7 327"/><polygon class="cls-15" points="203.3 307.82 181.95 307.76 203.3 320.09 203.3 307.82"/><rect class="cls-13" x="192.94" y="313.62" width="10.35" height="0.94"/><polygon class="cls-4" points="148.6 172.62 124.43 158.67 124.43 268.74 148.6 282.68 148.6 172.62"/><polygon class="cls-4" points="377.46 407.13 306.53 366.49 306.53 387.78 377.46 428.43 377.46 407.13"/><polygon class="cls-3" points="377.46 424.8 306.53 384.17 306.53 389.39 377.46 430.03 377.46 424.8"/><polygon class="cls-16" points="156.42 141.44 289.25 218.14 289.25 208.37 156.42 131.68 156.42 141.44"/><polygon class="cls-4" points="156.42 318.32 289.25 395.02 289.25 377.33 156.42 300.64 156.42 318.32"/><polygon class="cls-3" points="156.42 322.82 289.25 399.52 289.25 395.02 156.42 318.32 156.42 322.82"/><polygon class="cls-4" points="271.75 386.73 271.75 361.75 175.01 306.38 168.73 310.01 168.73 314.58 163.26 317.75 163.26 322.34 157.78 325.5 157.78 330.07 152.3 333.23 152.3 337.82 146.82 340.98 146.82 345.57 141.35 348.74 141.35 353.49 238.11 408.86 248.78 396.88 271.75 386.73"/><polygon class="cls-16" points="376.17 406.36 376.17 429.8 574.63 315.21 574.63 291.78 376.17 406.36"/><polygon class="cls-17" points="575.04 309.5 376.22 424.21 376.22 430.57 575.04 315.87 575.04 309.5"/><polygon class="cls-16" points="441.61 267.12 412.18 284.1 412.18 390.85 441.61 373.86 441.61 267.12"/><polygon class="cls-16" points="493.92 237.39 464.49 254.38 464.49 361.12 493.92 344.14 493.92 237.39"/><polygon class="cls-16" points="542.08 209.91 512.65 226.91 512.65 333.65 542.08 316.66 542.08 209.91"/><polygon class="cls-18" points="264.97 369.63 259.5 372.78 259.5 377.37 254.02 380.53 254.02 385.11 248.55 388.28 248.55 392.86 243.06 396 243.06 400.6 237.59 403.76 237.59 411.43 251.46 403.88 251.46 400.54 271.75 389.55 271.75 361.75 271.22 361.43 264.97 365.04 264.97 369.63"/><polygon class="cls-19" points="278.55 369.73 284.03 372.89 284.03 377.48 289.51 380.63 289.51 385.21 289.09 399.58 271.75 389.54 271.75 361.86 272.31 361.54 278.55 365.15 278.55 369.73"/><polygon class="cls-10" points="498.83 90.56 306.18 201.91 306.18 234.17 317.28 227.96 325.83 232.99 498.83 132.57 498.83 90.56"/><polygon class="cls-20" points="499.77 86.8 289.25 208.48 289.25 218.14 499.77 96.48 499.77 86.8"/><polygon class="cls-9" points="483.27 87.41 366.87 20.19 175.01 129.84 291.3 196.76 483.27 87.41"/><polygon class="cls-8" points="483.24 87.28 378.52 26.8 197.58 130.15 302.21 190.37 483.24 87.28"/><polygon class="cls-21" points="322.59 243 306.57 233.73 306.57 389.19 322.59 398.45 322.59 243"/><polygon class="cls-21" points="306.63 233.86 322.97 243.27 343.86 243.16 351.6 248.13 524.49 147.23 524.6 137.53 531.57 133.46 498.94 115 498.85 122.88 498.73 132.57 325.74 233.14 317.12 227.96 306.63 233.86"/><polygon class="cls-21" points="380.16 83.21 350.09 83.21 350.09 122.23 378.23 122.23 416.39 101.21 380.16 83.21"/><polygon class="cls-22" points="350.13 105.69 322.15 89.53 322.15 106.29 350.13 122.45 350.13 105.69"/><polygon class="cls-9" points="377.95 89.47 349.98 105.62 349.98 122.38 377.95 106.23 377.95 89.47"/><polygon class="cls-9" points="376.62 94.95 321.79 89.72 322.13 94.18 349.81 110.18 376.62 94.95"/><polygon class="cls-16" points="381.71 90.27 381.58 88.82 317.44 88.59 317.57 90.16 349.74 108.72 381.71 90.27"/><polygon class="cls-4" points="381.71 88.72 349.55 70.16 317.57 88.63 349.74 107.19 381.71 88.72"/><polygon class="cls-8" points="371.55 88.28 349.8 75.72 328.16 88.21 349.92 100.76 371.55 88.28"/><polygon class="cls-8" points="371.55 88.28 349.8 75.72 328.16 88.21 349.92 100.76 371.55 88.28"/><polygon class="cls-9" points="334.63 88.86 353.6 77.92 349.8 75.72 328.16 88.21 349.92 100.76 352.59 99.21 334.63 88.86"/><polygon class="cls-23" points="349.8 78.86 368.85 89.84 371.55 88.28 349.8 75.72 328.16 88.21 330.87 89.77 349.8 78.86"/><polygon class="cls-24" points="243.13 396 146.78 340.63 146.78 345.27 243.13 400.64 243.13 396"/><polygon class="cls-24" points="237.64 404.25 141.28 348.87 141.28 356.37 237.65 411.74 237.64 404.25"/><polygon class="cls-24" points="248.85 388.3 152.5 332.92 152.5 337.56 248.85 392.94 248.85 388.3"/><polygon class="cls-24" points="254.13 380.65 157.78 325.27 157.78 329.91 254.13 385.29 254.13 380.65"/><polygon class="cls-24" points="259.63 372.77 163.27 317.4 163.27 322.04 259.63 377.41 259.63 372.77"/><polygon class="cls-24" points="265.13 365.22 168.78 309.85 168.78 314.5 265.13 369.87 265.13 365.22"/><polygon class="cls-12" points="203.53 265.72 181.58 253 181.66 255.19 203.6 267.9 203.53 265.72"/><polygon class="cls-12" points="193.3 191.64 192.35 191.1 192.35 315.24 193.3 315.77 193.3 191.64"/><polygon class="cls-4" points="205.62 264.43 179.05 249.07 179.13 251.71 205.72 267.07 205.62 264.43"/><polygon class="cls-12" points="264.75 299.13 242.8 286.41 242.89 288.6 264.83 301.31 264.75 299.13"/><polygon class="cls-12" points="254.3 226.79 253.37 226.24 253.37 350.37 254.3 350.91 254.3 226.79"/><polygon class="cls-4" points="266.86 297.84 240.27 282.49 240.37 285.13 266.95 300.47 266.86 297.84"/><polygon class="cls-4" points="192.57 189.69 191.63 189.17 191.63 316.1 192.57 316.65 192.57 189.69"/><polygon class="cls-4" points="253.59 224.84 252.65 224.3 252.65 351.25 253.59 351.79 253.59 224.84"/><polygon class="cls-12" points="233.89 303.2 212.09 290.44 212.09 292.05 233.89 304.81 233.89 303.2"/><polygon class="cls-4" points="235.41 302.32 210.07 287.55 210.06 289.42 235.41 304.19 235.41 302.32"/><polygon class="cls-12" points="144.75 174.4 128.29 164.91 128.29 253.69 144.75 263.18 144.75 174.4"/><polygon class="cls-13" points="144.87 174.48 129.12 165.38 129.12 252.83 144.87 261.92 144.87 174.48"/><polygon class="cls-15" points="144.47 252.43 128.94 252.41 144.45 261.35 144.47 252.43"/><polygon class="cls-12" points="144.69 217.6 128.36 208.03 128.36 209.23 144.69 218.79 144.69 217.6"/><polygon class="cls-12" points="137.69 169.98 136.75 169.44 136.75 258.31 137.67 258.86 137.69 169.98"/><polygon class="cls-4" points="136.95 168.04 136.03 167.5 136.03 259.18 136.95 259.73 136.95 168.04"/><polygon class="cls-4" points="145.83 216.95 126.84 205.86 126.84 207.26 145.83 218.34 145.83 216.95"/><polygon class="cls-12" points="349.54 295.13 333.08 285.63 333.08 374.41 349.54 383.9 349.54 295.13"/><polygon class="cls-13" points="349.68 295.2 333.92 286.11 333.94 373.55 349.68 382.65 349.68 295.2"/><polygon class="cls-15" points="349.28 373.16 333.73 373.14 349.26 382.07 349.28 373.16"/><polygon class="cls-12" points="349.49 338.32 333.17 328.75 333.17 329.96 349.49 339.53 349.49 338.32"/><polygon class="cls-12" points="342.48 290.7 341.54 290.17 341.54 379.03 342.48 379.57 342.48 290.7"/><polygon class="cls-4" points="341.76 288.76 340.82 288.22 340.82 379.91 341.76 380.44 341.76 288.76"/><polygon class="cls-4" points="350.63 337.67 331.66 326.59 331.64 327.98 350.62 339.07 350.63 337.67"/><polygon class="cls-12" points="419.06 289.52 435.51 280.02 435.51 368.8 419.06 378.31 419.06 289.52"/><polygon class="cls-14" points="418.93 289.59 434.68 280.5 434.68 367.95 418.93 377.04 418.93 289.59"/><polygon class="cls-25" points="419.56 291.44 431.48 284.56 431.48 356.15 419.56 363.04 419.56 291.44"/><polygon class="cls-12" points="419.12 332.73 435.44 323.15 435.44 324.36 419.12 333.93 419.12 332.73"/><polygon class="cls-12" points="426.13 285.09 427.06 284.56 427.06 373.43 426.13 373.97 426.13 285.09"/><polygon class="cls-16" points="426.86 283.15 427.79 282.61 427.79 374.3 426.86 374.85 426.86 283.15"/><polygon class="cls-16" points="417.98 332.06 436.96 320.98 436.96 322.37 417.99 333.46 417.98 332.06"/><polygon class="cls-12" points="470.59 261.72 487.05 252.21 487.05 340.99 470.59 350.5 470.59 261.72"/><polygon class="cls-14" points="470.47 261.79 486.21 252.69 486.21 340.13 470.47 349.24 470.47 261.79"/><polygon class="cls-25" points="471.07 263.63 483.01 256.75 483.01 328.36 471.07 335.23 471.07 263.63"/><polygon class="cls-12" points="470.64 304.91 486.97 295.34 486.97 296.55 470.65 306.11 470.64 304.91"/><polygon class="cls-12" points="477.64 257.29 478.59 256.75 478.59 345.62 477.66 346.16 477.64 257.29"/><polygon class="cls-16" points="478.39 255.34 479.3 254.81 479.3 346.49 478.39 347.03 478.39 255.34"/><polygon class="cls-16" points="469.5 304.25 488.49 293.18 488.49 294.57 469.5 305.65 469.5 304.25"/><polygon class="cls-12" points="518.45 230.67 534.91 221.16 534.91 309.95 518.45 319.45 518.45 230.67"/><polygon class="cls-14" points="518.33 230.74 534.07 221.65 534.07 309.09 518.3 318.19 518.33 230.74"/><polygon class="cls-25" points="518.95 232.58 530.87 225.7 530.84 297.31 518.95 304.19 518.95 232.58"/><polygon class="cls-12" points="518.5 273.87 534.83 264.29 534.83 265.51 518.51 275.07 518.5 273.87"/><polygon class="cls-12" points="525.51 226.24 526.44 225.7 526.44 314.58 525.51 315.11 525.51 226.24"/><polygon class="cls-16" points="526.24 224.3 527.17 223.77 527.17 315.45 526.24 315.99 526.24 224.3"/><polygon class="cls-16" points="517.37 273.2 536.35 262.13 536.35 263.52 517.37 274.61 517.37 273.2"/><rect class="cls-15" x="212.66" y="307.68" width="21.1" height="13.59"/><rect class="cls-13" x="212.66" y="313.62" width="21.01" height="0.94"/><polygon class="cls-14" points="213.03 280.15 213.03 288.44 221.09 284.81 213.03 280.15"/><polygon class="cls-12" points="233.84 245.27 212.16 233.7 212.16 236.45 233.84 248.01 233.84 245.27"/><polygon class="cls-4" points="236.47 244.54 205.65 228.12 205.65 232 236.47 248.44 236.47 244.54"/></g></g></g></svg>