<svg xmlns="http://www.w3.org/2000/svg" viewBox="0 0 733.69 547.66"><defs><style>.cls-1{isolation:isolate;}.cls-2,.cls-9{fill:#301404;mix-blend-mode:multiply;}.cls-2{opacity:0.4;}.cls-3{fill:#bfb49c;}.cls-4{fill:#939743;}.cls-5{fill:#644f32;}.cls-6{fill:#4f3d27;}.cls-7{fill:#acac4b;}.cls-8{fill:#82823d;}.cls-9{opacity:0.3;}.cls-10{fill:#d1cba6;}.cls-11{fill:#c38669;}.cls-12{fill:#9d694d;}.cls-13{fill:#e6e1c4;}.cls-14{fill:#c4be9a;}.cls-15{fill:#fcf8dd;}.cls-16{fill:#786f6c;}.cls-17,.cls-18,.cls-19{fill:#8d8380;}.cls-18{opacity:0.7;}.cls-19{opacity:0.5;}.cls-20{fill:#5b524f;}.cls-21{fill:#4e4543;}.cls-22{fill:#bbaa96;}.cls-23{fill:#5b514d;}.cls-24{fill:#6d625f;}.cls-25{fill:#b2ab8a;}.cls-26{fill:#89543b;}.cls-27{fill:#a99682;}.cls-28{fill:#968272;}.cls-29{fill:#dc9c80;}.cls-30{fill:#a49f84;}</style></defs><title>Recurso 39</title><g class="cls-1"><g id="Capa_2" data-name="Capa 2"><g id="ELEMENTOS_INDIVIDUALES" data-name="ELEMENTOS INDIVIDUALES"><path class="cls-2" d="M37.28,318.59c6.65-3.83,6.61-10.08-.08-13.93s-17.49-3.89-24.13-.05-6.62,10.07.08,13.93S30.63,322.42,37.28,318.59Z"/><path class="cls-3" d="M34.43,317.56c6.64-3.85,6.62-10.08-.07-13.94s-17.5-3.88-24.14,0-6.62,10.06.07,13.93S27.79,321.4,34.43,317.56Z"/><path class="cls-4" d="M34.43,315.81c6.64-3.84,6.62-10.07-.07-13.94s-17.5-3.88-24.14-.05-6.62,10.09.07,13.94S27.79,319.65,34.43,315.81Z"/><path class="cls-2" d="M107.06,305.2l-6.25-6.61c-1.52-1.61-4.24-2.65-7.28-2.79L43.4,293.45a5.12,5.12,0,0,0-3.83,1.24L29.82,305a4.64,4.64,0,0,0-.79,1.15H21.11v1.75h7.66a3.79,3.79,0,0,0,1.05,2l8.6,9.11c1.42,1.52,4.17,2.39,7,2.25l47.83-2.22c3.16-.15,6-1.23,7.57-2.91l6.22-6.57A3,3,0,0,0,107.06,305.2Z"/><rect class="cls-5" x="20.68" y="278.44" width="2.87" height="29.18"/><rect class="cls-6" x="22.33" y="278.44" width="1.5" height="29.18"/><path class="cls-7" d="M41.72,235.87A9.41,9.41,0,0,0,37,228.36L26.3,222.18a7.21,7.21,0,0,0-7.19,0l-10.74,6.2a9.14,9.14,0,0,0-4.55,7.24L0,285.44a4.06,4.06,0,0,0,2,3.82L18.81,299a8,8,0,0,0,8,0l14.83-8.56a7.38,7.38,0,0,0,3.67-7Z"/><path class="cls-4" d="M41.93,237.12a9.38,9.38,0,0,0-4.45-7.37L27.42,223.7a6.48,6.48,0,0,0-6.75,0L10.58,229.8a9,9,0,0,0-4.28,7.09L2.76,285.75a4,4,0,0,0,1.89,3.74L20.44,299A7.31,7.31,0,0,0,28,299l13.92-8.4a7.33,7.33,0,0,0,3.45-6.84Z"/><path class="cls-8" d="M26.85,299l14.83-8.55a7.41,7.41,0,0,0,3.68-7l-3.64-47.56a9.53,9.53,0,0,0-2.13-5.32l-10.12,4.52c-3.25,1.45-6.41,4.46-6.7,8-2.79,10.76-.67,48.3-.67,53.11C22.1,299.31,23.62,300.49,26.85,299Z"/><polygon class="cls-9" points="352.8 492.94 303.09 472.81 307.32 510.48 319.98 510.48 352.8 492.94"/><polygon class="cls-9" points="733.69 411.36 446.83 245.75 423.27 245.75 423.27 512.11 542.86 512.11 532.71 517.96 423.27 517.96 423.27 519.9 454.04 519.9 454.04 525.97 518.8 525.97 499.25 537.22 416.35 537.22 416.35 546.31 498.64 546.31 733.69 411.36"/><polygon class="cls-10" points="357.5 481.22 179.79 431.55 179.79 436.99 306.95 510.4 357.5 481.22"/><polygon class="cls-10" points="578.61 455.13 312.06 301.24 150.75 388.46 150.75 394.52 417.34 547.65 578.61 455.13"/><polygon class="cls-11" points="569.68 454.5 310.37 295.32 149.18 387.49 416.06 541.57 569.68 454.5"/><polygon class="cls-11" points="357.5 475.59 230.33 402.18 179.79 431.36 306.95 504.78 357.5 475.59"/><polygon class="cls-12" points="570.1 453.64 316.4 293.89 422.62 512.42 467.78 512.42 570.1 453.64"/><path class="cls-13" d="M242.84,233.13c.18-13.52-8.68-27.07-26.58-37.42-35.31-20.39-92.4-20.49-127.51-.22C71,205.73,62.31,219.2,62.58,232.67c0,.33,0,98.93,0,99.28-.18,13.5,8.67,27.06,26.58,37.4,35.32,20.39,92.4,20.5,127.5.23,17.73-10.24,26.45-23.72,26.18-37.18C242.84,332.06,242.85,233.46,242.84,233.13Z"/><path class="cls-14" d="M242.84,233.13c.18-13.52-8.68-27.07-26.58-37.42-12.51-7.22-27.74-11.87-43.75-14V383.5c16.2-2.05,31.58-6.66,44.15-13.92,17.73-10.24,26.45-23.72,26.18-37.18C242.84,332.06,242.85,233.46,242.84,233.13Z"/><polygon class="cls-9" points="168.22 307.03 193.62 335.07 193.62 313.31 168.22 307.03"/><path class="cls-4" d="M239.7,317.84v9c.27,13.2-8.25,26.43-25.65,36.46C179.7,383.09,123.81,383,89.23,363,71.68,352.9,63,339.59,63.2,326.36c0-.07,0-3.09,0-8.07-10,18.42-2.27,39.42,23.15,54.1,36.34,21,95.11,21.09,131.23.24C243.19,357.83,250.53,336.49,239.7,317.84Z"/><path class="cls-14" d="M239.75,316.22v9c.28,13.19-8.24,26.4-25.64,36.44-34.36,19.83-90.25,19.74-124.83-.23-17.55-10.13-26.22-23.43-26-36.67v-8.07c-10,18.44-2.27,39.44,23.15,54.1,36.34,21,95.09,21.1,131.24.24C243.24,356.21,250.58,334.87,239.75,316.22Z"/><path class="cls-15" d="M239.75,312.42v9c.28,13.19-8.24,26.4-25.64,36.43-34.36,19.85-90.25,19.75-124.83-.22-17.55-10.12-26.22-23.43-26-36.68v-8.07C53.26,331.31,61,352.3,86.4,367c36.34,21,95.09,21.09,131.24.24C243.24,352.42,250.58,331.08,239.75,312.42Z"/><path class="cls-12" d="M235.49,273.68c45.22-26.11,45-68.57-.51-94.84s-119-26.41-164.26-.29-45,68.55.51,94.83S190.28,299.78,235.49,273.68Z"/><path class="cls-15" d="M235.49,262.63c45.22-26.11,45-68.57-.51-94.84s-119-26.39-164.26-.29-45,68.56.51,94.83S190.28,288.74,235.49,262.63Z"/><path class="cls-16" d="M258.8,88c.25-15.91-10.16-31.9-31.27-44.1-41.57-24-108.74-24.1-150-.27-20.9,12.08-31.14,28-30.81,43.81,0,.43,0,126.45,0,126.87-.24,15.92,10.19,31.92,31.29,44.09,41.55,24,108.73,24.12,150,.27,20.91-12.06,31.16-27.94,30.81-43.8C258.82,214.4,258.82,88.38,258.8,88Z"/><path class="cls-17" d="M139.78,200.27H54.6V228.2h86.53A39.85,39.85,0,0,1,139.78,200.27Z"/><polygon class="cls-17" points="80.58 107.37 64.02 107.37 64.02 188.9 80.58 179.48 80.58 107.37"/><polygon class="cls-18" points="115.66 92.64 99.09 92.64 99.09 174.18 115.66 171.69 115.66 92.64"/><polygon class="cls-19" points="157.36 90.26 133.31 88.31 133.31 169.85 157.36 169.3 157.36 90.26"/><path class="cls-17" d="M147.74,240.22H56.54c4.88,7.47,16.79,16.35,29.35,21.44h77.75v-6.09A73,73,0,0,1,147.74,240.22Z"/><path class="cls-20" d="M258.8,88c.25-15.91-10.16-31.9-31.27-44.1-16.32-9.41-36.59-15.15-57.69-17.2v249c21.31-1.92,41.78-7.61,58.15-17.07,20.91-12.06,31.16-27.94,30.81-43.8C258.82,214.4,258.82,88.38,258.8,88Z"/><rect class="cls-20" x="124.28" y="134.84" width="6.65" height="139.82"/><polygon class="cls-20" points="96.16 123.79 89.52 123.79 89.52 264.26 96.16 266.69 96.16 123.79"/><polygon class="cls-20" points="61.08 102.36 54.44 102.36 54.44 237.95 61.08 245.59 61.08 102.36"/><rect class="cls-15" x="119.51" y="135.7" width="6.65" height="140.84"/><rect class="cls-21" x="166.96" y="136.39" width="5.88" height="140.84"/><rect class="cls-13" x="163.93" y="135.96" width="5.87" height="142.48"/><rect class="cls-15" x="161.65" y="136.28" width="5.88" height="142.49"/><rect class="cls-22" x="203.13" y="128.96" width="6.85" height="140.83"/><rect class="cls-22" x="239.61" y="112.52" width="6.04" height="140.84"/><rect class="cls-22" x="258.78" y="69.65" width="6.03" height="140.83"/><polygon class="cls-15" points="90.47 124.46 81.72 121.53 81.72 262.37 90.47 265.29 90.47 124.46"/><path class="cls-15" d="M54.92,102.57H46.48V220a33.41,33.41,0,0,0,8.44,20.22Z"/><polygon class="cls-23" points="545.67 360.1 421.3 432.32 421.3 510.15 545.67 437.94 545.67 360.1"/><polygon class="cls-23" points="422.35 359.56 193.91 227.67 193.91 378.43 422.35 510.31 422.35 359.56"/><polygon class="cls-24" points="382.75 421.95 346 400.73 346 421.82 382.75 443.04 382.75 421.95"/><polygon class="cls-24" points="337.07 395.53 300.3 374.31 300.3 395.4 337.07 416.62 337.07 395.53"/><rect class="cls-24" x="389.92" y="429.16" width="1.09" height="18.63"/><rect class="cls-24" x="397.94" y="432.84" width="1.09" height="18.63"/><rect class="cls-24" x="393.83" y="425.27" width="1.08" height="18.62"/><rect class="cls-24" x="403.14" y="430.68" width="1.09" height="18.62"/><polygon class="cls-24" points="240.76 315.55 210.38 333.1 210.38 368.82 240.76 351.27 240.76 315.55"/><polygon class="cls-23" points="239.38 317.57 212.24 333.23 212.25 365.12 239.38 349.46 239.38 317.57"/><polygon class="cls-24" points="248.26 337.82 211.32 359.15 211.32 360.66 248.26 339.33 248.26 337.82"/><polygon class="cls-24" points="247.83 330.68 210.87 352.01 210.87 353.51 247.83 332.19 247.83 330.68"/><polygon class="cls-24" points="247.83 322.88 210.87 344.21 210.87 345.73 247.83 324.39 247.83 322.88"/><polygon class="cls-16" points="443.42 493.27 231.2 376.33 197.16 376.48 422.31 505.93 443.42 493.27"/><polygon class="cls-23" points="376.18 447.47 316.42 447.47 320.95 450.06 376.18 450.06 376.18 447.47"/><polygon class="cls-23" points="352.46 432.84 292.7 432.84 297.25 433.83 352.46 433.83 352.46 432.84"/><rect class="cls-23" x="268.66" y="416.6" width="55.23" height="3.58"/><rect class="cls-15" x="266.24" y="347.17" width="2.65" height="77.98"/><rect class="cls-15" x="316.1" y="371.56" width="2.65" height="77.98"/><polygon class="cls-15" points="414.69 504.69 188.97 374.26 188.85 382.25 414.58 512.67 414.69 504.69"/><polygon class="cls-12" points="412.5 350.51 168.22 209.48 168.22 307.03 412.5 448.08 412.5 350.51"/><polygon class="cls-15" points="351.94 352.83 226.36 280.33 226.36 330.49 351.94 402.99 351.94 352.83"/><path class="cls-13" d="M235.49,125.67c45.22-26.1,45-68.56-.51-94.84s-119-26.4-164.26-.29-45,68.56.51,94.83S190.28,151.77,235.49,125.67Z"/><path class="cls-12" d="M235.49,125.67c45.22-26.1,45-68.56-.51-94.84s-119-26.4-164.26-.29-45,68.56.51,94.83S190.28,151.77,235.49,125.67Z"/><path class="cls-11" d="M235.49,114.62c45.22-26.1,45-68.56-.51-94.83s-119-26.4-164.26-.29-45,68.56.51,94.83S190.28,140.73,235.49,114.62Z"/><path class="cls-12" d="M235,19.79C219.54,10.87,200.88,5,181.18,2.08c48.53,33,46.07,82.42-7.59,113.4a172.28,172.28,0,0,1-43.48,17.23c37,4.42,76.82-1.6,105.38-18.09C280.71,88.52,280.48,46.06,235,19.79Z"/><path class="cls-15" d="M327.26,118.2l-69.83,40.31C254,170.72,244.25,182.41,228,191.8s-36.52,15-57.66,17l-3.11,1.8L411.29,351.5l160-92.39Z"/><polygon class="cls-10" points="558.5 342.61 508.27 371.84 508.27 477.46 520.08 483.52 558.5 342.61"/><polygon class="cls-25" points="558.5 317.26 508.27 346.5 508.27 452.12 520.08 458.19 558.5 317.26"/><polygon class="cls-25" points="570.19 346.51 519.96 375.74 519.96 483.41 570.19 454.17 570.19 346.51"/><polygon class="cls-13" points="491.96 387.06 482.36 397.83 482.36 504.85 487.45 507.42 491.96 387.06"/><polygon class="cls-25" points="491.96 346.13 482.36 356.89 482.36 463.91 487.45 466.48 491.96 346.13"/><polygon class="cls-25" points="495.03 395.84 486.89 400.8 486.89 507.8 495.03 502.87 495.03 395.84"/><polygon class="cls-13" points="457.73 406.06 448.14 416.82 448.14 523.83 453.22 526.41 457.73 406.06"/><polygon class="cls-25" points="457.73 338.49 448.14 349.26 448.14 456.27 453.22 458.85 457.73 338.49"/><polygon class="cls-25" points="460.82 414.84 452.67 419.79 452.67 526.8 460.82 521.85 460.82 414.84"/><polygon class="cls-13" points="422 426.85 412.4 437.62 412.4 544.63 417.5 547.21 422 426.85"/><polygon class="cls-25" points="425.09 435.63 416.94 440.58 416.94 547.59 425.09 542.64 425.09 435.63"/><polygon class="cls-26" points="571.4 258.95 412.02 351.42 412.4 447.96 570.46 359.33 571.4 258.95"/><path class="cls-22" d="M331.65,130.39l-62.52,36.1c-3,10.93-11.81,21.41-26.35,29.81s-32.72,13.46-51.64,15.22l-2.78,1.62L406.9,339.31l143.29-82.75Z"/><path class="cls-27" d="M242.78,204.09c14.54-8.39,23.31-18.87,26.35-29.8l62.52-36.1,211.8,122.28,6.74-3.91L331.65,130.39l-62.52,36.1c-3,10.93-11.81,21.41-26.35,29.81s-32.72,13.46-51.64,15.22l-2.78,1.62,9.41,5.42C214.28,216.32,229.93,211.51,242.78,204.09Z"/><path class="cls-28" d="M242.78,204.09c14.54-8.39,23.31-18.87,26.35-29.8l62.52-36.1v-7.8l-62.52,36.1c-3,10.93-11.81,21.41-26.35,29.81s-32.72,13.46-51.64,15.22l-2.78,1.62,9.41,5.42C214.28,216.32,229.93,211.51,242.78,204.09Z"/><path class="cls-29" d="M206.43,78c29.56-17.06,29.41-44.81-.34-62s-77.8-17.26-107.37-.2-29.41,44.83.33,62S176.88,95.06,206.43,78Z"/><path class="cls-9" d="M356.59,211.77v-.13c31.92,1.14,64.43-5.34,88.74-19.42,1.71-1,3.34-2,4.91-3l-123-71-69.83,40.31C254,170.72,244.25,182.41,228,191.8c-15.63,9-35,14.59-55.24,16.75L167,211.77Z"/><path class="cls-15" d="M262.36,118.69c0,6.75,0,10.9,0,11,.34,16.15-10.1,32.32-31.37,44.6-42.06,24.28-110.45,24.16-152.77-.27C56.74,161.58,46.13,145.3,46.35,129.1v-9.86c-12.23,22.55-2.77,48.24,28.33,66.2,44.49,25.68,116.39,25.81,160.59.3C266.63,167.64,275.6,141.52,262.36,118.69Z"/><path class="cls-22" d="M262.36,118.69c0,6.75,0,10.9,0,11,.34,16.15-10.1,32.32-31.37,44.6-16.87,9.74-38,15.55-60,17.44-1,4.35-2.14,8.61-3.38,12.71,24.73-1.54,48.73-7.75,67.63-18.67C266.63,167.64,275.6,141.52,262.36,118.69Z"/><path class="cls-12" d="M265,124.8V136c.35,16.54-10.34,33.1-32.13,45.68-43.06,24.87-113.12,24.74-156.46-.27-22-12.72-32.86-29.39-32.61-46,0-.08,0-3.86,0-10.11-12.53,23.11-2.86,49.42,29,67.81,45.56,26.3,119.21,26.43,164.48.3C269.32,174.93,278.53,148.18,265,124.8Z"/><path class="cls-26" d="M265,124.8V136c.35,16.54-10.34,33.1-32.13,45.68-16.72,9.65-37.51,15.53-59.22,17.66v12.78c23.33-2.12,45.7-8.34,63.63-18.69C269.32,174.93,278.53,148.18,265,124.8Z"/><polygon class="cls-15" points="317.78 404.46 267.49 375.43 267.45 377.67 317.76 406.71 317.78 404.46"/><polygon class="cls-15" points="293.74 391.45 292.47 390.72 292.47 432.52 293.74 433.26 293.74 391.45"/><polygon class="cls-10" points="299.22 460.01 259.25 436.93 241.34 447.27 281.32 470.34 299.22 460.01"/><polygon class="cls-30" points="297.09 459.7 260.37 438.5 243.92 448.01 280.64 469.19 297.09 459.7"/></g></g></g></svg>