<svg xmlns="http://www.w3.org/2000/svg" xmlns:xlink="http://www.w3.org/1999/xlink" viewBox="0 0 1413.49 1000.73"><defs><style>.cls-1{fill:#946f6e;}.cls-2{isolation:isolate;}.cls-3{fill:#e5d6cb;}.cls-33,.cls-4,.cls-9{fill:#591805;}.cls-39,.cls-4{opacity:0.4;}.cls-10,.cls-12,.cls-33,.cls-38,.cls-39,.cls-4,.cls-9{mix-blend-mode:multiply;}.cls-5{fill:#dad0c4;}.cls-6{fill:#b19f9b;}.cls-7{fill:#eee6dd;}.cls-8{fill:#8b944b;}.cls-9{opacity:0.2;}.cls-10,.cls-12,.cls-39{fill:#301404;}.cls-10,.cls-33,.cls-38{opacity:0.3;}.cls-11{fill:#c8b6aa;}.cls-12{opacity:0.25;}.cls-13{fill:#eee7dc;}.cls-14{fill:#bfb9ac;}.cls-15{fill:#a9a092;}.cls-16{fill:#908677;}.cls-17{fill:#d9d4ca;}.cls-18{fill:#ada69b;}.cls-19{fill:#34323c;}.cls-20{fill:#aaa295;}.cls-21{fill:#4c4954;}.cls-22{fill:#a29b8d;}.cls-23{fill:#c7bfb2;}.cls-24{fill:#726f7d;}.cls-25{fill:#cbbbb0;}.cls-26{fill:#d7c6bb;}.cls-27{fill:#dad6ce;}.cls-28{fill:#3d3c45;}.cls-29{fill:#906868;}.cls-30{fill:#f4d8b7;}.cls-31{fill:#704b4b;}.cls-32{clip-path:url(#clip-path);}.cls-34{clip-path:url(#clip-path-2);}.cls-35{fill:#a2998a;}.cls-36{fill:#786f6c;}.cls-37{fill:#ebe6dd;}.cls-40{fill:#bfb49c;}.cls-41{fill:#939743;}.cls-42{fill:#644f32;}.cls-43{fill:#4f3d27;}.cls-44{fill:#acac4b;}.cls-45{fill:#82823d;}</style><clipPath id="clip-path"><path class="cls-1" d="M520.53,138c2.64-1.52,2.64-4,0-5.55a10.6,10.6,0,0,0-9.61,0c-2.66,1.53-2.65,4,0,5.55A10.62,10.62,0,0,0,520.53,138Z"/></clipPath><clipPath id="clip-path-2"><path class="cls-1" d="M506,146.38c2.66-1.51,2.64-4,0-5.55a10.58,10.58,0,0,0-9.6,0c-2.66,1.51-2.65,4,0,5.55A10.63,10.63,0,0,0,506,146.38Z"/></clipPath></defs><title>Recurso45</title><g class="cls-2"><g id="Capa_2" data-name="Capa 2"><g id="ELEMENTOS_INDIVIDUALES" data-name="ELEMENTOS INDIVIDUALES"><polygon class="cls-3" points="366.23 512.64 0 723.5 482.42 1000.73 848.64 789.88 366.23 512.64"/><polygon class="cls-4" points="256.38 675.53 109.94 759.09 89.18 757.93 192.71 648.13 212.95 650.47 256.38 675.53"/><polygon class="cls-5" points="47.58 733.9 47.58 724.26 233.02 665.45 233.02 675.64 89.85 758.3 47.58 733.9"/><polygon class="cls-6" points="89.85 731.1 233.02 665.45 233.02 675.64 89.85 758.3 89.85 731.1"/><polygon class="cls-7" points="47.58 724.15 190.75 641.5 233.02 665.89 89.85 748.56 47.58 724.15"/><polygon class="cls-8" points="60.98 722.74 187.28 650.18 215.92 666.71 89.62 739.27 60.98 722.74"/><polygon class="cls-9" points="813.08 785.16 653.12 876.45 630.45 875.17 743.52 755.24 765.64 757.79 813.08 785.16"/><polygon class="cls-5" points="585.01 848.92 585.01 838.4 787.57 774.16 787.57 785.29 631.18 875.59 585.01 848.92"/><polygon class="cls-6" points="631.18 845.87 787.57 774.16 787.57 785.29 631.18 875.59 631.18 845.87"/><polygon class="cls-7" points="585.01 838.27 741.39 747.99 787.57 774.65 631.18 864.94 585.01 838.27"/><polygon class="cls-8" points="599.64 836.74 737.6 757.49 768.88 775.54 630.92 854.8 599.64 836.74"/><rect class="cls-10" x="287.21" y="825.84" width="58.33" height="12.68"/><rect class="cls-10" x="172.12" y="762.13" width="58.34" height="12.67"/><polygon class="cls-11" points="562.12 829.7 540.02 816.95 500.53 839.73 522.63 852.49 562.12 829.7"/><polygon class="cls-12" points="1109.56 612.88 415.64 612.88 417.57 885.02 503.54 885.02 523.72 895.6 417.65 895.6 417.72 907.01 1210.94 906.38 1413.49 788.93 1109.56 612.88"/><polygon class="cls-13" points="388.44 0 163.49 129.5 418.93 276.68 643.87 147.18 388.44 0"/><polygon class="cls-14" points="643.52 634.36 581.35 598.46 628.66 788.35 643.52 778.39 643.52 634.36"/><polygon class="cls-15" points="629.08 645.33 566.88 609.43 566.88 753.47 629.06 789.37 629.08 645.33"/><polygon class="cls-16" points="607.03 636.54 550.89 668.96 550.89 799.77 607.03 767.36 607.03 636.54"/><polygon class="cls-17" points="180.16 623.99 163.38 639.14 163.38 769.96 172.95 775.35 180.16 623.99"/><polygon class="cls-14" points="181.61 639.31 172.68 644.44 172.68 775.27 181.61 770.12 181.61 639.31"/><polygon class="cls-17" points="210.59 615.12 193.81 630.26 193.81 761.08 203.38 766.46 210.59 615.12"/><polygon class="cls-18" points="212.04 630.42 203.12 635.57 203.12 766.39 212.04 761.25 212.04 630.42"/><polygon class="cls-19" points="582.47 693.76 413.33 791.85 413.33 880.68 582.47 782.57 582.47 693.76"/><polygon class="cls-20" points="413.63 790.66 419.42 787.64 419.42 880.93 413.63 883.95 413.63 790.66"/><polygon class="cls-19" points="413.68 786.39 209.05 668.25 209.05 761.53 413.68 879.67 413.68 786.39"/><polygon class="cls-21" points="431.14 868.96 248.36 761.46 209.05 761.53 413.68 879.68 431.14 868.96"/><polygon class="cls-19" points="277.93 756.84 206.58 756.84 225.07 774.8 277.93 774.8 277.93 756.84"/><polygon class="cls-19" points="388.26 825.84 312.89 825.84 332.42 838.42 388.26 838.42 388.26 825.84"/><polygon class="cls-19" points="360.76 753.24 360.76 786.85 360.76 813.15 360.76 846.76 362.98 846.76 362.98 813.15 362.98 786.85 362.98 753.24 360.76 753.24"/><rect class="cls-14" x="359.06" y="785.37" width="2.23" height="59.91"/><rect class="cls-22" x="359.06" y="751.77" width="2.23" height="59.92"/><polygon class="cls-16" points="449.11 765.71 449.11 799.32 449.11 825.62 449.11 859.23 451.32 859.23 451.32 825.62 451.32 799.32 451.32 765.71 449.11 765.71"/><polygon class="cls-16" points="486.83 744.79 486.83 778.39 486.83 804.71 486.83 838.31 489.05 838.31 489.05 804.71 489.05 778.39 489.05 744.79 486.83 744.79"/><polygon class="cls-16" points="534.71 716.25 534.71 749.85 534.71 776.18 534.71 809.79 536.93 809.79 536.93 776.18 536.93 749.85 536.93 716.25 534.71 716.25"/><polygon class="cls-16" points="514.37 785.97 514.37 798.73 514.37 808.72 514.37 821.48 515.79 821.48 515.79 808.72 515.79 798.73 515.79 785.97 514.37 785.97"/><polygon class="cls-16" points="562.93 700.71 562.93 734.32 562.93 760.64 562.93 794.25 565.14 794.25 565.14 760.64 565.14 734.32 565.14 700.71 562.93 700.71"/><polygon class="cls-19" points="304.22 719.32 304.22 752.93 304.22 779.24 304.22 812.84 306.44 812.84 306.44 779.24 306.44 752.93 306.44 719.32 304.22 719.32"/><rect class="cls-14" x="302.54" y="751.45" width="2.21" height="59.91"/><rect class="cls-22" x="302.54" y="717.84" width="2.21" height="59.92"/><polygon class="cls-19" points="266.17 698.39 266.17 732.01 266.17 758.31 266.17 791.92 268.4 791.92 268.4 758.31 268.4 732.01 268.4 698.39 266.17 698.39"/><rect class="cls-14" x="264.48" y="730.52" width="2.23" height="59.92"/><rect class="cls-22" x="264.48" y="696.91" width="2.23" height="59.93"/><polygon class="cls-14" points="415.18 874.03 208.62 755 203.71 757.83 410.27 876.87 415.18 874.03"/><polygon class="cls-10" points="208.62 755 203.71 757.83 217.2 765.62 227.04 765.62 208.62 755"/><polygon class="cls-10" points="313.68 815.54 306.24 815.54 306.24 816.91 327.79 829.33 337.62 829.33 313.68 815.54"/><polygon class="cls-17" points="413.69 790.16 407.9 787.15 407.9 880.44 413.69 883.46 413.69 790.16"/><polygon class="cls-16" points="413.54 878.56 607.25 766.08 607.14 774.33 413.42 886.8 413.54 878.56"/><polygon class="cls-17" points="413.38 878.78 203.03 757.35 203.13 766.3 413.48 887.71 413.38 878.78"/><polygon class="cls-10" points="217.57 774.62 217.57 765.72 203.23 757.46 203.19 702.59 195.8 698.31 195.8 762.16 217.57 774.62"/><polygon class="cls-17" points="425.33 755.88 408.55 771.02 408.55 901.84 418.13 907.23 425.33 755.88"/><polygon class="cls-14" points="426.78 771.19 417.85 776.34 417.85 907.17 426.78 902.02 426.78 771.19"/><polygon class="cls-14" points="643.52 145.98 418.08 276.14 418.08 822.7 643.52 692.54 643.52 145.98"/><polygon class="cls-23" points="439.45 733.4 629.75 623.91 629.73 636.11 439.45 745.6 439.45 733.4"/><polygon class="cls-14" points="452.37 706.22 463.79 706.22 463.79 743.42 454.42 737.07 452.37 706.22"/><polygon class="cls-14" points="475.84 696.49 487.67 696.49 487.67 733.69 478.37 722.91 475.84 696.49"/><polygon class="cls-14" points="499.93 683.18 511.76 683.18 511.76 720.38 502.46 709.6 499.93 683.18"/><polygon class="cls-14" points="523.81 670.07 535.65 670.07 535.65 707.27 526.35 696.49 523.81 670.07"/><polygon class="cls-14" points="547.69 655.48 559.53 655.48 559.53 692.69 550.23 681.91 547.69 655.48"/><polygon class="cls-14" points="571.79 641.95 583.63 641.95 583.63 679.16 574.33 668.38 571.79 641.95"/><polygon class="cls-14" points="595.46 628.44 607.29 628.44 607.29 665.63 598 654.85 595.46 628.44"/><polygon class="cls-14" points="618.05 613.09 629.88 612.73 631.01 649.91 621.39 639.42 618.05 613.09"/><polygon class="cls-17" points="294.71 687.4 277.93 702.54 277.93 833.36 287.5 838.75 294.71 687.4"/><polygon class="cls-14" points="296.16 702.71 287.24 707.86 287.24 838.68 296.16 833.54 296.16 702.71"/><polygon class="cls-17" points="418.19 276.4 163.31 129.25 163.31 675.02 418.19 822.18 418.19 276.4"/><polygon class="cls-23" points="391.09 737.71 184.58 619.2 184.58 632.43 391.09 750.93 391.09 737.71"/><polygon class="cls-17" points="378.62 711.3 367.2 711.3 367.2 748.49 376.58 742.15 378.62 711.3"/><polygon class="cls-17" points="355.16 701.56 343.33 701.56 343.33 738.77 352.63 727.98 355.16 701.56"/><polygon class="cls-17" points="331.07 688.25 319.23 688.25 319.23 725.45 328.53 714.67 331.07 688.25"/><polygon class="cls-17" points="307.19 675.14 295.35 675.14 295.35 712.35 304.65 701.56 307.19 675.14"/><polygon class="cls-17" points="283.3 660.56 271.46 660.56 271.46 697.75 280.76 686.99 283.3 660.56"/><polygon class="cls-17" points="259.21 647.04 247.37 647.04 247.37 684.24 256.67 673.46 259.21 647.04"/><polygon class="cls-17" points="235.53 633.5 223.7 633.5 223.7 670.7 233 659.93 235.53 633.5"/><polygon class="cls-17" points="211.44 619.98 199.61 619.98 199.61 657.18 208.9 646.4 211.44 619.98"/><polygon class="cls-21" points="385.81 325.35 376.32 316.23 376.32 742.28 379.15 733.27 385.81 325.35"/><polygon class="cls-21" points="362.56 311.83 352.38 302.52 352.38 728.56 356.01 718.48 362.56 311.83"/><polygon class="cls-21" points="336.36 296.81 328.45 288.81 328.45 714.85 331.7 704.73 336.36 296.81"/><polygon class="cls-21" points="312.25 282.65 304.52 275.1 304.52 701.14 308.03 691.21 312.25 282.65"/><polygon class="cls-21" points="290.91 271.87 280.58 261.39 280.58 687.42 284.56 677.25 290.91 271.87"/><polygon class="cls-21" points="265.96 256.66 256.65 247.68 256.65 673.71 260.47 663.93 265.96 256.66"/><polygon class="cls-21" points="241.24 241.87 232.72 233.97 232.72 660 236.38 649.99 241.24 241.87"/><polygon class="cls-21" points="216.73 228.55 208.79 220.25 208.79 646.29 212.07 636.26 216.73 228.55"/><polygon class="cls-21" points="194.53 217.56 184.85 206.54 184.85 632.57 188.4 622.93 194.53 217.56"/><polygon class="cls-24" points="391.15 326.01 379.18 319.09 379.18 732.86 391.15 739.53 391.15 326.01"/><polygon class="cls-24" points="367.23 312.29 355.24 305.38 355.24 719.15 367.22 725.82 367.23 312.29"/><polygon class="cls-24" points="343.29 298.58 331.3 291.67 331.3 705.42 343.28 712.11 343.29 298.58"/><polygon class="cls-24" points="319.35 284.86 307.37 277.95 307.37 691.72 319.34 698.39 319.35 284.86"/><polygon class="cls-24" points="295.42 271.15 283.44 264.24 283.44 678 295.4 684.68 295.42 271.15"/><polygon class="cls-24" points="271.48 257.44 259.5 250.52 259.5 664.29 271.48 670.97 271.48 257.44"/><polygon class="cls-24" points="247.54 243.73 235.57 236.82 235.57 650.58 247.54 657.26 247.54 243.73"/><polygon class="cls-24" points="223.61 230.02 211.63 223.1 211.63 636.87 223.61 643.55 223.61 230.02"/><polygon class="cls-24" points="199.68 216.31 187.7 209.4 187.7 623.15 199.68 629.84 199.68 216.31"/><polygon class="cls-3" points="398.27 20.98 204.12 132.76 409.83 251.32 603.98 139.55 398.27 20.98"/><polygon class="cls-25" points="398.27 41.5 398.27 20.98 204.12 132.76 221.73 142.91 398.27 41.5"/><polygon class="cls-26" points="585.54 149.71 603.98 139.55 398.27 20.98 397.86 41.92 585.54 149.71"/><polygon class="cls-27" points="445.07 318.69 454.56 309.58 454.56 735.61 451.73 726.62 445.07 318.69"/><polygon class="cls-27" points="468.32 305.17 478.49 295.87 478.49 721.9 474.88 711.82 468.32 305.17"/><polygon class="cls-27" points="494.53 290.16 502.43 282.15 502.43 708.19 499.18 698.08 494.53 290.16"/><polygon class="cls-27" points="518.62 276 526.36 268.44 526.36 694.48 522.85 684.55 518.62 276"/><polygon class="cls-27" points="539.98 265.22 550.29 254.73 550.29 680.77 546.32 670.61 539.98 265.22"/><polygon class="cls-27" points="564.91 250.01 574.23 241.02 574.23 667.06 570.41 657.28 564.91 250.01"/><polygon class="cls-27" points="589.64 235.21 598.16 227.3 598.16 653.34 594.5 643.34 589.64 235.21"/><polygon class="cls-27" points="614.15 221.89 622.1 213.6 622.1 639.64 618.8 629.6 614.15 221.89"/><polygon class="cls-21" points="439.73 319.35 451.7 312.44 451.7 726.2 439.73 732.87 439.73 319.35"/><polygon class="cls-21" points="463.66 305.64 475.64 298.72 475.64 712.49 463.67 719.16 463.66 305.64"/><polygon class="cls-21" points="487.6 291.92 499.58 285.01 499.58 698.77 487.6 705.45 487.6 291.92"/><polygon class="cls-21" points="511.53 278.21 523.51 271.3 523.51 685.06 511.54 691.74 511.53 278.21"/><polygon class="cls-21" points="535.47 264.5 547.45 257.58 547.45 671.35 535.47 678.02 535.47 264.5"/><polygon class="cls-21" points="559.4 250.79 571.38 243.87 571.38 657.64 559.41 664.31 559.4 250.79"/><polygon class="cls-21" points="583.33 237.07 595.31 230.16 595.31 643.92 583.33 650.6 583.33 237.07"/><polygon class="cls-21" points="607.27 223.36 619.25 216.44 619.25 630.21 607.27 636.89 607.27 223.36"/><polygon class="cls-21" points="391.15 701.07 391.15 697.29 379.18 690.38 379.18 694.16 391.15 701.07"/><polygon class="cls-21" points="367.22 687.25 367.22 683.47 355.24 676.57 355.24 680.35 367.22 687.25"/><polygon class="cls-21" points="343.28 673.45 343.28 669.66 331.3 662.75 331.3 666.52 343.28 673.45"/><polygon class="cls-21" points="319.35 659.62 319.35 655.84 307.37 648.93 307.37 652.72 319.35 659.62"/><polygon class="cls-21" points="295.4 645.81 295.4 642.03 283.44 635.12 283.44 638.9 295.4 645.81"/><polygon class="cls-21" points="271.48 632 271.48 628.22 259.5 621.31 259.5 625.08 271.48 632"/><polygon class="cls-21" points="247.54 618.19 247.54 614.4 235.57 607.49 235.57 611.27 247.54 618.19"/><polygon class="cls-21" points="223.61 604.38 223.61 600.6 211.63 593.67 211.63 597.46 223.61 604.38"/><polygon class="cls-21" points="199.68 590.55 199.68 586.77 187.7 579.86 187.7 583.65 199.68 590.55"/><polygon class="cls-21" points="391.15 656.68 391.15 652.91 379.18 645.99 379.18 649.78 391.15 656.68"/><polygon class="cls-21" points="367.22 642.87 367.22 639.08 355.24 632.17 355.24 635.96 367.22 642.87"/><polygon class="cls-21" points="343.28 629.06 343.28 625.27 331.3 618.36 331.3 622.14 343.28 629.06"/><polygon class="cls-21" points="319.35 615.24 319.35 611.47 307.37 604.54 307.37 608.33 319.35 615.24"/><polygon class="cls-21" points="295.4 601.43 295.4 597.65 283.44 590.73 283.44 594.51 295.4 601.43"/><polygon class="cls-21" points="271.48 587.61 271.48 583.83 259.5 576.92 259.5 580.71 271.48 587.61"/><polygon class="cls-21" points="247.54 573.8 247.54 570.02 235.57 563.1 235.57 566.89 247.54 573.8"/><polygon class="cls-21" points="223.61 559.98 223.61 556.21 211.63 549.29 211.63 553.07 223.61 559.98"/><polygon class="cls-21" points="199.68 546.17 199.68 542.4 187.7 535.47 187.7 539.26 199.68 546.17"/><polygon class="cls-21" points="391.15 611.66 391.15 607.88 379.18 600.98 379.18 604.76 391.15 611.66"/><polygon class="cls-21" points="367.22 597.85 367.22 594.07 355.24 587.16 355.24 590.94 367.22 597.85"/><polygon class="cls-21" points="343.28 584.04 343.28 580.26 331.3 573.34 331.3 577.13 343.28 584.04"/><polygon class="cls-21" points="319.35 570.22 319.35 566.44 307.37 559.53 307.37 563.3 319.35 570.22"/><polygon class="cls-21" points="295.4 556.42 295.4 552.63 283.44 545.72 283.44 549.5 295.4 556.42"/><polygon class="cls-21" points="271.48 542.6 271.48 538.8 259.5 531.9 259.5 535.69 271.48 542.6"/><polygon class="cls-21" points="247.54 528.78 247.54 525 235.57 518.09 235.57 521.87 247.54 528.78"/><polygon class="cls-21" points="223.61 514.97 223.61 511.18 211.63 504.27 211.63 508.06 223.61 514.97"/><polygon class="cls-21" points="199.68 501.15 199.68 497.37 187.7 490.45 187.7 494.24 199.68 501.15"/><polygon class="cls-21" points="391.15 561.58 391.15 557.79 379.18 550.88 379.18 554.66 391.15 561.58"/><polygon class="cls-21" points="367.22 547.76 367.22 543.98 355.24 537.07 355.24 540.85 367.22 547.76"/><polygon class="cls-21" points="343.28 533.96 343.28 530.17 331.3 523.25 331.3 527.03 343.28 533.96"/><polygon class="cls-21" points="319.35 520.13 319.35 516.35 307.37 509.44 307.37 513.22 319.35 520.13"/><polygon class="cls-21" points="295.4 506.32 295.4 502.53 283.44 495.63 283.44 499.42 295.4 506.32"/><polygon class="cls-21" points="271.48 492.5 271.48 488.72 259.5 481.81 259.5 485.59 271.48 492.5"/><polygon class="cls-21" points="247.54 478.69 247.54 474.92 235.57 467.99 235.57 471.78 247.54 478.69"/><polygon class="cls-21" points="223.61 464.87 223.61 461.1 211.63 454.18 211.63 457.97 223.61 464.87"/><polygon class="cls-21" points="199.68 451.07 199.68 447.28 187.7 440.37 187.7 444.14 199.68 451.07"/><polygon class="cls-21" points="390.73 504.94 390.73 501.15 378.75 494.24 378.75 498.01 390.73 504.94"/><polygon class="cls-21" points="366.79 491.12 366.79 487.34 354.82 480.43 354.82 484.21 366.79 491.12"/><polygon class="cls-21" points="342.85 477.31 342.85 473.52 330.88 466.62 330.88 470.39 342.85 477.31"/><polygon class="cls-21" points="318.93 463.49 318.93 459.71 306.95 452.79 306.95 456.58 318.93 463.49"/><polygon class="cls-21" points="294.98 449.67 294.98 445.88 283.01 438.98 283.01 442.76 294.98 449.67"/><polygon class="cls-21" points="271.06 435.87 271.06 432.08 259.08 425.16 259.08 428.95 271.06 435.87"/><polygon class="cls-21" points="247.12 422.04 247.12 418.27 235.15 411.36 235.15 415.13 247.12 422.04"/><polygon class="cls-21" points="223.18 408.23 223.18 404.44 211.22 397.54 211.22 401.32 223.18 408.23"/><polygon class="cls-21" points="199.26 394.42 199.26 390.64 187.28 383.72 187.28 387.5 199.26 394.42"/><polygon class="cls-21" points="390.31 450.83 390.31 447.05 378.33 440.13 378.33 443.92 390.31 450.83"/><polygon class="cls-21" points="366.38 437.01 366.38 433.22 354.39 426.32 354.39 430.1 366.38 437.01"/><polygon class="cls-21" points="342.43 423.2 342.43 419.42 330.46 412.5 330.46 416.28 342.43 423.2"/><polygon class="cls-21" points="318.51 409.37 318.51 405.6 306.53 398.69 306.53 402.48 318.51 409.37"/><polygon class="cls-21" points="294.56 395.57 294.56 391.78 282.59 384.88 282.59 388.65 294.56 395.57"/><polygon class="cls-21" points="270.63 381.75 270.63 377.97 258.66 371.06 258.66 374.84 270.63 381.75"/><polygon class="cls-21" points="246.7 367.94 246.7 364.16 234.72 357.25 234.72 361.03 246.7 367.94"/><polygon class="cls-21" points="222.76 354.13 222.76 350.35 210.79 343.43 210.79 347.21 222.76 354.13"/><polygon class="cls-21" points="198.83 340.31 198.83 336.53 186.86 329.62 186.86 333.4 198.83 340.31"/><polygon class="cls-21" points="390.73 398.83 390.73 395.05 378.75 388.14 378.75 391.92 390.73 398.83"/><polygon class="cls-21" points="366.79 385.01 366.79 381.24 354.82 374.33 354.82 378.11 366.79 385.01"/><polygon class="cls-21" points="342.85 371.2 342.85 367.41 330.88 360.51 330.88 364.29 342.85 371.2"/><polygon class="cls-21" points="318.93 357.39 318.93 353.61 306.95 346.69 306.95 350.48 318.93 357.39"/><polygon class="cls-21" points="294.98 343.57 294.98 339.79 283.01 332.88 283.01 336.66 294.98 343.57"/><polygon class="cls-21" points="271.06 329.76 271.06 325.98 259.08 319.06 259.08 322.85 271.06 329.76"/><polygon class="cls-21" points="247.12 315.94 247.12 312.16 235.15 305.25 235.15 309.03 247.12 315.94"/><polygon class="cls-21" points="223.18 302.13 223.18 298.35 211.22 291.44 211.22 295.22 223.18 302.13"/><polygon class="cls-21" points="199.26 288.32 199.26 284.53 187.28 277.62 187.28 281.4 199.26 288.32"/><polygon class="cls-28" points="439.84 567.92 439.84 564.13 451.82 557.23 451.82 561.01 439.84 567.92"/><polygon class="cls-28" points="463.78 554.1 463.78 550.32 475.76 543.41 475.76 547.18 463.78 554.1"/><polygon class="cls-28" points="487.72 540.3 487.72 536.5 499.69 529.6 499.69 533.38 487.72 540.3"/><polygon class="cls-28" points="511.65 526.47 511.65 522.69 523.62 515.79 523.62 519.57 511.65 526.47"/><polygon class="cls-28" points="535.59 512.65 535.59 508.88 547.56 501.97 547.56 505.75 535.59 512.65"/><polygon class="cls-28" points="559.52 498.85 559.52 495.07 571.5 488.15 571.5 491.94 559.52 498.85"/><polygon class="cls-28" points="583.46 485.03 583.46 481.25 595.43 474.33 595.43 478.12 583.46 485.03"/><polygon class="cls-28" points="607.39 471.22 607.39 467.43 619.37 460.52 619.37 464.31 607.39 471.22"/><polygon class="cls-28" points="439.84 707.41 439.84 703.64 451.8 696.75 451.8 700.52 439.84 707.41"/><polygon class="cls-28" points="463.73 693.66 463.73 689.89 475.67 683 475.67 686.76 463.73 693.66"/><polygon class="cls-28" points="487.61 679.89 487.61 676.11 499.55 669.24 499.55 673.01 487.61 679.89"/><polygon class="cls-28" points="511.49 666.13 511.49 662.36 523.43 655.48 523.43 659.25 511.49 666.13"/><polygon class="cls-28" points="535.36 652.37 535.36 648.6 547.3 641.72 547.3 645.49 535.36 652.37"/><polygon class="cls-28" points="559.24 638.6 559.24 634.84 571.19 627.96 571.19 631.73 559.24 638.6"/><polygon class="cls-28" points="583.11 624.85 583.11 621.08 595.06 614.19 595.06 617.96 583.11 624.85"/><polygon class="cls-28" points="606.99 611.08 606.99 607.33 618.94 600.44 618.94 604.2 606.99 611.08"/><polygon class="cls-28" points="439.84 663.2 439.84 659.43 451.8 652.55 451.8 656.31 439.84 663.2"/><polygon class="cls-28" points="463.73 649.44 463.73 645.68 475.67 638.79 475.67 642.56 463.73 649.44"/><polygon class="cls-28" points="487.61 635.68 487.61 631.92 499.55 625.03 499.55 628.8 487.61 635.68"/><polygon class="cls-28" points="511.49 621.92 511.49 618.15 523.43 611.27 523.43 615.04 511.49 621.92"/><polygon class="cls-28" points="535.36 608.15 535.36 604.38 547.3 597.5 547.3 601.27 535.36 608.15"/><polygon class="cls-28" points="559.24 594.4 559.24 590.63 571.19 583.74 571.19 587.5 559.24 594.4"/><polygon class="cls-28" points="583.11 580.63 583.11 576.86 595.06 569.98 595.06 573.75 583.11 580.63"/><polygon class="cls-28" points="606.99 566.88 606.99 563.1 618.94 556.23 618.94 559.99 606.99 566.88"/><polygon class="cls-28" points="439.84 618.36 439.84 614.6 451.8 607.71 451.8 611.48 439.84 618.36"/><polygon class="cls-28" points="463.73 604.6 463.73 600.83 475.67 593.94 475.67 597.71 463.73 604.6"/><polygon class="cls-28" points="487.61 590.83 487.61 587.07 499.55 580.18 499.55 583.95 487.61 590.83"/><polygon class="cls-28" points="511.49 577.08 511.49 573.3 523.43 566.42 523.43 570.2 511.49 577.08"/><polygon class="cls-28" points="535.36 563.3 535.36 559.54 547.3 552.67 547.3 556.42 535.36 563.3"/><polygon class="cls-28" points="559.24 549.55 559.24 545.79 571.19 538.91 571.19 542.67 559.24 549.55"/><polygon class="cls-28" points="583.11 535.79 583.11 532.02 595.06 525.15 595.06 528.91 583.11 535.79"/><polygon class="cls-28" points="606.99 522.03 606.99 518.27 618.94 511.38 618.94 515.15 606.99 522.03"/><polygon class="cls-28" points="440.27 512.04 440.27 508.27 452.21 501.39 452.21 505.16 440.27 512.04"/><polygon class="cls-28" points="464.15 498.29 464.15 494.51 476.09 487.63 476.09 491.38 464.15 498.29"/><polygon class="cls-28" points="488.02 484.51 488.02 480.75 499.97 473.86 499.97 477.64 488.02 484.51"/><polygon class="cls-28" points="511.9 470.76 511.9 466.99 523.85 460.11 523.85 463.88 511.9 470.76"/><polygon class="cls-28" points="535.78 457 535.78 453.23 547.73 446.35 547.73 450.11 535.78 457"/><polygon class="cls-28" points="559.66 443.24 559.66 439.47 571.61 432.58 571.61 436.35 559.66 443.24"/><polygon class="cls-28" points="583.54 429.48 583.54 425.71 595.49 418.83 595.49 422.59 583.54 429.48"/><polygon class="cls-28" points="607.42 415.72 607.42 411.95 619.37 405.07 619.37 408.83 607.42 415.72"/><polygon class="cls-28" points="440.69 458.15 440.69 454.37 452.64 447.49 452.64 451.26 440.69 458.15"/><polygon class="cls-28" points="464.57 444.38 464.57 440.61 476.52 433.73 476.52 437.49 464.57 444.38"/><polygon class="cls-28" points="488.45 430.62 488.45 426.85 500.39 419.96 500.39 423.74 488.45 430.62"/><polygon class="cls-28" points="512.33 416.86 512.33 413.1 524.26 406.2 524.26 409.96 512.33 416.86"/><polygon class="cls-28" points="536.2 403.1 536.2 399.33 548.15 392.45 548.15 396.21 536.2 403.1"/><polygon class="cls-28" points="560.08 389.34 560.08 385.57 572.03 378.69 572.03 382.45 560.08 389.34"/><polygon class="cls-28" points="583.96 375.58 583.96 371.81 595.9 364.93 595.9 368.7 583.96 375.58"/><polygon class="cls-28" points="607.84 361.82 607.84 358.05 619.78 351.17 619.78 354.93 607.84 361.82"/><polygon class="cls-28" points="440.27 406.35 440.27 402.59 452.21 395.7 452.21 399.46 440.27 406.35"/><polygon class="cls-28" points="464.15 392.6 464.15 388.82 476.09 381.94 476.09 385.7 464.15 392.6"/><polygon class="cls-28" points="488.02 378.83 488.02 375.06 499.97 368.18 499.97 371.95 488.02 378.83"/><polygon class="cls-28" points="511.9 365.07 511.9 361.3 523.85 354.42 523.85 358.18 511.9 365.07"/><polygon class="cls-28" points="535.78 351.31 535.78 347.54 547.73 340.66 547.73 344.43 535.78 351.31"/><polygon class="cls-28" points="559.66 337.56 559.66 333.78 571.61 326.9 571.61 330.67 559.66 337.56"/><polygon class="cls-28" points="583.54 323.78 583.54 320.02 595.49 313.14 595.49 316.9 583.54 323.78"/><polygon class="cls-28" points="607.42 310.03 607.42 306.26 619.37 299.37 619.37 303.14 607.42 310.03"/><polygon class="cls-4" points="562.73 149.87 524.94 128.04 514.62 169.75 527.91 169.9 562.73 149.87"/><polygon class="cls-26" points="552.13 148.13 552.13 142.03 476.77 142.32 476.77 148 514.57 169.82 552.13 148.13"/><polygon class="cls-25" points="552.13 148.13 552.13 142.03 514.57 154.12 514.57 169.82 552.13 148.13"/><polygon class="cls-13" points="551.91 142.07 514.11 120.24 476.55 141.93 514.36 163.76 551.91 142.07"/><polygon class="cls-29" points="520.56 155.16 513.92 151.32 507.31 155.13 513.96 158.96 520.56 155.16"/><polygon class="cls-30" points="520.12 154 512.34 158.5 512.34 158.87 520.12 154.37 520.12 154"/><polygon class="cls-30" points="519.1 153.35 511.32 157.84 511.32 158.22 519.1 153.72 519.1 153.35"/><polygon class="cls-30" points="518.12 152.87 510.34 157.36 510.34 157.73 518.12 153.24 518.12 152.87"/><polygon class="cls-30" points="517.08 152.33 509.31 156.82 509.31 157.19 517.08 152.69 517.08 152.33"/><polygon class="cls-30" points="516.12 151.74 508.33 156.22 508.33 156.6 516.12 152.1 516.12 151.74"/><polygon class="cls-30" points="515.3 151.3 507.52 155.79 507.52 156.16 515.3 151.67 515.3 151.3"/><polygon class="cls-29" points="532.1 148.32 525.46 144.5 518.87 148.3 525.51 152.13 532.1 148.32"/><polygon class="cls-30" points="531.67 147.18 523.89 151.68 523.89 152.05 531.67 147.56 531.67 147.18"/><polygon class="cls-30" points="530.63 146.53 522.86 151.03 522.86 151.4 530.63 146.9 530.63 146.53"/><polygon class="cls-30" points="529.67 146.05 521.88 150.54 521.88 150.91 529.67 146.42 529.67 146.05"/><polygon class="cls-30" points="528.63 145.51 520.85 150 520.86 150.37 528.63 145.88 528.63 145.51"/><polygon class="cls-30" points="527.66 144.9 519.88 149.4 519.88 149.78 527.66 145.28 527.66 144.9"/><polygon class="cls-30" points="526.86 144.47 519.06 148.97 519.06 149.34 526.86 144.85 526.86 144.47"/><polygon class="cls-29" points="543.24 141.64 536.62 137.8 530.01 141.62 536.65 145.45 543.24 141.64"/><polygon class="cls-30" points="542.82 140.49 535.03 144.98 535.03 145.35 542.82 140.86 542.82 140.49"/><polygon class="cls-30" points="541.79 139.84 534.01 144.34 534.01 144.71 541.79 140.22 541.79 139.84"/><polygon class="cls-30" points="540.81 139.36 533.03 143.85 533.03 144.22 540.81 139.72 540.81 139.36"/><polygon class="cls-30" points="539.8 138.81 532 143.31 532 143.68 539.8 139.19 539.8 138.81"/><polygon class="cls-30" points="538.82 138.22 531.03 142.71 531.03 143.08 538.82 138.59 538.82 138.22"/><polygon class="cls-30" points="538 137.78 530.22 142.28 530.22 142.65 538 138.16 538 137.78"/><path class="cls-29" d="M520.92,138.23c2.87-1.65,2.87-4.34,0-6a11.49,11.49,0,0,0-10.42-.05c-2.87,1.65-2.87,4.34,0,6A11.5,11.5,0,0,0,520.92,138.23Z"/><path class="cls-31" d="M520.53,138c2.64-1.52,2.64-4,0-5.55a10.6,10.6,0,0,0-9.61,0c-2.66,1.53-2.65,4,0,5.55A10.62,10.62,0,0,0,520.53,138Z"/><path class="cls-1" d="M520.53,138c2.64-1.52,2.64-4,0-5.55a10.6,10.6,0,0,0-9.61,0c-2.66,1.53-2.65,4,0,5.55A10.62,10.62,0,0,0,520.53,138Z"/><g class="cls-32"><path class="cls-30" d="M515.57,136.27c-.57.32-.57.85,0,1.18a2.24,2.24,0,0,0,2,0c.57-.32.57-.84,0-1.17A2.21,2.21,0,0,0,515.57,136.27Z"/><path class="cls-30" d="M517.18,136.36s3.6-3,4.72-1.91S518.77,136.39,517.18,136.36Z"/><path class="cls-30" d="M516.94,137.19s4.4,2.62,2.42,3S516.63,138.08,516.94,137.19Z"/><path class="cls-30" d="M516.21,136.83s-6.29-.09-5.43-1.2S515.33,136.06,516.21,136.83Z"/></g><path class="cls-33" d="M514.61,135.08a10.11,10.11,0,0,1,7.5-.63,3.94,3.94,0,0,0-1.63-1.61,10,10,0,0,0-9.07-.05c-2.49,1.44-2.49,3.78,0,5.23a7.58,7.58,0,0,0,1.56.68C512.38,137.45,512.91,136.05,514.61,135.08Z"/><path class="cls-29" d="M506.38,146.61c2.86-1.64,2.86-4.33,0-6a11.53,11.53,0,0,0-10.41,0c-2.87,1.65-2.87,4.35,0,6A11.49,11.49,0,0,0,506.38,146.61Z"/><path class="cls-1" d="M506,146.38c2.66-1.51,2.64-4,0-5.55a10.58,10.58,0,0,0-9.6,0c-2.66,1.51-2.65,4,0,5.55A10.63,10.63,0,0,0,506,146.38Z"/><g class="cls-34"><path class="cls-30" d="M501,144.65c-.57.33-.57.85,0,1.17a2.2,2.2,0,0,0,2,0,.61.61,0,0,0,0-1.16A2.21,2.21,0,0,0,501,144.65Z"/><path class="cls-30" d="M502.64,144.75s3.58-3,4.72-1.92S504.22,144.76,502.64,144.75Z"/><path class="cls-30" d="M502.39,145.57s4.39,2.62,2.42,3.06S502.08,146.46,502.39,145.57Z"/><path class="cls-30" d="M501.67,145.21s-6.3-.08-5.44-1.2S500.79,144.45,501.67,145.21Z"/></g><path class="cls-33" d="M500.06,143.46a10.18,10.18,0,0,1,7.51-.63,4.22,4.22,0,0,0-1.64-1.61,10,10,0,0,0-9.07-.05c-2.49,1.44-2.48,3.79,0,5.24a7.56,7.56,0,0,0,1.56.67C497.83,145.82,498.36,144.43,500.06,143.46Z"/><polygon class="cls-4" points="449.2 76.32 376.96 117.82 350.81 117.82 380.12 61.61 423.92 61.61 449.2 76.32"/><polygon class="cls-26" points="327.93 81.96 351.18 95.13 351.18 117.93 327.93 104.76 327.93 81.96"/><polygon class="cls-35" points="341.55 98.67 334.8 94.6 334.8 108.11 341.55 112.17 341.55 98.67"/><polygon class="cls-25" points="351.01 95.26 409.56 61.47 409.56 84.15 351.03 117.95 351.01 95.26"/><polygon class="cls-36" points="394.88 76.43 401.44 72.69 401.44 75.2 394.88 78.95 394.88 76.43"/><polygon class="cls-36" points="383.19 82.83 389.75 79.08 389.75 81.6 383.19 85.35 383.19 82.83"/><polygon class="cls-36" points="370.94 89.41 377.5 85.65 377.5 88.18 370.94 91.92 370.94 89.41"/><polygon class="cls-13" points="350.96 95.37 327.8 81.73 386.52 47.81 409.68 61.44 350.96 95.37"/><polygon class="cls-4" points="488.08 97.88 415.85 139.38 389.7 139.38 419.01 83.16 462.81 83.16 488.08 97.88"/><polygon class="cls-26" points="366.83 103.52 390.08 116.68 390.08 139.49 366.83 126.32 366.83 103.52"/><polygon class="cls-35" points="380.44 120.23 373.68 116.16 373.68 129.66 380.44 133.72 380.44 120.23"/><polygon class="cls-25" points="389.91 116.83 448.45 83.03 448.45 105.71 389.91 139.5 389.91 116.83"/><polygon class="cls-13" points="389.85 116.92 366.69 103.28 425.41 69.37 448.57 83 389.85 116.92"/><polygon class="cls-37" points="417.51 814.3 162.6 668.24 162.6 681.46 417.51 827.53 417.51 814.3"/><polygon class="cls-17" points="417.51 813.63 644.51 683.9 644.51 697.13 417.51 826.87 417.51 813.63"/><polygon class="cls-10" points="328.1 838.44 328.1 829.55 306.33 816.99 306.33 825.87 328.1 838.44"/><g class="cls-38"><polygon class="cls-21" points="382.48 321.75 376.32 316.23 376.32 742.28 382.48 734.53 382.48 321.75"/></g><g class="cls-38"><polygon class="cls-21" points="358.81 308.23 352.64 302.71 352.64 728.75 358.81 721.01 358.81 308.23"/></g><g class="cls-38"><polygon class="cls-21" points="334.71 294.28 328.56 288.76 328.56 714.8 334.71 707.06 334.71 294.28"/></g><g class="cls-38"><polygon class="cls-21" points="311.04 280.75 304.88 275.24 304.88 701.27 311.04 693.52 311.04 280.75"/></g><g class="cls-38"><polygon class="cls-21" points="287.37 266.8 281.21 261.29 281.21 687.32 287.37 679.58 287.37 266.8"/></g><g class="cls-38"><polygon class="cls-21" points="262.85 252.01 256.7 246.48 256.7 672.54 262.85 664.79 262.85 252.01"/></g><g class="cls-38"><polygon class="cls-21" points="239.18 238.91 233.02 233.39 233.02 659.42 239.18 651.68 239.18 238.91"/></g><g class="cls-38"><polygon class="cls-21" points="215.09 225.38 208.92 219.86 208.92 645.89 215.09 638.16 215.09 225.38"/></g><g class="cls-38"><polygon class="cls-21" points="190.99 212.27 184.83 206.76 184.83 632.79 190.99 625.06 190.99 212.27"/></g><polygon class="cls-16" points="536.24 772.22 487.68 800.26 487.67 803 536.23 774.98 536.24 772.22"/><path class="cls-39" d="M538,930.24c5.92-3.42,5.89-9-.08-12.43s-15.59-3.46-21.52,0-5.9,9,.07,12.43S532.05,933.66,538,930.24Z"/><path class="cls-40" d="M535.44,929.32c5.92-3.43,5.89-9-.07-12.44s-15.6-3.45-21.53,0-5.89,9,.06,12.43S529.51,932.74,535.44,929.32Z"/><path class="cls-41" d="M535.44,927.75c5.92-3.41,5.89-9-.07-12.42s-15.6-3.46-21.53,0-5.89,9,.06,12.42S529.51,931.19,535.44,927.75Z"/><path class="cls-39" d="M600.21,918.29l-5.57-5.89a9.76,9.76,0,0,0-6.49-2.49l-44.71-2.07a4.5,4.5,0,0,0-3.42,1.08l-8.71,9.22a3.54,3.54,0,0,0-.69,1h-7.06v1.56h6.84a3.29,3.29,0,0,0,.91,1.82l7.69,8.12a8.38,8.38,0,0,0,6.25,2l42.67-2a10.22,10.22,0,0,0,6.75-2.59l5.54-5.88A2.69,2.69,0,0,0,600.21,918.29Z"/><rect class="cls-42" x="523.17" y="894.43" width="2.56" height="26.02"/><rect class="cls-43" x="524.64" y="894.43" width="1.34" height="26.02"/><path class="cls-44" d="M541.94,856.47a8.49,8.49,0,0,0-4.22-6.71l-9.54-5.49a6.34,6.34,0,0,0-6.41,0l-9.58,5.51a8.22,8.22,0,0,0-4.06,6.46l-3.39,44.45a3.61,3.61,0,0,0,1.78,3.39l15,8.64a7.13,7.13,0,0,0,7.17,0l13.21-7.62a6.62,6.62,0,0,0,3.29-6.22Z"/><path class="cls-41" d="M542.12,857.57a8.36,8.36,0,0,0-4-6.56l-9-5.4a5.81,5.81,0,0,0-6,0l-9,5.43a8,8,0,0,0-3.8,6.33L507.18,901a3.59,3.59,0,0,0,1.69,3.33L523,912.75a6.48,6.48,0,0,0,6.74,0l12.42-7.49a6.57,6.57,0,0,0,3.09-6.11Z"/><path class="cls-45" d="M528.68,912.72l13.21-7.62a6.62,6.62,0,0,0,3.29-6.22l-3.24-42.41a8.54,8.54,0,0,0-1.91-4.76l-9,4c-2.89,1.29-5.72,4-6,7.11-2.49,9.58-.58,43.06-.58,47.35C524.45,913,525.79,914.1,528.68,912.72Z"/><path class="cls-39" d="M482.18,960.05c5.93-3.43,5.89-9-.07-12.43s-15.6-3.47-21.53,0-5.89,9,.07,12.43S476.25,963.46,482.18,960.05Z"/><path class="cls-40" d="M479.64,959.11c5.92-3.42,5.89-9-.08-12.43s-15.59-3.45-21.52,0-5.9,9,.07,12.43S473.72,962.55,479.64,959.11Z"/><path class="cls-41" d="M479.64,957.56c5.92-3.42,5.89-9-.08-12.44s-15.59-3.44-21.52,0-5.9,9,.07,12.43S473.72,961,479.64,957.56Z"/><path class="cls-39" d="M544.41,948.09l-5.57-5.89a9.76,9.76,0,0,0-6.49-2.49l-44.7-2.09a4.61,4.61,0,0,0-3.43,1.1l-8.71,9.21a4.48,4.48,0,0,0-.69,1h-7.06v1.57h6.83a3.44,3.44,0,0,0,.92,1.82l7.68,8.11c1.28,1.36,3.72,2.14,6.26,2l42.66-2a10.13,10.13,0,0,0,6.75-2.59l5.55-5.86A2.69,2.69,0,0,0,544.41,948.09Z"/><rect class="cls-42" x="467.37" y="924.23" width="2.56" height="26.03"/><rect class="cls-43" x="468.84" y="924.23" width="1.34" height="26.03"/><path class="cls-44" d="M486.14,886.27a8.48,8.48,0,0,0-4.22-6.71l-9.54-5.51a6.43,6.43,0,0,0-6.41,0l-9.58,5.54a8.16,8.16,0,0,0-4.06,6.44l-3.39,44.46a3.61,3.61,0,0,0,1.79,3.4l15,8.64a7.17,7.17,0,0,0,7.17,0l13.22-7.63a6.61,6.61,0,0,0,3.28-6.21Z"/><path class="cls-41" d="M486.33,887.38a8.35,8.35,0,0,0-4-6.56l-9-5.41a5.86,5.86,0,0,0-6,0l-9,5.44a8,8,0,0,0-3.81,6.33l-3.16,43.58a3.59,3.59,0,0,0,1.68,3.33l14.09,8.46a6.46,6.46,0,0,0,6.74,0l12.41-7.48a6.56,6.56,0,0,0,3.09-6.1Z"/><path class="cls-45" d="M472.88,942.53l13.22-7.63a6.61,6.61,0,0,0,3.28-6.21l-3.23-42.42a8.56,8.56,0,0,0-1.92-4.74l-9,4c-2.9,1.28-5.72,4-6,7.1-2.49,9.59-.59,43.08-.59,47.35C468.64,942.85,470,943.89,472.88,942.53Z"/></g></g></g></svg>