<svg xmlns="http://www.w3.org/2000/svg" xmlns:xlink="http://www.w3.org/1999/xlink" viewBox="0 0 1739.66 1035.44"><defs><style>.cls-1{fill:url(#linear-gradient);}.cls-2{isolation:isolate;}.cls-3{fill:#bcb49c;}.cls-4{fill:#696557;}.cls-5{fill:#e5dcc4;}.cls-14,.cls-17,.cls-6{fill:#301404;}.cls-44,.cls-6{opacity:0.3;}.cls-14,.cls-17,.cls-42,.cls-6{mix-blend-mode:multiply;}.cls-7{fill:#c9c1ac;}.cls-8{fill:#d5d3b9;}.cls-9{fill:#a49c86;}.cls-10{fill:#a49b84;}.cls-11{fill:#d1c5b6;}.cls-12{fill:#e6e0d8;}.cls-13{fill:#b5ba4b;}.cls-14{opacity:0.4;}.cls-15{fill:#bfb49c;}.cls-16{fill:#939743;}.cls-17,.cls-42{opacity:0.2;}.cls-18{fill:#644f32;}.cls-19{fill:#4f3d27;}.cls-20{fill:#acac4b;}.cls-21{fill:#82823d;}.cls-22{fill:#494639;}.cls-23,.cls-34{opacity:0.7;}.cls-24{fill:#4e635e;}.cls-25{fill:#a2bfba;}.cls-26{fill:#c5d9d5;}.cls-27{fill:#a79e86;}.cls-28{fill:#5d5949;}.cls-29{fill:#96b5af;}.cls-30{fill:#abc7c1;}.cls-31{fill:#90aca7;}.cls-32{fill:#9f957c;}.cls-33{fill:#839c97;}.cls-34,.cls-43,.cls-44{fill:#afccc6;}.cls-34,.cls-44{mix-blend-mode:overlay;}.cls-35{fill:#a2c7bd;}.cls-36{fill:#96aca8;}.cls-37{fill:#a2987d;}.cls-38{fill:#f4ead6;}.cls-39{fill:#677e78;}.cls-40{fill:#8c8c35;}.cls-41{mask:url(#mask);}.cls-45{fill:#786f6c;}.cls-46{fill:#e6e6c7;}</style><linearGradient id="linear-gradient" x1="312.78" y1="671.68" x2="345.67" y2="612.96" gradientUnits="userSpaceOnUse"><stop offset="0" stop-color="#fff"/><stop offset="1"/></linearGradient><mask id="mask" x="112.17" y="486.67" width="557.13" height="330.25" maskUnits="userSpaceOnUse"><polygon class="cls-1" points="529.18 738.02 128.1 506.46 128.1 548.71 529.18 780.28 529.18 738.02"/></mask></defs><title>Recurso 44</title><g class="cls-2"><g id="Capa_2" data-name="Capa 2"><g id="ELEMENTOS_INDIVIDUALES" data-name="ELEMENTOS INDIVIDUALES"><polygon class="cls-3" points="139.79 325.59 119.54 336.46 119.54 355.54 139.79 355.54 139.79 325.59"/><polygon class="cls-4" points="878.65 243.29 878.42 233.59 489.96 17.62 280.55 134.97 669.25 360.63 878.65 243.29"/><polygon class="cls-3" points="878.65 233.59 878.42 225.76 489.96 7.92 280.55 125.28 669.25 350.94 878.65 233.59"/><polygon class="cls-5" points="878.65 225.67 489.96 0 280.55 117.36 669.24 343.02 878.65 225.67"/><polygon class="cls-3" points="857.08 221.75 496.42 12.37 302.13 121.26 662.78 330.64 857.08 221.75"/><polygon class="cls-6" points="608.69 116.41 516.73 167.57 483.44 167.57 520.75 98.28 576.51 98.28 608.69 116.41"/><polygon class="cls-7" points="456.72 123.27 484.77 139.18 484.77 166.7 456.72 150.8 456.72 123.27"/><polygon class="cls-8" points="473.15 143.44 465 138.54 465 154.84 473.15 159.74 473.15 143.44"/><polygon class="cls-9" points="484.58 139.34 555.24 98.55 555.24 125.92 484.58 166.71 484.58 139.34"/><polygon class="cls-5" points="484.5 139.45 456.55 123 527.42 82.06 555.37 98.52 484.5 139.45"/><polygon class="cls-6" points="669.47 149.88 577.5 201.03 544.21 201.03 581.52 131.75 637.29 131.75 669.47 149.88"/><polygon class="cls-7" points="517.49 156.74 545.55 172.64 545.55 200.16 517.49 184.27 517.49 156.74"/><polygon class="cls-8" points="533.92 176.91 525.77 172.01 525.77 188.31 533.92 193.21 533.92 176.91"/><polygon class="cls-9" points="545.36 172.81 616 132.01 616 159.39 545.36 200.19 545.36 172.81"/><polygon class="cls-5" points="545.28 172.92 517.33 156.47 588.2 115.53 616.15 131.99 545.28 172.92"/><polygon class="cls-10" points="496.42 24.13 846.78 227.53 857.08 221.75 496.42 12.37 302.13 121.26 312.43 127.24 496.42 24.13"/><polygon class="cls-6" points="669.24 343.02 878.65 225.67 844.32 205.73 432.8 205.73 669.24 343.02"/><polygon class="cls-6" points="264.16 721.23 140.47 649.79 139.21 785.39 151.39 786.33 264.16 721.23"/><polygon class="cls-6" points="867.86 903.51 868.24 887.56 833.73 907.5 776.16 874.26 715.09 874.26 673.81 898.09 626.27 870.16 1085.19 605.88 523.28 281.47 10.97 577.25 562.49 899.9 574.63 899.9 598.02 886.43 645.6 914.38 621.9 928.05 621.9 965.56 736.85 1035.35 784.64 1035.35 878.22 977.89 878.22 933.17 847.34 915.35 867.86 903.51"/><polygon class="cls-6" points="1315.41 796.24 973.03 598.59 991.56 976.23 1003.26 976.47 1315.41 796.24"/><polygon class="cls-11" points="864.71 936.7 762.65 877.79 701.59 877.79 608.4 931.59 608.4 969.08 723.35 1035.44 771.14 1035.44 864.71 981.42 864.71 936.7"/><polygon class="cls-12" points="864.71 929.66 762.65 870.73 701.59 870.73 608.4 924.54 608.4 962.03 723.35 1028.4 771.14 1028.4 864.71 974.38 864.71 929.66"/><polygon class="cls-11" points="1074.22 603.93 1073.77 597.28 512.32 279.51 0.33 568.12 0 575.3 561.92 899.71 1074.22 603.93"/><polygon class="cls-11" points="1303.08 795.66 1302.79 788.9 960.7 598 648.56 778.22 990.93 975.88 1303.08 795.66"/><polygon class="cls-12" points="1074.67 596.88 512.75 272.46 0.44 568.25 562.36 892.66 1074.67 596.88"/><polygon class="cls-6" points="606.76 836.08 329.66 677.8 283.05 704.72 548.5 863.2 560.15 863 606.76 836.08"/><polygon class="cls-6" points="198.45 600.02 81.08 536.87 34.45 563.78 140.19 627.13 151.82 626.94 198.45 600.02"/><polygon class="cls-13" points="1043.5 588.19 684.36 380.84 356.94 569.89 716.06 777.23 1043.5 588.19"/><polygon class="cls-12" points="1303.08 788.62 960.7 590.95 648.56 771.16 990.93 968.84 1303.08 788.62"/><polygon class="cls-13" points="1270.09 784.79 1106.05 691.93 1025.31 738.54 1189.35 831.4 1270.09 784.79"/><rect class="cls-6" x="609.86" y="669.71" width="230.19" height="156.2"/><path class="cls-14" d="M1217.4,800c6-3.45,6-9.1-.06-12.58s-15.8-3.5-21.79,0-6,9.1.07,12.58S1211.4,803.49,1217.4,800Z"/><path class="cls-15" d="M1214.83,799.09c6-3.45,6-9.09-.07-12.57s-15.79-3.51-21.78,0-6,9.1.07,12.58S1208.83,802.56,1214.83,799.09Z"/><path class="cls-16" d="M1214.83,797.51c6-3.46,6-9.09-.07-12.57s-15.79-3.5-21.78,0-6,9.09.07,12.58S1208.83,801,1214.83,797.51Z"/><path class="cls-17" d="M1280.39,787.94l-5.64-6a9.78,9.78,0,0,0-6.56-2.52l-45.27-2.11a4.56,4.56,0,0,0-3.45,1.11l-8.81,9.31a4.22,4.22,0,0,0-.7,1h-7.15v1.58h6.91a3.47,3.47,0,0,0,.94,1.84l7.77,8.23c1.29,1.36,3.76,2.15,6.33,2l43.18-2a10.13,10.13,0,0,0,6.83-2.63l5.62-5.92A2.72,2.72,0,0,0,1280.39,787.94Z"/><rect class="cls-18" x="1202.41" y="763.79" width="2.59" height="26.33"/><rect class="cls-19" x="1203.91" y="763.79" width="1.35" height="26.33"/><path class="cls-20" d="M1221.42,725.36a8.58,8.58,0,0,0-4.28-6.78l-9.65-5.57a6.47,6.47,0,0,0-6.48,0l-9.7,5.59a8.26,8.26,0,0,0-4.11,6.53l-3.43,45a3.61,3.61,0,0,0,1.81,3.44l15.16,8.75a7.29,7.29,0,0,0,7.26,0l13.37-7.73a6.72,6.72,0,0,0,3.33-6.29Z"/><path class="cls-16" d="M1221.6,726.49a8.49,8.49,0,0,0-4-6.65l-9.08-5.47a5.87,5.87,0,0,0-6.09,0l-9.12,5.5a8.14,8.14,0,0,0-3.85,6.41l-3.19,44.09a3.63,3.63,0,0,0,1.7,3.38l14.25,8.56a6.54,6.54,0,0,0,6.82,0l12.57-7.58a6.61,6.61,0,0,0,3.12-6.17Z"/><path class="cls-21" d="M1208,782.31l13.37-7.72a6.73,6.73,0,0,0,3.33-6.3l-3.28-42.93a8.56,8.56,0,0,0-1.94-4.79l-9.13,4.08c-2.94,1.3-5.79,4-6,7.19-2.51,9.71-.59,43.58-.59,47.93C1203.71,782.63,1205.07,783.7,1208,782.31Z"/><polygon class="cls-6" points="1017.4 704.94 1013.88 937.48 1443.98 937.48 1739.66 714.62 1016.84 297.3 683.86 333.81 1017.4 704.94"/><polygon class="cls-22" points="878.76 242.76 717.32 335.98 717.32 578.61 878.75 485.39 878.76 242.76"/><g class="cls-23"><polygon class="cls-24" points="756.16 368.74 771.96 325.05 779.64 320.61 779.65 356.81 758.23 369.17 756.16 368.74"/><polygon class="cls-25" points="756.29 334.11 777.7 321.75 777.7 356.14 756.29 368.51 756.29 334.11"/><polygon class="cls-24" points="797.55 344.83 813.36 301.15 821.03 296.71 821.04 332.9 799.63 345.26 797.55 344.83"/><polygon class="cls-25" points="797.67 310.2 819.09 297.83 819.1 332.24 797.68 344.6 797.67 310.2"/><polygon class="cls-24" points="838.95 320.92 854.75 277.24 862.43 272.81 862.43 308.99 841.03 321.37 838.95 320.92"/><polygon class="cls-25" points="839.07 286.3 860.48 273.93 860.48 308.33 839.07 320.7 839.07 286.3"/><polygon class="cls-26" points="758.07 335.07 760.54 349.99 776.4 353.93 758.08 364.51 758.07 335.07"/><polygon class="cls-26" points="799.18 311.19 801.65 326.1 817.51 330.05 799.18 340.64 799.18 311.19"/><polygon class="cls-26" points="840.67 287.31 843.15 302.22 859 306.17 840.67 316.75 840.67 287.31"/></g><g class="cls-23"><polygon class="cls-24" points="756.16 425.99 771.96 382.3 779.64 377.86 779.65 414.05 758.23 426.42 756.16 425.99"/><polygon class="cls-25" points="756.29 391.36 777.7 378.99 777.7 413.39 756.29 425.76 756.29 391.36"/><polygon class="cls-24" points="797.55 402.08 813.36 358.39 821.03 353.96 821.04 390.15 799.63 402.52 797.55 402.08"/><polygon class="cls-25" points="797.67 367.45 819.09 355.09 819.1 389.49 797.68 401.86 797.67 367.45"/><polygon class="cls-24" points="838.95 378.17 854.75 334.49 862.43 330.06 862.43 366.25 841.03 378.61 838.95 378.17"/><polygon class="cls-25" points="839.07 343.55 860.48 331.18 860.48 365.58 839.07 377.95 839.07 343.55"/><polygon class="cls-26" points="758.07 392.32 760.54 407.23 776.4 411.18 758.08 421.77 758.07 392.32"/><polygon class="cls-26" points="799.18 368.44 801.65 383.35 817.51 387.3 799.18 397.88 799.18 368.44"/><polygon class="cls-26" points="840.67 344.56 843.15 359.47 859 363.42 840.67 374 840.67 344.56"/></g><g class="cls-23"><polygon class="cls-24" points="756.16 481.47 771.96 437.79 779.64 433.36 779.65 469.55 758.23 481.91 756.16 481.47"/><polygon class="cls-25" points="756.29 446.85 777.7 434.49 777.7 468.89 756.29 481.25 756.29 446.85"/><polygon class="cls-24" points="797.55 457.57 813.36 413.88 821.03 409.44 821.04 445.64 799.63 458.01 797.55 457.57"/><polygon class="cls-25" points="797.67 422.94 819.09 410.58 819.1 444.97 797.68 457.35 797.67 422.94"/><polygon class="cls-24" points="838.95 433.66 854.75 389.98 862.43 385.55 862.43 421.74 841.03 434.1 838.95 433.66"/><polygon class="cls-25" points="839.07 399.04 860.48 386.67 860.48 421.07 839.07 433.44 839.07 399.04"/><polygon class="cls-26" points="758.07 447.81 760.54 462.71 776.4 466.67 758.08 477.25 758.07 447.81"/><polygon class="cls-26" points="799.18 423.93 801.65 438.84 817.51 442.78 799.18 453.37 799.18 423.93"/><polygon class="cls-26" points="840.67 400.04 843.15 414.96 859 418.91 840.67 429.49 840.67 400.04"/></g><polygon class="cls-3" points="886.97 447.44 406.25 170.37 128.2 330.9 608.92 607.97 886.97 447.44"/><polygon class="cls-4" points="871.76 445.39 398.77 171.38 140.21 328.04 609.22 602.3 871.76 445.39"/><polygon class="cls-14" points="884.68 446.56 396.7 162.34 217.33 319.37 542.34 548.15 712.92 547.23 884.68 446.56"/><polygon class="cls-22" points="885.39 449.04 609.08 606.67 602.24 702.58 609.29 826.72 885.39 667.31 885.39 449.04"/><polygon class="cls-27" points="884.57 506.78 695.83 615.74 695.83 776.86 884.58 667.9 884.57 506.78"/><polygon class="cls-27" points="886.12 446.61 761.17 518.74 761.17 617.51 886.12 545.38 886.12 446.61"/><polygon class="cls-28" points="609.65 606.89 128.1 328.86 128.1 548.71 609.65 826.74 609.65 690.85 609.65 606.89"/><polygon class="cls-29" points="529.18 602.92 128.1 371.36 128.1 548.71 529.18 780.28 529.18 602.92"/><polygon class="cls-30" points="506.39 728.36 192.08 552.45 130.94 546 505.53 762.65 506.39 728.36"/><rect class="cls-29" x="494.08" y="755.73" width="31.71" height="1.96"/><rect class="cls-29" x="493.7" y="717.46" width="2.05" height="39.83"/><rect class="cls-29" x="466.39" y="739.39" width="49.66" height="1.96"/><rect class="cls-29" x="466" y="701.12" width="2.05" height="39.84"/><rect class="cls-29" x="438.34" y="723.54" width="68.71" height="1.95"/><rect class="cls-29" x="437.95" y="685.27" width="2.06" height="39.83"/><rect class="cls-29" x="410.74" y="707.54" width="68.71" height="1.96"/><rect class="cls-29" x="410.36" y="669.26" width="2.06" height="39.83"/><rect class="cls-29" x="383.15" y="691.24" width="68.71" height="1.96"/><rect class="cls-29" x="382.75" y="652.97" width="2.06" height="39.83"/><rect class="cls-29" x="355.11" y="675.08" width="68.71" height="1.96"/><rect class="cls-29" x="354.72" y="636.82" width="2.05" height="39.83"/><rect class="cls-29" x="327.36" y="659.08" width="68.71" height="1.96"/><rect class="cls-29" x="326.97" y="620.82" width="2.06" height="39.83"/><rect class="cls-29" x="266" y="623.86" width="68.7" height="1.95"/><rect class="cls-29" x="265.61" y="585.58" width="2.05" height="39.84"/><rect class="cls-29" x="215.94" y="594.78" width="68.71" height="1.96"/><rect class="cls-29" x="215.54" y="552.7" width="2.05" height="43.64"/><rect class="cls-29" x="188.48" y="578.48" width="68.7" height="1.96"/><rect class="cls-29" x="188.09" y="536.41" width="2.06" height="43.65"/><rect class="cls-29" x="160.3" y="562.63" width="68.71" height="1.96"/><rect class="cls-29" x="159.9" y="520.55" width="2.06" height="43.65"/><rect class="cls-29" x="299.91" y="641.45" width="68.71" height="3.71"/><rect class="cls-29" x="299.55" y="605.11" width="2.57" height="39.83"/><rect class="cls-29" x="238.25" y="606.36" width="68.71" height="3.71"/><rect class="cls-29" x="237.89" y="570.02" width="2.57" height="39.83"/><polygon class="cls-22" points="750.47 259.52 540.92 377.84 540.92 547.86 749.31 428.38 750.47 259.52"/><polygon class="cls-31" points="536.17 374.85 155.7 154.43 155.7 325.08 537.05 545.73 536.17 374.85"/><polygon class="cls-25" points="525.31 504.41 210.55 325 160.96 325.05 525.31 535.9 525.31 504.41"/><rect class="cls-31" x="421.95" y="473.86" width="54.62" height="3.82"/><rect class="cls-31" x="363.52" y="440.1" width="54.62" height="3.83"/><rect class="cls-31" x="310.09" y="408.38" width="54.62" height="3.82"/><rect class="cls-31" x="259.59" y="379.62" width="54.61" height="3.82"/><rect class="cls-31" x="207.62" y="350.11" width="54.62" height="3.81"/><polygon class="cls-25" points="525.31 450.96 210.55 271.57 160.96 271.62 525.31 482.47 525.31 450.96"/><rect class="cls-31" x="475.98" y="451.84" width="49.33" height="3.82"/><rect class="cls-31" x="420.78" y="421.6" width="53.44" height="3.82"/><polygon class="cls-25" points="525.31 394.59 210.55 215.19 160.96 215.24 525.31 426.09 525.31 394.59"/><rect class="cls-31" x="475.98" y="396.79" width="49.33" height="3.82"/><rect class="cls-31" x="421.66" y="365.08" width="59.02" height="3.82"/><rect class="cls-31" x="364.7" y="387.69" width="53.44" height="3.82"/><rect class="cls-31" x="365.58" y="331.17" width="59.02" height="3.82"/><rect class="cls-31" x="309.21" y="356.28" width="53.43" height="3.81"/><rect class="cls-31" x="310.09" y="299.76" width="59.01" height="3.81"/><rect class="cls-31" x="257.82" y="326.33" width="66.07" height="3.81"/><rect class="cls-31" x="258.7" y="269.81" width="59.02" height="3.81"/><rect class="cls-31" x="207.91" y="297.55" width="66.79" height="3.82"/><rect class="cls-31" x="209.01" y="241.04" width="73.78" height="3.81"/><polygon class="cls-28" points="750.4 263.34 750.4 250.6 361.75 35.26 151.37 140.42 151.37 153.16 541.89 379.9 750.4 263.34"/><polygon class="cls-22" points="750.4 263.34 750.4 250.6 541.89 242.94 541.89 379.9 750.4 263.34"/><polygon class="cls-3" points="752.28 248.48 752.28 237.12 361.75 21.75 151.37 128.68 151.37 139.66 541.89 366.39 752.28 248.48"/><polygon class="cls-32" points="752.28 248.48 752.28 237.12 541.89 243.38 541.89 366.39 752.28 248.48"/><polygon class="cls-5" points="752.28 236.74 361.75 10.01 151.37 127.91 541.89 354.65 752.28 236.74"/><polygon class="cls-33" points="1023.46 799.87 726.49 628.4 726.49 759.72 1023.46 931.19 1023.46 799.87"/><polygon class="cls-34" points="1014.39 873.47 922.86 825.32 840.93 825.62 1014.39 926.01 1014.39 873.47"/><polygon class="cls-34" points="1014.39 821.16 840.93 719.25 840.93 825.62 1014.39 926.01 1014.39 821.16"/><polygon class="cls-35" points="963.77 868 916.59 868 920.31 871.71 963.77 871.71 963.77 868"/><polygon class="cls-35" points="963.77 868.38 910.43 837.87 910.43 840.99 959.93 869.57 963.77 868.38"/><polygon class="cls-35" points="911.11 837.65 863.94 837.65 867.66 841.37 911.11 841.37 911.11 837.65"/><rect class="cls-35" x="968.46" y="897.55" width="60.68" height="2.35"/><rect class="cls-35" x="934.6" y="877.59" width="76.74" height="2.34"/><rect class="cls-35" x="849.26" y="829.04" width="162.46" height="2.34"/><rect class="cls-35" x="889.97" y="852.19" width="44.34" height="1.46"/><polygon class="cls-5" points="160.53 565.17 160.53 390.09 159.01 389.21 159.01 565.17 160.53 565.17"/><polygon class="cls-5" points="188.34 581.77 188.34 406.14 186.82 405.26 186.82 581.77 188.34 581.77"/><polygon class="cls-5" points="216.15 597.19 216.14 422.2 214.62 421.32 214.62 597.19 216.15 597.19"/><polygon class="cls-5" points="243.96 568.26 243.96 438.25 242.44 437.38 242.44 568.26 243.96 568.26"/><polygon class="cls-5" points="271.76 584.56 271.76 454.31 270.24 453.43 270.24 584.56 271.76 584.56"/><polygon class="cls-5" points="299.57 644.62 299.57 470.37 298.05 469.48 298.05 644.62 299.57 644.62"/><polygon class="cls-5" points="327.37 660.91 327.37 486.41 325.86 485.53 325.86 660.91 327.37 660.91"/><polygon class="cls-5" points="355.19 677.22 355.19 502.47 353.66 501.59 353.66 677.22 355.19 677.22"/><polygon class="cls-5" points="383 693.52 383 518.53 381.47 517.65 381.47 693.52 383 693.52"/><polygon class="cls-5" points="410.8 709.8 410.8 534.58 409.28 533.7 409.28 709.8 410.8 709.8"/><polygon class="cls-5" points="438.61 726.11 438.61 550.64 437.09 549.76 437.09 726.11 438.61 726.11"/><polygon class="cls-5" points="466.42 742.4 466.42 566.69 464.9 565.82 464.9 742.4 466.42 742.4"/><polygon class="cls-5" points="494.22 758.7 494.22 582.75 492.7 581.87 492.7 758.7 494.22 758.7"/><polygon class="cls-22" points="529.07 772.97 529.07 780.31 609.74 826.8 609.74 819.48 529.07 772.97"/><polygon class="cls-33" points="741.76 269.22 551.57 379.05 551.57 534.32 741.76 424.51 741.76 269.22"/><path class="cls-36" d="M707,406.23c.87,0,32.76,17.42,32.76,17.42V387.26Z"/><path class="cls-36" d="M695.21,358.09c.87,0,44.5,21.72,44.5,21.72v-48Z"/><path class="cls-36" d="M695.21,299.76c.87,0,44.5,21.72,44.5,21.72v-48Z"/><polygon class="cls-33" points="724.38 280.09 720.26 281.99 720.26 421.46 724.38 421.46 724.38 280.09"/><polygon class="cls-28" points="1017.33 790.9 1006.75 785.04 1007.47 932.48 1014.76 936.68 1017.33 790.9"/><polygon class="cls-3" points="726.81 625.54 735.44 620.55 735.44 763.37 726.81 768.36 726.81 625.54"/><polygon class="cls-28" points="1178.1 707.87 719.38 620.08 719.38 627.62 1017.91 798.46 1178.1 707.87"/><polygon class="cls-28" points="969.25 756.05 967.76 755.46 967.76 900.18 969.25 900.78 969.25 756.05"/><polygon class="cls-28" points="934.6 736.09 933.1 735.49 933.1 880.21 934.6 880.81 934.6 736.09"/><polygon class="cls-28" points="850.63 687.94 849.14 687.33 849.14 832.06 850.63 832.66 850.63 687.94"/><polygon class="cls-28" points="816.86 667.39 815.37 666.79 815.37 811.5 816.86 812.11 816.86 667.39"/><polygon class="cls-28" points="788.38 651.82 786.89 651.23 786.89 795.94 788.38 796.55 788.38 651.82"/><polygon class="cls-28" points="757.84 634.79 756.36 634.18 756.36 778.91 757.84 779.51 757.84 634.79"/><polygon class="cls-3" points="1179.67 695.54 1179.48 686.53 883.59 525.88 719.68 611.18 719.19 620.25 1015.27 789.91 1179.67 695.54"/><polygon class="cls-37" points="1179.67 695.54 1179.48 686.53 1015.27 718.45 1015.27 789.91 1179.67 695.54"/><polygon class="cls-38" points="1179.67 686.15 883.59 516.49 719.19 610.86 1015.27 780.52 1179.67 686.15"/><polygon class="cls-3" points="1160.09 683.75 884.68 525.83 740.97 608.33 1016.38 766.26 1160.09 683.75"/><polygon class="cls-5" points="530.01 572.41 119.86 337.33 119.86 499.13 530.01 734.22 530.01 572.41"/><polygon class="cls-3" points="731.42 234.37 362.7 20.04 170.59 128.17 539.32 342.51 731.42 234.37"/><polygon class="cls-10" points="362.7 29.43 723.2 239 731.42 234.37 362.7 20.04 170.59 128.17 178.81 132.94 362.7 29.43"/><polygon class="cls-22" points="1179.39 695.53 1013.69 788.92 1013.69 936.36 1179.39 842.97 1179.39 695.53"/><polygon class="cls-24" points="498.32 701.14 482.52 657.46 474.85 653.03 474.83 689.22 496.25 701.58 498.32 701.14"/><polygon class="cls-25" points="498.2 666.52 476.79 654.16 476.79 688.55 498.19 700.92 498.2 666.52"/><polygon class="cls-26" points="496.66 667.32 494.19 682.23 478.33 686.19 496.65 696.77 496.66 667.32"/><polygon class="cls-24" points="456.93 677.24 441.13 633.56 433.45 629.12 433.45 665.32 454.85 677.67 456.93 677.24"/><polygon class="cls-25" points="456.81 642.61 435.39 630.24 435.39 664.65 456.81 677.01 456.81 642.61"/><polygon class="cls-24" points="415.54 653.34 399.73 609.65 392.05 605.22 392.05 641.4 413.47 653.77 415.54 653.34"/><polygon class="cls-25" points="415.41 618.7 394 606.34 394 640.74 415.41 653.11 415.41 618.7"/><polygon class="cls-24" points="374.16 629.42 358.34 585.74 350.66 581.31 350.66 617.49 372.07 629.86 374.16 629.42"/><polygon class="cls-25" points="374.02 594.8 352.61 582.43 352.61 616.83 374.02 629.2 374.02 594.8"/><polygon class="cls-24" points="332.76 605.52 316.95 561.84 309.28 557.4 309.27 593.59 330.68 605.96 332.76 605.52"/><polygon class="cls-25" points="332.63 570.89 311.22 558.52 311.21 592.93 332.63 605.3 332.63 570.89"/><polygon class="cls-24" points="291.37 581.61 275.57 537.93 267.88 533.5 267.88 569.68 289.29 582.05 291.37 581.61"/><polygon class="cls-25" points="291.24 546.98 269.83 534.62 269.83 569.02 291.23 581.39 291.24 546.98"/><polygon class="cls-24" points="249.98 557.7 234.17 514.03 226.49 509.58 226.49 545.79 247.9 558.15 249.98 557.7"/><polygon class="cls-25" points="249.85 523.08 228.44 510.71 228.44 545.12 249.85 557.48 249.85 523.08"/><polygon class="cls-24" points="208.58 533.8 192.78 490.11 185.1 485.68 185.1 521.87 206.51 534.24 208.58 533.8"/><polygon class="cls-25" points="208.46 499.17 187.04 486.8 187.04 521.21 208.46 533.57 208.46 499.17"/><polygon class="cls-24" points="167.19 509.89 151.39 466.2 143.71 461.78 143.71 497.96 165.12 510.33 167.19 509.89"/><polygon class="cls-25" points="167.07 475.26 145.66 462.9 145.65 497.3 167.07 509.67 167.07 475.26"/><polygon class="cls-26" points="455.17 644.22 452.69 659.14 436.83 663.08 455.16 673.67 455.17 644.22"/><polygon class="cls-26" points="412.88 619.57 410.41 634.48 394.56 638.42 412.88 649 412.88 619.57"/><polygon class="cls-26" points="371.78 595.68 369.3 610.59 353.44 614.54 371.77 625.12 371.78 595.68"/><polygon class="cls-26" points="331.06 572.19 328.59 587.1 312.72 591.05 331.05 601.63 331.06 572.19"/><polygon class="cls-26" points="288.78 547.92 286.3 562.83 270.45 566.78 288.78 577.36 288.78 547.92"/><polygon class="cls-26" points="248.07 524.04 245.59 538.95 229.74 542.9 248.07 553.48 248.07 524.04"/><polygon class="cls-26" points="206.96 500.16 204.49 515.07 188.63 519.02 206.95 529.6 206.96 500.16"/><polygon class="cls-26" points="165.46 476.28 162.99 491.19 147.13 495.14 165.46 505.72 165.46 476.28"/><polygon class="cls-24" points="498.54 655.36 482.72 611.67 475.05 607.24 475.05 643.43 496.46 655.8 498.54 655.36"/><polygon class="cls-25" points="498.41 620.73 477 608.36 476.99 642.76 498.41 655.13 498.41 620.73"/><polygon class="cls-26" points="496.87 621.54 494.4 636.44 478.53 640.39 496.86 650.98 496.87 621.54"/><polygon class="cls-24" points="457.15 631.45 441.34 587.77 433.66 583.33 433.65 619.52 455.06 631.89 457.15 631.45"/><polygon class="cls-25" points="457.02 596.82 435.61 584.46 435.61 618.86 457.01 631.22 457.02 596.82"/><polygon class="cls-24" points="415.75 607.54 399.95 563.86 392.27 559.43 392.27 595.62 413.67 607.98 415.75 607.54"/><polygon class="cls-25" points="415.63 572.92 394.21 560.54 394.21 594.95 415.63 607.31 415.63 572.92"/><polygon class="cls-24" points="374.36 583.64 358.56 539.95 350.88 535.51 350.88 571.71 372.29 584.08 374.36 583.64"/><polygon class="cls-25" points="374.23 549.01 352.82 536.65 352.82 571.04 374.23 583.41 374.23 549.01"/><polygon class="cls-24" points="332.97 559.73 317.17 516.05 309.48 511.61 309.48 547.8 330.9 560.17 332.97 559.73"/><polygon class="cls-25" points="332.84 525.1 311.43 512.73 311.43 547.15 332.84 559.51 332.84 525.1"/><polygon class="cls-24" points="291.58 535.83 275.77 492.14 268.09 487.71 268.09 523.9 289.51 536.26 291.58 535.83"/><polygon class="cls-25" points="291.45 501.2 270.04 488.82 270.03 523.23 291.45 535.6 291.45 501.2"/><polygon class="cls-24" points="250.19 511.91 234.38 468.23 226.71 463.8 226.7 499.99 248.11 512.36 250.19 511.91"/><polygon class="cls-25" points="250.06 477.29 228.65 464.93 228.65 499.32 250.06 511.7 250.06 477.29"/><polygon class="cls-24" points="208.79 488.01 192.99 444.33 185.31 439.89 185.31 476.08 206.72 488.44 208.79 488.01"/><polygon class="cls-25" points="208.67 453.39 187.26 441.01 187.26 475.43 208.67 487.78 208.67 453.39"/><polygon class="cls-24" points="167.4 464.1 151.6 420.42 143.92 415.98 143.92 452.18 165.33 464.54 167.4 464.1"/><polygon class="cls-25" points="167.28 429.48 145.87 417.11 145.87 451.51 167.28 463.87 167.28 429.48"/><polygon class="cls-26" points="455.36 598.43 452.89 613.35 437.04 617.3 455.36 627.88 455.36 598.43"/><polygon class="cls-26" points="413.09 573.77 410.62 588.69 394.76 592.63 413.08 603.21 413.09 573.77"/><polygon class="cls-26" points="371.98 549.89 369.51 564.81 353.65 568.75 371.98 579.34 371.98 549.89"/><polygon class="cls-26" points="331.27 526.41 328.8 541.31 312.94 545.26 331.27 555.85 331.27 526.41"/><polygon class="cls-26" points="288.99 502.14 286.52 517.04 270.67 520.98 288.99 531.58 288.99 502.14"/><polygon class="cls-26" points="248.27 478.24 245.8 493.17 229.95 497.11 248.27 507.7 248.27 478.24"/><polygon class="cls-26" points="207.17 454.37 204.7 469.28 188.85 473.23 207.17 483.82 207.17 454.37"/><polygon class="cls-26" points="165.67 430.49 163.2 445.4 147.34 449.34 165.67 459.93 165.67 430.49"/><polygon class="cls-24" points="498.32 607.58 482.52 563.89 474.85 559.46 474.83 595.66 496.25 608.02 498.32 607.58"/><polygon class="cls-25" points="498.2 572.95 476.79 560.59 476.79 594.99 498.19 607.36 498.2 572.95"/><polygon class="cls-26" points="496.66 573.75 494.19 588.67 478.33 592.61 496.65 603.2 496.66 573.75"/><polygon class="cls-24" points="456.93 583.67 441.13 539.99 433.45 535.55 433.45 571.74 454.85 584.11 456.93 583.67"/><polygon class="cls-25" points="456.81 549.05 435.39 536.68 435.39 571.09 456.81 583.45 456.81 549.05"/><polygon class="cls-24" points="415.54 559.77 399.73 516.08 392.05 511.64 392.05 547.83 413.47 560.21 415.54 559.77"/><polygon class="cls-25" points="415.41 525.14 394 512.77 394 547.17 415.41 559.54 415.41 525.14"/><polygon class="cls-24" points="374.16 535.86 358.34 492.18 350.66 487.74 350.66 523.94 372.07 536.3 374.16 535.86"/><polygon class="cls-25" points="374.02 501.23 352.61 488.87 352.61 523.27 374.02 535.63 374.02 501.23"/><polygon class="cls-24" points="332.76 511.95 316.95 468.27 309.28 463.84 309.27 500.02 330.68 512.39 332.76 511.95"/><polygon class="cls-25" points="332.63 477.32 311.22 464.96 311.21 499.36 332.63 511.73 332.63 477.32"/><polygon class="cls-24" points="291.37 488.05 275.57 444.36 267.88 439.93 267.88 476.12 289.29 488.49 291.37 488.05"/><polygon class="cls-25" points="291.24 453.42 269.83 441.05 269.83 475.45 291.23 487.82 291.24 453.42"/><polygon class="cls-24" points="249.98 464.15 234.17 420.46 226.49 416.03 226.49 452.21 247.9 464.58 249.98 464.15"/><polygon class="cls-25" points="249.85 429.52 228.44 417.14 228.44 451.55 249.85 463.92 249.85 429.52"/><polygon class="cls-24" points="208.58 440.24 192.78 396.55 185.1 392.12 185.1 428.3 206.51 440.68 208.58 440.24"/><polygon class="cls-25" points="208.46 405.61 187.04 393.24 187.04 427.64 208.46 440.01 208.46 405.61"/><polygon class="cls-24" points="167.19 416.33 151.39 372.65 143.71 368.21 143.71 404.4 165.12 416.77 167.19 416.33"/><polygon class="cls-25" points="167.07 381.7 145.65 369.33 145.65 403.74 167.07 416.1 167.07 381.7"/><polygon class="cls-26" points="455.17 550.66 452.69 565.57 436.83 569.52 455.16 580.1 455.17 550.66"/><polygon class="cls-26" points="412.88 526 410.41 540.91 394.56 544.86 412.88 555.44 412.88 526"/><polygon class="cls-26" points="371.78 502.12 369.3 517.03 353.44 520.98 371.77 531.56 371.78 502.12"/><polygon class="cls-26" points="331.06 478.63 328.59 493.54 312.72 497.49 331.05 508.07 331.06 478.63"/><polygon class="cls-26" points="288.78 454.35 286.3 469.26 270.45 473.21 288.78 483.8 288.78 454.35"/><polygon class="cls-26" points="248.07 430.48 245.59 445.39 229.74 449.34 248.07 459.92 248.07 430.48"/><polygon class="cls-26" points="206.96 406.59 204.49 421.5 188.63 425.45 206.95 436.04 206.96 406.59"/><polygon class="cls-26" points="165.46 382.72 162.98 397.63 147.13 401.57 165.46 412.16 165.46 382.72"/><polygon class="cls-10" points="884.68 535.23 1151.9 688.46 1160.09 683.75 884.68 525.83 740.97 608.33 749.17 613.03 884.68 535.23"/><polygon class="cls-33" points="649.37 601.19 633.25 610.47 633.25 628.98 649.37 619.7 649.37 601.19"/><polygon class="cls-33" points="687.72 579.46 671.59 588.74 671.6 607.24 687.72 597.95 687.72 579.46"/><polygon class="cls-33" points="729.55 558 713.43 567.28 713.43 585.79 729.55 576.5 729.55 558"/><polygon class="cls-39" points="1066.87 789.67 1050.74 798.96 1050.74 817.47 1066.87 808.18 1066.87 789.67"/><polygon class="cls-39" points="1105.21 767.95 1089.08 777.23 1089.09 795.73 1105.22 786.44 1105.21 767.95"/><polygon class="cls-33" points="1161.95 819.39 1132.53 836.34 1132.53 870.1 1161.94 853.16 1161.95 819.39"/><polygon class="cls-39" points="1147.04 746.48 1130.93 755.77 1130.93 774.27 1147.05 764.99 1147.04 746.48"/><polygon class="cls-33" points="1065.69 788.5 1049.57 797.78 1049.58 816.28 1065.69 807 1065.69 788.5"/><polygon class="cls-33" points="1104.04 766.76 1087.91 776.05 1087.92 794.56 1104.04 785.27 1104.04 766.76"/><polygon class="cls-33" points="1145.87 745.31 1129.75 754.59 1129.75 773.1 1145.88 763.82 1145.87 745.31"/><polygon class="cls-22" points="714.7 284.49 711.14 288.44 711.14 442.85 714.7 440.79 714.7 284.49"/><polygon class="cls-22" points="665.76 312.28 662.21 316.23 662.21 470.64 665.76 468.59 665.76 312.28"/><polygon class="cls-22" points="613.32 342.42 609.75 346.38 609.75 500.79 613.32 498.73 613.32 342.42"/><polygon class="cls-22" points="745.51 378.1 548.11 492.07 548.11 495.58 745.51 381.6 745.51 378.1"/><polygon class="cls-22" points="745.51 321.33 548.11 435.31 548.11 438.81 745.51 324.84 745.51 321.33"/><polygon class="cls-40" points="595.3 835.85 595.3 831.72 272.76 700.24 272.76 705.9 548.01 863.11 595.3 835.85"/><polygon class="cls-13" points="595.31 831.68 318.2 673.4 271.6 700.32 548.7 858.59 595.31 831.68"/><g class="cls-41"><g class="cls-42"><polygon class="cls-40" points="669.28 789.64 669.28 785.53 346.75 654.04 346.75 659.7 621.99 816.92 669.28 789.64"/><polygon class="cls-13" points="669.3 785.48 392.21 627.2 345.58 654.12 622.68 812.4 669.3 785.48"/><polygon class="cls-40" points="269.29 554.3 269.29 550.17 113.34 513.51 113.34 519.17 221.99 581.57 269.29 554.3"/><polygon class="cls-13" points="269.29 550.12 158.79 486.67 112.17 513.58 222.68 577.03 269.29 550.12"/></g></g><polygon class="cls-40" points="188.25 600.1 188.25 595.97 32.3 559.32 32.3 564.98 140.95 627.36 188.25 600.1"/><polygon class="cls-13" points="188.26 595.93 77.76 532.48 31.14 559.39 141.64 622.84 188.26 595.93"/><polygon class="cls-11" points="669.63 909.05 607.93 872.79 579.73 889.08 641.42 925.34 669.63 909.05"/><polygon class="cls-12" points="669.04 900.24 607.34 863.99 579.13 880.27 640.84 916.52 669.04 900.24"/><polygon class="cls-11" points="773.52 919.03 835.23 882.78 863.44 899.06 801.73 935.33 773.52 919.03"/><polygon class="cls-12" points="772.35 911.4 834.05 875.14 862.26 891.43 800.56 927.69 772.35 911.4"/><polygon class="cls-12" points="864.71 929.66 762.65 870.73 701.59 870.73 608.4 924.54 608.4 962.03 723.35 1028.4 771.14 1028.4 864.71 974.38 864.71 929.66"/><polygon class="cls-11" points="788 934.12 747.97 911.01 724.01 911.01 687.46 932.11 687.46 946.81 732.55 972.86 751.29 972.86 788 951.66 788 934.12"/><polygon class="cls-13" points="781.8 938.02 746.71 917.75 725.7 917.75 693.66 936.26 693.66 949.16 733.19 971.98 749.62 971.98 781.8 953.41 781.8 938.02"/><polygon class="cls-6" points="701.09 936.26 733.15 917.75 725.7 917.75 693.66 936.26 693.66 949.16 733.19 971.98 740.63 971.98 701.09 949.16 701.09 936.26"/><polygon class="cls-5" points="529.49 778.06 127.7 545.41 127.7 548.52 529.49 781.18 529.49 778.06"/><rect class="cls-6" x="107.76" y="766.65" width="13.38" height="7.14"/><polygon class="cls-11" points="251.83 720.05 207.03 692.02 15.35 704.94 15.35 713.74 139.05 785.16 251.83 720.05"/><polygon class="cls-12" points="251.83 711.24 128.14 639.81 15.35 704.93 139.05 776.35 251.83 711.24"/><polygon class="cls-11" points="114.45 770.2 84.49 751.46 25.05 720.11 25.05 725.99 107.76 773.76 114.45 770.2"/><polygon class="cls-12" points="114.45 764.31 31.74 716.54 25.05 720.1 107.76 767.87 114.45 764.31"/><polygon class="cls-28" points="265.93 583.96 264.4 583.08 264.4 626.56 265.93 627.43 265.93 583.96"/><polygon class="cls-28" points="238.22 609.92 238.22 570.53 296.22 604.03 296.22 643.4 299.97 645.57 299.97 600.87 234.35 562.98 234.35 607.69 238.22 609.92"/><polygon class="cls-28" points="890.72 817.18 889.43 816.43 889.43 853.42 890.72 854.17 890.72 817.18"/><polygon class="cls-28" points="867.14 840.83 867.15 807.32 916.49 835.83 916.49 869.33 919.69 871.17 919.69 833.13 863.86 800.9 863.86 838.93 867.14 840.83"/><polygon class="cls-28" points="728.01 625.15 719.36 620.15 719.36 762.98 728.01 767.97 728.01 625.15"/><polygon class="cls-43" points="541.46 497.34 156.27 274.95 156.27 278.44 541.46 500.84 541.46 497.34"/><polygon class="cls-43" points="541.46 440.09 156.27 217.69 156.27 221.19 541.46 443.59 541.46 440.09"/><polygon class="cls-28" points="541.81 376.81 526.57 368.43 526.57 540.07 541.81 548.44 541.81 376.81"/><rect class="cls-5" x="822.43" y="825.81" width="18.5" height="22.9"/><polygon class="cls-6" points="1003.79 585.36 883.59 516.49 719.19 610.86 839.16 679.61 841.81 679.61 1003.79 585.36"/><polygon class="cls-25" points="161.61 209.91 161.61 163.91 198.03 186.62 223.77 199.63 210.26 209.61 161.61 209.91"/><polygon class="cls-25" points="161.61 267.45 161.61 229.24 191.87 248.1 213.25 258.92 202.03 267.21 161.61 267.45"/><polygon class="cls-25" points="162.21 319.43 162.21 287.55 187.44 303.28 205.28 312.31 195.92 319.23 162.21 319.43"/><polygon class="cls-43" points="161.92 309.44 161.92 286.07 179.43 300.05 161.92 309.44"/><polygon class="cls-43" points="161.61 266.86 161.61 229.7 193.81 248.66 161.61 266.86"/><polygon class="cls-43" points="161.32 209.91 161.32 164.53 201.16 187.59 161.32 209.91"/><polygon class="cls-31" points="209.26 187.92 205.19 185.58 205.19 353.06 209.26 355.41 209.26 187.92"/><polygon class="cls-43" points="206.52 186.36 202.44 184.01 202.44 351.49 206.52 353.84 206.52 186.36"/><polygon class="cls-31" points="260.15 216.5 256.09 214.15 256.09 381.64 260.15 383.98 260.15 216.5"/><polygon class="cls-43" points="257.41 214.94 253.35 212.59 253.35 380.07 257.41 382.41 257.41 214.94"/><polygon class="cls-31" points="310.26 245.47 306.19 243.12 306.19 410.6 310.26 412.95 310.26 245.47"/><polygon class="cls-43" points="307.52 243.91 303.45 241.55 303.45 409.04 307.52 411.39 307.52 243.91"/><polygon class="cls-31" points="365.46 277.18 361.39 274.83 361.39 442.32 365.46 444.66 365.46 277.18"/><polygon class="cls-43" points="362.72 275.62 358.64 273.27 358.66 440.75 362.72 443.09 362.72 275.62"/><polygon class="cls-31" points="422.62 309.68 418.55 307.32 418.55 474.81 422.62 477.15 422.62 309.68"/><polygon class="cls-43" points="419.88 308.11 415.81 305.76 415.81 473.24 419.88 475.59 419.88 308.11"/><polygon class="cls-31" points="478.6 343.73 474.54 341.38 474.54 508.87 478.6 511.21 478.6 343.73"/><polygon class="cls-43" points="475.86 342.17 471.79 339.82 471.79 507.3 475.86 509.64 475.86 342.17"/><rect class="cls-31" x="478.03" y="506.46" width="47.57" height="3.82"/><polygon class="cls-44" points="394.1 292.54 292.91 404.47 394.82 463.43 527.62 369.89 394.1 292.54"/><polygon class="cls-44" points="254.91 211.5 153.73 323.42 255.63 382.38 328.3 255.94 254.91 211.5"/><polygon class="cls-25" points="553.06 471.33 565.53 477.68 553.03 485.41 553.06 471.33"/><polygon class="cls-25" points="553.06 414.07 565.53 420.43 553.03 428.16 553.06 414.07"/><polygon class="cls-25" points="552.76 516.25 565.23 522.6 552.74 530.33 552.76 516.25"/><polygon class="cls-6" points="448.8 158.98 347.33 100.67 310.6 100.67 351.77 179.65 413.29 179.65 448.8 158.98"/><polygon class="cls-9" points="383.93 129.9 351.5 148.26 351.5 180.07 383.93 161.7 383.93 129.9"/><polygon class="cls-3" points="364.94 153.21 374.36 147.54 374.36 166.37 364.94 172.04 364.94 153.21"/><polygon class="cls-7" points="351.62 149.02 270.63 100.77 270.19 132.39 351.18 180.66 351.62 149.02"/><polygon class="cls-45" points="290.56 122.19 281.4 116.97 281.4 120.48 290.56 125.71 290.56 122.19"/><polygon class="cls-45" points="306.87 131.11 297.72 125.88 297.72 129.39 306.87 134.62 306.87 131.11"/><polygon class="cls-45" points="323.94 140.29 314.79 135.05 314.79 138.57 323.94 143.8 323.94 140.29"/><polygon class="cls-5" points="351.81 148.59 384.1 129.57 302.22 82.27 269.91 101.29 351.81 148.59"/><polygon class="cls-6" points="705.05 237.56 599.16 296.46 560.84 296.46 603.79 216.69 667.99 216.69 705.05 237.56"/><polygon class="cls-7" points="530.07 245.47 562.38 263.78 562.38 295.46 530.07 277.15 530.07 245.47"/><polygon class="cls-8" points="548.99 268.69 539.61 263.05 539.61 281.81 548.99 287.45 548.99 268.69"/><polygon class="cls-9" points="562.16 263.96 643.49 217 643.49 248.52 562.16 295.48 562.16 263.96"/><polygon class="cls-5" points="562.07 264.1 529.89 245.15 611.48 198.02 643.67 216.97 562.07 264.1"/><polygon class="cls-6" points="508.88 130.08 465.4 104.97 453.54 152.96 468.82 153.13 508.88 130.08"/><polygon class="cls-7" points="496.68 128.09 496.68 121.07 409.91 120.82 409.98 127.93 453.47 153.04 496.68 128.09"/><polygon class="cls-9" points="496.68 128.09 496.68 121.07 453.47 131.37 453.47 153.04 496.68 128.09"/><polygon class="cls-5" points="496.43 121.11 452.95 96 409.73 120.96 453.21 146.06 496.43 121.11"/><polygon class="cls-45" points="460.35 136.16 452.72 131.75 445.13 136.13 452.76 140.54 460.35 136.16"/><polygon class="cls-46" points="459.87 134.84 450.91 140.01 450.91 140.43 459.87 135.27 459.87 134.84"/><polygon class="cls-46" points="458.68 134.1 449.72 139.26 449.72 139.7 458.68 134.52 458.68 134.1"/><polygon class="cls-46" points="457.56 133.54 448.61 138.7 448.61 139.13 457.56 133.96 457.56 133.54"/><polygon class="cls-46" points="456.38 132.91 447.42 138.07 447.42 138.5 456.38 133.34 456.38 132.91"/><polygon class="cls-46" points="455.25 132.23 446.3 137.4 446.3 137.82 455.25 132.66 455.25 132.23"/><polygon class="cls-46" points="454.31 131.72 445.36 136.9 445.36 137.33 454.31 132.15 454.31 131.72"/><polygon class="cls-45" points="473.31 128.19 465.69 123.78 458.09 128.16 465.72 132.57 473.31 128.19"/><polygon class="cls-46" points="472.82 126.87 463.87 132.04 463.87 132.47 472.82 127.3 472.82 126.87"/><polygon class="cls-46" points="471.64 126.13 462.68 131.29 462.68 131.72 471.64 126.56 471.64 126.13"/><polygon class="cls-46" points="470.52 125.56 461.56 130.74 461.56 131.16 470.52 125.99 470.52 125.56"/><polygon class="cls-46" points="469.33 124.93 460.38 130.11 460.38 130.53 469.33 125.36 469.33 124.93"/><polygon class="cls-46" points="468.21 124.25 459.26 129.42 459.26 129.85 468.21 124.68 468.21 124.25"/><polygon class="cls-46" points="467.27 123.75 458.32 128.93 458.32 129.35 467.27 124.18 467.27 123.75"/><polygon class="cls-45" points="485.44 121.54 477.8 117.13 470.22 121.52 477.85 125.93 485.44 121.54"/><polygon class="cls-46" points="484.95 120.23 475.99 125.39 475.99 125.83 484.95 120.66 484.95 120.23"/><polygon class="cls-46" points="483.77 119.48 474.8 124.65 474.8 125.08 483.77 119.9 483.77 119.48"/><polygon class="cls-46" points="482.63 118.92 473.68 124.08 473.68 124.52 482.63 119.35 482.63 118.92"/><polygon class="cls-46" points="481.45 118.3 472.5 123.46 472.5 123.89 481.45 118.73 481.45 118.3"/><polygon class="cls-46" points="480.33 117.61 471.39 122.78 471.39 123.2 480.33 118.03 480.33 117.61"/><polygon class="cls-46" points="479.4 117.11 470.44 122.28 470.44 122.71 479.4 117.54 479.4 117.11"/><polygon class="cls-6" points="1126.82 690.95 1077.28 662.36 1063.77 717.03 1081.18 717.22 1126.82 690.95"/><polygon class="cls-7" points="1112.92 688.69 1112.92 680.7 1014.06 680.42 1014.15 688.51 1063.69 717.12 1112.92 688.69"/><polygon class="cls-9" points="1112.92 688.69 1112.92 680.7 1063.69 692.42 1063.69 717.12 1112.92 688.69"/><polygon class="cls-5" points="1112.63 680.74 1063.09 652.14 1013.87 680.56 1063.41 709.17 1112.63 680.74"/><polygon class="cls-45" points="1071.54 697.88 1062.84 692.86 1054.2 697.85 1062.89 702.88 1071.54 697.88"/><polygon class="cls-46" points="1070.98 696.39 1060.77 702.28 1060.77 702.76 1070.98 696.87 1070.98 696.39"/><polygon class="cls-46" points="1069.63 695.54 1059.43 701.42 1059.43 701.91 1069.63 696.02 1069.63 695.54"/><polygon class="cls-46" points="1068.35 694.89 1058.15 700.78 1058.15 701.27 1068.35 695.38 1068.35 694.89"/><polygon class="cls-46" points="1067 694.19 1056.8 700.08 1056.81 700.56 1067 694.67 1067 694.19"/><polygon class="cls-46" points="1065.72 693.4 1055.53 699.29 1055.53 699.78 1065.72 693.89 1065.72 693.4"/><polygon class="cls-46" points="1064.66 692.84 1054.46 698.73 1054.46 699.21 1064.66 693.32 1064.66 692.84"/><polygon class="cls-45" points="1086.3 688.8 1077.59 683.78 1068.96 688.77 1077.65 693.8 1086.3 688.8"/><polygon class="cls-46" points="1085.74 687.3 1075.53 693.19 1075.53 693.68 1085.74 687.78 1085.74 687.3"/><polygon class="cls-46" points="1084.39 686.45 1074.19 692.35 1074.19 692.83 1084.39 686.93 1084.39 686.45"/><polygon class="cls-46" points="1083.12 685.81 1072.91 691.7 1072.91 692.19 1083.12 686.3 1083.12 685.81"/><polygon class="cls-46" points="1081.76 685.1 1071.57 690.99 1071.57 691.48 1081.76 685.59 1081.76 685.1"/><polygon class="cls-46" points="1080.49 684.32 1070.28 690.22 1070.28 690.71 1080.49 684.81 1080.49 684.32"/><polygon class="cls-46" points="1079.42 683.75 1069.22 689.64 1069.22 690.12 1079.42 684.24 1079.42 683.75"/><polygon class="cls-45" points="1100.11 681.24 1091.42 676.22 1082.77 681.2 1091.46 686.23 1100.11 681.24"/><polygon class="cls-46" points="1099.55 679.73 1089.35 685.62 1089.35 686.11 1099.55 680.22 1099.55 679.73"/><polygon class="cls-46" points="1098.2 678.88 1088 684.77 1088 685.26 1098.2 679.37 1098.2 678.88"/><polygon class="cls-46" points="1096.92 678.24 1086.73 684.13 1086.73 684.62 1096.92 678.73 1096.92 678.24"/><polygon class="cls-46" points="1095.58 677.53 1085.38 683.42 1085.38 683.91 1095.58 678.02 1095.58 677.53"/><polygon class="cls-46" points="1094.3 676.76 1084.1 682.65 1084.1 683.13 1094.3 677.24 1094.3 676.76"/><polygon class="cls-46" points="1093.24 676.19 1083.03 682.08 1083.03 682.56 1093.24 676.66 1093.24 676.19"/><path class="cls-14" d="M754.7,952.1c6-3.45,6-9.09-.07-12.57s-15.79-3.5-21.79,0-6,9.11.07,12.58S748.69,955.58,754.7,952.1Z"/><path class="cls-15" d="M752.12,951.18c6-3.47,6-9.1-.06-12.58s-15.8-3.51-21.79,0-6,9.09.07,12.57S746.12,954.64,752.12,951.18Z"/><path class="cls-16" d="M752.12,949.6c6-3.47,6-9.1-.06-12.58s-15.8-3.5-21.79,0-6,9.1.07,12.58S746.12,953.06,752.12,949.6Z"/><path class="cls-14" d="M817.68,940l-5.64-6a9.88,9.88,0,0,0-6.56-2.52l-45.26-2.11a4.57,4.57,0,0,0-3.45,1.12L748,939.85a4.27,4.27,0,0,0-.7,1H740.1v1.6H747a3.34,3.34,0,0,0,.94,1.83l7.76,8.23a8.45,8.45,0,0,0,6.34,2l43.18-2a10.19,10.19,0,0,0,6.82-2.63l5.62-5.92A2.72,2.72,0,0,0,817.68,940Z"/><rect class="cls-18" x="739.71" y="915.88" width="2.59" height="26.33"/><rect class="cls-19" x="741.2" y="915.88" width="1.35" height="26.33"/><path class="cls-20" d="M758.71,877.44a8.59,8.59,0,0,0-4.27-6.78l-9.65-5.57a6.51,6.51,0,0,0-6.5,0l-9.69,5.6a8.23,8.23,0,0,0-4.11,6.53l-3.43,45a3.64,3.64,0,0,0,1.81,3.43L738,934.39a7.27,7.27,0,0,0,7.25,0l13.38-7.72a6.68,6.68,0,0,0,3.32-6.3Z"/><path class="cls-16" d="M758.89,878.57a8.48,8.48,0,0,0-4-6.66l-9.08-5.45a5.85,5.85,0,0,0-6.09,0l-9.11,5.5a8.11,8.11,0,0,0-3.85,6.41l-3.21,44.1a3.64,3.64,0,0,0,1.71,3.37l14.26,8.57a6.58,6.58,0,0,0,6.82,0l12.56-7.59a6.59,6.59,0,0,0,3.12-6.17Z"/><path class="cls-21" d="M745.28,934.39l13.38-7.72a6.67,6.67,0,0,0,3.32-6.3l-3.27-42.93a8.58,8.58,0,0,0-1.94-4.8l-9.13,4.08c-2.93,1.32-5.78,4-6,7.2-2.53,9.7-.6,43.58-.6,47.92C741,934.71,742.36,935.77,745.28,934.39Z"/><path class="cls-14" d="M81.44,568.65c5.2-3,5.18-7.9-.06-10.91s-13.71-3-18.92,0-5.19,7.91.06,10.93S76.23,571.66,81.44,568.65Z"/><path class="cls-15" d="M79.21,567.84c5.2-3,5.18-7.9-.07-10.92s-13.7-3-18.92,0-5.17,7.91.07,10.93S74,570.85,79.21,567.84Z"/><path class="cls-16" d="M79.21,566.47c5.2-3,5.18-7.9-.07-10.92s-13.7-3-18.92,0-5.17,7.9.07,10.93S74,569.48,79.21,566.47Z"/><path class="cls-14" d="M136.11,558.15,131.23,553a8.55,8.55,0,0,0-5.7-2.19L86.23,549a4,4,0,0,0-3,1L75.58,558a3.53,3.53,0,0,0-.61.89H68.76v1.39h6a2.81,2.81,0,0,0,.8,1.59L82.33,569a7.29,7.29,0,0,0,5.5,1.77L125.32,569a8.85,8.85,0,0,0,5.92-2.27l4.87-5.15A2.37,2.37,0,0,0,136.11,558.15Z"/><rect class="cls-18" x="68.42" y="537.19" width="2.25" height="22.86"/><rect class="cls-19" x="69.73" y="537.19" width="1.17" height="22.86"/><path class="cls-20" d="M84.93,503.83a7.46,7.46,0,0,0-3.72-5.89l-8.38-4.84a5.68,5.68,0,0,0-5.64,0L58.77,498a7.14,7.14,0,0,0-3.55,5.66l-3,39.06a3.18,3.18,0,0,0,1.58,3L67,553.26a6.28,6.28,0,0,0,6.3,0l11.61-6.7a5.83,5.83,0,0,0,2.89-5.47Z"/><path class="cls-16" d="M85.08,504.8A7.36,7.36,0,0,0,81.59,499l-7.88-4.73a5.13,5.13,0,0,0-5.29,0l-7.92,4.77a7.15,7.15,0,0,0-3.35,5.57l-2.76,38.29a3.13,3.13,0,0,0,1.48,2.92l12.37,7.44a5.66,5.66,0,0,0,5.91,0l10.92-6.58a5.74,5.74,0,0,0,2.7-5.36Z"/><path class="cls-21" d="M73.27,553.27l11.61-6.7a5.85,5.85,0,0,0,2.89-5.48l-2.84-37.26a7.43,7.43,0,0,0-1.69-4.17L75.3,503.2c-2.54,1.14-5,3.5-5.24,6.25-2.19,8.42-.52,37.84-.52,41.6C69.54,553.55,70.73,554.48,73.27,553.27Z"/><path class="cls-14" d="M560.15,841.67c5.2-3,5.18-7.89-.07-10.91s-13.71-3-18.91,0-5.18,7.89.05,10.92S554.93,844.69,560.15,841.67Z"/><path class="cls-15" d="M557.91,840.86c5.2-3,5.19-7.9,0-10.92s-13.71-3-18.92,0-5.18,7.89.06,10.91S552.7,843.87,557.91,840.86Z"/><path class="cls-16" d="M557.91,839.49c5.2-3,5.19-7.9,0-10.92s-13.71-3-18.92,0-5.18,7.9.06,10.93S552.7,842.49,557.91,839.49Z"/><path class="cls-14" d="M614.82,831.17,609.93,826a8.51,8.51,0,0,0-5.7-2.19L564.94,822a4,4,0,0,0-3,1L554.3,831a3.19,3.19,0,0,0-.62.89h-6.2v1.38h6a2.88,2.88,0,0,0,.82,1.59L561,842a7.39,7.39,0,0,0,5.5,1.78L604,842.06a8.84,8.84,0,0,0,5.92-2.27l4.87-5.15A2.37,2.37,0,0,0,614.82,831.17Z"/><rect class="cls-18" x="547.13" y="810.21" width="2.25" height="22.86"/><rect class="cls-19" x="548.43" y="810.21" width="1.17" height="22.86"/><path class="cls-20" d="M563.63,776.86a7.46,7.46,0,0,0-3.71-5.9l-8.38-4.84a5.63,5.63,0,0,0-5.64,0L537.49,771a7.13,7.13,0,0,0-3.57,5.66l-3,39.05a3.14,3.14,0,0,0,1.57,3l13.17,7.6a6.28,6.28,0,0,0,6.3,0l11.61-6.7a5.77,5.77,0,0,0,2.88-5.46Z"/><path class="cls-16" d="M563.78,777.82a7.32,7.32,0,0,0-3.49-5.78l-7.87-4.72a5.06,5.06,0,0,0-5.29,0l-7.93,4.76a7.08,7.08,0,0,0-3.33,5.56l-2.77,38.3a3.11,3.11,0,0,0,1.48,2.92L547,826.3a5.72,5.72,0,0,0,5.93,0l10.9-6.58a5.77,5.77,0,0,0,2.71-5.36Z"/><path class="cls-21" d="M552,826.28l11.61-6.7a5.77,5.77,0,0,0,2.88-5.46l-2.84-37.26a7.49,7.49,0,0,0-1.68-4.18L554,776.22c-2.54,1.14-5,3.5-5.26,6.25-2.17,8.42-.51,37.85-.51,41.61C548.25,826.56,549.44,827.49,552,826.28Z"/><path class="cls-14" d="M444.85,778c5.21-3,5.18-7.91-.06-10.93s-13.71-3-18.91,0-5.19,7.9.06,10.92S439.64,781,444.85,778Z"/><path class="cls-15" d="M442.61,777.22c5.21-3,5.19-7.9-.05-10.92s-13.72-3-18.92,0-5.18,7.9.06,10.92S437.41,780.22,442.61,777.22Z"/><path class="cls-16" d="M442.61,775.85c5.21-3,5.19-7.9-.05-10.92s-13.72-3-18.92,0-5.18,7.9.06,10.92S437.41,778.85,442.61,775.85Z"/><path class="cls-14" d="M499.54,767.54l-4.91-5.19a8.53,8.53,0,0,0-5.69-2.19l-39.29-1.82a4,4,0,0,0-3,1L439,767.39a3.29,3.29,0,0,0-.61.89h-6.21v1.38h6a2.88,2.88,0,0,0,.82,1.59l6.74,7.15a7.39,7.39,0,0,0,5.51,1.77l37.49-1.76a8.74,8.74,0,0,0,5.92-2.27l4.88-5.15A2.36,2.36,0,0,0,499.54,767.54Z"/><rect class="cls-18" x="431.84" y="746.57" width="2.25" height="22.85"/><rect class="cls-19" x="433.13" y="746.57" width="1.18" height="22.85"/><path class="cls-20" d="M448.33,713.2a7.48,7.48,0,0,0-3.7-5.89l-8.38-4.84a5.63,5.63,0,0,0-5.64,0l-8.41,4.87a7.13,7.13,0,0,0-3.57,5.67l-3,39a3.21,3.21,0,0,0,1.57,3l13.17,7.6a6.33,6.33,0,0,0,6.3,0l11.62-6.71a5.78,5.78,0,0,0,2.87-5.46Z"/><path class="cls-16" d="M448.49,714.18a7.32,7.32,0,0,0-3.49-5.77l-7.87-4.74a5.1,5.1,0,0,0-5.3,0l-7.92,4.78a7,7,0,0,0-3.33,5.55l-2.78,38.3a3.12,3.12,0,0,0,1.48,2.92l12.38,7.44a5.7,5.7,0,0,0,5.92,0l10.91-6.59a5.74,5.74,0,0,0,2.7-5.35Z"/><path class="cls-21" d="M436.68,762.65l11.62-6.71a5.78,5.78,0,0,0,2.87-5.46l-2.84-37.28a7.47,7.47,0,0,0-1.67-4.16l-7.94,3.54c-2.54,1.14-5,3.5-5.24,6.24-2.19,8.43-.52,37.85-.52,41.62C433,762.91,434.14,763.85,436.68,762.65Z"/><path class="cls-14" d="M338.78,717.16c5.21-3,5.18-7.9-.07-10.92s-13.7-3-18.91,0-5.18,7.89.06,10.91S333.57,720.16,338.78,717.16Z"/><path class="cls-15" d="M336.54,716.34c5.21-3,5.18-7.89-.05-10.92s-13.71-3-18.92,0-5.18,7.89.06,10.92S331.34,719.36,336.54,716.34Z"/><path class="cls-16" d="M336.54,715c5.21-3,5.18-7.9-.05-10.92s-13.71-3-18.92,0-5.18,7.9.06,10.92S331.34,718,336.54,715Z"/><path class="cls-14" d="M393.46,706.66l-4.9-5.18a8.56,8.56,0,0,0-5.69-2.2l-39.31-1.82a4,4,0,0,0-3,1l-7.65,8.08a3.33,3.33,0,0,0-.61.9h-6.21v1.37h6a3,3,0,0,0,.81,1.61l6.75,7.13a7.29,7.29,0,0,0,5.49,1.77l37.49-1.75a8.87,8.87,0,0,0,5.93-2.27l4.87-5.15A2.35,2.35,0,0,0,393.46,706.66Z"/><rect class="cls-18" x="325.76" y="685.69" width="2.25" height="22.87"/><rect class="cls-19" x="327.06" y="685.69" width="1.17" height="22.87"/><path class="cls-20" d="M342.26,652.33a7.44,7.44,0,0,0-3.71-5.89l-8.38-4.84a5.61,5.61,0,0,0-5.63,0l-8.42,4.86a7.17,7.17,0,0,0-3.57,5.67l-3,39a3.17,3.17,0,0,0,1.56,3l13.16,7.6a6.35,6.35,0,0,0,6.31,0l11.61-6.71a5.8,5.8,0,0,0,2.89-5.46Z"/><path class="cls-16" d="M342.42,653.3a7.37,7.37,0,0,0-3.48-5.77l-7.89-4.74a5.12,5.12,0,0,0-5.3,0l-7.9,4.77a7,7,0,0,0-3.35,5.55l-2.77,38.3a3.13,3.13,0,0,0,1.47,2.92l12.38,7.45a5.72,5.72,0,0,0,5.92,0l10.92-6.59a5.73,5.73,0,0,0,2.69-5.35Z"/><path class="cls-21" d="M330.61,701.77l11.61-6.7a5.83,5.83,0,0,0,2.89-5.47l-2.85-37.27a7.54,7.54,0,0,0-1.68-4.17l-7.93,3.55c-2.55,1.13-5,3.49-5.25,6.24-2.18,8.43-.51,37.85-.51,41.61C326.89,702,328.07,703,330.61,701.77Z"/></g></g></g></svg>