<svg xmlns="http://www.w3.org/2000/svg" xmlns:xlink="http://www.w3.org/1999/xlink" viewBox="0 0 882.78 678.66"><defs><style>.cls-1{fill:#946f6e;}.cls-2{isolation:isolate;}.cls-3{fill:#d8cfbe;}.cls-4{fill:#301404;}.cls-38,.cls-4{opacity:0.3;}.cls-19,.cls-38,.cls-4{mix-blend-mode:multiply;}.cls-5{fill:#81736e;}.cls-6{fill:#9e938e;}.cls-7{fill:#5c514c;}.cls-8{fill:#ac936b;}.cls-9{fill:#c0a27b;}.cls-10{fill:#7a6f6a;}.cls-11{fill:#dac195;}.cls-12{fill:#ccb58a;}.cls-13{fill:#bda37c;}.cls-14{fill:#c1a880;}.cls-15{fill:#e8daba;}.cls-16{fill:#f9edd6;}.cls-17{fill:#cfbe9d;}.cls-18{fill:#bca887;}.cls-19,.cls-38{fill:#591805;}.cls-19{opacity:0.4;}.cls-20{fill:#b19a73;}.cls-21{fill:#dfc69b;}.cls-22{fill:#ceb183;}.cls-23{fill:#b8aaa7;}.cls-24{fill:#91807b;}.cls-25{fill:#85726c;}.cls-26{fill:#9d8e87;}.cls-27{fill:#dfcdae;}.cls-28{fill:#ebdcc3;}.cls-29{fill:#b9ab96;}.cls-30{fill:#dacaaf;}.cls-31{fill:#d9bb93;}.cls-32{fill:#b49470;}.cls-33{fill:#f6f1d3;}.cls-34{fill:#906868;}.cls-35{fill:#f4d8b7;}.cls-36{fill:#704b4b;}.cls-37{clip-path:url(#clip-path);}.cls-39{clip-path:url(#clip-path-2);}.cls-40{fill:#bca78a;}.cls-41{fill:#d3bea1;}.cls-42{fill:#7d6e59;}.cls-43{fill:#668696;}.cls-44{fill:#d77461;}.cls-45{fill:#ccb269;}.cls-46{fill:#80af9a;}</style><clipPath id="clip-path"><path class="cls-1" d="M271.21,307.38c3.79-2.18,3.77-5.72,0-7.92a15.15,15.15,0,0,0-13.72-.06c-3.78,2.17-3.77,5.72,0,7.92A15.16,15.16,0,0,0,271.21,307.38Z"/></clipPath><clipPath id="clip-path-2"><path class="cls-1" d="M250.44,319.34c3.79-2.17,3.78-5.72,0-7.92a15.18,15.18,0,0,0-13.72-.06c-3.78,2.17-3.77,5.72,0,7.93A15.18,15.18,0,0,0,250.44,319.34Z"/></clipPath></defs><title>Recurso113</title><g class="cls-2"><g id="Capa_2" data-name="Capa 2"><g id="ELEMENTOS_INDIVIDUALES" data-name="ELEMENTOS INDIVIDUALES"><polygon class="cls-3" points="550.52 543.61 233.89 360.81 0 495.85 316.62 678.66 550.52 543.61"/><polygon class="cls-4" points="758.19 637.37 882.78 565.44 699.72 388.93 286.81 390.93 286.81 637.37 758.19 637.37"/><polygon class="cls-5" points="468.67 532.44 469 456.37 55.49 441.87 58.72 509 282.88 639.71 468.67 532.44"/><polygon class="cls-6" points="61.13 500.68 58.31 509.94 282.88 639.71 282.11 626.6 61.13 500.68"/><polygon class="cls-7" points="281.74 576.62 452.64 477.96 452.64 527.86 281.74 626.52 281.74 576.62"/><polygon class="cls-8" points="336.52 467.94 318.3 478.46 318.3 606.81 320.91 607.21 336.52 467.94"/><polygon class="cls-9" points="339.08 468.51 320.86 479.03 320.86 607.38 339.08 596.85 339.08 468.51"/><polygon class="cls-8" points="452.92 399.47 434.69 409.99 434.69 538.34 437.31 538.94 452.92 399.47"/><polygon class="cls-9" points="455.48 400.04 437.25 410.56 437.25 538.91 455.48 528.39 455.48 400.04"/><polygon class="cls-7" points="281.9 562.84 61.05 435.33 61.05 499.82 281.9 627.33 281.9 562.84"/><polygon class="cls-10" points="295.14 619.49 88.25 499.82 61.05 499.82 281.9 627.33 295.14 619.49"/><polygon class="cls-7" points="266.59 598.22 249.58 598.22 255.84 601.5 272.85 601.5 266.59 598.22"/><polygon class="cls-7" points="247.11 587.22 225.92 587.22 233.71 591.31 254.9 591.31 247.11 587.22"/><polygon class="cls-7" points="255.89 594.24 248.97 594.24 251.51 595.56 258.44 595.56 255.89 594.24"/><rect class="cls-7" x="191.43" y="564.92" width="29.2" height="10.47"/><polygon class="cls-7" points="174.34 539.54 148.03 539.54 148.03 550.01 177.74 550.01 174.34 539.54"/><polygon class="cls-7" points="191.87 559.28 165.55 559.28 165.55 560.09 195.25 560.09 191.87 559.28"/><polygon class="cls-11" points="282.3 570.51 280.38 569.4 280.38 626.84 282.3 627.94 282.3 570.51"/><polygon class="cls-8" points="281.99 570.71 283.91 569.61 283.91 627.04 281.99 628.14 281.99 570.71"/><rect class="cls-11" x="165.25" y="490.14" width="0.57" height="69.98"/><polygon class="cls-12" points="148.38 460.71 140.01 455.87 140.01 545.21 148.38 550.04 148.38 460.71"/><polygon class="cls-12" points="191.91 486.02 183.54 481.19 184.78 571.37 191.91 575.37 191.91 486.02"/><polygon class="cls-11" points="146.37 459.69 138 454.86 138 544.21 146.37 549.03 146.37 459.69"/><polygon class="cls-13" points="146.37 435 138 430.16 138 519.5 146.37 524.33 146.37 435"/><polygon class="cls-11" points="189.9 485.01 181.52 480.18 181.52 569.52 189.9 574.35 189.9 485.01"/><polygon class="cls-13" points="189.9 459.24 181.52 454.41 181.52 543.74 189.9 548.58 189.9 459.24"/><polygon class="cls-12" points="490.48 257.39 269.68 384.86 269.76 589.19 490.48 459.91 490.48 257.39"/><rect class="cls-14" x="317.29" y="358.91" width="1.61" height="198.16"/><rect class="cls-14" x="456.37" y="278.89" width="1.61" height="198.15"/><rect class="cls-14" x="410.01" y="304.67" width="1.62" height="198.16"/><rect class="cls-14" x="363.65" y="328.83" width="1.61" height="198.16"/><polygon class="cls-12" points="278.35 380.19 14.34 227.77 14.34 431.7 278.76 582.6 278.35 380.19"/><polygon class="cls-15" points="269.81 385.32 5.8 232.89 5.8 436.82 269.81 589.25 269.81 385.32"/><polygon class="cls-12" points="228.63 373.79 226.59 373.44 226.59 562.33 228.63 562.68 228.63 373.79"/><polygon class="cls-12" points="53.03 266.65 50.99 266.3 50.99 455.19 53.03 455.54 53.03 266.65"/><polygon class="cls-12" points="111.56 301.51 109.52 301.15 109.52 490.05 111.56 490.4 111.56 301.51"/><polygon class="cls-12" points="170.09 334.84 168.06 334.49 168.06 523.37 170.09 523.73 170.09 334.84"/><polygon class="cls-16" points="490.75 258.49 226.21 106.96 6.22 233.97 270.77 385.5 490.75 258.49"/><polygon class="cls-15" points="464 259.25 229.14 124.71 33.83 237.48 268.7 372.01 464 259.25"/><polygon class="cls-17" points="229.14 134.92 455.13 264.37 464 259.25 229.14 124.71 33.83 237.48 42.7 242.56 229.14 134.92"/><polygon class="cls-18" points="229.14 134.92 229.14 124.71 33.83 237.48 42.7 242.56 229.14 134.92"/><path class="cls-19" d="M284.57,208l-.85,6.52,161.22,36.68a15.2,15.2,0,0,0,4,6.21L236.59,268.37l5.92,10.12,191.75-16.43-101.59,11.7-4.39,5.15,128.05-16.57c.38.17.78.35,1.19.51a50.65,50.65,0,0,0,20.12,3.21l13.11-7.57L450,235.14c-3.66,3.81-5.54,7.88-5.67,11.78Z"/><path class="cls-19" d="M235.9,221.54c21.42-12.36,21.31-32.48-.25-44.92s-56.4-12.51-77.82-.14-21.31,32.48.24,44.92S214.47,233.91,235.9,221.54Z"/><polygon class="cls-7" points="161.73 358.43 29.1 281.84 29.1 292.98 161.73 369.56 161.73 358.43"/><polygon class="cls-7" points="259.99 415.44 172.47 364.91 172.47 376.04 259.99 426.57 259.99 415.44"/><polygon class="cls-10" points="161.62 358.31 33.82 284.75 33.82 293.54 161.62 367.1 161.62 358.31"/><polygon class="cls-10" points="260.03 415.59 177.77 368.1 177.77 376.9 260.03 424.39 260.03 415.59"/><polygon class="cls-7" points="319.27 401.37 383.24 364.42 383.24 372.56 319.27 409.51 319.27 401.37"/><polygon class="cls-7" points="397.79 356.99 461.76 320.05 461.76 328.19 397.79 365.13 397.79 356.99"/><polygon class="cls-20" points="323.6 421.74 304.86 446.71 312.05 453.01 334.2 440.26 334.2 428.31 323.6 421.74"/><polygon class="cls-21" points="323.56 422.01 305.11 432.63 305.1 447.31 312.46 450.66 330.81 425.4 323.56 422.01"/><polygon class="cls-22" points="331.58 425.06 312.07 436.29 312.05 450.97 331.57 439.74 331.58 425.06"/><polygon class="cls-23" points="288.84 35.66 285.89 33.88 234.53 275.31 242.58 278.56 288.84 35.66"/><polygon class="cls-24" points="288.84 35.66 285.89 33.88 239.15 277.55 242.58 278.56 288.84 35.66"/><polygon class="cls-24" points="258.43 186.03 257.42 187.3 286.68 209.13 287.68 207.87 258.43 186.03"/><polygon class="cls-24" points="256.93 185.75 258 186.96 289.19 147.31 288.11 146.11 256.93 185.75"/><polygon class="cls-25" points="309.85 143.8 311.41 143.37 289.38 97.99 287.83 98.43 309.85 143.8"/><polygon class="cls-25" points="327.03 232.15 328.6 231.72 292.6 165.92 291.06 166.35 327.03 232.15"/><polygon class="cls-25" points="290.96 168.25 292.27 169.19 310.44 138.51 309.13 137.58 290.96 168.25"/><polygon class="cls-24" points="285.68 151.63 286.26 150.14 270.65 113.76 270.07 115.25 285.68 151.63"/><polygon class="cls-24" points="271.39 119.53 272.9 119.1 288.13 85.3 286.79 85.72 271.39 119.53"/><polygon class="cls-24" points="287.37 31.23 290.64 33.21 290.7 213.31 283.45 214.72 287.37 31.23"/><polygon class="cls-25" points="287.37 31.23 290.64 33.21 294.13 210.7 289.9 213.52 287.37 31.23"/><polygon class="cls-26" points="286.89 31.92 289.38 30.84 339.59 274.51 328.76 278.56 286.89 31.92"/><polygon class="cls-23" points="286.89 31.92 289.38 30.84 334.47 277.01 328.76 278.56 286.89 31.92"/><rect class="cls-26" x="283.99" y="28.91" width="8.32" height="7.79"/><rect class="cls-26" x="286.41" y="0.72" width="2.96" height="32.49"/><rect class="cls-23" x="232.9" y="214.88" width="93.8" height="1.1" transform="translate(-73.33 215.43) rotate(-37.59)"/><rect class="cls-23" x="287.7" y="143.63" width="1.09" height="61.01" transform="translate(3.74 354.32) rotate(-63.48)"/><polygon class="cls-23" points="300.84 105.66 259.76 157.98 260.61 158.67 301.69 106.34 300.84 105.66"/><polygon class="cls-23" points="302.87 106.4 277.01 80.46 276.24 81.24 302.1 107.18 302.87 106.4"/><polygon class="cls-25" points="287.9 39.74 275.99 36.36 272.9 47.6 284.81 50.97 287.9 39.74"/><path class="cls-27" d="M263.8,66.89c13.66-10.22,23.06-32.35,21-49.4S270-5.1,256.36,5.14s-23.05,32.36-21,49.41S250.15,77.14,263.8,66.89Z"/><path class="cls-16" d="M262.54,64.16c12.93-9.68,21.83-30.62,19.89-46.76S268.42-4,255.49,5.71s-21.83,30.64-19.88,46.78S249.62,73.86,262.54,64.16Z"/><path class="cls-28" d="M267.66,11a24.86,24.86,0,0,0-3.05-9.71,24.5,24.5,0,0,0-9.12,4.47,43,43,0,0,0-8.38,8.53c9.56,1.65,16.75,8.61,16.75,17,0,9.56-9.44,17.31-21.08,17.31a25,25,0,0,1-7.43-1.11,40.44,40.44,0,0,0,.26,5.09,24.92,24.92,0,0,0,3,9.7,24.16,24.16,0,0,0,9.13-4.47C260.7,48,269.6,27.09,267.66,11Z"/><path class="cls-29" d="M264,37.24c.78-2.16.72-4.15-.13-4.45S261.76,34,261,36.16s-.73,4.15.12,4.45S263.26,39.4,264,37.24Z"/><path class="cls-27" d="M292.56,75.76c-2.35,9.22,1.3,22.11,8.16,28.79S315,109.18,317.39,100s-1.3-22.11-8.16-28.8S294.92,66.54,292.56,75.76Z"/><path class="cls-28" d="M294.06,76.5c-2.22,8.73,1.24,20.93,7.73,27.26s13.55,4.37,15.78-4.35-1.24-20.93-7.73-27.26S296.28,67.78,294.06,76.5Z"/><path class="cls-30" d="M303.32,83.69a14.88,14.88,0,0,1,6.24-11.79A13.43,13.43,0,0,0,305.13,69a13.52,13.52,0,0,0-2.4,5.13c-2.23,8.72,1.23,20.93,7.72,27.24a13.71,13.71,0,0,0,4.72,3.16,13.74,13.74,0,0,0,2.4-5.13c0-.11,0-.23.07-.34C309.42,97.38,303.32,91.14,303.32,83.69Z"/><path class="cls-29" d="M301.22,89.25c.42,1.21,1.13,2,1.6,1.89s.52-1.28.1-2.49-1.14-2.05-1.61-1.89S300.8,88,301.22,89.25Z"/><polygon class="cls-19" points="331.46 324.32 277.51 293.16 262.8 352.71 281.76 352.92 331.46 324.32"/><polygon class="cls-31" points="316.32 321.84 316.32 313.15 208.75 313.55 208.75 321.65 262.71 352.8 316.32 321.84"/><polygon class="cls-32" points="316.32 321.84 316.32 313.15 262.71 330.39 262.71 352.8 316.32 321.84"/><polygon class="cls-33" points="316 313.19 262.06 282.04 208.44 312.99 262.4 344.14 316 313.19"/><polygon class="cls-34" points="271.25 331.87 261.78 326.39 252.37 331.83 261.84 337.3 271.25 331.87"/><polygon class="cls-35" points="270.64 330.22 259.53 336.64 259.53 337.18 270.64 330.75 270.64 330.22"/><polygon class="cls-35" points="269.17 329.3 258.06 335.71 258.06 336.24 269.17 329.82 269.17 329.3"/><polygon class="cls-35" points="267.79 328.61 256.67 335.02 256.67 335.54 267.79 329.13 267.79 328.61"/><polygon class="cls-35" points="266.31 327.83 255.21 334.25 255.21 334.77 266.31 328.37 266.31 327.83"/><polygon class="cls-35" points="264.92 326.98 253.82 333.4 253.82 333.93 264.92 327.51 264.92 326.98"/><polygon class="cls-35" points="263.76 326.36 252.66 332.78 252.66 333.3 263.76 326.89 263.76 326.36"/><polygon class="cls-34" points="287.73 322.13 278.26 316.65 268.85 322.09 278.31 327.56 287.73 322.13"/><polygon class="cls-35" points="287.12 320.49 276.01 326.9 276.01 327.43 287.12 321.02 287.12 320.49"/><polygon class="cls-35" points="285.65 319.56 274.54 325.98 274.54 326.51 285.65 320.09 285.65 319.56"/><polygon class="cls-35" points="284.26 318.87 273.15 325.28 273.15 325.81 284.26 319.39 284.26 318.87"/><polygon class="cls-35" points="282.79 318.09 271.68 324.51 271.68 325.04 282.79 318.63 282.79 318.09"/><polygon class="cls-35" points="281.4 317.25 270.29 323.65 270.29 324.19 281.4 317.77 281.4 317.25"/><polygon class="cls-35" points="280.24 316.63 269.13 323.04 269.13 323.58 280.24 317.16 280.24 316.63"/><polygon class="cls-34" points="303.65 312.57 294.18 307.1 284.77 312.54 294.23 318.01 303.65 312.57"/><polygon class="cls-35" points="303.04 310.94 291.93 317.36 291.93 317.88 303.04 311.47 303.04 310.94"/><polygon class="cls-35" points="301.57 310.01 290.46 316.43 290.46 316.95 301.57 310.54 301.57 310.01"/><polygon class="cls-35" points="300.18 309.32 289.07 315.73 289.07 316.26 300.18 309.84 300.18 309.32"/><polygon class="cls-35" points="298.7 308.54 287.6 314.96 287.6 315.49 298.7 309.08 298.7 308.54"/><polygon class="cls-35" points="297.31 307.69 286.21 314.11 286.21 314.64 297.31 308.23 297.31 307.69"/><polygon class="cls-35" points="296.16 307.07 285.05 313.49 285.05 314.02 296.16 307.61 296.16 307.07"/><path class="cls-34" d="M271.79,307.71c4.09-2.35,4.08-6.19,0-8.58a16.45,16.45,0,0,0-14.86-.07c-4.1,2.36-4.09,6.2,0,8.59A16.47,16.47,0,0,0,271.79,307.71Z"/><path class="cls-36" d="M271.21,307.38c3.79-2.18,3.77-5.72,0-7.92a15.15,15.15,0,0,0-13.72-.06c-3.78,2.17-3.77,5.72,0,7.92A15.16,15.16,0,0,0,271.21,307.38Z"/><path class="cls-1" d="M271.21,307.38c3.79-2.18,3.77-5.72,0-7.92a15.15,15.15,0,0,0-13.72-.06c-3.78,2.17-3.77,5.72,0,7.92A15.16,15.16,0,0,0,271.21,307.38Z"/><g class="cls-37"><path class="cls-35" d="M264.14,304.92a.88.88,0,0,0,0,1.67,3.19,3.19,0,0,0,2.9,0c.81-.46.81-1.2,0-1.67A3.16,3.16,0,0,0,264.14,304.92Z"/><path class="cls-35" d="M266.44,305.06s5.13-4.24,6.74-2.75S268.71,305.07,266.44,305.06Z"/><path class="cls-35" d="M266.1,306.22s6.27,3.75,3.45,4.36S265.65,307.5,266.1,306.22Z"/><path class="cls-35" d="M265.07,305.71s-9-.12-7.76-1.72S263.81,304.61,265.07,305.71Z"/></g><path class="cls-38" d="M262.78,303.21a14.4,14.4,0,0,1,10.7-.89,5.7,5.7,0,0,0-2.34-2.31,14.28,14.28,0,0,0-12.92-.06c-3.57,2.05-3.56,5.39,0,7.47a11.8,11.8,0,0,0,2.23,1C259.58,306.59,260.35,304.6,262.78,303.21Z"/><path class="cls-34" d="M251,319.68c4.1-2.36,4.08-6.2,0-8.59a16.42,16.42,0,0,0-14.86-.06c-4.1,2.35-4.09,6.19,0,8.58A16.41,16.41,0,0,0,251,319.68Z"/><path class="cls-1" d="M250.44,319.34c3.79-2.17,3.78-5.72,0-7.92a15.18,15.18,0,0,0-13.72-.06c-3.78,2.17-3.77,5.72,0,7.93A15.18,15.18,0,0,0,250.44,319.34Z"/><g class="cls-39"><path class="cls-35" d="M243.36,316.87a.89.89,0,0,0,0,1.69,3.21,3.21,0,0,0,2.91,0,.89.89,0,0,0,0-1.68A3.26,3.26,0,0,0,243.36,316.87Z"/><path class="cls-35" d="M245.67,317s5.14-4.23,6.75-2.74S247.94,317,245.67,317Z"/><path class="cls-35" d="M245.33,318.18s6.27,3.75,3.46,4.37S244.89,319.46,245.33,318.18Z"/><path class="cls-35" d="M244.3,317.67s-9-.12-7.77-1.71S243,316.58,244.3,317.67Z"/></g><path class="cls-38" d="M242,315.17a14.5,14.5,0,0,1,10.7-.89,5.79,5.79,0,0,0-2.33-2.31,14.33,14.33,0,0,0-12.93-.06c-3.57,2.06-3.56,5.39,0,7.48a10.82,10.82,0,0,0,2.22.94C238.81,318.56,239.59,316.56,242,315.17Z"/><polygon class="cls-40" points="241.4 199.47 199.77 175.43 172.74 191.04 214.36 215.07 241.4 199.47"/><path class="cls-41" d="M214.93,195.82c6.08-5.47,7.53-14.12,3.24-19.29s-12.69-4.94-18.77.54-7.53,14.1-3.25,19.28S208.85,201.3,214.93,195.82Z"/><path class="cls-42" d="M211.55,191.66c3.11-2.81,3.86-7.25,1.66-9.9s-6.5-2.54-9.63.27-3.86,7.24-1.66,9.9S208.43,194.46,211.55,191.66Z"/><path class="cls-40" d="M210.9,190.9c2.44-2.2,3-5.66,1.33-7.76s-5.06-2-7.51.21-3,5.67-1.33,7.76S208.46,193.1,210.9,190.9Z"/><path class="cls-27" d="M171,205.22c25.87-8.73,51.21-37.66,56.6-64.6s-11.2-41.71-37.06-33-51.2,37.67-56.6,64.61S145.11,214,171,205.22Z"/><path class="cls-16" d="M170.43,200.45c24.49-8.27,48.46-35.66,53.56-61.16s-10.62-39.47-35.11-31.2-48.46,35.66-53.55,61.16S146,208.72,170.43,200.45Z"/><path class="cls-29" d="M185.53,159.71c1.47-1.91,2-3.93,1.29-4.51s-2.56.48-4,2.4-2.05,3.93-1.29,4.52S184.07,161.62,185.53,159.71Z"/><polygon class="cls-28" points="185.18 156.72 128.79 113.22 184.09 158.69 185.18 156.72"/><path class="cls-28" d="M151.75,175.25A44.55,44.55,0,0,1,134.86,172a38,38,0,0,0,.25,13.55,39.16,39.16,0,0,0,16.09-2.24c9.23-3.12,18.38-9,26.49-16.38A43.44,43.44,0,0,1,151.75,175.25Z"/><path class="cls-28" d="M205,105.85a38.85,38.85,0,0,0-16.1,2.24,65,65,0,0,0-12,5.6c9,6.35,14.79,16.05,14.79,26.92a31.08,31.08,0,0,1-5.44,17.47c9.22-10.84,16.12-23.61,18.58-36A39.86,39.86,0,0,0,205,105.85Z"/><path class="cls-42" d="M216.2,211c0-.5-.73-.9-1.62-.9s-1.6.4-1.6.9.71.91,1.6.91S216.2,211.5,216.2,211Z"/><path class="cls-42" d="M235.93,199.82c0-.5-.72-.91-1.61-.91s-1.61.41-1.61.91.72.91,1.61.91S235.93,200.32,235.93,199.82Z"/><polygon class="cls-43" points="125.21 384.22 5.92 315.35 4.68 362.53 123.97 431.41 125.21 384.22"/><polygon class="cls-44" points="211.63 562.55 203.06 557.62 203.06 575.03 211.62 579.96 211.63 562.55"/><polygon class="cls-45" points="219.65 570.14 215.97 568.02 215.97 575.5 219.65 577.62 219.65 570.14"/><polygon class="cls-46" points="231.35 576.88 225.45 573.5 225.44 585.48 231.34 588.88 231.35 576.88"/></g></g></g></svg>