<svg xmlns="http://www.w3.org/2000/svg" viewBox="0 0 1606.91 1036.42"><defs><style>.cls-1{isolation:isolate;}.cls-2,.cls-8{fill:#301404;mix-blend-mode:multiply;}.cls-2{opacity:0.3;}.cls-3{fill:#637e86;}.cls-4{fill:#4a4036;}.cls-5{fill:#ab9e9c;}.cls-6{fill:#918b8a;}.cls-7{fill:#635649;}.cls-23,.cls-8{opacity:0.4;}.cls-9{fill:#5c5245;}.cls-10{fill:#6f6152;}.cls-11{fill:#62584d;}.cls-12,.cls-19{fill:#a3c1cb;}.cls-12{opacity:0.5;}.cls-13{fill:#8ea9b4;}.cls-14{fill:#7e7062;}.cls-15{fill:#739096;}.cls-16{fill:#809ea2;}.cls-17{fill:#bfb49c;}.cls-18{fill:#918173;}.cls-20,.cls-21,.cls-23{fill:#adc8d0;}.cls-21{opacity:0.2;}.cls-21,.cls-23,.cls-24{mix-blend-mode:overlay;}.cls-22{fill:#78949d;}.cls-24{fill:#a8cfd1;}.cls-25{fill:#d4e0e3;}.cls-26{fill:#99a5a7;}.cls-27{fill:#c0cbcc;}.cls-28{fill:#524b45;}.cls-29{fill:#dfd4c0;}.cls-30{fill:#939743;}.cls-31{fill:#644f32;}.cls-32{fill:#4f3d27;}.cls-33{fill:#acac4b;}.cls-34{fill:#82823d;}.cls-35{fill:#9c9a7b;}</style></defs><title>Recurso 55</title><g class="cls-1"><g id="Capa_2" data-name="Capa 2"><g id="ELEMENTOS_INDIVIDUALES" data-name="ELEMENTOS INDIVIDUALES"><polygon class="cls-2" points="901.07 935.24 1435.85 935.24 1606.91 836.47 1078.86 531.61 901.07 531.61 901.07 935.24"/><rect class="cls-3" x="1006.53" y="304.22" width="26.66" height="47.33"/><rect class="cls-3" x="749.49" y="143.06" width="26.66" height="47.33"/><rect class="cls-3" x="678.02" y="101.45" width="26.66" height="47.33"/><rect class="cls-4" x="586.23" y="43.11" width="26.65" height="47.33"/><polygon class="cls-5" points="625.3 776.02 502.61 705.17 358.69 788.09 481.38 858.94 625.3 776.02"/><polygon class="cls-6" points="620.13 772.41 510.62 709.32 366.7 792.24 476.21 855.32 620.13 772.41"/><polygon class="cls-7" points="1240.53 417.24 903.51 611.84 904.18 939.04 1240.53 742.82 1240.53 417.24"/><rect class="cls-8" x="673.4" y="755.46" width="66.1" height="49.77"/><rect class="cls-8" x="595.47" y="724.67" width="52.34" height="39.42"/><rect class="cls-8" x="414.73" y="606.13" width="66.1" height="49.77"/><rect class="cls-8" x="249.91" y="509.85" width="66.09" height="49.78"/><rect class="cls-8" x="339.66" y="563.7" width="66.1" height="49.78"/><rect class="cls-8" x="747.65" y="798.7" width="66.1" height="49.77"/><rect class="cls-8" x="804.77" y="832.16" width="66.09" height="49.78"/><polygon class="cls-9" points="833.85 593.28 236.31 247.64 236.31 533.01 833.85 878.64 833.85 593.28"/><polygon class="cls-10" points="297.09 283.02 282.27 274.44 282.27 559.82 297.09 568.38 297.09 283.02"/><polygon class="cls-11" points="1215.22 429.88 565.59 52.59 234 246.69 884.75 621.9 1215.22 429.88"/><polygon class="cls-3" points="1033.18 288.11 681.58 491.29 681.48 514.05 1033.18 311.97 1033.18 288.11"/><polygon class="cls-3" points="776.21 136.94 425.36 340.07 425.25 362.83 775.88 160.81 776.21 136.94"/><polygon class="cls-3" points="704.68 93.15 349.75 298.71 349.64 321.49 704.68 117.02 704.68 93.15"/><polygon class="cls-4" points="613.01 26.25 250.2 236.16 250.09 274.16 613.01 65.33 613.01 26.25"/><polygon class="cls-3" points="555.5 72.81 315.17 210.06 315.17 226 555.5 89.21 555.5 72.81"/><polygon class="cls-12" points="542.57 83.09 316.81 210.38 316.81 218 543.13 89.63 542.57 83.09"/><polygon class="cls-3" points="1103.28 334.01 756.65 534.81 756.54 557.58 1103.28 356.44 1103.28 334.01"/><polygon class="cls-3" points="1160.88 368.07 814.85 569.09 814.74 591.85 1160.55 391.94 1160.88 368.07"/><polygon class="cls-3" points="689.23 485.49 681.3 490.81 672.26 804.53 689.23 794.73 689.23 485.49"/><polygon class="cls-3" points="433.01 336.17 425.07 341.48 416.05 655.2 433.01 645.42 433.01 336.17"/><polygon class="cls-3" points="356.3 294.01 348.37 299.31 339.35 613.04 356.3 603.25 356.3 294.01"/><polygon class="cls-4" points="265.73 226.97 249.37 235.68 248.77 560.41 265.73 550.62 265.73 226.97"/><polygon class="cls-3" points="764.3 529.55 755.55 534.6 747.34 848.59 764.29 838.79 764.3 529.55"/><polygon class="cls-3" points="821.96 562.33 814.03 567.65 805 881.36 821.96 871.57 821.96 562.33"/><polygon class="cls-13" points="447.61 355.03 438.67 669.38 672.9 804.62 681.84 490.26 447.61 355.03"/><polygon class="cls-13" points="756.36 534.32 711.76 508.58 703.05 822.78 747.65 848.53 756.36 534.32"/><polygon class="cls-13" points="814.83 567.42 770.23 541.67 760.71 855.83 805.32 881.58 814.83 567.42"/><polygon class="cls-14" points="904.6 613.25 830.35 570.78 830.35 896.86 904.6 939.33 904.6 613.25"/><polygon class="cls-14" points="249.09 234.64 208.57 213.1 174.84 518.24 249.09 560.72 249.09 234.64"/><polygon class="cls-13" points="425.61 339.57 381.29 314.83 348.92 617.29 415.82 656.23 425.61 339.57"/><polygon class="cls-13" points="350.55 299.06 286.09 259.88 293.02 586.69 339.8 613.39 350.55 299.06"/><polygon class="cls-3" points="1219.29 458.44 924.91 630.54 925.29 730.08 1219.68 557.99 1219.29 458.44"/><polygon class="cls-15" points="1214.95 461.44 925.44 630.75 925.44 726.38 1214.95 557.08 1214.95 461.44"/><polygon class="cls-3" points="1175.23 491.35 927.07 633.47 927.07 684.49 1216.57 515.19 1175.23 491.35"/><polygon class="cls-16" points="1175.23 487.55 927.07 629.66 927.07 680.7 1216.57 511.38 1175.23 487.55"/><polygon class="cls-12" points="1200.26 469.87 943.39 620.82 992.45 620.82 1200.26 501.96 1200.26 469.87"/><polygon class="cls-17" points="1227.26 593.08 920.01 770.07 920.4 928.38 1227.26 751.38 1227.26 593.08"/><polygon class="cls-18" points="1166.22 374.11 829.23 569.95 903.92 613.08 1240.91 417.24 1166.22 374.11"/><polygon class="cls-19" points="1115.48 341.86 770.39 542.24 815.79 568.46 1160.88 368.07 1115.48 341.86"/><polygon class="cls-19" points="1058.43 307.79 710.82 508.79 756.22 535.02 1103.83 334.01 1058.43 307.79"/><polygon class="cls-19" points="730.81 111.13 381.16 314.59 425.75 340.12 776.21 137.35 730.81 111.13"/><polygon class="cls-19" points="639.95 54.25 285.81 260.14 350.67 299.18 704.82 93.29 639.95 54.25"/><polygon class="cls-18" points="569.37 0 208.57 213.65 249.64 236.22 613.02 26.79 569.37 0"/><polygon class="cls-19" points="797.23 152.52 446.56 354.81 681.97 490.94 1032.64 288.66 797.23 152.52"/><polygon class="cls-7" points="996.39 582.71 992.45 581.65 958.89 722.78 962.83 723.84 996.39 582.71"/><polygon class="cls-7" points="1174.28 482.35 1170.34 481.3 1136.78 622.42 1140.72 623.47 1174.28 482.35"/><polygon class="cls-7" points="1018.53 560.37 1015.57 563.18 1095.08 640.65 1098.04 637.83 1018.53 560.37"/><polygon class="cls-20" points="797.23 152.52 774.85 166.04 774.85 234.59 952.46 335.23 1032.64 288.66 797.23 152.52"/><polygon class="cls-20" points="735.69 188.02 711.14 202.18 735.69 216.09 735.69 188.02"/><polygon class="cls-20" points="735.69 160.79 735.69 124.7 721.67 116.46 641.83 162.91 687.41 188.74 735.69 160.79"/><polygon class="cls-21" points="452.09 602.45 450.08 673.21 653.02 790.86 655.03 720.1 452.09 602.45"/><polygon class="cls-12" points="491.98 668.7 438.67 669.38 672.9 804.62 673.82 768.92 491.98 668.7"/><polygon class="cls-22" points="675.06 728.89 675.14 725.98 440.9 590.75 440.83 593.66 675.06 728.89"/><polygon class="cls-13" points="675.03 729.53 681.84 490.26 447.61 355.03 440.81 594.29 675.03 729.53"/><polygon class="cls-21" points="452.68 504.42 450.15 593.17 657.08 712.42 659.6 623.68 452.68 504.42"/><polygon class="cls-12" points="524.89 594.72 440.81 594.29 675.03 729.53 676.66 673.04 524.89 594.72"/><polygon class="cls-21" points="457.45 368.21 452.97 492.98 658.44 611.94 662.92 487.75 457.45 368.21"/><polygon class="cls-12" points="444.11 493.53 682.37 494.07 678.29 627.4 444.11 493.53"/><polygon class="cls-23" points="612.64 450 610.14 447.97 610.14 766.79 612.64 768.81 612.64 450"/><polygon class="cls-23" points="511.18 392.07 508.69 390.03 508.69 708.84 511.18 710.89 511.18 392.07"/><polygon class="cls-23" points="946.76 240.03 446.56 354.81 595.07 442.13 1032.64 288.66 946.76 240.03"/><polygon class="cls-12" points="709.38 641.51 718.69 641.47 719.91 520.86 753.37 540.45 750.66 665.34 709.38 641.51"/><polygon class="cls-12" points="370.06 454.94 379.38 454.9 393.52 333.05 423.99 347.2 421 482.55 370.06 454.94"/><polygon class="cls-13" points="424.88 340.27 385.08 340.27 374.54 414.06 423.44 414.11 424.88 340.27"/><polygon class="cls-12" points="768.93 676.59 778.26 676.56 779.49 555.95 812.94 575.53 810.22 700.42 768.93 676.59"/><polygon class="cls-12" points="709.38 746.49 718.69 746.46 719.91 690.59 751.32 707.73 748.93 768.6 709.38 746.49"/><polygon class="cls-12" points="767.31 777.5 776.63 777.47 777.85 721.58 809.26 738.73 806.87 799.61 767.31 777.5"/><polygon class="cls-12" points="709.38 824.82 718.69 824.79 719.91 790.55 748.47 806.03 748.93 846.93 709.38 824.82"/><polygon class="cls-12" points="351.16 616.75 360.48 616.72 366.32 557.72 415.82 584.92 413.29 651.09 351.16 616.75"/><polygon class="cls-12" points="358.7 546.44 367.52 545.95 378.02 467.41 420.8 488.42 417.51 577.79 358.7 546.44"/><polygon class="cls-12" points="293.98 416.42 302.13 414.37 304.57 279.74 346.61 305.58 345.41 441.18 293.98 416.42"/><polygon class="cls-12" points="293.69 585.75 300.73 584.31 304.68 524.5 340.75 545.74 338.58 609.4 293.69 585.75"/><polygon class="cls-12" points="294.38 511.48 301.32 510.26 304.17 426.62 345.3 447.06 343.51 536.79 294.38 511.48"/><polygon class="cls-12" points="764.87 856.65 774.18 856.62 775.4 822.36 803.96 837.88 804.41 878.75 764.87 856.65"/><polygon class="cls-21" points="1024.54 377.12 760.09 530.07 718.73 506.57 739.41 495.29 805.53 487.27 1013.94 372.22 1024.54 377.12"/><polygon class="cls-21" points="1152.38 368.69 818.84 563.52 781.11 541.67 1113.22 349.1 1152.38 368.69"/><polygon class="cls-13" points="812.12 653.05 768.05 653.05 768.05 676.31 811.03 676.31 812.12 653.05"/><polygon class="cls-13" points="812.12 621.23 768.05 621.23 768.05 644.48 811.03 644.48 812.12 621.23"/><polygon class="cls-13" points="808.86 753.69 767.24 753.69 767.24 776.96 807.82 776.96 808.86 753.69"/><polygon class="cls-13" points="809.77 723.98 767.24 723.98 767.24 745.6 808.72 745.6 809.77 723.98"/><polygon class="cls-13" points="751.26 723.53 708.9 723.53 708.9 745.82 750.05 745.82 751.26 723.53"/><polygon class="cls-13" points="753.97 622.25 708.35 622.25 708.35 644.1 752.67 644.1 753.97 622.25"/><polygon class="cls-13" points="423.16 433.21 375.44 432.32 375.44 454.55 421.8 454.55 423.16 433.21"/><polygon class="cls-13" points="348.46 339.69 292.95 339.69 292.95 414.06 346.88 413.52 348.46 339.69"/><polygon class="cls-20" points="640.49 56.7 613.84 71.94 614.92 143.2 701.96 93.69 640.49 56.7"/><polygon class="cls-13" points="577.12 433.21 452.95 432.32 452.95 454.55 613.02 454.55 577.12 433.21"/><polygon class="cls-13" points="749.29 802.27 707.27 802.27 707.27 824.58 748.08 824.58 749.29 802.27"/><polygon class="cls-13" points="806.81 833.65 768.46 833.65 768.46 856.91 805.87 856.91 806.81 833.65"/><polygon class="cls-20" points="1036.51 321.63 1036.51 372.93 1103.75 334.05 1058.89 308.1 1036.51 321.63"/><polygon class="cls-24" points="756.61 534.21 711.89 508.39 711.84 510.52 756.56 536.34 756.61 534.21"/><polygon class="cls-24" points="426.08 339.63 380.61 313.37 380.57 315.5 426.05 341.76 426.08 339.63"/><polygon class="cls-24" points="351.26 297.1 284.73 258.7 285.11 261.07 351.65 299.5 351.26 297.1"/><polygon class="cls-24" points="680.89 488.75 447.1 353.73 447.1 356.17 679.79 490.65 680.89 488.75"/><polygon class="cls-24" points="814.96 567.46 770.23 541.65 770.19 543.77 814.9 569.59 814.96 567.46"/><path class="cls-3" d="M578.37,583.71c0-16.83-11.89-37.32-26.55-45.78s-26.54-1.69-26.54,15.14,11.89,37.3,26.54,45.77S578.37,600.53,578.37,583.71Z"/><path class="cls-25" d="M575.11,584.8c0-16.82-11.89-37.33-26.55-45.79S522,537.33,522,554.16s11.89,37.3,26.55,45.77S575.11,601.61,575.11,584.8Z"/><rect class="cls-13" x="598.3" y="756.16" width="73.52" height="6"/><polygon class="cls-13" points="667.19 759.41 598.13 720.1 598.13 726.08 657.47 760.78 667.19 759.41"/><polygon class="cls-26" points="598.87 716.19 529.12 675.91 595.05 763.85 598.87 762.28 598.87 716.19"/><polygon class="cls-27" points="598.87 716.19 529.12 675.91 525.42 678.42 587.18 721.38 598.87 716.19"/><polygon class="cls-25" points="595.21 718.14 525.45 677.86 525.45 723.95 595.21 764.23 595.21 718.14"/><polygon class="cls-13" points="590.69 720.8 529.04 685.2 529.04 725.93 590.69 761.54 590.69 720.8"/><polygon class="cls-12" points="590.89 726.26 529.04 725.93 590.69 761.54 590.89 726.26"/><polygon class="cls-12" points="533.1 719.75 533.42 690.69 585.91 719.53 533.1 719.75"/><polygon class="cls-24" points="1060.94 309.24 1058.43 307.79 710.82 508.79 713.32 510.24 1060.94 309.24"/><polygon class="cls-24" points="1117.57 343.07 1115.48 341.86 770.39 542.24 772.47 543.46 1117.57 343.07"/><polygon class="cls-24" points="799.58 153.88 797.23 152.52 446.56 354.81 448.91 356.17 799.58 153.88"/><polygon class="cls-24" points="733.47 112.69 730.81 111.13 381.16 314.59 383.84 316.12 733.47 112.69"/><polygon class="cls-20" points="552.64 105.94 293.98 259.34 311.11 268.31 552.64 124.7 552.64 105.94"/><polygon class="cls-24" points="643.9 56.63 639.95 54.25 285.81 260.14 289.76 262.53 643.9 56.63"/><polygon class="cls-23" points="758.28 447.96 522.75 311.97 519.95 313.6 755.47 449.57 758.28 447.96"/><polygon class="cls-23" points="610.52 449.59 959.45 247.11 962.26 248.74 613.34 451.21 610.52 449.59"/><polygon class="cls-23" points="510.15 390.02 859.09 187.55 861.9 189.17 512.97 391.64 510.15 390.02"/><polygon class="cls-23" points="863.54 384.3 628.02 248.32 625.21 249.96 860.73 385.92 863.54 384.3"/><polygon class="cls-23" points="945.96 339.43 710.44 203.45 707.62 205.07 943.14 341.05 945.96 339.43"/><polygon class="cls-23" points="595.07 442.13 440.85 557.17 446.56 354.81 595.07 442.13"/><polygon class="cls-23" points="424.81 365.54 372.94 392.8 348.92 617.29 355.9 621.35 418.31 575.78 424.81 365.54"/><polygon class="cls-23" points="293.02 586.69 339.8 613.39 346.88 406.5 289.84 436.45 293.02 586.69"/><polygon class="cls-23" points="704.82 93.29 639.95 54.25 450.23 164.55 677.25 109.31 704.82 93.29"/><polygon class="cls-23" points="747.65 848.53 752.33 679.88 706.05 714.56 703.05 822.78 747.65 848.53"/><polygon class="cls-23" points="808.37 780.71 812.8 634.56 766.36 669.36 761.3 836.42 808.37 780.71"/><path class="cls-28" d="M1086.8,864a1.26,1.26,0,1,0-2.52,0,1.26,1.26,0,0,0,2.52,0Z"/><path class="cls-28" d="M1092.71,860.23a1.26,1.26,0,1,0-1.25,1.26A1.26,1.26,0,0,0,1092.71,860.23Z"/><polygon class="cls-8" points="257.66 624.31 49.97 504.4 208.01 651.17 211.86 650.75 257.66 624.31"/><polygon class="cls-17" points="253.5 624.56 0 528.65 0 531.09 207.69 651 253.5 624.56"/><polygon class="cls-29" points="253.5 622.28 45.8 502.37 0 528.81 207.69 648.73 253.5 622.28"/><polygon class="cls-30" points="249.48 621.63 46.33 505.15 3.89 529.66 207.04 646.13 249.48 621.63"/><polygon class="cls-8" points="938.05 1009.55 730.36 889.65 888.39 1036.42 892.25 1036.01 938.05 1009.55"/><polygon class="cls-17" points="933.88 1009.82 680.39 913.9 680.39 916.34 888.07 1036.26 933.88 1009.82"/><polygon class="cls-29" points="933.88 1007.55 726.19 887.63 680.39 914.07 888.07 1033.98 933.88 1007.55"/><polygon class="cls-30" points="929.86 1006.88 726.72 890.41 684.28 914.91 887.44 1031.39 929.86 1006.88"/><path class="cls-8" d="M756.31,931c6.63-3.83,6.6-10.06-.08-13.92s-17.47-3.86-24.1,0-6.6,10.07.07,13.91S749.67,934.86,756.31,931Z"/><path class="cls-17" d="M753.47,930c6.62-3.83,6.6-10.06-.08-13.92s-17.47-3.87-24.1,0-6.61,10.06.07,13.91S746.83,933.83,753.47,930Z"/><path class="cls-30" d="M753.47,928.25c6.62-3.84,6.6-10.07-.08-13.91s-17.47-3.87-24.1-.05-6.61,10.06.07,13.91S746.83,932.08,753.47,928.25Z"/><path class="cls-8" d="M826,917.66l-6.24-6.6a10.8,10.8,0,0,0-7.26-2.78l-50.05-2.35a5.1,5.1,0,0,0-3.83,1.24l-9.74,10.31a4.49,4.49,0,0,0-.78,1.13h-7.91v1.76h7.65a3.82,3.82,0,0,0,1,2l8.6,9.09c1.43,1.52,4.15,2.39,7,2.26l47.77-2.22c3.14-.14,6-1.24,7.54-2.9l6.21-6.57A3,3,0,0,0,826,917.66Z"/><rect class="cls-31" x="739.72" y="890.95" width="2.86" height="29.12"/><rect class="cls-32" x="741.38" y="890.95" width="1.5" height="29.12"/><path class="cls-33" d="M760.75,848.44a9.52,9.52,0,0,0-4.72-7.5l-10.69-6.17a7.19,7.19,0,0,0-7.18,0L727.44,841a9.13,9.13,0,0,0-4.55,7.22l-3.8,49.76a4.07,4.07,0,0,0,2,3.8l16.77,9.68a8.05,8.05,0,0,0,8,0l14.79-8.55a7.38,7.38,0,0,0,3.67-7Z"/><path class="cls-30" d="M761,849.68a9.33,9.33,0,0,0-4.45-7.35l-10-6a6.48,6.48,0,0,0-6.74,0l-10.09,6.07a9.09,9.09,0,0,0-4.26,7.09l-3.53,48.78a4,4,0,0,0,1.88,3.73l15.77,9.48a7.31,7.31,0,0,0,7.55,0L761,903.06a7.35,7.35,0,0,0,3.44-6.82Z"/><path class="cls-34" d="M745.9,911.43l14.8-8.54a7.4,7.4,0,0,0,3.67-7l-3.63-47.48a9.5,9.5,0,0,0-2.13-5.31l-10.12,4.52c-3.23,1.44-6.39,4.46-6.68,8-2.78,10.72-.65,48.21-.65,53C741.16,911.78,742.66,913,745.9,911.43Z"/><path class="cls-8" d="M810.43,963.49c6.63-3.81,6.6-10-.08-13.9s-17.46-3.87-24.09,0-6.6,10.07.08,13.91S803.8,967.34,810.43,963.49Z"/><path class="cls-17" d="M807.59,962.46c6.63-3.82,6.59-10-.08-13.91s-17.47-3.87-24.1,0-6.6,10.06.07,13.91S801,966.3,807.59,962.46Z"/><path class="cls-30" d="M807.59,960.73c6.63-3.85,6.59-10.07-.08-13.91s-17.47-3.88-24.1-.05-6.6,10.05.07,13.9S801,964.55,807.59,960.73Z"/><path class="cls-8" d="M880.09,950.13l-6.23-6.6a10.8,10.8,0,0,0-7.27-2.78l-50.06-2.34a5,5,0,0,0-3.81,1.24L803,950a4.2,4.2,0,0,0-.77,1.13h-7.92v1.77h7.66a3.73,3.73,0,0,0,1,2l8.59,9.08c1.44,1.52,4.17,2.39,7,2.27L866.34,964a11.32,11.32,0,0,0,7.55-2.9l6.2-6.56A3,3,0,0,0,880.09,950.13Z"/><rect class="cls-31" x="793.85" y="923.42" width="2.87" height="29.13"/><rect class="cls-32" x="795.49" y="923.42" width="1.5" height="29.13"/><path class="cls-33" d="M814.87,880.92a9.51,9.51,0,0,0-4.73-7.51l-10.67-6.16a7.14,7.14,0,0,0-7.18,0l-10.72,6.18a9.12,9.12,0,0,0-4.54,7.22l-3.81,49.76a4.06,4.06,0,0,0,2,3.81L792,943.9a8.05,8.05,0,0,0,8,0l14.8-8.55a7.41,7.41,0,0,0,3.68-7Z"/><path class="cls-30" d="M815.08,882.15a9.42,9.42,0,0,0-4.45-7.35l-10-6a6.46,6.46,0,0,0-6.74,0l-10.08,6.07a9,9,0,0,0-4.26,7.08L776,930.72a4,4,0,0,0,1.88,3.72l15.77,9.48a7.27,7.27,0,0,0,7.54,0l13.9-8.4a7.29,7.29,0,0,0,3.45-6.82Z"/><path class="cls-34" d="M800,943.91l14.8-8.55a7.37,7.37,0,0,0,3.67-7l-3.62-47.49a9.44,9.44,0,0,0-2.14-5.3l-10.11,4.51c-3.23,1.44-6.4,4.46-6.68,8-2.78,10.72-.66,48.21-.66,53C795.28,944.25,796.79,945.43,800,943.91Z"/><path class="cls-8" d="M871.77,994.18c6.63-3.84,6.6-10.06-.07-13.92s-17.47-3.87-24.11,0-6.6,10.06.08,13.91S865.14,998,871.77,994.18Z"/><path class="cls-17" d="M868.92,993.14c6.64-3.84,6.61-10.06-.07-13.92s-17.47-3.87-24.1,0-6.6,10.06.08,13.91S862.29,997,868.92,993.14Z"/><path class="cls-30" d="M868.92,991.4c6.64-3.83,6.61-10.07-.07-13.93s-17.47-3.87-24.1,0-6.6,10.06.08,13.91S862.29,995.22,868.92,991.4Z"/><path class="cls-8" d="M941.43,980.8l-6.24-6.59c-1.51-1.62-4.23-2.66-7.25-2.79l-50.06-2.34a5,5,0,0,0-3.82,1.23l-9.74,10.31a3.93,3.93,0,0,0-.78,1.14h-7.92v1.76h7.66a3.82,3.82,0,0,0,1,2l8.59,9.1c1.43,1.5,4.16,2.38,7,2.25l47.76-2.23c3.15-.14,6-1.23,7.55-2.91l6.21-6.55A3,3,0,0,0,941.43,980.8Z"/><rect class="cls-31" x="855.19" y="954.09" width="2.87" height="29.13"/><rect class="cls-32" x="856.84" y="954.09" width="1.49" height="29.13"/><path class="cls-33" d="M876.21,911.6a9.51,9.51,0,0,0-4.72-7.5l-10.69-6.17a7.14,7.14,0,0,0-7.18,0l-10.72,6.19a9.15,9.15,0,0,0-4.54,7.22l-3.8,49.75a4,4,0,0,0,2,3.8l16.76,9.69a8.05,8.05,0,0,0,8,0l14.8-8.55a7.4,7.4,0,0,0,3.67-7Z"/><path class="cls-30" d="M876.41,912.83a9.39,9.39,0,0,0-4.45-7.36l-10-6a6.49,6.49,0,0,0-6.73,0l-10.08,6.09a8.89,8.89,0,0,0-4.27,7.05l-3.53,48.8a4,4,0,0,0,1.88,3.74L855,974.6a7.27,7.27,0,0,0,7.55,0l13.9-8.38a7.31,7.31,0,0,0,3.45-6.83Z"/><path class="cls-34" d="M861.35,974.57,876.16,966a7.42,7.42,0,0,0,3.67-7l-3.62-47.48a9.54,9.54,0,0,0-2.14-5.32L864,910.79c-3.23,1.44-6.4,4.45-6.68,8-2.78,10.74-.66,48.22-.66,53C856.62,974.93,858.12,976.1,861.35,974.57Z"/><path class="cls-35" d="M546.29,574.71a2.26,2.26,0,0,0-1-1.78c-.57-.34-1-.08-1,.59a2.26,2.26,0,0,0,1,1.78C545.82,575.63,546.28,575.37,546.29,574.71Z"/><polygon class="cls-35" points="546.1 544.86 544.38 543.85 544.38 570.83 546.1 571.83 546.1 544.86"/><polygon class="cls-35" points="557.87 582.65 557.87 580.16 547.66 574.27 547.66 576.75 557.87 582.65"/><path class="cls-8" d="M191.39,608.91c6.63-3.83,6.6-10-.08-13.91s-17.46-3.86-24.1,0-6.6,10.06.07,13.92S184.75,612.75,191.39,608.91Z"/><path class="cls-17" d="M188.53,607.87c6.64-3.83,6.61-10-.07-13.9s-17.46-3.87-24.1,0-6.6,10.06.08,13.92S181.91,611.71,188.53,607.87Z"/><path class="cls-30" d="M188.53,606.14c6.64-3.84,6.61-10.07-.07-13.92s-17.46-3.88-24.1,0-6.6,10.06.08,13.91S181.91,610,188.53,606.14Z"/><path class="cls-8" d="M261,595.54,254.81,589c-1.51-1.61-4.23-2.65-7.26-2.8l-50.06-2.33a5.19,5.19,0,0,0-3.83,1.23l-9.73,10.31a4.29,4.29,0,0,0-.78,1.14h-7.91v1.76h7.65a3.78,3.78,0,0,0,1,2l8.59,9.1c1.44,1.51,4.16,2.38,7,2.25l47.76-2.23c3.15-.14,6-1.22,7.55-2.9L261,600A3,3,0,0,0,261,595.54Z"/><rect class="cls-31" x="174.8" y="568.84" width="2.87" height="29.12"/><rect class="cls-32" x="176.46" y="568.84" width="1.49" height="29.12"/><path class="cls-33" d="M195.82,526.32a9.5,9.5,0,0,0-4.72-7.5l-10.68-6.16a7.14,7.14,0,0,0-7.18,0l-10.73,6.19a9.15,9.15,0,0,0-4.54,7.22l-3.8,49.76a4,4,0,0,0,2,3.8L173,589.31a8,8,0,0,0,8,0l14.8-8.54a7.42,7.42,0,0,0,3.67-7Z"/><path class="cls-30" d="M196,527.57a9.35,9.35,0,0,0-4.44-7.36l-10-6a6.55,6.55,0,0,0-6.74,0l-10.09,6.08a9,9,0,0,0-4.26,7.09l-3.53,48.78a4,4,0,0,0,1.88,3.73l15.77,9.48a7.29,7.29,0,0,0,7.55,0l13.9-8.39a7.34,7.34,0,0,0,3.45-6.82Z"/><path class="cls-34" d="M181,589.31l14.81-8.54a7.39,7.39,0,0,0,3.66-7l-3.62-47.48a9.5,9.5,0,0,0-2.13-5.31l-10.12,4.51c-3.23,1.44-6.39,4.45-6.68,8-2.79,10.72-.65,48.21-.65,53C176.24,589.67,177.74,590.85,181,589.31Z"/></g></g></g></svg>