<svg xmlns="http://www.w3.org/2000/svg" viewBox="0 0 129.33 417.17"><defs><style>.cls-1{isolation:isolate;}.cls-2{fill:#bfb9ac;}.cls-3{fill:#d9d4ca;}.cls-4{fill:#a8c2cc;}.cls-5{fill:#fff;}.cls-14,.cls-6{opacity:0.1;}.cls-14,.cls-7{fill:#2d2e81;}.cls-8{opacity:0.15;}.cls-9{opacity:0.75;mix-blend-mode:overlay;}.cls-10{fill:#e5d6cb;}.cls-11{fill:#c4c4c4;}.cls-12{fill:#d4ccc3;}.cls-13{fill:#eee7dc;}.cls-15{fill:#ebebeb;}.cls-16{fill:#9b9b9a;}.cls-17{fill:#f4f4f4;}</style></defs><title>Recurso50</title><g class="cls-1"><g id="Capa_2" data-name="Capa 2"><g id="ELEMENTOS_INDIVIDUALES" data-name="ELEMENTOS INDIVIDUALES"><polygon class="cls-2" points="64.68 417.17 107.46 392.49 107.46 132.49 64.68 157.17 64.68 417.17"/><polygon class="cls-3" points="64.68 417.17 21.89 392.47 21.89 132.47 64.68 157.17 64.68 417.17"/><polygon class="cls-4" points="76.16 171.43 76.16 190.01 91.53 181.14 93.1 180.23 93.58 179.95 96.73 178.14 97.87 177.48 97.87 158.9 96.4 159.75 83.1 167.43 79.95 169.24 79.47 169.53 77.9 170.43 76.16 171.43"/><path class="cls-5" d="M97.87,158.9v18.58l-1.14.66L93.59,180l-.49.28-1.57.91L76.16,190V171.43l1.74-1,1.57-.91.48-.28,3.15-1.81,13.3-7.67,1.47-.86Zm1.64-2.85-2.46,1.43-1.47.85L82.28,166l-3.16,1.82-.47.27-1.57.91-1.74,1-.82.47v22.37L77,191.43l15.37-8.87,1.58-.91.47-.28,3.15-1.81,1.14-.66.82-.47V156.05Z"/><g class="cls-6"><polygon class="cls-7" points="76.16 188.3 76.16 190.01 97.87 177.48 96.4 176.63 76.16 188.3"/></g><g class="cls-8"><polygon class="cls-7" points="96.4 159.75 96.4 176.63 97.87 177.48 97.87 158.9 96.4 159.75"/></g><g class="cls-9"><polygon class="cls-5" points="79.95 169.24 93.58 179.95 96.73 178.14 83.1 167.43 79.95 169.24"/><polygon class="cls-5" points="77.9 170.43 91.53 181.14 93.1 180.23 79.47 169.53 77.9 170.43"/></g><polygon class="cls-4" points="76.16 204.22 76.16 222.8 91.53 213.93 93.1 213.02 93.58 212.74 96.73 210.93 97.87 210.27 97.87 191.69 96.4 192.54 83.1 200.22 79.95 202.03 79.47 202.31 77.9 203.22 76.16 204.22"/><path class="cls-5" d="M97.87,191.69v18.58l-1.14.66-3.14,1.81-.49.28-1.57.91L76.16,222.8V204.22l1.74-1,1.57-.91L80,202l3.15-1.81,13.3-7.68,1.47-.85Zm1.64-2.85-2.46,1.43-1.47.85-13.3,7.67-3.16,1.83-.47.27-1.57.91-1.74,1-.82.47v22.37L77,224.22l15.37-8.87,1.58-.91.47-.28,3.15-1.81,1.14-.66.82-.48V188.84Z"/><g class="cls-6"><polygon class="cls-7" points="76.16 221.09 76.16 222.8 97.87 210.27 96.4 209.42 76.16 221.09"/></g><g class="cls-8"><polygon class="cls-7" points="96.4 192.54 96.4 209.42 97.87 210.27 97.87 191.69 96.4 192.54"/></g><g class="cls-9"><polygon class="cls-5" points="79.95 202.03 93.58 212.74 96.73 210.93 83.1 200.22 79.95 202.03"/><polygon class="cls-5" points="77.9 203.22 91.53 213.93 93.1 213.02 79.47 202.31 77.9 203.22"/></g><polygon class="cls-4" points="76.16 237.01 76.16 255.59 91.53 246.72 93.1 245.81 93.58 245.53 96.73 243.72 97.87 243.06 97.87 224.48 96.4 225.33 83.1 233 79.95 234.82 79.47 235.1 77.9 236.01 76.16 237.01"/><path class="cls-5" d="M97.87,224.48v18.58l-1.14.66-3.14,1.81-.49.28-1.57.91-15.37,8.87V237l1.74-1,1.57-.91.48-.28L83.1,233l13.3-7.68,1.47-.85Zm1.64-2.85-2.46,1.43-1.47.85-13.3,7.67-3.16,1.82-.47.28-1.57.91-1.74,1-.82.47v22.37L77,257l15.37-8.87,1.58-.92.47-.27,3.15-1.81,1.14-.66.82-.48V221.63Z"/><g class="cls-6"><polygon class="cls-7" points="76.16 253.88 76.16 255.59 97.87 243.06 96.4 242.21 76.16 253.88"/></g><g class="cls-8"><polygon class="cls-7" points="96.4 225.33 96.4 242.21 97.87 243.06 97.87 224.48 96.4 225.33"/></g><g class="cls-9"><polygon class="cls-5" points="79.95 234.82 93.58 245.53 96.73 243.72 83.1 233 79.95 234.82"/><polygon class="cls-5" points="77.9 236.01 91.53 246.72 93.1 245.81 79.47 235.1 77.9 236.01"/></g><polygon class="cls-4" points="31.84 159.57 31.84 178.34 43.47 185.06 43.49 185.06 45.31 186.1 45.87 186.44 50.41 189.05 52.07 190.01 52.07 171.25 41.07 164.91 36.54 162.29 35.97 161.96 34.15 160.9 34.14 160.9 31.84 159.57"/><path class="cls-5" d="M31.84,159.57l2.3,1.33h0L36,162l.57.33,4.53,2.62,11,6.34V190l-1.66-1-4.54-2.62-.56-.33-1.82-1h0l-11.63-6.73V159.57Zm-1.64-2.84v22.55l.82.47,11.63,6.73.4.22h0l1.42.82.58.34,4.54,2.61,1.66,1,2.46,1.42V170.3l-.82-.47-11-6.34-4.53-2.62-.56-.33L35,159.48l-.39-.22h0l-1.92-1.11-2.46-1.42Z"/><g class="cls-8"><polygon class="cls-7" points="33.63 160.61 33.63 177.3 31.85 178.34 31.85 159.58 33.63 160.61"/></g><g class="cls-6"><polygon class="cls-7" points="31.84 178.34 52.07 190.01 52.07 187.94 33.63 177.3 31.84 178.34"/></g><g class="cls-9"><polygon class="cls-5" points="36.54 162.29 45.87 186.44 50.41 189.05 41.07 164.91 36.54 162.29"/><polygon class="cls-5" points="34.15 160.9 43.47 185.06 43.49 185.06 45.31 186.1 35.97 161.96 34.15 160.9"/></g><polygon class="cls-4" points="31.84 192.36 31.84 211.12 43.47 217.84 43.49 217.84 45.31 218.89 45.87 219.22 50.41 221.84 52.07 222.8 52.07 204.04 41.07 197.69 36.54 195.08 35.97 194.75 34.15 193.69 34.14 193.69 31.84 192.36"/><path class="cls-5" d="M31.84,192.36l2.3,1.33h0L36,194.75l.57.33,4.53,2.61,11,6.35V222.8l-1.66-1-4.54-2.62-.56-.33-1.82-1h0l-11.63-6.72V192.36Zm-1.64-2.84v22.55l.82.47,11.63,6.72.4.22h0l1.42.83.58.33,4.54,2.62,1.66,1,2.46,1.42V203.09l-.82-.47-11-6.35-4.53-2.61-.56-.33L35,192.27l-.39-.22h0l-1.92-1.11-2.46-1.42Z"/><g class="cls-8"><polygon class="cls-7" points="33.63 193.4 33.63 210.09 31.85 211.13 31.85 192.37 33.63 193.4"/></g><g class="cls-6"><polygon class="cls-7" points="31.84 211.12 52.07 222.8 52.07 220.72 33.63 210.09 31.84 211.12"/></g><g class="cls-9"><polygon class="cls-5" points="36.54 195.08 45.87 219.22 50.41 221.84 41.07 197.69 36.54 195.08"/><polygon class="cls-5" points="34.15 193.69 43.47 217.84 43.49 217.84 45.31 218.89 35.97 194.75 34.15 193.69"/></g><polygon class="cls-4" points="31.84 225.15 31.84 243.91 43.47 250.63 43.49 250.63 45.31 251.68 45.87 252.01 50.41 254.63 52.07 255.59 52.07 236.83 41.07 230.48 36.54 227.87 35.97 227.54 34.15 226.48 34.14 226.48 31.84 225.15"/><path class="cls-5" d="M31.84,225.15l2.3,1.33h0L36,227.54l.57.33,4.53,2.61,11,6.35v18.76l-1.66-1L45.87,252l-.56-.33-1.82-1.05h0l-11.63-6.72V225.15Zm-1.64-2.84v22.55l.82.47,11.63,6.72.4.22h0l1.42.82.58.34,4.54,2.62,1.66,1,2.46,1.42V235.88l-.82-.47-11-6.35-4.53-2.61-.56-.33L35,225.06l-.39-.22h0l-1.92-1.11-2.46-1.42Z"/><g class="cls-8"><polygon class="cls-7" points="33.63 226.19 33.63 242.88 31.85 243.91 31.85 225.15 33.63 226.19"/></g><g class="cls-6"><polygon class="cls-7" points="31.84 243.91 52.07 255.59 52.07 253.51 33.63 242.88 31.84 243.91"/></g><g class="cls-9"><polygon class="cls-5" points="36.54 227.87 45.87 252.01 50.41 254.63 41.07 230.48 36.54 227.87"/><polygon class="cls-5" points="34.15 226.48 43.47 250.63 43.49 250.63 45.31 251.68 35.97 227.54 34.15 226.48"/></g><polygon class="cls-4" points="76.16 273.8 76.16 292.38 91.53 283.51 93.1 282.6 93.58 282.32 96.73 280.51 97.87 279.85 97.87 261.27 96.4 262.13 83.1 269.8 79.95 271.62 79.47 271.9 77.9 272.81 76.16 273.8"/><path class="cls-5" d="M97.87,261.27v18.58l-1.14.66-3.14,1.81-.49.28-1.57.91-15.37,8.87V273.8l1.74-1,1.57-.9.48-.28,3.15-1.82,13.3-7.67,1.47-.86Zm1.64-2.84-2.46,1.42-1.47.86-13.3,7.67-3.16,1.82-.47.28-1.57.9-1.74,1-.82.47v22.37L77,293.8l15.37-8.87,1.58-.91.47-.28,3.15-1.81,1.14-.66.82-.47V258.43Z"/><g class="cls-6"><polygon class="cls-7" points="76.16 290.68 76.16 292.38 97.87 279.85 96.4 279 76.16 290.68"/></g><g class="cls-8"><polygon class="cls-7" points="96.4 262.13 96.4 279 97.87 279.85 97.87 261.27 96.4 262.13"/></g><g class="cls-9"><polygon class="cls-5" points="79.95 271.62 93.58 282.32 96.73 280.51 83.1 269.8 79.95 271.62"/><polygon class="cls-5" points="77.9 272.81 91.53 283.51 93.1 282.6 79.47 271.9 77.9 272.81"/></g><polygon class="cls-4" points="76.16 306.59 76.16 325.17 91.53 316.3 93.1 315.39 93.58 315.11 96.73 313.3 97.87 312.64 97.87 294.06 96.4 294.92 83.1 302.59 79.95 304.4 79.47 304.69 77.9 305.59 76.16 306.59"/><path class="cls-5" d="M97.87,294.06v18.58l-1.14.66-3.14,1.81-.49.28-1.57.91-15.37,8.87V306.59l1.74-1,1.57-.9.48-.29,3.15-1.81,13.3-7.67,1.47-.86Zm1.64-2.85-2.46,1.43-1.47.85-13.3,7.68L79.12,303l-.47.28-1.57.9-1.74,1-.82.47V328L77,326.59l15.37-8.87,1.58-.91.47-.28,3.15-1.81,1.14-.66.82-.47V291.21Z"/><g class="cls-6"><polygon class="cls-7" points="76.16 323.46 76.16 325.17 97.87 312.64 96.4 311.79 76.16 323.46"/></g><g class="cls-8"><polygon class="cls-7" points="96.4 294.92 96.4 311.79 97.87 312.64 97.87 294.06 96.4 294.92"/></g><g class="cls-9"><polygon class="cls-5" points="79.95 304.4 93.58 315.11 96.73 313.3 83.1 302.59 79.95 304.4"/><polygon class="cls-5" points="77.9 305.59 91.53 316.3 93.1 315.39 79.47 304.69 77.9 305.59"/></g><polygon class="cls-4" points="76.16 339.38 76.16 357.96 91.53 349.09 93.1 348.18 93.58 347.9 96.73 346.09 97.87 345.43 97.87 326.85 96.4 327.7 83.1 335.38 79.95 337.19 79.47 337.47 77.9 338.38 76.16 339.38"/><path class="cls-5" d="M97.87,326.85v18.58l-1.14.66-3.14,1.81-.49.28-1.57.91L76.16,358V339.38l1.74-1,1.57-.91.48-.28,3.15-1.81,13.3-7.68,1.47-.85ZM99.51,324l-2.46,1.43-1.47.85L82.28,334l-3.16,1.82-.47.27-1.57.91-1.74,1-.82.47V360.8L77,359.38l15.37-8.87,1.58-.91.47-.28,3.15-1.81,1.14-.66.82-.47V324Z"/><g class="cls-6"><polygon class="cls-7" points="76.16 356.25 76.16 357.96 97.87 345.43 96.4 344.58 76.16 356.25"/></g><g class="cls-8"><polygon class="cls-7" points="96.4 327.7 96.4 344.58 97.87 345.43 97.87 326.85 96.4 327.7"/></g><g class="cls-9"><polygon class="cls-5" points="79.95 337.19 93.58 347.9 96.73 346.09 83.1 335.38 79.95 337.19"/><polygon class="cls-5" points="77.9 338.38 91.53 349.09 93.1 348.18 79.47 337.47 77.9 338.38"/></g><polygon class="cls-4" points="31.84 261.95 31.84 280.71 43.47 287.43 43.49 287.43 45.31 288.48 45.87 288.81 50.41 291.42 52.07 292.38 52.07 273.62 41.07 267.28 36.54 264.66 35.97 264.33 34.15 263.27 34.14 263.27 31.84 261.95"/><path class="cls-5" d="M31.84,262l2.3,1.32h0L36,264.33l.57.33,4.53,2.62,11,6.34v18.76l-1.66-1-4.54-2.61-.56-.33-1.82-1.05h0l-11.63-6.72V262Zm-1.64-2.84v22.54l.82.48,11.63,6.72.4.22h0l1.42.82.58.34,4.54,2.61,1.66,1,2.46,1.42V272.67l-.82-.47-11-6.34-4.53-2.62-.56-.33L35,261.85l-.39-.22h0l-1.92-1.1-2.46-1.42Z"/><g class="cls-8"><polygon class="cls-7" points="33.63 262.99 33.63 279.67 31.85 280.71 31.85 261.95 33.63 262.99"/></g><g class="cls-6"><polygon class="cls-7" points="31.84 280.71 52.07 292.38 52.07 290.31 33.63 279.67 31.84 280.71"/></g><g class="cls-9"><polygon class="cls-5" points="36.54 264.66 45.87 288.81 50.41 291.42 41.07 267.28 36.54 264.66"/><polygon class="cls-5" points="34.15 263.27 43.47 287.43 43.49 287.43 45.31 288.48 35.97 264.33 34.15 263.27"/></g><polygon class="cls-4" points="31.84 294.74 31.84 313.5 43.47 320.22 43.49 320.22 45.31 321.26 45.87 321.6 50.41 324.21 52.07 325.17 52.07 306.41 41.07 300.07 36.54 297.45 35.97 297.12 34.15 296.06 34.14 296.06 31.84 294.74"/><path class="cls-5" d="M31.84,294.74l2.3,1.32h0L36,297.12l.57.33,4.53,2.62,11,6.34v18.76l-1.66-1-4.54-2.61-.56-.34-1.82-1h0L31.84,313.5V294.74ZM30.2,291.9v22.54l.82.48,11.63,6.72.4.22h0l1.42.82.58.34,4.54,2.61,1.66,1L53.71,328V305.46l-.82-.47-11-6.34L37.36,296l-.56-.33L35,294.64l-.39-.22h0l-1.92-1.11L30.2,291.9Z"/><g class="cls-8"><polygon class="cls-7" points="33.63 295.77 33.63 312.46 31.85 313.5 31.85 294.74 33.63 295.77"/></g><g class="cls-6"><polygon class="cls-7" points="31.84 313.5 52.07 325.17 52.07 323.1 33.63 312.46 31.84 313.5"/></g><g class="cls-9"><polygon class="cls-5" points="36.54 297.45 45.87 321.6 50.41 324.21 41.07 300.07 36.54 297.45"/><polygon class="cls-5" points="34.15 296.06 43.47 320.22 43.49 320.22 45.31 321.26 35.97 297.12 34.15 296.06"/></g><polygon class="cls-4" points="31.84 327.52 31.84 346.28 43.47 353 43.49 353 45.31 354.05 45.87 354.38 50.41 357 52.07 357.96 52.07 339.2 41.07 332.85 36.54 330.24 35.97 329.91 34.15 328.85 34.14 328.85 31.84 327.52"/><path class="cls-5" d="M31.84,327.52l2.3,1.33h0L36,329.91l.57.33,4.53,2.61,11,6.35V358l-1.66-1-4.54-2.62-.56-.33L43.49,353h0l-11.63-6.72V327.52Zm-1.64-2.84v22.55l.82.47,11.63,6.72.4.22h0l1.42.83.58.33,4.54,2.62,1.66,1,2.46,1.42V338.25l-.82-.47-11-6.35-4.53-2.61-.56-.33L35,327.43l-.39-.22h0l-1.92-1.11-2.46-1.42Z"/><g class="cls-8"><polygon class="cls-7" points="33.63 328.56 33.63 345.25 31.85 346.29 31.85 327.53 33.63 328.56"/></g><g class="cls-6"><polygon class="cls-7" points="31.84 346.28 52.07 357.96 52.07 355.88 33.63 345.25 31.84 346.28"/></g><g class="cls-9"><polygon class="cls-5" points="36.54 330.24 45.87 354.38 50.41 357 41.07 332.85 36.54 330.24"/><polygon class="cls-5" points="34.15 328.85 43.47 353 43.49 353 45.31 354.05 35.97 329.91 34.15 328.85"/></g><polygon class="cls-2" points="0 78.05 64.66 115.38 129.31 78.08 129.31 70.76 64.66 40.75 0.02 70.81 0 78.05"/><polygon class="cls-10" points="0.02 70.81 64.67 108.14 129.33 70.84 64.67 33.51 0.02 70.81"/><polygon class="cls-11" points="64.66 115.38 129.31 78.08 107.46 132.49 64.68 157.17 64.66 115.38"/><polygon class="cls-4" points="68.77 117.76 68.77 150.07 94.81 135.06 97.39 133.58 98.17 133.13 103.3 130.18 104.2 129.65 121.09 87.58 116.34 90.32 80.09 111.24 74.96 114.19 74.19 114.64 71.6 116.12 68.77 117.76"/><path class="cls-5" d="M121.09,87.58,104.2,129.65,68.77,150.07V117.76l47.57-27.44,4.75-2.74Zm3.3-3.8-4.12,2.38-4.75,2.74L68,116.34l-.82.47v36.1l2.46-1.42L105,131.07l.49-.28.21-.53,16.9-42.07,1.77-4.41Z"/><polygon class="cls-12" points="64.66 115.38 0 78.05 21.89 132.47 64.68 157.17 64.66 115.38"/><polygon class="cls-4" points="8.25 87.54 25.18 129.61 43.27 140.06 46.47 141.91 47.45 142.48 55.36 147.07 60.57 150.07 60.57 117.76 36.46 103.81 28.59 99.26 27.56 98.69 24.41 96.89 12.51 90 8.25 87.54"/><path class="cls-5" d="M8.25,87.54,12.51,90l48.06,27.76v32.31L25.18,129.61,8.25,87.54ZM5,83.74l1.78,4.41,16.93,42.07.21.52.49.29,35.39,20.46,2.46,1.42v-36.1l-.82-.47L13.33,88.58,9.07,86.12,5,83.74Z"/><polygon class="cls-13" points="64.68 417.17 107.46 392.49 107.46 371.44 64.68 396.13 64.68 417.17"/><polygon class="cls-13" points="64.68 417.17 21.89 392.47 21.89 371.43 64.68 396.14 64.68 417.17"/><polygon class="cls-14" points="116.34 90.32 121.09 87.58 104.2 129.65 68.77 150.07 68.77 146.25 101.45 127.43 116.34 90.32"/><polygon class="cls-14" points="12.51 90 27.32 126.78 60.57 145.97 60.57 150.07 25.18 129.61 8.25 87.54 12.51 90"/><g class="cls-9"><polygon class="cls-5" points="74.96 114.19 98.17 133.13 103.3 130.18 80.09 111.24 74.96 114.19"/><polygon class="cls-5" points="71.6 116.12 94.81 135.06 97.39 133.58 74.19 114.64 71.6 116.12"/></g><g class="cls-9"><polygon class="cls-5" points="28.59 99.26 47.45 142.48 55.36 147.07 36.46 103.81 28.59 99.26"/><polygon class="cls-5" points="24.41 96.89 43.27 140.06 46.47 141.91 27.56 98.69 24.41 96.89"/></g><polygon class="cls-11" points="65.5 78.08 81.68 68.74 81.68 57.06 65.5 66.4 65.5 78.08"/><polygon class="cls-15" points="45.47 66.52 65.5 78.08 65.5 66.4 45.47 54.84 45.47 66.52"/><polygon class="cls-5" points="45.47 54.83 65.5 66.4 81.68 57.06 61.65 45.49 45.47 54.83"/><path class="cls-11" d="M57.66,58.25a13,13,0,0,0,11.83,0c1.63-.94,2.45-2.18,2.45-3.42V57h0a4.25,4.25,0,0,1-2.42,3.15,13,13,0,0,1-11.83,0A4.29,4.29,0,0,1,55.23,57h0V54.83C55.21,56.07,56,57.31,57.66,58.25Z"/><path class="cls-15" d="M69.49,58.25a13,13,0,0,1-11.83,0c-1.63-.94-2.45-2.18-2.45-3.42s.82-2.47,2.45-3.41a13,13,0,0,1,11.83,0c1.63.94,2.45,2.18,2.45,3.41S71.12,57.31,69.49,58.25Z"/><path class="cls-11" d="M66.75,56.31a7,7,0,0,1-6.28,0,1.91,1.91,0,0,1,0-3.63,7,7,0,0,1,6.28,0,1.92,1.92,0,0,1,0,3.63Z"/><polygon class="cls-11" points="60.74 33.89 66.47 33.89 68.05 54.49 59.16 54.49 60.74 33.89"/><path class="cls-16" d="M40.22,30c0,4.92,1.67,8.44,4.37,10.19,0,0,0,0,0,0a14.53,14.53,0,0,0,2.12,1A21.47,21.47,0,0,0,72.37,30.65c5.53-11,3.27-24.6-4.21-29.24a4.42,4.42,0,0,0-.49-.31A10.51,10.51,0,0,0,66.55.56l-.3-.13c-2.75-.91-6.2-.4-10,1.77C47.42,7.33,40.22,19.79,40.22,30Z"/><path class="cls-5" d="M40.22,30c0,4.92,1.67,8.44,4.37,10.19,0,0,0,0,0,0a7.49,7.49,0,0,0,2.12,1c2.66.76,6,.21,9.55-1.87,8.89-5.12,16.09-17.59,16.09-27.84,0-4.81-1.59-8.29-4.21-10.06a4.42,4.42,0,0,0-.49-.31A10.51,10.51,0,0,0,66.55.56l-.3-.13c-2.75-.91-6.2-.4-10,1.77C47.42,7.33,40.22,19.79,40.22,30Z"/><path class="cls-11" d="M57.26,26.56l-15.43-13,1.28-1.54,18.15,7.87h0a1.78,1.78,0,0,1,1.09,1.9,6.18,6.18,0,0,1-2.78,4.82,1.81,1.81,0,0,1-2.19,0h0l-.1-.09Z"/><path class="cls-17" d="M40.4,13a2.06,2.06,0,1,0,2.06-2.06A2.06,2.06,0,0,0,40.4,13Z"/></g></g></g></svg>