<svg xmlns="http://www.w3.org/2000/svg" xmlns:xlink="http://www.w3.org/1999/xlink" viewBox="0 0 856.57 527.3"><defs><style>.cls-1{fill:#704b4b;}.cls-2{isolation:isolate;}.cls-3{fill:#595351;}.cls-4{fill:#301404;opacity:0.25;}.cls-4,.cls-9{mix-blend-mode:multiply;}.cls-5{fill:#d9bb93;}.cls-6{fill:#b49470;}.cls-7{fill:#f4d8b7;}.cls-8{fill:#939743;}.cls-9{fill:#591805;opacity:0.4;}.cls-10{fill:#c9c29b;}.cls-11{fill:#e6e1c4;}.cls-12{fill:#b85950;}.cls-13{fill:#faf7d0;}.cls-14{fill:#78a19c;}.cls-15{fill:#a1cfcc;}.cls-16{fill:#91b8b2;}.cls-17{fill:#ddf1ef;}.cls-18{fill:#973d3b;}.cls-19{fill:#906868;}.cls-20{fill:#d4d0a4;}.cls-21{fill:#618580;}.cls-22{fill:#c6a784;}.cls-23{fill:#709991;}.cls-24{clip-path:url(#clip-path);}.cls-25{fill:#b2cfcb;}.cls-26{fill:#5c807b;}</style><clipPath id="clip-path" transform="translate(0 0)"><path class="cls-1" d="M495.19,91.56c4.72-2.71,4.71-7.14,0-9.89s-12.42-2.79-17.14-.08-4.71,7.14,0,9.89S490.47,94.28,495.19,91.56Z"/></clipPath></defs><title>Recurso 37</title><g class="cls-2"><g id="Capa_2" data-name="Capa 2"><g id="ELEMENTOS_INDIVIDUALES" data-name="ELEMENTOS INDIVIDUALES"><polygon class="cls-3" points="856.57 301.72 392.09 33.55 0 259.12 464.48 527.3 856.57 301.72"/><polygon class="cls-4" points="522.98 420.48 650.14 420.48 856.57 301.72 709.94 140.3 522.98 140.3 522.98 420.48"/><polygon class="cls-5" points="773.46 311.46 773.46 304.13 375.92 81.89 58.4 257.81 58.4 264.98 115.78 298.02 373.05 432.14 373.05 447.11 455.72 494.26 773.46 311.46"/><polygon class="cls-6" points="773.46 311.46 773.46 304.13 455.72 365.52 455.72 494.26 773.46 311.46"/><polygon class="cls-7" points="773.46 303.98 375.92 74.41 58.17 257.2 455.72 486.77 773.46 303.98"/><polygon class="cls-8" points="758.18 303.57 373.04 81.78 71.11 256.62 456.25 478.43 758.18 303.57"/><polygon class="cls-7" points="472.8 390.1 465.52 385.88 373.24 439.14 380.53 443.36 472.8 390.1"/><polygon class="cls-7" points="203.09 213.06 195.81 208.86 84.74 272.72 92.03 276.94 203.09 213.06"/><rect class="cls-9" x="438.79" y="268.23" width="58.23" height="133.31"/><polygon class="cls-6" points="199.98 214.84 92.18 277.01 92.18 284.76 199.98 222.58 199.98 214.84"/><polygon class="cls-3" points="405.47 310.72 226.65 207.49 75.72 294.33 254.53 397.57 405.47 310.72"/><polygon class="cls-9" points="277.49 286.16 246.86 268.49 246.44 299.3 253.77 299.3 277.49 286.16"/><polygon class="cls-3" points="503.7 364.05 324.9 260.81 173.94 347.65 352.76 450.88 503.7 364.05"/><polygon class="cls-10" points="272.34 284.52 215.87 278.48 215.87 281.73 246.49 299.39 272.34 284.52"/><polygon class="cls-11" points="246.49 284.52 215.87 278.48 215.87 281.73 246.49 299.39 246.49 284.52"/><polygon class="cls-8" points="272.34 281.25 241.72 263.57 215.87 278.44 246.49 296.12 272.34 281.25"/><polygon class="cls-12" points="326.32 191.63 192.19 113.99 192.19 226.59 326.32 304.25 326.32 191.63"/><polygon class="cls-5" points="191.56 219.63 191.56 226.75 269.21 272.16 269.21 265.06 191.56 219.63"/><polygon class="cls-13" points="269.96 208.22 249.69 196.33 249.69 240.93 269.96 252.82 269.96 208.22"/><polygon class="cls-14" points="267.69 211.9 251.96 202.68 251.96 237.25 267.69 246.47 267.69 211.9"/><polygon class="cls-15" points="267.58 211.94 253.22 203.51 253.24 236.04 267.58 244.46 267.58 211.94"/><polygon class="cls-16" points="254.27 204.2 254.28 234.01 267.43 233.92 267.57 211.78 254.27 204.2"/><polygon class="cls-17" points="266.62 213.57 254.7 206.7 254.7 208.3 266.62 215.18 266.62 213.57"/><polygon class="cls-17" points="266.62 215.97 254.7 209.1 254.7 210.7 266.62 217.58 266.62 215.97"/><polygon class="cls-17" points="266.62 218.38 254.7 211.5 254.7 213.1 266.62 219.98 266.62 218.38"/><polygon class="cls-17" points="266.62 220.78 254.7 213.91 254.7 215.51 266.62 222.38 266.62 220.78"/><polygon class="cls-17" points="266.62 223.18 254.7 216.3 254.7 217.92 266.62 224.79 266.62 223.18"/><polygon class="cls-17" points="266.62 225.59 254.7 218.72 254.7 220.32 266.62 227.19 266.62 225.59"/><polygon class="cls-17" points="266.62 227.98 254.7 221.12 254.7 222.71 266.62 229.6 266.62 227.98"/><polygon class="cls-17" points="266.62 230.38 254.7 223.52 254.7 225.12 266.62 232 266.62 230.38"/><polygon class="cls-7" points="309.05 178.17 191.72 110.43 191.72 141.93 309.05 209.67 309.05 178.17"/><polygon class="cls-12" points="309.05 187.04 191.72 119.3 191.72 136.31 309.05 204.06 309.05 187.04"/><polygon class="cls-18" points="303.15 177.27 191.66 112.91 191.66 122.94 303.15 187.32 303.15 177.27"/><polygon class="cls-7" points="466.85 97.5 186.12 107.82 186.12 113.76 312.51 186.74 466.85 97.5"/><polygon class="cls-13" points="466.85 91.66 340.46 18.68 186.12 107.92 312.51 180.89 466.85 91.66"/><polygon class="cls-19" points="455.34 93.61 341.2 27.72 201.85 108.29 315.97 174.19 455.34 93.61"/><polygon class="cls-5" points="341.2 37.54 446.84 98.53 455.34 93.61 341.2 27.72 201.85 108.29 210.34 113.19 341.2 37.54"/><polygon class="cls-6" points="341.2 37.54 341.2 27.72 201.85 108.29 210.34 113.19 341.2 37.54"/><polygon class="cls-13" points="237.73 211.76 211.62 196.69 211.61 238.63 237.73 253.72 237.73 211.76"/><path class="cls-13" d="M237.13,206.75c-.22-7.83-5.71-17.18-12.48-21.09s-12.27-.91-12.49,6.67Z" transform="translate(0 0)"/><polygon class="cls-12" points="439.09 214.23 265.17 113.82 265.17 300.83 439.09 401.25 439.09 214.23"/><polygon class="cls-18" points="440.41 224.24 265.57 123.67 265.57 133.7 440.41 234.27 440.41 224.24"/><polygon class="cls-13" points="396.43 239.76 396.43 212.2 307.88 161.07 307.88 188.63 396.43 239.76"/><polygon class="cls-20" points="405.95 282.74 292.08 217.27 292.08 316.55 405.96 382.02 405.95 282.74"/><polygon class="cls-21" points="394.35 236.4 394.35 213.14 309.97 164.43 309.97 187.69 394.35 236.4"/><polygon class="cls-18" points="438.48 223 618.48 121.54 618.48 300.54 438.79 401.38 438.48 223"/><polygon class="cls-5" points="656.99 229.28 656.99 222.82 465.68 266.86 465.68 273.1 523.67 306.92 656.99 229.28"/><polygon class="cls-6" points="656.99 229.28 656.99 222.82 523.67 277.77 523.67 306.92 656.99 229.28"/><polygon class="cls-7" points="657.23 222.74 599 188.92 465.68 266.55 523.89 300.37 657.23 222.74"/><polygon class="cls-12" points="523.36 306.7 465.68 273.41 465.68 386.02 523.36 419.31 523.36 306.7"/><polygon class="cls-5" points="465.68 379.15 465.68 386.25 523.36 419.55 523.36 412.44 465.68 379.15"/><polygon class="cls-18" points="523.36 306.94 657.41 229.28 657.41 341.89 523.36 419.55 523.36 306.94"/><polygon class="cls-19" points="642.42 222.94 599.15 198.09 480.76 267.03 524.01 291.88 642.42 222.94"/><polygon class="cls-5" points="599.77 197.32 480.22 266.93 487.47 271.13 599.77 205.74 636.47 226.82 643.74 222.58 599.77 197.32"/><polygon class="cls-22" points="599.77 197.32 480.22 266.93 487.47 271.13 599.77 205.74 599.77 197.32"/><polygon class="cls-6" points="523.49 412.48 523.49 419.62 657.52 341.97 657.52 334.82 523.49 412.48"/><polygon class="cls-5" points="623.55 118.49 623.55 109.84 245.82 109.37 245.82 117.81 437.96 227.41 623.55 118.49"/><polygon class="cls-6" points="623.55 118.49 623.55 109.84 437.96 149.14 437.96 227.41 623.55 118.49"/><polygon class="cls-7" points="623.55 109.61 431.41 0 245.82 108.91 437.96 218.52 623.55 109.61"/><polygon class="cls-19" points="609.99 109.58 431.65 7.85 259.39 108.94 437.74 210.66 609.99 109.58"/><polygon class="cls-5" points="431.65 17.21 601.9 114.32 609.99 109.58 431.65 7.85 259.39 108.94 267.47 113.55 431.65 17.21"/><polygon class="cls-6" points="431.65 17.21 431.65 7.85 259.39 108.94 267.47 113.55 431.65 17.21"/><polygon class="cls-21" points="394.46 235.3 394.46 213.03 311.51 165.16 311.51 187.43 394.46 235.3"/><polygon class="cls-23" points="375.01 201.75 354.58 213.32 359.37 216.27 379.75 204.59 375.01 201.75"/><polygon class="cls-23" points="349.95 187.43 329.52 199 334.3 201.95 354.69 190.27 349.95 187.43"/><polygon class="cls-16" points="394.46 235.3 394.46 227.01 382.28 221.13 370.06 221.13 394.46 235.3"/><polygon class="cls-9" points="570.44 112.71 503.06 73.81 484.68 148.18 508.36 148.44 570.44 112.71"/><polygon class="cls-5" points="551.53 109.62 551.53 98.76 417.17 99.28 417.17 109.38 484.57 148.3 551.53 109.62"/><polygon class="cls-6" points="551.53 109.62 551.53 98.76 484.57 120.29 484.57 148.3 551.53 109.62"/><polygon class="cls-7" points="551.14 98.82 483.75 59.9 416.8 98.57 484.18 137.48 551.14 98.82"/><polygon class="cls-19" points="495.25 122.13 483.41 115.31 471.66 122.1 483.48 128.93 495.25 122.13"/><polygon class="cls-7" points="494.48 120.1 480.6 128.11 480.61 128.77 494.48 120.76 494.48 120.1"/><polygon class="cls-7" points="492.64 118.94 478.77 126.95 478.77 127.61 492.64 119.6 492.64 118.94"/><polygon class="cls-7" points="490.9 118.07 477.03 126.08 477.03 126.74 490.9 118.73 490.9 118.07"/><polygon class="cls-7" points="489.08 117.1 475.19 125.11 475.19 125.77 489.08 117.77 489.08 117.1"/><polygon class="cls-7" points="487.33 116.05 473.46 124.06 473.46 124.72 487.33 116.7 487.33 116.05"/><polygon class="cls-7" points="485.88 115.28 472.01 123.29 472.01 123.94 485.88 115.94 485.88 115.28"/><polygon class="cls-19" points="515.82 109.98 503.99 103.15 492.23 109.94 504.06 116.77 515.82 109.98"/><polygon class="cls-7" points="515.05 107.93 501.18 115.96 501.18 116.61 515.05 108.6 515.05 107.93"/><polygon class="cls-7" points="513.22 106.78 499.35 114.79 499.35 115.45 513.22 107.44 513.22 106.78"/><polygon class="cls-7" points="511.48 105.91 497.6 113.93 497.61 114.58 511.48 106.57 511.48 105.91"/><polygon class="cls-7" points="509.66 104.94 495.78 112.95 495.78 113.62 509.66 105.6 509.66 104.94"/><polygon class="cls-7" points="507.92 103.89 494.04 111.89 494.04 112.55 507.92 104.54 507.92 103.89"/><polygon class="cls-7" points="506.47 103.11 492.59 111.12 492.59 111.79 506.47 103.77 506.47 103.11"/><polygon class="cls-19" points="535.71 98.05 523.87 91.22 512.11 98.01 523.94 104.84 535.71 98.05"/><polygon class="cls-7" points="534.93 96 521.06 104.02 521.06 104.68 534.93 96.67 534.93 96"/><polygon class="cls-7" points="533.1 94.85 519.22 102.86 519.22 103.52 533.1 95.51 533.1 94.85"/><polygon class="cls-7" points="531.37 93.99 517.5 102 517.5 102.66 531.37 94.64 531.37 93.99"/><polygon class="cls-7" points="529.52 93.02 515.65 101.03 515.65 101.69 529.52 93.68 529.52 93.02"/><polygon class="cls-7" points="527.79 91.96 513.92 99.97 513.92 100.63 527.79 92.62 527.79 91.96"/><polygon class="cls-7" points="526.34 91.18 512.46 99.19 512.47 99.86 526.34 91.84 526.34 91.18"/><path class="cls-19" d="M495.91,92c5.11-2.94,5.09-7.74,0-10.72s-13.46-3-18.57-.09-5.11,7.74,0,10.72S490.79,94.91,495.91,92Z" transform="translate(0 0)"/><path class="cls-1" d="M495.19,91.56c4.72-2.71,4.71-7.14,0-9.89s-12.42-2.79-17.14-.08-4.71,7.14,0,9.89S490.47,94.28,495.19,91.56Z" transform="translate(0 0)"/><g class="cls-24"><path class="cls-7" d="M486.34,88.49c-1,.57-1,1.5,0,2.09a4,4,0,0,0,3.64,0c1-.57,1-1.51,0-2.1A4,4,0,0,0,486.34,88.49Z" transform="translate(0 0)"/><path class="cls-7" d="M489.23,88.65s6.41-5.28,8.41-3.43S492.06,88.68,489.23,88.65Z" transform="translate(0 0)"/><path class="cls-7" d="M488.8,90.11s7.83,4.67,4.31,5.45S488.24,91.7,488.8,90.11Z" transform="translate(0 0)"/><path class="cls-7" d="M487.51,89.47s-11.22-.15-9.7-2.13S485.94,88.11,487.51,89.47Z" transform="translate(0 0)"/></g><path class="cls-9" d="M484.65,86.36c3.61-2.08,9.06-2.44,13.37-1.13a7.15,7.15,0,0,0-2.91-2.87c-4.48-2.59-11.7-2.62-16.16-.07s-4.44,6.72,0,9.33a14.73,14.73,0,0,0,2.77,1.19C480.67,90.58,481.62,88.09,484.65,86.36Z" transform="translate(0 0)"/><polygon class="cls-13" points="502.92 334.05 482.63 322.16 482.63 366.76 502.92 378.65 502.92 334.05"/><polygon class="cls-14" points="500.64 337.73 484.91 328.51 484.91 363.08 500.64 372.3 500.64 337.73"/><polygon class="cls-15" points="500.54 337.77 486.18 329.35 486.18 361.87 500.54 370.29 500.54 337.77"/><polygon class="cls-16" points="487.22 330.03 487.22 359.82 500.39 359.75 500.53 337.6 487.22 330.03"/><polygon class="cls-17" points="499.57 339.4 487.66 332.52 487.65 334.13 499.57 341 499.57 339.4"/><polygon class="cls-17" points="499.57 341.8 487.66 334.93 487.65 336.53 499.57 343.41 499.57 341.8"/><polygon class="cls-17" points="499.57 344.21 487.66 337.33 487.65 338.94 499.57 345.81 499.57 344.21"/><polygon class="cls-17" points="499.57 346.61 487.66 339.73 487.65 341.34 499.57 348.21 499.57 346.61"/><polygon class="cls-17" points="499.57 349.01 487.66 342.14 487.65 343.74 499.57 350.62 499.57 349.01"/><polygon class="cls-17" points="499.57 351.42 487.66 344.54 487.65 346.15 499.57 353.02 499.57 351.42"/><polygon class="cls-17" points="499.57 353.82 487.66 346.94 487.65 348.54 499.57 355.42 499.57 353.82"/><polygon class="cls-17" points="499.57 356.22 487.66 349.35 487.65 350.95 499.57 357.83 499.57 356.22"/><polygon class="cls-5" points="544.8 333.77 565.08 321.88 565.08 366.48 544.8 378.37 544.8 333.77"/><polygon class="cls-14" points="547.08 337.45 562.8 328.23 562.8 362.8 547.07 372.02 547.08 337.45"/><polygon class="cls-14" points="547.18 337.49 561.54 329.07 561.54 361.59 547.17 370.01 547.18 337.49"/><polygon class="cls-25" points="548.14 339.12 560.05 332.25 560.05 333.86 548.14 340.74 548.14 339.12"/><polygon class="cls-25" points="548.14 341.53 560.05 334.65 560.05 336.26 548.14 343.13 548.14 341.53"/><polygon class="cls-25" points="548.14 343.93 560.05 337.06 560.05 338.66 548.14 345.54 548.14 343.93"/><polygon class="cls-25" points="548.14 346.33 560.05 339.46 560.05 341.07 548.14 347.94 548.14 346.33"/><polygon class="cls-25" points="548.14 348.73 560.05 341.86 560.05 343.47 548.14 350.34 548.14 348.73"/><polygon class="cls-25" points="548.14 351.14 560.05 344.27 560.05 345.87 548.14 352.74 548.14 351.14"/><polygon class="cls-25" points="548.14 353.54 560.05 346.66 560.05 348.26 548.14 355.15 548.14 353.54"/><polygon class="cls-25" points="548.14 355.94 560.05 349.08 560.05 350.68 548.14 357.55 548.14 355.94"/><polygon class="cls-5" points="583.28 312.73 603.56 300.83 603.56 345.43 583.28 357.32 583.28 312.73"/><polygon class="cls-14" points="585.56 316.4 601.28 307.18 601.27 341.75 585.55 350.97 585.56 316.4"/><polygon class="cls-25" points="586.62 318.07 598.53 311.2 598.53 312.81 586.62 319.68 586.62 318.07"/><polygon class="cls-25" points="586.62 320.49 598.53 313.6 598.53 315.2 586.62 322.08 586.62 320.49"/><polygon class="cls-25" points="586.62 322.88 598.53 316.01 598.53 317.61 586.62 324.49 586.62 322.88"/><polygon class="cls-25" points="586.62 325.29 598.53 318.41 598.53 320.01 586.62 326.88 586.62 325.29"/><polygon class="cls-25" points="586.62 327.69 598.53 320.81 598.53 322.41 586.62 329.3 586.62 327.69"/><polygon class="cls-25" points="586.62 330.08 598.53 323.22 598.53 324.82 586.62 331.7 586.62 330.08"/><polygon class="cls-25" points="586.62 332.49 598.53 325.62 598.53 327.22 586.62 334.1 586.62 332.49"/><polygon class="cls-25" points="586.62 334.89 598.53 328.02 598.53 329.63 586.62 336.5 586.62 334.89"/><polygon class="cls-5" points="621.75 290.04 642.03 278.14 642.03 322.74 621.75 334.64 621.75 290.04"/><polygon class="cls-14" points="624.03 293.71 639.75 284.49 639.75 319.07 624.02 328.29 624.03 293.71"/><polygon class="cls-14" points="624.13 293.75 638.48 285.33 638.48 317.86 624.12 326.28 624.13 293.75"/><polygon class="cls-25" points="625.09 295.38 637 288.52 637 290.12 625.09 297 625.09 295.38"/><polygon class="cls-25" points="625.09 297.79 637 290.92 637 292.52 625.09 299.4 625.09 297.79"/><polygon class="cls-25" points="625.09 300.19 637 293.33 637 294.93 625.09 301.81 625.09 300.19"/><polygon class="cls-25" points="625.09 302.6 637 295.72 637 297.33 625.09 304.2 625.09 302.6"/><polygon class="cls-25" points="625.09 305 637 298.13 637 299.73 625.09 306.61 625.09 305"/><polygon class="cls-25" points="625.09 307.4 637 300.54 637 302.14 625.09 309.01 625.09 307.4"/><polygon class="cls-25" points="625.09 309.81 637 302.93 637 304.53 625.09 311.41 625.09 309.81"/><polygon class="cls-25" points="625.09 312.21 637 305.33 637 306.94 625.09 313.8 625.09 312.21"/><polygon class="cls-21" points="379.67 204.5 378.27 203.7 378.27 226.53 379.68 227.34 379.67 204.5"/><polygon class="cls-13" points="378.66 203.15 377.1 202.24 377.1 227.72 378.66 228.63 378.66 203.15"/><polygon class="cls-21" points="360.4 193.34 359 192.54 359 215.38 360.4 216.18 360.4 193.34"/><polygon class="cls-13" points="359.38 191.99 357.83 191.08 357.83 216.56 359.39 217.46 359.38 191.99"/><polygon class="cls-21" points="342.49 183.02 341.1 182.21 341.1 205.05 342.49 205.87 342.49 183.02"/><polygon class="cls-13" points="341.48 181.67 339.93 180.76 339.93 206.24 341.49 207.15 341.48 181.67"/><polygon class="cls-21" points="325.13 173.01 323.72 172.21 323.72 195.05 325.13 195.86 325.13 173.01"/><polygon class="cls-13" points="324.11 171.67 322.54 170.75 322.54 196.25 324.11 197.14 324.11 171.67"/><polygon class="cls-13" points="405.86 288.83 294.12 224.32 294.12 317.63 405.86 382.14 405.86 288.83"/><polygon class="cls-13" points="418.41 360.83 414.19 358.39 414.19 367.7 418.41 370.15 418.41 360.83"/><polygon class="cls-9" points="492.57 281.79 499.67 277.77 506.99 282.15 619.1 216.81 619.19 208.59 626.35 204.45 599.12 189 465.73 266.6 465.73 386.46 492.64 401.79 492.64 281.83 492.57 281.79"/><polygon class="cls-15" points="236.61 212.92 212.74 199.12 212.74 237.49 236.61 251.27 236.61 212.92"/><polygon class="cls-14" points="236.61 212.92 212.74 199.12 212.74 237.49 236.61 237.39 236.61 212.92"/><polygon class="cls-26" points="214.53 236.51 214.53 200.16 212.74 199.12 212.74 237.49 236.61 251.27 236.61 249.25 214.53 236.51"/><polygon class="cls-13" points="224.37 204.95 223.29 204.33 223.29 245.23 224.37 245.85 224.37 204.95"/><polygon class="cls-13" points="236.72 220.21 211.88 205.87 211.88 207.42 236.72 221.76 236.72 220.21"/><path class="cls-26" d="M236.47,205.49c-.19-6.77-4.95-14.86-10.8-18.23s-10.61-.8-10.8,5.76Z" transform="translate(0 0)"/><path class="cls-14" d="M235.48,204.25c-.17-6-4.39-13.19-9.58-16.18s-9.42-.7-9.58,5.11Z" transform="translate(0 0)"/><polygon class="cls-13" points="224.1 186.1 223.35 185.68 223.35 198.38 224.1 198.81 224.1 186.1"/><polygon class="cls-20" points="405.29 298.02 292.44 232.87 292.44 234.06 405.29 299.2 405.29 298.02"/><polygon class="cls-20" points="405.29 309.66 292.44 244.51 292.44 245.7 405.29 310.86 405.29 309.66"/><polygon class="cls-20" points="405.29 321.31 292.44 256.16 292.44 257.35 405.29 322.5 405.29 321.31"/><polygon class="cls-20" points="405.29 332.96 292.44 267.8 292.44 269 405.29 334.15 405.29 332.96"/><polygon class="cls-20" points="405.29 344.6 292.44 279.45 292.44 280.64 405.29 345.8 405.29 344.6"/><polygon class="cls-20" points="405.29 356.25 292.44 291.1 292.44 292.29 405.29 357.44 405.29 356.25"/><polygon class="cls-20" points="405.29 367.9 292.44 302.75 292.44 303.93 405.29 369.09 405.29 367.9"/><polygon class="cls-20" points="353.88 346.66 341.92 339.75 341.92 345.28 353.88 352.21 353.88 346.66"/><polygon class="cls-20" points="297.27 283.15 297.27 319.6 298.57 320.35 298.57 284.87 314.66 294.16 314.66 329.64 316.16 330.5 316.16 294.06 297.27 283.15"/></g></g></g></svg>