<svg xmlns="http://www.w3.org/2000/svg" xmlns:xlink="http://www.w3.org/1999/xlink" viewBox="0 0 1570.62 853.75"><defs><style>.cls-1{fill:#704b4b;}.cls-2{isolation:isolate;}.cls-3{fill:#dbd3aa;}.cls-4{fill:#595351;}.cls-5{fill:#301404;}.cls-29,.cls-5{opacity:0.3;}.cls-29,.cls-5,.cls-6{mix-blend-mode:multiply;}.cls-29,.cls-6{fill:#591805;}.cls-6{opacity:0.4;}.cls-7{fill:#dad0c4;}.cls-8{fill:#b19f9b;}.cls-9{fill:#eee6dd;}.cls-10{fill:#8b944b;}.cls-11{fill:#f1e5c0;}.cls-12{fill:#58747b;}.cls-13{fill:#708f96;}.cls-14{fill:#496168;}.cls-15{fill:#b49470;}.cls-16{fill:#d9bb93;}.cls-17{fill:#5e7e82;}.cls-18{fill:#d4c190;}.cls-19{fill:#4f696c;}.cls-20{fill:#638089;}.cls-21{fill:#7e5442;}.cls-22{fill:#694436;}.cls-23{fill:#bb8d7d;}.cls-24{fill:#aba085;}.cls-25{fill:#b6ab90;}.cls-26{fill:#a3977d;}.cls-27{fill:#92846b;}.cls-28{fill:#ad875e;}.cls-30{fill:#e2d2a9;}.cls-31{fill:#668289;}.cls-32{fill:#cfac8a;}.cls-33{fill:#e0ceb0;}.cls-34{fill:#f9edd6;}.cls-35{fill:#f0e0c5;}.cls-36{fill:#c05949;}.cls-37{fill:#f1d7d2;}.cls-38{fill:#45342f;}.cls-39{fill:#958c7c;}.cls-40{fill:#f6f1d3;}.cls-41{fill:#906868;}.cls-42{fill:#f4d8b7;}.cls-43{clip-path:url(#clip-path);}.cls-44{clip-path:url(#clip-path-2);}.cls-45{fill:#8c584b;}.cls-46{fill:#d7b44c;}.cls-47{fill:#caa682;}.cls-48{fill:#d7b594;}</style><clipPath id="clip-path"><path class="cls-1" d="M846.89,383.22c4.85-2.79,4.84-7.33,0-10.16s-12.76-2.86-17.61-.08-4.83,7.33,0,10.16S842,386,846.89,383.22Z"/></clipPath><clipPath id="clip-path-2"><path class="cls-1" d="M820.24,398.57c4.86-2.79,4.84-7.33,0-10.16s-12.74-2.86-17.6-.08-4.83,7.33,0,10.16S815.4,401.35,820.24,398.57Z"/></clipPath></defs><title>Recurso 38</title><g class="cls-2"><g id="Capa_2" data-name="Capa 2"><g id="ELEMENTOS_INDIVIDUALES" data-name="ELEMENTOS INDIVIDUALES"><polygon class="cls-3" points="1370.96 547.9 535.62 61.03 0 366.88 835.34 853.75 1370.96 547.9"/><polygon class="cls-4" points="1358.8 547.02 536.36 72.18 18.28 370.01 840.72 844.84 1358.8 547.02"/><polygon class="cls-5" points="859.21 646.78 986.69 646.78 1009.54 633.73 1072.05 640.7 1075.62 646.78 1392.62 646.78 1570.62 547.02 831.33 124.33 638.88 124.33 859.21 646.78"/><polygon class="cls-6" points="379 404.55 250.6 477.82 232.4 476.8 323.17 380.53 340.92 382.58 379 404.55"/><polygon class="cls-7" points="195.92 455.73 195.92 447.29 358.52 395.72 358.52 404.65 232.99 477.13 195.92 455.73"/><polygon class="cls-8" points="232.99 453.27 358.52 395.72 358.52 404.65 232.99 477.13 232.99 453.27"/><polygon class="cls-9" points="195.92 447.18 321.45 374.7 358.52 396.1 232.99 468.58 195.92 447.18"/><polygon class="cls-10" points="207.67 445.96 318.41 382.33 343.52 396.83 232.78 460.44 207.67 445.96"/><polygon class="cls-6" points="1263.78 547.97 1135.37 621.24 1117.17 620.23 1207.94 523.96 1225.69 526 1263.78 547.97"/><polygon class="cls-7" points="1080.69 599.16 1080.69 590.71 1243.3 539.14 1243.3 548.08 1117.77 620.55 1080.69 599.16"/><polygon class="cls-8" points="1117.77 596.69 1243.3 539.14 1243.3 548.08 1117.77 620.55 1117.77 596.69"/><polygon class="cls-9" points="1080.69 590.61 1206.23 518.13 1243.3 539.53 1117.77 612.01 1080.69 590.61"/><polygon class="cls-10" points="1092.45 589.38 1203.19 525.75 1228.29 540.25 1117.55 603.86 1092.45 589.38"/><polygon class="cls-11" points="214.96 385.05 213.54 382.57 538.92 194.71 431.86 132.89 433.3 130.42 544.64 194.71 214.96 385.05"/><polygon class="cls-11" points="491.55 223.69 401.25 171.55 398.79 172.97 489.1 225.11 491.55 223.69"/><polygon class="cls-11" points="421.57 265.11 331.26 212.98 328.81 214.4 419.11 266.53 421.57 265.11"/><polygon class="cls-11" points="358 301.54 267.7 249.4 265.24 250.82 355.54 302.96 358 301.54"/><polygon class="cls-11" points="289.44 341.54 199.13 289.4 196.68 290.81 286.98 342.95 289.44 341.54"/><rect class="cls-6" x="566.53" y="482.66" width="17.14" height="16.51"/><rect class="cls-6" x="821.51" y="617.26" width="37.57" height="24.04"/><polygon class="cls-12" points="1055.78 504.92 1055.78 448.04 407.49 343.24 407.49 401.36 821.27 640.26 1055.78 504.92"/><polygon class="cls-13" points="819.53 620.76 603.99 496.95 582.09 496.32 820.05 634.96 819.53 620.76"/><rect class="cls-12" x="719.86" y="579.78" width="33.81" height="1.97"/><rect class="cls-12" x="691.28" y="563.35" width="33.81" height="1.96"/><polygon class="cls-14" points="1055.78 504.92 1055.78 448.04 821.27 545.22 821.27 640.26 1055.78 504.92"/><polygon class="cls-15" points="859.05 646.78 1070.76 439.57 836.26 536.74 836.26 631.78 859.05 646.78"/><polygon class="cls-16" points="1093.57 511.44 1093.57 454.56 859.07 551.73 859.07 646.77 1093.57 511.44"/><polygon class="cls-14" points="1073.98 514.33 1073.98 473.24 904.55 543.45 904.55 612.11 1073.98 514.33"/><polygon class="cls-17" points="961.74 572.19 905.56 560.76 907.29 604.36 961.74 572.19"/><polygon class="cls-18" points="570.23 425.5 692.96 363.4 353.63 308.54 353.63 371.29 567.24 498.85 570.23 496.34 570.23 425.5"/><polygon class="cls-11" points="567.13 428.12 689.87 366.02 350.54 311.16 350.54 373.92 567.13 498.96 567.13 428.12"/><polygon class="cls-19" points="521.75 409 601.67 368.55 380.71 332.83 380.71 373.7 521.75 455.13 521.75 409"/><polygon class="cls-20" points="521.53 406.78 604.29 367.61 383.33 331.88 383.33 372.75 521.53 452.9 521.53 406.78"/><rect class="cls-11" x="497.01" y="414.57" width="1.19" height="32.86"/><rect class="cls-11" x="474.63" y="398.86" width="1.19" height="32.86"/><rect class="cls-11" x="440.11" y="380.76" width="1.19" height="32.86"/><rect class="cls-11" x="412.26" y="362.44" width="1.19" height="32.85"/><polygon class="cls-6" points="1117.63 446.26 1117.63 374.81 353.88 272.16 353.88 345.16 823.08 616.25 1117.63 446.26"/><polygon class="cls-16" points="821.21 588.35 819.53 587.37 819.53 639.43 821.21 640.39 821.21 588.35"/><polygon class="cls-6" points="691.69 513.26 690.01 512.3 690.01 564.35 691.69 565.32 691.69 513.26"/><polygon class="cls-16" points="690.42 512.79 688.75 511.82 688.75 563.87 690.42 564.84 690.42 512.79"/><polygon class="cls-6" points="719.62 529.93 717.95 528.97 717.95 581.01 719.62 581.99 719.62 529.93"/><polygon class="cls-6" points="749.31 546.91 747.63 545.95 747.63 598 749.31 598.97 749.31 546.91"/><polygon class="cls-16" points="747.88 546.12 746.2 545.15 746.2 597.21 747.88 598.17 747.88 546.12"/><polygon class="cls-16" points="718.36 529.29 716.69 528.33 716.69 580.38 718.36 581.35 718.36 529.29"/><polygon class="cls-15" points="821.28 588.66 822.95 587.69 822.95 639.75 821.28 640.71 821.28 588.66"/><polygon class="cls-21" points="1148.67 455.7 1148.67 384.24 334.33 252.61 334.33 325.61 854.11 625.69 1148.67 455.7"/><polygon class="cls-22" points="1148.67 455.7 1148.67 384.24 854.11 416.88 854.11 625.69 1148.67 455.7"/><polygon class="cls-23" points="1149.58 383.6 1149.58 374.03 334.33 240.47 334.33 251.31 854.11 551.4 1149.58 383.6"/><polygon class="cls-11" points="1149.58 373.17 628.78 70.89 334.33 240.9 854.11 540.98 1149.58 373.17"/><polygon class="cls-24" points="1131.82 370.56 630.79 80.18 351.69 241.31 851.77 529.62 1131.82 370.56"/><polygon class="cls-25" points="1131.84 370.53 646.65 89.34 376.38 245.38 860.64 524.57 1131.84 370.53"/><polygon class="cls-26" points="630.79 90.61 1122.74 375.72 1131.82 370.56 630.79 80.18 351.69 241.31 360.72 246.52 630.79 90.61"/><polygon class="cls-27" points="630.79 90.61 630.79 80.18 351.69 241.31 360.72 246.52 630.79 90.61"/><polygon class="cls-6" points="868.42 209.99 716.68 121.74 702.07 121.18 695.73 124.59 657.72 119.5 723.51 245.68 821.81 245.68 859.71 223.28 861.44 213.87 868.42 209.99"/><path class="cls-6" d="M735.45,248.16a112,112,0,0,0-29-4L596.24,181.36,494.83,204.9,560.61,330h98.3l48.62-27.51c13.25-.8,26.41-3.67,37.34-8.87C774.72,279.44,768.85,257.68,735.45,248.16Z"/><polygon class="cls-15" points="723.95 195.85 775.73 165.55 775.73 216.09 723.96 246.39 723.95 195.85"/><polygon class="cls-16" points="724.31 195.85 593.86 120.53 593.86 171.08 724.31 246.39 724.31 195.85"/><polygon class="cls-11" points="724.26 196.31 775.88 165.77 645.16 90.04 593.7 120.57 724.26 196.31"/><polygon class="cls-16" points="747.63 202.72 762.68 193.66 762.68 223.75 747.63 232.8 747.63 202.72"/><polygon class="cls-6" points="682.52 182.48 667.91 174.13 667.91 179.73 682.52 188.09 682.52 182.48"/><polygon class="cls-6" points="703.47 193.91 688.86 185.55 688.86 191.16 703.47 199.52 703.47 193.91"/><polygon class="cls-6" points="1097.2 342.46 942.53 252.88 930.32 252.88 924.92 258.24 881.47 252.88 947.25 379.05 1045.55 379.05 1086.78 354.99 1090.31 346.49 1097.2 342.46"/><polygon class="cls-15" points="946.83 328.8 998.6 298.49 998.6 349.03 946.83 379.33 946.83 328.8"/><polygon class="cls-16" points="947.19 328.8 816.74 253.48 816.74 304.02 947.19 379.33 947.19 328.8"/><polygon class="cls-11" points="947.14 329.25 998.74 298.71 868.04 222.98 816.59 253.52 947.14 329.25"/><polygon class="cls-16" points="970.51 335.66 985.55 326.61 985.55 356.69 970.51 365.75 970.51 335.66"/><polygon class="cls-6" points="905.4 315.43 890.78 307.07 890.78 312.68 905.4 321.04 905.4 315.43"/><polygon class="cls-6" points="885.88 304.47 871.26 296.11 871.26 301.73 885.88 310.08 885.88 304.47"/><polygon class="cls-6" points="866.83 294 852.22 285.64 852.22 291.25 866.83 299.62 866.83 294"/><polygon class="cls-15" points="662.59 270.47 662.59 229.89 457.05 228.15 457.05 270.11 560.14 329.62 662.59 270.47"/><polygon class="cls-11" points="560.16 269.75 457.05 228.15 457.05 270.11 560.14 329.62 560.16 269.75"/><polygon class="cls-28" points="662.59 234.93 662.72 230.3 457.33 229.35 457.05 234.56 560.14 294.08 662.59 234.93"/><polygon class="cls-11" points="662.59 229.86 559.5 170.34 457.05 229.48 560.14 289.01 662.59 229.86"/><polygon class="cls-29" points="601.13 265.38 662.59 229.86 559.5 170.34 510.59 198.57 545.58 265.54 601.13 265.38"/><polygon class="cls-30" points="612.21 226.76 612.21 200.24 477.88 199.1 477.88 226.52 545.26 265.42 612.21 226.76"/><path class="cls-29" d="M531,233c21-2.48,39.56-16.16,47.08-33l-92-.79C485.43,221,505.21,236,531,233Z"/><polygon class="cls-15" points="612.21 226.76 612.21 198.88 545.26 226.52 545.26 265.42 612.21 226.76"/><polygon class="cls-11" points="612.21 198.93 544.84 160.03 477.88 198.69 545.26 237.59 612.21 198.93"/><polygon class="cls-11" points="658.15 464.22 622.41 443.58 622.41 457.25 658.15 477.89 658.15 464.22"/><polygon class="cls-12" points="656.7 463.48 626.12 445.86 626.11 457.55 656.7 475.15 656.7 463.48"/><polygon class="cls-11" points="608.31 436.31 572.56 415.67 572.56 429.33 608.31 449.98 608.31 436.31"/><polygon class="cls-12" points="606.85 435.56 576.27 417.95 576.27 429.63 606.85 447.25 606.85 435.56"/><polygon class="cls-11" points="560.46 409.99 524.71 389.35 524.71 403.02 560.46 423.66 560.46 409.99"/><polygon class="cls-12" points="559 409.24 528.41 391.63 528.41 403.32 559 420.93 559 409.24"/><polygon class="cls-31" points="654.59 462.26 640.43 454.11 633.9 462.04 646.64 469.37 654.59 462.26"/><polygon class="cls-31" points="603.16 433.69 589 425.54 582.48 433.46 595.21 440.79 603.16 433.69"/><polygon class="cls-31" points="556.98 407.98 542.82 399.82 536.29 407.75 549.03 415.08 556.98 407.98"/><polygon class="cls-15" points="527.73 166.02 521.53 166.02 522.49 183.64 559.63 210.07 560.11 198.39 527.73 166.02"/><polygon class="cls-32" points="527.73 177.45 521.53 177.45 521.53 209.83 560.11 209.83 527.73 177.45"/><path class="cls-29" d="M553.39,232.9l58.82-34-40.92-23.62c-24.75-3.18-51.83,1.6-67.24,11.29-9.23,5.79-13.53,12.91-12.74,19.85l44.37,25.61A127.56,127.56,0,0,0,553.39,232.9Z"/><path class="cls-33" d="M509,215.77c19.77-10.89,36.17-38.12,36.63-60.83s-15.2-32.29-35-21.41S474.45,171.66,474,194.37,489.19,226.65,509,215.77Z"/><path class="cls-34" d="M505.28,214.53c18.8-9.94,35.31-36.3,36.88-58.86s-12.4-32.79-31.19-22.85-35.32,36.32-36.89,58.88S486.48,224.49,505.28,214.53Z"/><path class="cls-35" d="M510.48,135c-17.72,9.38-33.29,34.22-34.78,55.49-.63,9.14,1.44,16.12,5.41,20.37.59-.28,1.19-.58,1.79-.9,23.6-12.48,44.33-45.56,46.3-73.88.08-1.2.12-2.37.14-3.51C524.29,130.54,517.77,131.16,510.48,135Z"/><polygon class="cls-34" points="515.5 179.59 470.04 155.06 516.69 177.21 515.5 179.59"/><polygon class="cls-33" points="516.78 179.91 532.88 172.68 517.33 177.53 516.78 179.91"/><path class="cls-6" d="M692.24,126.86l-39.36-.52v0a.85.85,0,0,0-.26,0c-.82,0-1.49,1.39-1.49,3.09s.67,3.1,1.49,3.1a.85.85,0,0,0,.26-.05v.05l39.36-.53,9.93-.12,14.85-.21-7.91-4.58-6.94-.1Z"/><polygon class="cls-36" points="654.79 0 652.08 0 650.34 130.47 656.52 130.47 654.79 0"/><polygon class="cls-37" points="655.6 61.26 651.26 61.26 650.86 91.1 656 91.1 655.6 61.26"/><polygon class="cls-37" points="654.79 0 652.08 0 651.7 28.25 655.16 28.25 654.79 0"/><path class="cls-36" d="M656.52,130.73c0-.83-1.38-1.49-3.09-1.49s-3.09.66-3.09,1.49,1.38,1.48,3.09,1.48S656.52,131.55,656.52,130.73Z"/><path class="cls-6" d="M656.52,130.47,656,91.1l-.13-9.93-.71-52.92L654.79,0h-1.12V132.2c1.59-.06,2.85-.7,2.85-1.47a.6.6,0,0,0,0-.26Z"/><path class="cls-6" d="M726.52,144.72l-39.36-.53v.05a.8.8,0,0,0-.26-.05c-.82,0-1.48,1.39-1.48,3.1s.66,3.09,1.48,3.09a.8.8,0,0,0,.26,0v0l39.36-.51,9.93-.14,14.86-.2L743.39,145l-6.94-.1Z"/><polygon class="cls-36" points="689.07 17.85 686.36 17.85 684.62 148.32 690.81 148.32 689.07 17.85"/><polygon class="cls-37" points="689.88 79.12 685.54 79.12 685.15 108.96 690.28 108.96 689.88 79.12"/><polygon class="cls-37" points="689.07 17.85 686.36 17.85 685.98 46.1 689.44 46.1 689.07 17.85"/><path class="cls-36" d="M690.81,148.58c0-.82-1.39-1.49-3.1-1.49s-3.09.67-3.09,1.49,1.38,1.49,3.09,1.49S690.81,149.4,690.81,148.58Z"/><path class="cls-6" d="M690.81,148.32,690.29,109,690.15,99l-.71-52.93-.37-28.25H688V150.06c1.6-.06,2.86-.69,2.86-1.48a.8.8,0,0,0,0-.26Z"/><path class="cls-6" d="M869.53,269.7c10.78,6.54,28.55,6.9,39.68.8s11.42-16.36.63-22.91-28.55-6.9-39.68-.8S858.74,263.15,869.53,269.7Z"/><polygon class="cls-38" points="893.14 258.03 877.67 238.27 879.17 237.09 894.64 256.85 893.14 258.03"/><polygon class="cls-38" points="878.64 265.96 876.77 265.58 882.09 239.37 883.95 239.75 878.64 265.96"/><path class="cls-34" d="M876,260.19c9.41-8.4,14.94-25.28,12.36-37.71s-12.32-15.69-21.73-7.29-14.94,25.28-12.36,37.72S866.55,268.61,876,260.19Z"/><path class="cls-35" d="M855.86,251.46a19.45,19.45,0,0,0,1.44,4.44,16.43,16.43,0,0,0,6.78-3.88c8.52-7.6,13.53-22.88,11.19-34.13a20.84,20.84,0,0,0-1.45-4.44,16.69,16.69,0,0,0-6.79,3.88C858.52,224.93,853.52,240.21,855.86,251.46Z"/><path class="cls-39" d="M873.24,239.2c.46-1.19.52-2.19.14-2.21s-1.06.91-1.52,2.1-.52,2.2-.14,2.23S872.79,240.41,873.24,239.2Z"/><path class="cls-6" d="M910.48,294.22c10.79,6.55,28.55,6.9,39.68.8s11.42-16.36.64-22.9-28.56-6.91-39.69-.81S899.69,287.68,910.48,294.22Z"/><rect class="cls-38" x="926.15" y="259.53" width="1.9" height="25.1" transform="translate(29.39 629.38) rotate(-38.06)"/><rect class="cls-38" x="907.94" y="276.24" width="26.75" height="1.9" transform="translate(465.74 1124.61) rotate(-78.48)"/><path class="cls-34" d="M916.91,284.72c9.41-8.4,14.94-25.29,12.36-37.72s-12.32-15.69-21.73-7.29S892.6,265,895.18,277.43,907.5,293.13,916.91,284.72Z"/><path class="cls-35" d="M896.81,276a20,20,0,0,0,1.44,4.43,16.56,16.56,0,0,0,6.78-3.87c8.53-7.61,13.53-22.89,11.19-34.14a20,20,0,0,0-1.45-4.43,16.45,16.45,0,0,0-6.78,3.87C899.47,249.45,894.46,264.73,896.81,276Z"/><path class="cls-39" d="M914.19,263.73c.45-1.2.53-2.19.15-2.23s-1.06.92-1.53,2.12-.51,2.2-.13,2.23S913.73,264.93,914.19,263.73Z"/><polygon class="cls-6" points="924.17 404.94 854.97 364.99 836.08 441.37 860.41 441.63 924.17 404.94"/><polygon class="cls-16" points="904.75 401.77 904.75 390.62 766.77 391.14 766.77 401.52 835.97 441.48 904.75 401.77"/><polygon class="cls-15" points="904.75 401.77 904.75 390.62 835.97 412.73 835.97 441.48 904.75 401.77"/><polygon class="cls-40" points="904.35 390.68 835.14 350.71 766.37 390.42 835.57 430.38 904.35 390.68"/><polygon class="cls-41" points="846.93 414.63 834.79 407.6 822.71 414.58 834.86 421.6 846.93 414.63"/><polygon class="cls-42" points="846.15 412.53 831.9 420.76 831.9 421.43 846.15 413.21 846.15 412.53"/><polygon class="cls-42" points="844.27 411.34 830.01 419.57 830.01 420.24 844.27 412.02 844.27 411.34"/><polygon class="cls-42" points="842.49 410.45 828.24 418.67 828.24 419.36 842.49 411.12 842.49 410.45"/><polygon class="cls-42" points="840.6 409.46 826.35 417.68 826.35 418.36 840.6 410.14 840.6 409.46"/><polygon class="cls-42" points="838.82 408.37 824.57 416.59 824.57 417.27 838.82 409.05 838.82 408.37"/><polygon class="cls-42" points="837.33 407.57 823.08 415.8 823.08 416.48 837.33 408.25 837.33 407.57"/><polygon class="cls-41" points="868.07 402.14 855.92 395.12 843.85 402.09 856 409.11 868.07 402.14"/><polygon class="cls-42" points="867.29 400.03 853.03 408.26 853.04 408.95 867.29 400.71 867.29 400.03"/><polygon class="cls-42" points="865.4 398.85 851.16 407.07 851.16 407.76 865.4 399.52 865.4 398.85"/><polygon class="cls-42" points="863.62 397.96 849.37 406.19 849.37 406.86 863.62 398.63 863.62 397.96"/><polygon class="cls-42" points="861.74 396.97 847.49 405.19 847.49 405.87 861.74 397.64 861.74 396.97"/><polygon class="cls-42" points="859.95 395.88 845.7 404.11 845.7 404.78 859.95 396.55 859.95 395.88"/><polygon class="cls-42" points="858.47 395.08 844.22 403.31 844.22 403.99 858.47 395.76 858.47 395.08"/><polygon class="cls-41" points="888.49 389.89 876.34 382.86 864.26 389.84 876.41 396.86 888.49 389.89"/><polygon class="cls-42" points="887.71 387.79 873.46 396.01 873.46 396.7 887.71 388.46 887.71 387.79"/><polygon class="cls-42" points="885.82 386.59 871.57 394.82 871.57 395.5 885.82 387.28 885.82 386.59"/><polygon class="cls-42" points="884.04 385.7 869.79 393.94 869.79 394.62 884.04 386.38 884.04 385.7"/><polygon class="cls-42" points="882.16 384.71 867.9 392.94 867.9 393.63 882.16 385.39 882.16 384.71"/><polygon class="cls-42" points="880.37 383.62 866.12 391.85 866.12 392.54 880.37 384.3 880.37 383.62"/><polygon class="cls-42" points="878.88 382.83 864.63 391.06 864.64 391.74 878.88 383.51 878.88 382.83"/><path class="cls-41" d="M847.62,383.64c5.25-3,5.24-7.94,0-11s-13.82-3.1-19.07-.09-5.24,7.95,0,11S842.37,386.66,847.62,383.64Z"/><path class="cls-1" d="M846.89,383.22c4.85-2.79,4.84-7.33,0-10.16s-12.76-2.86-17.61-.08-4.83,7.33,0,10.16S842,386,846.89,383.22Z"/><g class="cls-43"><path class="cls-42" d="M837.8,380.06a1.14,1.14,0,0,0,0,2.15,4.14,4.14,0,0,0,3.74,0,1.14,1.14,0,0,0,0-2.16A4.15,4.15,0,0,0,837.8,380.06Z"/><path class="cls-42" d="M840.76,380.24s6.59-5.43,8.65-3.52S843.67,380.26,840.76,380.24Z"/><path class="cls-42" d="M840.32,381.73s8,4.81,4.43,5.6S839.75,383.37,840.32,381.73Z"/><path class="cls-42" d="M839,381.08s-11.53-.16-10-2.2S837.39,379.67,839,381.08Z"/></g><path class="cls-6" d="M836.06,377.87c3.71-2.12,9.31-2.5,13.73-1.14a7.37,7.37,0,0,0-3-3c-4.59-2.66-12-2.7-16.59-.07s-4.56,6.91,0,9.58a13.82,13.82,0,0,0,2.85,1.22C832,382.21,833,379.66,836.06,377.87Z"/><path class="cls-41" d="M821,399c5.25-3,5.24-7.95,0-11s-13.8-3.09-19.06-.08-5.24,8,0,11S815.73,402,821,399Z"/><path class="cls-1" d="M820.24,398.57c4.86-2.79,4.84-7.33,0-10.16s-12.74-2.86-17.6-.08-4.83,7.33,0,10.16S815.4,401.35,820.24,398.57Z"/><g class="cls-44"><path class="cls-42" d="M811.16,395.4c-1,.59-1,1.56,0,2.16a4.18,4.18,0,0,0,3.73,0,1.14,1.14,0,0,0,0-2.16A4.14,4.14,0,0,0,811.16,395.4Z"/><path class="cls-42" d="M814.12,395.58s6.59-5.43,8.65-3.52S817,395.61,814.12,395.58Z"/><path class="cls-42" d="M813.68,397.08s8.05,4.81,4.43,5.59S813.11,398.71,813.68,397.08Z"/><path class="cls-42" d="M812.35,396.42s-11.52-.15-10-2.19S810.75,395,812.35,396.42Z"/></g><path class="cls-6" d="M809.42,393.22c3.71-2.13,9.31-2.5,13.73-1.15a7.24,7.24,0,0,0-3-2.95c-4.59-2.67-12-2.7-16.59-.08s-4.56,6.91,0,9.57a13.46,13.46,0,0,0,2.84,1.23C805.33,397.56,806.32,395,809.42,393.22Z"/><polygon class="cls-38" points="700.86 383.86 700.63 383.72 583.26 316.45 583.26 289.04 584.21 289.04 584.21 315.9 700.87 382.77 833.44 313.68 833.88 314.53 700.86 383.86"/><polygon class="cls-45" points="701.04 380.84 586.29 314.06 586.29 286.65 587.24 286.65 587.24 313.51 701.06 379.75 830.66 311.62 831.11 312.46 701.04 380.84"/><polygon class="cls-46" points="701.43 376.55 701.21 376.42 589.87 311.52 589.87 284.11 590.82 284.11 590.82 310.97 701.46 375.46 828.2 308.93 828.64 309.77 701.43 376.55"/><polygon class="cls-47" points="594.24 281.09 581.05 288.65 581.05 302.36 594.24 294.79 594.24 281.09"/><polygon class="cls-48" points="595.99 281.4 582.79 288.96 582.79 302.68 595.98 295.11 595.99 281.4"/><polygon class="cls-11" points="835.63 309.83 824.23 303.24 824.23 309.4 835.63 315.99 835.63 309.83"/><rect class="cls-12" x="749.38" y="596.68" width="37.37" height="1.97"/></g></g></g></svg>