<svg xmlns="http://www.w3.org/2000/svg" xmlns:xlink="http://www.w3.org/1999/xlink" viewBox="0 0 412.13 362.44"><defs><style>.cls-1{fill:none;}.cls-2{isolation:isolate;}.cls-3{fill:#ebae81;}.cls-4{fill:#f0c97d;}.cls-5{fill:#da8c76;}.cls-6{fill:#b75a69;}.cls-7{fill:#f7e8c6;}.cls-8{fill:#793767;}.cls-9{fill:#c0cad4;}.cls-10,.cls-11,.cls-12,.cls-13,.cls-14,.cls-15,.cls-16,.cls-17,.cls-18,.cls-19,.cls-20,.cls-24,.cls-25,.cls-26,.cls-27,.cls-28,.cls-29,.cls-31,.cls-32,.cls-34,.cls-35,.cls-36,.cls-37,.cls-38,.cls-39,.cls-40,.cls-41,.cls-42,.cls-43,.cls-44,.cls-45,.cls-46,.cls-47,.cls-48,.cls-49,.cls-50,.cls-51,.cls-52,.cls-53,.cls-54{mix-blend-mode:soft-light;}.cls-10{fill:url(#Degradado_sin_nombre_4);}.cls-11{fill:url(#Degradado_sin_nombre_4-2);}.cls-12{fill:url(#Degradado_sin_nombre_4-3);}.cls-13{fill:url(#Degradado_sin_nombre_4-4);}.cls-14{fill:url(#Degradado_sin_nombre_4-5);}.cls-15{fill:url(#Degradado_sin_nombre_4-6);}.cls-16{fill:url(#Degradado_sin_nombre_4-7);}.cls-17{fill:url(#Degradado_sin_nombre_4-8);}.cls-18{fill:url(#Degradado_sin_nombre_4-9);}.cls-19{fill:url(#Degradado_sin_nombre_4-10);}.cls-20{fill:url(#Degradado_sin_nombre_4-11);}.cls-21{fill:#9caebb;}.cls-22{clip-path:url(#clip-path);}.cls-23{fill:#632d54;}.cls-24{fill:url(#Degradado_sin_nombre_4-12);}.cls-25{fill:url(#Degradado_sin_nombre_4-13);}.cls-26{fill:url(#Degradado_sin_nombre_4-14);}.cls-27{fill:url(#Degradado_sin_nombre_4-15);}.cls-28{fill:url(#Degradado_sin_nombre_4-16);}.cls-29{fill:url(#Degradado_sin_nombre_4-17);}.cls-30{clip-path:url(#clip-path-2);}.cls-31{fill:url(#Degradado_sin_nombre_4-18);}.cls-32{fill:url(#Degradado_sin_nombre_4-19);}.cls-33{fill:#9dc44d;}.cls-34{fill:url(#Degradado_sin_nombre_4-20);}.cls-35{fill:url(#Degradado_sin_nombre_4-21);}.cls-36{fill:url(#Degradado_sin_nombre_4-22);}.cls-37{fill:url(#Degradado_sin_nombre_4-23);}.cls-38{fill:url(#Degradado_sin_nombre_4-24);}.cls-39{fill:url(#Degradado_sin_nombre_4-25);}.cls-40{fill:url(#Degradado_sin_nombre_4-26);}.cls-41{fill:url(#Degradado_sin_nombre_4-27);}.cls-42{fill:url(#Degradado_sin_nombre_4-28);}.cls-43{fill:url(#Degradado_sin_nombre_4-29);}.cls-44{fill:url(#Degradado_sin_nombre_4-30);}.cls-45{fill:url(#Degradado_sin_nombre_4-31);}.cls-46{fill:url(#Degradado_sin_nombre_4-32);}.cls-47{fill:url(#Degradado_sin_nombre_4-33);}.cls-48{fill:url(#Degradado_sin_nombre_4-34);}.cls-49{fill:url(#Degradado_sin_nombre_4-35);}.cls-50{fill:url(#Degradado_sin_nombre_4-36);}.cls-51{fill:url(#Degradado_sin_nombre_4-37);}.cls-52{fill:url(#Degradado_sin_nombre_4-38);}.cls-53{fill:url(#Degradado_sin_nombre_4-39);}.cls-54{fill:url(#Degradado_sin_nombre_4-40);}.cls-55{fill:#9cae63;}.cls-56{clip-path:url(#clip-path-3);}</style><linearGradient id="Degradado_sin_nombre_4" x1="48.84" y1="178.04" x2="51.69" y2="181.69" gradientUnits="userSpaceOnUse"><stop offset="0" stop-color="#fff"/><stop offset="1" stop-color="#fff" stop-opacity="0"/></linearGradient><linearGradient id="Degradado_sin_nombre_4-2" x1="49.56" y1="180.99" x2="51.75" y2="183.72" xlink:href="#Degradado_sin_nombre_4"/><linearGradient id="Degradado_sin_nombre_4-3" x1="53.85" y1="182.9" x2="56.46" y2="179.49" xlink:href="#Degradado_sin_nombre_4"/><linearGradient id="Degradado_sin_nombre_4-4" x1="55.01" y1="183.89" x2="57.6" y2="180.42" xlink:href="#Degradado_sin_nombre_4"/><linearGradient id="Degradado_sin_nombre_4-5" x1="50.34" y1="176.75" x2="56.37" y2="176.75" xlink:href="#Degradado_sin_nombre_4"/><linearGradient id="Degradado_sin_nombre_4-6" x1="10774.64" y1="161.37" x2="10780.42" y2="168.73" gradientTransform="matrix(-1, 0, 0, 1, 11108.38, 0)" xlink:href="#Degradado_sin_nombre_4"/><linearGradient id="Degradado_sin_nombre_4-7" x1="10786.65" y1="168.59" x2="10789.68" y2="172.83" gradientTransform="matrix(-1, 0, 0, 1, 11108.38, 0)" xlink:href="#Degradado_sin_nombre_4"/><linearGradient id="Degradado_sin_nombre_4-8" x1="10781.08" y1="168.37" x2="10786.85" y2="176.2" gradientTransform="matrix(-1, 0, 0, 1, 11108.38, 0)" xlink:href="#Degradado_sin_nombre_4"/><linearGradient id="Degradado_sin_nombre_4-9" x1="10775.3" y1="153.75" x2="10778.8" y2="158.59" gradientTransform="matrix(-1, 0, 0, 1, 11108.38, 0)" xlink:href="#Degradado_sin_nombre_4"/><linearGradient id="Degradado_sin_nombre_4-10" x1="10773.36" y1="157.5" x2="10777.74" y2="162.35" gradientTransform="matrix(-1, 0, 0, 1, 11108.38, 0)" xlink:href="#Degradado_sin_nombre_4"/><linearGradient id="Degradado_sin_nombre_4-11" x1="10781.79" y1="161.67" x2="10785.99" y2="167.12" gradientTransform="matrix(-1, 0, 0, 1, 11108.38, 0)" xlink:href="#Degradado_sin_nombre_4"/><clipPath id="clip-path"><polygon class="cls-1" points="274.57 0 193.38 36.91 22.52 136.51 103.71 99.61 184.43 229.99 355.29 130.39 274.57 0"/></clipPath><linearGradient id="Degradado_sin_nombre_4-12" x1="92.48" y1="198.56" x2="97.3" y2="204.69" xlink:href="#Degradado_sin_nombre_4"/><linearGradient id="Degradado_sin_nombre_4-13" x1="102.5" y1="204.57" x2="105.02" y2="208.11" xlink:href="#Degradado_sin_nombre_4"/><linearGradient id="Degradado_sin_nombre_4-14" x1="97.85" y1="204.39" x2="102.67" y2="210.92" xlink:href="#Degradado_sin_nombre_4"/><linearGradient id="Degradado_sin_nombre_4-15" x1="93.04" y1="192.2" x2="95.95" y2="196.24" xlink:href="#Degradado_sin_nombre_4"/><linearGradient id="Degradado_sin_nombre_4-16" x1="91.41" y1="195.33" x2="95.06" y2="199.37" xlink:href="#Degradado_sin_nombre_4"/><linearGradient id="Degradado_sin_nombre_4-17" x1="98.45" y1="198.81" x2="101.94" y2="203.35" xlink:href="#Degradado_sin_nombre_4"/><clipPath id="clip-path-2"><polygon class="cls-1" points="89.08 120.97 48.21 134.79 0 162.81 40.87 148.99 81.52 209.88 129.74 181.86 89.08 120.97"/></clipPath><linearGradient id="Degradado_sin_nombre_4-18" x1="148.95" y1="218.6" x2="162.5" y2="236.35" xlink:href="#Degradado_sin_nombre_4"/><linearGradient id="Degradado_sin_nombre_4-19" x1="153.19" y1="218.45" x2="166.21" y2="236.51" xlink:href="#Degradado_sin_nombre_4"/><linearGradient id="Degradado_sin_nombre_4-20" x1="155.89" y1="245.37" x2="167.44" y2="260.71" xlink:href="#Degradado_sin_nombre_4"/><linearGradient id="Degradado_sin_nombre_4-21" x1="155" y1="270.55" x2="162.56" y2="280.21" xlink:href="#Degradado_sin_nombre_4"/><linearGradient id="Degradado_sin_nombre_4-22" x1="156.38" y1="255.59" x2="168.14" y2="270.29" xlink:href="#Degradado_sin_nombre_4"/><linearGradient id="Degradado_sin_nombre_4-23" x1="165.03" y1="238.94" x2="168.92" y2="244.19" xlink:href="#Degradado_sin_nombre_4"/><linearGradient id="Degradado_sin_nombre_4-24" x1="144.18" y1="231.64" x2="157.09" y2="247.5" xlink:href="#Degradado_sin_nombre_4"/><linearGradient id="Degradado_sin_nombre_4-25" x1="141.45" y1="258.14" x2="155.42" y2="275.46" xlink:href="#Degradado_sin_nombre_4"/><linearGradient id="Degradado_sin_nombre_4-26" x1="143.09" y1="238.96" x2="155.59" y2="254.82" xlink:href="#Degradado_sin_nombre_4"/><linearGradient id="Degradado_sin_nombre_4-27" x1="11014.84" y1="218.6" x2="11028.39" y2="236.35" gradientTransform="matrix(-1, 0, 0, 1, 11232.54, 0)" xlink:href="#Degradado_sin_nombre_4"/><linearGradient id="Degradado_sin_nombre_4-28" x1="11019.08" y1="218.45" x2="11032.1" y2="236.51" gradientTransform="matrix(-1, 0, 0, 1, 11232.54, 0)" xlink:href="#Degradado_sin_nombre_4"/><linearGradient id="Degradado_sin_nombre_4-29" x1="11021.79" y1="245.37" x2="11033.34" y2="260.71" gradientTransform="matrix(-1, 0, 0, 1, 11232.54, 0)" xlink:href="#Degradado_sin_nombre_4"/><linearGradient id="Degradado_sin_nombre_4-30" x1="11020.9" y1="270.55" x2="11028.46" y2="280.21" gradientTransform="matrix(-1, 0, 0, 1, 11232.54, 0)" xlink:href="#Degradado_sin_nombre_4"/><linearGradient id="Degradado_sin_nombre_4-31" x1="11022.27" y1="255.59" x2="11034.03" y2="270.29" gradientTransform="matrix(-1, 0, 0, 1, 11232.54, 0)" xlink:href="#Degradado_sin_nombre_4"/><linearGradient id="Degradado_sin_nombre_4-32" x1="11030.93" y1="238.94" x2="11034.81" y2="244.19" gradientTransform="matrix(-1, 0, 0, 1, 11232.54, 0)" xlink:href="#Degradado_sin_nombre_4"/><linearGradient id="Degradado_sin_nombre_4-33" x1="11010.07" y1="231.64" x2="11022.99" y2="247.5" gradientTransform="matrix(-1, 0, 0, 1, 11232.54, 0)" xlink:href="#Degradado_sin_nombre_4"/><linearGradient id="Degradado_sin_nombre_4-34" x1="11007.34" y1="258.14" x2="11021.31" y2="275.46" gradientTransform="matrix(-1, 0, 0, 1, 11232.54, 0)" xlink:href="#Degradado_sin_nombre_4"/><linearGradient id="Degradado_sin_nombre_4-35" x1="11008.99" y1="238.96" x2="11021.48" y2="254.82" gradientTransform="matrix(-1, 0, 0, 1, 11232.54, 0)" xlink:href="#Degradado_sin_nombre_4"/><linearGradient id="Degradado_sin_nombre_4-36" x1="116.99" y1="207.55" x2="119.84" y2="211.2" xlink:href="#Degradado_sin_nombre_4"/><linearGradient id="Degradado_sin_nombre_4-37" x1="117.7" y1="210.5" x2="119.9" y2="213.23" xlink:href="#Degradado_sin_nombre_4"/><linearGradient id="Degradado_sin_nombre_4-38" x1="122" y1="212.42" x2="124.61" y2="209.01" xlink:href="#Degradado_sin_nombre_4"/><linearGradient id="Degradado_sin_nombre_4-39" x1="123.16" y1="213.4" x2="125.74" y2="209.93" xlink:href="#Degradado_sin_nombre_4"/><linearGradient id="Degradado_sin_nombre_4-40" x1="118.48" y1="206.26" x2="124.52" y2="206.26" xlink:href="#Degradado_sin_nombre_4"/><clipPath id="clip-path-3"><polygon class="cls-1" points="219.63 209.47 312.49 155.33 364.12 197.07 271.13 251.11 219.63 209.47"/></clipPath></defs><title>Recurso 41</title><g class="cls-2"><g id="Capa_2" data-name="Capa 2"><g id="ELEMENTOS_INDIVIDUALES" data-name="ELEMENTOS INDIVIDUALES"><g class="cls-2"><polygon class="cls-3" points="183.75 217.73 341.35 125.95 341.07 222.7 183.47 314.48 183.75 217.73"/><polygon class="cls-4" points="49.97 140.63 207.57 48.85 341.35 125.95 183.75 217.73 49.97 140.63"/><polygon class="cls-5" points="183.75 217.73 183.47 314.48 49.7 237.37 49.97 140.63 183.75 217.73"/></g><g class="cls-2"><path class="cls-6" d="M60.71,185a1.33,1.33,0,0,0-1.34-.13l-1.55.9a1.35,1.35,0,0,1,1.35.13,4.18,4.18,0,0,1,1.88,3.28,1.33,1.33,0,0,1-.55,1.22l1.55-.91a1.3,1.3,0,0,0,.55-1.21A4.17,4.17,0,0,0,60.71,185Z"/><path class="cls-7" d="M59.17,185.94a4.18,4.18,0,0,1,1.88,3.28c0,1.2-.85,1.69-1.9,1.08A4.15,4.15,0,0,1,57.27,187C57.27,185.83,58.12,185.34,59.17,185.94Z"/></g><path class="cls-8" d="M53.36,192.11A.71.71,0,0,1,53,192a.73.73,0,0,1-.36-.63v-4.65a.74.74,0,0,1,.73-.74h0a.74.74,0,0,1,.74.73v3.39l4.47-2.61a.75.75,0,0,1,1,.27.73.73,0,0,1-.27,1L53.73,192A.71.71,0,0,1,53.36,192.11Z"/><g class="cls-2"><polygon class="cls-6" points="58.93 184.05 58.93 185.4 53.36 188.64 53.36 187.29 58.93 184.05"/><polygon class="cls-7" points="53.36 187.29 53.36 188.64 47.75 185.41 47.76 184.05 53.36 187.29"/><polygon class="cls-3" points="58.93 184.05 53.36 187.29 47.76 184.05 53.33 180.81 58.93 184.05"/></g><g class="cls-2"><polygon class="cls-6" points="57.55 176.95 57.53 184.12 53.35 186.55 53.37 179.38 57.55 176.95"/><polygon class="cls-7" points="53.37 179.38 53.35 186.55 49.13 184.11 49.15 176.95 53.37 179.38"/><polygon class="cls-4" points="57.55 176.95 53.37 179.38 49.15 176.95 53.34 174.51 57.55 176.95"/><polygon class="cls-9" points="52.78 180.03 52.77 185.22 49.72 183.46 49.73 178.27 52.78 180.03"/><polygon class="cls-9" points="56.91 178.42 56.89 183.39 53.99 185.07 54.01 180.11 56.91 178.42"/><polygon class="cls-9" points="56.37 176.95 53.37 178.69 50.34 176.95 53.34 175.2 56.37 176.95"/><polygon class="cls-10" points="52.78 182.08 49.73 178.31 49.73 180.18 52.77 183.95 52.78 182.08"/><polygon class="cls-11" points="49.72 181.66 52.46 185.04 52.77 185.22 52.77 184.53 49.73 180.76 49.72 181.66"/><polygon class="cls-12" points="56.91 178.42 56.37 178.73 54.01 181.67 54 183.55 56.9 179.96 56.91 178.42"/><polygon class="cls-13" points="54 184.16 53.99 185.07 55.47 184.22 56.9 182.45 56.9 180.57 54 184.16"/><polygon class="cls-14" points="50.34 176.95 51.33 177.52 56.3 176.99 56.37 176.95 54.68 175.97 51.41 176.32 50.34 176.95"/></g><path class="cls-9" d="M328,165.32l7.4-4.27a18.91,18.91,0,0,1-7.37,12.78l0-8.51"/><path class="cls-9" d="M318.81,170.65l7.4-4.27,0,8.5c-3.88,1.76-7,0-7.42-4.23"/><path class="cls-9" d="M328,154.73c3.89-1.76,7,0,7.42,4.23L328,163.23l0-8.5"/><path class="cls-9" d="M326.18,155.78l0,8.5-7.4,4.28a18.88,18.88,0,0,1,7.38-12.78"/><path class="cls-6" d="M316.93,170.68c0,6.46,4.6,9.07,10.22,5.83s10.17-11.14,10.15-17.59-4.6-9.07-10.22-5.83S316.91,164.23,316.93,170.68Zm9.25-14.9,0,8.5-7.4,4.28A18.88,18.88,0,0,1,326.18,155.78Zm9.24,3.18L328,163.23l0-8.5C331.89,153,335,154.74,335.42,159Zm-7.36,14.87,0-8.51,7.4-4.27A18.91,18.91,0,0,1,328.06,173.83Zm-9.25-3.18,7.4-4.27,0,8.5C322.35,176.64,319.24,174.87,318.81,170.65Z"/><path class="cls-15" d="M335.43,161.05a13.39,13.39,0,0,1-.29,1.85l-7.09,8.77,0-6.35Z"/><path class="cls-16" d="M323.72,167.81l-4.25,5.27a7.15,7.15,0,0,1-.66-2.43Z"/><path class="cls-17" d="M320.09,174l6.12-7.58,0,7.48-1.09,1.35A4.53,4.53,0,0,1,320.09,174Z"/><path class="cls-18" d="M328,158.16l3.3-4.08a4.11,4.11,0,0,1,2.55,1.18L328,162.48Z"/><path class="cls-19" d="M329.49,162.39l5.05-6.26a6.65,6.65,0,0,1,.88,2.83Z"/><polygon class="cls-20" points="320.34 167.67 326.19 160.42 326.2 164.28 320.34 167.67"/><g class="cls-2"><polygon class="cls-9" points="22.52 136.51 193.38 36.91 274.57 0 103.71 99.61 22.52 136.51"/><polygon class="cls-21" points="103.71 99.61 274.57 0 355.29 130.39 184.43 229.99 103.71 99.61"/><polygon class="cls-7" points="103.71 99.61 184.43 229.99 22.52 136.51 103.71 99.61"/></g><g class="cls-22"><rect class="cls-9" x="96.98" y="60.18" width="197.78" height="0.98" transform="translate(-3.9 106.9) rotate(-30.24)"/><rect class="cls-9" x="103.71" y="71.05" width="197.78" height="0.98" transform="translate(-8.46 111.76) rotate(-30.24)"/><rect class="cls-9" x="110.43" y="81.91" width="197.78" height="0.98" transform="matrix(0.86, -0.5, 0.5, 0.86, -13.01, 116.66)"/><rect class="cls-9" x="117.16" y="92.78" width="197.78" height="0.98" transform="translate(-17.57 121.52) rotate(-30.25)"/><rect class="cls-9" x="123.88" y="103.64" width="197.78" height="0.98" transform="translate(-22.13 126.39) rotate(-30.25)"/><rect class="cls-9" x="130.61" y="114.51" width="197.78" height="0.98" transform="translate(-26.68 131.26) rotate(-30.25)"/><rect class="cls-9" x="137.34" y="125.37" width="197.78" height="0.98" transform="translate(-31.24 136.04) rotate(-30.23)"/><rect class="cls-9" x="144.06" y="136.24" width="197.78" height="0.98" transform="translate(-35.8 140.96) rotate(-30.24)"/><rect class="cls-9" x="150.79" y="147.1" width="197.78" height="0.98" transform="translate(-40.36 145.86) rotate(-30.25)"/><rect class="cls-9" x="157.52" y="157.97" width="197.78" height="0.98" transform="translate(-44.91 150.73) rotate(-30.25)"/><rect class="cls-9" x="164.24" y="168.84" width="197.78" height="0.98" transform="matrix(0.86, -0.5, 0.5, 0.86, -49.47, 155.6)"/><rect class="cls-21" x="44.61" y="67.36" width="209.52" height="0.98" transform="matrix(0.86, -0.5, 0.5, 0.86, -13.86, 84.35)"/></g><line class="cls-1" x1="183.47" y1="314.48" x2="341.07" y2="222.7"/><polygon class="cls-23" points="75.89 173.91 75.89 233.47 115.74 256.49 115.74 196.88 75.89 173.91"/><polygon class="cls-7" points="75.89 228.46 75.89 233.47 115.74 256.49 115.74 251.43 75.89 228.46"/><polygon class="cls-6" points="81.26 177.01 75.89 173.91 75.89 233.47 81.26 231.56 81.26 177.01"/><polygon class="cls-5" points="110.29 218.01 110.29 224.23 112.87 225.72 112.87 219.5 110.29 218.01"/><path class="cls-9" d="M97.24,201.85l-6.17-3.56a15.75,15.75,0,0,0,6.15,10.65l0-7.09"/><path class="cls-9" d="M104.93,206.29l-6.17-3.56,0,7.09c3.24,1.46,5.83,0,6.19-3.53"/><path class="cls-9" d="M97.26,193c-3.23-1.46-5.82,0-6.18,3.53l6.16,3.56,0-7.09"/><path class="cls-9" d="M98.79,193.9l0,7.09,6.17,3.56a15.81,15.81,0,0,0-6.15-10.65"/><path class="cls-6" d="M98,191.66c-4.68-2.7-8.5-.52-8.52,4.85s3.78,12,8.46,14.66,8.51.53,8.52-4.85S102.71,194.36,98,191.66Zm6.91,12.89L98.77,201l0-7.09A15.81,15.81,0,0,1,104.94,204.55ZM97.26,193l0,7.09-6.16-3.56C91.44,193,94,191.56,97.26,193Zm-6.19,5.27,6.17,3.56,0,7.09A15.75,15.75,0,0,1,91.07,198.29Zm7.67,11.53,0-7.09,6.17,3.56C104.57,209.81,102,211.28,98.74,209.82Z"/><path class="cls-24" d="M91.07,198.29a14,14,0,0,0,.24,1.54l5.91,7.32,0-5.3Z"/><path class="cls-25" d="M100.83,203.93l3.54,4.38a5.85,5.85,0,0,0,.56-2Z"/><path class="cls-26" d="M103.86,209.11l-5.1-6.32,0,6.24.91,1.12A3.76,3.76,0,0,0,103.86,209.11Z"/><path class="cls-27" d="M97.25,195.88l-2.74-3.4a3.44,3.44,0,0,0-2.13,1l4.86,6Z"/><path class="cls-28" d="M96,199.4l-4.21-5.21a5.57,5.57,0,0,0-.74,2.36Z"/><polygon class="cls-29" points="103.65 203.81 98.78 197.77 98.77 200.99 103.65 203.81"/><g class="cls-2"><path class="cls-6" d="M111.62,220.64a.64.64,0,0,0-.63-.06l-.72.42a.64.64,0,0,1,.63.06,2,2,0,0,1,.88,1.53.61.61,0,0,1-.26.56l.72-.42a.6.6,0,0,0,.26-.56A2,2,0,0,0,111.62,220.64Z"/><path class="cls-7" d="M110.9,221.06a2,2,0,0,1,.88,1.53c0,.56-.4.78-.89.5a1.92,1.92,0,0,1-.87-1.52C110,221,110.41,220.78,110.9,221.06Z"/></g><polygon class="cls-8" points="89.19 226.21 89.19 236.1 104.49 244.94 104.49 235.03 89.19 226.21"/><polygon class="cls-23" points="304.51 184.43 304.51 243.99 248.32 276.71 248.32 216.91 304.51 184.43"/><polygon class="cls-7" points="304.51 238.97 304.51 243.99 248.32 276.71 248.32 271.46 304.51 238.97"/><polygon class="cls-6" points="299.14 187.52 304.51 184.43 304.51 243.99 299.14 242.07 299.14 187.52"/><polygon class="cls-6" points="34.78 242.16 62.62 225.81 132.49 266.15 104.66 282.5 34.78 242.16"/><polygon class="cls-7" points="104.66 282.5 104.77 289.89 34.89 249.55 34.78 242.16 104.66 282.5"/><polygon class="cls-6" points="19.73 258.5 34.89 249.55 104.77 289.89 89.61 298.85 19.73 258.5"/><polygon class="cls-7" points="89.61 298.85 89.61 305.55 19.73 265.2 19.73 258.5 89.61 298.85"/><polygon class="cls-3" points="132.28 285.06 132.49 266.15 104.66 282.5 104.77 289.89 89.61 298.85 89.61 305.55 74.37 314.5 74.37 319.26 132.28 285.06"/><polygon class="cls-6" points="4.51 274.16 19.73 265.2 89.61 305.55 74.37 314.5 4.51 274.16"/><polygon class="cls-7" points="74.37 314.5 74.37 319.26 4.51 278.92 4.51 274.16 74.37 314.5"/><path class="cls-8" d="M13.32,275.24a2.44,2.44,0,0,1-2.44-2.44V162.56a2.44,2.44,0,0,1,4.88,0V272.8A2.44,2.44,0,0,1,13.32,275.24Z"/><path class="cls-8" d="M75.89,309.68a2.44,2.44,0,0,1-2.44-2.44V199a2.44,2.44,0,1,1,4.88,0V307.24A2.44,2.44,0,0,1,75.89,309.68Z"/><path class="cls-8" d="M75.89,275.7a2.44,2.44,0,0,1-1.44-4.41l57.2-41.88a2.44,2.44,0,0,1,2.89,3.94l-57.2,41.88A2.46,2.46,0,0,1,75.89,275.7Z"/><path class="cls-8" d="M75.89,291.55a2.44,2.44,0,0,1-1.44-4.41l57.2-41.88a2.44,2.44,0,0,1,2.89,3.94l-57.2,41.88A2.46,2.46,0,0,1,75.89,291.55Z"/><path class="cls-8" d="M93.19,293.5a2.45,2.45,0,0,1-2.45-2.44V260.6a2.45,2.45,0,1,1,4.89,0v30.46A2.44,2.44,0,0,1,93.19,293.5Z"/><path class="cls-8" d="M109.21,277.75a2.44,2.44,0,0,1-2.44-2.44V248.86a2.45,2.45,0,0,1,4.89,0v26.45A2.45,2.45,0,0,1,109.21,277.75Z"/><path class="cls-8" d="M124.23,267.78a2.45,2.45,0,0,1-2.45-2.44v-27.5a2.45,2.45,0,0,1,4.89,0v27.5A2.44,2.44,0,0,1,124.23,267.78Z"/><path class="cls-8" d="M13.32,246.08a2.44,2.44,0,0,1-1.44-4.41l57.2-41.89A2.45,2.45,0,0,1,72,203.73l-57.2,41.88A2.46,2.46,0,0,1,13.32,246.08Z"/><path class="cls-8" d="M13.32,261.93a2.44,2.44,0,0,1-1.44-4.41l57.2-41.89a2.45,2.45,0,0,1,2.89,4l-57.2,41.88A2.46,2.46,0,0,1,13.32,261.93Z"/><path class="cls-8" d="M30.62,258.07a2.45,2.45,0,0,1-2.45-2.44V231a2.45,2.45,0,0,1,4.89,0v24.66A2.44,2.44,0,0,1,30.62,258.07Z"/><path class="cls-8" d="M48.87,246.33a2.44,2.44,0,0,1-2.44-2.44V217.61a2.45,2.45,0,1,1,4.89,0v26.28A2.45,2.45,0,0,1,48.87,246.33Z"/><path class="cls-8" d="M63.89,236.55a2.44,2.44,0,0,1-2.44-2.44v-27.5a2.44,2.44,0,1,1,4.88,0v27.5A2.44,2.44,0,0,1,63.89,236.55Z"/><g class="cls-2"><polygon class="cls-9" points="0 162.81 48.21 134.79 89.08 120.97 40.87 148.99 0 162.81"/><polygon class="cls-6" points="81.52 209.88 129.74 181.86 126.27 184.85 78.05 212.87 81.52 209.88"/><polygon class="cls-21" points="40.87 148.99 89.08 120.97 129.74 181.86 81.52 209.88 40.87 148.99"/><polygon class="cls-7" points="40.87 148.99 81.52 209.88 78.05 212.87 40.84 157.14 3.44 169.79 0 162.81 40.87 148.99"/><g class="cls-30"><rect class="cls-9" x="72.67" y="187.77" width="55.76" height="0.98" transform="translate(-81.03 76.1) rotate(-30.19)"/><rect class="cls-9" x="67.58" y="180.16" width="55.76" height="0.98" transform="translate(-77.92 72.55) rotate(-30.2)"/><rect class="cls-9" x="62.5" y="172.55" width="55.76" height="0.98" transform="translate(-74.76 68.94) rotate(-30.2)"/><rect class="cls-9" x="57.42" y="164.94" width="55.76" height="0.98" transform="translate(-71.59 65.29) rotate(-30.17)"/><rect class="cls-9" x="52.34" y="157.33" width="55.76" height="0.98" transform="matrix(0.86, -0.5, 0.5, 0.86, -68.43, 61.67)"/><rect class="cls-9" x="47.26" y="149.72" width="55.76" height="0.98" transform="translate(-65.34 58.16) rotate(-30.19)"/><rect class="cls-9" x="42.17" y="142.1" width="55.76" height="0.98" transform="translate(-62.22 54.6) rotate(-30.2)"/><rect class="cls-21" x="14.96" y="141.37" width="59.29" height="0.98" transform="translate(-65.29 41.67) rotate(-30.19)"/></g></g><polygon class="cls-21" points="170.96 230.01 142.86 213.68 142.89 273.18 170.99 289.5 170.96 230.01"/><polygon class="cls-7" points="144.53 274.13 142.89 273.18 142.86 213.68 144.5 214.63 144.53 274.13"/><polygon class="cls-6" points="170.99 287.25 170.99 289.5 142.89 273.18 144.53 271.88 170.99 287.25"/><polygon class="cls-9" points="169.32 231.37 145.78 217.69 145.81 226.9 169.35 240.58 169.32 231.37"/><polygon class="cls-9" points="169.32 242.22 158.23 235.77 158.23 277.99 169.35 284.46 169.32 242.22"/><polygon class="cls-9" points="145.78 228.54 145.81 270.78 156.91 277.23 156.91 235 145.78 228.54"/><polygon class="cls-31" points="152.73 221.72 146.34 218.01 160.33 235.34 166.72 239.05 152.73 221.72"/><polygon class="cls-32" points="169.35 240.58 169.34 238.72 158.18 224.89 154.93 223 168.92 240.33 169.35 240.58"/><polygon class="cls-33" points="169.32 242.22 169.23 242.16 169.32 242.28 169.32 242.22"/><polygon class="cls-34" points="158.23 252.61 169.34 266.37 169.33 259.07 158.23 245.32 158.23 252.61"/><polygon class="cls-35" points="158.23 277.99 167.78 283.54 158.23 271.71 158.23 277.99"/><polygon class="cls-36" points="158.23 260.06 169.34 273.82 169.34 269.62 158.23 255.86 158.23 260.06"/><polygon class="cls-37" points="169.32 246.48 169.32 242.28 169.23 242.16 162.85 238.45 169.32 246.48"/><polygon class="cls-38" points="156.91 243.69 145.79 229.91 145.79 237.21 156.91 250.98 156.91 243.69"/><polygon class="cls-39" points="156.91 277.23 156.91 270.08 145.8 256.33 145.81 270.78 156.91 277.23"/><polygon class="cls-40" points="156.91 254.23 145.79 240.46 145.8 244.66 156.91 258.42 156.91 254.23"/><polygon class="cls-21" points="195.69 230.01 223.79 213.68 223.76 273.18 195.66 289.5 195.69 230.01"/><polygon class="cls-6" points="222.12 274.13 223.76 273.18 223.79 213.68 222.15 214.63 222.12 274.13"/><polygon class="cls-8" points="195.66 287.25 195.66 289.5 223.76 273.18 222.12 271.88 195.66 287.25"/><polygon class="cls-9" points="197.33 231.37 220.86 217.69 220.84 226.9 197.3 240.58 197.33 231.37"/><polygon class="cls-9" points="197.33 242.22 208.42 235.77 208.42 277.99 197.3 284.46 197.33 242.22"/><polygon class="cls-9" points="220.86 228.54 220.84 270.78 209.74 277.23 209.74 235 220.86 228.54"/><polygon class="cls-41" points="213.92 221.72 220.31 218.01 206.32 235.34 199.93 239.05 213.92 221.72"/><polygon class="cls-42" points="197.3 240.58 197.31 238.72 208.47 224.89 211.72 223 197.73 240.33 197.3 240.58"/><polygon class="cls-33" points="197.33 242.22 197.42 242.16 197.33 242.28 197.33 242.22"/><polygon class="cls-43" points="208.42 252.61 197.31 266.37 197.32 259.07 208.42 245.32 208.42 252.61"/><polygon class="cls-44" points="208.42 277.99 198.87 283.54 208.42 271.71 208.42 277.99"/><polygon class="cls-45" points="208.42 260.06 197.31 273.82 197.31 269.62 208.42 255.86 208.42 260.06"/><polygon class="cls-46" points="197.32 246.48 197.33 242.28 197.42 242.16 203.8 238.45 197.32 246.48"/><polygon class="cls-47" points="209.74 243.69 220.86 229.91 220.86 237.21 209.74 250.98 209.74 243.69"/><polygon class="cls-48" points="209.74 277.23 209.74 270.08 220.84 256.33 220.84 270.78 209.74 277.23"/><polygon class="cls-49" points="209.74 254.23 220.86 240.46 220.85 244.66 209.74 258.42 209.74 254.23"/><g class="cls-2"><path class="cls-6" d="M128.86,214.56a1.31,1.31,0,0,0-1.34-.13l-1.55.9a1.31,1.31,0,0,1,1.34.13,4.16,4.16,0,0,1,1.89,3.28,1.32,1.32,0,0,1-.55,1.21l1.55-.9a1.33,1.33,0,0,0,.55-1.22A4.16,4.16,0,0,0,128.86,214.56Z"/><path class="cls-7" d="M127.31,215.46a4.16,4.16,0,0,1,1.89,3.28c0,1.2-.85,1.68-1.9,1.08a4.17,4.17,0,0,1-1.89-3.27C125.41,215.35,126.27,214.85,127.31,215.46Z"/></g><path class="cls-8" d="M121.5,221.63a.78.78,0,0,1-.36-.1.73.73,0,0,1-.37-.64v-4.65a.73.73,0,0,1,.73-.73h0a.73.73,0,0,1,.73.73v3.38l4.47-2.6a.73.73,0,0,1,.74,1.27l-5.58,3.24A.79.79,0,0,1,121.5,221.63Z"/><g class="cls-2"><polygon class="cls-6" points="127.08 213.57 127.08 214.92 121.5 218.16 121.51 216.8 127.08 213.57"/><polygon class="cls-7" points="121.51 216.8 121.5 218.16 115.9 214.92 115.9 213.57 121.51 216.8"/><polygon class="cls-3" points="127.08 213.57 121.51 216.8 115.9 213.57 121.47 210.33 127.08 213.57"/></g><g class="cls-2"><polygon class="cls-6" points="125.7 206.46 125.68 213.63 121.5 216.06 121.52 208.9 125.7 206.46"/><polygon class="cls-7" points="121.52 208.9 121.5 216.06 117.28 213.63 117.3 206.46 121.52 208.9"/><polygon class="cls-4" points="125.7 206.46 121.52 208.9 117.3 206.46 121.48 204.03 125.7 206.46"/><polygon class="cls-9" points="120.93 209.55 120.92 214.74 117.86 212.97 117.88 207.79 120.93 209.55"/><polygon class="cls-9" points="125.05 207.94 125.04 212.9 122.14 214.59 122.16 209.62 125.05 207.94"/><polygon class="cls-9" points="124.52 206.46 121.51 208.21 118.48 206.46 121.49 204.72 124.52 206.46"/><polygon class="cls-50" points="120.93 211.59 117.88 207.82 117.87 209.69 120.92 213.46 120.93 211.59"/><polygon class="cls-51" points="117.87 211.17 120.6 214.55 120.92 214.74 120.92 214.04 117.87 210.27 117.87 211.17"/><polygon class="cls-52" points="125.05 207.94 124.52 208.25 122.15 211.18 122.15 213.07 125.05 209.47 125.05 207.94"/><polygon class="cls-53" points="122.14 213.68 122.14 214.59 123.62 213.73 125.04 211.97 125.05 210.08 122.14 213.68"/><polygon class="cls-54" points="118.48 206.46 119.47 207.03 124.45 206.5 124.52 206.46 122.83 205.49 119.55 205.84 118.48 206.46"/></g><g class="cls-2"><polygon class="cls-6" points="153.52 305.5 174.18 293.5 174.14 309.1 153.47 321.11 153.52 305.5"/><polygon class="cls-23" points="111.95 281.52 132.61 269.51 174.18 293.5 153.52 305.5 111.95 281.52"/><polygon class="cls-7" points="153.52 305.5 153.47 321.11 111.9 297.12 111.95 281.52 153.52 305.5"/><polygon class="cls-8" points="132.71 293.5 132.61 269.51 174.18 293.5 153.52 305.5 132.71 293.5"/><polygon class="cls-55" points="132.64 275.99 117.55 284.75 153.52 305.5 168.61 296.74 132.64 275.99"/><polygon class="cls-4" points="153.52 305.5 153.52 303.93 114.68 281.52 111.95 281.52 153.52 305.5"/><polygon class="cls-4" points="153.52 305.5 174.18 293.5 171.47 293.5 153.52 303.93 153.52 305.5"/><polygon class="cls-4" points="132.61 271.07 132.61 269.51 174.18 293.5 171.47 293.5 132.61 271.07"/><polygon class="cls-4" points="132.61 271.07 114.68 281.52 111.95 281.52 132.61 269.51 132.61 271.07"/><path class="cls-8" d="M151.81,306.57a.85.85,0,0,1,.38.67c0,.24-.17.34-.39.22a.85.85,0,0,1-.38-.67C151.42,306.54,151.59,306.44,151.81,306.57Z"/><path class="cls-8" d="M151.81,310.19a.86.86,0,0,1,.38.67c0,.25-.17.35-.39.22a.85.85,0,0,1-.38-.67C151.42,310.17,151.59,310.07,151.81,310.19Z"/><path class="cls-8" d="M151.81,313.81a.88.88,0,0,1,.38.67c0,.25-.17.35-.39.23a.88.88,0,0,1-.38-.67C151.42,313.79,151.59,313.69,151.81,313.81Z"/><path class="cls-8" d="M151.81,317.44a.85.85,0,0,1,.38.67c0,.24-.17.34-.39.22a.85.85,0,0,1-.38-.67C151.42,317.41,151.59,317.31,151.81,317.44Z"/><path class="cls-23" d="M155.36,306.4a.83.83,0,0,0-.39.67c0,.25.18.35.39.22a.86.86,0,0,0,.39-.67C155.75,306.38,155.57,306.27,155.36,306.4Z"/><path class="cls-23" d="M155.36,310a.85.85,0,0,0-.39.67c0,.25.18.35.39.22a.86.86,0,0,0,.39-.67C155.75,310,155.57,309.9,155.36,310Z"/><path class="cls-23" d="M155.36,313.64a.86.86,0,0,0-.39.68c0,.24.18.34.39.22a.89.89,0,0,0,.39-.67C155.75,313.62,155.57,313.52,155.36,313.64Z"/><path class="cls-23" d="M155.36,317.27a.83.83,0,0,0-.39.67c0,.24.18.34.39.22a.86.86,0,0,0,.39-.67C155.75,317.24,155.57,317.14,155.36,317.27Z"/><path class="cls-23" d="M172.9,296.38a.83.83,0,0,0-.39.67c0,.25.18.35.39.22a.83.83,0,0,0,.39-.67C173.29,296.36,173.11,296.25,172.9,296.38Z"/><path class="cls-23" d="M172.9,300a.85.85,0,0,0-.39.67c0,.25.18.35.39.22a.83.83,0,0,0,.39-.67C173.29,300,173.11,299.88,172.9,300Z"/><path class="cls-23" d="M172.9,303.62a.86.86,0,0,0-.39.68c0,.24.18.34.39.22a.86.86,0,0,0,.39-.67C173.29,303.6,173.11,303.5,172.9,303.62Z"/><path class="cls-23" d="M172.9,307.25a.83.83,0,0,0-.39.67c0,.24.18.34.39.22a.83.83,0,0,0,.39-.67C173.29,307.22,173.11,307.12,172.9,307.25Z"/><path class="cls-8" d="M113.58,284.51a.86.86,0,0,1,.38.67c0,.25-.17.35-.39.22a.85.85,0,0,1-.38-.67C113.19,284.49,113.36,284.39,113.58,284.51Z"/><path class="cls-8" d="M113.58,288.13a.88.88,0,0,1,.38.67c0,.25-.17.35-.39.23a.88.88,0,0,1-.38-.67C113.19,288.11,113.36,288,113.58,288.13Z"/><path class="cls-8" d="M113.58,291.76a.85.85,0,0,1,.38.67c0,.24-.17.34-.39.22a.85.85,0,0,1-.38-.67C113.19,291.73,113.36,291.63,113.58,291.76Z"/><path class="cls-8" d="M113.58,295.38a.85.85,0,0,1,.38.67c0,.25-.17.35-.39.22a.85.85,0,0,1-.38-.67C113.19,295.36,113.36,295.26,113.58,295.38Z"/><path class="cls-6" d="M125.44,285.52a1.1,1.1,0,0,0,0-2.2,1.1,1.1,0,0,0,0,2.2Z"/><path class="cls-6" d="M132.71,281.79a1.1,1.1,0,0,0,0-2.2,1.1,1.1,0,0,0,0,2.2Z"/><path class="cls-6" d="M137.05,290.55a1.47,1.47,0,0,0,0-2.94,1.47,1.47,0,0,0,0,2.94Z"/><path class="cls-6" d="M140.35,284.58a1.47,1.47,0,0,0,0-2.93,1.47,1.47,0,0,0,0,2.93Z"/><path class="cls-6" d="M144.91,291.84a1.1,1.1,0,0,0,0-2.19,1.1,1.1,0,0,0,0,2.19Z"/><path class="cls-6" d="M150.63,299.78a1.47,1.47,0,0,0,0-2.94,1.47,1.47,0,0,0,0,2.94Z"/><path class="cls-6" d="M153.52,293.67a1.47,1.47,0,0,0,0-2.93,1.47,1.47,0,0,0,0,2.93Z"/><path class="cls-6" d="M161,297a1.1,1.1,0,0,0,0-2.2,1.1,1.1,0,0,0,0,2.2Z"/></g><path class="cls-8" d="M262.83,328.15a1.9,1.9,0,0,1-1-.27l-73.47-42.76a2,2,0,1,1,2-3.38l72.49,42.2,143.43-82.82-54.71-31.74a2,2,0,0,1,2-3.38l57.63,33.44a1.94,1.94,0,0,1,1,1.69,2,2,0,0,1-1,1.69L263.81,327.89A2,2,0,0,1,262.83,328.15Z"/><path class="cls-8" d="M262.83,345.84a2,2,0,0,1-1-.26l-73.47-42.77a2,2,0,1,1,2-3.38l72.49,42.2,143.43-82.81-54.71-31.75a2,2,0,0,1,2-3.38l57.63,33.44a1.95,1.95,0,0,1,0,3.38L263.81,345.58A2,2,0,0,1,262.83,345.84Z"/><path class="cls-8" d="M189.36,319.67a2,2,0,0,1-2-2V283.43a2,2,0,1,1,3.91,0v34.28A2,2,0,0,1,189.36,319.67Z"/><path class="cls-8" d="M207.73,330.36a2,2,0,0,1-1.95-1.95V294.12a2,2,0,0,1,3.91,0v34.29A2,2,0,0,1,207.73,330.36Z"/><path class="cls-8" d="M226.1,341.05a2,2,0,0,1-2-1.95V304.81a2,2,0,0,1,3.91,0V339.1A2,2,0,0,1,226.1,341.05Z"/><path class="cls-8" d="M244.47,351.74a2,2,0,0,1-2-1.95V315.5a2,2,0,0,1,3.91,0v34.29A2,2,0,0,1,244.47,351.74Z"/><path class="cls-8" d="M262.83,362.44a2,2,0,0,1-1.95-2V326.2a2,2,0,1,1,3.91,0v34.28A2,2,0,0,1,262.83,362.44Z"/><path class="cls-8" d="M281.25,351.8a2,2,0,0,1-1.95-1.95V315.56a1.95,1.95,0,0,1,3.9,0v34.29A2,2,0,0,1,281.25,351.8Z"/><path class="cls-8" d="M299.67,341.17a2,2,0,0,1-2-1.95V304.93a2,2,0,1,1,3.91,0v34.29A2,2,0,0,1,299.67,341.17Z"/><path class="cls-8" d="M318.08,330.54a2,2,0,0,1-1.95-2V294.3a2,2,0,1,1,3.91,0v34.28A2,2,0,0,1,318.08,330.54Z"/><path class="cls-8" d="M336.5,319.9a2,2,0,0,1-1.95-1.95V283.66a2,2,0,0,1,3.91,0V318A2,2,0,0,1,336.5,319.9Z"/><path class="cls-8" d="M354.92,309.27a2,2,0,0,1-1.95-1.95V273a2,2,0,1,1,3.9,0v34.29A2,2,0,0,1,354.92,309.27Z"/><path class="cls-8" d="M373.34,298.64a2,2,0,0,1-2-2V262.4a2,2,0,1,1,3.91,0v34.28A2,2,0,0,1,373.34,298.64Z"/><path class="cls-8" d="M391.75,288a2,2,0,0,1-1.95-1.95V251.76a2,2,0,0,1,3.91,0v34.29A2,2,0,0,1,391.75,288Z"/><path class="cls-8" d="M410.17,277.37a2,2,0,0,1-1.95-1.95V241.13a2,2,0,1,1,3.91,0v34.29A2,2,0,0,1,410.17,277.37Z"/><path class="cls-8" d="M395.51,268.9a2,2,0,0,1-1.95-1.95V232.66a2,2,0,0,1,3.91,0V267A2,2,0,0,1,395.51,268.9Z"/><path class="cls-8" d="M380.85,260.43a2,2,0,0,1-2-1.95V224.19a2,2,0,0,1,3.91,0v34.29A2,2,0,0,1,380.85,260.43Z"/><path class="cls-8" d="M366.19,252a2,2,0,0,1-1.95-2V215.72a2,2,0,0,1,3.91,0V250A2,2,0,0,1,366.19,252Z"/><path class="cls-8" d="M311.61,245.35a1,1,0,0,1-1-1v-8.09a1,1,0,1,1,1.95,0v8.09A1,1,0,0,1,311.61,245.35Z"/><path class="cls-8" d="M325.43,253.25a1,1,0,0,1-1-1v-9.1a1,1,0,0,1,1.95,0v9.1A1,1,0,0,1,325.43,253.25Z"/><path class="cls-8" d="M345.25,242a1,1,0,0,1-1-1v-9.1a1,1,0,0,1,2,0V241A1,1,0,0,1,345.25,242Z"/><g class="cls-2"><polygon class="cls-3" points="323.82 244.85 347.6 231.03 347.6 232.38 323.82 246.2 323.82 244.85"/><polygon class="cls-5" points="309.15 236.38 332.93 222.56 347.6 231.03 323.82 244.85 309.15 236.38"/><polygon class="cls-7" points="323.82 244.85 323.82 246.2 309.14 237.72 309.15 236.38 323.82 244.85"/></g><path class="cls-8" d="M265.25,317.45a3.42,3.42,0,0,1-3.42-3.42v-78a3.42,3.42,0,0,1,6.84,0v78A3.42,3.42,0,0,1,265.25,317.45Z"/><path class="cls-8" d="M352.54,269.68a3.42,3.42,0,0,1-3.42-3.42V203.8a3.42,3.42,0,1,1,6.84,0v62.46A3.42,3.42,0,0,1,352.54,269.68Z"/><g class="cls-2"><polygon class="cls-7" points="219.63 209.47 312.49 155.33 364.12 197.07 271.13 251.11 219.63 209.47"/><polygon class="cls-6" points="271.13 251.11 364.12 197.07 362.73 204.09 269.74 258.13 271.13 251.11"/><polygon class="cls-4" points="219.63 209.47 271.13 251.11 269.74 258.13 213.78 212.88 219.63 209.47"/><g class="cls-56"><rect class="cls-6" x="254.61" y="216.67" width="108.78" height="0.98" transform="translate(-67.3 184.92) rotate(-30.2)"/><rect class="cls-6" x="246.03" y="209.71" width="108.8" height="0.98" transform="translate(-64.95 179.55) rotate(-30.18)"/><rect class="cls-6" x="237.52" y="202.73" width="108.74" height="0.98" transform="translate(-62.6 174.35) rotate(-30.19)"/><rect class="cls-6" x="228.99" y="195.76" width="108.69" height="0.98" transform="matrix(0.86, -0.5, 0.5, 0.86, -60.26, 169.17)"/><rect class="cls-6" x="220.48" y="188.85" width="108.39" height="0.98" transform="translate(-57.98 164.13) rotate(-30.25)"/></g></g></g></g></g></svg>