<svg xmlns="http://www.w3.org/2000/svg" viewBox="0 0 1220.79 653.21"><defs><style>.cls-1{isolation:isolate;}.cls-2,.cls-4{fill:#301404;mix-blend-mode:multiply;}.cls-2{opacity:0.3;}.cls-3{fill:#d2ccaf;}.cls-4{opacity:0.4;}.cls-5{fill:#a6a383;}.cls-6{fill:#c1c0a2;}.cls-7{fill:#acaa85;}.cls-8{fill:#3c3432;}.cls-9{fill:#453d3a;}.cls-10{fill:#4a413e;}.cls-11{fill:#786f6c;}.cls-12{fill:#c3c39d;}.cls-13{fill:#a0512a;}.cls-14{fill:#be6837;}.cls-15{fill:#b45a37;}.cls-16{fill:#e5c6b4;}.cls-17{fill:#c09f8f;}.cls-18{fill:#7a5e54;}.cls-19{fill:#e6e6c7;}.cls-20{fill:#6590a2;}.cls-21{fill:#78a4be;}.cls-22{fill:#acab90;}.cls-23{fill:#49637d;}.cls-24{fill:#3a5165;}.cls-25{fill:#4a413d;}.cls-26{fill:#7d6e5e;}.cls-27{fill:#ad9f8c;}.cls-28{fill:#615552;}.cls-29{fill:#dbdabe;}.cls-30{fill:#4a403e;}.cls-31{fill:#39312d;}.cls-32{fill:#d5d3b9;}.cls-33{fill:#bbb99c;}.cls-34{fill:#988b7c;}.cls-35{fill:#8f8c6d;}.cls-36{fill:#557959;}.cls-37{fill:#6c9774;}.cls-38{fill:#9fcaa6;}.cls-39{fill:#bdbb9f;}</style></defs><title>Recurso 40</title><g class="cls-1"><g id="Capa_2" data-name="Capa 2"><g id="ELEMENTOS_INDIVIDUALES" data-name="ELEMENTOS INDIVIDUALES"><polygon class="cls-2" points="414.44 633.07 913.31 623.69 1220.79 459.45 896.78 272.38 432.53 272.38 414.44 633.07"/><polygon class="cls-3" points="717.38 480.88 299.39 239.53 0 411.88 418 653.21 717.38 480.88"/><rect class="cls-4" x="295.66" y="555.26" width="28.96" height="15.7"/><rect class="cls-4" x="225.93" y="515.23" width="28.97" height="15.72"/><rect class="cls-4" x="156.71" y="475.84" width="28.97" height="15.72"/><polygon class="cls-5" points="653.68 375.55 264.12 152.4 32.61 285.69 422.2 508.83 653.68 375.55"/><polygon class="cls-6" points="456.81 491.15 429.2 491.15 264.12 152.4 33.97 284.97 422.2 508.83 456.81 491.15"/><polygon class="cls-6" points="641.29 304.25 312.65 115.91 100.73 237.92 429.38 426.26 641.29 304.25"/><polygon class="cls-7" points="653.09 412.86 415.37 550.09 415.37 630.28 653.09 493.06 653.09 412.86"/><polygon class="cls-8" points="649.89 412.02 419.22 545.21 419.22 621.96 649.28 488.78 649.89 412.02"/><polygon class="cls-9" points="557.15 541.89 572.69 499.05 595.33 487.12 598.08 518.06 557.15 541.89"/><polygon class="cls-10" points="414.79 566.21 160.59 419.46 160.6 482.4 414.79 629.16 414.79 566.21"/><polygon class="cls-11" points="414.44 600.25 238.69 498.54 189.79 498.32 414.79 629.16 414.44 600.25"/><polygon class="cls-10" points="387.54 552.02 384.23 550.11 384.23 611.18 387.54 613.09 387.54 552.02"/><polygon class="cls-10" points="357.54 533.8 354.23 531.88 354.23 592.94 357.54 594.86 357.54 533.8"/><polygon class="cls-10" points="327.52 517.04 324.21 515.13 324.21 576.2 327.52 578.11 327.52 517.04"/><polygon class="cls-10" points="304.15 503.41 300.83 501.51 300.83 562.57 304.15 564.48 304.15 503.41"/><polygon class="cls-10" points="267.51 481.88 264.2 479.96 264.2 541.03 267.51 542.94 267.51 481.88"/><polygon class="cls-10" points="233.99 462.36 230.69 460.45 230.69 521.51 233.99 523.43 233.99 462.36"/><polygon class="cls-10" points="198.1 440.81 194.79 438.92 194.79 499.97 198.1 501.88 198.1 440.81"/><rect class="cls-10" x="384.7" y="607.55" width="27.61" height="2.75"/><rect class="cls-10" x="357.08" y="590.79" width="49.16" height="2.76"/><rect class="cls-10" x="326.89" y="573.11" width="49.16" height="2.76"/><rect class="cls-10" x="265.94" y="538.68" width="49.16" height="2.75"/><rect class="cls-10" x="197.21" y="500.14" width="55.23" height="2.76"/><rect class="cls-10" x="303.5" y="558.75" width="58.92" height="8.91"/><rect class="cls-10" x="231.16" y="515.66" width="58.91" height="8.92"/><polygon class="cls-12" points="264.79 478.7 261.49 476.8 261.49 537.86 264.79 539.77 264.79 478.7"/><polygon class="cls-12" points="230.44 459.56 227.12 457.65 227.12 518.71 230.44 520.63 230.44 459.56"/><polygon class="cls-12" points="195.09 440.9 191.77 438.99 191.77 500.05 195.09 501.98 195.09 440.9"/><polygon class="cls-12" points="325.07 515.36 321.76 513.44 321.76 574.5 325.07 576.43 325.07 515.36"/><polygon class="cls-12" points="355.38 532.85 352.08 530.95 352.08 592.02 355.38 593.93 355.38 532.85"/><polygon class="cls-12" points="385.7 550.37 382.39 548.45 382.39 609.52 385.71 611.44 385.7 550.37"/><polygon class="cls-7" points="446.96 546.43 450.27 544.52 450.27 605.6 446.96 607.5 446.96 546.43"/><polygon class="cls-7" points="479.61 527.29 482.92 525.38 482.92 586.45 479.6 588.36 479.61 527.29"/><polygon class="cls-7" points="578.53 469.61 581.85 467.68 581.85 528.75 578.53 530.67 578.53 469.61"/><polygon class="cls-7" points="512.5 508.63 554.96 482.82 554.96 543.89 512.5 569.71 512.5 508.63"/><polygon class="cls-8" points="525.59 523.64 542.16 513.53 542.21 537.46 525.62 547.59 525.59 523.64"/><polygon class="cls-13" points="687.76 457.54 677.42 458.85 677.42 482.57 687.76 476.59 687.76 457.54"/><polygon class="cls-14" points="667.11 453.01 677.46 458.97 677.46 482.68 667.11 476.71 667.11 453.01"/><polygon class="cls-15" points="679.34 453.01 667.19 453.01 677.59 459.21 687.53 457.54 679.34 453.01"/><polygon class="cls-16" points="732.86 396.84 679.91 463.72 681.09 467.22 684.68 468.97 734.3 398.08 732.86 396.84"/><polygon class="cls-17" points="734.28 397.82 681.48 464.81 684.68 468.97 737.15 401.57 734.28 397.82"/><path class="cls-18" d="M687.15,463.25c.21-1.11-.31-1.79-1.17-1.55a3.38,3.38,0,0,0-1.93,2.43c-.21,1.13.3,1.82,1.16,1.57A3.35,3.35,0,0,0,687.15,463.25Z"/><path class="cls-17" d="M686.47,463.42c.11-.68-.2-1.1-.71-.95a2,2,0,0,0-1.11,1.5c-.11.68.21,1.11.72,1A1.91,1.91,0,0,0,686.47,463.42Z"/><polygon class="cls-7" points="607.75 453.89 650.21 428.09 650.21 489.15 607.75 514.96 607.75 453.89"/><polygon class="cls-8" points="627.83 459.99 649.23 447.03 649.16 477.66 627.77 490.61 627.83 459.99"/><polygon class="cls-12" points="416.03 567.87 412.72 565.96 412.72 627.02 416.03 628.94 416.03 567.87"/><polygon class="cls-19" points="415.01 626.79 122.99 458.19 122.98 462.45 414.99 631.05 415.01 626.79"/><polygon class="cls-20" points="651.86 369.93 423.94 501.51 169.23 354.91 157.49 361.69 425.08 515.72 664.73 377.36 651.86 369.93"/><polygon class="cls-21" points="444.88 489.42 423.94 501.51 163.58 351.62 151.85 358.4 425.08 515.72 470.63 489.42 444.88 489.42"/><polygon class="cls-7" points="414.47 629.24 105.06 449.61 105.06 454.01 414.47 633.62 414.47 629.24"/><polygon class="cls-7" points="231.28 431.13 224.3 427.1 225.68 530.83 231.29 527.82 231.28 431.13"/><polygon class="cls-19" points="225.88 434.02 218.91 429.99 218.91 526.67 225.89 530.71 225.88 434.02"/><polygon class="cls-7" points="225.88 462.94 218.91 458.92 218.91 483.22 225.89 487.26 225.88 462.94"/><polygon class="cls-7" points="301.49 471.14 294.5 467.12 295.91 570.84 301.49 567.83 301.49 471.14"/><polygon class="cls-19" points="296.09 474.04 289.11 469.99 289.12 566.69 296.09 570.72 296.09 474.04"/><polygon class="cls-7" points="296.09 500.27 289.11 496.24 289.12 523.24 296.09 527.26 296.09 500.27"/><polygon class="cls-22" points="162.39 430.33 156.75 434.02 156.75 491.33 162.39 487.52 162.39 430.33"/><polygon class="cls-23" points="427.78 514.77 148.08 353.29 148.08 433.52 427.78 595.02 427.78 514.77"/><polygon class="cls-24" points="664.97 377.06 427.26 514.3 427.26 594.49 664.97 457.25 664.97 377.06"/><polygon class="cls-25" points="131.83 245.43 84.86 218.3 84.86 262.25 131.83 289.38 131.83 245.43"/><polygon class="cls-23" points="178.58 219.55 131.59 246.67 131.6 290.63 178.58 263.52 178.58 219.55"/><polygon class="cls-19" points="180.55 218.18 80.14 210.93 80.14 217.99 130.51 247.05 180.55 218.18"/><polygon class="cls-6" points="180.55 210.98 130.2 181.91 80.14 210.81 130.51 239.88 180.55 210.98"/><polygon class="cls-26" points="192.83 211.48 142.47 182.41 92.43 211.29 142.77 240.37 192.83 211.48"/><polygon class="cls-27" points="198.22 215.41 147.86 186.33 97.82 215.22 148.18 244.29 198.22 215.41"/><polygon class="cls-28" points="88.71 252.7 107.86 240.05 88.47 226.43 88.71 252.7"/><polygon class="cls-11" points="88.74 260.4 108.35 271.23 116.21 243.01 88.74 260.4"/><rect class="cls-25" x="87.72" y="256.74" width="32.41" height="3.93"/><polygon class="cls-19" points="429.75 357.63 100.46 167.88 100.46 301.93 429.75 491.67 429.75 357.63"/><polygon class="cls-29" points="199.67 225.31 198.07 224.4 198.07 358.78 199.67 359.7 199.67 225.31"/><polygon class="cls-29" points="162.35 204.46 160.76 203.54 160.76 336.96 162.35 337.88 162.35 204.46"/><polygon class="cls-29" points="129.71 184.82 128.11 183.89 128.11 318.27 129.71 319.2 129.71 184.82"/><polygon class="cls-29" points="238.64 351.8 100.08 271.44 100.08 272.89 238.64 353.27 238.64 351.8"/><polygon class="cls-29" points="238.21 319.12 100.46 239.21 100.46 240.67 238.21 320.57 238.21 319.12"/><polygon class="cls-29" points="238.57 286.46 101.19 206.81 101.19 208.28 238.57 287.92 238.57 286.46"/><polygon class="cls-30" points="426.69 429.32 240.59 321.79 240.59 377.9 426.71 485.43 426.69 429.32"/><polygon class="cls-11" points="426.74 460.5 278.39 377.9 240.59 377.9 426.71 485.43 426.74 460.5"/><rect class="cls-30" x="398.32" y="465.59" width="28.36" height="3.32"/><rect class="cls-30" x="358.93" y="442.77" width="47.86" height="3.3"/><rect class="cls-30" x="322.84" y="422.14" width="47.87" height="3.32"/><rect class="cls-30" x="278.84" y="396.72" width="47.87" height="3.32"/><polygon class="cls-30" points="398.69 413.37 395.79 413.37 395.79 467.37 398.69 469.31 398.69 413.37"/><polygon class="cls-30" points="359.05 390.41 356.13 390.41 356.13 444.42 359.05 446.36 359.05 390.41"/><polygon class="cls-30" points="322.96 369.81 320.06 369.81 320.06 423.81 322.96 425.75 322.96 369.81"/><polygon class="cls-30" points="278.89 344.27 275.99 344.27 275.99 398.27 278.89 400.22 278.89 344.27"/><polygon class="cls-22" points="642.09 233.11 429.64 355.78 429.65 491.75 642.09 369.09 642.09 233.11"/><polygon class="cls-30" points="639.81 313.54 435.08 430.65 435.08 485.29 639.81 368.16 639.81 313.54"/><polygon class="cls-30" points="426.49 364.74 239.81 256.29 239.81 312.03 426.49 420.5 426.49 364.74"/><polygon class="cls-11" points="426.17 395.19 278.39 312.72 240.59 312.72 426.12 420.11 426.17 395.19"/><rect class="cls-30" x="398.88" y="401.15" width="27.27" height="3.31"/><rect class="cls-30" x="359.28" y="378.14" width="46.41" height="3.31"/><rect class="cls-30" x="323.03" y="356.78" width="46.39" height="3.32"/><rect class="cls-30" x="278.84" y="331.56" width="46.4" height="3.32"/><polygon class="cls-30" points="279.26 279.28 276.36 279.28 276.36 333.27 279.26 335.22 279.26 279.28"/><polygon class="cls-30" points="323.07 304.68 320.18 304.68 320.18 358.68 323.07 360.64 323.07 304.68"/><polygon class="cls-30" points="359.53 325.67 356.62 325.67 356.62 379.67 359.53 381.61 359.53 325.67"/><polygon class="cls-30" points="399.06 348.74 396.15 348.74 396.15 402.75 399.06 404.69 399.06 348.74"/><polygon class="cls-30" points="637.61 247.25 434.82 363.45 434.82 418.08 637.61 301.88 637.61 247.25"/><rect class="cls-19" x="354.04" y="321.75" width="2.91" height="125"/><rect class="cls-19" x="317.72" y="298.78" width="2.91" height="126.95"/><rect class="cls-19" x="274.01" y="273.9" width="2.91" height="126.94"/><rect class="cls-19" x="393.81" y="340.54" width="2.92" height="130.25"/><rect class="cls-22" x="469.92" y="338.09" width="2.9" height="130.25"/><rect class="cls-22" x="510.66" y="312.08" width="2.92" height="130.23"/><polygon class="cls-19" points="156.68 355.86 34 285.03 34 420.41 156.68 491.25 156.68 355.86"/><polygon class="cls-22" points="640.92 241.88 549.59 294.61 549.59 421.77 640.92 369.05 640.92 241.88"/><polygon class="cls-31" points="626.12 264.72 609.46 273.65 609.47 285.03 626.13 276.12 626.12 264.72"/><polygon class="cls-31" points="596.66 281.66 580.02 290.58 580.02 301.98 596.67 293.05 596.66 281.66"/><polygon class="cls-31" points="626.12 329.04 609.46 337.96 609.47 349.36 626.13 340.43 626.12 329.04"/><polygon class="cls-31" points="596.66 345.98 580.02 354.89 580.02 366.28 596.67 357.37 596.66 345.98"/><polygon class="cls-6" points="653.15 489.94 414.77 627.14 414.78 631.9 655.85 492.77 657.69 488.48 653.15 486.14 653.15 489.94"/><polygon class="cls-7" points="657.55 488.59 414.3 628.86 414.28 633.63 657.54 493.36 657.55 488.59"/><polygon class="cls-32" points="647.37 235.7 647.37 226.3 94.36 156.71 94.36 166.67 430.83 360.21 647.37 235.7"/><polygon class="cls-33" points="647.37 235.7 647.37 226.3 430.83 309.28 430.83 360.21 647.37 235.7"/><polygon class="cls-19" points="647.06 225.89 310.61 32.36 94.36 156.85 430.83 350.39 647.06 225.89"/><polygon class="cls-11" points="420.34 605.52 433.1 612.49 420.22 619.82 420.34 605.52"/><rect class="cls-8" x="419.32" y="607.55" width="13.25" height="2.75"/><polygon class="cls-29" points="133.38 343.64 131.8 342.74 131.8 477.09 133.38 478.02 133.38 343.64"/><polygon class="cls-29" points="96.08 322.78 94.48 321.86 94.48 455.28 96.07 456.2 96.08 322.78"/><polygon class="cls-29" points="63.43 303.13 61.83 302.23 61.83 436.6 63.43 437.52 63.43 303.13"/><polygon class="cls-29" points="156.78 460.8 33.81 389.76 33.81 391.21 156.78 462.27 156.78 460.8"/><polygon class="cls-29" points="156.34 428.09 34.18 357.53 34.18 358.99 156.34 429.57 156.34 428.09"/><polygon class="cls-29" points="156.71 395.46 34.91 325.13 34.91 326.59 156.71 396.92 156.71 395.46"/><polygon class="cls-25" points="52.92 317.03 44.47 312.15 44.47 322.65 52.92 327.52 52.92 317.03"/><polygon class="cls-25" points="83.98 335.32 75.55 330.45 75.55 340.94 83.98 345.83 83.98 335.32"/><polygon class="cls-25" points="116.26 353.65 107.82 348.79 107.82 359.28 116.26 364.15 116.26 353.65"/><polygon class="cls-11" points="436.62 400.41 448.59 407.22 436.62 414.77 436.62 400.41"/><rect class="cls-30" x="435.69" y="401.15" width="13.82" height="3.31"/><polygon class="cls-11" points="436.62 467.81 448.59 474.62 436.62 482.16 436.62 467.81"/><rect class="cls-30" x="435.69" y="468.54" width="13.82" height="3.31"/><polygon class="cls-27" points="629.89 223.75 314.33 42.24 111.54 159 427.1 340.51 629.89 223.75"/><polygon class="cls-34" points="314.33 49.61 623.5 227.43 629.89 223.75 314.33 42.24 111.54 159 117.94 162.67 314.33 49.61"/><path class="cls-4" d="M323.22,39.49h-6.46L253.21,79.44V132l27.85,17.29L255.17,163.7l1.23.8,3.77-2.09,12.75,8.17-2.79,1.56,1.24.77,25.19-14,20.2,12.54H420.41L485.78,133ZM273.94,170l-12.74-8.18,6.16-3.41,13.05,8Zm7.49-4.15-13.07-8,6-3.32,12.81,8.13Zm6.75-3.76L275.38,154l5.71-3.17L293.84,159Zm6.68-3.71-12.74-8.16.21-.13,13,8.06Z"/><polygon class="cls-26" points="314.33 49.61 314.33 42.24 111.54 159 117.94 162.67 314.33 49.61"/><polygon class="cls-5" points="325.34 115.26 258.74 76.82 258.74 120.55 325.34 158.99 325.34 115.26"/><polygon class="cls-35" points="325.04 115.64 391.62 77.19 391.62 120.92 325.02 159.36 325.04 115.64"/><polygon class="cls-36" points="457.88 44.6 389.52 3.8 283.72 3.8 218.84 44.6 218.84 98.3 283.72 138.58 389.52 138.58 457.88 98.3 457.88 44.6"/><polygon class="cls-37" points="457.94 41.02 389.22 0 282.8 0 217.57 41.02 217.57 95.04 282.8 135.53 389.22 135.53 457.94 95.04 457.94 41.02"/><path class="cls-38" d="M389.22,0H282.8L217.57,41V95l65.23,40.49H389.22L457.94,95V41Zm59.64,91.31-62.78,37H288.93l-59.57-37V42L288.93,4.53h97.15L448.86,42Z"/><polygon class="cls-26" points="234.15 104.94 232.76 104.15 232.85 148.66 234.22 149.44 234.15 104.94"/><polygon class="cls-26" points="249.62 115 248.25 114.21 248.32 158.72 249.69 159.52 249.62 115"/><polygon class="cls-26" points="248.89 121.52 233.8 112.81 233.8 114 248.89 122.71 248.89 121.52"/><polygon class="cls-26" points="249.32 129.41 233.71 120.39 233.73 121.59 249.34 130.61 249.32 129.41"/><polygon class="cls-26" points="249.41 137.31 233.29 127.91 233.33 129.13 249.43 138.52 249.41 137.31"/><polygon class="cls-26" points="249.05 145.26 233.9 136.11 233.95 137.32 249.1 146.46 249.05 145.26"/><polygon class="cls-26" points="248.97 153.53 233.13 144.36 233.15 145.57 249.01 154.73 248.97 153.53"/><path class="cls-38" d="M353.43,55.16l28.22-16.27,24.35,14L328.26,97.81l-24.36-14L334,66.39l-9.84-5.68L294.08,78.09,269.72,64l77.73-44.86,24.36,14.05L343.6,49.5Z"/><polygon class="cls-4" points="516.75 269.33 366.77 183.15 312.5 183.15 373.35 299.86 464.27 299.86 516.75 269.33"/><polygon class="cls-39" points="420.88 226.34 372.95 253.49 372.95 300.5 420.88 273.34 420.88 226.34"/><polygon class="cls-32" points="392.82 260.79 406.73 252.41 406.73 280.25 392.82 288.62 392.82 260.79"/><polygon class="cls-32" points="373.29 253.77 252.62 184.1 252.62 230.85 373.28 300.52 373.29 253.77"/><polygon class="cls-11" points="282.89 214.95 269.35 207.23 269.35 212.42 282.89 220.15 282.89 214.95"/><polygon class="cls-11" points="306.98 228.13 293.46 220.41 293.46 225.6 306.98 233.32 306.98 228.13"/><polygon class="cls-11" points="332.21 241.69 318.69 233.96 318.69 239.16 332.21 246.88 332.21 241.69"/><polygon class="cls-19" points="373.41 253.97 421.15 225.86 300.12 155.95 252.37 184.05 373.41 253.97"/><polygon class="cls-4" points="605.54 226.6 541.28 189.49 523.76 260.43 546.34 260.68 605.54 226.6"/><polygon class="cls-32" points="587.51 223.65 587.51 213.29 459.27 212.93 459.39 223.43 523.65 260.54 587.51 223.65"/><polygon class="cls-39" points="587.51 214.27 587.51 203.91 523.65 228.51 523.65 260.54 587.51 214.27"/><polygon class="cls-19" points="587.14 203.97 522.88 176.24 459.01 213.12 523.28 240.84 587.14 203.97"/><polygon class="cls-11" points="533.83 235.6 522.55 229.07 511.33 235.55 522.62 242.07 533.83 235.6"/><polygon class="cls-19" points="533.1 233.65 519.86 241.29 519.86 241.92 533.1 234.27 533.1 233.65"/><polygon class="cls-19" points="531.35 232.54 518.12 240.18 518.12 240.81 531.35 233.17 531.35 232.54"/><polygon class="cls-19" points="529.7 231.71 516.46 239.36 516.46 239.98 529.7 232.35 529.7 231.71"/><polygon class="cls-19" points="527.95 230.79 514.72 238.44 514.72 239.06 527.95 231.42 527.95 230.79"/><polygon class="cls-19" points="526.29 229.78 513.05 237.42 513.05 238.06 526.29 230.4 526.29 229.78"/><polygon class="cls-19" points="524.91 229.04 511.67 236.68 511.67 237.32 524.91 229.68 524.91 229.04"/><polygon class="cls-11" points="552.98 223.8 541.68 217.29 530.48 223.76 541.77 230.28 552.98 223.8"/><polygon class="cls-19" points="552.25 221.86 539.01 229.5 539.01 230.12 552.25 222.48 552.25 221.86"/><polygon class="cls-19" points="550.5 220.76 537.27 228.41 537.27 229.03 550.5 221.39 550.5 220.76"/><polygon class="cls-19" points="548.85 219.93 535.61 227.57 535.61 228.2 548.85 220.56 548.85 219.93"/><polygon class="cls-19" points="547.09 219.01 533.85 226.65 533.85 227.28 547.09 219.64 547.09 219.01"/><polygon class="cls-19" points="545.44 217.99 532.2 225.64 532.2 226.26 545.44 218.62 545.44 217.99"/><polygon class="cls-19" points="544.06 217.27 530.82 224.9 530.82 225.52 544.06 217.89 544.06 217.27"/><polygon class="cls-11" points="570.89 213.99 559.61 207.47 548.39 213.95 559.68 220.47 570.89 213.99"/><polygon class="cls-19" points="570.17 212.04 556.93 219.69 556.93 220.32 570.17 212.68 570.17 212.04"/><polygon class="cls-19" points="568.42 210.94 555.19 218.59 555.19 219.21 568.42 211.56 568.42 210.94"/><polygon class="cls-19" points="566.76 210.12 553.52 217.75 553.52 218.38 566.76 210.73 566.76 210.12"/><polygon class="cls-19" points="565.01 209.19 551.79 216.84 551.79 217.45 565.01 209.82 565.01 209.19"/><polygon class="cls-19" points="563.36 208.18 550.12 215.83 550.12 216.45 563.36 208.79 563.36 208.18"/><polygon class="cls-19" points="561.98 207.43 548.75 215.09 548.75 215.71 561.98 208.07 561.98 207.43"/></g></g></g></svg>