<svg xmlns="http://www.w3.org/2000/svg" viewBox="0 0 80.16 80.16"><defs><style>.cls-1,.cls-2{fill:#fff;}.cls-2{opacity:0.02;}</style></defs><title>2_1</title><g id="Capa_2" data-name="Capa 2"><g id="fondos"><path class="cls-1" d="M53.18,55.27v4.46H25.27L45.46,35.88a13.85,13.85,0,0,0,2.11-3.31,9.24,9.24,0,0,0,.8-3.89,8.22,8.22,0,0,0-.68-3.32,8.39,8.39,0,0,0-1.86-2.66,8.71,8.71,0,0,0-6-2.37,8.87,8.87,0,0,0-3.54.69,7.93,7.93,0,0,0-2.72,1.86,8.4,8.4,0,0,0-1.74,2.8,10.59,10.59,0,0,0-.69,3.51H26.3a14.25,14.25,0,0,1,1.09-5.26,12.91,12.91,0,0,1,2.8-4.23,13.13,13.13,0,0,1,9.43-3.83,14.21,14.21,0,0,1,5.15.94,13.72,13.72,0,0,1,4.32,2.63,12.76,12.76,0,0,1,3,4,11.72,11.72,0,0,1,1.12,5.14,13.43,13.43,0,0,1-3.26,9.09L35,55.27Z"/><circle class="cls-2" cx="40.08" cy="40.08" r="40.08"/></g></g></svg>