<svg xmlns="http://www.w3.org/2000/svg" viewBox="0 0 80.16 80.16"><defs><style>.cls-1,.cls-2{fill:#fff;}.cls-1{opacity:0.02;}</style></defs><title>3_1</title><g id="Capa_2" data-name="Capa 2"><g id="fondos"><circle class="cls-1" cx="40.08" cy="40.08" r="40.08"/><path class="cls-2" d="M38.22,35.91a17.73,17.73,0,0,0,3.26-.4A8.19,8.19,0,0,0,44.2,34.4a5.54,5.54,0,0,0,1.86-2.09,7.39,7.39,0,0,0,.68-3.38,7.07,7.07,0,0,0-7.55-7.54,6.53,6.53,0,0,0-5,1.91,8.28,8.28,0,0,0-2.06,5H27.36A13.25,13.25,0,0,1,30.93,20c2-2.08,4.83-3.11,8.38-3.11a13.56,13.56,0,0,1,4.83.85A11.65,11.65,0,0,1,48,20.18,11.15,11.15,0,0,1,50.6,23.9a11.93,11.93,0,0,1,.95,4.81,11.23,11.23,0,0,1-1.46,5.49A9.37,9.37,0,0,1,46,38.14a9.5,9.5,0,0,1,4.66,4.35,13.31,13.31,0,0,1,1.52,6.23A12.41,12.41,0,0,1,48.26,58,13,13,0,0,1,44,60.59a14.41,14.41,0,0,1-5.21.94,14.13,14.13,0,0,1-4.94-.86,12,12,0,0,1-4-2.43,11.84,11.84,0,0,1-2.75-3.77A12.17,12.17,0,0,1,26,49.58h4.69a7,7,0,0,0,.78,3,8.14,8.14,0,0,0,4.4,3.92,8.9,8.9,0,0,0,3.12.54,8,8,0,0,0,3.31-.69,8.3,8.3,0,0,0,4.46-4.6,8.9,8.9,0,0,0,.63-3.34c0-2.75-.86-4.8-2.6-6.15a9.84,9.84,0,0,0-6.55-1.92Z"/></g></g></svg>