<svg xmlns="http://www.w3.org/2000/svg" viewBox="0 0 80.16 80.16"><defs><style>.cls-1,.cls-2{fill:#fff;}.cls-2{opacity:0.02;}</style></defs><title>5_1</title><g id="Capa_2" data-name="Capa 2"><g id="fondos"><path class="cls-1" d="M38.65,22.61l-2.8,9.21,2.57-.23a14.23,14.23,0,0,1,5.84,1.17A13.76,13.76,0,0,1,48.77,36a14.84,14.84,0,0,1,2.95,4.78,16.34,16.34,0,0,1,1.06,5.89,15,15,0,0,1-4.61,11,15.38,15.38,0,0,1-5,3.2A16.74,16.74,0,0,1,36.94,62a14.63,14.63,0,0,1-7.67-2,15.92,15.92,0,0,1-5.54-5.69l3.83-2.74a12.62,12.62,0,0,0,4,4.31,9.69,9.69,0,0,0,5.58,1.69,11.2,11.2,0,0,0,4.37-.83,10.28,10.28,0,0,0,3.43-2.31,10.38,10.38,0,0,0,2.26-3.52,11.88,11.88,0,0,0,.8-4.38,10.36,10.36,0,0,0-.83-4.2A10.14,10.14,0,0,0,44.86,39a10.54,10.54,0,0,0-3.44-2.17,11.48,11.48,0,0,0-4.2-.77,12.2,12.2,0,0,0-4.29.77,20,20,0,0,0-3.89,2l6.24-20.64H52.43v4.46Z"/><circle class="cls-2" cx="40.08" cy="40.08" r="40.08"/></g></g></svg>