<svg id="fondos" xmlns="http://www.w3.org/2000/svg" viewBox="0 0 838.12 100.16"><defs><style>.cls-1{fill:#e6e6e6;}</style></defs><title>canino5</title><rect class="cls-1" width="838.12" height="100.16"/><path d="M59.51,57.89V35.54l15.19,18v-17h1.81V58.52l-15.17-18V57.89Z"/><path d="M87.5,58.47a6.79,6.79,0,0,1-2.67-.55,7.43,7.43,0,0,1-2.31-1.58A6.56,6.56,0,0,1,81,54.12a7.13,7.13,0,0,1-.51-2.7,7,7,0,0,1,.53-2.7,7,7,0,0,1,6.46-4.3,7.15,7.15,0,0,1,5,2,6.95,6.95,0,0,1,1.55,7.62,6.73,6.73,0,0,1-1.52,2.25,7.33,7.33,0,0,1-2.34,1.58A7.08,7.08,0,0,1,87.5,58.47Zm.06-1.69a4.83,4.83,0,0,0,3.62-1.54,5.6,5.6,0,0,0,0-7.6,5,5,0,0,0-7.25,0,5.62,5.62,0,0,0,0,7.6A4.82,4.82,0,0,0,87.56,56.78Z"/><path d="M108.78,47.51a8.13,8.13,0,0,1,2-2.39,3.66,3.66,0,0,1,2.23-.7,4,4,0,0,1,.77.07,5.16,5.16,0,0,1,.77.21l-.59,1.7a5.26,5.26,0,0,0-.6-.15,3.31,3.31,0,0,0-.61-.06,3.41,3.41,0,0,0-2.78,1.52,6.17,6.17,0,0,0-1.15,3.8v6.38H107v-13h1.8Z"/><path d="M127.59,51.45H117.26a6.31,6.31,0,0,0,1.26,3.95,3.91,3.91,0,0,0,3.18,1.44,4.19,4.19,0,0,0,2.52-.78,5.65,5.65,0,0,0,1.8-2.34l1.66.91a7.17,7.17,0,0,1-2.44,2.91,6.39,6.39,0,0,1-3.54.93,6,6,0,0,1-4.62-1.92,7.06,7.06,0,0,1-1.76-5,7.45,7.45,0,0,1,1.75-5.16,5.82,5.82,0,0,1,4.57-2A5.54,5.54,0,0,1,126,46.23a6.94,6.94,0,0,1,1.62,4.82Zm-2.14-1.54a3.71,3.71,0,0,0-4-3.75,3.88,3.88,0,0,0-2.75,1,4.19,4.19,0,0,0-1.28,2.72Z"/><path d="M140.94,57.89V55.52a5,5,0,0,1-1.81,2.19,5,5,0,0,1-2.75.76,5.72,5.72,0,0,1-4.5-1.92,7.34,7.34,0,0,1-1.71-5.07,7.56,7.56,0,0,1,1.68-5.09,5.89,5.89,0,0,1,7.22-1.25,4.88,4.88,0,0,1,1.87,2.13V44.9h1.8v13Zm-8.76-6.35a5.89,5.89,0,0,0,1.13,3.88,4,4,0,0,0,3.25,1.36,3.91,3.91,0,0,0,3.23-1.48A6.49,6.49,0,0,0,141,51.2a5.63,5.63,0,0,0-1.18-3.76,4,4,0,0,0-3.2-1.37,4,4,0,0,0-3.23,1.46A6.18,6.18,0,0,0,132.18,51.54Z"/><path d="M149.55,57.89h-1.86V35.19h1.86Z"/><path d="M154.13,39.83a1.32,1.32,0,0,1,.41-1,1.36,1.36,0,0,1,1-.4,1.34,1.34,0,0,1,1,.4,1.36,1.36,0,0,1,0,2,1.44,1.44,0,0,1-2,0A1.31,1.31,0,0,1,154.13,39.83Zm.46,18.06v-13h1.86v13Z"/><path d="M159.31,57.89l7.25-11.36H159.8V44.9h9.88l-7.2,11.37h7.4v1.62Z"/><path d="M182.39,57.89V55.52a4.88,4.88,0,0,1-1.81,2.19,4.94,4.94,0,0,1-2.74.76,5.74,5.74,0,0,1-4.51-1.92,7.34,7.34,0,0,1-1.71-5.07,7.57,7.57,0,0,1,1.69-5.09,5.88,5.88,0,0,1,7.21-1.25,4.82,4.82,0,0,1,1.87,2.13V44.9h1.8v13Zm-8.76-6.35a5.89,5.89,0,0,0,1.14,3.88A4,4,0,0,0,178,56.78a3.9,3.9,0,0,0,3.23-1.48,6.43,6.43,0,0,0,1.18-4.1,5.62,5.62,0,0,0-1.17-3.76A4,4,0,0,0,178,46.07a3.93,3.93,0,0,0-3.22,1.46A6.18,6.18,0,0,0,173.63,51.54Z"/><path d="M199.65,57.89h-1.86V35.19h1.86Z"/><path d="M214.16,57.89V55.52a4.88,4.88,0,0,1-1.81,2.19,4.94,4.94,0,0,1-2.74.76,5.74,5.74,0,0,1-4.51-1.92,7.38,7.38,0,0,1-1.7-5.07,7.56,7.56,0,0,1,1.68-5.09,5.89,5.89,0,0,1,7.22-1.25,4.86,4.86,0,0,1,1.86,2.13V44.9H216v13Zm-8.76-6.35a5.89,5.89,0,0,0,1.14,3.88,4,4,0,0,0,3.24,1.36A3.88,3.88,0,0,0,213,55.3a6.43,6.43,0,0,0,1.18-4.1A5.62,5.62,0,0,0,213,47.44a4,4,0,0,0-3.21-1.37,4,4,0,0,0-3.22,1.46A6.18,6.18,0,0,0,205.4,51.54Z"/><path d="M229.1,39.83a1.3,1.3,0,0,1,.42-1,1.4,1.4,0,0,1,2,0,1.36,1.36,0,0,1,0,2,1.44,1.44,0,0,1-2,0A1.31,1.31,0,0,1,229.1,39.83Zm.46,18.06v-13h1.86v13Z"/><path d="M236.34,57.89v-13h1.72v2A5.25,5.25,0,0,1,240,45a5.48,5.48,0,0,1,2.64-.62,4.27,4.27,0,0,1,4.67,4.66v8.81h-1.83v-8a4.35,4.35,0,0,0-.81-2.89,3.14,3.14,0,0,0-2.51-1,3.64,3.64,0,0,0-3,1.23,6.12,6.12,0,0,0-1,3.84v6.78Z"/><path d="M262.08,47.27a7,7,0,0,0-1.94-.94A7.08,7.08,0,0,0,258,46a5,5,0,0,0-3.86,1.55,5.85,5.85,0,0,0-1.43,4.12,5.09,5.09,0,0,0,1.48,3.77A5.19,5.19,0,0,0,258,56.93a6.46,6.46,0,0,0,2.13-.37,8.05,8.05,0,0,0,2.11-1.1v2a7.71,7.71,0,0,1-2.11.81,10.81,10.81,0,0,1-2.47.27,6.53,6.53,0,0,1-4.88-2,6.86,6.86,0,0,1-1.9-5,6.79,6.79,0,0,1,7.14-7.15,10.35,10.35,0,0,1,2.21.22,7.38,7.38,0,0,1,1.84.66Z"/><path d="M275.25,57.89V55.52a4.88,4.88,0,0,1-1.81,2.19,5,5,0,0,1-2.75.76,5.72,5.72,0,0,1-4.5-1.92,7.34,7.34,0,0,1-1.71-5.07,7.52,7.52,0,0,1,1.69-5.09,5.88,5.88,0,0,1,7.21-1.25,4.82,4.82,0,0,1,1.87,2.13V44.9h1.8v13Zm-8.76-6.35a5.94,5.94,0,0,0,1.13,3.88,4,4,0,0,0,3.25,1.36,3.91,3.91,0,0,0,3.23-1.48,6.49,6.49,0,0,0,1.18-4.1,5.57,5.57,0,0,0-1.18-3.76,4.36,4.36,0,0,0-6.43.09A6.18,6.18,0,0,0,266.49,51.54Z"/><path d="M283.68,44.9v6.49a7.68,7.68,0,0,0,.85,4.18,3.94,3.94,0,0,0,5.7,0,7.47,7.47,0,0,0,.87-4.16V44.9h1.78v7.41a6.69,6.69,0,0,1-1.39,4.6,5.19,5.19,0,0,1-4.08,1.56,5.27,5.27,0,0,1-4.12-1.56,6.65,6.65,0,0,1-1.41-4.6V44.9Z"/><path d="M298.07,46.44h-2.39V44.9h2.39V39.57h1.77V44.9h2.61v1.54h-2.61V57.89h-1.77Z"/><path d="M314.72,57.89V55.52a4.86,4.86,0,0,1-1.8,2.19,5,5,0,0,1-2.75.76,5.71,5.71,0,0,1-4.5-1.92A7.34,7.34,0,0,1,304,51.48a7.56,7.56,0,0,1,1.68-5.09,5.89,5.89,0,0,1,7.22-1.25,4.8,4.8,0,0,1,1.86,2.13V44.9h1.81v13ZM306,51.54a5.89,5.89,0,0,0,1.13,3.88,4,4,0,0,0,3.25,1.36,3.91,3.91,0,0,0,3.23-1.48,6.49,6.49,0,0,0,1.17-4.1,5.62,5.62,0,0,0-1.17-3.76,4,4,0,0,0-3.21-1.37,4,4,0,0,0-3.22,1.46A6.18,6.18,0,0,0,306,51.54Z"/><path d="M331.47,47.27a7,7,0,0,0-1.94-.94,7.08,7.08,0,0,0-2.1-.32,5,5,0,0,0-3.86,1.55,5.85,5.85,0,0,0-1.43,4.12,5.09,5.09,0,0,0,1.48,3.77,5.19,5.19,0,0,0,3.81,1.48,6.46,6.46,0,0,0,2.13-.37,8.21,8.21,0,0,0,2.11-1.1v2a7.71,7.71,0,0,1-2.11.81,10.81,10.81,0,0,1-2.47.27,6.53,6.53,0,0,1-4.88-2,6.86,6.86,0,0,1-1.9-5,6.79,6.79,0,0,1,7.14-7.15,10.35,10.35,0,0,1,2.21.22,7.38,7.38,0,0,1,1.84.66Z"/><path d="M334.71,39.83a1.29,1.29,0,0,1,.41-1,1.34,1.34,0,0,1,1-.4,1.37,1.37,0,0,1,1,.4,1.32,1.32,0,0,1,.41,1,1.3,1.3,0,0,1-.4,1,1.44,1.44,0,0,1-2,0A1.3,1.3,0,0,1,334.71,39.83Zm.45,18.06v-13H337v13Z"/><path d="M347.85,58.47a6.79,6.79,0,0,1-2.67-.55,7.59,7.59,0,0,1-2.32-1.58,6.53,6.53,0,0,1-1.49-2.22,7.13,7.13,0,0,1-.51-2.7,6.84,6.84,0,0,1,.53-2.7A7,7,0,0,1,345.16,45a6.83,6.83,0,0,1,2.69-.53,7.06,7.06,0,0,1,2.73.53,7.14,7.14,0,0,1,3.85,3.79,6.78,6.78,0,0,1,.53,2.68,6.87,6.87,0,0,1-.52,2.67,6.62,6.62,0,0,1-1.53,2.25,7.1,7.1,0,0,1-5.06,2.13Zm0-1.69a4.84,4.84,0,0,0,3.63-1.54,5.6,5.6,0,0,0,0-7.6,4.88,4.88,0,0,0-3.64-1.54,4.83,4.83,0,0,0-3.61,1.54,5.62,5.62,0,0,0,0,7.6A4.79,4.79,0,0,0,347.9,56.78Zm-1.94-14,3.12-5.13h2.4l-4.15,5.13Z"/><path d="M358.68,57.89v-13h1.72v2A5.32,5.32,0,0,1,362.34,45a5.53,5.53,0,0,1,2.64-.62,4.27,4.27,0,0,1,4.68,4.66v8.81h-1.83v-8A4.35,4.35,0,0,0,367,47a3.14,3.14,0,0,0-2.51-1,3.64,3.64,0,0,0-3,1.23,6.12,6.12,0,0,0-1,3.84v6.78Z"/><path d="M374.74,56.66a1.47,1.47,0,0,1,1.49-1.49,1.46,1.46,0,0,1,1.07.43,1.47,1.47,0,0,1,.43,1.06,1.47,1.47,0,0,1-1.5,1.5,1.47,1.47,0,0,1-1.06-.43A1.46,1.46,0,0,1,374.74,56.66Z"/></svg>