<svg id="fondos" xmlns="http://www.w3.org/2000/svg" viewBox="0 0 838.12 100.16"><defs><style>.cls-1{fill:#e6e6e6;}</style></defs><title>canino2</title><rect class="cls-1" width="838.12" height="100.16"/><path d="M72.53,57.89H70.15L62.63,47.67H61.45V57.89H59.51V36.45h3.94a8,8,0,0,1,5.22,1.45,5.39,5.39,0,0,1,1.73,4.39,5.21,5.21,0,0,1-1.48,3.94,5.65,5.65,0,0,1-4.1,1.44ZM61.45,38.15v7.92h2a6.22,6.22,0,0,0,3.8-.87,3.63,3.63,0,0,0,1.07-3,3.91,3.91,0,0,0-1.11-3.15,5.85,5.85,0,0,0-3.76-.94Z"/><path d="M85.71,51.45H75.38a6.31,6.31,0,0,0,1.26,3.95,3.91,3.91,0,0,0,3.18,1.44,4.19,4.19,0,0,0,2.52-.78,5.58,5.58,0,0,0,1.8-2.34l1.66.91a7.17,7.17,0,0,1-2.44,2.91,6.39,6.39,0,0,1-3.54.93,6,6,0,0,1-4.62-1.91,7.1,7.1,0,0,1-1.76-5,7.45,7.45,0,0,1,1.75-5.16,5.82,5.82,0,0,1,4.57-2,5.54,5.54,0,0,1,4.33,1.81,6.94,6.94,0,0,1,1.62,4.82Zm-2.14-1.54a3.71,3.71,0,0,0-4-3.75,3.88,3.88,0,0,0-2.75,1,4.19,4.19,0,0,0-1.28,2.72Z"/><path d="M99.06,57.89V55.52a4.74,4.74,0,0,1-4.56,2.95A5.72,5.72,0,0,1,90,56.55a7.34,7.34,0,0,1-1.71-5.07A7.56,7.56,0,0,1,90,46.39a5.89,5.89,0,0,1,7.22-1.25,4.88,4.88,0,0,1,1.87,2.13V44.9h1.8v13ZM90.3,51.54a5.89,5.89,0,0,0,1.13,3.88,4,4,0,0,0,3.25,1.36,3.91,3.91,0,0,0,3.23-1.48,6.49,6.49,0,0,0,1.18-4.1,5.63,5.63,0,0,0-1.18-3.76,4,4,0,0,0-3.2-1.37,4,4,0,0,0-3.23,1.46A6.18,6.18,0,0,0,90.3,51.54Z"/><path d="M107.67,57.89h-1.86V35.19h1.86Z"/><path d="M112.25,39.83a1.32,1.32,0,0,1,.41-1,1.37,1.37,0,0,1,1-.4,1.34,1.34,0,0,1,1,.4,1.36,1.36,0,0,1,0,2,1.44,1.44,0,0,1-2,0A1.31,1.31,0,0,1,112.25,39.83Zm.46,18.06v-13h1.86v13Z"/><path d="M117.43,57.89l7.25-11.36h-6.76V44.9h9.88l-7.2,11.37H128v1.62Z"/><path d="M140.51,57.89V55.52a4.88,4.88,0,0,1-1.81,2.19,4.94,4.94,0,0,1-2.74.76,5.74,5.74,0,0,1-4.51-1.92,7.34,7.34,0,0,1-1.71-5.07,7.57,7.57,0,0,1,1.69-5.09,5.88,5.88,0,0,1,7.21-1.25,4.82,4.82,0,0,1,1.87,2.13V44.9h1.8v13Zm-8.76-6.35a5.89,5.89,0,0,0,1.14,3.88,4,4,0,0,0,3.24,1.36,3.9,3.9,0,0,0,3.23-1.48,6.43,6.43,0,0,0,1.18-4.1,5.62,5.62,0,0,0-1.17-3.76,4,4,0,0,0-3.21-1.37,3.93,3.93,0,0,0-3.22,1.46A6.18,6.18,0,0,0,131.75,51.54Z"/><path d="M149,47.51a8,8,0,0,1,2-2.39,3.69,3.69,0,0,1,2.24-.7,4.08,4.08,0,0,1,.77.07,5.51,5.51,0,0,1,.77.21l-.59,1.7a6,6,0,0,0-.61-.15,3.23,3.23,0,0,0-.61-.06,3.39,3.39,0,0,0-2.77,1.52,6.11,6.11,0,0,0-1.15,3.8v6.38h-1.8v-13H149Z"/><path d="M164.9,39.83a1.38,1.38,0,0,1,1.39-1.37,1.37,1.37,0,0,1,1,.4,1.3,1.3,0,0,1,.42,1,1.34,1.34,0,0,1-.4,1,1.37,1.37,0,0,1-1,.4,1.34,1.34,0,0,1-1-.4A1.3,1.3,0,0,1,164.9,39.83Zm.45,18.06v-13h1.87v13Z"/><path d="M172.14,57.89v-13h1.71v2A5.32,5.32,0,0,1,175.79,45a5.54,5.54,0,0,1,2.65-.62,4.27,4.27,0,0,1,4.67,4.66v8.81h-1.83v-8a4.35,4.35,0,0,0-.81-2.89A3.16,3.16,0,0,0,178,46a3.65,3.65,0,0,0-3,1.23,6.12,6.12,0,0,0-1,3.84v6.78Z"/><path d="M197.87,47.27a6.9,6.9,0,0,0-1.93-.94,7.14,7.14,0,0,0-2.11-.31A5,5,0,0,0,190,47.56a5.81,5.81,0,0,0-1.44,4.12A5.1,5.1,0,0,0,190,55.45a5.19,5.19,0,0,0,3.8,1.48,6.41,6.41,0,0,0,2.13-.37,8.1,8.1,0,0,0,2.12-1.1v2a8,8,0,0,1-2.11.81,10.9,10.9,0,0,1-2.48.27,6.51,6.51,0,0,1-4.87-2,6.86,6.86,0,0,1-1.91-5,6.81,6.81,0,0,1,7.15-7.15,10.42,10.42,0,0,1,2.21.22,7.31,7.31,0,0,1,1.83.66Z"/><path d="M211,57.89V55.52a4.88,4.88,0,0,1-1.81,2.19,4.94,4.94,0,0,1-2.74.76A5.74,5.74,0,0,1,202,56.55a7.38,7.38,0,0,1-1.7-5.07A7.56,7.56,0,0,1,202,46.39a5.89,5.89,0,0,1,7.22-1.25A4.86,4.86,0,0,1,211,47.27V44.9h1.81v13Zm-8.76-6.35a5.89,5.89,0,0,0,1.14,3.88,4,4,0,0,0,3.24,1.36,3.88,3.88,0,0,0,3.23-1.48,6.43,6.43,0,0,0,1.18-4.1,5.62,5.62,0,0,0-1.17-3.76,4,4,0,0,0-3.21-1.37,4,4,0,0,0-3.22,1.46A6.18,6.18,0,0,0,202.28,51.54Z"/><path d="M219.48,44.9v6.49a7.69,7.69,0,0,0,.84,4.18,3.21,3.21,0,0,0,2.85,1.21A3.25,3.25,0,0,0,226,55.55a7.57,7.57,0,0,0,.86-4.16V44.9h1.79v7.41a6.69,6.69,0,0,1-1.39,4.6,6.17,6.17,0,0,1-8.2,0,6.65,6.65,0,0,1-1.41-4.6V44.9Z"/><path d="M233.87,46.44h-2.39V44.9h2.39V39.57h1.77V44.9h2.61v1.54h-2.61V57.89h-1.77Z"/><path d="M250.52,57.89V55.52a4.88,4.88,0,0,1-1.81,2.19,4.94,4.94,0,0,1-2.74.76,5.74,5.74,0,0,1-4.51-1.92,7.34,7.34,0,0,1-1.71-5.07,7.57,7.57,0,0,1,1.69-5.09,5.88,5.88,0,0,1,7.21-1.25,4.82,4.82,0,0,1,1.87,2.13V44.9h1.8v13Zm-8.76-6.35a5.89,5.89,0,0,0,1.14,3.88,4,4,0,0,0,3.24,1.36,3.9,3.9,0,0,0,3.23-1.48,6.43,6.43,0,0,0,1.18-4.1,5.62,5.62,0,0,0-1.17-3.76,4,4,0,0,0-3.21-1.37A3.93,3.93,0,0,0,243,47.53,6.18,6.18,0,0,0,241.76,51.54Z"/><path d="M267.26,47.27a6.9,6.9,0,0,0-1.93-.94,7.14,7.14,0,0,0-2.11-.31,5,5,0,0,0-3.85,1.54,5.81,5.81,0,0,0-1.44,4.12,5.1,5.1,0,0,0,1.49,3.77,5.19,5.19,0,0,0,3.8,1.48,6.41,6.41,0,0,0,2.13-.37,8.1,8.1,0,0,0,2.12-1.1v2a8,8,0,0,1-2.11.81,10.9,10.9,0,0,1-2.48.27,6.51,6.51,0,0,1-4.87-2,6.86,6.86,0,0,1-1.91-5,6.81,6.81,0,0,1,7.15-7.15,10.42,10.42,0,0,1,2.21.22,7.31,7.31,0,0,1,1.83.66Z"/><path d="M270.5,39.83a1.38,1.38,0,0,1,1.39-1.37,1.37,1.37,0,0,1,1,.4,1.3,1.3,0,0,1,.42,1,1.34,1.34,0,0,1-.4,1,1.37,1.37,0,0,1-1,.4,1.37,1.37,0,0,1-1.39-1.38ZM271,57.89v-13h1.86v13Z"/><path d="M283.64,58.47a6.79,6.79,0,0,1-2.67-.55,7.55,7.55,0,0,1-2.31-1.58,6.53,6.53,0,0,1-1.49-2.22A7,7,0,0,1,281,45a6.78,6.78,0,0,1,2.68-.53,7,7,0,0,1,7.12,7,6.88,6.88,0,0,1-.53,2.67,6.73,6.73,0,0,1-1.52,2.25,7.14,7.14,0,0,1-5.07,2.13Zm.06-1.69a4.85,4.85,0,0,0,3.63-1.54,5.62,5.62,0,0,0,0-7.6,5,5,0,0,0-7.25,0,5.62,5.62,0,0,0,0,7.6A4.82,4.82,0,0,0,283.7,56.78Zm-1.95-14,3.12-5.13h2.4l-4.14,5.13Z"/><path d="M294.48,57.89v-13h1.71v2A5.35,5.35,0,0,1,298.14,45a5.48,5.48,0,0,1,2.64-.62,4.27,4.27,0,0,1,4.67,4.66v8.81h-1.83v-8a4.35,4.35,0,0,0-.81-2.89,3.14,3.14,0,0,0-2.51-1,3.64,3.64,0,0,0-3,1.23,6.12,6.12,0,0,0-1,3.84v6.78Z"/><path d="M310.54,56.66a1.49,1.49,0,1,1,3,0,1.46,1.46,0,0,1-.43,1.07,1.52,1.52,0,0,1-2.12,0A1.46,1.46,0,0,1,310.54,56.66Z"/></svg>