<svg id="fondos" xmlns="http://www.w3.org/2000/svg" viewBox="0 0 838.12 100.16"><defs><style>.cls-1{fill:#e6e6e6;}</style></defs><title>canino3</title><rect class="cls-1" width="838.12" height="100.16"/><path d="M72.53,50.89H70.15L62.63,40.67H61.45V50.89H59.51V29.45h3.94a8,8,0,0,1,5.22,1.45,5.39,5.39,0,0,1,1.73,4.39,5.21,5.21,0,0,1-1.48,3.94,5.65,5.65,0,0,1-4.1,1.44ZM61.45,31.15v7.92h2a6.22,6.22,0,0,0,3.8-.87,3.63,3.63,0,0,0,1.07-3,3.91,3.91,0,0,0-1.11-3.15,5.85,5.85,0,0,0-3.76-.94Z"/><path d="M85.71,44.45H75.38a6.31,6.31,0,0,0,1.26,3.95,3.91,3.91,0,0,0,3.18,1.44,4.19,4.19,0,0,0,2.52-.78,5.58,5.58,0,0,0,1.8-2.34l1.66.91a7.17,7.17,0,0,1-2.44,2.91,6.39,6.39,0,0,1-3.54.93,6,6,0,0,1-4.62-1.91,7.1,7.1,0,0,1-1.76-5,7.45,7.45,0,0,1,1.75-5.16,5.82,5.82,0,0,1,4.57-2,5.54,5.54,0,0,1,4.33,1.81,6.94,6.94,0,0,1,1.62,4.82Zm-2.14-1.54a3.71,3.71,0,0,0-4-3.75,3.88,3.88,0,0,0-2.75,1,4.19,4.19,0,0,0-1.28,2.72Z"/><path d="M99.06,50.89V48.52a4.74,4.74,0,0,1-4.56,2.95A5.72,5.72,0,0,1,90,49.55a7.34,7.34,0,0,1-1.71-5.07A7.56,7.56,0,0,1,90,39.39a5.89,5.89,0,0,1,7.22-1.25,4.88,4.88,0,0,1,1.87,2.13V37.9h1.8v13ZM90.3,44.54a5.89,5.89,0,0,0,1.13,3.88,4,4,0,0,0,3.25,1.36,3.91,3.91,0,0,0,3.23-1.48,6.49,6.49,0,0,0,1.18-4.1,5.63,5.63,0,0,0-1.18-3.76,4,4,0,0,0-3.2-1.37,4,4,0,0,0-3.23,1.46A6.18,6.18,0,0,0,90.3,44.54Z"/><path d="M107.67,50.89h-1.86V28.19h1.86Z"/><path d="M112.25,32.83a1.32,1.32,0,0,1,.41-1,1.37,1.37,0,0,1,1-.4,1.34,1.34,0,0,1,1,.4,1.36,1.36,0,0,1,0,2,1.44,1.44,0,0,1-2,0A1.31,1.31,0,0,1,112.25,32.83Zm.46,18.06v-13h1.86v13Z"/><path d="M117.43,50.89l7.25-11.36h-6.76V37.9h9.88l-7.2,11.37H128v1.62Z"/><path d="M140.51,50.89V48.52a4.88,4.88,0,0,1-1.81,2.19,4.94,4.94,0,0,1-2.74.76,5.74,5.74,0,0,1-4.51-1.92,7.34,7.34,0,0,1-1.71-5.07,7.57,7.57,0,0,1,1.69-5.09,5.88,5.88,0,0,1,7.21-1.25,4.82,4.82,0,0,1,1.87,2.13V37.9h1.8v13Zm-8.76-6.35a5.89,5.89,0,0,0,1.14,3.88,4,4,0,0,0,3.24,1.36,3.9,3.9,0,0,0,3.23-1.48,6.43,6.43,0,0,0,1.18-4.1,5.62,5.62,0,0,0-1.17-3.76,4,4,0,0,0-3.21-1.37,3.93,3.93,0,0,0-3.22,1.46A6.18,6.18,0,0,0,131.75,44.54Z"/><path d="M157.25,40.27a6.9,6.9,0,0,0-1.93-.94,7.14,7.14,0,0,0-2.11-.31,5,5,0,0,0-3.85,1.54,5.81,5.81,0,0,0-1.44,4.12,5.1,5.1,0,0,0,1.49,3.77,5.19,5.19,0,0,0,3.8,1.48,6.41,6.41,0,0,0,2.13-.37,8.1,8.1,0,0,0,2.12-1.1v2a8,8,0,0,1-2.11.81,10.9,10.9,0,0,1-2.48.27,6.51,6.51,0,0,1-4.87-2,6.86,6.86,0,0,1-1.91-5,6.81,6.81,0,0,1,7.15-7.15,10.42,10.42,0,0,1,2.21.22,7.31,7.31,0,0,1,1.83.66Z"/><path d="M160.49,32.83a1.32,1.32,0,0,1,.41-1,1.35,1.35,0,0,1,1-.4,1.37,1.37,0,0,1,1,.4,1.3,1.3,0,0,1,.42,1,1.34,1.34,0,0,1-.4,1,1.37,1.37,0,0,1-1,.4,1.37,1.37,0,0,1-1.39-1.38ZM161,50.89v-13h1.86v13Z"/><path d="M173.63,51.47a6.7,6.7,0,0,1-2.66-.55,7.47,7.47,0,0,1-2.32-1.58,6.53,6.53,0,0,1-1.49-2.22,7,7,0,0,1-.52-2.7,6.92,6.92,0,0,1,2-5A6.92,6.92,0,0,1,171,38a6.78,6.78,0,0,1,2.68-.53,7,7,0,0,1,7.12,7,6.88,6.88,0,0,1-.53,2.67,6.73,6.73,0,0,1-1.52,2.25,7.14,7.14,0,0,1-5.07,2.13Zm.06-1.69a4.85,4.85,0,0,0,3.63-1.54,5.62,5.62,0,0,0,0-7.6,5,5,0,0,0-7.25,0,5.62,5.62,0,0,0,0,7.6A4.82,4.82,0,0,0,173.69,49.78Zm-1.95-14,3.12-5.13h2.4l-4.14,5.13Z"/><path d="M184.47,50.89v-13h1.71v2A5.35,5.35,0,0,1,188.13,38a5.48,5.48,0,0,1,2.64-.62,4.27,4.27,0,0,1,4.67,4.66v8.81h-1.83v-8A4.35,4.35,0,0,0,192.8,40a3.14,3.14,0,0,0-2.51-1,3.64,3.64,0,0,0-3,1.23,6.12,6.12,0,0,0-1,3.84v6.78Z"/><path d="M218.37,50.89V48.52a4.67,4.67,0,0,1-4.53,2.95,5.72,5.72,0,0,1-4.5-1.92,7.34,7.34,0,0,1-1.71-5.07,7.56,7.56,0,0,1,1.68-5.09,5.49,5.49,0,0,1,4.36-2,5.44,5.44,0,0,1,2.85.72,4.9,4.9,0,0,1,1.85,2.13V28.19h1.83v22.7Zm-8.73-6.35a5.94,5.94,0,0,0,1.13,3.88A4,4,0,0,0,214,49.78a3.85,3.85,0,0,0,3.2-1.48,6.43,6.43,0,0,0,1.18-4.1,5.67,5.67,0,0,0-1.16-3.76,4.35,4.35,0,0,0-6.42.09A6.18,6.18,0,0,0,209.64,44.54Z"/><path d="M236.14,44.45H225.81a6.31,6.31,0,0,0,1.26,3.95,3.91,3.91,0,0,0,3.18,1.44,4.23,4.23,0,0,0,2.52-.78,5.66,5.66,0,0,0,1.8-2.34l1.65.91a7.09,7.09,0,0,1-2.44,2.91,6.38,6.38,0,0,1-3.53.93,6,6,0,0,1-4.62-1.91,7.11,7.11,0,0,1-1.77-5,7.45,7.45,0,0,1,1.75-5.16,5.84,5.84,0,0,1,4.58-2,5.5,5.5,0,0,1,4.32,1.81,6.94,6.94,0,0,1,1.63,4.82ZM234,42.91A3.72,3.72,0,0,0,230,39.16a3.84,3.84,0,0,0-2.74,1,4.09,4.09,0,0,0-1.28,2.72Z"/><path d="M248.53,57.43V37.9h1.74v2.43a5.69,5.69,0,0,1,1.95-2.16,5,5,0,0,1,2.7-.75,5.58,5.58,0,0,1,4.41,1.92A7.51,7.51,0,0,1,261,44.45a7.61,7.61,0,0,1-1.64,5.11A5.49,5.49,0,0,1,255,51.47a5.16,5.16,0,0,1-2.77-.76,5.55,5.55,0,0,1-2-2.22v8.94Zm10.53-13a6.16,6.16,0,0,0-1.15-4,3.84,3.84,0,0,0-3.17-1.45,4,4,0,0,0-3.26,1.4,5.79,5.79,0,0,0-1.18,3.85,5.92,5.92,0,0,0,1.27,4,4.17,4.17,0,0,0,3.35,1.48,3.64,3.64,0,0,0,3.05-1.4A6.18,6.18,0,0,0,259.06,44.48Z"/><path d="M266.56,40.51a8,8,0,0,1,2-2.39,3.66,3.66,0,0,1,2.23-.7,4.08,4.08,0,0,1,.77.07,5.51,5.51,0,0,1,.77.21l-.59,1.7a5.84,5.84,0,0,0-.6-.15,3.28,3.28,0,0,0-3.39,1.46,6.11,6.11,0,0,0-1.15,3.8v6.38h-1.8v-13h1.8Z"/><path d="M276,37.9v6.49a7.69,7.69,0,0,0,.84,4.18,3.21,3.21,0,0,0,2.85,1.21,3.25,3.25,0,0,0,2.86-1.23,7.57,7.57,0,0,0,.86-4.16V37.9h1.79v7.41a6.74,6.74,0,0,1-1.39,4.6,5.2,5.2,0,0,1-4.09,1.56,5.27,5.27,0,0,1-4.12-1.56,6.7,6.7,0,0,1-1.4-4.6V37.9Z"/><path d="M301.18,44.45H290.85a6.31,6.31,0,0,0,1.26,3.95,3.91,3.91,0,0,0,3.18,1.44,4.23,4.23,0,0,0,2.52-.78,5.66,5.66,0,0,0,1.8-2.34l1.65.91a7.09,7.09,0,0,1-2.44,2.91,6.38,6.38,0,0,1-3.53.93,6,6,0,0,1-4.62-1.91,7.11,7.11,0,0,1-1.77-5,7.45,7.45,0,0,1,1.75-5.16,5.84,5.84,0,0,1,4.58-2,5.52,5.52,0,0,1,4.32,1.81,6.94,6.94,0,0,1,1.63,4.82ZM299,42.91A3.72,3.72,0,0,0,295,39.16a3.84,3.84,0,0,0-2.74,1A4.09,4.09,0,0,0,291,42.91Z"/><path d="M306.73,50.89h-1.8V28.19h1.8V40.27a4.84,4.84,0,0,1,1.85-2.13,5.86,5.86,0,0,1,7.2,1.25,7.56,7.56,0,0,1,1.68,5.09,7.38,7.38,0,0,1-1.7,5.07,5.74,5.74,0,0,1-4.51,1.92,4.67,4.67,0,0,1-4.52-2.95Zm8.73-6.35a6.18,6.18,0,0,0-1.19-4,3.93,3.93,0,0,0-3.22-1.46,4,4,0,0,0-3.2,1.37,5.67,5.67,0,0,0-1.15,3.76,6.43,6.43,0,0,0,1.18,4.1,3.88,3.88,0,0,0,3.23,1.48,4,4,0,0,0,3.22-1.35A6,6,0,0,0,315.46,44.54Z"/><path d="M330.75,50.89V48.52a4.88,4.88,0,0,1-1.81,2.19,5,5,0,0,1-2.75.76,5.74,5.74,0,0,1-4.5-1.92A7.34,7.34,0,0,1,320,44.48a7.57,7.57,0,0,1,1.69-5.09,5.88,5.88,0,0,1,7.21-1.25,4.82,4.82,0,0,1,1.87,2.13V37.9h1.8v13ZM322,44.54a5.89,5.89,0,0,0,1.14,3.88,4,4,0,0,0,3.24,1.36,3.9,3.9,0,0,0,3.23-1.48,6.43,6.43,0,0,0,1.18-4.1,5.62,5.62,0,0,0-1.17-3.76,4,4,0,0,0-3.21-1.37,3.93,3.93,0,0,0-3.22,1.46A6.18,6.18,0,0,0,322,44.54Z"/><path d="M335.91,48.58l1.71-1a3.35,3.35,0,0,0,1.23,1.63,3.42,3.42,0,0,0,2,.55,2.64,2.64,0,0,0,1.81-.58,1.92,1.92,0,0,0,.68-1.54c0-1-.89-1.84-2.65-2.54a3.75,3.75,0,0,1-.44-.17,8.18,8.18,0,0,1-2.87-1.66,3,3,0,0,1-.82-2.12,3.5,3.5,0,0,1,1.17-2.72,4.32,4.32,0,0,1,3-1.06,5,5,0,0,1,2.7.69,4,4,0,0,1,1.62,2l-1.65.92a2.66,2.66,0,0,0-1-1.4,3,3,0,0,0-1.76-.49,2.23,2.23,0,0,0-1.54.55,1.77,1.77,0,0,0-.61,1.37,1.72,1.72,0,0,0,.6,1.34,8.09,8.09,0,0,0,2.49,1.15,6.64,6.64,0,0,1,2.88,1.63,3.67,3.67,0,0,1,.74,2.43,3.56,3.56,0,0,1-1.28,2.86,5.15,5.15,0,0,1-3.42,1.07,5.22,5.22,0,0,1-2.85-.76A4.18,4.18,0,0,1,335.91,48.58Z"/><path d="M357.75,50.89V29.45h3.91a16.38,16.38,0,0,1,3.4.25,5.2,5.2,0,0,1,1.9.82,4.74,4.74,0,0,1,1.57,2,7,7,0,0,1,.56,2.82,5.53,5.53,0,0,1-1.72,4.49c-1.14,1-2.95,1.43-5.42,1.43H359.7v9.62Zm1.95-11.33H361q3.54,0,4.77-.9A3.7,3.7,0,0,0,367,35.5a5.14,5.14,0,0,0-.28-1.75,4.19,4.19,0,0,0-.83-1.43,3.11,3.11,0,0,0-1.56-.91,14.79,14.79,0,0,0-3.32-.26H359.7Z"/><path d="M372.75,50.89V29.45h1.95V50.89Z"/><path d="M380,50.89V29.45H384a16.5,16.5,0,0,1,3.41.25,5.2,5.2,0,0,1,1.9.82,4.8,4.8,0,0,1,1.56,2,7,7,0,0,1,.56,2.82,5.52,5.52,0,0,1-1.71,4.49c-1.15,1-2.95,1.43-5.42,1.43H382v9.62ZM382,39.56h1.33q3.56,0,4.77-.9a3.67,3.67,0,0,0,1.22-3.16,5.4,5.4,0,0,0-.27-1.75,4.39,4.39,0,0,0-.84-1.43,3.12,3.12,0,0,0-1.55-.91,14.9,14.9,0,0,0-3.33-.26H382Z"/><path d="M395,50.89V29.45H397v8.7h11.68v-8.7h1.94V50.89h-1.94V39.82H397V50.89Z"/><path d="M415.58,49.66a1.47,1.47,0,0,1,1.49-1.49,1.46,1.46,0,0,1,1.07.43,1.47,1.47,0,0,1,.43,1.06,1.47,1.47,0,0,1-1.5,1.5,1.47,1.47,0,0,1-1.06-.43A1.46,1.46,0,0,1,415.58,49.66Z"/></svg>