<svg id="fondos" xmlns="http://www.w3.org/2000/svg" viewBox="0 0 838.12 100.16"><defs><style>.cls-1{fill:#e6e6e6;}</style></defs><title>canino1</title><rect class="cls-1" width="838.12" height="100.16"/><path d="M59.51,59.89V38.45h1.94V59.89Z"/><path d="M66.54,59.89v-13h1.71v2A5.32,5.32,0,0,1,70.19,47a5.54,5.54,0,0,1,2.65-.62,4.27,4.27,0,0,1,4.67,4.66v8.81H75.68v-8A4.3,4.3,0,0,0,74.86,49a3.14,3.14,0,0,0-2.51-1,3.64,3.64,0,0,0-3,1.23,6.12,6.12,0,0,0-1,3.84v6.78Z"/><path d="M92.27,49.27a6.9,6.9,0,0,0-1.93-.94A7.15,7.15,0,0,0,88.23,48a5,5,0,0,0-3.85,1.55,5.81,5.81,0,0,0-1.44,4.12,5.1,5.1,0,0,0,1.49,3.77,5.19,5.19,0,0,0,3.8,1.48,6.46,6.46,0,0,0,2.13-.37,8.1,8.1,0,0,0,2.12-1.1v2a8,8,0,0,1-2.11.81,10.9,10.9,0,0,1-2.48.27,6.51,6.51,0,0,1-4.87-2,6.86,6.86,0,0,1-1.91-5,6.81,6.81,0,0,1,7.15-7.15,10.42,10.42,0,0,1,2.21.22,7.31,7.31,0,0,1,1.83.66Z"/><path d="M105.44,59.89V57.52a4.88,4.88,0,0,1-1.81,2.19,4.94,4.94,0,0,1-2.74.76,5.74,5.74,0,0,1-4.51-1.92,7.33,7.33,0,0,1-1.7-5.07,7.56,7.56,0,0,1,1.68-5.09,5.88,5.88,0,0,1,7.21-1.25,4.82,4.82,0,0,1,1.87,2.13V46.9h1.8v13Zm-8.76-6.35a5.89,5.89,0,0,0,1.14,3.88,4,4,0,0,0,3.24,1.36,3.88,3.88,0,0,0,3.23-1.48,6.43,6.43,0,0,0,1.18-4.1,5.62,5.62,0,0,0-1.17-3.76,4,4,0,0,0-3.21-1.37,3.93,3.93,0,0,0-3.22,1.46A6.18,6.18,0,0,0,96.68,53.54Z"/><path d="M113.88,46.9v6.49a7.69,7.69,0,0,0,.84,4.18,3.21,3.21,0,0,0,2.85,1.21,3.25,3.25,0,0,0,2.86-1.23,7.57,7.57,0,0,0,.86-4.16V46.9h1.79v7.41a6.69,6.69,0,0,1-1.39,4.6,5.2,5.2,0,0,1-4.09,1.56,5.27,5.27,0,0,1-4.12-1.56,6.7,6.7,0,0,1-1.4-4.6V46.9Z"/><path d="M128.27,48.44h-2.39V46.9h2.39V41.57H130V46.9h2.6v1.54H130V59.89h-1.77Z"/><path d="M144.92,59.89V57.52a4.88,4.88,0,0,1-1.81,2.19,5,5,0,0,1-2.75.76,5.74,5.74,0,0,1-4.5-1.92,7.34,7.34,0,0,1-1.71-5.07,7.57,7.57,0,0,1,1.69-5.09,5.88,5.88,0,0,1,7.21-1.25,4.82,4.82,0,0,1,1.87,2.13V46.9h1.8v13Zm-8.76-6.35a5.89,5.89,0,0,0,1.14,3.88,4,4,0,0,0,3.24,1.36,3.9,3.9,0,0,0,3.23-1.48A6.43,6.43,0,0,0,145,53.2a5.62,5.62,0,0,0-1.17-3.76,4,4,0,0,0-3.21-1.37,3.93,3.93,0,0,0-3.22,1.46A6.18,6.18,0,0,0,136.16,53.54Z"/><path d="M161.66,49.27a6.9,6.9,0,0,0-1.93-.94,7.15,7.15,0,0,0-2.11-.32,5,5,0,0,0-3.85,1.55,5.81,5.81,0,0,0-1.44,4.12,5.1,5.1,0,0,0,1.49,3.77,5.19,5.19,0,0,0,3.8,1.48,6.46,6.46,0,0,0,2.13-.37,8.1,8.1,0,0,0,2.12-1.1v2a8,8,0,0,1-2.11.81,10.9,10.9,0,0,1-2.48.27,6.51,6.51,0,0,1-4.87-2,6.86,6.86,0,0,1-1.91-5,6.81,6.81,0,0,1,7.15-7.15,10.26,10.26,0,0,1,2.2.22,7.24,7.24,0,0,1,1.84.66Z"/><path d="M164.9,41.83a1.38,1.38,0,0,1,1.39-1.37,1.37,1.37,0,0,1,1,.4,1.3,1.3,0,0,1,.42,1,1.34,1.34,0,0,1-.4,1,1.37,1.37,0,0,1-1,.4,1.34,1.34,0,0,1-1-.4A1.3,1.3,0,0,1,164.9,41.83Zm.45,18.06v-13h1.87v13Z"/><path d="M178,60.47a6.79,6.79,0,0,1-2.67-.55,7.43,7.43,0,0,1-2.31-1.58,6.53,6.53,0,0,1-1.49-2.22,7,7,0,0,1-.52-2.7,7,7,0,0,1,.53-2.7,7,7,0,0,1,6.46-4.3,7,7,0,0,1,2.73.53,6.83,6.83,0,0,1,2.31,1.52,6.83,6.83,0,0,1,2.08,5,6.88,6.88,0,0,1-.53,2.67,6.73,6.73,0,0,1-1.52,2.25A7.14,7.14,0,0,1,178,60.47Zm.06-1.69a4.83,4.83,0,0,0,3.62-1.54,5.6,5.6,0,0,0,0-7.6,5,5,0,0,0-7.25,0,5.62,5.62,0,0,0,0,7.6A4.82,4.82,0,0,0,178.1,58.78Zm-1.95-14,3.12-5.13h2.4l-4.14,5.13Z"/><path d="M188.88,59.89v-13h1.71v2A5.4,5.4,0,0,1,192.53,47a5.54,5.54,0,0,1,2.65-.62,4.27,4.27,0,0,1,4.67,4.66v8.81H198v-8a4.35,4.35,0,0,0-.81-2.89,3.14,3.14,0,0,0-2.51-1,3.64,3.64,0,0,0-3,1.23,6.12,6.12,0,0,0-1,3.84v6.78Z"/><path d="M206.85,56.17l2.13.9-3.87,7.54L203.88,64Z"/><path d="M220.32,57.58l1.71-1a3.35,3.35,0,0,0,1.23,1.63,3.42,3.42,0,0,0,2,.55,2.66,2.66,0,0,0,1.81-.58,1.92,1.92,0,0,0,.68-1.54c0-1-.89-1.84-2.65-2.54-.19-.07-.34-.12-.44-.17a8.18,8.18,0,0,1-2.87-1.66,3,3,0,0,1-.82-2.12,3.5,3.5,0,0,1,1.17-2.72,4.32,4.32,0,0,1,3-1.06,5.07,5.07,0,0,1,2.7.69,4,4,0,0,1,1.62,2l-1.65.92a2.66,2.66,0,0,0-1-1.4,3,3,0,0,0-1.76-.49,2.23,2.23,0,0,0-1.54.55,1.77,1.77,0,0,0-.61,1.37,1.72,1.72,0,0,0,.6,1.34A8.09,8.09,0,0,0,226,52.48a6.71,6.71,0,0,1,2.88,1.63,3.67,3.67,0,0,1,.74,2.43,3.56,3.56,0,0,1-1.28,2.86,5.17,5.17,0,0,1-3.42,1.07,5.22,5.22,0,0,1-2.85-.76A4.18,4.18,0,0,1,220.32,57.58Z"/><path d="M232.91,41.83a1.32,1.32,0,0,1,.41-1,1.36,1.36,0,0,1,1-.4,1.34,1.34,0,0,1,1,.4,1.36,1.36,0,0,1,0,2,1.35,1.35,0,0,1-1,.4,1.38,1.38,0,0,1-1.4-1.38Zm.46,18.06v-13h1.86v13Z"/><path d="M240.15,59.89v-13h1.71v2A5.4,5.4,0,0,1,243.8,47a5.54,5.54,0,0,1,2.65-.62,4.27,4.27,0,0,1,4.67,4.66v8.81h-1.83v-8a4.35,4.35,0,0,0-.81-2.89A3.15,3.15,0,0,0,246,48a3.63,3.63,0,0,0-3,1.23,6.12,6.12,0,0,0-1,3.84v6.78Z"/><path d="M264.42,66.43V46.9h1.75v2.43a5.59,5.59,0,0,1,1.94-2.16,5,5,0,0,1,2.7-.75,5.55,5.55,0,0,1,4.41,1.92,7.51,7.51,0,0,1,1.68,5.11,7.51,7.51,0,0,1-1.64,5.1,5.45,5.45,0,0,1-4.36,1.92,5.11,5.11,0,0,1-2.77-.76,5.48,5.48,0,0,1-2-2.22v8.94Zm10.53-13a6.22,6.22,0,0,0-1.14-4,3.83,3.83,0,0,0-3.18-1.45,4.06,4.06,0,0,0-3.26,1.4,5.84,5.84,0,0,0-1.18,3.85,6,6,0,0,0,1.27,4,4.19,4.19,0,0,0,3.35,1.48,3.61,3.61,0,0,0,3.05-1.4A6.18,6.18,0,0,0,275,53.48Z"/><path d="M282.45,49.51a8.13,8.13,0,0,1,2-2.39,3.66,3.66,0,0,1,2.23-.7,4,4,0,0,1,.77.07,5.16,5.16,0,0,1,.77.21l-.58,1.7a6,6,0,0,0-.61-.15,3.23,3.23,0,0,0-.61-.06,3.42,3.42,0,0,0-2.78,1.52,6.17,6.17,0,0,0-1.15,3.8v6.38h-1.8v-13h1.8Z"/><path d="M291.9,46.9v6.49a7.59,7.59,0,0,0,.85,4.18,3.21,3.21,0,0,0,2.84,1.21,3.25,3.25,0,0,0,2.86-1.23,7.48,7.48,0,0,0,.86-4.16V46.9h1.79v7.41a6.69,6.69,0,0,1-1.39,4.6,6.17,6.17,0,0,1-8.2,0,6.65,6.65,0,0,1-1.41-4.6V46.9Z"/><path d="M317.07,53.45H306.74A6.31,6.31,0,0,0,308,57.4a3.91,3.91,0,0,0,3.18,1.44,4.19,4.19,0,0,0,2.52-.78,5.73,5.73,0,0,0,1.8-2.34l1.66.91a7.25,7.25,0,0,1-2.44,2.91,6.39,6.39,0,0,1-3.54.93,6,6,0,0,1-4.62-1.92,7.07,7.07,0,0,1-1.77-5,7.5,7.5,0,0,1,1.75-5.16,5.85,5.85,0,0,1,4.58-2,5.5,5.5,0,0,1,4.32,1.81,6.9,6.9,0,0,1,1.63,4.82Zm-2.14-1.54a3.72,3.72,0,0,0-4-3.75,3.86,3.86,0,0,0-2.75,1,4.14,4.14,0,0,0-1.28,2.72Z"/><path d="M322.62,59.89h-1.8V37.19h1.8V49.27a4.9,4.9,0,0,1,1.85-2.13,5.86,5.86,0,0,1,7.2,1.25,7.52,7.52,0,0,1,1.69,5.09,7.34,7.34,0,0,1-1.71,5.07,5.74,5.74,0,0,1-4.5,1.92,4.67,4.67,0,0,1-4.53-2.95Zm8.73-6.35a6.13,6.13,0,0,0-1.19-4,4.34,4.34,0,0,0-6.41-.09,5.67,5.67,0,0,0-1.16,3.76,6.43,6.43,0,0,0,1.18,4.1A3.9,3.9,0,0,0,327,58.78a4,4,0,0,0,3.22-1.35A6,6,0,0,0,331.35,53.54Z"/><path d="M346.64,59.89V57.52a4.88,4.88,0,0,1-1.81,2.19,4.94,4.94,0,0,1-2.74.76,5.74,5.74,0,0,1-4.51-1.92,7.38,7.38,0,0,1-1.7-5.07,7.56,7.56,0,0,1,1.68-5.09,5.89,5.89,0,0,1,7.22-1.25,4.86,4.86,0,0,1,1.86,2.13V46.9h1.81v13Zm-8.76-6.35A5.89,5.89,0,0,0,339,57.42a4,4,0,0,0,3.24,1.36,3.88,3.88,0,0,0,3.23-1.48,6.43,6.43,0,0,0,1.18-4.1,5.62,5.62,0,0,0-1.17-3.76,4,4,0,0,0-3.21-1.37,4,4,0,0,0-3.22,1.46A6.18,6.18,0,0,0,337.88,53.54Z"/><path d="M351.8,57.58l1.71-1a3.47,3.47,0,0,0,1.23,1.63,3.42,3.42,0,0,0,2,.55,2.69,2.69,0,0,0,1.82-.58,1.92,1.92,0,0,0,.67-1.54c0-1-.88-1.84-2.65-2.54l-.44-.17a8.27,8.27,0,0,1-2.87-1.66,3,3,0,0,1-.82-2.12,3.5,3.5,0,0,1,1.17-2.72,4.32,4.32,0,0,1,3-1.06,5,5,0,0,1,2.7.69A4,4,0,0,1,361,49L359.3,50a2.61,2.61,0,0,0-1-1.4,3,3,0,0,0-1.75-.49,2.26,2.26,0,0,0-1.55.55,1.81,1.81,0,0,0-.61,1.37,1.72,1.72,0,0,0,.6,1.34,8.09,8.09,0,0,0,2.49,1.15,6.64,6.64,0,0,1,2.88,1.63,3.62,3.62,0,0,1,.74,2.43,3.55,3.55,0,0,1-1.27,2.86,5.18,5.18,0,0,1-3.43,1.07,5.27,5.27,0,0,1-2.85-.76A4.18,4.18,0,0,1,351.8,57.58Z"/><path d="M373.64,59.89V38.45h3.91a16.5,16.5,0,0,1,3.41.25,5.15,5.15,0,0,1,1.89.82,4.74,4.74,0,0,1,1.57,2,7,7,0,0,1,.56,2.82,5.52,5.52,0,0,1-1.71,4.49c-1.15,1-2.95,1.43-5.42,1.43h-2.26v9.62Zm1.95-11.33h1.33c2.37,0,3.95-.3,4.77-.9a3.68,3.68,0,0,0,1.22-3.16,5.4,5.4,0,0,0-.27-1.75,4.39,4.39,0,0,0-.84-1.43,3.12,3.12,0,0,0-1.55-.91,15,15,0,0,0-3.33-.26h-1.33Z"/><path d="M388.64,59.89V38.45h1.95V59.89Z"/><path d="M395.94,59.89V38.45h3.91a16.45,16.45,0,0,1,3.4.25,5.2,5.2,0,0,1,1.9.82,4.82,4.82,0,0,1,1.57,2,7,7,0,0,1,.55,2.82,5.52,5.52,0,0,1-1.71,4.49c-1.14,1-2.95,1.43-5.42,1.43h-2.26v9.62Zm1.94-11.33h1.34c2.36,0,3.95-.3,4.76-.9a3.69,3.69,0,0,0,1.23-3.16,5.14,5.14,0,0,0-.28-1.75,4.36,4.36,0,0,0-.83-1.43,3.15,3.15,0,0,0-1.56-.91,14.79,14.79,0,0,0-3.32-.26h-1.34Z"/><path d="M410.94,59.89V38.45h1.94v8.7h11.68v-8.7h1.95V59.89h-1.95V48.82H412.88V59.89Z"/><path d="M431.47,58.66a1.44,1.44,0,0,1,.44-1.06,1.42,1.42,0,0,1,1.06-.43,1.47,1.47,0,0,1,1.49,1.49,1.46,1.46,0,0,1-.43,1.07,1.47,1.47,0,0,1-1.06.43,1.49,1.49,0,0,1-1.5-1.5Z"/></svg>