<svg id="fondos" xmlns="http://www.w3.org/2000/svg" viewBox="0 0 838.12 100.16"><defs><style>.cls-1{fill:#e6e6e6;}</style></defs><title>canino4</title><rect class="cls-1" width="838.12" height="100.16"/><path d="M59.51,56.9V35.45h1.94V56.9Z"/><path d="M66.54,56.9v-13h1.71v2A5.32,5.32,0,0,1,70.19,44a5.54,5.54,0,0,1,2.65-.62,4.27,4.27,0,0,1,4.67,4.66V56.9H75.68v-8A4.3,4.3,0,0,0,74.86,46a3.14,3.14,0,0,0-2.51-1,3.64,3.64,0,0,0-3,1.23,6.12,6.12,0,0,0-1,3.84V56.9Z"/><path d="M80.69,54.58l1.71-1a3.35,3.35,0,0,0,1.23,1.63,3.42,3.42,0,0,0,2,.55,2.69,2.69,0,0,0,1.82-.58,2,2,0,0,0,.67-1.54c0-1-.88-1.84-2.65-2.54A3.75,3.75,0,0,1,85,51a8.18,8.18,0,0,1-2.87-1.66,3,3,0,0,1-.82-2.12,3.52,3.52,0,0,1,1.17-2.72,4.32,4.32,0,0,1,3-1.06,5,5,0,0,1,2.7.69,4,4,0,0,1,1.62,2L88.19,47a2.66,2.66,0,0,0-1-1.4,3,3,0,0,0-1.76-.49,2.23,2.23,0,0,0-1.54.55A1.77,1.77,0,0,0,83.25,47a1.72,1.72,0,0,0,.6,1.34,8.09,8.09,0,0,0,2.49,1.15,6.64,6.64,0,0,1,2.88,1.63A3.67,3.67,0,0,1,90,53.54a3.56,3.56,0,0,1-1.28,2.86,5.15,5.15,0,0,1-3.42,1.07,5.22,5.22,0,0,1-2.85-.76A4.18,4.18,0,0,1,80.69,54.58Z"/><path d="M93.62,63.43V43.9h1.74v2.43a5.69,5.69,0,0,1,2-2.16,5,5,0,0,1,2.7-.75,5.56,5.56,0,0,1,4.41,1.92,7.51,7.51,0,0,1,1.68,5.11,7.56,7.56,0,0,1-1.64,5.11,5.47,5.47,0,0,1-4.36,1.91,5.11,5.11,0,0,1-2.77-.76,5.57,5.57,0,0,1-2-2.22v8.94Zm10.53-13a6.16,6.16,0,0,0-1.15-4,3.83,3.83,0,0,0-3.17-1.45,4.06,4.06,0,0,0-3.26,1.4,5.84,5.84,0,0,0-1.18,3.85,6,6,0,0,0,1.27,4A4.19,4.19,0,0,0,100,55.78a3.63,3.63,0,0,0,3-1.4A6.18,6.18,0,0,0,104.15,50.48Z"/><path d="M121,50.45H110.69A6.31,6.31,0,0,0,112,54.4a3.91,3.91,0,0,0,3.18,1.44,4.18,4.18,0,0,0,2.51-.78,5.6,5.6,0,0,0,1.81-2.34l1.65.91a7.17,7.17,0,0,1-2.44,2.91,6.38,6.38,0,0,1-3.53.93,6,6,0,0,1-4.63-1.91,7.15,7.15,0,0,1-1.76-5,7.45,7.45,0,0,1,1.75-5.16,5.84,5.84,0,0,1,4.58-2,5.53,5.53,0,0,1,4.32,1.81A6.94,6.94,0,0,1,121,50.05Zm-2.13-1.54a3.72,3.72,0,0,0-4-3.75,3.84,3.84,0,0,0-2.74,1,4.15,4.15,0,0,0-1.29,2.72Z"/><path d="M134.87,46.27a7,7,0,0,0-4-1.25A5,5,0,0,0,127,46.56a5.81,5.81,0,0,0-1.44,4.12,5.08,5.08,0,0,0,5.29,5.25,6.46,6.46,0,0,0,2.13-.37,8.26,8.26,0,0,0,2.12-1.1v2a8,8,0,0,1-2.11.81,10.9,10.9,0,0,1-2.48.27,6.53,6.53,0,0,1-4.88-2,6.86,6.86,0,0,1-1.9-5,6.79,6.79,0,0,1,7.15-7.15,9.71,9.71,0,0,1,2.2.23,7,7,0,0,1,1.84.65Z"/><path d="M148.55,46.27a7,7,0,0,0-4-1.25,5,5,0,0,0-3.85,1.54,5.81,5.81,0,0,0-1.44,4.12,5.08,5.08,0,0,0,5.29,5.25,6.46,6.46,0,0,0,2.13-.37,8.26,8.26,0,0,0,2.12-1.1v2a8,8,0,0,1-2.11.81,10.9,10.9,0,0,1-2.48.27,6.49,6.49,0,0,1-4.87-2,6.86,6.86,0,0,1-1.91-5,6.81,6.81,0,0,1,7.15-7.15,9.64,9.64,0,0,1,2.2.23,6.87,6.87,0,0,1,1.84.65Z"/><path d="M151.79,38.83a1.38,1.38,0,0,1,1.39-1.37,1.37,1.37,0,0,1,1,.4,1.3,1.3,0,0,1,.42,1,1.38,1.38,0,0,1-.4,1,1.4,1.4,0,0,1-1,.39,1.37,1.37,0,0,1-1-.39A1.34,1.34,0,0,1,151.79,38.83Zm.45,18.07v-13h1.86v13Z"/><path d="M164.93,57.47a6.79,6.79,0,0,1-2.67-.55A7.43,7.43,0,0,1,160,55.34a6.53,6.53,0,0,1-1.49-2.22,7.18,7.18,0,0,1,0-5.39A6.75,6.75,0,0,1,160,45.47,6.92,6.92,0,0,1,162.25,44a6.78,6.78,0,0,1,2.68-.53,7,7,0,0,1,7.12,7,6.88,6.88,0,0,1-.53,2.67A6.73,6.73,0,0,1,170,55.34a7.22,7.22,0,0,1-2.34,1.58A7.08,7.08,0,0,1,164.93,57.47Zm.06-1.69a4.83,4.83,0,0,0,3.62-1.54,5.6,5.6,0,0,0,0-7.6,5,5,0,0,0-7.25,0,5.62,5.62,0,0,0,0,7.6A4.82,4.82,0,0,0,165,55.78Zm-2-14,3.12-5.13h2.4l-4.14,5.13Z"/><path d="M175.77,56.9v-13h1.71v2A5.4,5.4,0,0,1,179.42,44a5.54,5.54,0,0,1,2.65-.62,4.27,4.27,0,0,1,4.67,4.66V56.9h-1.83v-8A4.35,4.35,0,0,0,184.1,46a3.14,3.14,0,0,0-2.51-1,3.63,3.63,0,0,0-3,1.23,6.12,6.12,0,0,0-1,3.84V56.9Z"/><path d="M211.2,50.45H200.88a6.31,6.31,0,0,0,1.26,3.95,3.91,3.91,0,0,0,3.18,1.44,4.23,4.23,0,0,0,2.52-.78,5.66,5.66,0,0,0,1.8-2.34l1.65.91a7.17,7.17,0,0,1-2.44,2.91,6.38,6.38,0,0,1-3.53.93,6,6,0,0,1-4.63-1.91,7.15,7.15,0,0,1-1.76-5,7.45,7.45,0,0,1,1.75-5.16,5.84,5.84,0,0,1,4.58-2,5.53,5.53,0,0,1,4.32,1.81,6.94,6.94,0,0,1,1.62,4.82Zm-2.13-1.54a3.72,3.72,0,0,0-4-3.75,3.84,3.84,0,0,0-2.74,1A4.15,4.15,0,0,0,201,48.91Z"/><path d="M215,56.9v-13h1.72v2A5.32,5.32,0,0,1,218.61,44a5.53,5.53,0,0,1,2.64-.62,4.27,4.27,0,0,1,4.68,4.66V56.9H224.1v-8a4.35,4.35,0,0,0-.82-2.89,3.14,3.14,0,0,0-2.51-1,3.64,3.64,0,0,0-3,1.23,6.12,6.12,0,0,0-1,3.84V56.9Z"/><path d="M239.49,56.9V35.45h3.72a19.29,19.29,0,0,1,3.53.23,4.8,4.8,0,0,1,1.85.81,5.3,5.3,0,0,1,1.62,2,5.9,5.9,0,0,1,.56,2.57,4.8,4.8,0,0,1-.89,2.92,4.24,4.24,0,0,1-2.46,1.58,4.83,4.83,0,0,1,4.4,5.07,7.45,7.45,0,0,1-.45,2.68,5.41,5.41,0,0,1-3.63,3.26,19.34,19.34,0,0,1-4.5.36ZM241.44,45h2.43a6.26,6.26,0,0,0,3.79-.88,3.56,3.56,0,0,0,1.1-2.93,3.9,3.9,0,0,0-1.07-3.12,6,6,0,0,0-3.82-.91h-2.43Zm0,10.22h2.49a15.75,15.75,0,0,0,2.93-.18,3.2,3.2,0,0,0,1.36-.6,3.56,3.56,0,0,0,1.1-1.45,5,5,0,0,0,.41-2,5.33,5.33,0,0,0-.45-2.26A3.31,3.31,0,0,0,248,47.27a4.22,4.22,0,0,0-1.31-.46,14.7,14.7,0,0,0-2.36-.14h-2.91Z"/><path d="M255.49,38.83a1.29,1.29,0,0,1,.41-1,1.34,1.34,0,0,1,1-.4,1.37,1.37,0,0,1,1,.4,1.29,1.29,0,0,1,.41,1,1.34,1.34,0,0,1-.4,1,1.46,1.46,0,0,1-2,0A1.34,1.34,0,0,1,255.49,38.83Zm.45,18.07v-13h1.86v13Z"/><path d="M268.63,57.47a6.79,6.79,0,0,1-2.67-.55,7.43,7.43,0,0,1-2.31-1.58,6.42,6.42,0,0,1-1.5-2.22,7.13,7.13,0,0,1-.51-2.7,7,7,0,0,1,2-5A6.92,6.92,0,0,1,266,44a6.78,6.78,0,0,1,2.68-.53,7.06,7.06,0,0,1,2.73.53,7.19,7.19,0,0,1,2.31,1.52,7,7,0,0,1,1.54,2.27,6.79,6.79,0,0,1,.54,2.68,6.88,6.88,0,0,1-.53,2.67,6.62,6.62,0,0,1-1.53,2.25,7.1,7.1,0,0,1-5.06,2.13Zm.05-1.69a4.84,4.84,0,0,0,3.63-1.54,5.6,5.6,0,0,0,0-7.6,4.88,4.88,0,0,0-3.64-1.54,4.83,4.83,0,0,0-3.61,1.54,5.62,5.62,0,0,0,0,7.6A4.79,4.79,0,0,0,268.68,55.78Z"/><path d="M278,54.58l1.71-1a3.35,3.35,0,0,0,1.23,1.63,3.42,3.42,0,0,0,2,.55,2.64,2.64,0,0,0,1.81-.58,1.92,1.92,0,0,0,.68-1.54c0-1-.88-1.84-2.65-2.54a3.75,3.75,0,0,1-.44-.17,8.18,8.18,0,0,1-2.87-1.66,3,3,0,0,1-.82-2.12,3.52,3.52,0,0,1,1.17-2.72,4.32,4.32,0,0,1,3-1.06,5,5,0,0,1,2.7.69,4,4,0,0,1,1.62,2l-1.65.92a2.66,2.66,0,0,0-1-1.4,3,3,0,0,0-1.76-.49,2.23,2.23,0,0,0-1.54.55,1.77,1.77,0,0,0-.61,1.37,1.72,1.72,0,0,0,.6,1.34,8.09,8.09,0,0,0,2.49,1.15,6.64,6.64,0,0,1,2.88,1.63,3.67,3.67,0,0,1,.74,2.43A3.56,3.56,0,0,1,286,56.4a5.15,5.15,0,0,1-3.42,1.07,5.22,5.22,0,0,1-2.85-.76A4.18,4.18,0,0,1,278,54.58Z"/><path d="M302.08,50.45H291.76A6.25,6.25,0,0,0,293,54.4a3.9,3.9,0,0,0,3.17,1.44,4.19,4.19,0,0,0,2.52-.78,5.6,5.6,0,0,0,1.81-2.34l1.65.91a7.17,7.17,0,0,1-2.44,2.91,6.39,6.39,0,0,1-3.54.93,6,6,0,0,1-4.62-1.91,7.15,7.15,0,0,1-1.76-5,7.45,7.45,0,0,1,1.75-5.16,5.82,5.82,0,0,1,4.58-2,5.53,5.53,0,0,1,4.32,1.81,6.94,6.94,0,0,1,1.62,4.82Zm-2.14-1.54a3.71,3.71,0,0,0-4-3.75,3.84,3.84,0,0,0-2.74,1,4.15,4.15,0,0,0-1.29,2.72Z"/><path d="M305.83,56.9v-13h1.72v2A5.25,5.25,0,0,1,309.49,44a5.5,5.5,0,0,1,2.64-.62,4.28,4.28,0,0,1,4.68,4.66V56.9H315v-8a4.35,4.35,0,0,0-.81-2.89,3.14,3.14,0,0,0-2.51-1,3.64,3.64,0,0,0-3,1.23,6.12,6.12,0,0,0-1,3.84V56.9Z"/><path d="M320,54.58l1.72-1a3.35,3.35,0,0,0,1.23,1.63,3.4,3.4,0,0,0,2,.55,2.66,2.66,0,0,0,1.81-.58,1.92,1.92,0,0,0,.68-1.54c0-1-.89-1.84-2.66-2.54a3.49,3.49,0,0,1-.43-.17,8.34,8.34,0,0,1-2.88-1.66,3,3,0,0,1-.82-2.12,3.49,3.49,0,0,1,1.18-2.72,4.32,4.32,0,0,1,3-1.06,5,5,0,0,1,2.69.69,3.94,3.94,0,0,1,1.63,2l-1.66.92a2.59,2.59,0,0,0-1-1.4,3,3,0,0,0-1.76-.49,2.28,2.28,0,0,0-1.55.55,1.8,1.8,0,0,0-.6,1.37,1.72,1.72,0,0,0,.6,1.34,8.09,8.09,0,0,0,2.49,1.15,6.77,6.77,0,0,1,2.88,1.63,3.67,3.67,0,0,1,.74,2.43A3.56,3.56,0,0,1,328,56.4a5.87,5.87,0,0,1-6.27.31A4.25,4.25,0,0,1,320,54.58Z"/><path d="M338.82,57.47a6.74,6.74,0,0,1-2.66-.55,7.47,7.47,0,0,1-2.32-1.58,6.53,6.53,0,0,1-1.49-2.22,7.13,7.13,0,0,1-.52-2.7A7,7,0,0,1,336.14,44a6.78,6.78,0,0,1,2.68-.53,7,7,0,0,1,7.12,7,6.87,6.87,0,0,1-2.05,4.92,7.14,7.14,0,0,1-5.07,2.13Zm.06-1.69a4.85,4.85,0,0,0,3.63-1.54,5.62,5.62,0,0,0,0-7.6,5,5,0,0,0-7.25,0,5.62,5.62,0,0,0,0,7.6A4.82,4.82,0,0,0,338.88,55.78Z"/><path d="M351.46,46.51a8.13,8.13,0,0,1,2-2.39,3.66,3.66,0,0,1,2.23-.7,4,4,0,0,1,.77.07,5.16,5.16,0,0,1,.77.21l-.59,1.7a5.26,5.26,0,0,0-.6-.15,3.31,3.31,0,0,0-.61-.06,3.42,3.42,0,0,0-2.78,1.52,6.17,6.17,0,0,0-1.15,3.8V56.9h-1.8v-13h1.8Z"/><path d="M385.24,39.38a11.44,11.44,0,0,0-3.26-2,9.53,9.53,0,0,0-3.52-.66,9.07,9.07,0,0,0-6.76,2.64,9.35,9.35,0,0,0-2.6,6.87,10.7,10.7,0,0,0,.64,3.82,8.46,8.46,0,0,0,1.94,3,8.8,8.8,0,0,0,2.95,2,9.41,9.41,0,0,0,3.57.67,10.58,10.58,0,0,0,3.6-.63,12,12,0,0,0,3.33-1.86v2.29A14.53,14.53,0,0,1,381.78,57a12.58,12.58,0,0,1-3.5.52,12,12,0,0,1-4.45-.84,10.89,10.89,0,0,1-3.65-2.34,10.49,10.49,0,0,1-2.37-3.61,12.85,12.85,0,0,1,0-9,10.21,10.21,0,0,1,2.38-3.58,10.76,10.76,0,0,1,3.64-2.32,12,12,0,0,1,4.43-.83,12.27,12.27,0,0,1,3.81.56,10.36,10.36,0,0,1,3.18,1.69Z"/><path d="M398.79,56.9V54.52A4.88,4.88,0,0,1,397,56.71a4.94,4.94,0,0,1-2.74.76,5.74,5.74,0,0,1-4.51-1.92,7.33,7.33,0,0,1-1.7-5.07,7.56,7.56,0,0,1,1.68-5.09,5.88,5.88,0,0,1,7.21-1.25,4.82,4.82,0,0,1,1.87,2.13V43.9h1.8v13ZM390,50.54a5.89,5.89,0,0,0,1.14,3.88,4,4,0,0,0,3.24,1.36,3.88,3.88,0,0,0,3.23-1.48,6.43,6.43,0,0,0,1.18-4.1,5.62,5.62,0,0,0-1.17-3.76,4,4,0,0,0-3.21-1.37,3.93,3.93,0,0,0-3.22,1.46A6.18,6.18,0,0,0,390,50.54Z"/><path d="M405.43,56.9v-13h1.71v2A5.4,5.4,0,0,1,409.08,44a5.54,5.54,0,0,1,2.65-.62,4.27,4.27,0,0,1,4.67,4.66V56.9h-1.83v-8a4.35,4.35,0,0,0-.81-2.89,3.16,3.16,0,0,0-2.52-1,3.65,3.65,0,0,0-3,1.23,6.12,6.12,0,0,0-1,3.84V56.9Z"/><path d="M420.72,38.83a1.38,1.38,0,0,1,1.39-1.37,1.37,1.37,0,0,1,1,.4,1.3,1.3,0,0,1,.42,1,1.38,1.38,0,0,1-.4,1,1.4,1.4,0,0,1-1,.39,1.37,1.37,0,0,1-1-.39A1.34,1.34,0,0,1,420.72,38.83Zm.46,18.07v-13H423v13Z"/><path d="M428,56.9v-13h1.71v2A5.4,5.4,0,0,1,431.61,44a5.54,5.54,0,0,1,2.65-.62,4.27,4.27,0,0,1,4.67,4.66V56.9H437.1v-8a4.35,4.35,0,0,0-.81-2.89,3.16,3.16,0,0,0-2.52-1,3.65,3.65,0,0,0-3,1.23,6.12,6.12,0,0,0-1,3.84V56.9Z"/><path d="M449.49,57.47a6.79,6.79,0,0,1-2.67-.55,7.43,7.43,0,0,1-2.31-1.58A6.53,6.53,0,0,1,443,53.12,7,7,0,0,1,446.81,44a6.78,6.78,0,0,1,2.68-.53,7,7,0,0,1,7.12,7,6.88,6.88,0,0,1-.53,2.67,6.73,6.73,0,0,1-1.52,2.25,7.14,7.14,0,0,1-5.07,2.13Zm.06-1.69a4.87,4.87,0,0,0,3.63-1.54,5.62,5.62,0,0,0,0-7.6,5,5,0,0,0-7.25,0,5.62,5.62,0,0,0,0,7.6A4.82,4.82,0,0,0,449.55,55.78Z"/><path d="M460.76,55.66a1.43,1.43,0,0,1,.43-1.06,1.46,1.46,0,0,1,1.06-.43,1.47,1.47,0,0,1,1.06.43,1.43,1.43,0,0,1,.43,1.06,1.46,1.46,0,0,1-.43,1.07,1.47,1.47,0,0,1-1.06.43,1.47,1.47,0,0,1-1.49-1.5Z"/></svg>