<svg xmlns="http://www.w3.org/2000/svg" viewBox="0 0 424.15 320.4"><defs><style>.cls-1{isolation:isolate;}.cls-2{fill:#fff;}.cls-3{fill:#d31c25;}.cls-4{fill:#4d4d4d;}.cls-5{fill:gray;}.cls-6{fill:none;stroke:#666;stroke-miterlimit:10;stroke-width:2px;}.cls-7{fill:#ff4335;}.cls-8{fill:#9e151c;}.cls-9{fill:#301404;opacity:0.25;mix-blend-mode:multiply;}</style></defs><title>canino</title><g class="cls-1"><g id="Capa_2" data-name="Capa 2"><g id="ALERTAS"><path class="cls-2" d="M411.07,0h-398A13.07,13.07,0,0,0,0,13.08v98.08a13.07,13.07,0,0,0,13.08,13.08H183.67l26.57,46,26.56-46H411.07a13.08,13.08,0,0,0,13.08-13.08V13.08A13.08,13.08,0,0,0,411.07,0Z"/><path class="cls-2" d="M15.91,11.61H115a1.54,1.54,0,0,1,1.54,1.54v99.56a1.54,1.54,0,0,1-1.54,1.54H15.91a5.84,5.84,0,0,1-5.84-5.84v-91A5.84,5.84,0,0,1,15.91,11.61Z"/><path class="cls-3" d="M118.09,11.61H405.8a5.84,5.84,0,0,1,5.84,5.84v91a5.84,5.84,0,0,1-5.84,5.84H118.09a1.54,1.54,0,0,1-1.54-1.54V13.15a1.54,1.54,0,0,1,1.54-1.54Z"/><ellipse class="cls-4" cx="65.6" cy="78.91" rx="28.72" ry="12.64"/><rect class="cls-4" x="36.88" y="74.92" width="57.43" height="3.95" rx="1.54"/><ellipse class="cls-5" cx="65.6" cy="74.46" rx="28.72" ry="12.64"/><ellipse class="cls-6" cx="65.6" cy="74.46" rx="26.75" ry="10.67"/><ellipse class="cls-3" cx="65.98" cy="74.96" rx="23.97" ry="7.18"/><path class="cls-3" d="M42.41,72.6l5.35-30.39a2,2,0,0,1,2-1.63H82.25a2,2,0,0,1,1.94,1.63L89.54,72.6a2,2,0,0,1-1.94,2.32H44.35A2,2,0,0,1,42.41,72.6Z"/><ellipse class="cls-3" cx="65.98" cy="40.62" rx="17.93" ry="7.18"/><path class="cls-7" d="M66,46.12a33.6,33.6,0,0,1-12.06-2c-2.58-1-4.19-2.39-4.19-3.52s1.61-2.48,4.19-3.52a33.82,33.82,0,0,1,12.06-2,33.81,33.81,0,0,1,12,2c2.58,1,4.19,2.39,4.19,3.52S80.61,43.1,78,44.14A33.58,33.58,0,0,1,66,46.12Z"/><path class="cls-7" d="M48.25,47.93,43.92,73.57a1.86,1.86,0,0,0,.21,1.27c.67,1.11,2.92,3,10.49,3.88a2,2,0,0,0,2.18-1.67l3.88-26A2,2,0,0,0,59,48.76a28.18,28.18,0,0,1-8-2.27A2,2,0,0,0,48.25,47.93Z"/><circle class="cls-8" cx="72.09" cy="75.59" r="2.86"/><path class="cls-8" d="M68.35,52l.88,15.12A2.92,2.92,0,0,0,72,70.09a2.86,2.86,0,0,0,3-2.85L75.82,52a1.28,1.28,0,0,0-1.28-1.28H69.63A1.28,1.28,0,0,0,68.35,52Z"/><circle class="cls-2" cx="73.66" cy="74.41" r="2.86"/><path class="cls-2" d="M69.92,50.85,70.8,66a2.92,2.92,0,0,0,2.73,2.94,2.86,2.86,0,0,0,3-2.85l.88-15.21a1.28,1.28,0,0,0-1.28-1.28H71.21A1.28,1.28,0,0,0,69.92,50.85Z"/><path class="cls-2" d="M141.88,34.64a2.68,2.68,0,0,1,.84-2,2.73,2.73,0,0,1,2-.83,2.81,2.81,0,1,1,0,5.61,2.76,2.76,0,0,1-2-.81A2.71,2.71,0,0,1,141.88,34.64Zm.48,5.33h4.69V57.19h-4.69Z"/><path class="cls-2" d="M151.59,56.55l9.19-24.17h5.91L176,56.55h-5.88l-2-5.14h-9.36l-1.69,5.14ZM167,47.35l-2.7-7.81a11.51,11.51,0,0,1-.3-1.19c-.12-.56-.25-1.25-.38-2.06-.14.78-.28,1.48-.41,2.1s-.23,1-.3,1.25l-2.61,7.71Z"/><path class="cls-2" d="M179.92,56.55V32.38h5.16V52.15h8.26v4.4Z"/><path class="cls-2" d="M197.94,56.55V32.38h14.23v4.35h-9.06v5h9.06v4.4h-9.06v6h9.06v4.4Z"/><path class="cls-2" d="M236.08,56.55h-6l-6.36-11.3v11.3h-5.17V32.38H226q4.41,0,6.6,1.7a6.11,6.11,0,0,1,2.2,5.15,6.37,6.37,0,0,1-1.5,4.26,5.91,5.91,0,0,1-3.88,2.06ZM223.76,42.68h.78q3.14,0,4.14-.69a2.67,2.67,0,0,0,1-2.38,2.88,2.88,0,0,0-1.08-2.54,7.71,7.71,0,0,0-4.07-.75h-.78Z"/><path class="cls-2" d="M249.47,36.77V56.55h-5.19V36.77h-5.91V32.38h17v4.39Z"/><path class="cls-2" d="M255.39,56.55l9.2-24.17h5.91l9.32,24.17H274l-2-5.14h-9.36l-1.68,5.14Zm15.39-9.2-2.71-7.81a11.51,11.51,0,0,1-.3-1.19c-.12-.56-.24-1.25-.38-2.06-.14.78-.28,1.48-.41,2.1s-.23,1-.3,1.25l-2.61,7.71Z"/><path class="cls-2" d="M283.85,54.35a2.71,2.71,0,0,1,.83-2,2.77,2.77,0,0,1,2-.82,2.81,2.81,0,1,1-2.84,2.81Zm.48-5.35V31.83H289V49Z"/><path class="cls-2" d="M153.75,82.29h11a2.25,2.25,0,0,1,0,.46c0,.17,0,.42,0,.76a12.48,12.48,0,0,1-3.1,8.8,10.43,10.43,0,0,1-8,3.37,12.68,12.68,0,0,1-9.28-3.59A12.28,12.28,0,0,1,140.76,83a12.16,12.16,0,0,1,3.66-9.07,12.71,12.71,0,0,1,9.27-3.58,11.79,11.79,0,0,1,5.41,1.24,13,13,0,0,1,4.39,3.7L160,77.83a8.47,8.47,0,0,0-2.74-2.34,7.47,7.47,0,0,0-3.32-.71A7.57,7.57,0,0,0,148.22,77a9.25,9.25,0,0,0,0,11.87,7.41,7.41,0,0,0,5.62,2.26,6.66,6.66,0,0,0,4.13-1.2,3.76,3.76,0,0,0,1.58-3.13v-.26h-5.81Z"/><path class="cls-2" d="M191.05,70.86v15q0,4.92-2.6,7.35t-7.81,2.43q-5.29,0-7.89-2.43t-2.59-7.35v-15h5.14V85.1a6.63,6.63,0,0,0,1.32,4.49,4.94,4.94,0,0,0,3.94,1.51,5.1,5.1,0,0,0,4-1.51,6.58,6.58,0,0,0,1.35-4.49V70.86Z"/><path class="cls-2" d="M205.29,62.48l-5.17,6.09h-2.34L201,62.48ZM197.85,95V70.86H203V95Z"/><path class="cls-2" d="M207,95l9.19-24.17h5.91L231.44,95h-5.88l-2-5.13h-9.36L212.55,95Zm15.38-9.19L219.69,78a11.51,11.51,0,0,1-.3-1.19c-.12-.56-.25-1.25-.38-2.06-.14.78-.28,1.48-.41,2.1s-.24,1-.3,1.25l-2.61,7.71Z"/><path class="cls-2" d="M266.54,77.15a10.89,10.89,0,0,0-3.22-2.05,9.44,9.44,0,0,0-3.54-.65,8.28,8.28,0,0,0-6.15,2.31,8.43,8.43,0,0,0-2.3,6.21,8.43,8.43,0,0,0,2.13,6,7.65,7.65,0,0,0,5.81,2.23,10.6,10.6,0,0,0,3.9-.7,10.74,10.74,0,0,0,3.33-2.1l0,5.3A13.59,13.59,0,0,1,263,95.2a14.71,14.71,0,0,1-3.8.48,13.08,13.08,0,0,1-9.49-3.59,13.05,13.05,0,0,1,0-18.22,13.22,13.22,0,0,1,9.58-3.58A16.69,16.69,0,0,1,266.72,72Z"/><path class="cls-2" d="M269.82,95,279,70.86h5.91L294.25,95h-5.87l-2-5.13h-9.36L275.37,95Zm15.39-9.19L282.5,78a11.51,11.51,0,0,1-.3-1.19c-.12-.56-.25-1.25-.38-2.06-.14.78-.28,1.48-.41,2.1s-.23,1-.3,1.25l-2.61,7.71Z"/><path class="cls-2" d="M298.15,95V70.86h5.36l10.7,14.07a10.6,10.6,0,0,1,1,1.68q.56,1.08,1.14,2.55c-.12-.72-.2-1.43-.26-2.13s-.08-1.59-.08-2.64V70.86H321V95H315.9l-11-14.33a10.5,10.5,0,0,1-1-1.67c-.36-.72-.74-1.58-1.15-2.59.12.7.21,1.4.26,2.11s.08,1.6.08,2.68V95Z"/><path class="cls-2" d="M327.8,95V70.86H333V95Z"/><path class="cls-2" d="M339.83,95V70.86h5.37l10.7,14.07a11.49,11.49,0,0,1,1,1.68c.37.72.75,1.57,1.15,2.55q-.18-1.08-.27-2.13c-.05-.71-.08-1.59-.08-2.64V70.86h4.94V95h-5.07l-11-14.33a10.56,10.56,0,0,1-1-1.67c-.37-.72-.75-1.58-1.16-2.59.12.7.21,1.4.27,2.11s.08,1.6.08,2.68V95Z"/><path class="cls-2" d="M394.13,83a12.46,12.46,0,0,1-1,4.9A11.91,11.91,0,0,1,390.38,92a13.37,13.37,0,0,1-4.24,2.76,12.91,12.91,0,0,1-9.22.21A13.26,13.26,0,0,1,373,92.77,12.31,12.31,0,0,1,368.32,83a12.56,12.56,0,0,1,1-4.9A12.24,12.24,0,0,1,372.09,74a13.26,13.26,0,0,1,9.16-3.71,12.83,12.83,0,0,1,4.91,1A13.35,13.35,0,0,1,390.38,74a12.27,12.27,0,0,1,2.79,4.08A12.54,12.54,0,0,1,394.13,83Zm-12.88,8.07a7.08,7.08,0,0,0,5.42-2.3,8.83,8.83,0,0,0,0-11.55,7.47,7.47,0,0,0-10.85,0,8.87,8.87,0,0,0,0,11.57A7.14,7.14,0,0,0,381.25,91.07Z"/><ellipse class="cls-9" cx="212.07" cy="297.27" rx="86.04" ry="23.13"/></g></g></g></svg>