<svg id="fondos" xmlns="http://www.w3.org/2000/svg" viewBox="0 0 838.12 100.16"><defs><style>.cls-1{fill:#e6e6e6;}</style></defs><title>carabineros5</title><rect class="cls-1" width="838.12" height="100.16"/><path d="M59.51,61.82V40.37h3.72a19.37,19.37,0,0,1,3.53.23,4.76,4.76,0,0,1,1.84.81,5.23,5.23,0,0,1,1.63,2A5.9,5.9,0,0,1,70.78,46a4.74,4.74,0,0,1-.89,2.92,4.18,4.18,0,0,1-2.46,1.58,5.12,5.12,0,0,1,3.24,1.65,5,5,0,0,1,1.17,3.42,7.45,7.45,0,0,1-.45,2.68,5.52,5.52,0,0,1-1.38,2,5.37,5.37,0,0,1-2.26,1.24,19.3,19.3,0,0,1-4.49.36Zm1.94-11.91h2.44A6.25,6.25,0,0,0,67.67,49a3.52,3.52,0,0,0,1.11-2.93A3.87,3.87,0,0,0,67.7,43a6,6,0,0,0-3.81-.91H61.45Zm0,10.22h2.49A16.92,16.92,0,0,0,66.87,60a3.44,3.44,0,0,0,1.37-.61,3.75,3.75,0,0,0,1.1-1.45,4.92,4.92,0,0,0,.41-2,5.33,5.33,0,0,0-.46-2.26A3.19,3.19,0,0,0,68,52.19a4.13,4.13,0,0,0-1.31-.46,14.56,14.56,0,0,0-2.35-.14H61.45Z"/><path d="M77.64,48.82v6.49a7.69,7.69,0,0,0,.84,4.18,3.21,3.21,0,0,0,2.85,1.21,3.25,3.25,0,0,0,2.86-1.23,7.57,7.57,0,0,0,.86-4.16V48.82h1.79v7.41a6.69,6.69,0,0,1-1.39,4.6,6.17,6.17,0,0,1-8.2,0,6.65,6.65,0,0,1-1.41-4.6V48.82Zm1.77-2.09,3.12-5.13h2.4l-4.14,5.13Z"/><path d="M90.17,59.5l1.71-1a3.35,3.35,0,0,0,1.23,1.63,3.42,3.42,0,0,0,2,.55,2.66,2.66,0,0,0,1.81-.58,1.92,1.92,0,0,0,.68-1.54c0-1-.89-1.84-2.66-2.54a3.49,3.49,0,0,1-.43-.17,8.34,8.34,0,0,1-2.88-1.66,3,3,0,0,1-.82-2.12A3.49,3.49,0,0,1,92,49.37a4.32,4.32,0,0,1,3-1.06,5,5,0,0,1,2.69.69,3.94,3.94,0,0,1,1.63,2l-1.65.92a2.66,2.66,0,0,0-1-1.4A3.09,3.09,0,0,0,94.88,50a2.23,2.23,0,0,0-1.54.55,1.77,1.77,0,0,0-.61,1.37,1.72,1.72,0,0,0,.6,1.34,8.09,8.09,0,0,0,2.49,1.15A6.71,6.71,0,0,1,98.7,56a3.69,3.69,0,0,1,.74,2.43,3.56,3.56,0,0,1-1.28,2.86,5.87,5.87,0,0,1-6.27.31A4.18,4.18,0,0,1,90.17,59.5Z"/><path d="M114.52,68.35h-1.74V59.41a5.5,5.5,0,0,1-2,2.22,5.07,5.07,0,0,1-2.79.76,5.46,5.46,0,0,1-4.36-1.91A7.56,7.56,0,0,1,102,55.37a7.56,7.56,0,0,1,1.67-5.11,5.59,5.59,0,0,1,4.43-1.92,5,5,0,0,1,2.72.76,5.57,5.57,0,0,1,2,2.15V48.82h1.74ZM108.31,50a3.87,3.87,0,0,0-3.18,1.45,6.11,6.11,0,0,0-1.17,4,6.12,6.12,0,0,0,1.11,3.9,3.68,3.68,0,0,0,3.07,1.4,4.13,4.13,0,0,0,3.33-1.48,5.91,5.91,0,0,0,1.25-4,5.79,5.79,0,0,0-1.17-3.85A4,4,0,0,0,108.31,50Z"/><path d="M121.13,48.82v6.49a7.69,7.69,0,0,0,.84,4.18,4,4,0,0,0,5.71,0,7.48,7.48,0,0,0,.86-4.16V48.82h1.79v7.41a6.69,6.69,0,0,1-1.39,4.6,6.17,6.17,0,0,1-8.2,0,6.65,6.65,0,0,1-1.41-4.6V48.82Z"/><path d="M146.3,55.37H136a6.37,6.37,0,0,0,1.26,4,3.93,3.93,0,0,0,3.18,1.43,4.19,4.19,0,0,0,2.52-.78,5.66,5.66,0,0,0,1.8-2.34l1.66.91A7.25,7.25,0,0,1,144,61.46a6.42,6.42,0,0,1-3.54.93,6,6,0,0,1-4.62-1.91,7.11,7.11,0,0,1-1.77-5,7.45,7.45,0,0,1,1.75-5.16,5.85,5.85,0,0,1,4.58-2,5.5,5.5,0,0,1,4.32,1.81A6.9,6.9,0,0,1,146.3,55Zm-2.14-1.54A4.07,4.07,0,0,0,143,51.06a4,4,0,0,0-2.85-1,3.86,3.86,0,0,0-2.75,1,4.09,4.09,0,0,0-1.28,2.72Z"/><path d="M159.67,61.82V59.44a4.67,4.67,0,0,1-4.52,3,5.74,5.74,0,0,1-4.51-1.92,7.34,7.34,0,0,1-1.71-5.07,7.57,7.57,0,0,1,1.69-5.09,5.86,5.86,0,0,1,7.2-1.25,4.87,4.87,0,0,1,1.85,2.14V39.11h1.83V61.82Zm-8.73-6.36a5.89,5.89,0,0,0,1.14,3.88,4,4,0,0,0,3.24,1.36,3.86,3.86,0,0,0,3.21-1.48,6.49,6.49,0,0,0,1.17-4.1,5.62,5.62,0,0,0-1.16-3.76,4.34,4.34,0,0,0-6.41.09A6.18,6.18,0,0,0,150.94,55.46Z"/><path d="M175.87,61.82V59.44a4.74,4.74,0,0,1-4.55,3,5.74,5.74,0,0,1-4.51-1.92,7.33,7.33,0,0,1-1.7-5.07,7.56,7.56,0,0,1,1.68-5.09A5.89,5.89,0,0,1,174,49.06a4.83,4.83,0,0,1,1.86,2.14V48.82h1.8v13Zm-8.76-6.36a5.89,5.89,0,0,0,1.14,3.88,4,4,0,0,0,3.24,1.36,3.88,3.88,0,0,0,3.23-1.48,6.43,6.43,0,0,0,1.18-4.1,5.62,5.62,0,0,0-1.17-3.76A4,4,0,0,0,171.52,50a4,4,0,0,0-3.22,1.46A6.18,6.18,0,0,0,167.11,55.46Z"/><path d="M202.31,55.37H192a6.25,6.25,0,0,0,1.26,4,3.92,3.92,0,0,0,3.17,1.43,4.19,4.19,0,0,0,2.52-.78,5.6,5.6,0,0,0,1.81-2.34l1.65.91A7.17,7.17,0,0,1,200,61.46a6.39,6.39,0,0,1-3.54.93,6,6,0,0,1-4.62-1.91,7.15,7.15,0,0,1-1.76-5,7.45,7.45,0,0,1,1.75-5.16,5.82,5.82,0,0,1,4.58-2,5.53,5.53,0,0,1,4.32,1.81A6.94,6.94,0,0,1,202.31,55Zm-2.14-1.54A4,4,0,0,0,199,51.06a4.07,4.07,0,0,0-2.86-1,3.84,3.84,0,0,0-2.74,1,4.15,4.15,0,0,0-1.29,2.72Z"/><path d="M214.37,43.75a1.38,1.38,0,0,1,1.39-1.37,1.37,1.37,0,0,1,1,.4,1.3,1.3,0,0,1,.42,1,1.37,1.37,0,0,1-1.41,1.38,1.37,1.37,0,0,1-1-.39A1.34,1.34,0,0,1,214.37,43.75Zm.45,18.07v-13h1.86v13Z"/><path d="M231.23,61.82V59.44a4.67,4.67,0,0,1-4.53,3,5.74,5.74,0,0,1-4.5-1.92,7.34,7.34,0,0,1-1.71-5.07,7.52,7.52,0,0,1,1.69-5.09,5.86,5.86,0,0,1,7.2-1.25,4.87,4.87,0,0,1,1.85,2.14V39.11h1.83V61.82Zm-8.73-6.36a5.94,5.94,0,0,0,1.13,3.88,4,4,0,0,0,3.25,1.36,3.86,3.86,0,0,0,3.21-1.48,6.49,6.49,0,0,0,1.17-4.1,5.67,5.67,0,0,0-1.16-3.76,4.35,4.35,0,0,0-6.42.09A6.18,6.18,0,0,0,222.5,55.46Z"/><path d="M249,55.37H238.67a6.37,6.37,0,0,0,1.26,4,3.93,3.93,0,0,0,3.18,1.43,4.19,4.19,0,0,0,2.52-.78,5.66,5.66,0,0,0,1.8-2.34l1.66.91a7.25,7.25,0,0,1-2.44,2.91,6.42,6.42,0,0,1-3.54.93,6,6,0,0,1-4.62-1.91,7.11,7.11,0,0,1-1.77-5,7.5,7.5,0,0,1,1.75-5.16,5.85,5.85,0,0,1,4.58-2,5.5,5.5,0,0,1,4.32,1.81A6.9,6.9,0,0,1,249,55Zm-2.14-1.54a3.72,3.72,0,0,0-4-3.75,3.86,3.86,0,0,0-2.75,1,4.14,4.14,0,0,0-1.28,2.72Z"/><path d="M252.75,61.82v-13h1.71v2A5.4,5.4,0,0,1,256.4,49a5.54,5.54,0,0,1,2.65-.62A4.27,4.27,0,0,1,263.72,53v8.82h-1.83v-8a4.35,4.35,0,0,0-.81-2.89,3.15,3.15,0,0,0-2.52-.94,3.65,3.65,0,0,0-3,1.22,6.14,6.14,0,0,0-1,3.84v6.79Z"/><path d="M268.76,50.36h-2.39V48.82h2.39V43.49h1.77v5.33h2.61v1.54h-2.61V61.82h-1.77Z"/><path d="M275.48,43.75a1.32,1.32,0,0,1,.41-1,1.41,1.41,0,0,1,2,0,1.3,1.3,0,0,1,.42,1,1.34,1.34,0,0,1-.4,1,1.4,1.4,0,0,1-1,.39,1.33,1.33,0,0,1-1-.39A1.35,1.35,0,0,1,275.48,43.75Zm.46,18.07v-13h1.86v13Z"/><path d="M283.14,61.82V50.36h-2.43V48.82h2.43V45.07c0-2.6.25-4.3.74-5.07a2.9,2.9,0,0,1,2.68-1.17,5.43,5.43,0,0,1,.92.08,4.91,4.91,0,0,1,.82.23L288,40.72a3.37,3.37,0,0,0-.68-.26,2.31,2.31,0,0,0-.61-.09,1.39,1.39,0,0,0-1.34.75,6.57,6.57,0,0,0-.4,2.78v4.92h2.86v1.54h-2.86V61.82Z"/><path d="M290.15,43.75a1.29,1.29,0,0,1,.41-1,1.4,1.4,0,0,1,2,0,1.3,1.3,0,0,1,.42,1,1.34,1.34,0,0,1-.4,1,1.46,1.46,0,0,1-2,0A1.34,1.34,0,0,1,290.15,43.75Zm.45,18.07v-13h1.86v13Z"/><path d="M307.49,51.2a7.07,7.07,0,0,0-1.93-1,7.19,7.19,0,0,0-2.11-.31,5,5,0,0,0-3.86,1.54,5.85,5.85,0,0,0-1.43,4.12,5.06,5.06,0,0,0,1.49,3.77,5.13,5.13,0,0,0,3.8,1.48,6.46,6.46,0,0,0,2.13-.37,8.05,8.05,0,0,0,2.11-1.1v2a8.13,8.13,0,0,1-2.1.82,11.56,11.56,0,0,1-2.48.27,6.54,6.54,0,0,1-4.88-2,6.86,6.86,0,0,1-1.9-5,6.79,6.79,0,0,1,7.15-7.15,10.31,10.31,0,0,1,2.2.23,7,7,0,0,1,1.84.65Z"/><path d="M320.66,61.82V59.44a4.74,4.74,0,0,1-4.56,3,5.74,5.74,0,0,1-4.5-1.92,7.34,7.34,0,0,1-1.71-5.07,7.52,7.52,0,0,1,1.69-5.09,5.88,5.88,0,0,1,7.21-1.25,4.79,4.79,0,0,1,1.87,2.14V48.82h1.8v13Zm-8.76-6.36A5.94,5.94,0,0,0,313,59.34a4,4,0,0,0,3.25,1.36,3.9,3.9,0,0,0,3.23-1.48,6.49,6.49,0,0,0,1.18-4.1,5.57,5.57,0,0,0-1.18-3.76,4,4,0,0,0-3.2-1.37,3.93,3.93,0,0,0-3.22,1.46A6.13,6.13,0,0,0,311.9,55.46Z"/><path d="M337.4,51.2a6.94,6.94,0,0,0-1.93-1,7.19,7.19,0,0,0-2.11-.31,5,5,0,0,0-3.85,1.54,5.81,5.81,0,0,0-1.44,4.12,5.08,5.08,0,0,0,5.29,5.25,6.46,6.46,0,0,0,2.13-.37,8.26,8.26,0,0,0,2.12-1.1v2a8.35,8.35,0,0,1-2.11.82,11.49,11.49,0,0,1-2.48.27,6.54,6.54,0,0,1-4.88-2,6.86,6.86,0,0,1-1.9-5,6.79,6.79,0,0,1,7.15-7.15,10.31,10.31,0,0,1,2.2.23,7,7,0,0,1,1.84.65Z"/><path d="M340.64,43.75a1.29,1.29,0,0,1,.41-1,1.34,1.34,0,0,1,1-.4,1.37,1.37,0,0,1,1,.4,1.3,1.3,0,0,1,.42,1,1.35,1.35,0,0,1-.41,1,1.46,1.46,0,0,1-2,0A1.34,1.34,0,0,1,340.64,43.75Zm.45,18.07v-13H343v13Z"/><path d="M353.78,62.39a6.79,6.79,0,0,1-2.67-.55,7.43,7.43,0,0,1-2.31-1.58A6.56,6.56,0,0,1,347.3,58a7.13,7.13,0,0,1-.51-2.7,7,7,0,0,1,.53-2.69,6.75,6.75,0,0,1,1.51-2.26,6.92,6.92,0,0,1,2.27-1.52,6.78,6.78,0,0,1,2.68-.53,7,7,0,0,1,2.73.53,7.19,7.19,0,0,1,2.31,1.52A6.95,6.95,0,0,1,360.37,58a6.73,6.73,0,0,1-1.52,2.25,7.33,7.33,0,0,1-2.34,1.58A7.08,7.08,0,0,1,353.78,62.39Zm.06-1.69a4.83,4.83,0,0,0,3.62-1.54,5.6,5.6,0,0,0,0-7.6,5,5,0,0,0-7.25,0,5.62,5.62,0,0,0,0,7.6A4.8,4.8,0,0,0,353.84,60.7Zm-1.95-14L355,41.6h2.4l-4.15,5.13Z"/><path d="M364.62,61.82v-13h1.71v2A5.4,5.4,0,0,1,368.27,49a5.54,5.54,0,0,1,2.65-.62A4.27,4.27,0,0,1,375.59,53v8.82h-1.83v-8a4.35,4.35,0,0,0-.81-2.89,3.15,3.15,0,0,0-2.52-.94,3.65,3.65,0,0,0-3,1.22,6.14,6.14,0,0,0-1,3.84v6.79Z"/><path d="M398.51,61.82V59.44a4.84,4.84,0,0,1-1.8,2.2,4.89,4.89,0,0,1-2.72.75,5.74,5.74,0,0,1-4.51-1.92,7.33,7.33,0,0,1-1.7-5.07,7.56,7.56,0,0,1,1.68-5.09,5.47,5.47,0,0,1,4.35-2,5.41,5.41,0,0,1,2.85.72,4.75,4.75,0,0,1,1.85,2.14V39.11h1.83V61.82Zm-8.73-6.36a5.89,5.89,0,0,0,1.14,3.88,4,4,0,0,0,3.24,1.36,3.86,3.86,0,0,0,3.21-1.48,6.49,6.49,0,0,0,1.17-4.1,5.67,5.67,0,0,0-1.15-3.76,4,4,0,0,0-3.2-1.37A4,4,0,0,0,391,51.45,6.18,6.18,0,0,0,389.78,55.46Z"/><path d="M416.28,55.37H406a6.3,6.3,0,0,0,1.26,4,3.92,3.92,0,0,0,3.17,1.43,4.19,4.19,0,0,0,2.52-.78,5.6,5.6,0,0,0,1.81-2.34l1.65.91a7.17,7.17,0,0,1-2.44,2.91,6.39,6.39,0,0,1-3.54.93,6,6,0,0,1-4.62-1.91,7.1,7.1,0,0,1-1.76-5,7.45,7.45,0,0,1,1.75-5.16,5.82,5.82,0,0,1,4.58-2,5.53,5.53,0,0,1,4.32,1.81A6.94,6.94,0,0,1,416.28,55Zm-2.14-1.54a3.71,3.71,0,0,0-4-3.75,3.88,3.88,0,0,0-2.75,1,4.19,4.19,0,0,0-1.28,2.72Z"/><path d="M430.48,61.82h-1.81v-13h1.81v2a4.65,4.65,0,0,1,1.7-1.88,4.55,4.55,0,0,1,2.43-.64A4.37,4.37,0,0,1,437,49a4.18,4.18,0,0,1,1.55,1.91,5,5,0,0,1,4.52-2.56,4.29,4.29,0,0,1,3.26,1.25A4.81,4.81,0,0,1,447.54,53v8.79h-1.8V53.74a4.51,4.51,0,0,0-.78-2.87,2.85,2.85,0,0,0-2.34-1,3.13,3.13,0,0,0-2.73,1.21A6.72,6.72,0,0,0,439,55v6.85h-1.79V53.74a4.59,4.59,0,0,0-.75-2.91,2.77,2.77,0,0,0-2.31-.92,3.23,3.23,0,0,0-2.8,1.23,6.54,6.54,0,0,0-.89,3.83Z"/><path d="M461.94,61.82V59.44a4.74,4.74,0,0,1-4.55,3,5.74,5.74,0,0,1-4.51-1.92,7.34,7.34,0,0,1-1.71-5.07,7.57,7.57,0,0,1,1.69-5.09,5.88,5.88,0,0,1,7.21-1.25,4.79,4.79,0,0,1,1.87,2.14V48.82h1.8v13Zm-8.76-6.36a5.89,5.89,0,0,0,1.14,3.88,4,4,0,0,0,3.24,1.36,3.88,3.88,0,0,0,3.23-1.48,6.43,6.43,0,0,0,1.18-4.1,5.62,5.62,0,0,0-1.17-3.76A4,4,0,0,0,457.59,50a3.93,3.93,0,0,0-3.22,1.46A6.18,6.18,0,0,0,453.18,55.46Z"/><path d="M470.38,51.43a7.83,7.83,0,0,1,2-2.39,3.64,3.64,0,0,1,2.23-.7,4.08,4.08,0,0,1,.77.07,5.51,5.51,0,0,1,.77.21l-.59,1.7a5.44,5.44,0,0,0-.61-.15,3.21,3.21,0,0,0-.6-.06,3.39,3.39,0,0,0-2.78,1.53,6.08,6.08,0,0,0-1.15,3.79v6.39h-1.8v-13h1.8Z"/><path d="M488.13,51.2a6.94,6.94,0,0,0-1.93-1,7.14,7.14,0,0,0-2.11-.31,5,5,0,0,0-3.85,1.54,5.81,5.81,0,0,0-1.44,4.12,5.08,5.08,0,0,0,5.29,5.25,6.41,6.41,0,0,0,2.13-.37,8.1,8.1,0,0,0,2.12-1.1v2a8.35,8.35,0,0,1-2.11.82,11.49,11.49,0,0,1-2.48.27,6.52,6.52,0,0,1-4.87-2,6.86,6.86,0,0,1-1.91-5,6.81,6.81,0,0,1,7.15-7.15,10.41,10.41,0,0,1,2.21.23,6.93,6.93,0,0,1,1.83.65Z"/><path d="M501.3,61.82V59.44a4.74,4.74,0,0,1-4.55,3,5.74,5.74,0,0,1-4.51-1.92,7.33,7.33,0,0,1-1.7-5.07,7.56,7.56,0,0,1,1.68-5.09,5.88,5.88,0,0,1,7.21-1.25,4.79,4.79,0,0,1,1.87,2.14V48.82h1.8v13Zm-8.76-6.36a5.89,5.89,0,0,0,1.14,3.88,4,4,0,0,0,3.24,1.36,3.88,3.88,0,0,0,3.23-1.48,6.43,6.43,0,0,0,1.18-4.1,5.62,5.62,0,0,0-1.17-3.76A4,4,0,0,0,497,50a3.93,3.93,0,0,0-3.22,1.46A6.18,6.18,0,0,0,492.54,55.46Z"/><path d="M506.46,59.5l1.71-1a3.47,3.47,0,0,0,1.23,1.63,3.42,3.42,0,0,0,2,.55,2.69,2.69,0,0,0,1.82-.58,1.92,1.92,0,0,0,.67-1.54c0-1-.88-1.84-2.65-2.54a3.75,3.75,0,0,1-.44-.17,8.27,8.27,0,0,1-2.87-1.66,3,3,0,0,1-.82-2.12,3.52,3.52,0,0,1,1.17-2.72,4.32,4.32,0,0,1,3-1.06A5,5,0,0,1,514,49a4,4,0,0,1,1.62,2l-1.65.92a2.66,2.66,0,0,0-1-1.4,3.09,3.09,0,0,0-1.76-.49,2.23,2.23,0,0,0-1.54.55,1.77,1.77,0,0,0-.61,1.37,1.72,1.72,0,0,0,.6,1.34,8.09,8.09,0,0,0,2.49,1.15A6.64,6.64,0,0,1,515,56a3.69,3.69,0,0,1,.74,2.43,3.55,3.55,0,0,1-1.27,2.86,5.89,5.89,0,0,1-6.28.31A4.18,4.18,0,0,1,506.46,59.5Z"/><path d="M521.74,58.09l2.12.9L520,66.53,518.76,66Z"/><path d="M547.84,55.37H537.51a6.37,6.37,0,0,0,1.26,4A3.93,3.93,0,0,0,542,60.76a4.19,4.19,0,0,0,2.52-.78,5.66,5.66,0,0,0,1.8-2.34l1.66.91a7.25,7.25,0,0,1-2.44,2.91,6.39,6.39,0,0,1-3.54.93,6,6,0,0,1-4.62-1.91,7.1,7.1,0,0,1-1.76-5,7.45,7.45,0,0,1,1.75-5.16,5.82,5.82,0,0,1,4.57-2,5.5,5.5,0,0,1,4.32,1.81A6.9,6.9,0,0,1,547.84,55Zm-2.14-1.54a3.72,3.72,0,0,0-4-3.75,3.88,3.88,0,0,0-2.75,1,4.14,4.14,0,0,0-1.28,2.72Z"/><path d="M551.59,61.82v-13h1.71v2a5.35,5.35,0,0,1,2-1.87,5.48,5.48,0,0,1,2.64-.62A4.27,4.27,0,0,1,562.56,53v8.82h-1.83v-8a4.35,4.35,0,0,0-.81-2.89,3.13,3.13,0,0,0-2.51-.94,3.62,3.62,0,0,0-3,1.22,6.14,6.14,0,0,0-1,3.84v6.79Z"/><path d="M573.8,61.82l7.25-11.37H574.3V48.82h9.87L577,60.19h7.39v1.63Z"/><path d="M593.19,62.39a6.74,6.74,0,0,1-2.66-.55,7.59,7.59,0,0,1-2.32-1.58A6.53,6.53,0,0,1,586.72,58a7.13,7.13,0,0,1-.52-2.7,7,7,0,0,1,.53-2.69,6.9,6.9,0,0,1,1.51-2.26,7,7,0,0,1,2.27-1.52,6.82,6.82,0,0,1,2.68-.53,7.15,7.15,0,0,1,5,2,6.85,6.85,0,0,1,1.55,2.27,7,7,0,0,1,.53,2.68,6.87,6.87,0,0,1-2,4.92,7.14,7.14,0,0,1-5.07,2.13Zm.06-1.69a4.85,4.85,0,0,0,3.63-1.54,5.62,5.62,0,0,0,0-7.6,5,5,0,0,0-7.25,0,5.62,5.62,0,0,0,0,7.6A4.83,4.83,0,0,0,593.25,60.7Z"/><path d="M604,61.82v-13h1.72v2A5.25,5.25,0,0,1,607.69,49a5.5,5.5,0,0,1,2.64-.62A4.27,4.27,0,0,1,615,53v8.82h-1.83v-8a4.35,4.35,0,0,0-.81-2.89,3.13,3.13,0,0,0-2.51-.94,3.63,3.63,0,0,0-3,1.22,6.14,6.14,0,0,0-1,3.84v6.79Z"/><path d="M629.26,61.82V59.44a5,5,0,0,1-1.81,2.19,4.89,4.89,0,0,1-2.75.76,5.72,5.72,0,0,1-4.5-1.92,7.34,7.34,0,0,1-1.71-5.07,7.56,7.56,0,0,1,1.68-5.09,5.89,5.89,0,0,1,7.22-1.25,4.85,4.85,0,0,1,1.87,2.14V48.82h1.8v13Zm-8.76-6.36a5.89,5.89,0,0,0,1.13,3.88,4,4,0,0,0,3.25,1.36,3.91,3.91,0,0,0,3.23-1.48,6.49,6.49,0,0,0,1.18-4.1,5.57,5.57,0,0,0-1.18-3.76,4,4,0,0,0-3.2-1.37,4,4,0,0,0-3.23,1.46A6.18,6.18,0,0,0,620.5,55.46Z"/><path d="M634.41,59.5l1.72-1a3.19,3.19,0,0,0,3.21,2.18,2.66,2.66,0,0,0,1.81-.58,1.92,1.92,0,0,0,.68-1.54c0-1-.89-1.84-2.66-2.54l-.44-.17a8.37,8.37,0,0,1-2.87-1.66,3,3,0,0,1-.82-2.12,3.52,3.52,0,0,1,1.17-2.72,4.37,4.37,0,0,1,3-1.06,5,5,0,0,1,2.69.69,4,4,0,0,1,1.63,2l-1.66.92a2.59,2.59,0,0,0-1-1.4,3.11,3.11,0,0,0-1.76-.49,2.28,2.28,0,0,0-1.55.55,1.8,1.8,0,0,0-.6,1.37,1.72,1.72,0,0,0,.6,1.34,8.09,8.09,0,0,0,2.49,1.15A6.66,6.66,0,0,1,642.94,56a3.64,3.64,0,0,1,.74,2.43,3.55,3.55,0,0,1-1.27,2.86,5.89,5.89,0,0,1-6.28.31A4.23,4.23,0,0,1,634.41,59.5Z"/><path d="M665.59,61.82V59.44a4.76,4.76,0,0,1-4.56,3,5.74,5.74,0,0,1-4.51-1.92,7.38,7.38,0,0,1-1.7-5.07,7.56,7.56,0,0,1,1.68-5.09,5.89,5.89,0,0,1,7.22-1.25,4.85,4.85,0,0,1,1.87,2.14V48.82h1.8v13Zm-8.76-6.36A5.89,5.89,0,0,0,658,59.34a4,4,0,0,0,3.24,1.36,3.88,3.88,0,0,0,3.23-1.48,6.43,6.43,0,0,0,1.18-4.1,5.62,5.62,0,0,0-1.17-3.76A4,4,0,0,0,661.23,50,4,4,0,0,0,658,51.45,6.18,6.18,0,0,0,656.83,55.46Z"/><path d="M674.2,61.82h-1.86V39.11h1.86Z"/><path d="M690.28,55.37H680a6.37,6.37,0,0,0,1.26,4,4,4,0,0,0,3.18,1.43,4.19,4.19,0,0,0,2.52-.78,5.5,5.5,0,0,0,1.8-2.34l1.66.91a7.17,7.17,0,0,1-2.44,2.91,6.39,6.39,0,0,1-3.54.93,6,6,0,0,1-4.62-1.91,7.1,7.1,0,0,1-1.76-5,7.45,7.45,0,0,1,1.75-5.16,5.82,5.82,0,0,1,4.58-2,5.53,5.53,0,0,1,4.32,1.81A6.94,6.94,0,0,1,690.28,55Zm-2.14-1.54A4,4,0,0,0,687,51.06a4.07,4.07,0,0,0-2.86-1,3.88,3.88,0,0,0-2.75,1,4.19,4.19,0,0,0-1.28,2.72Z"/><path d="M703.66,61.82V59.44a4.7,4.7,0,0,1-4.53,3,5.71,5.71,0,0,1-4.5-1.92,7.34,7.34,0,0,1-1.71-5.07,7.56,7.56,0,0,1,1.68-5.09,5.49,5.49,0,0,1,4.35-2,5.39,5.39,0,0,1,2.85.72,4.83,4.83,0,0,1,1.86,2.14V39.11h1.83V61.82Zm-8.74-6.36a5.89,5.89,0,0,0,1.14,3.88,4,4,0,0,0,3.25,1.36,3.85,3.85,0,0,0,3.2-1.48,6.49,6.49,0,0,0,1.17-4.1,5.67,5.67,0,0,0-1.15-3.76,4.35,4.35,0,0,0-6.42.09A6.18,6.18,0,0,0,694.92,55.46Z"/><path d="M719.86,61.82V59.44a4.74,4.74,0,0,1-4.56,3,5.72,5.72,0,0,1-4.5-1.92,7.34,7.34,0,0,1-1.71-5.07,7.56,7.56,0,0,1,1.68-5.09A5.89,5.89,0,0,1,718,49.06a4.79,4.79,0,0,1,1.87,2.14V48.82h1.8v13Zm-8.76-6.36a5.94,5.94,0,0,0,1.13,3.88,4,4,0,0,0,3.25,1.36,3.91,3.91,0,0,0,3.23-1.48,6.49,6.49,0,0,0,1.18-4.1,5.57,5.57,0,0,0-1.18-3.76,4.36,4.36,0,0,0-6.43.09A6.18,6.18,0,0,0,711.1,55.46Z"/><path d="M726.49,61.82v-13h1.72v2A5.25,5.25,0,0,1,730.15,49a5.5,5.5,0,0,1,2.64-.62A4.27,4.27,0,0,1,737.46,53v8.82h-1.83v-8a4.35,4.35,0,0,0-.81-2.89,3.13,3.13,0,0,0-2.51-.94,3.63,3.63,0,0,0-3,1.22,6.14,6.14,0,0,0-1,3.84v6.79Zm9.7-19a4.21,4.21,0,0,1-1.1,2,2.58,2.58,0,0,1-1.82.69,3.57,3.57,0,0,1-.46,0,3.11,3.11,0,0,1-.49-.11l-1.17-.4a2.24,2.24,0,0,0-.39-.08,3.23,3.23,0,0,0-.46,0,1.35,1.35,0,0,0-.78.22,1.75,1.75,0,0,0-.57.67h-1.28a3.68,3.68,0,0,1,1.06-1.94,2.68,2.68,0,0,1,1.85-.67,3.48,3.48,0,0,1,.47,0,2,2,0,0,1,.39.09l1.15.4.47.11.42,0a1.39,1.39,0,0,0,1.42-1Z"/><path d="M751.72,61.82V59.44a5,5,0,0,1-1.81,2.19,4.89,4.89,0,0,1-2.75.76,5.72,5.72,0,0,1-4.5-1.92A7.34,7.34,0,0,1,741,55.4a7.52,7.52,0,0,1,1.69-5.09,5.88,5.88,0,0,1,7.21-1.25,4.79,4.79,0,0,1,1.87,2.14V48.82h1.8v13ZM743,55.46a5.94,5.94,0,0,0,1.13,3.88,4,4,0,0,0,3.25,1.36,3.91,3.91,0,0,0,3.23-1.48,6.49,6.49,0,0,0,1.18-4.1,5.62,5.62,0,0,0-1.17-3.76A4,4,0,0,0,747.37,50a4,4,0,0,0-3.23,1.46A6.18,6.18,0,0,0,743,55.46Z"/><path d="M756.87,59.5l1.72-1a3.19,3.19,0,0,0,3.21,2.18,2.66,2.66,0,0,0,1.81-.58,1.92,1.92,0,0,0,.68-1.54c0-1-.89-1.84-2.66-2.54l-.44-.17a8.37,8.37,0,0,1-2.87-1.66,3,3,0,0,1-.82-2.12,3.52,3.52,0,0,1,1.17-2.72,4.37,4.37,0,0,1,3-1.06,5,5,0,0,1,2.69.69A3.94,3.94,0,0,1,766,51l-1.66.92a2.59,2.59,0,0,0-1-1.4,3.11,3.11,0,0,0-1.76-.49,2.28,2.28,0,0,0-1.55.55,1.8,1.8,0,0,0-.6,1.37,1.72,1.72,0,0,0,.6,1.34,8.09,8.09,0,0,0,2.49,1.15A6.77,6.77,0,0,1,765.41,56a3.69,3.69,0,0,1,.74,2.43,3.56,3.56,0,0,1-1.28,2.86,5.89,5.89,0,0,1-6.28.31A4.29,4.29,0,0,1,756.87,59.5Z"/><path d="M770.23,60.59a1.5,1.5,0,1,1,3,0,1.43,1.43,0,0,1-.43,1.06,1.47,1.47,0,0,1-1.06.43,1.49,1.49,0,0,1-1.5-1.49Z"/></svg>