<svg id="fondos" xmlns="http://www.w3.org/2000/svg" viewBox="0 0 838.12 100.16"><defs><style>.cls-1{fill:#e6e6e6;}</style></defs><title>carabineros1</title><rect class="cls-1" width="838.12" height="100.16"/><path d="M59.51,57.57V36.13h1.94v8.7H73.13v-8.7h2V57.57h-2V46.5H61.45V57.57Z"/><path d="M89.74,57.57V55.2a4.88,4.88,0,0,1-1.81,2.19,5,5,0,0,1-2.75.75,5.76,5.76,0,0,1-4.5-1.91A7.34,7.34,0,0,1,79,51.16a7.52,7.52,0,0,1,1.69-5.09,5.88,5.88,0,0,1,7.21-1.25A4.82,4.82,0,0,1,89.74,47V44.58h1.8v13ZM81,51.22a5.89,5.89,0,0,0,1.14,3.88,4,4,0,0,0,3.24,1.36A3.91,3.91,0,0,0,88.59,55a6.38,6.38,0,0,0,1.18-4.09,5.6,5.6,0,0,0-1.17-3.76,4,4,0,0,0-3.21-1.37,3.93,3.93,0,0,0-3.22,1.46A6.18,6.18,0,0,0,81,51.22Z"/><path d="M106.48,47a6.9,6.9,0,0,0-1.93-.94,7.15,7.15,0,0,0-2.11-.32,5,5,0,0,0-3.85,1.55,5.79,5.79,0,0,0-1.44,4.12,5.1,5.1,0,0,0,1.49,3.77,5.19,5.19,0,0,0,3.8,1.48,6.73,6.73,0,0,0,2.13-.37,8.1,8.1,0,0,0,2.12-1.1v2a8,8,0,0,1-2.11.81,10.9,10.9,0,0,1-2.48.27,6.51,6.51,0,0,1-4.87-2,6.89,6.89,0,0,1-1.91-5,6.81,6.81,0,0,1,7.15-7.14,10.26,10.26,0,0,1,2.2.22,7.24,7.24,0,0,1,1.84.66Z"/><path d="M121.22,51.13H110.89a6.31,6.31,0,0,0,1.26,3.95,3.91,3.91,0,0,0,3.18,1.44,4.19,4.19,0,0,0,2.52-.78,5.8,5.8,0,0,0,1.8-2.34l1.66.91a7.28,7.28,0,0,1-2.44,2.9,6.39,6.39,0,0,1-3.54.93,6,6,0,0,1-4.62-1.91,7.07,7.07,0,0,1-1.77-5,7.5,7.5,0,0,1,1.75-5.16,5.85,5.85,0,0,1,4.58-2,5.5,5.5,0,0,1,4.32,1.81,6.9,6.9,0,0,1,1.63,4.82Zm-2.14-1.54a3.72,3.72,0,0,0-4-3.75,3.86,3.86,0,0,0-2.75,1A4.14,4.14,0,0,0,111,49.59Z"/><path d="M126.77,47.19a7.85,7.85,0,0,1,2-2.39,3.66,3.66,0,0,1,2.23-.7,4.08,4.08,0,0,1,.77.07,6.69,6.69,0,0,1,.77.2l-.59,1.7-.6-.14a3.28,3.28,0,0,0-3.39,1.46,6.11,6.11,0,0,0-1.15,3.8v6.38H125v-13h1.8Z"/><path d="M143.06,64.11V44.58h1.74V47a5.55,5.55,0,0,1,1.95-2.16,5,5,0,0,1,2.7-.75A5.56,5.56,0,0,1,153.86,46a7.51,7.51,0,0,1,1.68,5.11,7.57,7.57,0,0,1-1.64,5.1,5.45,5.45,0,0,1-4.37,1.91,5.1,5.1,0,0,1-2.76-.75,5.57,5.57,0,0,1-2-2.22v8.94Zm10.53-13a6.21,6.21,0,0,0-1.15-4,3.83,3.83,0,0,0-3.17-1.44,4,4,0,0,0-3.26,1.4A5.83,5.83,0,0,0,144.83,51a5.93,5.93,0,0,0,1.27,4,4.18,4.18,0,0,0,3.35,1.49,3.65,3.65,0,0,0,3.05-1.4A6.18,6.18,0,0,0,153.59,51.16Z"/><path d="M161.09,47.19a8,8,0,0,1,2-2.39,3.66,3.66,0,0,1,2.23-.7,4,4,0,0,1,.77.07,6.69,6.69,0,0,1,.77.2l-.59,1.7-.6-.14a3.31,3.31,0,0,0-.61-.06,3.41,3.41,0,0,0-2.78,1.52,6.17,6.17,0,0,0-1.15,3.8v6.38h-1.8v-13h1.8Z"/><path d="M179.9,51.13H169.57a6.31,6.31,0,0,0,1.26,3.95A3.91,3.91,0,0,0,174,56.52a4.19,4.19,0,0,0,2.52-.78,5.71,5.71,0,0,0,1.8-2.34l1.66.91a7.2,7.2,0,0,1-2.44,2.9,6.39,6.39,0,0,1-3.54.93,6,6,0,0,1-4.62-1.91,7.06,7.06,0,0,1-1.76-5,7.45,7.45,0,0,1,1.75-5.16,5.82,5.82,0,0,1,4.57-2,5.5,5.5,0,0,1,4.32,1.81,6.9,6.9,0,0,1,1.63,4.82Zm-2.14-1.54a3.71,3.71,0,0,0-4-3.75,3.88,3.88,0,0,0-2.75,1,4.19,4.19,0,0,0-1.28,2.72Z"/><path d="M182.17,55.26l1.72-1a3.19,3.19,0,0,0,3.2,2.18,2.69,2.69,0,0,0,1.82-.58,1.92,1.92,0,0,0,.67-1.54c0-1-.88-1.85-2.65-2.54l-.44-.17A8.36,8.36,0,0,1,183.62,50a3,3,0,0,1-.82-2.11A3.5,3.5,0,0,1,184,45.13a4.35,4.35,0,0,1,3-1.06,5,5,0,0,1,2.69.69,4,4,0,0,1,1.63,2l-1.66.92a2.64,2.64,0,0,0-1-1.4,3,3,0,0,0-1.76-.49,2.21,2.21,0,0,0-1.55.55,1.78,1.78,0,0,0-.6,1.37,1.66,1.66,0,0,0,.6,1.33,7.82,7.82,0,0,0,2.49,1.16,6.66,6.66,0,0,1,2.87,1.63,3.6,3.6,0,0,1,.74,2.43,3.55,3.55,0,0,1-1.27,2.86,5.17,5.17,0,0,1-3.43,1.06,5.27,5.27,0,0,1-2.85-.75A4.23,4.23,0,0,1,182.17,55.26Z"/><path d="M206.27,51.13H195.94a6.31,6.31,0,0,0,1.26,3.95,3.91,3.91,0,0,0,3.18,1.44,4.19,4.19,0,0,0,2.52-.78,5.8,5.8,0,0,0,1.8-2.34l1.66.91a7.28,7.28,0,0,1-2.44,2.9,6.42,6.42,0,0,1-3.54.93,6,6,0,0,1-4.62-1.91,7.07,7.07,0,0,1-1.77-5,7.5,7.5,0,0,1,1.75-5.16,5.85,5.85,0,0,1,4.58-2,5.5,5.5,0,0,1,4.32,1.81,6.9,6.9,0,0,1,1.63,4.82Zm-2.14-1.54a3.72,3.72,0,0,0-4-3.75,3.86,3.86,0,0,0-2.75,1,4.09,4.09,0,0,0-1.28,2.72Z"/><path d="M210,57.57v-13h1.71v2a5.32,5.32,0,0,1,1.94-1.87,5.43,5.43,0,0,1,2.65-.62A4.27,4.27,0,0,1,221,48.75v8.82h-1.83v-8a4.35,4.35,0,0,0-.81-2.89,3.16,3.16,0,0,0-2.52-1,3.65,3.65,0,0,0-3,1.23,6.12,6.12,0,0,0-1,3.84v6.78Z"/><path d="M235.76,47a7,7,0,0,0-1.94-.94,7.15,7.15,0,0,0-2.11-.32,5,5,0,0,0-3.85,1.55,5.79,5.79,0,0,0-1.44,4.12,5.1,5.1,0,0,0,1.49,3.77,5.19,5.19,0,0,0,3.8,1.48,6.63,6.63,0,0,0,2.13-.37,8.1,8.1,0,0,0,2.12-1.1v2a7.84,7.84,0,0,1-2.11.81,10.81,10.81,0,0,1-2.47.27,6.52,6.52,0,0,1-4.88-2,6.89,6.89,0,0,1-1.91-5,6.81,6.81,0,0,1,7.15-7.14,10.42,10.42,0,0,1,2.21.22,7.31,7.31,0,0,1,1.83.66Z"/><path d="M239,39.51a1.32,1.32,0,0,1,.41-1,1.36,1.36,0,0,1,1-.41,1.38,1.38,0,0,1,1,.41,1.36,1.36,0,0,1,0,2,1.37,1.37,0,0,1-1,.4A1.38,1.38,0,0,1,239,39.51Zm.46,18.06v-13h1.86v13Z"/><path d="M255.82,57.57V55.2A4.88,4.88,0,0,1,254,57.39a4.93,4.93,0,0,1-2.74.75,5.77,5.77,0,0,1-4.51-1.91,7.38,7.38,0,0,1-1.7-5.07,7.56,7.56,0,0,1,1.68-5.09,5.44,5.44,0,0,1,4.35-2,5.51,5.51,0,0,1,2.87.72A4.86,4.86,0,0,1,255.82,47V44.58h1.81v13Zm-8.76-6.35a5.89,5.89,0,0,0,1.14,3.88,4,4,0,0,0,3.24,1.36A3.89,3.89,0,0,0,254.67,55a6.38,6.38,0,0,0,1.18-4.09,5.6,5.6,0,0,0-1.17-3.76,4,4,0,0,0-3.21-1.37,4,4,0,0,0-3.22,1.46A6.18,6.18,0,0,0,247.06,51.22Z"/><path d="M282.26,51.13H271.94a6.31,6.31,0,0,0,1.26,3.95,3.91,3.91,0,0,0,3.18,1.44,4.23,4.23,0,0,0,2.52-.78,5.8,5.8,0,0,0,1.8-2.34l1.65.91a7.2,7.2,0,0,1-2.44,2.9,6.38,6.38,0,0,1-3.53.93,6,6,0,0,1-4.62-1.91,7.07,7.07,0,0,1-1.77-5,7.45,7.45,0,0,1,1.75-5.16,5.84,5.84,0,0,1,4.58-2,5.53,5.53,0,0,1,4.32,1.81,6.94,6.94,0,0,1,1.62,4.82Zm-2.13-1.54a3.72,3.72,0,0,0-4.05-3.75,3.84,3.84,0,0,0-2.74,1,4.15,4.15,0,0,0-1.29,2.72Z"/><path d="M286,57.57v-13h1.72v2a5.24,5.24,0,0,1,1.94-1.87,5.39,5.39,0,0,1,2.64-.62,4.68,4.68,0,0,1,3.45,1.23A4.62,4.62,0,0,1,297,48.75v8.82h-1.83v-8a4.35,4.35,0,0,0-.82-2.89,3.14,3.14,0,0,0-2.51-1,3.64,3.64,0,0,0-3,1.23,6.12,6.12,0,0,0-1,3.84v6.78Z"/><path d="M321.45,51.13H311.12a6.31,6.31,0,0,0,1.26,3.95,3.91,3.91,0,0,0,3.18,1.44,4.19,4.19,0,0,0,2.52-.78,5.8,5.8,0,0,0,1.8-2.34l1.66.91a7.28,7.28,0,0,1-2.44,2.9,6.39,6.39,0,0,1-3.54.93,6,6,0,0,1-4.62-1.91,7.07,7.07,0,0,1-1.77-5,7.5,7.5,0,0,1,1.75-5.16,5.85,5.85,0,0,1,4.58-2,5.5,5.5,0,0,1,4.32,1.81,6.9,6.9,0,0,1,1.63,4.82Zm-2.14-1.54a3.72,3.72,0,0,0-4-3.75,3.86,3.86,0,0,0-2.75,1,4.14,4.14,0,0,0-1.28,2.72Z"/><path d="M327.18,57.57h-1.86V34.87h1.86Z"/><path d="M342.72,57.57h-1.86V34.87h1.86Z"/><path d="M349.44,44.58v6.49a7.65,7.65,0,0,0,.84,4.17,3.94,3.94,0,0,0,5.71,0,7.48,7.48,0,0,0,.86-4.16V44.58h1.79V52a6.68,6.68,0,0,1-1.39,4.59,6.17,6.17,0,0,1-8.2,0A6.64,6.64,0,0,1,347.64,52V44.58Z"/><path d="M374.87,44.58V55.32a38.66,38.66,0,0,1-.14,3.91,6.08,6.08,0,0,1-.46,2,4.55,4.55,0,0,1-2.06,2.16,7.76,7.76,0,0,1-3.52.71,7,7,0,0,1-4-1,4.28,4.28,0,0,1-1.76-3h2.26a2.66,2.66,0,0,0,1.15,1.82,4.53,4.53,0,0,0,2.53.61,5.34,5.34,0,0,0,2.16-.42,3.11,3.11,0,0,0,1.9-2.29,10.33,10.33,0,0,0,.14-2V55.17a4.68,4.68,0,0,1-1.84,2.18,5.11,5.11,0,0,1-2.83.79,5.44,5.44,0,0,1-4.37-1.9,7.58,7.58,0,0,1-1.64-5.11A7.56,7.56,0,0,1,364,46a5.59,5.59,0,0,1,4.43-1.92,5,5,0,0,1,2.79.8A4.47,4.47,0,0,1,373,47V44.58Zm-6.21,1.17a3.85,3.85,0,0,0-3.18,1.44,6.16,6.16,0,0,0-1.17,4,6.12,6.12,0,0,0,1.11,3.9,3.69,3.69,0,0,0,3.07,1.4A4.15,4.15,0,0,0,371.82,55a6,6,0,0,0,1.25-4,5.83,5.83,0,0,0-1.17-3.86A4,4,0,0,0,368.66,45.75Z"/><path d="M389.27,57.57V55.2a4.88,4.88,0,0,1-1.81,2.19,4.93,4.93,0,0,1-2.74.75,5.77,5.77,0,0,1-4.51-1.91,7.33,7.33,0,0,1-1.7-5.07,7.56,7.56,0,0,1,1.68-5.09,5.88,5.88,0,0,1,7.21-1.25A4.82,4.82,0,0,1,389.27,47V44.58h1.8v13Zm-8.76-6.35a5.89,5.89,0,0,0,1.14,3.88,4,4,0,0,0,3.24,1.36A3.89,3.89,0,0,0,388.12,55a6.38,6.38,0,0,0,1.18-4.09,5.6,5.6,0,0,0-1.17-3.76,4,4,0,0,0-3.21-1.37,3.93,3.93,0,0,0-3.22,1.46A6.18,6.18,0,0,0,380.51,51.22Z"/><path d="M397.71,47.19a7.71,7.71,0,0,1,2-2.39,3.64,3.64,0,0,1,2.23-.7,4.08,4.08,0,0,1,.77.07c.25,0,.51.12.77.2l-.59,1.7-.61-.14a3.23,3.23,0,0,0-.61-.06,3.39,3.39,0,0,0-2.77,1.52,6.11,6.11,0,0,0-1.15,3.8v6.38h-1.8v-13h1.8Z"/><path d="M423.62,57.57V55.2a4.64,4.64,0,0,1-4.53,2.94,5.76,5.76,0,0,1-4.5-1.91,7.34,7.34,0,0,1-1.71-5.07,7.57,7.57,0,0,1,1.69-5.09,5.86,5.86,0,0,1,7.2-1.25A4.9,4.9,0,0,1,423.62,47V34.87h1.83v22.7Zm-8.73-6.35A5.89,5.89,0,0,0,416,55.1a4,4,0,0,0,3.24,1.36A3.87,3.87,0,0,0,422.48,55a6.44,6.44,0,0,0,1.17-4.09,5.65,5.65,0,0,0-1.16-3.76,4.34,4.34,0,0,0-6.41.09A6.18,6.18,0,0,0,414.89,51.22Z"/><path d="M441.39,51.13H431.06a6.31,6.31,0,0,0,1.26,3.95,3.91,3.91,0,0,0,3.18,1.44,4.19,4.19,0,0,0,2.52-.78,5.8,5.8,0,0,0,1.8-2.34l1.66.91a7.28,7.28,0,0,1-2.44,2.9,6.39,6.39,0,0,1-3.54.93,6,6,0,0,1-4.62-1.91,7.07,7.07,0,0,1-1.77-5,7.5,7.5,0,0,1,1.75-5.16,5.85,5.85,0,0,1,4.58-2,5.5,5.5,0,0,1,4.32,1.81,6.9,6.9,0,0,1,1.63,4.82Zm-2.14-1.54a3.71,3.71,0,0,0-4-3.75,3.86,3.86,0,0,0-2.75,1,4.14,4.14,0,0,0-1.28,2.72Z"/><path d="M447.12,57.57h-1.86V34.87h1.86Z"/><path d="M470.31,57.57V55.2a4.64,4.64,0,0,1-4.53,2.94,5.75,5.75,0,0,1-4.5-1.91,7.34,7.34,0,0,1-1.71-5.07,7.56,7.56,0,0,1,1.68-5.09,5.46,5.46,0,0,1,4.35-2,5.39,5.39,0,0,1,2.85.72A4.86,4.86,0,0,1,470.31,47V34.87h1.83v22.7Zm-8.73-6.35a5.89,5.89,0,0,0,1.13,3.88A4,4,0,0,0,466,56.46a3.86,3.86,0,0,0,3.2-1.49,6.44,6.44,0,0,0,1.18-4.09,5.65,5.65,0,0,0-1.16-3.76,4.35,4.35,0,0,0-6.42.09A6.18,6.18,0,0,0,461.58,51.22Z"/><path d="M488.08,51.13H477.75A6.31,6.31,0,0,0,479,55.08a3.91,3.91,0,0,0,3.18,1.44,4.23,4.23,0,0,0,2.52-.78,5.8,5.8,0,0,0,1.8-2.34l1.65.91a7.2,7.2,0,0,1-2.44,2.9,6.38,6.38,0,0,1-3.53.93,6,6,0,0,1-4.62-1.91,7.07,7.07,0,0,1-1.77-5,7.45,7.45,0,0,1,1.75-5.16,5.84,5.84,0,0,1,4.58-2,5.53,5.53,0,0,1,4.32,1.81,6.94,6.94,0,0,1,1.63,4.82Zm-2.14-1.54a3.72,3.72,0,0,0-4.05-3.75,3.84,3.84,0,0,0-2.74,1,4.15,4.15,0,0,0-1.29,2.72Z"/><path d="M491.83,57.57v-13h1.71v2a5.24,5.24,0,0,1,1.94-1.87,5.42,5.42,0,0,1,2.64-.62,4.27,4.27,0,0,1,4.68,4.65v8.82H501v-8a4.35,4.35,0,0,0-.82-2.89,3.14,3.14,0,0,0-2.51-1,3.64,3.64,0,0,0-3,1.23,6.12,6.12,0,0,0-1,3.84v6.78Z"/><path d="M509.26,44.58v6.49a7.65,7.65,0,0,0,.84,4.17,3.93,3.93,0,0,0,5.7,0,7.47,7.47,0,0,0,.87-4.16V44.58h1.79V52a6.68,6.68,0,0,1-1.4,4.59A5.18,5.18,0,0,1,513,58.14a5.27,5.27,0,0,1-4.12-1.56A6.64,6.64,0,0,1,507.45,52V44.58Z"/><path d="M523.26,57.57v-13H525v2a5.27,5.27,0,0,1,1.95-1.87,5.37,5.37,0,0,1,2.64-.62,4.27,4.27,0,0,1,4.67,4.65v8.82H532.4v-8a4.35,4.35,0,0,0-.81-2.89,3.14,3.14,0,0,0-2.51-1A3.63,3.63,0,0,0,526,47a6.12,6.12,0,0,0-1,3.84v6.78Z"/><path d="M549,47a7,7,0,0,0-1.94-.94,7.1,7.1,0,0,0-2.11-.32,5,5,0,0,0-3.85,1.55,5.83,5.83,0,0,0-1.43,4.12,5.09,5.09,0,0,0,1.48,3.77,5.19,5.19,0,0,0,3.8,1.48,6.74,6.74,0,0,0,2.14-.37,8.21,8.21,0,0,0,2.11-1.1v2a7.84,7.84,0,0,1-2.11.81,10.81,10.81,0,0,1-2.47.27,6.53,6.53,0,0,1-4.88-2,6.88,6.88,0,0,1-1.9-5A6.79,6.79,0,0,1,545,44.1a10.42,10.42,0,0,1,2.21.22A7.38,7.38,0,0,1,549,45Z"/><path d="M552.24,39.51a1.29,1.29,0,0,1,.41-1,1.38,1.38,0,0,1,2,0,1.36,1.36,0,0,1,0,2,1.44,1.44,0,0,1-2,0A1.3,1.3,0,0,1,552.24,39.51Zm.45,18.06v-13h1.86v13Z"/><path d="M565.37,58.14a6.6,6.6,0,0,1-2.66-.55A7.56,7.56,0,0,1,560.39,56a6.57,6.57,0,0,1-1.49-2.23,7.08,7.08,0,0,1-.51-2.69,7,7,0,0,1,2-5,6.86,6.86,0,0,1,5-2,7.26,7.26,0,0,1,2.74.52,7.07,7.07,0,0,1,2.3,1.53A6.85,6.85,0,0,1,572,48.42a6.78,6.78,0,0,1,.53,2.68,6.87,6.87,0,0,1-.52,2.67A6.76,6.76,0,0,1,570.44,56a7.15,7.15,0,0,1-2.33,1.57A7,7,0,0,1,565.37,58.14Zm.06-1.68a4.81,4.81,0,0,0,3.63-1.55,5.59,5.59,0,0,0,0-7.59,4.84,4.84,0,0,0-3.64-1.54,4.79,4.79,0,0,0-3.61,1.54,5.61,5.61,0,0,0,0,7.59A4.77,4.77,0,0,0,565.43,56.46Z"/><path d="M576.64,56.34a1.47,1.47,0,0,1,1.49-1.49,1.42,1.42,0,0,1,1.06.43,1.44,1.44,0,0,1,.44,1.06,1.5,1.5,0,1,1-3,0Z"/></svg>