<svg id="fondos" xmlns="http://www.w3.org/2000/svg" viewBox="0 0 838.12 100.16"><defs><style>.cls-1{fill:#e6e6e6;}</style></defs><title>carabineros3</title><rect class="cls-1" width="838.12" height="100.16"/><path d="M59.51,56.16V34.71h3.91a17.19,17.19,0,0,1,3.4.25,5.37,5.37,0,0,1,1.9.82,4.82,4.82,0,0,1,1.57,2,7,7,0,0,1,.55,2.83,5.54,5.54,0,0,1-1.71,4.49q-1.71,1.43-5.42,1.42H61.45v9.63Zm1.94-11.34h1.34c2.36,0,3.95-.3,4.76-.9a3.66,3.66,0,0,0,1.23-3.16A5.49,5.49,0,0,0,68.5,39a4.36,4.36,0,0,0-.83-1.43,3.06,3.06,0,0,0-1.56-.9,14.07,14.07,0,0,0-3.32-.27H61.45Z"/><path d="M78.51,56.73a6.62,6.62,0,0,1-2.67-.55,7.74,7.74,0,0,1-2.32-1.57A6.67,6.67,0,0,1,72,52.38a7.13,7.13,0,0,1-.51-2.7A7,7,0,0,1,72,47a7.17,7.17,0,0,1,1.51-2.26,7,7,0,0,1,5-2,7.25,7.25,0,0,1,2.73.53,7,7,0,0,1,2.3,1.52,7,7,0,0,1,1.56,7.63,6.81,6.81,0,0,1-1.53,2.25,7.31,7.31,0,0,1-2.33,1.57A7,7,0,0,1,78.51,56.73Zm0-1.68a4.85,4.85,0,0,0,3.63-1.55,5.25,5.25,0,0,0,1.48-3.79A5.32,5.32,0,0,0,82.2,45.9a5.07,5.07,0,0,0-7.26,0,5.65,5.65,0,0,0,0,7.6A4.84,4.84,0,0,0,78.56,55.05Z"/><path d="M99,56.16V53.79a4.68,4.68,0,0,1-4.53,2.94,5.74,5.74,0,0,1-4.5-1.92,7.34,7.34,0,0,1-1.71-5.07,7.54,7.54,0,0,1,1.69-5.09,5.46,5.46,0,0,1,4.35-2,5.35,5.35,0,0,1,2.85.73A4.79,4.79,0,0,1,99,45.54V33.45h1.83V56.16ZM90.24,49.8a5.94,5.94,0,0,0,1.13,3.88,4,4,0,0,0,3.25,1.37,3.88,3.88,0,0,0,3.21-1.49A6.47,6.47,0,0,0,99,49.46a5.63,5.63,0,0,0-1.16-3.75,4.35,4.35,0,0,0-6.42.09A6.15,6.15,0,0,0,90.24,49.8Z"/><path d="M116.74,49.71H106.41a6.37,6.37,0,0,0,1.26,4,3.9,3.9,0,0,0,3.18,1.43,4.18,4.18,0,0,0,2.52-.77,5.77,5.77,0,0,0,1.8-2.35l1.66.91a7.25,7.25,0,0,1-2.44,2.91,6.42,6.42,0,0,1-3.54.93,6,6,0,0,1-4.62-1.91,7.11,7.11,0,0,1-1.77-5,7.45,7.45,0,0,1,1.75-5.16,5.88,5.88,0,0,1,4.58-2,5.53,5.53,0,0,1,4.32,1.81,7,7,0,0,1,1.63,4.83Zm-2.14-1.53a4,4,0,0,0-1.19-2.77,4,4,0,0,0-2.85-1,3.9,3.9,0,0,0-2.75,1,4.1,4.1,0,0,0-1.28,2.73Z"/><path d="M122.29,45.77a7.65,7.65,0,0,1,2-2.38,3.64,3.64,0,0,1,2.23-.71,4.11,4.11,0,0,1,.77.08,4.37,4.37,0,0,1,.77.2l-.59,1.7a5.44,5.44,0,0,0-.61-.15,3.23,3.23,0,0,0-.61-.06A3.38,3.38,0,0,0,123.44,46a6.08,6.08,0,0,0-1.15,3.79v6.39h-1.8v-13h1.8Z"/><path d="M148.17,56.16V53.79A5,5,0,0,1,146.36,56a4.93,4.93,0,0,1-2.74.75,5.74,5.74,0,0,1-4.51-1.92,7.33,7.33,0,0,1-1.7-5.07,7.58,7.58,0,0,1,1.68-5.09,5.46,5.46,0,0,1,4.35-2,5.38,5.38,0,0,1,2.86.73,4.71,4.71,0,0,1,1.87,2.13V43.17H150v13Zm-8.76-6.36a5.89,5.89,0,0,0,1.14,3.88,4,4,0,0,0,3.24,1.37A3.89,3.89,0,0,0,147,53.56a6.41,6.41,0,0,0,1.18-4.1A5.58,5.58,0,0,0,147,45.71a4,4,0,0,0-3.21-1.37,3.9,3.9,0,0,0-3.22,1.46A6.15,6.15,0,0,0,139.41,49.8Z"/><path d="M173.08,56.16V53.79A5,5,0,0,1,171.27,56a4.89,4.89,0,0,1-2.72.75A5.74,5.74,0,0,1,164,54.81a7.38,7.38,0,0,1-1.7-5.07A7.58,7.58,0,0,1,164,44.65a5.47,5.47,0,0,1,4.35-2,5.32,5.32,0,0,1,2.85.73,4.75,4.75,0,0,1,1.86,2.13V33.45h1.83V56.16Zm-8.74-6.36a5.89,5.89,0,0,0,1.14,3.88,4,4,0,0,0,3.24,1.37,3.87,3.87,0,0,0,3.21-1.49,6.47,6.47,0,0,0,1.17-4.1A5.62,5.62,0,0,0,172,45.71a4,4,0,0,0-3.2-1.37,3.92,3.92,0,0,0-3.22,1.46A6.15,6.15,0,0,0,164.34,49.8Z"/><path d="M179.34,38.1a1.4,1.4,0,0,1,1.4-1.38,1.34,1.34,0,0,1,1,.4,1.38,1.38,0,0,1,0,2,1.38,1.38,0,0,1-1,.39,1.37,1.37,0,0,1-1.4-1.37Zm.46,18.06v-13h1.86v13Z"/><path d="M185.1,53.84l1.72-1a3.38,3.38,0,0,0,1.23,1.64,3.44,3.44,0,0,0,2,.55,2.74,2.74,0,0,0,1.82-.58,1.94,1.94,0,0,0,.67-1.55c0-1-.88-1.84-2.65-2.53l-.44-.18a8.37,8.37,0,0,1-2.87-1.66,3,3,0,0,1-.82-2.12,3.48,3.48,0,0,1,1.17-2.71,4.33,4.33,0,0,1,3-1.07,5,5,0,0,1,2.7.69,4,4,0,0,1,1.63,2l-1.66.93a2.63,2.63,0,0,0-1-1.41,3.11,3.11,0,0,0-1.76-.48,2.21,2.21,0,0,0-1.55.55,1.77,1.77,0,0,0-.6,1.37,1.69,1.69,0,0,0,.59,1.33,8.26,8.26,0,0,0,2.5,1.16,6.66,6.66,0,0,1,2.87,1.62,3.64,3.64,0,0,1,.74,2.43,3.53,3.53,0,0,1-1.27,2.86,5.18,5.18,0,0,1-3.43,1.07,5.27,5.27,0,0,1-2.85-.75A4.3,4.3,0,0,1,185.1,53.84Z"/><path d="M198,62.69V43.17h1.74V45.6a5.55,5.55,0,0,1,1.95-2.16,4.9,4.9,0,0,1,2.69-.76,5.56,5.56,0,0,1,4.42,1.93,7.47,7.47,0,0,1,1.68,5.1,7.61,7.61,0,0,1-1.64,5.11,5.49,5.49,0,0,1-4.37,1.91,5.13,5.13,0,0,1-2.77-.75,5.69,5.69,0,0,1-2-2.22v8.93Zm10.53-12.95a6.22,6.22,0,0,0-1.15-4,3.85,3.85,0,0,0-3.17-1.44,4,4,0,0,0-3.26,1.4,5.74,5.74,0,0,0-1.18,3.84,5.91,5.91,0,0,0,1.27,4,4.18,4.18,0,0,0,3.34,1.49,3.67,3.67,0,0,0,3.06-1.4A6.29,6.29,0,0,0,208.57,49.74Z"/><path d="M220.17,56.73a6.62,6.62,0,0,1-2.67-.55,7.57,7.57,0,0,1-2.31-1.57,6.7,6.7,0,0,1-1.5-2.23,7.13,7.13,0,0,1-.51-2.7,7,7,0,0,1,.53-2.69,6.85,6.85,0,0,1,1.51-2.26,7,7,0,0,1,4.95-2,7.18,7.18,0,0,1,2.73.53A7.12,7.12,0,0,1,226.76,47a6.93,6.93,0,0,1-1.52,7.61,7.47,7.47,0,0,1-2.34,1.57A6.9,6.9,0,0,1,220.17,56.73Zm.06-1.68a4.84,4.84,0,0,0,3.62-1.55,5.6,5.6,0,0,0,0-7.6,5.06,5.06,0,0,0-7.25,0,5.62,5.62,0,0,0,0,7.6A4.82,4.82,0,0,0,220.23,55.05Z"/><path d="M229.53,53.84l1.71-1a3.18,3.18,0,0,0,3.21,2.19,2.74,2.74,0,0,0,1.82-.58,1.94,1.94,0,0,0,.67-1.55c0-1-.88-1.84-2.65-2.53l-.44-.18A8.27,8.27,0,0,1,231,48.55a2.94,2.94,0,0,1-.82-2.12,3.48,3.48,0,0,1,1.17-2.71,4.33,4.33,0,0,1,3-1.07,5,5,0,0,1,2.7.69,4,4,0,0,1,1.62,2l-1.65.93a2.63,2.63,0,0,0-1-1.41,3.11,3.11,0,0,0-1.76-.48,2.21,2.21,0,0,0-1.55.55,1.78,1.78,0,0,0-.61,1.37,1.7,1.7,0,0,0,.6,1.33,8,8,0,0,0,2.49,1.16,6.65,6.65,0,0,1,2.88,1.62,3.64,3.64,0,0,1,.74,2.43,3.53,3.53,0,0,1-1.27,2.86,5.18,5.18,0,0,1-3.43,1.07,5.27,5.27,0,0,1-2.85-.75A4.25,4.25,0,0,1,229.53,53.84Z"/><path d="M242.13,38.1a1.31,1.31,0,0,1,.41-1,1.34,1.34,0,0,1,1-.4,1.37,1.37,0,0,1,1,.4,1.39,1.39,0,0,1,0,2,1.46,1.46,0,0,1-2,0A1.32,1.32,0,0,1,242.13,38.1Zm.45,18.06v-13h1.86v13Z"/><path d="M259.47,45.54a6.94,6.94,0,0,0-1.93-.95,7.19,7.19,0,0,0-2.11-.31,5,5,0,0,0-3.85,1.54A5.82,5.82,0,0,0,250.14,50a5.08,5.08,0,0,0,1.49,3.76,5.15,5.15,0,0,0,3.8,1.48,6.71,6.71,0,0,0,2.13-.36,8.59,8.59,0,0,0,2.12-1.1v2a7.66,7.66,0,0,1-2.11.82,10.9,10.9,0,0,1-2.48.27,6.5,6.5,0,0,1-4.88-2,6.86,6.86,0,0,1-1.9-5,6.81,6.81,0,0,1,7.15-7.15,10.31,10.31,0,0,1,2.2.23,7.38,7.38,0,0,1,1.84.65Z"/><path d="M262.71,38.1a1.31,1.31,0,0,1,.41-1,1.34,1.34,0,0,1,1-.4,1.37,1.37,0,0,1,1,.4,1.36,1.36,0,0,1,0,2,1.46,1.46,0,0,1-2,0A1.32,1.32,0,0,1,262.71,38.1Zm.45,18.06v-13H265v13Z"/><path d="M275.85,56.73a6.62,6.62,0,0,1-2.67-.55,7.57,7.57,0,0,1-2.31-1.57,6.7,6.7,0,0,1-1.5-2.23,7.13,7.13,0,0,1-.51-2.7,7,7,0,0,1,.53-2.69,6.85,6.85,0,0,1,1.51-2.26,7,7,0,0,1,5-2,7.15,7.15,0,0,1,5,2A6.92,6.92,0,0,1,282.43,47a6.83,6.83,0,0,1,.54,2.68,6.87,6.87,0,0,1-2.05,4.93,7.47,7.47,0,0,1-2.34,1.57A6.9,6.9,0,0,1,275.85,56.73Zm.06-1.68a4.84,4.84,0,0,0,3.62-1.55,5.6,5.6,0,0,0,0-7.6,5.06,5.06,0,0,0-7.25,0,5.62,5.62,0,0,0,0,7.6A4.81,4.81,0,0,0,275.91,55.05Zm-2-14,3.12-5.13h2.4l-4.14,5.13Z"/><path d="M286.69,56.16v-13h1.71v2a5.29,5.29,0,0,1,1.94-1.86,5.44,5.44,0,0,1,2.65-.63,4.27,4.27,0,0,1,4.67,4.66v8.82h-1.83v-8a4.38,4.38,0,0,0-.81-2.9,3.15,3.15,0,0,0-2.52-.94,3.68,3.68,0,0,0-3,1.22,6.17,6.17,0,0,0-1,3.85v6.78Z"/><path d="M320.59,56.16V53.79A5,5,0,0,1,318.78,56a4.89,4.89,0,0,1-2.72.75,5.74,5.74,0,0,1-4.51-1.92,7.38,7.38,0,0,1-1.7-5.07,7.58,7.58,0,0,1,1.68-5.09,5.47,5.47,0,0,1,4.35-2,5.32,5.32,0,0,1,2.85.73,4.75,4.75,0,0,1,1.86,2.13V33.45h1.83V56.16Zm-8.74-6.36A5.89,5.89,0,0,0,313,53.68a4,4,0,0,0,3.24,1.37,3.87,3.87,0,0,0,3.21-1.49,6.47,6.47,0,0,0,1.17-4.1,5.62,5.62,0,0,0-1.15-3.75,4,4,0,0,0-3.2-1.37A3.92,3.92,0,0,0,313,45.8,6.15,6.15,0,0,0,311.85,49.8Z"/><path d="M338.35,49.71H328a6.37,6.37,0,0,0,1.26,4,3.89,3.89,0,0,0,3.17,1.43,4.18,4.18,0,0,0,2.52-.77A5.7,5.7,0,0,0,336.79,52l1.65.91A7.17,7.17,0,0,1,336,55.8a6.39,6.39,0,0,1-3.54.93,6,6,0,0,1-4.62-1.91,7.15,7.15,0,0,1-1.76-5,7.45,7.45,0,0,1,1.75-5.16,5.87,5.87,0,0,1,4.58-2,5.56,5.56,0,0,1,4.32,1.81,7,7,0,0,1,1.62,4.83Zm-2.14-1.53a3.71,3.71,0,0,0-4-3.75,3.92,3.92,0,0,0-2.75,1,4.19,4.19,0,0,0-1.28,2.73Z"/><path d="M352.72,56.16h-1.86V33.45h1.86Z"/><path d="M367.24,56.16V53.79a4.71,4.71,0,0,1-4.56,2.94,5.74,5.74,0,0,1-4.5-1.92,7.34,7.34,0,0,1-1.71-5.07,7.54,7.54,0,0,1,1.69-5.09,5.46,5.46,0,0,1,4.35-2,5.38,5.38,0,0,1,2.86.73,4.71,4.71,0,0,1,1.87,2.13V43.17H369v13Zm-8.76-6.36a5.89,5.89,0,0,0,1.14,3.88,4,4,0,0,0,3.24,1.37,3.91,3.91,0,0,0,3.23-1.49,6.41,6.41,0,0,0,1.18-4.1,5.58,5.58,0,0,0-1.17-3.75,4,4,0,0,0-3.21-1.37,3.9,3.9,0,0,0-3.22,1.46A6.15,6.15,0,0,0,358.48,49.8Z"/><path d="M382.78,56.16V34.71H393.4v1.83h-8.67v6.71h8.35v1.83h-8.35V56.16Z"/><path d="M396.14,38.1a1.38,1.38,0,0,1,1.39-1.38,1.37,1.37,0,0,1,1,.4,1.32,1.32,0,0,1,.42,1,1.36,1.36,0,0,1-.4,1,1.4,1.4,0,0,1-1,.39,1.37,1.37,0,0,1-1-.39A1.32,1.32,0,0,1,396.14,38.1Zm.45,18.06v-13h1.87v13Z"/><path d="M401.9,53.84l1.71-1a3.18,3.18,0,0,0,3.21,2.19,2.74,2.74,0,0,0,1.82-.58,1.94,1.94,0,0,0,.67-1.55c0-1-.88-1.84-2.65-2.53l-.44-.18a8.27,8.27,0,0,1-2.87-1.66,2.94,2.94,0,0,1-.82-2.12,3.48,3.48,0,0,1,1.17-2.71,4.33,4.33,0,0,1,3-1.07,5,5,0,0,1,2.7.69,4,4,0,0,1,1.62,2l-1.65.93a2.64,2.64,0,0,0-1-1.41,3.09,3.09,0,0,0-1.76-.48,2.19,2.19,0,0,0-1.54.55,1.74,1.74,0,0,0-.61,1.37,1.7,1.7,0,0,0,.6,1.33,8,8,0,0,0,2.49,1.16,6.65,6.65,0,0,1,2.88,1.62,3.69,3.69,0,0,1,.74,2.43,3.53,3.53,0,0,1-1.27,2.86,5.92,5.92,0,0,1-6.28.32A4.25,4.25,0,0,1,401.9,53.84Z"/><path d="M424.94,45.54a6.94,6.94,0,0,0-1.93-.95,7.19,7.19,0,0,0-2.11-.31A5,5,0,0,0,417,45.82,5.86,5.86,0,0,0,415.61,50a5,5,0,0,0,1.49,3.76,5.13,5.13,0,0,0,3.8,1.48,6.71,6.71,0,0,0,2.13-.36,8.59,8.59,0,0,0,2.12-1.1v2a7.66,7.66,0,0,1-2.11.82,11,11,0,0,1-2.48.27,6.5,6.5,0,0,1-4.88-2,6.86,6.86,0,0,1-1.9-5,6.81,6.81,0,0,1,7.15-7.15,10.31,10.31,0,0,1,2.2.23,7.38,7.38,0,0,1,1.84.65Z"/><path d="M438.11,56.16V53.79a4.71,4.71,0,0,1-4.56,2.94,5.74,5.74,0,0,1-4.5-1.92,7.34,7.34,0,0,1-1.71-5.07A7.54,7.54,0,0,1,429,44.65a5.46,5.46,0,0,1,4.35-2,5.38,5.38,0,0,1,2.86.73,4.71,4.71,0,0,1,1.87,2.13V43.17h1.8v13Zm-8.76-6.36a5.89,5.89,0,0,0,1.14,3.88,4,4,0,0,0,3.24,1.37A3.91,3.91,0,0,0,437,53.56a6.41,6.41,0,0,0,1.18-4.1A5.58,5.58,0,0,0,437,45.71a4,4,0,0,0-3.21-1.37,3.9,3.9,0,0,0-3.22,1.46A6.15,6.15,0,0,0,429.35,49.8Z"/><path d="M446.72,56.16h-1.86V33.45h1.86Z"/><path d="M450.75,41.07l3.12-5.13h2.4l-4.14,5.13Zm1,15.09v-13h1.86v13Z"/><path d="M468.14,56.16V53.79a4.71,4.71,0,0,1-4.56,2.94,5.74,5.74,0,0,1-4.5-1.92,7.34,7.34,0,0,1-1.71-5.07,7.54,7.54,0,0,1,1.69-5.09,5.46,5.46,0,0,1,4.35-2,5.38,5.38,0,0,1,2.86.73,4.71,4.71,0,0,1,1.87,2.13V43.17h1.8v13Zm-8.76-6.36a5.94,5.94,0,0,0,1.13,3.88,4,4,0,0,0,3.25,1.37A3.91,3.91,0,0,0,467,53.56a6.47,6.47,0,0,0,1.18-4.1A5.58,5.58,0,0,0,467,45.71a4,4,0,0,0-3.21-1.37,3.9,3.9,0,0,0-3.22,1.46A6.1,6.1,0,0,0,459.38,49.8Z"/><path d="M501.26,40.1A9,9,0,0,0,498.05,37a8.84,8.84,0,0,0-4.29-1,8.44,8.44,0,0,0-6.49,2.7,10.67,10.67,0,0,0-1.84,10.6,8.94,8.94,0,0,0,1.94,3,8.67,8.67,0,0,0,2.89,2,9.24,9.24,0,0,0,3.5.65,8.23,8.23,0,0,0,5.87-2.13A7.46,7.46,0,0,0,502,47.25h-7.4V45.57h9.54v.23c0,3.42-.94,6.1-2.8,8a10.24,10.24,0,0,1-7.71,2.9,10.51,10.51,0,0,1-7.89-3.11,11.15,11.15,0,0,1-3-8.14,12.43,12.43,0,0,1,.76-4.37,10.4,10.4,0,0,1,2.2-3.58,10.06,10.06,0,0,1,3.51-2.48,11.07,11.07,0,0,1,4.36-.82,12.2,12.2,0,0,1,5.59,1.18,8.33,8.33,0,0,1,3.59,3.46Z"/><path d="M519.09,49.71H508.76a6.37,6.37,0,0,0,1.26,4,3.9,3.9,0,0,0,3.18,1.43,4.23,4.23,0,0,0,2.52-.77,5.77,5.77,0,0,0,1.8-2.35l1.65.91a7.09,7.09,0,0,1-2.44,2.91,6.38,6.38,0,0,1-3.53.93,6,6,0,0,1-4.62-1.91,7.11,7.11,0,0,1-1.77-5,7.45,7.45,0,0,1,1.75-5.16,5.87,5.87,0,0,1,4.58-2,5.55,5.55,0,0,1,4.32,1.81,7,7,0,0,1,1.63,4.83ZM517,48.18a3.72,3.72,0,0,0-4.05-3.75,3.88,3.88,0,0,0-2.74,1,4.1,4.1,0,0,0-1.28,2.73Z"/><path d="M522.84,56.16v-13h1.71v2a5.21,5.21,0,0,1,1.94-1.86,5.42,5.42,0,0,1,2.64-.63,4.27,4.27,0,0,1,4.68,4.66v8.82H532v-8a4.38,4.38,0,0,0-.82-2.9,3.13,3.13,0,0,0-2.51-.94,3.66,3.66,0,0,0-3,1.22,6.17,6.17,0,0,0-1,3.85v6.78Z"/><path d="M549.63,49.71H539.3a6.37,6.37,0,0,0,1.26,4,3.9,3.9,0,0,0,3.18,1.43,4.18,4.18,0,0,0,2.52-.77,5.77,5.77,0,0,0,1.8-2.35l1.66.91a7.25,7.25,0,0,1-2.44,2.91,6.42,6.42,0,0,1-3.54.93,6,6,0,0,1-4.62-1.91,7.11,7.11,0,0,1-1.77-5,7.45,7.45,0,0,1,1.75-5.16,5.88,5.88,0,0,1,4.58-2A5.53,5.53,0,0,1,548,44.49a6.94,6.94,0,0,1,1.63,4.83Zm-2.14-1.53a3.72,3.72,0,0,0-4-3.75,3.9,3.9,0,0,0-2.75,1,4.1,4.1,0,0,0-1.28,2.73Z"/><path d="M555.18,45.77a7.79,7.79,0,0,1,2-2.38,3.64,3.64,0,0,1,2.23-.71,4.11,4.11,0,0,1,.77.08,4.37,4.37,0,0,1,.77.2l-.59,1.7a5.44,5.44,0,0,0-.61-.15,3.23,3.23,0,0,0-.61-.06A3.38,3.38,0,0,0,556.33,46a6.08,6.08,0,0,0-1.15,3.79v6.39h-1.8v-13h1.8Z"/><path d="M572.42,56.16V53.79a4.71,4.71,0,0,1-4.56,2.94,5.74,5.74,0,0,1-4.5-1.92,7.34,7.34,0,0,1-1.71-5.07,7.59,7.59,0,0,1,1.69-5.09,5.46,5.46,0,0,1,4.35-2,5.38,5.38,0,0,1,2.86.73,4.71,4.71,0,0,1,1.87,2.13V43.17h1.8v13Zm-8.76-6.36a5.89,5.89,0,0,0,1.14,3.88A4,4,0,0,0,568,55.05a3.91,3.91,0,0,0,3.23-1.49,6.41,6.41,0,0,0,1.18-4.1,5.58,5.58,0,0,0-1.17-3.75,4,4,0,0,0-3.21-1.37,3.9,3.9,0,0,0-3.22,1.46A6.15,6.15,0,0,0,563.66,49.8Z"/><path d="M581,56.16h-1.86V33.45H581Z"/><path d="M604.22,56.16V53.79a4.68,4.68,0,0,1-4.52,2.94,5.74,5.74,0,0,1-4.51-1.92,7.33,7.33,0,0,1-1.7-5.07,7.58,7.58,0,0,1,1.68-5.09,5.46,5.46,0,0,1,4.35-2,5.35,5.35,0,0,1,2.85.73,4.73,4.73,0,0,1,1.85,2.13V33.45h1.83V56.16Zm-8.73-6.36a5.89,5.89,0,0,0,1.14,3.88,4,4,0,0,0,3.24,1.37,3.87,3.87,0,0,0,3.21-1.49,6.47,6.47,0,0,0,1.17-4.1,5.57,5.57,0,0,0-1.16-3.75,4.34,4.34,0,0,0-6.41.09A6.15,6.15,0,0,0,595.49,49.8Z"/><path d="M622,49.71H611.66a6.37,6.37,0,0,0,1.26,4,3.9,3.9,0,0,0,3.18,1.43,4.18,4.18,0,0,0,2.52-.77,5.77,5.77,0,0,0,1.8-2.35l1.66.91a7.17,7.17,0,0,1-2.44,2.91,6.39,6.39,0,0,1-3.54.93,6,6,0,0,1-4.62-1.91,7.1,7.1,0,0,1-1.76-5,7.45,7.45,0,0,1,1.75-5.16,5.85,5.85,0,0,1,4.57-2,5.53,5.53,0,0,1,4.32,1.81A6.94,6.94,0,0,1,622,49.32Zm-2.14-1.53a3.71,3.71,0,0,0-4-3.75,3.92,3.92,0,0,0-2.75,1,4.19,4.19,0,0,0-1.28,2.73Z"/><path d="M636.36,56.16H634.5V33.45h1.86Z"/><path d="M650.88,56.16V53.79A5.06,5.06,0,0,1,649.07,56a5,5,0,0,1-2.75.75,5.72,5.72,0,0,1-4.5-1.92,7.34,7.34,0,0,1-1.71-5.07,7.54,7.54,0,0,1,1.69-5.09A5.85,5.85,0,0,1,649,43.41a4.71,4.71,0,0,1,1.87,2.13V43.17h1.8v13Zm-8.76-6.36a5.94,5.94,0,0,0,1.13,3.88,4,4,0,0,0,3.25,1.37,3.92,3.92,0,0,0,3.23-1.49,6.47,6.47,0,0,0,1.18-4.1,5.58,5.58,0,0,0-1.17-3.75,4,4,0,0,0-3.21-1.37,3.92,3.92,0,0,0-3.23,1.46A6.15,6.15,0,0,0,642.12,49.8Z"/><path d="M666.42,56.16V33.81l15.19,17.94v-17h1.82V56.79l-15.18-18V56.16Z"/><path d="M698.1,56.16V53.79A5,5,0,0,1,696.29,56a4.93,4.93,0,0,1-2.74.75A5.74,5.74,0,0,1,689,54.81a7.38,7.38,0,0,1-1.7-5.07A7.58,7.58,0,0,1,689,44.65a5.47,5.47,0,0,1,4.35-2,5.42,5.42,0,0,1,2.87.73,4.69,4.69,0,0,1,1.86,2.13V43.17h1.81v13Zm-8.76-6.36a5.89,5.89,0,0,0,1.14,3.88,4,4,0,0,0,3.24,1.37A3.89,3.89,0,0,0,697,53.56a6.41,6.41,0,0,0,1.18-4.1A5.58,5.58,0,0,0,697,45.71a4,4,0,0,0-3.21-1.37,3.92,3.92,0,0,0-3.22,1.46A6.15,6.15,0,0,0,689.34,49.8Z"/><path d="M714.85,45.54a7,7,0,0,0-1.94-.95,7.09,7.09,0,0,0-2.11-.31A5,5,0,0,0,707,45.82,5.86,5.86,0,0,0,705.52,50,5.07,5.07,0,0,0,707,53.71a5.15,5.15,0,0,0,3.8,1.48,6.62,6.62,0,0,0,2.13-.36,8.42,8.42,0,0,0,2.12-1.1v2a7.54,7.54,0,0,1-2.11.82,10.81,10.81,0,0,1-2.47.27,6.5,6.5,0,0,1-4.88-2,6.86,6.86,0,0,1-1.91-5,6.82,6.82,0,0,1,7.15-7.15,10.41,10.41,0,0,1,2.21.23,7.38,7.38,0,0,1,1.84.65Z"/><path d="M718.09,38.1a1.38,1.38,0,0,1,1.39-1.38,1.34,1.34,0,0,1,1,.4,1.38,1.38,0,0,1,0,2,1.46,1.46,0,0,1-2,0A1.32,1.32,0,0,1,718.09,38.1Zm.45,18.06v-13h1.86v13Z"/><path d="M731.22,56.73a6.6,6.6,0,0,1-2.66-.55,7.74,7.74,0,0,1-2.32-1.57,6.67,6.67,0,0,1-1.49-2.23,7.13,7.13,0,0,1-.51-2.7,7,7,0,0,1,.52-2.69,7.17,7.17,0,0,1,1.51-2.26,7,7,0,0,1,5-2,7.26,7.26,0,0,1,2.74.53,7,7,0,0,1,2.3,1.52A7,7,0,0,1,737.81,47a6.82,6.82,0,0,1,.53,2.68,6.77,6.77,0,0,1-2.05,4.93A7.31,7.31,0,0,1,734,56.18,7,7,0,0,1,731.22,56.73Zm.06-1.68a4.85,4.85,0,0,0,3.63-1.55,5.26,5.26,0,0,0,1.49-3.79,5.32,5.32,0,0,0-1.48-3.81,4.87,4.87,0,0,0-3.64-1.53,4.82,4.82,0,0,0-3.61,1.53,5.59,5.59,0,0,0,0,7.6A4.8,4.8,0,0,0,731.28,55.05Zm-1.94-14,3.11-5.13h2.41l-4.15,5.13Z"/><path d="M742.06,56.16v-13h1.72v2a5.21,5.21,0,0,1,1.94-1.86,5.42,5.42,0,0,1,2.64-.63A4.27,4.27,0,0,1,753,47.34v8.82H751.2v-8a4.38,4.38,0,0,0-.81-2.9,3.13,3.13,0,0,0-2.51-.94,3.66,3.66,0,0,0-3,1.22,6.17,6.17,0,0,0-1,3.85v6.78Z"/><path d="M758.12,54.93a1.42,1.42,0,0,1,.43-1.06,1.44,1.44,0,0,1,1.06-.44,1.5,1.5,0,0,1,1.5,1.5,1.44,1.44,0,0,1-.44,1.06,1.42,1.42,0,0,1-1.06.43,1.47,1.47,0,0,1-1.49-1.49Z"/></svg>