<svg id="fondos" xmlns="http://www.w3.org/2000/svg" viewBox="0 0 838.12 100.16"><defs><style>.cls-1{fill:#e6e6e6;}</style></defs><title>carabineros2</title><rect class="cls-1" width="838.12" height="100.16"/><path d="M72.53,59H70.16L62.63,48.76H61.45V59H59.51V37.54h3.94A8,8,0,0,1,68.67,39a5.4,5.4,0,0,1,1.73,4.4,5.23,5.23,0,0,1-1.48,3.94,5.7,5.7,0,0,1-4.1,1.43ZM61.45,39.24v7.93h2a6.15,6.15,0,0,0,3.8-.88,3.63,3.63,0,0,0,1.07-3,3.91,3.91,0,0,0-1.11-3.15,5.85,5.85,0,0,0-3.76-.94Z"/><path d="M85.71,52.54H75.38a6.37,6.37,0,0,0,1.26,4,3.94,3.94,0,0,0,3.18,1.43,4.25,4.25,0,0,0,2.52-.77,5.6,5.6,0,0,0,1.8-2.35l1.66.91a7.17,7.17,0,0,1-2.44,2.91,6.39,6.39,0,0,1-3.54.93,6,6,0,0,1-4.62-1.91,7.1,7.1,0,0,1-1.76-5,7.45,7.45,0,0,1,1.75-5.16,5.82,5.82,0,0,1,4.57-2,5.54,5.54,0,0,1,4.33,1.81,7,7,0,0,1,1.62,4.83ZM83.57,51a4,4,0,0,0-1.18-2.76,4,4,0,0,0-2.86-1,3.92,3.92,0,0,0-2.75,1A4.19,4.19,0,0,0,75.5,51Z"/><path d="M99.06,59V56.61a5,5,0,0,1-1.81,2.19,4.89,4.89,0,0,1-2.75.76A5.72,5.72,0,0,1,90,57.64a7.34,7.34,0,0,1-1.71-5.07A7.56,7.56,0,0,1,90,47.48a5.49,5.49,0,0,1,4.36-2,5.41,5.41,0,0,1,2.86.73,4.71,4.71,0,0,1,1.87,2.13V46h1.8V59ZM90.3,52.63a5.89,5.89,0,0,0,1.13,3.88,4,4,0,0,0,3.25,1.36,3.91,3.91,0,0,0,3.23-1.48,6.47,6.47,0,0,0,1.18-4.1,5.58,5.58,0,0,0-1.18-3.75,4.37,4.37,0,0,0-6.43.08A6.2,6.2,0,0,0,90.3,52.63Z"/><path d="M107.67,59h-1.86V36.28h1.86Z"/><path d="M112.26,40.93a1.29,1.29,0,0,1,.41-1,1.32,1.32,0,0,1,1-.4,1.34,1.34,0,0,1,1,.4,1.3,1.3,0,0,1,.42,1,1.32,1.32,0,0,1-.4,1,1.38,1.38,0,0,1-1,.39,1.36,1.36,0,0,1-1-.39A1.32,1.32,0,0,1,112.26,40.93ZM112.71,59V46h1.86V59Z"/><path d="M117.42,59l7.26-11.37h-6.76V46h9.88l-7.2,11.37H128V59Z"/><path d="M140.51,59V56.61a4.74,4.74,0,0,1-4.55,3,5.74,5.74,0,0,1-4.51-1.92,7.33,7.33,0,0,1-1.7-5.07,7.56,7.56,0,0,1,1.68-5.09,5.46,5.46,0,0,1,4.35-2,5.38,5.38,0,0,1,2.86.73,4.71,4.71,0,0,1,1.87,2.13V46h1.8V59Zm-8.76-6.36a5.89,5.89,0,0,0,1.14,3.88,4,4,0,0,0,3.24,1.36,3.88,3.88,0,0,0,3.23-1.48,6.41,6.41,0,0,0,1.18-4.1,5.58,5.58,0,0,0-1.17-3.75,4,4,0,0,0-3.21-1.37,3.92,3.92,0,0,0-3.22,1.45A6.2,6.2,0,0,0,131.75,52.63Z"/><path d="M149,48.6a7.83,7.83,0,0,1,2-2.39,3.7,3.7,0,0,1,2.23-.7,5.12,5.12,0,0,1,.77.07,5.51,5.51,0,0,1,.77.21l-.59,1.7a5.44,5.44,0,0,0-.61-.15,3.23,3.23,0,0,0-.61-.06,3.38,3.38,0,0,0-2.77,1.53A6.08,6.08,0,0,0,149,52.6V59h-1.8V46H149Z"/><path d="M167.22,59h-1.87V36.28h1.87Z"/><path d="M181.73,59V56.61a4.74,4.74,0,0,1-4.55,3,5.74,5.74,0,0,1-4.51-1.92,7.33,7.33,0,0,1-1.7-5.07,7.56,7.56,0,0,1,1.68-5.09,5.46,5.46,0,0,1,4.35-2,5.38,5.38,0,0,1,2.86.73,4.71,4.71,0,0,1,1.87,2.13V46h1.8V59ZM173,52.63a5.89,5.89,0,0,0,1.14,3.88,4,4,0,0,0,3.24,1.36,3.88,3.88,0,0,0,3.23-1.48,6.41,6.41,0,0,0,1.18-4.1,5.58,5.58,0,0,0-1.17-3.75,4,4,0,0,0-3.21-1.37,3.92,3.92,0,0,0-3.22,1.45A6.2,6.2,0,0,0,173,52.63Z"/><path d="M186.89,56.67l1.71-1a3.55,3.55,0,0,0,1.23,1.64,3.49,3.49,0,0,0,2,.54,2.74,2.74,0,0,0,1.82-.57,2,2,0,0,0,.67-1.55c0-1-.88-1.84-2.65-2.53l-.44-.18a8.27,8.27,0,0,1-2.87-1.66,2.94,2.94,0,0,1-.82-2.12,3.52,3.52,0,0,1,1.17-2.72,4.37,4.37,0,0,1,3-1.06,5,5,0,0,1,2.7.69,4,4,0,0,1,1.62,2l-1.65.93a2.64,2.64,0,0,0-1-1.41,3.09,3.09,0,0,0-1.76-.48,2.19,2.19,0,0,0-1.54.55,1.74,1.74,0,0,0-.61,1.36,1.71,1.71,0,0,0,.6,1.34,8,8,0,0,0,2.49,1.16,6.65,6.65,0,0,1,2.88,1.62,3.69,3.69,0,0,1,.74,2.43,3.54,3.54,0,0,1-1.27,2.86,5.89,5.89,0,0,1-6.28.31A4.18,4.18,0,0,1,186.89,56.67Z"/><path d="M218.57,48.37a6.94,6.94,0,0,0-1.93-.95,7.14,7.14,0,0,0-2.11-.31,5,5,0,0,0-3.85,1.54,5.82,5.82,0,0,0-1.44,4.13,5.09,5.09,0,0,0,1.49,3.76,5.15,5.15,0,0,0,3.8,1.48,6.46,6.46,0,0,0,2.13-.37,8.38,8.38,0,0,0,2.12-1.09v2a8.35,8.35,0,0,1-2.11.82,10.9,10.9,0,0,1-2.48.27,6.48,6.48,0,0,1-4.87-2,6.86,6.86,0,0,1-1.91-5,6.82,6.82,0,0,1,7.15-7.15,10.24,10.24,0,0,1,2.2.23,7.24,7.24,0,0,1,1.84.65Z"/><path d="M231.74,59V56.61a4.74,4.74,0,0,1-4.55,3,5.74,5.74,0,0,1-4.51-1.92,7.33,7.33,0,0,1-1.7-5.07,7.56,7.56,0,0,1,1.68-5.09,5.46,5.46,0,0,1,4.35-2,5.38,5.38,0,0,1,2.86.73,4.71,4.71,0,0,1,1.87,2.13V46h1.8V59ZM223,52.63a5.89,5.89,0,0,0,1.14,3.88,4,4,0,0,0,3.24,1.36,3.88,3.88,0,0,0,3.23-1.48,6.41,6.41,0,0,0,1.18-4.1,5.58,5.58,0,0,0-1.17-3.75,4,4,0,0,0-3.21-1.37,3.92,3.92,0,0,0-3.22,1.45A6.2,6.2,0,0,0,223,52.63Z"/><path d="M238.38,65.52V46h1.74v2.44a5.65,5.65,0,0,1,1.95-2.17,5,5,0,0,1,2.69-.75,5.56,5.56,0,0,1,4.42,1.93,7.47,7.47,0,0,1,1.68,5.1,7.61,7.61,0,0,1-1.64,5.11,5.49,5.49,0,0,1-4.37,1.91,5.05,5.05,0,0,1-2.77-.76,5.55,5.55,0,0,1-2-2.22v8.94Zm10.53-12.95a6.16,6.16,0,0,0-1.15-4,3.83,3.83,0,0,0-3.17-1.44,4,4,0,0,0-3.26,1.4,5.74,5.74,0,0,0-1.18,3.84,5.91,5.91,0,0,0,1.27,4,4.17,4.17,0,0,0,3.34,1.48,3.67,3.67,0,0,0,3.06-1.39A6.23,6.23,0,0,0,248.91,52.57Z"/><path d="M255,47.53H252.6V46H255V40.66h1.77V46h2.61v1.54h-2.61V59H255Z"/><path d="M263.85,46v6.49a7.67,7.67,0,0,0,.84,4.18,4,4,0,0,0,5.71,0,7.46,7.46,0,0,0,.86-4.16V46h1.79v7.42A6.68,6.68,0,0,1,271.66,58a6.17,6.17,0,0,1-8.2,0,6.64,6.64,0,0,1-1.41-4.59V46Z"/><path d="M279.66,48.6a8,8,0,0,1,1.95-2.39,3.75,3.75,0,0,1,2.24-.7,4.88,4.88,0,0,1,.76.07,5.16,5.16,0,0,1,.77.21l-.58,1.7a6,6,0,0,0-.61-.15,3.23,3.23,0,0,0-.61-.06,3.38,3.38,0,0,0-2.77,1.53,6.08,6.08,0,0,0-1.15,3.79V59h-1.81V46h1.81Z"/><path d="M296.9,59V56.61a4.74,4.74,0,0,1-4.56,3,5.74,5.74,0,0,1-4.5-1.92,7.34,7.34,0,0,1-1.71-5.07,7.52,7.52,0,0,1,1.69-5.09,5.46,5.46,0,0,1,4.35-2,5.38,5.38,0,0,1,2.86.73,4.71,4.71,0,0,1,1.87,2.13V46h1.8V59Zm-8.76-6.36a5.94,5.94,0,0,0,1.13,3.88,4,4,0,0,0,3.25,1.36,3.9,3.9,0,0,0,3.23-1.48,6.47,6.47,0,0,0,1.18-4.1,5.58,5.58,0,0,0-1.17-3.75,4,4,0,0,0-3.21-1.37,3.92,3.92,0,0,0-3.22,1.45A6.14,6.14,0,0,0,288.14,52.63Z"/><path d="M302.05,56.67l1.72-1A3.42,3.42,0,0,0,305,57.33a3.47,3.47,0,0,0,2,.54,2.71,2.71,0,0,0,1.81-.57,2,2,0,0,0,.68-1.55c0-1-.89-1.84-2.65-2.53l-.44-.18a8.18,8.18,0,0,1-2.87-1.66,2.94,2.94,0,0,1-.83-2.12,3.53,3.53,0,0,1,1.18-2.72,4.37,4.37,0,0,1,3-1.06,5,5,0,0,1,2.69.69,3.94,3.94,0,0,1,1.63,2l-1.66.93a2.58,2.58,0,0,0-1-1.41,3.11,3.11,0,0,0-1.76-.48,2.19,2.19,0,0,0-1.54.55,1.74,1.74,0,0,0-.61,1.36,1.71,1.71,0,0,0,.6,1.34,8,8,0,0,0,2.49,1.16,6.78,6.78,0,0,1,2.88,1.62,3.69,3.69,0,0,1,.74,2.43,3.55,3.55,0,0,1-1.28,2.86,5.87,5.87,0,0,1-6.27.31A4.25,4.25,0,0,1,302.05,56.67Z"/><path d="M315.41,57.76a1.5,1.5,0,1,1,3,0,1.47,1.47,0,0,1-1.49,1.49,1.42,1.42,0,0,1-1.06-.43A1.44,1.44,0,0,1,315.41,57.76Z"/></svg>