<svg xmlns="http://www.w3.org/2000/svg" viewBox="0 0 421.71 320.4"><defs><style>.cls-1{isolation:isolate;}.cls-2{fill:#fff;}.cls-3{fill:#d31c25;}.cls-4{fill:#4d4d4d;}.cls-5{fill:gray;}.cls-6{fill:none;stroke:#666;stroke-miterlimit:10;stroke-width:2px;}.cls-7{fill:#ff4335;}.cls-8{fill:#9e151c;}.cls-9{fill:#301404;opacity:0.25;mix-blend-mode:multiply;}</style></defs><title>carabineros</title><g class="cls-1"><g id="Capa_2" data-name="Capa 2"><g id="ALERTAS"><path class="cls-2" d="M408.64,0H13.08A13.07,13.07,0,0,0,0,13.08v98.08a13.07,13.07,0,0,0,13.08,13.08H183.67l26.57,46,26.56-46H408.64a13.07,13.07,0,0,0,13.07-13.08V13.08A13.07,13.07,0,0,0,408.64,0Z"/><path class="cls-2" d="M15.91,9.23H115a1.54,1.54,0,0,1,1.54,1.54v99.56a1.54,1.54,0,0,1-1.54,1.54H15.91A5.84,5.84,0,0,1,10.07,106v-91A5.84,5.84,0,0,1,15.91,9.23Z"/><path class="cls-3" d="M118.09,9.23H405.8a5.84,5.84,0,0,1,5.84,5.84v91a5.84,5.84,0,0,1-5.84,5.84H118.09a1.54,1.54,0,0,1-1.54-1.54V10.77A1.54,1.54,0,0,1,118.09,9.23Z"/><ellipse class="cls-4" cx="65.6" cy="76.53" rx="28.72" ry="12.64"/><rect class="cls-4" x="36.88" y="72.54" width="57.43" height="3.95" rx="1.54"/><ellipse class="cls-5" cx="65.6" cy="72.08" rx="28.72" ry="12.64"/><ellipse class="cls-6" cx="65.6" cy="72.08" rx="26.75" ry="10.67"/><ellipse class="cls-3" cx="65.98" cy="72.58" rx="23.97" ry="7.18"/><path class="cls-3" d="M42.41,70.22l5.35-30.39a2,2,0,0,1,2-1.63H82.25a2,2,0,0,1,1.94,1.63l5.35,30.39a2,2,0,0,1-1.94,2.32H44.35A2,2,0,0,1,42.41,70.22Z"/><ellipse class="cls-3" cx="65.98" cy="38.24" rx="17.93" ry="7.18"/><path class="cls-7" d="M66,43.74a33.82,33.82,0,0,1-12.06-2c-2.58-1-4.19-2.39-4.19-3.52s1.61-2.48,4.19-3.52a33.6,33.6,0,0,1,12.06-2,33.58,33.58,0,0,1,12,2c2.58,1,4.19,2.39,4.19,3.52S80.61,40.72,78,41.76A33.81,33.81,0,0,1,66,43.74Z"/><path class="cls-7" d="M48.25,45.55,43.92,71.19a1.87,1.87,0,0,0,.21,1.27c.67,1.11,2.92,3,10.49,3.88a2,2,0,0,0,2.18-1.67l3.88-26.05A2,2,0,0,0,59,46.38a28.18,28.18,0,0,1-8-2.27A2,2,0,0,0,48.25,45.55Z"/><circle class="cls-8" cx="72.09" cy="73.21" r="2.86"/><path class="cls-8" d="M68.35,49.65l.88,15.11A2.92,2.92,0,0,0,72,67.71a2.86,2.86,0,0,0,3-2.86l.87-15.2a1.28,1.28,0,0,0-1.28-1.28H69.63A1.28,1.28,0,0,0,68.35,49.65Z"/><circle class="cls-2" cx="73.66" cy="72.03" r="2.86"/><path class="cls-2" d="M69.92,48.47l.88,15.11a2.92,2.92,0,0,0,2.73,3,2.86,2.86,0,0,0,3-2.86l.88-15.2a1.28,1.28,0,0,0-1.28-1.28H71.21A1.28,1.28,0,0,0,69.92,48.47Z"/><path class="cls-2" d="M141.88,32.25a2.68,2.68,0,0,1,.84-2,2.72,2.72,0,0,1,2-.82,2.81,2.81,0,1,1,0,5.61,2.73,2.73,0,0,1-2-.82A2.68,2.68,0,0,1,141.88,32.25Zm.48,5.34h4.69V54.81h-4.69Z"/><path class="cls-2" d="M151.59,54.16,160.78,30h5.91L176,54.16h-5.88l-2-5.13h-9.36l-1.69,5.13ZM167,45l-2.7-7.81A11.51,11.51,0,0,1,164,36c-.12-.56-.25-1.25-.38-2.06-.14.78-.28,1.48-.41,2.1s-.23,1-.3,1.25L160.27,45Z"/><path class="cls-2" d="M179.92,54.16V30h5.16V49.77h8.26v4.39Z"/><path class="cls-2" d="M197.94,54.16V30h14.23v4.36h-9.06v5h9.06v4.39h-9.06v6.06h9.06v4.39Z"/><path class="cls-2" d="M236.08,54.16h-6l-6.36-11.29V54.16h-5.17V30H226q4.41,0,6.6,1.71a6.11,6.11,0,0,1,2.2,5.14,6.33,6.33,0,0,1-1.5,4.26,5.88,5.88,0,0,1-3.88,2.07ZM223.76,40.29h.78c2.09,0,3.47-.22,4.14-.68a2.69,2.69,0,0,0,1-2.39,2.86,2.86,0,0,0-1.08-2.53,7.71,7.71,0,0,0-4.07-.75h-.78Z"/><path class="cls-2" d="M249.47,34.38V54.16h-5.19V34.38h-5.91V30h17v4.39Z"/><path class="cls-2" d="M255.39,54.16,264.59,30h5.91l9.32,24.17H274L272,49h-9.36l-1.68,5.13ZM270.78,45l-2.71-7.81a11.51,11.51,0,0,1-.3-1.19c-.12-.56-.24-1.25-.38-2.06-.14.78-.28,1.48-.41,2.1s-.23,1-.3,1.25L264.07,45Z"/><path class="cls-2" d="M283.85,52a2.7,2.7,0,0,1,.83-2,2.86,2.86,0,0,1,4,0,2.68,2.68,0,0,1,.82,2,2.73,2.73,0,0,1-.82,2,2.85,2.85,0,0,1-4.83-2Zm.48-5.35V29.45H289V46.62Z"/><path class="cls-2" d="M161.21,74.77A10.88,10.88,0,0,0,158,72.71a9.59,9.59,0,0,0-3.53-.65,8.3,8.3,0,0,0-6.16,2.31A8.44,8.44,0,0,0,146,80.58a8.41,8.41,0,0,0,2.13,6A7.65,7.65,0,0,0,154,88.87a10.27,10.27,0,0,0,7.23-2.81l0,5.3a13.77,13.77,0,0,1-3.46,1.46,15.24,15.24,0,0,1-3.81.47,13,13,0,0,1-9.48-3.59,13,13,0,0,1,0-18.21A13.21,13.21,0,0,1,154,67.9a17,17,0,0,1,3.8.42,16.27,16.27,0,0,1,3.62,1.27Z"/><path class="cls-2" d="M164.5,92.65l9.19-24.17h5.91l9.33,24.17h-5.88l-2-5.13h-9.36l-1.68,5.13Zm15.38-9.2-2.7-7.8a12.25,12.25,0,0,1-.3-1.19c-.12-.56-.25-1.25-.38-2.07-.14.78-.28,1.49-.41,2.11a12.6,12.6,0,0,1-.3,1.24l-2.61,7.71Z"/><path class="cls-2" d="M210.31,92.65h-6L198,81.36V92.65h-5.16V68.48h7.39q4.41,0,6.61,1.71A6.11,6.11,0,0,1,209,75.33a6.37,6.37,0,0,1-1.5,4.26,5.8,5.8,0,0,1-3.88,2.06ZM198,78.78h.78c2.09,0,3.47-.23,4.14-.68a2.69,2.69,0,0,0,1-2.39,2.86,2.86,0,0,0-1.08-2.53,7.71,7.71,0,0,0-4.07-.75H198Z"/><path class="cls-2" d="M211.79,92.65,221,68.48h5.91l9.33,24.17h-5.88l-2-5.13H219l-1.69,5.13Zm15.39-9.2-2.71-7.8c-.07-.24-.17-.63-.29-1.19s-.25-1.25-.38-2.07c-.15.78-.28,1.49-.42,2.11s-.23,1-.29,1.24l-2.61,7.71Z"/><path class="cls-2" d="M240.12,92.65V68.48h4.53a34.87,34.87,0,0,1,5.14.27,9.19,9.19,0,0,1,2.81.9,5.72,5.72,0,0,1,2.94,5.12,4.68,4.68,0,0,1-1.27,3.44,6.74,6.74,0,0,1-3.8,1.73,7.71,7.71,0,0,1,4.42,1.9,5.21,5.21,0,0,1,1.49,3.91,6.37,6.37,0,0,1-.85,3.26,6,6,0,0,1-2.37,2.29,10.29,10.29,0,0,1-3.13,1,39.26,39.26,0,0,1-6,.31h-3.95Zm5.17-14.51h1.16a6.15,6.15,0,0,0,3.31-.66,2.48,2.48,0,0,0,1-2.21,2.45,2.45,0,0,0-.93-2.17,6.07,6.07,0,0,0-3.27-.64h-1.25Zm0,10.48h2a4.48,4.48,0,0,0,3-.85,3.06,3.06,0,0,0,1-2.48,2.83,2.83,0,0,0-1-2.35,4.48,4.48,0,0,0-2.89-.81h-2.1Z"/><path class="cls-2" d="M261.77,92.65V68.48h5.16V92.65Z"/><path class="cls-2" d="M273.8,92.65V68.48h5.36l10.7,14.07a10.44,10.44,0,0,1,1,1.67q.56,1.08,1.14,2.55c-.12-.71-.2-1.42-.26-2.13s-.08-1.58-.08-2.64V68.48h4.93V92.65h-5.06l-11-14.33a10.67,10.67,0,0,1-1-1.68c-.36-.72-.74-1.58-1.15-2.58a21,21,0,0,1,.26,2.11c.06.71.09,1.6.09,2.68v13.8Z"/><path class="cls-2" d="M303.35,92.65V68.48h14.23v4.36h-9.06v5h9.06V82.2h-9.06v6.06h9.06v4.39Z"/><path class="cls-2" d="M341.48,92.65h-6l-6.35-11.29V92.65H324V68.48h7.4q4.41,0,6.6,1.71a6.12,6.12,0,0,1,2.2,5.14,6.33,6.33,0,0,1-1.51,4.26,5.8,5.8,0,0,1-3.88,2.06ZM329.17,78.78h.77c2.09,0,3.48-.23,4.15-.68a2.68,2.68,0,0,0,1-2.39A2.86,2.86,0,0,0,334,73.18a7.68,7.68,0,0,0-4.07-.75h-.77Z"/><path class="cls-2" d="M370.59,80.61a12.5,12.5,0,0,1-1,4.91,12,12,0,0,1-2.78,4.06,13.37,13.37,0,0,1-4.24,2.76,13.09,13.09,0,0,1-4.89,1,12.89,12.89,0,0,1-4.33-.75,13.46,13.46,0,0,1-3.89-2.15,12.31,12.31,0,0,1-4.71-9.78,12.51,12.51,0,0,1,1-4.89,12.24,12.24,0,0,1,2.81-4.07,13.08,13.08,0,0,1,14.07-2.74,13.18,13.18,0,0,1,4.22,2.74,12.27,12.27,0,0,1,2.79,4.08A12.53,12.53,0,0,1,370.59,80.61Zm-12.88,8.08a7.05,7.05,0,0,0,5.42-2.31,8.11,8.11,0,0,0,2.14-5.77,8.2,8.2,0,0,0-2.16-5.77,7,7,0,0,0-5.4-2.35,7.1,7.1,0,0,0-5.45,2.34,8.87,8.87,0,0,0,0,11.57A7.14,7.14,0,0,0,357.71,88.69Z"/><path class="cls-2" d="M374.75,89.58l2.87-3.25a4.39,4.39,0,0,0,1.75,2.1,5,5,0,0,0,2.71.77,4.42,4.42,0,0,0,2.87-.86A2.83,2.83,0,0,0,386,86c0-1.14-1.18-2.28-3.52-3.42-.76-.36-1.36-.66-1.8-.89a13.41,13.41,0,0,1-4.39-3.23,5.9,5.9,0,0,1-1.22-3.75,6,6,0,0,1,2.37-4.91,9.41,9.41,0,0,1,6.15-1.93,8.64,8.64,0,0,1,3.78.77,7.6,7.6,0,0,1,2.82,2.4L387.15,74a3.76,3.76,0,0,0-1.45-1.57,4.23,4.23,0,0,0-2.17-.52,3.77,3.77,0,0,0-2.48.77,2.45,2.45,0,0,0-.94,2c0,1.28,1.25,2.45,3.73,3.5l1.14.5a12.7,12.7,0,0,1,4.55,3.17,6.09,6.09,0,0,1,1.48,4,6.81,6.81,0,0,1-2.32,5.42,9.14,9.14,0,0,1-6.23,2,11,11,0,0,1-4.76-1A6.44,6.44,0,0,1,374.75,89.58Z"/><ellipse class="cls-9" cx="210.86" cy="297.27" rx="86.04" ry="23.13"/></g></g></g></svg>