<svg id="fondos" xmlns="http://www.w3.org/2000/svg" viewBox="0 0 838.12 100.16"><defs><style>.cls-1{fill:#e6e6e6;}</style></defs><title>carabineros4</title><rect class="cls-1" width="838.12" height="100.16"/><path d="M59.51,61.82V40.37h1.94V61.82Z"/><path d="M76.16,61.82V59.44a4.67,4.67,0,0,1-4.53,3,5.74,5.74,0,0,1-4.5-1.92,7.34,7.34,0,0,1-1.71-5.07,7.57,7.57,0,0,1,1.69-5.09,5.86,5.86,0,0,1,7.2-1.25,4.87,4.87,0,0,1,1.85,2.14V39.11H78V61.82Zm-8.73-6.36a5.89,5.89,0,0,0,1.14,3.88,4,4,0,0,0,3.24,1.36A3.86,3.86,0,0,0,75,59.22a6.49,6.49,0,0,0,1.17-4.1A5.67,5.67,0,0,0,75,51.36a4.34,4.34,0,0,0-6.41.09A6.18,6.18,0,0,0,67.43,55.46Z"/><path d="M93.93,55.37H83.6a6.37,6.37,0,0,0,1.26,4A3.93,3.93,0,0,0,88,60.76,4.19,4.19,0,0,0,90.56,60a5.66,5.66,0,0,0,1.8-2.34l1.66.91a7.25,7.25,0,0,1-2.44,2.91,6.39,6.39,0,0,1-3.54.93,6,6,0,0,1-4.62-1.91,7.11,7.11,0,0,1-1.77-5A7.5,7.5,0,0,1,83.4,50.3a5.85,5.85,0,0,1,4.58-2,5.5,5.5,0,0,1,4.32,1.81A6.9,6.9,0,0,1,93.93,55Zm-2.14-1.54a3.72,3.72,0,0,0-4-3.75,3.86,3.86,0,0,0-2.75,1,4.14,4.14,0,0,0-1.28,2.72Z"/><path d="M97.68,61.82v-13h1.71v2A5.4,5.4,0,0,1,101.33,49a5.54,5.54,0,0,1,2.65-.62A4.27,4.27,0,0,1,108.65,53v8.82h-1.83v-8a4.35,4.35,0,0,0-.81-2.89A3.15,3.15,0,0,0,103.5,50a3.66,3.66,0,0,0-3,1.23,6.21,6.21,0,0,0-1,3.84v6.79Z"/><path d="M113.69,50.36H111.3V48.82h2.39V43.49h1.77v5.33h2.61v1.54h-2.61V61.82h-1.77Z"/><path d="M120.41,43.75a1.32,1.32,0,0,1,.41-1,1.36,1.36,0,0,1,1-.4,1.34,1.34,0,0,1,1,.4,1.3,1.3,0,0,1,.42,1,1.34,1.34,0,0,1-.4,1,1.46,1.46,0,0,1-2,0A1.35,1.35,0,0,1,120.41,43.75Zm.46,18.07v-13h1.86v13Z"/><path d="M128.08,61.82V50.36h-2.44V48.82h2.44V45.07c0-2.61.24-4.3.73-5.07a2.91,2.91,0,0,1,2.68-1.17,5.43,5.43,0,0,1,.92.08,4.91,4.91,0,0,1,.82.23l-.34,1.58a3.37,3.37,0,0,0-.68-.26,2.31,2.31,0,0,0-.61-.09,1.39,1.39,0,0,0-1.34.75,6.57,6.57,0,0,0-.4,2.78v4.92h2.86v1.54h-2.86V61.82Z"/><path d="M135.08,43.75a1.29,1.29,0,0,1,.41-1,1.34,1.34,0,0,1,1-.4,1.37,1.37,0,0,1,1,.4,1.29,1.29,0,0,1,.41,1,1.34,1.34,0,0,1-.4,1,1.46,1.46,0,0,1-2,0A1.34,1.34,0,0,1,135.08,43.75Zm.45,18.07v-13h1.86v13Z"/><path d="M152.42,51.2a6.94,6.94,0,0,0-1.93-1,7.19,7.19,0,0,0-2.11-.31,5,5,0,0,0-3.86,1.54,5.85,5.85,0,0,0-1.43,4.12,5.08,5.08,0,0,0,5.29,5.25,6.46,6.46,0,0,0,2.13-.37,8.26,8.26,0,0,0,2.12-1.1v2a8,8,0,0,1-2.11.81,10.89,10.89,0,0,1-2.48.28,6.54,6.54,0,0,1-4.88-2,6.86,6.86,0,0,1-1.9-5,6.79,6.79,0,0,1,7.15-7.15,10.31,10.31,0,0,1,2.2.23,7,7,0,0,1,1.84.65Z"/><path d="M165.59,61.82V59.44a4.88,4.88,0,0,1-1.81,2.19,5,5,0,0,1-2.75.76,5.74,5.74,0,0,1-4.5-1.92,7.34,7.34,0,0,1-1.71-5.07,7.52,7.52,0,0,1,1.69-5.09,5.88,5.88,0,0,1,7.21-1.25,4.79,4.79,0,0,1,1.87,2.14V48.82h1.8v13Zm-8.76-6.36A5.89,5.89,0,0,0,158,59.34a4,4,0,0,0,3.24,1.36,3.9,3.9,0,0,0,3.23-1.48,6.43,6.43,0,0,0,1.18-4.1,5.62,5.62,0,0,0-1.17-3.76A4,4,0,0,0,161.24,50,3.93,3.93,0,0,0,158,51.45,6.18,6.18,0,0,0,156.83,55.46Z"/><path d="M174,51.43A8,8,0,0,1,176,49a3.69,3.69,0,0,1,2.24-.7,4.08,4.08,0,0,1,.77.07,5.91,5.91,0,0,1,.77.21l-.59,1.7a6,6,0,0,0-.61-.15,3.23,3.23,0,0,0-.61-.06,3.39,3.39,0,0,0-2.77,1.52,6.13,6.13,0,0,0-1.15,3.8v6.39h-1.8v-13H174Z"/><path d="M201.48,55.37H191.15a6.37,6.37,0,0,0,1.26,4,3.93,3.93,0,0,0,3.18,1.43,4.19,4.19,0,0,0,2.52-.78,5.66,5.66,0,0,0,1.8-2.34l1.66.91a7.25,7.25,0,0,1-2.44,2.91,6.39,6.39,0,0,1-3.54.93A6,6,0,0,1,191,60.48a7.11,7.11,0,0,1-1.77-5A7.5,7.5,0,0,1,191,50.3a5.85,5.85,0,0,1,4.58-2,5.5,5.5,0,0,1,4.32,1.81A6.9,6.9,0,0,1,201.48,55Zm-2.14-1.54a3.72,3.72,0,0,0-4-3.75,3.86,3.86,0,0,0-2.75,1,4.14,4.14,0,0,0-1.28,2.72Z"/><path d="M207.21,61.82h-1.87V39.11h1.87Z"/><path d="M230.39,61.82V59.44a4.67,4.67,0,0,1-4.52,3,5.74,5.74,0,0,1-4.51-1.92,7.38,7.38,0,0,1-1.7-5.07,7.56,7.56,0,0,1,1.68-5.09,5.47,5.47,0,0,1,4.35-2,5.39,5.39,0,0,1,2.85.72,4.81,4.81,0,0,1,1.85,2.14V39.11h1.84V61.82Zm-8.73-6.36a5.89,5.89,0,0,0,1.14,3.88A4,4,0,0,0,226,60.7a3.86,3.86,0,0,0,3.21-1.48,6.49,6.49,0,0,0,1.17-4.1,5.67,5.67,0,0,0-1.15-3.76,4.35,4.35,0,0,0-6.42.09A6.18,6.18,0,0,0,221.66,55.46Z"/><path d="M248.16,55.37H237.84a6.3,6.3,0,0,0,1.25,4,4,4,0,0,0,3.18,1.43,4.19,4.19,0,0,0,2.52-.78,5.5,5.5,0,0,0,1.8-2.34l1.66.91a7.17,7.17,0,0,1-2.44,2.91,6.39,6.39,0,0,1-3.54.93,6,6,0,0,1-4.62-1.91,7.15,7.15,0,0,1-1.76-5,7.45,7.45,0,0,1,1.75-5.16,5.82,5.82,0,0,1,4.58-2,5.53,5.53,0,0,1,4.32,1.81A6.94,6.94,0,0,1,248.16,55ZM246,53.83a4,4,0,0,0-1.18-2.77,4.07,4.07,0,0,0-2.86-1,3.84,3.84,0,0,0-2.74,1A4.15,4.15,0,0,0,238,53.83Z"/><path d="M253.89,61.82H252V39.11h1.86Z"/><path d="M258.48,43.75a1.29,1.29,0,0,1,.41-1,1.4,1.4,0,0,1,2,0,1.3,1.3,0,0,1,.42,1,1.34,1.34,0,0,1-.4,1,1.46,1.46,0,0,1-2,0A1.34,1.34,0,0,1,258.48,43.75Zm.45,18.07v-13h1.86v13Z"/><path d="M266.09,50.36H263.7V48.82h2.39V43.49h1.77v5.33h2.61v1.54h-2.61V61.82h-1.77Z"/><path d="M279.06,62.39a6.79,6.79,0,0,1-2.67-.55,7.43,7.43,0,0,1-2.31-1.58,6.42,6.42,0,0,1-1.5-2.22,7.13,7.13,0,0,1-.51-2.7,7,7,0,0,1,.53-2.69,6.87,6.87,0,0,1,1.5-2.26,7.06,7.06,0,0,1,2.28-1.52,6.78,6.78,0,0,1,2.68-.53,7.11,7.11,0,0,1,5,2,6.85,6.85,0,0,1,1.55,2.27,6.78,6.78,0,0,1,.53,2.68,6.87,6.87,0,0,1-.52,2.67,6.62,6.62,0,0,1-1.53,2.25,7.1,7.1,0,0,1-5.06,2.13Zm.05-1.69a4.84,4.84,0,0,0,3.63-1.54,5.6,5.6,0,0,0,0-7.6A4.88,4.88,0,0,0,279.11,50a4.83,4.83,0,0,0-3.61,1.54,5.62,5.62,0,0,0,0,7.6A4.79,4.79,0,0,0,279.11,60.7Z"/><path d="M290.32,60.59a1.46,1.46,0,0,1,.43-1.07,1.5,1.5,0,0,1,1.07-.43,1.47,1.47,0,0,1,1.06.43,1.53,1.53,0,0,1,0,2.13,1.47,1.47,0,0,1-1.06.43,1.5,1.5,0,0,1-1.07-.43A1.45,1.45,0,0,1,290.32,60.59Z"/></svg>