<svg xmlns="http://www.w3.org/2000/svg" viewBox="0 0 420.51 320.4"><defs><style>.cls-1{isolation:isolate;}.cls-2{fill:#fff;}.cls-3{fill:#59ce41;}.cls-4,.cls-6{opacity:0.25;}.cls-5{fill:#439b31;}.cls-6{fill:#301404;mix-blend-mode:multiply;}</style></defs><title>controlada</title><g class="cls-1"><g id="Capa_2" data-name="Capa 2"><g id="ALERTAS"><path class="cls-2" d="M407.43,0H13.08A13.07,13.07,0,0,0,0,13.08v98.08a13.07,13.07,0,0,0,13.08,13.08h170l26.57,46,26.56-46H407.43a13.07,13.07,0,0,0,13.08-13.08V13.08A13.07,13.07,0,0,0,407.43,0Z"/><path class="cls-2" d="M25.23,12.2h99.11a1.54,1.54,0,0,1,1.54,1.54v99.56a1.54,1.54,0,0,1-1.54,1.54H25.23A5.84,5.84,0,0,1,19.39,109V18A5.84,5.84,0,0,1,25.23,12.2Z"/><path class="cls-3" d="M127.41,12.2h278.8A5.84,5.84,0,0,1,412.05,18v91a5.84,5.84,0,0,1-5.84,5.84H127.41a1.54,1.54,0,0,1-1.54-1.54V13.73A1.54,1.54,0,0,1,127.41,12.2Z"/><path class="cls-2" d="M149.52,54.05l2.87-3.25a4.47,4.47,0,0,0,1.75,2.11,5,5,0,0,0,2.71.76,4.42,4.42,0,0,0,2.87-.85,2.83,2.83,0,0,0,1.06-2.31q0-1.73-3.52-3.42c-.76-.37-1.36-.66-1.8-.89A13.52,13.52,0,0,1,151.07,43a6,6,0,0,1-1.22-3.76,6,6,0,0,1,2.37-4.91,9.46,9.46,0,0,1,6.15-1.92,8.55,8.55,0,0,1,3.79.77,7.65,7.65,0,0,1,2.81,2.4l-3.05,2.92a3.78,3.78,0,0,0-1.45-1.58,4.33,4.33,0,0,0-2.17-.52,3.78,3.78,0,0,0-2.47.77,2.44,2.44,0,0,0-.94,2c0,1.28,1.24,2.44,3.73,3.5.49.21.87.37,1.14.5a12.62,12.62,0,0,1,4.54,3.17,6.06,6.06,0,0,1,1.48,4,6.83,6.83,0,0,1-2.32,5.43,9.17,9.17,0,0,1-6.23,2,10.79,10.79,0,0,1-4.75-1A6.41,6.41,0,0,1,149.52,54.05Z"/><path class="cls-2" d="M171.46,57.13V33h5.17V57.13Z"/><path class="cls-2" d="M192.52,37.35V57.13h-5.18V37.35h-5.91V33h17v4.39Z"/><path class="cls-2" d="M224,33V48c0,3.28-.87,5.72-2.6,7.34s-4.33,2.43-7.8,2.43-6.17-.81-7.9-2.43-2.59-4.06-2.59-7.34V33h5.14V47.19a6.68,6.68,0,0,0,1.32,4.5,5,5,0,0,0,3.94,1.51,5.09,5.09,0,0,0,4-1.52,6.58,6.58,0,0,0,1.35-4.49V33Z"/><path class="cls-2" d="M227.19,57.13,236.39,33h5.91l9.32,24.17h-5.87l-2-5.14h-9.36l-1.68,5.14Zm15.39-9.2-2.71-7.81a11.51,11.51,0,0,1-.3-1.19c-.12-.56-.25-1.25-.38-2.06-.14.78-.28,1.48-.41,2.1s-.23,1-.3,1.25l-2.61,7.71Z"/><path class="cls-2" d="M274.39,39.25a10.93,10.93,0,0,0-3.22-2.06,9.62,9.62,0,0,0-3.53-.65,8.29,8.29,0,0,0-6.16,2.31,8.43,8.43,0,0,0-2.3,6.21,8.41,8.41,0,0,0,2.13,6,7.65,7.65,0,0,0,5.81,2.23,10.6,10.6,0,0,0,3.9-.7,10.71,10.71,0,0,0,3.34-2.1l0,5.3a13.59,13.59,0,0,1-3.46,1.45,14.71,14.71,0,0,1-3.8.48,13.1,13.1,0,0,1-9.49-3.59,12.17,12.17,0,0,1-3.7-9.12,12.12,12.12,0,0,1,3.71-9.1,13.22,13.22,0,0,1,9.58-3.58,17.47,17.47,0,0,1,3.79.41,17.15,17.15,0,0,1,3.62,1.27Z"/><path class="cls-2" d="M280.64,57.13V33h5.17V57.13Z"/><path class="cls-2" d="M317.43,45.09a12.64,12.64,0,0,1-1,4.9,11.91,11.91,0,0,1-2.78,4.06,13.48,13.48,0,0,1-4.24,2.76,12.93,12.93,0,0,1-9.23.21,13.21,13.21,0,0,1-3.88-2.16,12.29,12.29,0,0,1-3.5-4.34,12.88,12.88,0,0,1-.25-10.33,12,12,0,0,1,2.81-4.06,13,13,0,0,1,4.21-2.75,13.26,13.26,0,0,1,4.95-1,13.06,13.06,0,0,1,4.91,1,13.21,13.21,0,0,1,4.22,2.75,12.13,12.13,0,0,1,2.79,4.07A12.54,12.54,0,0,1,317.43,45.09Zm-12.88,8.07a7,7,0,0,0,5.42-2.3,8.14,8.14,0,0,0,2.14-5.77A8.21,8.21,0,0,0,310,39.31a7.06,7.06,0,0,0-5.4-2.34,7.13,7.13,0,0,0-5.45,2.33,8.22,8.22,0,0,0-2.16,5.79,8.18,8.18,0,0,0,2.13,5.79A7.15,7.15,0,0,0,304.55,53.16Zm4.84-28.59-5.17,6.09h-2.35l3.26-6.09Z"/><path class="cls-2" d="M323.14,57.13V33h5.36L339.2,47a11.09,11.09,0,0,1,1,1.68c.36.72.75,1.57,1.14,2.55-.12-.72-.21-1.43-.26-2.13s-.08-1.59-.08-2.64V33H346V57.13h-5.07l-11-14.33a11.16,11.16,0,0,1-1-1.68c-.36-.72-.75-1.58-1.15-2.58a20.76,20.76,0,0,1,.26,2.1c.06.71.08,1.6.08,2.68V57.13Z"/><path class="cls-2" d="M170.54,77.73a10.89,10.89,0,0,0-3.22-2,9.44,9.44,0,0,0-3.54-.65,8.28,8.28,0,0,0-6.15,2.31,8.42,8.42,0,0,0-2.3,6.2,8.44,8.44,0,0,0,2.13,6.06,7.65,7.65,0,0,0,5.81,2.23,10.6,10.6,0,0,0,3.9-.7A10.74,10.74,0,0,0,170.5,89l0,5.3A14,14,0,0,1,167,95.78a14.71,14.71,0,0,1-3.8.48,13.08,13.08,0,0,1-9.49-3.59,13.05,13.05,0,0,1,0-18.22,13.22,13.22,0,0,1,9.58-3.58,16.69,16.69,0,0,1,7.41,1.68Z"/><path class="cls-2" d="M201.44,83.58a12.46,12.46,0,0,1-1,4.9,11.91,11.91,0,0,1-2.78,4.06,13.37,13.37,0,0,1-4.24,2.76,12.91,12.91,0,0,1-9.22.21,13.26,13.26,0,0,1-3.89-2.16,12.26,12.26,0,0,1-4.7-9.77,12.73,12.73,0,0,1,1-4.9,12.24,12.24,0,0,1,2.81-4.07,13.26,13.26,0,0,1,9.16-3.71,12.83,12.83,0,0,1,4.91,1,13.35,13.35,0,0,1,4.22,2.74,12.27,12.27,0,0,1,2.79,4.08A12.54,12.54,0,0,1,201.44,83.58Zm-12.88,8.07a7.12,7.12,0,0,0,5.43-2.3,8.85,8.85,0,0,0,0-11.55,7.47,7.47,0,0,0-10.85,0,8.87,8.87,0,0,0,0,11.57A7.14,7.14,0,0,0,188.56,91.65Z"/><path class="cls-2" d="M207.15,95.61V71.44h5.37l10.69,14.07a10.6,10.6,0,0,1,1,1.68c.37.72.75,1.57,1.15,2.55q-.18-1.08-.27-2.13C225.06,86.9,225,86,225,85V71.44H230V95.61H224.9l-11-14.33a9.86,9.86,0,0,1-1-1.67c-.37-.72-.75-1.58-1.16-2.59.12.7.21,1.4.26,2.11s.09,1.6.09,2.68v13.8Z"/><path class="cls-2" d="M245.73,75.83V95.61h-5.18V75.83h-5.91V71.44h17v4.39Z"/><path class="cls-2" d="M273.86,95.61h-6l-6.35-11.29V95.61h-5.17V71.44h7.39q4.41,0,6.61,1.71a6.13,6.13,0,0,1,2.19,5.14,6.33,6.33,0,0,1-1.5,4.26,5.86,5.86,0,0,1-3.88,2.07ZM261.55,81.75h.77c2.09,0,3.47-.23,4.15-.69a2.68,2.68,0,0,0,1-2.39,2.87,2.87,0,0,0-1.08-2.53,7.71,7.71,0,0,0-4.07-.75h-.77Z"/><path class="cls-2" d="M303,83.58a12.64,12.64,0,0,1-1,4.9,11.91,11.91,0,0,1-2.78,4.06A13.48,13.48,0,0,1,295,95.3a12.91,12.91,0,0,1-9.22.21,13.14,13.14,0,0,1-3.89-2.16,12.31,12.31,0,0,1-4.71-9.77,12.56,12.56,0,0,1,1-4.9,12.1,12.1,0,0,1,2.81-4.07,13.21,13.21,0,0,1,9.16-3.71,12.87,12.87,0,0,1,4.91,1,13.35,13.35,0,0,1,4.22,2.74A12.27,12.27,0,0,1,302,78.69,12.54,12.54,0,0,1,303,83.58Zm-12.88,8.07a7.08,7.08,0,0,0,5.42-2.3,8.83,8.83,0,0,0,0-11.55,7.47,7.47,0,0,0-10.85,0,8.87,8.87,0,0,0,0,11.57A7.13,7.13,0,0,0,290.09,91.65Z"/><path class="cls-2" d="M308.68,95.61V71.44h5.16V91.22h8.26v4.39Z"/><path class="cls-2" d="M323.83,95.61,333,71.44h5.91l9.32,24.17h-5.87l-2-5.13h-9.36l-1.68,5.13Zm15.39-9.19-2.71-7.81a11.51,11.51,0,0,1-.3-1.19c-.12-.56-.24-1.25-.38-2.06-.14.78-.28,1.48-.41,2.1s-.23,1-.3,1.25l-2.61,7.71Z"/><path class="cls-2" d="M352.16,95.61V71.44h6.59a27.42,27.42,0,0,1,6.14.55,10.79,10.79,0,0,1,3.94,1.81,10.43,10.43,0,0,1,3.33,4.12,13.58,13.58,0,0,1,1.13,5.66,13.37,13.37,0,0,1-1.15,5.7,10.31,10.31,0,0,1-3.39,4.1,10.55,10.55,0,0,1-3.67,1.71,25.19,25.19,0,0,1-5.92.52h-7Zm5.17-4.36h2.87q4.07,0,5.92-1.84c1.24-1.24,1.86-3.19,1.86-5.87s-.62-4.61-1.86-5.85-3.21-1.86-5.92-1.86h-2.87Z"/><path class="cls-2" d="M375.5,95.61l9.2-24.17h5.91l9.33,24.17h-5.88l-2-5.13h-9.36l-1.68,5.13Zm15.39-9.19-2.71-7.81c-.08-.23-.17-.63-.3-1.19s-.24-1.25-.38-2.06c-.14.78-.28,1.48-.41,2.1s-.23,1-.3,1.25l-2.6,7.71Z"/><path class="cls-4" d="M66.09,19.71l-2-1.26L62,19.71a42.28,42.28,0,0,1-30.6,5.43V72.93a32.85,32.85,0,0,0,4.52,16.69,31.93,31.93,0,0,0,14.7,13.13L64,108.64l13.43-5.89c.72-.31,1.43-.66,2.12-1h0A32,32,0,0,0,92.17,89.62a33,33,0,0,0,4.52-16.69V25.14A42.28,42.28,0,0,1,66.09,19.71Z"/><path class="cls-3" d="M66.09,17.65l-2-1.26L62,17.65a42.28,42.28,0,0,1-30.6,5.43v47.8a32.84,32.84,0,0,0,4.52,16.68,31.93,31.93,0,0,0,14.7,13.13L64,106.58l13.43-5.89c.72-.31,1.43-.65,2.12-1h0a32,32,0,0,0,12.58-12.1,33,33,0,0,0,4.52-16.69V23.08A42.28,42.28,0,0,1,66.09,17.65Z"/><path class="cls-5" d="M64,25.72l-1.62,1A33.52,33.52,0,0,1,38.14,31V68.93a26.23,26.23,0,0,0,3.58,13.24A25.37,25.37,0,0,0,53.38,92.59L64,97.25Z"/><path class="cls-4" d="M48.49,67,60.93,79.4,87.36,53l-6.22-6.22L60.93,67l-6.22-6.22Z"/><path class="cls-2" d="M48.49,64.6,60.93,77,87.36,50.6l-6.22-6.22L60.93,64.6l-6.22-6.22Z"/><ellipse class="cls-6" cx="191.48" cy="297.27" rx="86.04" ry="23.13"/></g></g></g></svg>