<svg id="fondos" xmlns="http://www.w3.org/2000/svg" viewBox="0 0 838.12 100.16"><defs><style>.cls-1{fill:#e6e6e6;}</style></defs><title>copes2</title><rect class="cls-1" width="838.12" height="100.16"/><path d="M56.58,61.89,66,39.6l9,22.29H72.89l-2.73-7.26H61.4l-2.85,7.26ZM62.05,53h7.47l-3.66-9.33Z"/><path d="M87.26,51.27a6.9,6.9,0,0,0-1.93-.94A7.14,7.14,0,0,0,83.22,50a5,5,0,0,0-3.85,1.54,5.81,5.81,0,0,0-1.44,4.12,5.08,5.08,0,0,0,5.29,5.25,6.41,6.41,0,0,0,2.13-.37,8.1,8.1,0,0,0,2.12-1.1v2a7.84,7.84,0,0,1-2.11.81,10.9,10.9,0,0,1-2.48.27,6.51,6.51,0,0,1-4.87-2,6.86,6.86,0,0,1-1.91-5,6.81,6.81,0,0,1,7.15-7.15,10.42,10.42,0,0,1,2.21.22,7.31,7.31,0,0,1,1.83.66Z"/><path d="M96.74,62.47a6.7,6.7,0,0,1-2.66-.55,7.47,7.47,0,0,1-2.32-1.58,6.53,6.53,0,0,1-1.49-2.22A7,7,0,0,1,94.06,49a6.78,6.78,0,0,1,2.68-.53,7,7,0,0,1,7.12,7,6.88,6.88,0,0,1-.53,2.67,6.73,6.73,0,0,1-1.52,2.25,7.14,7.14,0,0,1-5.07,2.13Zm.06-1.69a4.85,4.85,0,0,0,3.63-1.54,5.62,5.62,0,0,0,0-7.6,5,5,0,0,0-7.25,0,5.62,5.62,0,0,0,0,7.6A4.82,4.82,0,0,0,96.8,60.78Z"/><path d="M109.38,51.51a8.13,8.13,0,0,1,2-2.39,3.66,3.66,0,0,1,2.23-.7,4,4,0,0,1,.77.07,5.16,5.16,0,0,1,.77.21l-.59,1.7a5.26,5.26,0,0,0-.6-.15,3.31,3.31,0,0,0-.61-.06,3.42,3.42,0,0,0-2.78,1.52,6.17,6.17,0,0,0-1.15,3.8v6.38h-1.8v-13h1.8Z"/><path d="M126.65,61.89V59.52a4.67,4.67,0,0,1-4.52,2.95,5.74,5.74,0,0,1-4.51-1.92,7.38,7.38,0,0,1-1.7-5.07,7.56,7.56,0,0,1,1.68-5.09,5.86,5.86,0,0,1,7.2-1.25,4.84,4.84,0,0,1,1.85,2.13V39.19h1.84v22.7Zm-8.73-6.35a5.89,5.89,0,0,0,1.14,3.88,4,4,0,0,0,3.24,1.36,3.86,3.86,0,0,0,3.21-1.48,6.49,6.49,0,0,0,1.17-4.1,5.67,5.67,0,0,0-1.15-3.76,4,4,0,0,0-3.2-1.37,4,4,0,0,0-3.22,1.46A6.18,6.18,0,0,0,117.92,55.54Z"/><path d="M139.16,62.47a6.78,6.78,0,0,1-2.66-.55,7.59,7.59,0,0,1-2.32-1.58,6.53,6.53,0,0,1-1.49-2.22,7.13,7.13,0,0,1-.51-2.7,6.93,6.93,0,0,1,.52-2.69A7,7,0,0,1,136.48,49a6.82,6.82,0,0,1,2.68-.53,7.11,7.11,0,0,1,5,2,6.85,6.85,0,0,1,1.55,2.27,7,7,0,0,1,.53,2.68,6.7,6.7,0,0,1-.53,2.67,6.59,6.59,0,0,1-1.52,2.25,7.1,7.1,0,0,1-5.07,2.13Zm.06-1.69a4.84,4.84,0,0,0,3.63-1.54,5.59,5.59,0,0,0,0-7.6,5,5,0,0,0-7.25,0,5.62,5.62,0,0,0,0,7.6A4.83,4.83,0,0,0,139.22,60.78Z"/><path d="M150,61.89v-13h1.72v2A5.32,5.32,0,0,1,153.66,49a5.5,5.5,0,0,1,2.64-.62,4.68,4.68,0,0,1,3.45,1.23A4.63,4.63,0,0,1,161,53.08v8.81h-1.84v-8a4.35,4.35,0,0,0-.81-2.89,3.14,3.14,0,0,0-2.51-1,3.64,3.64,0,0,0-3,1.23,6.12,6.12,0,0,0-1,3.84v6.78Z"/><path d="M175.23,61.89V59.52a4.88,4.88,0,0,1-1.81,2.19,5,5,0,0,1-2.75.76,5.74,5.74,0,0,1-4.5-1.92,7.34,7.34,0,0,1-1.71-5.07,7.52,7.52,0,0,1,1.69-5.09,5.88,5.88,0,0,1,7.21-1.25,4.82,4.82,0,0,1,1.87,2.13V48.9H177v13Zm-8.76-6.35a5.94,5.94,0,0,0,1.13,3.88,4,4,0,0,0,3.25,1.36,3.9,3.9,0,0,0,3.23-1.48,6.49,6.49,0,0,0,1.18-4.1,5.62,5.62,0,0,0-1.17-3.76,4,4,0,0,0-3.21-1.37,3.93,3.93,0,0,0-3.22,1.46A6.13,6.13,0,0,0,166.47,55.54Z"/><path d="M183.67,51.51a8,8,0,0,1,2-2.39,3.66,3.66,0,0,1,2.23-.7,4,4,0,0,1,.77.07,5.16,5.16,0,0,1,.77.21l-.58,1.7a6,6,0,0,0-.61-.15,3.23,3.23,0,0,0-.61-.06,3.39,3.39,0,0,0-2.77,1.52,6.11,6.11,0,0,0-1.15,3.8v6.38h-1.81v-13h1.81Z"/><path d="M209.55,61.89V59.52a4.88,4.88,0,0,1-1.81,2.19,5,5,0,0,1-2.75.76,5.74,5.74,0,0,1-4.5-1.92,7.34,7.34,0,0,1-1.71-5.07,7.52,7.52,0,0,1,1.69-5.09,5.88,5.88,0,0,1,7.21-1.25,4.82,4.82,0,0,1,1.87,2.13V48.9h1.8v13Zm-8.76-6.35a5.94,5.94,0,0,0,1.13,3.88,4,4,0,0,0,3.25,1.36,3.9,3.9,0,0,0,3.23-1.48,6.49,6.49,0,0,0,1.18-4.1,5.62,5.62,0,0,0-1.17-3.76,4,4,0,0,0-3.21-1.37A3.93,3.93,0,0,0,202,51.53,6.13,6.13,0,0,0,200.79,55.54Z"/><path d="M222.76,61.89,230,50.53h-6.75V48.9h9.87l-7.19,11.37h7.4v1.62Z"/><path d="M242.16,62.47a6.79,6.79,0,0,1-2.67-.55,7.43,7.43,0,0,1-2.31-1.58,6.42,6.42,0,0,1-1.5-2.22,7.13,7.13,0,0,1-.51-2.7,7,7,0,0,1,2-5A6.92,6.92,0,0,1,239.48,49a6.78,6.78,0,0,1,2.68-.53,7.06,7.06,0,0,1,2.73.53,7.19,7.19,0,0,1,2.31,1.52,7,7,0,0,1,1.54,2.27,6.79,6.79,0,0,1,.54,2.68,6.88,6.88,0,0,1-.53,2.67,6.73,6.73,0,0,1-1.52,2.25,7.33,7.33,0,0,1-2.34,1.58A7.16,7.16,0,0,1,242.16,62.47Zm.06-1.69a4.83,4.83,0,0,0,3.62-1.54,5.6,5.6,0,0,0,0-7.6,5,5,0,0,0-7.25,0,5.62,5.62,0,0,0,0,7.6A4.8,4.8,0,0,0,242.22,60.78Z"/><path d="M253,61.89v-13h1.71v2A5.32,5.32,0,0,1,256.65,49a5.54,5.54,0,0,1,2.65-.62A4.27,4.27,0,0,1,264,53.08v8.81h-1.83v-8a4.35,4.35,0,0,0-.81-2.89,3.17,3.17,0,0,0-2.52-1,3.64,3.64,0,0,0-3,1.23,6.12,6.12,0,0,0-1,3.84v6.78Z"/><path d="M278.22,61.89V59.52a4.88,4.88,0,0,1-1.81,2.19,4.94,4.94,0,0,1-2.74.76,5.74,5.74,0,0,1-4.51-1.92,7.34,7.34,0,0,1-1.71-5.07,7.57,7.57,0,0,1,1.69-5.09,5.88,5.88,0,0,1,7.21-1.25,4.82,4.82,0,0,1,1.87,2.13V48.9H280v13Zm-8.76-6.35a5.89,5.89,0,0,0,1.14,3.88,4,4,0,0,0,3.24,1.36,3.9,3.9,0,0,0,3.23-1.48,6.43,6.43,0,0,0,1.18-4.1,5.62,5.62,0,0,0-1.17-3.76,4,4,0,0,0-3.21-1.37,3.93,3.93,0,0,0-3.22,1.46A6.18,6.18,0,0,0,269.46,55.54Z"/><path d="M298.6,40.17a29.71,29.71,0,0,0-2.35,6.58,32,32,0,0,0-.77,7.07,34.25,34.25,0,0,0,.77,7.46,25.38,25.38,0,0,0,2.35,6.37l-1.32.78a29.15,29.15,0,0,1-2.62-6.92,33.5,33.5,0,0,1-.87-7.74,31.85,31.85,0,0,1,.87-7.59,27.75,27.75,0,0,1,2.62-6.73Z"/><path d="M302,61.89V40.45h3.91a16.5,16.5,0,0,1,3.41.25,5.2,5.2,0,0,1,1.9.82,4.8,4.8,0,0,1,1.56,2,7,7,0,0,1,.56,2.82,5.52,5.52,0,0,1-1.71,4.49c-1.15,1-2.95,1.43-5.42,1.43H303.9v9.62Zm1.95-11.33h1.33c2.37,0,3.95-.3,4.77-.9a3.67,3.67,0,0,0,1.22-3.16,5.4,5.4,0,0,0-.27-1.75,4.39,4.39,0,0,0-.84-1.43,3.12,3.12,0,0,0-1.55-.91,14.9,14.9,0,0,0-3.33-.26H303.9Z"/><path d="M317.42,51.51a8.13,8.13,0,0,1,2-2.39,3.64,3.64,0,0,1,2.23-.7,4.08,4.08,0,0,1,.77.07,5.51,5.51,0,0,1,.77.21l-.59,1.7a5.44,5.44,0,0,0-.61-.15,3.21,3.21,0,0,0-.6-.06,3.41,3.41,0,0,0-2.78,1.52,6.11,6.11,0,0,0-1.15,3.8v6.38h-1.8v-13h1.8Z"/><path d="M324.73,43.83a1.38,1.38,0,0,1,1.39-1.37,1.37,1.37,0,0,1,1,.4,1.3,1.3,0,0,1,.42,1,1.34,1.34,0,0,1-.4,1,1.37,1.37,0,0,1-1,.4,1.34,1.34,0,0,1-1-.4A1.3,1.3,0,0,1,324.73,43.83Zm.45,18.06v-13H327v13Z"/><path d="M333.77,61.89H332v-13h1.8v2a4.65,4.65,0,0,1,1.7-1.88,4.55,4.55,0,0,1,2.43-.64,4.37,4.37,0,0,1,2.42.65A4.18,4.18,0,0,1,341.87,51a5,5,0,0,1,4.53-2.56,4.29,4.29,0,0,1,3.25,1.25,4.81,4.81,0,0,1,1.18,3.44v8.78H349V53.82a4.51,4.51,0,0,0-.78-2.87,2.84,2.84,0,0,0-2.34-1,3.13,3.13,0,0,0-2.73,1.21,6.72,6.72,0,0,0-.87,3.85v6.84h-1.79V53.82a4.59,4.59,0,0,0-.75-2.91,2.77,2.77,0,0,0-2.31-.92,3.23,3.23,0,0,0-2.8,1.23,6.62,6.62,0,0,0-.89,3.83Z"/><path d="M366.8,55.45H356.47a6.31,6.31,0,0,0,1.26,3.95,3.91,3.91,0,0,0,3.18,1.44,4.19,4.19,0,0,0,2.52-.78,5.66,5.66,0,0,0,1.8-2.34l1.66.91a7.25,7.25,0,0,1-2.44,2.91,6.39,6.39,0,0,1-3.54.93,6,6,0,0,1-4.62-1.91,7.11,7.11,0,0,1-1.77-5,7.5,7.5,0,0,1,1.75-5.16,5.85,5.85,0,0,1,4.58-2,5.5,5.5,0,0,1,4.32,1.81,6.9,6.9,0,0,1,1.63,4.82Zm-2.14-1.54a3.71,3.71,0,0,0-4-3.75,3.86,3.86,0,0,0-2.75,1,4.14,4.14,0,0,0-1.28,2.72Z"/><path d="M372.35,51.51a8.13,8.13,0,0,1,2-2.39,3.66,3.66,0,0,1,2.23-.7,4,4,0,0,1,.77.07,5.16,5.16,0,0,1,.77.21l-.59,1.7a5.84,5.84,0,0,0-.6-.15,3.28,3.28,0,0,0-3.39,1.46,6.17,6.17,0,0,0-1.15,3.8v6.38h-1.8v-13h1.8Z"/><path d="M390.44,51.51a8.13,8.13,0,0,1,2-2.39,3.66,3.66,0,0,1,2.23-.7,4,4,0,0,1,.77.07,5.16,5.16,0,0,1,.77.21l-.58,1.7a6,6,0,0,0-.61-.15,3.31,3.31,0,0,0-.61-.06,3.41,3.41,0,0,0-2.78,1.52,6.17,6.17,0,0,0-1.15,3.8v6.38h-1.8v-13h1.8Z"/><path d="M409.25,55.45H398.92a6.31,6.31,0,0,0,1.26,3.95,3.92,3.92,0,0,0,3.18,1.44,4.19,4.19,0,0,0,2.52-.78,5.58,5.58,0,0,0,1.8-2.34l1.66.91a7.25,7.25,0,0,1-2.44,2.91,6.39,6.39,0,0,1-3.54.93,6,6,0,0,1-4.62-1.91,7.1,7.1,0,0,1-1.76-5,7.45,7.45,0,0,1,1.75-5.16,5.82,5.82,0,0,1,4.57-2,5.54,5.54,0,0,1,4.33,1.81,6.94,6.94,0,0,1,1.62,4.82Zm-2.14-1.54a3.71,3.71,0,0,0-4-3.75,3.88,3.88,0,0,0-2.75,1A4.19,4.19,0,0,0,399,53.91Z"/><path d="M411.52,59.58l1.72-1a3.19,3.19,0,0,0,3.2,2.18,2.67,2.67,0,0,0,1.82-.58,1.92,1.92,0,0,0,.67-1.54c0-1-.88-1.84-2.65-2.54l-.44-.17A8.37,8.37,0,0,1,413,54.29a3,3,0,0,1-.82-2.12,3.5,3.5,0,0,1,1.17-2.72,4.35,4.35,0,0,1,3-1.06,5,5,0,0,1,2.69.69,4,4,0,0,1,1.63,2L419,52a2.59,2.59,0,0,0-1-1.4,3,3,0,0,0-1.76-.49,2.26,2.26,0,0,0-1.55.55,1.8,1.8,0,0,0-.6,1.37,1.72,1.72,0,0,0,.6,1.34,8.09,8.09,0,0,0,2.49,1.15,6.66,6.66,0,0,1,2.87,1.63,3.62,3.62,0,0,1,.74,2.43,3.55,3.55,0,0,1-1.27,2.86,5.18,5.18,0,0,1-3.43,1.07,5.27,5.27,0,0,1-2.85-.76A4.23,4.23,0,0,1,411.52,59.58Z"/><path d="M424.46,68.43V48.9h1.74v2.43a5.69,5.69,0,0,1,1.95-2.16,5,5,0,0,1,2.69-.75,5.58,5.58,0,0,1,4.42,1.92,7.51,7.51,0,0,1,1.68,5.11,7.61,7.61,0,0,1-1.64,5.11,5.49,5.49,0,0,1-4.37,1.91,5.14,5.14,0,0,1-2.77-.76,5.55,5.55,0,0,1-2-2.22v8.94Zm10.53-13a6.22,6.22,0,0,0-1.15-4,3.85,3.85,0,0,0-3.17-1.45,4,4,0,0,0-3.26,1.4,5.79,5.79,0,0,0-1.18,3.85,5.92,5.92,0,0,0,1.27,4,4.17,4.17,0,0,0,3.34,1.48,3.65,3.65,0,0,0,3.06-1.4A6.24,6.24,0,0,0,435,55.48Z"/><path d="M446.59,62.47a6.79,6.79,0,0,1-2.67-.55,7.55,7.55,0,0,1-2.31-1.58,6.53,6.53,0,0,1-1.49-2.22A7,7,0,0,1,443.91,49a6.78,6.78,0,0,1,2.68-.53,7.15,7.15,0,0,1,5,2,6.95,6.95,0,0,1,1.55,7.62,6.73,6.73,0,0,1-1.52,2.25,7.14,7.14,0,0,1-5.07,2.13Zm.06-1.69a4.82,4.82,0,0,0,3.62-1.54,5.6,5.6,0,0,0,0-7.6,5,5,0,0,0-7.25,0,5.62,5.62,0,0,0,0,7.6A4.82,4.82,0,0,0,446.65,60.78Z"/><path d="M457.43,61.89v-13h1.71v2A5.35,5.35,0,0,1,461.09,49a5.48,5.48,0,0,1,2.64-.62,4.27,4.27,0,0,1,4.67,4.66v8.81h-1.83v-8a4.35,4.35,0,0,0-.81-2.89,3.14,3.14,0,0,0-2.51-1,3.63,3.63,0,0,0-3,1.23,6.12,6.12,0,0,0-1,3.84v6.78Z"/><path d="M482.68,61.89V59.52a4.67,4.67,0,0,1-4.52,2.95,5.74,5.74,0,0,1-4.51-1.92,7.33,7.33,0,0,1-1.7-5.07,7.56,7.56,0,0,1,1.68-5.09,5.86,5.86,0,0,1,7.2-1.25,4.78,4.78,0,0,1,1.85,2.13V39.19h1.83v22.7ZM474,55.54a5.89,5.89,0,0,0,1.14,3.88,4,4,0,0,0,3.24,1.36,3.86,3.86,0,0,0,3.21-1.48,6.49,6.49,0,0,0,1.17-4.1,5.67,5.67,0,0,0-1.15-3.76,4,4,0,0,0-3.2-1.37,3.93,3.93,0,0,0-3.22,1.46A6.18,6.18,0,0,0,474,55.54Z"/><path d="M489,43.83a1.32,1.32,0,0,1,.41-1,1.41,1.41,0,0,1,2,0,1.36,1.36,0,0,1,0,2,1.36,1.36,0,0,1-1,.4A1.38,1.38,0,0,1,489,43.83Zm.46,18.06v-13h1.86v13Z"/><path d="M494.71,59.58l1.71-1a3.42,3.42,0,0,0,1.24,1.63,3.36,3.36,0,0,0,2,.55,2.69,2.69,0,0,0,1.82-.58,1.92,1.92,0,0,0,.67-1.54c0-1-.88-1.84-2.65-2.54L499,56a8.37,8.37,0,0,1-2.87-1.66,3,3,0,0,1-.82-2.12,3.5,3.5,0,0,1,1.17-2.72,4.32,4.32,0,0,1,3-1.06,5,5,0,0,1,2.7.69,4,4,0,0,1,1.63,2l-1.66.92a2.66,2.66,0,0,0-1-1.4,3,3,0,0,0-1.75-.49,2.26,2.26,0,0,0-1.55.55,1.81,1.81,0,0,0-.61,1.37,1.72,1.72,0,0,0,.6,1.34,8.09,8.09,0,0,0,2.49,1.15,6.64,6.64,0,0,1,2.88,1.63,3.62,3.62,0,0,1,.74,2.43,3.55,3.55,0,0,1-1.27,2.86,5.18,5.18,0,0,1-3.43,1.07,5.27,5.27,0,0,1-2.85-.76A4.23,4.23,0,0,1,494.71,59.58Z"/><path d="M508,50.44h-2.39V48.9H508V43.57h1.77V48.9h2.61v1.54H509.8V61.89H508Z"/><path d="M526.25,55.45H515.92a6.31,6.31,0,0,0,1.26,3.95,3.91,3.91,0,0,0,3.18,1.44,4.19,4.19,0,0,0,2.52-.78,5.66,5.66,0,0,0,1.8-2.34l1.66.91a7.25,7.25,0,0,1-2.44,2.91,6.42,6.42,0,0,1-3.54.93,6,6,0,0,1-4.62-1.91,7.11,7.11,0,0,1-1.77-5,7.5,7.5,0,0,1,1.75-5.16,5.85,5.85,0,0,1,4.58-2,5.5,5.5,0,0,1,4.32,1.81,6.9,6.9,0,0,1,1.63,4.82Zm-2.14-1.54a3.72,3.72,0,0,0-4-3.75,3.86,3.86,0,0,0-2.75,1A4.14,4.14,0,0,0,516,53.91Z"/><path d="M528.28,40.17l1.31-.72a26.61,26.61,0,0,1,2.63,6.73,31.85,31.85,0,0,1,.87,7.59,33,33,0,0,1-.88,7.74,28.31,28.31,0,0,1-2.62,6.92l-1.31-.78a25.75,25.75,0,0,0,2.35-6.4,33.42,33.42,0,0,0,.78-7.43,31.36,31.36,0,0,0-.78-7A30.21,30.21,0,0,0,528.28,40.17Z"/></svg>