<svg id="fondos" xmlns="http://www.w3.org/2000/svg" viewBox="0 0 838.12 100.16"><defs><style>.cls-1{fill:#e6e6e6;}</style></defs><title>copes4</title><rect class="cls-1" width="838.12" height="100.16"/><path d="M59.5,59.82V38.37H70.13V40.2H61.45v6.71H69.8v1.83H61.45V59.82Z"/><path d="M82.8,59.82V57.44a4.74,4.74,0,0,1-4.56,3,5.72,5.72,0,0,1-4.5-1.92A7.34,7.34,0,0,1,72,53.4a7.56,7.56,0,0,1,1.68-5.09,5.89,5.89,0,0,1,7.22-1.25A4.79,4.79,0,0,1,82.8,49.2V46.82h1.8v13ZM74,53.46a5.94,5.94,0,0,0,1.13,3.88,4,4,0,0,0,3.25,1.36,3.91,3.91,0,0,0,3.23-1.48,6.49,6.49,0,0,0,1.18-4.1,5.63,5.63,0,0,0-1.18-3.76A4,4,0,0,0,78.45,48a4,4,0,0,0-3.23,1.46A6.18,6.18,0,0,0,74,53.46Z"/><path d="M91.41,59.82H89.55V37.11h1.86Z"/><path d="M98.31,59.82H96.45V37.11h1.86Z"/><path d="M109.13,60.39a6.78,6.78,0,0,1-2.66-.55,7.59,7.59,0,0,1-2.32-1.58A6.53,6.53,0,0,1,102.66,56a7.13,7.13,0,0,1-.51-2.7,7,7,0,0,1,.52-2.69,7,7,0,0,1,3.78-3.78,6.82,6.82,0,0,1,2.68-.53,7.11,7.11,0,0,1,5,2,6.85,6.85,0,0,1,1.55,2.27,6.78,6.78,0,0,1,.53,2.68,6.87,6.87,0,0,1-.52,2.67,6.76,6.76,0,0,1-1.53,2.25,7.1,7.1,0,0,1-5.07,2.13Zm.06-1.69a4.84,4.84,0,0,0,3.63-1.54,5.6,5.6,0,0,0,0-7.6A4.88,4.88,0,0,0,109.19,48a4.83,4.83,0,0,0-3.61,1.54,5.59,5.59,0,0,0,0,7.6A4.79,4.79,0,0,0,109.19,58.7Z"/><path d="M138.24,59.82V57.44a4.67,4.67,0,0,1-4.53,3,5.74,5.74,0,0,1-4.5-1.92,7.34,7.34,0,0,1-1.71-5.07,7.57,7.57,0,0,1,1.69-5.09,5.86,5.86,0,0,1,7.2-1.25,4.87,4.87,0,0,1,1.85,2.14V37.11h1.83V59.82Zm-8.73-6.36a5.89,5.89,0,0,0,1.14,3.88,4,4,0,0,0,3.24,1.36,3.86,3.86,0,0,0,3.21-1.48,6.49,6.49,0,0,0,1.17-4.1,5.67,5.67,0,0,0-1.16-3.76,4.34,4.34,0,0,0-6.41.09A6.18,6.18,0,0,0,129.51,53.46Z"/><path d="M156,53.37H145.68a6.37,6.37,0,0,0,1.26,4,3.93,3.93,0,0,0,3.18,1.43,4.19,4.19,0,0,0,2.52-.78,5.66,5.66,0,0,0,1.8-2.34l1.66.91a7.25,7.25,0,0,1-2.44,2.91,6.39,6.39,0,0,1-3.54.93,6,6,0,0,1-4.62-1.91,7.11,7.11,0,0,1-1.77-5,7.5,7.5,0,0,1,1.75-5.16,5.85,5.85,0,0,1,4.58-2,5.5,5.5,0,0,1,4.32,1.81A6.9,6.9,0,0,1,156,53Zm-2.14-1.54a3.72,3.72,0,0,0-4-3.75,3.86,3.86,0,0,0-2.75,1,4.14,4.14,0,0,0-1.28,2.72Z"/><path d="M168.4,59.82v-13h1.72v2A5.25,5.25,0,0,1,172.06,47a5.48,5.48,0,0,1,2.64-.62A4.27,4.27,0,0,1,179.37,51v8.82h-1.83v-8a4.35,4.35,0,0,0-.81-2.89,3.14,3.14,0,0,0-2.51-.95,3.64,3.64,0,0,0-3,1.23,6.14,6.14,0,0,0-1,3.84v6.79Z"/><path d="M195.19,53.37H184.87a6.37,6.37,0,0,0,1.26,4,3.93,3.93,0,0,0,3.18,1.43,4.23,4.23,0,0,0,2.52-.78,5.66,5.66,0,0,0,1.8-2.34l1.65.91a7.17,7.17,0,0,1-2.44,2.91,6.38,6.38,0,0,1-3.53.93,6,6,0,0,1-4.63-1.91,7.15,7.15,0,0,1-1.76-5,7.45,7.45,0,0,1,1.75-5.16,5.84,5.84,0,0,1,4.58-2,5.53,5.53,0,0,1,4.32,1.81A6.94,6.94,0,0,1,195.19,53Zm-2.13-1.54A3.72,3.72,0,0,0,189,48.08a3.84,3.84,0,0,0-2.74,1A4.15,4.15,0,0,0,185,51.83Z"/><path d="M210.37,46.82V57.56c0,1.71-.05,3-.14,3.91a6.35,6.35,0,0,1-.46,2,4.52,4.52,0,0,1-2.07,2.16,7.72,7.72,0,0,1-3.51.71,7,7,0,0,1-4-1,4.28,4.28,0,0,1-1.75-3h2.26a2.61,2.61,0,0,0,1.15,1.81,4.53,4.53,0,0,0,2.53.62,5.21,5.21,0,0,0,2.16-.43,3.2,3.2,0,0,0,1.44-1.17A3.3,3.3,0,0,0,208.4,62a10.33,10.33,0,0,0,.14-2V57.41a4.82,4.82,0,0,1-1.84,2.19,5.22,5.22,0,0,1-2.83.79,5.48,5.48,0,0,1-4.38-1.91,7.57,7.57,0,0,1-1.63-5.11,7.56,7.56,0,0,1,1.67-5.11A5.57,5.57,0,0,1,204,46.34a5.14,5.14,0,0,1,2.8.8,4.52,4.52,0,0,1,1.79,2.11V46.82ZM204.16,48A3.89,3.89,0,0,0,201,49.44a6.16,6.16,0,0,0-1.16,4,6.12,6.12,0,0,0,1.11,3.9A3.65,3.65,0,0,0,204,58.7a4.15,4.15,0,0,0,3.34-1.48,6,6,0,0,0,1.25-4,5.79,5.79,0,0,0-1.17-3.85A4,4,0,0,0,204.16,48Z"/><path d="M224.77,59.82V57.44A4.88,4.88,0,0,1,223,59.63a5,5,0,0,1-2.75.76,5.74,5.74,0,0,1-4.5-1.92A7.34,7.34,0,0,1,214,53.4a7.52,7.52,0,0,1,1.69-5.09,5.88,5.88,0,0,1,7.21-1.25,4.79,4.79,0,0,1,1.87,2.14V46.82h1.8v13ZM216,53.46a5.89,5.89,0,0,0,1.14,3.88,4,4,0,0,0,3.24,1.36,3.9,3.9,0,0,0,3.23-1.48,6.43,6.43,0,0,0,1.18-4.1,5.62,5.62,0,0,0-1.17-3.76A4,4,0,0,0,220.42,48a3.93,3.93,0,0,0-3.22,1.46A6.18,6.18,0,0,0,216,53.46Z"/><path d="M241.51,49.2a6.94,6.94,0,0,0-1.93-1,7.14,7.14,0,0,0-2.11-.31,5,5,0,0,0-3.85,1.54,5.81,5.81,0,0,0-1.44,4.12,5.08,5.08,0,0,0,5.29,5.25,6.46,6.46,0,0,0,2.13-.37,8.26,8.26,0,0,0,2.12-1.1v2a8,8,0,0,1-2.11.81,10.89,10.89,0,0,1-2.48.28,6.54,6.54,0,0,1-4.88-2,6.9,6.9,0,0,1-1.9-5,6.81,6.81,0,0,1,7.15-7.15,10.31,10.31,0,0,1,2.2.23,7,7,0,0,1,1.84.65Z"/><path d="M244.75,41.75a1.38,1.38,0,0,1,1.39-1.37,1.37,1.37,0,0,1,1,.4,1.3,1.3,0,0,1,.42,1,1.38,1.38,0,0,1-.4,1,1.4,1.4,0,0,1-1,.39,1.37,1.37,0,0,1-1-.39A1.34,1.34,0,0,1,244.75,41.75Zm.45,18.07v-13h1.86v13Z"/><path d="M257.89,60.39a6.79,6.79,0,0,1-2.67-.55,7.43,7.43,0,0,1-2.31-1.58A6.39,6.39,0,0,1,251.42,56a7.18,7.18,0,0,1,0-5.39,6.75,6.75,0,0,1,1.51-2.26,6.92,6.92,0,0,1,2.27-1.52,6.78,6.78,0,0,1,2.68-.53,7,7,0,0,1,2.73.53,7.08,7.08,0,0,1,2.31,1.52A6.95,6.95,0,0,1,264.48,56,6.73,6.73,0,0,1,263,58.26a7.22,7.22,0,0,1-2.34,1.58A7.08,7.08,0,0,1,257.89,60.39ZM258,58.7a4.83,4.83,0,0,0,3.62-1.54,5.6,5.6,0,0,0,0-7.6,5,5,0,0,0-7.25,0,5.62,5.62,0,0,0,0,7.6A4.82,4.82,0,0,0,258,58.7Zm-1.95-14,3.12-5.13h2.4l-4.14,5.13Z"/><path d="M268.73,59.82v-13h1.71v2A5.4,5.4,0,0,1,272.38,47a5.54,5.54,0,0,1,2.65-.62A4.27,4.27,0,0,1,279.7,51v8.82h-1.83v-8a4.35,4.35,0,0,0-.81-2.89,3.16,3.16,0,0,0-2.52-.95,3.65,3.65,0,0,0-3,1.23,6.14,6.14,0,0,0-1,3.84v6.79Z"/></svg>