<svg id="fondos" xmlns="http://www.w3.org/2000/svg" viewBox="0 0 838.12 100.16"><defs><style>.cls-1{fill:#e6e6e6;}</style></defs><title>copes3</title><rect class="cls-1" width="838.12" height="100.16"/><path d="M59.5,61.93V40.49h3.92a16.45,16.45,0,0,1,3.4.25,5.2,5.2,0,0,1,1.9.82,4.72,4.72,0,0,1,1.57,2,7,7,0,0,1,.55,2.83,5.52,5.52,0,0,1-1.71,4.49q-1.71,1.42-5.42,1.43H61.45v9.62Zm2-11.34h1.34c2.36,0,3.95-.3,4.76-.9a3.65,3.65,0,0,0,1.23-3.15,5.4,5.4,0,0,0-.28-1.75,4.26,4.26,0,0,0-.83-1.43,3.15,3.15,0,0,0-1.56-.91,14.21,14.21,0,0,0-3.32-.26H61.45Z"/><path d="M76.22,61.93H74.36V39.23h1.86Z"/><path d="M90.74,61.93V59.56a4.71,4.71,0,0,1-4.56,2.94,5.72,5.72,0,0,1-4.5-1.92A7.3,7.3,0,0,1,80,55.52a7.56,7.56,0,0,1,1.68-5.09,5.89,5.89,0,0,1,7.22-1.25,4.77,4.77,0,0,1,1.87,2.13V48.94h1.8v13ZM82,55.58a5.9,5.9,0,0,0,1.13,3.88,4,4,0,0,0,3.25,1.36,3.92,3.92,0,0,0,3.23-1.49,6.44,6.44,0,0,0,1.17-4.09,5.6,5.6,0,0,0-1.17-3.76,4,4,0,0,0-3.2-1.37,4,4,0,0,0-3.23,1.46A6.18,6.18,0,0,0,82,55.58Z"/><path d="M97.37,61.93v-13h1.72v2A5.17,5.17,0,0,1,101,49.08a5.37,5.37,0,0,1,2.64-.62,4.27,4.27,0,0,1,4.67,4.65v8.82h-1.83v-8A4.35,4.35,0,0,0,105.7,51a3.14,3.14,0,0,0-2.51-1,3.64,3.64,0,0,0-3,1.23,6.12,6.12,0,0,0-1,3.84v6.78Z"/><path d="M113.38,50.48H111V48.94h2.38V43.61h1.78v5.33h2.6v1.54h-2.6V61.93h-1.78Z"/><path d="M131.6,55.49H121.28a6.31,6.31,0,0,0,1.26,3.95,3.91,3.91,0,0,0,3.18,1.44,4.23,4.23,0,0,0,2.52-.78,5.8,5.8,0,0,0,1.8-2.34l1.65.91a7.13,7.13,0,0,1-2.44,2.9,6.38,6.38,0,0,1-3.53.93,6,6,0,0,1-4.63-1.91,7.11,7.11,0,0,1-1.76-5,7.45,7.45,0,0,1,1.75-5.16,5.84,5.84,0,0,1,4.58-2,5.54,5.54,0,0,1,4.32,1.8,7,7,0,0,1,1.62,4.83ZM129.47,54a3.72,3.72,0,0,0-4-3.75,3.88,3.88,0,0,0-2.74,1A4.14,4.14,0,0,0,121.4,54Z"/><path d="M145,61.93V59.56a4.88,4.88,0,0,1-1.81,2.19,5,5,0,0,1-2.75.75,5.74,5.74,0,0,1-4.5-1.92,7.3,7.3,0,0,1-1.71-5.06,7.57,7.57,0,0,1,1.69-5.09,5.88,5.88,0,0,1,7.21-1.25A4.71,4.71,0,0,1,145,51.31V48.94h1.8v13Zm-8.76-6.35a5.91,5.91,0,0,0,1.14,3.88,4,4,0,0,0,3.24,1.36,3.91,3.91,0,0,0,3.23-1.49A6.38,6.38,0,0,0,145,55.24a5.6,5.6,0,0,0-1.17-3.76,4,4,0,0,0-3.21-1.37,3.93,3.93,0,0,0-3.22,1.46A6.18,6.18,0,0,0,136.19,55.58Z"/><path d="M153.39,51.55a7.84,7.84,0,0,1,2-2.39,3.69,3.69,0,0,1,2.24-.7,3.91,3.91,0,0,1,.76.07,6.69,6.69,0,0,1,.77.2l-.58,1.7a6,6,0,0,0-.61-.14,3.23,3.23,0,0,0-.61-.06,3.39,3.39,0,0,0-2.77,1.52,6.11,6.11,0,0,0-1.15,3.8v6.38h-1.8v-13h1.8Z"/><path d="M169.34,43.87a1.32,1.32,0,0,1,.41-1,1.34,1.34,0,0,1,1-.41,1.38,1.38,0,0,1,1,.41,1.3,1.3,0,0,1,.42,1,1.34,1.34,0,0,1-.4,1,1.37,1.37,0,0,1-1,.4,1.34,1.34,0,0,1-1-.4A1.3,1.3,0,0,1,169.34,43.87Zm.45,18.06v-13h1.86v13Z"/><path d="M176.58,61.93v-13h1.71v2a5.24,5.24,0,0,1,1.94-1.87,5.42,5.42,0,0,1,2.64-.62,4.27,4.27,0,0,1,4.68,4.65v8.82h-1.83v-8A4.35,4.35,0,0,0,184.9,51a3.14,3.14,0,0,0-2.51-1,3.64,3.64,0,0,0-3,1.23,6.12,6.12,0,0,0-1,3.84v6.78Z"/><path d="M192.59,50.48H190.2V48.94h2.39V43.61h1.77v5.33H197v1.54h-2.61V61.93h-1.77Z"/><path d="M210.81,55.49H200.48a6.31,6.31,0,0,0,1.26,3.95,3.91,3.91,0,0,0,3.18,1.44,4.19,4.19,0,0,0,2.52-.78,5.8,5.8,0,0,0,1.8-2.34l1.66.91a7.28,7.28,0,0,1-2.44,2.9,6.39,6.39,0,0,1-3.54.93,6,6,0,0,1-4.62-1.91,7.07,7.07,0,0,1-1.77-5,7.5,7.5,0,0,1,1.75-5.16,5.85,5.85,0,0,1,4.58-2,5.53,5.53,0,0,1,4.32,1.8,6.94,6.94,0,0,1,1.63,4.83ZM208.67,54a3.72,3.72,0,0,0-4-3.75,3.9,3.9,0,0,0-2.75,1A4.19,4.19,0,0,0,200.6,54Z"/><path d="M216.36,51.55a7.85,7.85,0,0,1,2-2.39,3.66,3.66,0,0,1,2.23-.7,4.08,4.08,0,0,1,.77.07,6.69,6.69,0,0,1,.77.2l-.59,1.7a5.82,5.82,0,0,0-.6-.14,3.28,3.28,0,0,0-3.39,1.46,6.11,6.11,0,0,0-1.15,3.8v6.38h-1.8v-13h1.8Z"/><path d="M222.06,48.94h2l4,9.84,4-9.84h2l-6,13.83Z"/><path d="M248,55.49H237.65a6.19,6.19,0,0,0,1.26,3.95,3.89,3.89,0,0,0,3.17,1.44,4.19,4.19,0,0,0,2.52-.78,5.73,5.73,0,0,0,1.81-2.34l1.65.91a7.2,7.2,0,0,1-2.44,2.9,6.39,6.39,0,0,1-3.54.93,6,6,0,0,1-4.62-1.91,7.06,7.06,0,0,1-1.76-5,7.45,7.45,0,0,1,1.75-5.16,5.82,5.82,0,0,1,4.57-2,5.56,5.56,0,0,1,4.33,1.8A7,7,0,0,1,248,55.09ZM245.83,54a4,4,0,0,0-1.18-2.77,4.07,4.07,0,0,0-2.86-1,3.92,3.92,0,0,0-2.75,1A4.23,4.23,0,0,0,237.76,54Z"/><path d="M251.72,61.93v-13h1.72v2a5.17,5.17,0,0,1,1.94-1.87,5.37,5.37,0,0,1,2.64-.62,4.27,4.27,0,0,1,4.67,4.65v8.82h-1.83v-8a4.35,4.35,0,0,0-.81-2.89,3.14,3.14,0,0,0-2.51-1,3.64,3.64,0,0,0-3,1.23,6.12,6.12,0,0,0-1,3.84v6.78Z"/><path d="M277.46,51.31a7,7,0,0,0-1.93-.94,7.2,7.2,0,0,0-2.11-.32,5,5,0,0,0-3.86,1.55,5.83,5.83,0,0,0-1.43,4.12,5.06,5.06,0,0,0,1.49,3.77,5.17,5.17,0,0,0,3.8,1.48,6.73,6.73,0,0,0,2.13-.37,8.26,8.26,0,0,0,2.12-1.1v2a8,8,0,0,1-2.11.81,11,11,0,0,1-2.48.27,6.53,6.53,0,0,1-4.88-2,6.88,6.88,0,0,1-1.9-5,6.79,6.79,0,0,1,7.15-7.14,10.32,10.32,0,0,1,2.2.22,7.38,7.38,0,0,1,1.84.65Z"/><path d="M280.7,43.87a1.29,1.29,0,0,1,.41-1,1.34,1.34,0,0,1,1-.41,1.38,1.38,0,0,1,1,.41,1.3,1.3,0,0,1,.42,1,1.31,1.31,0,0,1-.41,1,1.44,1.44,0,0,1-2,0A1.3,1.3,0,0,1,280.7,43.87Zm.45,18.06v-13H283v13Z"/><path d="M293.84,62.5a6.62,6.62,0,0,1-2.67-.55,7.4,7.4,0,0,1-2.31-1.57,6.45,6.45,0,0,1-1.5-2.23,7.11,7.11,0,0,1-.51-2.69,6.84,6.84,0,0,1,.53-2.7,6.7,6.7,0,0,1,1.51-2.25A6.79,6.79,0,0,1,291.16,49a6.92,6.92,0,0,1,2.68-.52,7.24,7.24,0,0,1,2.73.52,7.06,7.06,0,0,1,2.31,1.53,7,7,0,0,1,1.54,2.27,6.79,6.79,0,0,1,.54,2.68,6.88,6.88,0,0,1-.53,2.67,6.73,6.73,0,0,1-1.52,2.25A7.3,7.3,0,0,1,296.57,62,7,7,0,0,1,293.84,62.5Zm.06-1.68a4.84,4.84,0,0,0,3.62-1.55,5.59,5.59,0,0,0,0-7.59,5,5,0,0,0-7.25,0,5.61,5.61,0,0,0,0,7.59A4.81,4.81,0,0,0,293.9,60.82Zm-1.95-14,3.12-5.12h2.4l-4.15,5.12Z"/><path d="M304.68,61.93v-13h1.71v2a5.24,5.24,0,0,1,1.94-1.87,5.43,5.43,0,0,1,2.65-.62,4.27,4.27,0,0,1,4.67,4.65v8.82h-1.83v-8A4.3,4.3,0,0,0,313,51a3.14,3.14,0,0,0-2.51-1,3.64,3.64,0,0,0-3,1.23,6.12,6.12,0,0,0-1,3.84v6.78Z"/><path d="M329.33,50.48h-2.39V48.94h2.39V43.61h1.77v5.33h2.61v1.54H331.1V61.93h-1.77Z"/><path d="M346,61.93V59.56a4.73,4.73,0,0,1-4.56,2.94,5.74,5.74,0,0,1-4.51-1.92,7.34,7.34,0,0,1-1.7-5.06,7.56,7.56,0,0,1,1.68-5.09,5.89,5.89,0,0,1,7.22-1.25A4.77,4.77,0,0,1,346,51.31V48.94h1.8v13Zm-8.76-6.35a5.9,5.9,0,0,0,1.13,3.88,4,4,0,0,0,3.24,1.36,3.93,3.93,0,0,0,3.24-1.49A6.44,6.44,0,0,0,346,55.24a5.6,5.6,0,0,0-1.17-3.76,4,4,0,0,0-3.21-1.37,4,4,0,0,0-3.22,1.46A6.18,6.18,0,0,0,337.23,55.58Zm2.94-8.74,3.12-5.12h2.4l-4.14,5.12Z"/><path d="M362.73,51.31a7,7,0,0,0-1.94-.94,7.1,7.1,0,0,0-2.11-.32,5,5,0,0,0-3.85,1.55,5.83,5.83,0,0,0-1.43,4.12,5.09,5.09,0,0,0,1.48,3.77,5.19,5.19,0,0,0,3.8,1.48,6.74,6.74,0,0,0,2.14-.37,8.21,8.21,0,0,0,2.11-1.1v2a7.84,7.84,0,0,1-2.11.81,10.81,10.81,0,0,1-2.47.27,6.53,6.53,0,0,1-4.88-2,6.88,6.88,0,0,1-1.9-5,6.79,6.79,0,0,1,7.14-7.14,10.35,10.35,0,0,1,2.21.22,7.38,7.38,0,0,1,1.84.65Z"/><path d="M366.68,50.48H364.3V48.94h2.38V43.61h1.78v5.33h2.6v1.54h-2.6V61.93h-1.78Z"/><path d="M373.41,43.87a1.29,1.29,0,0,1,.41-1,1.34,1.34,0,0,1,1-.41,1.38,1.38,0,0,1,1,.41,1.29,1.29,0,0,1,.41,1,1.3,1.3,0,0,1-.4,1,1.44,1.44,0,0,1-2,0A1.3,1.3,0,0,1,373.41,43.87Zm.45,18.06v-13h1.86v13Z"/><path d="M390.75,51.31a6.9,6.9,0,0,0-1.93-.94,7.2,7.2,0,0,0-2.11-.32,5,5,0,0,0-3.86,1.55,5.83,5.83,0,0,0-1.43,4.12,5.1,5.1,0,0,0,1.49,3.77,5.19,5.19,0,0,0,3.8,1.48,6.73,6.73,0,0,0,2.13-.37A8.26,8.26,0,0,0,391,59.5v2a8,8,0,0,1-2.11.81,10.9,10.9,0,0,1-2.48.27,6.53,6.53,0,0,1-4.88-2,6.88,6.88,0,0,1-1.9-5,6.79,6.79,0,0,1,7.15-7.14,10.32,10.32,0,0,1,2.2.22,7.38,7.38,0,0,1,1.84.65Z"/><path d="M403.92,61.93V59.56a4.88,4.88,0,0,1-1.81,2.19,5,5,0,0,1-2.75.75,5.74,5.74,0,0,1-4.5-1.92,7.3,7.3,0,0,1-1.71-5.06,7.52,7.52,0,0,1,1.69-5.09,5.88,5.88,0,0,1,7.21-1.25,4.71,4.71,0,0,1,1.87,2.13V48.94h1.8v13Zm-8.76-6.35a5.91,5.91,0,0,0,1.14,3.88,4,4,0,0,0,3.24,1.36,3.91,3.91,0,0,0,3.23-1.49A6.38,6.38,0,0,0,404,55.24a5.6,5.6,0,0,0-1.17-3.76,4,4,0,0,0-3.21-1.37,3.93,3.93,0,0,0-3.22,1.46A6.18,6.18,0,0,0,395.16,55.58Z"/></svg>