<svg id="fondos" xmlns="http://www.w3.org/2000/svg" viewBox="0 0 838.12 100.16"><defs><style>.cls-1{fill:#e6e6e6;}</style></defs><title>copes1</title><rect class="cls-1" width="838.12" height="100.16"/><path d="M72.53,62.85H70.16L62.63,52.62H61.45V62.85h-2V41.4h4a8,8,0,0,1,5.22,1.45,5.4,5.4,0,0,1,1.73,4.4,5.23,5.23,0,0,1-1.48,3.94,5.7,5.7,0,0,1-4.1,1.43ZM61.45,43.1V51h2a6.15,6.15,0,0,0,3.8-.88,3.63,3.63,0,0,0,1.07-3A3.91,3.91,0,0,0,67.18,44a5.85,5.85,0,0,0-3.76-.94Z"/><path d="M85.71,56.4H75.38a6.37,6.37,0,0,0,1.26,4,3.94,3.94,0,0,0,3.18,1.43A4.25,4.25,0,0,0,82.34,61a5.6,5.6,0,0,0,1.8-2.35l1.66.91a7.17,7.17,0,0,1-2.44,2.91,6.39,6.39,0,0,1-3.54.93,6,6,0,0,1-4.62-1.91,7.1,7.1,0,0,1-1.76-5,7.45,7.45,0,0,1,1.75-5.16,5.82,5.82,0,0,1,4.57-2,5.54,5.54,0,0,1,4.33,1.81A7,7,0,0,1,85.71,56Zm-2.14-1.54a4,4,0,0,0-1.18-2.76,4,4,0,0,0-2.86-1,3.92,3.92,0,0,0-2.75,1,4.19,4.19,0,0,0-1.28,2.72Z"/><path d="M99.57,52.23a7.07,7.07,0,0,0-1.93-.95A7.19,7.19,0,0,0,95.53,51a5,5,0,0,0-3.86,1.54,5.86,5.86,0,0,0-1.43,4.13,5.06,5.06,0,0,0,1.49,3.76,5.13,5.13,0,0,0,3.8,1.48,6.46,6.46,0,0,0,2.13-.37,8.32,8.32,0,0,0,2.11-1.09v2a8.13,8.13,0,0,1-2.1.82,11,11,0,0,1-2.48.27,6.5,6.5,0,0,1-4.88-2,6.86,6.86,0,0,1-1.9-5,6.79,6.79,0,0,1,7.15-7.15,10.31,10.31,0,0,1,2.2.23,7.38,7.38,0,0,1,1.84.65Z"/><path d="M109.05,63.42a6.62,6.62,0,0,1-2.67-.55,7.43,7.43,0,0,1-2.31-1.58,6.42,6.42,0,0,1-1.5-2.22,7.13,7.13,0,0,1-.51-2.7,7,7,0,0,1,7-7,7.15,7.15,0,0,1,5,2.05,7.08,7.08,0,0,1,1.54,2.27,6.79,6.79,0,0,1,.54,2.68,7,7,0,0,1-.53,2.68,6.67,6.67,0,0,1-1.53,2.24,7.18,7.18,0,0,1-2.33,1.58A7,7,0,0,1,109.05,63.42Zm0-1.69a4.84,4.84,0,0,0,3.63-1.54,5.26,5.26,0,0,0,1.49-3.79,5.32,5.32,0,0,0-1.48-3.81,4.87,4.87,0,0,0-3.64-1.53,4.82,4.82,0,0,0-3.61,1.53,5.62,5.62,0,0,0,0,7.6A4.79,4.79,0,0,0,109.1,61.73Z"/><path d="M121.86,62.85H120V40.14h1.86Z"/><path d="M138,56.4H127.62a6.37,6.37,0,0,0,1.26,4,3.93,3.93,0,0,0,3.18,1.43,4.25,4.25,0,0,0,2.52-.77,5.77,5.77,0,0,0,1.8-2.35l1.66.91a7.25,7.25,0,0,1-2.44,2.91,6.42,6.42,0,0,1-3.54.93,6,6,0,0,1-4.62-1.91,7.11,7.11,0,0,1-1.77-5,7.45,7.45,0,0,1,1.75-5.16,5.85,5.85,0,0,1,4.58-2,5.5,5.5,0,0,1,4.32,1.81A6.92,6.92,0,0,1,138,56Zm-2.14-1.54a3.74,3.74,0,0,0-4-3.75,3.91,3.91,0,0,0-2.75,1,4.09,4.09,0,0,0-1.28,2.72Z"/><path d="M151.81,52.23a7,7,0,0,0-1.94-.95,7.09,7.09,0,0,0-2.11-.31,5,5,0,0,0-3.85,1.54,5.82,5.82,0,0,0-1.44,4.13A5.09,5.09,0,0,0,144,60.4a5.15,5.15,0,0,0,3.8,1.48,6.37,6.37,0,0,0,2.13-.37A8.38,8.38,0,0,0,152,60.42v2a8.2,8.2,0,0,1-2.11.82,10.9,10.9,0,0,1-2.48.27,6.48,6.48,0,0,1-4.87-2,6.86,6.86,0,0,1-1.91-5,6.81,6.81,0,0,1,7.15-7.15,10.41,10.41,0,0,1,2.21.23,7.52,7.52,0,0,1,1.84.65Z"/><path d="M165.49,52.23a7,7,0,0,0-1.94-.95,7.09,7.09,0,0,0-2.11-.31,5,5,0,0,0-3.85,1.54,5.82,5.82,0,0,0-1.43,4.13,5.09,5.09,0,0,0,1.48,3.76,5.15,5.15,0,0,0,3.8,1.48,6.47,6.47,0,0,0,2.14-.37,8.49,8.49,0,0,0,2.11-1.09v2a8.2,8.2,0,0,1-2.11.82,10.81,10.81,0,0,1-2.47.27,6.49,6.49,0,0,1-4.88-2,6.86,6.86,0,0,1-1.9-5,6.79,6.79,0,0,1,7.14-7.15,10.41,10.41,0,0,1,2.21.23,7.38,7.38,0,0,1,1.84.65Z"/><path d="M168.72,44.79a1.33,1.33,0,0,1,.41-1,1.37,1.37,0,0,1,1-.4,1.34,1.34,0,0,1,1,.4,1.3,1.3,0,0,1,.42,1,1.32,1.32,0,0,1-.4,1,1.46,1.46,0,0,1-2,0A1.33,1.33,0,0,1,168.72,44.79Zm.46,18.06v-13H171v13Z"/><path d="M181.86,63.42a6.6,6.6,0,0,1-2.66-.55,7.59,7.59,0,0,1-2.32-1.58,6.53,6.53,0,0,1-1.49-2.22,7.13,7.13,0,0,1-.51-2.7,7,7,0,0,1,7-7,7.18,7.18,0,0,1,2.73.53,7,7,0,0,1,3.87,9.15,6.82,6.82,0,0,1-1.53,2.24,7.12,7.12,0,0,1-2.34,1.58A6.9,6.9,0,0,1,181.86,63.42Zm.06-1.69a4.84,4.84,0,0,0,3.63-1.54A5.25,5.25,0,0,0,187,56.4a5.32,5.32,0,0,0-1.47-3.81,5.07,5.07,0,0,0-7.26,0,5.65,5.65,0,0,0,0,7.6A4.83,4.83,0,0,0,181.92,61.73Zm-1.95-14,3.12-5.13h2.41l-4.15,5.13Z"/><path d="M192.7,62.85v-13h1.72v2A5.25,5.25,0,0,1,196.36,50a5.5,5.5,0,0,1,2.64-.62A4.27,4.27,0,0,1,203.67,54v8.82h-1.83v-8a4.37,4.37,0,0,0-.81-2.89,3.13,3.13,0,0,0-2.51-.94,3.63,3.63,0,0,0-3,1.22,6.16,6.16,0,0,0-1,3.84v6.79Z"/><path d="M226.6,62.85V60.47a4.67,4.67,0,0,1-4.53,3,5.74,5.74,0,0,1-4.5-1.92,7.34,7.34,0,0,1-1.71-5.07,7.52,7.52,0,0,1,1.69-5.09,5.46,5.46,0,0,1,4.35-2,5.35,5.35,0,0,1,2.85.73,4.79,4.79,0,0,1,1.85,2.13V40.14h1.83V62.85Zm-8.73-6.36A5.94,5.94,0,0,0,219,60.37a4,4,0,0,0,3.25,1.36,3.86,3.86,0,0,0,3.21-1.48,6.47,6.47,0,0,0,1.17-4.1,5.63,5.63,0,0,0-1.16-3.75,4.35,4.35,0,0,0-6.41.08A6.14,6.14,0,0,0,217.87,56.49Z"/><path d="M244.37,56.4H234a6.37,6.37,0,0,0,1.26,4,3.93,3.93,0,0,0,3.18,1.43A4.25,4.25,0,0,0,241,61a5.77,5.77,0,0,0,1.8-2.35l1.66.91A7.25,7.25,0,0,1,242,62.49a6.39,6.39,0,0,1-3.54.93,6,6,0,0,1-4.62-1.91,7.11,7.11,0,0,1-1.77-5,7.5,7.5,0,0,1,1.75-5.16,5.85,5.85,0,0,1,4.58-2,5.5,5.5,0,0,1,4.32,1.81A6.92,6.92,0,0,1,244.37,56Zm-2.14-1.54a3.74,3.74,0,0,0-4-3.75,3.91,3.91,0,0,0-2.75,1,4.14,4.14,0,0,0-1.28,2.72Z"/><path d="M256.42,44.79a1.3,1.3,0,0,1,.42-1,1.32,1.32,0,0,1,1-.4,1.34,1.34,0,0,1,1,.4,1.3,1.3,0,0,1,.42,1,1.32,1.32,0,0,1-.4,1,1.38,1.38,0,0,1-1,.39,1.37,1.37,0,0,1-1.4-1.37Zm.46,18.06v-13h1.86v13Z"/><path d="M263.66,62.85v-13h1.71v2A5.35,5.35,0,0,1,267.32,50a5.48,5.48,0,0,1,2.64-.62A4.27,4.27,0,0,1,274.63,54v8.82H272.8v-8a4.37,4.37,0,0,0-.81-2.89,3.13,3.13,0,0,0-2.51-.94,3.63,3.63,0,0,0-3,1.22,6.16,6.16,0,0,0-1,3.84v6.79Z"/><path d="M279.72,62.85V51.39h-2.44V49.85h2.44V46.1c0-2.6.24-4.3.73-5.07a2.91,2.91,0,0,1,2.68-1.17,5.43,5.43,0,0,1,.92.08,4.91,4.91,0,0,1,.82.23l-.34,1.58a4.1,4.1,0,0,0-.68-.26,2.3,2.3,0,0,0-.6-.09,1.38,1.38,0,0,0-1.35.76,6.49,6.49,0,0,0-.4,2.77v4.92h2.86v1.54H281.5V62.85Z"/><path d="M293,63.42a6.62,6.62,0,0,1-2.67-.55A7.43,7.43,0,0,1,288,61.29a6.56,6.56,0,0,1-1.5-2.22,7.13,7.13,0,0,1-.51-2.7,7,7,0,0,1,.53-2.69A6.85,6.85,0,0,1,288,51.42,7,7,0,0,1,293,49.37a7.15,7.15,0,0,1,5,2.05,7.08,7.08,0,0,1,1.54,2.27,6.79,6.79,0,0,1,.54,2.68,7,7,0,0,1-.53,2.68A6.79,6.79,0,0,1,298,61.29a7.33,7.33,0,0,1-2.34,1.58A6.9,6.9,0,0,1,293,63.42Zm.06-1.69a4.83,4.83,0,0,0,3.62-1.54,5.6,5.6,0,0,0,0-7.6,5.06,5.06,0,0,0-7.25,0,5.62,5.62,0,0,0,0,7.6A4.8,4.8,0,0,0,293,61.73Z"/><path d="M305.6,52.46a8,8,0,0,1,2-2.39,3.64,3.64,0,0,1,2.23-.7,4.08,4.08,0,0,1,.77.07,5.51,5.51,0,0,1,.77.21l-.59,1.7a5.44,5.44,0,0,0-.61-.15,3.23,3.23,0,0,0-.61-.06,3.38,3.38,0,0,0-2.77,1.53,6.08,6.08,0,0,0-1.15,3.79v6.39h-1.8v-13h1.8Z"/><path d="M315.05,62.85h-1.8v-13h1.8v2a4.43,4.43,0,0,1,4.13-2.52,4.37,4.37,0,0,1,2.42.65,4.18,4.18,0,0,1,1.55,1.91,5,5,0,0,1,4.52-2.56,4.29,4.29,0,0,1,3.26,1.25,4.81,4.81,0,0,1,1.18,3.44v8.79h-1.8V54.78a4.54,4.54,0,0,0-.78-2.88,2.85,2.85,0,0,0-2.34-1,3.13,3.13,0,0,0-2.73,1.21,6.73,6.73,0,0,0-.87,3.86v6.84H321.8V54.78a4.62,4.62,0,0,0-.75-2.92,2.8,2.8,0,0,0-2.31-.92,3.23,3.23,0,0,0-2.8,1.23,6.56,6.56,0,0,0-.89,3.84Z"/><path d="M346.51,62.85V60.47a4.74,4.74,0,0,1-4.55,3,5.74,5.74,0,0,1-4.51-1.92,7.33,7.33,0,0,1-1.7-5.07,7.56,7.56,0,0,1,1.68-5.09,5.46,5.46,0,0,1,4.35-2,5.38,5.38,0,0,1,2.86.73,4.71,4.71,0,0,1,1.87,2.13V49.85h1.8v13Zm-8.76-6.36a5.89,5.89,0,0,0,1.14,3.88,4,4,0,0,0,3.24,1.36,3.88,3.88,0,0,0,3.23-1.48,6.41,6.41,0,0,0,1.18-4.1,5.58,5.58,0,0,0-1.17-3.75A4,4,0,0,0,342.16,51a3.92,3.92,0,0,0-3.22,1.45A6.2,6.2,0,0,0,337.75,56.49Z"/><path d="M363.25,52.23a6.94,6.94,0,0,0-1.93-.95,7.14,7.14,0,0,0-2.11-.31,5,5,0,0,0-3.85,1.54,5.82,5.82,0,0,0-1.44,4.13,5.09,5.09,0,0,0,1.49,3.76,5.15,5.15,0,0,0,3.8,1.48,6.37,6.37,0,0,0,2.13-.37,8.38,8.38,0,0,0,2.12-1.09v2a8.2,8.2,0,0,1-2.11.82,10.87,10.87,0,0,1-2.47.27,6.49,6.49,0,0,1-4.88-2,6.86,6.86,0,0,1-1.91-5,6.81,6.81,0,0,1,7.15-7.15,10.41,10.41,0,0,1,2.21.23,7.3,7.3,0,0,1,1.83.65Z"/><path d="M366.49,44.79a1.33,1.33,0,0,1,.41-1,1.35,1.35,0,0,1,1-.4,1.37,1.37,0,0,1,1,.4,1.3,1.3,0,0,1,.42,1,1.32,1.32,0,0,1-.4,1,1.4,1.4,0,0,1-1,.39,1.37,1.37,0,0,1-1.39-1.37ZM367,62.85v-13h1.86v13Z"/><path d="M379.63,63.42a6.57,6.57,0,0,1-2.66-.55,7.47,7.47,0,0,1-2.32-1.58,6.53,6.53,0,0,1-1.49-2.22,7.13,7.13,0,0,1-.51-2.7,6.9,6.9,0,0,1,2-4.95,7,7,0,0,1,4.95-2.05,7.18,7.18,0,0,1,2.73.53,7,7,0,0,1,2.31,1.52,7.11,7.11,0,0,1,1.55,2.27,7,7,0,0,1,.53,2.68,6.83,6.83,0,0,1-2.05,4.92,7.12,7.12,0,0,1-2.34,1.58A6.9,6.9,0,0,1,379.63,63.42Zm.06-1.69a4.84,4.84,0,0,0,3.63-1.54,5.62,5.62,0,0,0,0-7.6,5.06,5.06,0,0,0-7.25,0,5.62,5.62,0,0,0,0,7.6A4.82,4.82,0,0,0,379.69,61.73Zm-1.95-14,3.12-5.13h2.4l-4.14,5.13Z"/><path d="M390.47,62.85v-13h1.72v2A5.25,5.25,0,0,1,394.13,50a5.48,5.48,0,0,1,2.64-.62A4.27,4.27,0,0,1,401.44,54v8.82h-1.83v-8a4.37,4.37,0,0,0-.81-2.89,3.13,3.13,0,0,0-2.51-.94,3.63,3.63,0,0,0-3,1.22,6.16,6.16,0,0,0-1,3.84v6.79Z"/><path d="M419.84,41.12a30.2,30.2,0,0,0-2.34,6.58,31.55,31.55,0,0,0-.78,7.08,33.53,33.53,0,0,0,.78,7.45,25.61,25.61,0,0,0,2.34,6.37l-1.32.78a28.54,28.54,0,0,1-2.61-6.92,33.5,33.5,0,0,1-.87-7.74,31.85,31.85,0,0,1,.87-7.59,27.25,27.25,0,0,1,2.61-6.72Z"/><path d="M423.2,62.85V41.4h3.91a16.38,16.38,0,0,1,3.4.25,5.37,5.37,0,0,1,1.9.82,4.74,4.74,0,0,1,1.57,2,7,7,0,0,1,.55,2.83,5.5,5.5,0,0,1-1.71,4.48c-1.14,1-2.95,1.43-5.42,1.43h-2.25v9.63Zm1.95-11.34h1.33q3.54,0,4.77-.9a3.69,3.69,0,0,0,1.22-3.16,5.18,5.18,0,0,0-.28-1.75,4.36,4.36,0,0,0-.83-1.43,3.11,3.11,0,0,0-1.56-.91,14.79,14.79,0,0,0-3.32-.26h-1.33Z"/><path d="M447.45,56.4H437.13a6.37,6.37,0,0,0,1.26,4,3.93,3.93,0,0,0,3.18,1.43,4.29,4.29,0,0,0,2.52-.77,5.77,5.77,0,0,0,1.8-2.35l1.65.91a7.09,7.09,0,0,1-2.44,2.91,6.38,6.38,0,0,1-3.53.93,6,6,0,0,1-4.63-1.91,7.15,7.15,0,0,1-1.76-5,7.45,7.45,0,0,1,1.75-5.16,5.84,5.84,0,0,1,4.58-2,5.52,5.52,0,0,1,4.32,1.81A7,7,0,0,1,447.45,56Zm-2.13-1.54a3.74,3.74,0,0,0-4.05-3.75,3.88,3.88,0,0,0-2.74,1,4.09,4.09,0,0,0-1.28,2.72Z"/><path d="M453,52.46A8,8,0,0,1,455,50.07a3.69,3.69,0,0,1,2.24-.7,3.91,3.91,0,0,1,.76.07,5.16,5.16,0,0,1,.77.21l-.58,1.7a6,6,0,0,0-.61-.15,3.23,3.23,0,0,0-.61-.06,3.38,3.38,0,0,0-2.77,1.53A6.08,6.08,0,0,0,453,56.46v6.39H451.2v-13H453Z"/><path d="M461.08,62.85V51.39h-2.43V49.85h2.43V46.1c0-2.6.24-4.3.73-5.07a2.91,2.91,0,0,1,2.68-1.17,5.43,5.43,0,0,1,.92.08,4.65,4.65,0,0,1,.82.23l-.33,1.58a4.47,4.47,0,0,0-.68-.26,2.37,2.37,0,0,0-.61-.09,1.38,1.38,0,0,0-1.35.76,6.65,6.65,0,0,0-.4,2.77v4.92h2.86v1.54h-2.86V62.85Z"/><path d="M468.08,44.79a1.38,1.38,0,0,1,1.39-1.38,1.37,1.37,0,0,1,1,.4,1.3,1.3,0,0,1,.42,1,1.36,1.36,0,0,1-.4,1,1.4,1.4,0,0,1-1,.39,1.37,1.37,0,0,1-1-.39A1.32,1.32,0,0,1,468.08,44.79Zm.45,18.06v-13h1.86v13Z"/><path d="M477.29,62.85h-1.86V40.14h1.86Z"/><path d="M501,52.23a7,7,0,0,0-1.94-.95,7.09,7.09,0,0,0-2.11-.31,5,5,0,0,0-3.85,1.54,5.82,5.82,0,0,0-1.44,4.13,5.09,5.09,0,0,0,1.49,3.76,5.15,5.15,0,0,0,3.8,1.48,6.37,6.37,0,0,0,2.13-.37,8.38,8.38,0,0,0,2.12-1.09v2a8.2,8.2,0,0,1-2.11.82,10.87,10.87,0,0,1-2.47.27,6.49,6.49,0,0,1-4.88-2,6.86,6.86,0,0,1-1.91-5A6.81,6.81,0,0,1,497,49.37a10.41,10.41,0,0,1,2.21.23,7.52,7.52,0,0,1,1.84.65Z"/><path d="M506.34,52.46a8,8,0,0,1,2-2.39,3.66,3.66,0,0,1,2.23-.7,4.08,4.08,0,0,1,.77.07,5.16,5.16,0,0,1,.77.21l-.59,1.7a5.26,5.26,0,0,0-.6-.15,3.31,3.31,0,0,0-.61-.06,3.39,3.39,0,0,0-2.78,1.53,6.08,6.08,0,0,0-1.15,3.79v6.39h-1.8v-13h1.8Z"/><path d="M513.65,44.79a1.33,1.33,0,0,1,.41-1,1.35,1.35,0,0,1,1-.4,1.37,1.37,0,0,1,1,.4,1.3,1.3,0,0,1,.42,1,1.36,1.36,0,0,1-.4,1,1.4,1.4,0,0,1-1,.39,1.37,1.37,0,0,1-1-.39A1.32,1.32,0,0,1,513.65,44.79Zm.45,18.06v-13H516v13Z"/><path d="M522.69,62.85h-1.8v-13h1.8v2a4.43,4.43,0,0,1,4.13-2.52,4.41,4.41,0,0,1,2.43.65,4.23,4.23,0,0,1,1.54,1.91,5,5,0,0,1,4.53-2.56,4.29,4.29,0,0,1,3.25,1.25,4.81,4.81,0,0,1,1.18,3.44v8.79H538V54.78a4.54,4.54,0,0,0-.78-2.88,2.84,2.84,0,0,0-2.34-1,3.13,3.13,0,0,0-2.73,1.21,6.73,6.73,0,0,0-.87,3.86v6.84h-1.79V54.78a4.62,4.62,0,0,0-.75-2.92,2.8,2.8,0,0,0-2.31-.92,3.23,3.23,0,0,0-2.8,1.23,6.63,6.63,0,0,0-.89,3.84Z"/><path d="M544.22,44.79a1.33,1.33,0,0,1,.41-1,1.41,1.41,0,0,1,2,0,1.3,1.3,0,0,1,.42,1,1.32,1.32,0,0,1-.4,1,1.4,1.4,0,0,1-1,.39,1.37,1.37,0,0,1-1.39-1.37Zm.46,18.06v-13h1.86v13Z"/><path d="M551.46,62.85v-13h1.71v2A5.4,5.4,0,0,1,555.11,50a5.54,5.54,0,0,1,2.65-.62A4.27,4.27,0,0,1,562.43,54v8.82H560.6v-8a4.37,4.37,0,0,0-.81-2.89,3.15,3.15,0,0,0-2.52-.94,3.65,3.65,0,0,0-3,1.22,6.23,6.23,0,0,0-1,3.84v6.79Z"/><path d="M576.68,62.85V60.47a4.74,4.74,0,0,1-4.55,3,5.74,5.74,0,0,1-4.51-1.92,7.38,7.38,0,0,1-1.7-5.07,7.56,7.56,0,0,1,1.68-5.09,5.87,5.87,0,0,1,7.22-1.24,4.75,4.75,0,0,1,1.86,2.13V49.85h1.81v13Zm-8.76-6.36a5.89,5.89,0,0,0,1.14,3.88,4,4,0,0,0,3.24,1.36,3.88,3.88,0,0,0,3.23-1.48,6.41,6.41,0,0,0,1.18-4.1,5.58,5.58,0,0,0-1.17-3.75A4,4,0,0,0,572.33,51a3.94,3.94,0,0,0-3.22,1.45A6.2,6.2,0,0,0,567.92,56.49Z"/><path d="M585.3,62.85h-1.86V40.14h1.86Z"/><path d="M588.5,41.12l1.31-.71a26.54,26.54,0,0,1,2.63,6.72,31.85,31.85,0,0,1,.87,7.59,33,33,0,0,1-.88,7.74,28.16,28.16,0,0,1-2.62,6.92l-1.31-.78a25.75,25.75,0,0,0,2.35-6.4,33.41,33.41,0,0,0,.77-7.42,31.39,31.39,0,0,0-.77-7A30.4,30.4,0,0,0,588.5,41.12Z"/></svg>