<svg xmlns="http://www.w3.org/2000/svg" viewBox="0 0 340.51 320.4"><defs><style>.cls-1{isolation:isolate;}.cls-2{fill:#fff;}.cls-3{fill:#d31c25;}.cls-4{fill:#4d4d4d;}.cls-5{fill:gray;}.cls-6{fill:none;stroke:#666;stroke-miterlimit:10;stroke-width:2px;}.cls-7{fill:#ff4335;}.cls-8{fill:#9e151c;}.cls-9{fill:#301404;opacity:0.25;mix-blend-mode:multiply;}</style></defs><title>copes</title><g class="cls-1"><g id="Capa_2" data-name="Capa 2"><g id="ALERTAS"><path class="cls-2" d="M327.43,0H13.08A13.07,13.07,0,0,0,0,13.08v98.08a13.07,13.07,0,0,0,13.08,13.08h130l26.57,46,26.56-46H327.43a13.07,13.07,0,0,0,13.08-13.08V13.08A13.07,13.07,0,0,0,327.43,0Z"/><path class="cls-2" d="M22.78,11.48h99.11A1.54,1.54,0,0,1,123.43,13v99.56a1.54,1.54,0,0,1-1.54,1.54H22.78a5.84,5.84,0,0,1-5.84-5.84v-91A5.84,5.84,0,0,1,22.78,11.48Z"/><path class="cls-3" d="M125,11.48H317.73a5.84,5.84,0,0,1,5.84,5.84v91a5.84,5.84,0,0,1-5.84,5.84H125a1.54,1.54,0,0,1-1.54-1.54V13A1.54,1.54,0,0,1,125,11.48Z"/><ellipse class="cls-4" cx="72.47" cy="78.78" rx="28.72" ry="12.64"/><rect class="cls-4" x="43.76" y="74.79" width="57.43" height="3.95" rx="1.54"/><ellipse class="cls-5" cx="72.47" cy="74.33" rx="28.72" ry="12.64"/><ellipse class="cls-6" cx="72.47" cy="74.33" rx="26.75" ry="10.67"/><ellipse class="cls-3" cx="72.85" cy="74.83" rx="23.97" ry="7.18"/><path class="cls-3" d="M49.29,72.47l5.35-30.39a2,2,0,0,1,1.94-1.63H89.12a2,2,0,0,1,1.94,1.63l5.35,30.39a2,2,0,0,1-1.94,2.32H51.23A2,2,0,0,1,49.29,72.47Z"/><ellipse class="cls-3" cx="72.85" cy="40.49" rx="17.93" ry="7.18"/><path class="cls-7" d="M72.85,46a33.73,33.73,0,0,1-12-2c-2.59-1-4.2-2.39-4.2-3.52S58.21,38,60.8,37a33.51,33.51,0,0,1,12-2A33.51,33.51,0,0,1,84.9,37c2.59,1,4.2,2.39,4.2,3.52S87.49,43,84.9,44A33.73,33.73,0,0,1,72.85,46Z"/><path class="cls-7" d="M55.12,47.8,50.8,73.44A1.87,1.87,0,0,0,51,74.71c.66,1.11,2.92,3,10.49,3.88a2,2,0,0,0,2.18-1.67l3.87-26.05a2,2,0,0,0-1.66-2.24,28,28,0,0,1-8-2.27A2,2,0,0,0,55.12,47.8Z"/><circle class="cls-8" cx="78.96" cy="75.46" r="2.86"/><path class="cls-8" d="M75.23,51.9,76.11,67A2.91,2.91,0,0,0,78.83,70a2.86,2.86,0,0,0,3-2.86l.88-15.2a1.28,1.28,0,0,0-1.28-1.28H76.51A1.28,1.28,0,0,0,75.23,51.9Z"/><circle class="cls-2" cx="80.54" cy="74.28" r="2.86"/><path class="cls-2" d="M76.8,50.72l.88,15.11a2.92,2.92,0,0,0,2.73,3,2.85,2.85,0,0,0,3-2.86l.88-15.2A1.28,1.28,0,0,0,83,49.44H78.08A1.28,1.28,0,0,0,76.8,50.72Z"/><path class="cls-2" d="M148.76,34.51a2.74,2.74,0,0,1,.83-2,2.8,2.8,0,0,1,2-.82,2.69,2.69,0,0,1,2,.82,2.81,2.81,0,0,1-2,4.79,2.78,2.78,0,0,1-2-.81A2.7,2.7,0,0,1,148.76,34.51Zm.48,5.33h4.69V57.06h-4.69Z"/><path class="cls-2" d="M158.46,56.41l9.2-24.17h5.91l9.33,24.17H177l-2-5.13H165.7L164,56.41Zm15.39-9.19-2.71-7.81c-.07-.23-.17-.63-.29-1.19s-.25-1.25-.38-2.06c-.15.78-.28,1.48-.42,2.1s-.23,1-.29,1.25l-2.61,7.71Z"/><path class="cls-2" d="M186.79,56.41V32.24H192V52h8.25v4.39Z"/><path class="cls-2" d="M204.82,56.41V32.24h14.23V36.6H210v5h9.06V46H210V52h9.06v4.39Z"/><path class="cls-2" d="M243,56.41h-6l-6.35-11.29V56.41h-5.17V32.24h7.4q4.41,0,6.6,1.71a6.14,6.14,0,0,1,2.2,5.15,6.28,6.28,0,0,1-1.51,4.25,5.86,5.86,0,0,1-3.87,2.07ZM230.64,42.55h.77c2.1,0,3.48-.23,4.15-.69a2.68,2.68,0,0,0,1-2.38,2.88,2.88,0,0,0-1.09-2.54,7.68,7.68,0,0,0-4.07-.75h-.77Z"/><path class="cls-2" d="M256.34,36.64V56.41h-5.18V36.64h-5.91v-4.4h17v4.4Z"/><path class="cls-2" d="M262.27,56.41l9.19-24.17h5.91l9.33,24.17h-5.88l-2-5.13H269.5l-1.69,5.13Zm15.38-9.19L275,39.41a11.51,11.51,0,0,1-.3-1.19c-.12-.56-.25-1.25-.38-2.06-.14.78-.28,1.48-.41,2.1s-.23,1-.3,1.25L271,47.22Z"/><path class="cls-2" d="M290.73,54.22a2.69,2.69,0,0,1,.82-2,2.87,2.87,0,0,1,4,0,2.72,2.72,0,0,1,.81,2,2.76,2.76,0,0,1-.81,2,2.71,2.71,0,0,1-2,.83,2.74,2.74,0,0,1-2-.84A2.78,2.78,0,0,1,290.73,54.22Zm.48-5.35V31.7h4.69V48.87Z"/><path class="cls-2" d="M168.09,77a10.89,10.89,0,0,0-3.22-2,9.43,9.43,0,0,0-3.53-.66,8.3,8.3,0,0,0-6.16,2.32,8.41,8.41,0,0,0-2.29,6.2,8.4,8.4,0,0,0,2.13,6,7.59,7.59,0,0,0,5.81,2.24,10.58,10.58,0,0,0,3.89-.7,10.74,10.74,0,0,0,3.34-2.11l0,5.3a13.71,13.71,0,0,1-3.45,1.46,14.84,14.84,0,0,1-3.81.48A13.07,13.07,0,0,1,151.28,92a13,13,0,0,1,0-18.22,13.23,13.23,0,0,1,9.58-3.59,17,17,0,0,1,3.8.42,16.72,16.72,0,0,1,3.61,1.27Z"/><path class="cls-2" d="M199,82.87a12.66,12.66,0,0,1-1,4.9,12,12,0,0,1-2.78,4.06A13.41,13.41,0,0,1,191,94.59a12.83,12.83,0,0,1-9.22.2,13.18,13.18,0,0,1-3.88-2.15,12.38,12.38,0,0,1-3.5-4.34A12.88,12.88,0,0,1,174.15,78,12.21,12.21,0,0,1,177,73.9a13.26,13.26,0,0,1,9.17-3.71,12.87,12.87,0,0,1,4.91,1,13.18,13.18,0,0,1,4.22,2.74A12.27,12.27,0,0,1,198,78,12.54,12.54,0,0,1,199,82.87Zm-12.87,8.07a7.08,7.08,0,0,0,5.42-2.3,8.83,8.83,0,0,0,0-11.55,7.45,7.45,0,0,0-10.85,0,8.87,8.87,0,0,0,0,11.57A7.13,7.13,0,0,0,186.12,90.94Z"/><path class="cls-2" d="M204.71,94.9V70.73h5.94q4.75,0,7,1.82c1.52,1.21,2.27,3.08,2.27,5.61a7,7,0,0,1-2.28,5.52,9.33,9.33,0,0,1-6.33,2h-1.42V94.9Zm5.2-13.26h.74a4.49,4.49,0,0,0,3.07-.87,3.63,3.63,0,0,0,1-2.81,3.24,3.24,0,0,0-1-2.6,4.72,4.72,0,0,0-3.07-.81h-.74Z"/><path class="cls-2" d="M224.86,94.9V70.73h14.23v4.36H230v5h9.06v4.39H230v6.06h9.06V94.9Z"/><path class="cls-2" d="M244,91.83l2.87-3.25a4.45,4.45,0,0,0,1.75,2.1,4.89,4.89,0,0,0,2.71.77,4.37,4.37,0,0,0,2.87-.86,2.8,2.8,0,0,0,1.06-2.31q0-1.71-3.52-3.42c-.75-.36-1.35-.66-1.79-.89a13.47,13.47,0,0,1-4.4-3.22,6.32,6.32,0,0,1,1.15-8.67,9.47,9.47,0,0,1,6.15-1.93,8.69,8.69,0,0,1,3.79.77,7.65,7.65,0,0,1,2.81,2.4l-3.05,2.93a3.7,3.7,0,0,0-1.44-1.58,4.26,4.26,0,0,0-2.18-.52,3.8,3.8,0,0,0-2.47.77,2.43,2.43,0,0,0-.94,2q0,1.91,3.73,3.5l1.14.49a12.89,12.89,0,0,1,4.55,3.17,6.13,6.13,0,0,1,1.47,4,6.8,6.8,0,0,1-2.32,5.42,9.12,9.12,0,0,1-6.23,2,10.79,10.79,0,0,1-4.75-1A6.46,6.46,0,0,1,244,91.83Z"/><ellipse class="cls-9" cx="170.26" cy="297.27" rx="86.04" ry="23.13"/></g></g></g></svg>