<svg id="fondos" xmlns="http://www.w3.org/2000/svg" viewBox="0 0 838.12 100.16"><defs><style>.cls-1{fill:#e6e6e6;}</style></defs><title>copes5</title><rect class="cls-1" width="838.12" height="100.16"/><path d="M72.53,61H70.16L62.63,50.73H61.45V61h-2V39.51h4A8,8,0,0,1,68.67,41a5.41,5.41,0,0,1,1.73,4.4,5.23,5.23,0,0,1-1.48,3.94,5.66,5.66,0,0,1-4.1,1.43ZM61.45,41.21v7.93h2a6.22,6.22,0,0,0,3.8-.87,3.64,3.64,0,0,0,1.07-3,3.94,3.94,0,0,0-1.11-3.15,5.91,5.91,0,0,0-3.76-.94Z"/><path d="M85.71,54.51H75.38a6.37,6.37,0,0,0,1.26,4,3.91,3.91,0,0,0,3.18,1.43,4.18,4.18,0,0,0,2.52-.77,5.6,5.6,0,0,0,1.8-2.35l1.66.91a7.17,7.17,0,0,1-2.44,2.91,6.39,6.39,0,0,1-3.54.93,6,6,0,0,1-4.62-1.91,7.1,7.1,0,0,1-1.76-5,7.41,7.41,0,0,1,1.75-5.15,5.82,5.82,0,0,1,4.57-2,5.57,5.57,0,0,1,4.33,1.81,7,7,0,0,1,1.62,4.83ZM83.57,53a4,4,0,0,0-1.18-2.77,4,4,0,0,0-2.86-1,3.92,3.92,0,0,0-2.75,1A4.19,4.19,0,0,0,75.5,53Z"/><path d="M99.06,61V58.59a5.06,5.06,0,0,1-1.81,2.19,5,5,0,0,1-2.75.75A5.72,5.72,0,0,1,90,59.61a7.34,7.34,0,0,1-1.71-5.07A7.58,7.58,0,0,1,90,49.45a5.49,5.49,0,0,1,4.36-2,5.41,5.41,0,0,1,2.86.73,4.71,4.71,0,0,1,1.87,2.13V48h1.8V61ZM90.3,54.6a5.87,5.87,0,0,0,1.13,3.88,4,4,0,0,0,3.25,1.37,3.92,3.92,0,0,0,3.23-1.49,6.47,6.47,0,0,0,1.18-4.1,5.58,5.58,0,0,0-1.18-3.75,4,4,0,0,0-3.2-1.37,3.92,3.92,0,0,0-3.23,1.46A6.15,6.15,0,0,0,90.3,54.6Z"/><path d="M107.67,61h-1.86V38.25h1.86Z"/><path d="M112.25,42.9a1.32,1.32,0,0,1,.42-1,1.36,1.36,0,0,1,1-.4,1.38,1.38,0,0,1,1,.4,1.38,1.38,0,0,1,0,2,1.38,1.38,0,0,1-1,.39,1.34,1.34,0,0,1-1-.39A1.31,1.31,0,0,1,112.25,42.9ZM112.71,61V48h1.86V61Z"/><path d="M117.42,61l7.26-11.37h-6.76V48h9.88l-7.2,11.36H128V61Z"/><path d="M140.51,61V58.59a5,5,0,0,1-1.81,2.19,4.93,4.93,0,0,1-2.74.75,5.74,5.74,0,0,1-4.51-1.92,7.33,7.33,0,0,1-1.7-5.07,7.58,7.58,0,0,1,1.68-5.09,5.46,5.46,0,0,1,4.35-2,5.38,5.38,0,0,1,2.86.73,4.71,4.71,0,0,1,1.87,2.13V48h1.8V61Zm-8.76-6.36a5.87,5.87,0,0,0,1.14,3.88,4,4,0,0,0,3.24,1.37,3.89,3.89,0,0,0,3.23-1.49,6.41,6.41,0,0,0,1.18-4.1,5.58,5.58,0,0,0-1.17-3.75,4,4,0,0,0-3.21-1.37,3.9,3.9,0,0,0-3.22,1.46A6.15,6.15,0,0,0,131.75,54.6Z"/><path d="M149,50.57a7.65,7.65,0,0,1,2-2.38,3.64,3.64,0,0,1,2.23-.71,4.11,4.11,0,0,1,.77.08,4.37,4.37,0,0,1,.77.2l-.59,1.7a5.44,5.44,0,0,0-.61-.15,3.2,3.2,0,0,0-.61-.05,3.36,3.36,0,0,0-2.77,1.52A6.08,6.08,0,0,0,149,54.57V61h-1.8V48H149Z"/><path d="M165.24,61V48H167v2a5.29,5.29,0,0,1,1.94-1.86,5.44,5.44,0,0,1,2.65-.63,4.27,4.27,0,0,1,4.67,4.66V61h-1.83V53a4.38,4.38,0,0,0-.81-2.9,3.15,3.15,0,0,0-2.52-.94,3.68,3.68,0,0,0-3,1.22,6.17,6.17,0,0,0-1,3.85V61Z"/><path d="M192,54.51H181.7a6.37,6.37,0,0,0,1.26,4,3.9,3.9,0,0,0,3.18,1.43,4.18,4.18,0,0,0,2.52-.77,5.77,5.77,0,0,0,1.8-2.35l1.66.91a7.25,7.25,0,0,1-2.44,2.91,6.39,6.39,0,0,1-3.54.93,6,6,0,0,1-4.62-1.91,7.11,7.11,0,0,1-1.77-5,7.46,7.46,0,0,1,1.75-5.15,5.86,5.86,0,0,1,4.58-2,5.53,5.53,0,0,1,4.32,1.81A6.94,6.94,0,0,1,192,54.12ZM189.89,53a3.72,3.72,0,0,0-4-3.75,3.9,3.9,0,0,0-2.75,1A4.14,4.14,0,0,0,181.82,53Z"/><path d="M207.21,48V58.7c0,1.71-.05,3-.14,3.91a6.3,6.3,0,0,1-.47,2,4.38,4.38,0,0,1-2.06,2.16,7.63,7.63,0,0,1-3.52.71,7,7,0,0,1-4-1,4.27,4.27,0,0,1-1.75-3h2.25a2.66,2.66,0,0,0,1.15,1.82,4.55,4.55,0,0,0,2.53.61,5.34,5.34,0,0,0,2.16-.42,3.19,3.19,0,0,0,1.91-2.3,10.45,10.45,0,0,0,.13-2V58.56a4.82,4.82,0,0,1-1.83,2.18,5.14,5.14,0,0,1-2.84.79,5.47,5.47,0,0,1-4.37-1.9,7.6,7.6,0,0,1-1.63-5.12,7.46,7.46,0,0,1,1.67-5.1,5.56,5.56,0,0,1,4.42-1.93,5.08,5.08,0,0,1,2.79.8,4.44,4.44,0,0,1,1.79,2.12V48ZM201,49.14a3.89,3.89,0,0,0-3.19,1.44,6.11,6.11,0,0,0-1.17,4,6.17,6.17,0,0,0,1.11,3.91,3.71,3.71,0,0,0,3.07,1.4,4.15,4.15,0,0,0,3.33-1.48,6,6,0,0,0,1.25-4,5.81,5.81,0,0,0-1.17-3.85A4,4,0,0,0,201,49.14Z"/><path d="M221.6,61V58.59a4.68,4.68,0,0,1-4.55,2.94,5.71,5.71,0,0,1-4.5-1.92,7.34,7.34,0,0,1-1.71-5.07,7.58,7.58,0,0,1,1.68-5.09,5.49,5.49,0,0,1,4.35-2,5.42,5.42,0,0,1,2.87.73,4.69,4.69,0,0,1,1.86,2.13V48h1.81V61Zm-8.76-6.36A5.87,5.87,0,0,0,214,58.48a4,4,0,0,0,3.25,1.37,3.92,3.92,0,0,0,3.23-1.49,6.47,6.47,0,0,0,1.17-4.1,5.58,5.58,0,0,0-1.17-3.75,4,4,0,0,0-3.21-1.37A3.92,3.92,0,0,0,214,50.6,6.15,6.15,0,0,0,212.84,54.6Z"/><path d="M238.35,50.34a7.07,7.07,0,0,0-1.93-1,7.19,7.19,0,0,0-2.11-.31,5,5,0,0,0-3.86,1.55A5.83,5.83,0,0,0,229,54.75a5.07,5.07,0,0,0,1.48,3.76A5.17,5.17,0,0,0,234.31,60a6.71,6.71,0,0,0,2.13-.36,8.36,8.36,0,0,0,2.11-1.1v2a7.71,7.71,0,0,1-2.11.81,10.81,10.81,0,0,1-2.47.27,6.5,6.5,0,0,1-4.88-2,6.86,6.86,0,0,1-1.9-5,6.81,6.81,0,0,1,7.15-7.15,10.31,10.31,0,0,1,2.2.23,7.38,7.38,0,0,1,1.84.65Z"/><path d="M241.59,42.9a1.31,1.31,0,0,1,.41-1,1.38,1.38,0,0,1,1-.4,1.42,1.42,0,0,1,1,.4,1.39,1.39,0,0,1,0,2,1.46,1.46,0,0,1-2,0A1.3,1.3,0,0,1,241.59,42.9ZM242,61V48h1.86V61Z"/><path d="M254.73,61.53a6.62,6.62,0,0,1-2.67-.55,7.4,7.4,0,0,1-2.31-1.57,6.55,6.55,0,0,1-1.5-2.23,7.13,7.13,0,0,1-.51-2.7,7,7,0,0,1,.52-2.69,7.17,7.17,0,0,1,1.51-2.26,7,7,0,0,1,5-2.05,7.25,7.25,0,0,1,2.73.53,7,7,0,0,1,2.3,1.52,7,7,0,0,1,1.55,2.27,6.82,6.82,0,0,1,.53,2.68,7,7,0,0,1-.52,2.68,6.81,6.81,0,0,1-1.53,2.25A7.15,7.15,0,0,1,257.46,61,7,7,0,0,1,254.73,61.53Zm.05-1.68a4.85,4.85,0,0,0,3.63-1.55,5.59,5.59,0,0,0,0-7.59,4.84,4.84,0,0,0-3.64-1.54,4.79,4.79,0,0,0-3.61,1.54,5.61,5.61,0,0,0,0,7.59A4.8,4.8,0,0,0,254.78,59.85Zm-1.94-14L256,40.74h2.4l-4.15,5.13Z"/><path d="M265.57,61V48h1.71v2a5.21,5.21,0,0,1,1.94-1.86,5.42,5.42,0,0,1,2.64-.63,4.27,4.27,0,0,1,4.68,4.66V61h-1.83V53a4.38,4.38,0,0,0-.82-2.9,3.13,3.13,0,0,0-2.51-.94,3.66,3.66,0,0,0-3,1.22,6.17,6.17,0,0,0-1,3.85V61Z"/></svg>