<svg id="fondos" xmlns="http://www.w3.org/2000/svg" viewBox="0 0 838.12 100.16"><defs><style>.cls-1{fill:#e6e6e6;}</style></defs><title>esmad4</title><rect class="cls-1" width="838.12" height="100.16"/><path d="M69.29,60.73,61.76,43.52,60.14,59.9h-2L61,37.54l8.22,19.09,8.53-19.09L80.54,59.9h-2L76.94,43.52Z"/><path d="M93.91,59.9V57.52a4.88,4.88,0,0,1-1.81,2.19,4.94,4.94,0,0,1-2.74.76,5.74,5.74,0,0,1-4.51-1.92,7.38,7.38,0,0,1-1.7-5.07,7.56,7.56,0,0,1,1.68-5.09,5.89,5.89,0,0,1,7.22-1.25,4.8,4.8,0,0,1,1.86,2.13V46.9h1.81v13Zm-8.76-6.36a5.89,5.89,0,0,0,1.14,3.88,4,4,0,0,0,3.24,1.36,3.92,3.92,0,0,0,3.24-1.48,6.49,6.49,0,0,0,1.17-4.1,5.62,5.62,0,0,0-1.17-3.76,4,4,0,0,0-3.21-1.37,4,4,0,0,0-3.22,1.46A6.18,6.18,0,0,0,85.15,53.54Z"/><path d="M100.55,59.9v-13h1.71v2A5.4,5.4,0,0,1,104.2,47a5.54,5.54,0,0,1,2.65-.62,4.27,4.27,0,0,1,4.67,4.66V59.9h-1.83v-8a4.35,4.35,0,0,0-.81-2.89,3.14,3.14,0,0,0-2.51-1,3.64,3.64,0,0,0-3,1.23,6.12,6.12,0,0,0-1,3.84V59.9Z"/><path d="M127.34,53.45H117a6.25,6.25,0,0,0,1.25,3.95,3.93,3.93,0,0,0,3.18,1.44,4.19,4.19,0,0,0,2.52-.78,5.5,5.5,0,0,0,1.8-2.34l1.66.91A7.17,7.17,0,0,1,125,59.54a6.39,6.39,0,0,1-3.54.93,6,6,0,0,1-4.62-1.91,7.1,7.1,0,0,1-1.76-5,7.45,7.45,0,0,1,1.75-5.16,5.82,5.82,0,0,1,4.57-2,5.54,5.54,0,0,1,4.33,1.81,6.94,6.94,0,0,1,1.62,4.82Zm-2.14-1.54A4,4,0,0,0,124,49.14a4.07,4.07,0,0,0-2.86-1,3.88,3.88,0,0,0-2.75,1,4.19,4.19,0,0,0-1.28,2.72Z"/><path d="M130.76,41.83a1.29,1.29,0,0,1,.41-1,1.34,1.34,0,0,1,1-.4,1.37,1.37,0,0,1,1,.4,1.32,1.32,0,0,1,.41,1,1.34,1.34,0,0,1-.4,1,1.46,1.46,0,0,1-2,0A1.34,1.34,0,0,1,130.76,41.83Zm.45,24.6V46.9h1.86V66.43Z"/><path d="M143.89,60.47a6.78,6.78,0,0,1-2.66-.55,7.59,7.59,0,0,1-2.32-1.58,6.53,6.53,0,0,1-1.49-2.22,7.13,7.13,0,0,1-.51-2.7,6.93,6.93,0,0,1,.52-2.69A7,7,0,0,1,141.21,47a6.82,6.82,0,0,1,2.68-.53,7.11,7.11,0,0,1,5,2,6.85,6.85,0,0,1,1.55,2.27,6.78,6.78,0,0,1,.53,2.68,6.87,6.87,0,0,1-.52,2.67A6.62,6.62,0,0,1,149,58.34a7.1,7.1,0,0,1-5.07,2.13Zm.06-1.69a4.84,4.84,0,0,0,3.63-1.54,5.6,5.6,0,0,0,0-7.6A4.88,4.88,0,0,0,144,48.1a4.83,4.83,0,0,0-3.61,1.54,5.62,5.62,0,0,0,0,7.6A4.79,4.79,0,0,0,144,58.78Z"/><path d="M173,59.9V57.52a4.67,4.67,0,0,1-4.52,2.95A5.74,5.74,0,0,1,164,58.55a7.34,7.34,0,0,1-1.71-5.07A7.57,7.57,0,0,1,164,48.39a5.86,5.86,0,0,1,7.2-1.25A4.9,4.9,0,0,1,173,49.27V37.19h1.83V59.9Zm-8.73-6.36a5.89,5.89,0,0,0,1.14,3.88,4,4,0,0,0,3.24,1.36,3.86,3.86,0,0,0,3.21-1.48A6.49,6.49,0,0,0,173,53.2a5.67,5.67,0,0,0-1.16-3.76,4.34,4.34,0,0,0-6.41.09A6.18,6.18,0,0,0,164.27,53.54Z"/><path d="M190.77,53.45H180.44a6.31,6.31,0,0,0,1.26,3.95,3.91,3.91,0,0,0,3.18,1.44,4.19,4.19,0,0,0,2.52-.78,5.66,5.66,0,0,0,1.8-2.34l1.66.91a7.25,7.25,0,0,1-2.44,2.91,6.39,6.39,0,0,1-3.54.93,6,6,0,0,1-4.62-1.91,7.11,7.11,0,0,1-1.77-5,7.5,7.5,0,0,1,1.75-5.16,5.85,5.85,0,0,1,4.58-2,5.5,5.5,0,0,1,4.32,1.81,6.9,6.9,0,0,1,1.63,4.82Zm-2.14-1.54a3.72,3.72,0,0,0-4-3.75,3.86,3.86,0,0,0-2.75,1,4.14,4.14,0,0,0-1.28,2.72Z"/><path d="M212.76,59.9V57.52A4.88,4.88,0,0,1,211,59.71a5,5,0,0,1-2.75.76,5.72,5.72,0,0,1-4.5-1.92A7.34,7.34,0,0,1,202,53.48a7.52,7.52,0,0,1,1.69-5.09,5.88,5.88,0,0,1,7.21-1.25,4.82,4.82,0,0,1,1.87,2.13V46.9h1.8v13ZM204,53.54a5.94,5.94,0,0,0,1.13,3.88,4,4,0,0,0,3.25,1.36,3.91,3.91,0,0,0,3.23-1.48,6.49,6.49,0,0,0,1.18-4.1,5.57,5.57,0,0,0-1.18-3.76,4.36,4.36,0,0,0-6.43.09A6.18,6.18,0,0,0,204,53.54Z"/><path d="M221.19,49.51a8.13,8.13,0,0,1,2-2.39,3.66,3.66,0,0,1,2.23-.7,4,4,0,0,1,.77.07,5.16,5.16,0,0,1,.77.21l-.58,1.7a6,6,0,0,0-.61-.15,3.23,3.23,0,0,0-.61-.06,3.42,3.42,0,0,0-2.78,1.52,6.17,6.17,0,0,0-1.15,3.8V59.9h-1.8v-13h1.8Z"/><path d="M230.64,59.9h-1.8v-13h1.8v2a4.72,4.72,0,0,1,1.7-1.88,4.59,4.59,0,0,1,2.43-.64,4.41,4.41,0,0,1,2.43.65A4.16,4.16,0,0,1,238.74,49a5.24,5.24,0,0,1,1.91-1.92,5.16,5.16,0,0,1,2.62-.64,4.27,4.27,0,0,1,3.25,1.25,4.81,4.81,0,0,1,1.19,3.44V59.9h-1.8V51.82a4.5,4.5,0,0,0-.79-2.87,2.83,2.83,0,0,0-2.33-1,3.16,3.16,0,0,0-2.74,1.21,6.72,6.72,0,0,0-.87,3.85V59.9H237.4V51.82a4.59,4.59,0,0,0-.75-2.91,2.79,2.79,0,0,0-2.32-.92,3.2,3.2,0,0,0-2.79,1.23,6.53,6.53,0,0,0-.9,3.83Z"/><path d="M262.11,59.9V57.52a4.88,4.88,0,0,1-1.81,2.19,5,5,0,0,1-2.75.76,5.72,5.72,0,0,1-4.5-1.92,7.34,7.34,0,0,1-1.71-5.07A7.52,7.52,0,0,1,253,48.39a5.88,5.88,0,0,1,7.21-1.25,4.82,4.82,0,0,1,1.87,2.13V46.9h1.8v13Zm-8.76-6.36a5.94,5.94,0,0,0,1.13,3.88,4,4,0,0,0,3.25,1.36A3.9,3.9,0,0,0,261,57.3a6.49,6.49,0,0,0,1.18-4.1A5.62,5.62,0,0,0,261,49.44a4,4,0,0,0-3.21-1.37,4,4,0,0,0-3.23,1.46A6.18,6.18,0,0,0,253.35,53.54Z"/><path d="M267.26,57.58l1.72-1a3.35,3.35,0,0,0,1.23,1.63,3.4,3.4,0,0,0,2,.55A2.66,2.66,0,0,0,274,58.2a1.92,1.92,0,0,0,.68-1.54c0-1-.89-1.84-2.66-2.54a3.49,3.49,0,0,1-.43-.17,8.34,8.34,0,0,1-2.88-1.66,3,3,0,0,1-.82-2.12,3.49,3.49,0,0,1,1.18-2.72,4.32,4.32,0,0,1,3-1.06,5,5,0,0,1,2.69.69,3.94,3.94,0,0,1,1.63,2l-1.66.92a2.59,2.59,0,0,0-1-1.4,3,3,0,0,0-1.76-.49,2.28,2.28,0,0,0-1.55.55,1.8,1.8,0,0,0-.6,1.37,1.72,1.72,0,0,0,.6,1.34,8.09,8.09,0,0,0,2.49,1.15,6.77,6.77,0,0,1,2.88,1.63,3.67,3.67,0,0,1,.74,2.43,3.56,3.56,0,0,1-1.28,2.86,5.87,5.87,0,0,1-6.27.31A4.25,4.25,0,0,1,267.26,57.58Z"/><path d="M290.64,59.9h-1.8v-13h1.8v2a4.72,4.72,0,0,1,1.7-1.88,4.59,4.59,0,0,1,2.43-.64,4.41,4.41,0,0,1,2.43.65A4.16,4.16,0,0,1,298.74,49a5.24,5.24,0,0,1,1.91-1.92,5.16,5.16,0,0,1,2.62-.64,4.27,4.27,0,0,1,3.25,1.25,4.81,4.81,0,0,1,1.19,3.44V59.9h-1.8V51.82a4.5,4.5,0,0,0-.79-2.87,2.83,2.83,0,0,0-2.33-1,3.16,3.16,0,0,0-2.74,1.21,6.72,6.72,0,0,0-.87,3.85V59.9H297.4V51.82a4.59,4.59,0,0,0-.75-2.91,2.79,2.79,0,0,0-2.32-.92,3.2,3.2,0,0,0-2.79,1.23,6.53,6.53,0,0,0-.9,3.83Z"/><path d="M323.68,53.45H313.35a6.31,6.31,0,0,0,1.26,3.95,3.91,3.91,0,0,0,3.18,1.44,4.23,4.23,0,0,0,2.52-.78,5.66,5.66,0,0,0,1.8-2.34l1.65.91a7.09,7.09,0,0,1-2.44,2.91,6.38,6.38,0,0,1-3.53.93,6,6,0,0,1-4.62-1.91,7.11,7.11,0,0,1-1.77-5,7.45,7.45,0,0,1,1.75-5.16,5.84,5.84,0,0,1,4.58-2,5.52,5.52,0,0,1,4.32,1.81,6.94,6.94,0,0,1,1.63,4.82Zm-2.14-1.54a3.72,3.72,0,0,0-4.05-3.75,3.84,3.84,0,0,0-2.74,1,4.09,4.09,0,0,0-1.28,2.72Z"/><path d="M327.43,59.9v-13h1.71v2A5.32,5.32,0,0,1,331.08,47a5.53,5.53,0,0,1,2.64-.62,4.27,4.27,0,0,1,4.68,4.66V59.9h-1.83v-8a4.35,4.35,0,0,0-.82-2.89,3.14,3.14,0,0,0-2.51-1,3.64,3.64,0,0,0-3,1.23,6.12,6.12,0,0,0-1,3.84V59.9Z"/><path d="M349,60.47a6.79,6.79,0,0,1-2.67-.55A7.43,7.43,0,0,1,344,58.34a6.56,6.56,0,0,1-1.5-2.22,7.13,7.13,0,0,1-.51-2.7,6.94,6.94,0,0,1,.53-2.69A6.75,6.75,0,0,1,344,48.47,6.92,6.92,0,0,1,346.28,47a6.78,6.78,0,0,1,2.68-.53,7,7,0,0,1,2.73.53A7.08,7.08,0,0,1,354,48.47a6.95,6.95,0,0,1,1.55,7.62A6.73,6.73,0,0,1,354,58.34a7.33,7.33,0,0,1-2.34,1.58A7.08,7.08,0,0,1,349,60.47Zm.06-1.69a4.83,4.83,0,0,0,3.62-1.54,5.6,5.6,0,0,0,0-7.6,5,5,0,0,0-7.25,0,5.62,5.62,0,0,0,0,7.6A4.82,4.82,0,0,0,349,58.78Z"/><path d="M358.32,57.58l1.71-1a3.47,3.47,0,0,0,1.23,1.63,3.42,3.42,0,0,0,2,.55,2.69,2.69,0,0,0,1.82-.58,1.92,1.92,0,0,0,.67-1.54c0-1-.88-1.84-2.65-2.54a3.75,3.75,0,0,1-.44-.17,8.27,8.27,0,0,1-2.87-1.66,3,3,0,0,1-.82-2.12,3.52,3.52,0,0,1,1.17-2.72,4.32,4.32,0,0,1,3-1.06,5,5,0,0,1,2.7.69,4,4,0,0,1,1.62,2l-1.65.92a2.66,2.66,0,0,0-1-1.4,3,3,0,0,0-1.75-.49,2.24,2.24,0,0,0-1.55.55,1.77,1.77,0,0,0-.61,1.37,1.72,1.72,0,0,0,.6,1.34A8.09,8.09,0,0,0,364,52.48a6.64,6.64,0,0,1,2.88,1.63,3.67,3.67,0,0,1,.74,2.43,3.55,3.55,0,0,1-1.27,2.86,5.19,5.19,0,0,1-3.43,1.07,5.27,5.27,0,0,1-2.85-.76A4.18,4.18,0,0,1,358.32,57.58Z"/><path d="M381.87,59.9H380V37.19h1.86Z"/><path d="M398,53.45H387.63a6.31,6.31,0,0,0,1.26,3.95,3.91,3.91,0,0,0,3.18,1.44,4.19,4.19,0,0,0,2.52-.78,5.66,5.66,0,0,0,1.8-2.34l1.66.91a7.25,7.25,0,0,1-2.44,2.91,6.42,6.42,0,0,1-3.54.93,6,6,0,0,1-4.62-1.91,7.11,7.11,0,0,1-1.77-5,7.5,7.5,0,0,1,1.75-5.16,5.85,5.85,0,0,1,4.58-2,5.5,5.5,0,0,1,4.32,1.81A6.9,6.9,0,0,1,398,53.05Zm-2.14-1.54a3.72,3.72,0,0,0-4-3.75,3.86,3.86,0,0,0-2.75,1,4.09,4.09,0,0,0-1.28,2.72Z"/><path d="M402.09,48.44H399.7V46.9h2.39V41.57h1.77V46.9h2.61v1.54h-2.61V59.9h-1.77Z"/><path d="M418.74,59.9V57.52a4.88,4.88,0,0,1-1.81,2.19,4.94,4.94,0,0,1-2.74.76,5.74,5.74,0,0,1-4.51-1.92,7.38,7.38,0,0,1-1.7-5.07,7.56,7.56,0,0,1,1.68-5.09,5.89,5.89,0,0,1,7.22-1.25,4.86,4.86,0,0,1,1.86,2.13V46.9h1.81v13ZM410,53.54a5.89,5.89,0,0,0,1.14,3.88,4,4,0,0,0,3.24,1.36,3.88,3.88,0,0,0,3.23-1.48,6.43,6.43,0,0,0,1.18-4.1,5.62,5.62,0,0,0-1.17-3.76,4,4,0,0,0-3.21-1.37,4,4,0,0,0-3.22,1.46A6.18,6.18,0,0,0,410,53.54Z"/><path d="M427.36,59.9H425.5V37.19h1.86Z"/><path d="M443.44,53.45H433.11a6.31,6.31,0,0,0,1.26,3.95,3.91,3.91,0,0,0,3.18,1.44,4.19,4.19,0,0,0,2.52-.78,5.66,5.66,0,0,0,1.8-2.34l1.66.91a7.25,7.25,0,0,1-2.44,2.91,6.39,6.39,0,0,1-3.54.93,6,6,0,0,1-4.62-1.91,7.1,7.1,0,0,1-1.76-5,7.45,7.45,0,0,1,1.75-5.16,5.82,5.82,0,0,1,4.57-2,5.5,5.5,0,0,1,4.32,1.81,6.9,6.9,0,0,1,1.63,4.82Zm-2.14-1.54a3.71,3.71,0,0,0-4-3.75,3.88,3.88,0,0,0-2.75,1,4.14,4.14,0,0,0-1.28,2.72Z"/><path d="M445.71,57.58l1.72-1a3.19,3.19,0,0,0,3.2,2.18,2.69,2.69,0,0,0,1.82-.58,1.92,1.92,0,0,0,.67-1.54c0-1-.88-1.84-2.65-2.54L450,54a8.37,8.37,0,0,1-2.87-1.66,3,3,0,0,1-.82-2.12,3.52,3.52,0,0,1,1.17-2.72,4.35,4.35,0,0,1,3-1.06,5,5,0,0,1,2.69.69,4,4,0,0,1,1.63,2l-1.66.92a2.64,2.64,0,0,0-1-1.4,3,3,0,0,0-1.76-.49,2.26,2.26,0,0,0-1.55.55,1.81,1.81,0,0,0-.61,1.37,1.73,1.73,0,0,0,.61,1.34,8.09,8.09,0,0,0,2.49,1.15,6.66,6.66,0,0,1,2.87,1.63,3.62,3.62,0,0,1,.74,2.43,3.55,3.55,0,0,1-1.27,2.86,5.18,5.18,0,0,1-3.43,1.07,5.27,5.27,0,0,1-2.85-.76A4.23,4.23,0,0,1,445.71,57.58Z"/><path d="M472.39,38.17A29.71,29.71,0,0,0,470,44.75a31.46,31.46,0,0,0-.77,7.07,33.64,33.64,0,0,0,.77,7.46,25.24,25.24,0,0,0,2.35,6.37l-1.32.78a28.72,28.72,0,0,1-2.62-6.92,33.5,33.5,0,0,1-.87-7.74,31.85,31.85,0,0,1,.87-7.59,27.35,27.35,0,0,1,2.62-6.73Z"/><path d="M485.1,59.9V57.52a4.67,4.67,0,0,1-4.53,2.95,5.74,5.74,0,0,1-4.5-1.92,7.34,7.34,0,0,1-1.71-5.07,7.57,7.57,0,0,1,1.69-5.09,5.86,5.86,0,0,1,7.2-1.25,4.9,4.9,0,0,1,1.85,2.13V37.19h1.83V59.9Zm-8.73-6.36a5.89,5.89,0,0,0,1.14,3.88,4,4,0,0,0,3.24,1.36A3.86,3.86,0,0,0,484,57.3a6.49,6.49,0,0,0,1.17-4.1A5.67,5.67,0,0,0,484,49.44a4.34,4.34,0,0,0-6.41.09A6.18,6.18,0,0,0,476.37,53.54Z"/><path d="M491.37,41.83a1.38,1.38,0,0,1,1.39-1.37,1.37,1.37,0,0,1,1,.4,1.3,1.3,0,0,1,.42,1,1.38,1.38,0,0,1-.4,1,1.4,1.4,0,0,1-1,.39,1.37,1.37,0,0,1-1-.39A1.34,1.34,0,0,1,491.37,41.83Zm.45,18.07v-13h1.86v13Z"/><path d="M497.13,57.58l1.71-1a3.35,3.35,0,0,0,1.23,1.63,3.42,3.42,0,0,0,2,.55,2.69,2.69,0,0,0,1.82-.58,2,2,0,0,0,.67-1.54c0-1-.88-1.84-2.65-2.54a3.75,3.75,0,0,1-.44-.17,8.18,8.18,0,0,1-2.87-1.66,3,3,0,0,1-.82-2.12,3.52,3.52,0,0,1,1.17-2.72,4.32,4.32,0,0,1,3-1.06,5,5,0,0,1,2.7.69,4,4,0,0,1,1.62,2l-1.65.92a2.66,2.66,0,0,0-1-1.4,3,3,0,0,0-1.76-.49,2.23,2.23,0,0,0-1.54.55,1.77,1.77,0,0,0-.61,1.37,1.72,1.72,0,0,0,.6,1.34,8.09,8.09,0,0,0,2.49,1.15,6.64,6.64,0,0,1,2.88,1.63,3.67,3.67,0,0,1,.74,2.43,3.55,3.55,0,0,1-1.27,2.86,5.89,5.89,0,0,1-6.28.31A4.18,4.18,0,0,1,497.13,57.58Z"/><path d="M510.06,66.43V46.9h1.75v2.43a5.59,5.59,0,0,1,1.94-2.16,5,5,0,0,1,2.7-.75,5.56,5.56,0,0,1,4.41,1.92,7.51,7.51,0,0,1,1.68,5.11,7.56,7.56,0,0,1-1.64,5.11,5.47,5.47,0,0,1-4.36,1.91,5.11,5.11,0,0,1-2.77-.76,5.48,5.48,0,0,1-2-2.22v8.94Zm10.53-13a6.16,6.16,0,0,0-1.15-4,3.83,3.83,0,0,0-3.17-1.45,4.06,4.06,0,0,0-3.26,1.4,5.84,5.84,0,0,0-1.18,3.85,6,6,0,0,0,1.27,4,4.19,4.19,0,0,0,3.35,1.48,3.63,3.63,0,0,0,3-1.4A6.18,6.18,0,0,0,520.59,53.48Z"/><path d="M537.45,53.45H527.13a6.31,6.31,0,0,0,1.26,3.95,3.91,3.91,0,0,0,3.18,1.44,4.23,4.23,0,0,0,2.52-.78,5.66,5.66,0,0,0,1.8-2.34l1.65.91a7.17,7.17,0,0,1-2.44,2.91,6.38,6.38,0,0,1-3.53.93,6,6,0,0,1-4.63-1.91,7.15,7.15,0,0,1-1.76-5,7.45,7.45,0,0,1,1.75-5.16,5.84,5.84,0,0,1,4.58-2,5.53,5.53,0,0,1,4.32,1.81,6.94,6.94,0,0,1,1.62,4.82Zm-2.13-1.54a3.72,3.72,0,0,0-4.05-3.75,3.84,3.84,0,0,0-2.74,1,4.15,4.15,0,0,0-1.29,2.72Z"/><path d="M543,49.51a8,8,0,0,1,2-2.39,3.69,3.69,0,0,1,2.24-.7,3.91,3.91,0,0,1,.76.07,5.16,5.16,0,0,1,.77.21l-.58,1.7a6,6,0,0,0-.61-.15,3.23,3.23,0,0,0-.61-.06,3.39,3.39,0,0,0-2.77,1.52,6.11,6.11,0,0,0-1.15,3.8V59.9H541.2v-13H543Z"/><path d="M549.17,57.58l1.72-1a3.19,3.19,0,0,0,3.21,2.18,2.66,2.66,0,0,0,1.81-.58,1.92,1.92,0,0,0,.68-1.54c0-1-.89-1.84-2.66-2.54l-.44-.17a8.37,8.37,0,0,1-2.87-1.66,3,3,0,0,1-.82-2.12A3.49,3.49,0,0,1,551,47.45a4.32,4.32,0,0,1,3-1.06,5,5,0,0,1,2.69.69,4,4,0,0,1,1.63,2l-1.66.92a2.59,2.59,0,0,0-1-1.4,3,3,0,0,0-1.76-.49,2.28,2.28,0,0,0-1.55.55,1.8,1.8,0,0,0-.6,1.37,1.72,1.72,0,0,0,.6,1.34,8.09,8.09,0,0,0,2.49,1.15,6.77,6.77,0,0,1,2.88,1.63,3.67,3.67,0,0,1,.74,2.43,3.56,3.56,0,0,1-1.28,2.86,5.18,5.18,0,0,1-3.43,1.07,5.27,5.27,0,0,1-2.85-.76A4.23,4.23,0,0,1,549.17,57.58Z"/><path d="M561.77,41.83a1.38,1.38,0,0,1,1.39-1.37,1.37,1.37,0,0,1,1,.4,1.3,1.3,0,0,1,.42,1,1.38,1.38,0,0,1-.4,1,1.4,1.4,0,0,1-1,.39,1.37,1.37,0,0,1-1-.39A1.34,1.34,0,0,1,561.77,41.83Zm.46,18.07v-13h1.86v13Z"/><path d="M574.91,60.47a6.79,6.79,0,0,1-2.67-.55,7.43,7.43,0,0,1-2.31-1.58,6.53,6.53,0,0,1-1.49-2.22A7,7,0,0,1,572.23,47a6.78,6.78,0,0,1,2.68-.53,7,7,0,0,1,7.12,7,6.88,6.88,0,0,1-.53,2.67A6.73,6.73,0,0,1,580,58.34a7.14,7.14,0,0,1-5.07,2.13Zm.06-1.69a4.87,4.87,0,0,0,3.63-1.54,5.62,5.62,0,0,0,0-7.6,5,5,0,0,0-7.25,0,5.62,5.62,0,0,0,0,7.6A4.82,4.82,0,0,0,575,58.78Zm-2-14,3.12-5.13h2.4l-4.14,5.13Z"/><path d="M585.75,59.9v-13h1.71v2A5.4,5.4,0,0,1,589.4,47a5.54,5.54,0,0,1,2.65-.62,4.27,4.27,0,0,1,4.67,4.66V59.9h-1.83v-8a4.35,4.35,0,0,0-.81-2.89,3.14,3.14,0,0,0-2.51-1,3.64,3.64,0,0,0-3,1.23,6.12,6.12,0,0,0-1,3.84V59.9Z"/><path d="M599.67,38.17l1.3-.72a26.24,26.24,0,0,1,2.63,6.73,31.85,31.85,0,0,1,.87,7.59,33.5,33.5,0,0,1-.87,7.74A28.75,28.75,0,0,1,601,66.43l-1.3-.78a26.13,26.13,0,0,0,2.34-6.4,33.42,33.42,0,0,0,.78-7.43,31.36,31.36,0,0,0-.78-7A30.71,30.71,0,0,0,599.67,38.17Z"/></svg>