<svg xmlns="http://www.w3.org/2000/svg" viewBox="0 0 340.51 320.4"><defs><style>.cls-1{isolation:isolate;}.cls-2{fill:#fff;}.cls-3{fill:#d31c25;}.cls-4{fill:#4d4d4d;}.cls-5{fill:gray;}.cls-6{fill:none;stroke:#666;stroke-miterlimit:10;stroke-width:2px;}.cls-7{fill:#ff4335;}.cls-8{fill:#9e151c;}.cls-9{fill:#301404;opacity:0.25;mix-blend-mode:multiply;}</style></defs><title>esmad</title><g class="cls-1"><g id="Capa_2" data-name="Capa 2"><g id="ALERTAS"><path class="cls-2" d="M327.43,0H13.08A13.07,13.07,0,0,0,0,13.08v98.08a13.07,13.07,0,0,0,13.08,13.08h130l26.57,46,26.56-46H327.43a13.07,13.07,0,0,0,13.08-13.08V13.08A13.07,13.07,0,0,0,327.43,0Z"/><path class="cls-2" d="M22.78,9.65h99.11a1.54,1.54,0,0,1,1.54,1.54v99.56a1.54,1.54,0,0,1-1.54,1.54H22.78a5.84,5.84,0,0,1-5.84-5.84v-91A5.84,5.84,0,0,1,22.78,9.65Z"/><path class="cls-3" d="M125,9.65H317.73a5.84,5.84,0,0,1,5.84,5.84v91a5.84,5.84,0,0,1-5.84,5.84H125a1.54,1.54,0,0,1-1.54-1.54V11.18A1.54,1.54,0,0,1,125,9.65Z"/><ellipse class="cls-4" cx="72.47" cy="76.94" rx="28.72" ry="12.64"/><rect class="cls-4" x="43.76" y="72.95" width="57.43" height="3.95" rx="1.54"/><ellipse class="cls-5" cx="72.47" cy="72.49" rx="28.72" ry="12.64"/><ellipse class="cls-6" cx="72.47" cy="72.49" rx="26.75" ry="10.67"/><ellipse class="cls-3" cx="72.85" cy="73" rx="23.97" ry="7.18"/><path class="cls-3" d="M49.29,70.64l5.35-30.4a2,2,0,0,1,1.94-1.63H89.12a2,2,0,0,1,1.94,1.63l5.35,30.4A2,2,0,0,1,94.47,73H51.23A2,2,0,0,1,49.29,70.64Z"/><ellipse class="cls-3" cx="72.85" cy="38.65" rx="17.93" ry="7.18"/><path class="cls-7" d="M72.85,44.15a33.51,33.51,0,0,1-12-2c-2.59-1-4.2-2.38-4.2-3.52s1.61-2.48,4.2-3.51a33.51,33.51,0,0,1,12-2,33.51,33.51,0,0,1,12.05,2c2.59,1,4.2,2.38,4.2,3.51s-1.61,2.49-4.2,3.52A33.51,33.51,0,0,1,72.85,44.15Z"/><path class="cls-7" d="M55.12,46,50.8,71.61A1.85,1.85,0,0,0,51,72.87c.66,1.11,2.92,3,10.49,3.89a2,2,0,0,0,2.18-1.68l3.87-26a2,2,0,0,0-1.66-2.24,27.74,27.74,0,0,1-8-2.28A2,2,0,0,0,55.12,46Z"/><circle class="cls-8" cx="78.96" cy="73.62" r="2.86"/><path class="cls-8" d="M75.23,50.07l.88,15.11a2.9,2.9,0,0,0,2.72,2.94,2.85,2.85,0,0,0,3-2.85l.88-15.2a1.28,1.28,0,0,0-1.28-1.29H76.51A1.28,1.28,0,0,0,75.23,50.07Z"/><circle class="cls-2" cx="80.54" cy="72.44" r="2.86"/><path class="cls-2" d="M76.8,48.89,77.68,64a2.91,2.91,0,0,0,2.73,2.94,2.84,2.84,0,0,0,3-2.85l.88-15.2A1.28,1.28,0,0,0,83,47.6H78.08A1.28,1.28,0,0,0,76.8,48.89Z"/><path class="cls-2" d="M148.76,32.67a2.71,2.71,0,0,1,.83-2,2.77,2.77,0,0,1,2-.83,2.73,2.73,0,0,1,2,.82,2.76,2.76,0,0,1,.8,2,2.78,2.78,0,0,1-2.8,2.81,2.75,2.75,0,0,1-2-.82A2.69,2.69,0,0,1,148.76,32.67Zm.48,5.33h4.69V55.22h-4.69Z"/><path class="cls-2" d="M158.46,54.58l9.2-24.17h5.91l9.33,24.17H177l-2-5.14H165.7L164,54.58Zm15.39-9.2-2.71-7.81c-.07-.23-.17-.62-.29-1.18s-.25-1.25-.38-2.07c-.15.78-.28,1.49-.42,2.11s-.23,1-.29,1.24l-2.61,7.71Z"/><path class="cls-2" d="M186.79,54.58V30.41H192V50.19h8.25v4.39Z"/><path class="cls-2" d="M204.82,54.58V30.41h14.23v4.36H210v5h9.06v4.39H210v6.06h9.06v4.39Z"/><path class="cls-2" d="M243,54.58h-6l-6.35-11.29V54.58h-5.17V30.41h7.4q4.41,0,6.6,1.71a6.12,6.12,0,0,1,2.2,5.14,6.33,6.33,0,0,1-1.51,4.26,5.8,5.8,0,0,1-3.87,2.06ZM230.64,40.71h.77c2.1,0,3.48-.23,4.15-.68a2.7,2.7,0,0,0,1-2.39,2.86,2.86,0,0,0-1.09-2.53,7.68,7.68,0,0,0-4.07-.75h-.77Z"/><path class="cls-2" d="M256.34,34.8V54.58h-5.18V34.8h-5.91V30.41h17V34.8Z"/><path class="cls-2" d="M262.27,54.58l9.19-24.17h5.91l9.33,24.17h-5.88l-2-5.14H269.5l-1.69,5.14Zm15.38-9.2L275,37.57a11.14,11.14,0,0,1-.3-1.18c-.12-.57-.25-1.25-.38-2.07-.14.78-.28,1.49-.41,2.11s-.23,1-.3,1.24L271,45.38Z"/><path class="cls-2" d="M290.73,52.38a2.7,2.7,0,0,1,.82-2,2.78,2.78,0,0,1,2-.81,2.73,2.73,0,0,1,2,.81,2.7,2.7,0,0,1,.81,2,2.77,2.77,0,0,1-.81,2,2.7,2.7,0,0,1-2,.82,2.85,2.85,0,0,1-2.84-2.84Zm.48-5.35V29.86h4.69V47Z"/><path class="cls-2" d="M148.63,93.07V68.9h14.23v4.36h-9.07v5h9.07v4.39h-9.07v6.06h9.07v4.39Z"/><path class="cls-2" d="M167.73,90l2.87-3.26a4.37,4.37,0,0,0,1.75,2.11,4.93,4.93,0,0,0,2.71.77,4.44,4.44,0,0,0,2.87-.86A2.83,2.83,0,0,0,179,86.45c0-1.15-1.18-2.29-3.52-3.42-.76-.36-1.36-.66-1.8-.89a13.41,13.41,0,0,1-4.39-3.23,5.91,5.91,0,0,1-1.22-3.76,6,6,0,0,1,2.37-4.91,9.42,9.42,0,0,1,6.15-1.92,8.64,8.64,0,0,1,3.78.77,7.67,7.67,0,0,1,2.82,2.4l-3.06,2.92a3.67,3.67,0,0,0-1.44-1.57,4.23,4.23,0,0,0-2.17-.53,3.83,3.83,0,0,0-2.48.77,2.47,2.47,0,0,0-.94,2c0,1.28,1.25,2.45,3.73,3.5l1.14.5a12.58,12.58,0,0,1,4.55,3.17,6.12,6.12,0,0,1,1.48,4,6.86,6.86,0,0,1-2.32,5.42,9.16,9.16,0,0,1-6.23,2,10.83,10.83,0,0,1-4.76-1A6.42,6.42,0,0,1,167.73,90Z"/><path class="cls-2" d="M187.47,93.07l3.68-24.17h5.42l4.65,14.23a10.67,10.67,0,0,1,.32,1.3c.12.57.23,1.23.33,2,.08-.75.18-1.42.29-2a8.48,8.48,0,0,1,.32-1.29l4.73-14.2h5.34l3.69,24.17h-4.9l-1.76-14.58c-.14-1.08-.22-1.89-.27-2.44s-.07-1.07-.07-1.54c0-.25,0-.44,0-.57s0-.24,0-.34c-.17,1-.32,1.77-.47,2.45a14.75,14.75,0,0,1-.41,1.56l-5.11,15.46h-2.91l-5-15.46c0-.14-.14-.53-.28-1.18s-.36-1.6-.62-2.84v.71a34.73,34.73,0,0,1-.3,4.12l0,.07-1.75,14.58Z"/><path class="cls-2" d="M218.08,93.07l9.19-24.17h5.91l9.33,24.17h-5.88l-2-5.14h-9.36l-1.69,5.14Zm15.38-9.2-2.7-7.81a10.85,10.85,0,0,1-.3-1.19c-.12-.56-.25-1.25-.38-2.06-.14.78-.28,1.48-.41,2.11s-.24,1-.3,1.24l-2.61,7.71Z"/><path class="cls-2" d="M246.41,93.07V68.9H253a27.39,27.39,0,0,1,6.14.54,10.78,10.78,0,0,1,3.95,1.82,10.53,10.53,0,0,1,3.33,4.12,14.66,14.66,0,0,1,0,11.36,10.51,10.51,0,0,1-3.38,4.1,11,11,0,0,1-3.68,1.71,25.64,25.64,0,0,1-5.91.52h-7Zm5.16-4.36h2.88c2.7,0,4.68-.62,5.91-1.85s1.86-3.19,1.86-5.86-.62-4.62-1.86-5.85-3.21-1.86-5.91-1.86h-2.88Z"/><ellipse class="cls-9" cx="170.26" cy="297.27" rx="86.04" ry="23.13"/></g></g></g></svg>