<svg id="fondos" xmlns="http://www.w3.org/2000/svg" viewBox="0 0 838.12 100.16"><defs><style>.cls-1{fill:#e6e6e6;}</style></defs><title>esmad3</title><rect class="cls-1" width="838.12" height="100.16"/><path d="M59.51,56.66V35.21h1.94V56.66Z"/><path d="M76.16,56.66V54.29a4.68,4.68,0,0,1-4.53,2.94,5.74,5.74,0,0,1-4.5-1.92,7.34,7.34,0,0,1-1.71-5.07,7.54,7.54,0,0,1,1.69-5.09,5.84,5.84,0,0,1,7.2-1.24A4.79,4.79,0,0,1,76.16,46V34H78V56.66ZM67.43,50.3a5.87,5.87,0,0,0,1.14,3.88,4,4,0,0,0,3.24,1.37A3.87,3.87,0,0,0,75,54.06,6.46,6.46,0,0,0,76.19,50,5.64,5.64,0,0,0,75,46.21a4,4,0,0,0-3.19-1.37,3.9,3.9,0,0,0-3.22,1.46A6.15,6.15,0,0,0,67.43,50.3Z"/><path d="M93.93,50.21H83.6a6.37,6.37,0,0,0,1.26,4A3.9,3.9,0,0,0,88,55.6a4.18,4.18,0,0,0,2.52-.77,5.77,5.77,0,0,0,1.8-2.35l1.66.91a7.25,7.25,0,0,1-2.44,2.91,6.39,6.39,0,0,1-3.54.93,6,6,0,0,1-4.62-1.91,7.11,7.11,0,0,1-1.77-5,7.46,7.46,0,0,1,1.75-5.15,5.86,5.86,0,0,1,4.58-2A5.53,5.53,0,0,1,92.3,45a6.94,6.94,0,0,1,1.63,4.83Zm-2.14-1.53a3.72,3.72,0,0,0-4-3.75A3.9,3.9,0,0,0,85,46a4.16,4.16,0,0,0-1.28,2.73Z"/><path d="M97.68,56.66v-13h1.71v2a5.29,5.29,0,0,1,1.94-1.86,5.44,5.44,0,0,1,2.65-.63,4.27,4.27,0,0,1,4.67,4.66v8.82h-1.83v-8a4.38,4.38,0,0,0-.81-2.9,3.15,3.15,0,0,0-2.52-.94,3.68,3.68,0,0,0-3,1.22,6.24,6.24,0,0,0-1,3.85v6.78Z"/><path d="M113.69,45.2H111.3V43.67h2.39V38.33h1.77v5.34h2.61V45.2h-2.61V56.66h-1.77Z"/><path d="M120.41,38.6a1.34,1.34,0,0,1,.41-1,1.4,1.4,0,0,1,1-.4,1.38,1.38,0,0,1,1,.4,1.38,1.38,0,0,1,0,2,1.38,1.38,0,0,1-1,.39,1.34,1.34,0,0,1-1-.39A1.31,1.31,0,0,1,120.41,38.6Zm.46,18.06v-13h1.86v13Z"/><path d="M128.07,56.66V45.2h-2.43V43.67h2.43V39.92c0-2.61.25-4.3.74-5.08a2.9,2.9,0,0,1,2.68-1.16,4.57,4.57,0,0,1,.92.08,4.91,4.91,0,0,1,.82.22l-.34,1.59a3.43,3.43,0,0,0-.68-.27,2.31,2.31,0,0,0-.61-.09,1.4,1.4,0,0,0-1.34.76,6.52,6.52,0,0,0-.4,2.77v4.93h2.86V45.2h-2.86V56.66Z"/><path d="M135.08,38.6a1.31,1.31,0,0,1,.41-1,1.38,1.38,0,0,1,1-.4,1.42,1.42,0,0,1,1,.4,1.39,1.39,0,0,1,0,2,1.46,1.46,0,0,1-2,0A1.3,1.3,0,0,1,135.08,38.6Zm.45,18.06v-13h1.86v13Z"/><path d="M152.42,46a7,7,0,0,0-1.93-.94,7.2,7.2,0,0,0-2.11-.32,5,5,0,0,0-3.86,1.55,5.83,5.83,0,0,0-1.43,4.12,5,5,0,0,0,1.49,3.76,5.13,5.13,0,0,0,3.8,1.48,6.71,6.71,0,0,0,2.13-.36,8.59,8.59,0,0,0,2.12-1.1v2a8,8,0,0,1-2.11.81,11,11,0,0,1-2.48.27,6.5,6.5,0,0,1-4.88-2,6.86,6.86,0,0,1-1.9-5,6.81,6.81,0,0,1,7.15-7.15,10.31,10.31,0,0,1,2.2.23,7.38,7.38,0,0,1,1.84.65Z"/><path d="M165.59,56.66V54.29A4.71,4.71,0,0,1,161,57.23a5.74,5.74,0,0,1-4.5-1.92,7.34,7.34,0,0,1-1.71-5.07,7.54,7.54,0,0,1,1.69-5.09,5.85,5.85,0,0,1,7.21-1.24A4.71,4.71,0,0,1,165.59,46V43.67h1.8v13Zm-8.76-6.36A5.87,5.87,0,0,0,158,54.18a4,4,0,0,0,3.24,1.37,3.91,3.91,0,0,0,3.23-1.49A6.4,6.4,0,0,0,165.62,50a5.59,5.59,0,0,0-1.17-3.76,4,4,0,0,0-3.21-1.37A3.9,3.9,0,0,0,158,46.3,6.15,6.15,0,0,0,156.83,50.3Z"/><path d="M182.33,46a6.9,6.9,0,0,0-1.93-.94,7.15,7.15,0,0,0-2.11-.32,5,5,0,0,0-3.85,1.55A5.79,5.79,0,0,0,173,50.45a5.08,5.08,0,0,0,1.49,3.76,5.15,5.15,0,0,0,3.8,1.48,6.71,6.71,0,0,0,2.13-.36,8.59,8.59,0,0,0,2.12-1.1v2a8,8,0,0,1-2.11.81,10.9,10.9,0,0,1-2.48.27,6.5,6.5,0,0,1-4.88-2,6.9,6.9,0,0,1-1.9-5,6.81,6.81,0,0,1,7.15-7.15,10.31,10.31,0,0,1,2.2.23,7.38,7.38,0,0,1,1.84.65Z"/><path d="M185.57,38.6a1.34,1.34,0,0,1,.41-1,1.38,1.38,0,0,1,1-.4,1.42,1.42,0,0,1,1,.4,1.32,1.32,0,0,1,.42,1,1.34,1.34,0,0,1-.4,1,1.4,1.4,0,0,1-1,.39,1.37,1.37,0,0,1-1-.39A1.3,1.3,0,0,1,185.57,38.6ZM186,56.66v-13h1.86v13Z"/><path d="M198.71,57.23a6.62,6.62,0,0,1-2.67-.55,7.4,7.4,0,0,1-2.31-1.57,6.7,6.7,0,0,1-1.5-2.23,7.13,7.13,0,0,1-.51-2.7,7,7,0,0,1,.53-2.69,6.85,6.85,0,0,1,1.51-2.26,7,7,0,0,1,5-2,7.18,7.18,0,0,1,2.73.53,7.08,7.08,0,0,1,2.31,1.52,6.92,6.92,0,0,1,1.54,2.27,6.83,6.83,0,0,1,.54,2.68,6.87,6.87,0,0,1-2.05,4.93,7.3,7.3,0,0,1-2.34,1.57A6.9,6.9,0,0,1,198.71,57.23Zm.06-1.68A4.84,4.84,0,0,0,202.39,54a5.59,5.59,0,0,0,0-7.59,5,5,0,0,0-7.25,0,5.61,5.61,0,0,0,0,7.59A4.82,4.82,0,0,0,198.77,55.55Zm-2-14,3.12-5.13h2.4l-4.14,5.13Z"/><path d="M209.55,56.66v-13h1.71v2a5.29,5.29,0,0,1,1.94-1.86,5.44,5.44,0,0,1,2.65-.63,4.27,4.27,0,0,1,4.67,4.66v8.82h-1.83v-8a4.38,4.38,0,0,0-.81-2.9,3.15,3.15,0,0,0-2.52-.94,3.68,3.68,0,0,0-3,1.22,6.24,6.24,0,0,0-1,3.85v6.78Z"/><path d="M243.45,56.66V54.29a4.83,4.83,0,0,1-1.81,2.19,4.89,4.89,0,0,1-2.72.75,5.71,5.71,0,0,1-4.5-1.92,7.34,7.34,0,0,1-1.71-5.07,7.58,7.58,0,0,1,1.68-5.09,5.49,5.49,0,0,1,4.35-2,5.39,5.39,0,0,1,2.85.73A4.75,4.75,0,0,1,243.45,46V34h1.83V56.66Zm-8.73-6.36a5.87,5.87,0,0,0,1.13,3.88,4,4,0,0,0,3.25,1.37,3.86,3.86,0,0,0,3.2-1.49A6.46,6.46,0,0,0,243.48,50a5.64,5.64,0,0,0-1.16-3.76,4,4,0,0,0-3.2-1.37,3.92,3.92,0,0,0-3.22,1.46A6.15,6.15,0,0,0,234.72,50.3Z"/><path d="M261.21,50.21H250.89a6.37,6.37,0,0,0,1.26,4,3.9,3.9,0,0,0,3.18,1.43,4.23,4.23,0,0,0,2.52-.77,5.77,5.77,0,0,0,1.8-2.35l1.65.91a7.17,7.17,0,0,1-2.44,2.91,6.38,6.38,0,0,1-3.53.93,6,6,0,0,1-4.63-1.91,7.15,7.15,0,0,1-1.76-5,7.41,7.41,0,0,1,1.75-5.15,5.85,5.85,0,0,1,4.58-2A5.56,5.56,0,0,1,259.59,45a7,7,0,0,1,1.62,4.83Zm-2.13-1.53a3.72,3.72,0,0,0-4-3.75,3.88,3.88,0,0,0-2.74,1A4.17,4.17,0,0,0,251,48.68Z"/><path d="M273.61,63.19V43.67h1.74V46.1a5.55,5.55,0,0,1,1.95-2.16,4.9,4.9,0,0,1,2.69-.76,5.59,5.59,0,0,1,4.42,1.93,7.48,7.48,0,0,1,1.68,5.1,7.61,7.61,0,0,1-1.64,5.11,5.49,5.49,0,0,1-4.37,1.91,5.13,5.13,0,0,1-2.77-.75,5.69,5.69,0,0,1-2-2.22v8.93Zm10.53-12.95a6.16,6.16,0,0,0-1.15-4,3.83,3.83,0,0,0-3.17-1.44,4,4,0,0,0-3.26,1.4,5.74,5.74,0,0,0-1.18,3.84,5.91,5.91,0,0,0,1.27,4A4.18,4.18,0,0,0,280,55.55a3.67,3.67,0,0,0,3.06-1.4A6.27,6.27,0,0,0,284.14,50.24Z"/><path d="M295.74,57.23a6.62,6.62,0,0,1-2.67-.55,7.52,7.52,0,0,1-2.31-1.57,6.67,6.67,0,0,1-1.49-2.23,7,7,0,0,1,6.47-9.7,7.18,7.18,0,0,1,2.73.53,7,7,0,0,1,2.31,1.52,7.11,7.11,0,0,1,1.55,2.27,6.93,6.93,0,0,1-1.52,7.61,7.09,7.09,0,0,1-2.34,1.57A6.9,6.9,0,0,1,295.74,57.23Zm.06-1.68A4.86,4.86,0,0,0,299.43,54a5.61,5.61,0,0,0,0-7.59,5,5,0,0,0-7.25,0,5.61,5.61,0,0,0,0,7.59A4.82,4.82,0,0,0,295.8,55.55Z"/><path d="M305.1,54.35l1.71-1A3.21,3.21,0,0,0,310,55.55a2.74,2.74,0,0,0,1.82-.58,1.94,1.94,0,0,0,.67-1.55c0-1-.88-1.84-2.65-2.53l-.44-.18a8.21,8.21,0,0,1-2.87-1.66,2.94,2.94,0,0,1-.82-2.12,3.48,3.48,0,0,1,1.17-2.71,4.33,4.33,0,0,1,3-1.07,5,5,0,0,1,2.7.69,4.07,4.07,0,0,1,1.63,2l-1.66.92a2.63,2.63,0,0,0-1-1.41,3.11,3.11,0,0,0-1.76-.48,2.21,2.21,0,0,0-1.55.55,1.78,1.78,0,0,0-.61,1.37,1.68,1.68,0,0,0,.61,1.33,8,8,0,0,0,2.49,1.16,6.77,6.77,0,0,1,2.87,1.62,3.65,3.65,0,0,1,.74,2.44,3.52,3.52,0,0,1-1.27,2.85,5.18,5.18,0,0,1-3.43,1.07,5.27,5.27,0,0,1-2.85-.75A4.32,4.32,0,0,1,305.1,54.35Z"/><path d="M317.7,38.6a1.34,1.34,0,0,1,.41-1,1.38,1.38,0,0,1,1-.4,1.42,1.42,0,0,1,1,.4,1.36,1.36,0,0,1,0,2,1.46,1.46,0,0,1-2,0A1.3,1.3,0,0,1,317.7,38.6Zm.45,18.06v-13H320v13Z"/><path d="M326.74,56.66h-1.81V34h1.81V46a4.73,4.73,0,0,1,1.85-2.13,5.84,5.84,0,0,1,7.2,1.24,7.58,7.58,0,0,1,1.68,5.09,7.38,7.38,0,0,1-1.7,5.07,5.74,5.74,0,0,1-4.51,1.92,4.68,4.68,0,0,1-4.52-2.94Zm8.73-6.36a6.15,6.15,0,0,0-1.19-4,3.9,3.9,0,0,0-3.22-1.46,4,4,0,0,0-3.2,1.37A5.63,5.63,0,0,0,326.71,50a6.4,6.4,0,0,0,1.18,4.09,3.89,3.89,0,0,0,3.23,1.49,3.94,3.94,0,0,0,3.22-1.36A5.93,5.93,0,0,0,335.47,50.3Z"/><path d="M343.14,56.66h-1.86V34h1.86Z"/><path d="M359.23,50.21H348.9a6.37,6.37,0,0,0,1.26,4,3.9,3.9,0,0,0,3.18,1.43,4.18,4.18,0,0,0,2.52-.77,5.77,5.77,0,0,0,1.8-2.35l1.65.91a7.15,7.15,0,0,1-2.43,2.91,6.44,6.44,0,0,1-3.54.93,6,6,0,0,1-4.62-1.91,7.11,7.11,0,0,1-1.77-5,7.41,7.41,0,0,1,1.75-5.15,5.85,5.85,0,0,1,4.58-2A5.53,5.53,0,0,1,357.6,45a7,7,0,0,1,1.63,4.83Zm-2.14-1.53a4,4,0,0,0-1.19-2.77,4,4,0,0,0-2.85-1,3.9,3.9,0,0,0-2.75,1A4.12,4.12,0,0,0,349,48.68Z"/><path d="M361.5,54.35l1.71-1A3.38,3.38,0,0,0,364.44,55a3.49,3.49,0,0,0,2,.55,2.74,2.74,0,0,0,1.82-.58,2,2,0,0,0,.67-1.55c0-1-.88-1.84-2.65-2.53l-.44-.18A8,8,0,0,1,363,49.05a2.94,2.94,0,0,1-.82-2.12,3.48,3.48,0,0,1,1.17-2.71,4.33,4.33,0,0,1,3-1.07,5,5,0,0,1,2.7.69,4,4,0,0,1,1.62,2l-1.65.92a2.64,2.64,0,0,0-1-1.41,3.09,3.09,0,0,0-1.76-.48,2.19,2.19,0,0,0-1.54.55,1.74,1.74,0,0,0-.61,1.37,1.7,1.7,0,0,0,.6,1.33,8,8,0,0,0,2.49,1.16A6.75,6.75,0,0,1,370,50.87a3.7,3.7,0,0,1,.74,2.44,3.52,3.52,0,0,1-1.27,2.85,5.92,5.92,0,0,1-6.28.32A4.27,4.27,0,0,1,361.5,54.35Z"/><path d="M392.7,56.66V54.29a4.68,4.68,0,0,1-4.53,2.94,5.74,5.74,0,0,1-4.5-1.92A7.34,7.34,0,0,1,382,50.24a7.54,7.54,0,0,1,1.69-5.09,5.84,5.84,0,0,1,7.2-1.24A4.79,4.79,0,0,1,392.7,46V34h1.83V56.66ZM384,50.3a5.92,5.92,0,0,0,1.13,3.88,4,4,0,0,0,3.25,1.37,3.88,3.88,0,0,0,3.21-1.49A6.46,6.46,0,0,0,392.73,50a5.64,5.64,0,0,0-1.16-3.76,4.35,4.35,0,0,0-6.42.09A6.15,6.15,0,0,0,384,50.3Z"/><path d="M399,38.6a1.31,1.31,0,0,1,.41-1,1.38,1.38,0,0,1,1-.4,1.42,1.42,0,0,1,1,.4,1.36,1.36,0,0,1,0,2,1.46,1.46,0,0,1-2,0A1.3,1.3,0,0,1,399,38.6Zm.45,18.06v-13h1.86v13Z"/><path d="M404.73,54.35l1.71-1A3.38,3.38,0,0,0,407.67,55a3.49,3.49,0,0,0,2,.55,2.71,2.71,0,0,0,1.81-.58,1.94,1.94,0,0,0,.68-1.55c0-1-.89-1.84-2.65-2.53l-.44-.18a8,8,0,0,1-2.87-1.66,2.94,2.94,0,0,1-.83-2.12,3.49,3.49,0,0,1,1.18-2.71,4.33,4.33,0,0,1,3-1.07,5,5,0,0,1,2.69.69,4,4,0,0,1,1.63,2l-1.65.92a2.64,2.64,0,0,0-1-1.41,3.09,3.09,0,0,0-1.76-.48,2.19,2.19,0,0,0-1.54.55,1.74,1.74,0,0,0-.61,1.37,1.7,1.7,0,0,0,.6,1.33,8,8,0,0,0,2.49,1.16,6.82,6.82,0,0,1,2.88,1.62,3.7,3.7,0,0,1,.74,2.44,3.53,3.53,0,0,1-1.28,2.85,5.17,5.17,0,0,1-3.42,1.07,5.22,5.22,0,0,1-2.85-.75A4.27,4.27,0,0,1,404.73,54.35Z"/><path d="M418,45.2h-2.39V43.67H418V38.33h1.77v5.34h2.61V45.2h-2.61V56.66H418Z"/><path d="M426.9,43.67v6.49a7.55,7.55,0,0,0,.85,4.17,3.21,3.21,0,0,0,2.84,1.22,3.25,3.25,0,0,0,2.86-1.23,7.48,7.48,0,0,0,.86-4.16V43.67h1.79v7.41a6.68,6.68,0,0,1-1.39,4.59,6.17,6.17,0,0,1-8.2,0,6.64,6.64,0,0,1-1.41-4.59V43.67Z"/><path d="M442.71,46.27a7.78,7.78,0,0,1,2-2.38,3.69,3.69,0,0,1,2.24-.71,4.11,4.11,0,0,1,.77.08,5.46,5.46,0,0,1,.77.2l-.59,1.7a6,6,0,0,0-.61-.15,3.2,3.2,0,0,0-.61,0,3.36,3.36,0,0,0-2.77,1.52,6.08,6.08,0,0,0-1.15,3.79v6.39h-1.8v-13h1.8Z"/><path d="M452.16,56.66h-1.81V34h1.81V46A4.73,4.73,0,0,1,454,43.91a5.84,5.84,0,0,1,7.2,1.24,7.58,7.58,0,0,1,1.68,5.09,7.38,7.38,0,0,1-1.7,5.07,5.74,5.74,0,0,1-4.51,1.92,4.68,4.68,0,0,1-4.52-2.94Zm8.73-6.36a6.15,6.15,0,0,0-1.19-4,3.9,3.9,0,0,0-3.22-1.46,4,4,0,0,0-3.2,1.37A5.63,5.63,0,0,0,452.13,50a6.4,6.4,0,0,0,1.18,4.09,3.89,3.89,0,0,0,3.23,1.49,3.94,3.94,0,0,0,3.22-1.36A5.93,5.93,0,0,0,460.89,50.3Z"/><path d="M466.25,38.6a1.34,1.34,0,0,1,.41-1,1.38,1.38,0,0,1,1-.4,1.42,1.42,0,0,1,1,.4,1.36,1.36,0,0,1,0,2,1.46,1.46,0,0,1-2,0A1.3,1.3,0,0,1,466.25,38.6Zm.45,18.06v-13h1.86v13Z"/><path d="M479.39,57.23a6.62,6.62,0,0,1-2.67-.55,7.4,7.4,0,0,1-2.31-1.57,6.7,6.7,0,0,1-1.5-2.23,7.13,7.13,0,0,1-.51-2.7,7,7,0,0,1,.53-2.69,6.85,6.85,0,0,1,1.51-2.26,7,7,0,0,1,4.95-2,7.15,7.15,0,0,1,5,2A6.92,6.92,0,0,1,486,47.5a6.83,6.83,0,0,1,.54,2.68,6.87,6.87,0,0,1-2.05,4.93,7.3,7.3,0,0,1-2.34,1.57A6.9,6.9,0,0,1,479.39,57.23Zm.06-1.68A4.84,4.84,0,0,0,483.07,54a5.59,5.59,0,0,0,0-7.59,5,5,0,0,0-7.25,0,5.61,5.61,0,0,0,0,7.59A4.81,4.81,0,0,0,479.45,55.55Z"/><path d="M488.75,54.35l1.71-1a3.18,3.18,0,0,0,3.21,2.19,2.74,2.74,0,0,0,1.82-.58,1.94,1.94,0,0,0,.67-1.55c0-1-.88-1.84-2.65-2.53l-.44-.18a8.12,8.12,0,0,1-2.87-1.66,2.94,2.94,0,0,1-.82-2.12,3.48,3.48,0,0,1,1.17-2.71,4.33,4.33,0,0,1,3-1.07,5,5,0,0,1,2.7.69,4,4,0,0,1,1.62,2l-1.65.92a2.64,2.64,0,0,0-1-1.41,3.08,3.08,0,0,0-1.75-.48,2.19,2.19,0,0,0-1.55.55,1.74,1.74,0,0,0-.61,1.37,1.7,1.7,0,0,0,.6,1.33,8,8,0,0,0,2.49,1.16,6.75,6.75,0,0,1,2.88,1.62,3.7,3.7,0,0,1,.74,2.44,3.52,3.52,0,0,1-1.27,2.85,5.19,5.19,0,0,1-3.43,1.07,5.27,5.27,0,0,1-2.85-.75A4.27,4.27,0,0,1,488.75,54.35Z"/></svg>