<svg id="fondos" xmlns="http://www.w3.org/2000/svg" viewBox="0 0 838.12 100.16"><defs><style>.cls-1{fill:#e6e6e6;}</style></defs><title>esmad2</title><rect class="cls-1" width="838.12" height="100.16"/><path d="M59.51,57.89V36.45h3.91a16.45,16.45,0,0,1,3.4.25,5.2,5.2,0,0,1,1.9.82,4.82,4.82,0,0,1,1.57,2,7,7,0,0,1,.55,2.82,5.52,5.52,0,0,1-1.71,4.49c-1.14,1-2.95,1.43-5.42,1.43H61.45v9.62Zm1.94-11.33h1.34c2.36,0,3.95-.3,4.76-.9a3.67,3.67,0,0,0,1.23-3.16,5.4,5.4,0,0,0-.28-1.75,4.22,4.22,0,0,0-.84-1.43,3.07,3.07,0,0,0-1.55-.91,14.79,14.79,0,0,0-3.32-.26H61.45Z"/><path d="M75,47.51a8.13,8.13,0,0,1,2-2.39,3.66,3.66,0,0,1,2.23-.7,4,4,0,0,1,.77.07,5.16,5.16,0,0,1,.77.21l-.58,1.7a6,6,0,0,0-.61-.15,3.23,3.23,0,0,0-.61-.06,3.42,3.42,0,0,0-2.78,1.52A6.17,6.17,0,0,0,75,51.51v6.38h-1.8v-13H75Z"/><path d="M93.78,51.45H83.46a6.19,6.19,0,0,0,1.26,3.95,3.9,3.9,0,0,0,3.17,1.44,4.19,4.19,0,0,0,2.52-.78,5.6,5.6,0,0,0,1.81-2.34l1.65.91a7.17,7.17,0,0,1-2.44,2.91,6.39,6.39,0,0,1-3.54.93,6,6,0,0,1-4.62-1.91,7.15,7.15,0,0,1-1.76-5,7.45,7.45,0,0,1,1.75-5.16,5.82,5.82,0,0,1,4.58-2,5.53,5.53,0,0,1,4.32,1.81,6.94,6.94,0,0,1,1.62,4.82Zm-2.14-1.54a4,4,0,0,0-1.18-2.77,4.07,4.07,0,0,0-2.86-1,3.88,3.88,0,0,0-2.75,1,4.19,4.19,0,0,0-1.28,2.72Z"/><path d="M96.05,55.58l1.72-1A3.19,3.19,0,0,0,101,56.78a2.66,2.66,0,0,0,1.81-.58,1.92,1.92,0,0,0,.68-1.54c0-1-.89-1.84-2.66-2.54l-.44-.17a8.37,8.37,0,0,1-2.87-1.66,3,3,0,0,1-.82-2.12,3.5,3.5,0,0,1,1.17-2.72,4.37,4.37,0,0,1,3-1.06,5,5,0,0,1,2.69.69,4,4,0,0,1,1.63,2l-1.66.92a2.59,2.59,0,0,0-1-1.4,3,3,0,0,0-1.76-.49,2.26,2.26,0,0,0-1.55.55,1.8,1.8,0,0,0-.6,1.37,1.72,1.72,0,0,0,.6,1.34,8.09,8.09,0,0,0,2.49,1.15,6.77,6.77,0,0,1,2.88,1.63,3.67,3.67,0,0,1,.74,2.43,3.56,3.56,0,0,1-1.28,2.86,5.18,5.18,0,0,1-3.43,1.07,5.27,5.27,0,0,1-2.85-.76A4.23,4.23,0,0,1,96.05,55.58Z"/><path d="M120.15,51.45H109.82a6.31,6.31,0,0,0,1.26,3.95,3.91,3.91,0,0,0,3.18,1.44,4.19,4.19,0,0,0,2.52-.78,5.66,5.66,0,0,0,1.8-2.34l1.66.91a7.25,7.25,0,0,1-2.44,2.91,6.39,6.39,0,0,1-3.54.93,6,6,0,0,1-4.62-1.91,7.11,7.11,0,0,1-1.77-5,7.5,7.5,0,0,1,1.75-5.16,5.85,5.85,0,0,1,4.58-2,5.5,5.5,0,0,1,4.32,1.81,6.9,6.9,0,0,1,1.63,4.82ZM118,49.91a3.72,3.72,0,0,0-4-3.75,3.86,3.86,0,0,0-2.75,1,4.14,4.14,0,0,0-1.28,2.72Z"/><path d="M123.9,57.89v-13h1.71v2A5.4,5.4,0,0,1,127.55,45a5.54,5.54,0,0,1,2.65-.62,4.27,4.27,0,0,1,4.67,4.66v8.81H133v-8a4.35,4.35,0,0,0-.81-2.89,3.15,3.15,0,0,0-2.51-1,3.63,3.63,0,0,0-3,1.23,6.12,6.12,0,0,0-1,3.84v6.78Z"/><path d="M149.64,47.27a7,7,0,0,0-1.94-.94,7.09,7.09,0,0,0-2.11-.31,5,5,0,0,0-3.85,1.54,5.81,5.81,0,0,0-1.43,4.12,5.09,5.09,0,0,0,1.48,3.77,5.19,5.19,0,0,0,3.8,1.48,6.47,6.47,0,0,0,2.14-.37,8.21,8.21,0,0,0,2.11-1.1v2a7.84,7.84,0,0,1-2.11.81,10.81,10.81,0,0,1-2.47.27,6.52,6.52,0,0,1-4.88-2,6.86,6.86,0,0,1-1.9-5,6.79,6.79,0,0,1,7.14-7.15,10.42,10.42,0,0,1,2.21.22,7.38,7.38,0,0,1,1.84.66Z"/><path d="M152.87,39.83a1.32,1.32,0,0,1,.41-1,1.37,1.37,0,0,1,1-.4,1.34,1.34,0,0,1,1,.4,1.36,1.36,0,0,1,0,2,1.44,1.44,0,0,1-2,0A1.31,1.31,0,0,1,152.87,39.83Zm.46,18.06v-13h1.86v13Z"/><path d="M169.71,57.89V55.52a5,5,0,0,1-1.81,2.19,5,5,0,0,1-2.75.76,5.71,5.71,0,0,1-4.5-1.92,7.34,7.34,0,0,1-1.71-5.07,7.56,7.56,0,0,1,1.68-5.09,5.89,5.89,0,0,1,7.22-1.25,4.88,4.88,0,0,1,1.87,2.13V44.9h1.8v13ZM161,51.54a5.89,5.89,0,0,0,1.13,3.88,4,4,0,0,0,3.25,1.36,3.91,3.91,0,0,0,3.23-1.48,6.49,6.49,0,0,0,1.17-4.1,5.62,5.62,0,0,0-1.17-3.76,4,4,0,0,0-3.21-1.37,4,4,0,0,0-3.22,1.46A6.18,6.18,0,0,0,161,51.54Z"/><path d="M185,64.43V44.9h1.75v2.43a5.61,5.61,0,0,1,2-2.16,5,5,0,0,1,2.69-.75,5.58,5.58,0,0,1,4.42,1.92,7.56,7.56,0,0,1,1.67,5.11,7.56,7.56,0,0,1-1.64,5.11,5.47,5.47,0,0,1-4.36,1.91,5.11,5.11,0,0,1-2.77-.76,5.48,5.48,0,0,1-2-2.22v8.94Zm10.54-13a6.22,6.22,0,0,0-1.15-4,3.86,3.86,0,0,0-3.18-1.45,4.06,4.06,0,0,0-3.26,1.4,5.84,5.84,0,0,0-1.17,3.85,6,6,0,0,0,1.26,4,4.19,4.19,0,0,0,3.35,1.48,3.65,3.65,0,0,0,3.06-1.4A6.24,6.24,0,0,0,195.52,51.48Z"/><path d="M207.12,58.47a6.79,6.79,0,0,1-2.67-.55,7.43,7.43,0,0,1-2.31-1.58,6.42,6.42,0,0,1-1.5-2.22,7.13,7.13,0,0,1-.51-2.7,6.94,6.94,0,0,1,.53-2.69,6.75,6.75,0,0,1,1.51-2.26A6.92,6.92,0,0,1,204.44,45a6.78,6.78,0,0,1,2.68-.53,7,7,0,0,1,2.73.53,7.19,7.19,0,0,1,2.31,1.52,6.95,6.95,0,0,1,1.55,7.62,6.73,6.73,0,0,1-1.52,2.25,7.33,7.33,0,0,1-2.34,1.58A7.12,7.12,0,0,1,207.12,58.47Zm.06-1.69a4.83,4.83,0,0,0,3.62-1.54,5.6,5.6,0,0,0,0-7.6,5,5,0,0,0-7.25,0,5.62,5.62,0,0,0,0,7.6A4.8,4.8,0,0,0,207.18,56.78Z"/><path d="M219.93,57.89h-1.86V35.19h1.86Z"/><path d="M224.52,39.83a1.38,1.38,0,0,1,1.39-1.37,1.37,1.37,0,0,1,1,.4,1.3,1.3,0,0,1,.42,1,1.34,1.34,0,0,1-.4,1,1.37,1.37,0,0,1-1,.4,1.34,1.34,0,0,1-1-.4A1.3,1.3,0,0,1,224.52,39.83ZM225,57.89v-13h1.86v13Z"/><path d="M241.86,47.27a6.9,6.9,0,0,0-1.93-.94,7.14,7.14,0,0,0-2.11-.31A5,5,0,0,0,234,47.56a5.81,5.81,0,0,0-1.44,4.12A5.1,5.1,0,0,0,234,55.45a5.19,5.19,0,0,0,3.8,1.48,6.46,6.46,0,0,0,2.13-.37,8.1,8.1,0,0,0,2.12-1.1v2a8,8,0,0,1-2.11.81,10.9,10.9,0,0,1-2.48.27,6.51,6.51,0,0,1-4.87-2,6.86,6.86,0,0,1-1.91-5,6.81,6.81,0,0,1,7.15-7.15,10.42,10.42,0,0,1,2.21.22,7.31,7.31,0,0,1,1.83.66Z"/><path d="M245.1,39.83a1.38,1.38,0,0,1,1.39-1.37,1.37,1.37,0,0,1,1,.4,1.3,1.3,0,0,1,.42,1,1.34,1.34,0,0,1-.4,1,1.37,1.37,0,0,1-1,.4,1.34,1.34,0,0,1-1-.4A1.3,1.3,0,0,1,245.1,39.83Zm.46,18.06v-13h1.86v13Z"/><path d="M261.93,57.89V55.52a4.88,4.88,0,0,1-1.81,2.19,4.94,4.94,0,0,1-2.74.76,5.74,5.74,0,0,1-4.51-1.92,7.33,7.33,0,0,1-1.7-5.07,7.56,7.56,0,0,1,1.68-5.09,5.88,5.88,0,0,1,7.21-1.25,4.82,4.82,0,0,1,1.87,2.13V44.9h1.8v13Zm-8.76-6.35a5.89,5.89,0,0,0,1.14,3.88,4,4,0,0,0,3.24,1.36,3.88,3.88,0,0,0,3.23-1.48A6.43,6.43,0,0,0,262,51.2a5.62,5.62,0,0,0-1.17-3.76,4,4,0,0,0-3.21-1.37,3.93,3.93,0,0,0-3.22,1.46A6.18,6.18,0,0,0,253.17,51.54Z"/><path d="M270.55,57.89h-1.87V35.19h1.87Z"/><path d="M275.89,56.66a1.47,1.47,0,0,1,.43-1.06,1.46,1.46,0,0,1,1.07-.43,1.47,1.47,0,0,1,1.49,1.49,1.46,1.46,0,0,1-.43,1.07,1.47,1.47,0,0,1-1.06.43,1.47,1.47,0,0,1-1.5-1.5Z"/></svg>