<svg id="fondos" xmlns="http://www.w3.org/2000/svg" viewBox="0 0 838.12 100.16"><defs><style>.cls-1{fill:#e6e6e6;}</style></defs><title>esmad5</title><rect class="cls-1" width="838.12" height="100.16"/><path d="M76.73,42.38a11.44,11.44,0,0,0-3.26-2A9.53,9.53,0,0,0,70,39.68a9.07,9.07,0,0,0-6.76,2.64,9.35,9.35,0,0,0-2.6,6.87A10.7,10.7,0,0,0,61.23,53a8.46,8.46,0,0,0,1.94,3,8.8,8.8,0,0,0,3,2,9.41,9.41,0,0,0,3.57.67,10.58,10.58,0,0,0,3.6-.63,11.78,11.78,0,0,0,3.32-1.86v2.29A14.27,14.27,0,0,1,73.27,60a12.58,12.58,0,0,1-3.5.52,12,12,0,0,1-4.45-.84,10.79,10.79,0,0,1-3.65-2.34,10.49,10.49,0,0,1-2.37-3.61,12.7,12.7,0,0,1,0-9,10.21,10.21,0,0,1,2.38-3.58,10.76,10.76,0,0,1,3.64-2.32A12,12,0,0,1,69.77,38a12.27,12.27,0,0,1,3.81.56,10.36,10.36,0,0,1,3.18,1.69Z"/><path d="M86.59,60.47a6.79,6.79,0,0,1-2.67-.55,7.43,7.43,0,0,1-2.31-1.58,6.53,6.53,0,0,1-1.49-2.22,7,7,0,0,1-.52-2.7,7,7,0,0,1,.53-2.7,7,7,0,0,1,6.46-4.3,7,7,0,0,1,2.73.53,6.83,6.83,0,0,1,2.31,1.52,6.83,6.83,0,0,1,2.08,5,6.88,6.88,0,0,1-.53,2.67,6.73,6.73,0,0,1-1.52,2.25,7.14,7.14,0,0,1-5.07,2.13Zm.06-1.69a4.83,4.83,0,0,0,3.62-1.54,5.6,5.6,0,0,0,0-7.6,5,5,0,0,0-7.25,0,5.62,5.62,0,0,0,0,7.6A4.82,4.82,0,0,0,86.65,58.78Z"/><path d="M97.43,59.89v-13h1.71v2A5.4,5.4,0,0,1,101.08,47a5.54,5.54,0,0,1,2.65-.62,4.27,4.27,0,0,1,4.67,4.66v8.81h-1.83v-8a4.35,4.35,0,0,0-.81-2.89,3.14,3.14,0,0,0-2.51-1,3.63,3.63,0,0,0-3,1.23,6.12,6.12,0,0,0-1,3.84v6.78Z"/><path d="M113.44,48.44h-2.39V46.9h2.39V41.57h1.77V46.9h2.61v1.54h-2.61V59.89h-1.77Z"/><path d="M122.3,49.51a8.13,8.13,0,0,1,2-2.39,3.66,3.66,0,0,1,2.23-.7,4,4,0,0,1,.77.07,5.16,5.16,0,0,1,.77.21l-.59,1.7a5.26,5.26,0,0,0-.6-.15,3.31,3.31,0,0,0-.61-.06,3.41,3.41,0,0,0-2.78,1.52,6.17,6.17,0,0,0-1.15,3.8v6.38h-1.8v-13h1.8Z"/><path d="M135.85,60.47a6.78,6.78,0,0,1-2.66-.55,7.59,7.59,0,0,1-2.32-1.58,6.53,6.53,0,0,1-1.49-2.22,7.13,7.13,0,0,1-.51-2.7,6.86,6.86,0,0,1,2-5,7,7,0,0,1,4.95-2,7,7,0,0,1,2.73.53,7.12,7.12,0,0,1,3.86,3.79,7,7,0,0,1,.53,2.68,6.7,6.7,0,0,1-.53,2.67,6.59,6.59,0,0,1-1.52,2.25,7.14,7.14,0,0,1-5.07,2.13Zm.06-1.69a4.84,4.84,0,0,0,3.63-1.54,5.62,5.62,0,0,0,0-7.6,5,5,0,0,0-7.25,0,5.62,5.62,0,0,0,0,7.6A4.83,4.83,0,0,0,135.91,58.78Z"/><path d="M148.67,59.89h-1.86V37.19h1.86Z"/><path d="M160.46,46.9h1.92l3.72,10.17,3.43-10.17h1.92l-6.72,19.53h-1.87l2.28-6.62Z"/><path d="M184.76,59.89H183v-13h1.8v2a4.72,4.72,0,0,1,1.7-1.88,4.59,4.59,0,0,1,2.43-.64,4.41,4.41,0,0,1,2.43.65A4.16,4.16,0,0,1,192.86,49a5.35,5.35,0,0,1,1.91-1.93,5.26,5.26,0,0,1,2.62-.63,4.27,4.27,0,0,1,3.25,1.25,4.81,4.81,0,0,1,1.19,3.44v8.78H200V51.82a4.44,4.44,0,0,0-.79-2.87,2.83,2.83,0,0,0-2.33-1,3.13,3.13,0,0,0-2.73,1.21,6.63,6.63,0,0,0-.88,3.85v6.84h-1.78V51.82a4.59,4.59,0,0,0-.75-2.91,2.79,2.79,0,0,0-2.31-.92,3.22,3.22,0,0,0-2.8,1.23,6.53,6.53,0,0,0-.9,3.83Z"/><path d="M216.23,59.89V57.52a4.88,4.88,0,0,1-1.81,2.19,5,5,0,0,1-2.75.76,5.74,5.74,0,0,1-4.5-1.92,7.34,7.34,0,0,1-1.71-5.07,7.52,7.52,0,0,1,1.69-5.09,5.88,5.88,0,0,1,7.21-1.25,4.82,4.82,0,0,1,1.87,2.13V46.9H218v13Zm-8.76-6.35a5.94,5.94,0,0,0,1.13,3.88,4,4,0,0,0,3.25,1.36,3.9,3.9,0,0,0,3.23-1.48,6.49,6.49,0,0,0,1.18-4.1,5.62,5.62,0,0,0-1.17-3.76,4,4,0,0,0-3.21-1.37,3.93,3.93,0,0,0-3.22,1.46A6.13,6.13,0,0,0,207.47,53.54Z"/><path d="M222.86,59.89v-13h1.72v2A5.32,5.32,0,0,1,226.52,47a5.53,5.53,0,0,1,2.64-.62,4.27,4.27,0,0,1,4.68,4.66v8.81H232v-8a4.35,4.35,0,0,0-.82-2.89,3.14,3.14,0,0,0-2.51-1,3.64,3.64,0,0,0-3,1.23,6.12,6.12,0,0,0-1,3.84v6.78Z"/><path d="M249.66,53.45H239.33a6.31,6.31,0,0,0,1.26,3.95,3.91,3.91,0,0,0,3.18,1.44,4.21,4.21,0,0,0,2.52-.78,5.73,5.73,0,0,0,1.8-2.34l1.65.91a7.15,7.15,0,0,1-2.43,2.91,6.44,6.44,0,0,1-3.54.93,6,6,0,0,1-4.62-1.92,7.07,7.07,0,0,1-1.77-5,7.45,7.45,0,0,1,1.75-5.16,5.84,5.84,0,0,1,4.58-2A5.5,5.5,0,0,1,248,48.23a6.94,6.94,0,0,1,1.63,4.82Zm-2.14-1.54a4.07,4.07,0,0,0-1.19-2.77,4,4,0,0,0-2.85-1,3.86,3.86,0,0,0-2.75,1,4.09,4.09,0,0,0-1.28,2.72Z"/><path d="M253.07,41.83a1.38,1.38,0,0,1,1.39-1.37,1.37,1.37,0,0,1,1,.4,1.3,1.3,0,0,1,.42,1,1.34,1.34,0,0,1-.4,1,1.37,1.37,0,0,1-1,.4,1.34,1.34,0,0,1-1-.4A1.3,1.3,0,0,1,253.07,41.83Zm.45,24.6V46.9h1.86V66.43Z"/><path d="M266.21,60.47a6.79,6.79,0,0,1-2.67-.55,7.43,7.43,0,0,1-2.31-1.58,6.56,6.56,0,0,1-1.5-2.22,7.13,7.13,0,0,1-.51-2.7,7,7,0,0,1,.53-2.7,7,7,0,0,1,6.46-4.3,7.15,7.15,0,0,1,5,2,6.95,6.95,0,0,1,1.55,7.62,6.73,6.73,0,0,1-1.52,2.25,7.33,7.33,0,0,1-2.34,1.58A7.08,7.08,0,0,1,266.21,60.47Zm.06-1.69a4.83,4.83,0,0,0,3.62-1.54,5.6,5.6,0,0,0,0-7.6,5,5,0,0,0-7.25,0,5.62,5.62,0,0,0,0,7.6A4.82,4.82,0,0,0,266.27,58.78Z"/><path d="M295.32,59.89V57.52a4.7,4.7,0,0,1-4.53,2.95,5.71,5.71,0,0,1-4.5-1.92,7.34,7.34,0,0,1-1.71-5.07,7.56,7.56,0,0,1,1.68-5.09,5.49,5.49,0,0,1,4.35-2,5.39,5.39,0,0,1,2.85.72,4.86,4.86,0,0,1,1.86,2.13V37.19h1.83v22.7Zm-8.73-6.35a5.89,5.89,0,0,0,1.13,3.88A4,4,0,0,0,291,58.78a3.85,3.85,0,0,0,3.2-1.48,6.49,6.49,0,0,0,1.18-4.1,5.67,5.67,0,0,0-1.16-3.76,4.35,4.35,0,0,0-6.42.09A6.18,6.18,0,0,0,286.59,53.54Z"/><path d="M313.08,53.45H302.76A6.31,6.31,0,0,0,304,57.4a3.91,3.91,0,0,0,3.18,1.44,4.23,4.23,0,0,0,2.52-.78,5.73,5.73,0,0,0,1.8-2.34l1.65.91a7.17,7.17,0,0,1-2.44,2.91,6.38,6.38,0,0,1-3.53.93,6,6,0,0,1-4.63-1.92,7.11,7.11,0,0,1-1.76-5,7.45,7.45,0,0,1,1.75-5.16,5.84,5.84,0,0,1,4.58-2,5.53,5.53,0,0,1,4.32,1.81,6.94,6.94,0,0,1,1.62,4.82ZM311,51.91a3.72,3.72,0,0,0-4.05-3.75,3.84,3.84,0,0,0-2.74,1,4.15,4.15,0,0,0-1.29,2.72Z"/><path d="M325.48,66.43V46.9h1.74v2.43a5.69,5.69,0,0,1,1.95-2.16,5,5,0,0,1,2.69-.75,5.58,5.58,0,0,1,4.42,1.92A7.51,7.51,0,0,1,338,53.45a7.57,7.57,0,0,1-1.64,5.1A5.47,5.47,0,0,1,332,60.47a5.14,5.14,0,0,1-2.77-.76,5.55,5.55,0,0,1-2-2.22v8.94Zm10.53-13a6.16,6.16,0,0,0-1.15-4,3.81,3.81,0,0,0-3.17-1.45,4,4,0,0,0-3.26,1.4,5.79,5.79,0,0,0-1.18,3.85,5.92,5.92,0,0,0,1.27,4,4.17,4.17,0,0,0,3.34,1.48,3.65,3.65,0,0,0,3.06-1.4A6.24,6.24,0,0,0,336,53.48Z"/><path d="M347.61,60.47a6.79,6.79,0,0,1-2.67-.55,7.55,7.55,0,0,1-2.31-1.58,6.53,6.53,0,0,1-1.49-2.22,7,7,0,0,1-.52-2.7,6.92,6.92,0,0,1,2-5,7,7,0,0,1,4.95-2,7,7,0,0,1,2.73.53,6.83,6.83,0,0,1,2.31,1.52,6.83,6.83,0,0,1,2.08,5,6.88,6.88,0,0,1-.53,2.67,6.73,6.73,0,0,1-1.52,2.25,7.14,7.14,0,0,1-5.07,2.13Zm.06-1.69a4.85,4.85,0,0,0,3.63-1.54,5.62,5.62,0,0,0,0-7.6,5,5,0,0,0-7.25,0,5.62,5.62,0,0,0,0,7.6A4.82,4.82,0,0,0,347.67,58.78Z"/><path d="M357,57.58l1.71-1a3.42,3.42,0,0,0,1.24,1.63,3.36,3.36,0,0,0,2,.55,2.69,2.69,0,0,0,1.82-.58,1.92,1.92,0,0,0,.67-1.54c0-1-.88-1.84-2.65-2.54l-.44-.17a8.37,8.37,0,0,1-2.87-1.66,3,3,0,0,1-.82-2.12,3.5,3.5,0,0,1,1.17-2.72,4.33,4.33,0,0,1,3-1.06,5,5,0,0,1,2.69.69,4,4,0,0,1,1.63,2l-1.66.92a2.64,2.64,0,0,0-1-1.4,3,3,0,0,0-1.76-.49,2.26,2.26,0,0,0-1.55.55,1.81,1.81,0,0,0-.61,1.37,1.7,1.7,0,0,0,.61,1.34,8.09,8.09,0,0,0,2.49,1.15,6.66,6.66,0,0,1,2.87,1.63,3.62,3.62,0,0,1,.74,2.43A3.55,3.55,0,0,1,365,59.4a5.18,5.18,0,0,1-3.43,1.07,5.27,5.27,0,0,1-2.85-.76A4.23,4.23,0,0,1,357,57.58Z"/><path d="M369.57,41.83A1.38,1.38,0,0,1,371,40.46a1.37,1.37,0,0,1,1,.4,1.3,1.3,0,0,1,.42,1,1.31,1.31,0,0,1-.41,1,1.44,1.44,0,0,1-2,0A1.3,1.3,0,0,1,369.57,41.83ZM370,59.89v-13h1.86v13Z"/><path d="M378.61,59.89h-1.8V37.19h1.8V49.27a4.84,4.84,0,0,1,1.85-2.13,5.86,5.86,0,0,1,7.2,1.25,7.56,7.56,0,0,1,1.68,5.09,7.38,7.38,0,0,1-1.7,5.07,5.74,5.74,0,0,1-4.51,1.92,4.67,4.67,0,0,1-4.52-2.95Zm8.73-6.35a6.18,6.18,0,0,0-1.19-4,3.93,3.93,0,0,0-3.22-1.46,4,4,0,0,0-3.2,1.37,5.67,5.67,0,0,0-1.15,3.76,6.43,6.43,0,0,0,1.18,4.1A3.88,3.88,0,0,0,383,58.78a4,4,0,0,0,3.22-1.35A6,6,0,0,0,387.34,53.54Z"/><path d="M395,59.89h-1.86V37.19H395Z"/><path d="M411.1,53.45H400.77A6.31,6.31,0,0,0,402,57.4a3.91,3.91,0,0,0,3.18,1.44,4.19,4.19,0,0,0,2.52-.78,5.73,5.73,0,0,0,1.8-2.34l1.65.91a7.15,7.15,0,0,1-2.43,2.91,6.44,6.44,0,0,1-3.54.93,6,6,0,0,1-4.62-1.92,7.07,7.07,0,0,1-1.77-5,7.45,7.45,0,0,1,1.75-5.16,5.85,5.85,0,0,1,4.58-2,5.5,5.5,0,0,1,4.32,1.81,6.9,6.9,0,0,1,1.63,4.82ZM409,51.91a3.72,3.72,0,0,0-4-3.75,3.86,3.86,0,0,0-2.75,1,4.09,4.09,0,0,0-1.28,2.72Z"/><path d="M413.37,57.58l1.71-1a3.35,3.35,0,0,0,1.23,1.63,3.42,3.42,0,0,0,2,.55,2.69,2.69,0,0,0,1.82-.58,1.92,1.92,0,0,0,.67-1.54c0-1-.88-1.84-2.65-2.54l-.44-.17a8.18,8.18,0,0,1-2.87-1.66,3,3,0,0,1-.82-2.12,3.5,3.5,0,0,1,1.17-2.72,4.32,4.32,0,0,1,3-1.06,5,5,0,0,1,2.7.69,4,4,0,0,1,1.62,2l-1.65.92a2.66,2.66,0,0,0-1-1.4,3,3,0,0,0-1.76-.49,2.23,2.23,0,0,0-1.54.55,1.77,1.77,0,0,0-.61,1.37,1.72,1.72,0,0,0,.6,1.34A8.09,8.09,0,0,0,419,52.48a6.64,6.64,0,0,1,2.88,1.63,3.67,3.67,0,0,1,.74,2.43,3.55,3.55,0,0,1-1.27,2.86,5.89,5.89,0,0,1-6.28.31A4.18,4.18,0,0,1,413.37,57.58Z"/><path d="M444.57,59.89V57.52A4.67,4.67,0,0,1,440,60.47a5.74,5.74,0,0,1-4.5-1.92,7.34,7.34,0,0,1-1.71-5.07,7.52,7.52,0,0,1,1.69-5.09,5.86,5.86,0,0,1,7.2-1.25,4.9,4.9,0,0,1,1.85,2.13V37.19h1.83v22.7Zm-8.73-6.35A5.94,5.94,0,0,0,437,57.42a4,4,0,0,0,3.25,1.36,3.87,3.87,0,0,0,3.21-1.48,6.49,6.49,0,0,0,1.17-4.1,5.67,5.67,0,0,0-1.16-3.76,4.35,4.35,0,0,0-6.42.09A6.18,6.18,0,0,0,435.84,53.54Z"/><path d="M450.84,41.83a1.38,1.38,0,0,1,1.39-1.37,1.37,1.37,0,0,1,1,.4,1.3,1.3,0,0,1,.42,1,1.31,1.31,0,0,1-.41,1,1.44,1.44,0,0,1-2,0A1.3,1.3,0,0,1,450.84,41.83Zm.45,18.06v-13h1.86v13Z"/><path d="M456.6,57.58l1.71-1a3.35,3.35,0,0,0,1.23,1.63,3.42,3.42,0,0,0,2,.55,2.66,2.66,0,0,0,1.81-.58,1.92,1.92,0,0,0,.68-1.54c0-1-.89-1.84-2.65-2.54-.19-.07-.34-.12-.44-.17a8.18,8.18,0,0,1-2.87-1.66,3,3,0,0,1-.82-2.12,3.5,3.5,0,0,1,1.17-2.72,4.32,4.32,0,0,1,3-1.06,5,5,0,0,1,2.69.69,3.94,3.94,0,0,1,1.63,2L464.1,50a2.66,2.66,0,0,0-1-1.4,3,3,0,0,0-1.76-.49,2.23,2.23,0,0,0-1.54.55,1.77,1.77,0,0,0-.61,1.37,1.72,1.72,0,0,0,.6,1.34,8.09,8.09,0,0,0,2.49,1.15,6.71,6.71,0,0,1,2.88,1.63,3.67,3.67,0,0,1,.74,2.43,3.56,3.56,0,0,1-1.28,2.86,5.17,5.17,0,0,1-3.42,1.07,5.22,5.22,0,0,1-2.85-.76A4.18,4.18,0,0,1,456.6,57.58Z"/><path d="M469.91,48.44h-2.39V46.9h2.39V41.57h1.77V46.9h2.61v1.54h-2.61V59.89h-1.77Z"/><path d="M478.77,46.9v6.49a7.59,7.59,0,0,0,.85,4.18,3.21,3.21,0,0,0,2.84,1.21,3.25,3.25,0,0,0,2.86-1.23,7.48,7.48,0,0,0,.86-4.16V46.9H488v7.41a6.69,6.69,0,0,1-1.39,4.6,6.17,6.17,0,0,1-8.2,0,6.65,6.65,0,0,1-1.41-4.6V46.9Z"/><path d="M494.58,49.51a8,8,0,0,1,1.95-2.39,3.69,3.69,0,0,1,2.24-.7,4.08,4.08,0,0,1,.77.07,5.51,5.51,0,0,1,.77.21l-.59,1.7a6,6,0,0,0-.61-.15,3.23,3.23,0,0,0-.61-.06,3.39,3.39,0,0,0-2.77,1.52,6.11,6.11,0,0,0-1.15,3.8v6.38h-1.8v-13h1.8Z"/><path d="M504,59.89h-1.8V37.19H504V49.27a4.84,4.84,0,0,1,1.85-2.13,5.86,5.86,0,0,1,7.2,1.25,7.56,7.56,0,0,1,1.68,5.09,7.38,7.38,0,0,1-1.7,5.07,5.74,5.74,0,0,1-4.51,1.92A4.67,4.67,0,0,1,504,57.52Zm8.73-6.35a6.18,6.18,0,0,0-1.19-4,3.93,3.93,0,0,0-3.22-1.46,4,4,0,0,0-3.2,1.37A5.67,5.67,0,0,0,504,53.2a6.43,6.43,0,0,0,1.18,4.1,3.88,3.88,0,0,0,3.23,1.48,4,4,0,0,0,3.22-1.35A6,6,0,0,0,512.76,53.54Z"/><path d="M518.12,41.83a1.38,1.38,0,0,1,1.39-1.37,1.37,1.37,0,0,1,1,.4,1.3,1.3,0,0,1,.42,1,1.31,1.31,0,0,1-.41,1,1.44,1.44,0,0,1-2,0A1.3,1.3,0,0,1,518.12,41.83Zm.45,18.06v-13h1.86v13Z"/><path d="M531.26,60.47a6.79,6.79,0,0,1-2.67-.55,7.43,7.43,0,0,1-2.31-1.58,6.56,6.56,0,0,1-1.5-2.22,7.13,7.13,0,0,1-.51-2.7,7,7,0,0,1,.53-2.7,7,7,0,0,1,6.46-4.3,7.15,7.15,0,0,1,5,2,6.95,6.95,0,0,1,1.55,7.62,6.73,6.73,0,0,1-1.52,2.25A7.33,7.33,0,0,1,534,59.92,7.08,7.08,0,0,1,531.26,60.47Zm.06-1.69a4.83,4.83,0,0,0,3.62-1.54,5.6,5.6,0,0,0,0-7.6,5,5,0,0,0-7.25,0,5.62,5.62,0,0,0,0,7.6A4.8,4.8,0,0,0,531.32,58.78Z"/><path d="M540.62,57.58l1.71-1a3.47,3.47,0,0,0,1.23,1.63,3.42,3.42,0,0,0,2,.55,2.69,2.69,0,0,0,1.82-.58,1.92,1.92,0,0,0,.67-1.54c0-1-.88-1.84-2.65-2.54l-.44-.17a8.27,8.27,0,0,1-2.87-1.66,3,3,0,0,1-.82-2.12,3.5,3.5,0,0,1,1.17-2.72,4.32,4.32,0,0,1,3-1.06,5,5,0,0,1,2.7.69,4,4,0,0,1,1.62,2l-1.65.92a2.66,2.66,0,0,0-1-1.4,3,3,0,0,0-1.75-.49,2.24,2.24,0,0,0-1.55.55,1.77,1.77,0,0,0-.61,1.37,1.72,1.72,0,0,0,.6,1.34,8.09,8.09,0,0,0,2.49,1.15,6.64,6.64,0,0,1,2.88,1.63,3.67,3.67,0,0,1,.74,2.43,3.55,3.55,0,0,1-1.27,2.86,5.19,5.19,0,0,1-3.43,1.07,5.27,5.27,0,0,1-2.85-.76A4.18,4.18,0,0,1,540.62,57.58Z"/></svg>