<svg id="fondos" xmlns="http://www.w3.org/2000/svg" viewBox="0 0 838.12 100.16"><defs><style>.cls-1{fill:#e6e6e6;}</style></defs><title>explosivos4</title><rect class="cls-1" width="838.12" height="100.16"/><path d="M72.53,44H70.15L62.63,33.77H61.45V44H59.51V22.55h3.94A8,8,0,0,1,68.67,24a5.39,5.39,0,0,1,1.73,4.39,5.21,5.21,0,0,1-1.48,3.94,5.65,5.65,0,0,1-4.1,1.44ZM61.45,24.25v7.92h2a6.22,6.22,0,0,0,3.8-.87,3.63,3.63,0,0,0,1.07-3,3.91,3.91,0,0,0-1.11-3.15,5.85,5.85,0,0,0-3.76-.94Z"/><path d="M85.71,37.55H75.38a6.31,6.31,0,0,0,1.26,4,3.91,3.91,0,0,0,3.18,1.44,4.19,4.19,0,0,0,2.52-.78,5.65,5.65,0,0,0,1.8-2.34l1.66.91a7.07,7.07,0,0,1-2.44,2.9,6.39,6.39,0,0,1-3.54.94,6,6,0,0,1-4.62-1.92,7.06,7.06,0,0,1-1.76-5,7.45,7.45,0,0,1,1.75-5.16,5.82,5.82,0,0,1,4.57-2,5.54,5.54,0,0,1,4.33,1.81,6.94,6.94,0,0,1,1.62,4.82ZM83.57,36a3.71,3.71,0,0,0-4-3.75,3.88,3.88,0,0,0-2.75,1A4.19,4.19,0,0,0,75.5,36Z"/><path d="M99.57,33.37a7,7,0,0,0-1.93-.94,7.2,7.2,0,0,0-2.11-.32,5,5,0,0,0-3.86,1.55,5.83,5.83,0,0,0-1.43,4.12,5.09,5.09,0,0,0,1.48,3.77A5.21,5.21,0,0,0,95.53,43a6.46,6.46,0,0,0,2.13-.37,8.05,8.05,0,0,0,2.11-1.1v2a7.71,7.71,0,0,1-2.11.81,10.81,10.81,0,0,1-2.47.27,6.53,6.53,0,0,1-4.88-1.95,6.86,6.86,0,0,1-1.9-5,6.79,6.79,0,0,1,7.15-7.15,10.32,10.32,0,0,1,2.2.22,7.38,7.38,0,0,1,1.84.66Z"/><path d="M104.94,31v6.49a7.61,7.61,0,0,0,.85,4.18,3.94,3.94,0,0,0,5.7,0,7.47,7.47,0,0,0,.87-4.16V31h1.78v7.41a6.73,6.73,0,0,1-1.39,4.6,5.19,5.19,0,0,1-4.08,1.56A5.27,5.27,0,0,1,104.55,43a6.68,6.68,0,0,1-1.41-4.6V31Z"/><path d="M119,50.53V31h1.74v2.43a5.69,5.69,0,0,1,2-2.16,5,5,0,0,1,2.7-.75,5.58,5.58,0,0,1,4.41,1.92,7.51,7.51,0,0,1,1.68,5.11,7.57,7.57,0,0,1-1.64,5.1,5.47,5.47,0,0,1-4.37,1.92,5.16,5.16,0,0,1-2.77-.76,5.55,5.55,0,0,1-2-2.22v8.94Zm10.53-13a6.16,6.16,0,0,0-1.15-4,3.81,3.81,0,0,0-3.17-1.45,4,4,0,0,0-3.26,1.4,5.77,5.77,0,0,0-1.18,3.85,5.88,5.88,0,0,0,1.27,4,4.15,4.15,0,0,0,3.35,1.49,3.64,3.64,0,0,0,3-1.4A6.18,6.18,0,0,0,129.48,37.58Z"/><path d="M146.34,37.55H136a6.31,6.31,0,0,0,1.26,4,3.91,3.91,0,0,0,3.18,1.44,4.19,4.19,0,0,0,2.52-.78,5.65,5.65,0,0,0,1.8-2.34l1.66.91a7.07,7.07,0,0,1-2.44,2.9,6.39,6.39,0,0,1-3.54.94,6,6,0,0,1-4.62-1.92,7.06,7.06,0,0,1-1.76-5,7.45,7.45,0,0,1,1.75-5.16,5.82,5.82,0,0,1,4.57-2,5.54,5.54,0,0,1,4.33,1.81,6.94,6.94,0,0,1,1.62,4.82ZM144.2,36a3.71,3.71,0,0,0-4-3.75,3.88,3.88,0,0,0-2.75,1A4.19,4.19,0,0,0,136.13,36Z"/><path d="M151.89,33.61a8.13,8.13,0,0,1,2-2.39,3.66,3.66,0,0,1,2.23-.7,4,4,0,0,1,.77.07,5.16,5.16,0,0,1,.77.21L157,32.5a5.26,5.26,0,0,0-.6-.15,3.31,3.31,0,0,0-.61-.06A3.41,3.41,0,0,0,153,33.81a6.17,6.17,0,0,0-1.15,3.8V44h-1.8V31h1.8Z"/><path d="M169.13,44V41.62a4.88,4.88,0,0,1-1.81,2.19,4.94,4.94,0,0,1-2.74.76,5.74,5.74,0,0,1-4.51-1.92,7.38,7.38,0,0,1-1.7-5.07,7.56,7.56,0,0,1,1.68-5.09,5.89,5.89,0,0,1,7.22-1.25,4.86,4.86,0,0,1,1.86,2.13V31h1.81V44Zm-8.76-6.35a5.89,5.89,0,0,0,1.14,3.88,4,4,0,0,0,3.24,1.36A3.87,3.87,0,0,0,168,41.39a6.38,6.38,0,0,0,1.18-4.09A5.62,5.62,0,0,0,168,33.54a4,4,0,0,0-3.21-1.37,4,4,0,0,0-3.22,1.46A6.18,6.18,0,0,0,160.37,37.64Z"/><path d="M185.88,33.37a7,7,0,0,0-1.94-.94,7.1,7.1,0,0,0-2.11-.32A5,5,0,0,0,178,33.66a5.79,5.79,0,0,0-1.43,4.12A5.09,5.09,0,0,0,178,41.55a5.19,5.19,0,0,0,3.8,1.48,6.47,6.47,0,0,0,2.14-.37,8.21,8.21,0,0,0,2.11-1.1v2a7.84,7.84,0,0,1-2.11.81,10.81,10.81,0,0,1-2.47.27,6.53,6.53,0,0,1-4.88-1.95,6.86,6.86,0,0,1-1.9-5,6.79,6.79,0,0,1,7.14-7.15,10.42,10.42,0,0,1,2.21.22,7.38,7.38,0,0,1,1.84.66Z"/><path d="M189.11,25.93a1.32,1.32,0,0,1,.41-1,1.37,1.37,0,0,1,1-.4,1.34,1.34,0,0,1,1,.4,1.36,1.36,0,0,1,0,1.95,1.44,1.44,0,0,1-2,0A1.31,1.31,0,0,1,189.11,25.93ZM189.57,44V31h1.86V44Z"/><path d="M202.25,44.57a6.78,6.78,0,0,1-2.66-.55,7.59,7.59,0,0,1-2.32-1.58,6.57,6.57,0,0,1-1.49-2.23,7,7,0,0,1,1.52-7.64,7,7,0,0,1,4.95-2.05,7.08,7.08,0,0,1,2.74.53,7.14,7.14,0,0,1,3.85,3.79,7,7,0,0,1,.53,2.68,6.87,6.87,0,0,1-.52,2.67,6.76,6.76,0,0,1-1.53,2.25,7.1,7.1,0,0,1-5.07,2.13Zm.06-1.69a4.84,4.84,0,0,0,3.63-1.54,5.6,5.6,0,0,0,0-7.6,5,5,0,0,0-7.26,0,5.65,5.65,0,0,0,0,7.6A4.83,4.83,0,0,0,202.31,42.88Zm-1.95-14,3.12-5.13h2.41l-4.15,5.13Z"/><path d="M213.09,44V31h1.72v2a5.32,5.32,0,0,1,1.94-1.87,5.53,5.53,0,0,1,2.64-.62,4.27,4.27,0,0,1,4.68,4.66V44h-1.84V36a4.35,4.35,0,0,0-.81-2.89,3.14,3.14,0,0,0-2.51-1,3.64,3.64,0,0,0-3,1.23,6.12,6.12,0,0,0-1,3.84V44Z"/><path d="M247,44V41.62a4.67,4.67,0,0,1-4.53,3,5.74,5.74,0,0,1-4.5-1.92,7.34,7.34,0,0,1-1.71-5.07,7.52,7.52,0,0,1,1.69-5.09,5.86,5.86,0,0,1,7.2-1.25A4.9,4.9,0,0,1,247,33.37V21.29h1.83V44Zm-8.73-6.35a5.89,5.89,0,0,0,1.14,3.88,4,4,0,0,0,3.24,1.36,3.84,3.84,0,0,0,3.21-1.49A6.44,6.44,0,0,0,247,37.3a5.67,5.67,0,0,0-1.16-3.76,4.34,4.34,0,0,0-6.41.09A6.18,6.18,0,0,0,238.26,37.64Z"/><path d="M264.76,37.55H254.43a6.31,6.31,0,0,0,1.26,4,3.91,3.91,0,0,0,3.18,1.44,4.19,4.19,0,0,0,2.52-.78,5.73,5.73,0,0,0,1.8-2.34l1.66.91a7.14,7.14,0,0,1-2.44,2.9,6.39,6.39,0,0,1-3.54.94,6,6,0,0,1-4.62-1.92,7.07,7.07,0,0,1-1.77-5,7.5,7.5,0,0,1,1.75-5.16,5.85,5.85,0,0,1,4.58-2,5.5,5.5,0,0,1,4.32,1.81,6.9,6.9,0,0,1,1.63,4.82ZM262.62,36a3.72,3.72,0,0,0-4-3.75,3.86,3.86,0,0,0-2.75,1A4.14,4.14,0,0,0,254.55,36Z"/><path d="M270.49,44h-1.86V21.29h1.86Z"/><path d="M295.21,37.55H284.89a6.19,6.19,0,0,0,1.26,4,3.9,3.9,0,0,0,3.17,1.44,4.19,4.19,0,0,0,2.52-.78,5.66,5.66,0,0,0,1.81-2.34l1.65.91a7.07,7.07,0,0,1-2.44,2.9,6.39,6.39,0,0,1-3.54.94,6,6,0,0,1-4.62-1.92,7.11,7.11,0,0,1-1.76-5,7.45,7.45,0,0,1,1.75-5.16,5.82,5.82,0,0,1,4.58-2,5.53,5.53,0,0,1,4.32,1.81,6.94,6.94,0,0,1,1.62,4.82ZM293.07,36a4,4,0,0,0-1.18-2.77,4.07,4.07,0,0,0-2.86-1,3.84,3.84,0,0,0-2.74,1A4.15,4.15,0,0,0,285,36Z"/><path d="M310.39,50.53h-1.74V41.59a5.57,5.57,0,0,1-2,2.22,5.21,5.21,0,0,1-2.79.76,5.45,5.45,0,0,1-4.37-1.92,7.57,7.57,0,0,1-1.64-5.1,7.56,7.56,0,0,1,1.67-5.11A5.57,5.57,0,0,1,304,30.52a5,5,0,0,1,2.73.76,5.5,5.5,0,0,1,1.95,2.15V31h1.74Zm-6.21-18.36A3.87,3.87,0,0,0,301,33.62a6.16,6.16,0,0,0-1.16,4,6.18,6.18,0,0,0,1.1,3.9,3.68,3.68,0,0,0,3.07,1.4,4.12,4.12,0,0,0,3.33-1.48,5.92,5.92,0,0,0,1.26-4,5.83,5.83,0,0,0-1.17-3.86A4,4,0,0,0,304.18,32.17Z"/><path d="M317,31v6.49a7.72,7.72,0,0,0,.84,4.18,3.94,3.94,0,0,0,5.7,0,7.47,7.47,0,0,0,.87-4.16V31h1.78v7.41A6.73,6.73,0,0,1,324.8,43a5.18,5.18,0,0,1-4.08,1.56A5.27,5.27,0,0,1,316.6,43a6.68,6.68,0,0,1-1.41-4.6V31Z"/><path d="M330.66,25.93a1.32,1.32,0,0,1,.41-1,1.41,1.41,0,0,1,2,0,1.36,1.36,0,0,1,0,1.95,1.37,1.37,0,0,1-1,.4,1.38,1.38,0,0,1-1.39-1.38ZM331.12,44V31H333V44Z"/><path d="M337.9,50.53V31h1.74v2.43a5.69,5.69,0,0,1,1.95-2.16,5,5,0,0,1,2.7-.75,5.58,5.58,0,0,1,4.41,1.92,7.51,7.51,0,0,1,1.68,5.11,7.57,7.57,0,0,1-1.64,5.1,5.47,5.47,0,0,1-4.37,1.92,5.16,5.16,0,0,1-2.77-.76,5.55,5.55,0,0,1-2-2.22v8.94Zm10.53-13a6.16,6.16,0,0,0-1.15-4,3.81,3.81,0,0,0-3.17-1.45,4,4,0,0,0-3.26,1.4,5.77,5.77,0,0,0-1.18,3.85,5.88,5.88,0,0,0,1.27,4,4.15,4.15,0,0,0,3.35,1.49,3.64,3.64,0,0,0,3-1.4A6.18,6.18,0,0,0,348.43,37.58Z"/><path d="M360,44.57a6.74,6.74,0,0,1-2.66-.55,7.59,7.59,0,0,1-2.32-1.58,6.57,6.57,0,0,1-1.49-2.23,7.31,7.31,0,0,1,0-5.39,7,7,0,0,1,6.46-4.3,7,7,0,0,1,2.73.53,7.12,7.12,0,0,1,3.86,3.79,7,7,0,0,1,.53,2.68,6.7,6.7,0,0,1-.53,2.67,6.59,6.59,0,0,1-1.52,2.25A7.14,7.14,0,0,1,360,44.57Zm.06-1.69a4.85,4.85,0,0,0,3.63-1.54,5.62,5.62,0,0,0,0-7.6,5,5,0,0,0-7.25,0,5.62,5.62,0,0,0,0,7.6A4.83,4.83,0,0,0,360.09,42.88Z"/><path d="M381.32,31v6.49a7.72,7.72,0,0,0,.84,4.18,3.94,3.94,0,0,0,5.7,0,7.47,7.47,0,0,0,.87-4.16V31h1.79v7.41a6.73,6.73,0,0,1-1.4,4.6A5.18,5.18,0,0,1,385,44.57,5.27,5.27,0,0,1,380.92,43a6.68,6.68,0,0,1-1.4-4.6V31Z"/><path d="M395.7,32.54h-2.39V31h2.39V25.67h1.77V31h2.61v1.54h-2.61V44H395.7Z"/><path d="M402.43,25.93a1.29,1.29,0,0,1,.41-1,1.34,1.34,0,0,1,1-.4,1.37,1.37,0,0,1,1,.4,1.32,1.32,0,0,1,.41,1,1.3,1.3,0,0,1-.4,1,1.44,1.44,0,0,1-2,0A1.3,1.3,0,0,1,402.43,25.93ZM402.88,44V31h1.86V44Z"/><path d="M411.64,44h-1.86V21.29h1.86Z"/><path d="M416.22,25.93a1.32,1.32,0,0,1,.41-1,1.36,1.36,0,0,1,1-.4,1.34,1.34,0,0,1,1,.4,1.36,1.36,0,0,1,0,1.95,1.35,1.35,0,0,1-1,.4,1.38,1.38,0,0,1-1.4-1.38ZM416.68,44V31h1.86V44Z"/><path d="M421.39,44l7.26-11.36h-6.76V31h9.88l-7.2,11.37H432V44Z"/><path d="M444.48,44V41.62a4.88,4.88,0,0,1-1.81,2.19,4.94,4.94,0,0,1-2.74.76,5.74,5.74,0,0,1-4.51-1.92,7.34,7.34,0,0,1-1.71-5.07,7.57,7.57,0,0,1,1.69-5.09,5.88,5.88,0,0,1,7.21-1.25,4.82,4.82,0,0,1,1.87,2.13V31h1.8V44Zm-8.76-6.35a5.89,5.89,0,0,0,1.14,3.88,4,4,0,0,0,3.24,1.36,3.88,3.88,0,0,0,3.23-1.49,6.38,6.38,0,0,0,1.18-4.09,5.62,5.62,0,0,0-1.17-3.76,4,4,0,0,0-3.21-1.37,3.93,3.93,0,0,0-3.22,1.46A6.18,6.18,0,0,0,435.72,37.64Z"/><path d="M460.74,44V41.62a4.67,4.67,0,0,1-4.53,3,5.74,5.74,0,0,1-4.5-1.92A7.34,7.34,0,0,1,450,37.58a7.52,7.52,0,0,1,1.69-5.09,5.86,5.86,0,0,1,7.2-1.25,4.9,4.9,0,0,1,1.85,2.13V21.29h1.83V44ZM452,37.64a5.89,5.89,0,0,0,1.14,3.88,4,4,0,0,0,3.24,1.36,3.84,3.84,0,0,0,3.21-1.49,6.44,6.44,0,0,0,1.17-4.09,5.67,5.67,0,0,0-1.16-3.76,4.34,4.34,0,0,0-6.41.09A6.18,6.18,0,0,0,452,37.64Z"/><path d="M473.25,44.57a6.79,6.79,0,0,1-2.67-.55,7.43,7.43,0,0,1-2.31-1.58,6.57,6.57,0,0,1-1.49-2.23,6.86,6.86,0,0,1-.52-2.69,7,7,0,0,1,.53-2.7,7,7,0,0,1,3.78-3.77,6.78,6.78,0,0,1,2.68-.53,7,7,0,0,1,2.73.53,6.83,6.83,0,0,1,2.31,1.52,6.83,6.83,0,0,1,2.08,5,6.88,6.88,0,0,1-.53,2.67,6.73,6.73,0,0,1-1.52,2.25,7.14,7.14,0,0,1-5.07,2.13Zm.06-1.69a4.83,4.83,0,0,0,3.62-1.54,5.6,5.6,0,0,0,0-7.6,5,5,0,0,0-7.25,0,5.62,5.62,0,0,0,0,7.6A4.82,4.82,0,0,0,473.31,42.88Z"/><path d="M492.73,50.53V31h1.75v2.43a5.59,5.59,0,0,1,1.94-2.16,5,5,0,0,1,2.7-.75,5.58,5.58,0,0,1,4.42,1.92,7.56,7.56,0,0,1,1.67,5.11,7.51,7.51,0,0,1-1.64,5.1,5.45,5.45,0,0,1-4.36,1.92,5.11,5.11,0,0,1-2.77-.76,5.48,5.48,0,0,1-2-2.22v8.94Zm10.54-13a6.22,6.22,0,0,0-1.15-4,3.83,3.83,0,0,0-3.18-1.45,4.06,4.06,0,0,0-3.26,1.4,5.82,5.82,0,0,0-1.17,3.85,5.93,5.93,0,0,0,1.26,4,4.17,4.17,0,0,0,3.35,1.49,3.61,3.61,0,0,0,3.05-1.4A6.18,6.18,0,0,0,503.27,37.58Z"/><path d="M518.56,44V41.62a4.88,4.88,0,0,1-1.81,2.19,5,5,0,0,1-2.75.76,5.74,5.74,0,0,1-4.5-1.92,7.34,7.34,0,0,1-1.71-5.07,7.52,7.52,0,0,1,1.69-5.09,5.88,5.88,0,0,1,7.21-1.25,4.82,4.82,0,0,1,1.87,2.13V31h1.8V44Zm-8.76-6.35a5.94,5.94,0,0,0,1.13,3.88,4,4,0,0,0,3.25,1.36,3.88,3.88,0,0,0,3.23-1.49,6.44,6.44,0,0,0,1.18-4.09,5.62,5.62,0,0,0-1.17-3.76,4,4,0,0,0-3.21-1.37A4,4,0,0,0,511,33.63,6.18,6.18,0,0,0,509.8,37.64Z"/><path d="M527,33.61a8,8,0,0,1,2-2.39,3.68,3.68,0,0,1,2.23-.7,4,4,0,0,1,.77.07,5.16,5.16,0,0,1,.77.21l-.58,1.7a6,6,0,0,0-.61-.15,3.23,3.23,0,0,0-.61-.06,3.42,3.42,0,0,0-2.78,1.52,6.17,6.17,0,0,0-1.14,3.8V44h-1.81V31H527Z"/><path d="M544.24,44V41.62a4.74,4.74,0,0,1-4.56,3,5.72,5.72,0,0,1-4.5-1.92,7.34,7.34,0,0,1-1.71-5.07,7.56,7.56,0,0,1,1.68-5.09,5.89,5.89,0,0,1,7.22-1.25,4.82,4.82,0,0,1,1.87,2.13V31H546V44Zm-8.76-6.35a5.89,5.89,0,0,0,1.13,3.88,4,4,0,0,0,3.25,1.36,3.89,3.89,0,0,0,3.23-1.49,6.44,6.44,0,0,0,1.18-4.09,5.57,5.57,0,0,0-1.18-3.76,4,4,0,0,0-3.2-1.37,4,4,0,0,0-3.23,1.46A6.18,6.18,0,0,0,535.48,37.64Z"/><path d="M561.49,44h-1.86V21.29h1.86Z"/><path d="M576,44V41.62a4.88,4.88,0,0,1-1.81,2.19,5,5,0,0,1-2.75.76,5.74,5.74,0,0,1-4.5-1.92,7.34,7.34,0,0,1-1.71-5.07,7.52,7.52,0,0,1,1.69-5.09,5.88,5.88,0,0,1,7.21-1.25A4.82,4.82,0,0,1,576,33.37V31h1.8V44Zm-8.76-6.35a5.89,5.89,0,0,0,1.14,3.88,4,4,0,0,0,3.24,1.36,3.88,3.88,0,0,0,3.23-1.49A6.44,6.44,0,0,0,576,37.3a5.62,5.62,0,0,0-1.17-3.76,4,4,0,0,0-3.21-1.37,3.93,3.93,0,0,0-3.22,1.46A6.13,6.13,0,0,0,567.25,37.64Z"/><path d="M68.87,75.59V73.22a4.7,4.7,0,0,1-4.53,3,5.71,5.71,0,0,1-4.5-1.92,7.34,7.34,0,0,1-1.71-5.07,7.56,7.56,0,0,1,1.68-5.09,5.46,5.46,0,0,1,4.35-2,5.39,5.39,0,0,1,2.85.72A4.86,4.86,0,0,1,68.87,65V52.89H70.7v22.7Zm-8.73-6.35a5.89,5.89,0,0,0,1.13,3.88,4,4,0,0,0,3.25,1.36A3.83,3.83,0,0,0,67.72,73a6.44,6.44,0,0,0,1.17-4.09,5.67,5.67,0,0,0-1.15-3.76,4.35,4.35,0,0,0-6.42.09A6.18,6.18,0,0,0,60.14,69.24Z"/><path d="M86.63,69.15H76.31a6.31,6.31,0,0,0,1.26,3.95,3.91,3.91,0,0,0,3.18,1.44,4.23,4.23,0,0,0,2.52-.78,5.73,5.73,0,0,0,1.8-2.34l1.65.91a7.07,7.07,0,0,1-2.44,2.9,6.38,6.38,0,0,1-3.53.94,6,6,0,0,1-4.63-1.92,7.11,7.11,0,0,1-1.76-5,7.45,7.45,0,0,1,1.75-5.16,5.84,5.84,0,0,1,4.58-2A5.53,5.53,0,0,1,85,63.93a6.94,6.94,0,0,1,1.62,4.82ZM84.5,67.61a3.72,3.72,0,0,0-4-3.75,3.84,3.84,0,0,0-2.74,1,4.15,4.15,0,0,0-1.29,2.72Z"/><path d="M88.9,73.28l1.72-1a3.19,3.19,0,0,0,3.21,2.18,2.66,2.66,0,0,0,1.81-.58,1.92,1.92,0,0,0,.68-1.54c0-1-.89-1.84-2.65-2.54-.19-.07-.34-.12-.44-.17A8.33,8.33,0,0,1,90.35,68a3,3,0,0,1-.82-2.11,3.51,3.51,0,0,1,1.18-2.72,4.32,4.32,0,0,1,3-1.06,5,5,0,0,1,2.69.69,3.94,3.94,0,0,1,1.63,2l-1.66.92a2.59,2.59,0,0,0-1-1.4,3,3,0,0,0-1.76-.49,2.23,2.23,0,0,0-1.54.55,1.76,1.76,0,0,0-.61,1.37,1.69,1.69,0,0,0,.6,1.33,7.82,7.82,0,0,0,2.49,1.16,6.77,6.77,0,0,1,2.88,1.63,3.66,3.66,0,0,1,.74,2.43A3.56,3.56,0,0,1,96.9,75.1a5.87,5.87,0,0,1-6.27.31A4.25,4.25,0,0,1,88.9,73.28Z"/><path d="M111.43,75.59V73.22a4.88,4.88,0,0,1-1.81,2.19,4.94,4.94,0,0,1-2.74.76,5.74,5.74,0,0,1-4.51-1.92,7.38,7.38,0,0,1-1.7-5.07,7.56,7.56,0,0,1,1.68-5.09,5.44,5.44,0,0,1,4.35-2,5.51,5.51,0,0,1,2.87.72A4.86,4.86,0,0,1,111.43,65V62.6h1.81v13Zm-8.76-6.35a5.89,5.89,0,0,0,1.14,3.88,4,4,0,0,0,3.24,1.36A3.87,3.87,0,0,0,110.28,73a6.38,6.38,0,0,0,1.18-4.09,5.62,5.62,0,0,0-1.17-3.76,4,4,0,0,0-3.21-1.37,4,4,0,0,0-3.22,1.46A6.18,6.18,0,0,0,102.67,69.24Z"/><path d="M128.18,65a7,7,0,0,0-1.94-.94,7.1,7.1,0,0,0-2.11-.32,5,5,0,0,0-3.85,1.55,5.79,5.79,0,0,0-1.43,4.12,5.09,5.09,0,0,0,1.48,3.77,5.19,5.19,0,0,0,3.8,1.48,6.74,6.74,0,0,0,2.14-.37,8.21,8.21,0,0,0,2.11-1.1v2a7.84,7.84,0,0,1-2.11.81,10.81,10.81,0,0,1-2.47.27,6.52,6.52,0,0,1-4.88-2,6.87,6.87,0,0,1-1.9-5,6.79,6.79,0,0,1,7.14-7.15,10.42,10.42,0,0,1,2.21.22,7.38,7.38,0,0,1,1.84.66Z"/><path d="M132.13,64.14h-2.39V62.6h2.39V57.27h1.77V62.6h2.61v1.54H133.9V75.59h-1.77Z"/><path d="M138.86,57.53a1.29,1.29,0,0,1,.41-1,1.34,1.34,0,0,1,1-.4,1.37,1.37,0,0,1,1,.4,1.29,1.29,0,0,1,.41,1,1.3,1.3,0,0,1-.4,1,1.44,1.44,0,0,1-2,0A1.3,1.3,0,0,1,138.86,57.53Zm.45,18.06v-13h1.86v13Z"/><path d="M144.14,62.6h2l4,9.84,4-9.84h2l-6,13.83Z"/><path d="M168.49,75.59V73.22a4.88,4.88,0,0,1-1.81,2.19,5,5,0,0,1-2.75.76,5.74,5.74,0,0,1-4.5-1.92,7.34,7.34,0,0,1-1.71-5.07,7.52,7.52,0,0,1,1.69-5.09,5.88,5.88,0,0,1,7.21-1.25A4.82,4.82,0,0,1,168.49,65V62.6h1.8v13Zm-8.76-6.35a5.89,5.89,0,0,0,1.14,3.88,4,4,0,0,0,3.24,1.36A3.88,3.88,0,0,0,167.34,73a6.38,6.38,0,0,0,1.18-4.09,5.62,5.62,0,0,0-1.17-3.76,4,4,0,0,0-3.21-1.37,3.93,3.93,0,0,0-3.22,1.46A6.18,6.18,0,0,0,159.73,69.24Z"/><path d="M185.23,65A6.9,6.9,0,0,0,183.3,64a7.15,7.15,0,0,0-2.11-.32,5,5,0,0,0-3.85,1.55,5.79,5.79,0,0,0-1.44,4.12,5.1,5.1,0,0,0,1.49,3.77,5.19,5.19,0,0,0,3.8,1.48,6.73,6.73,0,0,0,2.13-.37,8.26,8.26,0,0,0,2.12-1.1v2a8,8,0,0,1-2.11.81,10.9,10.9,0,0,1-2.48.27,6.53,6.53,0,0,1-4.88-2,6.91,6.91,0,0,1-1.9-5,6.81,6.81,0,0,1,7.15-7.15,10.32,10.32,0,0,1,2.2.22,7.38,7.38,0,0,1,1.84.66Z"/><path d="M188.47,57.53a1.38,1.38,0,0,1,1.39-1.37,1.37,1.37,0,0,1,1,.4,1.3,1.3,0,0,1,.42,1,1.34,1.34,0,0,1-.4,1,1.37,1.37,0,0,1-1,.4,1.34,1.34,0,0,1-1-.4A1.3,1.3,0,0,1,188.47,57.53Zm.45,18.06v-13h1.86v13Z"/><path d="M201.61,76.17a6.79,6.79,0,0,1-2.67-.55A7.61,7.61,0,0,1,196.63,74a6.43,6.43,0,0,1-1.49-2.23,6.9,6.9,0,0,1-.52-2.69,7,7,0,0,1,.53-2.7,6.7,6.7,0,0,1,1.51-2.25,6.86,6.86,0,0,1,5-2.05,7,7,0,0,1,5,2.05,6.95,6.95,0,0,1,1.55,7.62A6.73,6.73,0,0,1,206.68,74a7.38,7.38,0,0,1-2.34,1.58A7.08,7.08,0,0,1,201.61,76.17Zm.06-1.69a4.83,4.83,0,0,0,3.62-1.54,5.6,5.6,0,0,0,0-7.6,5,5,0,0,0-7.25,0,5.62,5.62,0,0,0,0,7.6A4.82,4.82,0,0,0,201.67,74.48Zm-1.95-14,3.12-5.13h2.4l-4.14,5.13Z"/><path d="M212.45,75.59v-13h1.71v2a5.4,5.4,0,0,1,1.94-1.87,5.54,5.54,0,0,1,2.65-.62,4.27,4.27,0,0,1,4.67,4.66v8.81h-1.83v-8a4.35,4.35,0,0,0-.81-2.89,3.15,3.15,0,0,0-2.51-.95A3.66,3.66,0,0,0,215.22,65a6.19,6.19,0,0,0-1,3.84v6.78Z"/><path d="M246.35,75.59V73.22a4.7,4.7,0,0,1-4.53,3,5.71,5.71,0,0,1-4.5-1.92,7.34,7.34,0,0,1-1.71-5.07,7.56,7.56,0,0,1,1.68-5.09,5.46,5.46,0,0,1,4.35-2,5.39,5.39,0,0,1,2.85.72A4.86,4.86,0,0,1,246.35,65V52.89h1.83v22.7Zm-8.73-6.35a5.89,5.89,0,0,0,1.13,3.88A4,4,0,0,0,242,74.48,3.83,3.83,0,0,0,245.2,73a6.44,6.44,0,0,0,1.18-4.09,5.67,5.67,0,0,0-1.16-3.76,4.35,4.35,0,0,0-6.42.09A6.18,6.18,0,0,0,237.62,69.24Z"/><path d="M264.11,69.15H253.79a6.31,6.31,0,0,0,1.26,3.95,3.91,3.91,0,0,0,3.18,1.44,4.23,4.23,0,0,0,2.52-.78,5.73,5.73,0,0,0,1.8-2.34l1.65.91a7.07,7.07,0,0,1-2.44,2.9,6.38,6.38,0,0,1-3.53.94,6,6,0,0,1-4.63-1.92,7.11,7.11,0,0,1-1.76-5,7.45,7.45,0,0,1,1.75-5.16,5.84,5.84,0,0,1,4.58-2,5.53,5.53,0,0,1,4.32,1.81,6.94,6.94,0,0,1,1.62,4.82ZM262,67.61a3.72,3.72,0,0,0-4.05-3.75,3.84,3.84,0,0,0-2.74,1,4.15,4.15,0,0,0-1.29,2.72Z"/><path d="M269.84,75.59H268V52.89h1.86Z"/><path d="M294.57,69.15H284.24a6.31,6.31,0,0,0,1.26,3.95,3.91,3.91,0,0,0,3.18,1.44,4.19,4.19,0,0,0,2.52-.78,5.73,5.73,0,0,0,1.8-2.34l1.66.91a7.14,7.14,0,0,1-2.44,2.9,6.39,6.39,0,0,1-3.54.94,6,6,0,0,1-4.62-1.92,7.07,7.07,0,0,1-1.77-5A7.5,7.5,0,0,1,284,64.08a5.85,5.85,0,0,1,4.58-2,5.5,5.5,0,0,1,4.32,1.81,6.9,6.9,0,0,1,1.63,4.82Zm-2.14-1.54a3.72,3.72,0,0,0-4-3.75,3.86,3.86,0,0,0-2.75,1,4.14,4.14,0,0,0-1.28,2.72Z"/><path d="M296.37,62.6h2.24l3.18,4.78L305,62.6h2.2l-4.38,6.24,4.83,6.75h-2.23l-3.63-5.24-3.59,5.24h-2.25l4.86-6.75Z"/><path d="M310.14,82.13V62.6h1.74V65a5.62,5.62,0,0,1,1.95-2.16,5,5,0,0,1,2.7-.75A5.58,5.58,0,0,1,320.94,64a7.51,7.51,0,0,1,1.68,5.11,7.57,7.57,0,0,1-1.64,5.1,5.45,5.45,0,0,1-4.37,1.92,5.1,5.1,0,0,1-2.76-.76,5.57,5.57,0,0,1-2-2.22v8.94Zm10.53-12.95a6.21,6.21,0,0,0-1.15-4,3.82,3.82,0,0,0-3.17-1.44,4,4,0,0,0-3.26,1.4,6.86,6.86,0,0,0,.09,7.82,4.15,4.15,0,0,0,3.35,1.49,3.65,3.65,0,0,0,3.05-1.4A6.18,6.18,0,0,0,320.67,69.18Z"/><path d="M328.35,75.59h-1.86V52.89h1.86Z"/><path d="M339.17,76.17a6.78,6.78,0,0,1-2.66-.55A7.77,7.77,0,0,1,334.19,74a6.57,6.57,0,0,1-1.49-2.23,7.31,7.31,0,0,1,0-5.39,6.86,6.86,0,0,1,1.51-2.25,6.86,6.86,0,0,1,4.95-2.05,7.17,7.17,0,0,1,2.73.52,7,7,0,0,1,2.31,1.53,6.85,6.85,0,0,1,1.55,2.27,7,7,0,0,1,.53,2.68,6.87,6.87,0,0,1-.52,2.67A6.76,6.76,0,0,1,344.24,74a7.27,7.27,0,0,1-2.34,1.58A7.08,7.08,0,0,1,339.17,76.17Zm.06-1.69a4.84,4.84,0,0,0,3.63-1.54,5.62,5.62,0,0,0,0-7.6,5,5,0,0,0-7.25,0,5.62,5.62,0,0,0,0,7.6A4.83,4.83,0,0,0,339.23,74.48Z"/><path d="M348.53,73.28l1.72-1a3.19,3.19,0,0,0,3.21,2.18,2.66,2.66,0,0,0,1.81-.58,1.92,1.92,0,0,0,.68-1.54c0-1-.89-1.84-2.66-2.54l-.44-.17A8.36,8.36,0,0,1,350,68a3,3,0,0,1-.82-2.11,3.48,3.48,0,0,1,1.18-2.72,4.32,4.32,0,0,1,3-1.06,5,5,0,0,1,2.69.69,3.94,3.94,0,0,1,1.63,2l-1.66.92a2.59,2.59,0,0,0-1-1.4,3,3,0,0,0-1.76-.49,2.28,2.28,0,0,0-1.55.55,1.78,1.78,0,0,0-.6,1.37,1.69,1.69,0,0,0,.6,1.33,7.82,7.82,0,0,0,2.49,1.16,6.77,6.77,0,0,1,2.88,1.63,3.66,3.66,0,0,1,.74,2.43,3.56,3.56,0,0,1-1.28,2.86,5.87,5.87,0,0,1-6.27.31A4.25,4.25,0,0,1,348.53,73.28Z"/><path d="M361.13,57.53a1.38,1.38,0,0,1,1.39-1.37,1.37,1.37,0,0,1,1,.4,1.3,1.3,0,0,1,.42,1,1.34,1.34,0,0,1-.4,1,1.37,1.37,0,0,1-1,.4,1.37,1.37,0,0,1-1.39-1.38Zm.46,18.06v-13h1.86v13Z"/><path d="M366.42,62.6h2l4,9.84,4-9.84h2l-6,13.83Z"/><path d="M387.07,76.17a6.78,6.78,0,0,1-2.66-.55A7.77,7.77,0,0,1,382.09,74a6.57,6.57,0,0,1-1.49-2.23,7,7,0,0,1,3.79-9.17,7,7,0,0,1,2.68-.52,7.26,7.26,0,0,1,2.74.52,7.07,7.07,0,0,1,2.3,1.53,6.85,6.85,0,0,1,1.55,2.27,7,7,0,0,1,.53,2.68,6.87,6.87,0,0,1-.52,2.67A6.76,6.76,0,0,1,392.14,74a7.34,7.34,0,0,1-2.33,1.58A7.17,7.17,0,0,1,387.07,76.17Zm.06-1.69a4.84,4.84,0,0,0,3.63-1.54,5.63,5.63,0,0,0,0-7.6,5,5,0,0,0-7.26,0,5.62,5.62,0,0,0,0,7.6A4.83,4.83,0,0,0,387.13,74.48Z"/><path d="M398.34,74.36a1.47,1.47,0,0,1,1.49-1.49,1.42,1.42,0,0,1,1.06.43,1.44,1.44,0,0,1,.44,1.06,1.5,1.5,0,1,1-3,0Z"/></svg>