<svg xmlns="http://www.w3.org/2000/svg" viewBox="0 0 470.43 320.4"><defs><style>.cls-1{isolation:isolate;}.cls-2,.cls-9{fill:#fff;}.cls-3{fill:#d31c25;}.cls-4{fill:#4d4d4d;}.cls-5{fill:gray;}.cls-6{fill:none;stroke:#666;stroke-miterlimit:10;stroke-width:2px;}.cls-7{fill:#ff4335;}.cls-8{fill:#9e151c;}.cls-9{font-size:33.81px;font-family:FuturaBT-Heavy, Futura Hv BT;font-weight:800;letter-spacing:0.04em;}.cls-10{letter-spacing:-0.01em;}.cls-11{letter-spacing:0em;}.cls-12{letter-spacing:0.04em;}.cls-13{letter-spacing:0.02em;}.cls-14{fill:#301404;opacity:0.25;mix-blend-mode:multiply;}</style></defs><title>Recurso77</title><g class="cls-1"><g id="Capa_2" data-name="Capa 2"><g id="ALERTAS"><path class="cls-2" d="M457.36,0H13.08A13.07,13.07,0,0,0,0,13.08v98.08a13.07,13.07,0,0,0,13.08,13.08H208l26.57,46,26.56-46h196.2a13.07,13.07,0,0,0,13.07-13.08V13.08A13.07,13.07,0,0,0,457.36,0Z"/><path class="cls-2" d="M17.52,11.5h99.11A1.54,1.54,0,0,1,118.16,13V112.6a1.54,1.54,0,0,1-1.54,1.54H17.52a5.84,5.84,0,0,1-5.84-5.84v-91A5.84,5.84,0,0,1,17.52,11.5Z"/><path class="cls-3" d="M119.7,11.5H452.91a5.84,5.84,0,0,1,5.84,5.84v91a5.84,5.84,0,0,1-5.84,5.84H119.7a1.54,1.54,0,0,1-1.54-1.54V13A1.54,1.54,0,0,1,119.7,11.5Z"/><ellipse class="cls-4" cx="67.21" cy="78.8" rx="28.72" ry="12.64"/><rect class="cls-4" x="38.49" y="74.81" width="57.43" height="3.95" rx="1.54"/><ellipse class="cls-5" cx="67.21" cy="74.35" rx="28.72" ry="12.64"/><ellipse class="cls-6" cx="67.21" cy="74.35" rx="26.75" ry="10.67"/><ellipse class="cls-3" cx="67.59" cy="74.85" rx="23.97" ry="7.18"/><path class="cls-3" d="M44,72.49,49.37,42.1a2,2,0,0,1,2-1.63H83.86A2,2,0,0,1,85.8,42.1l5.35,30.39a2,2,0,0,1-1.94,2.32H46A2,2,0,0,1,44,72.49Z"/><ellipse class="cls-3" cx="67.59" cy="40.51" rx="17.93" ry="7.18"/><path class="cls-7" d="M67.59,46a33.51,33.51,0,0,1-12.05-2c-2.59-1-4.2-2.39-4.2-3.52S53,38,55.54,37a33.73,33.73,0,0,1,12.05-2,33.73,33.73,0,0,1,12,2c2.59,1,4.19,2.39,4.19,3.52S82.23,43,79.64,44A33.51,33.51,0,0,1,67.59,46Z"/><path class="cls-7" d="M49.86,47.82,45.53,73.46a1.92,1.92,0,0,0,.21,1.27c.67,1.11,2.92,3,10.49,3.88a2,2,0,0,0,2.18-1.67l3.88-26a2,2,0,0,0-1.66-2.24,28.15,28.15,0,0,1-8-2.27A2,2,0,0,0,49.86,47.82Z"/><circle class="cls-8" cx="73.7" cy="75.48" r="2.86"/><path class="cls-8" d="M70,51.92,70.84,67A2.92,2.92,0,0,0,73.57,70a2.86,2.86,0,0,0,3-2.85l.88-15.21a1.28,1.28,0,0,0-1.29-1.28H71.24A1.28,1.28,0,0,0,70,51.92Z"/><circle class="cls-2" cx="75.27" cy="74.3" r="2.86"/><path class="cls-2" d="M71.54,50.74l.87,15.12a2.92,2.92,0,0,0,2.73,2.94,2.86,2.86,0,0,0,3-2.85L79,50.74a1.28,1.28,0,0,0-1.28-1.28H72.82A1.28,1.28,0,0,0,71.54,50.74Z"/><text class="cls-9" transform="translate(140.65 56.43)">¡ALER<tspan class="cls-10" x="98.69" y="0">T</tspan><tspan x="116.51" y="0">A!</tspan></text><text class="cls-9" transform="translate(140.65 94.92)">ANTIEXP<tspan class="cls-11" x="149.27" y="0">L</tspan><tspan class="cls-12" x="166.09" y="0">OSI</tspan><tspan class="cls-13" x="228.97" y="0">V</tspan><tspan x="252.34" y="0">OS</tspan></text><ellipse class="cls-14" cx="224.1" cy="297.27" rx="86.04" ry="23.13"/></g></g></g></svg>