<svg id="fondos" xmlns="http://www.w3.org/2000/svg" viewBox="0 0 838.12 100.16"><defs><style>.cls-1{fill:#e6e6e6;}</style></defs><title>explosivos3</title><rect class="cls-1" width="838.12" height="100.16"/><path d="M76.73,42.37a11.62,11.62,0,0,0-3.26-2A9.53,9.53,0,0,0,70,39.68a9.07,9.07,0,0,0-6.76,2.64,9.35,9.35,0,0,0-2.6,6.87A10.7,10.7,0,0,0,61.23,53a8.46,8.46,0,0,0,1.94,3,8.8,8.8,0,0,0,3,2,9.41,9.41,0,0,0,3.57.67,10.58,10.58,0,0,0,3.6-.63,11.78,11.78,0,0,0,3.32-1.86v2.29A14.27,14.27,0,0,1,73.27,60a12.58,12.58,0,0,1-3.5.52,12,12,0,0,1-4.45-.84,10.79,10.79,0,0,1-3.65-2.34,10.49,10.49,0,0,1-2.37-3.61,12.7,12.7,0,0,1,0-9,10.21,10.21,0,0,1,2.38-3.58,10.76,10.76,0,0,1,3.64-2.32A12,12,0,0,1,69.77,38a12.27,12.27,0,0,1,3.81.56,10.36,10.36,0,0,1,3.18,1.69Z"/><path d="M90.28,59.89V57.52a4.88,4.88,0,0,1-1.81,2.19,4.94,4.94,0,0,1-2.74.76,5.74,5.74,0,0,1-4.51-1.92,7.33,7.33,0,0,1-1.7-5.07,7.56,7.56,0,0,1,1.68-5.09,5.88,5.88,0,0,1,7.21-1.25,4.82,4.82,0,0,1,1.87,2.13V46.9h1.8v13Zm-8.76-6.35a5.89,5.89,0,0,0,1.14,3.88,4,4,0,0,0,3.24,1.36,3.87,3.87,0,0,0,3.23-1.49,6.38,6.38,0,0,0,1.18-4.09,5.62,5.62,0,0,0-1.17-3.76,4,4,0,0,0-3.21-1.37,3.93,3.93,0,0,0-3.22,1.46A6.18,6.18,0,0,0,81.52,53.54Z"/><path d="M97.3,48.44H94.91V46.9H97.3V41.57h1.77V46.9h2.61v1.54H99.07V59.89H97.3Z"/><path d="M115.52,53.45H105.19a6.31,6.31,0,0,0,1.26,3.95,3.91,3.91,0,0,0,3.18,1.44,4.19,4.19,0,0,0,2.52-.78,5.73,5.73,0,0,0,1.8-2.34l1.66.91a7.25,7.25,0,0,1-2.44,2.91,6.39,6.39,0,0,1-3.54.93A6,6,0,0,1,105,58.55a7.06,7.06,0,0,1-1.76-5A7.45,7.45,0,0,1,105,48.38a5.82,5.82,0,0,1,4.57-2,5.5,5.5,0,0,1,4.32,1.81,6.9,6.9,0,0,1,1.63,4.82Zm-2.14-1.54a3.71,3.71,0,0,0-4-3.75,3.88,3.88,0,0,0-2.75,1,4.14,4.14,0,0,0-1.28,2.72Z"/><path d="M130.7,46.9V57.64c0,1.71,0,3-.14,3.91a6.63,6.63,0,0,1-.46,2A4.52,4.52,0,0,1,128,65.72a7.75,7.75,0,0,1-3.51.71,7,7,0,0,1-4-1,4.27,4.27,0,0,1-1.75-3H121a2.64,2.64,0,0,0,1.15,1.82,4.55,4.55,0,0,0,2.53.62,5.34,5.34,0,0,0,2.16-.43,3.23,3.23,0,0,0,1.45-1.17,3.52,3.52,0,0,0,.46-1.12,10.33,10.33,0,0,0,.14-2V57.49A4.74,4.74,0,0,1,127,59.67a5.15,5.15,0,0,1-2.84.8,5.48,5.48,0,0,1-4.37-1.91,7.57,7.57,0,0,1-1.63-5.11,7.51,7.51,0,0,1,1.67-5.11,5.56,5.56,0,0,1,4.42-1.92,5,5,0,0,1,2.79.8,4.49,4.49,0,0,1,1.8,2.11V46.9Zm-6.21,1.17a3.87,3.87,0,0,0-3.19,1.45,6.11,6.11,0,0,0-1.16,4,6.11,6.11,0,0,0,1.1,3.9,3.68,3.68,0,0,0,3.07,1.4,4.12,4.12,0,0,0,3.33-1.48,5.91,5.91,0,0,0,1.25-4,5.83,5.83,0,0,0-1.17-3.86A4,4,0,0,0,124.49,48.07Z"/><path d="M141.4,60.47a6.78,6.78,0,0,1-2.66-.55,7.59,7.59,0,0,1-2.32-1.58,6.53,6.53,0,0,1-1.49-2.22,7.13,7.13,0,0,1-.51-2.7,6.86,6.86,0,0,1,2-5,7,7,0,0,1,5-2,7.08,7.08,0,0,1,2.74.53A7.14,7.14,0,0,1,148,50.74a6.78,6.78,0,0,1,.53,2.68,6.87,6.87,0,0,1-.52,2.67,6.76,6.76,0,0,1-1.53,2.25,7.1,7.1,0,0,1-5.07,2.13Zm.06-1.69a4.84,4.84,0,0,0,3.63-1.54,5.6,5.6,0,0,0,0-7.6,4.88,4.88,0,0,0-3.64-1.54,4.83,4.83,0,0,0-3.61,1.54,5.62,5.62,0,0,0,0,7.6A4.79,4.79,0,0,0,141.46,58.78Z"/><path d="M154.05,49.51A8,8,0,0,1,156,47.12a3.69,3.69,0,0,1,2.24-.7,3.91,3.91,0,0,1,.76.07,5.16,5.16,0,0,1,.77.21l-.58,1.7a6,6,0,0,0-.61-.15,3.23,3.23,0,0,0-.61-.06,3.39,3.39,0,0,0-2.77,1.52,6.11,6.11,0,0,0-1.15,3.8v6.38h-1.81v-13h1.81Z"/><path d="M161.36,41.83a1.29,1.29,0,0,1,.41-1,1.34,1.34,0,0,1,1-.4,1.37,1.37,0,0,1,1,.4,1.29,1.29,0,0,1,.41,1,1.3,1.3,0,0,1-.4,1,1.44,1.44,0,0,1-2,0A1.3,1.3,0,0,1,161.36,41.83Zm.45,18.06v-13h1.86v13Z"/><path d="M166.53,59.89l7.25-11.36H167V46.9h9.88l-7.19,11.37h7.39v1.62Z"/><path d="M189.61,59.89V57.52a4.88,4.88,0,0,1-1.81,2.19,4.94,4.94,0,0,1-2.74.76,5.74,5.74,0,0,1-4.51-1.92,7.33,7.33,0,0,1-1.7-5.07,7.56,7.56,0,0,1,1.68-5.09,5.88,5.88,0,0,1,7.21-1.25,4.82,4.82,0,0,1,1.87,2.13V46.9h1.8v13Zm-8.76-6.35A5.89,5.89,0,0,0,182,57.42a4,4,0,0,0,3.24,1.36,3.87,3.87,0,0,0,3.23-1.49,6.38,6.38,0,0,0,1.18-4.09,5.62,5.62,0,0,0-1.17-3.76,4,4,0,0,0-3.21-1.37A3.93,3.93,0,0,0,182,49.53,6.18,6.18,0,0,0,180.85,53.54Z"/><path d="M198.05,49.51a8,8,0,0,1,2-2.39,3.64,3.64,0,0,1,2.23-.7,4.08,4.08,0,0,1,.77.07,5.51,5.51,0,0,1,.77.21l-.59,1.7a5.44,5.44,0,0,0-.61-.15,3.21,3.21,0,0,0-.6-.06,3.41,3.41,0,0,0-2.78,1.52,6.11,6.11,0,0,0-1.15,3.8v6.38h-1.8v-13h1.8Z"/><path d="M216.32,59.89h-1.86V37.19h1.86Z"/><path d="M230.83,59.89V57.52A4.88,4.88,0,0,1,229,59.71a4.94,4.94,0,0,1-2.74.76,5.74,5.74,0,0,1-4.51-1.92,7.38,7.38,0,0,1-1.7-5.07,7.56,7.56,0,0,1,1.68-5.09A5.89,5.89,0,0,1,229,47.14a4.86,4.86,0,0,1,1.86,2.13V46.9h1.81v13Zm-8.76-6.35a5.89,5.89,0,0,0,1.14,3.88,4,4,0,0,0,3.24,1.36,3.87,3.87,0,0,0,3.23-1.49,6.38,6.38,0,0,0,1.18-4.09,5.62,5.62,0,0,0-1.17-3.76,4,4,0,0,0-3.21-1.37,4,4,0,0,0-3.22,1.46A6.18,6.18,0,0,0,222.07,53.54Z"/><path d="M255.71,59.89V57.52a4.74,4.74,0,0,1-4.56,2.95,5.72,5.72,0,0,1-4.5-1.92,7.34,7.34,0,0,1-1.71-5.07,7.56,7.56,0,0,1,1.68-5.09,5.89,5.89,0,0,1,7.22-1.25,4.88,4.88,0,0,1,1.87,2.13V46.9h1.8v13ZM247,53.54a5.89,5.89,0,0,0,1.13,3.88,4,4,0,0,0,3.25,1.36,3.89,3.89,0,0,0,3.23-1.49,6.44,6.44,0,0,0,1.18-4.09,5.57,5.57,0,0,0-1.18-3.76,4,4,0,0,0-3.2-1.37,4,4,0,0,0-3.23,1.46A6.18,6.18,0,0,0,247,53.54Z"/><path d="M264.14,59.89h-1.8v-13h1.8v2a4.72,4.72,0,0,1,1.7-1.88,4.59,4.59,0,0,1,2.43-.64,4.41,4.41,0,0,1,2.43.65A4.11,4.11,0,0,1,272.24,49a5.35,5.35,0,0,1,1.91-1.93,5.26,5.26,0,0,1,2.62-.63A4.27,4.27,0,0,1,280,47.67a4.81,4.81,0,0,1,1.19,3.44v8.78h-1.8V51.82a4.44,4.44,0,0,0-.79-2.87,2.83,2.83,0,0,0-2.33-1,3.13,3.13,0,0,0-2.73,1.21,6.63,6.63,0,0,0-.88,3.85v6.84H270.9V51.82a4.59,4.59,0,0,0-.75-2.91,2.79,2.79,0,0,0-2.31-.92,3.22,3.22,0,0,0-2.8,1.23,6.53,6.53,0,0,0-.9,3.83Z"/><path d="M297.18,53.45H286.85a6.31,6.31,0,0,0,1.26,3.95,3.91,3.91,0,0,0,3.18,1.44,4.23,4.23,0,0,0,2.52-.78,5.73,5.73,0,0,0,1.8-2.34l1.65.91a7.09,7.09,0,0,1-2.44,2.91,6.38,6.38,0,0,1-3.53.93,6,6,0,0,1-4.62-1.92,7.07,7.07,0,0,1-1.77-5,7.45,7.45,0,0,1,1.75-5.16,5.84,5.84,0,0,1,4.58-2,5.5,5.5,0,0,1,4.32,1.81,6.94,6.94,0,0,1,1.63,4.82ZM295,51.91A3.72,3.72,0,0,0,291,48.16a3.84,3.84,0,0,0-2.74,1A4.09,4.09,0,0,0,287,51.91Z"/><path d="M300.93,59.89v-13h1.71v2A5.32,5.32,0,0,1,304.58,47a5.53,5.53,0,0,1,2.64-.62,4.27,4.27,0,0,1,4.68,4.66v8.81h-1.83v-8a4.3,4.3,0,0,0-.82-2.89,3.14,3.14,0,0,0-2.51-1,3.64,3.64,0,0,0-3,1.23,6.12,6.12,0,0,0-1,3.84v6.78Z"/><path d="M326.15,59.89V57.52a4.88,4.88,0,0,1-1.81,2.19,4.94,4.94,0,0,1-2.74.76,5.74,5.74,0,0,1-4.51-1.92,7.34,7.34,0,0,1-1.71-5.07,7.57,7.57,0,0,1,1.69-5.09,5.88,5.88,0,0,1,7.21-1.25,4.82,4.82,0,0,1,1.87,2.13V46.9H328v13Zm-8.76-6.35a5.89,5.89,0,0,0,1.14,3.88,4,4,0,0,0,3.24,1.36A3.88,3.88,0,0,0,325,57.29a6.38,6.38,0,0,0,1.18-4.09A5.62,5.62,0,0,0,325,49.44a4,4,0,0,0-3.21-1.37,3.93,3.93,0,0,0-3.22,1.46A6.18,6.18,0,0,0,317.39,53.54Z"/><path d="M330.72,59.89,338,48.53h-6.75V46.9h9.87L333.9,58.27h7.4v1.62Z"/><path d="M353.81,59.89V57.52a4.74,4.74,0,0,1-4.56,2.95,5.72,5.72,0,0,1-4.5-1.92A7.34,7.34,0,0,1,343,53.48a7.56,7.56,0,0,1,1.68-5.09,5.89,5.89,0,0,1,7.22-1.25,4.82,4.82,0,0,1,1.87,2.13V46.9h1.8v13Zm-8.76-6.35a5.94,5.94,0,0,0,1.13,3.88,4,4,0,0,0,3.25,1.36,3.89,3.89,0,0,0,3.23-1.49,6.44,6.44,0,0,0,1.18-4.09,5.57,5.57,0,0,0-1.18-3.76,4,4,0,0,0-3.2-1.37,4,4,0,0,0-3.23,1.46A6.18,6.18,0,0,0,345.05,53.54Z"/><path d="M360.87,58.66a1.47,1.47,0,0,1,1.49-1.49,1.42,1.42,0,0,1,1.06.43,1.44,1.44,0,0,1,.44,1.06,1.5,1.5,0,1,1-3,0Z"/></svg>