<svg xmlns="http://www.w3.org/2000/svg" viewBox="0 0 470.43 320.4"><defs><style>.cls-1{isolation:isolate;}.cls-2{fill:#fff;}.cls-3{fill:#d31c25;}.cls-4{fill:#4d4d4d;}.cls-5{fill:gray;}.cls-6{fill:none;stroke:#666;stroke-miterlimit:10;stroke-width:2px;}.cls-7{fill:#ff4335;}.cls-8{fill:#9e151c;}.cls-9{fill:#301404;opacity:0.25;mix-blend-mode:multiply;}</style></defs><title>explosivos</title><g class="cls-1"><g id="Capa_2" data-name="Capa 2"><g id="ALERTAS"><path class="cls-2" d="M457.36,0H13.08A13.07,13.07,0,0,0,0,13.08v98.08a13.07,13.07,0,0,0,13.08,13.08H208l26.57,46,26.56-46h196.2a13.07,13.07,0,0,0,13.07-13.08V13.08A13.07,13.07,0,0,0,457.36,0Z"/><path class="cls-2" d="M17.52,11.5h99.11A1.54,1.54,0,0,1,118.16,13V112.6a1.54,1.54,0,0,1-1.54,1.54H17.52a5.84,5.84,0,0,1-5.84-5.84v-91a5.84,5.84,0,0,1,5.84-5.84Z"/><path class="cls-3" d="M119.7,11.5H452.91a5.84,5.84,0,0,1,5.84,5.84v91a5.84,5.84,0,0,1-5.84,5.84H119.7a1.54,1.54,0,0,1-1.54-1.54V13A1.54,1.54,0,0,1,119.7,11.5Z"/><ellipse class="cls-4" cx="67.21" cy="78.8" rx="28.72" ry="12.64"/><rect class="cls-4" x="38.49" y="74.81" width="57.43" height="3.95" rx="1.54"/><ellipse class="cls-5" cx="67.21" cy="74.35" rx="28.72" ry="12.64"/><ellipse class="cls-6" cx="67.21" cy="74.35" rx="26.75" ry="10.67"/><ellipse class="cls-3" cx="67.59" cy="74.85" rx="23.97" ry="7.18"/><path class="cls-3" d="M44,72.49,49.37,42.1a2,2,0,0,1,2-1.63H83.86A2,2,0,0,1,85.8,42.1l5.35,30.39a2,2,0,0,1-1.94,2.32H46A2,2,0,0,1,44,72.49Z"/><ellipse class="cls-3" cx="67.59" cy="40.51" rx="17.93" ry="7.18"/><path class="cls-7" d="M67.59,46a33.51,33.51,0,0,1-12.05-2c-2.59-1-4.2-2.39-4.2-3.52S53,38,55.54,37a33.73,33.73,0,0,1,12.05-2,33.73,33.73,0,0,1,12,2c2.59,1,4.19,2.39,4.19,3.52S82.23,43,79.64,44A33.51,33.51,0,0,1,67.59,46Z"/><path class="cls-7" d="M49.86,47.82,45.53,73.46a1.92,1.92,0,0,0,.21,1.27c.67,1.11,2.92,3,10.49,3.88a2,2,0,0,0,2.18-1.67l3.88-26a2,2,0,0,0-1.66-2.24,28.15,28.15,0,0,1-8-2.27A2,2,0,0,0,49.86,47.82Z"/><circle class="cls-8" cx="73.7" cy="75.48" r="2.86"/><path class="cls-8" d="M70,51.92,70.84,67A2.92,2.92,0,0,0,73.57,70a2.86,2.86,0,0,0,3-2.85l.88-15.21a1.28,1.28,0,0,0-1.29-1.28H71.24A1.28,1.28,0,0,0,70,51.92Z"/><circle class="cls-2" cx="75.27" cy="74.3" r="2.86"/><path class="cls-2" d="M71.54,50.74l.87,15.12a2.92,2.92,0,0,0,2.73,2.94,2.86,2.86,0,0,0,3-2.85L79,50.74a1.28,1.28,0,0,0-1.28-1.28H72.82A1.28,1.28,0,0,0,71.54,50.74Z"/><path class="cls-2" d="M143.49,34.53a2.68,2.68,0,0,1,.84-2,2.73,2.73,0,0,1,2-.83,2.68,2.68,0,0,1,2,.82,2.81,2.81,0,0,1-2,4.79,2.76,2.76,0,0,1-2-.81A2.71,2.71,0,0,1,143.49,34.53Zm.48,5.33h4.69V57.08H144Z"/><path class="cls-2" d="M153.2,56.44l9.19-24.17h5.92l9.32,24.17h-5.87l-2-5.14h-9.36l-1.68,5.14Zm15.39-9.2-2.71-7.81a11.51,11.51,0,0,1-.3-1.19c-.12-.56-.25-1.25-.38-2.06-.14.78-.28,1.48-.41,2.1s-.23,1-.3,1.25l-2.61,7.71Z"/><path class="cls-2" d="M181.53,56.44V32.27h5.17V52H195v4.4Z"/><path class="cls-2" d="M199.55,56.44V32.27h14.24v4.35h-9.07v5h9.07V46h-9.07V52h9.07v4.4Z"/><path class="cls-2" d="M237.69,56.44h-6l-6.36-11.3v11.3h-5.16V32.27h7.39q4.41,0,6.61,1.7a6.13,6.13,0,0,1,2.19,5.15,6.37,6.37,0,0,1-1.5,4.26A5.91,5.91,0,0,1,231,45.44ZM225.37,42.57h.78q3.14,0,4.14-.69a2.67,2.67,0,0,0,1-2.38A2.88,2.88,0,0,0,230.22,37a7.71,7.71,0,0,0-4.07-.75h-.78Z"/><path class="cls-2" d="M251.08,36.66V56.44h-5.19V36.66H240V32.27h17v4.39Z"/><path class="cls-2" d="M257,56.44l9.2-24.17h5.91l9.33,24.17h-5.88l-2-5.14h-9.36l-1.68,5.14Zm15.39-9.2-2.71-7.81c-.08-.23-.17-.63-.3-1.19s-.24-1.25-.38-2.06c-.14.78-.28,1.48-.41,2.1s-.23,1-.3,1.25l-2.6,7.71Z"/><path class="cls-2" d="M285.46,54.24a2.7,2.7,0,0,1,.83-2,2.77,2.77,0,0,1,2-.82,2.81,2.81,0,1,1-2.84,2.81Zm.48-5.35V31.72h4.69V48.89Z"/><path class="cls-2" d="M140.49,94.92l9.19-24.17h5.91l9.33,24.17H159l-2-5.13h-9.36L146,94.92Zm15.38-9.19-2.7-7.81a11.51,11.51,0,0,1-.3-1.19c-.12-.56-.25-1.25-.38-2.06-.14.78-.28,1.48-.41,2.1s-.23,1-.3,1.25l-2.61,7.71Z"/><path class="cls-2" d="M168.82,94.92V70.75h5.36l10.7,14.07a10.91,10.91,0,0,1,1,1.67c.36.73.75,1.58,1.14,2.56-.12-.72-.21-1.43-.26-2.13s-.08-1.59-.08-2.65V70.75h4.93V94.92h-5.07l-11-14.33a10.5,10.5,0,0,1-1-1.67c-.36-.72-.75-1.58-1.15-2.59.12.7.21,1.4.26,2.11s.08,1.6.08,2.68v13.8Z"/><path class="cls-2" d="M207.4,75.15V94.92h-5.19V75.15H196.3v-4.4h17v4.4Z"/><path class="cls-2" d="M218.14,94.92V70.75h5.17V94.92Z"/><path class="cls-2" d="M230.18,94.92V70.75h14.23v4.36h-9.06v5h9.06v4.39h-9.06v6.06h9.06v4.39Z"/><path class="cls-2" d="M257.19,77.08a12.76,12.76,0,0,1,.62,1.19c.16.35.29.72.42,1.1.14-.39.3-.79.47-1.17a12.29,12.29,0,0,1,.65-1.22l3.42-6.23h5.48L261,82.28l7.45,12.64H262.9l-3.59-6.7a11.22,11.22,0,0,1-.58-1.27c-.17-.44-.33-.9-.47-1.39-.19.57-.38,1.09-.56,1.54s-.37.84-.55,1.17l-3.58,6.65H248l7.46-12.64-7.26-11.53h5.51Z"/><path class="cls-2" d="M272.47,94.92V70.75h5.94c3.17,0,5.52.61,7,1.82s2.27,3.08,2.27,5.61a6.94,6.94,0,0,1-2.29,5.52,9.29,9.29,0,0,1-6.33,2h-1.42v9.23Zm5.2-13.25h.74a4.51,4.51,0,0,0,3.08-.88,3.67,3.67,0,0,0,.95-2.81,3.28,3.28,0,0,0-.95-2.6,4.75,4.75,0,0,0-3.08-.81h-.74Z"/><path class="cls-2" d="M292.63,94.92V70.75h5.17V90.53h8.25v4.39Z"/><path class="cls-2" d="M334.2,82.89a12.64,12.64,0,0,1-1,4.9,11.91,11.91,0,0,1-2.78,4.06,13.48,13.48,0,0,1-4.24,2.76,12.91,12.91,0,0,1-9.22.21,13.49,13.49,0,0,1-3.89-2.16,12.31,12.31,0,0,1-4.71-9.77,12.56,12.56,0,0,1,1-4.9,12.1,12.1,0,0,1,2.81-4.07,13.21,13.21,0,0,1,9.16-3.71,12.87,12.87,0,0,1,4.91,1,13.35,13.35,0,0,1,4.22,2.74A12.27,12.27,0,0,1,333.24,78,12.54,12.54,0,0,1,334.2,82.89ZM321.32,91a7.08,7.08,0,0,0,5.42-2.3,8.83,8.83,0,0,0,0-11.55,7.47,7.47,0,0,0-10.85,0,8.87,8.87,0,0,0,0,11.57A7.14,7.14,0,0,0,321.32,91Z"/><path class="cls-2" d="M338.36,91.85l2.87-3.25A4.34,4.34,0,0,0,343,90.7a4.85,4.85,0,0,0,2.71.77,4.39,4.39,0,0,0,2.87-.86,2.82,2.82,0,0,0,1.05-2.31q0-1.71-3.51-3.41c-.76-.37-1.36-.66-1.8-.9a13.4,13.4,0,0,1-4.39-3.22A5.93,5.93,0,0,1,338.69,77a6,6,0,0,1,2.37-4.91,9.42,9.42,0,0,1,6.14-1.92,8.66,8.66,0,0,1,3.79.76,7.8,7.8,0,0,1,2.82,2.41l-3.06,2.92a3.7,3.7,0,0,0-1.44-1.58,4.23,4.23,0,0,0-2.17-.52,3.83,3.83,0,0,0-2.48.77,2.43,2.43,0,0,0-.94,2q0,1.91,3.73,3.5l1.14.49a12.92,12.92,0,0,1,4.55,3.17,6.14,6.14,0,0,1,1.48,4,6.83,6.83,0,0,1-2.32,5.42,9.16,9.16,0,0,1-6.23,2,10.83,10.83,0,0,1-4.76-1A6.44,6.44,0,0,1,338.36,91.85Z"/><path class="cls-2" d="M360.3,94.92V70.75h5.16V94.92Z"/><path class="cls-2" d="M378.45,94.92l-8.93-24.17h5.71l4.71,15.08c.09.3.23.88.41,1.71s.39,1.79.6,2.86c.14-1,.3-2,.47-2.76s.34-1.46.5-2l4.77-14.91h5.65l-9,24.17Z"/><path class="cls-2" d="M420.45,82.89a12.63,12.63,0,0,1-1,4.9,11.94,11.94,0,0,1-2.79,4.06,13.26,13.26,0,0,1-4.24,2.76,12.91,12.91,0,0,1-9.22.21,13.63,13.63,0,0,1-3.89-2.16,12.26,12.26,0,0,1-4.7-9.77,12.56,12.56,0,0,1,1-4.9,12.07,12.07,0,0,1,2.8-4.07,13.26,13.26,0,0,1,9.16-3.71,12.88,12.88,0,0,1,4.92,1,13.31,13.31,0,0,1,4.21,2.74A12,12,0,0,1,419.49,78,12.54,12.54,0,0,1,420.45,82.89ZM407.57,91a7.12,7.12,0,0,0,5.43-2.3,8.82,8.82,0,0,0,0-11.55,7.46,7.46,0,0,0-10.84,0,8.86,8.86,0,0,0,0,11.57A7.14,7.14,0,0,0,407.57,91Z"/><path class="cls-2" d="M424.61,91.85l2.87-3.25a4.45,4.45,0,0,0,1.75,2.1,4.89,4.89,0,0,0,2.71.77,4.37,4.37,0,0,0,2.87-.86,2.8,2.8,0,0,0,1.06-2.31q0-1.71-3.52-3.41c-.76-.37-1.36-.66-1.8-.9a13.52,13.52,0,0,1-4.39-3.22,6.32,6.32,0,0,1,1.15-8.67,9.46,9.46,0,0,1,6.15-1.92,8.69,8.69,0,0,1,3.79.76,7.77,7.77,0,0,1,2.81,2.41L437,76.27a3.72,3.72,0,0,0-1.45-1.58,4.23,4.23,0,0,0-2.17-.52,3.78,3.78,0,0,0-2.47.77,2.43,2.43,0,0,0-.94,2q0,1.91,3.73,3.5l1.14.49a12.87,12.87,0,0,1,4.54,3.17,6.09,6.09,0,0,1,1.48,4,6.8,6.8,0,0,1-2.32,5.42,9.12,9.12,0,0,1-6.23,2,10.79,10.79,0,0,1-4.75-1A6.46,6.46,0,0,1,424.61,91.85Z"/><ellipse class="cls-9" cx="224.1" cy="297.27" rx="86.04" ry="23.13"/></g></g></g></svg>