<svg id="fondos" xmlns="http://www.w3.org/2000/svg" viewBox="0 0 838.12 100.16"><defs><style>.cls-1{fill:#e6e6e6;}</style></defs><title>explosivos5</title><rect class="cls-1" width="838.12" height="100.16"/><path d="M56.58,58.9,66,36.6l9,22.3H72.89l-2.74-7.27H61.39L58.55,58.9ZM62.05,50h7.47l-3.66-9.33Z"/><path d="M75.68,56.58l1.71-1a3.35,3.35,0,0,0,1.23,1.63,3.42,3.42,0,0,0,2,.55,2.69,2.69,0,0,0,1.82-.58,2,2,0,0,0,.67-1.54c0-1-.88-1.84-2.65-2.54A3.75,3.75,0,0,1,80,53a8.18,8.18,0,0,1-2.87-1.66,3,3,0,0,1-.82-2.12,3.52,3.52,0,0,1,1.17-2.72,4.32,4.32,0,0,1,3-1.06,5,5,0,0,1,2.7.69,4,4,0,0,1,1.62,2L83.18,49a2.66,2.66,0,0,0-1-1.4,3.09,3.09,0,0,0-1.76-.49,2.23,2.23,0,0,0-1.54.55A1.77,1.77,0,0,0,78.24,49a1.72,1.72,0,0,0,.6,1.34,8.09,8.09,0,0,0,2.49,1.15,6.64,6.64,0,0,1,2.88,1.63A3.69,3.69,0,0,1,85,55.54a3.58,3.58,0,0,1-1.27,2.86,5.89,5.89,0,0,1-6.28.31A4.18,4.18,0,0,1,75.68,56.58Z"/><path d="M99.77,52.45H89.45a6.37,6.37,0,0,0,1.26,4,3.93,3.93,0,0,0,3.18,1.43,4.18,4.18,0,0,0,2.51-.78,5.6,5.6,0,0,0,1.81-2.34l1.65.91a7.17,7.17,0,0,1-2.44,2.91,6.38,6.38,0,0,1-3.53.93,6,6,0,0,1-4.63-1.91,7.15,7.15,0,0,1-1.76-5,7.45,7.45,0,0,1,1.75-5.16,5.84,5.84,0,0,1,4.58-2,5.53,5.53,0,0,1,4.32,1.81,6.94,6.94,0,0,1,1.62,4.82Zm-2.13-1.54a3.72,3.72,0,0,0-4-3.75,3.84,3.84,0,0,0-2.74,1,4.15,4.15,0,0,0-1.29,2.72Z"/><path d="M115,45.9V56.64c0,1.71,0,3-.14,3.91a6.35,6.35,0,0,1-.46,2,4.52,4.52,0,0,1-2.07,2.16,7.72,7.72,0,0,1-3.51.71,7,7,0,0,1-4-1,4.28,4.28,0,0,1-1.75-3h2.26a2.61,2.61,0,0,0,1.15,1.81,4.52,4.52,0,0,0,2.52.62,5.14,5.14,0,0,0,2.16-.43,3.17,3.17,0,0,0,1.45-1.17A3.3,3.3,0,0,0,113,61.1a10.33,10.33,0,0,0,.14-2V56.49a4.82,4.82,0,0,1-1.84,2.19,5.22,5.22,0,0,1-2.83.79,5.48,5.48,0,0,1-4.38-1.91,7.57,7.57,0,0,1-1.63-5.11,7.56,7.56,0,0,1,1.67-5.11,5.57,5.57,0,0,1,4.42-1.92,5.08,5.08,0,0,1,2.79.8,4.44,4.44,0,0,1,1.8,2.11V45.9Zm-6.21,1.17a3.89,3.89,0,0,0-3.19,1.45,6.16,6.16,0,0,0-1.16,4,6.18,6.18,0,0,0,1.1,3.9,3.68,3.68,0,0,0,3.07,1.4,4.12,4.12,0,0,0,3.33-1.48,5.92,5.92,0,0,0,1.26-4A5.79,5.79,0,0,0,112,48.47,4,4,0,0,0,108.74,47.07Z"/><path d="M121.56,45.9v6.49a7.69,7.69,0,0,0,.84,4.18,3.94,3.94,0,0,0,5.7,0,7.47,7.47,0,0,0,.87-4.16V45.9h1.79v7.41a6.7,6.7,0,0,1-1.4,4.6,5.18,5.18,0,0,1-4.08,1.56,5.27,5.27,0,0,1-4.12-1.56,6.65,6.65,0,0,1-1.41-4.6V45.9Z"/><path d="M137.36,48.51a8.13,8.13,0,0,1,2-2.39,3.66,3.66,0,0,1,2.23-.7,4,4,0,0,1,.77.07,5.16,5.16,0,0,1,.77.21l-.59,1.7a5.84,5.84,0,0,0-.6-.15,3.28,3.28,0,0,0-3.39,1.46,6.11,6.11,0,0,0-1.15,3.8V58.9h-1.8v-13h1.8Z"/><path d="M154.6,58.9V56.52a4.88,4.88,0,0,1-1.81,2.19,4.94,4.94,0,0,1-2.74.76,5.74,5.74,0,0,1-4.51-1.92,7.33,7.33,0,0,1-1.7-5.07,7.56,7.56,0,0,1,1.68-5.09,5.88,5.88,0,0,1,7.21-1.25,4.79,4.79,0,0,1,1.87,2.14V45.9h1.8v13Zm-8.76-6.36A5.89,5.89,0,0,0,147,56.42a4,4,0,0,0,3.24,1.36,3.88,3.88,0,0,0,3.23-1.48,6.43,6.43,0,0,0,1.18-4.1,5.62,5.62,0,0,0-1.17-3.76,4,4,0,0,0-3.21-1.37A3.93,3.93,0,0,0,147,48.53,6.18,6.18,0,0,0,145.84,52.54Z"/><path d="M163,48.51a8,8,0,0,1,2-2.39,3.66,3.66,0,0,1,2.23-.7,4.08,4.08,0,0,1,.77.07,5.51,5.51,0,0,1,.77.21l-.59,1.7a5.44,5.44,0,0,0-.61-.15,3.21,3.21,0,0,0-.6-.06,3.41,3.41,0,0,0-2.78,1.52,6.11,6.11,0,0,0-1.15,3.8V58.9h-1.8v-13H163Z"/><path d="M190.49,52.45H180.16a6.37,6.37,0,0,0,1.26,4,3.94,3.94,0,0,0,3.18,1.43,4.19,4.19,0,0,0,2.52-.78,5.5,5.5,0,0,0,1.8-2.34l1.66.91a7.17,7.17,0,0,1-2.44,2.91,6.39,6.39,0,0,1-3.54.93A6,6,0,0,1,180,57.56a7.1,7.1,0,0,1-1.76-5A7.45,7.45,0,0,1,180,47.38a5.82,5.82,0,0,1,4.57-2,5.54,5.54,0,0,1,4.33,1.81,6.94,6.94,0,0,1,1.62,4.82Zm-2.14-1.54a4,4,0,0,0-1.18-2.77,4.07,4.07,0,0,0-2.86-1,3.88,3.88,0,0,0-2.75,1,4.19,4.19,0,0,0-1.28,2.72Z"/><path d="M196.22,58.9h-1.86V36.19h1.86Z"/><path d="M219.38,58.9V56.52a4.88,4.88,0,0,1-1.81,2.19,5,5,0,0,1-2.75.76,5.74,5.74,0,0,1-4.5-1.92,7.34,7.34,0,0,1-1.71-5.07,7.52,7.52,0,0,1,1.69-5.09,5.88,5.88,0,0,1,7.21-1.25,4.79,4.79,0,0,1,1.87,2.14V45.9h1.8v13Zm-8.76-6.36a5.94,5.94,0,0,0,1.13,3.88A4,4,0,0,0,215,57.78a3.9,3.9,0,0,0,3.23-1.48,6.49,6.49,0,0,0,1.18-4.1,5.62,5.62,0,0,0-1.17-3.76A4,4,0,0,0,215,47.07a3.93,3.93,0,0,0-3.22,1.46A6.13,6.13,0,0,0,210.62,52.54Zm2.94-8.73,3.12-5.13h2.41l-4.15,5.13Z"/><path d="M227.82,48.51a8,8,0,0,1,2-2.39,3.69,3.69,0,0,1,2.24-.7,3.91,3.91,0,0,1,.76.07,5.16,5.16,0,0,1,.77.21L233,47.4a6,6,0,0,0-.61-.15,3.23,3.23,0,0,0-.61-.06A3.39,3.39,0,0,0,229,48.71a6.11,6.11,0,0,0-1.15,3.8V58.9H226v-13h1.81Z"/><path d="M246.62,52.45H236.3a6.37,6.37,0,0,0,1.26,4,3.93,3.93,0,0,0,3.18,1.43,4.23,4.23,0,0,0,2.52-.78,5.66,5.66,0,0,0,1.8-2.34l1.65.91a7.17,7.17,0,0,1-2.44,2.91,6.38,6.38,0,0,1-3.53.93,6,6,0,0,1-4.63-1.91,7.15,7.15,0,0,1-1.76-5,7.45,7.45,0,0,1,1.75-5.16,5.84,5.84,0,0,1,4.58-2A5.53,5.53,0,0,1,245,47.23a6.94,6.94,0,0,1,1.62,4.82Zm-2.13-1.54a3.72,3.72,0,0,0-4.05-3.75,3.84,3.84,0,0,0-2.74,1,4.15,4.15,0,0,0-1.29,2.72Z"/><path d="M260,58.9V56.52a4.88,4.88,0,0,1-1.81,2.19,5,5,0,0,1-2.75.76,5.74,5.74,0,0,1-4.5-1.92,7.34,7.34,0,0,1-1.71-5.07,7.52,7.52,0,0,1,1.69-5.09,5.88,5.88,0,0,1,7.21-1.25A4.79,4.79,0,0,1,260,48.28V45.9h1.8v13Zm-8.76-6.36a5.89,5.89,0,0,0,1.14,3.88,4,4,0,0,0,3.24,1.36,3.9,3.9,0,0,0,3.23-1.48A6.49,6.49,0,0,0,260,52.2a5.62,5.62,0,0,0-1.17-3.76,4,4,0,0,0-3.21-1.37,3.93,3.93,0,0,0-3.22,1.46A6.13,6.13,0,0,0,251.21,52.54Z"/><path d="M267,57.66a1.43,1.43,0,0,1,.43-1.06,1.47,1.47,0,0,1,1.06-.43,1.5,1.5,0,0,1,1.07.43,1.47,1.47,0,0,1,.43,1.06,1.47,1.47,0,0,1-1.5,1.5,1.47,1.47,0,0,1-1.06-.43A1.46,1.46,0,0,1,267,57.66Z"/></svg>