<svg id="fondos" xmlns="http://www.w3.org/2000/svg" viewBox="0 0 838.12 100.16"><defs><style>.cls-1{fill:#e6e6e6;}</style></defs><title>explosivos1</title><rect class="cls-1" width="838.12" height="100.16"/><path d="M59.51,57.17V35.73h3.91a16.45,16.45,0,0,1,3.4.25,5.2,5.2,0,0,1,1.9.82,4.78,4.78,0,0,1,1.57,2,7,7,0,0,1,.55,2.83,5.52,5.52,0,0,1-1.71,4.49q-1.71,1.43-5.42,1.43H61.45v9.62Zm1.94-11.33h1.34c2.36,0,3.95-.31,4.76-.9a3.69,3.69,0,0,0,1.23-3.16A5.4,5.4,0,0,0,68.5,40a4.22,4.22,0,0,0-.84-1.43,3.07,3.07,0,0,0-1.55-.91,14.79,14.79,0,0,0-3.32-.26H61.45Z"/><path d="M76.22,57.17H74.36V34.47h1.86Z"/><path d="M90.74,57.17V54.8a4.71,4.71,0,0,1-4.56,2.94,5.7,5.7,0,0,1-4.5-1.91A7.34,7.34,0,0,1,80,50.76a7.56,7.56,0,0,1,1.68-5.09,5.89,5.89,0,0,1,7.22-1.25,4.88,4.88,0,0,1,1.87,2.13V44.18h1.8v13ZM82,50.82a5.89,5.89,0,0,0,1.13,3.88,4,4,0,0,0,3.25,1.36,3.89,3.89,0,0,0,3.23-1.49,6.44,6.44,0,0,0,1.18-4.09,5.63,5.63,0,0,0-1.18-3.76,4,4,0,0,0-3.2-1.37,4,4,0,0,0-3.23,1.46A6.18,6.18,0,0,0,82,50.82Z"/><path d="M97.37,57.17v-13h1.72v2A5.25,5.25,0,0,1,101,44.32a5.48,5.48,0,0,1,2.64-.62,4.27,4.27,0,0,1,4.67,4.66v8.81h-1.83v-8a4.35,4.35,0,0,0-.81-2.89,3.14,3.14,0,0,0-2.51-1,3.64,3.64,0,0,0-3,1.23,6.12,6.12,0,0,0-1,3.84v6.78Z"/><path d="M124.16,50.73H113.84a6.31,6.31,0,0,0,1.26,4,3.9,3.9,0,0,0,3.17,1.44,4.19,4.19,0,0,0,2.52-.78A5.66,5.66,0,0,0,122.6,53l1.65.91a7.07,7.07,0,0,1-2.44,2.9,6.39,6.39,0,0,1-3.54.93,6,6,0,0,1-4.62-1.91,7.11,7.11,0,0,1-1.76-5,7.45,7.45,0,0,1,1.75-5.16,5.84,5.84,0,0,1,4.58-2,5.53,5.53,0,0,1,4.32,1.81,6.94,6.94,0,0,1,1.62,4.82ZM122,49.19a3.71,3.71,0,0,0-4-3.75,3.84,3.84,0,0,0-2.74,1A4.15,4.15,0,0,0,114,49.19Z"/><path d="M137.51,57.17V54.8A4.88,4.88,0,0,1,135.7,57a5,5,0,0,1-2.75.75,5.73,5.73,0,0,1-4.5-1.91,7.34,7.34,0,0,1-1.71-5.07,7.52,7.52,0,0,1,1.69-5.09,5.88,5.88,0,0,1,7.21-1.25,4.82,4.82,0,0,1,1.87,2.13V44.18h1.8v13Zm-8.76-6.35a5.94,5.94,0,0,0,1.13,3.88,4,4,0,0,0,3.25,1.36,3.88,3.88,0,0,0,3.23-1.49,6.44,6.44,0,0,0,1.18-4.09,5.62,5.62,0,0,0-1.17-3.76,4,4,0,0,0-3.21-1.37,4,4,0,0,0-3.23,1.46A6.18,6.18,0,0,0,128.75,50.82Z"/><path d="M146,46.79a7.84,7.84,0,0,1,2-2.39,3.69,3.69,0,0,1,2.24-.7,4,4,0,0,1,.76.07,5.16,5.16,0,0,1,.77.21l-.58,1.69-.61-.14a3.23,3.23,0,0,0-.61-.06A3.39,3.39,0,0,0,147.1,47a6.11,6.11,0,0,0-1.15,3.8v6.38h-1.81v-13H146Z"/><path d="M164.21,57.17h-1.86V34.47h1.86Z"/><path d="M178.73,57.17V54.8A4.88,4.88,0,0,1,176.92,57a5,5,0,0,1-2.75.75,5.73,5.73,0,0,1-4.5-1.91A7.34,7.34,0,0,1,168,50.76a7.52,7.52,0,0,1,1.69-5.09,5.88,5.88,0,0,1,7.21-1.25,4.82,4.82,0,0,1,1.87,2.13V44.18h1.8v13ZM170,50.82a5.94,5.94,0,0,0,1.13,3.88,4,4,0,0,0,3.25,1.36,3.88,3.88,0,0,0,3.23-1.49,6.44,6.44,0,0,0,1.18-4.09,5.62,5.62,0,0,0-1.17-3.76,4,4,0,0,0-3.21-1.37,3.93,3.93,0,0,0-3.22,1.46A6.13,6.13,0,0,0,170,50.82Z"/><path d="M183.89,54.86l1.71-1a3.19,3.19,0,0,0,3.21,2.18,2.66,2.66,0,0,0,1.81-.58,1.92,1.92,0,0,0,.68-1.54c0-1-.89-1.84-2.65-2.54-.19-.07-.34-.12-.44-.17a8.17,8.17,0,0,1-2.87-1.67,2.91,2.91,0,0,1-.82-2.11,3.5,3.5,0,0,1,1.17-2.72,4.32,4.32,0,0,1,3-1.06,5,5,0,0,1,2.69.69,3.94,3.94,0,0,1,1.63,2l-1.65.92a2.66,2.66,0,0,0-1-1.4,3,3,0,0,0-1.76-.49,2.19,2.19,0,0,0-1.54.55,1.76,1.76,0,0,0-.61,1.37,1.69,1.69,0,0,0,.6,1.33,7.82,7.82,0,0,0,2.49,1.16,6.71,6.71,0,0,1,2.88,1.63,3.66,3.66,0,0,1,.74,2.43,3.56,3.56,0,0,1-1.28,2.86,5.16,5.16,0,0,1-3.42,1.06,5.22,5.22,0,0,1-2.85-.75A4.18,4.18,0,0,1,183.89,54.86Z"/><path d="M215.06,57.17V54.8a4.71,4.71,0,0,1-4.56,2.94,5.71,5.71,0,0,1-4.5-1.91,7.34,7.34,0,0,1-1.71-5.07A7.56,7.56,0,0,1,206,45.67a5.89,5.89,0,0,1,7.22-1.25,4.82,4.82,0,0,1,1.87,2.13V44.18h1.8v13Zm-8.76-6.35a5.94,5.94,0,0,0,1.13,3.88,4,4,0,0,0,3.25,1.36,3.89,3.89,0,0,0,3.23-1.49,6.44,6.44,0,0,0,1.18-4.09,5.57,5.57,0,0,0-1.18-3.76,4,4,0,0,0-3.2-1.37,4,4,0,0,0-3.23,1.46A6.18,6.18,0,0,0,206.3,50.82Z"/><path d="M231.8,46.55a7,7,0,0,0-1.93-.94,7.2,7.2,0,0,0-2.11-.32,5,5,0,0,0-3.86,1.55A5.83,5.83,0,0,0,222.47,51,5.06,5.06,0,0,0,224,54.73a5.17,5.17,0,0,0,3.8,1.48,6.73,6.73,0,0,0,2.13-.37,8.26,8.26,0,0,0,2.12-1.1v2a8,8,0,0,1-2.11.81,11,11,0,0,1-2.48.27,6.53,6.53,0,0,1-4.88-1.95,6.87,6.87,0,0,1-1.9-5,6.79,6.79,0,0,1,7.15-7.15,10.32,10.32,0,0,1,2.2.22,7.38,7.38,0,0,1,1.84.66Z"/><path d="M245.48,46.55a6.9,6.9,0,0,0-1.93-.94,7.2,7.2,0,0,0-2.11-.32,5,5,0,0,0-3.85,1.55A5.79,5.79,0,0,0,236.15,51a5.1,5.1,0,0,0,1.49,3.77,5.19,5.19,0,0,0,3.8,1.48,6.73,6.73,0,0,0,2.13-.37,8.26,8.26,0,0,0,2.12-1.1v2a8,8,0,0,1-2.11.81,10.9,10.9,0,0,1-2.48.27,6.53,6.53,0,0,1-4.88-1.95,6.87,6.87,0,0,1-1.9-5,6.79,6.79,0,0,1,7.15-7.15,10.32,10.32,0,0,1,2.2.22,7.38,7.38,0,0,1,1.84.66Z"/><path d="M248.72,39.11a1.38,1.38,0,0,1,1.39-1.37,1.37,1.37,0,0,1,1,.4,1.3,1.3,0,0,1,.42,1,1.31,1.31,0,0,1-.41,1,1.44,1.44,0,0,1-2,0A1.3,1.3,0,0,1,248.72,39.11Zm.45,18.06v-13H251v13Z"/><path d="M261.86,57.74a6.78,6.78,0,0,1-2.67-.54,7.61,7.61,0,0,1-2.31-1.58,6.6,6.6,0,0,1-1.5-2.23,7.24,7.24,0,0,1,0-5.39,6.7,6.7,0,0,1,1.51-2.25,6.86,6.86,0,0,1,4.95-2,7,7,0,0,1,5,2,6.95,6.95,0,0,1,1.55,7.62,6.73,6.73,0,0,1-1.52,2.25,7.5,7.5,0,0,1-2.34,1.58A7.07,7.07,0,0,1,261.86,57.74Zm.06-1.68a4.83,4.83,0,0,0,3.62-1.54,5.6,5.6,0,0,0,0-7.6,5,5,0,0,0-7.25,0,5.62,5.62,0,0,0,0,7.6A4.82,4.82,0,0,0,261.92,56.06Z"/><path d="M272.7,57.17v-13h1.71v2a5.4,5.4,0,0,1,1.94-1.87A5.54,5.54,0,0,1,279,43.7a4.27,4.27,0,0,1,4.67,4.66v8.81h-1.83v-8a4.35,4.35,0,0,0-.81-2.89,3.16,3.16,0,0,0-2.52-1,3.65,3.65,0,0,0-3,1.23,6.12,6.12,0,0,0-1,3.84v6.78Z"/><path d="M299.49,50.73H289.16a6.31,6.31,0,0,0,1.26,4,3.91,3.91,0,0,0,3.18,1.44,4.19,4.19,0,0,0,2.52-.78,5.73,5.73,0,0,0,1.8-2.34l1.66.91a7.14,7.14,0,0,1-2.44,2.9,6.39,6.39,0,0,1-3.54.93A6,6,0,0,1,289,55.83a7.06,7.06,0,0,1-1.76-5A7.45,7.45,0,0,1,289,45.66a5.82,5.82,0,0,1,4.57-2,5.5,5.5,0,0,1,4.32,1.81,6.9,6.9,0,0,1,1.63,4.82Zm-2.14-1.54a3.71,3.71,0,0,0-4-3.75,3.88,3.88,0,0,0-2.75,1,4.14,4.14,0,0,0-1.28,2.72Z"/><path d="M301.76,54.86l1.71-1a3.47,3.47,0,0,0,1.24,1.63,3.36,3.36,0,0,0,2,.55,2.69,2.69,0,0,0,1.82-.58,1.92,1.92,0,0,0,.67-1.54c0-1-.88-1.84-2.65-2.54l-.44-.17a8.36,8.36,0,0,1-2.87-1.67,2.91,2.91,0,0,1-.82-2.11,3.5,3.5,0,0,1,1.17-2.72,4.33,4.33,0,0,1,3-1.06,5,5,0,0,1,2.69.69,4,4,0,0,1,1.63,2l-1.66.92a2.64,2.64,0,0,0-1-1.4,3,3,0,0,0-1.76-.49,2.21,2.21,0,0,0-1.55.55,1.79,1.79,0,0,0-.61,1.37,1.66,1.66,0,0,0,.61,1.33,7.82,7.82,0,0,0,2.49,1.16,6.66,6.66,0,0,1,2.87,1.63,3.6,3.6,0,0,1,.74,2.43,3.55,3.55,0,0,1-1.27,2.86,5.17,5.17,0,0,1-3.43,1.06,5.27,5.27,0,0,1-2.85-.75A4.23,4.23,0,0,1,301.76,54.86Z"/><path d="M315.12,55.94a1.47,1.47,0,0,1,1.49-1.49,1.46,1.46,0,0,1,1.07.43,1.47,1.47,0,0,1,.43,1.06,1.47,1.47,0,0,1-1.5,1.5,1.47,1.47,0,0,1-1.06-.43A1.46,1.46,0,0,1,315.12,55.94Z"/></svg>