<svg id="fondos" xmlns="http://www.w3.org/2000/svg" viewBox="0 0 838.12 100.16"><defs><style>.cls-1{fill:#e6e6e6;}</style></defs><title>explosivos2</title><rect class="cls-1" width="838.12" height="100.16"/><path d="M59.51,55.89V34.45H70.13v1.83H61.45V43h8.68v1.83H61.45v9.24h8.68v1.83Z"/><path d="M72.69,42.9h2l4,9.85,4-9.85h2l-6,13.83Z"/><path d="M97,55.89V53.52a4.88,4.88,0,0,1-1.81,2.19,4.94,4.94,0,0,1-2.74.76A5.74,5.74,0,0,1,88,54.55a7.38,7.38,0,0,1-1.7-5.07A7.56,7.56,0,0,1,88,44.39a5.89,5.89,0,0,1,7.22-1.25A4.8,4.8,0,0,1,97,45.27V42.9h1.81v13Zm-8.76-6.35a5.89,5.89,0,0,0,1.14,3.88,4,4,0,0,0,3.24,1.36,3.92,3.92,0,0,0,3.24-1.48,6.49,6.49,0,0,0,1.17-4.1,5.62,5.62,0,0,0-1.17-3.76,4,4,0,0,0-3.21-1.37,4,4,0,0,0-3.22,1.46A6.18,6.18,0,0,0,88.27,49.54Z"/><path d="M105.65,55.89h-1.86V33.19h1.86Z"/><path d="M112.37,42.9v6.49a7.69,7.69,0,0,0,.84,4.18,3.21,3.21,0,0,0,2.85,1.21,3.25,3.25,0,0,0,2.86-1.23,7.48,7.48,0,0,0,.86-4.16V42.9h1.79v7.41a6.69,6.69,0,0,1-1.39,4.6,6.17,6.17,0,0,1-8.2,0,6.65,6.65,0,0,1-1.41-4.6V42.9Z"/><path d="M136,55.89V53.52a4.88,4.88,0,0,1-1.81,2.19,5,5,0,0,1-2.75.76,5.74,5.74,0,0,1-4.5-1.92,7.34,7.34,0,0,1-1.71-5.07,7.57,7.57,0,0,1,1.69-5.09,5.88,5.88,0,0,1,7.21-1.25A4.82,4.82,0,0,1,136,45.27V42.9h1.8v13Zm-8.76-6.35a5.89,5.89,0,0,0,1.14,3.88,4,4,0,0,0,3.24,1.36,3.9,3.9,0,0,0,3.23-1.48A6.43,6.43,0,0,0,136,49.2a5.62,5.62,0,0,0-1.17-3.76,4,4,0,0,0-3.21-1.37,3.93,3.93,0,0,0-3.22,1.46A6.18,6.18,0,0,0,127.21,49.54Z"/><path d="M144.41,45.51a8,8,0,0,1,2-2.39,3.69,3.69,0,0,1,2.24-.7,4.08,4.08,0,0,1,.77.07,5.91,5.91,0,0,1,.77.21l-.59,1.7a6,6,0,0,0-.61-.15,3.23,3.23,0,0,0-.61-.06,3.39,3.39,0,0,0-2.77,1.52,6.11,6.11,0,0,0-1.15,3.8v6.38h-1.8v-13h1.8Z"/><path d="M162.67,55.89h-1.86V33.19h1.86Z"/><path d="M177.19,55.89V53.52a4.88,4.88,0,0,1-1.81,2.19,4.94,4.94,0,0,1-2.74.76,5.74,5.74,0,0,1-4.51-1.92,7.34,7.34,0,0,1-1.71-5.07,7.57,7.57,0,0,1,1.69-5.09,5.88,5.88,0,0,1,7.21-1.25,4.82,4.82,0,0,1,1.87,2.13V42.9H179v13Zm-8.76-6.35a5.89,5.89,0,0,0,1.14,3.88,4,4,0,0,0,3.24,1.36A3.9,3.9,0,0,0,176,53.3a6.43,6.43,0,0,0,1.18-4.1,5.62,5.62,0,0,0-1.17-3.76,4,4,0,0,0-3.21-1.37,3.93,3.93,0,0,0-3.22,1.46A6.18,6.18,0,0,0,168.43,49.54Z"/><path d="M202.06,55.89V53.52a4.88,4.88,0,0,1-1.81,2.19,4.94,4.94,0,0,1-2.74.76A5.74,5.74,0,0,1,193,54.55a7.38,7.38,0,0,1-1.7-5.07A7.56,7.56,0,0,1,193,44.39a5.89,5.89,0,0,1,7.22-1.25,4.86,4.86,0,0,1,1.86,2.13V42.9h1.81v13Zm-8.76-6.35a5.89,5.89,0,0,0,1.14,3.88,4,4,0,0,0,3.24,1.36,3.88,3.88,0,0,0,3.23-1.48,6.43,6.43,0,0,0,1.18-4.1,5.62,5.62,0,0,0-1.17-3.76,4,4,0,0,0-3.21-1.37,4,4,0,0,0-3.22,1.46A6.18,6.18,0,0,0,193.3,49.54Z"/><path d="M210.5,55.89h-1.8v-13h1.8v2a4.72,4.72,0,0,1,1.7-1.88,4.55,4.55,0,0,1,2.43-.64,4.41,4.41,0,0,1,2.43.65A4.23,4.23,0,0,1,218.6,45a5,5,0,0,1,4.53-2.56,4.27,4.27,0,0,1,3.25,1.25,4.81,4.81,0,0,1,1.19,3.44v8.78h-1.8V47.82A4.5,4.5,0,0,0,225,45a2.84,2.84,0,0,0-2.34-1,3.13,3.13,0,0,0-2.73,1.21,6.72,6.72,0,0,0-.87,3.85v6.84h-1.79V47.82a4.59,4.59,0,0,0-.74-2.91,2.79,2.79,0,0,0-2.32-.92,3.23,3.23,0,0,0-2.8,1.23,6.62,6.62,0,0,0-.89,3.83Z"/><path d="M243.53,49.45H233.21a6.31,6.31,0,0,0,1.26,3.95,3.9,3.9,0,0,0,3.17,1.44,4.19,4.19,0,0,0,2.52-.78A5.6,5.6,0,0,0,242,51.72l1.65.91a7.17,7.17,0,0,1-2.44,2.91,6.39,6.39,0,0,1-3.54.93A6,6,0,0,1,233,54.56a7.15,7.15,0,0,1-1.76-5A7.45,7.45,0,0,1,233,44.38a5.84,5.84,0,0,1,4.58-2,5.53,5.53,0,0,1,4.32,1.81,6.94,6.94,0,0,1,1.62,4.82Zm-2.14-1.54a3.71,3.71,0,0,0-4-3.75,3.84,3.84,0,0,0-2.74,1,4.15,4.15,0,0,0-1.29,2.72Z"/><path d="M247.28,55.89v-13H249v2A5.25,5.25,0,0,1,250.94,43a5.5,5.5,0,0,1,2.64-.62,4.28,4.28,0,0,1,4.68,4.66v8.81h-1.84v-8a4.35,4.35,0,0,0-.81-2.89,3.14,3.14,0,0,0-2.51-1,3.64,3.64,0,0,0-3,1.23,6.12,6.12,0,0,0-1,3.84v6.78Z"/><path d="M272.51,55.89V53.52a4.88,4.88,0,0,1-1.81,2.19,5,5,0,0,1-2.75.76,5.74,5.74,0,0,1-4.5-1.92,7.34,7.34,0,0,1-1.71-5.07,7.52,7.52,0,0,1,1.69-5.09,5.88,5.88,0,0,1,7.21-1.25,4.82,4.82,0,0,1,1.87,2.13V42.9h1.8v13Zm-8.76-6.35a5.94,5.94,0,0,0,1.13,3.88,4,4,0,0,0,3.25,1.36,3.9,3.9,0,0,0,3.23-1.48,6.49,6.49,0,0,0,1.18-4.1,5.62,5.62,0,0,0-1.17-3.76,4,4,0,0,0-3.21-1.37,4,4,0,0,0-3.23,1.46A6.18,6.18,0,0,0,263.75,49.54Z"/><path d="M277.08,55.89l7.25-11.36h-6.75V42.9h9.87l-7.19,11.37h7.39v1.62Z"/><path d="M300.16,55.89V53.52a4.88,4.88,0,0,1-1.81,2.19,4.94,4.94,0,0,1-2.74.76,5.74,5.74,0,0,1-4.51-1.92,7.38,7.38,0,0,1-1.7-5.07,7.56,7.56,0,0,1,1.68-5.09,5.89,5.89,0,0,1,7.22-1.25,4.86,4.86,0,0,1,1.86,2.13V42.9H302v13Zm-8.76-6.35a5.89,5.89,0,0,0,1.14,3.88,4,4,0,0,0,3.24,1.36A3.92,3.92,0,0,0,299,53.3a6.49,6.49,0,0,0,1.17-4.1A5.62,5.62,0,0,0,299,45.44a4,4,0,0,0-3.21-1.37,4,4,0,0,0-3.22,1.46A6.18,6.18,0,0,0,291.4,49.54Z"/><path d="M307.22,54.66a1.44,1.44,0,0,1,.44-1.06,1.42,1.42,0,0,1,1.06-.43,1.47,1.47,0,0,1,1.49,1.49,1.46,1.46,0,0,1-.43,1.07,1.47,1.47,0,0,1-1.06.43,1.49,1.49,0,0,1-1.5-1.5Z"/></svg>