<svg xmlns="http://www.w3.org/2000/svg" viewBox="0 0 829 1080"><defs><style>.cls-1{fill:#fff;}.cls-2{fill:#3a665f;}</style></defs><title>fondo_pregunta_1</title><g id="Capa_2" data-name="Capa 2"><g id="Capa_1-2" data-name="Capa 1"><rect class="cls-1" width="829" height="1080"/><path class="cls-2" d="M288.41,166.54a28.41,28.41,0,0,1,11.26,2.25,29.35,29.35,0,0,1,9.24,6.21,29.71,29.71,0,0,1,6.24,9.2,28.66,28.66,0,0,1,0,22.45,28.78,28.78,0,0,1-6.24,9.12,29.64,29.64,0,0,1-9.24,6.13,29.21,29.21,0,0,1-22.53,0,29.48,29.48,0,0,1-9.23-6.13,28.78,28.78,0,0,1-6.24-9.12,28.66,28.66,0,0,1,0-22.45,29.71,29.71,0,0,1,6.24-9.2,29.19,29.19,0,0,1,9.23-6.21A28.46,28.46,0,0,1,288.41,166.54Zm0,5.76a22.47,22.47,0,0,0-16.21,6.76,23.32,23.32,0,0,0-4.84,7.35,22.68,22.68,0,0,0-1.78,8.94,22.38,22.38,0,0,0,1.78,8.9,23.11,23.11,0,0,0,4.87,7.31,23.41,23.41,0,0,0,7.28,5,22.33,22.33,0,0,0,17.8,0,23.18,23.18,0,0,0,12.15-12.3,22.55,22.55,0,0,0,1.77-8.9,22.85,22.85,0,0,0-1.77-8.94,23.32,23.32,0,0,0-4.84-7.35,22.52,22.52,0,0,0-16.21-6.76Z"/><path class="cls-2" d="M332.06,223.2h-6.2V167.5h8.05a45,45,0,0,1,7.65.63,18.7,18.7,0,0,1,6.5,2.33,12.63,12.63,0,0,1,4.54,4.69,15.52,15.52,0,0,1,1.7,7.72,15.28,15.28,0,0,1-3.73,10.63,15,15,0,0,1-10.23,4.73l17.72,25h-7.6l-16.84-24.45h-1.56Zm0-29.92H334a39.79,39.79,0,0,0,5.18-.33,13.11,13.11,0,0,0,4.5-1.4,8.49,8.49,0,0,0,3.21-3,9.71,9.71,0,0,0,1.22-5.21,10.75,10.75,0,0,0-1.18-5.43,7.62,7.62,0,0,0-3.14-3,13.37,13.37,0,0,0-4.5-1.29,45.94,45.94,0,0,0-5.36-.3h-1.85Z"/><path class="cls-2" d="M365.89,167.5h10.49q3.11,0,6,.26a31.15,31.15,0,0,1,5.54,1,26.1,26.1,0,0,1,5.2,2.07,27.35,27.35,0,0,1,5,3.39,25.22,25.22,0,0,1,7,9.53,30.57,30.57,0,0,1,2.21,11.67,29.08,29.08,0,0,1-2.21,11.38,26.15,26.15,0,0,1-6.87,9.38,27.4,27.4,0,0,1-5,3.58,25.44,25.44,0,0,1-5.2,2.14,29.38,29.38,0,0,1-5.62,1c-1.94.17-4,.26-6.16.26H365.89Zm10.71,49.94c1.68,0,3.3-.08,4.88-.23a23.83,23.83,0,0,0,4.54-.85,18.83,18.83,0,0,0,4.21-1.77,20.5,20.5,0,0,0,3.95-2.92,21,21,0,0,0,5.21-7.46,22.94,22.94,0,0,0,1.74-8.86,23.79,23.79,0,0,0-1.81-9.16,20.28,20.28,0,0,0-5.43-7.53,18.68,18.68,0,0,0-8.09-4.4,40.47,40.47,0,0,0-9.2-1h-4.5v44.18Z"/><path class="cls-2" d="M416,167.5h28.88v5.76H422.18v16.55h22v5.76h-22v21.87h22.68v5.76H416Z"/><path class="cls-2" d="M455.79,165.14l43.43,45.5V167.5h6.21v58.21L462,180.28V223.2h-6.2Z"/><path class="cls-2" d="M525.37,207.39l-6.72,15.81h-6.8l25.71-58.36,25,58.36h-6.87l-6.57-15.81Zm12-28.07-9.53,22.31h18.84Z"/><path class="cls-2" d="M179.48,264.64h-5.17v-3.33h5.17V249.76h3.84v11.55H189v3.33h-5.65v24.82h-3.84Z"/><path class="cls-2" d="M198.68,261.31v14.06q0,6.4,1.83,9.05c1.22,1.75,3.27,2.63,6.17,2.63s4.94-.89,6.19-2.67,1.87-4.78,1.87-9V261.31h3.88v16.06q0,6.57-3,9.95t-8.85,3.38q-5.88,0-8.92-3.38t-3.05-9.95V261.31Z"/><path class="cls-2" d="M247.75,303.62V261.31h3.78v5.27a12,12,0,0,1,4.22-4.68,10.74,10.74,0,0,1,5.84-1.64,12,12,0,0,1,9.57,4.18q3.63,4.17,3.63,11.06t-3.55,11.06a11.84,11.84,0,0,1-9.46,4.14,11.15,11.15,0,0,1-6-1.63,12.16,12.16,0,0,1-4.25-4.81v19.36Zm22.82-28.06q0-5.46-2.49-8.58a8.29,8.29,0,0,0-6.87-3.13,8.72,8.72,0,0,0-7.06,3q-2.57,3-2.56,8.33a12.85,12.85,0,0,0,2.75,8.62,9,9,0,0,0,7.25,3.22,7.93,7.93,0,0,0,6.62-3Q270.56,281,270.57,275.56Z"/><path class="cls-2" d="M287.2,289.46h-4V240.27h4Z"/><path class="cls-2" d="M318.66,289.46v-5.14a10.21,10.21,0,0,1-9.87,6.38,12.42,12.42,0,0,1-9.76-4.16q-3.7-4.16-3.7-11t3.65-11a12.72,12.72,0,0,1,15.63-2.7,10.43,10.43,0,0,1,4.05,4.62v-5.14h3.9v28.15Zm-19-13.77q0,5.46,2.46,8.41a8.62,8.62,0,0,0,7,2.95,8.42,8.42,0,0,0,7-3.22q2.56-3.22,2.56-8.87c0-3.45-.85-6.17-2.54-8.14a8.66,8.66,0,0,0-6.95-3,8.51,8.51,0,0,0-7,3.16C300.53,269.11,299.68,272,299.68,275.69Z"/><path class="cls-2" d="M333,289.46V261.31h3.72v4.35a11.43,11.43,0,0,1,4.2-4.05,11.83,11.83,0,0,1,5.73-1.35c3.2,0,5.68.89,7.46,2.67a10,10,0,0,1,2.66,7.43v19.1h-4V272.1q0-4.22-1.76-6.27c-1.18-1.36-3-2-5.45-2-3,0-5.18.88-6.58,2.65s-2.11,4.54-2.11,8.33v14.69Z"/><path class="cls-2" d="M406.47,289.46v-5.14a10.11,10.11,0,0,1-9.8,6.38,12.43,12.43,0,0,1-9.76-4.16q-3.71-4.16-3.7-11a16.4,16.4,0,0,1,3.65-11,11.85,11.85,0,0,1,9.43-4.27,11.71,11.71,0,0,1,6.17,1.57,10.41,10.41,0,0,1,4,4.62V240.27h4v49.19Zm-18.91-13.77q0,5.46,2.46,8.41a8.62,8.62,0,0,0,7,2.95,8.36,8.36,0,0,0,6.95-3.22q2.53-3.22,2.54-8.87c0-3.45-.84-6.17-2.51-8.14a9.41,9.41,0,0,0-13.9.19C388.42,269.11,387.56,272,387.56,275.69Z"/><path class="cls-2" d="M445,275.5H422.6c.1,3.64,1,6.49,2.73,8.57a8.48,8.48,0,0,0,6.88,3.11,9.12,9.12,0,0,0,5.46-1.68,12.5,12.5,0,0,0,3.91-5.08l3.58,2a15.56,15.56,0,0,1-5.28,6.3,13.83,13.83,0,0,1-7.67,2,13,13,0,0,1-10-4.14q-3.82-4.14-3.82-10.87,0-6.92,3.79-11.17a12.65,12.65,0,0,1,9.92-4.26,12,12,0,0,1,9.36,3.92q3.53,3.93,3.52,10.46Zm-4.63-3.33a8.06,8.06,0,0,0-8.76-8.13,8.43,8.43,0,0,0-5.95,2.22,9,9,0,0,0-2.78,5.91Z"/><path class="cls-2" d="M492.61,289.46v-5.14a10.21,10.21,0,0,1-9.87,6.38,12.45,12.45,0,0,1-9.76-4.16q-3.69-4.16-3.69-11t3.65-11a12.72,12.72,0,0,1,15.63-2.7,10.35,10.35,0,0,1,4,4.62v-5.14h3.91v28.15Zm-19-13.77q0,5.46,2.46,8.41a8.64,8.64,0,0,0,7,2.95,8.44,8.44,0,0,0,7-3.22c1.7-2.15,2.56-5.11,2.56-8.87,0-3.45-.85-6.17-2.54-8.14a8.67,8.67,0,0,0-6.95-3,8.54,8.54,0,0,0-7,3.16C474.49,269.11,473.63,272,473.63,275.69Z"/><path class="cls-2" d="M528.89,266.45a15.23,15.23,0,0,0-4.19-2.05,15.61,15.61,0,0,0-4.57-.68,10.87,10.87,0,0,0-8.35,3.35,12.61,12.61,0,0,0-3.11,8.93,11,11,0,0,0,3.22,8.16,11.19,11.19,0,0,0,8.24,3.21,14.31,14.31,0,0,0,4.62-.8,18.08,18.08,0,0,0,4.58-2.38v4.29a17,17,0,0,1-4.57,1.76,23.54,23.54,0,0,1-5.36.59,14.13,14.13,0,0,1-10.57-4.24,14.9,14.9,0,0,1-4.12-10.84,14.75,14.75,0,0,1,15.48-15.49,22.7,22.7,0,0,1,4.78.49,15.55,15.55,0,0,1,4,1.42Z"/><path class="cls-2" d="M558.53,266.45a15.23,15.23,0,0,0-4.19-2.05,15.61,15.61,0,0,0-4.57-.68,10.83,10.83,0,0,0-8.34,3.35,12.57,12.57,0,0,0-3.11,8.93,11,11,0,0,0,3.22,8.16,11.15,11.15,0,0,0,8.23,3.21,14.22,14.22,0,0,0,4.62-.8,18.13,18.13,0,0,0,4.59-2.38v4.29a17.16,17.16,0,0,1-4.57,1.76,23.57,23.57,0,0,1-5.37.59,14.14,14.14,0,0,1-10.57-4.24,14.9,14.9,0,0,1-4.12-10.84,14.75,14.75,0,0,1,15.49-15.49,22.67,22.67,0,0,1,4.77.49,15.63,15.63,0,0,1,4,1.42Z"/><path class="cls-2" d="M565.55,250.33a2.81,2.81,0,0,1,.89-2.11,2.93,2.93,0,0,1,2.12-.88,3,3,0,0,1,2.15.88,2.82,2.82,0,0,1,.9,2.11,2.9,2.9,0,0,1-.87,2.13,3,3,0,0,1-2.18.85,2.94,2.94,0,0,1-2.14-.85A2.9,2.9,0,0,1,565.55,250.33Zm1,39.13V261.31h4v28.15Z"/><path class="cls-2" d="M594,290.7a14.52,14.52,0,0,1-5.78-1.19,16.21,16.21,0,0,1-5-3.41,14.27,14.27,0,0,1-3.24-4.83,15.33,15.33,0,0,1-1.11-5.84,15.16,15.16,0,0,1,1.14-5.84,14.75,14.75,0,0,1,3.27-4.88A15.08,15.08,0,0,1,594,260.26a15.45,15.45,0,0,1,10.92,4.45,15,15,0,0,1,3.34,4.92,14.69,14.69,0,0,1,1.16,5.8,15,15,0,0,1-1.14,5.8,14.7,14.7,0,0,1-3.3,4.87,15.64,15.64,0,0,1-5.06,3.41A15.27,15.27,0,0,1,594,290.7Zm.12-3.65A10.51,10.51,0,0,0,602,283.7a12.14,12.14,0,0,0,0-16.45,10.92,10.92,0,0,0-15.72,0,12.17,12.17,0,0,0,0,16.45A10.45,10.45,0,0,0,594.14,287.05Zm-4.22-30.28,6.76-11.11h5.21l-9,11.11Z"/><path class="cls-2" d="M617.5,289.46V261.31h3.72v4.35a11.43,11.43,0,0,1,4.2-4.05,11.83,11.83,0,0,1,5.73-1.35,9.25,9.25,0,0,1,10.12,10.1v19.1h-4V272.1q0-4.22-1.76-6.27c-1.18-1.36-3-2-5.45-2-3,0-5.18.88-6.58,2.65s-2.11,4.54-2.11,8.33v14.69Z"/></g></g></svg>