<svg xmlns="http://www.w3.org/2000/svg" viewBox="0 0 829 1080"><defs><style>.cls-1{fill:#fff;}.cls-2{fill:#3a665f;}</style></defs><title>fondo_pregunta</title><g id="Capa_2" data-name="Capa 2"><g id="fondos"><rect class="cls-1" width="829" height="1080"/><path class="cls-2" d="M343.05,165.86a16.94,16.94,0,0,1,6.74,1.35,17.35,17.35,0,0,1,5.53,3.71,17.87,17.87,0,0,1,3.74,5.5,17.17,17.17,0,0,1,0,13.44,17.12,17.12,0,0,1-3.74,5.46,17.75,17.75,0,0,1-5.53,3.67,17.5,17.5,0,0,1-13.48,0,17.59,17.59,0,0,1-5.52-3.67,17,17,0,0,1-3.74-5.46,17.17,17.17,0,0,1,0-13.44,17.69,17.69,0,0,1,3.74-5.5,17.2,17.2,0,0,1,5.52-3.71A17,17,0,0,1,343.05,165.86Zm0,3.45a13.45,13.45,0,0,0-9.7,4,14.21,14.21,0,0,0-2.9,4.4,13.8,13.8,0,0,0,2.92,15.05,14,14,0,0,0,4.36,3,13.44,13.44,0,0,0,10.65,0,14,14,0,0,0,7.27-7.36,14,14,0,0,0,0-10.68,14.18,14.18,0,0,0-2.89-4.4,13.54,13.54,0,0,0-4.34-3A13.35,13.35,0,0,0,343.05,169.31Z"/><path class="cls-2" d="M369.18,199.77h-3.71V166.43h4.81a27,27,0,0,1,4.58.38,11.18,11.18,0,0,1,3.89,1.39,7.65,7.65,0,0,1,2.72,2.81,9.24,9.24,0,0,1,1,4.62,9.11,9.11,0,0,1-2.24,6.36,8.93,8.93,0,0,1-6.12,2.83l10.61,15h-4.55l-10.08-14.64h-.93Zm0-17.91h1.15a22.28,22.28,0,0,0,3.09-.2,7.77,7.77,0,0,0,2.7-.84A4.91,4.91,0,0,0,378,179a5.81,5.81,0,0,0,.73-3.12,6.33,6.33,0,0,0-.71-3.24,4.54,4.54,0,0,0-1.87-1.82,8,8,0,0,0-2.7-.77,27.48,27.48,0,0,0-3.21-.18h-1.1Z"/><path class="cls-2" d="M389.43,166.43h6.27c1.24,0,2.43.06,3.58.16a17.87,17.87,0,0,1,3.32.6,15.8,15.8,0,0,1,3.12,1.23,16.13,16.13,0,0,1,3,2,15,15,0,0,1,4.2,5.7,18.27,18.27,0,0,1,1.33,7A17.37,17.37,0,0,1,412.9,190a15.72,15.72,0,0,1-4.11,5.62,16.43,16.43,0,0,1-3,2.14,15.21,15.21,0,0,1-3.11,1.28,17.65,17.65,0,0,1-3.36.62c-1.17.11-2.4.16-3.7.16h-6.18Zm6.41,29.89c1,0,2,0,2.91-.13a14.87,14.87,0,0,0,2.72-.51,12,12,0,0,0,2.52-1.06,12.94,12.94,0,0,0,5.48-6.21,13.7,13.7,0,0,0,1-5.31,14.17,14.17,0,0,0-1.08-5.48,12.15,12.15,0,0,0-3.25-4.51,11.15,11.15,0,0,0-4.84-2.63,24,24,0,0,0-5.5-.6h-2.7v26.44Z"/><path class="cls-2" d="M419.4,166.43h17.28v3.45H423.11v9.9h13.17v3.45H423.11v13.09h13.57v3.45H419.4Z"/><path class="cls-2" d="M443.22,165l26,27.23V166.43h3.71v34.84l-26-27.19v25.69h-3.72Z"/><path class="cls-2" d="M484.87,190.31l-4,9.46h-4.06l15.38-34.93,15,34.93H503l-3.94-9.46Zm7.2-16.8-5.7,13.35h11.27Z"/><path class="cls-2" d="M277.86,224.57h-3.09v-2h3.09v-6.92h2.3v6.92h3.38v2h-3.38v14.85h-2.3Z"/><path class="cls-2" d="M289.36,222.58V231q0,3.84,1.09,5.41a5.1,5.1,0,0,0,7.4,0c.74-1.06,1.12-2.86,1.12-5.39v-8.41h2.31v9.61q0,3.93-1.8,5.95a6.72,6.72,0,0,1-5.3,2,6.83,6.83,0,0,1-5.34-2,8.64,8.64,0,0,1-1.82-5.95v-9.61Z"/><path class="cls-2" d="M318.72,247.89V222.58H321v3.15a7.19,7.19,0,0,1,2.53-2.8,6.36,6.36,0,0,1,3.49-1,7.22,7.22,0,0,1,5.73,2.5,9.71,9.71,0,0,1,2.17,6.62,9.87,9.87,0,0,1-2.12,6.62,7.1,7.1,0,0,1-5.66,2.47,6.59,6.59,0,0,1-3.59-1,7.35,7.35,0,0,1-2.55-2.88v11.58Zm13.66-16.79a8,8,0,0,0-1.49-5.13,5,5,0,0,0-4.12-1.88,5.23,5.23,0,0,0-4.22,1.82,7.5,7.5,0,0,0-1.53,5,7.69,7.69,0,0,0,1.64,5.15A5.41,5.41,0,0,0,327,238a4.72,4.72,0,0,0,4-1.81A8,8,0,0,0,332.38,231.1Z"/><path class="cls-2" d="M342.33,239.42h-2.41V210h2.41Z"/><path class="cls-2" d="M361.16,239.42v-3.07a6.11,6.11,0,0,1-5.91,3.81,7.42,7.42,0,0,1-5.84-2.48,9.51,9.51,0,0,1-2.22-6.58,9.81,9.81,0,0,1,2.19-6.6,7.61,7.61,0,0,1,9.35-1.61,6.26,6.26,0,0,1,2.43,2.76v-3.07h2.33v16.84Zm-11.36-8.24a7.64,7.64,0,0,0,1.47,5,5.16,5.16,0,0,0,4.21,1.77,5,5,0,0,0,4.18-1.93,8.31,8.31,0,0,0,1.53-5.31,7.21,7.21,0,0,0-1.52-4.87,5.2,5.2,0,0,0-4.16-1.78,5.14,5.14,0,0,0-4.18,1.89A8.05,8.05,0,0,0,349.8,231.18Z"/><path class="cls-2" d="M369.76,239.42V222.58H372v2.6a6.76,6.76,0,0,1,2.52-2.42,7.07,7.07,0,0,1,3.43-.81,5.54,5.54,0,0,1,6.06,6v11.43h-2.38V229a5.67,5.67,0,0,0-1.05-3.75,4.1,4.1,0,0,0-3.26-1.22,4.74,4.74,0,0,0-3.94,1.58,8,8,0,0,0-1.26,5v8.79Z"/><path class="cls-2" d="M413.71,239.42v-3.07a6,6,0,0,1-5.87,3.81,7.43,7.43,0,0,1-5.84-2.48,9.56,9.56,0,0,1-2.21-6.58,9.85,9.85,0,0,1,2.18-6.6,7.09,7.09,0,0,1,5.64-2.55,7,7,0,0,1,3.7.94,6.26,6.26,0,0,1,2.4,2.76V210h2.38v29.44Zm-11.32-8.24a7.64,7.64,0,0,0,1.47,5,5.17,5.17,0,0,0,4.21,1.77,5,5,0,0,0,4.16-1.93,8.37,8.37,0,0,0,1.52-5.31,7.31,7.31,0,0,0-1.5-4.87,5.63,5.63,0,0,0-8.32.11A8,8,0,0,0,402.39,231.18Z"/><path class="cls-2" d="M436.75,231.07H423.36a8.21,8.21,0,0,0,1.63,5.12,5.07,5.07,0,0,0,4.13,1.87,5.44,5.44,0,0,0,3.26-1,7.37,7.37,0,0,0,2.34-3l2.15,1.18A9.42,9.42,0,0,1,433.7,239a8.28,8.28,0,0,1-4.58,1.2,7.8,7.8,0,0,1-6-2.47,9.27,9.27,0,0,1-2.29-6.51,9.7,9.7,0,0,1,2.27-6.69A7.62,7.62,0,0,1,429,222a7.16,7.16,0,0,1,5.6,2.34,9,9,0,0,1,2.11,6.26Zm-2.77-2a5.27,5.27,0,0,0-1.54-3.59,5.21,5.21,0,0,0-3.7-1.27,5,5,0,0,0-3.57,1.33,5.38,5.38,0,0,0-1.66,3.53Z"/><path class="cls-2" d="M465.26,239.42v-3.07a6.08,6.08,0,0,1-5.9,3.81,7.45,7.45,0,0,1-5.85-2.48,9.56,9.56,0,0,1-2.21-6.58,9.81,9.81,0,0,1,2.19-6.6,7.61,7.61,0,0,1,9.35-1.61,6.18,6.18,0,0,1,2.42,2.76v-3.07h2.34v16.84Zm-11.36-8.24a7.58,7.58,0,0,0,1.48,5,5.15,5.15,0,0,0,4.2,1.77,5,5,0,0,0,4.19-1.93,8.31,8.31,0,0,0,1.53-5.31,7.26,7.26,0,0,0-1.52-4.87,5.2,5.2,0,0,0-4.16-1.78,5.14,5.14,0,0,0-4.18,1.89A8.06,8.06,0,0,0,453.9,231.18Z"/><path class="cls-2" d="M487,225.65a9.06,9.06,0,0,0-2.5-1.22,9.37,9.37,0,0,0-2.74-.41,6.49,6.49,0,0,0-5,2,7.52,7.52,0,0,0-1.87,5.35,6.61,6.61,0,0,0,1.93,4.88,6.7,6.7,0,0,0,4.93,1.92,8.44,8.44,0,0,0,2.76-.48,10.6,10.6,0,0,0,2.75-1.42v2.56a10.34,10.34,0,0,1-2.74,1.06,14.29,14.29,0,0,1-3.21.35A8.43,8.43,0,0,1,475,237.7a8.89,8.89,0,0,1-2.47-6.48,8.82,8.82,0,0,1,9.27-9.27,13.79,13.79,0,0,1,2.86.29,9.53,9.53,0,0,1,2.38.85Z"/><path class="cls-2" d="M504.71,225.65a9.06,9.06,0,0,0-2.5-1.22,9.37,9.37,0,0,0-2.74-.41,6.49,6.49,0,0,0-5,2,7.52,7.52,0,0,0-1.87,5.35,6.61,6.61,0,0,0,1.93,4.88,6.7,6.7,0,0,0,4.93,1.92,8.55,8.55,0,0,0,2.77-.48,10.7,10.7,0,0,0,2.74-1.42v2.56a10.34,10.34,0,0,1-2.74,1.06,14.29,14.29,0,0,1-3.21.35,8.45,8.45,0,0,1-6.32-2.54,8.89,8.89,0,0,1-2.47-6.48,8.82,8.82,0,0,1,9.27-9.27,13.72,13.72,0,0,1,2.86.29,9.39,9.39,0,0,1,2.38.85Z"/><path class="cls-2" d="M508.91,216a1.72,1.72,0,0,1,.53-1.26,1.84,1.84,0,0,1,2.56,0,1.69,1.69,0,0,1,.54,1.26,1.73,1.73,0,0,1-.52,1.28,1.9,1.9,0,0,1-2.59,0A1.77,1.77,0,0,1,508.91,216Zm.59,23.42V222.58h2.41v16.84Z"/><path class="cls-2" d="M526,240.16a8.57,8.57,0,0,1-3.46-.71,9.63,9.63,0,0,1-3-2,8.65,8.65,0,0,1-1.94-2.89,9.45,9.45,0,0,1,0-7,9.18,9.18,0,0,1,4.9-4.9A9.14,9.14,0,0,1,526,222a9.41,9.41,0,0,1,3.54.68,9.18,9.18,0,0,1,3,2,8.86,8.86,0,0,1,2.7,6.42,9,9,0,0,1-.68,3.46,8.89,8.89,0,0,1-2,2.92,9.1,9.1,0,0,1-3,2A9,9,0,0,1,526,240.16ZM526,238a6.31,6.31,0,0,0,4.7-2,7.29,7.29,0,0,0,0-9.85,6.53,6.53,0,0,0-9.41,0,7.3,7.3,0,0,0,0,9.85A6.28,6.28,0,0,0,526,238Zm-2.53-18.12,4-6.65h3.11l-5.37,6.65Z"/><path class="cls-2" d="M540,239.42V222.58h2.22v2.6a6.74,6.74,0,0,1,2.51-2.42,7.09,7.09,0,0,1,3.43-.81,5.52,5.52,0,0,1,6.06,6v11.43h-2.37V229a5.61,5.61,0,0,0-1.06-3.75,4.07,4.07,0,0,0-3.25-1.22,4.74,4.74,0,0,0-3.94,1.58q-1.27,1.59-1.27,5v8.79Z"/></g></g></svg>