<svg xmlns="http://www.w3.org/2000/svg" viewBox="0 0 831 1080"><defs><style>.cls-1{fill:#fff;}.cls-2{fill:#9ac2bf;}.cls-3{fill:#3a665f;}.cls-4{opacity:0.25;}.cls-5{fill:#1d3330;}.cls-6{fill:#c3e678;}.cls-7{fill:#a5d76e;}</style></defs><title>ganaste</title><g id="Capa_2" data-name="Capa 2"><g id="fondos"><rect class="cls-1" x="2" width="829" height="1080"/><rect class="cls-2" x="2" y="580" width="829" height="83"/><rect class="cls-3" y="249" width="831" height="63"/><path class="cls-1" d="M142.6,293.64V268.31h14.92v4.57H148v5.21h9.5v4.6H148v10.95Z"/><path class="cls-1" d="M180.84,293.64V268.31h14.91v4.57h-9.5v5.21h9.5v4.6h-9.5V289h9.5v4.6Z"/><path class="cls-1" d="M220.2,293.64V268.31h5.41V289h8.65v4.6Z"/><path class="cls-1" d="M256.91,293.64V268.31h5.41v25.33Z"/><path class="cls-1" d="M307.64,274.91a11.47,11.47,0,0,0-3.38-2.16,10.05,10.05,0,0,0-3.7-.68,8.69,8.69,0,0,0-6.45,2.42,10.06,10.06,0,0,0-.18,12.85,8,8,0,0,0,6.09,2.34,10.75,10.75,0,0,0,7.58-2.94l0,5.55a14.23,14.23,0,0,1-3.63,1.53,15.67,15.67,0,0,1-4,.5,13.72,13.72,0,0,1-9.94-3.76,13.67,13.67,0,0,1,0-19.1,13.88,13.88,0,0,1,10-3.75,17.48,17.48,0,0,1,7.77,1.76Z"/><path class="cls-1" d="M331.91,293.64V268.31h5.42v25.33Z"/><path class="cls-1" d="M371.7,272.92v20.72h-5.43V272.92h-6.19v-4.61H377.9v4.61Z"/><path class="cls-1" d="M395.63,293.64l9.64-25.33h6.19l9.78,25.33h-6.16L413,288.26h-9.81l-1.77,5.38ZM411.75,284l-2.83-8.19a11.33,11.33,0,0,1-.31-1.24c-.13-.59-.26-1.31-.4-2.16-.15.81-.3,1.55-.43,2.2s-.25,1.09-.32,1.31L404.73,284Z"/><path class="cls-1" d="M462.81,274.91a11.56,11.56,0,0,0-3.37-2.16,10.14,10.14,0,0,0-3.71-.68,8.7,8.7,0,0,0-6.45,2.42,10.08,10.08,0,0,0-.17,12.85,8,8,0,0,0,6.09,2.34,11.16,11.16,0,0,0,4.08-.73,11.28,11.28,0,0,0,3.5-2.21l0,5.55a14.16,14.16,0,0,1-3.62,1.53,15.75,15.75,0,0,1-4,.5,13.72,13.72,0,0,1-9.94-3.76,13.66,13.66,0,0,1,0-19.1,13.85,13.85,0,0,1,10-3.75,17.91,17.91,0,0,1,4,.43,17.64,17.64,0,0,1,3.79,1.33Z"/><path class="cls-1" d="M487.08,293.64V268.31h5.42v25.33Z"/><path class="cls-1" d="M543.35,281a13.27,13.27,0,0,1-1,5.14,12.71,12.71,0,0,1-2.92,4.26,14.1,14.1,0,0,1-4.45,2.89,13.65,13.65,0,0,1-5.12,1,13.39,13.39,0,0,1-4.54-.79,13.9,13.9,0,0,1-4.07-2.26,12.63,12.63,0,0,1-3.66-4.55A12.93,12.93,0,0,1,516.3,281a13.15,13.15,0,0,1,1-5.13,12.63,12.63,0,0,1,2.94-4.26,13.86,13.86,0,0,1,9.6-3.9,13.51,13.51,0,0,1,5.15,1,13.9,13.9,0,0,1,4.42,2.88,12.61,12.61,0,0,1,2.92,4.27A13.14,13.14,0,0,1,543.35,281Zm-13.5,8.46a7.43,7.43,0,0,0,5.69-2.41,9.24,9.24,0,0,0,0-12.1,7.81,7.81,0,0,0-11.37,0,9.32,9.32,0,0,0,0,12.13A7.51,7.51,0,0,0,529.85,289.49Z"/><path class="cls-1" d="M567.05,293.64V268.31h5.62l11.21,14.75a11,11,0,0,1,1.07,1.75c.38.76.78,1.65,1.2,2.68-.13-.75-.22-1.5-.28-2.24s-.08-1.66-.08-2.76V268.31H591v25.33h-5.31l-11.52-15a10.5,10.5,0,0,1-1.06-1.76c-.38-.75-.78-1.66-1.21-2.71a20.51,20.51,0,0,1,.27,2.21c.06.74.09,1.68.09,2.81v14.46Z"/><path class="cls-1" d="M615.73,293.64V268.31h14.92v4.57h-9.5v5.21h9.5v4.6h-9.5V289h9.5v4.6Z"/><path class="cls-1" d="M653.47,290.43l3-3.41a4.59,4.59,0,0,0,1.83,2.2,5.15,5.15,0,0,0,2.84.81,4.64,4.64,0,0,0,3-.9,3,3,0,0,0,1.11-2.42c0-1.2-1.23-2.4-3.69-3.58-.79-.39-1.42-.7-1.88-.94a13.93,13.93,0,0,1-4.6-3.38,6.22,6.22,0,0,1-1.29-3.94,6.34,6.34,0,0,1,2.49-5.15,9.9,9.9,0,0,1,6.44-2,9.13,9.13,0,0,1,4,.8,8.05,8.05,0,0,1,2.95,2.52l-3.2,3.06a3.92,3.92,0,0,0-1.51-1.65,4.53,4.53,0,0,0-2.28-.54,3.93,3.93,0,0,0-2.59.8,2.57,2.57,0,0,0-1,2.09c0,1.33,1.3,2.56,3.91,3.66l1.2.52a13.39,13.39,0,0,1,4.76,3.32,6.44,6.44,0,0,1,1.55,4.23,7.16,7.16,0,0,1-2.43,5.68,9.61,9.61,0,0,1-6.53,2.12,11.46,11.46,0,0,1-5-1A6.76,6.76,0,0,1,653.47,290.43Z"/><path class="cls-3" d="M274.79,385.16a18.44,18.44,0,0,0-4.87-5.6,11.9,11.9,0,0,0-7.18-2,12.43,12.43,0,0,0-4.4.79,11.92,11.92,0,0,0-3.71,2.23,10.5,10.5,0,0,0-2.55,3.42,10.31,10.31,0,0,0-.93,4.41,7.34,7.34,0,0,0,1.07,3.94,12.4,12.4,0,0,0,2.64,3,17.5,17.5,0,0,0,3.52,2.22l3.71,1.76,4.63,2a65.47,65.47,0,0,1,6.44,3.2,25.63,25.63,0,0,1,5.33,4,16.94,16.94,0,0,1,3.66,5.29A17.43,17.43,0,0,1,283.5,421a21.1,21.1,0,0,1-1.72,8.57,20.7,20.7,0,0,1-4.72,6.81,22.77,22.77,0,0,1-7,4.54,21.74,21.74,0,0,1-8.53,1.67,22.73,22.73,0,0,1-7.78-1.3,20.76,20.76,0,0,1-6.44-3.66,21,21,0,0,1-4.77-5.7,23.94,23.94,0,0,1-2.78-7.41l7.59-2.13a16,16,0,0,0,1.58,5.05,15.63,15.63,0,0,0,3,4.12,13.47,13.47,0,0,0,4.22,2.78,13.17,13.17,0,0,0,5.19,1,14.55,14.55,0,0,0,5.37-1,15,15,0,0,0,4.59-2.82,13.86,13.86,0,0,0,3.2-4.31,12.48,12.48,0,0,0,1.2-5.47,11.12,11.12,0,0,0-1.11-5.19,12.53,12.53,0,0,0-2.92-3.71,19.4,19.4,0,0,0-4.12-2.73c-1.55-.77-3.12-1.53-4.73-2.27L258.57,406q-3.06-1.39-5.84-3a23.87,23.87,0,0,1-4.87-3.61,15.22,15.22,0,0,1-3.29-4.78,16.17,16.17,0,0,1-1.2-6.53,16.59,16.59,0,0,1,5.88-13,19.77,19.77,0,0,1,6.26-3.57,21.84,21.84,0,0,1,7.41-1.25A19.92,19.92,0,0,1,281,381.18Z"/><path class="cls-3" d="M306.57,441.42h-7.78V371.54h7.78Z"/><path class="cls-3" d="M343,441.42h-7.78V378.77H318.34v-7.23h41.71v7.23H343Z"/><path class="cls-3" d="M379.32,413.15v4a29.2,29.2,0,0,0,.28,4.07,19.84,19.84,0,0,0,.93,3.94,13.48,13.48,0,0,0,1.85,3.57,14.7,14.7,0,0,0,6.25,5,19.57,19.57,0,0,0,7.83,1.71,18.91,18.91,0,0,0,7.56-1.62,15.92,15.92,0,0,0,6.16-4.59,11.85,11.85,0,0,0,2.09-3.61,22.66,22.66,0,0,0,1-4,28.25,28.25,0,0,0,.32-4.22V371.54h7.78v43.74c0,1.92-.06,3.73-.18,5.42a29.83,29.83,0,0,1-.79,5,18.82,18.82,0,0,1-1.85,4.64,22,22,0,0,1-3.29,4.35,24,24,0,0,1-8.57,5.93,26.7,26.7,0,0,1-10.25,2,27.27,27.27,0,0,1-9.77-1.81,23.28,23.28,0,0,1-8.3-5.32,21.8,21.8,0,0,1-3.66-4.5,20.06,20.06,0,0,1-2-4.77,28.39,28.39,0,0,1-.92-5.24c-.16-1.82-.23-3.72-.23-5.7V371.54h7.78Z"/><path class="cls-3" d="M449.38,421.58,441,441.42h-8.53l32.25-73.22,31.42,73.22h-8.62l-8.25-19.84Zm15.11-35.21-12,28h23.64Z"/><path class="cls-3" d="M560.68,386.83A30.56,30.56,0,0,0,551,380a28.23,28.23,0,0,0-11.63-2.46,25.9,25.9,0,0,0-11,2.37,28.85,28.85,0,0,0-8.95,6.35,30.45,30.45,0,0,0-6,9.22,28.26,28.26,0,0,0,0,22,29.85,29.85,0,0,0,6.07,9.22,29.18,29.18,0,0,0,9,6.35,26.17,26.17,0,0,0,11,2.36A27,27,0,0,0,551,432.84a33.22,33.22,0,0,0,9.68-6.71v9.63a37.08,37.08,0,0,1-9.91,5.05,34,34,0,0,1-10.94,1.81,35.33,35.33,0,0,1-14-2.83,36.77,36.77,0,0,1-19.46-19.09,33.69,33.69,0,0,1-2.92-13.94,35.25,35.25,0,0,1,2.87-14.14,36.82,36.82,0,0,1,19.42-19.41,35.07,35.07,0,0,1,14.13-2.87,33.9,33.9,0,0,1,20.85,6.85Z"/><path class="cls-3" d="M585.52,441.42h-7.79V371.54h7.79Z"/><path class="cls-3" d="M636.3,370.34a35.74,35.74,0,0,1,14.14,2.82A36.45,36.45,0,0,1,662,381a37,37,0,0,1,7.83,11.54,35.88,35.88,0,0,1,0,28.17A35.83,35.83,0,0,1,662,432.1a37,37,0,0,1-11.58,7.69,36.72,36.72,0,0,1-28.27,0,36.91,36.91,0,0,1-11.58-7.69,35.83,35.83,0,0,1-7.83-11.44,35.88,35.88,0,0,1,0-28.17A37,37,0,0,1,610.59,381a36.34,36.34,0,0,1,11.58-7.79A35.72,35.72,0,0,1,636.3,370.34Zm0,7.22A28.11,28.11,0,0,0,625,379.83,28.53,28.53,0,0,0,616,386a29.55,29.55,0,0,0-6.07,9.23,28.64,28.64,0,0,0-2.22,11.21,28.34,28.34,0,0,0,2.22,11.17,29.07,29.07,0,0,0,6.12,9.17,29.44,29.44,0,0,0,9.13,6.26,28.14,28.14,0,0,0,22.33,0,29.44,29.44,0,0,0,9.13-6.26,29.07,29.07,0,0,0,6.12-9.17,28.34,28.34,0,0,0,2.22-11.17,28.64,28.64,0,0,0-2.22-11.21,29.55,29.55,0,0,0-6.07-9.23,28.57,28.57,0,0,0-9.09-6.21A28,28,0,0,0,636.3,377.56ZM649.46,352l-14.17,14.27-4.64-2.6,11-15.2Z"/><path class="cls-3" d="M687.46,368.58,742,425.66V371.54h7.79v73l-54.49-57v53.85h-7.79Z"/><path class="cls-3" d="M283.57,485.68a23.86,23.86,0,0,0-7.63-5.36,22.25,22.25,0,0,0-9.16-1.94,20.47,20.47,0,0,0-8.65,1.86,22.72,22.72,0,0,0-7,5,24.13,24.13,0,0,0-4.75,7.27,22.25,22.25,0,0,0,0,17.3,23.67,23.67,0,0,0,4.78,7.26,23.07,23.07,0,0,0,7.12,5,20.71,20.71,0,0,0,8.69,1.86,21.21,21.21,0,0,0,9-2,26.06,26.06,0,0,0,7.63-5.29v7.59a29.37,29.37,0,0,1-7.81,4,26.81,26.81,0,0,1-8.61,1.43,28,28,0,0,1-11.06-2.23,28.91,28.91,0,0,1-15.33-15,26.49,26.49,0,0,1-2.3-11,27.67,27.67,0,0,1,2.26-11.14A29.06,29.06,0,0,1,256,475a27.67,27.67,0,0,1,11.14-2.26,26.73,26.73,0,0,1,16.42,5.4Z"/><path class="cls-3" d="M322.77,472.69a28.14,28.14,0,0,1,11.13,2.22A28.81,28.81,0,0,1,343,481a29.55,29.55,0,0,1,6.17,9.09,28.39,28.39,0,0,1,0,22.2,28.5,28.5,0,0,1-6.17,9,29.13,29.13,0,0,1-9.13,6.06,28.89,28.89,0,0,1-22.26,0,29.24,29.24,0,0,1-9.13-6.06,28.31,28.31,0,0,1-6.16-9,28.27,28.27,0,0,1,0-22.2,29.34,29.34,0,0,1,6.16-9.09,28.92,28.92,0,0,1,9.13-6.13A28.14,28.14,0,0,1,322.77,472.69Zm0,5.69a22.25,22.25,0,0,0-16,6.68,23,23,0,0,0-4.78,7.26,22.54,22.54,0,0,0-1.76,8.84A22.22,22.22,0,0,0,302,510a22.73,22.73,0,0,0,4.82,7.23,23.18,23.18,0,0,0,7.19,4.93,22.16,22.16,0,0,0,17.59,0,23.3,23.3,0,0,0,7.19-4.93,23.06,23.06,0,0,0,4.82-7.23,22.21,22.21,0,0,0,1.75-8.79,22.53,22.53,0,0,0-1.75-8.84,23.23,23.23,0,0,0-4.79-7.26,22.25,22.25,0,0,0-16-6.68Z"/><path class="cls-3" d="M363.07,471.3l42.92,45V473.64h6.13v57.52l-42.92-44.9v42.42h-6.13Z"/><path class="cls-3" d="M441.11,528.68H435V479.33H421.69v-5.69h32.85v5.69H441.11Z"/><path class="cls-3" d="M469.87,528.68h-6.14v-55h8a44,44,0,0,1,7.56.62,18.37,18.37,0,0,1,6.42,2.3,12.48,12.48,0,0,1,4.49,4.63,15.34,15.34,0,0,1,1.68,7.63,15.08,15.08,0,0,1-3.69,10.51A14.79,14.79,0,0,1,478,504l17.52,24.68H488L471.4,504.51h-1.53Zm0-29.57h1.89a38.6,38.6,0,0,0,5.11-.33,12.87,12.87,0,0,0,4.46-1.38,8.37,8.37,0,0,0,3.17-3,9.54,9.54,0,0,0,1.21-5.14,10.64,10.64,0,0,0-1.17-5.37,7.49,7.49,0,0,0-3.1-3,13.14,13.14,0,0,0-4.46-1.28,47,47,0,0,0-5.29-.29h-1.82Z"/><path class="cls-3" d="M532.13,472.69a28.15,28.15,0,0,1,11.14,2.22,28.77,28.77,0,0,1,9.12,6.13,29.55,29.55,0,0,1,6.17,9.09,28.39,28.39,0,0,1,0,22.2,28.5,28.5,0,0,1-6.17,9,29.08,29.08,0,0,1-9.12,6.06,28.92,28.92,0,0,1-22.27,0,29.08,29.08,0,0,1-9.12-6.06,28.33,28.33,0,0,1-6.17-9,28.39,28.39,0,0,1,0-22.2,29.37,29.37,0,0,1,6.17-9.09,28.77,28.77,0,0,1,9.12-6.13A28.14,28.14,0,0,1,532.13,472.69Zm0,5.69a22.25,22.25,0,0,0-16,6.68,23.21,23.21,0,0,0-4.78,7.26,22.53,22.53,0,0,0-1.75,8.84,22.21,22.21,0,0,0,1.75,8.79,22.89,22.89,0,0,0,4.82,7.23,23.18,23.18,0,0,0,7.19,4.93,22.16,22.16,0,0,0,17.59,0,23.18,23.18,0,0,0,7.19-4.93,22.89,22.89,0,0,0,4.82-7.23,22.21,22.21,0,0,0,1.75-8.79,22.53,22.53,0,0,0-1.75-8.84,23.21,23.21,0,0,0-4.78-7.26,22.29,22.29,0,0,0-16-6.68Z"/><path class="cls-3" d="M578.2,523h15.18v5.7H572.06v-55h6.14Z"/><path class="cls-3" d="M610.61,513.06,604,528.68h-6.72L622.65,471l24.75,57.67h-6.79l-6.49-15.62Zm11.9-27.74-9.42,22h18.62Z"/><path class="cls-3" d="M656.31,473.64h10.36q3.08,0,5.92.25a30.37,30.37,0,0,1,5.47,1,25.79,25.79,0,0,1,5.15,2,26.86,26.86,0,0,1,4.92,3.36,24.68,24.68,0,0,1,6.94,9.42,30,30,0,0,1,2.19,11.53,28.56,28.56,0,0,1-2.19,11.24,25.66,25.66,0,0,1-6.79,9.27,27.2,27.2,0,0,1-5,3.54,25.52,25.52,0,0,1-5.15,2.12,29.57,29.57,0,0,1-5.55,1q-2.88.26-6.09.26H656.31ZM666.89,523c1.66,0,3.26-.07,4.82-.22a23.45,23.45,0,0,0,4.49-.84,19.06,19.06,0,0,0,4.16-1.75,20.76,20.76,0,0,0,3.91-2.88,21,21,0,0,0,5.14-7.37,22.87,22.87,0,0,0,1.72-8.76,23.46,23.46,0,0,0-1.79-9.06,19.9,19.9,0,0,0-5.37-7.44,18.31,18.31,0,0,0-8-4.34,39.57,39.57,0,0,0-9.09-1h-4.45V523Z"/><path class="cls-3" d="M717,513.06l-6.64,15.62h-6.72L729,471l24.75,57.67H747l-6.5-15.62Zm11.9-27.74-9.42,22h18.62Z"/><g class="cls-4"><path class="cls-5" d="M159.2,385.7a51.87,51.87,0,0,0-64.35,78.1,2.87,2.87,0,1,0,4.53-3.53,46.13,46.13,0,0,1,57.23-69.45,2.87,2.87,0,1,0,2.59-5.12Z"/><path class="cls-5" d="M182.12,408.62a2.87,2.87,0,1,0-5.12,2.59,46.13,46.13,0,0,1-69.46,57.22A2.87,2.87,0,1,0,104,473a51.87,51.87,0,0,0,78.11-64.34Z"/><path class="cls-5" d="M174.7,397.69c-.71-.81-1.45-1.6-2.22-2.36s-1.55-1.51-2.36-2.22a2.87,2.87,0,1,0-3.8,4.3c.72.63,1.42,1.3,2.1,2s1.35,1.38,2,2.1a2.87,2.87,0,0,0,4.3-3.8Z"/><path class="cls-5" d="M203.56,437.14a9.72,9.72,0,0,0,0-10.18l-3.77-6.19a4,4,0,0,1-.54-2.73l1.12-7.15a9.73,9.73,0,0,0-3.9-9.43l-5.86-4.26a4.06,4.06,0,0,1-1.55-2.31l-1.7-7a9.76,9.76,0,0,0-7.2-7.21l-7-1.7a4.06,4.06,0,0,1-2.31-1.55l-4.26-5.85a9.71,9.71,0,0,0-9.42-3.91L150,368.75a4,4,0,0,1-2.73-.54L141,364.44a9.72,9.72,0,0,0-10.18,0l-6.19,3.77a4,4,0,0,1-2.73.54l-7.15-1.12a9.73,9.73,0,0,0-9.43,3.9l-4.26,5.86a4.06,4.06,0,0,1-2.31,1.55l-7.05,1.7a9.77,9.77,0,0,0-7.2,7.2l-1.7,7.05a4.06,4.06,0,0,1-1.55,2.31l-5.86,4.26a9.72,9.72,0,0,0-3.9,9.42L72.65,418a4,4,0,0,1-.54,2.73L68.33,427a9.76,9.76,0,0,0,0,10.18l3.78,6.19a4,4,0,0,1,.54,2.73l-1.12,7.15a9.73,9.73,0,0,0,3.9,9.43l5.85,4.26a4,4,0,0,1,1.55,2.31l1.71,7.05a9.74,9.74,0,0,0,7.2,7.2l2.94.71-19.9,44.4a2.87,2.87,0,0,0,.3,2.88,2.9,2.9,0,0,0,2.66,1.15l16-1.92L103,543.91a2.85,2.85,0,0,0,2.35,1.23h.27a2.87,2.87,0,0,0,2.35-1.68l20.33-45.35,2.58,1.57a9.77,9.77,0,0,0,10.18,0l2.67-1.63,20.35,45.41a2.89,2.89,0,0,0,2.35,1.68h.27a2.87,2.87,0,0,0,2.36-1.23l9.22-13.23,16,1.92a2.88,2.88,0,0,0,3-4l-19.92-44.42,2.83-.69a9.73,9.73,0,0,0,7.21-7.2l1.7-7a4.09,4.09,0,0,1,1.55-2.32l5.85-4.26a9.72,9.72,0,0,0,3.91-9.42l-1.12-7.16a4,4,0,0,1,.54-2.72Zm-98.77,99.33L97.48,526a2.88,2.88,0,0,0-2.7-1.21L82.09,526.3l18.13-40.46a4,4,0,0,1,.88.87l4.26,5.86a10.25,10.25,0,0,0,1.35,1.51l-9.54,21.29a2.87,2.87,0,0,0,5.23,2.35l9.52-21.22a9.47,9.47,0,0,0,2.86,0l7.16-1.12a3.93,3.93,0,0,1,1.28,0Zm85.14-10.17-12.7-1.52a2.86,2.86,0,0,0-2.69,1.21l-7.31,10.48-18.44-41.13a4.17,4.17,0,0,1,1.17,0l7.15,1.12a9.61,9.61,0,0,0,3,0l9.52,21.24a2.89,2.89,0,0,0,2.62,1.7,2.92,2.92,0,0,0,1.18-.26,2.86,2.86,0,0,0,1.44-3.79L165.27,494a10.22,10.22,0,0,0,1.27-1.43l4.26-5.85a3.94,3.94,0,0,1,1-1Zm8.73-92.15-3.77,6.2a9.75,9.75,0,0,0-1.31,6.61l1.12,7.15a4,4,0,0,1-1.61,3.89l-5.86,4.26a9.81,9.81,0,0,0-3.75,5.6l-1.7,7.05a4,4,0,0,1-3,3l-7,1.71a9.77,9.77,0,0,0-5.61,3.75l-4.25,5.85a4,4,0,0,1-3.9,1.61l-7.15-1.12a9.77,9.77,0,0,0-6.61,1.31l-6.19,3.77a4,4,0,0,1-4.2,0l-6.2-3.77a9.75,9.75,0,0,0-6.61-1.31l-7.15,1.12a4,4,0,0,1-3.89-1.61l-4.26-5.85a9.77,9.77,0,0,0-5.61-3.76l-7-1.7a4,4,0,0,1-3-3l-1.71-7.05a9.71,9.71,0,0,0-3.75-5.6L78.81,458a4,4,0,0,1-1.61-3.89L78.32,447A9.77,9.77,0,0,0,77,440.34l-3.77-6.19a4,4,0,0,1,0-4.2L77,423.76a9.77,9.77,0,0,0,1.31-6.61L77.2,410a4,4,0,0,1,1.61-3.89l5.85-4.26a9.78,9.78,0,0,0,3.76-5.6l1.7-7.05a4,4,0,0,1,3-3l7-1.7a9.78,9.78,0,0,0,5.6-3.76l4.26-5.85a4,4,0,0,1,3.89-1.61l7.15,1.12a9.79,9.79,0,0,0,6.62-1.31l6.19-3.77a4,4,0,0,1,4.2,0l6.19,3.77a9.77,9.77,0,0,0,6.61,1.31L158,373.3a4,4,0,0,1,3.89,1.61l4.26,5.86a9.81,9.81,0,0,0,5.6,3.75l7.05,1.7a4,4,0,0,1,3,3l1.7,7a9.83,9.83,0,0,0,3.76,5.61l5.85,4.25A4,4,0,0,1,194.7,410l-1.12,7.16a9.77,9.77,0,0,0,1.31,6.61l3.77,6.19A4,4,0,0,1,198.66,434.15Z"/><path class="cls-5" d="M169.54,423.12a5.14,5.14,0,0,0-4.32-3.55l-17.28-2.05-7.28-15.79a5.19,5.19,0,0,0-9.42,0L124,417.52l-17.27,2.05a5.19,5.19,0,0,0-2.91,9l12.77,11.81-3.39,17.06a5.21,5.21,0,0,0,5.08,6.21,5.27,5.27,0,0,0,2.54-.67l15.18-8.5,15.18,8.5a5.19,5.19,0,0,0,7.62-5.54l-3.39-17.06,12.77-11.81A5.14,5.14,0,0,0,169.54,423.12Zm-19.26,14.1a2.87,2.87,0,0,0-.87,2.66l3.47,17.46-15.53-8.69a2.82,2.82,0,0,0-1.4-.37,2.77,2.77,0,0,0-1.4.37L119,457.34l3.46-17.46a2.84,2.84,0,0,0-.86-2.66l-13.07-12.09L126.23,423a2.87,2.87,0,0,0,2.26-1.65L136,405.23l7.45,16.16a2.9,2.9,0,0,0,2.27,1.65l17.68,2.09Z"/></g><path class="cls-6" d="M350.24,730A23.72,23.72,0,1,1,374,706.29,23.74,23.74,0,0,1,350.24,730Z"/><path class="cls-7" d="M361.31,722.1a23.68,23.68,0,0,1-18.7-38.24A23.7,23.7,0,1,0,369,720.81,23.56,23.56,0,0,1,361.31,722.1Z"/><path class="cls-1" d="M345.34,718.55a1.64,1.64,0,0,1-1.16-.48l-9.81-9.81a1.63,1.63,0,1,1,2.31-2.31l8.66,8.65,16.83-16.83a1.63,1.63,0,1,1,2.31,2.31l-18,18A1.61,1.61,0,0,1,345.34,718.55Z"/></g></g></svg>