<svg xmlns="http://www.w3.org/2000/svg" viewBox="0 0 831 1080"><defs><style>.cls-1{fill:#fff;}.cls-2{fill:#3a665f;}.cls-3{opacity:0.25;}.cls-4{fill:#c3e678;}.cls-5{fill:#a5d76e;}</style></defs><title>ganaste_final_1</title><g id="Capa_2" data-name="Capa 2"><g id="Capa_1-2" data-name="Capa 1"><rect class="cls-1" x="2" width="829" height="1080"/><rect class="cls-2" y="312" width="831" height="101"/><g class="cls-3"><path d="M300.2,478H89.8A12.81,12.81,0,0,0,77,490.8v46.35a3.49,3.49,0,0,0,7,0V490.8A5.83,5.83,0,0,1,89.8,485H300.2A5.83,5.83,0,0,1,306,490.8V740.45a5.82,5.82,0,0,1-5.82,5.81H227.92a33.32,33.32,0,0,0,0-9.77H273.2a3.49,3.49,0,0,0,3.49-3.49,16.08,16.08,0,0,1,16.06-16.06,3.49,3.49,0,0,0,3.49-3.49V544.06a3.49,3.49,0,0,0-7,0V710.22A23.1,23.1,0,0,0,270,729.51H226.09a33.27,33.27,0,0,0-62.18,0H120a23.1,23.1,0,0,0-19.29-19.29V521A23.11,23.11,0,0,0,120,501.74H270A23.11,23.11,0,0,0,289.26,521v6.75a3.49,3.49,0,0,0,7,0v-10a3.49,3.49,0,0,0-3.49-3.49,16.09,16.09,0,0,1-16.06-16.06,3.49,3.49,0,0,0-3.49-3.49H116.8a3.49,3.49,0,0,0-3.49,3.49,16.09,16.09,0,0,1-16.06,16.06,3.49,3.49,0,0,0-3.49,3.49V713.45a3.49,3.49,0,0,0,3.49,3.49A16.08,16.08,0,0,1,113.31,733a3.49,3.49,0,0,0,3.49,3.49h45.28a33.39,33.39,0,0,0,0,9.78H89.8A5.83,5.83,0,0,1,84,740.45V553.38a3.49,3.49,0,0,0-7,0V740.45a12.82,12.82,0,0,0,12.8,12.8h74.11a33.31,33.31,0,0,0,4.79,8.49V799.1a3.49,3.49,0,0,0,4.81,3.23L195,793.56l21.49,8.77a3.53,3.53,0,0,0,1.32.26,3.5,3.5,0,0,0,3.49-3.49v-10a3.49,3.49,0,0,0-7,0v4.79l-18-7.35a3.54,3.54,0,0,0-2.64,0l-18,7.35V768.45a33.16,33.16,0,0,0,38.64,0v4.35a3.49,3.49,0,0,0,7,0V761.74a33.31,33.31,0,0,0,4.79-8.49H300.2a12.82,12.82,0,0,0,12.8-12.8V490.8A12.81,12.81,0,0,0,300.2,478ZM195,767.68a26.3,26.3,0,1,1,26.3-26.3A26.33,26.33,0,0,1,195,767.68Z"/><path d="M225.72,524.08a3.49,3.49,0,1,0,0-7H164.28a3.49,3.49,0,1,0,0,7Z"/><path d="M249,535.72H141a3.49,3.49,0,0,0,0,7H249a3.49,3.49,0,0,0,0-7Z"/><path d="M249,554.34H141a3.49,3.49,0,0,0,0,7H249a3.49,3.49,0,0,0,0-7Z"/><path d="M249,608.72H141a3.49,3.49,0,0,0,0,7H249a3.49,3.49,0,0,0,0-7Z"/><path d="M249,627.34H141a3.49,3.49,0,0,0,0,7H249a3.49,3.49,0,0,0,0-7Z"/><path d="M249,650.72H141a3.49,3.49,0,0,0,0,7H249a3.49,3.49,0,0,0,0-7Z"/><path d="M249,669.34H141a3.49,3.49,0,0,0,0,7H249a3.49,3.49,0,0,0,0-7Z"/><path d="M249,575.75H232.24a3.49,3.49,0,0,0,0,7H249a3.49,3.49,0,0,0,0-7Z"/><path d="M141,575.75a3.49,3.49,0,0,0,0,7h16.76a3.49,3.49,0,0,0,0-7Z"/><path d="M195,723a18.39,18.39,0,1,0,18.39,18.39A18.41,18.41,0,0,0,195,723Zm0,29.79a11.41,11.41,0,1,1,11.4-11.4A11.41,11.41,0,0,1,195,752.78Z"/><path d="M183.13,579.24A11.87,11.87,0,1,0,195,567.37,11.88,11.88,0,0,0,183.13,579.24Zm16.76,0a4.89,4.89,0,1,1-4.89-4.89A4.89,4.89,0,0,1,199.89,579.24Z"/></g><path class="cls-2" d="M360,509.38v11.87h13.3v4.14H360v19.82h-4.46v-40H373.7v4.13Z"/><path class="cls-2" d="M383,505.25H403.7v4.13H387.43v11.87h15.79v4.14H387.43v15.69H403.7v4.13H383Z"/><path class="cls-2" d="M417.85,541.08h11v4.13H413.4v-40h4.45Z"/><path class="cls-2" d="M440,545.21H435.5v-40H440Z"/><path class="cls-2" d="M480.66,514a17.48,17.48,0,0,0-5.54-3.89,16.14,16.14,0,0,0-6.65-1.41,14.79,14.79,0,0,0-6.29,1.36,16.5,16.5,0,0,0-5.11,3.63,17.22,17.22,0,0,0-3.44,5.27,16,16,0,0,0,0,12.56,16.9,16.9,0,0,0,8.63,8.9,15,15,0,0,0,6.31,1.36,15.51,15.51,0,0,0,6.55-1.46,19.08,19.08,0,0,0,5.54-3.84V542a21.89,21.89,0,0,1-5.68,2.89,19.45,19.45,0,0,1-6.25,1,20.22,20.22,0,0,1-8-1.62,21.1,21.1,0,0,1-11.13-10.91,19.41,19.41,0,0,1-1.67-8,20.16,20.16,0,0,1,1.64-8.08,21.06,21.06,0,0,1,11.11-11.11,20.16,20.16,0,0,1,8.08-1.64,19.45,19.45,0,0,1,11.93,3.92Z"/><path class="cls-2" d="M494.86,545.21h-4.45v-40h4.45Z"/><path class="cls-2" d="M515.69,545.21h-4.45V509.38h-9.65v-4.13h23.85v4.13h-9.75Z"/><path class="cls-2" d="M533.87,533.87,529,545.21h-4.87l18.44-41.87,18,41.87h-4.93l-4.72-11.34Zm8.64-20.14-6.84,16h13.51Z"/><path class="cls-2" d="M597.52,514A17.48,17.48,0,0,0,592,510.1a16.11,16.11,0,0,0-6.65-1.41,14.72,14.72,0,0,0-6.28,1.36,16.55,16.55,0,0,0-5.12,3.63,17.59,17.59,0,0,0-3.44,5.27,16.16,16.16,0,0,0,0,12.56,17,17,0,0,0,3.47,5.27,16.77,16.77,0,0,0,5.17,3.63,14.92,14.92,0,0,0,6.31,1.36,15.43,15.43,0,0,0,6.54-1.46,19.08,19.08,0,0,0,5.54-3.84V542a21.67,21.67,0,0,1-5.67,2.89,19.51,19.51,0,0,1-6.26,1,20.17,20.17,0,0,1-8-1.62,21,21,0,0,1-11.13-10.91,19.25,19.25,0,0,1-1.67-8,20,20,0,0,1,1.64-8.08,21.09,21.09,0,0,1,4.48-6.63,21.33,21.33,0,0,1,6.62-4.48,20.19,20.19,0,0,1,8.08-1.64,19.43,19.43,0,0,1,11.93,3.92Z"/><path class="cls-2" d="M611.72,545.21h-4.45v-40h4.45Z"/><path class="cls-2" d="M640.77,504.56a20.35,20.35,0,0,1,8.08,1.62,20.79,20.79,0,0,1,6.63,4.45,21.16,21.16,0,0,1,4.47,6.6,20.49,20.49,0,0,1,0,16.11,20.44,20.44,0,0,1-4.47,6.54,21.15,21.15,0,0,1-6.63,4.4,21,21,0,0,1-16.16,0,21,21,0,0,1-6.63-4.4,20.63,20.63,0,0,1-4.48-6.54,20.6,20.6,0,0,1,0-16.11,21.36,21.36,0,0,1,4.48-6.6,20.68,20.68,0,0,1,6.63-4.45A20.32,20.32,0,0,1,640.77,504.56Zm0,4.13a16.08,16.08,0,0,0-6.44,1.3,16.28,16.28,0,0,0-5.2,3.55,17,17,0,0,0-3.47,5.28,16.76,16.76,0,0,0,0,12.8,16.78,16.78,0,0,0,3.5,5.24,16.56,16.56,0,0,0,5.22,3.58,16,16,0,0,0,12.77,0,16.6,16.6,0,0,0,8.72-8.82,16.76,16.76,0,0,0,0-12.8,16.82,16.82,0,0,0-3.47-5.28,16.35,16.35,0,0,0-5.19-3.55A16.15,16.15,0,0,0,640.77,508.69Z"/><path class="cls-2" d="M670,503.55l31.17,32.65v-31h4.45V547l-31.16-32.59v30.79H670Z"/><path class="cls-2" d="M716.08,505.25H736.8v4.13H720.53v11.87h15.8v4.14h-15.8v15.69H736.8v4.13H716.08Z"/><path class="cls-2" d="M764.63,513a10.44,10.44,0,0,0-2.78-3.21,6.85,6.85,0,0,0-4.11-1.14,7.12,7.12,0,0,0-2.52.45,7,7,0,0,0-2.12,1.28,5.84,5.84,0,0,0-2,4.47,4.27,4.27,0,0,0,.61,2.26,7.08,7.08,0,0,0,1.51,1.72,9.45,9.45,0,0,0,2,1.27l2.12,1,2.65,1.16a40.69,40.69,0,0,1,3.68,1.83,15.07,15.07,0,0,1,3,2.28,9.9,9.9,0,0,1,2.09,3,10.08,10.08,0,0,1,.77,4.11,12.18,12.18,0,0,1-1,4.9,11.76,11.76,0,0,1-2.7,3.9,13.34,13.34,0,0,1-4,2.6,12.63,12.63,0,0,1-4.88.95,13.19,13.19,0,0,1-4.45-.74,12,12,0,0,1-3.69-2.1,12.41,12.41,0,0,1-2.73-3.26,13.89,13.89,0,0,1-1.59-4.24l4.35-1.21a9.12,9.12,0,0,0,2.62,5.24,7.82,7.82,0,0,0,2.42,1.59,7.45,7.45,0,0,0,3,.59,8.35,8.35,0,0,0,3.08-.59,8.45,8.45,0,0,0,2.62-1.61,7.91,7.91,0,0,0,1.83-2.47,7.08,7.08,0,0,0,.69-3.13,6.25,6.25,0,0,0-.64-3,7,7,0,0,0-1.67-2.12,11.4,11.4,0,0,0-2.36-1.57q-1.32-.66-2.7-1.29L755.35,525c-1.16-.53-2.28-1.09-3.34-1.69a13.68,13.68,0,0,1-2.78-2.07,8.81,8.81,0,0,1-1.88-2.73,9.17,9.17,0,0,1-.69-3.73,9.67,9.67,0,0,1,.9-4.22,9.46,9.46,0,0,1,2.47-3.2,11.07,11.07,0,0,1,3.57-2,12.55,12.55,0,0,1,4.24-.72,11.41,11.41,0,0,1,10.34,6.2Z"/><path class="cls-2" d="M384.47,582.32a16.55,16.55,0,0,0-5.29-3.73,15.54,15.54,0,0,0-6.36-1.34,14.22,14.22,0,0,0-6,1.29,15.93,15.93,0,0,0-4.89,3.47,16.83,16.83,0,0,0-3.29,5,15.39,15.39,0,0,0,0,12,16.24,16.24,0,0,0,3.32,5,15.92,15.92,0,0,0,4.94,3.47,14.38,14.38,0,0,0,6,1.29,14.75,14.75,0,0,0,6.26-1.39,18.09,18.09,0,0,0,5.29-3.67v5.27a20.53,20.53,0,0,1-5.42,2.76,18.86,18.86,0,0,1-6,1,19.37,19.37,0,0,1-7.68-1.54,20.16,20.16,0,0,1-10.64-10.44,18.52,18.52,0,0,1-1.59-7.62,19.18,19.18,0,0,1,1.57-7.73,20.14,20.14,0,0,1,10.61-10.61,19.15,19.15,0,0,1,7.73-1.57,18.52,18.52,0,0,1,11.39,3.75Z"/><path class="cls-2" d="M398.05,612.16H393.8V574h4.25Z"/><path class="cls-2" d="M412,596.7v2.18a16.6,16.6,0,0,0,.15,2.23,11.82,11.82,0,0,0,.51,2.15,7.23,7.23,0,0,0,1,2,8,8,0,0,0,3.42,2.71,10.62,10.62,0,0,0,4.28.94,10.3,10.3,0,0,0,4.13-.88,8.71,8.71,0,0,0,3.37-2.51,6.37,6.37,0,0,0,1.14-2,11.63,11.63,0,0,0,.56-2.2,14.79,14.79,0,0,0,.18-2.31V574H435v23.91c0,1,0,2-.1,3a16,16,0,0,1-.43,2.71,10.44,10.44,0,0,1-1,2.54,12.32,12.32,0,0,1-1.8,2.38A13.08,13.08,0,0,1,427,611.7a14.6,14.6,0,0,1-5.6,1.11,15.15,15.15,0,0,1-5.34-1,12.58,12.58,0,0,1-4.53-2.92,11.4,11.4,0,0,1-2-2.45,10.71,10.71,0,0,1-1.12-2.61,16.37,16.37,0,0,1-.51-2.87c-.08-1-.12-2-.12-3.11V574H412Z"/><path class="cls-2" d="M444.56,574h7.19c1.42,0,2.79.06,4.1.17a21.1,21.1,0,0,1,3.8.69,18,18,0,0,1,7,3.75,17.28,17.28,0,0,1,4.82,6.53,21,21,0,0,1,1.52,8,19.91,19.91,0,0,1-1.52,7.8,18,18,0,0,1-4.71,6.43,18.88,18.88,0,0,1-3.45,2.46,18.39,18.39,0,0,1-3.57,1.47,21,21,0,0,1-3.85.71c-1.34.12-2.74.18-4.23.18h-7.09Zm7.34,34.24c1.15,0,2.27-.05,3.35-.15a16.45,16.45,0,0,0,3.11-.58,13.25,13.25,0,0,0,2.89-1.22,14.85,14.85,0,0,0,6.28-7.11,15.91,15.91,0,0,0,1.19-6.08,16.22,16.22,0,0,0-1.24-6.29,13.93,13.93,0,0,0-3.72-5.16,12.82,12.82,0,0,0-5.55-3,27.87,27.87,0,0,0-6.31-.68h-3.09V608.2Z"/><path class="cls-2" d="M486.66,601.31,482,612.16h-4.66l17.63-40,17.18,40h-4.71L503,601.31Zm8.25-19.25-6.53,15.3H501.3Z"/><path class="cls-2" d="M518.37,574h7.19c1.42,0,2.79.06,4.11.17a21.15,21.15,0,0,1,3.79.69,18.4,18.4,0,0,1,3.58,1.42,18.85,18.85,0,0,1,3.42,2.33,17.36,17.36,0,0,1,4.81,6.53,21,21,0,0,1,1.52,8,19.91,19.91,0,0,1-1.52,7.8,18,18,0,0,1-4.71,6.43,18.88,18.88,0,0,1-3.45,2.46,18.39,18.39,0,0,1-3.57,1.47,21,21,0,0,1-3.85.71q-2,.18-4.23.18h-7.09Zm7.34,34.24c1.15,0,2.27-.05,3.35-.15a16.45,16.45,0,0,0,3.11-.58,13.25,13.25,0,0,0,2.89-1.22,14.85,14.85,0,0,0,6.28-7.11,15.91,15.91,0,0,0,1.19-6.08,16.22,16.22,0,0,0-1.24-6.29,13.93,13.93,0,0,0-3.72-5.16,12.82,12.82,0,0,0-5.55-3,27.87,27.87,0,0,0-6.31-.68h-3.09V608.2Z"/><path class="cls-2" d="M589.7,581.4a10.24,10.24,0,0,0-2.66-3.06,6.51,6.51,0,0,0-3.93-1.09,6.72,6.72,0,0,0-2.41.43,6.38,6.38,0,0,0-2,1.22,5.61,5.61,0,0,0-1.9,4.28,4,4,0,0,0,.58,2.15A6.87,6.87,0,0,0,578.8,587a9.25,9.25,0,0,0,1.93,1.21l2,1,2.53,1.11a35,35,0,0,1,3.52,1.75,13.66,13.66,0,0,1,2.91,2.18,9.2,9.2,0,0,1,2,2.88,9.6,9.6,0,0,1,.74,3.93,11.47,11.47,0,0,1-3.52,8.41,12.51,12.51,0,0,1-3.83,2.48,11.88,11.88,0,0,1-4.66.91,12.27,12.27,0,0,1-4.25-.71,11.42,11.42,0,0,1-3.52-2,11.77,11.77,0,0,1-2.61-3.11,13.21,13.21,0,0,1-1.52-4l4.15-1.17a8.7,8.7,0,0,0,2.51,5,7.35,7.35,0,0,0,2.3,1.51,7.09,7.09,0,0,0,2.84.56,7.84,7.84,0,0,0,2.94-.56,8.16,8.16,0,0,0,2.51-1.54,7.46,7.46,0,0,0,1.74-2.36,6.74,6.74,0,0,0,.66-3,6,6,0,0,0-.61-2.84,6.82,6.82,0,0,0-1.59-2,10.85,10.85,0,0,0-2.25-1.49c-.85-.42-1.71-.84-2.59-1.24l-2.33-1c-1.11-.5-2.18-1-3.19-1.62a12.84,12.84,0,0,1-2.66-2,8.46,8.46,0,0,1-1.8-2.61,8.82,8.82,0,0,1-.66-3.57,9.05,9.05,0,0,1,3.22-7.1,11.11,11.11,0,0,1,3.42-1.95,12.12,12.12,0,0,1,4.05-.68,10.86,10.86,0,0,1,9.88,5.93Z"/><path class="cls-2" d="M602.72,574h19.8v3.95H607v11.35h15.1v4H607v15h15.55v4h-19.8Z"/><path class="cls-2" d="M667.31,593c0,1.28,0,2.51-.08,3.69a18.68,18.68,0,0,1-.56,3.45,16.27,16.27,0,0,1-1.21,3.24,15.36,15.36,0,0,1-2.1,3.09,18,18,0,0,1-6.39,4.71,19,19,0,0,1-15.37.1,20,20,0,0,1-10.46-10.46,18.66,18.66,0,0,1-1.57-7.62,19.18,19.18,0,0,1,1.57-7.73,19.9,19.9,0,0,1,10.58-10.56,19.38,19.38,0,0,1,7.75-1.57,19.08,19.08,0,0,1,9.1,2.15,22.07,22.07,0,0,1,7.07,6.11l-3.1,2.88a18.68,18.68,0,0,0-5.64-5.29,14.42,14.42,0,0,0-7.48-1.9,14.68,14.68,0,0,0-6.13,1.29,16,16,0,0,0-8.25,8.54,15.64,15.64,0,0,0-1.22,6.13A14.87,14.87,0,0,0,635,599a15.56,15.56,0,0,0,3.29,5,18,18,0,0,0,5,3.49,13.27,13.27,0,0,0,5.88,1.37A14.47,14.47,0,0,0,654,608a14.24,14.24,0,0,0,4.39-2.46,12.78,12.78,0,0,0,3.14-3.77,10,10,0,0,0,1.19-4.86H651.4V593Z"/><path class="cls-2" d="M679.51,596.7v2.18a16.6,16.6,0,0,0,.16,2.23,11.8,11.8,0,0,0,.5,2.15,7.26,7.26,0,0,0,1,2,7.9,7.9,0,0,0,3.42,2.71,10.55,10.55,0,0,0,4.28.94A10.37,10.37,0,0,0,693,608a8.68,8.68,0,0,0,3.36-2.51,6.37,6.37,0,0,0,1.14-2,11.63,11.63,0,0,0,.56-2.2,14.79,14.79,0,0,0,.18-2.31V574h4.25v23.91c0,1,0,2-.1,3a15,15,0,0,1-.43,2.71,10.05,10.05,0,0,1-1,2.54,12.32,12.32,0,0,1-1.8,2.38,13.13,13.13,0,0,1-4.68,3.24,14.68,14.68,0,0,1-5.6,1.11,15.16,15.16,0,0,1-5.35-1,12.58,12.58,0,0,1-4.53-2.92,11.71,11.71,0,0,1-2-2.45,11.11,11.11,0,0,1-1.12-2.61,15.5,15.5,0,0,1-.5-2.87c-.09-1-.13-2-.13-3.11V574h4.25Z"/><path class="cls-2" d="M716.34,612.16h-4.25V574h5.52a30.54,30.54,0,0,1,5.24.43,13,13,0,0,1,4.46,1.59,8.69,8.69,0,0,1,3.12,3.22,10.62,10.62,0,0,1,1.16,5.3,10.49,10.49,0,0,1-2.55,7.29,10.32,10.32,0,0,1-7,3.24l12.16,17.13H729l-11.55-16.77h-1.07Zm0-20.52h1.32a27.38,27.38,0,0,0,3.55-.23,8.88,8.88,0,0,0,3.09-1,5.71,5.71,0,0,0,2.2-2.08,6.64,6.64,0,0,0,.84-3.57,7.36,7.36,0,0,0-.81-3.72,5.14,5.14,0,0,0-2.16-2.08,9,9,0,0,0-3.09-.89,33,33,0,0,0-3.67-.2h-1.27Z"/><path class="cls-2" d="M747.3,601.31l-4.61,10.85H738l17.63-40,17.17,40h-4.71l-4.51-10.85Zm8.25-19.25L749,597.36h12.92Z"/><path d="M371.63,669.79l1.66-.89a4.7,4.7,0,0,0,1.62,2.45,4.46,4.46,0,0,0,2.76.87,4.18,4.18,0,0,0,3.18-1.2A4.59,4.59,0,0,0,382,667.7a4.18,4.18,0,0,0-.77-2.58,10.35,10.35,0,0,0-3.31-2.37,14.94,14.94,0,0,1-4.3-3,4.76,4.76,0,0,1-1.07-3.14,4.85,4.85,0,0,1,1.54-3.72,5.69,5.69,0,0,1,4-1.43,5.48,5.48,0,0,1,2.8.68,5.06,5.06,0,0,1,2,2l-1.51.91a3.36,3.36,0,0,0-1.33-1.41,4.09,4.09,0,0,0-2-.48,3.44,3.44,0,0,0-2.52.93,3.4,3.4,0,0,0-.93,2.51q0,2.26,3.72,4.21l1,.54a10.53,10.53,0,0,1,3.66,2.85,6,6,0,0,1,.93,3.48,5.84,5.84,0,0,1-6.27,6.27,6.13,6.13,0,0,1-3.61-1.05A6.72,6.72,0,0,1,371.63,669.79Z"/><path d="M387.61,655.33a1.29,1.29,0,0,1,.41-1,1.34,1.34,0,0,1,1-.4,1.37,1.37,0,0,1,1,.4,1.29,1.29,0,0,1,.41,1,1.3,1.3,0,0,1-.4,1,1.44,1.44,0,0,1-2,0A1.3,1.3,0,0,1,387.61,655.33Zm.45,18.06v-13h1.86v13Z"/><path d="M406.27,660.4v10.74c0,1.71,0,3-.14,3.91a6.35,6.35,0,0,1-.46,2,4.52,4.52,0,0,1-2.07,2.16,7.75,7.75,0,0,1-3.51.71,7,7,0,0,1-4-1,4.3,4.3,0,0,1-1.75-3h2.26a2.61,2.61,0,0,0,1.15,1.82,4.52,4.52,0,0,0,2.52.62,5.34,5.34,0,0,0,2.16-.43,3.23,3.23,0,0,0,1.45-1.17,3.3,3.3,0,0,0,.46-1.12,10.33,10.33,0,0,0,.14-2V671a4.74,4.74,0,0,1-1.84,2.18,5.15,5.15,0,0,1-2.84.8,5.48,5.48,0,0,1-4.37-1.91,8.74,8.74,0,0,1,0-10.22,5.57,5.57,0,0,1,4.42-1.92,5,5,0,0,1,2.79.8,4.44,4.44,0,0,1,1.8,2.11V660.4Zm-6.21,1.17a3.87,3.87,0,0,0-3.19,1.45,6.11,6.11,0,0,0-1.16,4,6.18,6.18,0,0,0,1.1,3.9,3.68,3.68,0,0,0,3.07,1.4,4.12,4.12,0,0,0,3.33-1.48,5.92,5.92,0,0,0,1.26-4,5.78,5.78,0,0,0-1.18-3.86A4,4,0,0,0,400.06,661.57Z"/><path d="M412.88,660.4v6.49a7.72,7.72,0,0,0,.84,4.18,3.94,3.94,0,0,0,5.7,0,7.47,7.47,0,0,0,.87-4.16V660.4h1.78v7.41a6.71,6.71,0,0,1-1.39,4.6A5.19,5.19,0,0,1,416.6,674a5.27,5.27,0,0,1-4.12-1.56,6.66,6.66,0,0,1-1.41-4.6V660.4Z"/><path d="M438,667H427.71A6.31,6.31,0,0,0,429,670.9a3.91,3.91,0,0,0,3.18,1.44,4.19,4.19,0,0,0,2.52-.78,5.65,5.65,0,0,0,1.8-2.34l1.66.91a7.25,7.25,0,0,1-2.44,2.91,6.39,6.39,0,0,1-3.54.93,6,6,0,0,1-4.62-1.92,7.06,7.06,0,0,1-1.76-5,7.45,7.45,0,0,1,1.75-5.16,5.82,5.82,0,0,1,4.57-2,5.54,5.54,0,0,1,4.33,1.81,6.94,6.94,0,0,1,1.62,4.82Zm-2.14-1.54a3.71,3.71,0,0,0-4-3.75,3.88,3.88,0,0,0-2.75,1,4.19,4.19,0,0,0-1.28,2.72Z"/><path d="M451.05,673.39h-1.8v-13h1.8v2a4.65,4.65,0,0,1,1.7-1.88,4.55,4.55,0,0,1,2.43-.64,4.37,4.37,0,0,1,2.42.65,4.13,4.13,0,0,1,1.55,1.91,4.91,4.91,0,0,1,4.52-2.56,4.29,4.29,0,0,1,3.26,1.25,4.81,4.81,0,0,1,1.18,3.44v8.78h-1.8v-8.07a4.51,4.51,0,0,0-.78-2.87,2.85,2.85,0,0,0-2.34-1,3.13,3.13,0,0,0-2.73,1.21,6.72,6.72,0,0,0-.87,3.85v6.84H457.8v-8.07a4.59,4.59,0,0,0-.75-2.91,2.77,2.77,0,0,0-2.31-.92,3.23,3.23,0,0,0-2.8,1.23,6.62,6.62,0,0,0-.89,3.83Z"/><path d="M482.51,673.39V671a4.88,4.88,0,0,1-1.81,2.19A4.94,4.94,0,0,1,478,674a5.74,5.74,0,0,1-4.51-1.92,7.33,7.33,0,0,1-1.7-5.07,7.56,7.56,0,0,1,1.68-5.09,5.88,5.88,0,0,1,7.21-1.25,4.82,4.82,0,0,1,1.87,2.13V660.4h1.8v13ZM473.75,667a5.89,5.89,0,0,0,1.14,3.88,4,4,0,0,0,3.24,1.36,3.87,3.87,0,0,0,3.23-1.49,6.38,6.38,0,0,0,1.18-4.09,5.62,5.62,0,0,0-1.17-3.76,4,4,0,0,0-3.21-1.37,3.93,3.93,0,0,0-3.22,1.46A6.18,6.18,0,0,0,473.75,667Z"/><path d="M489.15,673.39v-13h1.71v2a5.4,5.4,0,0,1,1.94-1.87,5.54,5.54,0,0,1,2.65-.62,4.27,4.27,0,0,1,4.67,4.66v8.81h-1.83v-8a4.35,4.35,0,0,0-.81-2.89,3.16,3.16,0,0,0-2.52-1,3.65,3.65,0,0,0-3,1.23,6.12,6.12,0,0,0-1,3.84v6.78Z"/><path d="M505.16,661.94h-2.39V660.4h2.39v-5.33h1.77v5.33h2.61v1.54h-2.61v11.45h-1.77Z"/><path d="M523.38,667H513.05a6.31,6.31,0,0,0,1.26,3.95,3.93,3.93,0,0,0,3.18,1.44,4.19,4.19,0,0,0,2.52-.78,5.57,5.57,0,0,0,1.8-2.34l1.66.91A7.17,7.17,0,0,1,521,673a6.39,6.39,0,0,1-3.54.93,6,6,0,0,1-4.62-1.92,7.06,7.06,0,0,1-1.76-5,7.45,7.45,0,0,1,1.75-5.16,5.82,5.82,0,0,1,4.57-2,5.54,5.54,0,0,1,4.33,1.81,6.94,6.94,0,0,1,1.62,4.82Zm-2.14-1.54a4,4,0,0,0-1.18-2.77,4.07,4.07,0,0,0-2.86-1,3.88,3.88,0,0,0-2.75,1,4.19,4.19,0,0,0-1.28,2.72Z"/><path d="M527.13,673.39v-13h1.72v2a5.25,5.25,0,0,1,1.94-1.87,5.48,5.48,0,0,1,2.64-.62,4.27,4.27,0,0,1,4.67,4.66v8.81h-1.83v-8a4.35,4.35,0,0,0-.81-2.89,3.14,3.14,0,0,0-2.51-1,3.64,3.64,0,0,0-3,1.23,6.12,6.12,0,0,0-1,3.84v6.78Z"/><path d="M542.42,655.33a1.32,1.32,0,0,1,.41-1,1.37,1.37,0,0,1,1-.4,1.34,1.34,0,0,1,1,.4,1.36,1.36,0,0,1,0,1.95,1.44,1.44,0,0,1-2,0A1.31,1.31,0,0,1,542.42,655.33Zm.46,18.06v-13h1.86v13Z"/><path d="M560.82,667H550.5a6.19,6.19,0,0,0,1.26,3.95,3.9,3.9,0,0,0,3.17,1.44,4.19,4.19,0,0,0,2.52-.78,5.66,5.66,0,0,0,1.81-2.34l1.65.91a7.17,7.17,0,0,1-2.44,2.91,6.39,6.39,0,0,1-3.54.93,6,6,0,0,1-4.62-1.92,7.11,7.11,0,0,1-1.76-5,7.45,7.45,0,0,1,1.75-5.16,5.82,5.82,0,0,1,4.58-2,5.53,5.53,0,0,1,4.32,1.81,6.94,6.94,0,0,1,1.62,4.82Zm-2.14-1.54a4,4,0,0,0-1.18-2.77,4.07,4.07,0,0,0-2.86-1,3.84,3.84,0,0,0-2.74,1,4.15,4.15,0,0,0-1.29,2.72Z"/><path d="M564.57,673.39v-13h1.72v2a5.25,5.25,0,0,1,1.94-1.87,5.5,5.5,0,0,1,2.64-.62,4.27,4.27,0,0,1,4.67,4.66v8.81h-1.83v-8a4.35,4.35,0,0,0-.81-2.89,3.14,3.14,0,0,0-2.51-1,3.64,3.64,0,0,0-3,1.23,6.12,6.12,0,0,0-1,3.84v6.78Z"/><path d="M589.83,673.39V671a4.67,4.67,0,0,1-4.53,3,5.72,5.72,0,0,1-4.5-1.92,7.34,7.34,0,0,1-1.71-5.07,7.56,7.56,0,0,1,1.68-5.09,5.49,5.49,0,0,1,4.36-2,5.37,5.37,0,0,1,2.84.72,4.86,4.86,0,0,1,1.86,2.13V650.69h1.83v22.7ZM581.1,667a5.89,5.89,0,0,0,1.13,3.88,4,4,0,0,0,3.25,1.36,3.83,3.83,0,0,0,3.2-1.49,6.38,6.38,0,0,0,1.18-4.09,5.67,5.67,0,0,0-1.16-3.76,4.35,4.35,0,0,0-6.42.09A6.18,6.18,0,0,0,581.1,667Z"/><path d="M602.34,674a6.79,6.79,0,0,1-2.67-.55,7.43,7.43,0,0,1-2.31-1.58,6.42,6.42,0,0,1-1.5-2.22,7.13,7.13,0,0,1-.51-2.7,7,7,0,0,1,.53-2.7,7,7,0,0,1,6.46-4.3,7.09,7.09,0,0,1,6.58,4.32,6.79,6.79,0,0,1,.54,2.68,6.88,6.88,0,0,1-.53,2.67,6.73,6.73,0,0,1-1.52,2.25,7.33,7.33,0,0,1-2.34,1.58A7.16,7.16,0,0,1,602.34,674Zm.06-1.69a4.83,4.83,0,0,0,3.62-1.54,5.6,5.6,0,0,0,0-7.6,5,5,0,0,0-7.25,0,5.62,5.62,0,0,0,0,7.6A4.8,4.8,0,0,0,602.4,672.28Z"/><path d="M631.79,667H621.47a6.31,6.31,0,0,0,1.26,3.95,3.91,3.91,0,0,0,3.18,1.44,4.18,4.18,0,0,0,2.51-.78,5.66,5.66,0,0,0,1.81-2.34l1.65.91a7.17,7.17,0,0,1-2.44,2.91,6.38,6.38,0,0,1-3.53.93,6,6,0,0,1-4.63-1.92,7.11,7.11,0,0,1-1.76-5,7.45,7.45,0,0,1,1.75-5.16,5.84,5.84,0,0,1,4.58-2,5.53,5.53,0,0,1,4.32,1.81,6.94,6.94,0,0,1,1.62,4.82Zm-2.13-1.54a3.72,3.72,0,0,0-4-3.75,3.84,3.84,0,0,0-2.74,1,4.15,4.15,0,0,0-1.29,2.72Z"/><path d="M637.52,673.39h-1.86v-22.7h1.86Z"/><path d="M655.8,674a6.74,6.74,0,0,1-2.66-.55,7.47,7.47,0,0,1-2.32-1.58,6.53,6.53,0,0,1-1.49-2.22,7.13,7.13,0,0,1-.52-2.7,6.92,6.92,0,0,1,2-4.95,7,7,0,0,1,4.95-2.05,7,7,0,0,1,2.73.53,6.83,6.83,0,0,1,2.31,1.52,6.83,6.83,0,0,1,2.08,4.95,6.87,6.87,0,0,1-2,4.92A7.14,7.14,0,0,1,655.8,674Zm.06-1.69a4.85,4.85,0,0,0,3.63-1.54,5.62,5.62,0,0,0,0-7.6,5,5,0,0,0-7.25,0,5.62,5.62,0,0,0,0,7.6A4.82,4.82,0,0,0,655.86,672.28Z"/><path d="M668.44,663a8.13,8.13,0,0,1,2-2.39,3.66,3.66,0,0,1,2.23-.7,4,4,0,0,1,.77.07,5.16,5.16,0,0,1,.77.21l-.59,1.7a5.26,5.26,0,0,0-.6-.15,3.31,3.31,0,0,0-.61-.06,3.42,3.42,0,0,0-2.78,1.52,6.17,6.17,0,0,0-1.15,3.8v6.38h-1.8v-13h1.8Z"/><path d="M685.71,673.39V671a4.67,4.67,0,0,1-4.52,3,5.74,5.74,0,0,1-4.51-1.92A7.33,7.33,0,0,1,675,667a7.56,7.56,0,0,1,1.68-5.09,5.86,5.86,0,0,1,7.2-1.25,4.84,4.84,0,0,1,1.85,2.13V650.69h1.83v22.7ZM677,667a5.89,5.89,0,0,0,1.14,3.88,4,4,0,0,0,3.24,1.36,3.84,3.84,0,0,0,3.21-1.49,6.44,6.44,0,0,0,1.17-4.09,5.67,5.67,0,0,0-1.15-3.76,4,4,0,0,0-3.2-1.37,4,4,0,0,0-3.22,1.46A6.18,6.18,0,0,0,677,667Z"/><path d="M703.48,667H693.16a6.19,6.19,0,0,0,1.26,3.95,3.9,3.9,0,0,0,3.17,1.44,4.19,4.19,0,0,0,2.52-.78,5.66,5.66,0,0,0,1.81-2.34l1.65.91a7.17,7.17,0,0,1-2.44,2.91,6.39,6.39,0,0,1-3.54.93,6,6,0,0,1-4.62-1.92,7.06,7.06,0,0,1-1.76-5,7.45,7.45,0,0,1,1.75-5.16,5.82,5.82,0,0,1,4.58-2,5.53,5.53,0,0,1,4.32,1.81,6.94,6.94,0,0,1,1.62,4.82Zm-2.14-1.54a4,4,0,0,0-1.18-2.77,4.07,4.07,0,0,0-2.86-1,3.88,3.88,0,0,0-2.75,1,4.19,4.19,0,0,0-1.28,2.72Z"/><path d="M707.23,673.39v-13H709v2a5.25,5.25,0,0,1,1.94-1.87,5.5,5.5,0,0,1,2.64-.62,4.27,4.27,0,0,1,4.67,4.66v8.81h-1.83v-8a4.35,4.35,0,0,0-.81-2.89,3.14,3.14,0,0,0-2.51-1,3.64,3.64,0,0,0-3,1.23,6.12,6.12,0,0,0-1,3.84v6.78Z"/><path d="M728.54,660.4h1.92l3.72,10.17,3.43-10.17h1.92l-6.72,19.53H731l2.27-6.62Z"/><path d="M428.21,704.59V681.88h1.71V693.6a5.29,5.29,0,0,1,1.94-1.86,5.44,5.44,0,0,1,2.65-.63,4.27,4.27,0,0,1,4.67,4.66v8.82h-1.83v-8a4.38,4.38,0,0,0-.81-2.9,3.13,3.13,0,0,0-2.51-.94,3.65,3.65,0,0,0-3,1.22,6.17,6.17,0,0,0-1,3.85v6.78Z"/><path d="M453.43,704.59v-2.37a4.68,4.68,0,0,1-4.55,2.94,5.71,5.71,0,0,1-4.5-1.92,7.34,7.34,0,0,1-1.71-5.07,7.58,7.58,0,0,1,1.68-5.09,5.87,5.87,0,0,1,7.22-1.24,4.69,4.69,0,0,1,1.86,2.13V691.6h1.81v13Zm-8.76-6.36a5.87,5.87,0,0,0,1.14,3.88,4,4,0,0,0,3.24,1.37,3.93,3.93,0,0,0,3.24-1.49,6.46,6.46,0,0,0,1.17-4.09,5.59,5.59,0,0,0-1.17-3.76,4,4,0,0,0-3.21-1.37,3.92,3.92,0,0,0-3.22,1.46A6.15,6.15,0,0,0,444.67,698.23Z"/><path d="M470.18,694a7,7,0,0,0-1.94-.94,7.1,7.1,0,0,0-2.11-.32,5,5,0,0,0-3.85,1.55,5.83,5.83,0,0,0-1.43,4.12,5.07,5.07,0,0,0,1.48,3.76,5.15,5.15,0,0,0,3.8,1.48,6.72,6.72,0,0,0,2.14-.36,8.53,8.53,0,0,0,2.11-1.1v2a7.84,7.84,0,0,1-2.11.81,10.81,10.81,0,0,1-2.47.27,6.5,6.5,0,0,1-4.88-2,6.86,6.86,0,0,1-1.9-5,6.81,6.81,0,0,1,7.14-7.15,10.34,10.34,0,0,1,2.21.23,7.38,7.38,0,0,1,1.84.65Z"/><path d="M473.42,686.53a1.31,1.31,0,0,1,.41-1,1.4,1.4,0,0,1,2,0,1.38,1.38,0,0,1,0,2,1.44,1.44,0,0,1-2,0A1.3,1.3,0,0,1,473.42,686.53Zm.45,18.06v-13h1.86v13Z"/><path d="M491.81,698.14H481.49a6.37,6.37,0,0,0,1.26,4,3.9,3.9,0,0,0,3.17,1.44,4.19,4.19,0,0,0,2.52-.78,5.73,5.73,0,0,0,1.81-2.34l1.65.9a7.17,7.17,0,0,1-2.44,2.91,6.39,6.39,0,0,1-3.54.93,6,6,0,0,1-4.62-1.91,7.15,7.15,0,0,1-1.76-5,7.41,7.41,0,0,1,1.75-5.15,5.85,5.85,0,0,1,4.58-2,5.56,5.56,0,0,1,4.32,1.81,7,7,0,0,1,1.62,4.83Zm-2.14-1.53a3.71,3.71,0,0,0-4-3.75,3.88,3.88,0,0,0-2.74,1,4.17,4.17,0,0,0-1.29,2.73Z"/><path d="M495.56,704.59v-13h1.72v2a5.14,5.14,0,0,1,1.94-1.86,5.4,5.4,0,0,1,2.64-.63,4.28,4.28,0,0,1,4.68,4.66v8.82H504.7v-8a4.38,4.38,0,0,0-.81-2.9,3.13,3.13,0,0,0-2.51-.94,3.66,3.66,0,0,0-3,1.22,6.17,6.17,0,0,0-1,3.85v6.78Z"/><path d="M520.82,704.59v-2.37a4.87,4.87,0,0,1-1.8,2.19,4.92,4.92,0,0,1-2.73.75,5.72,5.72,0,0,1-4.5-1.92,7.34,7.34,0,0,1-1.71-5.07,7.58,7.58,0,0,1,1.68-5.09,5.49,5.49,0,0,1,4.36-2,5.38,5.38,0,0,1,2.84.73,4.75,4.75,0,0,1,1.86,2.13V681.88h1.83v22.71Zm-8.73-6.36a5.87,5.87,0,0,0,1.13,3.88,4,4,0,0,0,3.25,1.37,3.86,3.86,0,0,0,3.2-1.49,6.4,6.4,0,0,0,1.18-4.09,5.64,5.64,0,0,0-1.16-3.76,4,4,0,0,0-3.19-1.37,3.92,3.92,0,0,0-3.23,1.46A6.15,6.15,0,0,0,512.09,698.23Z"/><path d="M533.33,705.16a6.62,6.62,0,0,1-2.67-.55,7.4,7.4,0,0,1-2.31-1.57,6.55,6.55,0,0,1-1.5-2.23,7.11,7.11,0,0,1-.51-2.69,7,7,0,0,1,.53-2.7,6.85,6.85,0,0,1,1.51-2.26,7,7,0,0,1,5-2,7.15,7.15,0,0,1,5,2,7.08,7.08,0,0,1,1.54,2.27,6.84,6.84,0,0,1,.54,2.69A6.87,6.87,0,0,1,538.4,703a7.3,7.3,0,0,1-2.34,1.57A7,7,0,0,1,533.33,705.16Zm.06-1.68a4.84,4.84,0,0,0,3.62-1.55,5.59,5.59,0,0,0,0-7.59,5,5,0,0,0-7.25,0,5.61,5.61,0,0,0,0,7.59A4.81,4.81,0,0,0,533.39,703.48Z"/><path d="M554.79,704.59h-1.86V681.88h1.86Z"/><path d="M565.61,705.16a6.57,6.57,0,0,1-2.66-.55,7.56,7.56,0,0,1-2.32-1.57,6.67,6.67,0,0,1-1.49-2.23,7.11,7.11,0,0,1-.51-2.69,7,7,0,0,1,7-7,7.18,7.18,0,0,1,2.73.53,6.93,6.93,0,0,1,4.39,6.48,6.77,6.77,0,0,1-.53,2.67,6.94,6.94,0,0,1-1.52,2.25,7.09,7.09,0,0,1-2.34,1.57A6.9,6.9,0,0,1,565.61,705.16Zm.06-1.68a4.86,4.86,0,0,0,3.63-1.55,5.61,5.61,0,0,0,0-7.59,5,5,0,0,0-7.25,0,5.61,5.61,0,0,0,0,7.59A4.84,4.84,0,0,0,565.67,703.48Z"/><path d="M595.2,694a6.9,6.9,0,0,0-1.93-.94,7.2,7.2,0,0,0-2.11-.32,5,5,0,0,0-3.85,1.55,5.79,5.79,0,0,0-1.44,4.12,5.08,5.08,0,0,0,1.49,3.76,5.15,5.15,0,0,0,3.8,1.48,6.71,6.71,0,0,0,2.13-.36,8.59,8.59,0,0,0,2.12-1.1v2a8,8,0,0,1-2.11.81,10.9,10.9,0,0,1-2.48.27,6.5,6.5,0,0,1-4.88-2,6.86,6.86,0,0,1-1.9-5,6.81,6.81,0,0,1,7.15-7.15,10.31,10.31,0,0,1,2.2.23,7.38,7.38,0,0,1,1.84.65Z"/><path d="M604.68,705.16a6.62,6.62,0,0,1-2.67-.55A7.4,7.4,0,0,1,599.7,703a6.52,6.52,0,0,1-1.49-2.23,6.93,6.93,0,0,1-.52-2.69,7,7,0,0,1,.53-2.7,6.85,6.85,0,0,1,1.51-2.26,7,7,0,0,1,4.95-2,7.18,7.18,0,0,1,2.73.53,7.08,7.08,0,0,1,2.31,1.52,6.92,6.92,0,0,1,1.54,2.27,6.84,6.84,0,0,1,.54,2.69,6.87,6.87,0,0,1-2,4.92,7.19,7.19,0,0,1-2.34,1.57A6.9,6.9,0,0,1,604.68,705.16Zm.06-1.68a4.84,4.84,0,0,0,3.62-1.55,5.59,5.59,0,0,0,0-7.59,5,5,0,0,0-7.25,0,5.61,5.61,0,0,0,0,7.59A4.82,4.82,0,0,0,604.74,703.48Z"/><path d="M617.32,694.2a8.07,8.07,0,0,1,2-2.38,3.66,3.66,0,0,1,2.23-.71,4.11,4.11,0,0,1,.77.08,5.46,5.46,0,0,1,.77.2l-.59,1.7a5.84,5.84,0,0,0-.6-.15,4.55,4.55,0,0,0-.61-.05,3.38,3.38,0,0,0-2.78,1.52,6.08,6.08,0,0,0-1.15,3.79v6.39h-1.8v-13h1.8Z"/><path d="M626.77,694.2a7.77,7.77,0,0,1,2-2.38,3.64,3.64,0,0,1,2.23-.71,4.11,4.11,0,0,1,.77.08,5.46,5.46,0,0,1,.77.2l-.59,1.7a5.44,5.44,0,0,0-.61-.15,4.28,4.28,0,0,0-.6-.05,3.38,3.38,0,0,0-2.78,1.52,6.08,6.08,0,0,0-1.15,3.79v6.39H625v-13h1.8Z"/><path d="M645.58,698.14H635.25a6.37,6.37,0,0,0,1.26,4,3.91,3.91,0,0,0,3.18,1.44,4.19,4.19,0,0,0,2.52-.78,5.8,5.8,0,0,0,1.8-2.34l1.66.9a7.25,7.25,0,0,1-2.44,2.91,6.42,6.42,0,0,1-3.54.93,6,6,0,0,1-4.62-1.91,7.11,7.11,0,0,1-1.77-5,7.46,7.46,0,0,1,1.75-5.15,5.86,5.86,0,0,1,4.58-2,5.53,5.53,0,0,1,4.32,1.81,6.94,6.94,0,0,1,1.63,4.83Zm-2.14-1.53a3.72,3.72,0,0,0-4-3.75,3.9,3.9,0,0,0-2.75,1,4.16,4.16,0,0,0-1.28,2.73Z"/><path d="M659.44,694a7,7,0,0,0-1.94-.94,7.1,7.1,0,0,0-2.11-.32,5,5,0,0,0-3.85,1.55,5.79,5.79,0,0,0-1.44,4.12,5.08,5.08,0,0,0,1.49,3.76,5.15,5.15,0,0,0,3.8,1.48,6.62,6.62,0,0,0,2.13-.36,8.42,8.42,0,0,0,2.12-1.1v2a7.84,7.84,0,0,1-2.11.81,10.87,10.87,0,0,1-2.47.27,6.49,6.49,0,0,1-4.88-2,6.86,6.86,0,0,1-1.91-5,6.82,6.82,0,0,1,7.15-7.15,10.41,10.41,0,0,1,2.21.23,7.3,7.3,0,0,1,1.83.65Z"/><path d="M663.39,693.13H661V691.6h2.39v-5.34h1.77v5.34h2.61v1.53h-2.61v11.46h-1.77Z"/><path d="M676.35,705.16a6.6,6.6,0,0,1-2.66-.55,7.56,7.56,0,0,1-2.32-1.57,6.67,6.67,0,0,1-1.49-2.23,7.11,7.11,0,0,1-.51-2.69,7,7,0,0,1,.52-2.7,7.17,7.17,0,0,1,1.51-2.26,7,7,0,0,1,5-2,7.26,7.26,0,0,1,2.74.53,7,7,0,0,1,2.3,1.52,6.89,6.89,0,0,1,0,9.88,7.15,7.15,0,0,1-2.33,1.57A7,7,0,0,1,676.35,705.16Zm.06-1.68a4.85,4.85,0,0,0,3.63-1.55,5.59,5.59,0,0,0,0-7.59,5,5,0,0,0-7.26,0,5.63,5.63,0,0,0,0,7.59A4.84,4.84,0,0,0,676.41,703.48Z"/><path class="cls-4" d="M329.24,387A23.72,23.72,0,1,1,353,363.29,23.74,23.74,0,0,1,329.24,387Z"/><path class="cls-5" d="M340.31,379.1a23.68,23.68,0,0,1-18.7-38.24A23.7,23.7,0,1,0,348,377.81,23.56,23.56,0,0,1,340.31,379.1Z"/><path class="cls-1" d="M324.34,375.55a1.64,1.64,0,0,1-1.16-.48l-9.81-9.81a1.63,1.63,0,0,1,2.31-2.31l8.66,8.65,16.83-16.83a1.63,1.63,0,1,1,2.31,2.31l-18,18A1.61,1.61,0,0,1,324.34,375.55Z"/></g></g></svg>