<svg id="fondos" xmlns="http://www.w3.org/2000/svg" viewBox="0 0 838.12 100.16"><defs><style>.cls-1{fill:#e6e6e6;}</style></defs><title>gaula5</title><rect class="cls-1" width="838.12" height="100.16"/><path d="M59.24,43.59V24.29h3a28.65,28.65,0,0,1,5.71.39A7.34,7.34,0,0,1,70.85,26a8.11,8.11,0,0,1,2.46,3.3A11.88,11.88,0,0,1,74.15,34a12,12,0,0,1-.84,4.62A7.59,7.59,0,0,1,68,43.18a23.4,23.4,0,0,1-5.18.41h-3.6ZM61,42.07h2.47a18.76,18.76,0,0,0,4.24-.33,5.09,5.09,0,0,0,2.13-1.14,7.37,7.37,0,0,0,1.83-2.83,11.14,11.14,0,0,0,.62-3.85,11.16,11.16,0,0,0-.63-3.9,6.77,6.77,0,0,0-1.85-2.77,5.36,5.36,0,0,0-2.26-1.17,21.28,21.28,0,0,0-4.65-.34H61Z"/><path d="M87.86,37.79H78.57a5.69,5.69,0,0,0,1.13,3.56,3.51,3.51,0,0,0,2.86,1.29,3.78,3.78,0,0,0,2.27-.7,5.18,5.18,0,0,0,1.62-2.11l1.49.82a6.43,6.43,0,0,1-2.2,2.61,5.71,5.71,0,0,1-3.18.84,5.39,5.39,0,0,1-4.16-1.72,6.39,6.39,0,0,1-1.59-4.51,6.69,6.69,0,0,1,1.58-4.64,5.25,5.25,0,0,1,4.12-1.77,5,5,0,0,1,3.89,1.63,6.26,6.26,0,0,1,1.46,4.34ZM85.93,36.4a3.59,3.59,0,0,0-1.06-2.49A3.63,3.63,0,0,0,82.3,33a3.54,3.54,0,0,0-2.48.92,3.78,3.78,0,0,0-1.15,2.45Z"/><path d="M91.58,33.28H89.43V31.89h2.15V27.1h1.59v4.79h2.35v1.39H93.17V43.59H91.58Z"/><path d="M108,37.79h-9.3a5.75,5.75,0,0,0,1.14,3.56,3.51,3.51,0,0,0,2.86,1.29,3.78,3.78,0,0,0,2.27-.7,5.18,5.18,0,0,0,1.62-2.11l1.49.82a6.43,6.43,0,0,1-2.2,2.61,5.73,5.73,0,0,1-3.18.84,5.38,5.38,0,0,1-4.16-1.72,6.39,6.39,0,0,1-1.59-4.51,6.69,6.69,0,0,1,1.58-4.64,5.25,5.25,0,0,1,4.12-1.77,4.94,4.94,0,0,1,3.88,1.63A6.22,6.22,0,0,1,108,37.43Zm-1.93-1.39A3.35,3.35,0,0,0,102.41,33a3.53,3.53,0,0,0-2.47.92,3.73,3.73,0,0,0-1.15,2.45Z"/><path d="M113,34.24a7.29,7.29,0,0,1,1.76-2.15,3.52,3.52,0,0,1,2.71-.56,4.39,4.39,0,0,1,.69.18l-.53,1.53a4.72,4.72,0,0,0-.54-.13,2.72,2.72,0,0,0-.55-.06,3,3,0,0,0-2.5,1.38,5.49,5.49,0,0,0-1,3.41v5.75h-1.62V31.89H113Z"/><path d="M121.48,43.59h-1.62V31.89h1.62v1.84A4.13,4.13,0,0,1,123,32a4.07,4.07,0,0,1,2.19-.58,3.84,3.84,0,0,1,2.18.59,3.76,3.76,0,0,1,1.39,1.72A4.68,4.68,0,0,1,130.48,32a4.77,4.77,0,0,1,2.36-.57,3.81,3.81,0,0,1,2.93,1.13,4.32,4.32,0,0,1,1.07,3.09v7.91h-1.62V36.32a4,4,0,0,0-.71-2.58,2.54,2.54,0,0,0-2.1-.87A2.81,2.81,0,0,0,130,34a6.07,6.07,0,0,0-.79,3.47v6.16h-1.6V36.32a4.13,4.13,0,0,0-.68-2.62,2.53,2.53,0,0,0-2.08-.83A2.91,2.91,0,0,0,122.28,34a6,6,0,0,0-.8,3.45Z"/><path d="M140.86,27.33a1.16,1.16,0,0,1,.37-.87,1.18,1.18,0,0,1,.88-.37,1.22,1.22,0,0,1,.89.37,1.17,1.17,0,0,1,.38.87,1.19,1.19,0,0,1-.37.89,1.32,1.32,0,0,1-1.79,0A1.21,1.21,0,0,1,140.86,27.33Zm.41,16.26V31.89h1.67v11.7Z"/><path d="M147.37,43.59V31.89h1.54V33.7A4.75,4.75,0,0,1,150.66,32a5,5,0,0,1,2.38-.56,4.19,4.19,0,0,1,3.1,1.11,4.14,4.14,0,0,1,1.11,3.08v7.94H155.6V36.38a4,4,0,0,0-.73-2.61,2.87,2.87,0,0,0-2.27-.85,3.28,3.28,0,0,0-2.73,1.1,5.52,5.52,0,0,0-.88,3.46v6.11Z"/><path d="M170.07,43.59V41.45a4.45,4.45,0,0,1-1.63,2,4.36,4.36,0,0,1-2.47.68,5.12,5.12,0,0,1-4.05-1.73,6.58,6.58,0,0,1-1.54-4.56,6.8,6.8,0,0,1,1.52-4.58,5.29,5.29,0,0,1,6.49-1.12A4.27,4.27,0,0,1,170.07,34V31.89h1.62v11.7Zm-7.88-5.72a5.32,5.32,0,0,0,1,3.49,3.57,3.57,0,0,0,2.92,1.23A3.53,3.53,0,0,0,169,41.25a5.83,5.83,0,0,0,1.06-3.69A5,5,0,0,0,169,34.18,3.59,3.59,0,0,0,166.16,33a3.54,3.54,0,0,0-2.9,1.31A5.51,5.51,0,0,0,162.19,37.87Z"/><path d="M177.67,34.24a7,7,0,0,1,1.76-2.15,3.5,3.5,0,0,1,2.7-.56,4.39,4.39,0,0,1,.69.18l-.53,1.53a4.72,4.72,0,0,0-.54-.13,2.72,2.72,0,0,0-.55-.06,3,3,0,0,0-2.5,1.38,5.49,5.49,0,0,0-1,3.41v5.75H176V31.89h1.63Z"/><path d="M202.37,37.79h-9.29a5.69,5.69,0,0,0,1.13,3.56,3.53,3.53,0,0,0,2.86,1.29,3.78,3.78,0,0,0,2.27-.7A5.18,5.18,0,0,0,201,39.83l1.49.82a6.49,6.49,0,0,1-2.19,2.61,5.76,5.76,0,0,1-3.19.84,5.39,5.39,0,0,1-4.16-1.72,6.39,6.39,0,0,1-1.59-4.51,6.69,6.69,0,0,1,1.58-4.64A5.25,5.25,0,0,1,197,31.46a5,5,0,0,1,3.89,1.63,6.21,6.21,0,0,1,1.46,4.34Zm-1.92-1.39A3.35,3.35,0,0,0,196.81,33a3.5,3.5,0,0,0-2.47.92,3.74,3.74,0,0,0-1.16,2.45Z"/><path d="M207.53,43.59h-1.68V23.15h1.68Z"/><path d="M218.4,41.5l1.55-.88a3.05,3.05,0,0,0,1.1,1.47,3.11,3.11,0,0,0,1.78.5,2.48,2.48,0,0,0,1.64-.52,1.77,1.77,0,0,0,.6-1.4c0-.89-.79-1.65-2.38-2.28l-.4-.15a7.51,7.51,0,0,1-2.58-1.5,2.67,2.67,0,0,1-.74-1.91A3.16,3.16,0,0,1,220,32.39a3.92,3.92,0,0,1,2.73-1,4.57,4.57,0,0,1,2.43.62,3.55,3.55,0,0,1,1.46,1.77l-1.49.83a2.37,2.37,0,0,0-.92-1.27,2.77,2.77,0,0,0-1.58-.43,2,2,0,0,0-1.39.49,1.58,1.58,0,0,0-.55,1.24,1.5,1.5,0,0,0,.54,1.19,7.18,7.18,0,0,0,2.24,1.05,5.92,5.92,0,0,1,2.59,1.46,3.28,3.28,0,0,1,.67,2.19,3.17,3.17,0,0,1-1.15,2.57,5.32,5.32,0,0,1-5.65.28A3.84,3.84,0,0,1,218.4,41.5Z"/><path d="M229.74,27.33a1.16,1.16,0,0,1,.37-.87,1.24,1.24,0,0,1,1.77,0,1.17,1.17,0,0,1,.38.87,1.21,1.21,0,0,1-.36.89,1.29,1.29,0,0,1-.91.35,1.26,1.26,0,0,1-.89-.35A1.21,1.21,0,0,1,229.74,27.33Zm.41,16.26V31.89h1.67v11.7Z"/><path d="M236.6,33.28h-2.15V31.89h2.15V27.1h1.59v4.79h2.35v1.39h-2.35V43.59H236.6Z"/><path d="M242.65,27.33a1.16,1.16,0,0,1,.37-.87,1.18,1.18,0,0,1,.88-.37,1.22,1.22,0,0,1,.89.37,1.17,1.17,0,0,1,.38.87,1.22,1.22,0,0,1-.37.89,1.32,1.32,0,0,1-1.79,0A1.21,1.21,0,0,1,242.65,27.33Zm.41,16.26V31.89h1.67v11.7Z"/><path d="M254.47,44.1a6,6,0,0,1-2.4-.49A6.7,6.7,0,0,1,250,42.19a5.82,5.82,0,0,1-1.34-2,6.37,6.37,0,0,1-.47-2.43A6.27,6.27,0,0,1,250,33.3a6.2,6.2,0,0,1,4.45-1.84A6.39,6.39,0,0,1,259,33.3a6.31,6.31,0,0,1,1.39,2.05,6.17,6.17,0,0,1,.48,2.41,6.35,6.35,0,0,1-.47,2.41,6.16,6.16,0,0,1-1.38,2,6.38,6.38,0,0,1-4.56,1.91Zm.05-1.51a4.38,4.38,0,0,0,3.27-1.39,5,5,0,0,0,0-6.84,4.52,4.52,0,0,0-6.52,0,5.06,5.06,0,0,0,0,6.84A4.36,4.36,0,0,0,254.52,42.59Z"/><path d="M280.67,43.59V41.45a4.19,4.19,0,0,1-4.08,2.65,5.14,5.14,0,0,1-4-1.73A6.62,6.62,0,0,1,271,37.81a6.8,6.8,0,0,1,1.52-4.58A5.28,5.28,0,0,1,279,32.11,4.37,4.37,0,0,1,280.67,34V23.15h1.65V43.59Zm-7.86-5.72a5.32,5.32,0,0,0,1,3.49,3.59,3.59,0,0,0,2.92,1.23,3.49,3.49,0,0,0,2.89-1.34,5.83,5.83,0,0,0,1.05-3.69,5,5,0,0,0-1-3.38,3.91,3.91,0,0,0-5.77.08A5.57,5.57,0,0,0,272.81,37.87Z"/><path d="M296.66,37.79h-9.29a5.69,5.69,0,0,0,1.13,3.56,3.51,3.51,0,0,0,2.86,1.29,3.78,3.78,0,0,0,2.27-.7,5.18,5.18,0,0,0,1.62-2.11l1.49.82a6.43,6.43,0,0,1-2.2,2.61,5.71,5.71,0,0,1-3.18.84,5.39,5.39,0,0,1-4.16-1.72,6.39,6.39,0,0,1-1.59-4.51,6.69,6.69,0,0,1,1.58-4.64,5.25,5.25,0,0,1,4.12-1.77,5,5,0,0,1,3.89,1.63,6.26,6.26,0,0,1,1.46,4.34Zm-1.93-1.39a3.59,3.59,0,0,0-1.06-2.49A3.63,3.63,0,0,0,291.1,33a3.54,3.54,0,0,0-2.48.92,3.78,3.78,0,0,0-1.15,2.45Z"/><path d="M316.91,34a6.28,6.28,0,0,0-3.64-1.13,4.5,4.5,0,0,0-3.47,1.39A5.22,5.22,0,0,0,308.51,38a4.6,4.6,0,0,0,1.34,3.39,4.67,4.67,0,0,0,3.42,1.33,6,6,0,0,0,1.92-.33,7.36,7.36,0,0,0,1.9-1v1.78a7.14,7.14,0,0,1-1.89.73,10,10,0,0,1-2.23.24,5.82,5.82,0,0,1-4.39-1.76,6.15,6.15,0,0,1-1.72-4.5,6.12,6.12,0,0,1,6.44-6.43,9.63,9.63,0,0,1,2,.2,6.63,6.63,0,0,1,1.66.59Z"/><path d="M328.76,43.59V41.45a4.45,4.45,0,0,1-1.63,2,4.38,4.38,0,0,1-2.47.68,5.12,5.12,0,0,1-4.05-1.73,6.58,6.58,0,0,1-1.54-4.56,6.8,6.8,0,0,1,1.52-4.58,5.29,5.29,0,0,1,6.49-1.12A4.27,4.27,0,0,1,328.76,34V31.89h1.62v11.7Zm-7.88-5.72a5.32,5.32,0,0,0,1,3.49,3.57,3.57,0,0,0,2.92,1.23,3.53,3.53,0,0,0,2.91-1.34,5.83,5.83,0,0,0,1.06-3.69,5,5,0,0,0-1.06-3.38A3.59,3.59,0,0,0,324.85,33a3.54,3.54,0,0,0-2.9,1.31A5.51,5.51,0,0,0,320.88,37.87Z"/><path d="M336.35,31.89v5.84a6.93,6.93,0,0,0,.76,3.76,3.54,3.54,0,0,0,5.14,0,6.76,6.76,0,0,0,.78-3.75V31.89h1.6v6.67a6,6,0,0,1-1.25,4.14,4.68,4.68,0,0,1-3.68,1.4,4.74,4.74,0,0,1-3.7-1.4,6,6,0,0,1-1.27-4.14V31.89Z"/><path d="M349.3,33.28h-2.15V31.89h2.15V27.1h1.6v4.79h2.34v1.39H350.9V43.59h-1.6Z"/><path d="M355.35,27.33a1.25,1.25,0,0,1,2.14-.87,1.13,1.13,0,0,1,.38.87,1.21,1.21,0,0,1-.36.89,1.26,1.26,0,0,1-.91.35,1.22,1.22,0,0,1-.88-.35A1.19,1.19,0,0,1,355.35,27.33Zm.41,16.26V31.89h1.67v11.7Z"/><path d="M360.11,31.89h1.78l3.59,8.86,3.57-8.86h1.81l-5.38,12.45Z"/><path d="M383.43,37.79h-9.29a5.69,5.69,0,0,0,1.13,3.56,3.53,3.53,0,0,0,2.86,1.29,3.78,3.78,0,0,0,2.27-.7A5.18,5.18,0,0,0,382,39.83l1.49.82a6.49,6.49,0,0,1-2.19,2.61,5.76,5.76,0,0,1-3.19.84A5.39,5.39,0,0,1,374,42.38a6.38,6.38,0,0,1-1.58-4.51A6.69,6.69,0,0,1,374,33.23a5.25,5.25,0,0,1,4.12-1.77A5,5,0,0,1,382,33.09a6.21,6.21,0,0,1,1.46,4.34Zm-1.92-1.39A3.35,3.35,0,0,0,377.87,33a3.52,3.52,0,0,0-2.47.92,3.74,3.74,0,0,0-1.16,2.45Z"/><path d="M388.43,34.24a7.14,7.14,0,0,1,1.76-2.15,3.32,3.32,0,0,1,2-.63,3.23,3.23,0,0,1,.69.07,3.88,3.88,0,0,1,.69.18l-.52,1.53a4.9,4.9,0,0,0-.55-.13,2.64,2.64,0,0,0-.55-.06,3.06,3.06,0,0,0-2.5,1.38,5.49,5.49,0,0,0-1,3.41v5.75h-1.62V31.89h1.62Z"/><path d="M395,27.33a1.16,1.16,0,0,1,.37-.87,1.18,1.18,0,0,1,.88-.37,1.22,1.22,0,0,1,.89.37,1.17,1.17,0,0,1,.38.87,1.19,1.19,0,0,1-.37.89,1.32,1.32,0,0,1-1.79,0A1.21,1.21,0,0,1,395,27.33Zm.41,16.26V31.89h1.67v11.7Z"/><path d="M406.83,44.1a6,6,0,0,1-2.4-.49,6.82,6.82,0,0,1-2.08-1.42,5.82,5.82,0,0,1-1.34-2,6.37,6.37,0,0,1-.46-2.43,6.2,6.2,0,0,1,1.83-4.46,6.48,6.48,0,0,1,2-1.37,6.39,6.39,0,0,1,2.41-.47,6.39,6.39,0,0,1,4.54,1.84,6.22,6.22,0,0,1,1.87,4.46,6.11,6.11,0,0,1-1.84,4.43,6.49,6.49,0,0,1-2.11,1.42A6.25,6.25,0,0,1,406.83,44.1Zm.06-1.51a4.38,4.38,0,0,0,3.26-1.39,5,5,0,0,0,0-6.84,4.53,4.53,0,0,0-6.53,0,5.06,5.06,0,0,0,0,6.84A4.36,4.36,0,0,0,406.89,42.59Z"/><path d="M424.71,33.28h-2.15V31.89h2.15V27.1h1.6v4.79h2.34v1.39h-2.34V43.59h-1.6Z"/><path d="M432.69,34.24a7,7,0,0,1,1.76-2.15,3.5,3.5,0,0,1,2.7-.56,4.39,4.39,0,0,1,.69.18l-.53,1.53a4.27,4.27,0,0,0-.54-.13,2.72,2.72,0,0,0-.55-.06,3,3,0,0,0-2.5,1.38,5.49,5.49,0,0,0-1,3.41v5.75h-1.63V31.89h1.63Z"/><path d="M448.2,43.59V41.45a4.26,4.26,0,0,1-4.1,2.65,5.12,5.12,0,0,1-4.05-1.73,6.58,6.58,0,0,1-1.54-4.56A6.8,6.8,0,0,1,440,33.23a5.29,5.29,0,0,1,6.49-1.12A4.27,4.27,0,0,1,448.2,34V31.89h1.62v11.7Zm-7.88-5.72a5.32,5.32,0,0,0,1,3.49,3.59,3.59,0,0,0,2.92,1.23,3.53,3.53,0,0,0,2.91-1.34,5.77,5.77,0,0,0,1.06-3.69,5,5,0,0,0-1.05-3.38A3.62,3.62,0,0,0,444.29,33a3.55,3.55,0,0,0-2.9,1.31A5.57,5.57,0,0,0,440.32,37.87Z"/><path d="M452.84,41.5l1.55-.88a3.05,3.05,0,0,0,1.1,1.47,3.11,3.11,0,0,0,1.78.5,2.48,2.48,0,0,0,1.64-.52,1.78,1.78,0,0,0,.61-1.4c0-.89-.8-1.65-2.39-2.28l-.4-.15a7.51,7.51,0,0,1-2.58-1.5,2.67,2.67,0,0,1-.74-1.91,3.13,3.13,0,0,1,1.06-2.44,3.88,3.88,0,0,1,2.72-1,4.57,4.57,0,0,1,2.43.62,3.55,3.55,0,0,1,1.46,1.77l-1.49.83a2.37,2.37,0,0,0-.92-1.27,2.77,2.77,0,0,0-1.58-.43,2,2,0,0,0-1.39.49,1.58,1.58,0,0,0-.55,1.24,1.5,1.5,0,0,0,.54,1.19,7.18,7.18,0,0,0,2.24,1.05,5.86,5.86,0,0,1,2.59,1.46,3.28,3.28,0,0,1,.67,2.19A3.17,3.17,0,0,1,460,43.14a5.32,5.32,0,0,1-5.65.28A3.84,3.84,0,0,1,452.84,41.5Z"/><path d="M474,43.59h-1.67V23.15H474Z"/><path d="M487.11,43.59V41.45a4.45,4.45,0,0,1-1.63,2,4.38,4.38,0,0,1-2.47.68A5.16,5.16,0,0,1,479,42.37a6.62,6.62,0,0,1-1.53-4.56,6.8,6.8,0,0,1,1.51-4.58,4.92,4.92,0,0,1,3.92-1.77,5,5,0,0,1,2.58.65A4.39,4.39,0,0,1,487.11,34V31.89h1.62v11.7Zm-7.89-5.72a5.27,5.27,0,0,0,1,3.49,3.57,3.57,0,0,0,2.92,1.23,3.51,3.51,0,0,0,2.9-1.34,5.77,5.77,0,0,0,1.06-3.69,5,5,0,0,0-1.05-3.38A3.61,3.61,0,0,0,483.19,33a3.55,3.55,0,0,0-2.9,1.31A5.57,5.57,0,0,0,479.22,37.87Z"/><path d="M500.56,27.33a1.19,1.19,0,0,1,.36-.87,1.2,1.2,0,0,1,.89-.37,1.22,1.22,0,0,1,.89.37,1.16,1.16,0,0,1,.37.87,1.21,1.21,0,0,1-.36.89,1.32,1.32,0,0,1-1.79,0A1.21,1.21,0,0,1,500.56,27.33Zm.4,16.26V31.89h1.68v11.7Z"/><path d="M507.07,43.59V31.89h1.54V33.7A4.75,4.75,0,0,1,510.36,32a5,5,0,0,1,2.38-.56,3.84,3.84,0,0,1,4.2,4.19v7.94h-1.65V36.38a3.93,3.93,0,0,0-.73-2.61,2.85,2.85,0,0,0-2.26-.85,3.28,3.28,0,0,0-2.73,1.1,5.52,5.52,0,0,0-.88,3.46v6.11Z"/><path d="M521.52,43.59V33.28h-2.19V31.89h2.19V28.52c0-2.35.22-3.87.66-4.57a2.61,2.61,0,0,1,2.41-1.05,4.41,4.41,0,0,1,.83.08,3.5,3.5,0,0,1,.74.2l-.31,1.42a3.28,3.28,0,0,0-.61-.23,1.88,1.88,0,0,0-.55-.08,1.25,1.25,0,0,0-1.21.68,5.89,5.89,0,0,0-.36,2.49v4.43h2.58v1.39h-2.58V43.59Z"/><path d="M533.43,44.1a5.94,5.94,0,0,1-2.39-.49A6.74,6.74,0,0,1,529,42.19a5.82,5.82,0,0,1-1.34-2,6.37,6.37,0,0,1-.46-2.43A6.2,6.2,0,0,1,529,33.3a6.48,6.48,0,0,1,2-1.37,6.39,6.39,0,0,1,2.41-.47A6.39,6.39,0,0,1,538,33.3a6.22,6.22,0,0,1,1.87,4.46A6.11,6.11,0,0,1,538,42.19a6.49,6.49,0,0,1-2.11,1.42A6.25,6.25,0,0,1,533.43,44.1Zm.06-1.51a4.38,4.38,0,0,0,3.26-1.39,5,5,0,0,0,0-6.84,4.53,4.53,0,0,0-6.53,0,5.06,5.06,0,0,0,0,6.84A4.36,4.36,0,0,0,533.49,42.59Z"/><path d="M544.81,34.24a7.29,7.29,0,0,1,1.76-2.15,3.34,3.34,0,0,1,2-.63,3.23,3.23,0,0,1,.69.07,4.23,4.23,0,0,1,.7.18l-.53,1.53a4.9,4.9,0,0,0-.55-.13,2.62,2.62,0,0,0-.54-.06,3,3,0,0,0-2.5,1.38,5.49,5.49,0,0,0-1,3.41v5.75h-1.62V31.89h1.62Z"/><path d="M553.32,43.59h-1.63V31.89h1.63v1.84A4.13,4.13,0,0,1,554.85,32a4.06,4.06,0,0,1,2.18-.58,3.88,3.88,0,0,1,2.19.59,3.76,3.76,0,0,1,1.39,1.72A4.61,4.61,0,0,1,562.32,32a4.74,4.74,0,0,1,2.36-.57,3.81,3.81,0,0,1,2.93,1.13,4.32,4.32,0,0,1,1.07,3.09v7.91h-1.63V36.32a4,4,0,0,0-.7-2.58,2.54,2.54,0,0,0-2.1-.87A2.81,2.81,0,0,0,561.79,34a6,6,0,0,0-.79,3.47v6.16h-1.61V36.32a4.13,4.13,0,0,0-.67-2.62,2.53,2.53,0,0,0-2.08-.83A2.91,2.91,0,0,0,554.12,34a5.87,5.87,0,0,0-.8,3.45Z"/><path d="M581.63,43.59V41.45a4.36,4.36,0,0,1-1.62,2,4.41,4.41,0,0,1-2.48.68,5.14,5.14,0,0,1-4-1.73,6.62,6.62,0,0,1-1.54-4.56,6.8,6.8,0,0,1,1.52-4.58A5.29,5.29,0,0,1,580,32.11,4.27,4.27,0,0,1,581.63,34V31.89h1.63v11.7Zm-7.88-5.72a5.32,5.32,0,0,0,1,3.49,3.59,3.59,0,0,0,2.92,1.23,3.53,3.53,0,0,0,2.91-1.34,5.77,5.77,0,0,0,1.06-3.69,5,5,0,0,0-1-3.38A3.62,3.62,0,0,0,577.72,33a3.55,3.55,0,0,0-2.9,1.31A5.57,5.57,0,0,0,573.75,37.87Z"/><path d="M596.7,34a6.11,6.11,0,0,0-1.74-.85,6.33,6.33,0,0,0-1.9-.28,4.48,4.48,0,0,0-3.46,1.39A5.22,5.22,0,0,0,588.31,38a4.59,4.59,0,0,0,1.33,3.39,4.7,4.7,0,0,0,3.42,1.33,5.87,5.87,0,0,0,1.92-.33,7.58,7.58,0,0,0,1.91-1v1.78a7.21,7.21,0,0,1-1.9.73,9.9,9.9,0,0,1-2.23.24,5.84,5.84,0,0,1-4.39-1.76,6.18,6.18,0,0,1-1.71-4.5,6.11,6.11,0,0,1,6.43-6.43,9.73,9.73,0,0,1,2,.2,6.55,6.55,0,0,1,1.65.59Z"/><path d="M599.62,27.33a1.16,1.16,0,0,1,.37-.87,1.18,1.18,0,0,1,.88-.37,1.22,1.22,0,0,1,.89.37,1.17,1.17,0,0,1,.38.87,1.22,1.22,0,0,1-.37.89,1.32,1.32,0,0,1-1.79,0A1.21,1.21,0,0,1,599.62,27.33ZM600,43.59V31.89h1.67v11.7Z"/><path d="M611.44,44.1a6,6,0,0,1-2.4-.49A6.7,6.7,0,0,1,607,42.19a5.82,5.82,0,0,1-1.34-2,6.37,6.37,0,0,1-.47-2.43A6.27,6.27,0,0,1,607,33.3a6.2,6.2,0,0,1,4.45-1.84A6.39,6.39,0,0,1,616,33.3a6.22,6.22,0,0,1,1.87,4.46A6.11,6.11,0,0,1,616,42.19a6.49,6.49,0,0,1-2.11,1.42A6.25,6.25,0,0,1,611.44,44.1Zm.06-1.51a4.38,4.38,0,0,0,3.26-1.39,5,5,0,0,0,0-6.84,4.53,4.53,0,0,0-6.53,0,5.06,5.06,0,0,0,0,6.84A4.36,4.36,0,0,0,611.5,42.59ZM609.74,30l2.81-4.62h2.16L611,30Z"/><path d="M621.2,43.59V31.89h1.54V33.7A4.75,4.75,0,0,1,624.49,32a5,5,0,0,1,2.38-.56,3.84,3.84,0,0,1,4.2,4.19v7.94h-1.64V36.38a3.93,3.93,0,0,0-.74-2.61,2.83,2.83,0,0,0-2.26-.85A3.28,3.28,0,0,0,623.7,34a5.52,5.52,0,0,0-.88,3.46v6.11Z"/><path d="M648.36,44.1a6,6,0,0,1-2.4-.49,6.74,6.74,0,0,1-2.09-1.42,6,6,0,0,1-1.34-2,6.37,6.37,0,0,1-.46-2.43,6.45,6.45,0,0,1,.47-2.43,6.3,6.3,0,0,1,1.36-2,6.48,6.48,0,0,1,2-1.37,6.4,6.4,0,0,1,2.42-.47,6.51,6.51,0,0,1,2.45.47,6.43,6.43,0,0,1,2.08,1.37,6.21,6.21,0,0,1,0,8.89,6.49,6.49,0,0,1-2.11,1.42A6.23,6.23,0,0,1,648.36,44.1Zm0-1.51a4.38,4.38,0,0,0,3.26-1.39,5,5,0,0,0,0-6.84,4.53,4.53,0,0,0-6.53,0,5.06,5.06,0,0,0,0,6.84A4.38,4.38,0,0,0,648.41,42.59Z"/><path d="M659.73,43.59h-1.62V23.15h1.62V34a4.44,4.44,0,0,1,1.67-1.92,5.28,5.28,0,0,1,6.48,1.12,6.8,6.8,0,0,1,1.52,4.58,6.58,6.58,0,0,1-1.54,4.56,5.12,5.12,0,0,1-4.05,1.73,4.22,4.22,0,0,1-4.08-2.65Zm7.86-5.72a5.51,5.51,0,0,0-1.07-3.61,3.91,3.91,0,0,0-5.77-.08,5.1,5.1,0,0,0-1,3.38,5.77,5.77,0,0,0,1.06,3.69,3.53,3.53,0,0,0,2.91,1.34,3.58,3.58,0,0,0,2.9-1.22A5.39,5.39,0,0,0,667.59,37.87Z"/><path d="M673.06,33.28h-2.15V31.89h2.15V27.1h1.6v4.79H677v1.39h-2.35V43.59h-1.6Z"/><path d="M689.46,37.79h-9.29a5.69,5.69,0,0,0,1.13,3.56,3.54,3.54,0,0,0,2.86,1.29,3.78,3.78,0,0,0,2.27-.7,5.18,5.18,0,0,0,1.62-2.11l1.49.82a6.49,6.49,0,0,1-2.19,2.61,5.76,5.76,0,0,1-3.19.84A5.39,5.39,0,0,1,680,42.38a6.38,6.38,0,0,1-1.58-4.51A6.69,6.69,0,0,1,680,33.23a5.25,5.25,0,0,1,4.12-1.77A5,5,0,0,1,688,33.09a6.21,6.21,0,0,1,1.46,4.34Zm-1.92-1.39A3.35,3.35,0,0,0,683.9,33a3.52,3.52,0,0,0-2.47.92,3.74,3.74,0,0,0-1.16,2.45Z"/><path d="M692.84,43.59V31.89h1.54V33.7A4.75,4.75,0,0,1,696.13,32a5,5,0,0,1,2.38-.56,3.84,3.84,0,0,1,4.2,4.19v7.94h-1.65V36.38a3.93,3.93,0,0,0-.73-2.61,2.83,2.83,0,0,0-2.26-.85,3.28,3.28,0,0,0-2.73,1.1,5.52,5.52,0,0,0-.88,3.46v6.11Z"/><path d="M706.6,27.33a1.25,1.25,0,0,1,2.14-.87,1.13,1.13,0,0,1,.38.87,1.21,1.21,0,0,1-.36.89,1.26,1.26,0,0,1-.91.35,1.22,1.22,0,0,1-.88-.35A1.19,1.19,0,0,1,706.6,27.33ZM707,43.59V31.89h1.67v11.7Z"/><path d="M721.78,43.59V41.45a4.22,4.22,0,0,1-4.08,2.65,5.12,5.12,0,0,1-4.05-1.73,6.58,6.58,0,0,1-1.54-4.56,6.8,6.8,0,0,1,1.52-4.58,5.28,5.28,0,0,1,6.48-1.12A4.44,4.44,0,0,1,721.78,34V23.15h1.64V43.59Zm-7.86-5.72a5.32,5.32,0,0,0,1,3.49,3.59,3.59,0,0,0,2.92,1.23,3.5,3.5,0,0,0,2.89-1.34,5.83,5.83,0,0,0,1-3.69,5,5,0,0,0-1-3.38,3.91,3.91,0,0,0-5.77.08A5.51,5.51,0,0,0,713.92,37.87Z"/><path d="M736.36,43.59V41.45a4.45,4.45,0,0,1-1.63,2,4.38,4.38,0,0,1-2.47.68,5.16,5.16,0,0,1-4.06-1.73,6.62,6.62,0,0,1-1.53-4.56,6.8,6.8,0,0,1,1.51-4.58,4.92,4.92,0,0,1,3.92-1.77,5,5,0,0,1,2.58.65A4.39,4.39,0,0,1,736.36,34V31.89H738v11.7Zm-7.89-5.72a5.27,5.27,0,0,0,1,3.49,3.57,3.57,0,0,0,2.92,1.23,3.51,3.51,0,0,0,2.9-1.34,5.77,5.77,0,0,0,1.06-3.69,5,5,0,0,0-1-3.38A3.61,3.61,0,0,0,732.44,33a3.55,3.55,0,0,0-2.9,1.31A5.57,5.57,0,0,0,728.47,37.87Z"/><path d="M748.51,31.89h1.73L753.59,41l3.08-9.15h1.73l-6,17.58h-1.68l2.05-6Z"/><path d="M69.05,63.39h-9.3A5.75,5.75,0,0,0,60.89,67a3.51,3.51,0,0,0,2.86,1.29,3.8,3.8,0,0,0,2.27-.7,5.18,5.18,0,0,0,1.62-2.11l1.49.82a6.43,6.43,0,0,1-2.2,2.61,5.73,5.73,0,0,1-3.18.84A5.38,5.38,0,0,1,59.59,68,6.39,6.39,0,0,1,58,63.47a6.69,6.69,0,0,1,1.57-4.64,5.28,5.28,0,0,1,4.12-1.77,5,5,0,0,1,3.89,1.63A6.22,6.22,0,0,1,69.05,63ZM67.12,62a3.35,3.35,0,0,0-3.64-3.37,3.53,3.53,0,0,0-2.47.92A3.73,3.73,0,0,0,59.86,62Z"/><path d="M72.42,69.19V57.49H74V59.3a4.65,4.65,0,0,1,1.74-1.68,5,5,0,0,1,2.38-.56,3.85,3.85,0,0,1,4.21,4.19v7.94H80.65V62a4,4,0,0,0-.73-2.61,2.85,2.85,0,0,0-2.26-.85,3.31,3.31,0,0,0-2.74,1.1A5.58,5.58,0,0,0,74,63.08v6.11Z"/><path d="M84.74,57.49h1.78l3.58,8.86,3.58-8.86h1.8L90.1,69.94Z"/><path d="M97.71,52.93a1.16,1.16,0,0,1,.37-.87,1.18,1.18,0,0,1,.88-.37,1.22,1.22,0,0,1,.89.37,1.17,1.17,0,0,1,.38.87,1.19,1.19,0,0,1-.37.89,1.32,1.32,0,0,1-1.79,0A1.21,1.21,0,0,1,97.71,52.93Zm.41,16.26V57.49h1.67v11.7Z"/><path d="M112.86,69.19V67.05a4.45,4.45,0,0,1-1.63,2,4.38,4.38,0,0,1-2.47.68A5.18,5.18,0,0,1,104.7,68a6.66,6.66,0,0,1-1.53-4.57,6.8,6.8,0,0,1,1.51-4.58,4.92,4.92,0,0,1,3.92-1.77,5,5,0,0,1,2.58.65,4.39,4.39,0,0,1,1.68,1.92V57.49h1.62v11.7ZM105,63.47A5.27,5.27,0,0,0,106,67a3.57,3.57,0,0,0,2.92,1.23,3.51,3.51,0,0,0,2.9-1.34,5.77,5.77,0,0,0,1.06-3.69,5,5,0,0,0-1-3.38,3.61,3.61,0,0,0-2.89-1.23,3.55,3.55,0,0,0-2.9,1.31A5.59,5.59,0,0,0,105,63.47Z"/><path d="M120.45,59.84a7.29,7.29,0,0,1,1.76-2.15,3.34,3.34,0,0,1,2-.63,3.23,3.23,0,0,1,.69.07,4.23,4.23,0,0,1,.7.18l-.53,1.53a4.9,4.9,0,0,0-.55-.13,2.62,2.62,0,0,0-.55-.05A3,3,0,0,0,121.49,60a5.49,5.49,0,0,0-1,3.41v5.75h-1.62V57.49h1.62Z"/><path d="M136.73,57.49v5.84a6.93,6.93,0,0,0,.76,3.76,3.54,3.54,0,0,0,5.14,0,6.86,6.86,0,0,0,.77-3.75V57.49H145v6.67a6,6,0,0,1-1.25,4.14,4.68,4.68,0,0,1-3.68,1.4,4.74,4.74,0,0,1-3.7-1.4,6,6,0,0,1-1.27-4.14V57.49Z"/><path d="M149.34,69.19V57.49h1.54V59.3a4.67,4.67,0,0,1,1.75-1.68,5,5,0,0,1,2.38-.56,3.85,3.85,0,0,1,4.2,4.19v7.94h-1.65V62a3.93,3.93,0,0,0-.73-2.61,2.85,2.85,0,0,0-2.26-.85,3.28,3.28,0,0,0-2.73,1.1,5.52,5.52,0,0,0-.88,3.46v6.11Z"/><path d="M181.47,57.49v9.67c0,1.54-.05,2.71-.13,3.52a5.28,5.28,0,0,1-.42,1.8,4,4,0,0,1-1.85,2,6.91,6.91,0,0,1-3.17.64,6.25,6.25,0,0,1-3.63-.91,3.85,3.85,0,0,1-1.58-2.73h2a2.33,2.33,0,0,0,1,1.63,4.08,4.08,0,0,0,2.27.56,4.88,4.88,0,0,0,1.95-.38,2.79,2.79,0,0,0,1.71-2.07,8.47,8.47,0,0,0,.13-1.77V67a4.25,4.25,0,0,1-1.66,2,4.57,4.57,0,0,1-2.55.71A4.92,4.92,0,0,1,171.68,68a6.83,6.83,0,0,1-1.47-4.6,6.79,6.79,0,0,1,1.5-4.6,5,5,0,0,1,4-1.73,4.57,4.57,0,0,1,2.51.72,4.09,4.09,0,0,1,1.62,1.9V57.49Zm-5.59,1.06a3.47,3.47,0,0,0-2.87,1.3,5.49,5.49,0,0,0-1,3.56,5.5,5.5,0,0,0,1,3.52,3.31,3.31,0,0,0,2.76,1.26,3.73,3.73,0,0,0,3-1.34,5.35,5.35,0,0,0,1.12-3.58,5.25,5.25,0,0,0-1.05-3.47A3.62,3.62,0,0,0,175.88,58.55Z"/><path d="M187.41,59.84a7.29,7.29,0,0,1,1.76-2.15,3.34,3.34,0,0,1,2-.63,3.23,3.23,0,0,1,.69.07,4.23,4.23,0,0,1,.7.18L192,58.84a4.9,4.9,0,0,0-.55-.13,2.62,2.62,0,0,0-.55-.05A3,3,0,0,0,188.45,60a5.49,5.49,0,0,0-1,3.41v5.75h-1.62V57.49h1.62Z"/><path d="M195.91,57.49v5.84a6.93,6.93,0,0,0,.76,3.76,3.54,3.54,0,0,0,5.14,0,6.76,6.76,0,0,0,.78-3.75V57.49h1.6v6.67a6,6,0,0,1-1.25,4.14,4.68,4.68,0,0,1-3.68,1.4,4.74,4.74,0,0,1-3.7-1.4,6,6,0,0,1-1.27-4.14V57.49Z"/><path d="M208.52,75.07V57.49h1.57v2.19a4.93,4.93,0,0,1,1.75-1.94,4.49,4.49,0,0,1,2.43-.68,5,5,0,0,1,4,1.73,6.75,6.75,0,0,1,1.51,4.6A6.79,6.79,0,0,1,218.27,68a4.9,4.9,0,0,1-3.93,1.72,4.52,4.52,0,0,1-2.49-.68,4.91,4.91,0,0,1-1.76-2v8ZM218,63.41a5.55,5.55,0,0,0-1-3.56,3.43,3.43,0,0,0-2.85-1.3,3.64,3.64,0,0,0-2.94,1.26,5.24,5.24,0,0,0-1.06,3.46,5.34,5.34,0,0,0,1.14,3.58,3.78,3.78,0,0,0,3,1.34A3.27,3.27,0,0,0,217,66.93,5.56,5.56,0,0,0,218,63.41Z"/><path d="M228.44,69.7a6,6,0,0,1-2.4-.49A6.74,6.74,0,0,1,224,67.79a6.12,6.12,0,0,1-1.34-2,6.56,6.56,0,0,1,0-4.85,6.09,6.09,0,0,1,1.36-2,6.16,6.16,0,0,1,4.46-1.85,6.6,6.6,0,0,1,2.46.47A6.37,6.37,0,0,1,233,58.91a6,6,0,0,1,1.39,2A6.19,6.19,0,0,1,233,67.79a6.56,6.56,0,0,1-2.1,1.42A6.32,6.32,0,0,1,228.44,69.7Zm.05-1.51a4.38,4.38,0,0,0,3.26-1.39,5,5,0,0,0,0-6.84,4.53,4.53,0,0,0-6.53,0,5.06,5.06,0,0,0,0,6.84A4.38,4.38,0,0,0,228.49,68.19Z"/><path d="M254.63,69.19V67.05A4.34,4.34,0,0,1,253,69a4.39,4.39,0,0,1-2.45.67A5.15,5.15,0,0,1,246.51,68,6.62,6.62,0,0,1,245,63.41a6.8,6.8,0,0,1,1.51-4.58A5.29,5.29,0,0,1,253,57.71a4.35,4.35,0,0,1,1.66,1.92V48.75h1.65V69.19Zm-7.85-5.72a5.32,5.32,0,0,0,1,3.49,3.57,3.57,0,0,0,2.92,1.23,3.47,3.47,0,0,0,2.88-1.34,5.77,5.77,0,0,0,1.06-3.69,5.1,5.1,0,0,0-1-3.38,3.92,3.92,0,0,0-5.78.08A5.58,5.58,0,0,0,246.78,63.47Z"/><path d="M270.62,63.39h-9.29A5.69,5.69,0,0,0,262.46,67a3.54,3.54,0,0,0,2.86,1.29,3.75,3.75,0,0,0,2.27-.7,5.18,5.18,0,0,0,1.62-2.11l1.49.82a6.41,6.41,0,0,1-2.19,2.61,5.76,5.76,0,0,1-3.19.84A5.36,5.36,0,0,1,261.17,68a6.39,6.39,0,0,1-1.59-4.51,6.69,6.69,0,0,1,1.57-4.64,5.26,5.26,0,0,1,4.12-1.77,5,5,0,0,1,3.89,1.63A6.21,6.21,0,0,1,270.62,63ZM268.7,62a3.35,3.35,0,0,0-3.64-3.37,3.52,3.52,0,0,0-2.47.92A3.73,3.73,0,0,0,261.44,62Z"/><path d="M287.09,69.7a6,6,0,0,1-2.4-.49,6.7,6.7,0,0,1-2.08-1.42,6,6,0,0,1-1.35-2,6.56,6.56,0,0,1-.46-2.43,6.18,6.18,0,0,1,.48-2.42,6,6,0,0,1,1.36-2,6.14,6.14,0,0,1,2-1.38,6.35,6.35,0,0,1,2.41-.47,6.6,6.6,0,0,1,2.46.47,6.41,6.41,0,0,1,2.08,1.38A6.25,6.25,0,0,1,293,65.77a6,6,0,0,1-1.37,2,6.38,6.38,0,0,1-4.56,1.91Zm.05-1.51a4.4,4.4,0,0,0,3.27-1.39,5.06,5.06,0,0,0,0-6.84,4.52,4.52,0,0,0-6.52,0,5.06,5.06,0,0,0,0,6.84A4.34,4.34,0,0,0,287.14,68.19Z"/><path d="M296.85,75.07V57.49h1.57v2.19a4.93,4.93,0,0,1,1.75-1.94,4.49,4.49,0,0,1,2.43-.68,5,5,0,0,1,4,1.73,6.75,6.75,0,0,1,1.51,4.6A6.79,6.79,0,0,1,306.6,68a4.9,4.9,0,0,1-3.93,1.72,4.52,4.52,0,0,1-2.49-.68,4.91,4.91,0,0,1-1.76-2v8Zm9.48-11.66a5.55,5.55,0,0,0-1-3.56,3.43,3.43,0,0,0-2.85-1.3,3.64,3.64,0,0,0-2.94,1.26,5.24,5.24,0,0,0-1.06,3.46,5.34,5.34,0,0,0,1.14,3.58,3.78,3.78,0,0,0,3,1.34,3.27,3.27,0,0,0,2.74-1.26A5.56,5.56,0,0,0,306.33,63.41Z"/><path d="M321.5,63.39h-9.29A5.69,5.69,0,0,0,313.34,67a3.53,3.53,0,0,0,2.86,1.29,3.78,3.78,0,0,0,2.27-.7,5.18,5.18,0,0,0,1.62-2.11l1.49.82a6.43,6.43,0,0,1-2.2,2.61,5.71,5.71,0,0,1-3.18.84A5.39,5.39,0,0,1,312,68a6.39,6.39,0,0,1-1.59-4.51A6.69,6.69,0,0,1,312,58.83a5.25,5.25,0,0,1,4.12-1.77A5,5,0,0,1,320,58.69,6.26,6.26,0,0,1,321.5,63ZM319.58,62a3.35,3.35,0,0,0-3.64-3.37,3.5,3.5,0,0,0-2.47.92A3.74,3.74,0,0,0,312.31,62Z"/><path d="M326.5,59.84a7,7,0,0,1,1.76-2.15,3.3,3.3,0,0,1,2-.63,3.23,3.23,0,0,1,.69.07,4.39,4.39,0,0,1,.69.18l-.53,1.53a4.27,4.27,0,0,0-.54-.13,2.62,2.62,0,0,0-.55-.05,3,3,0,0,0-2.5,1.37,5.49,5.49,0,0,0-1,3.41v5.75h-1.62V57.49h1.62Z"/><path d="M342,69.19V67.05a4.23,4.23,0,0,1-4.1,2.65A5.15,5.15,0,0,1,333.86,68a6.67,6.67,0,0,1-1.54-4.57,6.8,6.8,0,0,1,1.52-4.58,5.29,5.29,0,0,1,6.49-1.12A4.27,4.27,0,0,1,342,59.63V57.49h1.63v11.7Zm-7.88-5.72a5.32,5.32,0,0,0,1,3.49,3.59,3.59,0,0,0,2.92,1.23A3.53,3.53,0,0,0,341,66.85,5.77,5.77,0,0,0,342,63.16,5,5,0,0,0,341,59.78a3.62,3.62,0,0,0-2.89-1.23,3.55,3.55,0,0,0-2.9,1.31A5.59,5.59,0,0,0,334.13,63.47Z"/><path d="M357.08,59.63a6.11,6.11,0,0,0-1.74-.85,6.38,6.38,0,0,0-1.9-.28A4.48,4.48,0,0,0,350,59.89a5.18,5.18,0,0,0-1.3,3.71A4.6,4.6,0,0,0,350,67a4.68,4.68,0,0,0,3.42,1.33,5.87,5.87,0,0,0,1.92-.33,7.58,7.58,0,0,0,1.91-1v1.78a6.88,6.88,0,0,1-1.9.73,10,10,0,0,1-2.23.24A5.84,5.84,0,0,1,348.75,68a6.18,6.18,0,0,1-1.71-4.5,6.12,6.12,0,0,1,6.43-6.43,9.63,9.63,0,0,1,2,.2,6.89,6.89,0,0,1,1.66.59Z"/><path d="M360,52.93a1.16,1.16,0,0,1,.37-.87,1.18,1.18,0,0,1,.88-.37,1.22,1.22,0,0,1,.89.37,1.16,1.16,0,0,1,.37.87,1.21,1.21,0,0,1-.36.89,1.32,1.32,0,0,1-1.79,0A1.21,1.21,0,0,1,360,52.93Zm.4,16.26V57.49h1.68v11.7Z"/><path d="M371.82,69.7a6,6,0,0,1-2.4-.49,6.7,6.7,0,0,1-2.08-1.42,5.82,5.82,0,0,1-1.34-2,6.37,6.37,0,0,1-.47-2.43,6.18,6.18,0,0,1,.48-2.42,6,6,0,0,1,1.36-2,6.14,6.14,0,0,1,2-1.38,6.35,6.35,0,0,1,2.41-.47,6.6,6.6,0,0,1,2.46.47,6.41,6.41,0,0,1,2.08,1.38,6.18,6.18,0,0,1,1.87,4.45,6.35,6.35,0,0,1-.47,2.41,6.16,6.16,0,0,1-1.38,2,6.38,6.38,0,0,1-4.56,1.91Zm.05-1.51a4.38,4.38,0,0,0,3.27-1.39,5,5,0,0,0,0-6.84,4.52,4.52,0,0,0-6.52,0,5.06,5.06,0,0,0,0,6.84A4.36,4.36,0,0,0,371.87,68.19Z"/><path d="M381.58,69.19V57.49h1.54V59.3a4.75,4.75,0,0,1,1.75-1.68,5,5,0,0,1,2.38-.56,3.84,3.84,0,0,1,4.2,4.19v7.94H389.8V62a3.93,3.93,0,0,0-.73-2.61,2.85,2.85,0,0,0-2.26-.85,3.28,3.28,0,0,0-2.73,1.1,5.52,5.52,0,0,0-.88,3.46v6.11Z"/><path d="M405.69,63.39H396.4A5.69,5.69,0,0,0,397.53,67a3.51,3.51,0,0,0,2.86,1.29,3.78,3.78,0,0,0,2.27-.7,5.18,5.18,0,0,0,1.62-2.11l1.49.82a6.43,6.43,0,0,1-2.2,2.61,5.71,5.71,0,0,1-3.18.84A5.39,5.39,0,0,1,396.23,68a6.39,6.39,0,0,1-1.59-4.51,6.69,6.69,0,0,1,1.58-4.64,5.25,5.25,0,0,1,4.12-1.77,5,5,0,0,1,3.89,1.63A6.26,6.26,0,0,1,405.69,63ZM403.77,62a3.35,3.35,0,0,0-3.64-3.37,3.54,3.54,0,0,0-2.48.92A3.78,3.78,0,0,0,396.5,62Z"/><path d="M407.73,67.11l1.55-.89a3.05,3.05,0,0,0,1.1,1.47,3.11,3.11,0,0,0,1.78.5,2.48,2.48,0,0,0,1.64-.52,1.77,1.77,0,0,0,.6-1.4c0-.89-.79-1.65-2.38-2.28l-.4-.15a7.51,7.51,0,0,1-2.58-1.5,2.67,2.67,0,0,1-.74-1.91A3.16,3.16,0,0,1,409.35,58a3.92,3.92,0,0,1,2.73-1,4.57,4.57,0,0,1,2.43.62A3.59,3.59,0,0,1,416,59.42l-1.49.83a2.37,2.37,0,0,0-.92-1.27,2.77,2.77,0,0,0-1.58-.43,2,2,0,0,0-1.39.49,1.58,1.58,0,0,0-.55,1.24,1.54,1.54,0,0,0,.54,1.2,7.47,7.47,0,0,0,2.24,1A6,6,0,0,1,415.41,64a3.28,3.28,0,0,1,.67,2.19,3.17,3.17,0,0,1-1.15,2.57,5.32,5.32,0,0,1-5.65.28A3.86,3.86,0,0,1,407.73,67.11Z"/><path d="M437.2,63.39h-9.3A5.75,5.75,0,0,0,429,67a3.51,3.51,0,0,0,2.86,1.29,3.78,3.78,0,0,0,2.27-.7,5.18,5.18,0,0,0,1.62-2.11l1.49.82a6.43,6.43,0,0,1-2.2,2.61,5.71,5.71,0,0,1-3.18.84A5.38,5.38,0,0,1,427.74,68a6.39,6.39,0,0,1-1.59-4.51,6.69,6.69,0,0,1,1.58-4.64,5.25,5.25,0,0,1,4.12-1.77,4.94,4.94,0,0,1,3.88,1.63A6.22,6.22,0,0,1,437.2,63ZM435.27,62a3.33,3.33,0,0,0-3.63-3.37,3.54,3.54,0,0,0-2.48.92A3.78,3.78,0,0,0,428,62Z"/><path d="M439.24,67.11l1.54-.89a2.89,2.89,0,0,0,2.89,2,2.48,2.48,0,0,0,1.64-.52,1.77,1.77,0,0,0,.6-1.4c0-.89-.79-1.65-2.38-2.28l-.4-.15a7.51,7.51,0,0,1-2.58-1.5,2.67,2.67,0,0,1-.74-1.91A3.16,3.16,0,0,1,440.86,58a3.92,3.92,0,0,1,2.73-1,4.57,4.57,0,0,1,2.43.62,3.64,3.64,0,0,1,1.46,1.77l-1.49.83a2.37,2.37,0,0,0-.92-1.27,2.77,2.77,0,0,0-1.58-.43,2,2,0,0,0-1.39.49,1.58,1.58,0,0,0-.55,1.24,1.54,1.54,0,0,0,.54,1.2,7.47,7.47,0,0,0,2.24,1A6,6,0,0,1,446.92,64a3.28,3.28,0,0,1,.67,2.19,3.2,3.2,0,0,1-1.15,2.57,5.32,5.32,0,0,1-5.65.28A3.81,3.81,0,0,1,439.24,67.11Z"/><path d="M450.88,75.07V57.49h1.57v2.19a5,5,0,0,1,1.76-1.94,4.46,4.46,0,0,1,2.42-.68,5.05,5.05,0,0,1,4,1.73,6.8,6.8,0,0,1,1.51,4.6A6.84,6.84,0,0,1,460.64,68a4.91,4.91,0,0,1-3.93,1.72,4.52,4.52,0,0,1-2.49-.68,5,5,0,0,1-1.77-2v8Zm9.48-11.66a5.55,5.55,0,0,0-1-3.56,3.44,3.44,0,0,0-2.86-1.3,3.64,3.64,0,0,0-2.93,1.26,5.19,5.19,0,0,0-1.06,3.46,5.34,5.34,0,0,0,1.14,3.58,3.76,3.76,0,0,0,3,1.34,3.28,3.28,0,0,0,2.75-1.26A5.62,5.62,0,0,0,460.36,63.41Z"/><path d="M475.54,63.39h-9.3A5.69,5.69,0,0,0,467.38,67a3.51,3.51,0,0,0,2.86,1.29,3.75,3.75,0,0,0,2.26-.7,5.29,5.29,0,0,0,1.63-2.11l1.49.82a6.43,6.43,0,0,1-2.2,2.61,5.73,5.73,0,0,1-3.18.84A5.38,5.38,0,0,1,466.08,68a6.39,6.39,0,0,1-1.59-4.51,6.69,6.69,0,0,1,1.57-4.64,5.26,5.26,0,0,1,4.12-1.77,5,5,0,0,1,3.89,1.63A6.22,6.22,0,0,1,475.54,63ZM473.61,62A3.35,3.35,0,0,0,470,58.63a3.52,3.52,0,0,0-2.47.92A3.73,3.73,0,0,0,466.35,62Z"/><path d="M488,59.63a6.28,6.28,0,0,0-3.64-1.13,4.5,4.5,0,0,0-3.47,1.39,5.22,5.22,0,0,0-1.29,3.71A4.6,4.6,0,0,0,481,67a4.67,4.67,0,0,0,3.42,1.33,6,6,0,0,0,1.92-.33,7.52,7.52,0,0,0,1.9-1v1.78a6.76,6.76,0,0,1-1.9.73,9.81,9.81,0,0,1-2.22.24A5.82,5.82,0,0,1,479.68,68a6.15,6.15,0,0,1-1.72-4.5,6.14,6.14,0,0,1,6.44-6.43,9.63,9.63,0,0,1,2,.2,6.81,6.81,0,0,1,1.65.59Z"/><path d="M490.92,52.93a1.16,1.16,0,0,1,.37-.87,1.24,1.24,0,0,1,1.77,0,1.17,1.17,0,0,1,.38.87,1.21,1.21,0,0,1-.36.89,1.28,1.28,0,0,1-.91.35,1.26,1.26,0,0,1-.89-.35A1.21,1.21,0,0,1,490.92,52.93Zm.41,16.26V57.49H493v11.7Z"/><path d="M506.07,69.19V67.05a4.45,4.45,0,0,1-1.63,2,4.38,4.38,0,0,1-2.47.68A5.15,5.15,0,0,1,497.92,68a6.62,6.62,0,0,1-1.54-4.57,6.8,6.8,0,0,1,1.52-4.58,4.9,4.9,0,0,1,3.91-1.77,5,5,0,0,1,2.58.65,4.33,4.33,0,0,1,1.68,1.92V57.49h1.62v11.7Zm-7.88-5.72a5.32,5.32,0,0,0,1,3.49,3.57,3.57,0,0,0,2.92,1.23A3.53,3.53,0,0,0,505,66.85a5.83,5.83,0,0,0,1.06-3.69A5,5,0,0,0,505,59.78a3.94,3.94,0,0,0-5.79.08A5.58,5.58,0,0,0,498.19,63.47Z"/><path d="M513.82,69.19h-1.67V48.75h1.67Z"/><path d="M528.3,63.39H519A5.75,5.75,0,0,0,520.14,67,3.51,3.51,0,0,0,523,68.24a3.8,3.8,0,0,0,2.27-.7,5.18,5.18,0,0,0,1.62-2.11l1.49.82a6.43,6.43,0,0,1-2.2,2.61,5.73,5.73,0,0,1-3.18.84A5.38,5.38,0,0,1,518.84,68a6.39,6.39,0,0,1-1.59-4.51,6.69,6.69,0,0,1,1.57-4.64,5.28,5.28,0,0,1,4.12-1.77,5,5,0,0,1,3.89,1.63A6.22,6.22,0,0,1,528.3,63ZM526.37,62a3.35,3.35,0,0,0-3.64-3.37,3.53,3.53,0,0,0-2.47.92A3.73,3.73,0,0,0,519.11,62Z"/><path d="M530.34,67.11l1.54-.89A3.13,3.13,0,0,0,533,67.69a3.08,3.08,0,0,0,1.78.5,2.43,2.43,0,0,0,1.63-.52,1.75,1.75,0,0,0,.61-1.4c0-.89-.79-1.65-2.38-2.28l-.4-.15a7.51,7.51,0,0,1-2.58-1.5,2.63,2.63,0,0,1-.74-1.91A3.16,3.16,0,0,1,532,58a3.91,3.91,0,0,1,2.73-1,4.57,4.57,0,0,1,2.43.62,3.7,3.7,0,0,1,1.46,1.77l-1.49.83a2.37,2.37,0,0,0-.92-1.27,2.77,2.77,0,0,0-1.58-.43,2,2,0,0,0-1.4.49,1.61,1.61,0,0,0-.54,1.24,1.54,1.54,0,0,0,.54,1.2,7.47,7.47,0,0,0,2.24,1A6,6,0,0,1,538,64a3.33,3.33,0,0,1,.67,2.19,3.2,3.2,0,0,1-1.15,2.57,5.32,5.32,0,0,1-5.65.28A3.81,3.81,0,0,1,530.34,67.11Z"/><path d="M549.76,75.07V57.49h1.57v2.19a5,5,0,0,1,1.75-1.94,4.49,4.49,0,0,1,2.43-.68,5,5,0,0,1,4,1.73,6.75,6.75,0,0,1,1.51,4.6A6.84,6.84,0,0,1,559.52,68a4.93,4.93,0,0,1-3.93,1.72A4.52,4.52,0,0,1,553.1,69a4.93,4.93,0,0,1-1.77-2v8Zm9.48-11.66a5.55,5.55,0,0,0-1-3.56,3.43,3.43,0,0,0-2.85-1.3,3.61,3.61,0,0,0-2.93,1.26,5.19,5.19,0,0,0-1.06,3.46,5.34,5.34,0,0,0,1.14,3.58,3.76,3.76,0,0,0,3,1.34,3.29,3.29,0,0,0,2.75-1.26A5.62,5.62,0,0,0,559.24,63.41Z"/><path d="M573,69.19V67.05a4.26,4.26,0,0,1-4.1,2.65,5.15,5.15,0,0,1-4-1.72,6.62,6.62,0,0,1-1.54-4.57,6.8,6.8,0,0,1,1.52-4.58,5.29,5.29,0,0,1,6.49-1.12A4.27,4.27,0,0,1,573,59.63V57.49h1.62v11.7Zm-7.88-5.72a5.32,5.32,0,0,0,1,3.49,3.59,3.59,0,0,0,2.92,1.23A3.53,3.53,0,0,0,572,66.85,5.77,5.77,0,0,0,573,63.16a5,5,0,0,0-1-3.38,3.62,3.62,0,0,0-2.89-1.23,3.55,3.55,0,0,0-2.9,1.31A5.59,5.59,0,0,0,565.12,63.47Z"/><path d="M580.6,59.84a7,7,0,0,1,1.76-2.15,3.3,3.3,0,0,1,2-.63,3.23,3.23,0,0,1,.69.07,4.39,4.39,0,0,1,.69.18l-.53,1.53a4.27,4.27,0,0,0-.54-.13,2.62,2.62,0,0,0-.55-.05,3,3,0,0,0-2.5,1.37,5.49,5.49,0,0,0-1,3.41v5.75H579V57.49h1.62Z"/><path d="M596.11,69.19V67.05A4.26,4.26,0,0,1,592,69.7,5.15,5.15,0,0,1,588,68a6.62,6.62,0,0,1-1.54-4.57,6.8,6.8,0,0,1,1.52-4.58,5.29,5.29,0,0,1,6.49-1.12,4.27,4.27,0,0,1,1.68,1.92V57.49h1.62v11.7Zm-7.88-5.72a5.32,5.32,0,0,0,1,3.49,3.59,3.59,0,0,0,2.92,1.23,3.53,3.53,0,0,0,2.91-1.34,5.77,5.77,0,0,0,1.06-3.69,5,5,0,0,0-1-3.38,3.62,3.62,0,0,0-2.89-1.23,3.55,3.55,0,0,0-2.9,1.31A5.59,5.59,0,0,0,588.23,63.47Z"/><path d="M611.48,59.84a7.15,7.15,0,0,1,1.77-2.15,3.5,3.5,0,0,1,2.7-.56,4.39,4.39,0,0,1,.69.18l-.53,1.53a4.72,4.72,0,0,0-.54-.13,2.68,2.68,0,0,0-.55-.05,3,3,0,0,0-2.5,1.37,5.49,5.49,0,0,0-1,3.41v5.75h-1.62V57.49h1.62Z"/><path d="M628.41,63.39h-9.29A5.69,5.69,0,0,0,620.25,67a3.53,3.53,0,0,0,2.86,1.29,3.78,3.78,0,0,0,2.27-.7A5.18,5.18,0,0,0,627,65.43l1.49.82a6.49,6.49,0,0,1-2.19,2.61,5.76,5.76,0,0,1-3.19.84A5.39,5.39,0,0,1,619,68a6.39,6.39,0,0,1-1.59-4.51,6.69,6.69,0,0,1,1.58-4.64,5.25,5.25,0,0,1,4.12-1.77A5,5,0,0,1,627,58.69,6.21,6.21,0,0,1,628.41,63ZM626.49,62a3.35,3.35,0,0,0-3.64-3.37,3.5,3.5,0,0,0-2.47.92A3.74,3.74,0,0,0,619.22,62Z"/><path d="M640.42,69.19V67.05a4.26,4.26,0,0,1-4.1,2.65A5.15,5.15,0,0,1,632.27,68a6.62,6.62,0,0,1-1.54-4.57,6.8,6.8,0,0,1,1.52-4.58,5.29,5.29,0,0,1,6.49-1.12,4.27,4.27,0,0,1,1.68,1.92V57.49H642v11.7Zm-7.88-5.72a5.32,5.32,0,0,0,1,3.49,3.59,3.59,0,0,0,2.92,1.23,3.53,3.53,0,0,0,2.91-1.34,5.77,5.77,0,0,0,1.06-3.69,5,5,0,0,0-1.06-3.38,3.92,3.92,0,0,0-5.78.08A5.53,5.53,0,0,0,632.54,63.47Z"/><path d="M648.17,69.19H646.5V48.75h1.67Z"/><path d="M652.3,52.93a1.16,1.16,0,0,1,.37-.87,1.24,1.24,0,0,1,1.77,0,1.17,1.17,0,0,1,.38.87,1.21,1.21,0,0,1-.36.89,1.28,1.28,0,0,1-.91.35,1.26,1.26,0,0,1-.89-.35A1.21,1.21,0,0,1,652.3,52.93Zm.41,16.26V57.49h1.67v11.7Z"/><path d="M657,69.19,663.48,59H657.4V57.49h8.89l-6.47,10.24h6.65v1.46Z"/><path d="M677.73,69.19V67.05a4.26,4.26,0,0,1-4.1,2.65,5.15,5.15,0,0,1-4-1.72A6.62,6.62,0,0,1,668,63.41a6.8,6.8,0,0,1,1.52-4.58,5.29,5.29,0,0,1,6.49-1.12,4.27,4.27,0,0,1,1.68,1.92V57.49h1.62v11.7Zm-7.88-5.72a5.32,5.32,0,0,0,1,3.49,3.57,3.57,0,0,0,2.92,1.23,3.53,3.53,0,0,0,2.91-1.34,5.83,5.83,0,0,0,1.06-3.69,5,5,0,0,0-1.06-3.38,3.92,3.92,0,0,0-5.78.08A5.53,5.53,0,0,0,669.85,63.47Z"/><path d="M685.33,59.84a7,7,0,0,1,1.76-2.15,3.5,3.5,0,0,1,2.7-.56,4.39,4.39,0,0,1,.69.18L690,58.84a4.27,4.27,0,0,0-.54-.13,2.68,2.68,0,0,0-.55-.05,3,3,0,0,0-2.5,1.37,5.49,5.49,0,0,0-1,3.41v5.75H683.7V57.49h1.63Z"/><path d="M710,63.39h-9.29A5.69,5.69,0,0,0,701.87,67a3.53,3.53,0,0,0,2.86,1.29,3.78,3.78,0,0,0,2.27-.7,5.18,5.18,0,0,0,1.62-2.11l1.49.82a6.49,6.49,0,0,1-2.19,2.61,5.76,5.76,0,0,1-3.19.84A5.39,5.39,0,0,1,700.57,68,6.39,6.39,0,0,1,699,63.47a6.69,6.69,0,0,1,1.58-4.64,5.25,5.25,0,0,1,4.12-1.77,5,5,0,0,1,3.89,1.63A6.21,6.21,0,0,1,710,63ZM708.11,62a3.35,3.35,0,0,0-3.64-3.37,3.5,3.5,0,0,0-2.47.92A3.74,3.74,0,0,0,700.84,62Z"/><path d="M715.19,69.19h-1.68V48.75h1.68Z"/><path d="M729,59.84a7,7,0,0,1,1.76-2.15,3.3,3.3,0,0,1,2-.63,3.23,3.23,0,0,1,.69.07,4.39,4.39,0,0,1,.69.18l-.53,1.53a4.27,4.27,0,0,0-.54-.13,2.62,2.62,0,0,0-.55-.05,3,3,0,0,0-2.5,1.37,5.49,5.49,0,0,0-1,3.41v5.75h-1.63V57.49H729Z"/><path d="M745.94,63.39h-9.29A5.69,5.69,0,0,0,737.78,67a3.54,3.54,0,0,0,2.86,1.29,3.75,3.75,0,0,0,2.27-.7,5.18,5.18,0,0,0,1.62-2.11l1.49.82a6.41,6.41,0,0,1-2.19,2.61,5.76,5.76,0,0,1-3.19.84A5.39,5.39,0,0,1,736.48,68a6.43,6.43,0,0,1-1.58-4.51,6.69,6.69,0,0,1,1.57-4.64,5.25,5.25,0,0,1,4.12-1.77,5,5,0,0,1,3.89,1.63A6.21,6.21,0,0,1,745.94,63ZM744,62a3.35,3.35,0,0,0-3.64-3.37,3.52,3.52,0,0,0-2.47.92A3.68,3.68,0,0,0,736.76,62Z"/><path d="M748,67.11l1.54-.89a3,3,0,0,0,1.11,1.47,3.06,3.06,0,0,0,1.78.5,2.45,2.45,0,0,0,1.63-.52,1.75,1.75,0,0,0,.61-1.4c0-.89-.8-1.65-2.39-2.28l-.39-.15a7.58,7.58,0,0,1-2.59-1.5,2.67,2.67,0,0,1-.74-1.91A3.16,3.16,0,0,1,749.61,58a3.89,3.89,0,0,1,2.73-1,4.51,4.51,0,0,1,2.42.62,3.66,3.66,0,0,1,1.47,1.77l-1.49.83a2.44,2.44,0,0,0-.93-1.27,2.74,2.74,0,0,0-1.58-.43,2,2,0,0,0-1.39.49,1.62,1.62,0,0,0-.55,1.24,1.54,1.54,0,0,0,.54,1.2,7.43,7.43,0,0,0,2.25,1A6.09,6.09,0,0,1,755.67,64a3.33,3.33,0,0,1,.66,2.19,3.19,3.19,0,0,1-1.14,2.57,4.68,4.68,0,0,1-3.09,1,4.62,4.62,0,0,1-2.56-.68A3.76,3.76,0,0,1,748,67.11Z"/><path d="M768.73,59.63a6.34,6.34,0,0,0-3.64-1.13,4.5,4.5,0,0,0-3.47,1.39,5.22,5.22,0,0,0-1.29,3.71A4.56,4.56,0,0,0,761.67,67a4.67,4.67,0,0,0,3.42,1.33A5.86,5.86,0,0,0,767,68a7.41,7.41,0,0,0,1.91-1v1.78a6.76,6.76,0,0,1-1.9.73,9.9,9.9,0,0,1-2.23.24A5.85,5.85,0,0,1,760.39,68a6.18,6.18,0,0,1-1.71-4.5,6.14,6.14,0,0,1,6.43-6.43,9.66,9.66,0,0,1,2,.2,6.81,6.81,0,0,1,1.65.59Z"/><path d="M780.58,69.19V67.05A4.45,4.45,0,0,1,779,69a4.38,4.38,0,0,1-2.47.68A5.18,5.18,0,0,1,772.42,68a6.66,6.66,0,0,1-1.53-4.57,6.8,6.8,0,0,1,1.51-4.58,4.92,4.92,0,0,1,3.92-1.77,5,5,0,0,1,2.58.65,4.39,4.39,0,0,1,1.68,1.92V57.49h1.62v11.7Zm-7.89-5.72a5.27,5.27,0,0,0,1,3.49,3.57,3.57,0,0,0,2.92,1.23,3.51,3.51,0,0,0,2.9-1.34,5.77,5.77,0,0,0,1.06-3.69,5,5,0,0,0-1.05-3.38,3.61,3.61,0,0,0-2.89-1.23,3.55,3.55,0,0,0-2.9,1.31A5.59,5.59,0,0,0,772.69,63.47Z"/><path d="M786.89,58.88h-2.15V57.49h2.15V52.7h1.6v4.79h2.34v1.39h-2.34V69.19h-1.6Z"/><path d="M803.29,63.39H794A5.69,5.69,0,0,0,795.13,67,3.53,3.53,0,0,0,798,68.24a3.78,3.78,0,0,0,2.27-.7,5.18,5.18,0,0,0,1.62-2.11l1.49.82a6.49,6.49,0,0,1-2.19,2.61,5.76,5.76,0,0,1-3.19.84A5.39,5.39,0,0,1,793.83,68a6.39,6.39,0,0,1-1.59-4.51,6.69,6.69,0,0,1,1.58-4.64,5.25,5.25,0,0,1,4.12-1.77,5,5,0,0,1,3.89,1.63A6.21,6.21,0,0,1,803.29,63ZM801.37,62a3.35,3.35,0,0,0-3.64-3.37,3.5,3.5,0,0,0-2.47.92A3.74,3.74,0,0,0,794.1,62Z"/><path d="M807.05,68.08a1.3,1.3,0,0,1,.39-1,1.39,1.39,0,0,1,1.91,0,1.35,1.35,0,1,1-2.3,1Z"/></svg>