<svg id="fondos" xmlns="http://www.w3.org/2000/svg" viewBox="0 0 838.12 100.16"><defs><style>.cls-1{fill:#e6e6e6;}</style></defs><title>gaula1</title><rect class="cls-1" width="838.12" height="100.16"/><path d="M59.51,59.9V38.45H70.13v1.83H61.45V47h8.68v1.83H61.45v9.24h8.68V59.9Z"/><path d="M74.64,59.9v-13h1.71v2A5.32,5.32,0,0,1,78.29,47a5.54,5.54,0,0,1,2.65-.62,4.27,4.27,0,0,1,4.67,4.66V59.9H83.78v-8A4.35,4.35,0,0,0,83,49a3.16,3.16,0,0,0-2.52-1,3.65,3.65,0,0,0-3,1.23,6.14,6.14,0,0,0-1,3.84V59.9Z"/><path d="M88.32,46.9h2l4,9.85,4-9.85h2l-6,13.83Z"/><path d="M102.73,41.83a1.32,1.32,0,0,1,.41-1,1.41,1.41,0,0,1,2,0,1.3,1.3,0,0,1,.42,1,1.34,1.34,0,0,1-.4,1,1.4,1.4,0,0,1-1,.39,1.33,1.33,0,0,1-1-.39A1.35,1.35,0,0,1,102.73,41.83Zm.46,18.07v-13h1.86v13Z"/><path d="M119.56,59.9V57.52a4.88,4.88,0,0,1-1.81,2.19,4.94,4.94,0,0,1-2.74.76,5.74,5.74,0,0,1-4.51-1.92,7.38,7.38,0,0,1-1.7-5.07,7.56,7.56,0,0,1,1.68-5.09,5.89,5.89,0,0,1,7.22-1.25,4.83,4.83,0,0,1,1.86,2.14V46.9h1.81v13Zm-8.76-6.36a5.89,5.89,0,0,0,1.14,3.88,4,4,0,0,0,3.24,1.36,3.88,3.88,0,0,0,3.23-1.48,6.43,6.43,0,0,0,1.18-4.1,5.62,5.62,0,0,0-1.17-3.76,4,4,0,0,0-3.21-1.37A4,4,0,0,0,112,49.53,6.18,6.18,0,0,0,110.8,53.54Z"/><path d="M128,49.51a8.13,8.13,0,0,1,2-2.39,3.66,3.66,0,0,1,2.23-.7,4.08,4.08,0,0,1,.77.07,5.16,5.16,0,0,1,.77.21l-.59,1.7a5.84,5.84,0,0,0-.6-.15,3.28,3.28,0,0,0-3.39,1.46,6.11,6.11,0,0,0-1.15,3.8V59.9h-1.8v-13H128Z"/><path d="M146.09,46.9v6.49a7.69,7.69,0,0,0,.84,4.18,4,4,0,0,0,5.71,0,7.48,7.48,0,0,0,.86-4.16V46.9h1.79v7.41a6.69,6.69,0,0,1-1.39,4.6,6.17,6.17,0,0,1-8.2,0,6.65,6.65,0,0,1-1.41-4.6V46.9Z"/><path d="M160.1,59.9v-13h1.71v2A5.32,5.32,0,0,1,163.75,47a5.53,5.53,0,0,1,2.64-.62,4.27,4.27,0,0,1,4.68,4.66V59.9h-1.83v-8a4.3,4.3,0,0,0-.82-2.89,3.14,3.14,0,0,0-2.51-1,3.64,3.64,0,0,0-3,1.23,6.14,6.14,0,0,0-1,3.84V59.9Z"/><path d="M195.79,46.9V57.64c0,1.71,0,3-.13,3.91a6.3,6.3,0,0,1-.47,2,4.5,4.5,0,0,1-2.06,2.16,7.76,7.76,0,0,1-3.52.71,7,7,0,0,1-4-1,4.22,4.22,0,0,1-1.75-3h2.25a2.64,2.64,0,0,0,1.15,1.81,4.53,4.53,0,0,0,2.53.62,5.18,5.18,0,0,0,2.16-.43,3.11,3.11,0,0,0,1.9-2.29,9.56,9.56,0,0,0,.14-2V57.49a4.76,4.76,0,0,1-1.84,2.19,5.19,5.19,0,0,1-2.83.79,5.46,5.46,0,0,1-4.37-1.91,7.58,7.58,0,0,1-1.64-5.11A7.56,7.56,0,0,1,185,48.34a5.59,5.59,0,0,1,4.43-1.92,5.13,5.13,0,0,1,2.79.8A4.47,4.47,0,0,1,194,49.33V46.9Zm-6.21,1.17a3.87,3.87,0,0,0-3.18,1.45,6.11,6.11,0,0,0-1.17,4,6.12,6.12,0,0,0,1.11,3.9,3.68,3.68,0,0,0,3.07,1.4,4.13,4.13,0,0,0,3.33-1.48,5.91,5.91,0,0,0,1.25-4,5.79,5.79,0,0,0-1.17-3.85A4,4,0,0,0,189.58,48.07Z"/><path d="M202.4,49.51a8,8,0,0,1,2-2.39,3.66,3.66,0,0,1,2.23-.7,4.08,4.08,0,0,1,.77.07,5.51,5.51,0,0,1,.77.21l-.59,1.7a5.44,5.44,0,0,0-.61-.15,3.21,3.21,0,0,0-.6-.06,3.41,3.41,0,0,0-2.78,1.52,6.11,6.11,0,0,0-1.15,3.8V59.9h-1.8v-13h1.8Z"/><path d="M211.85,46.9v6.49a7.69,7.69,0,0,0,.84,4.18,3.21,3.21,0,0,0,2.85,1.21,3.25,3.25,0,0,0,2.86-1.23,7.57,7.57,0,0,0,.86-4.16V46.9h1.79v7.41a6.74,6.74,0,0,1-1.39,4.6,5.2,5.2,0,0,1-4.09,1.56,5.27,5.27,0,0,1-4.12-1.56,6.7,6.7,0,0,1-1.4-4.6V46.9Z"/><path d="M225.85,66.43V46.9h1.75v2.43a5.59,5.59,0,0,1,1.94-2.16,5,5,0,0,1,2.7-.75,5.58,5.58,0,0,1,4.42,1.92,7.56,7.56,0,0,1,1.67,5.11,7.56,7.56,0,0,1-1.64,5.11,5.47,5.47,0,0,1-4.36,1.91,5.11,5.11,0,0,1-2.77-.76,5.48,5.48,0,0,1-2-2.22v8.94Zm10.54-13a6.22,6.22,0,0,0-1.15-4,3.86,3.86,0,0,0-3.18-1.45,4.06,4.06,0,0,0-3.26,1.4,5.84,5.84,0,0,0-1.17,3.85,6,6,0,0,0,1.26,4,4.19,4.19,0,0,0,3.35,1.48,3.61,3.61,0,0,0,3-1.4A6.18,6.18,0,0,0,236.39,53.48Z"/><path d="M248,60.47a6.79,6.79,0,0,1-2.67-.55A7.43,7.43,0,0,1,243,58.34a6.42,6.42,0,0,1-1.5-2.22,7.13,7.13,0,0,1-.51-2.7,6.94,6.94,0,0,1,.53-2.69A6.75,6.75,0,0,1,243,48.47,6.92,6.92,0,0,1,245.31,47a6.78,6.78,0,0,1,2.68-.53,7.06,7.06,0,0,1,2.73.53A7.19,7.19,0,0,1,253,48.47a7,7,0,0,1,1.54,2.27,6.79,6.79,0,0,1,.54,2.68,6.88,6.88,0,0,1-.53,2.67,6.73,6.73,0,0,1-1.52,2.25,7.33,7.33,0,0,1-2.34,1.58A7.16,7.16,0,0,1,248,60.47Zm.06-1.69a4.83,4.83,0,0,0,3.62-1.54,5.6,5.6,0,0,0,0-7.6,5,5,0,0,0-7.25,0,5.62,5.62,0,0,0,0,7.6A4.8,4.8,0,0,0,248.05,58.78Z"/><path d="M277.09,59.9V57.52a4.67,4.67,0,0,1-4.52,2.95,5.74,5.74,0,0,1-4.51-1.92,7.33,7.33,0,0,1-1.7-5.07A7.56,7.56,0,0,1,268,48.39a5.86,5.86,0,0,1,7.2-1.25,4.81,4.81,0,0,1,1.85,2.14V37.19h1.83V59.9Zm-8.73-6.36a5.89,5.89,0,0,0,1.14,3.88,4,4,0,0,0,3.24,1.36A3.86,3.86,0,0,0,276,57.3a6.49,6.49,0,0,0,1.17-4.1A5.67,5.67,0,0,0,276,49.44a4,4,0,0,0-3.2-1.37,3.93,3.93,0,0,0-3.22,1.46A6.18,6.18,0,0,0,268.36,53.54Z"/><path d="M294.86,53.45H284.53a6.37,6.37,0,0,0,1.26,4A3.94,3.94,0,0,0,289,58.84a4.19,4.19,0,0,0,2.52-.78,5.5,5.5,0,0,0,1.8-2.34l1.66.91a7.17,7.17,0,0,1-2.44,2.91,6.39,6.39,0,0,1-3.54.93,6,6,0,0,1-4.62-1.91,7.1,7.1,0,0,1-1.76-5,7.45,7.45,0,0,1,1.75-5.16,5.82,5.82,0,0,1,4.57-2,5.54,5.54,0,0,1,4.33,1.81,6.94,6.94,0,0,1,1.62,4.82Zm-2.14-1.54a4,4,0,0,0-1.18-2.77,4.07,4.07,0,0,0-2.86-1,3.88,3.88,0,0,0-2.75,1,4.19,4.19,0,0,0-1.28,2.72Z"/><path d="M307.25,66.43V46.9H309v2.43A5.61,5.61,0,0,1,311,47.17a5,5,0,0,1,2.69-.75,5.58,5.58,0,0,1,4.42,1.92,7.51,7.51,0,0,1,1.67,5.11,7.56,7.56,0,0,1-1.64,5.11,5.46,5.46,0,0,1-4.36,1.91,5.11,5.11,0,0,1-2.77-.76,5.55,5.55,0,0,1-2-2.22v8.94Zm10.54-13a6.22,6.22,0,0,0-1.15-4,3.85,3.85,0,0,0-3.17-1.45,4,4,0,0,0-3.26,1.4A5.79,5.79,0,0,0,309,53.32a6,6,0,0,0,1.26,4,4.19,4.19,0,0,0,3.35,1.48,3.65,3.65,0,0,0,3.06-1.4A6.24,6.24,0,0,0,317.79,53.48Z"/><path d="M329.39,60.47a6.79,6.79,0,0,1-2.67-.55,7.43,7.43,0,0,1-2.31-1.58,6.56,6.56,0,0,1-1.5-2.22,7.13,7.13,0,0,1-.51-2.7,6.94,6.94,0,0,1,.53-2.69,6.75,6.75,0,0,1,1.51-2.26A6.92,6.92,0,0,1,326.71,47a6.78,6.78,0,0,1,2.68-.53,7,7,0,0,1,2.73.53,7.19,7.19,0,0,1,2.31,1.52A6.95,6.95,0,0,1,336,56.09a6.73,6.73,0,0,1-1.52,2.25,7.33,7.33,0,0,1-2.34,1.58A7.08,7.08,0,0,1,329.39,60.47Zm.06-1.69a4.83,4.83,0,0,0,3.62-1.54,5.6,5.6,0,0,0,0-7.6,5,5,0,0,0-7.25,0,5.62,5.62,0,0,0,0,7.6A4.8,4.8,0,0,0,329.45,58.78Z"/><path d="M342.21,59.9h-1.86V37.19h1.86Z"/><path d="M346.79,41.83a1.38,1.38,0,0,1,1.39-1.37,1.37,1.37,0,0,1,1,.4,1.3,1.3,0,0,1,.42,1,1.38,1.38,0,0,1-.4,1,1.4,1.4,0,0,1-1,.39,1.37,1.37,0,0,1-1-.39A1.34,1.34,0,0,1,346.79,41.83Zm.45,18.07v-13h1.86v13Z"/><path d="M364.13,49.28a6.94,6.94,0,0,0-1.93-1,7.14,7.14,0,0,0-2.11-.31,5,5,0,0,0-3.85,1.54,5.81,5.81,0,0,0-1.44,4.12,5.08,5.08,0,0,0,5.29,5.25,6.41,6.41,0,0,0,2.13-.37,8.1,8.1,0,0,0,2.12-1.1v2a8,8,0,0,1-2.11.81,10.89,10.89,0,0,1-2.48.28,6.52,6.52,0,0,1-4.87-2,6.86,6.86,0,0,1-1.91-5,6.81,6.81,0,0,1,7.15-7.15,9.79,9.79,0,0,1,2.21.23,6.93,6.93,0,0,1,1.83.65Z"/><path d="M366.81,44.81l3.12-5.13h2.41l-4.15,5.13Zm1,15.09v-13h1.86v13Z"/><path d="M384.2,59.9V57.52a4.88,4.88,0,0,1-1.81,2.19,4.94,4.94,0,0,1-2.74.76,5.74,5.74,0,0,1-4.51-1.92,7.33,7.33,0,0,1-1.7-5.07,7.56,7.56,0,0,1,1.68-5.09,5.88,5.88,0,0,1,7.21-1.25,4.79,4.79,0,0,1,1.87,2.14V46.9H386v13Zm-8.76-6.36a5.89,5.89,0,0,0,1.14,3.88,4,4,0,0,0,3.24,1.36,3.88,3.88,0,0,0,3.23-1.48,6.43,6.43,0,0,0,1.18-4.1,5.62,5.62,0,0,0-1.17-3.76,4,4,0,0,0-3.21-1.37,3.93,3.93,0,0,0-3.22,1.46A6.18,6.18,0,0,0,375.44,53.54Z"/><path d="M389.36,57.58l1.71-1a3.47,3.47,0,0,0,1.23,1.63,3.42,3.42,0,0,0,2,.55,2.69,2.69,0,0,0,1.82-.58,1.92,1.92,0,0,0,.67-1.54c0-1-.88-1.84-2.65-2.54a3.75,3.75,0,0,1-.44-.17,8.27,8.27,0,0,1-2.87-1.66,3,3,0,0,1-.82-2.12,3.52,3.52,0,0,1,1.17-2.72,4.32,4.32,0,0,1,3-1.06,5,5,0,0,1,2.7.69,4,4,0,0,1,1.62,2l-1.65.92a2.66,2.66,0,0,0-1-1.4,3.08,3.08,0,0,0-1.75-.49,2.24,2.24,0,0,0-1.55.55,1.77,1.77,0,0,0-.61,1.37,1.72,1.72,0,0,0,.6,1.34A8.09,8.09,0,0,0,395,52.48a6.64,6.64,0,0,1,2.88,1.63,3.69,3.69,0,0,1,.74,2.43,3.55,3.55,0,0,1-1.27,2.86,5.19,5.19,0,0,1-3.43,1.07,5.27,5.27,0,0,1-2.85-.76A4.18,4.18,0,0,1,389.36,57.58Z"/><path d="M420.56,59.9V57.52A4.67,4.67,0,0,1,416,60.47a5.74,5.74,0,0,1-4.5-1.92,7.34,7.34,0,0,1-1.71-5.07,7.52,7.52,0,0,1,1.69-5.09,5.86,5.86,0,0,1,7.2-1.25,4.87,4.87,0,0,1,1.85,2.14V37.19h1.83V59.9Zm-8.73-6.36A5.89,5.89,0,0,0,413,57.42a4,4,0,0,0,3.24,1.36,3.86,3.86,0,0,0,3.21-1.48,6.49,6.49,0,0,0,1.17-4.1,5.67,5.67,0,0,0-1.16-3.76,4.34,4.34,0,0,0-6.41.09A6.18,6.18,0,0,0,411.83,53.54Z"/><path d="M438.33,53.45H428a6.37,6.37,0,0,0,1.26,4,3.93,3.93,0,0,0,3.18,1.43,4.19,4.19,0,0,0,2.52-.78,5.66,5.66,0,0,0,1.8-2.34l1.66.91A7.25,7.25,0,0,1,436,59.54a6.39,6.39,0,0,1-3.54.93,6,6,0,0,1-4.62-1.91,7.11,7.11,0,0,1-1.77-5,7.5,7.5,0,0,1,1.75-5.16,5.85,5.85,0,0,1,4.58-2,5.5,5.5,0,0,1,4.32,1.81,6.9,6.9,0,0,1,1.63,4.82Zm-2.14-1.54a3.72,3.72,0,0,0-4-3.75,3.86,3.86,0,0,0-2.75,1,4.14,4.14,0,0,0-1.28,2.72Z"/><path d="M444.06,59.9H442.2V37.19h1.86Z"/><path d="M475.46,43.84a8.55,8.55,0,0,0-7.5-4.1,8.49,8.49,0,0,0-6.49,2.69A10.76,10.76,0,0,0,459.63,53a9.22,9.22,0,0,0,1.95,3A8.45,8.45,0,0,0,464.46,58a9.09,9.09,0,0,0,3.5.65,8.22,8.22,0,0,0,5.87-2.12A7.46,7.46,0,0,0,476.15,51h-7.4V49.3h9.54v.24c0,3.42-.93,6.09-2.8,8a10.2,10.2,0,0,1-7.7,2.9,10.51,10.51,0,0,1-7.9-3.11,11.19,11.19,0,0,1-3-8.14,12.5,12.5,0,0,1,.77-4.38,10.47,10.47,0,0,1,2.19-3.58,10.22,10.22,0,0,1,3.51-2.47A11.11,11.11,0,0,1,467.7,38a12.18,12.18,0,0,1,5.59,1.18,8.22,8.22,0,0,1,3.59,3.46Z"/><path d="M479.46,59.9l9.42-22.3,9,22.3h-2.12L493,52.63h-8.76l-2.84,7.27ZM484.94,51h7.47l-3.66-9.33Z"/><path d="M499.69,38.45h1.92v14a6.7,6.7,0,0,0,1.45,4.73,5.82,5.82,0,0,0,4.44,1.54,5.73,5.73,0,0,0,4.39-1.54,6.7,6.7,0,0,0,1.45-4.73v-14h1.95V51.82q0,4.35-1.93,6.5t-5.86,2.15q-3.94,0-5.88-2.15c-1.28-1.43-1.93-3.6-1.93-6.5Z"/><path d="M520.54,59.9V38.45h1.94V58.06h7.36V59.9Z"/><path d="M530,59.9l9.42-22.3,9,22.3h-2.12l-2.74-7.27h-8.76L532,59.9ZM535.48,51H543l-3.66-9.33Z"/><path d="M568.82,59.9V57.52a4.74,4.74,0,0,1-4.56,2.95,5.72,5.72,0,0,1-4.5-1.92,7.34,7.34,0,0,1-1.71-5.07,7.56,7.56,0,0,1,1.68-5.09A5.89,5.89,0,0,1,567,47.14a4.79,4.79,0,0,1,1.87,2.14V46.9h1.8v13Zm-8.76-6.36a5.89,5.89,0,0,0,1.13,3.88,4,4,0,0,0,3.25,1.36,3.91,3.91,0,0,0,3.23-1.48,6.49,6.49,0,0,0,1.18-4.1,5.57,5.57,0,0,0-1.18-3.76,4,4,0,0,0-3.2-1.37,4,4,0,0,0-3.23,1.46A6.18,6.18,0,0,0,560.06,53.54Z"/><path d="M577.43,59.9h-1.86V37.19h1.86Z"/><path d="M593,59.9h-1.86V37.19H593Z"/><path d="M599.7,46.9v6.49a7.69,7.69,0,0,0,.84,4.18,3.94,3.94,0,0,0,5.7,0,7.47,7.47,0,0,0,.87-4.16V46.9h1.78v7.41a6.69,6.69,0,0,1-1.39,4.6,5.18,5.18,0,0,1-4.08,1.56,5.27,5.27,0,0,1-4.12-1.56,6.65,6.65,0,0,1-1.41-4.6V46.9Z"/><path d="M625.13,46.9V57.64c0,1.71,0,3-.14,3.91a6.3,6.3,0,0,1-.47,2,4.46,4.46,0,0,1-2.06,2.16,7.76,7.76,0,0,1-3.52.71,7,7,0,0,1-4-1,4.25,4.25,0,0,1-1.75-3h2.25a2.64,2.64,0,0,0,1.15,1.81,4.55,4.55,0,0,0,2.53.62,5.18,5.18,0,0,0,2.16-.43,3.11,3.11,0,0,0,1.9-2.29,9.56,9.56,0,0,0,.14-2V57.49a4.8,4.8,0,0,1-1.83,2.19,5.23,5.23,0,0,1-2.84.79,5.48,5.48,0,0,1-4.37-1.91,7.57,7.57,0,0,1-1.63-5.11,7.51,7.51,0,0,1,1.67-5.11,5.56,5.56,0,0,1,4.42-1.92,5.13,5.13,0,0,1,2.79.8,4.47,4.47,0,0,1,1.79,2.11V46.9Zm-6.22,1.17a3.87,3.87,0,0,0-3.18,1.45,6.11,6.11,0,0,0-1.17,4,6.12,6.12,0,0,0,1.11,3.9,3.68,3.68,0,0,0,3.07,1.4,4.12,4.12,0,0,0,3.33-1.48,5.91,5.91,0,0,0,1.25-4,5.79,5.79,0,0,0-1.17-3.85A4,4,0,0,0,618.91,48.07Z"/><path d="M639.52,59.9V57.52a4.86,4.86,0,0,1-1.8,2.19,5,5,0,0,1-2.75.76,5.71,5.71,0,0,1-4.5-1.92,7.34,7.34,0,0,1-1.71-5.07,7.56,7.56,0,0,1,1.68-5.09,5.89,5.89,0,0,1,7.22-1.25,4.77,4.77,0,0,1,1.86,2.14V46.9h1.81v13Zm-8.75-6.36a5.89,5.89,0,0,0,1.13,3.88,4,4,0,0,0,3.24,1.36,3.92,3.92,0,0,0,3.24-1.48,6.49,6.49,0,0,0,1.17-4.1,5.62,5.62,0,0,0-1.17-3.76,4,4,0,0,0-3.21-1.37A4,4,0,0,0,632,49.53,6.18,6.18,0,0,0,630.77,53.54Z"/><path d="M648,49.51a8.13,8.13,0,0,1,2-2.39,3.66,3.66,0,0,1,2.23-.7,4,4,0,0,1,.77.07,5.16,5.16,0,0,1,.77.21l-.59,1.7a5.26,5.26,0,0,0-.6-.15,3.31,3.31,0,0,0-.61-.06,3.41,3.41,0,0,0-2.78,1.52,6.17,6.17,0,0,0-1.15,3.8V59.9h-1.8v-13H648Z"/><path d="M653,58.66a1.43,1.43,0,0,1,.43-1.06,1.52,1.52,0,0,1,2.12,0,1.43,1.43,0,0,1,.43,1.06,1.46,1.46,0,0,1-.43,1.07,1.52,1.52,0,0,1-2.12,0A1.46,1.46,0,0,1,653,58.66Z"/></svg>