<svg id="fondos" xmlns="http://www.w3.org/2000/svg" viewBox="0 0 838.12 100.16"><defs><style>.cls-1{fill:#e6e6e6;}</style></defs><title>gaula3</title><rect class="cls-1" width="838.12" height="100.16"/><path d="M59.51,42.44V21H70.13v1.83H61.45v6.71h8.68v1.83H61.45v9.24h8.68v1.83Z"/><path d="M74.64,42.44v-13h1.71v2a5.21,5.21,0,0,1,1.94-1.86A5.44,5.44,0,0,1,80.94,29a4.28,4.28,0,0,1,4.67,4.66v8.82H83.78v-8A4.35,4.35,0,0,0,83,31.54a3.16,3.16,0,0,0-2.52-.95,3.68,3.68,0,0,0-3,1.22,6.17,6.17,0,0,0-1,3.85v6.78Z"/><path d="M88.32,29.45h2l4,9.84,4-9.84h2l-6,13.83Z"/><path d="M102.73,24.38a1.31,1.31,0,0,1,.41-1,1.39,1.39,0,0,1,2,0,1.28,1.28,0,0,1,.42,1,1.3,1.3,0,0,1-.4,1,1.41,1.41,0,0,1-1,.4,1.34,1.34,0,0,1-1-.4A1.31,1.31,0,0,1,102.73,24.38Zm.46,18.06v-13h1.86v13Z"/><path d="M119.56,42.44V40.07a4.88,4.88,0,0,1-1.81,2.19A4.93,4.93,0,0,1,115,43a5.74,5.74,0,0,1-4.51-1.92A7.37,7.37,0,0,1,108.8,36a7.56,7.56,0,0,1,1.68-5.09,5.45,5.45,0,0,1,4.35-2,5.51,5.51,0,0,1,2.87.73,4.75,4.75,0,0,1,1.86,2.13V29.45h1.81v13Zm-8.76-6.36A5.92,5.92,0,0,0,111.94,40a4,4,0,0,0,3.24,1.36,3.89,3.89,0,0,0,3.23-1.49,6.38,6.38,0,0,0,1.18-4.09A5.6,5.6,0,0,0,118.42,32a4,4,0,0,0-3.21-1.37A4,4,0,0,0,112,32.08,6.15,6.15,0,0,0,110.8,36.08Z"/><path d="M128,32.06a8,8,0,0,1,2-2.39,3.66,3.66,0,0,1,2.23-.71A4.11,4.11,0,0,1,133,29a6.69,6.69,0,0,1,.77.2l-.59,1.7a4,4,0,0,0-.6-.14,3.28,3.28,0,0,0-3.39,1.46A6.1,6.1,0,0,0,128,36.05v6.39h-1.8v-13H128Z"/><path d="M146.09,29.45v6.49a7.65,7.65,0,0,0,.84,4.17,3.94,3.94,0,0,0,5.71,0,7.48,7.48,0,0,0,.86-4.16V29.45h1.79v7.41a6.68,6.68,0,0,1-1.39,4.59,6.17,6.17,0,0,1-8.2,0,6.64,6.64,0,0,1-1.41-4.59V29.45Z"/><path d="M160.1,42.44v-13h1.71v2a5.21,5.21,0,0,1,1.94-1.86,5.42,5.42,0,0,1,2.64-.63,4.28,4.28,0,0,1,4.68,4.66v8.82h-1.83v-8a4.3,4.3,0,0,0-.82-2.89,3.14,3.14,0,0,0-2.51-.95,3.66,3.66,0,0,0-3,1.22,6.17,6.17,0,0,0-1,3.85v6.78Z"/><path d="M184.79,42.44V31h-2.43V29.45h2.43V25.7c0-2.61.25-4.3.74-5.08a2.92,2.92,0,0,1,2.68-1.16,5.43,5.43,0,0,1,.92.08,4.11,4.11,0,0,1,.82.23l-.34,1.58a3.43,3.43,0,0,0-.68-.27,2.77,2.77,0,0,0-.61-.08,1.39,1.39,0,0,0-1.34.75,6.54,6.54,0,0,0-.4,2.78v4.92h2.86V31h-2.86V42.44Z"/><path d="M193.93,29.45v6.49a7.55,7.55,0,0,0,.85,4.17,3.93,3.93,0,0,0,5.7,0,7.47,7.47,0,0,0,.87-4.16V29.45h1.78v7.41a6.68,6.68,0,0,1-1.39,4.59A5.2,5.2,0,0,1,197.65,43a5.26,5.26,0,0,1-4.11-1.56,6.64,6.64,0,0,1-1.41-4.59V29.45Z"/><path d="M207.94,42.44v-13h1.71v2a5.29,5.29,0,0,1,1.94-1.86,5.44,5.44,0,0,1,2.65-.63,4.28,4.28,0,0,1,4.67,4.66v8.82h-1.83v-8a4.35,4.35,0,0,0-.81-2.89,3.16,3.16,0,0,0-2.52-.95,3.68,3.68,0,0,0-3,1.22,6.17,6.17,0,0,0-1,3.85v6.78Z"/><path d="M233.68,31.82a7,7,0,0,0-1.94-.94,7.15,7.15,0,0,0-2.11-.32,5,5,0,0,0-3.85,1.55,5.79,5.79,0,0,0-1.44,4.12A5.12,5.12,0,0,0,225.83,40a5.18,5.18,0,0,0,3.8,1.47,6.62,6.62,0,0,0,2.13-.36,8.42,8.42,0,0,0,2.12-1.1v2a7.84,7.84,0,0,1-2.11.81,10.87,10.87,0,0,1-2.47.27,6.52,6.52,0,0,1-4.88-2,6.9,6.9,0,0,1-1.91-5A6.82,6.82,0,0,1,229.66,29a10.41,10.41,0,0,1,2.21.23,7.3,7.3,0,0,1,1.83.65Z"/><path d="M236.91,24.38a1.31,1.31,0,0,1,.41-1,1.39,1.39,0,0,1,2,0,1.28,1.28,0,0,1,.42,1,1.3,1.3,0,0,1-.4,1,1.41,1.41,0,0,1-1,.4,1.34,1.34,0,0,1-1-.4A1.31,1.31,0,0,1,236.91,24.38Zm.46,18.06v-13h1.86v13Z"/><path d="M250.05,43a6.57,6.57,0,0,1-2.66-.55,7.56,7.56,0,0,1-2.32-1.57,6.67,6.67,0,0,1-1.49-2.23,7.12,7.12,0,0,1-.52-2.69,7,7,0,0,1,.53-2.7,7.09,7.09,0,0,1,3.78-3.78,7,7,0,0,1,2.68-.53,7.18,7.18,0,0,1,2.73.53,7.18,7.18,0,0,1,3.86,3.8,7,7,0,0,1,.53,2.68,6.73,6.73,0,0,1-.53,2.67,6.83,6.83,0,0,1-1.52,2.25,7.09,7.09,0,0,1-2.34,1.57A6.9,6.9,0,0,1,250.05,43Zm.06-1.68a4.86,4.86,0,0,0,3.63-1.55,5.61,5.61,0,0,0,0-7.59,5,5,0,0,0-7.25,0,5.61,5.61,0,0,0,0,7.59A4.82,4.82,0,0,0,250.11,41.33Z"/><path d="M260.89,42.44v-13h1.72v2a5.14,5.14,0,0,1,1.94-1.86,5.37,5.37,0,0,1,2.64-.63,4.28,4.28,0,0,1,4.67,4.66v8.82H270v-8a4.35,4.35,0,0,0-.81-2.89,3.14,3.14,0,0,0-2.51-.95,3.66,3.66,0,0,0-3,1.22,6.17,6.17,0,0,0-1,3.85v6.78Z"/><path d="M286.12,42.44V40.07A4.71,4.71,0,0,1,281.56,43a5.72,5.72,0,0,1-4.5-1.92A7.33,7.33,0,0,1,275.35,36,7.56,7.56,0,0,1,277,30.94a5.85,5.85,0,0,1,7.22-1.25,4.71,4.71,0,0,1,1.87,2.13V29.45h1.8v13Zm-8.76-6.36A5.92,5.92,0,0,0,278.49,40a4,4,0,0,0,3.25,1.36A3.92,3.92,0,0,0,285,39.84a6.44,6.44,0,0,0,1.18-4.09A5.56,5.56,0,0,0,285,32a4,4,0,0,0-3.2-1.37,4,4,0,0,0-3.23,1.46A6.15,6.15,0,0,0,277.36,36.08Z"/><path d="M294.55,32.06a8,8,0,0,1,2-2.39,3.66,3.66,0,0,1,2.23-.71,4,4,0,0,1,.77.08,6.69,6.69,0,0,1,.77.2l-.58,1.7a4.15,4.15,0,0,0-.61-.14,3.23,3.23,0,0,0-.61-.06,3.42,3.42,0,0,0-2.78,1.52,6.16,6.16,0,0,0-1.15,3.79v6.39h-1.8v-13h1.8Z"/><path d="M301.86,24.38a1.31,1.31,0,0,1,.41-1,1.37,1.37,0,0,1,1-.41,1.34,1.34,0,0,1,1,.41,1.28,1.28,0,0,1,.42,1,1.3,1.3,0,0,1-.4,1,1.39,1.39,0,0,1-1,.4,1.35,1.35,0,0,1-1-.4A1.31,1.31,0,0,1,301.86,24.38Zm.46,18.06v-13h1.86v13Z"/><path d="M315,43a6.6,6.6,0,0,1-2.66-.55A7.56,7.56,0,0,1,310,40.89a6.67,6.67,0,0,1-1.49-2.23A7.11,7.11,0,0,1,308,36a7,7,0,0,1,.52-2.7,7.09,7.09,0,0,1,3.78-3.78A7,7,0,0,1,315,29a7.18,7.18,0,0,1,2.73.53,7.18,7.18,0,0,1,3.86,3.8,7.08,7.08,0,0,1,0,5.35,6.86,6.86,0,0,1-1.53,2.25,7.09,7.09,0,0,1-2.34,1.57A6.9,6.9,0,0,1,315,43Zm.06-1.68a4.85,4.85,0,0,0,3.63-1.55,5.61,5.61,0,0,0,0-7.59,5,5,0,0,0-7.25,0,5.61,5.61,0,0,0,0,7.59A4.84,4.84,0,0,0,315.06,41.33Z"/><path d="M344.11,42.44V40.07a4.9,4.9,0,0,1-1.8,2.2,5,5,0,0,1-2.73.74,5.74,5.74,0,0,1-4.5-1.92A7.33,7.33,0,0,1,333.37,36a7.52,7.52,0,0,1,1.69-5.09,5.83,5.83,0,0,1,7.2-1.25,4.79,4.79,0,0,1,1.85,2.13V19.74h1.83v22.7Zm-8.73-6.36A5.92,5.92,0,0,0,336.52,40a4,4,0,0,0,3.24,1.36A3.87,3.87,0,0,0,343,39.84a6.44,6.44,0,0,0,1.17-4.09A5.65,5.65,0,0,0,343,32a4.34,4.34,0,0,0-6.41.09A6.1,6.1,0,0,0,335.38,36.08Z"/><path d="M361.88,36H351.55a6.34,6.34,0,0,0,1.26,4A3.91,3.91,0,0,0,356,41.39a4.19,4.19,0,0,0,2.52-.78,5.8,5.8,0,0,0,1.8-2.34l1.66.9a7.25,7.25,0,0,1-2.44,2.91A6.42,6.42,0,0,1,356,43a6,6,0,0,1-4.62-1.91,7.09,7.09,0,0,1-1.77-5,7.47,7.47,0,0,1,1.75-5.15,5.86,5.86,0,0,1,4.58-2,5.53,5.53,0,0,1,4.32,1.81,6.94,6.94,0,0,1,1.63,4.83Zm-2.14-1.54a3.72,3.72,0,0,0-4-3.75,3.9,3.9,0,0,0-2.75,1,4.19,4.19,0,0,0-1.28,2.73Z"/><path d="M367.61,42.44h-1.86V19.74h1.86Z"/><path d="M399,26.39a8.83,8.83,0,0,0-3.21-3.06,8.73,8.73,0,0,0-4.29-1A8.45,8.45,0,0,0,385,25a9.87,9.87,0,0,0-2.5,7,9.94,9.94,0,0,0,.66,3.62,9.18,9.18,0,0,0,1.95,3,8.63,8.63,0,0,0,2.88,2,9.28,9.28,0,0,0,3.5.65,8.26,8.26,0,0,0,5.87-2.12,7.46,7.46,0,0,0,2.32-5.55h-7.4V31.85h9.54v.23q0,5.13-2.8,8a10.16,10.16,0,0,1-7.7,2.9,10.51,10.51,0,0,1-7.9-3.1,11.21,11.21,0,0,1-3-8.15,12.67,12.67,0,0,1,.76-4.37,10.55,10.55,0,0,1,2.2-3.58,10.25,10.25,0,0,1,3.51-2.48,11.29,11.29,0,0,1,4.36-.82,12.3,12.3,0,0,1,5.59,1.18,8.24,8.24,0,0,1,3.59,3.47Z"/><path d="M403,42.44l9.42-22.29,9,22.29h-2.12l-2.74-7.26h-8.76L405,42.44Zm5.48-8.93H416l-3.66-9.34Z"/><path d="M423.24,21h1.92V35a6.67,6.67,0,0,0,1.45,4.72,5.83,5.83,0,0,0,4.44,1.55,5.74,5.74,0,0,0,4.39-1.55A6.67,6.67,0,0,0,436.89,35V21h1.95V34.37q0,4.35-1.93,6.5T431.05,43q-3.94,0-5.88-2.14c-1.28-1.43-1.93-3.6-1.93-6.5Z"/><path d="M444.09,42.44V21H446V40.61h7.36v1.83Z"/><path d="M453.55,42.44,463,20.15l9,22.29h-2.12l-2.74-7.26h-8.76l-2.84,7.26ZM459,33.51h7.47l-3.66-9.34Z"/><path d="M482.77,49V29.45h1.75v2.43a5.45,5.45,0,0,1,1.94-2.16,5,5,0,0,1,2.7-.76,5.57,5.57,0,0,1,4.41,1.93A7.51,7.51,0,0,1,495.25,36a7.53,7.53,0,0,1-1.64,5.1A5.47,5.47,0,0,1,489.25,43a5.11,5.11,0,0,1-2.77-.75,5.48,5.48,0,0,1-2-2.22V49ZM493.3,36a6.21,6.21,0,0,0-1.15-4A3.82,3.82,0,0,0,489,30.62a4.06,4.06,0,0,0-3.26,1.4,5.8,5.8,0,0,0-1.18,3.84,6,6,0,0,0,1.27,4,4.2,4.2,0,0,0,3.35,1.49,3.65,3.65,0,0,0,3-1.4A6.18,6.18,0,0,0,493.3,36Z"/><path d="M508.6,42.44V40.07A4.71,4.71,0,0,1,504,43a5.72,5.72,0,0,1-4.5-1.92A7.33,7.33,0,0,1,497.83,36a7.52,7.52,0,0,1,1.69-5.09,5.44,5.44,0,0,1,4.35-2,5.5,5.5,0,0,1,2.86.73,4.71,4.71,0,0,1,1.87,2.13V29.45h1.8v13Zm-8.76-6.36A6,6,0,0,0,501,40a4,4,0,0,0,3.25,1.36,3.92,3.92,0,0,0,3.23-1.49,6.44,6.44,0,0,0,1.18-4.09A5.56,5.56,0,0,0,507.45,32a4,4,0,0,0-3.2-1.37A4,4,0,0,0,501,32.08,6.15,6.15,0,0,0,499.84,36.08Z"/><path d="M517,32.06a8,8,0,0,1,2-2.39,3.66,3.66,0,0,1,2.23-.71A4,4,0,0,1,522,29a6.69,6.69,0,0,1,.77.2l-.58,1.7a4.15,4.15,0,0,0-.61-.14,3.23,3.23,0,0,0-.61-.06,3.42,3.42,0,0,0-2.78,1.52A6.16,6.16,0,0,0,517,36.05v6.39h-1.8v-13H517Z"/><path d="M534.28,42.44V40.07A4.71,4.71,0,0,1,529.72,43a5.71,5.71,0,0,1-4.5-1.92A7.33,7.33,0,0,1,523.51,36a7.56,7.56,0,0,1,1.68-5.09,5.85,5.85,0,0,1,7.22-1.25,4.77,4.77,0,0,1,1.87,2.13V29.45h1.8v13Zm-8.76-6.36A5.92,5.92,0,0,0,526.65,40a4,4,0,0,0,3.25,1.36,3.92,3.92,0,0,0,3.23-1.49,6.44,6.44,0,0,0,1.18-4.09A5.61,5.61,0,0,0,533.13,32a4,4,0,0,0-3.2-1.37,4,4,0,0,0-3.23,1.46A6.15,6.15,0,0,0,525.52,36.08Z"/><path d="M559.15,42.44V40.07a4.88,4.88,0,0,1-1.81,2.19,5,5,0,0,1-2.75.75,5.74,5.74,0,0,1-4.5-1.92A7.33,7.33,0,0,1,548.38,36a7.52,7.52,0,0,1,1.69-5.09,5.84,5.84,0,0,1,7.21-1.25,4.71,4.71,0,0,1,1.87,2.13V29.45H561v13Zm-8.76-6.36A6,6,0,0,0,551.52,40a4,4,0,0,0,3.25,1.36A3.91,3.91,0,0,0,558,39.84a6.44,6.44,0,0,0,1.18-4.09A5.6,5.6,0,0,0,558,32a4,4,0,0,0-3.21-1.37,3.93,3.93,0,0,0-3.22,1.46A6.1,6.1,0,0,0,550.39,36.08Z"/><path d="M564.31,40.13l1.71-1a3.39,3.39,0,0,0,1.23,1.63,3.49,3.49,0,0,0,2,.55,2.66,2.66,0,0,0,1.81-.58,1.94,1.94,0,0,0,.68-1.55c0-1-.89-1.84-2.65-2.53l-.44-.18a8,8,0,0,1-2.87-1.66,2.94,2.94,0,0,1-.83-2.12A3.51,3.51,0,0,1,566.11,30a4.32,4.32,0,0,1,3-1.06,5,5,0,0,1,2.69.68,4,4,0,0,1,1.63,2l-1.65.92a2.68,2.68,0,0,0-1-1.41,3.09,3.09,0,0,0-1.76-.48,2.19,2.19,0,0,0-1.54.55,1.76,1.76,0,0,0-.61,1.37,1.69,1.69,0,0,0,.6,1.33A8,8,0,0,0,570,35a6.71,6.71,0,0,1,2.88,1.63,3.66,3.66,0,0,1,.74,2.43,3.53,3.53,0,0,1-1.28,2.85A5.11,5.11,0,0,1,568.88,43a5.22,5.22,0,0,1-2.85-.75A4.22,4.22,0,0,1,564.31,40.13Z"/><path d="M588.4,36H578.07a6.34,6.34,0,0,0,1.26,4,3.92,3.92,0,0,0,3.18,1.44,4.19,4.19,0,0,0,2.52-.78,5.63,5.63,0,0,0,1.8-2.34l1.66.9a7.17,7.17,0,0,1-2.44,2.91,6.39,6.39,0,0,1-3.54.93,6,6,0,0,1-4.62-1.91,7.09,7.09,0,0,1-1.76-5,7.43,7.43,0,0,1,1.75-5.15,5.82,5.82,0,0,1,4.57-2,5.57,5.57,0,0,1,4.33,1.81,7,7,0,0,1,1.62,4.83Zm-2.14-1.54a4,4,0,0,0-1.18-2.77,4.07,4.07,0,0,0-2.86-1,3.92,3.92,0,0,0-2.75,1,4.23,4.23,0,0,0-1.28,2.73Z"/><path d="M590.67,40.13l1.72-1a3.39,3.39,0,0,0,1.23,1.63,3.44,3.44,0,0,0,2,.55,2.67,2.67,0,0,0,1.82-.58,1.94,1.94,0,0,0,.67-1.55c0-1-.88-1.84-2.65-2.53l-.44-.18a8.21,8.21,0,0,1-2.87-1.66,3,3,0,0,1-.82-2.12A3.5,3.5,0,0,1,592.47,30a4.37,4.37,0,0,1,3-1.06,5,5,0,0,1,2.69.68,4,4,0,0,1,1.63,2l-1.66.92a2.62,2.62,0,0,0-1-1.41,3.11,3.11,0,0,0-1.76-.48,2.21,2.21,0,0,0-1.55.55,1.78,1.78,0,0,0-.6,1.37,1.69,1.69,0,0,0,.6,1.33A8,8,0,0,0,596.33,35a6.66,6.66,0,0,1,2.87,1.63,3.6,3.6,0,0,1,.74,2.43,3.52,3.52,0,0,1-1.27,2.85A5.12,5.12,0,0,1,595.24,43a5.27,5.27,0,0,1-2.85-.75A4.28,4.28,0,0,1,590.67,40.13Z"/><path d="M609.51,43a6.62,6.62,0,0,1-2.67-.55,7.4,7.4,0,0,1-2.31-1.57A6.67,6.67,0,0,1,603,38.66a6.93,6.93,0,0,1-.52-2.69,7,7,0,0,1,.53-2.7A6.7,6.7,0,0,1,604.56,31a6.79,6.79,0,0,1,2.27-1.53,7,7,0,0,1,2.68-.53,7.18,7.18,0,0,1,2.73.53A6.85,6.85,0,0,1,614.55,31,6.83,6.83,0,0,1,616.63,36a6.91,6.91,0,0,1-.53,2.67,6.83,6.83,0,0,1-1.52,2.25,7.19,7.19,0,0,1-2.34,1.57A6.9,6.9,0,0,1,609.51,43Zm.06-1.68a4.84,4.84,0,0,0,3.62-1.55,5.59,5.59,0,0,0,0-7.59,5,5,0,0,0-7.25,0,5.61,5.61,0,0,0,0,7.59A4.82,4.82,0,0,0,609.57,41.33Z"/><path d="M622.15,32.06a8,8,0,0,1,2-2.39,3.66,3.66,0,0,1,2.23-.71,4,4,0,0,1,.77.08,6.69,6.69,0,0,1,.77.2l-.59,1.7a4,4,0,0,0-.6-.14,3.31,3.31,0,0,0-.61-.06,3.41,3.41,0,0,0-2.78,1.52,6.1,6.1,0,0,0-1.15,3.79v6.39h-1.8v-13h1.8Z"/><path d="M628.9,27.35,632,22.23h2.41l-4.15,5.12Zm1,15.09v-13h1.86v13Z"/><path d="M646.29,42.44V40.07a4.88,4.88,0,0,1-1.81,2.19,4.93,4.93,0,0,1-2.74.75,5.74,5.74,0,0,1-4.51-1.92,7.32,7.32,0,0,1-1.7-5.06,7.56,7.56,0,0,1,1.68-5.09,5.84,5.84,0,0,1,7.21-1.25,4.71,4.71,0,0,1,1.87,2.13V29.45h1.8v13Zm-8.76-6.36A5.92,5.92,0,0,0,638.67,40a4,4,0,0,0,3.24,1.36,3.89,3.89,0,0,0,3.23-1.49,6.38,6.38,0,0,0,1.18-4.09A5.6,5.6,0,0,0,645.15,32a4,4,0,0,0-3.21-1.37,3.93,3.93,0,0,0-3.22,1.46A6.15,6.15,0,0,0,637.53,36.08Z"/><path d="M68.84,74V71.67a4.71,4.71,0,0,1-4.56,2.94,5.72,5.72,0,0,1-4.5-1.92,7.34,7.34,0,0,1-1.71-5.07,7.54,7.54,0,0,1,1.68-5.08A5.85,5.85,0,0,1,67,61.29a4.77,4.77,0,0,1,1.87,2.13V61.05h1.8V74Zm-8.76-6.36a5.92,5.92,0,0,0,1.13,3.89,4,4,0,0,0,3.25,1.36,3.92,3.92,0,0,0,3.23-1.49,6.46,6.46,0,0,0,1.18-4.09,5.54,5.54,0,0,0-1.18-3.76,4,4,0,0,0-3.2-1.37,4,4,0,0,0-3.23,1.46A6.15,6.15,0,0,0,60.08,67.68Z"/><path d="M86.09,74H84.23V51.34h1.86Z"/><path d="M100.61,74V71.67a4.71,4.71,0,0,1-4.56,2.94,5.74,5.74,0,0,1-4.5-1.92,7.34,7.34,0,0,1-1.71-5.07,7.49,7.49,0,0,1,1.69-5.08,5.84,5.84,0,0,1,7.21-1.25,4.71,4.71,0,0,1,1.87,2.13V61.05h1.8V74Zm-8.76-6.36A6,6,0,0,0,93,71.57a4,4,0,0,0,3.25,1.36,3.91,3.91,0,0,0,3.23-1.49,6.46,6.46,0,0,0,1.18-4.09,5.59,5.59,0,0,0-1.17-3.76,4,4,0,0,0-3.21-1.37A3.93,3.93,0,0,0,93,63.68,6.1,6.1,0,0,0,91.85,67.68Z"/><path d="M116.31,74V62.59h-2.43V61.05h2.43V57.3c0-2.61.25-4.3.73-5.08a3,3,0,0,1,2.69-1.16,4.63,4.63,0,0,1,.92.08,4.31,4.31,0,0,1,.82.23L121.13,53a3.43,3.43,0,0,0-.68-.27,2.28,2.28,0,0,0-.61-.08,1.41,1.41,0,0,0-1.35.75,6.75,6.75,0,0,0-.39,2.78v4.92H121v1.54H118.1V74Z"/><path d="M133.25,74V71.67a4.71,4.71,0,0,1-4.56,2.94,5.71,5.71,0,0,1-4.5-1.92,7.34,7.34,0,0,1-1.71-5.07,7.54,7.54,0,0,1,1.68-5.08,5.85,5.85,0,0,1,7.22-1.25,4.77,4.77,0,0,1,1.87,2.13V61.05h1.8V74Zm-8.76-6.36a5.92,5.92,0,0,0,1.13,3.89,4,4,0,0,0,3.25,1.36,3.92,3.92,0,0,0,3.23-1.49,6.46,6.46,0,0,0,1.17-4.09,5.59,5.59,0,0,0-1.17-3.76,4,4,0,0,0-3.21-1.37,4,4,0,0,0-3.22,1.46A6.15,6.15,0,0,0,124.49,67.68Z"/><path d="M141.68,74h-1.8v-13h1.8v2a4.69,4.69,0,0,1,1.7-1.87,4.6,4.6,0,0,1,2.43-.65,4.33,4.33,0,0,1,2.43.66,4.11,4.11,0,0,1,1.54,1.91,5.35,5.35,0,0,1,1.91-1.93,5.27,5.27,0,0,1,2.62-.64,4.24,4.24,0,0,1,3.25,1.26,4.79,4.79,0,0,1,1.19,3.43V74H157V66a4.49,4.49,0,0,0-.79-2.87,2.81,2.81,0,0,0-2.33-1,3.16,3.16,0,0,0-2.74,1.22,6.7,6.7,0,0,0-.87,3.85V74h-1.78V66a4.62,4.62,0,0,0-.75-2.92,2.82,2.82,0,0,0-2.32-.92,3.2,3.2,0,0,0-2.79,1.23,6.55,6.55,0,0,0-.9,3.84Z"/><path d="M163.22,56a1.27,1.27,0,0,1,.41-1,1.34,1.34,0,0,1,1-.41,1.38,1.38,0,0,1,1,.41,1.27,1.27,0,0,1,.41,1,1.3,1.3,0,0,1-.4,1,1.44,1.44,0,0,1-2,0A1.3,1.3,0,0,1,163.22,56ZM163.67,74v-13h1.86V74Z"/><path d="M172.43,74h-1.86V51.34h1.86Z"/><path d="M177,56a1.27,1.27,0,0,1,.41-1,1.38,1.38,0,0,1,2,0,1.28,1.28,0,0,1,.42,1,1.3,1.3,0,0,1-.4,1,1.44,1.44,0,0,1-2,0A1.3,1.3,0,0,1,177,56ZM177.47,74v-13h1.86V74Z"/><path d="M193.85,74V71.67a4.71,4.71,0,0,1-4.56,2.94,5.72,5.72,0,0,1-4.5-1.92,7.34,7.34,0,0,1-1.71-5.07,7.54,7.54,0,0,1,1.68-5.08A5.85,5.85,0,0,1,192,61.29a4.77,4.77,0,0,1,1.87,2.13V61.05h1.8V74Zm-8.76-6.36a5.92,5.92,0,0,0,1.13,3.89,4,4,0,0,0,3.25,1.36,3.92,3.92,0,0,0,3.23-1.49,6.46,6.46,0,0,0,1.18-4.09,5.59,5.59,0,0,0-1.18-3.76,4,4,0,0,0-3.2-1.37,4,4,0,0,0-3.23,1.46A6.15,6.15,0,0,0,185.09,67.68Z"/><path d="M218.75,74V71.67a4.64,4.64,0,0,1-4.53,2.94,5.72,5.72,0,0,1-4.5-1.92A7.34,7.34,0,0,1,208,67.62a7.49,7.49,0,0,1,1.69-5.08,5.83,5.83,0,0,1,7.2-1.25,4.79,4.79,0,0,1,1.85,2.13V51.34h1.83V74ZM210,67.68a6,6,0,0,0,1.13,3.89,4,4,0,0,0,3.25,1.36,3.88,3.88,0,0,0,3.21-1.49,6.46,6.46,0,0,0,1.17-4.09,5.64,5.64,0,0,0-1.16-3.76,4.35,4.35,0,0,0-6.42.09A6.15,6.15,0,0,0,210,67.68Z"/><path d="M236.52,67.6H226.19a6.34,6.34,0,0,0,1.26,4A3.91,3.91,0,0,0,230.63,73a4.19,4.19,0,0,0,2.52-.78,5.8,5.8,0,0,0,1.8-2.34l1.65.9a7.15,7.15,0,0,1-2.43,2.91,6.44,6.44,0,0,1-3.54.93A6,6,0,0,1,226,72.7a7.09,7.09,0,0,1-1.77-5A7.43,7.43,0,0,1,226,62.53a5.85,5.85,0,0,1,4.58-2,5.53,5.53,0,0,1,4.32,1.81,6.94,6.94,0,0,1,1.63,4.83Zm-2.14-1.54a4,4,0,0,0-1.19-2.77,4,4,0,0,0-2.85-1,3.9,3.9,0,0,0-2.75,1,4.12,4.12,0,0,0-1.28,2.73Z"/><path d="M250.89,74H249V51.34h1.86Z"/><path d="M265.4,74V71.67a4.71,4.71,0,0,1-4.55,2.94,5.74,5.74,0,0,1-4.51-1.92,7.38,7.38,0,0,1-1.7-5.07,7.54,7.54,0,0,1,1.68-5.08,5.44,5.44,0,0,1,4.35-2,5.51,5.51,0,0,1,2.87.73,4.75,4.75,0,0,1,1.86,2.13V61.05h1.81V74Zm-8.76-6.36a5.92,5.92,0,0,0,1.14,3.89A4,4,0,0,0,261,72.93a3.89,3.89,0,0,0,3.23-1.49,6.4,6.4,0,0,0,1.18-4.09,5.59,5.59,0,0,0-1.17-3.76,4,4,0,0,0-3.21-1.37,4,4,0,0,0-3.22,1.46A6.15,6.15,0,0,0,256.64,67.68Z"/><path d="M278.73,61.05h2l4,9.84,4-9.84h2l-6,13.83Z"/><path d="M292.59,59l3.12-5.12h2.4L294,59Zm1,15.09v-13h1.86V74Z"/><path d="M310.49,63.42a6.9,6.9,0,0,0-1.93-.94,7.2,7.2,0,0,0-2.11-.32,5,5,0,0,0-3.85,1.55,5.79,5.79,0,0,0-1.44,4.12,5.08,5.08,0,0,0,1.49,3.76,5.15,5.15,0,0,0,3.8,1.48,6.71,6.71,0,0,0,2.13-.36,8.59,8.59,0,0,0,2.12-1.1v2a8,8,0,0,1-2.11.81,10.9,10.9,0,0,1-2.48.27,6.5,6.5,0,0,1-4.88-2,6.86,6.86,0,0,1-1.9-5,6.81,6.81,0,0,1,7.15-7.15,10.31,10.31,0,0,1,2.2.23,7.38,7.38,0,0,1,1.84.65Z"/><path d="M314.45,62.59h-2.39V61.05h2.39V55.72h1.77v5.33h2.61v1.54h-2.61V74h-1.77Z"/><path d="M321.17,56a1.31,1.31,0,0,1,.41-1,1.34,1.34,0,0,1,1-.41,1.38,1.38,0,0,1,1,.41,1.28,1.28,0,0,1,.42,1,1.34,1.34,0,0,1-.4,1,1.41,1.41,0,0,1-1,.4,1.38,1.38,0,0,1-1-.4A1.3,1.3,0,0,1,321.17,56ZM321.62,74v-13h1.86V74Z"/><path d="M330.21,74h-1.8v-13h1.8v2a4.62,4.62,0,0,1,1.7-1.87,4.55,4.55,0,0,1,2.43-.65,4.29,4.29,0,0,1,2.42.66,4.13,4.13,0,0,1,1.55,1.91,4.95,4.95,0,0,1,4.53-2.57,4.26,4.26,0,0,1,3.25,1.26,4.78,4.78,0,0,1,1.18,3.43V74h-1.8V66a4.49,4.49,0,0,0-.78-2.87,2.81,2.81,0,0,0-2.34-1,3.13,3.13,0,0,0-2.73,1.22,6.7,6.7,0,0,0-.87,3.85V74H337V66a4.62,4.62,0,0,0-.75-2.92,2.8,2.8,0,0,0-2.31-.92,3.23,3.23,0,0,0-2.8,1.23,6.63,6.63,0,0,0-.89,3.84Z"/><path d="M361.67,74V71.67a4.71,4.71,0,0,1-4.55,2.94,5.74,5.74,0,0,1-4.51-1.92,7.38,7.38,0,0,1-1.7-5.07,7.54,7.54,0,0,1,1.68-5.08,5.44,5.44,0,0,1,4.35-2,5.51,5.51,0,0,1,2.87.73,4.75,4.75,0,0,1,1.86,2.13V61.05h1.81V74Zm-8.76-6.36a5.92,5.92,0,0,0,1.14,3.89,4,4,0,0,0,3.24,1.36,3.89,3.89,0,0,0,3.23-1.49,6.4,6.4,0,0,0,1.18-4.09,5.59,5.59,0,0,0-1.17-3.76,4,4,0,0,0-3.21-1.37,4,4,0,0,0-3.22,1.46A6.15,6.15,0,0,0,352.91,67.68Z"/><path d="M368.73,72.81a1.44,1.44,0,0,1,.44-1.06,1.42,1.42,0,0,1,1.06-.43,1.49,1.49,0,1,1,0,3,1.42,1.42,0,0,1-1.06-.43A1.44,1.44,0,0,1,368.73,72.81Z"/></svg>