<svg id="fondos" xmlns="http://www.w3.org/2000/svg" viewBox="0 0 838.12 100.16"><defs><style>.cls-1{fill:#e6e6e6;}</style></defs><title>gaula4</title><rect class="cls-1" width="838.12" height="100.16"/><path d="M72.53,43.75H70.15L62.63,33.53H61.45V43.75H59.51V22.31h3.94a8,8,0,0,1,5.22,1.45,5.39,5.39,0,0,1,1.73,4.39,5.21,5.21,0,0,1-1.48,3.94,5.65,5.65,0,0,1-4.1,1.44ZM61.45,24v7.92h2a6.22,6.22,0,0,0,3.8-.87,3.63,3.63,0,0,0,1.07-3A3.91,3.91,0,0,0,67.18,25,5.85,5.85,0,0,0,63.42,24Z"/><path d="M85.71,37.31H75.38a6.31,6.31,0,0,0,1.26,3.95,3.91,3.91,0,0,0,3.18,1.44,4.19,4.19,0,0,0,2.52-.78,5.58,5.58,0,0,0,1.8-2.34l1.66.91a7.17,7.17,0,0,1-2.44,2.91,6.39,6.39,0,0,1-3.54.93,6,6,0,0,1-4.62-1.91,7.1,7.1,0,0,1-1.76-5,7.45,7.45,0,0,1,1.75-5.16,5.82,5.82,0,0,1,4.57-2,5.54,5.54,0,0,1,4.33,1.81,6.94,6.94,0,0,1,1.62,4.82Zm-2.14-1.54a3.71,3.71,0,0,0-4-3.75,3.88,3.88,0,0,0-2.75,1,4.19,4.19,0,0,0-1.28,2.72Z"/><path d="M99.06,43.75V41.38a4.74,4.74,0,0,1-4.56,2.95A5.72,5.72,0,0,1,90,42.41a7.34,7.34,0,0,1-1.71-5.07A7.56,7.56,0,0,1,90,32.25,5.89,5.89,0,0,1,97.19,31a4.88,4.88,0,0,1,1.87,2.13V30.76h1.8v13ZM90.3,37.4a5.89,5.89,0,0,0,1.13,3.88,4,4,0,0,0,3.25,1.36,3.91,3.91,0,0,0,3.23-1.48,6.49,6.49,0,0,0,1.18-4.1,5.63,5.63,0,0,0-1.18-3.76,4,4,0,0,0-3.2-1.37,4,4,0,0,0-3.23,1.46A6.18,6.18,0,0,0,90.3,37.4Z"/><path d="M107.67,43.75h-1.86V21.05h1.86Z"/><path d="M112.25,25.69a1.32,1.32,0,0,1,.41-1,1.37,1.37,0,0,1,1-.4,1.34,1.34,0,0,1,1,.4,1.36,1.36,0,0,1,0,2,1.44,1.44,0,0,1-2,0A1.31,1.31,0,0,1,112.25,25.69Zm.46,18.06v-13h1.86v13Z"/><path d="M117.43,43.75l7.25-11.36h-6.76V30.76h9.88l-7.2,11.37H128v1.62Z"/><path d="M140.51,43.75V41.38a4.88,4.88,0,0,1-1.81,2.19,4.94,4.94,0,0,1-2.74.76,5.74,5.74,0,0,1-4.51-1.92,7.34,7.34,0,0,1-1.71-5.07,7.57,7.57,0,0,1,1.69-5.09A5.88,5.88,0,0,1,138.64,31a4.82,4.82,0,0,1,1.87,2.13V30.76h1.8v13Zm-8.76-6.35a5.89,5.89,0,0,0,1.14,3.88,4,4,0,0,0,3.24,1.36,3.9,3.9,0,0,0,3.23-1.48,6.43,6.43,0,0,0,1.18-4.1,5.62,5.62,0,0,0-1.17-3.76,4,4,0,0,0-3.21-1.37,3.93,3.93,0,0,0-3.22,1.46A6.18,6.18,0,0,0,131.75,37.4Z"/><path d="M149,33.37a8,8,0,0,1,2-2.39,3.69,3.69,0,0,1,2.24-.7,4.08,4.08,0,0,1,.77.07,5.51,5.51,0,0,1,.77.21l-.59,1.7a6,6,0,0,0-.61-.15,3.23,3.23,0,0,0-.61-.06,3.39,3.39,0,0,0-2.77,1.52,6.11,6.11,0,0,0-1.15,3.8v6.38h-1.8v-13H149Z"/><path d="M167.22,43.75h-1.87V21.05h1.87Z"/><path d="M181.73,43.75V41.38a4.88,4.88,0,0,1-1.81,2.19,4.94,4.94,0,0,1-2.74.76,5.74,5.74,0,0,1-4.51-1.92,7.33,7.33,0,0,1-1.7-5.07,7.56,7.56,0,0,1,1.68-5.09A5.88,5.88,0,0,1,179.86,31a4.82,4.82,0,0,1,1.87,2.13V30.76h1.8v13ZM173,37.4a5.89,5.89,0,0,0,1.14,3.88,4,4,0,0,0,3.24,1.36,3.88,3.88,0,0,0,3.23-1.48,6.43,6.43,0,0,0,1.18-4.1,5.62,5.62,0,0,0-1.17-3.76,4,4,0,0,0-3.21-1.37,3.93,3.93,0,0,0-3.22,1.46A6.18,6.18,0,0,0,173,37.4Z"/><path d="M202.91,44.33a6.78,6.78,0,0,1-2.66-.55,7.59,7.59,0,0,1-2.32-1.58A6.53,6.53,0,0,1,196.44,40a7.13,7.13,0,0,1-.51-2.7,6.93,6.93,0,0,1,.52-2.69,7,7,0,0,1,3.78-3.78,6.82,6.82,0,0,1,2.68-.53,7.15,7.15,0,0,1,5,2,6.85,6.85,0,0,1,1.55,2.27,7,7,0,0,1,.53,2.68,6.87,6.87,0,0,1-.52,2.67A6.76,6.76,0,0,1,208,42.2a7.14,7.14,0,0,1-5.07,2.13Zm.06-1.69a4.84,4.84,0,0,0,3.63-1.54,5.62,5.62,0,0,0,0-7.6,5,5,0,0,0-7.25,0,5.62,5.62,0,0,0,0,7.6A4.83,4.83,0,0,0,203,42.64Z"/><path d="M215.56,33.37A8,8,0,0,1,217.51,31a3.66,3.66,0,0,1,2.23-.7,4,4,0,0,1,.77.07,5.16,5.16,0,0,1,.77.21l-.58,1.7a6,6,0,0,0-.61-.15,3.23,3.23,0,0,0-.61-.06,3.42,3.42,0,0,0-2.78,1.52,6.17,6.17,0,0,0-1.14,3.8v6.38h-1.81v-13h1.81Z"/><path d="M222.86,25.69a1.32,1.32,0,0,1,.41-1,1.37,1.37,0,0,1,1-.4,1.34,1.34,0,0,1,1,.4,1.36,1.36,0,0,1,0,2,1.44,1.44,0,0,1-2,0A1.31,1.31,0,0,1,222.86,25.69Zm.46,18.06v-13h1.86v13Z"/><path d="M241.26,37.31H230.94a6.19,6.19,0,0,0,1.26,3.95,3.9,3.9,0,0,0,3.17,1.44,4.19,4.19,0,0,0,2.52-.78,5.6,5.6,0,0,0,1.81-2.34l1.65.91a7.17,7.17,0,0,1-2.44,2.91,6.39,6.39,0,0,1-3.54.93,6,6,0,0,1-4.62-1.91,7.15,7.15,0,0,1-1.76-5,7.45,7.45,0,0,1,1.75-5.16,5.82,5.82,0,0,1,4.58-2,5.53,5.53,0,0,1,4.32,1.81,6.94,6.94,0,0,1,1.62,4.82Zm-2.14-1.54A4,4,0,0,0,237.94,33a4.07,4.07,0,0,0-2.86-1,3.84,3.84,0,0,0-2.74,1,4.15,4.15,0,0,0-1.29,2.72Z"/><path d="M245,43.75v-13h1.72v2a5.25,5.25,0,0,1,1.94-1.87,5.5,5.5,0,0,1,2.64-.62A4.27,4.27,0,0,1,256,34.94v8.81h-1.83v-8a4.35,4.35,0,0,0-.81-2.89,3.14,3.14,0,0,0-2.51-1,3.64,3.64,0,0,0-3,1.23,6.12,6.12,0,0,0-1,3.84v6.78Z"/><path d="M261,32.3h-2.38V30.76H261V25.43h1.78v5.33h2.6V32.3h-2.6V43.75H261Z"/><path d="M277.68,43.75V41.38a4.88,4.88,0,0,1-1.81,2.19,5,5,0,0,1-2.75.76,5.74,5.74,0,0,1-4.5-1.92,7.34,7.34,0,0,1-1.71-5.07,7.52,7.52,0,0,1,1.69-5.09A5.88,5.88,0,0,1,275.81,31a4.82,4.82,0,0,1,1.87,2.13V30.76h1.8v13Zm-8.76-6.35a5.89,5.89,0,0,0,1.14,3.88,4,4,0,0,0,3.24,1.36,3.9,3.9,0,0,0,3.23-1.48,6.49,6.49,0,0,0,1.18-4.1,5.62,5.62,0,0,0-1.17-3.76,4,4,0,0,0-3.21-1.37,3.93,3.93,0,0,0-3.22,1.46A6.13,6.13,0,0,0,268.92,37.4Z"/><path d="M294.42,33.13a6.9,6.9,0,0,0-1.93-.94,7.14,7.14,0,0,0-2.11-.31,5,5,0,0,0-3.85,1.54,5.81,5.81,0,0,0-1.44,4.12,5.08,5.08,0,0,0,5.29,5.25,6.46,6.46,0,0,0,2.13-.37,8.26,8.26,0,0,0,2.12-1.1v2a8,8,0,0,1-2.11.81,10.9,10.9,0,0,1-2.48.27,6.53,6.53,0,0,1-4.88-2,6.86,6.86,0,0,1-1.9-5,6.79,6.79,0,0,1,7.15-7.15,10.32,10.32,0,0,1,2.2.22,7.38,7.38,0,0,1,1.84.66Z"/><path d="M297.66,25.69a1.38,1.38,0,0,1,1.39-1.37,1.37,1.37,0,0,1,1,.4,1.3,1.3,0,0,1,.42,1,1.34,1.34,0,0,1-.4,1,1.37,1.37,0,0,1-1,.4,1.34,1.34,0,0,1-1-.4A1.3,1.3,0,0,1,297.66,25.69Zm.45,18.06v-13H300v13Z"/><path d="M310.8,44.33a6.79,6.79,0,0,1-2.67-.55,7.43,7.43,0,0,1-2.31-1.58,6.56,6.56,0,0,1-1.5-2.22,7.13,7.13,0,0,1-.51-2.7,6.94,6.94,0,0,1,.53-2.69,6.75,6.75,0,0,1,1.51-2.26,6.92,6.92,0,0,1,2.27-1.52,6.78,6.78,0,0,1,2.68-.53,7,7,0,0,1,2.73.53,7.08,7.08,0,0,1,2.31,1.52A6.95,6.95,0,0,1,317.39,40a6.73,6.73,0,0,1-1.52,2.25,7.33,7.33,0,0,1-2.34,1.58A7.08,7.08,0,0,1,310.8,44.33Zm.06-1.69a4.83,4.83,0,0,0,3.62-1.54,5.6,5.6,0,0,0,0-7.6,5,5,0,0,0-7.25,0,5.62,5.62,0,0,0,0,7.6A4.82,4.82,0,0,0,310.86,42.64Zm-1.95-14L312,23.54h2.4l-4.14,5.13Z"/><path d="M321.64,43.75v-13h1.71v2a5.4,5.4,0,0,1,1.94-1.87,5.54,5.54,0,0,1,2.65-.62,4.27,4.27,0,0,1,4.67,4.66v8.81h-1.83v-8a4.35,4.35,0,0,0-.81-2.89,3.16,3.16,0,0,0-2.52-1,3.65,3.65,0,0,0-3,1.23,6.19,6.19,0,0,0-1,3.84v6.78Z"/><path d="M355.54,43.75V41.38A4.7,4.7,0,0,1,351,44.33a5.71,5.71,0,0,1-4.5-1.92,7.34,7.34,0,0,1-1.71-5.07,7.56,7.56,0,0,1,1.68-5.09,5.49,5.49,0,0,1,4.35-2,5.39,5.39,0,0,1,2.85.72,4.86,4.86,0,0,1,1.86,2.13V21.05h1.83v22.7Zm-8.73-6.35a5.89,5.89,0,0,0,1.13,3.88,4,4,0,0,0,3.24,1.36,3.86,3.86,0,0,0,3.21-1.48,6.49,6.49,0,0,0,1.17-4.1,5.67,5.67,0,0,0-1.15-3.76,4.35,4.35,0,0,0-6.42.09A6.18,6.18,0,0,0,346.81,37.4Z"/><path d="M373.3,37.31H363a6.31,6.31,0,0,0,1.26,3.95,3.91,3.91,0,0,0,3.18,1.44,4.18,4.18,0,0,0,2.51-.78,5.6,5.6,0,0,0,1.81-2.34l1.65.91A7.17,7.17,0,0,1,371,43.4a6.38,6.38,0,0,1-3.53.93,6,6,0,0,1-4.63-1.91,7.15,7.15,0,0,1-1.76-5,7.45,7.45,0,0,1,1.75-5.16,5.84,5.84,0,0,1,4.58-2,5.53,5.53,0,0,1,4.32,1.81,6.94,6.94,0,0,1,1.62,4.82Zm-2.13-1.54A3.72,3.72,0,0,0,367.12,32a3.84,3.84,0,0,0-2.74,1,4.15,4.15,0,0,0-1.29,2.72Z"/><path d="M387.67,43.75h-1.86V21.05h1.86Z"/><path d="M402.19,43.75V41.38a4.88,4.88,0,0,1-1.81,2.19,4.94,4.94,0,0,1-2.74.76,5.74,5.74,0,0,1-4.51-1.92,7.34,7.34,0,0,1-1.71-5.07,7.57,7.57,0,0,1,1.69-5.09A5.88,5.88,0,0,1,400.32,31a4.82,4.82,0,0,1,1.87,2.13V30.76H404v13Zm-8.76-6.35a5.89,5.89,0,0,0,1.14,3.88,4,4,0,0,0,3.24,1.36A3.9,3.9,0,0,0,401,41.16a6.43,6.43,0,0,0,1.18-4.1,5.62,5.62,0,0,0-1.17-3.76,4,4,0,0,0-3.21-1.37,3.93,3.93,0,0,0-3.22,1.46A6.18,6.18,0,0,0,393.43,37.4Z"/><path d="M417.47,43.75v-13h1.71v2a5.4,5.4,0,0,1,1.94-1.87,5.54,5.54,0,0,1,2.65-.62,4.27,4.27,0,0,1,4.67,4.66v8.81h-1.83v-8a4.35,4.35,0,0,0-.81-2.89,3.16,3.16,0,0,0-2.52-1,3.65,3.65,0,0,0-3,1.23,6.19,6.19,0,0,0-1,3.84v6.78Z"/><path d="M444.26,37.31H433.93a6.31,6.31,0,0,0,1.26,3.95,3.91,3.91,0,0,0,3.18,1.44,4.19,4.19,0,0,0,2.52-.78,5.58,5.58,0,0,0,1.8-2.34l1.66.91a7.25,7.25,0,0,1-2.44,2.91,6.39,6.39,0,0,1-3.54.93,6,6,0,0,1-4.62-1.91,7.1,7.1,0,0,1-1.76-5,7.45,7.45,0,0,1,1.75-5.16,5.82,5.82,0,0,1,4.57-2,5.54,5.54,0,0,1,4.33,1.81,6.94,6.94,0,0,1,1.62,4.82Zm-2.14-1.54a3.71,3.71,0,0,0-4-3.75,3.88,3.88,0,0,0-2.75,1,4.19,4.19,0,0,0-1.28,2.72Z"/><path d="M459.44,30.76V41.5c0,1.71-.05,3-.14,3.91a6.63,6.63,0,0,1-.46,2,4.52,4.52,0,0,1-2.07,2.16,7.75,7.75,0,0,1-3.51.71,7,7,0,0,1-4-1,4.25,4.25,0,0,1-1.75-3h2.26a2.6,2.6,0,0,0,1.14,1.81,4.55,4.55,0,0,0,2.53.62,5.18,5.18,0,0,0,2.16-.43A3.23,3.23,0,0,0,457,47.08a3.52,3.52,0,0,0,.46-1.12,10.33,10.33,0,0,0,.14-2V41.35a4.82,4.82,0,0,1-1.84,2.19,5.23,5.23,0,0,1-2.84.79,5.48,5.48,0,0,1-4.37-1.91,7.57,7.57,0,0,1-1.63-5.11,7.51,7.51,0,0,1,1.67-5.11A5.56,5.56,0,0,1,453,30.28a5.08,5.08,0,0,1,2.79.8,4.49,4.49,0,0,1,1.8,2.11V30.76Zm-6.21,1.17A3.89,3.89,0,0,0,450,33.38a6.11,6.11,0,0,0-1.16,4,6.11,6.11,0,0,0,1.1,3.9,3.68,3.68,0,0,0,3.07,1.4,4.12,4.12,0,0,0,3.33-1.48,5.92,5.92,0,0,0,1.26-4,5.79,5.79,0,0,0-1.18-3.85A4,4,0,0,0,453.23,31.93Z"/><path d="M470.14,44.33a6.78,6.78,0,0,1-2.66-.55,7.59,7.59,0,0,1-2.32-1.58A6.53,6.53,0,0,1,463.67,40a7.13,7.13,0,0,1-.51-2.7,6.93,6.93,0,0,1,.52-2.69,7,7,0,0,1,3.78-3.78,6.82,6.82,0,0,1,2.68-.53,7.11,7.11,0,0,1,5,2,6.85,6.85,0,0,1,1.55,2.27,6.78,6.78,0,0,1,.53,2.68,6.87,6.87,0,0,1-.52,2.67,6.62,6.62,0,0,1-1.53,2.25,7.1,7.1,0,0,1-5.07,2.13Zm.06-1.69a4.84,4.84,0,0,0,3.63-1.54,5.6,5.6,0,0,0,0-7.6A4.88,4.88,0,0,0,470.2,32a4.83,4.83,0,0,0-3.61,1.54,5.62,5.62,0,0,0,0,7.6A4.79,4.79,0,0,0,470.2,42.64Z"/><path d="M491.09,33.13a6.9,6.9,0,0,0-1.93-.94,7.14,7.14,0,0,0-2.11-.31,5,5,0,0,0-3.85,1.54,5.81,5.81,0,0,0-1.44,4.12,5.08,5.08,0,0,0,5.29,5.25,6.46,6.46,0,0,0,2.13-.37,8.26,8.26,0,0,0,2.12-1.1v2a8,8,0,0,1-2.11.81,10.9,10.9,0,0,1-2.48.27,6.53,6.53,0,0,1-4.88-2,6.86,6.86,0,0,1-1.9-5,6.79,6.79,0,0,1,7.15-7.15,10.32,10.32,0,0,1,2.2.22,7.38,7.38,0,0,1,1.84.66Z"/><path d="M494.33,25.69a1.38,1.38,0,0,1,1.39-1.37,1.37,1.37,0,0,1,1,.4,1.3,1.3,0,0,1,.42,1,1.34,1.34,0,0,1-.4,1,1.37,1.37,0,0,1-1,.4,1.34,1.34,0,0,1-1-.4A1.3,1.3,0,0,1,494.33,25.69Zm.45,18.06v-13h1.86v13Z"/><path d="M511.16,43.75V41.38a4.88,4.88,0,0,1-1.81,2.19,5,5,0,0,1-2.75.76,5.74,5.74,0,0,1-4.5-1.92,7.34,7.34,0,0,1-1.71-5.07,7.57,7.57,0,0,1,1.69-5.09A5.88,5.88,0,0,1,509.29,31a4.82,4.82,0,0,1,1.87,2.13V30.76H513v13ZM502.4,37.4a5.89,5.89,0,0,0,1.14,3.88,4,4,0,0,0,3.24,1.36A3.9,3.9,0,0,0,510,41.16a6.43,6.43,0,0,0,1.18-4.1A5.62,5.62,0,0,0,510,33.3a4,4,0,0,0-3.21-1.37,3.93,3.93,0,0,0-3.22,1.46A6.18,6.18,0,0,0,502.4,37.4Z"/><path d="M527.9,33.13a6.9,6.9,0,0,0-1.93-.94,7.14,7.14,0,0,0-2.11-.31A5,5,0,0,0,520,33.42a5.81,5.81,0,0,0-1.44,4.12,5.08,5.08,0,0,0,5.29,5.25,6.46,6.46,0,0,0,2.13-.37,8.1,8.1,0,0,0,2.12-1.1v2a8,8,0,0,1-2.11.81,10.9,10.9,0,0,1-2.48.27,6.51,6.51,0,0,1-4.87-2,6.86,6.86,0,0,1-1.91-5,6.81,6.81,0,0,1,7.15-7.15,10.42,10.42,0,0,1,2.21.22,7.31,7.31,0,0,1,1.83.66Z"/><path d="M531.14,25.69a1.38,1.38,0,0,1,1.39-1.37,1.37,1.37,0,0,1,1,.4,1.3,1.3,0,0,1,.42,1,1.34,1.34,0,0,1-.4,1,1.37,1.37,0,0,1-1,.4,1.34,1.34,0,0,1-1-.4A1.3,1.3,0,0,1,531.14,25.69Zm.46,18.06v-13h1.86v13Z"/><path d="M544.28,44.33a6.79,6.79,0,0,1-2.67-.55,7.55,7.55,0,0,1-2.31-1.58A6.53,6.53,0,0,1,537.81,40a7,7,0,0,1,3.79-9.17,6.78,6.78,0,0,1,2.68-.53,7,7,0,0,1,7.12,7,6.88,6.88,0,0,1-.53,2.67,6.73,6.73,0,0,1-1.52,2.25,7.14,7.14,0,0,1-5.07,2.13Zm.06-1.69A4.85,4.85,0,0,0,548,41.1a5.62,5.62,0,0,0,0-7.6,5,5,0,0,0-7.25,0,5.62,5.62,0,0,0,0,7.6A4.82,4.82,0,0,0,544.34,42.64Zm-2-14,3.12-5.13h2.4l-4.14,5.13Z"/><path d="M555.12,43.75v-13h1.71v2a5.4,5.4,0,0,1,1.94-1.87,5.54,5.54,0,0,1,2.65-.62,4.27,4.27,0,0,1,4.67,4.66v8.81h-1.83v-8a4.35,4.35,0,0,0-.81-2.89,3.14,3.14,0,0,0-2.51-1,3.64,3.64,0,0,0-3,1.23,6.12,6.12,0,0,0-1,3.84v6.78Z"/><path d="M590.56,37.31H580.23a6.31,6.31,0,0,0,1.26,3.95,3.91,3.91,0,0,0,3.18,1.44,4.23,4.23,0,0,0,2.52-.78,5.66,5.66,0,0,0,1.8-2.34l1.65.91a7.09,7.09,0,0,1-2.44,2.91,6.38,6.38,0,0,1-3.53.93,6,6,0,0,1-4.62-1.91,7.11,7.11,0,0,1-1.77-5A7.45,7.45,0,0,1,580,32.24a5.84,5.84,0,0,1,4.58-2,5.52,5.52,0,0,1,4.32,1.81,6.94,6.94,0,0,1,1.63,4.82Zm-2.14-1.54a3.72,3.72,0,0,0-4-3.75,3.84,3.84,0,0,0-2.74,1,4.09,4.09,0,0,0-1.28,2.72Z"/><path d="M594.31,43.75v-13H596v2A5.32,5.32,0,0,1,598,30.9a5.53,5.53,0,0,1,2.64-.62,4.27,4.27,0,0,1,4.68,4.66v8.81h-1.83v-8a4.35,4.35,0,0,0-.82-2.89,3.14,3.14,0,0,0-2.51-1,3.64,3.64,0,0,0-3,1.23,6.12,6.12,0,0,0-1,3.84v6.78Z"/><path d="M610.32,32.3h-2.39V30.76h2.39V25.43h1.77v5.33h2.61V32.3h-2.61V43.75h-1.77Z"/><path d="M619.18,33.37a8,8,0,0,1,2-2.39,3.69,3.69,0,0,1,2.24-.7,4.08,4.08,0,0,1,.77.07,5.91,5.91,0,0,1,.77.21l-.59,1.7a6,6,0,0,0-.61-.15,3.23,3.23,0,0,0-.61-.06,3.39,3.39,0,0,0-2.77,1.52,6.11,6.11,0,0,0-1.15,3.8v6.38h-1.8v-13h1.8Z"/><path d="M638,37.31H627.66a6.31,6.31,0,0,0,1.26,3.95,3.91,3.91,0,0,0,3.18,1.44,4.21,4.21,0,0,0,2.52-.78,5.66,5.66,0,0,0,1.8-2.34l1.65.91a7.15,7.15,0,0,1-2.43,2.91,6.44,6.44,0,0,1-3.54.93,6,6,0,0,1-4.62-1.91,7.11,7.11,0,0,1-1.77-5,7.45,7.45,0,0,1,1.75-5.16,5.84,5.84,0,0,1,4.58-2,5.5,5.5,0,0,1,4.32,1.81A6.94,6.94,0,0,1,638,36.91Zm-2.14-1.54A4.07,4.07,0,0,0,634.66,33a4,4,0,0,0-2.85-1,3.86,3.86,0,0,0-2.75,1,4.09,4.09,0,0,0-1.28,2.72Z"/><path d="M61.22,75.35H59.36V52.65h1.86Z"/><path d="M75.74,75.35V73a5,5,0,0,1-1.81,2.19,5,5,0,0,1-2.75.76A5.71,5.71,0,0,1,66.68,74,7.34,7.34,0,0,1,65,68.94a7.56,7.56,0,0,1,1.68-5.09,5.89,5.89,0,0,1,7.22-1.25,4.88,4.88,0,0,1,1.87,2.13V62.36h1.8v13ZM67,69a5.89,5.89,0,0,0,1.13,3.88,4,4,0,0,0,3.25,1.36,3.89,3.89,0,0,0,3.23-1.49,6.44,6.44,0,0,0,1.18-4.09,5.63,5.63,0,0,0-1.18-3.76,4,4,0,0,0-3.2-1.37A4,4,0,0,0,68.16,65,6.18,6.18,0,0,0,67,69Z"/><path d="M80.89,73l1.72-1a3.19,3.19,0,0,0,3.2,2.18,2.67,2.67,0,0,0,1.82-.58,1.92,1.92,0,0,0,.67-1.54c0-1-.88-1.84-2.65-2.54l-.44-.17a8.37,8.37,0,0,1-2.87-1.66,3,3,0,0,1-.82-2.12,3.5,3.5,0,0,1,1.17-2.72,4.37,4.37,0,0,1,3-1.06,5,5,0,0,1,2.69.69,4,4,0,0,1,1.63,2l-1.66.92a2.59,2.59,0,0,0-1-1.4,3,3,0,0,0-1.76-.49,2.26,2.26,0,0,0-1.55.55,1.8,1.8,0,0,0-.6,1.37,1.72,1.72,0,0,0,.6,1.34,8.09,8.09,0,0,0,2.49,1.15,6.66,6.66,0,0,1,2.87,1.63A3.6,3.6,0,0,1,90.16,72a3.55,3.55,0,0,1-1.27,2.86,5.18,5.18,0,0,1-3.43,1.07,5.27,5.27,0,0,1-2.85-.76A4.23,4.23,0,0,1,80.89,73Z"/><path d="M100.52,62.36h2l4,9.85,4-9.85h2l-6,13.83Z"/><path d="M114.38,60.27l3.12-5.13h2.4l-4.14,5.13Zm1,15.08v-13h1.86v13Z"/><path d="M132.28,64.73a7,7,0,0,0-1.93-.94,7.2,7.2,0,0,0-2.11-.32A5,5,0,0,0,124.38,65,5.83,5.83,0,0,0,123,69.14a5.09,5.09,0,0,0,1.48,3.77,5.21,5.21,0,0,0,3.81,1.48,6.46,6.46,0,0,0,2.13-.37,8.05,8.05,0,0,0,2.11-1.1v2a7.71,7.71,0,0,1-2.11.81,10.81,10.81,0,0,1-2.47.27A6.53,6.53,0,0,1,123,74a6.86,6.86,0,0,1-1.9-5,6.79,6.79,0,0,1,7.15-7.15,10.32,10.32,0,0,1,2.2.22,7.38,7.38,0,0,1,1.84.66Z"/><path d="M136.23,63.9h-2.38V62.36h2.38V57H138v5.33h2.6V63.9H138V75.35h-1.78Z"/><path d="M143,57.29a1.29,1.29,0,0,1,.41-1,1.34,1.34,0,0,1,1-.4,1.37,1.37,0,0,1,1,.4,1.3,1.3,0,0,1,.42,1,1.31,1.31,0,0,1-.41,1,1.44,1.44,0,0,1-2,0A1.3,1.3,0,0,1,143,57.29Zm.45,18.06v-13h1.86v13Z"/><path d="M152,75.35h-1.81v-13H152v2a4.7,4.7,0,0,1,1.69-1.88,4.61,4.61,0,0,1,2.44-.64,4.4,4.4,0,0,1,2.42.65,4.19,4.19,0,0,1,1.55,1.91,4.91,4.91,0,0,1,4.52-2.56,4.27,4.27,0,0,1,3.25,1.25,4.77,4.77,0,0,1,1.19,3.44v8.78h-1.8V67.28a4.51,4.51,0,0,0-.78-2.87,2.86,2.86,0,0,0-2.34-1,3.13,3.13,0,0,0-2.73,1.21,6.72,6.72,0,0,0-.87,3.85v6.84h-1.79V67.28a4.59,4.59,0,0,0-.75-2.91,2.79,2.79,0,0,0-2.31-.92,3.22,3.22,0,0,0-2.8,1.23,6.54,6.54,0,0,0-.89,3.83Z"/><path d="M183.46,75.35V73a4.88,4.88,0,0,1-1.81,2.19,5,5,0,0,1-2.75.76A5.74,5.74,0,0,1,174.4,74a7.34,7.34,0,0,1-1.71-5.07,7.57,7.57,0,0,1,1.69-5.09,5.88,5.88,0,0,1,7.21-1.25,4.82,4.82,0,0,1,1.87,2.13V62.36h1.8v13ZM174.7,69a5.89,5.89,0,0,0,1.14,3.88,4,4,0,0,0,3.24,1.36,3.88,3.88,0,0,0,3.23-1.49,6.38,6.38,0,0,0,1.18-4.09,5.62,5.62,0,0,0-1.17-3.76,4,4,0,0,0-3.21-1.37A3.93,3.93,0,0,0,175.89,65,6.18,6.18,0,0,0,174.7,69Z"/><path d="M188.62,73l1.71-1a3.35,3.35,0,0,0,1.23,1.63,3.42,3.42,0,0,0,2,.55,2.64,2.64,0,0,0,1.81-.58,1.92,1.92,0,0,0,.68-1.54c0-1-.89-1.84-2.65-2.54l-.44-.17a8.18,8.18,0,0,1-2.87-1.66,3,3,0,0,1-.82-2.12,3.5,3.5,0,0,1,1.17-2.72,4.32,4.32,0,0,1,3-1.06,5,5,0,0,1,2.7.69,4,4,0,0,1,1.62,2l-1.65.92a2.66,2.66,0,0,0-1-1.4,3,3,0,0,0-1.76-.49,2.23,2.23,0,0,0-1.54.55,1.77,1.77,0,0,0-.61,1.37,1.72,1.72,0,0,0,.6,1.34,8.09,8.09,0,0,0,2.49,1.15,6.64,6.64,0,0,1,2.88,1.63,3.66,3.66,0,0,1,.74,2.43,3.56,3.56,0,0,1-1.28,2.86,5.15,5.15,0,0,1-3.42,1.07,5.22,5.22,0,0,1-2.85-.76A4.18,4.18,0,0,1,188.62,73Z"/><path d="M208.42,62.36h1.92l3.72,10.17,3.43-10.17h1.92l-6.73,19.53h-1.86l2.27-6.62Z"/><path d="M232.9,75.35H231V52.65h1.86Z"/><path d="M243.72,75.93a6.78,6.78,0,0,1-2.66-.55,7.59,7.59,0,0,1-2.32-1.58,6.53,6.53,0,0,1-1.49-2.22,7.13,7.13,0,0,1-.51-2.7,7,7,0,0,1,.52-2.7,7.12,7.12,0,0,1,1.51-2.25,7,7,0,0,1,4.95-2,7.08,7.08,0,0,1,2.74.53,7.14,7.14,0,0,1,3.85,3.79,7,7,0,0,1,.53,2.68,6.87,6.87,0,0,1-.52,2.67,6.76,6.76,0,0,1-1.53,2.25,7.1,7.1,0,0,1-5.07,2.13Zm.06-1.69a4.84,4.84,0,0,0,3.63-1.54,5.63,5.63,0,0,0,0-7.6,5,5,0,0,0-7.26,0,5.62,5.62,0,0,0,0,7.6A4.83,4.83,0,0,0,243.78,74.24Z"/><path d="M253.08,73l1.72-1A3.35,3.35,0,0,0,256,73.69a3.42,3.42,0,0,0,2,.55,2.66,2.66,0,0,0,1.81-.58,1.92,1.92,0,0,0,.68-1.54c0-1-.89-1.84-2.65-2.54-.19-.07-.34-.12-.44-.17a8.34,8.34,0,0,1-2.88-1.66,3,3,0,0,1-.82-2.12,3.48,3.48,0,0,1,1.18-2.72,4.32,4.32,0,0,1,3-1.06,5,5,0,0,1,2.69.69,3.94,3.94,0,0,1,1.63,2l-1.66.92a2.59,2.59,0,0,0-1-1.4,3,3,0,0,0-1.76-.49,2.23,2.23,0,0,0-1.54.55,1.77,1.77,0,0,0-.61,1.37,1.72,1.72,0,0,0,.6,1.34,8.09,8.09,0,0,0,2.49,1.15,6.77,6.77,0,0,1,2.88,1.63,3.66,3.66,0,0,1,.74,2.43,3.56,3.56,0,0,1-1.28,2.86,5.87,5.87,0,0,1-6.27.31A4.25,4.25,0,0,1,253.08,73Z"/><path d="M273.18,73l1.72-1a3.19,3.19,0,0,0,3.2,2.18,2.67,2.67,0,0,0,1.82-.58,1.92,1.92,0,0,0,.67-1.54c0-1-.88-1.84-2.65-2.54l-.44-.17a8.37,8.37,0,0,1-2.87-1.66,3,3,0,0,1-.82-2.12A3.5,3.5,0,0,1,275,62.91a4.37,4.37,0,0,1,3-1.06,5,5,0,0,1,2.69.69,4,4,0,0,1,1.63,2l-1.66.92a2.59,2.59,0,0,0-1-1.4,3,3,0,0,0-1.76-.49,2.26,2.26,0,0,0-1.55.55,1.8,1.8,0,0,0-.6,1.37,1.72,1.72,0,0,0,.6,1.34,8.09,8.09,0,0,0,2.49,1.15,6.66,6.66,0,0,1,2.87,1.63,3.6,3.6,0,0,1,.74,2.43,3.55,3.55,0,0,1-1.27,2.86,5.18,5.18,0,0,1-3.43,1.07,5.27,5.27,0,0,1-2.85-.76A4.23,4.23,0,0,1,273.18,73Z"/><path d="M297.28,68.91H287a6.31,6.31,0,0,0,1.26,4,3.91,3.91,0,0,0,3.18,1.44,4.19,4.19,0,0,0,2.52-.78,5.73,5.73,0,0,0,1.8-2.34l1.66.91A7.25,7.25,0,0,1,294.93,75a6.39,6.39,0,0,1-3.54.93A6,6,0,0,1,286.77,74,7.07,7.07,0,0,1,285,69a7.5,7.5,0,0,1,1.75-5.16,5.85,5.85,0,0,1,4.58-2,5.5,5.5,0,0,1,4.32,1.81,6.9,6.9,0,0,1,1.63,4.82Zm-2.14-1.54a3.72,3.72,0,0,0-4-3.75,3.86,3.86,0,0,0-2.75,1,4.14,4.14,0,0,0-1.28,2.72Z"/><path d="M311.14,64.73a7,7,0,0,0-1.94-.94,7.1,7.1,0,0,0-2.11-.32A5,5,0,0,0,303.24,65a5.79,5.79,0,0,0-1.43,4.12,5.09,5.09,0,0,0,1.48,3.77,5.19,5.19,0,0,0,3.8,1.48,6.37,6.37,0,0,0,2.13-.37,8.1,8.1,0,0,0,2.12-1.1v2a7.84,7.84,0,0,1-2.11.81,10.81,10.81,0,0,1-2.47.27,6.52,6.52,0,0,1-4.88-2A6.86,6.86,0,0,1,300,69a6.81,6.81,0,0,1,7.15-7.15,10.42,10.42,0,0,1,2.21.22,7.38,7.38,0,0,1,1.84.66Z"/><path d="M316.51,62.36v6.49a7.72,7.72,0,0,0,.84,4.18,4,4,0,0,0,5.71,0,7.48,7.48,0,0,0,.86-4.16V62.36h1.79v7.41a6.69,6.69,0,0,1-1.39,4.6,6.17,6.17,0,0,1-8.2,0,6.65,6.65,0,0,1-1.41-4.6V62.36Z"/><path d="M341.68,68.91H331.35a6.31,6.31,0,0,0,1.26,4,3.91,3.91,0,0,0,3.18,1.44,4.19,4.19,0,0,0,2.52-.78,5.73,5.73,0,0,0,1.8-2.34l1.66.91A7.25,7.25,0,0,1,339.33,75a6.42,6.42,0,0,1-3.54.93A6,6,0,0,1,331.17,74a7.07,7.07,0,0,1-1.77-5,7.5,7.5,0,0,1,1.75-5.16,5.85,5.85,0,0,1,4.58-2,5.5,5.5,0,0,1,4.32,1.81,6.9,6.9,0,0,1,1.63,4.82Zm-2.14-1.54a3.72,3.72,0,0,0-4-3.75,3.86,3.86,0,0,0-2.75,1,4.14,4.14,0,0,0-1.28,2.72Z"/><path d="M344,73l1.71-1a3.47,3.47,0,0,0,1.23,1.63,3.42,3.42,0,0,0,2,.55,2.69,2.69,0,0,0,1.82-.58,1.92,1.92,0,0,0,.67-1.54c0-1-.88-1.84-2.65-2.54l-.44-.17a8.27,8.27,0,0,1-2.87-1.66,3,3,0,0,1-.82-2.12,3.5,3.5,0,0,1,1.17-2.72,4.32,4.32,0,0,1,3-1.06,5,5,0,0,1,2.7.69,4,4,0,0,1,1.62,2l-1.65.92a2.66,2.66,0,0,0-1-1.4,3,3,0,0,0-1.75-.49,2.24,2.24,0,0,0-1.55.55,1.77,1.77,0,0,0-.61,1.37,1.72,1.72,0,0,0,.6,1.34,8.09,8.09,0,0,0,2.49,1.15,6.64,6.64,0,0,1,2.88,1.63,3.66,3.66,0,0,1,.74,2.43A3.55,3.55,0,0,1,352,74.86a5.19,5.19,0,0,1-3.43,1.07,5.27,5.27,0,0,1-2.85-.76A4.18,4.18,0,0,1,344,73Z"/><path d="M357.26,63.9h-2.38V62.36h2.38V57H359v5.33h2.6V63.9H359V75.35h-1.78Z"/><path d="M366.13,65a8,8,0,0,1,1.95-2.39,3.69,3.69,0,0,1,2.24-.7,3.91,3.91,0,0,1,.76.07,5.16,5.16,0,0,1,.77.21l-.58,1.7a6,6,0,0,0-.61-.15,3.23,3.23,0,0,0-.61-.06,3.39,3.39,0,0,0-2.77,1.52,6.11,6.11,0,0,0-1.15,3.8v6.38h-1.81v-13h1.81Z"/><path d="M383.37,75.35V73a4.88,4.88,0,0,1-1.81,2.19,5,5,0,0,1-2.75.76,5.72,5.72,0,0,1-4.5-1.92,7.34,7.34,0,0,1-1.71-5.07,7.52,7.52,0,0,1,1.69-5.09,5.88,5.88,0,0,1,7.21-1.25,4.82,4.82,0,0,1,1.87,2.13V62.36h1.8v13ZM374.61,69a5.94,5.94,0,0,0,1.13,3.88A4,4,0,0,0,379,74.24a3.89,3.89,0,0,0,3.23-1.49,6.44,6.44,0,0,0,1.18-4.09,5.62,5.62,0,0,0-1.17-3.76A4,4,0,0,0,379,63.53,4,4,0,0,0,375.79,65,6.18,6.18,0,0,0,374.61,69Z"/><path d="M399.63,75.35V73a4.67,4.67,0,0,1-4.53,3A5.72,5.72,0,0,1,390.6,74a7.34,7.34,0,0,1-1.71-5.07,7.56,7.56,0,0,1,1.68-5.09,5.49,5.49,0,0,1,4.36-2,5.37,5.37,0,0,1,2.84.72,4.86,4.86,0,0,1,1.86,2.13V52.65h1.83v22.7ZM390.9,69A5.89,5.89,0,0,0,392,72.88a4,4,0,0,0,3.25,1.36,3.83,3.83,0,0,0,3.2-1.49,6.38,6.38,0,0,0,1.18-4.09,5.67,5.67,0,0,0-1.16-3.76,4.35,4.35,0,0,0-6.42.09A6.18,6.18,0,0,0,390.9,69Z"/><path d="M412.14,75.93a6.79,6.79,0,0,1-2.67-.55,7.43,7.43,0,0,1-2.31-1.58,6.42,6.42,0,0,1-1.5-2.22,7.13,7.13,0,0,1-.51-2.7,7,7,0,0,1,.53-2.7,7,7,0,0,1,6.46-4.3,7.09,7.09,0,0,1,6.58,4.32,6.79,6.79,0,0,1,.54,2.68,6.88,6.88,0,0,1-.53,2.67,6.73,6.73,0,0,1-1.52,2.25,7.33,7.33,0,0,1-2.34,1.58A7.16,7.16,0,0,1,412.14,75.93Zm.06-1.69a4.83,4.83,0,0,0,3.62-1.54,5.6,5.6,0,0,0,0-7.6,5,5,0,0,0-7.25,0,5.62,5.62,0,0,0,0,7.6A4.8,4.8,0,0,0,412.2,74.24Z"/><path d="M424.78,65a8,8,0,0,1,2-2.39,3.69,3.69,0,0,1,2.24-.7,4.08,4.08,0,0,1,.77.07,5.51,5.51,0,0,1,.77.21l-.59,1.7a5.44,5.44,0,0,0-.61-.15,3.23,3.23,0,0,0-.61-.06,3.39,3.39,0,0,0-2.77,1.52,6.11,6.11,0,0,0-1.15,3.8v6.38H423v-13h1.8Z"/><path d="M443.59,68.91H433.26a6.31,6.31,0,0,0,1.26,4,3.91,3.91,0,0,0,3.18,1.44,4.19,4.19,0,0,0,2.52-.78,5.73,5.73,0,0,0,1.8-2.34l1.66.91A7.25,7.25,0,0,1,441.24,75a6.42,6.42,0,0,1-3.54.93A6,6,0,0,1,433.08,74a7.07,7.07,0,0,1-1.77-5,7.45,7.45,0,0,1,1.75-5.16,5.85,5.85,0,0,1,4.58-2A5.5,5.5,0,0,1,442,63.69a6.9,6.9,0,0,1,1.63,4.82Zm-2.14-1.54a3.72,3.72,0,0,0-4-3.75,3.86,3.86,0,0,0-2.75,1,4.09,4.09,0,0,0-1.28,2.72Z"/><path d="M445.86,73l1.71-1a3.19,3.19,0,0,0,3.21,2.18,2.69,2.69,0,0,0,1.82-.58,1.92,1.92,0,0,0,.67-1.54c0-1-.88-1.84-2.65-2.54l-.44-.17a8.18,8.18,0,0,1-2.87-1.66,3,3,0,0,1-.82-2.12,3.5,3.5,0,0,1,1.17-2.72,4.32,4.32,0,0,1,3-1.06,5,5,0,0,1,2.7.69,4,4,0,0,1,1.62,2l-1.65.92a2.66,2.66,0,0,0-1-1.4,3,3,0,0,0-1.76-.49,2.23,2.23,0,0,0-1.54.55,1.77,1.77,0,0,0-.61,1.37,1.72,1.72,0,0,0,.6,1.34,8.09,8.09,0,0,0,2.49,1.15,6.64,6.64,0,0,1,2.88,1.63,3.66,3.66,0,0,1,.74,2.43,3.55,3.55,0,0,1-1.27,2.86,5.89,5.89,0,0,1-6.28.31A4.18,4.18,0,0,1,445.86,73Z"/><path d="M459.22,74.12a1.5,1.5,0,1,1,3,0,1.5,1.5,0,1,1-3,0Z"/></svg>