<svg id="fondos" xmlns="http://www.w3.org/2000/svg" viewBox="0 0 838.12 100.16"><defs><style>.cls-1{fill:#e6e6e6;}</style></defs><title>gaula2</title><rect class="cls-1" width="838.12" height="100.16"/><path d="M59.51,46.06V24.61H70.13v1.83H61.45v6.71h8.68V35H61.45v9.25h8.68v1.83Z"/><path d="M73.16,43.74l1.71-1A3.38,3.38,0,0,0,76.1,44.4a3.49,3.49,0,0,0,2,.55,2.74,2.74,0,0,0,1.82-.58,1.94,1.94,0,0,0,.67-1.55c0-1-.88-1.84-2.65-2.53l-.44-.18a8.18,8.18,0,0,1-2.87-1.66,2.94,2.94,0,0,1-.82-2.12A3.48,3.48,0,0,1,75,33.62a4.33,4.33,0,0,1,3-1.07,5,5,0,0,1,2.7.69,4,4,0,0,1,1.62,2l-1.65.93a2.64,2.64,0,0,0-1-1.41,3.09,3.09,0,0,0-1.76-.48,2.19,2.19,0,0,0-1.54.55,1.74,1.74,0,0,0-.61,1.37,1.7,1.7,0,0,0,.6,1.33,8,8,0,0,0,2.49,1.16,6.65,6.65,0,0,1,2.88,1.62,3.69,3.69,0,0,1,.74,2.43,3.53,3.53,0,0,1-1.27,2.86,5.92,5.92,0,0,1-6.28.32A4.25,4.25,0,0,1,73.16,43.74Z"/><path d="M86.47,34.6H84.09V33.07h2.38V27.73h1.78v5.34h2.6V34.6h-2.6V46.06H86.47Z"/><path d="M103.13,46.06V43.69a4.71,4.71,0,0,1-4.56,2.94,5.74,5.74,0,0,1-4.5-1.92,7.34,7.34,0,0,1-1.71-5.07,7.54,7.54,0,0,1,1.69-5.09,5.46,5.46,0,0,1,4.35-2,5.38,5.38,0,0,1,2.86.73,4.71,4.71,0,0,1,1.87,2.13V33.07h1.8v13ZM94.37,39.7a5.92,5.92,0,0,0,1.13,3.88A4,4,0,0,0,98.75,45,3.91,3.91,0,0,0,102,43.46a6.47,6.47,0,0,0,1.18-4.1A5.58,5.58,0,0,0,102,35.61a4,4,0,0,0-3.21-1.37,3.9,3.9,0,0,0-3.22,1.46A6.1,6.1,0,0,0,94.37,39.7Z"/><path d="M111.57,46.06h-1.81V23.35h1.81V35.44a4.73,4.73,0,0,1,1.85-2.13,5.3,5.3,0,0,1,2.85-.73,5.46,5.46,0,0,1,4.35,2,7.58,7.58,0,0,1,1.68,5.09,7.38,7.38,0,0,1-1.7,5.07,5.74,5.74,0,0,1-4.51,1.92,4.68,4.68,0,0,1-4.52-2.94Zm8.73-6.36a6.15,6.15,0,0,0-1.19-4,3.92,3.92,0,0,0-3.22-1.46,4,4,0,0,0-3.2,1.37,5.62,5.62,0,0,0-1.15,3.75,6.41,6.41,0,0,0,1.18,4.1A3.89,3.89,0,0,0,116,45a4,4,0,0,0,3.22-1.36A5.93,5.93,0,0,0,120.3,39.7Z"/><path d="M128,46.06h-1.86V23.35H128Z"/><path d="M144.06,39.61H133.73a6.37,6.37,0,0,0,1.26,4A3.9,3.9,0,0,0,138.17,45a4.23,4.23,0,0,0,2.52-.77,5.77,5.77,0,0,0,1.8-2.35l1.65.91a7.09,7.09,0,0,1-2.44,2.91,6.38,6.38,0,0,1-3.53.93,6,6,0,0,1-4.62-1.91,7.11,7.11,0,0,1-1.77-5,7.41,7.41,0,0,1,1.75-5.15,5.85,5.85,0,0,1,4.58-2,5.53,5.53,0,0,1,4.32,1.81,7,7,0,0,1,1.63,4.83Zm-2.14-1.53a3.72,3.72,0,0,0-4-3.75,3.88,3.88,0,0,0-2.74,1,4.1,4.1,0,0,0-1.28,2.73Z"/><path d="M157.91,35.44a6.94,6.94,0,0,0-1.93-.95,7.14,7.14,0,0,0-2.11-.31A5,5,0,0,0,150,35.73a5.79,5.79,0,0,0-1.44,4.12,5.08,5.08,0,0,0,1.49,3.76,5.15,5.15,0,0,0,3.8,1.48,6.71,6.71,0,0,0,2.13-.36,8.42,8.42,0,0,0,2.12-1.1v2a7.66,7.66,0,0,1-2.11.82,10.9,10.9,0,0,1-2.48.27,6.48,6.48,0,0,1-4.87-2,6.86,6.86,0,0,1-1.91-5,6.82,6.82,0,0,1,7.15-7.15,10.24,10.24,0,0,1,2.2.23,7.24,7.24,0,0,1,1.84.65Z"/><path d="M172.65,39.61H162.32a6.37,6.37,0,0,0,1.26,4A3.9,3.9,0,0,0,166.76,45a4.18,4.18,0,0,0,2.52-.77,5.77,5.77,0,0,0,1.8-2.35l1.66.91a7.25,7.25,0,0,1-2.44,2.91,6.39,6.39,0,0,1-3.54.93,6,6,0,0,1-4.62-1.91,7.11,7.11,0,0,1-1.77-5,7.46,7.46,0,0,1,1.75-5.15,5.86,5.86,0,0,1,4.58-2A5.53,5.53,0,0,1,171,34.39a6.94,6.94,0,0,1,1.63,4.83Zm-2.14-1.53a3.72,3.72,0,0,0-4-3.75,3.9,3.9,0,0,0-2.75,1,4.14,4.14,0,0,0-1.28,2.73Z"/><path d="M178.2,35.67a7.94,7.94,0,0,1,2-2.38,3.66,3.66,0,0,1,2.23-.71,4.11,4.11,0,0,1,.77.08,4.15,4.15,0,0,1,.77.2l-.59,1.7a5.84,5.84,0,0,0-.6-.15,3.27,3.27,0,0,0-3.39,1.47,6.08,6.08,0,0,0-1.15,3.79v6.39h-1.8v-13h1.8Z"/><path d="M196.29,33.07v6.49a7.55,7.55,0,0,0,.85,4.17A3.21,3.21,0,0,0,200,45a3.25,3.25,0,0,0,2.86-1.23,7.5,7.5,0,0,0,.86-4.16V33.07h1.79v7.41a6.68,6.68,0,0,1-1.39,4.59,6.17,6.17,0,0,1-8.2,0,6.64,6.64,0,0,1-1.41-4.59V33.07Z"/><path d="M210.3,46.06v-13H212v2A5.21,5.21,0,0,1,214,33.21a5.44,5.44,0,0,1,2.65-.63,4.27,4.27,0,0,1,4.67,4.66v8.82h-1.83v-8a4.33,4.33,0,0,0-.82-2.9,3.13,3.13,0,0,0-2.51-.94,3.66,3.66,0,0,0-3,1.22,6.17,6.17,0,0,0-1,3.85v6.78Z"/><path d="M234.57,52.59V33.07h1.74V35.5a5.55,5.55,0,0,1,1.95-2.16,4.91,4.91,0,0,1,2.7-.76,5.59,5.59,0,0,1,4.41,1.93,7.47,7.47,0,0,1,1.68,5.1,7.61,7.61,0,0,1-1.64,5.11A5.49,5.49,0,0,1,241,46.63a5.16,5.16,0,0,1-2.77-.75,5.69,5.69,0,0,1-2-2.22v8.93Zm10.53-13a6.16,6.16,0,0,0-1.15-4,3.83,3.83,0,0,0-3.17-1.44,4,4,0,0,0-3.26,1.4,5.74,5.74,0,0,0-1.18,3.84,5.91,5.91,0,0,0,1.27,4A4.18,4.18,0,0,0,241,45a3.67,3.67,0,0,0,3-1.4A6.23,6.23,0,0,0,245.1,39.64Z"/><path d="M252.6,33.07v6.49a7.65,7.65,0,0,0,.84,4.17A3.22,3.22,0,0,0,256.29,45a3.25,3.25,0,0,0,2.86-1.23,7.5,7.5,0,0,0,.86-4.16V33.07h1.79v7.41a6.68,6.68,0,0,1-1.39,4.59,6.17,6.17,0,0,1-8.2,0,6.64,6.64,0,0,1-1.41-4.59V33.07Z"/><path d="M277.77,39.61H267.44a6.37,6.37,0,0,0,1.26,4A3.9,3.9,0,0,0,271.88,45a4.18,4.18,0,0,0,2.52-.77,5.77,5.77,0,0,0,1.8-2.35l1.65.91a7.15,7.15,0,0,1-2.43,2.91,6.44,6.44,0,0,1-3.54.93,6,6,0,0,1-4.62-1.91,7.11,7.11,0,0,1-1.77-5,7.41,7.41,0,0,1,1.75-5.15,5.85,5.85,0,0,1,4.58-2,5.53,5.53,0,0,1,4.32,1.81,6.94,6.94,0,0,1,1.63,4.83Zm-2.14-1.53a4,4,0,0,0-1.19-2.77,4,4,0,0,0-2.85-1,3.9,3.9,0,0,0-2.75,1,4.1,4.1,0,0,0-1.28,2.73Z"/><path d="M280,43.74l1.71-1A3.38,3.38,0,0,0,283,44.4a3.49,3.49,0,0,0,2,.55,2.74,2.74,0,0,0,1.82-.58,1.94,1.94,0,0,0,.67-1.55c0-1-.88-1.84-2.65-2.53l-.44-.18a8.18,8.18,0,0,1-2.87-1.66,2.94,2.94,0,0,1-.82-2.12,3.48,3.48,0,0,1,1.17-2.71,4.33,4.33,0,0,1,3-1.07,5,5,0,0,1,2.7.69,4,4,0,0,1,1.62,2l-1.65.93a2.64,2.64,0,0,0-1-1.41,3.09,3.09,0,0,0-1.76-.48,2.19,2.19,0,0,0-1.54.55,1.74,1.74,0,0,0-.61,1.37,1.7,1.7,0,0,0,.6,1.33,8,8,0,0,0,2.49,1.16,6.65,6.65,0,0,1,2.88,1.62,3.69,3.69,0,0,1,.74,2.43A3.53,3.53,0,0,1,288,45.56a5.92,5.92,0,0,1-6.28.32A4.25,4.25,0,0,1,280,43.74Z"/><path d="M293.35,34.6H291V33.07h2.38V27.73h1.78v5.34h2.6V34.6h-2.6V46.06h-1.78Z"/><path d="M306.32,46.63a6.62,6.62,0,0,1-2.67-.55,7.4,7.4,0,0,1-2.31-1.57,6.55,6.55,0,0,1-1.5-2.23,7.13,7.13,0,0,1-.51-2.7,7,7,0,0,1,.53-2.69,6.85,6.85,0,0,1,1.51-2.26,7,7,0,0,1,4.95-2.05,7.15,7.15,0,0,1,5,2.05,7.08,7.08,0,0,1,1.54,2.27,6.83,6.83,0,0,1,.54,2.68,6.87,6.87,0,0,1-2.05,4.93,7.3,7.3,0,0,1-2.34,1.57A7,7,0,0,1,306.32,46.63Zm.06-1.68A4.84,4.84,0,0,0,310,43.4a5.59,5.59,0,0,0,0-7.59,5,5,0,0,0-7.25,0,5.61,5.61,0,0,0,0,7.59A4.81,4.81,0,0,0,306.38,45Z"/><path d="M335.42,46.06V43.69a4.68,4.68,0,0,1-4.52,2.94,5.74,5.74,0,0,1-4.51-1.92,7.33,7.33,0,0,1-1.7-5.07,7.58,7.58,0,0,1,1.68-5.09,5.46,5.46,0,0,1,4.35-2,5.35,5.35,0,0,1,2.85.73,4.73,4.73,0,0,1,1.85,2.13V23.35h1.83V46.06Zm-8.73-6.36a5.87,5.87,0,0,0,1.14,3.88A4,4,0,0,0,331.07,45a3.87,3.87,0,0,0,3.21-1.49,6.47,6.47,0,0,0,1.17-4.1,5.62,5.62,0,0,0-1.15-3.75,4,4,0,0,0-3.2-1.37,3.9,3.9,0,0,0-3.22,1.46A6.15,6.15,0,0,0,326.69,39.7Z"/><path d="M353.19,39.61H342.86a6.37,6.37,0,0,0,1.26,4A3.93,3.93,0,0,0,347.3,45a4.18,4.18,0,0,0,2.52-.77,5.6,5.6,0,0,0,1.8-2.35l1.66.91a7.17,7.17,0,0,1-2.44,2.91,6.39,6.39,0,0,1-3.54.93,6,6,0,0,1-4.62-1.91,7.1,7.1,0,0,1-1.76-5,7.41,7.41,0,0,1,1.75-5.15,5.82,5.82,0,0,1,4.57-2,5.57,5.57,0,0,1,4.33,1.81,7,7,0,0,1,1.62,4.83Zm-2.14-1.53a4,4,0,0,0-1.18-2.77,4,4,0,0,0-2.86-1,3.92,3.92,0,0,0-2.75,1A4.19,4.19,0,0,0,343,38.08Z"/><path d="M367.39,46.06h-1.81v-13h1.81v2a4.62,4.62,0,0,1,1.7-1.87,4.55,4.55,0,0,1,2.43-.65,4.4,4.4,0,0,1,2.42.65,4.21,4.21,0,0,1,1.55,1.92,5.18,5.18,0,0,1,1.9-1.93,5.3,5.3,0,0,1,2.62-.64,4.31,4.31,0,0,1,3.26,1.25,4.81,4.81,0,0,1,1.18,3.44v8.79h-1.8V38a4.49,4.49,0,0,0-.78-2.87,2.84,2.84,0,0,0-2.34-1,3.13,3.13,0,0,0-2.73,1.22,6.7,6.7,0,0,0-.87,3.85v6.84h-1.79V38a4.62,4.62,0,0,0-.75-2.92,2.82,2.82,0,0,0-2.31-.92,3.23,3.23,0,0,0-2.8,1.23,6.56,6.56,0,0,0-.89,3.84Z"/><path d="M398.85,46.06V43.69A5,5,0,0,1,397,45.88a4.93,4.93,0,0,1-2.74.75,5.74,5.74,0,0,1-4.51-1.92,7.34,7.34,0,0,1-1.71-5.07,7.59,7.59,0,0,1,1.69-5.09,5.46,5.46,0,0,1,4.35-2,5.38,5.38,0,0,1,2.86.73,4.71,4.71,0,0,1,1.87,2.13V33.07h1.8v13Zm-8.76-6.36a5.87,5.87,0,0,0,1.14,3.88A4,4,0,0,0,394.47,45a3.91,3.91,0,0,0,3.23-1.49,6.41,6.41,0,0,0,1.18-4.1,5.58,5.58,0,0,0-1.17-3.75,4,4,0,0,0-3.21-1.37,3.9,3.9,0,0,0-3.22,1.46A6.15,6.15,0,0,0,390.09,39.7Z"/><path d="M405.49,46.06v-13h1.71v2a5.21,5.21,0,0,1,1.94-1.86,5.44,5.44,0,0,1,2.65-.63,4.27,4.27,0,0,1,4.67,4.66v8.82h-1.83v-8a4.33,4.33,0,0,0-.82-2.9,3.13,3.13,0,0,0-2.51-.94,3.68,3.68,0,0,0-3,1.22,6.17,6.17,0,0,0-1,3.85v6.78Z"/><path d="M430.74,46.06V43.69a4.68,4.68,0,0,1-4.53,2.94,5.74,5.74,0,0,1-4.5-1.92A7.34,7.34,0,0,1,420,39.64a7.54,7.54,0,0,1,1.69-5.09,5.46,5.46,0,0,1,4.35-2,5.35,5.35,0,0,1,2.85.73,4.79,4.79,0,0,1,1.85,2.13V23.35h1.83V46.06ZM422,39.7a5.87,5.87,0,0,0,1.14,3.88A4,4,0,0,0,426.39,45a3.87,3.87,0,0,0,3.21-1.49,6.47,6.47,0,0,0,1.17-4.1,5.63,5.63,0,0,0-1.16-3.75,4.34,4.34,0,0,0-6.41.09A6.15,6.15,0,0,0,422,39.7Z"/><path d="M443.25,46.63a6.62,6.62,0,0,1-2.67-.55,7.4,7.4,0,0,1-2.31-1.57,6.67,6.67,0,0,1-1.49-2.23,7.18,7.18,0,0,1,0-5.39,6.85,6.85,0,0,1,1.51-2.26,7,7,0,0,1,4.95-2.05,7.18,7.18,0,0,1,2.73.53,7,7,0,0,1,2.31,1.52,7.11,7.11,0,0,1,1.55,2.27,6.93,6.93,0,0,1-1.52,7.61A7.09,7.09,0,0,1,446,46.08,6.9,6.9,0,0,1,443.25,46.63Zm.06-1.68a4.84,4.84,0,0,0,3.62-1.55,5.59,5.59,0,0,0,0-7.59,5,5,0,0,0-7.25,0,5.61,5.61,0,0,0,0,7.59A4.82,4.82,0,0,0,443.31,45Z"/><path d="M464.53,33.07v6.49a7.55,7.55,0,0,0,.85,4.17,3.93,3.93,0,0,0,5.7,0,7.49,7.49,0,0,0,.87-4.16V33.07h1.78v7.41a6.68,6.68,0,0,1-1.39,4.59,5.19,5.19,0,0,1-4.08,1.56,5.27,5.27,0,0,1-4.12-1.56,6.64,6.64,0,0,1-1.41-4.59V33.07Z"/><path d="M478.54,46.06v-13h1.71v2a5.29,5.29,0,0,1,1.94-1.86,5.44,5.44,0,0,1,2.65-.63,4.27,4.27,0,0,1,4.67,4.66v8.82h-1.83v-8a4.38,4.38,0,0,0-.81-2.9,3.15,3.15,0,0,0-2.52-.94,3.68,3.68,0,0,0-3,1.22,6.17,6.17,0,0,0-1,3.85v6.78Z"/><path d="M493.83,28a1.34,1.34,0,0,1,.41-1,1.39,1.39,0,0,1,1-.4,1.42,1.42,0,0,1,1,.4,1.32,1.32,0,0,1,.42,1,1.34,1.34,0,0,1-.4,1,1.4,1.4,0,0,1-1,.39,1.37,1.37,0,0,1-1-.39A1.34,1.34,0,0,1,493.83,28Zm.46,18.06v-13h1.86v13Z"/><path d="M501.49,46.06V34.6h-2.43V33.07h2.43V29.32c0-2.61.25-4.3.74-5.08a2.89,2.89,0,0,1,2.68-1.16,4.57,4.57,0,0,1,.92.08,5.18,5.18,0,0,1,.82.22L506.31,25a3.43,3.43,0,0,0-.68-.27,2.31,2.31,0,0,0-.61-.09,1.4,1.4,0,0,0-1.34.76,6.52,6.52,0,0,0-.4,2.77v4.93h2.86V34.6h-2.86V46.06Z"/><path d="M508.49,28a1.34,1.34,0,0,1,.41-1,1.42,1.42,0,0,1,1-.4,1.38,1.38,0,0,1,1,.4,1.38,1.38,0,0,1,0,2,1.46,1.46,0,0,1-2,0A1.31,1.31,0,0,1,508.49,28ZM509,46.06v-13h1.86v13Z"/><path d="M525.84,35.44a7,7,0,0,0-1.94-.95,7.07,7.07,0,0,0-2.1-.31,5,5,0,0,0-3.86,1.55,5.83,5.83,0,0,0-1.43,4.12A5.07,5.07,0,0,0,518,43.61a5.15,5.15,0,0,0,3.81,1.48,6.71,6.71,0,0,0,2.13-.36,8.53,8.53,0,0,0,2.11-1.1v2a7.42,7.42,0,0,1-2.11.82,10.81,10.81,0,0,1-2.47.27,6.5,6.5,0,0,1-4.88-2,6.86,6.86,0,0,1-1.9-5,6.81,6.81,0,0,1,7.14-7.15,10.34,10.34,0,0,1,2.21.23,7.38,7.38,0,0,1,1.84.65Z"/><path d="M539,46.06V43.69a4.71,4.71,0,0,1-4.56,2.94,5.72,5.72,0,0,1-4.5-1.92,7.34,7.34,0,0,1-1.71-5.07,7.54,7.54,0,0,1,1.69-5.09,5.85,5.85,0,0,1,7.21-1.24A4.71,4.71,0,0,1,539,35.44V33.07h1.8v13Zm-8.76-6.36a5.92,5.92,0,0,0,1.13,3.88A4,4,0,0,0,534.63,45a3.92,3.92,0,0,0,3.23-1.49,6.47,6.47,0,0,0,1.18-4.1,5.53,5.53,0,0,0-1.18-3.75,4.36,4.36,0,0,0-6.43.09A6.15,6.15,0,0,0,530.25,39.7Z"/><path d="M555.27,46.06V43.69a4.87,4.87,0,0,1-1.8,2.19,4.92,4.92,0,0,1-2.73.75,5.72,5.72,0,0,1-4.5-1.92,7.34,7.34,0,0,1-1.71-5.07,7.58,7.58,0,0,1,1.68-5.09,5.49,5.49,0,0,1,4.35-2,5.3,5.3,0,0,1,2.85.73,4.75,4.75,0,0,1,1.86,2.13V23.35h1.83V46.06Zm-8.73-6.36a5.87,5.87,0,0,0,1.13,3.88A4,4,0,0,0,550.92,45a3.86,3.86,0,0,0,3.2-1.49,6.41,6.41,0,0,0,1.18-4.1,5.63,5.63,0,0,0-1.16-3.75,4.35,4.35,0,0,0-6.42.09A6.15,6.15,0,0,0,546.54,39.7Z"/><path d="M567.78,46.63a6.62,6.62,0,0,1-2.67-.55,7.4,7.4,0,0,1-2.31-1.57,6.55,6.55,0,0,1-1.5-2.23,7.13,7.13,0,0,1-.51-2.7,7,7,0,0,1,.53-2.69,6.85,6.85,0,0,1,1.51-2.26,7,7,0,0,1,4.95-2.05,7.15,7.15,0,0,1,5,2.05,7.08,7.08,0,0,1,1.54,2.27,6.83,6.83,0,0,1,.54,2.68,6.87,6.87,0,0,1-2,4.93,7.3,7.3,0,0,1-2.34,1.57A7,7,0,0,1,567.78,46.63Zm.06-1.68a4.84,4.84,0,0,0,3.62-1.55,5.59,5.59,0,0,0,0-7.59,5,5,0,0,0-7.25,0,5.61,5.61,0,0,0,0,7.59A4.81,4.81,0,0,0,567.84,45Z"/><path d="M596.88,46.06V43.69a4.68,4.68,0,0,1-4.52,2.94,5.74,5.74,0,0,1-4.51-1.92,7.33,7.33,0,0,1-1.7-5.07,7.58,7.58,0,0,1,1.68-5.09,5.46,5.46,0,0,1,4.35-2,5.35,5.35,0,0,1,2.85.73,4.73,4.73,0,0,1,1.85,2.13V23.35h1.83V46.06Zm-8.73-6.36a5.87,5.87,0,0,0,1.14,3.88A4,4,0,0,0,592.53,45a3.87,3.87,0,0,0,3.21-1.49,6.47,6.47,0,0,0,1.17-4.1,5.62,5.62,0,0,0-1.15-3.75,4,4,0,0,0-3.2-1.37,3.9,3.9,0,0,0-3.22,1.46A6.15,6.15,0,0,0,588.15,39.7Z"/><path d="M609.39,46.63a6.6,6.6,0,0,1-2.66-.55,7.56,7.56,0,0,1-2.32-1.57,6.67,6.67,0,0,1-1.49-2.23,7.13,7.13,0,0,1-.51-2.7,7,7,0,0,1,7-7,7.18,7.18,0,0,1,2.73.53,6.93,6.93,0,0,1,4.39,6.47,6.87,6.87,0,0,1-2,4.93,7.09,7.09,0,0,1-2.34,1.57A6.9,6.9,0,0,1,609.39,46.63Zm.06-1.68a4.85,4.85,0,0,0,3.63-1.55,5.61,5.61,0,0,0,0-7.59,5,5,0,0,0-7.25,0,5.61,5.61,0,0,0,0,7.59A4.84,4.84,0,0,0,609.45,45Z"/><path d="M620.23,46.06v-13H622v2a5.14,5.14,0,0,1,1.94-1.86,5.4,5.4,0,0,1,2.64-.63,4.27,4.27,0,0,1,4.67,4.66v8.82h-1.83v-8a4.38,4.38,0,0,0-.81-2.9,3.13,3.13,0,0,0-2.51-.94,3.66,3.66,0,0,0-3,1.22,6.17,6.17,0,0,0-1,3.85v6.78Z"/><path d="M645.49,46.06V43.69A4.71,4.71,0,0,1,641,46.63a5.72,5.72,0,0,1-4.5-1.92,7.34,7.34,0,0,1-1.71-5.07,7.58,7.58,0,0,1,1.68-5.09,5.49,5.49,0,0,1,4.35-2,5.3,5.3,0,0,1,2.85.73,4.75,4.75,0,0,1,1.86,2.13V23.35h1.83V46.06Zm-8.73-6.36a5.87,5.87,0,0,0,1.13,3.88A4,4,0,0,0,641.14,45a3.86,3.86,0,0,0,3.2-1.49,6.41,6.41,0,0,0,1.18-4.1,5.63,5.63,0,0,0-1.16-3.75,4.35,4.35,0,0,0-6.42.09A6.15,6.15,0,0,0,636.76,39.7Z"/><path d="M663.26,39.61H652.93a6.37,6.37,0,0,0,1.26,4A3.9,3.9,0,0,0,657.37,45a4.23,4.23,0,0,0,2.52-.77,5.77,5.77,0,0,0,1.8-2.35l1.65.91a7.09,7.09,0,0,1-2.44,2.91,6.38,6.38,0,0,1-3.53.93,6,6,0,0,1-4.62-1.91,7.11,7.11,0,0,1-1.77-5,7.41,7.41,0,0,1,1.75-5.15,5.85,5.85,0,0,1,4.58-2,5.55,5.55,0,0,1,4.32,1.81,7,7,0,0,1,1.63,4.83Zm-2.14-1.53a3.72,3.72,0,0,0-4-3.75,3.88,3.88,0,0,0-2.74,1,4.1,4.1,0,0,0-1.28,2.73Z"/><path d="M675.65,52.59V33.07h1.74V35.5a5.55,5.55,0,0,1,2-2.16,4.9,4.9,0,0,1,2.69-.76,5.59,5.59,0,0,1,4.42,1.93,7.47,7.47,0,0,1,1.68,5.1,7.61,7.61,0,0,1-1.64,5.11,5.49,5.49,0,0,1-4.37,1.91,5.13,5.13,0,0,1-2.77-.75,5.69,5.69,0,0,1-2-2.22v8.93Zm10.53-13a6.16,6.16,0,0,0-1.15-4,3.83,3.83,0,0,0-3.17-1.44,4,4,0,0,0-3.26,1.4,5.74,5.74,0,0,0-1.18,3.84,5.91,5.91,0,0,0,1.27,4A4.18,4.18,0,0,0,682,45a3.67,3.67,0,0,0,3.06-1.4A6.23,6.23,0,0,0,686.18,39.64Z"/><path d="M701.47,46.06V43.69a5,5,0,0,1-1.81,2.19,4.93,4.93,0,0,1-2.74.75,5.74,5.74,0,0,1-4.51-1.92,7.33,7.33,0,0,1-1.7-5.07,7.58,7.58,0,0,1,1.68-5.09,5.46,5.46,0,0,1,4.35-2,5.36,5.36,0,0,1,2.86.73,4.71,4.71,0,0,1,1.87,2.13V33.07h1.8v13Zm-8.76-6.36a5.87,5.87,0,0,0,1.14,3.88A4,4,0,0,0,697.09,45a3.89,3.89,0,0,0,3.23-1.49,6.41,6.41,0,0,0,1.18-4.1,5.58,5.58,0,0,0-1.17-3.75,4,4,0,0,0-3.21-1.37,3.92,3.92,0,0,0-3.22,1.46A6.15,6.15,0,0,0,692.71,39.7Z"/><path d="M709.91,35.67a7.79,7.79,0,0,1,2-2.38,3.66,3.66,0,0,1,2.23-.71,4.11,4.11,0,0,1,.77.08,4.37,4.37,0,0,1,.77.2l-.59,1.7a5.44,5.44,0,0,0-.61-.15,3.21,3.21,0,0,0-.6-.06,3.39,3.39,0,0,0-2.78,1.53,6.08,6.08,0,0,0-1.15,3.79v6.39h-1.8v-13h1.8Z"/><path d="M717.94,34.6h-2.39V33.07h2.39V27.73h1.77v5.34h2.61V34.6h-2.61V46.06h-1.77Z"/><path d="M724.66,28a1.34,1.34,0,0,1,.41-1,1.39,1.39,0,0,1,1-.4,1.42,1.42,0,0,1,1,.4,1.32,1.32,0,0,1,.42,1,1.34,1.34,0,0,1-.4,1,1.4,1.4,0,0,1-1,.39,1.37,1.37,0,0,1-1-.39A1.34,1.34,0,0,1,724.66,28Zm.46,18.06v-13H727v13Z"/><path d="M742,35.44a7,7,0,0,0-1.94-.95,7.14,7.14,0,0,0-2.11-.31,5,5,0,0,0-3.85,1.55,5.79,5.79,0,0,0-1.44,4.12,5.08,5.08,0,0,0,1.49,3.76,5.15,5.15,0,0,0,3.8,1.48,6.62,6.62,0,0,0,2.13-.36,8.42,8.42,0,0,0,2.12-1.1v2a7.54,7.54,0,0,1-2.11.82,10.87,10.87,0,0,1-2.47.27,6.49,6.49,0,0,1-4.88-2,6.86,6.86,0,0,1-1.91-5A6.82,6.82,0,0,1,738,32.58a10.41,10.41,0,0,1,2.21.23,7.3,7.3,0,0,1,1.83.65Z"/><path d="M745.24,28a1.34,1.34,0,0,1,.41-1,1.41,1.41,0,0,1,2,0,1.38,1.38,0,0,1,0,2,1.4,1.4,0,0,1-1,.39,1.33,1.33,0,0,1-1-.39A1.31,1.31,0,0,1,745.24,28Zm.46,18.06v-13h1.86v13Z"/><path d="M752.48,52.59V33.07h1.74V35.5a5.55,5.55,0,0,1,1.95-2.16,4.91,4.91,0,0,1,2.7-.76,5.59,5.59,0,0,1,4.41,1.93,7.47,7.47,0,0,1,1.68,5.1,7.61,7.61,0,0,1-1.64,5.11A5.48,5.48,0,0,1,759,46.63a5.16,5.16,0,0,1-2.77-.75,5.69,5.69,0,0,1-2-2.22v8.93Zm10.53-13a6.16,6.16,0,0,0-1.15-4,3.83,3.83,0,0,0-3.17-1.44,4,4,0,0,0-3.26,1.4,5.74,5.74,0,0,0-1.18,3.84,5.91,5.91,0,0,0,1.27,4A4.18,4.18,0,0,0,758.87,45a3.67,3.67,0,0,0,3-1.4A6.23,6.23,0,0,0,763,39.64Z"/><path d="M778.3,46.06V43.69a5,5,0,0,1-1.81,2.19,4.93,4.93,0,0,1-2.74.75,5.74,5.74,0,0,1-4.51-1.92,7.38,7.38,0,0,1-1.7-5.07,7.58,7.58,0,0,1,1.68-5.09,5.49,5.49,0,0,1,4.35-2,5.42,5.42,0,0,1,2.87.73,4.75,4.75,0,0,1,1.86,2.13V33.07h1.81v13Zm-8.76-6.36a5.87,5.87,0,0,0,1.14,3.88A4,4,0,0,0,773.92,45a3.89,3.89,0,0,0,3.23-1.49,6.41,6.41,0,0,0,1.18-4.1,5.58,5.58,0,0,0-1.17-3.75A4,4,0,0,0,774,34.24a3.92,3.92,0,0,0-3.22,1.46A6.15,6.15,0,0,0,769.54,39.7Z"/><path d="M784.94,46.06v-13h1.71v2a5.29,5.29,0,0,1,1.94-1.86,5.44,5.44,0,0,1,2.65-.63,4.27,4.27,0,0,1,4.67,4.66v8.82h-1.83v-8a4.38,4.38,0,0,0-.81-2.9,3.13,3.13,0,0,0-2.51-.94,3.65,3.65,0,0,0-3,1.22,6.17,6.17,0,0,0-1,3.85v6.78Z"/><path d="M68.87,77.66V75.29a4.71,4.71,0,0,1-4.53,2.94,5.71,5.71,0,0,1-4.5-1.92,7.34,7.34,0,0,1-1.71-5.07,7.58,7.58,0,0,1,1.68-5.09,5.49,5.49,0,0,1,4.35-2,5.3,5.3,0,0,1,2.85.73A4.75,4.75,0,0,1,68.87,67V55H70.7V77.66ZM60.14,71.3a5.89,5.89,0,0,0,1.13,3.88,4,4,0,0,0,3.25,1.37,3.86,3.86,0,0,0,3.2-1.49A6.47,6.47,0,0,0,68.89,71a5.62,5.62,0,0,0-1.15-3.75,4.35,4.35,0,0,0-6.42.09A6.15,6.15,0,0,0,60.14,71.3Z"/><path d="M75.14,59.6a1.31,1.31,0,0,1,.41-1,1.34,1.34,0,0,1,1-.4,1.37,1.37,0,0,1,1,.4,1.34,1.34,0,0,1,.41,1,1.32,1.32,0,0,1-.4,1,1.46,1.46,0,0,1-2,0A1.32,1.32,0,0,1,75.14,59.6Zm.45,18.06v-13h1.86v13Z"/><path d="M82.8,77.66V66.2H80.36V64.67H82.8V60.92c0-2.61.24-4.3.73-5.08a2.9,2.9,0,0,1,2.68-1.16,4.57,4.57,0,0,1,.92.08A4.66,4.66,0,0,1,88,55l-.33,1.58a4.56,4.56,0,0,0-.69-.26,2.24,2.24,0,0,0-.6-.09A1.4,1.4,0,0,0,85,57a6.68,6.68,0,0,0-.4,2.77v4.93h2.86V66.2H84.58V77.66Z"/><path d="M101.3,71.21H91a6.37,6.37,0,0,0,1.26,4,3.9,3.9,0,0,0,3.18,1.43,4.18,4.18,0,0,0,2.52-.77,5.77,5.77,0,0,0,1.8-2.35l1.66.91A7.25,7.25,0,0,1,99,77.3a6.42,6.42,0,0,1-3.54.93,6,6,0,0,1-4.62-1.91,7.11,7.11,0,0,1-1.77-5,7.45,7.45,0,0,1,1.75-5.16,5.88,5.88,0,0,1,4.58-2A5.53,5.53,0,0,1,99.67,66a6.94,6.94,0,0,1,1.63,4.83Zm-2.14-1.53a3.72,3.72,0,0,0-4-3.75,3.9,3.9,0,0,0-2.75,1,4.1,4.1,0,0,0-1.28,2.73Z"/><path d="M106.85,67.27a7.65,7.65,0,0,1,2-2.38,3.64,3.64,0,0,1,2.23-.71,4.11,4.11,0,0,1,.77.08,4.37,4.37,0,0,1,.77.2l-.59,1.7a5.44,5.44,0,0,0-.61-.15,3.23,3.23,0,0,0-.61-.06A3.39,3.39,0,0,0,108,67.48a6.08,6.08,0,0,0-1.15,3.79v6.39h-1.8v-13h1.8Z"/><path d="M125.66,71.21H115.33a6.37,6.37,0,0,0,1.26,4,3.9,3.9,0,0,0,3.18,1.43,4.18,4.18,0,0,0,2.52-.77,5.77,5.77,0,0,0,1.8-2.35l1.66.91a7.25,7.25,0,0,1-2.44,2.91,6.42,6.42,0,0,1-3.54.93,6,6,0,0,1-4.62-1.91,7.11,7.11,0,0,1-1.77-5,7.5,7.5,0,0,1,1.75-5.16,5.88,5.88,0,0,1,4.58-2A5.53,5.53,0,0,1,124,66a6.94,6.94,0,0,1,1.63,4.83Zm-2.14-1.53a3.72,3.72,0,0,0-4-3.75,3.9,3.9,0,0,0-2.75,1,4.1,4.1,0,0,0-1.28,2.73Z"/><path d="M129.41,77.66v-13h1.71v2a5.29,5.29,0,0,1,1.94-1.86,5.44,5.44,0,0,1,2.65-.63,4.27,4.27,0,0,1,4.67,4.66v8.82h-1.83v-8a4.38,4.38,0,0,0-.81-2.9,3.15,3.15,0,0,0-2.52-.94,3.68,3.68,0,0,0-3,1.22,6.17,6.17,0,0,0-1,3.85v6.78Z"/><path d="M145.42,66.2H143V64.67h2.39V59.33h1.77v5.34h2.61V66.2h-2.61V77.66h-1.77Z"/><path d="M163.64,71.21H153.31a6.37,6.37,0,0,0,1.26,4,3.9,3.9,0,0,0,3.18,1.43,4.18,4.18,0,0,0,2.52-.77,5.68,5.68,0,0,0,1.8-2.35l1.66.91a7.25,7.25,0,0,1-2.44,2.91,6.39,6.39,0,0,1-3.54.93,6,6,0,0,1-4.62-1.91,7.1,7.1,0,0,1-1.76-5,7.45,7.45,0,0,1,1.75-5.16,5.85,5.85,0,0,1,4.57-2A5.57,5.57,0,0,1,162,66a7,7,0,0,1,1.62,4.83Zm-2.14-1.53a3.71,3.71,0,0,0-4-3.75,3.92,3.92,0,0,0-2.75,1,4.19,4.19,0,0,0-1.28,2.73Z"/><path d="M165.91,75.34l1.72-1A3.38,3.38,0,0,0,168.86,76a3.44,3.44,0,0,0,2,.55,2.72,2.72,0,0,0,1.82-.58,1.94,1.94,0,0,0,.67-1.55c0-1-.88-1.84-2.65-2.53l-.44-.18a8.37,8.37,0,0,1-2.87-1.66,2.94,2.94,0,0,1-.82-2.12,3.48,3.48,0,0,1,1.17-2.71,4.36,4.36,0,0,1,3-1.07,5,5,0,0,1,2.69.69,4,4,0,0,1,1.63,2l-1.66.93a2.63,2.63,0,0,0-1-1.41,3.11,3.11,0,0,0-1.76-.48,2.21,2.21,0,0,0-1.55.55,1.77,1.77,0,0,0-.6,1.37,1.7,1.7,0,0,0,.6,1.33,8,8,0,0,0,2.49,1.16,6.66,6.66,0,0,1,2.87,1.62,3.64,3.64,0,0,1,.74,2.43,3.53,3.53,0,0,1-1.27,2.86,5.18,5.18,0,0,1-3.43,1.07,5.27,5.27,0,0,1-2.85-.75A4.3,4.3,0,0,1,165.91,75.34Z"/><path d="M189.29,64.67v6.48a7.67,7.67,0,0,0,.84,4.18,3.93,3.93,0,0,0,5.71,0,7.54,7.54,0,0,0,.86-4.16V64.67h1.79v7.41a6.68,6.68,0,0,1-1.39,4.59A5.2,5.2,0,0,1,193,78.23a5.27,5.27,0,0,1-4.12-1.56,6.68,6.68,0,0,1-1.4-4.59V64.67Z"/><path d="M203.29,77.66v-13H205v2A5.21,5.21,0,0,1,207,64.81a5.42,5.42,0,0,1,2.64-.63,4.27,4.27,0,0,1,4.68,4.66v8.82h-1.84v-8a4.38,4.38,0,0,0-.81-2.9,3.13,3.13,0,0,0-2.51-.94,3.66,3.66,0,0,0-3,1.22,6.17,6.17,0,0,0-1,3.85v6.78Z"/><path d="M218.59,59.6a1.31,1.31,0,0,1,.41-1,1.34,1.34,0,0,1,1-.4,1.37,1.37,0,0,1,1,.4,1.36,1.36,0,0,1,0,2,1.46,1.46,0,0,1-2,0A1.32,1.32,0,0,1,218.59,59.6ZM219,77.66v-13h1.86v13Z"/><path d="M235.45,77.66V75.29a4.68,4.68,0,0,1-4.53,2.94,5.72,5.72,0,0,1-4.5-1.92,7.34,7.34,0,0,1-1.71-5.07,7.58,7.58,0,0,1,1.68-5.09,5.49,5.49,0,0,1,4.36-2,5.35,5.35,0,0,1,2.85.73A4.79,4.79,0,0,1,235.45,67V55h1.83V77.66Zm-8.73-6.36a5.94,5.94,0,0,0,1.13,3.88,4,4,0,0,0,3.25,1.37,3.89,3.89,0,0,0,3.21-1.49,6.47,6.47,0,0,0,1.17-4.1,5.63,5.63,0,0,0-1.16-3.75,4.35,4.35,0,0,0-6.42.09A6.15,6.15,0,0,0,226.72,71.3Z"/><path d="M251.65,77.66V75.29a4.71,4.71,0,0,1-4.56,2.94,5.74,5.74,0,0,1-4.5-1.92,7.34,7.34,0,0,1-1.71-5.07,7.54,7.54,0,0,1,1.69-5.09,5.46,5.46,0,0,1,4.35-2,5.38,5.38,0,0,1,2.86.73A4.71,4.71,0,0,1,251.65,67V64.67h1.8v13Zm-8.76-6.36A5.94,5.94,0,0,0,244,75.18a4,4,0,0,0,3.25,1.37,3.91,3.91,0,0,0,3.23-1.49,6.47,6.47,0,0,0,1.18-4.1,5.58,5.58,0,0,0-1.17-3.75,4,4,0,0,0-3.21-1.37,3.9,3.9,0,0,0-3.22,1.46A6.1,6.1,0,0,0,242.89,71.3Z"/><path d="M267.91,77.66V75.29a4.68,4.68,0,0,1-4.53,2.94,5.74,5.74,0,0,1-4.5-1.92,7.34,7.34,0,0,1-1.71-5.07,7.54,7.54,0,0,1,1.69-5.09,5.46,5.46,0,0,1,4.35-2,5.35,5.35,0,0,1,2.85.73A4.79,4.79,0,0,1,267.91,67V55h1.83V77.66Zm-8.73-6.36a5.94,5.94,0,0,0,1.13,3.88,4,4,0,0,0,3.25,1.37,3.88,3.88,0,0,0,3.21-1.49,6.47,6.47,0,0,0,1.17-4.1,5.63,5.63,0,0,0-1.16-3.75,4.35,4.35,0,0,0-6.42.09A6.15,6.15,0,0,0,259.18,71.3Z"/><path d="M285.68,71.21H275.35a6.37,6.37,0,0,0,1.26,4,3.9,3.9,0,0,0,3.18,1.43,4.18,4.18,0,0,0,2.52-.77,5.77,5.77,0,0,0,1.8-2.35l1.66.91a7.25,7.25,0,0,1-2.44,2.91,6.44,6.44,0,0,1-3.54.93,6,6,0,0,1-4.62-1.91,7.11,7.11,0,0,1-1.77-5,7.45,7.45,0,0,1,1.75-5.16,5.88,5.88,0,0,1,4.58-2A5.53,5.53,0,0,1,284.05,66a6.94,6.94,0,0,1,1.63,4.83Zm-2.14-1.53a3.72,3.72,0,0,0-4-3.75,3.9,3.9,0,0,0-2.75,1,4.1,4.1,0,0,0-1.28,2.73Z"/><path d="M288,75.34l1.71-1A3.38,3.38,0,0,0,290.89,76a3.49,3.49,0,0,0,2,.55,2.74,2.74,0,0,0,1.82-.58,1.94,1.94,0,0,0,.67-1.55c0-1-.88-1.84-2.65-2.53l-.44-.18a8.18,8.18,0,0,1-2.87-1.66,2.94,2.94,0,0,1-.82-2.12,3.48,3.48,0,0,1,1.17-2.71,4.33,4.33,0,0,1,3-1.07,5,5,0,0,1,2.7.69,4,4,0,0,1,1.62,2l-1.65.93a2.64,2.64,0,0,0-1-1.41,3.09,3.09,0,0,0-1.76-.48,2.19,2.19,0,0,0-1.54.55,1.74,1.74,0,0,0-.61,1.37,1.7,1.7,0,0,0,.6,1.33,8,8,0,0,0,2.49,1.16,6.65,6.65,0,0,1,2.88,1.62,3.69,3.69,0,0,1,.74,2.43A3.53,3.53,0,0,1,296,77.16a5.92,5.92,0,0,1-6.28.32A4.25,4.25,0,0,1,288,75.34Z"/><path d="M309.79,77.66V56.21h3.91a17.12,17.12,0,0,1,3.4.25,5.29,5.29,0,0,1,1.9.82,4.74,4.74,0,0,1,1.57,2,7,7,0,0,1,.56,2.83,5.51,5.51,0,0,1-1.72,4.49Q317.7,68,314,68h-2.25v9.63Zm1.95-11.34h1.33q3.54,0,4.77-.9a3.69,3.69,0,0,0,1.22-3.16,5.22,5.22,0,0,0-.28-1.75,4.19,4.19,0,0,0-.83-1.43,3,3,0,0,0-1.56-.9,14.07,14.07,0,0,0-3.32-.27h-1.33Z"/><path d="M328.79,78.23a6.62,6.62,0,0,1-2.67-.55,7.57,7.57,0,0,1-2.31-1.57,6.55,6.55,0,0,1-1.5-2.23,7.13,7.13,0,0,1-.51-2.7,7,7,0,0,1,.53-2.69,6.85,6.85,0,0,1,1.51-2.26,7,7,0,0,1,5-2,7.15,7.15,0,0,1,5,2,6.92,6.92,0,0,1,1.54,2.27,6.83,6.83,0,0,1,.54,2.68,6.87,6.87,0,0,1-2.05,4.93,7.47,7.47,0,0,1-2.34,1.57A7,7,0,0,1,328.79,78.23Zm.06-1.68A4.84,4.84,0,0,0,332.47,75a5.6,5.6,0,0,0,0-7.6,5.06,5.06,0,0,0-7.25,0,5.62,5.62,0,0,0,0,7.6A4.81,4.81,0,0,0,328.85,76.55Z"/><path d="M341.6,77.66h-1.86V55h1.86Z"/><path d="M346.19,59.6a1.38,1.38,0,0,1,1.39-1.38,1.37,1.37,0,0,1,1,.4,1.32,1.32,0,0,1,.42,1,1.36,1.36,0,0,1-.4,1,1.4,1.4,0,0,1-1,.39,1.37,1.37,0,0,1-1-.39A1.32,1.32,0,0,1,346.19,59.6Zm.45,18.06v-13h1.86v13Z"/><path d="M363.53,67a6.94,6.94,0,0,0-1.93-1,7.14,7.14,0,0,0-2.11-.31,5,5,0,0,0-3.85,1.54,5.82,5.82,0,0,0-1.44,4.13,5.08,5.08,0,0,0,1.49,3.76,5.15,5.15,0,0,0,3.8,1.48,6.71,6.71,0,0,0,2.13-.36,8.42,8.42,0,0,0,2.12-1.1v2a7.66,7.66,0,0,1-2.11.82,10.9,10.9,0,0,1-2.48.27,6.48,6.48,0,0,1-4.87-2,6.86,6.86,0,0,1-1.91-5,6.82,6.82,0,0,1,7.15-7.15,10.41,10.41,0,0,1,2.21.23,7.3,7.3,0,0,1,1.83.65Z"/><path d="M366.77,59.6a1.38,1.38,0,0,1,1.39-1.38,1.37,1.37,0,0,1,1,.4,1.32,1.32,0,0,1,.42,1,1.36,1.36,0,0,1-.4,1,1.4,1.4,0,0,1-1,.39,1.37,1.37,0,0,1-1-.39A1.32,1.32,0,0,1,366.77,59.6Zm.46,18.06v-13h1.86v13Z"/><path d="M383.6,77.66V75.29a5,5,0,0,1-1.81,2.19,4.93,4.93,0,0,1-2.74.75,5.74,5.74,0,0,1-4.51-1.92,7.33,7.33,0,0,1-1.7-5.07,7.58,7.58,0,0,1,1.68-5.09,5.46,5.46,0,0,1,4.35-2,5.38,5.38,0,0,1,2.86.73A4.71,4.71,0,0,1,383.6,67V64.67h1.8v13Zm-8.76-6.36A5.89,5.89,0,0,0,376,75.18a4,4,0,0,0,3.24,1.37,3.89,3.89,0,0,0,3.23-1.49,6.41,6.41,0,0,0,1.18-4.1,5.58,5.58,0,0,0-1.17-3.75,4,4,0,0,0-3.21-1.37A3.9,3.9,0,0,0,376,67.3,6.15,6.15,0,0,0,374.84,71.3Z"/><path d="M392.22,77.66h-1.87V55h1.87Z"/><path d="M408.3,71.21H398a6.37,6.37,0,0,0,1.26,4,3.9,3.9,0,0,0,3.18,1.43,4.18,4.18,0,0,0,2.52-.77,5.77,5.77,0,0,0,1.8-2.35l1.66.91A7.25,7.25,0,0,1,406,77.3a6.39,6.39,0,0,1-3.54.93,6,6,0,0,1-4.62-1.91,7.11,7.11,0,0,1-1.77-5,7.5,7.5,0,0,1,1.75-5.16,5.88,5.88,0,0,1,4.58-2A5.53,5.53,0,0,1,406.67,66a6.94,6.94,0,0,1,1.63,4.83Zm-2.14-1.53a3.72,3.72,0,0,0-4-3.75,3.9,3.9,0,0,0-2.75,1,4.14,4.14,0,0,0-1.28,2.73Z"/><path d="M410.57,75.34l1.71-1a3.18,3.18,0,0,0,3.21,2.19,2.74,2.74,0,0,0,1.82-.58,1.94,1.94,0,0,0,.67-1.55c0-1-.88-1.84-2.65-2.53l-.44-.18A8.27,8.27,0,0,1,412,70.05a2.94,2.94,0,0,1-.82-2.12,3.48,3.48,0,0,1,1.17-2.71,4.33,4.33,0,0,1,3-1.07,5,5,0,0,1,2.7.69,4,4,0,0,1,1.63,2l-1.66.93a2.64,2.64,0,0,0-1-1.41,3.05,3.05,0,0,0-1.75-.48,2.21,2.21,0,0,0-1.55.55,1.78,1.78,0,0,0-.61,1.37,1.7,1.7,0,0,0,.6,1.33,8,8,0,0,0,2.49,1.16,6.65,6.65,0,0,1,2.88,1.62,3.64,3.64,0,0,1,.74,2.43,3.53,3.53,0,0,1-1.27,2.86,5.18,5.18,0,0,1-3.43,1.07,5.27,5.27,0,0,1-2.85-.75A4.25,4.25,0,0,1,410.57,75.34Z"/><path d="M432.15,84.19V64.67h1.74V67.1a5.55,5.55,0,0,1,1.95-2.16,4.9,4.9,0,0,1,2.69-.76A5.56,5.56,0,0,1,443,66.11a7.47,7.47,0,0,1,1.68,5.1A7.61,7.61,0,0,1,443,76.32a5.49,5.49,0,0,1-4.37,1.91,5.13,5.13,0,0,1-2.77-.75,5.69,5.69,0,0,1-2-2.22v8.93Zm10.53-13a6.16,6.16,0,0,0-1.15-4,3.83,3.83,0,0,0-3.17-1.44,4,4,0,0,0-3.26,1.4,5.74,5.74,0,0,0-1.18,3.84,5.91,5.91,0,0,0,1.27,4,4.18,4.18,0,0,0,3.34,1.49,3.67,3.67,0,0,0,3.06-1.4A6.29,6.29,0,0,0,442.68,71.24Z"/><path d="M458,77.66V75.29a5,5,0,0,1-1.81,2.19,4.93,4.93,0,0,1-2.74.75,5.74,5.74,0,0,1-4.51-1.92,7.33,7.33,0,0,1-1.7-5.07,7.58,7.58,0,0,1,1.68-5.09,5.46,5.46,0,0,1,4.35-2,5.38,5.38,0,0,1,2.86.73A4.71,4.71,0,0,1,458,67V64.67h1.8v13Zm-8.76-6.36a5.89,5.89,0,0,0,1.14,3.88,4,4,0,0,0,3.24,1.37,3.89,3.89,0,0,0,3.23-1.49A6.41,6.41,0,0,0,458,71a5.58,5.58,0,0,0-1.17-3.75,4,4,0,0,0-3.21-1.37,3.9,3.9,0,0,0-3.22,1.46A6.15,6.15,0,0,0,449.21,71.3Z"/><path d="M466.41,67.27a7.79,7.79,0,0,1,2-2.38,3.64,3.64,0,0,1,2.23-.71,4.11,4.11,0,0,1,.77.08,4.37,4.37,0,0,1,.77.2l-.59,1.7a5.44,5.44,0,0,0-.61-.15,3.21,3.21,0,0,0-.6-.06,3.39,3.39,0,0,0-2.78,1.53,6.08,6.08,0,0,0-1.15,3.79v6.39h-1.8v-13h1.8Z"/><path d="M483.65,77.66V75.29a5,5,0,0,1-1.81,2.19,4.93,4.93,0,0,1-2.74.75,5.74,5.74,0,0,1-4.51-1.92,7.34,7.34,0,0,1-1.71-5.07,7.59,7.59,0,0,1,1.69-5.09,5.46,5.46,0,0,1,4.35-2,5.38,5.38,0,0,1,2.86.73A4.71,4.71,0,0,1,483.65,67V64.67h1.8v13Zm-8.76-6.36A5.89,5.89,0,0,0,476,75.18a4,4,0,0,0,3.24,1.37,3.91,3.91,0,0,0,3.23-1.49,6.41,6.41,0,0,0,1.18-4.1,5.58,5.58,0,0,0-1.17-3.75,4,4,0,0,0-3.21-1.37,3.9,3.9,0,0,0-3.22,1.46A6.15,6.15,0,0,0,474.89,71.3Z"/><path d="M499.31,66.2h-2.39V64.67h2.39V59.33h1.77v5.34h2.61V66.2h-2.61V77.66h-1.77Z"/><path d="M512.27,78.23a6.6,6.6,0,0,1-2.66-.55,7.74,7.74,0,0,1-2.32-1.57,6.67,6.67,0,0,1-1.49-2.23,7.13,7.13,0,0,1-.51-2.7,7,7,0,0,1,.52-2.69,7.17,7.17,0,0,1,1.51-2.26,7,7,0,0,1,4.95-2,7.26,7.26,0,0,1,2.74.53,7,7,0,0,1,2.3,1.52,6.89,6.89,0,0,1,0,9.88A7.31,7.31,0,0,1,515,77.68,7,7,0,0,1,512.27,78.23Zm.06-1.68A4.85,4.85,0,0,0,516,75a5.25,5.25,0,0,0,1.48-3.79A5.32,5.32,0,0,0,516,67.4a5.07,5.07,0,0,0-7.26,0,5.62,5.62,0,0,0,0,7.6A4.84,4.84,0,0,0,512.33,76.55Z"/><path d="M524.92,77.66h-1.81v-13h1.81v2a4.67,4.67,0,0,1,1.69-1.87,4.61,4.61,0,0,1,2.44-.65,4.4,4.4,0,0,1,2.42.65A4.27,4.27,0,0,1,533,66.75a4.94,4.94,0,0,1,4.52-2.57,4.27,4.27,0,0,1,3.25,1.25A4.77,4.77,0,0,1,542,68.87v8.79h-1.8V69.59a4.43,4.43,0,0,0-.79-2.87,2.81,2.81,0,0,0-2.33-1A3.11,3.11,0,0,0,534.33,67a6.7,6.7,0,0,0-.87,3.85v6.84h-1.79V69.59a4.62,4.62,0,0,0-.75-2.92,2.82,2.82,0,0,0-2.31-.92,3.22,3.22,0,0,0-2.8,1.23,6.56,6.56,0,0,0-.89,3.84Z"/><path d="M556.38,77.66V75.29a4.71,4.71,0,0,1-4.56,2.94,5.74,5.74,0,0,1-4.5-1.92,7.34,7.34,0,0,1-1.71-5.07,7.59,7.59,0,0,1,1.69-5.09,5.46,5.46,0,0,1,4.35-2,5.38,5.38,0,0,1,2.86.73A4.71,4.71,0,0,1,556.38,67V64.67h1.8v13Zm-8.76-6.36a5.89,5.89,0,0,0,1.14,3.88A4,4,0,0,0,552,76.55a3.91,3.91,0,0,0,3.23-1.49,6.41,6.41,0,0,0,1.18-4.1,5.58,5.58,0,0,0-1.17-3.75A4,4,0,0,0,552,65.84a3.9,3.9,0,0,0-3.22,1.46A6.15,6.15,0,0,0,547.62,71.3Z"/><path d="M581.28,77.66V75.29a4.68,4.68,0,0,1-4.52,2.94,5.74,5.74,0,0,1-4.51-1.92,7.33,7.33,0,0,1-1.7-5.07,7.58,7.58,0,0,1,1.68-5.09,5.46,5.46,0,0,1,4.35-2,5.35,5.35,0,0,1,2.85.73A4.73,4.73,0,0,1,581.28,67V55h1.83V77.66Zm-8.73-6.36a5.89,5.89,0,0,0,1.14,3.88,4,4,0,0,0,3.24,1.37,3.87,3.87,0,0,0,3.21-1.49,6.47,6.47,0,0,0,1.17-4.1,5.57,5.57,0,0,0-1.16-3.75,4.34,4.34,0,0,0-6.41.09A6.15,6.15,0,0,0,572.55,71.3Z"/><path d="M599.05,71.21H588.72a6.37,6.37,0,0,0,1.26,4,3.9,3.9,0,0,0,3.18,1.43,4.18,4.18,0,0,0,2.52-.77,5.68,5.68,0,0,0,1.8-2.35l1.66.91a7.17,7.17,0,0,1-2.44,2.91,6.39,6.39,0,0,1-3.54.93,6,6,0,0,1-4.62-1.91,7.1,7.1,0,0,1-1.76-5,7.45,7.45,0,0,1,1.75-5.16,5.85,5.85,0,0,1,4.57-2A5.57,5.57,0,0,1,597.43,66a7,7,0,0,1,1.62,4.83Zm-2.14-1.53a3.71,3.71,0,0,0-4-3.75,3.92,3.92,0,0,0-2.75,1,4.19,4.19,0,0,0-1.28,2.73Z"/><path d="M612.91,67a7.07,7.07,0,0,0-1.93-1,7.19,7.19,0,0,0-2.11-.31A5,5,0,0,0,605,67.32a5.86,5.86,0,0,0-1.43,4.13,5.07,5.07,0,0,0,1.48,3.76,5.17,5.17,0,0,0,3.81,1.48,6.71,6.71,0,0,0,2.13-.36,8.36,8.36,0,0,0,2.11-1.1v2A7.42,7.42,0,0,1,611,78a10.81,10.81,0,0,1-2.47.27,6.5,6.5,0,0,1-4.88-2,6.86,6.86,0,0,1-1.9-5,6.81,6.81,0,0,1,7.14-7.15,10.34,10.34,0,0,1,2.21.23,7.38,7.38,0,0,1,1.84.65Z"/><path d="M616.15,59.6a1.31,1.31,0,0,1,.41-1,1.34,1.34,0,0,1,1-.4,1.37,1.37,0,0,1,1,.4,1.39,1.39,0,0,1,0,2,1.46,1.46,0,0,1-2,0A1.32,1.32,0,0,1,616.15,59.6Zm.45,18.06v-13h1.86v13Z"/><path d="M621.9,75.34l1.72-1A3.38,3.38,0,0,0,624.85,76a3.44,3.44,0,0,0,2,.55,2.72,2.72,0,0,0,1.82-.58,1.94,1.94,0,0,0,.67-1.55c0-1-.88-1.84-2.65-2.53l-.44-.18a8.37,8.37,0,0,1-2.87-1.66,3,3,0,0,1-.82-2.12,3.48,3.48,0,0,1,1.17-2.71,4.37,4.37,0,0,1,3-1.07,5,5,0,0,1,2.69.69,4,4,0,0,1,1.63,2l-1.66.93a2.58,2.58,0,0,0-1-1.41,3.11,3.11,0,0,0-1.76-.48,2.21,2.21,0,0,0-1.55.55,1.77,1.77,0,0,0-.6,1.37,1.7,1.7,0,0,0,.6,1.33,8,8,0,0,0,2.49,1.16,6.66,6.66,0,0,1,2.87,1.62,3.64,3.64,0,0,1,.75,2.43,3.53,3.53,0,0,1-1.28,2.86,5.18,5.18,0,0,1-3.43,1.07,5.27,5.27,0,0,1-2.85-.75A4.3,4.3,0,0,1,621.9,75.34Z"/><path d="M634.5,59.6a1.38,1.38,0,0,1,1.39-1.38,1.37,1.37,0,0,1,1,.4,1.32,1.32,0,0,1,.42,1,1.36,1.36,0,0,1-.4,1,1.4,1.4,0,0,1-1,.39,1.37,1.37,0,0,1-1-.39A1.32,1.32,0,0,1,634.5,59.6ZM635,77.66v-13h1.86v13Z"/><path d="M647.64,78.23a6.62,6.62,0,0,1-2.67-.55,7.57,7.57,0,0,1-2.31-1.57,6.67,6.67,0,0,1-1.49-2.23,7.18,7.18,0,0,1,0-5.39,6.85,6.85,0,0,1,1.51-2.26,7,7,0,0,1,4.95-2,7.18,7.18,0,0,1,2.73.53,7,7,0,0,1,2.31,1.52,7.11,7.11,0,0,1,1.55,2.27,6.93,6.93,0,0,1-1.52,7.61,7.35,7.35,0,0,1-2.34,1.57A6.9,6.9,0,0,1,647.64,78.23Zm.06-1.68A4.84,4.84,0,0,0,651.32,75a5.6,5.6,0,0,0,0-7.6,5.06,5.06,0,0,0-7.25,0,5.62,5.62,0,0,0,0,7.6A4.82,4.82,0,0,0,647.7,76.55Z"/><path d="M658.48,77.66v-13h1.71v2a5.29,5.29,0,0,1,1.94-1.86,5.44,5.44,0,0,1,2.65-.63,4.27,4.27,0,0,1,4.67,4.66v8.82h-1.83v-8a4.38,4.38,0,0,0-.81-2.9,3.13,3.13,0,0,0-2.51-.94,3.65,3.65,0,0,0-3,1.22,6.17,6.17,0,0,0-1,3.85v6.78Z"/><path d="M685.27,71.21H674.94a6.37,6.37,0,0,0,1.26,4,3.93,3.93,0,0,0,3.18,1.43,4.18,4.18,0,0,0,2.52-.77,5.6,5.6,0,0,0,1.8-2.35l1.66.91a7.17,7.17,0,0,1-2.44,2.91,6.39,6.39,0,0,1-3.54.93,6,6,0,0,1-4.62-1.91,7.1,7.1,0,0,1-1.76-5,7.45,7.45,0,0,1,1.75-5.16,5.85,5.85,0,0,1,4.57-2A5.57,5.57,0,0,1,683.65,66a7,7,0,0,1,1.62,4.83Zm-2.14-1.53A4,4,0,0,0,682,66.91a4,4,0,0,0-2.86-1,3.92,3.92,0,0,0-2.75,1,4.19,4.19,0,0,0-1.28,2.73Z"/><path d="M687.54,75.34l1.72-1A3.38,3.38,0,0,0,690.49,76a3.44,3.44,0,0,0,2,.55,2.72,2.72,0,0,0,1.82-.58,1.94,1.94,0,0,0,.67-1.55c0-1-.88-1.84-2.65-2.53l-.44-.18A8.37,8.37,0,0,1,689,70.05a3,3,0,0,1-.82-2.12,3.48,3.48,0,0,1,1.17-2.71,4.37,4.37,0,0,1,3-1.07,5,5,0,0,1,2.69.69,4,4,0,0,1,1.63,2l-1.66.93a2.58,2.58,0,0,0-1-1.41,3.11,3.11,0,0,0-1.76-.48,2.21,2.21,0,0,0-1.55.55,1.77,1.77,0,0,0-.6,1.37,1.7,1.7,0,0,0,.6,1.33,8,8,0,0,0,2.49,1.16,6.66,6.66,0,0,1,2.87,1.62,3.64,3.64,0,0,1,.74,2.43,3.53,3.53,0,0,1-1.27,2.86,5.18,5.18,0,0,1-3.43,1.07,5.27,5.27,0,0,1-2.85-.75A4.3,4.3,0,0,1,687.54,75.34Z"/><path d="M700.9,76.43a1.5,1.5,0,0,1,2.56-1.06,1.42,1.42,0,0,1,.43,1.06,1.47,1.47,0,0,1-1.49,1.49,1.46,1.46,0,0,1-1.07-.43A1.47,1.47,0,0,1,700.9,76.43Z"/></svg>