<svg xmlns="http://www.w3.org/2000/svg" viewBox="0 0 340.51 320.4"><defs><style>.cls-1{isolation:isolate;}.cls-2{fill:#fff;}.cls-3{fill:#d31c25;}.cls-4{fill:#4d4d4d;}.cls-5{fill:gray;}.cls-6{fill:none;stroke:#666;stroke-miterlimit:10;stroke-width:2px;}.cls-7{fill:#ff4335;}.cls-8{fill:#9e151c;}.cls-9{fill:#301404;opacity:0.25;mix-blend-mode:multiply;}</style></defs><title>gaula</title><g class="cls-1"><g id="Capa_2" data-name="Capa 2"><g id="ALERTAS"><path class="cls-2" d="M327.43,0H13.08A13.07,13.07,0,0,0,0,13.08v98.08a13.07,13.07,0,0,0,13.08,13.08h130l26.57,46,26.56-46H327.43a13.07,13.07,0,0,0,13.08-13.08V13.08A13.07,13.07,0,0,0,327.43,0Z"/><path class="cls-2" d="M22.78,12.2h99.11a1.54,1.54,0,0,1,1.54,1.54v99.56a1.54,1.54,0,0,1-1.54,1.54H22.78A5.84,5.84,0,0,1,16.94,109V18A5.84,5.84,0,0,1,22.78,12.2Z"/><path class="cls-3" d="M125,12.2H317.73A5.84,5.84,0,0,1,323.57,18v91a5.84,5.84,0,0,1-5.84,5.84H125a1.54,1.54,0,0,1-1.54-1.54V13.73A1.54,1.54,0,0,1,125,12.2Z"/><ellipse class="cls-4" cx="72.47" cy="79.49" rx="28.72" ry="12.64"/><rect class="cls-4" x="43.76" y="75.5" width="57.43" height="3.95" rx="1.54"/><ellipse class="cls-5" cx="72.47" cy="75.04" rx="28.72" ry="12.64"/><ellipse class="cls-6" cx="72.47" cy="75.04" rx="26.75" ry="10.67"/><ellipse class="cls-3" cx="72.85" cy="75.55" rx="23.97" ry="7.18"/><path class="cls-3" d="M49.29,73.19l5.35-30.4a2,2,0,0,1,1.94-1.63H89.12a2,2,0,0,1,1.94,1.63l5.35,30.4a2,2,0,0,1-1.94,2.31H51.23A2,2,0,0,1,49.29,73.19Z"/><ellipse class="cls-3" cx="72.85" cy="41.21" rx="17.93" ry="7.18"/><path class="cls-7" d="M72.85,46.71a33.5,33.5,0,0,1-12-2c-2.59-1-4.2-2.38-4.2-3.51s1.61-2.49,4.2-3.52a33.51,33.51,0,0,1,12-2,33.51,33.51,0,0,1,12.05,2c2.59,1,4.2,2.38,4.2,3.52s-1.61,2.48-4.2,3.51A33.5,33.5,0,0,1,72.85,46.71Z"/><path class="cls-7" d="M55.12,48.52,50.8,74.16A1.84,1.84,0,0,0,51,75.42c.66,1.11,2.92,3,10.49,3.89a2,2,0,0,0,2.18-1.67l3.87-26a2,2,0,0,0-1.66-2.24,27.74,27.74,0,0,1-8-2.28A2,2,0,0,0,55.12,48.52Z"/><circle class="cls-8" cx="78.96" cy="76.17" r="2.86"/><path class="cls-8" d="M75.23,52.62l.88,15.11a2.92,2.92,0,0,0,2.72,3,2.86,2.86,0,0,0,3-2.86l.88-15.2a1.28,1.28,0,0,0-1.28-1.29H76.51A1.28,1.28,0,0,0,75.23,52.62Z"/><circle class="cls-2" cx="80.54" cy="74.99" r="2.86"/><path class="cls-2" d="M76.8,51.44l.88,15.11a2.93,2.93,0,0,0,2.73,3,2.86,2.86,0,0,0,3-2.86l.88-15.2A1.28,1.28,0,0,0,83,50.15H78.08A1.28,1.28,0,0,0,76.8,51.44Z"/><path class="cls-2" d="M148.76,35.22a2.67,2.67,0,0,1,.83-2,2.77,2.77,0,0,1,2-.83,2.82,2.82,0,0,1,2,4.8,2.74,2.74,0,0,1-2,.82,2.78,2.78,0,0,1-2-.82A2.7,2.7,0,0,1,148.76,35.22Zm.48,5.33h4.68V57.77h-4.68Z"/><path class="cls-2" d="M158.46,57.13,167.66,33h5.91l9.33,24.17H177l-2-5.14h-9.37L164,57.13Zm15.39-9.2-2.71-7.81c-.07-.23-.17-.62-.29-1.18s-.25-1.25-.38-2.07c-.15.78-.28,1.48-.42,2.11s-.23,1-.29,1.24l-2.61,7.71Z"/><path class="cls-2" d="M186.79,57.13V33H192V52.74h8.25v4.39Z"/><path class="cls-2" d="M204.82,57.13V33h14.23v4.36H210v5h9.06v4.39H210v6.06h9.06v4.39Z"/><path class="cls-2" d="M243,57.13h-6l-6.35-11.29V57.13h-5.17V33h7.4q4.41,0,6.6,1.71a6.12,6.12,0,0,1,2.2,5.14,6.38,6.38,0,0,1-1.51,4.26,5.8,5.8,0,0,1-3.88,2.06ZM230.64,43.26h.77c2.09,0,3.48-.23,4.15-.68a2.69,2.69,0,0,0,1-2.39,2.86,2.86,0,0,0-1.08-2.53,7.66,7.66,0,0,0-4.07-.76h-.77Z"/><path class="cls-2" d="M256.34,37.35V57.13h-5.18V37.35h-5.91V33h17v4.39Z"/><path class="cls-2" d="M262.27,57.13,271.46,33h5.91l9.33,24.17h-5.88l-2-5.14H269.5l-1.69,5.14Zm15.38-9.2L275,40.12a11.14,11.14,0,0,1-.3-1.18c-.12-.57-.25-1.25-.38-2.07-.14.78-.28,1.48-.41,2.11s-.23,1-.3,1.24L271,47.93Z"/><path class="cls-2" d="M290.73,54.93a2.7,2.7,0,0,1,.82-2,2.9,2.9,0,0,1,4,0,2.72,2.72,0,0,1,.81,2,2.78,2.78,0,0,1-.81,2,2.84,2.84,0,0,1-4.83-2Zm.48-5.35V32.41h4.68V49.58Z"/><path class="cls-2" d="M160.63,82.87h11c0,.14,0,.3,0,.46s0,.42,0,.76a12.47,12.47,0,0,1-3.11,8.8,10.38,10.38,0,0,1-8,3.37,12.71,12.71,0,0,1-9.28-3.59,13.13,13.13,0,0,1,0-18.19,12.73,12.73,0,0,1,9.26-3.58A11.84,11.84,0,0,1,166,72.14a13.15,13.15,0,0,1,4.39,3.7l-3.49,2.57a8.43,8.43,0,0,0-2.74-2.33,7.27,7.27,0,0,0-3.31-.72,7.57,7.57,0,0,0-5.73,2.23,9.26,9.26,0,0,0,0,11.88,7.42,7.42,0,0,0,5.62,2.25,6.63,6.63,0,0,0,4.12-1.2,3.73,3.73,0,0,0,1.59-3.13v-.26h-5.81Z"/><path class="cls-2" d="M174.26,95.62l9.2-24.17h5.91l9.33,24.17h-5.88l-2-5.14h-9.36l-1.68,5.14Zm15.39-9.2-2.71-7.81c-.08-.23-.17-.63-.3-1.19s-.24-1.25-.38-2.06c-.14.78-.28,1.48-.41,2.1s-.23,1-.3,1.25L183,86.42Z"/><path class="cls-2" d="M222.78,71.45v15q0,4.92-2.59,7.34t-7.81,2.43q-5.3,0-7.89-2.43t-2.59-7.34v-15H207V85.68a6.68,6.68,0,0,0,1.32,4.5,5,5,0,0,0,4,1.51,5.07,5.07,0,0,0,4-1.52,6.52,6.52,0,0,0,1.36-4.49V71.45Z"/><path class="cls-2" d="M229.48,95.62V71.45h5.17V91.22h8.25v4.4Z"/><path class="cls-2" d="M244.64,95.62l9.19-24.17h5.91l9.33,24.17h-5.88l-2-5.14h-9.36l-1.69,5.14ZM260,86.42l-2.7-7.81a11.51,11.51,0,0,1-.3-1.19c-.12-.56-.25-1.25-.38-2.06-.14.78-.28,1.48-.41,2.1s-.23,1-.3,1.25l-2.61,7.71Z"/><ellipse class="cls-9" cx="170.26" cy="297.27" rx="86.04" ry="23.13"/></g></g></g></svg>