<svg xmlns="http://www.w3.org/2000/svg" viewBox="0 0 831 1080"><defs><style>.cls-1{fill:#fff;}.cls-2{fill:#f66;}.cls-3{fill:#ff8585;}.cls-4{fill:#3a665f;}.cls-5{opacity:0.25;}.cls-6{fill:#1d3330;fill-rule:evenodd;}</style></defs><title>perdiste_1</title><g id="Capa_2" data-name="Capa 2"><g id="Capa_1-2" data-name="Capa 1"><rect class="cls-1" x="2" width="829" height="1080"/><rect class="cls-2" x="2" y="580" width="829" height="123"/><rect class="cls-3" x="2" y="596" width="829" height="91"/><rect class="cls-4" y="249" width="831" height="63"/><path class="cls-4" d="M274.79,385.16a18.44,18.44,0,0,0-4.87-5.6,11.9,11.9,0,0,0-7.18-2,12.43,12.43,0,0,0-4.4.79,11.92,11.92,0,0,0-3.71,2.23,10.5,10.5,0,0,0-2.55,3.42,10.31,10.31,0,0,0-.93,4.41,7.34,7.34,0,0,0,1.07,3.94,12.4,12.4,0,0,0,2.64,3,17.5,17.5,0,0,0,3.52,2.22l3.71,1.76,4.63,2a65.47,65.47,0,0,1,6.44,3.2,25.63,25.63,0,0,1,5.33,4,16.94,16.94,0,0,1,3.66,5.29A17.43,17.43,0,0,1,283.5,421a21.1,21.1,0,0,1-1.72,8.57,20.7,20.7,0,0,1-4.72,6.81,22.77,22.77,0,0,1-7,4.54,21.74,21.74,0,0,1-8.53,1.67,22.73,22.73,0,0,1-7.78-1.3,20.76,20.76,0,0,1-6.44-3.66,21,21,0,0,1-4.77-5.7,23.94,23.94,0,0,1-2.78-7.41l7.59-2.13a16,16,0,0,0,1.58,5.05,15.63,15.63,0,0,0,3,4.12,13.47,13.47,0,0,0,4.22,2.78,13.17,13.17,0,0,0,5.19,1,14.55,14.55,0,0,0,5.37-1,15,15,0,0,0,4.59-2.82,13.86,13.86,0,0,0,3.2-4.31,12.48,12.48,0,0,0,1.2-5.47,11.12,11.12,0,0,0-1.11-5.19,12.53,12.53,0,0,0-2.92-3.71,19.4,19.4,0,0,0-4.12-2.73c-1.55-.77-3.12-1.53-4.73-2.27L258.57,406q-3.06-1.39-5.84-3a23.87,23.87,0,0,1-4.87-3.61,15.22,15.22,0,0,1-3.29-4.78,16.17,16.17,0,0,1-1.2-6.53,16.59,16.59,0,0,1,5.88-13,19.77,19.77,0,0,1,6.26-3.57,21.84,21.84,0,0,1,7.41-1.25A19.92,19.92,0,0,1,281,381.18Z"/><path class="cls-4" d="M306.57,441.42h-7.78V371.54h7.78Z"/><path class="cls-4" d="M343,441.42h-7.78V378.77H318.34v-7.23h41.71v7.23H343Z"/><path class="cls-4" d="M379.32,413.15v4a29.2,29.2,0,0,0,.28,4.07,19.84,19.84,0,0,0,.93,3.94,13.48,13.48,0,0,0,1.85,3.57,14.7,14.7,0,0,0,6.25,5,19.57,19.57,0,0,0,7.83,1.71,18.91,18.91,0,0,0,7.56-1.62,15.92,15.92,0,0,0,6.16-4.59,11.85,11.85,0,0,0,2.09-3.61,22.66,22.66,0,0,0,1-4,28.25,28.25,0,0,0,.32-4.22V371.54h7.78v43.74c0,1.92-.06,3.73-.18,5.42a29.83,29.83,0,0,1-.79,5,18.82,18.82,0,0,1-1.85,4.64,22,22,0,0,1-3.29,4.35,24,24,0,0,1-8.57,5.93,26.7,26.7,0,0,1-10.25,2,27.27,27.27,0,0,1-9.77-1.81,23.28,23.28,0,0,1-8.3-5.32,21.8,21.8,0,0,1-3.66-4.5,20.06,20.06,0,0,1-2-4.77,28.39,28.39,0,0,1-.92-5.24c-.16-1.82-.23-3.72-.23-5.7V371.54h7.78Z"/><path class="cls-4" d="M449.38,421.58,441,441.42h-8.53l32.25-73.22,31.42,73.22h-8.62l-8.25-19.84Zm15.11-35.21-12,28h23.64Z"/><path class="cls-4" d="M560.68,386.83A30.56,30.56,0,0,0,551,380a28.23,28.23,0,0,0-11.63-2.46,25.9,25.9,0,0,0-11,2.37,28.85,28.85,0,0,0-8.95,6.35,30.45,30.45,0,0,0-6,9.22,28.26,28.26,0,0,0,0,22,29.85,29.85,0,0,0,6.07,9.22,29.18,29.18,0,0,0,9,6.35,26.17,26.17,0,0,0,11,2.36A27,27,0,0,0,551,432.84a33.22,33.22,0,0,0,9.68-6.71v9.63a37.08,37.08,0,0,1-9.91,5.05,34,34,0,0,1-10.94,1.81,35.33,35.33,0,0,1-14-2.83,36.77,36.77,0,0,1-19.46-19.09,33.69,33.69,0,0,1-2.92-13.94,35.25,35.25,0,0,1,2.87-14.14,36.82,36.82,0,0,1,19.42-19.41,35.07,35.07,0,0,1,14.13-2.87,33.9,33.9,0,0,1,20.85,6.85Z"/><path class="cls-4" d="M585.52,441.42h-7.79V371.54h7.79Z"/><path class="cls-4" d="M636.3,370.34a35.74,35.74,0,0,1,14.14,2.82A36.45,36.45,0,0,1,662,381a37,37,0,0,1,7.83,11.54,35.88,35.88,0,0,1,0,28.17A35.83,35.83,0,0,1,662,432.1a37,37,0,0,1-11.58,7.69,36.72,36.72,0,0,1-28.27,0,36.91,36.91,0,0,1-11.58-7.69,35.83,35.83,0,0,1-7.83-11.44,35.88,35.88,0,0,1,0-28.17A37,37,0,0,1,610.59,381a36.34,36.34,0,0,1,11.58-7.79A35.72,35.72,0,0,1,636.3,370.34Zm0,7.22A28.11,28.11,0,0,0,625,379.83,28.53,28.53,0,0,0,616,386a29.55,29.55,0,0,0-6.07,9.23,28.64,28.64,0,0,0-2.22,11.21,28.34,28.34,0,0,0,2.22,11.17,29.07,29.07,0,0,0,6.12,9.17,29.44,29.44,0,0,0,9.13,6.26,28.14,28.14,0,0,0,22.33,0,29.44,29.44,0,0,0,9.13-6.26,29.07,29.07,0,0,0,6.12-9.17,28.34,28.34,0,0,0,2.22-11.17,28.64,28.64,0,0,0-2.22-11.21,29.55,29.55,0,0,0-6.07-9.23,28.57,28.57,0,0,0-9.09-6.21A28,28,0,0,0,636.3,377.56ZM649.46,352l-14.17,14.27-4.64-2.6,11-15.2Z"/><path class="cls-4" d="M687.46,368.58,742,425.66V371.54h7.79v73l-54.49-57v53.85h-7.79Z"/><path class="cls-4" d="M244.37,465.53v11.64h13.05v4.06H244.37v19.45H240V461.47h17.84v4.06Z"/><path class="cls-4" d="M271.2,484.82v2.23a15.93,15.93,0,0,0,.16,2.29,10.94,10.94,0,0,0,.52,2.21,7.2,7.2,0,0,0,1,2,8.21,8.21,0,0,0,3.51,2.79,10.91,10.91,0,0,0,4.39,1,10.58,10.58,0,0,0,4.24-.91,9.08,9.08,0,0,0,3.46-2.58,6.65,6.65,0,0,0,1.17-2,12.37,12.37,0,0,0,.57-2.27,15.43,15.43,0,0,0,.18-2.36V461.47h4.37V486c0,1.08,0,2.09-.1,3.05a17,17,0,0,1-.45,2.78,10.17,10.17,0,0,1-1,2.6,12.5,12.5,0,0,1-1.84,2.44,13.51,13.51,0,0,1-4.81,3.33,15,15,0,0,1-5.75,1.14,15.33,15.33,0,0,1-5.49-1,13.09,13.09,0,0,1-4.65-3,11.77,11.77,0,0,1-2.05-2.52,10.74,10.74,0,0,1-1.15-2.68,16.42,16.42,0,0,1-.52-2.94c-.08-1-.13-2.09-.13-3.2V461.47h4.37Z"/><path class="cls-4" d="M304.64,461.47H325v4.06H309v11.64h15.5v4.06H309v15.39h16v4.06H304.64Z"/><path class="cls-4" d="M338.85,500.68h-4.37V461.47h5.67a32.2,32.2,0,0,1,5.38.44,13.2,13.2,0,0,1,4.58,1.64,9,9,0,0,1,3.2,3.3,10.93,10.93,0,0,1,1.19,5.44,10.73,10.73,0,0,1-2.62,7.48,10.54,10.54,0,0,1-7.2,3.33l12.48,17.58H351.8l-11.86-17.21h-1.09Zm0-21.06h1.35a26.92,26.92,0,0,0,3.64-.24,9.18,9.18,0,0,0,3.18-1,6,6,0,0,0,2.26-2.14,6.86,6.86,0,0,0,.86-3.66,7.49,7.49,0,0,0-.84-3.82,5.29,5.29,0,0,0-2.21-2.14,9.48,9.48,0,0,0-3.17-.91,34.76,34.76,0,0,0-3.77-.2h-1.3Z"/><path class="cls-4" d="M370.62,489.55l-4.73,11.13h-4.78L379.2,459.6l17.63,41.08H392l-4.63-11.13Zm8.48-19.76-6.71,15.7h13.26Z"/><path class="cls-4" d="M421.27,461.47h7.38c1.46,0,2.86.06,4.22.18a22.39,22.39,0,0,1,3.9.7,19.27,19.27,0,0,1,3.66,1.46,18.65,18.65,0,0,1,3.51,2.39,17.61,17.61,0,0,1,4.94,6.71,21.41,21.41,0,0,1,1.56,8.22,20.34,20.34,0,0,1-1.56,8,18.34,18.34,0,0,1-4.83,6.61,19.35,19.35,0,0,1-3.54,2.52,18.54,18.54,0,0,1-3.67,1.51,21.06,21.06,0,0,1-3.95.73c-1.37.12-2.81.18-4.34.18h-7.28Zm7.54,35.15c1.18,0,2.32-.05,3.43-.15a18.29,18.29,0,0,0,3.2-.6,13.9,13.9,0,0,0,3-1.25,15.08,15.08,0,0,0,6.45-7.31,16.07,16.07,0,0,0,1.22-6.24,16.59,16.59,0,0,0-1.27-6.44,14.21,14.21,0,0,0-3.82-5.31,13.18,13.18,0,0,0-5.69-3.09,28.29,28.29,0,0,0-6.48-.7h-3.17v31.09Z"/><path class="cls-4" d="M458.61,461.47h20.33v4.06H463v11.64h15.5v4.06H463v15.39h16v4.06H458.61Z"/><path class="cls-4" d="M536.45,470.05a17.08,17.08,0,0,0-5.43-3.82,15.88,15.88,0,0,0-6.53-1.38,14.49,14.49,0,0,0-6.16,1.33,16.08,16.08,0,0,0-5,3.56,17.07,17.07,0,0,0-3.38,5.17,15.83,15.83,0,0,0,0,12.33,16.91,16.91,0,0,0,3.41,5.17,16.18,16.18,0,0,0,5.07,3.56,14.64,14.64,0,0,0,6.18,1.33,15.25,15.25,0,0,0,6.43-1.43,18.67,18.67,0,0,0,5.43-3.77v5.41a21.28,21.28,0,0,1-5.56,2.83,19,19,0,0,1-6.14,1,19.84,19.84,0,0,1-7.88-1.58,21,21,0,0,1-6.5-4.32,20.76,20.76,0,0,1-4.42-6.39,19,19,0,0,1-1.64-7.83,19.63,19.63,0,0,1,1.62-7.93,20.62,20.62,0,0,1,10.89-10.89,19.63,19.63,0,0,1,7.93-1.62,19.06,19.06,0,0,1,11.7,3.85Z"/><path class="cls-4" d="M564.37,460.79a19.92,19.92,0,0,1,7.93,1.59,20.33,20.33,0,0,1,6.5,4.37,20.84,20.84,0,0,1,4.4,6.47,20.21,20.21,0,0,1,0,15.81,20.27,20.27,0,0,1-4.4,6.42,20.87,20.87,0,0,1-6.5,4.32,20.69,20.69,0,0,1-15.86,0,21,21,0,0,1-6.5-4.32,20.25,20.25,0,0,1-4.39-6.42,20.21,20.21,0,0,1,0-15.81,20.81,20.81,0,0,1,4.39-6.47,20.44,20.44,0,0,1,6.5-4.37A20,20,0,0,1,564.37,460.79Zm0,4.06a15.64,15.64,0,0,0-6.31,1.27,15.8,15.8,0,0,0-5.1,3.49,16.62,16.62,0,0,0-3.41,5.17,16.11,16.11,0,0,0-1.24,6.29,15.91,15.91,0,0,0,1.24,6.27,16.38,16.38,0,0,0,8.56,8.66,15.75,15.75,0,0,0,12.53,0,16.54,16.54,0,0,0,5.12-3.51,16.29,16.29,0,0,0,3.43-5.15,15.74,15.74,0,0,0,1.25-6.27,15.94,15.94,0,0,0-1.25-6.29,16.42,16.42,0,0,0-3.4-5.17,15.82,15.82,0,0,0-11.42-4.76Z"/><path class="cls-4" d="M593.08,459.81l30.57,32V461.47H628v41l-30.57-32v30.21h-4.37Z"/><path class="cls-4" d="M648.67,500.68H644.3V465.53h-9.47v-4.06h23.4v4.06h-9.56Z"/><path class="cls-4" d="M669.15,500.68h-4.36V461.47h5.66a32.32,32.32,0,0,1,5.39.44,13.22,13.22,0,0,1,4.57,1.64,8.9,8.9,0,0,1,3.2,3.3,10.93,10.93,0,0,1,1.2,5.44,10.74,10.74,0,0,1-2.63,7.48,10.54,10.54,0,0,1-7.2,3.33l12.48,17.58H682.1l-11.85-17.21h-1.1Zm0-21.06h1.36a27.14,27.14,0,0,0,3.64-.24,9.19,9.19,0,0,0,3.17-1,6,6,0,0,0,2.26-2.14,6.86,6.86,0,0,0,.86-3.66,7.6,7.6,0,0,0-.83-3.82,5.41,5.41,0,0,0-2.21-2.14,9.54,9.54,0,0,0-3.18-.91,34.76,34.76,0,0,0-3.77-.2h-1.3Z"/><path class="cls-4" d="M713.51,460.79a20,20,0,0,1,7.93,1.59,20.44,20.44,0,0,1,6.5,4.37,20.81,20.81,0,0,1,4.39,6.47,20.1,20.1,0,0,1,0,15.81,20.25,20.25,0,0,1-4.39,6.42,21,21,0,0,1-6.5,4.32,20.69,20.69,0,0,1-15.86,0,20.87,20.87,0,0,1-6.5-4.32,20.27,20.27,0,0,1-4.4-6.42,20.21,20.21,0,0,1,0-15.81,20.84,20.84,0,0,1,4.4-6.47,20.33,20.33,0,0,1,6.5-4.37A20,20,0,0,1,713.51,460.79Zm0,4.06a15.82,15.82,0,0,0-11.42,4.76,16.59,16.59,0,0,0-3.4,5.17,16.12,16.12,0,0,0-1.25,6.29,15.92,15.92,0,0,0,1.25,6.27,16.29,16.29,0,0,0,3.43,5.15,16.66,16.66,0,0,0,5.12,3.51,15.77,15.77,0,0,0,12.54,0,16.78,16.78,0,0,0,5.12-3.51,16.46,16.46,0,0,0,3.43-5.15,15.92,15.92,0,0,0,1.25-6.27,16.12,16.12,0,0,0-1.25-6.29,16.44,16.44,0,0,0-3.41-5.17,15.77,15.77,0,0,0-11.41-4.76Z"/><path class="cls-4" d="M746.32,496.62h10.82v4.06H742V461.47h4.37Z"/><g class="cls-5"><path class="cls-6" d="M73.36,495.89a3.35,3.35,0,0,0,3.35-3.36V367.71H192.29v6.71a3.36,3.36,0,1,0,6.71,0V364.36a3.35,3.35,0,0,0-3.36-3.36H73.36A3.35,3.35,0,0,0,70,364.36V492.53A3.35,3.35,0,0,0,73.36,495.89Z"/><path class="cls-6" d="M195.64,397.91a3.35,3.35,0,0,0-3.35,3.36v89.92H160.74a3.35,3.35,0,0,0-3.35,3.35v31.55H76.71v-6.71a3.36,3.36,0,1,0-6.71,0v10.07a3.35,3.35,0,0,0,3.36,3.35h87.71l.17,0,.15,0,.17,0,.15,0,.15-.06.16-.05.14-.07.16-.07.12-.08.16-.09.14-.1.13-.1.24-.22L198,496.91c.1-.1.2-.22.29-.33l.06-.09a2.92,2.92,0,0,0,.24-.37v0a2.43,2.43,0,0,0,.16-.37.49.49,0,0,0,0-.11,2.77,2.77,0,0,0,.12-.41h0c0-.14,0-.28.05-.42v-.12a.37.37,0,0,0,0-.11V401.27A3.35,3.35,0,0,0,195.64,397.91ZM164.1,521.34V497.9h23.44Z"/><path class="cls-6" d="M101.62,464.61C110,457.85,122,454,134.5,454s24.49,3.88,32.88,10.64a3.35,3.35,0,1,0,4.21-5.22c-9.56-7.71-23.08-12.13-37.09-12.13S107,451.68,97.41,459.39a3.35,3.35,0,1,0,4.21,5.22Z"/><path class="cls-6" d="M171.86,397.21a3.35,3.35,0,0,0-4.74,0l-7.59,7.59L152,397.21A3.36,3.36,0,0,0,147.2,402l7.59,7.58-7.59,7.59a3.36,3.36,0,0,0,4.75,4.74l7.58-7.58,7.59,7.58a3.36,3.36,0,0,0,4.74,0,3.35,3.35,0,0,0,0-4.74l-7.58-7.59,7.58-7.58A3.36,3.36,0,0,0,171.86,397.21Z"/><path class="cls-6" d="M97.14,421.87a3.35,3.35,0,0,0,4.74,0l7.59-7.58,7.58,7.58a3.36,3.36,0,0,0,4.75-4.75l-7.59-7.58L121.8,402a3.36,3.36,0,0,0-4.75-4.75l-7.58,7.59-7.59-7.59A3.36,3.36,0,1,0,97.14,402l7.58,7.58-7.58,7.58A3.36,3.36,0,0,0,97.14,421.87Z"/><path class="cls-6" d="M73.36,509.31A3.36,3.36,0,1,0,70,506,3.36,3.36,0,0,0,73.36,509.31Z"/><path class="cls-6" d="M195.64,384.49a3.36,3.36,0,1,0,3.36,3.36A3.37,3.37,0,0,0,195.64,384.49Z"/></g></g></g></svg>