<svg id="fondos" xmlns="http://www.w3.org/2000/svg" viewBox="0 0 838.12 100.16"><defs><style>.cls-1{fill:#e6e6e6;}</style></defs><title>polfa1</title><rect class="cls-1" width="838.12" height="100.16"/><path d="M59.51,44.11V22.66h1.94V44.11Z"/><path d="M76.16,44.11V41.74a4.68,4.68,0,0,1-4.53,2.94,5.74,5.74,0,0,1-4.5-1.92,7.34,7.34,0,0,1-1.71-5.07,7.54,7.54,0,0,1,1.69-5.09,5.46,5.46,0,0,1,4.35-2,5.35,5.35,0,0,1,2.85.73,4.79,4.79,0,0,1,1.85,2.13V21.4H78V44.11Zm-8.73-6.36a5.89,5.89,0,0,0,1.14,3.88A4,4,0,0,0,71.81,43,3.87,3.87,0,0,0,75,41.51a6.47,6.47,0,0,0,1.17-4.1A5.63,5.63,0,0,0,75,33.66a4.34,4.34,0,0,0-6.41.09A6.15,6.15,0,0,0,67.43,37.75Z"/><path d="M93.93,37.66H83.6a6.37,6.37,0,0,0,1.26,4A3.9,3.9,0,0,0,88,43.05a4.18,4.18,0,0,0,2.52-.77,5.77,5.77,0,0,0,1.8-2.35l1.66.91a7.25,7.25,0,0,1-2.44,2.91,6.39,6.39,0,0,1-3.54.93,6,6,0,0,1-4.62-1.91,7.11,7.11,0,0,1-1.77-5A7.46,7.46,0,0,1,83.4,32.6a5.86,5.86,0,0,1,4.58-2,5.53,5.53,0,0,1,4.32,1.81,6.94,6.94,0,0,1,1.63,4.83Zm-2.14-1.53a3.72,3.72,0,0,0-4-3.75,3.9,3.9,0,0,0-2.75,1,4.14,4.14,0,0,0-1.28,2.73Z"/><path d="M97.68,44.11v-13h1.71v2a5.29,5.29,0,0,1,1.94-1.86,5.44,5.44,0,0,1,2.65-.63,4.27,4.27,0,0,1,4.67,4.66v8.82h-1.83v-8a4.38,4.38,0,0,0-.81-2.9,3.15,3.15,0,0,0-2.52-.94,3.68,3.68,0,0,0-3,1.22,6.24,6.24,0,0,0-1,3.85v6.78Z"/><path d="M113.69,32.65H111.3V31.12h2.39V25.78h1.77v5.34h2.61v1.53h-2.61V44.11h-1.77Z"/><path d="M120.41,26.05a1.4,1.4,0,0,1,2.38-1,1.38,1.38,0,0,1,0,2,1.38,1.38,0,0,1-1,.39,1.37,1.37,0,0,1-1.4-1.37Zm.46,18.06v-13h1.86v13Z"/><path d="M128.07,44.11V32.65h-2.43V31.12h2.43V27.37c0-2.61.25-4.3.74-5.08a2.9,2.9,0,0,1,2.68-1.16,4.57,4.57,0,0,1,.92.08,4.91,4.91,0,0,1,.82.22L132.89,23a4.1,4.1,0,0,0-.68-.26,2.31,2.31,0,0,0-.61-.09,1.4,1.4,0,0,0-1.34.76,6.52,6.52,0,0,0-.4,2.77v4.93h2.86v1.53h-2.86V44.11Z"/><path d="M135.08,26.05a1.31,1.31,0,0,1,.41-1,1.34,1.34,0,0,1,1-.4,1.37,1.37,0,0,1,1,.4,1.39,1.39,0,0,1,0,2,1.46,1.46,0,0,1-2,0A1.32,1.32,0,0,1,135.08,26.05Zm.45,18.06v-13h1.86v13Z"/><path d="M152.42,33.49a7.07,7.07,0,0,0-1.93-1,7.19,7.19,0,0,0-2.11-.31,5,5,0,0,0-3.86,1.54,5.86,5.86,0,0,0-1.43,4.13,5,5,0,0,0,1.49,3.76,5.13,5.13,0,0,0,3.8,1.48,6.71,6.71,0,0,0,2.13-.36,8.59,8.59,0,0,0,2.12-1.1v2a7.66,7.66,0,0,1-2.11.82,11,11,0,0,1-2.48.27,6.5,6.5,0,0,1-4.88-2,6.86,6.86,0,0,1-1.9-5,6.81,6.81,0,0,1,7.15-7.15,10.31,10.31,0,0,1,2.2.23,7.38,7.38,0,0,1,1.84.65Z"/><path d="M165.59,44.11V41.74A4.71,4.71,0,0,1,161,44.68a5.74,5.74,0,0,1-4.5-1.92,7.34,7.34,0,0,1-1.71-5.07,7.54,7.54,0,0,1,1.69-5.09,5.46,5.46,0,0,1,4.35-2,5.38,5.38,0,0,1,2.86.73,4.71,4.71,0,0,1,1.87,2.13V31.12h1.8v13Zm-8.76-6.36A5.89,5.89,0,0,0,158,41.63,4,4,0,0,0,161.21,43a3.91,3.91,0,0,0,3.23-1.49,6.47,6.47,0,0,0,1.18-4.1,5.58,5.58,0,0,0-1.17-3.75,4,4,0,0,0-3.21-1.37A3.9,3.9,0,0,0,158,33.75,6.1,6.1,0,0,0,156.83,37.75Z"/><path d="M174,33.72A7.78,7.78,0,0,1,176,31.34a3.69,3.69,0,0,1,2.24-.71,3.92,3.92,0,0,1,.76.08,4.15,4.15,0,0,1,.77.2l-.58,1.7a6,6,0,0,0-.61-.15,3.23,3.23,0,0,0-.61-.06,3.38,3.38,0,0,0-2.77,1.53A6.08,6.08,0,0,0,174,37.72v6.39h-1.81v-13H174Z"/><path d="M192.29,44.11h-1.86V21.4h1.86Z"/><path d="M203.12,44.68a6.62,6.62,0,0,1-2.67-.55,7.57,7.57,0,0,1-2.31-1.57,6.7,6.7,0,0,1-1.5-2.23,7.13,7.13,0,0,1-.51-2.7,7,7,0,0,1,.53-2.69,6.85,6.85,0,0,1,1.51-2.26,7,7,0,0,1,5-2.05,7.18,7.18,0,0,1,2.73.53,7.08,7.08,0,0,1,2.31,1.52A6.92,6.92,0,0,1,209.7,35a6.83,6.83,0,0,1,.54,2.68,6.87,6.87,0,0,1-2.05,4.93,7.47,7.47,0,0,1-2.34,1.57A6.9,6.9,0,0,1,203.12,44.68Zm.06-1.68a4.84,4.84,0,0,0,3.62-1.55,5.6,5.6,0,0,0,0-7.6,5.06,5.06,0,0,0-7.25,0,5.62,5.62,0,0,0,0,7.6A4.82,4.82,0,0,0,203.18,43Z"/><path d="M234,50.64h-1.75V41.71a5.56,5.56,0,0,1-2,2.22,5.15,5.15,0,0,1-2.79.75,5.47,5.47,0,0,1-4.36-1.91,7.56,7.56,0,0,1-1.64-5.11,7.46,7.46,0,0,1,1.67-5.1,5.53,5.53,0,0,1,4.42-1.93,5.12,5.12,0,0,1,2.73.76,5.44,5.44,0,0,1,1.94,2.16V31.12H234Zm-6.21-18.35a3.89,3.89,0,0,0-3.19,1.44,6.11,6.11,0,0,0-1.16,4,6.16,6.16,0,0,0,1.1,3.91,3.71,3.71,0,0,0,3.07,1.4A4.15,4.15,0,0,0,231,41.52a6,6,0,0,0,1.25-4,5.81,5.81,0,0,0-1.17-3.85A4,4,0,0,0,227.82,32.29Z"/><path d="M240.63,31.12V37.6a7.57,7.57,0,0,0,.85,4.18,3.92,3.92,0,0,0,5.7,0,7.44,7.44,0,0,0,.87-4.16V31.12h1.78v7.41a6.68,6.68,0,0,1-1.39,4.59,5.2,5.2,0,0,1-4.09,1.56,5.26,5.26,0,0,1-4.11-1.56,6.64,6.64,0,0,1-1.41-4.59V31.12Z"/><path d="M265.8,37.66H255.47a6.37,6.37,0,0,0,1.26,4,3.9,3.9,0,0,0,3.18,1.43,4.18,4.18,0,0,0,2.52-.77,5.77,5.77,0,0,0,1.8-2.35l1.66.91a7.25,7.25,0,0,1-2.44,2.91,6.39,6.39,0,0,1-3.54.93,6,6,0,0,1-4.62-1.91,7.11,7.11,0,0,1-1.77-5,7.46,7.46,0,0,1,1.75-5.15,5.86,5.86,0,0,1,4.58-2,5.53,5.53,0,0,1,4.32,1.81,6.94,6.94,0,0,1,1.63,4.83Zm-2.14-1.53a3.72,3.72,0,0,0-4-3.75,3.9,3.9,0,0,0-2.75,1,4.14,4.14,0,0,0-1.28,2.73Z"/><path d="M276.71,41.79l1.72-1a3.38,3.38,0,0,0,1.23,1.64,3.44,3.44,0,0,0,2,.55,2.72,2.72,0,0,0,1.82-.58,1.94,1.94,0,0,0,.67-1.55c0-1-.88-1.84-2.65-2.53l-.44-.18a8.37,8.37,0,0,1-2.87-1.66,3,3,0,0,1-.82-2.12,3.48,3.48,0,0,1,1.17-2.71,4.37,4.37,0,0,1,3-1.07,5,5,0,0,1,2.69.69,4,4,0,0,1,1.63,2l-1.66.93a2.58,2.58,0,0,0-1-1.41,3.11,3.11,0,0,0-1.76-.48,2.21,2.21,0,0,0-1.55.55,1.77,1.77,0,0,0-.6,1.37,1.7,1.7,0,0,0,.6,1.33,8,8,0,0,0,2.49,1.16,6.66,6.66,0,0,1,2.87,1.62,3.64,3.64,0,0,1,.74,2.43,3.53,3.53,0,0,1-1.27,2.86,5.18,5.18,0,0,1-3.43,1.07,5.27,5.27,0,0,1-2.85-.75A4.3,4.3,0,0,1,276.71,41.79Z"/><path d="M291.45,31.12V37.6a7.67,7.67,0,0,0,.84,4.18,3.93,3.93,0,0,0,5.71,0,7.54,7.54,0,0,0,.86-4.16V31.12h1.79v7.41a6.73,6.73,0,0,1-1.39,4.59,5.2,5.2,0,0,1-4.09,1.56,5.27,5.27,0,0,1-4.12-1.56,6.68,6.68,0,0,1-1.4-4.59V31.12Z"/><path d="M315.56,33.49a7.07,7.07,0,0,0-1.93-1,7.19,7.19,0,0,0-2.11-.31,5,5,0,0,0-3.86,1.54,5.86,5.86,0,0,0-1.43,4.13,5,5,0,0,0,1.49,3.76,5.13,5.13,0,0,0,3.8,1.48,6.71,6.71,0,0,0,2.13-.36,8.59,8.59,0,0,0,2.12-1.1v2a7.66,7.66,0,0,1-2.11.82,11,11,0,0,1-2.48.27,6.5,6.5,0,0,1-4.88-2,6.86,6.86,0,0,1-1.9-5,6.81,6.81,0,0,1,7.15-7.15,10.31,10.31,0,0,1,2.2.23,7.38,7.38,0,0,1,1.84.65Z"/><path d="M330.3,37.66H320a6.37,6.37,0,0,0,1.26,4,3.9,3.9,0,0,0,3.18,1.43,4.23,4.23,0,0,0,2.52-.77,5.77,5.77,0,0,0,1.8-2.35l1.65.91a7.09,7.09,0,0,1-2.44,2.91,6.38,6.38,0,0,1-3.53.93,6,6,0,0,1-4.62-1.91,7.11,7.11,0,0,1-1.77-5,7.41,7.41,0,0,1,1.75-5.15,5.85,5.85,0,0,1,4.58-2,5.53,5.53,0,0,1,4.32,1.81,7,7,0,0,1,1.63,4.83Zm-2.14-1.53a3.72,3.72,0,0,0-4.05-3.75,3.88,3.88,0,0,0-2.74,1,4.1,4.1,0,0,0-1.28,2.73Z"/><path d="M343.67,44.11V41.74a4.68,4.68,0,0,1-4.53,2.94,5.74,5.74,0,0,1-4.5-1.92,7.34,7.34,0,0,1-1.71-5.07,7.54,7.54,0,0,1,1.69-5.09,5.46,5.46,0,0,1,4.35-2,5.35,5.35,0,0,1,2.85.73,4.79,4.79,0,0,1,1.85,2.13V21.4h1.83V44.11Zm-8.73-6.36a5.89,5.89,0,0,0,1.14,3.88A4,4,0,0,0,339.32,43a3.87,3.87,0,0,0,3.21-1.49,6.47,6.47,0,0,0,1.17-4.1,5.63,5.63,0,0,0-1.16-3.75,4.34,4.34,0,0,0-6.41.09A6.15,6.15,0,0,0,334.94,37.75Z"/><path d="M361.44,37.66H351.11a6.37,6.37,0,0,0,1.26,4,3.9,3.9,0,0,0,3.18,1.43,4.18,4.18,0,0,0,2.52-.77,5.77,5.77,0,0,0,1.8-2.35l1.66.91a7.25,7.25,0,0,1-2.44,2.91,6.39,6.39,0,0,1-3.54.93,6,6,0,0,1-4.62-1.91,7.11,7.11,0,0,1-1.77-5,7.46,7.46,0,0,1,1.75-5.15,5.86,5.86,0,0,1,4.58-2,5.53,5.53,0,0,1,4.32,1.81,6.94,6.94,0,0,1,1.63,4.83Zm-2.14-1.53a3.72,3.72,0,0,0-4-3.75,3.9,3.9,0,0,0-2.75,1,4.14,4.14,0,0,0-1.28,2.73Z"/><path d="M372.06,31.12H374l3.72,10.16,3.43-10.16h1.92l-6.73,19.52h-1.86L376.73,44Z"/><path d="M405.72,37.66H395.39a6.37,6.37,0,0,0,1.26,4,3.9,3.9,0,0,0,3.18,1.43,4.18,4.18,0,0,0,2.52-.77,5.68,5.68,0,0,0,1.8-2.35l1.66.91a7.25,7.25,0,0,1-2.44,2.91,6.39,6.39,0,0,1-3.54.93,6,6,0,0,1-4.62-1.91,7.1,7.1,0,0,1-1.76-5,7.41,7.41,0,0,1,1.75-5.15,5.82,5.82,0,0,1,4.57-2,5.57,5.57,0,0,1,4.33,1.81,7,7,0,0,1,1.62,4.83Zm-2.14-1.53a3.71,3.71,0,0,0-4-3.75,3.92,3.92,0,0,0-2.75,1,4.19,4.19,0,0,0-1.28,2.73Z"/><path d="M409.47,44.11v-13h1.71v2a5.24,5.24,0,0,1,1.95-1.86,5.37,5.37,0,0,1,2.64-.63,4.27,4.27,0,0,1,4.67,4.66v8.82h-1.83v-8a4.38,4.38,0,0,0-.81-2.9,3.13,3.13,0,0,0-2.51-.94,3.66,3.66,0,0,0-3,1.22,6.17,6.17,0,0,0-1,3.85v6.78Z"/><path d="M423.15,31.12h2l4,9.84,4-9.84h2l-6,13.82Z"/><path d="M437.57,26.05a1.31,1.31,0,0,1,.41-1,1.34,1.34,0,0,1,1-.4,1.37,1.37,0,0,1,1,.4,1.39,1.39,0,0,1,0,2,1.46,1.46,0,0,1-2,0A1.32,1.32,0,0,1,437.57,26.05ZM438,44.11v-13h1.86v13Z"/><path d="M454.4,44.11V41.74a4.71,4.71,0,0,1-4.56,2.94,5.72,5.72,0,0,1-4.5-1.92,7.34,7.34,0,0,1-1.71-5.07,7.54,7.54,0,0,1,1.69-5.09,5.85,5.85,0,0,1,7.21-1.24,4.71,4.71,0,0,1,1.87,2.13V31.12h1.8v13Zm-8.76-6.36a5.94,5.94,0,0,0,1.13,3.88A4,4,0,0,0,450,43a3.91,3.91,0,0,0,3.23-1.49,6.47,6.47,0,0,0,1.18-4.1,5.58,5.58,0,0,0-1.17-3.75,4,4,0,0,0-3.21-1.37,3.94,3.94,0,0,0-3.23,1.46A6.15,6.15,0,0,0,445.64,37.75Z"/><path d="M462.84,33.72a7.78,7.78,0,0,1,2-2.38,3.68,3.68,0,0,1,2.23-.71,4,4,0,0,1,.77.08,4.15,4.15,0,0,1,.77.2l-.58,1.7a6,6,0,0,0-.61-.15,3.23,3.23,0,0,0-.61-.06A3.41,3.41,0,0,0,464,33.93a6.14,6.14,0,0,0-1.14,3.79v6.39H461v-13h1.81Z"/><path d="M480.93,31.12V37.6a7.67,7.67,0,0,0,.84,4.18,3.92,3.92,0,0,0,5.7,0,7.44,7.44,0,0,0,.87-4.16V31.12h1.79v7.41a6.68,6.68,0,0,1-1.4,4.59,5.18,5.18,0,0,1-4.08,1.56,5.27,5.27,0,0,1-4.12-1.56,6.64,6.64,0,0,1-1.41-4.59V31.12Z"/><path d="M494.93,44.11v-13h1.71v2a5.29,5.29,0,0,1,1.94-1.86,5.44,5.44,0,0,1,2.65-.63,4.27,4.27,0,0,1,4.67,4.66v8.82h-1.83v-8a4.38,4.38,0,0,0-.81-2.9,3.13,3.13,0,0,0-2.51-.94,3.65,3.65,0,0,0-3,1.22,6.17,6.17,0,0,0-1,3.85v6.78Z"/><path d="M520.15,44.11V41.74a4.68,4.68,0,0,1-4.55,2.94,5.71,5.71,0,0,1-4.5-1.92,7.34,7.34,0,0,1-1.71-5.07,7.58,7.58,0,0,1,1.68-5.09,5.49,5.49,0,0,1,4.35-2,5.42,5.42,0,0,1,2.87.73,4.69,4.69,0,0,1,1.86,2.13V31.12H522v13Zm-8.76-6.36a5.89,5.89,0,0,0,1.14,3.88A4,4,0,0,0,515.77,43,3.93,3.93,0,0,0,519,41.51a6.47,6.47,0,0,0,1.17-4.1A5.58,5.58,0,0,0,519,33.66a4,4,0,0,0-3.21-1.37,3.92,3.92,0,0,0-3.22,1.46A6.15,6.15,0,0,0,511.39,37.75Z"/><path d="M535.43,50.64V31.12h1.75v2.43a5.45,5.45,0,0,1,1.94-2.16,4.94,4.94,0,0,1,2.7-.76,5.56,5.56,0,0,1,4.42,1.93,7.51,7.51,0,0,1,1.67,5.1,7.56,7.56,0,0,1-1.64,5.11,5.47,5.47,0,0,1-4.36,1.91,5.11,5.11,0,0,1-2.77-.75,5.61,5.61,0,0,1-2-2.22v8.93Zm10.54-13a6.22,6.22,0,0,0-1.15-4,3.85,3.85,0,0,0-3.18-1.44,4,4,0,0,0-3.26,1.4,5.8,5.8,0,0,0-1.17,3.84,6,6,0,0,0,1.26,4A4.2,4.2,0,0,0,541.82,43a3.64,3.64,0,0,0,3-1.4A6.23,6.23,0,0,0,546,37.69Z"/><path d="M561.26,44.11V41.74a4.71,4.71,0,0,1-4.56,2.94,5.74,5.74,0,0,1-4.5-1.92,7.34,7.34,0,0,1-1.71-5.07,7.54,7.54,0,0,1,1.69-5.09,5.46,5.46,0,0,1,4.35-2,5.38,5.38,0,0,1,2.86.73,4.71,4.71,0,0,1,1.87,2.13V31.12h1.8v13Zm-8.76-6.36a5.94,5.94,0,0,0,1.13,3.88A4,4,0,0,0,556.88,43a3.91,3.91,0,0,0,3.23-1.49,6.47,6.47,0,0,0,1.18-4.1,5.58,5.58,0,0,0-1.17-3.75,4,4,0,0,0-3.21-1.37,3.94,3.94,0,0,0-3.23,1.46A6.15,6.15,0,0,0,552.5,37.75Z"/><path d="M568.27,32.65h-2.38V31.12h2.38V25.78h1.78v5.34h2.6v1.53h-2.6V44.11h-1.78Z"/><path d="M577.14,33.72a7.78,7.78,0,0,1,2-2.38,3.69,3.69,0,0,1,2.24-.71,4.11,4.11,0,0,1,.77.08,4.27,4.27,0,0,1,.76.2l-.58,1.7a6,6,0,0,0-.61-.15,3.23,3.23,0,0,0-.61-.06,3.38,3.38,0,0,0-2.77,1.53,6.08,6.08,0,0,0-1.15,3.79v6.39h-1.8v-13h1.8Z"/><path d="M586.59,31.12V37.6a7.67,7.67,0,0,0,.84,4.18,3.92,3.92,0,0,0,5.7,0A7.44,7.44,0,0,0,594,37.6V31.12h1.78v7.41a6.68,6.68,0,0,1-1.39,4.59,5.18,5.18,0,0,1-4.08,1.56,5.27,5.27,0,0,1-4.12-1.56,6.64,6.64,0,0,1-1.41-4.59V31.12Z"/><path d="M602.57,44.11h-1.86V21.4h1.86Z"/><path d="M609.47,44.11h-1.86V21.4h1.86Z"/><path d="M624,44.11V41.74a5,5,0,0,1-1.81,2.19,4.93,4.93,0,0,1-2.74.75,5.74,5.74,0,0,1-4.51-1.92,7.33,7.33,0,0,1-1.7-5.07,7.58,7.58,0,0,1,1.68-5.09,5.46,5.46,0,0,1,4.35-2,5.38,5.38,0,0,1,2.86.73A4.71,4.71,0,0,1,624,33.49V31.12h1.8v13Zm-8.76-6.36a5.89,5.89,0,0,0,1.14,3.88A4,4,0,0,0,619.6,43a3.89,3.89,0,0,0,3.23-1.49,6.41,6.41,0,0,0,1.18-4.1,5.58,5.58,0,0,0-1.17-3.75,4,4,0,0,0-3.21-1.37,3.9,3.9,0,0,0-3.22,1.46A6.15,6.15,0,0,0,615.22,37.75Z"/><path d="M639.26,50.64V31.12H641v2.43a5.55,5.55,0,0,1,2-2.16,4.91,4.91,0,0,1,2.7-.76,5.54,5.54,0,0,1,4.41,1.93,7.47,7.47,0,0,1,1.68,5.1,7.61,7.61,0,0,1-1.64,5.11,5.47,5.47,0,0,1-4.36,1.91,5.11,5.11,0,0,1-2.77-.75,5.71,5.71,0,0,1-2-2.22v8.93Zm10.53-13a6.16,6.16,0,0,0-1.15-4,3.82,3.82,0,0,0-3.17-1.44,4,4,0,0,0-3.26,1.4A5.8,5.8,0,0,0,641,37.53a6,6,0,0,0,1.27,4A4.18,4.18,0,0,0,645.65,43a3.65,3.65,0,0,0,3.05-1.4A6.23,6.23,0,0,0,649.79,37.69Z"/><path d="M665.09,44.11V41.74a5.06,5.06,0,0,1-1.81,2.19,5,5,0,0,1-2.75.75,5.72,5.72,0,0,1-4.5-1.92,7.34,7.34,0,0,1-1.71-5.07A7.58,7.58,0,0,1,656,32.6a5.49,5.49,0,0,1,4.35-2,5.42,5.42,0,0,1,2.87.73,4.77,4.77,0,0,1,1.87,2.13V31.12h1.8v13Zm-8.76-6.36a5.89,5.89,0,0,0,1.13,3.88A4,4,0,0,0,660.71,43a3.92,3.92,0,0,0,3.23-1.49,6.47,6.47,0,0,0,1.18-4.1,5.58,5.58,0,0,0-1.18-3.75,4,4,0,0,0-3.2-1.37,3.92,3.92,0,0,0-3.23,1.46A6.15,6.15,0,0,0,656.33,37.75Z"/><path d="M673.52,33.72a7.94,7.94,0,0,1,2-2.38,3.66,3.66,0,0,1,2.23-.71,4,4,0,0,1,.77.08,4.15,4.15,0,0,1,.77.2l-.58,1.7a6,6,0,0,0-.61-.15,3.31,3.31,0,0,0-.61-.06,3.41,3.41,0,0,0-2.78,1.53,6.14,6.14,0,0,0-1.15,3.79v6.39h-1.8v-13h1.8Z"/><path d="M690.77,44.11V41.74A5.06,5.06,0,0,1,689,43.93a5,5,0,0,1-2.75.75,5.71,5.71,0,0,1-4.5-1.92A7.34,7.34,0,0,1,680,37.69a7.58,7.58,0,0,1,1.68-5.09,5.49,5.49,0,0,1,4.35-2,5.42,5.42,0,0,1,2.87.73,4.77,4.77,0,0,1,1.87,2.13V31.12h1.8v13ZM682,37.75a5.89,5.89,0,0,0,1.13,3.88A4,4,0,0,0,686.39,43a3.92,3.92,0,0,0,3.23-1.49,6.47,6.47,0,0,0,1.17-4.1,5.58,5.58,0,0,0-1.17-3.75,4,4,0,0,0-3.21-1.37,3.92,3.92,0,0,0-3.22,1.46A6.15,6.15,0,0,0,682,37.75Z"/><path d="M58.9,57.65a1.34,1.34,0,0,1,.41-1,1.37,1.37,0,0,1,1-.4,1.34,1.34,0,0,1,1,.4,1.38,1.38,0,0,1,0,2,1.46,1.46,0,0,1-2,0A1.33,1.33,0,0,1,58.9,57.65Zm.46,18.06v-13h1.86v13Z"/><path d="M75.77,75.71V73.34A5,5,0,0,1,74,75.53a4.89,4.89,0,0,1-2.72.75,5.74,5.74,0,0,1-4.51-1.92A7.38,7.38,0,0,1,65,69.29a7.58,7.58,0,0,1,1.68-5.09,5.49,5.49,0,0,1,4.35-2,5.3,5.3,0,0,1,2.85.73,4.75,4.75,0,0,1,1.86,2.13V53H77.6V75.71ZM67,69.35a5.89,5.89,0,0,0,1.14,3.88,4,4,0,0,0,3.24,1.37,3.87,3.87,0,0,0,3.21-1.49A6.47,6.47,0,0,0,75.79,69a5.62,5.62,0,0,0-1.15-3.75,4.35,4.35,0,0,0-6.42.09A6.15,6.15,0,0,0,67,69.35Z"/><path d="M93.53,69.26H83.21a6.37,6.37,0,0,0,1.26,4,3.89,3.89,0,0,0,3.17,1.43,4.25,4.25,0,0,0,2.52-.77A5.7,5.7,0,0,0,92,71.53l1.65.91a7.17,7.17,0,0,1-2.44,2.91,6.39,6.39,0,0,1-3.54.93A6,6,0,0,1,83,74.37a7.15,7.15,0,0,1-1.76-5A7.45,7.45,0,0,1,83,64.19a5.87,5.87,0,0,1,4.58-2A5.56,5.56,0,0,1,91.91,64a7,7,0,0,1,1.62,4.83Zm-2.14-1.54A4,4,0,0,0,90.21,65a4,4,0,0,0-2.86-1,3.88,3.88,0,0,0-2.74,1,4.15,4.15,0,0,0-1.29,2.72Z"/><path d="M97.28,75.71v-13H99v2a5.25,5.25,0,0,1,1.94-1.87,5.5,5.5,0,0,1,2.64-.62,4.28,4.28,0,0,1,4.68,4.66v8.82h-1.84v-8a4.38,4.38,0,0,0-.81-2.9,3.13,3.13,0,0,0-2.51-.94,3.66,3.66,0,0,0-3,1.22,6.17,6.17,0,0,0-1,3.85v6.78Z"/><path d="M113.29,64.25h-2.38V62.72h2.38V57.38h1.78v5.34h2.6v1.53h-2.6V75.71h-1.78Z"/><path d="M120,57.65a1.31,1.31,0,0,1,.41-1,1.34,1.34,0,0,1,1-.4,1.37,1.37,0,0,1,1,.4,1.36,1.36,0,0,1,0,2,1.46,1.46,0,0,1-2,0A1.32,1.32,0,0,1,120,57.65Zm.45,18.06v-13h1.86v13Z"/><path d="M127.68,75.71V64.25h-2.43V62.72h2.43V59c0-2.61.24-4.3.73-5.08a2.91,2.91,0,0,1,2.68-1.17,4.73,4.73,0,0,1,.93.09,4.3,4.3,0,0,1,.82.22l-.34,1.58a4.47,4.47,0,0,0-.68-.26,2.37,2.37,0,0,0-.61-.09,1.39,1.39,0,0,0-1.35.76,6.72,6.72,0,0,0-.39,2.77v4.93h2.85v1.53h-2.85V75.71Z"/><path d="M134.68,57.65a1.38,1.38,0,0,1,1.39-1.38,1.37,1.37,0,0,1,1,.4,1.32,1.32,0,0,1,.42,1,1.36,1.36,0,0,1-.4,1,1.4,1.4,0,0,1-1,.39,1.37,1.37,0,0,1-1-.39A1.32,1.32,0,0,1,134.68,57.65Zm.46,18.06v-13H137v13Z"/><path d="M152,65.09a6.94,6.94,0,0,0-1.93-1,7.14,7.14,0,0,0-2.11-.31,5,5,0,0,0-3.85,1.54,5.82,5.82,0,0,0-1.44,4.13,5.08,5.08,0,0,0,1.49,3.76,5.15,5.15,0,0,0,3.8,1.48,6.66,6.66,0,0,0,2.13-.36,8.76,8.76,0,0,0,2.12-1.1v2a7.54,7.54,0,0,1-2.11.82,10.9,10.9,0,0,1-2.48.27,6.48,6.48,0,0,1-4.87-2,6.86,6.86,0,0,1-1.91-5A6.82,6.82,0,0,1,148,62.23a10.41,10.41,0,0,1,2.21.23,7.3,7.3,0,0,1,1.83.65Z"/><path d="M165.19,75.71V73.34a4.75,4.75,0,0,1-4.55,2.94,5.74,5.74,0,0,1-4.51-1.92,7.38,7.38,0,0,1-1.7-5.07,7.58,7.58,0,0,1,1.68-5.09A5.87,5.87,0,0,1,163.33,63a4.75,4.75,0,0,1,1.86,2.13V62.72H167v13Zm-8.76-6.36a5.89,5.89,0,0,0,1.14,3.88,4,4,0,0,0,3.24,1.37A3.89,3.89,0,0,0,164,73.11a6.41,6.41,0,0,0,1.18-4.1,5.58,5.58,0,0,0-1.17-3.75,4,4,0,0,0-3.21-1.37,3.92,3.92,0,0,0-3.22,1.46A6.15,6.15,0,0,0,156.43,69.35Z"/><path d="M173.63,65.32a8.13,8.13,0,0,1,2-2.39,3.72,3.72,0,0,1,2.23-.7,5.12,5.12,0,0,1,.77.07,5.51,5.51,0,0,1,.77.21l-.59,1.7a5.84,5.84,0,0,0-.6-.15,3.27,3.27,0,0,0-3.39,1.47,6.08,6.08,0,0,0-1.15,3.79v6.39h-1.8v-13h1.8Z"/><path d="M191.9,75.71H190V53h1.86Z"/><path d="M202.72,76.28a6.6,6.6,0,0,1-2.66-.55,7.74,7.74,0,0,1-2.32-1.57,6.67,6.67,0,0,1-1.49-2.23,7.13,7.13,0,0,1-.51-2.7,7,7,0,0,1,7-7,7.18,7.18,0,0,1,2.73.53,6.93,6.93,0,0,1,4.39,6.47,6.87,6.87,0,0,1-2.05,4.93,7.24,7.24,0,0,1-2.34,1.57A6.9,6.9,0,0,1,202.72,76.28Zm.06-1.68a4.85,4.85,0,0,0,3.63-1.55,5.62,5.62,0,0,0,0-7.6,5.06,5.06,0,0,0-7.25,0,5.62,5.62,0,0,0,0,7.6A4.84,4.84,0,0,0,202.78,74.6Z"/><path d="M220.73,73.39l1.71-1a3.38,3.38,0,0,0,1.23,1.64,3.49,3.49,0,0,0,2,.55,2.69,2.69,0,0,0,1.81-.58,1.94,1.94,0,0,0,.68-1.55c0-1-.89-1.84-2.65-2.53l-.44-.18a8.18,8.18,0,0,1-2.87-1.66,2.94,2.94,0,0,1-.82-2.12,3.52,3.52,0,0,1,1.17-2.72,4.37,4.37,0,0,1,3-1.06,5.07,5.07,0,0,1,2.7.69,4,4,0,0,1,1.62,2l-1.65.93a2.64,2.64,0,0,0-1-1.41,3.09,3.09,0,0,0-1.76-.48,2.19,2.19,0,0,0-1.54.55,1.74,1.74,0,0,0-.61,1.37,1.7,1.7,0,0,0,.6,1.33,8,8,0,0,0,2.49,1.16,6.65,6.65,0,0,1,2.88,1.62,3.69,3.69,0,0,1,.74,2.43,3.53,3.53,0,0,1-1.28,2.86,5.87,5.87,0,0,1-6.27.31A4.18,4.18,0,0,1,220.73,73.39Z"/><path d="M235.46,62.72V69.2a7.57,7.57,0,0,0,.85,4.18,3.21,3.21,0,0,0,2.84,1.22A3.26,3.26,0,0,0,242,73.36a7.46,7.46,0,0,0,.86-4.16V62.72h1.79v7.41a6.68,6.68,0,0,1-1.39,4.59,6.17,6.17,0,0,1-8.2,0,6.64,6.64,0,0,1-1.41-4.59V62.72Z"/><path d="M259.57,65.09a6.94,6.94,0,0,0-1.93-1,7.14,7.14,0,0,0-2.11-.31,5,5,0,0,0-3.85,1.54,5.82,5.82,0,0,0-1.44,4.13,5.08,5.08,0,0,0,1.49,3.76,5.15,5.15,0,0,0,3.8,1.48,6.71,6.71,0,0,0,2.13-.36,8.76,8.76,0,0,0,2.12-1.1v2a7.66,7.66,0,0,1-2.11.82,10.9,10.9,0,0,1-2.48.27,6.48,6.48,0,0,1-4.87-2,6.86,6.86,0,0,1-1.91-5,6.82,6.82,0,0,1,7.15-7.15,10.41,10.41,0,0,1,2.21.23,7.3,7.3,0,0,1,1.83.65Z"/><path d="M274.31,69.26H264a6.37,6.37,0,0,0,1.26,4,3.9,3.9,0,0,0,3.18,1.43,4.25,4.25,0,0,0,2.52-.77,5.77,5.77,0,0,0,1.8-2.35l1.66.91A7.25,7.25,0,0,1,272,75.35a6.39,6.39,0,0,1-3.54.93,6,6,0,0,1-4.62-1.91,7.11,7.11,0,0,1-1.77-5,7.5,7.5,0,0,1,1.75-5.16,5.88,5.88,0,0,1,4.58-2A5.53,5.53,0,0,1,272.68,64a6.94,6.94,0,0,1,1.63,4.83Zm-2.14-1.54a3.74,3.74,0,0,0-4-3.75,3.91,3.91,0,0,0-2.75,1,4.14,4.14,0,0,0-1.28,2.72Z"/><path d="M287.68,75.71V73.34a4.68,4.68,0,0,1-4.52,2.94,5.74,5.74,0,0,1-4.51-1.92,7.38,7.38,0,0,1-1.7-5.07,7.58,7.58,0,0,1,1.68-5.09,5.46,5.46,0,0,1,4.35-2,5.32,5.32,0,0,1,2.85.73,4.73,4.73,0,0,1,1.85,2.13V53h1.84V75.71ZM279,69.35a5.89,5.89,0,0,0,1.14,3.88,4,4,0,0,0,3.24,1.37,3.87,3.87,0,0,0,3.21-1.49,6.47,6.47,0,0,0,1.17-4.1,5.62,5.62,0,0,0-1.15-3.75,4,4,0,0,0-3.2-1.37,3.92,3.92,0,0,0-3.22,1.46A6.15,6.15,0,0,0,279,69.35Z"/><path d="M294,57.65a1.4,1.4,0,0,1,2.38-1,1.38,1.38,0,0,1,0,2,1.38,1.38,0,0,1-1,.39,1.37,1.37,0,0,1-1.4-1.37Zm.46,18.06v-13h1.86v13Z"/><path d="M310.81,75.71V73.34a4.68,4.68,0,0,1-4.52,2.94,5.74,5.74,0,0,1-4.51-1.92,7.33,7.33,0,0,1-1.7-5.07,7.58,7.58,0,0,1,1.68-5.09,5.46,5.46,0,0,1,4.35-2A5.32,5.32,0,0,1,309,63a4.73,4.73,0,0,1,1.85,2.13V53h1.83V75.71Zm-8.73-6.36a5.89,5.89,0,0,0,1.14,3.88,4,4,0,0,0,3.24,1.37,3.87,3.87,0,0,0,3.21-1.49,6.47,6.47,0,0,0,1.17-4.1,5.62,5.62,0,0,0-1.15-3.75,4,4,0,0,0-3.2-1.37,3.92,3.92,0,0,0-3.22,1.46A6.15,6.15,0,0,0,302.08,69.35Z"/><path d="M323.32,76.28a6.6,6.6,0,0,1-2.66-.55,7.74,7.74,0,0,1-2.32-1.57,6.67,6.67,0,0,1-1.49-2.23,7.13,7.13,0,0,1-.51-2.7,7,7,0,0,1,.52-2.69,7.17,7.17,0,0,1,1.51-2.26,7,7,0,0,1,4.95-2.05,7.26,7.26,0,0,1,2.74.53,7,7,0,0,1,2.3,1.52,6.89,6.89,0,0,1,0,9.88,7.31,7.31,0,0,1-2.33,1.57A7,7,0,0,1,323.32,76.28Zm.06-1.68A4.85,4.85,0,0,0,327,73.05a5.25,5.25,0,0,0,1.48-3.79A5.32,5.32,0,0,0,327,65.45a5.07,5.07,0,0,0-7.26,0,5.62,5.62,0,0,0,0,7.6A4.84,4.84,0,0,0,323.38,74.6Z"/><path d="M334.59,74.48a1.42,1.42,0,0,1,.43-1.06,1.44,1.44,0,0,1,1.06-.44,1.5,1.5,0,0,1,1.5,1.5,1.44,1.44,0,0,1-.44,1.06,1.42,1.42,0,0,1-1.06.43,1.47,1.47,0,0,1-1.49-1.49Z"/></svg>