<svg id="fondos" xmlns="http://www.w3.org/2000/svg" viewBox="0 0 838.12 100.16"><defs><style>.cls-1{fill:#e6e6e6;}</style></defs><title>polfa3</title><rect class="cls-1" width="838.12" height="100.16"/><path d="M57.86,39.62l1.67-.89a4.7,4.7,0,0,0,1.62,2.45,4.46,4.46,0,0,0,2.76.87,4.18,4.18,0,0,0,3.18-1.2,4.64,4.64,0,0,0,1.15-3.32A4.18,4.18,0,0,0,67.47,35a10.67,10.67,0,0,0-3.31-2.37,14.94,14.94,0,0,1-4.3-3,4.75,4.75,0,0,1-1.07-3.14,4.85,4.85,0,0,1,1.54-3.72,5.69,5.69,0,0,1,4-1.43,5.58,5.58,0,0,1,2.8.68,5.06,5.06,0,0,1,2,2l-1.51.91a3.33,3.33,0,0,0-1.33-1.4,4,4,0,0,0-2-.49,3.44,3.44,0,0,0-2.52.93,3.4,3.4,0,0,0-.93,2.51q0,2.27,3.72,4.21l1,.54a10.78,10.78,0,0,1,3.66,2.85,6,6,0,0,1,.93,3.48,5.83,5.83,0,0,1-6.27,6.27,6.13,6.13,0,0,1-3.61-1A6.81,6.81,0,0,1,57.86,39.62Z"/><path d="M85.35,36.78H75a6.37,6.37,0,0,0,1.26,4,3.93,3.93,0,0,0,3.18,1.43A4.29,4.29,0,0,0,82,41.4a5.77,5.77,0,0,0,1.8-2.35l1.65.91A7.09,7.09,0,0,1,83,42.87a6.38,6.38,0,0,1-3.53.93,6,6,0,0,1-4.62-1.91,7.11,7.11,0,0,1-1.77-5,7.45,7.45,0,0,1,1.75-5.16,5.84,5.84,0,0,1,4.58-2,5.52,5.52,0,0,1,4.32,1.81,7,7,0,0,1,1.63,4.83Zm-2.14-1.54a3.72,3.72,0,0,0-4-3.75,3.84,3.84,0,0,0-2.74,1,4.09,4.09,0,0,0-1.28,2.72Z"/><path d="M97.74,49.76V30.23h1.74v2.43a5.69,5.69,0,0,1,2-2.16,5,5,0,0,1,2.69-.75,5.56,5.56,0,0,1,4.42,1.93,7.47,7.47,0,0,1,1.68,5.1,7.61,7.61,0,0,1-1.64,5.11,5.49,5.49,0,0,1-4.37,1.91,5.05,5.05,0,0,1-2.77-.76,5.55,5.55,0,0,1-2-2.22v8.94Zm10.53-12.95a6.16,6.16,0,0,0-1.15-4A3.83,3.83,0,0,0,104,31.41a4,4,0,0,0-3.26,1.39,5.79,5.79,0,0,0-1.18,3.85,5.91,5.91,0,0,0,1.27,4,4.17,4.17,0,0,0,3.34,1.48,3.65,3.65,0,0,0,3.06-1.4A6.18,6.18,0,0,0,108.27,36.81Z"/><path d="M115.77,32.84a8,8,0,0,1,2-2.39,3.64,3.64,0,0,1,2.23-.7,4.08,4.08,0,0,1,.77.07,5.51,5.51,0,0,1,.77.21l-.59,1.7a5.44,5.44,0,0,0-.61-.15,3.21,3.21,0,0,0-.6-.06,3.39,3.39,0,0,0-2.78,1.53,6.08,6.08,0,0,0-1.15,3.79v6.39H114v-13h1.8Z"/><path d="M129.32,43.8a6.62,6.62,0,0,1-2.67-.55,7.43,7.43,0,0,1-2.31-1.58,6.39,6.39,0,0,1-1.49-2.22,7.18,7.18,0,0,1,0-5.39,6.75,6.75,0,0,1,1.51-2.26,7,7,0,0,1,4.95-2.05,7.18,7.18,0,0,1,2.73.53,7.08,7.08,0,0,1,2.31,1.52,6.94,6.94,0,0,1,2.08,4.95,7,7,0,0,1-.53,2.68,6.79,6.79,0,0,1-1.52,2.24,7.22,7.22,0,0,1-2.34,1.58A6.9,6.9,0,0,1,129.32,43.8Zm.06-1.69A4.83,4.83,0,0,0,133,40.57a5.6,5.6,0,0,0,0-7.6,5,5,0,0,0-7.25,0,5.62,5.62,0,0,0,0,7.6A4.82,4.82,0,0,0,129.38,42.11Z"/><path d="M150.27,32.61a7,7,0,0,0-1.94-.95,7.09,7.09,0,0,0-2.11-.31,5,5,0,0,0-3.85,1.54A5.82,5.82,0,0,0,140.94,37a5.09,5.09,0,0,0,1.48,3.76,5.15,5.15,0,0,0,3.8,1.48,6.37,6.37,0,0,0,2.13-.37,8.1,8.1,0,0,0,2.12-1.1v2a8.2,8.2,0,0,1-2.11.82,10.81,10.81,0,0,1-2.47.27,6.52,6.52,0,0,1-4.88-2,6.86,6.86,0,0,1-1.91-5,6.81,6.81,0,0,1,7.15-7.15,10.41,10.41,0,0,1,2.21.23,7.38,7.38,0,0,1,1.84.65Z"/><path d="M165,36.78H154.68a6.25,6.25,0,0,0,1.26,4,3.92,3.92,0,0,0,3.17,1.43,4.25,4.25,0,0,0,2.52-.77,5.7,5.7,0,0,0,1.81-2.35l1.65.91a7.17,7.17,0,0,1-2.44,2.91,6.39,6.39,0,0,1-3.54.93,6,6,0,0,1-4.62-1.91,7.15,7.15,0,0,1-1.76-5,7.45,7.45,0,0,1,1.75-5.16,5.82,5.82,0,0,1,4.58-2,5.53,5.53,0,0,1,4.32,1.81A7,7,0,0,1,165,36.39Zm-2.14-1.54a4,4,0,0,0-1.18-2.77,4.07,4.07,0,0,0-2.86-1,3.84,3.84,0,0,0-2.74,1,4.15,4.15,0,0,0-1.29,2.72Z"/><path d="M178.38,43.23V40.85a4.67,4.67,0,0,1-4.53,2.95,5.72,5.72,0,0,1-4.5-1.92,7.34,7.34,0,0,1-1.71-5.07,7.56,7.56,0,0,1,1.68-5.09,5.49,5.49,0,0,1,4.36-2,5.37,5.37,0,0,1,2.84.72,4.83,4.83,0,0,1,1.86,2.14V20.52h1.83V43.23Zm-8.73-6.36a5.89,5.89,0,0,0,1.13,3.88A4,4,0,0,0,174,42.11a3.85,3.85,0,0,0,3.2-1.48,6.41,6.41,0,0,0,1.18-4.1,5.63,5.63,0,0,0-1.16-3.75,4.36,4.36,0,0,0-6.42.08A6.18,6.18,0,0,0,169.65,36.87Z"/><path d="M196.15,36.78H185.82a6.37,6.37,0,0,0,1.26,4,3.93,3.93,0,0,0,3.18,1.43,4.29,4.29,0,0,0,2.52-.77,5.77,5.77,0,0,0,1.8-2.35l1.65.91a7.09,7.09,0,0,1-2.44,2.91,6.38,6.38,0,0,1-3.53.93,6,6,0,0,1-4.62-1.91,7.11,7.11,0,0,1-1.77-5,7.45,7.45,0,0,1,1.75-5.16,5.84,5.84,0,0,1,4.58-2,5.5,5.5,0,0,1,4.32,1.81,7,7,0,0,1,1.63,4.83ZM194,35.24a3.72,3.72,0,0,0-4-3.75,3.84,3.84,0,0,0-2.74,1,4.09,4.09,0,0,0-1.28,2.72Z"/><path d="M218.13,43.23V40.85a4.74,4.74,0,0,1-4.55,2.95,5.74,5.74,0,0,1-4.51-1.92,7.33,7.33,0,0,1-1.7-5.07,7.56,7.56,0,0,1,1.68-5.09,5.89,5.89,0,0,1,7.22-1.25,4.83,4.83,0,0,1,1.86,2.14V30.23h1.8v13Zm-8.76-6.36a5.89,5.89,0,0,0,1.14,3.88,4,4,0,0,0,3.24,1.36A3.88,3.88,0,0,0,217,40.63a6.41,6.41,0,0,0,1.18-4.1A5.58,5.58,0,0,0,217,32.78a4,4,0,0,0-3.21-1.37,3.94,3.94,0,0,0-3.22,1.45A6.18,6.18,0,0,0,209.37,36.87Z"/><path d="M231.46,30.23h2l4,9.85,4-9.85h2l-6,13.83Z"/><path d="M257.38,36.78H247.05a6.37,6.37,0,0,0,1.26,4,3.93,3.93,0,0,0,3.18,1.43A4.29,4.29,0,0,0,254,41.4a5.77,5.77,0,0,0,1.8-2.35l1.65.91A7.09,7.09,0,0,1,255,42.87a6.38,6.38,0,0,1-3.53.93,6,6,0,0,1-4.62-1.91,7.11,7.11,0,0,1-1.77-5,7.45,7.45,0,0,1,1.75-5.16,5.84,5.84,0,0,1,4.58-2,5.5,5.5,0,0,1,4.32,1.81,7,7,0,0,1,1.63,4.83Zm-2.14-1.54a3.72,3.72,0,0,0-4.05-3.75,3.84,3.84,0,0,0-2.74,1,4.09,4.09,0,0,0-1.28,2.72Z"/><path d="M262.93,32.84a8,8,0,0,1,1.95-2.39,3.69,3.69,0,0,1,2.24-.7,4.08,4.08,0,0,1,.77.07,5.91,5.91,0,0,1,.77.21l-.59,1.7a6,6,0,0,0-.61-.15,3.23,3.23,0,0,0-.61-.06,3.38,3.38,0,0,0-2.77,1.53,6.08,6.08,0,0,0-1.15,3.79v6.39h-1.8v-13h1.8Z"/><path d="M270.24,25.16a1.29,1.29,0,0,1,.41-1,1.34,1.34,0,0,1,1-.4,1.37,1.37,0,0,1,1,.4,1.3,1.3,0,0,1,.42,1,1.34,1.34,0,0,1-.41,1,1.46,1.46,0,0,1-2,0A1.33,1.33,0,0,1,270.24,25.16Zm.45,18.07v-13h1.86v13Z"/><path d="M277.9,43.23V31.77h-2.43V30.23h2.43V26.48c0-2.6.24-4.3.73-5.07a2.91,2.91,0,0,1,2.68-1.17,5.43,5.43,0,0,1,.92.08,5,5,0,0,1,.83.23l-.34,1.58a4.47,4.47,0,0,0-.68-.26,2.37,2.37,0,0,0-.61-.09,1.39,1.39,0,0,0-1.35.76,6.69,6.69,0,0,0-.39,2.77v4.92h2.85v1.54h-2.85V43.23Z"/><path d="M284.9,25.16a1.38,1.38,0,0,1,1.39-1.37,1.37,1.37,0,0,1,1,.4,1.3,1.3,0,0,1,.42,1,1.37,1.37,0,0,1-.4,1,1.4,1.4,0,0,1-1,.39,1.37,1.37,0,0,1-1-.39A1.33,1.33,0,0,1,284.9,25.16Zm.45,18.07v-13h1.87v13Z"/><path d="M302.24,32.61a6.94,6.94,0,0,0-1.93-.95,7.14,7.14,0,0,0-2.11-.31,5,5,0,0,0-3.85,1.54A5.82,5.82,0,0,0,292.91,37a5.09,5.09,0,0,0,1.49,3.76,5.15,5.15,0,0,0,3.8,1.48,6.41,6.41,0,0,0,2.13-.37,8.1,8.1,0,0,0,2.12-1.1v2a8.35,8.35,0,0,1-2.11.82,10.9,10.9,0,0,1-2.48.27,6.52,6.52,0,0,1-4.87-2,6.86,6.86,0,0,1-1.91-5,6.81,6.81,0,0,1,7.15-7.15,10.41,10.41,0,0,1,2.21.23,7.3,7.3,0,0,1,1.83.65Z"/><path d="M315.41,43.23V40.85a4.74,4.74,0,0,1-4.55,2.95,5.74,5.74,0,0,1-4.51-1.92,7.38,7.38,0,0,1-1.7-5.07,7.56,7.56,0,0,1,1.68-5.09,5.89,5.89,0,0,1,7.22-1.25,4.83,4.83,0,0,1,1.86,2.14V30.23h1.81v13Zm-8.76-6.36a5.89,5.89,0,0,0,1.14,3.88A4,4,0,0,0,311,42.11a3.88,3.88,0,0,0,3.23-1.48,6.41,6.41,0,0,0,1.18-4.1,5.58,5.58,0,0,0-1.17-3.75,4,4,0,0,0-3.21-1.37,3.94,3.94,0,0,0-3.22,1.45A6.18,6.18,0,0,0,306.65,36.87Z"/><path d="M323.85,32.84a8.13,8.13,0,0,1,2-2.39,3.66,3.66,0,0,1,2.23-.7,4.08,4.08,0,0,1,.77.07,5.51,5.51,0,0,1,.77.21l-.59,1.7a5.84,5.84,0,0,0-.6-.15A3.27,3.27,0,0,0,325,33.05a6.08,6.08,0,0,0-1.15,3.79v6.39h-1.8v-13h1.8Z"/><path d="M342.12,43.23h-1.86V20.52h1.86Z"/><path d="M356.63,43.23V40.85a4.74,4.74,0,0,1-4.55,2.95,5.74,5.74,0,0,1-4.51-1.92,7.38,7.38,0,0,1-1.7-5.07,7.56,7.56,0,0,1,1.68-5.09,5.89,5.89,0,0,1,7.22-1.25,4.83,4.83,0,0,1,1.86,2.14V30.23h1.81v13Zm-8.76-6.36A5.89,5.89,0,0,0,349,40.75a4,4,0,0,0,3.24,1.36,3.88,3.88,0,0,0,3.23-1.48,6.41,6.41,0,0,0,1.18-4.1,5.58,5.58,0,0,0-1.17-3.75,4,4,0,0,0-3.21-1.37,3.94,3.94,0,0,0-3.22,1.45A6.18,6.18,0,0,0,347.87,36.87Z"/><path d="M373.71,43.23h-1.8v-13h1.8v2a4.72,4.72,0,0,1,1.7-1.88,4.61,4.61,0,0,1,2.44-.64,4.4,4.4,0,0,1,2.42.65,4.16,4.16,0,0,1,1.54,1.91,5.24,5.24,0,0,1,1.91-1.92,5.19,5.19,0,0,1,2.62-.64A4.27,4.27,0,0,1,389.59,31a4.81,4.81,0,0,1,1.19,3.44v8.79H389V35.16a4.48,4.48,0,0,0-.79-2.88,2.83,2.83,0,0,0-2.33-1,3.13,3.13,0,0,0-2.73,1.21,6.65,6.65,0,0,0-.88,3.86v6.84h-1.78V35.16a4.62,4.62,0,0,0-.75-2.92,2.79,2.79,0,0,0-2.31-.92,3.22,3.22,0,0,0-2.8,1.23,6.55,6.55,0,0,0-.9,3.84Z"/><path d="M406.75,36.78H396.42a6.37,6.37,0,0,0,1.26,4,3.93,3.93,0,0,0,3.18,1.43,4.29,4.29,0,0,0,2.52-.77,5.77,5.77,0,0,0,1.8-2.35l1.65.91a7.09,7.09,0,0,1-2.44,2.91,6.38,6.38,0,0,1-3.53.93,6,6,0,0,1-4.62-1.91,7.11,7.11,0,0,1-1.77-5,7.45,7.45,0,0,1,1.75-5.16,5.84,5.84,0,0,1,4.58-2,5.5,5.5,0,0,1,4.32,1.81,7,7,0,0,1,1.63,4.83Zm-2.14-1.54a3.72,3.72,0,0,0-4.05-3.75,3.86,3.86,0,0,0-2.74,1,4.09,4.09,0,0,0-1.28,2.72Z"/><path d="M412.3,32.84a8,8,0,0,1,1.95-2.39,3.69,3.69,0,0,1,2.24-.7,4.08,4.08,0,0,1,.77.07A5.51,5.51,0,0,1,418,30l-.59,1.7a6,6,0,0,0-.61-.15,3.23,3.23,0,0,0-.61-.06,3.38,3.38,0,0,0-2.77,1.53,6.08,6.08,0,0,0-1.15,3.79v6.39h-1.8v-13h1.8Z"/><path d="M430.05,32.61a6.94,6.94,0,0,0-1.93-.95,7.19,7.19,0,0,0-2.11-.31,5,5,0,0,0-3.85,1.54A5.82,5.82,0,0,0,420.72,37a5.09,5.09,0,0,0,1.49,3.76,5.15,5.15,0,0,0,3.8,1.48,6.46,6.46,0,0,0,2.13-.37,8.26,8.26,0,0,0,2.12-1.1v2a8.35,8.35,0,0,1-2.11.82,10.9,10.9,0,0,1-2.48.27,6.54,6.54,0,0,1-4.88-2,6.86,6.86,0,0,1-1.9-5A6.79,6.79,0,0,1,426,29.75a10.31,10.31,0,0,1,2.2.23,7.38,7.38,0,0,1,1.84.65Z"/><path d="M443.22,43.23V40.85a4.74,4.74,0,0,1-4.55,2.95,5.74,5.74,0,0,1-4.51-1.92,7.34,7.34,0,0,1-1.71-5.07,7.57,7.57,0,0,1,1.69-5.09,5.88,5.88,0,0,1,7.21-1.25,4.79,4.79,0,0,1,1.87,2.14V30.23H445v13Zm-8.76-6.36a5.89,5.89,0,0,0,1.14,3.88,4,4,0,0,0,3.24,1.36,3.9,3.9,0,0,0,3.23-1.48,6.41,6.41,0,0,0,1.18-4.1,5.58,5.58,0,0,0-1.17-3.75,4,4,0,0,0-3.21-1.37,3.92,3.92,0,0,0-3.22,1.45A6.18,6.18,0,0,0,434.46,36.87Z"/><path d="M449.86,43.23v-13h1.71v2a5.32,5.32,0,0,1,1.94-1.87,5.54,5.54,0,0,1,2.65-.62,4.27,4.27,0,0,1,4.67,4.66v8.82H459v-8a4.3,4.3,0,0,0-.82-2.89,3.12,3.12,0,0,0-2.51-.94,3.65,3.65,0,0,0-3,1.22,6.14,6.14,0,0,0-1,3.84v6.79Z"/><path d="M475.59,32.61a6.94,6.94,0,0,0-1.93-.95,7.14,7.14,0,0,0-2.11-.31,5,5,0,0,0-3.85,1.54A5.82,5.82,0,0,0,466.26,37a5.09,5.09,0,0,0,1.49,3.76,5.15,5.15,0,0,0,3.8,1.48,6.41,6.41,0,0,0,2.13-.37,8.1,8.1,0,0,0,2.12-1.1v2a8.35,8.35,0,0,1-2.11.82,10.9,10.9,0,0,1-2.48.27,6.52,6.52,0,0,1-4.87-2,6.86,6.86,0,0,1-1.91-5,6.81,6.81,0,0,1,7.15-7.15,10.41,10.41,0,0,1,2.21.23,7.3,7.3,0,0,1,1.83.65Z"/><path d="M478.27,28.14,481.39,23h2.41l-4.15,5.13Zm1,15.09v-13h1.86v13Z"/><path d="M495.66,43.23V40.85a4.74,4.74,0,0,1-4.55,2.95,5.74,5.74,0,0,1-4.51-1.92,7.33,7.33,0,0,1-1.7-5.07,7.56,7.56,0,0,1,1.68-5.09,5.88,5.88,0,0,1,7.21-1.25,4.79,4.79,0,0,1,1.87,2.14V30.23h1.8v13Zm-8.76-6.36A5.89,5.89,0,0,0,488,40.75a4,4,0,0,0,3.24,1.36,3.88,3.88,0,0,0,3.23-1.48,6.41,6.41,0,0,0,1.18-4.1,5.58,5.58,0,0,0-1.17-3.75,4,4,0,0,0-3.21-1.37,3.92,3.92,0,0,0-3.22,1.45A6.18,6.18,0,0,0,486.9,36.87Z"/><path d="M521.05,32.61a7,7,0,0,0-1.94-.95,7.07,7.07,0,0,0-2.1-.31,5,5,0,0,0-3.86,1.54A5.86,5.86,0,0,0,511.72,37a5.09,5.09,0,0,0,1.48,3.76A5.15,5.15,0,0,0,517,42.26a6.46,6.46,0,0,0,2.13-.37,8.21,8.21,0,0,0,2.11-1.1v2a8.06,8.06,0,0,1-2.11.82,10.81,10.81,0,0,1-2.47.27,6.54,6.54,0,0,1-4.88-2,6.86,6.86,0,0,1-1.9-5A6.79,6.79,0,0,1,517,29.75a10.34,10.34,0,0,1,2.21.23,7.38,7.38,0,0,1,1.84.65Z"/><path d="M530.53,43.8a6.62,6.62,0,0,1-2.67-.55,7.43,7.43,0,0,1-2.31-1.58,6.42,6.42,0,0,1-1.5-2.22,7.13,7.13,0,0,1-.51-2.7,6.8,6.8,0,0,1,.53-2.69,6.87,6.87,0,0,1,1.5-2.26,7.06,7.06,0,0,1,2.28-1.52,6.93,6.93,0,0,1,2.68-.53,7.25,7.25,0,0,1,2.73.53,7,7,0,0,1,2.3,1.52,6.85,6.85,0,0,1,1.55,2.27,6.78,6.78,0,0,1,.53,2.68,7,7,0,0,1-.52,2.68,6.67,6.67,0,0,1-1.53,2.24,7.18,7.18,0,0,1-2.33,1.58A7,7,0,0,1,530.53,43.8Zm.05-1.69a4.84,4.84,0,0,0,3.63-1.54,5.26,5.26,0,0,0,1.49-3.79A5.32,5.32,0,0,0,534.22,33a4.88,4.88,0,0,0-3.64-1.54A4.83,4.83,0,0,0,527,33a5.62,5.62,0,0,0,0,7.6A4.79,4.79,0,0,0,530.58,42.11Z"/><path d="M541.37,43.23v-13h1.71v2A5.32,5.32,0,0,1,545,30.37a5.53,5.53,0,0,1,2.64-.62,4.27,4.27,0,0,1,4.68,4.66v8.82h-1.83v-8a4.35,4.35,0,0,0-.82-2.89,3.13,3.13,0,0,0-2.51-.94,3.63,3.63,0,0,0-3,1.22,6.14,6.14,0,0,0-1,3.84v6.79Z"/><path d="M567.62,43.23h-1.86V20.52h1.86Z"/><path d="M578.44,43.8a6.62,6.62,0,0,1-2.67-.55,7.55,7.55,0,0,1-2.31-1.58A6.53,6.53,0,0,1,572,39.45a7,7,0,0,1,6.47-9.7,7.18,7.18,0,0,1,2.73.53A7,7,0,0,1,585,39.43a6.79,6.79,0,0,1-1.52,2.24,7.12,7.12,0,0,1-2.34,1.58A6.9,6.9,0,0,1,578.44,43.8Zm.06-1.69a4.85,4.85,0,0,0,3.63-1.54,5.62,5.62,0,0,0,0-7.6,5,5,0,0,0-7.25,0,5.62,5.62,0,0,0,0,7.6A4.82,4.82,0,0,0,578.5,42.11Z"/><path d="M587.8,40.91l1.72-1a3.19,3.19,0,0,0,3.2,2.18,2.74,2.74,0,0,0,1.82-.57,2,2,0,0,0,.67-1.55c0-1-.88-1.84-2.65-2.54l-.44-.17a8.37,8.37,0,0,1-2.87-1.66,3,3,0,0,1-.82-2.12,3.52,3.52,0,0,1,1.17-2.72,4.38,4.38,0,0,1,3-1.06,5,5,0,0,1,2.69.69,4,4,0,0,1,1.63,2l-1.66.92a2.64,2.64,0,0,0-1-1.4,3.11,3.11,0,0,0-1.76-.48A2.25,2.25,0,0,0,591,32a1.81,1.81,0,0,0-.61,1.37,1.68,1.68,0,0,0,.61,1.34,8.09,8.09,0,0,0,2.49,1.15,6.66,6.66,0,0,1,2.87,1.63,3.64,3.64,0,0,1,.74,2.43,3.54,3.54,0,0,1-1.27,2.86,5.89,5.89,0,0,1-6.28.31A4.23,4.23,0,0,1,587.8,40.91Z"/><path d="M619,43.23V40.85a4.67,4.67,0,0,1-4.52,2.95A5.74,5.74,0,0,1,610,41.88a7.33,7.33,0,0,1-1.7-5.07A7.56,7.56,0,0,1,610,31.72a5.86,5.86,0,0,1,7.2-1.25A4.87,4.87,0,0,1,619,32.61V20.52h1.83V43.23Zm-8.73-6.36a5.89,5.89,0,0,0,1.14,3.88,4,4,0,0,0,3.24,1.36,3.86,3.86,0,0,0,3.21-1.48,6.47,6.47,0,0,0,1.17-4.1,5.57,5.57,0,0,0-1.16-3.75,4.35,4.35,0,0,0-6.41.08A6.18,6.18,0,0,0,610.27,36.87Z"/><path d="M631.51,43.8a6.57,6.57,0,0,1-2.66-.55,7.47,7.47,0,0,1-2.32-1.58A6.53,6.53,0,0,1,625,39.45a7.13,7.13,0,0,1-.52-2.7,7,7,0,0,1,.53-2.69,7,7,0,0,1,6.46-4.31,7.18,7.18,0,0,1,2.73.53,6.93,6.93,0,0,1,4.39,6.47,6.83,6.83,0,0,1-2,4.92,7.12,7.12,0,0,1-2.34,1.58A6.9,6.9,0,0,1,631.51,43.8Zm.06-1.69a4.85,4.85,0,0,0,3.63-1.54,5.62,5.62,0,0,0,0-7.6A5,5,0,0,0,628,33a5.62,5.62,0,0,0,0,7.6A4.82,4.82,0,0,0,631.57,42.11Z"/><path d="M652.46,32.61a7.07,7.07,0,0,0-1.93-.95,7.19,7.19,0,0,0-2.11-.31,5,5,0,0,0-3.86,1.54A5.86,5.86,0,0,0,643.13,37a5.06,5.06,0,0,0,1.49,3.76,5.13,5.13,0,0,0,3.8,1.48,6.46,6.46,0,0,0,2.13-.37,8.05,8.05,0,0,0,2.11-1.1v2a8.13,8.13,0,0,1-2.1.82,11,11,0,0,1-2.48.27,6.54,6.54,0,0,1-4.88-2,6.86,6.86,0,0,1-1.9-5,6.79,6.79,0,0,1,7.15-7.15,10.31,10.31,0,0,1,2.2.23,7.38,7.38,0,0,1,1.84.65Z"/><path d="M657.84,30.23v6.49a7.67,7.67,0,0,0,.84,4.18,3.94,3.94,0,0,0,5.7,0,7.44,7.44,0,0,0,.87-4.16V30.23H667v7.42a6.68,6.68,0,0,1-1.39,4.59,5.18,5.18,0,0,1-4.08,1.56,5.27,5.27,0,0,1-4.12-1.56A6.64,6.64,0,0,1,656,37.65V30.23Z"/><path d="M673.64,43.23h-1.8v-13h1.8v2a4.72,4.72,0,0,1,1.7-1.88,4.55,4.55,0,0,1,2.43-.64,4.41,4.41,0,0,1,2.43.65,4.23,4.23,0,0,1,1.54,1.91,5,5,0,0,1,4.53-2.56A4.29,4.29,0,0,1,689.52,31a4.81,4.81,0,0,1,1.19,3.44v8.79H688.9V35.16a4.54,4.54,0,0,0-.78-2.88,2.84,2.84,0,0,0-2.34-1,3.13,3.13,0,0,0-2.73,1.21,6.73,6.73,0,0,0-.87,3.86v6.84h-1.79V35.16a4.69,4.69,0,0,0-.74-2.92,2.79,2.79,0,0,0-2.32-.92,3.23,3.23,0,0,0-2.8,1.23,6.63,6.63,0,0,0-.89,3.84Z"/><path d="M706.67,36.78H696.35a6.25,6.25,0,0,0,1.26,4,3.92,3.92,0,0,0,3.17,1.43,4.25,4.25,0,0,0,2.52-.77,5.7,5.7,0,0,0,1.81-2.35l1.65.91a7.17,7.17,0,0,1-2.44,2.91,6.39,6.39,0,0,1-3.54.93,6,6,0,0,1-4.62-1.91,7.15,7.15,0,0,1-1.76-5,7.45,7.45,0,0,1,1.75-5.16,5.82,5.82,0,0,1,4.58-2,5.53,5.53,0,0,1,4.32,1.81,7,7,0,0,1,1.62,4.83Zm-2.14-1.54a4,4,0,0,0-1.18-2.77,4.07,4.07,0,0,0-2.86-1,3.84,3.84,0,0,0-2.74,1,4.15,4.15,0,0,0-1.29,2.72Z"/><path d="M710.42,43.23v-13h1.72v2a5.25,5.25,0,0,1,1.94-1.87,5.5,5.5,0,0,1,2.64-.62,4.27,4.27,0,0,1,4.67,4.66v8.82h-1.83v-8a4.35,4.35,0,0,0-.81-2.89,3.13,3.13,0,0,0-2.51-.94,3.63,3.63,0,0,0-3,1.22,6.14,6.14,0,0,0-1,3.84v6.79Z"/><path d="M726.43,31.77h-2.38V30.23h2.38V24.9h1.78v5.33h2.6v1.54h-2.6V43.23h-1.78Z"/><path d="M739.4,43.8a6.62,6.62,0,0,1-2.67-.55,7.43,7.43,0,0,1-2.31-1.58,6.56,6.56,0,0,1-1.5-2.22,7.13,7.13,0,0,1-.51-2.7,7,7,0,0,1,.53-2.69,6.75,6.75,0,0,1,1.51-2.26,7,7,0,0,1,4.95-2.05,7.15,7.15,0,0,1,5,2.05,6.94,6.94,0,0,1,2.08,4.95,7,7,0,0,1-.53,2.68,6.79,6.79,0,0,1-1.52,2.24,7.33,7.33,0,0,1-2.34,1.58A6.9,6.9,0,0,1,739.4,43.8Zm.06-1.69a4.83,4.83,0,0,0,3.62-1.54,5.6,5.6,0,0,0,0-7.6,5,5,0,0,0-7.25,0,5.62,5.62,0,0,0,0,7.6A4.8,4.8,0,0,0,739.46,42.11Z"/><path d="M748.76,40.91l1.71-1a3.47,3.47,0,0,0,1.23,1.63,3.42,3.42,0,0,0,2,.55,2.74,2.74,0,0,0,1.82-.57,2,2,0,0,0,.67-1.55c0-1-.88-1.84-2.65-2.54a3.75,3.75,0,0,1-.44-.17,8.27,8.27,0,0,1-2.87-1.66,3,3,0,0,1-.82-2.12,3.52,3.52,0,0,1,1.17-2.72,4.37,4.37,0,0,1,3-1.06,5,5,0,0,1,2.7.69,4,4,0,0,1,1.62,2l-1.65.92a2.66,2.66,0,0,0-1-1.4,3.09,3.09,0,0,0-1.76-.48,2.23,2.23,0,0,0-1.54.54,1.77,1.77,0,0,0-.61,1.37,1.71,1.71,0,0,0,.6,1.34,8.09,8.09,0,0,0,2.49,1.15,6.64,6.64,0,0,1,2.88,1.63,3.69,3.69,0,0,1,.74,2.43,3.54,3.54,0,0,1-1.27,2.86,5.19,5.19,0,0,1-3.43,1.07,5.14,5.14,0,0,1-2.85-.76A4.18,4.18,0,0,1,748.76,40.91Z"/><path d="M70.67,81.36H68.92V72.42a5.43,5.43,0,0,1-2,2.22,5.07,5.07,0,0,1-2.79.76,5.47,5.47,0,0,1-4.36-1.91,7.56,7.56,0,0,1-1.64-5.11,7.46,7.46,0,0,1,1.67-5.1,5.55,5.55,0,0,1,4.42-1.93,5,5,0,0,1,2.73.76,5.47,5.47,0,0,1,1.94,2.15V61.83h1.75ZM64.46,63a3.89,3.89,0,0,0-3.19,1.45,6.11,6.11,0,0,0-1.16,4,6.11,6.11,0,0,0,1.1,3.9,3.68,3.68,0,0,0,3.07,1.4,4.12,4.12,0,0,0,3.33-1.48,5.92,5.92,0,0,0,1.26-4,5.79,5.79,0,0,0-1.18-3.85A4,4,0,0,0,64.46,63Z"/><path d="M77.27,61.83v6.49a7.59,7.59,0,0,0,.85,4.18,3.94,3.94,0,0,0,5.7,0,7.44,7.44,0,0,0,.87-4.16V61.83h1.78v7.42a6.68,6.68,0,0,1-1.39,4.59A5.2,5.2,0,0,1,81,75.4a5.26,5.26,0,0,1-4.11-1.56,6.64,6.64,0,0,1-1.41-4.59V61.83Z"/><path d="M102.44,68.38H92.11a6.37,6.37,0,0,0,1.26,4,3.93,3.93,0,0,0,3.18,1.43A4.25,4.25,0,0,0,99.07,73a5.77,5.77,0,0,0,1.8-2.35l1.66.91a7.25,7.25,0,0,1-2.44,2.91,6.39,6.39,0,0,1-3.54.93,6,6,0,0,1-4.62-1.91,7.11,7.11,0,0,1-1.77-5,7.5,7.5,0,0,1,1.75-5.16,5.85,5.85,0,0,1,4.58-2,5.5,5.5,0,0,1,4.32,1.81A6.92,6.92,0,0,1,102.44,68Zm-2.14-1.54a3.72,3.72,0,0,0-4-3.75,3.86,3.86,0,0,0-2.75,1,4.14,4.14,0,0,0-1.28,2.72Z"/><path d="M126,68.38H115.67a6.37,6.37,0,0,0,1.26,4,3.93,3.93,0,0,0,3.18,1.43,4.29,4.29,0,0,0,2.52-.77,5.77,5.77,0,0,0,1.8-2.35l1.65.91a7.17,7.17,0,0,1-2.44,2.91,6.38,6.38,0,0,1-3.53.93,6,6,0,0,1-4.63-1.91,7.15,7.15,0,0,1-1.76-5,7.45,7.45,0,0,1,1.75-5.16,5.84,5.84,0,0,1,4.58-2,5.53,5.53,0,0,1,4.32,1.81A7,7,0,0,1,126,68Zm-2.13-1.54a3.72,3.72,0,0,0-4-3.75,3.84,3.84,0,0,0-2.74,1,4.15,4.15,0,0,0-1.29,2.72Z"/><path d="M128.27,72.51l1.71-1a3.35,3.35,0,0,0,1.23,1.63,3.42,3.42,0,0,0,2,.55,2.66,2.66,0,0,0,1.81-.58,1.92,1.92,0,0,0,.68-1.54c0-1-.89-1.84-2.65-2.54a3.15,3.15,0,0,1-.44-.17,8.18,8.18,0,0,1-2.87-1.66,3,3,0,0,1-.83-2.12,3.53,3.53,0,0,1,1.18-2.72,4.32,4.32,0,0,1,3-1.06,5,5,0,0,1,2.69.69,3.94,3.94,0,0,1,1.63,2l-1.65.92a2.66,2.66,0,0,0-1-1.4A3.09,3.09,0,0,0,133,63a2.23,2.23,0,0,0-1.54.55,1.77,1.77,0,0,0-.61,1.37,1.71,1.71,0,0,0,.6,1.34,8.09,8.09,0,0,0,2.49,1.15A6.71,6.71,0,0,1,136.8,69a3.69,3.69,0,0,1,.74,2.43,3.55,3.55,0,0,1-1.28,2.86,5.87,5.87,0,0,1-6.27.31A4.18,4.18,0,0,1,128.27,72.51Z"/><path d="M141.58,63.37h-2.39V61.83h2.39V56.5h1.77v5.33H146v1.54h-2.61V74.83h-1.77Z"/><path d="M158.24,74.83V72.45a4.74,4.74,0,0,1-4.56,3,5.71,5.71,0,0,1-4.5-1.92,7.34,7.34,0,0,1-1.71-5.07,7.56,7.56,0,0,1,1.68-5.09,5.89,5.89,0,0,1,7.22-1.25,4.85,4.85,0,0,1,1.87,2.14V61.83H160v13Zm-8.76-6.36a5.89,5.89,0,0,0,1.13,3.88,4,4,0,0,0,3.25,1.36,3.91,3.91,0,0,0,3.23-1.48,6.47,6.47,0,0,0,1.18-4.1,5.63,5.63,0,0,0-1.18-3.76,4,4,0,0,0-3.2-1.37,4,4,0,0,0-3.23,1.46A6.18,6.18,0,0,0,149.48,68.47Zm2.94-8.73,3.12-5.13h2.4l-4.14,5.13Z"/><path d="M184.68,68.38H174.35a6.37,6.37,0,0,0,1.26,4,3.93,3.93,0,0,0,3.18,1.43,4.29,4.29,0,0,0,2.52-.77,5.77,5.77,0,0,0,1.8-2.35l1.65.91a7.09,7.09,0,0,1-2.44,2.91,6.38,6.38,0,0,1-3.53.93,6,6,0,0,1-4.62-1.91,7.11,7.11,0,0,1-1.77-5,7.45,7.45,0,0,1,1.75-5.16,5.84,5.84,0,0,1,4.58-2,5.5,5.5,0,0,1,4.32,1.81A7,7,0,0,1,184.68,68Zm-2.14-1.54a3.72,3.72,0,0,0-4-3.75,3.84,3.84,0,0,0-2.74,1,4.09,4.09,0,0,0-1.28,2.72Z"/><path d="M188.43,74.83v-13h1.71v2A5.32,5.32,0,0,1,192.08,62a5.53,5.53,0,0,1,2.64-.62A4.27,4.27,0,0,1,199.4,66v8.82h-1.83v-8a4.3,4.3,0,0,0-.82-2.89,3.13,3.13,0,0,0-2.51-.94,3.63,3.63,0,0,0-3,1.22,6.14,6.14,0,0,0-1,3.84v6.79Z"/><path d="M223.86,68.38H213.53a6.37,6.37,0,0,0,1.26,4A3.93,3.93,0,0,0,218,73.77a4.25,4.25,0,0,0,2.52-.77,5.77,5.77,0,0,0,1.8-2.35l1.66.91a7.25,7.25,0,0,1-2.44,2.91,6.39,6.39,0,0,1-3.54.93,6,6,0,0,1-4.62-1.91,7.1,7.1,0,0,1-1.76-5,7.45,7.45,0,0,1,1.75-5.16,5.82,5.82,0,0,1,4.57-2,5.5,5.5,0,0,1,4.32,1.81A6.92,6.92,0,0,1,223.86,68Zm-2.14-1.54a3.71,3.71,0,0,0-4-3.75,3.88,3.88,0,0,0-2.75,1,4.14,4.14,0,0,0-1.28,2.72Z"/><path d="M229.59,74.83h-1.86V52.12h1.86Z"/><path d="M253.26,64.21a7.07,7.07,0,0,0-1.93-.95,7.19,7.19,0,0,0-2.11-.31,5,5,0,0,0-3.86,1.54,5.86,5.86,0,0,0-1.43,4.13,5.06,5.06,0,0,0,1.49,3.76,5.13,5.13,0,0,0,3.8,1.48,6.46,6.46,0,0,0,2.13-.37,8.26,8.26,0,0,0,2.12-1.1v2a8.35,8.35,0,0,1-2.11.82,11,11,0,0,1-2.48.27,6.54,6.54,0,0,1-4.88-2,6.86,6.86,0,0,1-1.9-5,6.79,6.79,0,0,1,7.15-7.15,10.31,10.31,0,0,1,2.2.23,7.38,7.38,0,0,1,1.84.65Z"/><path d="M262.74,75.4a6.79,6.79,0,0,1-2.67-.55,7.43,7.43,0,0,1-2.31-1.58,6.42,6.42,0,0,1-1.5-2.22,7.13,7.13,0,0,1-.51-2.7,7,7,0,0,1,.53-2.69,6.75,6.75,0,0,1,1.51-2.26,7,7,0,0,1,4.95-2,7.15,7.15,0,0,1,5,2,6.94,6.94,0,0,1,2.08,4.95,7,7,0,0,1-.53,2.68,6.79,6.79,0,0,1-1.52,2.24,7.33,7.33,0,0,1-2.34,1.58A7.12,7.12,0,0,1,262.74,75.4Zm.06-1.69a4.83,4.83,0,0,0,3.62-1.54,5.6,5.6,0,0,0,0-7.6,5,5,0,0,0-7.25,0,5.62,5.62,0,0,0,0,7.6A4.8,4.8,0,0,0,262.8,73.71Z"/><path d="M273.58,74.83v-13h1.71v2A5.4,5.4,0,0,1,277.23,62a5.54,5.54,0,0,1,2.65-.62A4.27,4.27,0,0,1,284.55,66v8.82h-1.83v-8a4.35,4.35,0,0,0-.81-2.89,3.15,3.15,0,0,0-2.52-.94,3.65,3.65,0,0,0-3,1.22,6.14,6.14,0,0,0-1,3.84v6.79Z"/><path d="M289.59,63.37H287.2V61.83h2.39V56.5h1.77v5.33H294v1.54h-2.61V74.83h-1.77Z"/><path d="M307.81,68.38H297.48a6.37,6.37,0,0,0,1.26,4,3.93,3.93,0,0,0,3.18,1.43,4.25,4.25,0,0,0,2.52-.77,5.68,5.68,0,0,0,1.8-2.35l1.66.91a7.25,7.25,0,0,1-2.44,2.91,6.39,6.39,0,0,1-3.54.93,6,6,0,0,1-4.62-1.91,7.1,7.1,0,0,1-1.76-5,7.45,7.45,0,0,1,1.75-5.16,5.82,5.82,0,0,1,4.57-2,5.5,5.5,0,0,1,4.32,1.81A6.92,6.92,0,0,1,307.81,68Zm-2.14-1.54a3.71,3.71,0,0,0-4-3.75,3.88,3.88,0,0,0-2.75,1,4.14,4.14,0,0,0-1.28,2.72Z"/><path d="M311.56,74.83v-13h1.71v2a5.35,5.35,0,0,1,2-1.87,5.48,5.48,0,0,1,2.64-.62A4.27,4.27,0,0,1,322.53,66v8.82H320.7v-8a4.35,4.35,0,0,0-.81-2.89,3.13,3.13,0,0,0-2.51-.94,3.63,3.63,0,0,0-3,1.22,6.14,6.14,0,0,0-1,3.84v6.79Z"/><path d="M338.35,68.38H328a6.25,6.25,0,0,0,1.26,4,3.92,3.92,0,0,0,3.17,1.43A4.25,4.25,0,0,0,335,73a5.7,5.7,0,0,0,1.81-2.35l1.65.91A7.17,7.17,0,0,1,336,74.47a6.39,6.39,0,0,1-3.54.93,6,6,0,0,1-4.62-1.91,7.15,7.15,0,0,1-1.76-5,7.45,7.45,0,0,1,1.75-5.16,5.82,5.82,0,0,1,4.58-2,5.53,5.53,0,0,1,4.32,1.81A7,7,0,0,1,338.35,68Zm-2.14-1.54A4,4,0,0,0,335,64.07a4.07,4.07,0,0,0-2.86-1,3.84,3.84,0,0,0-2.74,1,4.15,4.15,0,0,0-1.29,2.72Z"/><path d="M351.73,74.83V72.45a4.67,4.67,0,0,1-4.53,3,5.72,5.72,0,0,1-4.5-1.92A7.34,7.34,0,0,1,341,68.41a7.56,7.56,0,0,1,1.68-5.09,5.49,5.49,0,0,1,4.35-2,5.39,5.39,0,0,1,2.85.72,4.83,4.83,0,0,1,1.86,2.14V52.12h1.83V74.83ZM343,68.47a5.89,5.89,0,0,0,1.13,3.88,4,4,0,0,0,3.25,1.36,3.85,3.85,0,0,0,3.2-1.48,6.41,6.41,0,0,0,1.18-4.1,5.67,5.67,0,0,0-1.16-3.76,4.35,4.35,0,0,0-6.42.09A6.18,6.18,0,0,0,343,68.47Z"/><path d="M364.24,75.4a6.79,6.79,0,0,1-2.67-.55,7.43,7.43,0,0,1-2.31-1.58,6.42,6.42,0,0,1-1.5-2.22,7.13,7.13,0,0,1-.51-2.7,7,7,0,0,1,.53-2.69,6.75,6.75,0,0,1,1.51-2.26,7,7,0,0,1,4.95-2,7.15,7.15,0,0,1,5,2,7,7,0,0,1,1.54,2.27,6.79,6.79,0,0,1,.54,2.68,7,7,0,0,1-.53,2.68,6.79,6.79,0,0,1-1.52,2.24A7.33,7.33,0,0,1,367,74.85,7.16,7.16,0,0,1,364.24,75.4Zm.06-1.69a4.83,4.83,0,0,0,3.62-1.54,5.6,5.6,0,0,0,0-7.6,5,5,0,0,0-7.25,0,5.62,5.62,0,0,0,0,7.6A4.8,4.8,0,0,0,364.3,73.71Z"/><path d="M376.88,64.44a8,8,0,0,1,1.95-2.39,3.69,3.69,0,0,1,2.24-.7,4.08,4.08,0,0,1,.77.07,5.51,5.51,0,0,1,.77.21l-.59,1.7a6,6,0,0,0-.61-.15,3.23,3.23,0,0,0-.61-.06A3.38,3.38,0,0,0,378,64.65a6.08,6.08,0,0,0-1.15,3.79v6.39h-1.8v-13h1.8Z"/><path d="M381.93,73.6a1.47,1.47,0,0,1,1.5-1.5,1.47,1.47,0,0,1,1.06.43,1.46,1.46,0,0,1,.43,1.07,1.47,1.47,0,0,1-1.49,1.49,1.46,1.46,0,0,1-1.07-.43A1.47,1.47,0,0,1,381.93,73.6Z"/></svg>