<svg id="fondos" xmlns="http://www.w3.org/2000/svg" viewBox="0 0 838.12 100.16"><defs><style>.cls-1{fill:#e6e6e6;}</style></defs><title>polfa4</title><rect class="cls-1" width="838.12" height="100.16"/><path d="M57.86,40.15l1.67-.89a4.7,4.7,0,0,0,1.62,2.45,4.46,4.46,0,0,0,2.76.87,4.18,4.18,0,0,0,3.18-1.2,4.64,4.64,0,0,0,1.15-3.32,4.18,4.18,0,0,0-.77-2.58,10.5,10.5,0,0,0-3.31-2.37,14.94,14.94,0,0,1-4.3-3A4.76,4.76,0,0,1,58.79,27a4.85,4.85,0,0,1,1.54-3.72,5.69,5.69,0,0,1,4-1.43,5.48,5.48,0,0,1,2.8.68,5.06,5.06,0,0,1,2,2l-1.51.91A3.36,3.36,0,0,0,66.25,24a4.09,4.09,0,0,0-2-.48,3.44,3.44,0,0,0-2.52.93A3.4,3.4,0,0,0,60.77,27q0,2.26,3.72,4.21l1,.54a10.53,10.53,0,0,1,3.66,2.85,6,6,0,0,1,.93,3.48,5.84,5.84,0,0,1-6.27,6.27,6.13,6.13,0,0,1-3.61-1A6.81,6.81,0,0,1,57.86,40.15Z"/><path d="M73.85,25.69a1.29,1.29,0,0,1,.41-1,1.34,1.34,0,0,1,1-.4,1.37,1.37,0,0,1,1,.4,1.29,1.29,0,0,1,.41,1,1.3,1.3,0,0,1-.4,1,1.44,1.44,0,0,1-2,0A1.3,1.3,0,0,1,73.85,25.69Zm.45,18.06v-13h1.86v13Z"/><path d="M91.7,43.75H89.84V21.05H91.7Z"/><path d="M106.22,43.75V41.38a4.88,4.88,0,0,1-1.81,2.19,5,5,0,0,1-2.75.76,5.74,5.74,0,0,1-4.5-1.92,7.34,7.34,0,0,1-1.71-5.07,7.52,7.52,0,0,1,1.69-5.09A5.88,5.88,0,0,1,104.35,31a4.82,4.82,0,0,1,1.87,2.13V30.76H108v13ZM97.46,37.4a5.89,5.89,0,0,0,1.14,3.88,4,4,0,0,0,3.24,1.36,3.9,3.9,0,0,0,3.23-1.48,6.49,6.49,0,0,0,1.18-4.1,5.62,5.62,0,0,0-1.17-3.76,4,4,0,0,0-3.21-1.37,3.93,3.93,0,0,0-3.22,1.46A6.13,6.13,0,0,0,97.46,37.4Z"/><path d="M123.3,43.75h-1.8v-13h1.8v2a4.72,4.72,0,0,1,1.7-1.88,4.55,4.55,0,0,1,2.43-.64,4.37,4.37,0,0,1,2.42.65,4.18,4.18,0,0,1,1.55,1.91,5,5,0,0,1,4.53-2.56,4.29,4.29,0,0,1,3.25,1.25A4.81,4.81,0,0,1,140.36,35v8.78h-1.8V35.68a4.51,4.51,0,0,0-.78-2.87,2.84,2.84,0,0,0-2.34-1,3.13,3.13,0,0,0-2.73,1.21,6.72,6.72,0,0,0-.87,3.85v6.84h-1.79V35.68a4.66,4.66,0,0,0-.74-2.91,2.79,2.79,0,0,0-2.32-.92,3.23,3.23,0,0,0-2.8,1.23,6.62,6.62,0,0,0-.89,3.83Z"/><path d="M156.33,37.31H146a6.31,6.31,0,0,0,1.26,3.95,3.92,3.92,0,0,0,3.18,1.44,4.19,4.19,0,0,0,2.52-.78,5.58,5.58,0,0,0,1.8-2.34l1.66.91A7.17,7.17,0,0,1,154,43.4a6.39,6.39,0,0,1-3.54.93,6,6,0,0,1-4.62-1.91,7.1,7.1,0,0,1-1.76-5,7.45,7.45,0,0,1,1.75-5.16,5.82,5.82,0,0,1,4.57-2,5.54,5.54,0,0,1,4.33,1.81,6.94,6.94,0,0,1,1.62,4.82Zm-2.14-1.54a3.71,3.71,0,0,0-4-3.75,3.88,3.88,0,0,0-2.75,1,4.19,4.19,0,0,0-1.28,2.72Z"/><path d="M161.88,33.37a8.13,8.13,0,0,1,2-2.39,3.66,3.66,0,0,1,2.23-.7,4,4,0,0,1,.77.07,5.16,5.16,0,0,1,.77.21l-.59,1.7a5.26,5.26,0,0,0-.6-.15,3.31,3.31,0,0,0-.61-.06A3.41,3.41,0,0,0,163,33.57a6.17,6.17,0,0,0-1.15,3.8v6.38h-1.8v-13h1.8Z"/><path d="M179.64,33.13a7,7,0,0,0-1.94-.94,7.09,7.09,0,0,0-2.11-.31,5,5,0,0,0-3.85,1.54,5.81,5.81,0,0,0-1.43,4.12,5.09,5.09,0,0,0,1.48,3.77,5.15,5.15,0,0,0,3.8,1.48,6.37,6.37,0,0,0,2.13-.37,8.1,8.1,0,0,0,2.12-1.1v2a7.84,7.84,0,0,1-2.11.81,10.81,10.81,0,0,1-2.47.27,6.52,6.52,0,0,1-4.88-2,6.86,6.86,0,0,1-1.91-5,6.81,6.81,0,0,1,7.15-7.15,10.42,10.42,0,0,1,2.21.22,7.38,7.38,0,0,1,1.84.66Z"/><path d="M192.81,43.75V41.38a4.74,4.74,0,0,1-4.56,2.95,5.72,5.72,0,0,1-4.5-1.92A7.34,7.34,0,0,1,182,37.34a7.56,7.56,0,0,1,1.68-5.09A5.89,5.89,0,0,1,190.94,31a4.88,4.88,0,0,1,1.87,2.13V30.76h1.8v13Zm-8.76-6.35a5.89,5.89,0,0,0,1.13,3.88,4,4,0,0,0,3.25,1.36,3.91,3.91,0,0,0,3.23-1.48,6.49,6.49,0,0,0,1.18-4.1,5.63,5.63,0,0,0-1.18-3.76,4,4,0,0,0-3.2-1.37,4,4,0,0,0-3.23,1.46A6.18,6.18,0,0,0,184.05,37.4Z"/><path d="M199.44,43.75v-13h1.72v2a5.25,5.25,0,0,1,1.94-1.87,5.48,5.48,0,0,1,2.64-.62,4.27,4.27,0,0,1,4.67,4.66v8.81h-1.83v-8a4.35,4.35,0,0,0-.81-2.89,3.14,3.14,0,0,0-2.51-1,3.64,3.64,0,0,0-3,1.23,6.12,6.12,0,0,0-1,3.84v6.78Z"/><path d="M225.18,33.13a7,7,0,0,0-1.93-.94,7.19,7.19,0,0,0-2.11-.31,5,5,0,0,0-3.86,1.54,5.85,5.85,0,0,0-1.43,4.12,5.06,5.06,0,0,0,1.49,3.77,5.13,5.13,0,0,0,3.8,1.48,6.46,6.46,0,0,0,2.13-.37,8.05,8.05,0,0,0,2.11-1.1v2a7.71,7.71,0,0,1-2.11.81,10.81,10.81,0,0,1-2.47.27,6.53,6.53,0,0,1-4.88-2,6.86,6.86,0,0,1-1.9-5,6.79,6.79,0,0,1,7.15-7.15,10.32,10.32,0,0,1,2.2.22,7.38,7.38,0,0,1,1.84.66Z"/><path d="M227.86,28.67,231,23.54h2.4l-4.14,5.13Zm1,15.08v-13h1.86v13Z"/><path d="M245.25,43.75V41.38a4.88,4.88,0,0,1-1.81,2.19,5,5,0,0,1-2.75.76,5.72,5.72,0,0,1-4.5-1.92,7.34,7.34,0,0,1-1.71-5.07,7.52,7.52,0,0,1,1.69-5.09A5.88,5.88,0,0,1,243.38,31a4.82,4.82,0,0,1,1.87,2.13V30.76h1.8v13Zm-8.76-6.35a5.94,5.94,0,0,0,1.13,3.88,4,4,0,0,0,3.25,1.36,3.91,3.91,0,0,0,3.23-1.48,6.49,6.49,0,0,0,1.18-4.1,5.57,5.57,0,0,0-1.18-3.76,4.36,4.36,0,0,0-6.43.09A6.18,6.18,0,0,0,236.49,37.4Z"/><path d="M260.53,43.75v-13h1.71v2a5.32,5.32,0,0,1,1.94-1.87,5.53,5.53,0,0,1,2.64-.62,4.27,4.27,0,0,1,4.68,4.66v8.81h-1.83v-8a4.35,4.35,0,0,0-.82-2.89,3.14,3.14,0,0,0-2.51-1,3.64,3.64,0,0,0-3,1.23,6.12,6.12,0,0,0-1,3.84v6.78Z"/><path d="M282.06,44.33a6.79,6.79,0,0,1-2.67-.55,7.43,7.43,0,0,1-2.31-1.58,6.56,6.56,0,0,1-1.5-2.22,7.13,7.13,0,0,1-.51-2.7,6.94,6.94,0,0,1,.53-2.69,6.75,6.75,0,0,1,1.51-2.26,6.92,6.92,0,0,1,2.27-1.52,6.78,6.78,0,0,1,2.68-.53,7,7,0,0,1,2.73.53,7.08,7.08,0,0,1,2.31,1.52A6.95,6.95,0,0,1,288.65,40a6.73,6.73,0,0,1-1.52,2.25,7.33,7.33,0,0,1-2.34,1.58A7.08,7.08,0,0,1,282.06,44.33Zm.06-1.69a4.83,4.83,0,0,0,3.62-1.54,5.6,5.6,0,0,0,0-7.6,5,5,0,0,0-7.25,0,5.62,5.62,0,0,0,0,7.6A4.82,4.82,0,0,0,282.12,42.64Z"/><path d="M312.7,37.31H302.38a6.31,6.31,0,0,0,1.26,3.95,3.9,3.9,0,0,0,3.17,1.44,4.19,4.19,0,0,0,2.52-.78,5.6,5.6,0,0,0,1.81-2.34l1.65.91a7.17,7.17,0,0,1-2.44,2.91,6.39,6.39,0,0,1-3.54.93,6,6,0,0,1-4.62-1.91,7.15,7.15,0,0,1-1.76-5,7.45,7.45,0,0,1,1.75-5.16,5.84,5.84,0,0,1,4.58-2,5.53,5.53,0,0,1,4.32,1.81,6.94,6.94,0,0,1,1.62,4.82Zm-2.14-1.54a3.71,3.71,0,0,0-4-3.75,3.84,3.84,0,0,0-2.74,1,4.15,4.15,0,0,0-1.29,2.72Z"/><path d="M315,41.44l1.72-1a3.35,3.35,0,0,0,1.23,1.63,3.4,3.4,0,0,0,2,.55,2.66,2.66,0,0,0,1.81-.58,1.92,1.92,0,0,0,.68-1.54c0-1-.89-1.84-2.66-2.54a3.49,3.49,0,0,1-.43-.17,8.34,8.34,0,0,1-2.88-1.66A3,3,0,0,1,315.6,34a3.48,3.48,0,0,1,1.18-2.72,4.32,4.32,0,0,1,3-1.06,5,5,0,0,1,2.69.69,3.94,3.94,0,0,1,1.63,2l-1.66.92a2.59,2.59,0,0,0-1-1.4,3,3,0,0,0-1.76-.49,2.28,2.28,0,0,0-1.55.55,1.8,1.8,0,0,0-.6,1.37,1.72,1.72,0,0,0,.6,1.34,8.09,8.09,0,0,0,2.49,1.15A6.77,6.77,0,0,1,323.51,38a3.67,3.67,0,0,1,.74,2.43A3.56,3.56,0,0,1,323,43.26a5.87,5.87,0,0,1-6.27.31A4.25,4.25,0,0,1,315,41.44Z"/><path d="M328.29,32.3H325.9V30.76h2.39V25.43h1.77v5.33h2.61V32.3h-2.61V43.75h-1.77Z"/><path d="M344.94,43.75V41.38a4.86,4.86,0,0,1-1.8,2.19,5,5,0,0,1-2.75.76,5.71,5.71,0,0,1-4.5-1.92,7.34,7.34,0,0,1-1.71-5.07,7.56,7.56,0,0,1,1.68-5.09A5.89,5.89,0,0,1,343.08,31a4.8,4.8,0,0,1,1.86,2.13V30.76h1.81v13Zm-8.76-6.35a5.89,5.89,0,0,0,1.14,3.88,4,4,0,0,0,3.24,1.36,3.92,3.92,0,0,0,3.24-1.48,6.49,6.49,0,0,0,1.17-4.1,5.62,5.62,0,0,0-1.17-3.76,4,4,0,0,0-3.21-1.37,4,4,0,0,0-3.22,1.46A6.18,6.18,0,0,0,336.18,37.4Zm2.95-8.73,3.12-5.13h2.4l-4.14,5.13Z"/><path d="M369.82,43.75V41.38A4.88,4.88,0,0,1,368,43.57a5,5,0,0,1-2.75.76,5.72,5.72,0,0,1-4.5-1.92,7.34,7.34,0,0,1-1.71-5.07,7.52,7.52,0,0,1,1.69-5.09A5.88,5.88,0,0,1,368,31a4.82,4.82,0,0,1,1.87,2.13V30.76h1.8v13Zm-8.76-6.35a5.94,5.94,0,0,0,1.13,3.88,4,4,0,0,0,3.25,1.36,3.9,3.9,0,0,0,3.23-1.48,6.49,6.49,0,0,0,1.18-4.1,5.62,5.62,0,0,0-1.17-3.76,4,4,0,0,0-3.21-1.37,4,4,0,0,0-3.23,1.46A6.18,6.18,0,0,0,361.06,37.4Z"/><path d="M378.26,43.75h-1.81v-13h1.81v2a4.4,4.4,0,0,1,4.13-2.52,4.4,4.4,0,0,1,2.42.65,4.24,4.24,0,0,1,1.55,1.91,5,5,0,0,1,4.52-2.56,4.27,4.27,0,0,1,3.25,1.25A4.77,4.77,0,0,1,395.32,35v8.78h-1.8V35.68a4.44,4.44,0,0,0-.79-2.87,2.83,2.83,0,0,0-2.33-1,3.13,3.13,0,0,0-2.73,1.21,6.72,6.72,0,0,0-.87,3.85v6.84H385V35.68a4.59,4.59,0,0,0-.75-2.91,2.79,2.79,0,0,0-2.31-.92,3.22,3.22,0,0,0-2.8,1.23,6.54,6.54,0,0,0-.89,3.83Z"/><path d="M400.13,50.29V30.76h1.74v2.43A5.69,5.69,0,0,1,403.82,31a5,5,0,0,1,2.69-.75,5.58,5.58,0,0,1,4.42,1.92,7.51,7.51,0,0,1,1.68,5.11A7.61,7.61,0,0,1,411,42.42a5.49,5.49,0,0,1-4.37,1.91,5.14,5.14,0,0,1-2.77-.76,5.55,5.55,0,0,1-2-2.22v8.94Zm10.53-12.95a6.22,6.22,0,0,0-1.15-4,3.85,3.85,0,0,0-3.17-1.45,4,4,0,0,0-3.26,1.4,5.79,5.79,0,0,0-1.18,3.85,6,6,0,0,0,1.26,4,4.2,4.2,0,0,0,3.35,1.48,3.65,3.65,0,0,0,3.06-1.4A6.24,6.24,0,0,0,410.66,37.34Z"/><path d="M426,43.75V41.38a4.88,4.88,0,0,1-1.81,2.19,5,5,0,0,1-2.75.76,5.74,5.74,0,0,1-4.5-1.92,7.34,7.34,0,0,1-1.71-5.07,7.57,7.57,0,0,1,1.69-5.09A5.88,5.88,0,0,1,424.08,31,4.82,4.82,0,0,1,426,33.13V30.76h1.8v13Zm-8.76-6.35a5.89,5.89,0,0,0,1.14,3.88,4,4,0,0,0,3.24,1.36,3.9,3.9,0,0,0,3.23-1.48,6.43,6.43,0,0,0,1.18-4.1,5.62,5.62,0,0,0-1.17-3.76,4,4,0,0,0-3.21-1.37,3.93,3.93,0,0,0-3.22,1.46A6.18,6.18,0,0,0,417.19,37.4Z"/><path d="M434.39,33.37A8,8,0,0,1,436.34,31a3.69,3.69,0,0,1,2.24-.7,4.08,4.08,0,0,1,.77.07,5.91,5.91,0,0,1,.77.21l-.59,1.7a6,6,0,0,0-.61-.15,3.23,3.23,0,0,0-.61-.06,3.39,3.39,0,0,0-2.77,1.52,6.11,6.11,0,0,0-1.15,3.8v6.38h-1.8v-13h1.8Z"/><path d="M451.63,43.75V41.38a4.88,4.88,0,0,1-1.81,2.19,5,5,0,0,1-2.75.76,5.74,5.74,0,0,1-4.5-1.92,7.34,7.34,0,0,1-1.71-5.07,7.52,7.52,0,0,1,1.69-5.09A5.88,5.88,0,0,1,449.76,31a4.82,4.82,0,0,1,1.87,2.13V30.76h1.8v13Zm-8.76-6.35A5.89,5.89,0,0,0,444,41.28a4,4,0,0,0,3.24,1.36,3.9,3.9,0,0,0,3.23-1.48,6.43,6.43,0,0,0,1.18-4.1,5.62,5.62,0,0,0-1.17-3.76,4,4,0,0,0-3.21-1.37,3.93,3.93,0,0,0-3.22,1.46A6.18,6.18,0,0,0,442.87,37.4Z"/><path d="M467.89,43.75V41.38a4.67,4.67,0,0,1-4.53,2.95,5.74,5.74,0,0,1-4.5-1.92,7.34,7.34,0,0,1-1.71-5.07,7.52,7.52,0,0,1,1.69-5.09A5.86,5.86,0,0,1,466,31a4.9,4.9,0,0,1,1.85,2.13V21.05h1.83v22.7Zm-8.73-6.35a5.94,5.94,0,0,0,1.13,3.88,4,4,0,0,0,3.25,1.36,3.86,3.86,0,0,0,3.21-1.48,6.49,6.49,0,0,0,1.17-4.1,5.67,5.67,0,0,0-1.16-3.76,4.34,4.34,0,0,0-6.41.09A6.13,6.13,0,0,0,459.16,37.4Z"/><path d="M484.09,43.75V41.38a4.88,4.88,0,0,1-1.81,2.19,5,5,0,0,1-2.75.76,5.74,5.74,0,0,1-4.5-1.92,7.34,7.34,0,0,1-1.71-5.07A7.57,7.57,0,0,1,475,32.25,5.88,5.88,0,0,1,482.22,31a4.82,4.82,0,0,1,1.87,2.13V30.76h1.8v13Zm-8.76-6.35a5.89,5.89,0,0,0,1.14,3.88,4,4,0,0,0,3.24,1.36,3.9,3.9,0,0,0,3.23-1.48,6.43,6.43,0,0,0,1.18-4.1A5.62,5.62,0,0,0,483,33.3a4,4,0,0,0-3.21-1.37,3.93,3.93,0,0,0-3.22,1.46A6.18,6.18,0,0,0,475.33,37.4Z"/><path d="M497.89,41.44l1.71-1a3.47,3.47,0,0,0,1.23,1.63,3.42,3.42,0,0,0,2,.55,2.69,2.69,0,0,0,1.82-.58,1.92,1.92,0,0,0,.67-1.54c0-1-.88-1.84-2.65-2.54a3.75,3.75,0,0,1-.44-.17,8.27,8.27,0,0,1-2.87-1.66,3,3,0,0,1-.82-2.12,3.5,3.5,0,0,1,1.17-2.72,4.32,4.32,0,0,1,3-1.06,5,5,0,0,1,2.7.69,4,4,0,0,1,1.62,2l-1.65.92a2.66,2.66,0,0,0-1-1.4,3,3,0,0,0-1.75-.49,2.26,2.26,0,0,0-1.55.55,1.77,1.77,0,0,0-.61,1.37,1.72,1.72,0,0,0,.6,1.34,8.09,8.09,0,0,0,2.49,1.15A6.64,6.64,0,0,1,506.42,38a3.67,3.67,0,0,1,.74,2.43,3.55,3.55,0,0,1-1.27,2.86,5.19,5.19,0,0,1-3.43,1.07,5.27,5.27,0,0,1-2.85-.76A4.18,4.18,0,0,1,497.89,41.44Z"/><path d="M522,37.31H511.66a6.31,6.31,0,0,0,1.26,3.95,3.91,3.91,0,0,0,3.18,1.44,4.23,4.23,0,0,0,2.52-.78,5.66,5.66,0,0,0,1.8-2.34l1.65.91a7.09,7.09,0,0,1-2.44,2.91,6.38,6.38,0,0,1-3.53.93,6,6,0,0,1-4.62-1.91,7.11,7.11,0,0,1-1.77-5,7.45,7.45,0,0,1,1.75-5.16,5.84,5.84,0,0,1,4.58-2,5.5,5.5,0,0,1,4.32,1.81A6.94,6.94,0,0,1,522,36.91Zm-2.14-1.54A3.72,3.72,0,0,0,515.8,32a3.84,3.84,0,0,0-2.74,1,4.09,4.09,0,0,0-1.28,2.72Z"/><path d="M534.38,50.29V30.76h1.74v2.43a5.69,5.69,0,0,1,2-2.16,5,5,0,0,1,2.7-.75,5.58,5.58,0,0,1,4.41,1.92,7.51,7.51,0,0,1,1.68,5.11,7.61,7.61,0,0,1-1.64,5.11,5.49,5.49,0,0,1-4.37,1.91,5.16,5.16,0,0,1-2.77-.76,5.55,5.55,0,0,1-2-2.22v8.94Zm10.53-12.95a6.16,6.16,0,0,0-1.15-4,3.84,3.84,0,0,0-3.17-1.45,4,4,0,0,0-3.26,1.4,5.79,5.79,0,0,0-1.18,3.85,5.92,5.92,0,0,0,1.27,4,4.17,4.17,0,0,0,3.35,1.48,3.64,3.64,0,0,0,3.05-1.4A6.18,6.18,0,0,0,544.91,37.34Z"/><path d="M552.41,33.37a8,8,0,0,1,2-2.39,3.66,3.66,0,0,1,2.23-.7,4.08,4.08,0,0,1,.77.07,5.51,5.51,0,0,1,.77.21l-.59,1.7a5.44,5.44,0,0,0-.61-.15,3.21,3.21,0,0,0-.6-.06,3.41,3.41,0,0,0-2.78,1.52,6.11,6.11,0,0,0-1.15,3.8v6.38h-1.8v-13h1.8Z"/><path d="M566,44.33a6.79,6.79,0,0,1-2.67-.55A7.43,7.43,0,0,1,561,42.2,6.53,6.53,0,0,1,559.49,40a7.18,7.18,0,0,1,0-5.39A6.75,6.75,0,0,1,561,32.33a6.92,6.92,0,0,1,2.27-1.52,6.78,6.78,0,0,1,2.68-.53,7,7,0,0,1,7.12,7,6.88,6.88,0,0,1-.53,2.67A6.73,6.73,0,0,1,571,42.2,7.14,7.14,0,0,1,566,44.33Zm.06-1.69a4.83,4.83,0,0,0,3.62-1.54,5.6,5.6,0,0,0,0-7.6,5,5,0,0,0-7.25,0,5.62,5.62,0,0,0,0,7.6A4.82,4.82,0,0,0,566,42.64Z"/><path d="M586.91,33.13a7,7,0,0,0-1.94-.94,7.09,7.09,0,0,0-2.11-.31A5,5,0,0,0,579,33.42a5.85,5.85,0,0,0-1.43,4.12,5.09,5.09,0,0,0,1.48,3.77,5.15,5.15,0,0,0,3.8,1.48,6.47,6.47,0,0,0,2.14-.37,8.21,8.21,0,0,0,2.11-1.1v2a7.84,7.84,0,0,1-2.11.81,10.81,10.81,0,0,1-2.47.27,6.53,6.53,0,0,1-4.88-2,6.86,6.86,0,0,1-1.9-5,6.79,6.79,0,0,1,7.14-7.15,10.35,10.35,0,0,1,2.21.22,7.38,7.38,0,0,1,1.84.66Z"/><path d="M601.64,37.31H591.32a6.31,6.31,0,0,0,1.26,3.95,3.91,3.91,0,0,0,3.18,1.44,4.18,4.18,0,0,0,2.51-.78,5.6,5.6,0,0,0,1.81-2.34l1.65.91a7.17,7.17,0,0,1-2.44,2.91,6.38,6.38,0,0,1-3.53.93,6,6,0,0,1-4.63-1.91,7.15,7.15,0,0,1-1.76-5,7.45,7.45,0,0,1,1.75-5.16,5.84,5.84,0,0,1,4.58-2A5.53,5.53,0,0,1,600,32.09a6.94,6.94,0,0,1,1.62,4.82Zm-2.13-1.54a3.72,3.72,0,0,0-4-3.75,3.84,3.84,0,0,0-2.74,1,4.15,4.15,0,0,0-1.29,2.72Z"/><path d="M615,43.75V41.38a4.67,4.67,0,0,1-4.53,2.95,5.72,5.72,0,0,1-4.5-1.92,7.34,7.34,0,0,1-1.71-5.07A7.52,7.52,0,0,1,606,32.25a5.86,5.86,0,0,1,7.2-1.25A4.9,4.9,0,0,1,615,33.13V21.05h1.83v22.7Zm-8.73-6.35a5.94,5.94,0,0,0,1.13,3.88,4,4,0,0,0,3.25,1.36,3.89,3.89,0,0,0,3.21-1.48,6.49,6.49,0,0,0,1.17-4.1,5.67,5.67,0,0,0-1.16-3.76,4.35,4.35,0,0,0-6.42.09A6.18,6.18,0,0,0,606.29,37.4Z"/><path d="M632.79,37.31H622.46a6.31,6.31,0,0,0,1.26,3.95,3.91,3.91,0,0,0,3.18,1.44,4.23,4.23,0,0,0,2.52-.78,5.66,5.66,0,0,0,1.8-2.34l1.65.91a7.09,7.09,0,0,1-2.44,2.91,6.38,6.38,0,0,1-3.53.93,6,6,0,0,1-4.62-1.91,7.11,7.11,0,0,1-1.77-5,7.45,7.45,0,0,1,1.75-5.16,5.84,5.84,0,0,1,4.58-2,5.5,5.5,0,0,1,4.32,1.81,6.94,6.94,0,0,1,1.63,4.82Zm-2.14-1.54a3.72,3.72,0,0,0-4-3.75,3.86,3.86,0,0,0-2.74,1,4.09,4.09,0,0,0-1.28,2.72Z"/><path d="M68.84,75.35V73a4.74,4.74,0,0,1-4.56,3A5.72,5.72,0,0,1,59.78,74a7.34,7.34,0,0,1-1.71-5.07,7.56,7.56,0,0,1,1.68-5.09A5.89,5.89,0,0,1,67,62.6a4.88,4.88,0,0,1,1.87,2.13V62.36h1.8v13ZM60.08,69a5.89,5.89,0,0,0,1.13,3.88,4,4,0,0,0,3.25,1.36,3.89,3.89,0,0,0,3.23-1.49,6.44,6.44,0,0,0,1.18-4.09,5.63,5.63,0,0,0-1.18-3.76,4,4,0,0,0-3.2-1.37A4,4,0,0,0,61.26,65,6.18,6.18,0,0,0,60.08,69Z"/><path d="M86.09,75.35H84.23V52.65h1.86Z"/><path d="M100.61,75.35V73a4.88,4.88,0,0,1-1.81,2.19,5,5,0,0,1-2.75.76A5.74,5.74,0,0,1,91.55,74a7.34,7.34,0,0,1-1.71-5.07,7.52,7.52,0,0,1,1.69-5.09,5.88,5.88,0,0,1,7.21-1.25,4.82,4.82,0,0,1,1.87,2.13V62.36h1.8v13ZM91.85,69A5.94,5.94,0,0,0,93,72.88a4,4,0,0,0,3.25,1.36,3.88,3.88,0,0,0,3.23-1.49,6.44,6.44,0,0,0,1.18-4.09,5.62,5.62,0,0,0-1.17-3.76,4,4,0,0,0-3.21-1.37A3.93,3.93,0,0,0,93,65,6.13,6.13,0,0,0,91.85,69Z"/><path d="M125.48,75.35V73a4.88,4.88,0,0,1-1.81,2.19,4.94,4.94,0,0,1-2.74.76A5.74,5.74,0,0,1,116.42,74a7.33,7.33,0,0,1-1.7-5.07,7.56,7.56,0,0,1,1.68-5.09,5.88,5.88,0,0,1,7.21-1.25,4.82,4.82,0,0,1,1.87,2.13V62.36h1.8v13ZM116.72,69a5.89,5.89,0,0,0,1.14,3.88,4,4,0,0,0,3.24,1.36,3.87,3.87,0,0,0,3.23-1.49,6.38,6.38,0,0,0,1.18-4.09,5.62,5.62,0,0,0-1.17-3.76,4,4,0,0,0-3.21-1.37A3.93,3.93,0,0,0,117.91,65,6.18,6.18,0,0,0,116.72,69Z"/><path d="M132.12,81.89V62.36h1.74v2.43a5.69,5.69,0,0,1,1.95-2.16,5,5,0,0,1,2.69-.75,5.58,5.58,0,0,1,4.42,1.92,7.51,7.51,0,0,1,1.68,5.11A7.57,7.57,0,0,1,143,74a5.47,5.47,0,0,1-4.37,1.92,5.14,5.14,0,0,1-2.77-.76,5.55,5.55,0,0,1-2-2.22v8.94Zm10.53-13a6.16,6.16,0,0,0-1.15-4,3.81,3.81,0,0,0-3.17-1.45,4,4,0,0,0-3.26,1.4,5.79,5.79,0,0,0-1.18,3.85,5.88,5.88,0,0,0,1.27,4,4.15,4.15,0,0,0,3.34,1.49,3.65,3.65,0,0,0,3.06-1.4A6.18,6.18,0,0,0,142.65,68.94Z"/><path d="M150.15,65a8,8,0,0,1,2-2.39,3.64,3.64,0,0,1,2.23-.7,4.08,4.08,0,0,1,.77.07,5.51,5.51,0,0,1,.77.21l-.59,1.7a5.44,5.44,0,0,0-.61-.15,3.21,3.21,0,0,0-.6-.06,3.41,3.41,0,0,0-2.78,1.52,6.11,6.11,0,0,0-1.15,3.8v6.38h-1.8v-13h1.8Z"/><path d="M169,68.91H158.63a6.31,6.31,0,0,0,1.26,4,3.91,3.91,0,0,0,3.18,1.44,4.19,4.19,0,0,0,2.52-.78,5.73,5.73,0,0,0,1.8-2.34l1.66.91A7.25,7.25,0,0,1,166.61,75a6.42,6.42,0,0,1-3.54.93A6,6,0,0,1,158.45,74a7.07,7.07,0,0,1-1.77-5,7.5,7.5,0,0,1,1.75-5.16,5.85,5.85,0,0,1,4.58-2,5.5,5.5,0,0,1,4.32,1.81A6.9,6.9,0,0,1,169,68.51Zm-2.14-1.54a3.72,3.72,0,0,0-4-3.75,3.86,3.86,0,0,0-2.75,1,4.14,4.14,0,0,0-1.28,2.72Z"/><path d="M172.71,75.35V52.65h1.71V64.37a5.4,5.4,0,0,1,1.94-1.87,5.54,5.54,0,0,1,2.65-.62,4.27,4.27,0,0,1,4.67,4.66v8.81h-1.83v-8a4.35,4.35,0,0,0-.81-2.89,3.16,3.16,0,0,0-2.52-1,3.65,3.65,0,0,0-3,1.23,6.12,6.12,0,0,0-1,3.84v6.78Z"/><path d="M199.5,68.91H189.17a6.31,6.31,0,0,0,1.26,4,3.91,3.91,0,0,0,3.18,1.44,4.19,4.19,0,0,0,2.52-.78,5.73,5.73,0,0,0,1.8-2.34l1.66.91A7.25,7.25,0,0,1,197.15,75a6.39,6.39,0,0,1-3.54.93A6,6,0,0,1,189,74a7.07,7.07,0,0,1-1.77-5A7.5,7.5,0,0,1,189,63.84a5.85,5.85,0,0,1,4.58-2,5.5,5.5,0,0,1,4.32,1.81,6.9,6.9,0,0,1,1.63,4.82Zm-2.14-1.54a3.71,3.71,0,0,0-4-3.75,3.86,3.86,0,0,0-2.75,1,4.14,4.14,0,0,0-1.28,2.72Z"/><path d="M203.25,75.35v-13H205v2a5.4,5.4,0,0,1,1.94-1.87,5.54,5.54,0,0,1,2.65-.62,4.27,4.27,0,0,1,4.67,4.66v8.81h-1.83v-8a4.35,4.35,0,0,0-.81-2.89,3.14,3.14,0,0,0-2.51-1,3.64,3.64,0,0,0-3,1.23,6.12,6.12,0,0,0-1,3.84v6.78Z"/><path d="M217.4,73l1.71-1a3.42,3.42,0,0,0,1.24,1.63,3.36,3.36,0,0,0,2,.55,2.69,2.69,0,0,0,1.82-.58,1.92,1.92,0,0,0,.67-1.54c0-1-.88-1.84-2.65-2.54l-.44-.17a8.27,8.27,0,0,1-2.87-1.66,3,3,0,0,1-.82-2.12,3.5,3.5,0,0,1,1.17-2.72,4.32,4.32,0,0,1,3-1.06,5,5,0,0,1,2.7.69,4,4,0,0,1,1.63,2l-1.66.92a2.64,2.64,0,0,0-1-1.4,3,3,0,0,0-1.76-.49,2.26,2.26,0,0,0-1.55.55,1.81,1.81,0,0,0-.61,1.37,1.72,1.72,0,0,0,.6,1.34,8.3,8.3,0,0,0,2.5,1.15,6.66,6.66,0,0,1,2.87,1.63,3.6,3.6,0,0,1,.74,2.43,3.55,3.55,0,0,1-1.27,2.86A5.18,5.18,0,0,1,222,75.93a5.27,5.27,0,0,1-2.85-.76A4.23,4.23,0,0,1,217.4,73Z"/><path d="M230,57.29a1.38,1.38,0,0,1,1.39-1.37,1.37,1.37,0,0,1,1,.4,1.3,1.3,0,0,1,.42,1,1.31,1.31,0,0,1-.41,1,1.44,1.44,0,0,1-2,0A1.3,1.3,0,0,1,230,57.29Zm.45,18.06v-13h1.86v13Z"/><path d="M243.14,75.93a6.79,6.79,0,0,1-2.67-.55,7.43,7.43,0,0,1-2.31-1.58,6.56,6.56,0,0,1-1.5-2.22,7.13,7.13,0,0,1-.51-2.7,7,7,0,0,1,.53-2.7,7,7,0,0,1,6.46-4.3,7.15,7.15,0,0,1,5,2,6.95,6.95,0,0,1,1.55,7.62,6.73,6.73,0,0,1-1.52,2.25,7.33,7.33,0,0,1-2.34,1.58A7.08,7.08,0,0,1,243.14,75.93Zm.06-1.69a4.83,4.83,0,0,0,3.62-1.54,5.6,5.6,0,0,0,0-7.6,5,5,0,0,0-7.25,0,5.62,5.62,0,0,0,0,7.6A4.8,4.8,0,0,0,243.2,74.24Zm-1.95-14,3.12-5.13h2.4l-4.14,5.13Z"/><path d="M254,75.35v-13h1.71v2a5.4,5.4,0,0,1,1.94-1.87,5.54,5.54,0,0,1,2.65-.62A4.27,4.27,0,0,1,265,66.54v8.81h-1.83v-8a4.35,4.35,0,0,0-.81-2.89,3.16,3.16,0,0,0-2.52-1,3.65,3.65,0,0,0-3,1.23,6.12,6.12,0,0,0-1,3.84v6.78Z"/><path d="M270,74.12a1.44,1.44,0,0,1,.44-1.06,1.42,1.42,0,0,1,1.06-.43A1.47,1.47,0,0,1,273,74.12a1.46,1.46,0,0,1-.43,1.07,1.47,1.47,0,0,1-1.06.43,1.49,1.49,0,0,1-1.5-1.5Z"/></svg>