<svg id="fondos" xmlns="http://www.w3.org/2000/svg" viewBox="0 0 838.12 100.16"><defs><style>.cls-1{fill:#e6e6e6;}</style></defs><title>polfa2</title><rect class="cls-1" width="838.12" height="100.16"/><path d="M57.86,53.27l1.67-.9a4.73,4.73,0,0,0,1.62,2.46,4.46,4.46,0,0,0,2.76.87,4.18,4.18,0,0,0,3.18-1.2,4.66,4.66,0,0,0,1.15-3.33,4.22,4.22,0,0,0-.77-2.58,10.67,10.67,0,0,0-3.31-2.37,14.74,14.74,0,0,1-4.3-3,4.74,4.74,0,0,1-1.07-3.13,4.82,4.82,0,0,1,1.54-3.72,5.65,5.65,0,0,1,4-1.44,5.58,5.58,0,0,1,2.8.68,5.15,5.15,0,0,1,2,2l-1.51.9a3.33,3.33,0,0,0-1.33-1.4,4,4,0,0,0-2-.49,3.21,3.21,0,0,0-3.45,3.45q0,2.25,3.72,4.2l1,.54a10.78,10.78,0,0,1,3.66,2.85,6,6,0,0,1,.93,3.48,6.23,6.23,0,0,1-1.69,4.58,6.91,6.91,0,0,1-8.19.64A6.83,6.83,0,0,1,57.86,53.27Z"/><path d="M85.35,50.42H75a6.37,6.37,0,0,0,1.26,4,3.9,3.9,0,0,0,3.18,1.43A4.23,4.23,0,0,0,82,55a5.77,5.77,0,0,0,1.8-2.35l1.65.91A7.09,7.09,0,0,1,83,56.51a6.38,6.38,0,0,1-3.53.93,6,6,0,0,1-4.62-1.91,7.11,7.11,0,0,1-1.77-5,7.45,7.45,0,0,1,1.75-5.16,5.87,5.87,0,0,1,4.58-2,5.55,5.55,0,0,1,4.32,1.81A7,7,0,0,1,85.35,50Zm-2.14-1.53a3.72,3.72,0,0,0-4-3.75,3.88,3.88,0,0,0-2.74,1,4.1,4.1,0,0,0-1.28,2.73Z"/><path d="M97.74,63.4V43.88h1.74v2.43a5.55,5.55,0,0,1,2-2.16,4.9,4.9,0,0,1,2.69-.76,5.56,5.56,0,0,1,4.42,1.93,7.47,7.47,0,0,1,1.68,5.1,7.61,7.61,0,0,1-1.64,5.11,5.49,5.49,0,0,1-4.37,1.91,5.05,5.05,0,0,1-2.77-.76,5.59,5.59,0,0,1-2-2.21V63.4Zm10.53-12.95a6.16,6.16,0,0,0-1.15-4A3.83,3.83,0,0,0,104,45.05a4,4,0,0,0-3.26,1.4,5.74,5.74,0,0,0-1.18,3.84,5.91,5.91,0,0,0,1.27,4,4.18,4.18,0,0,0,3.34,1.49,3.67,3.67,0,0,0,3.06-1.4A6.23,6.23,0,0,0,108.27,50.45Z"/><path d="M115.77,46.48a7.79,7.79,0,0,1,2-2.38,3.64,3.64,0,0,1,2.23-.71,4.11,4.11,0,0,1,.77.08,4.37,4.37,0,0,1,.77.2l-.59,1.7a5.44,5.44,0,0,0-.61-.15,3.21,3.21,0,0,0-.6-.06,3.39,3.39,0,0,0-2.78,1.53,6.08,6.08,0,0,0-1.15,3.79v6.39H114v-13h1.8Z"/><path d="M129.32,57.44a6.62,6.62,0,0,1-2.67-.55,7.57,7.57,0,0,1-2.31-1.57,6.52,6.52,0,0,1-1.49-2.23,7.18,7.18,0,0,1,0-5.39,6.85,6.85,0,0,1,1.51-2.26,7,7,0,0,1,4.95-2,7.18,7.18,0,0,1,2.73.53,7.08,7.08,0,0,1,2.31,1.52,6.92,6.92,0,0,1,1.54,2.27,6.83,6.83,0,0,1,.54,2.68,6.87,6.87,0,0,1-2.05,4.93,7.35,7.35,0,0,1-2.34,1.57A6.9,6.9,0,0,1,129.32,57.44Zm.06-1.68A4.84,4.84,0,0,0,133,54.21a5.6,5.6,0,0,0,0-7.6,5.06,5.06,0,0,0-7.25,0,5.62,5.62,0,0,0,0,7.6A4.82,4.82,0,0,0,129.38,55.76Z"/><path d="M150.27,46.25a7,7,0,0,0-1.94-1,7.09,7.09,0,0,0-2.11-.31,5,5,0,0,0-3.85,1.54,5.82,5.82,0,0,0-1.43,4.13,5.07,5.07,0,0,0,1.48,3.76,5.15,5.15,0,0,0,3.8,1.48,6.62,6.62,0,0,0,2.13-.36,8.42,8.42,0,0,0,2.12-1.1v2a7.54,7.54,0,0,1-2.11.82,10.81,10.81,0,0,1-2.47.27,6.49,6.49,0,0,1-4.88-2,6.86,6.86,0,0,1-1.91-5,6.82,6.82,0,0,1,7.15-7.15,10.41,10.41,0,0,1,2.21.23,7.38,7.38,0,0,1,1.84.65Z"/><path d="M165,50.42H154.68a6.25,6.25,0,0,0,1.26,4,3.89,3.89,0,0,0,3.17,1.43,4.18,4.18,0,0,0,2.52-.77,5.7,5.7,0,0,0,1.81-2.35l1.65.91a7.17,7.17,0,0,1-2.44,2.91,6.39,6.39,0,0,1-3.54.93,6,6,0,0,1-4.62-1.91,7.15,7.15,0,0,1-1.76-5,7.45,7.45,0,0,1,1.75-5.16,5.86,5.86,0,0,1,4.58-2,5.56,5.56,0,0,1,4.32,1.81A7,7,0,0,1,165,50Zm-2.14-1.53a4,4,0,0,0-1.18-2.77,4,4,0,0,0-2.86-1,3.88,3.88,0,0,0-2.74,1,4.15,4.15,0,0,0-1.29,2.73Z"/><path d="M178.38,56.87V54.5a4.68,4.68,0,0,1-4.53,2.94,5.72,5.72,0,0,1-4.5-1.92,7.34,7.34,0,0,1-1.71-5.07,7.58,7.58,0,0,1,1.68-5.09,5.49,5.49,0,0,1,4.36-2,5.29,5.29,0,0,1,2.84.73,4.75,4.75,0,0,1,1.86,2.13V34.16h1.83V56.87Zm-8.73-6.36a5.89,5.89,0,0,0,1.13,3.88A4,4,0,0,0,174,55.76a3.86,3.86,0,0,0,3.2-1.49,6.41,6.41,0,0,0,1.18-4.1,5.63,5.63,0,0,0-1.16-3.75,4.35,4.35,0,0,0-6.42.09A6.15,6.15,0,0,0,169.65,50.51Z"/><path d="M196.15,50.42H185.82a6.37,6.37,0,0,0,1.26,4,3.9,3.9,0,0,0,3.18,1.43,4.23,4.23,0,0,0,2.52-.77,5.77,5.77,0,0,0,1.8-2.35l1.65.91a7.09,7.09,0,0,1-2.44,2.91,6.38,6.38,0,0,1-3.53.93,6,6,0,0,1-4.62-1.91,7.11,7.11,0,0,1-1.77-5,7.45,7.45,0,0,1,1.75-5.16,5.87,5.87,0,0,1,4.58-2,5.53,5.53,0,0,1,4.32,1.81A7,7,0,0,1,196.15,50ZM194,48.89a3.72,3.72,0,0,0-4-3.75,3.88,3.88,0,0,0-2.74,1,4.1,4.1,0,0,0-1.28,2.73Z"/><path d="M218.13,56.87V54.5a4.75,4.75,0,0,1-4.55,2.94,5.74,5.74,0,0,1-4.51-1.92,7.33,7.33,0,0,1-1.7-5.07,7.58,7.58,0,0,1,1.68-5.09,5.87,5.87,0,0,1,7.22-1.24,4.75,4.75,0,0,1,1.86,2.13V43.88h1.8v13Zm-8.76-6.36a5.89,5.89,0,0,0,1.14,3.88,4,4,0,0,0,3.24,1.37A3.89,3.89,0,0,0,217,54.27a6.41,6.41,0,0,0,1.18-4.1A5.58,5.58,0,0,0,217,46.42a4,4,0,0,0-3.21-1.37,3.92,3.92,0,0,0-3.22,1.46A6.15,6.15,0,0,0,209.37,50.51Z"/><path d="M233.41,63.4V43.88h1.74v2.43a5.55,5.55,0,0,1,1.95-2.16,4.91,4.91,0,0,1,2.7-.76,5.54,5.54,0,0,1,4.41,1.93,7.47,7.47,0,0,1,1.68,5.1,7.56,7.56,0,0,1-1.64,5.11,5.47,5.47,0,0,1-4.36,1.91,5,5,0,0,1-2.77-.76,5.61,5.61,0,0,1-2-2.21V63.4Zm10.53-12.95a6.16,6.16,0,0,0-1.15-4,3.82,3.82,0,0,0-3.17-1.44,4,4,0,0,0-3.26,1.4,5.8,5.8,0,0,0-1.18,3.84,6,6,0,0,0,1.27,4,4.2,4.2,0,0,0,3.35,1.49,3.65,3.65,0,0,0,3-1.4A6.23,6.23,0,0,0,243.94,50.45Z"/><path d="M260.8,50.42H250.48a6.37,6.37,0,0,0,1.26,4,3.9,3.9,0,0,0,3.18,1.43,4.17,4.17,0,0,0,2.51-.77,5.7,5.7,0,0,0,1.81-2.35l1.65.91a7.17,7.17,0,0,1-2.44,2.91,6.38,6.38,0,0,1-3.53.93,6,6,0,0,1-4.63-1.91,7.15,7.15,0,0,1-1.76-5,7.45,7.45,0,0,1,1.75-5.16,5.87,5.87,0,0,1,4.58-2,5.56,5.56,0,0,1,4.32,1.81A7,7,0,0,1,260.8,50Zm-2.13-1.53a3.72,3.72,0,0,0-4.05-3.75,3.88,3.88,0,0,0-2.74,1,4.15,4.15,0,0,0-1.29,2.73Z"/><path d="M274.18,56.87V54.5a4.68,4.68,0,0,1-4.53,2.94,5.72,5.72,0,0,1-4.5-1.92,7.34,7.34,0,0,1-1.71-5.07,7.54,7.54,0,0,1,1.69-5.09,5.46,5.46,0,0,1,4.35-2,5.35,5.35,0,0,1,2.85.73,4.79,4.79,0,0,1,1.85,2.13V34.16H276V56.87Zm-8.73-6.36a5.94,5.94,0,0,0,1.13,3.88,4,4,0,0,0,3.25,1.37A3.89,3.89,0,0,0,273,54.27a6.47,6.47,0,0,0,1.17-4.1,5.63,5.63,0,0,0-1.16-3.75,4.35,4.35,0,0,0-6.42.09A6.15,6.15,0,0,0,265.45,50.51Z"/><path d="M280.45,38.81a1.31,1.31,0,0,1,.41-1,1.34,1.34,0,0,1,1-.4,1.37,1.37,0,0,1,1,.4,1.36,1.36,0,0,1,0,2,1.46,1.46,0,0,1-2,0A1.32,1.32,0,0,1,280.45,38.81Zm.45,18.06v-13h1.86v13Z"/><path d="M289.49,46.48a7.78,7.78,0,0,1,1.95-2.38,3.69,3.69,0,0,1,2.24-.71,4,4,0,0,1,.76.08,4.15,4.15,0,0,1,.77.2l-.58,1.7a6,6,0,0,0-.61-.15,3.23,3.23,0,0,0-.61-.06,3.38,3.38,0,0,0-2.77,1.53,6.08,6.08,0,0,0-1.15,3.79v6.39h-1.81v-13h1.81Z"/><path d="M307.75,56.87h-1.86V34.16h1.86Z"/><path d="M322.27,56.87V54.5a4.75,4.75,0,0,1-4.56,2.94,5.74,5.74,0,0,1-4.5-1.92,7.34,7.34,0,0,1-1.71-5.07,7.54,7.54,0,0,1,1.69-5.09,5.46,5.46,0,0,1,4.35-2,5.38,5.38,0,0,1,2.86.73,4.71,4.71,0,0,1,1.87,2.13V43.88h1.8v13Zm-8.76-6.36a5.94,5.94,0,0,0,1.13,3.88,4,4,0,0,0,3.25,1.37,3.91,3.91,0,0,0,3.23-1.49,6.47,6.47,0,0,0,1.18-4.1,5.58,5.58,0,0,0-1.17-3.75,4,4,0,0,0-3.21-1.37,3.9,3.9,0,0,0-3.22,1.46A6.1,6.1,0,0,0,313.51,50.51Z"/><path d="M327.43,54.55l1.71-1a3.38,3.38,0,0,0,1.23,1.64,3.49,3.49,0,0,0,2,.55,2.71,2.71,0,0,0,1.81-.58,1.94,1.94,0,0,0,.68-1.55c0-1-.89-1.84-2.65-2.53l-.44-.18a8.18,8.18,0,0,1-2.87-1.66,2.94,2.94,0,0,1-.82-2.12,3.48,3.48,0,0,1,1.17-2.71,4.33,4.33,0,0,1,3-1.07,5,5,0,0,1,2.69.69,3.94,3.94,0,0,1,1.63,2l-1.65.93a2.64,2.64,0,0,0-1-1.41,3.09,3.09,0,0,0-1.76-.48,2.19,2.19,0,0,0-1.54.55A1.74,1.74,0,0,0,330,47a1.7,1.7,0,0,0,.6,1.33,8,8,0,0,0,2.49,1.16A6.71,6.71,0,0,1,336,51.08a3.69,3.69,0,0,1,.74,2.43,3.53,3.53,0,0,1-1.28,2.86,5.87,5.87,0,0,1-6.27.31A4.18,4.18,0,0,1,327.43,54.55Z"/><path d="M358.63,56.87V54.5a4.71,4.71,0,0,1-4.53,2.94,5.71,5.71,0,0,1-4.5-1.92,7.34,7.34,0,0,1-1.71-5.07,7.58,7.58,0,0,1,1.68-5.09,5.49,5.49,0,0,1,4.35-2,5.3,5.3,0,0,1,2.85.73,4.75,4.75,0,0,1,1.86,2.13V34.16h1.83V56.87Zm-8.73-6.36A5.89,5.89,0,0,0,351,54.39a4,4,0,0,0,3.25,1.37,3.86,3.86,0,0,0,3.2-1.49,6.41,6.41,0,0,0,1.18-4.1,5.63,5.63,0,0,0-1.16-3.75,4.35,4.35,0,0,0-6.42.09A6.15,6.15,0,0,0,349.9,50.51Z"/><path d="M376.39,50.42H366.07a6.37,6.37,0,0,0,1.26,4,3.9,3.9,0,0,0,3.18,1.43A4.23,4.23,0,0,0,373,55a5.77,5.77,0,0,0,1.8-2.35l1.65.91A7.09,7.09,0,0,1,374,56.51a6.38,6.38,0,0,1-3.53.93,6,6,0,0,1-4.62-1.91,7.11,7.11,0,0,1-1.77-5,7.45,7.45,0,0,1,1.75-5.16,5.87,5.87,0,0,1,4.58-2,5.56,5.56,0,0,1,4.32,1.81A7,7,0,0,1,376.39,50Zm-2.13-1.53a3.72,3.72,0,0,0-4.05-3.75,3.88,3.88,0,0,0-2.74,1,4.15,4.15,0,0,0-1.29,2.73Z"/><path d="M390.25,46.25a6.94,6.94,0,0,0-1.93-1,7.14,7.14,0,0,0-2.11-.31,5,5,0,0,0-3.85,1.54,5.82,5.82,0,0,0-1.44,4.13,5.08,5.08,0,0,0,1.49,3.76,5.15,5.15,0,0,0,3.8,1.48,6.71,6.71,0,0,0,2.13-.36,8.59,8.59,0,0,0,2.12-1.1v2a7.66,7.66,0,0,1-2.11.82,10.9,10.9,0,0,1-2.48.27,6.5,6.5,0,0,1-4.88-2,6.86,6.86,0,0,1-1.9-5,6.81,6.81,0,0,1,7.15-7.15,10.31,10.31,0,0,1,2.2.23,7.38,7.38,0,0,1,1.84.65Z"/><path d="M395.8,56.87h-1.86V34.16h1.86Z"/><path d="M410.32,56.87V54.5a4.75,4.75,0,0,1-4.55,2.94,5.74,5.74,0,0,1-4.51-1.92,7.34,7.34,0,0,1-1.71-5.07,7.59,7.59,0,0,1,1.69-5.09,5.46,5.46,0,0,1,4.35-2,5.38,5.38,0,0,1,2.86.73,4.71,4.71,0,0,1,1.87,2.13V43.88h1.8v13Zm-8.76-6.36a5.89,5.89,0,0,0,1.14,3.88,4,4,0,0,0,3.24,1.37,3.91,3.91,0,0,0,3.23-1.49,6.41,6.41,0,0,0,1.18-4.1,5.58,5.58,0,0,0-1.17-3.75A4,4,0,0,0,406,45.05a3.9,3.9,0,0,0-3.22,1.46A6.15,6.15,0,0,0,401.56,50.51Z"/><path d="M418.76,46.48a7.78,7.78,0,0,1,1.95-2.38,3.69,3.69,0,0,1,2.24-.71,4.11,4.11,0,0,1,.77.08,4.6,4.6,0,0,1,.77.2l-.59,1.7a6,6,0,0,0-.61-.15,3.23,3.23,0,0,0-.61-.06,3.38,3.38,0,0,0-2.77,1.53,6.08,6.08,0,0,0-1.15,3.79v6.39H417v-13h1.8Z"/><path d="M436,56.87V54.5a4.75,4.75,0,0,1-4.56,2.94,5.74,5.74,0,0,1-4.5-1.92,7.34,7.34,0,0,1-1.71-5.07,7.54,7.54,0,0,1,1.69-5.09,5.46,5.46,0,0,1,4.35-2,5.38,5.38,0,0,1,2.86.73A4.71,4.71,0,0,1,436,46.25V43.88h1.8v13Zm-8.76-6.36a5.89,5.89,0,0,0,1.14,3.88,4,4,0,0,0,3.24,1.37,3.91,3.91,0,0,0,3.23-1.49,6.41,6.41,0,0,0,1.18-4.1,5.58,5.58,0,0,0-1.17-3.75,4,4,0,0,0-3.21-1.37,3.9,3.9,0,0,0-3.22,1.46A6.15,6.15,0,0,0,427.24,50.51Z"/><path d="M452.74,46.25a6.94,6.94,0,0,0-1.93-1A7.14,7.14,0,0,0,448.7,45a5,5,0,0,0-3.85,1.54,5.82,5.82,0,0,0-1.44,4.13,5.08,5.08,0,0,0,1.49,3.76,5.15,5.15,0,0,0,3.8,1.48,6.71,6.71,0,0,0,2.13-.36,8.59,8.59,0,0,0,2.12-1.1v2a7.66,7.66,0,0,1-2.11.82,10.9,10.9,0,0,1-2.48.27,6.5,6.5,0,0,1-4.88-2,6.9,6.9,0,0,1-1.9-5,6.81,6.81,0,0,1,7.15-7.15,10.31,10.31,0,0,1,2.2.23,7.38,7.38,0,0,1,1.84.65Z"/><path d="M456,38.81a1.38,1.38,0,0,1,1.39-1.38,1.37,1.37,0,0,1,1,.4,1.32,1.32,0,0,1,.42,1,1.36,1.36,0,0,1-.4,1,1.4,1.4,0,0,1-1,.39,1.37,1.37,0,0,1-1-.39A1.32,1.32,0,0,1,456,38.81Zm.45,18.06v-13h1.86v13Z"/><path d="M469.12,57.44a6.62,6.62,0,0,1-2.67-.55,7.57,7.57,0,0,1-2.31-1.57,6.7,6.7,0,0,1-1.5-2.23,7.13,7.13,0,0,1-.51-2.7,7,7,0,0,1,.53-2.69,6.85,6.85,0,0,1,1.51-2.26,7,7,0,0,1,4.95-2,7.18,7.18,0,0,1,2.73.53,7.08,7.08,0,0,1,2.31,1.52,6.92,6.92,0,0,1,1.54,2.27,6.83,6.83,0,0,1,.54,2.68,6.87,6.87,0,0,1-2.05,4.93,7.47,7.47,0,0,1-2.34,1.57A6.9,6.9,0,0,1,469.12,57.44Zm.06-1.68a4.84,4.84,0,0,0,3.62-1.55,5.6,5.6,0,0,0,0-7.6,5.06,5.06,0,0,0-7.25,0,5.62,5.62,0,0,0,0,7.6A4.82,4.82,0,0,0,469.18,55.76Z"/><path d="M480,56.87v-13h1.71v2A5.29,5.29,0,0,1,483.61,44a5.44,5.44,0,0,1,2.65-.63,4.27,4.27,0,0,1,4.67,4.66v8.82H489.1v-8a4.38,4.38,0,0,0-.81-2.9,3.15,3.15,0,0,0-2.52-.94,3.68,3.68,0,0,0-3,1.22,6.24,6.24,0,0,0-1,3.85v6.78Z"/><path d="M506.75,50.42H496.42a6.37,6.37,0,0,0,1.26,4,3.9,3.9,0,0,0,3.18,1.43,4.18,4.18,0,0,0,2.52-.77,5.68,5.68,0,0,0,1.8-2.35l1.66.91a7.17,7.17,0,0,1-2.44,2.91,6.39,6.39,0,0,1-3.54.93,6,6,0,0,1-4.62-1.91,7.1,7.1,0,0,1-1.76-5,7.45,7.45,0,0,1,1.75-5.16,5.85,5.85,0,0,1,4.57-2,5.57,5.57,0,0,1,4.33,1.81A7,7,0,0,1,506.75,50Zm-2.14-1.53a3.71,3.71,0,0,0-4-3.75,3.92,3.92,0,0,0-2.75,1,4.19,4.19,0,0,0-1.28,2.73Z"/><path d="M509,54.55l1.72-1A3.38,3.38,0,0,0,512,55.21a3.44,3.44,0,0,0,2,.55,2.72,2.72,0,0,0,1.82-.58,1.94,1.94,0,0,0,.67-1.55c0-1-.88-1.84-2.65-2.53l-.44-.18a8.37,8.37,0,0,1-2.87-1.66,3,3,0,0,1-.82-2.12,3.48,3.48,0,0,1,1.17-2.71,4.36,4.36,0,0,1,3-1.07,5,5,0,0,1,2.69.69,4,4,0,0,1,1.63,2l-1.66.93a2.63,2.63,0,0,0-1-1.41,3.11,3.11,0,0,0-1.76-.48,2.21,2.21,0,0,0-1.55.55,1.77,1.77,0,0,0-.6,1.37,1.7,1.7,0,0,0,.6,1.33,8,8,0,0,0,2.49,1.16,6.66,6.66,0,0,1,2.87,1.62,3.64,3.64,0,0,1,.74,2.43A3.53,3.53,0,0,1,517,56.37a5.89,5.89,0,0,1-6.28.31A4.23,4.23,0,0,1,509,54.55Z"/><path d="M540.71,46.25a7,7,0,0,0-1.94-1,7.09,7.09,0,0,0-2.11-.31,5,5,0,0,0-3.85,1.54,5.82,5.82,0,0,0-1.43,4.13,5.07,5.07,0,0,0,1.48,3.76,5.15,5.15,0,0,0,3.8,1.48,6.62,6.62,0,0,0,2.13-.36,8.42,8.42,0,0,0,2.12-1.1v2a7.54,7.54,0,0,1-2.11.82,10.81,10.81,0,0,1-2.47.27,6.49,6.49,0,0,1-4.88-2,6.86,6.86,0,0,1-1.91-5,6.82,6.82,0,0,1,7.15-7.15,10.41,10.41,0,0,1,2.21.23,7.38,7.38,0,0,1,1.84.65Z"/><path d="M550.18,57.44a6.6,6.6,0,0,1-2.66-.55,7.74,7.74,0,0,1-2.32-1.57,6.67,6.67,0,0,1-1.49-2.23,7.13,7.13,0,0,1-.51-2.7,7,7,0,0,1,.52-2.69,7.17,7.17,0,0,1,1.51-2.26,7,7,0,0,1,4.95-2,7.26,7.26,0,0,1,2.74.53,7,7,0,0,1,2.3,1.52,6.89,6.89,0,0,1,0,9.88,7.31,7.31,0,0,1-2.33,1.57A7,7,0,0,1,550.18,57.44Zm.06-1.68a4.85,4.85,0,0,0,3.63-1.55,5.25,5.25,0,0,0,1.48-3.79,5.32,5.32,0,0,0-1.47-3.81,5.07,5.07,0,0,0-7.26,0,5.62,5.62,0,0,0,0,7.6A4.84,4.84,0,0,0,550.24,55.76Z"/><path d="M561,56.87v-13h1.72v2A5.21,5.21,0,0,1,564.68,44a5.4,5.4,0,0,1,2.64-.63A4.27,4.27,0,0,1,572,48.05v8.82h-1.84v-8a4.38,4.38,0,0,0-.81-2.9,3.13,3.13,0,0,0-2.51-.94,3.66,3.66,0,0,0-3,1.22,6.17,6.17,0,0,0-1,3.85v6.78Z"/><path d="M585.72,56.87V45.41h-2.43V43.88h2.43V40.13c0-2.61.25-4.3.73-5.08a2.92,2.92,0,0,1,2.68-1.16,4.67,4.67,0,0,1,.93.08,5.18,5.18,0,0,1,.82.22l-.34,1.58a4.1,4.1,0,0,0-.68-.26,2.31,2.31,0,0,0-.61-.09,1.42,1.42,0,0,0-1.35.76,6.72,6.72,0,0,0-.39,2.77v4.93h2.85v1.53h-2.85V56.87Z"/><path d="M602.65,56.87V54.5a4.72,4.72,0,0,1-4.55,2.94,5.71,5.71,0,0,1-4.5-1.92,7.34,7.34,0,0,1-1.71-5.07,7.58,7.58,0,0,1,1.68-5.09,5.49,5.49,0,0,1,4.35-2,5.42,5.42,0,0,1,2.87.73,4.69,4.69,0,0,1,1.86,2.13V43.88h1.81v13Zm-8.76-6.36A5.89,5.89,0,0,0,595,54.39a4,4,0,0,0,3.24,1.37,3.93,3.93,0,0,0,3.24-1.49,6.47,6.47,0,0,0,1.17-4.1,5.58,5.58,0,0,0-1.17-3.75,4,4,0,0,0-3.21-1.37,3.92,3.92,0,0,0-3.22,1.46A6.15,6.15,0,0,0,593.89,50.51Z"/><path d="M619.4,46.25a7,7,0,0,0-1.94-1,7.09,7.09,0,0,0-2.11-.31,5,5,0,0,0-3.85,1.54,5.86,5.86,0,0,0-1.43,4.13,5.07,5.07,0,0,0,1.48,3.76,5.15,5.15,0,0,0,3.8,1.48,6.72,6.72,0,0,0,2.14-.36,8.53,8.53,0,0,0,2.11-1.1v2a7.42,7.42,0,0,1-2.11.82,10.81,10.81,0,0,1-2.47.27,6.5,6.5,0,0,1-4.88-2,6.86,6.86,0,0,1-1.9-5,6.81,6.81,0,0,1,7.14-7.15,10.34,10.34,0,0,1,2.21.23,7.38,7.38,0,0,1,1.84.65Z"/><path d="M623.35,45.41H621V43.88h2.38V38.54h1.78v5.34h2.6v1.53h-2.6V56.87h-1.78Z"/><path d="M632.22,43.88v6.48a7.67,7.67,0,0,0,.84,4.18,3.92,3.92,0,0,0,5.7,0,7.44,7.44,0,0,0,.87-4.16V43.88h1.78v7.41A6.68,6.68,0,0,1,640,55.88a5.18,5.18,0,0,1-4.08,1.56,5.27,5.27,0,0,1-4.12-1.56,6.64,6.64,0,0,1-1.41-4.59V43.88Z"/><path d="M648,46.48a7.79,7.79,0,0,1,2-2.38,3.66,3.66,0,0,1,2.23-.71,4.11,4.11,0,0,1,.77.08,4.37,4.37,0,0,1,.77.2l-.59,1.7a5.84,5.84,0,0,0-.6-.15,3.27,3.27,0,0,0-3.39,1.47A6.08,6.08,0,0,0,648,50.48v6.39h-1.8v-13H648Z"/><path d="M665.26,56.87V54.5a4.75,4.75,0,0,1-4.55,2.94,5.74,5.74,0,0,1-4.51-1.92,7.33,7.33,0,0,1-1.7-5.07,7.58,7.58,0,0,1,1.68-5.09,5.46,5.46,0,0,1,4.35-2,5.38,5.38,0,0,1,2.86.73,4.71,4.71,0,0,1,1.87,2.13V43.88h1.8v13Zm-8.76-6.36a5.89,5.89,0,0,0,1.14,3.88,4,4,0,0,0,3.24,1.37,3.89,3.89,0,0,0,3.23-1.49,6.41,6.41,0,0,0,1.18-4.1,5.58,5.58,0,0,0-1.17-3.75,4,4,0,0,0-3.21-1.37,3.9,3.9,0,0,0-3.22,1.46A6.15,6.15,0,0,0,656.5,50.51Z"/><path d="M670.42,54.55l1.71-1a3.18,3.18,0,0,0,3.21,2.19,2.74,2.74,0,0,0,1.82-.58,1.94,1.94,0,0,0,.67-1.55c0-1-.88-1.84-2.65-2.53l-.44-.18a8.27,8.27,0,0,1-2.87-1.66,2.94,2.94,0,0,1-.82-2.12,3.48,3.48,0,0,1,1.17-2.71,4.33,4.33,0,0,1,3-1.07,5,5,0,0,1,2.7.69,4,4,0,0,1,1.62,2l-1.65.93a2.64,2.64,0,0,0-1-1.41,3.08,3.08,0,0,0-1.75-.48,2.19,2.19,0,0,0-1.55.55A1.74,1.74,0,0,0,673,47a1.7,1.7,0,0,0,.6,1.33,8,8,0,0,0,2.49,1.16A6.65,6.65,0,0,1,679,51.08a3.69,3.69,0,0,1,.74,2.43,3.53,3.53,0,0,1-1.27,2.86,5.89,5.89,0,0,1-6.28.31A4.18,4.18,0,0,1,670.42,54.55Z"/><path d="M683.78,55.64a1.42,1.42,0,0,1,.43-1.06,1.44,1.44,0,0,1,1.06-.44,1.5,1.5,0,0,1,1.5,1.5,1.44,1.44,0,0,1-.44,1.06,1.42,1.42,0,0,1-1.06.43,1.47,1.47,0,0,1-1.49-1.49Z"/></svg>