<svg xmlns="http://www.w3.org/2000/svg" viewBox="0 0 340.51 320.4"><defs><style>.cls-1{isolation:isolate;}.cls-2{fill:#fff;}.cls-3{fill:#d31c25;}.cls-4{fill:#4d4d4d;}.cls-5{fill:gray;}.cls-6{fill:none;stroke:#666;stroke-miterlimit:10;stroke-width:2px;}.cls-7{fill:#ff4335;}.cls-8{fill:#9e151c;}.cls-9{fill:#301404;opacity:0.25;mix-blend-mode:multiply;}</style></defs><title>polfa</title><g class="cls-1"><g id="Capa_2" data-name="Capa 2"><g id="ALERTAS"><path class="cls-2" d="M327.43,0H13.08A13.07,13.07,0,0,0,0,13.08v98.08a13.07,13.07,0,0,0,13.08,13.08h130l26.57,46,26.56-46H327.43a13.07,13.07,0,0,0,13.08-13.08V13.08A13.07,13.07,0,0,0,327.43,0Z"/><path class="cls-2" d="M22.78,9.65h99.11a1.54,1.54,0,0,1,1.54,1.54v99.56a1.54,1.54,0,0,1-1.54,1.54H22.78a5.84,5.84,0,0,1-5.84-5.84v-91A5.84,5.84,0,0,1,22.78,9.65Z"/><path class="cls-3" d="M125,9.65H317.73a5.84,5.84,0,0,1,5.84,5.84v91a5.84,5.84,0,0,1-5.84,5.84H125a1.54,1.54,0,0,1-1.54-1.54V11.18A1.54,1.54,0,0,1,125,9.65Z"/><ellipse class="cls-4" cx="72.47" cy="76.94" rx="28.72" ry="12.64"/><rect class="cls-4" x="43.76" y="72.95" width="57.43" height="3.95" rx="1.54"/><ellipse class="cls-5" cx="72.47" cy="72.49" rx="28.72" ry="12.64"/><ellipse class="cls-6" cx="72.47" cy="72.49" rx="26.75" ry="10.67"/><ellipse class="cls-3" cx="72.85" cy="73" rx="23.97" ry="7.18"/><path class="cls-3" d="M49.29,70.64l5.35-30.4a2,2,0,0,1,1.94-1.63H89.12a2,2,0,0,1,1.94,1.63l5.35,30.4A2,2,0,0,1,94.47,73H51.23A2,2,0,0,1,49.29,70.64Z"/><ellipse class="cls-3" cx="72.85" cy="38.65" rx="17.93" ry="7.18"/><path class="cls-7" d="M72.85,44.15a33.51,33.51,0,0,1-12-2c-2.59-1-4.2-2.38-4.2-3.52s1.61-2.48,4.2-3.51a33.51,33.51,0,0,1,12-2,33.51,33.51,0,0,1,12.05,2c2.59,1,4.2,2.38,4.2,3.51s-1.61,2.49-4.2,3.52A33.51,33.51,0,0,1,72.85,44.15Z"/><path class="cls-7" d="M55.12,46,50.8,71.61A1.85,1.85,0,0,0,51,72.87c.66,1.11,2.92,3,10.49,3.89a2,2,0,0,0,2.18-1.68l3.87-26a2,2,0,0,0-1.66-2.24,27.74,27.74,0,0,1-8-2.28A2,2,0,0,0,55.12,46Z"/><circle class="cls-8" cx="78.96" cy="73.62" r="2.86"/><path class="cls-8" d="M75.23,50.07l.88,15.11a2.9,2.9,0,0,0,2.72,2.94,2.85,2.85,0,0,0,3-2.85l.88-15.2a1.28,1.28,0,0,0-1.28-1.29H76.51A1.28,1.28,0,0,0,75.23,50.07Z"/><circle class="cls-2" cx="80.54" cy="72.44" r="2.86"/><path class="cls-2" d="M76.8,48.89,77.68,64a2.91,2.91,0,0,0,2.73,2.94,2.84,2.84,0,0,0,3-2.85l.88-15.2A1.28,1.28,0,0,0,83,47.6H78.08A1.28,1.28,0,0,0,76.8,48.89Z"/><path class="cls-2" d="M148.76,32.67a2.71,2.71,0,0,1,.83-2,2.77,2.77,0,0,1,2-.83,2.81,2.81,0,1,1,0,5.62,2.79,2.79,0,0,1-2-.82A2.69,2.69,0,0,1,148.76,32.67Zm.48,5.33h4.69V55.22h-4.69Z"/><path class="cls-2" d="M158.47,54.58l9.19-24.17h5.91l9.33,24.17H177l-2-5.14H165.7L164,54.58Zm15.38-9.2-2.71-7.81c-.07-.23-.17-.62-.29-1.19s-.25-1.24-.38-2.06c-.15.78-.28,1.48-.42,2.11s-.23,1-.29,1.24l-2.61,7.71Z"/><path class="cls-2" d="M186.79,54.58V30.41H192V50.19h8.26v4.39Z"/><path class="cls-2" d="M204.82,54.58V30.41h14.23v4.36H210v5h9.06v4.39H210v6.06h9.06v4.39Z"/><path class="cls-2" d="M243,54.58h-6l-6.36-11.29V54.58h-5.17V30.41h7.4q4.41,0,6.6,1.71a6.09,6.09,0,0,1,2.2,5.14,6.37,6.37,0,0,1-1.5,4.26,5.89,5.89,0,0,1-3.88,2.06ZM230.64,40.71h.78c2.09,0,3.47-.23,4.14-.68a2.7,2.7,0,0,0,1-2.39,2.84,2.84,0,0,0-1.09-2.53,7.65,7.65,0,0,0-4.06-.76h-.78Z"/><path class="cls-2" d="M256.34,34.8V54.58h-5.18V34.8h-5.91V30.41h17V34.8Z"/><path class="cls-2" d="M262.27,54.58l9.19-24.17h5.91l9.33,24.17h-5.88l-2-5.14H269.5l-1.68,5.14Zm15.39-9.2L275,37.57a10.85,10.85,0,0,1-.3-1.19c-.12-.56-.25-1.24-.38-2.06-.14.78-.28,1.48-.41,2.11s-.23,1-.3,1.24L271,45.38Z"/><path class="cls-2" d="M290.73,52.38a2.7,2.7,0,0,1,.82-2,2.9,2.9,0,0,1,4,0,2.72,2.72,0,0,1,.81,2,2.78,2.78,0,0,1-.81,2,2.7,2.7,0,0,1-2,.82,2.85,2.85,0,0,1-2.84-2.84Zm.48-5.35V29.86h4.69V47Z"/><path class="cls-2" d="M148.63,93.07V68.9h5.94q4.76,0,7,1.81c1.52,1.21,2.27,3.08,2.27,5.61a7,7,0,0,1-2.28,5.52,9.33,9.33,0,0,1-6.33,2h-1.42v9.23Zm5.2-13.26h.74a4.43,4.43,0,0,0,3.07-.88,3.62,3.62,0,0,0,1-2.8,3.23,3.23,0,0,0-1-2.6,4.66,4.66,0,0,0-3.07-.82h-.74Z"/><path class="cls-2" d="M193.53,81a12.46,12.46,0,0,1-1,4.9A11.91,11.91,0,0,1,189.78,90a13.37,13.37,0,0,1-4.24,2.76,12.91,12.91,0,0,1-9.22.21,13.39,13.39,0,0,1-3.89-2.16,12.26,12.26,0,0,1-4.7-9.77,12.65,12.65,0,0,1,1-4.89,12,12,0,0,1,2.81-4.07,13,13,0,0,1,4.22-2.75,13.21,13.21,0,0,1,4.94-1,13.21,13.21,0,0,1,9.13,3.72,12.13,12.13,0,0,1,2.79,4.07A12.54,12.54,0,0,1,193.53,81ZM180.65,89.1a7.08,7.08,0,0,0,5.43-2.3,8.85,8.85,0,0,0,0-11.55,7,7,0,0,0-5.4-2.34,7.15,7.15,0,0,0-5.45,2.33,8.89,8.89,0,0,0,0,11.58A7.17,7.17,0,0,0,180.65,89.1Z"/><path class="cls-2" d="M199.24,93.07V68.9h5.17V88.67h8.25v4.4Z"/><path class="cls-2" d="M217.27,93.07V68.9H231.5v4.35h-9.06v5h9.06v4.4h-9.06V93.07Z"/><path class="cls-2" d="M233.38,93.07l9.2-24.17h5.91l9.32,24.17h-5.87l-2-5.14h-9.36l-1.68,5.14Zm15.39-9.2-2.71-7.81a11.51,11.51,0,0,1-.3-1.19c-.12-.56-.25-1.25-.38-2.06-.14.78-.28,1.48-.41,2.1s-.23,1-.3,1.25l-2.61,7.71Z"/><ellipse class="cls-9" cx="170.26" cy="297.27" rx="86.04" ry="23.13"/></g></g></g></svg>