<svg id="fondos" xmlns="http://www.w3.org/2000/svg" viewBox="0 0 838.12 100.16"><defs><style>.cls-1{fill:#e6e6e6;}</style></defs><title>polfa5</title><rect class="cls-1" width="838.12" height="100.16"/><path d="M63.31,41.38V21.76h-5.9V19.93H71.18v1.83H65.26V41.38Z"/><path d="M72.94,31a8,8,0,0,1,2-2.39,3.69,3.69,0,0,1,2.24-.7,4.08,4.08,0,0,1,.77.07,5.91,5.91,0,0,1,.77.21l-.59,1.7a6,6,0,0,0-.61-.15,3.23,3.23,0,0,0-.61-.06,3.38,3.38,0,0,0-2.77,1.53A6.08,6.08,0,0,0,72.94,35v6.39h-1.8v-13h1.8Z"/><path d="M90.18,41.38V39a4.74,4.74,0,0,1-4.56,3A5.74,5.74,0,0,1,81.12,40,7.34,7.34,0,0,1,79.41,35a7.52,7.52,0,0,1,1.69-5.09,5.88,5.88,0,0,1,7.21-1.25,4.79,4.79,0,0,1,1.87,2.14V28.38H92v13ZM81.42,35a5.89,5.89,0,0,0,1.14,3.88,4,4,0,0,0,3.24,1.36A3.9,3.9,0,0,0,89,38.78a6.49,6.49,0,0,0,1.18-4.1A5.62,5.62,0,0,0,89,30.92a4,4,0,0,0-3.21-1.37A3.93,3.93,0,0,0,82.61,31,6.13,6.13,0,0,0,81.42,35Z"/><path d="M95.34,39.06l1.71-1a3.35,3.35,0,0,0,1.23,1.63,3.42,3.42,0,0,0,2,.55,2.66,2.66,0,0,0,1.81-.58,1.92,1.92,0,0,0,.68-1.54c0-1-.89-1.84-2.65-2.54a3.15,3.15,0,0,1-.44-.17,8.18,8.18,0,0,1-2.87-1.66A3,3,0,0,1,96,31.65a3.52,3.52,0,0,1,1.17-2.72,4.32,4.32,0,0,1,3-1.06,5,5,0,0,1,2.69.69,3.94,3.94,0,0,1,1.63,2l-1.65.92a2.66,2.66,0,0,0-1-1.4,3.09,3.09,0,0,0-1.76-.49,2.23,2.23,0,0,0-1.54.55,1.77,1.77,0,0,0-.61,1.37,1.72,1.72,0,0,0,.6,1.34A8.09,8.09,0,0,0,101,34a6.71,6.71,0,0,1,2.88,1.63,3.69,3.69,0,0,1,.74,2.43,3.56,3.56,0,0,1-1.28,2.86,5.87,5.87,0,0,1-6.27.31A4.18,4.18,0,0,1,95.34,39.06Z"/><path d="M110.25,41.38h-1.86V18.67h1.86Z"/><path d="M124.76,41.38V39a4.74,4.74,0,0,1-4.55,3A5.74,5.74,0,0,1,115.7,40,7.38,7.38,0,0,1,114,35a7.56,7.56,0,0,1,1.68-5.09,5.89,5.89,0,0,1,7.22-1.25,4.83,4.83,0,0,1,1.86,2.14V28.38h1.81v13ZM116,35a5.89,5.89,0,0,0,1.14,3.88,4,4,0,0,0,3.24,1.36,3.88,3.88,0,0,0,3.23-1.48,6.43,6.43,0,0,0,1.18-4.1,5.62,5.62,0,0,0-1.17-3.76,4,4,0,0,0-3.21-1.37A4,4,0,0,0,117.19,31,6.18,6.18,0,0,0,116,35Z"/><path d="M141,41.38V39a4.67,4.67,0,0,1-4.52,3A5.74,5.74,0,0,1,132,40a7.33,7.33,0,0,1-1.7-5.07A7.56,7.56,0,0,1,132,29.87a5.86,5.86,0,0,1,7.2-1.25A4.81,4.81,0,0,1,141,30.76V18.67h1.83V41.38ZM132.29,35a5.89,5.89,0,0,0,1.14,3.88,4,4,0,0,0,3.24,1.36,3.86,3.86,0,0,0,3.21-1.48,6.49,6.49,0,0,0,1.17-4.1,5.67,5.67,0,0,0-1.15-3.76,4,4,0,0,0-3.2-1.37A4,4,0,0,0,133.48,31,6.18,6.18,0,0,0,132.29,35Z"/><path d="M157.22,41.38V39a4.86,4.86,0,0,1-1.8,2.19,4.92,4.92,0,0,1-2.75.76,5.71,5.71,0,0,1-4.5-1.92A7.34,7.34,0,0,1,146.46,35a7.56,7.56,0,0,1,1.68-5.09,5.89,5.89,0,0,1,7.22-1.25,4.77,4.77,0,0,1,1.86,2.14V28.38H159v13ZM148.47,35a5.89,5.89,0,0,0,1.13,3.88,4,4,0,0,0,3.25,1.36,3.91,3.91,0,0,0,3.23-1.48,6.49,6.49,0,0,0,1.17-4.1,5.62,5.62,0,0,0-1.17-3.76,4,4,0,0,0-3.21-1.37A4,4,0,0,0,149.65,31,6.18,6.18,0,0,0,148.47,35Z"/><path d="M165.66,31a8.13,8.13,0,0,1,2-2.39,3.66,3.66,0,0,1,2.23-.7,4,4,0,0,1,.77.07,5.16,5.16,0,0,1,.77.21l-.59,1.7a5.26,5.26,0,0,0-.6-.15,3.31,3.31,0,0,0-.61-.06,3.39,3.39,0,0,0-2.78,1.53A6.14,6.14,0,0,0,165.66,35v6.39h-1.8v-13h1.8Z"/><path d="M183.93,41.38h-1.86V18.67h1.86Z"/><path d="M198.45,41.38V39a4.74,4.74,0,0,1-4.56,3,5.71,5.71,0,0,1-4.5-1.92A7.34,7.34,0,0,1,187.68,35a7.56,7.56,0,0,1,1.68-5.09,5.89,5.89,0,0,1,7.22-1.25,4.85,4.85,0,0,1,1.87,2.14V28.38h1.8v13ZM189.69,35a5.89,5.89,0,0,0,1.13,3.88,4,4,0,0,0,3.25,1.36,3.91,3.91,0,0,0,3.23-1.48,6.49,6.49,0,0,0,1.17-4.1,5.62,5.62,0,0,0-1.17-3.76,4,4,0,0,0-3.2-1.37A4,4,0,0,0,190.87,31,6.18,6.18,0,0,0,189.69,35Z"/><path d="M215.53,41.38h-1.81v-13h1.81v2a4.7,4.7,0,0,1,1.69-1.88,4.61,4.61,0,0,1,2.44-.64,4.4,4.4,0,0,1,2.42.65,4.18,4.18,0,0,1,1.55,1.91,5,5,0,0,1,4.52-2.56,4.27,4.27,0,0,1,3.25,1.25,4.77,4.77,0,0,1,1.19,3.44v8.79h-1.8V33.3a4.51,4.51,0,0,0-.78-2.87,2.86,2.86,0,0,0-2.34-1,3.13,3.13,0,0,0-2.73,1.21,6.72,6.72,0,0,0-.87,3.85v6.85h-1.79V33.3a4.59,4.59,0,0,0-.75-2.91,2.79,2.79,0,0,0-2.31-.92,3.23,3.23,0,0,0-2.8,1.23,6.54,6.54,0,0,0-.89,3.83Z"/><path d="M248.56,34.93H238.23a6.37,6.37,0,0,0,1.26,4,3.93,3.93,0,0,0,3.18,1.43,4.19,4.19,0,0,0,2.52-.78A5.66,5.66,0,0,0,247,37.2l1.66.91A7.25,7.25,0,0,1,246.21,41a6.42,6.42,0,0,1-3.54.93A6,6,0,0,1,238.05,40a7.11,7.11,0,0,1-1.77-5A7.5,7.5,0,0,1,238,29.86a5.85,5.85,0,0,1,4.58-2,5.5,5.5,0,0,1,4.32,1.81,6.9,6.9,0,0,1,1.63,4.82Zm-2.14-1.54a3.72,3.72,0,0,0-4-3.75,3.86,3.86,0,0,0-2.75,1,4.14,4.14,0,0,0-1.28,2.72Z"/><path d="M254.11,31a8,8,0,0,1,2-2.39,3.64,3.64,0,0,1,2.23-.7,4.08,4.08,0,0,1,.77.07,5.51,5.51,0,0,1,.77.21l-.59,1.7a5.44,5.44,0,0,0-.61-.15,3.21,3.21,0,0,0-.6-.06,3.39,3.39,0,0,0-2.78,1.53A6.08,6.08,0,0,0,254.11,35v6.39h-1.8v-13h1.8Z"/><path d="M271.86,30.76a6.94,6.94,0,0,0-1.93-1,7.14,7.14,0,0,0-2.11-.31A5,5,0,0,0,264,31a5.81,5.81,0,0,0-1.44,4.12,5.08,5.08,0,0,0,5.29,5.25A6.46,6.46,0,0,0,270,40a8.1,8.1,0,0,0,2.12-1.1v2a8.35,8.35,0,0,1-2.11.82,11.49,11.49,0,0,1-2.48.27,6.52,6.52,0,0,1-4.87-2,6.86,6.86,0,0,1-1.91-5,6.81,6.81,0,0,1,7.15-7.15,10.41,10.41,0,0,1,2.21.23,6.93,6.93,0,0,1,1.83.65Z"/><path d="M285,41.38V39a4.74,4.74,0,0,1-4.55,3A5.74,5.74,0,0,1,276,40a7.33,7.33,0,0,1-1.7-5.07A7.56,7.56,0,0,1,276,29.87a5.88,5.88,0,0,1,7.21-1.25A4.79,4.79,0,0,1,285,30.76V28.38h1.8v13ZM276.27,35a5.89,5.89,0,0,0,1.14,3.88,4,4,0,0,0,3.24,1.36,3.88,3.88,0,0,0,3.23-1.48,6.43,6.43,0,0,0,1.18-4.1,5.62,5.62,0,0,0-1.17-3.76,4,4,0,0,0-3.21-1.37A3.93,3.93,0,0,0,277.46,31,6.18,6.18,0,0,0,276.27,35Z"/><path d="M291.67,41.38v-13h1.71v2a5.4,5.4,0,0,1,1.94-1.87A5.54,5.54,0,0,1,298,27.9a4.27,4.27,0,0,1,4.67,4.66v8.82h-1.83v-8a4.35,4.35,0,0,0-.81-2.89,3.15,3.15,0,0,0-2.52-.94,3.65,3.65,0,0,0-3,1.22,6.14,6.14,0,0,0-1,3.84v6.79Z"/><path d="M317.41,30.76a7,7,0,0,0-1.94-1,7.09,7.09,0,0,0-2.11-.31A5,5,0,0,0,309.51,31a5.81,5.81,0,0,0-1.44,4.12,5.08,5.08,0,0,0,5.29,5.25,6.37,6.37,0,0,0,2.13-.37,8.1,8.1,0,0,0,2.12-1.1v2a8.2,8.2,0,0,1-2.11.82A11.47,11.47,0,0,1,313,42a6.52,6.52,0,0,1-4.88-2,6.86,6.86,0,0,1-1.91-5,6.81,6.81,0,0,1,7.15-7.15,10.41,10.41,0,0,1,2.21.23,6.93,6.93,0,0,1,1.83.65Z"/><path d="M320.09,26.29l3.12-5.13h2.4l-4.15,5.13Zm1,15.09v-13H323v13Z"/><path d="M337.47,41.38V39a4.74,4.74,0,0,1-4.55,3A5.74,5.74,0,0,1,328.41,40a7.38,7.38,0,0,1-1.7-5.07,7.56,7.56,0,0,1,1.68-5.09,5.89,5.89,0,0,1,7.22-1.25,4.83,4.83,0,0,1,1.86,2.14V28.38h1.81v13ZM328.71,35a5.89,5.89,0,0,0,1.14,3.88,4,4,0,0,0,3.24,1.36,3.88,3.88,0,0,0,3.23-1.48,6.43,6.43,0,0,0,1.18-4.1,5.62,5.62,0,0,0-1.17-3.76,4,4,0,0,0-3.21-1.37A4,4,0,0,0,329.9,31,6.18,6.18,0,0,0,328.71,35Z"/><path d="M362.35,41.38V39a5,5,0,0,1-1.81,2.19,4.89,4.89,0,0,1-2.75.76,5.72,5.72,0,0,1-4.5-1.92A7.34,7.34,0,0,1,351.58,35a7.52,7.52,0,0,1,1.69-5.09,5.88,5.88,0,0,1,7.21-1.25,4.79,4.79,0,0,1,1.87,2.14V28.38h1.8v13ZM353.59,35a5.94,5.94,0,0,0,1.13,3.88A4,4,0,0,0,358,40.26a3.91,3.91,0,0,0,3.23-1.48,6.49,6.49,0,0,0,1.18-4.1,5.57,5.57,0,0,0-1.18-3.76,4,4,0,0,0-3.2-1.37A4,4,0,0,0,354.77,31,6.18,6.18,0,0,0,353.59,35Z"/><path d="M379.43,28.38v6.49a7.69,7.69,0,0,0,.84,4.18,3.94,3.94,0,0,0,5.7,0,7.47,7.47,0,0,0,.87-4.16V28.38h1.79v7.41a6.7,6.7,0,0,1-1.4,4.6A5.18,5.18,0,0,1,383.15,42,5.27,5.27,0,0,1,379,40.39a6.65,6.65,0,0,1-1.4-4.6V28.38Z"/><path d="M393.43,41.38v-13h1.71v2a5.35,5.35,0,0,1,1.95-1.87,5.48,5.48,0,0,1,2.64-.62,4.27,4.27,0,0,1,4.67,4.66v8.82h-1.83v-8a4.35,4.35,0,0,0-.81-2.89,3.13,3.13,0,0,0-2.51-.94,3.63,3.63,0,0,0-3,1.22,6.14,6.14,0,0,0-1,3.84v6.79Z"/><path d="M419.51,31a8,8,0,0,1,1.95-2.39,3.68,3.68,0,0,1,2.23-.7,4,4,0,0,1,.77.07,5.16,5.16,0,0,1,.77.21l-.58,1.7a6,6,0,0,0-.61-.15,3.23,3.23,0,0,0-.61-.06,3.41,3.41,0,0,0-2.78,1.53A6.14,6.14,0,0,0,419.51,35v6.39H417.7v-13h1.81Z"/><path d="M438.31,34.93H428a6.37,6.37,0,0,0,1.26,4,3.93,3.93,0,0,0,3.18,1.43,4.18,4.18,0,0,0,2.51-.78,5.6,5.6,0,0,0,1.81-2.34l1.65.91A7.17,7.17,0,0,1,436,41a6.38,6.38,0,0,1-3.53.93A6,6,0,0,1,427.8,40,7.15,7.15,0,0,1,426,35a7.45,7.45,0,0,1,1.75-5.16,5.84,5.84,0,0,1,4.58-2,5.53,5.53,0,0,1,4.32,1.81,6.94,6.94,0,0,1,1.62,4.82Zm-2.13-1.54a3.72,3.72,0,0,0-4.05-3.75,3.84,3.84,0,0,0-2.74,1,4.15,4.15,0,0,0-1.29,2.72Z"/><path d="M452.17,30.76a6.94,6.94,0,0,0-1.93-1,7.19,7.19,0,0,0-2.11-.31A5,5,0,0,0,444.28,31a5.81,5.81,0,0,0-1.44,4.12,5.08,5.08,0,0,0,5.29,5.25,6.46,6.46,0,0,0,2.13-.37,8.26,8.26,0,0,0,2.12-1.1v2a8.35,8.35,0,0,1-2.11.82,11.49,11.49,0,0,1-2.48.27,6.54,6.54,0,0,1-4.88-2,6.86,6.86,0,0,1-1.9-5,6.79,6.79,0,0,1,7.15-7.15,10.31,10.31,0,0,1,2.2.23,7,7,0,0,1,1.84.65Z"/><path d="M455.41,23.31a1.38,1.38,0,0,1,1.39-1.37,1.37,1.37,0,0,1,1,.4,1.3,1.3,0,0,1,.42,1,1.35,1.35,0,0,1-.41,1,1.46,1.46,0,0,1-2,0A1.34,1.34,0,0,1,455.41,23.31Zm.45,18.07v-13h1.86v13Z"/><path d="M462.64,41.38v-13h1.72v2a5.32,5.32,0,0,1,1.94-1.87,5.53,5.53,0,0,1,2.64-.62,4.27,4.27,0,0,1,4.68,4.66v8.82h-1.83v-8a4.35,4.35,0,0,0-.82-2.89,3.13,3.13,0,0,0-2.51-.94,3.63,3.63,0,0,0-3,1.22,6.14,6.14,0,0,0-1,3.84v6.79Z"/><path d="M478.66,29.92h-2.39V28.38h2.39V23.05h1.77v5.33H483v1.54h-2.61V41.38h-1.77Z"/><path d="M491.62,42A6.79,6.79,0,0,1,489,41.4a7.43,7.43,0,0,1-2.31-1.58,6.56,6.56,0,0,1-1.5-2.22,7.13,7.13,0,0,1-.51-2.7,7,7,0,0,1,.53-2.69A6.75,6.75,0,0,1,486.67,30a6.92,6.92,0,0,1,2.27-1.52,6.78,6.78,0,0,1,2.68-.53,7,7,0,0,1,2.73.53A7.08,7.08,0,0,1,496.66,30a6.95,6.95,0,0,1,1.55,7.62,6.73,6.73,0,0,1-1.52,2.25,7.33,7.33,0,0,1-2.34,1.58A7.08,7.08,0,0,1,491.62,42Zm.06-1.69a4.83,4.83,0,0,0,3.62-1.54,5.6,5.6,0,0,0,0-7.6,5,5,0,0,0-7.25,0,5.62,5.62,0,0,0,0,7.6A4.82,4.82,0,0,0,491.68,40.26Z"/><path d="M520.7,41.38V39a5,5,0,0,1-1.81,2.19,4.89,4.89,0,0,1-2.75.76,5.72,5.72,0,0,1-4.5-1.92A7.34,7.34,0,0,1,509.93,35a7.56,7.56,0,0,1,1.68-5.09,5.89,5.89,0,0,1,7.22-1.25,4.79,4.79,0,0,1,1.87,2.14V28.38h1.8v13ZM511.94,35a5.89,5.89,0,0,0,1.13,3.88,4,4,0,0,0,3.25,1.36,3.91,3.91,0,0,0,3.23-1.48,6.49,6.49,0,0,0,1.18-4.1,5.57,5.57,0,0,0-1.18-3.76,4,4,0,0,0-3.2-1.37A4,4,0,0,0,513.12,31,6.18,6.18,0,0,0,511.94,35Z"/><path d="M529.13,28.38v6.49a7.59,7.59,0,0,0,.85,4.18,3.94,3.94,0,0,0,5.7,0,7.47,7.47,0,0,0,.87-4.16V28.38h1.78v7.41a6.69,6.69,0,0,1-1.39,4.6A5.2,5.2,0,0,1,532.85,42a5.26,5.26,0,0,1-4.11-1.56,6.65,6.65,0,0,1-1.41-4.6V28.38Z"/><path d="M543.52,29.92h-2.39V28.38h2.39V23.05h1.77v5.33h2.61v1.54h-2.61V41.38h-1.77Z"/><path d="M556.48,42a6.78,6.78,0,0,1-2.66-.55,7.59,7.59,0,0,1-2.32-1.58A6.53,6.53,0,0,1,550,37.6a7.13,7.13,0,0,1-.51-2.7,7,7,0,0,1,.52-2.69A6.9,6.9,0,0,1,551.53,30a7,7,0,0,1,2.27-1.52,6.82,6.82,0,0,1,2.68-.53,7.15,7.15,0,0,1,5,2.05,6.85,6.85,0,0,1,1.55,2.27,7,7,0,0,1,.53,2.68,6.7,6.7,0,0,1-.53,2.67,6.59,6.59,0,0,1-1.52,2.25A7.14,7.14,0,0,1,556.48,42Zm.06-1.69a4.84,4.84,0,0,0,3.63-1.54,5.62,5.62,0,0,0,0-7.6,5,5,0,0,0-7.25,0,5.62,5.62,0,0,0,0,7.6A4.83,4.83,0,0,0,556.54,40.26Z"/><path d="M569.12,31a8.13,8.13,0,0,1,2-2.39,3.66,3.66,0,0,1,2.23-.7,4,4,0,0,1,.77.07,5.16,5.16,0,0,1,.77.21l-.58,1.7a6,6,0,0,0-.61-.15,3.23,3.23,0,0,0-.61-.06,3.41,3.41,0,0,0-2.78,1.53A6.14,6.14,0,0,0,569.12,35v6.39h-1.8v-13h1.8Z"/><path d="M576.43,23.31a1.32,1.32,0,0,1,.41-1,1.36,1.36,0,0,1,1-.4,1.34,1.34,0,0,1,1,.4,1.3,1.3,0,0,1,.42,1,1.34,1.34,0,0,1-.4,1,1.38,1.38,0,0,1-1,.39,1.37,1.37,0,0,1-1.4-1.38Zm.46,18.07v-13h1.86v13Z"/><path d="M581.6,41.38,588.86,30H582.1V28.38H592l-7.2,11.37h7.4v1.63Z"/><path d="M604.69,41.38V39a4.74,4.74,0,0,1-4.55,3A5.74,5.74,0,0,1,595.63,40,7.34,7.34,0,0,1,593.92,35a7.57,7.57,0,0,1,1.69-5.09,5.88,5.88,0,0,1,7.21-1.25,4.79,4.79,0,0,1,1.87,2.14V28.38h1.8v13ZM595.93,35a5.89,5.89,0,0,0,1.14,3.88,4,4,0,0,0,3.24,1.36,3.9,3.9,0,0,0,3.23-1.48,6.43,6.43,0,0,0,1.18-4.1,5.62,5.62,0,0,0-1.17-3.76,4,4,0,0,0-3.21-1.37A3.93,3.93,0,0,0,597.12,31,6.18,6.18,0,0,0,595.93,35Z"/><path d="M621,41.38V39a4.67,4.67,0,0,1-4.53,3,5.74,5.74,0,0,1-4.5-1.92A7.34,7.34,0,0,1,610.21,35a7.52,7.52,0,0,1,1.69-5.09,5.86,5.86,0,0,1,7.2-1.25A4.87,4.87,0,0,1,621,30.76V18.67h1.83V41.38ZM612.22,35a5.89,5.89,0,0,0,1.14,3.88,4,4,0,0,0,3.24,1.36,3.86,3.86,0,0,0,3.21-1.48,6.49,6.49,0,0,0,1.17-4.1,5.67,5.67,0,0,0-1.16-3.76,4.34,4.34,0,0,0-6.41.09A6.18,6.18,0,0,0,612.22,35Z"/><path d="M633.46,42a6.79,6.79,0,0,1-2.67-.55,7.43,7.43,0,0,1-2.31-1.58A6.53,6.53,0,0,1,627,37.6a7.18,7.18,0,0,1,0-5.39A6.75,6.75,0,0,1,628.51,30a6.92,6.92,0,0,1,2.27-1.52,6.78,6.78,0,0,1,2.68-.53,7,7,0,0,1,7.12,7,6.88,6.88,0,0,1-.53,2.67,6.73,6.73,0,0,1-1.52,2.25A7.14,7.14,0,0,1,633.46,42Zm.06-1.69a4.83,4.83,0,0,0,3.62-1.54,5.6,5.6,0,0,0,0-7.6,5,5,0,0,0-7.25,0,5.62,5.62,0,0,0,0,7.6A4.82,4.82,0,0,0,633.52,40.26Z"/><path d="M59.24,79.51V60H61v2.43a5.69,5.69,0,0,1,2-2.16,5,5,0,0,1,2.7-.75A5.56,5.56,0,0,1,70,61.42a7.51,7.51,0,0,1,1.68,5.11,7.56,7.56,0,0,1-1.64,5.11,5.47,5.47,0,0,1-4.36,1.91A5.11,5.11,0,0,1,63,72.79a5.57,5.57,0,0,1-2-2.22v8.94Zm10.53-13a6.16,6.16,0,0,0-1.15-4,3.83,3.83,0,0,0-3.17-1.45,4.06,4.06,0,0,0-3.26,1.4A5.84,5.84,0,0,0,61,66.4a6,6,0,0,0,1.27,4,4.19,4.19,0,0,0,3.35,1.48,3.63,3.63,0,0,0,3.05-1.4A6.18,6.18,0,0,0,69.77,66.56Z"/><path d="M81.38,73.55A6.79,6.79,0,0,1,78.71,73a7.59,7.59,0,0,1-2.32-1.58A6.53,6.53,0,0,1,74.9,69.2a7.13,7.13,0,0,1-.51-2.7,6.8,6.8,0,0,1,.53-2.69,6.87,6.87,0,0,1,1.5-2.26A7.13,7.13,0,0,1,78.69,60a6.83,6.83,0,0,1,2.69-.53,7.11,7.11,0,0,1,5,2A6.85,6.85,0,0,1,88,63.82a6.78,6.78,0,0,1,.53,2.68A6.87,6.87,0,0,1,88,69.17a6.62,6.62,0,0,1-1.53,2.25,7.1,7.1,0,0,1-5.06,2.13Zm.05-1.69a4.84,4.84,0,0,0,3.63-1.54,5.6,5.6,0,0,0,0-7.6,4.88,4.88,0,0,0-3.64-1.54,4.83,4.83,0,0,0-3.61,1.54,5.62,5.62,0,0,0,0,7.6A4.79,4.79,0,0,0,81.43,71.86Z"/><path d="M94,62.59a8,8,0,0,1,2-2.39,3.69,3.69,0,0,1,2.24-.7,3.91,3.91,0,0,1,.76.07,5.16,5.16,0,0,1,.77.21l-.58,1.7a6,6,0,0,0-.61-.15,3.23,3.23,0,0,0-.61-.06,3.39,3.39,0,0,0-2.77,1.52A6.11,6.11,0,0,0,94,66.59V73h-1.8V60H94Z"/><path d="M112.28,73h-1.86V50.27h1.86Z"/><path d="M126.8,73V70.6A4.88,4.88,0,0,1,125,72.79a5,5,0,0,1-2.75.76,5.74,5.74,0,0,1-4.5-1.92A7.34,7.34,0,0,1,116,66.56a7.57,7.57,0,0,1,1.69-5.09,5.88,5.88,0,0,1,7.21-1.25,4.79,4.79,0,0,1,1.87,2.14V60h1.8V73ZM118,66.62a5.89,5.89,0,0,0,1.14,3.88,4,4,0,0,0,3.24,1.36,3.9,3.9,0,0,0,3.23-1.48,6.43,6.43,0,0,0,1.18-4.1,5.62,5.62,0,0,0-1.17-3.76,4,4,0,0,0-3.21-1.37,3.93,3.93,0,0,0-3.22,1.46A6.18,6.18,0,0,0,118,66.62Z"/><path d="M142.34,73V51.53h3.34A31.66,31.66,0,0,1,152,52a8.11,8.11,0,0,1,3.23,1.51A9,9,0,0,1,158,57.14a14.47,14.47,0,0,1,0,10.26,8.56,8.56,0,0,1-2.69,3.6,8.68,8.68,0,0,1-3.18,1.52,26,26,0,0,1-5.76.46h-4Zm1.95-1.69H147a20.56,20.56,0,0,0,4.72-.37,5.47,5.47,0,0,0,2.35-1.27,8,8,0,0,0,2-3.13,13.71,13.71,0,0,0,0-8.62,7.49,7.49,0,0,0-2-3.07,5.92,5.92,0,0,0-2.51-1.31,24.06,24.06,0,0,0-5.17-.38h-2.11Z"/><path d="M163.25,73V51.53h1.94V73Z"/><path d="M167.61,73,177,50.68l9,22.3h-2.12l-2.74-7.27h-8.76L169.59,73ZM173.09,64h7.47l-3.66-9.33Z"/><path d="M188.46,73V50.62l15.19,17.95v-17h1.81V73.61l-15.17-18V73Z"/><path d="M209.62,71.74a1.49,1.49,0,0,1,1.5-1.49,1.47,1.47,0,0,1,1.06.43,1.43,1.43,0,0,1,.43,1.06,1.46,1.46,0,0,1-.43,1.07,1.47,1.47,0,0,1-1.06.43,1.49,1.49,0,0,1-1.5-1.5Z"/></svg>