<svg id="fondos" xmlns="http://www.w3.org/2000/svg" viewBox="0 0 838.12 100.16"><defs><style>.cls-1{fill:#e6e6e6;}</style></defs><title>ponalsar4</title><rect class="cls-1" width="838.12" height="100.16"/><path d="M72.53,55.9H70.16L62.63,45.67H61.45V55.9H59.51V34.45h3.94a8,8,0,0,1,5.22,1.45,5.39,5.39,0,0,1,1.73,4.39,5.21,5.21,0,0,1-1.48,3.94,5.66,5.66,0,0,1-4.1,1.44ZM61.45,36.15v7.92h2a6.22,6.22,0,0,0,3.8-.87,3.63,3.63,0,0,0,1.07-3,3.91,3.91,0,0,0-1.11-3.15,5.85,5.85,0,0,0-3.76-.94Z"/><path d="M85.71,49.45H75.38a6.31,6.31,0,0,0,1.26,3.95,3.92,3.92,0,0,0,3.18,1.44,4.19,4.19,0,0,0,2.52-.78,5.5,5.5,0,0,0,1.8-2.34l1.66.91a7.17,7.17,0,0,1-2.44,2.91,6.39,6.39,0,0,1-3.54.93,6,6,0,0,1-4.62-1.91,7.1,7.1,0,0,1-1.76-5,7.45,7.45,0,0,1,1.75-5.16,5.82,5.82,0,0,1,4.57-2,5.54,5.54,0,0,1,4.33,1.81,6.94,6.94,0,0,1,1.62,4.82Zm-2.14-1.54a4,4,0,0,0-1.18-2.77,4.07,4.07,0,0,0-2.86-1,3.88,3.88,0,0,0-2.75,1,4.19,4.19,0,0,0-1.28,2.72Z"/><path d="M99.57,45.27a7.34,7.34,0,0,0-1.93-.94A7.19,7.19,0,0,0,95.53,44a5,5,0,0,0-3.86,1.54,5.85,5.85,0,0,0-1.43,4.12,5.06,5.06,0,0,0,1.49,3.77,5.13,5.13,0,0,0,3.8,1.48,6.46,6.46,0,0,0,2.13-.37,8.05,8.05,0,0,0,2.11-1.1v2a7.77,7.77,0,0,1-2.1.81,11,11,0,0,1-2.48.27,6.53,6.53,0,0,1-4.88-2,6.86,6.86,0,0,1-1.9-5,6.79,6.79,0,0,1,7.15-7.15,9.71,9.71,0,0,1,2.2.23,7,7,0,0,1,1.84.65Z"/><path d="M109.05,56.47a6.79,6.79,0,0,1-2.67-.55,7.43,7.43,0,0,1-2.31-1.58,6.42,6.42,0,0,1-1.5-2.22,7.13,7.13,0,0,1-.51-2.7,7,7,0,0,1,2-5A7.06,7.06,0,0,1,106.37,43a6.78,6.78,0,0,1,2.68-.53,7,7,0,0,1,2.73.53,7.19,7.19,0,0,1,2.31,1.52,7,7,0,0,1,1.54,2.27,6.79,6.79,0,0,1,.54,2.68,6.88,6.88,0,0,1-.53,2.67,6.62,6.62,0,0,1-1.53,2.25,7.1,7.1,0,0,1-5.06,2.13Zm0-1.69a4.84,4.84,0,0,0,3.63-1.54,5.6,5.6,0,0,0,0-7.6,4.88,4.88,0,0,0-3.64-1.54,4.83,4.83,0,0,0-3.61,1.54,5.62,5.62,0,0,0,0,7.6A4.79,4.79,0,0,0,109.1,54.78Z"/><path d="M121.69,45.51a8,8,0,0,1,2-2.39,3.69,3.69,0,0,1,2.24-.7,4.08,4.08,0,0,1,.77.07,5.51,5.51,0,0,1,.77.21l-.59,1.7a6,6,0,0,0-.61-.15,3.23,3.23,0,0,0-.61-.06,3.39,3.39,0,0,0-2.77,1.52,6.11,6.11,0,0,0-1.15,3.8V55.9h-1.8v-13h1.8Z"/><path d="M139,55.9V53.52a4.67,4.67,0,0,1-4.53,2.95,5.74,5.74,0,0,1-4.5-1.92,7.34,7.34,0,0,1-1.71-5.07,7.52,7.52,0,0,1,1.69-5.09,5.86,5.86,0,0,1,7.2-1.25A4.9,4.9,0,0,1,139,45.27V33.19h1.83V55.9Zm-8.73-6.36a5.94,5.94,0,0,0,1.13,3.88,4,4,0,0,0,3.25,1.36,3.87,3.87,0,0,0,3.21-1.48A6.49,6.49,0,0,0,139,49.2a5.67,5.67,0,0,0-1.16-3.76,4.34,4.34,0,0,0-6.41.09A6.13,6.13,0,0,0,130.23,49.54Z"/><path d="M155.16,55.9V53.52a4.88,4.88,0,0,1-1.81,2.19,5,5,0,0,1-2.75.76,5.74,5.74,0,0,1-4.5-1.92,7.34,7.34,0,0,1-1.71-5.07,7.52,7.52,0,0,1,1.69-5.09,5.88,5.88,0,0,1,7.21-1.25,4.82,4.82,0,0,1,1.87,2.13V42.9H157v13Zm-8.76-6.36a5.89,5.89,0,0,0,1.14,3.88,4,4,0,0,0,3.24,1.36A3.9,3.9,0,0,0,154,53.3a6.43,6.43,0,0,0,1.18-4.1A5.62,5.62,0,0,0,154,45.44a4,4,0,0,0-3.21-1.37,3.93,3.93,0,0,0-3.22,1.46A6.18,6.18,0,0,0,146.4,49.54Z"/><path d="M163.6,45.51a8,8,0,0,1,2-2.39,3.69,3.69,0,0,1,2.24-.7,4.08,4.08,0,0,1,.77.07,5.91,5.91,0,0,1,.77.21l-.59,1.7a6,6,0,0,0-.61-.15,3.23,3.23,0,0,0-.61-.06,3.39,3.39,0,0,0-2.77,1.52,6.11,6.11,0,0,0-1.15,3.8V55.9h-1.8v-13h1.8Z"/><path d="M178.41,53.58l1.71-1a3.35,3.35,0,0,0,1.23,1.63,3.42,3.42,0,0,0,2,.55,2.69,2.69,0,0,0,1.82-.58,2,2,0,0,0,.67-1.54c0-1-.89-1.84-2.65-2.54a3.75,3.75,0,0,1-.44-.17,8.18,8.18,0,0,1-2.87-1.66,3,3,0,0,1-.82-2.12,3.52,3.52,0,0,1,1.17-2.72,4.32,4.32,0,0,1,3-1.06,5,5,0,0,1,2.7.69,4,4,0,0,1,1.62,2l-1.65.92a2.66,2.66,0,0,0-1-1.4,3,3,0,0,0-1.76-.49,2.23,2.23,0,0,0-1.54.55A1.77,1.77,0,0,0,181,46a1.72,1.72,0,0,0,.6,1.34,8.09,8.09,0,0,0,2.49,1.15,6.64,6.64,0,0,1,2.88,1.63,3.67,3.67,0,0,1,.74,2.43,3.55,3.55,0,0,1-1.27,2.86,5.89,5.89,0,0,1-6.28.31A4.18,4.18,0,0,1,178.41,53.58Z"/><path d="M202.5,49.45H192.18a6.31,6.31,0,0,0,1.26,3.95,3.9,3.9,0,0,0,3.17,1.44,4.19,4.19,0,0,0,2.52-.78,5.6,5.6,0,0,0,1.81-2.34l1.65.91a7.17,7.17,0,0,1-2.44,2.91,6.39,6.39,0,0,1-3.54.93A6,6,0,0,1,192,54.56a7.15,7.15,0,0,1-1.76-5A7.45,7.45,0,0,1,192,44.38a5.84,5.84,0,0,1,4.58-2,5.53,5.53,0,0,1,4.32,1.81,6.94,6.94,0,0,1,1.62,4.82Zm-2.14-1.54a3.71,3.71,0,0,0-4-3.75,3.84,3.84,0,0,0-2.74,1,4.15,4.15,0,0,0-1.29,2.72Z"/><path d="M206.25,55.9v-13H208v2A5.32,5.32,0,0,1,209.91,43a5.5,5.5,0,0,1,2.64-.62A4.68,4.68,0,0,1,216,43.65a4.63,4.63,0,0,1,1.23,3.43V55.9h-1.84v-8a4.35,4.35,0,0,0-.81-2.89,3.14,3.14,0,0,0-2.51-1,3.64,3.64,0,0,0-3,1.23,6.12,6.12,0,0,0-1,3.84V55.9Zm9.7-19a4.14,4.14,0,0,1-1.11,2,2.53,2.53,0,0,1-1.8.69,3.57,3.57,0,0,1-.47,0,4.85,4.85,0,0,1-.49-.11l-1.17-.4a1.5,1.5,0,0,0-.39-.08,3.23,3.23,0,0,0-.46,0,1.35,1.35,0,0,0-.78.22,1.75,1.75,0,0,0-.57.67h-1.29a3.75,3.75,0,0,1,1.07-1.94,2.63,2.63,0,0,1,1.85-.67,3.48,3.48,0,0,1,.47,0,1.87,1.87,0,0,1,.39.09l1.15.39.47.12.42,0a1.51,1.51,0,0,0,.89-.25,1.45,1.45,0,0,0,.53-.73Z"/><path d="M231.48,55.9V53.52a4.88,4.88,0,0,1-1.81,2.19,5,5,0,0,1-2.75.76,5.74,5.74,0,0,1-4.5-1.92,7.34,7.34,0,0,1-1.71-5.07,7.52,7.52,0,0,1,1.69-5.09,5.88,5.88,0,0,1,7.21-1.25,4.82,4.82,0,0,1,1.87,2.13V42.9h1.8v13Zm-8.76-6.36a5.94,5.94,0,0,0,1.13,3.88,4,4,0,0,0,3.25,1.36,3.9,3.9,0,0,0,3.23-1.48,6.49,6.49,0,0,0,1.18-4.1,5.62,5.62,0,0,0-1.17-3.76,4,4,0,0,0-3.21-1.37,3.93,3.93,0,0,0-3.22,1.46A6.13,6.13,0,0,0,222.72,49.54Z"/><path d="M240.09,55.9h-1.86V33.19h1.86Z"/><path d="M256.17,49.45H245.85a6.31,6.31,0,0,0,1.26,3.95,3.91,3.91,0,0,0,3.18,1.44,4.23,4.23,0,0,0,2.52-.78,5.66,5.66,0,0,0,1.8-2.34l1.65.91a7.09,7.09,0,0,1-2.44,2.91,6.38,6.38,0,0,1-3.53.93,6,6,0,0,1-4.62-1.91,7.11,7.11,0,0,1-1.77-5,7.45,7.45,0,0,1,1.75-5.16,5.84,5.84,0,0,1,4.58-2,5.52,5.52,0,0,1,4.32,1.81,6.94,6.94,0,0,1,1.62,4.82ZM254,47.91a3.72,3.72,0,0,0-4-3.75,3.84,3.84,0,0,0-2.74,1A4.09,4.09,0,0,0,246,47.91Z"/><path d="M258.45,53.58l1.71-1a3.35,3.35,0,0,0,1.23,1.63,3.42,3.42,0,0,0,2,.55,2.64,2.64,0,0,0,1.81-.58,1.92,1.92,0,0,0,.68-1.54c0-1-.89-1.84-2.65-2.54a3.15,3.15,0,0,1-.44-.17,8.18,8.18,0,0,1-2.87-1.66,3,3,0,0,1-.82-2.12,3.52,3.52,0,0,1,1.17-2.72,4.32,4.32,0,0,1,3-1.06,5,5,0,0,1,2.7.69,4,4,0,0,1,1.62,2L266,46a2.66,2.66,0,0,0-1-1.4,3,3,0,0,0-1.76-.49,2.23,2.23,0,0,0-1.54.55A1.77,1.77,0,0,0,261,46a1.72,1.72,0,0,0,.6,1.34,8.09,8.09,0,0,0,2.49,1.15A6.64,6.64,0,0,1,267,50.11a3.67,3.67,0,0,1,.74,2.43,3.56,3.56,0,0,1-1.28,2.86A5.17,5.17,0,0,1,263,56.47a5.22,5.22,0,0,1-2.85-.76A4.18,4.18,0,0,1,258.45,53.58Z"/><path d="M278.25,42.9h1.92l3.72,10.17,3.43-10.17h1.92l-6.73,19.53h-1.86l2.27-6.62Z"/><path d="M310.34,55.9V53.52a4.86,4.86,0,0,1-1.8,2.19,5,5,0,0,1-2.75.76,5.71,5.71,0,0,1-4.5-1.92,7.34,7.34,0,0,1-1.71-5.07,7.56,7.56,0,0,1,1.68-5.09,5.89,5.89,0,0,1,7.22-1.25,4.8,4.8,0,0,1,1.86,2.13V42.9h1.81v13Zm-8.75-6.36a5.89,5.89,0,0,0,1.13,3.88A4,4,0,0,0,306,54.78a3.91,3.91,0,0,0,3.23-1.48,6.49,6.49,0,0,0,1.17-4.1,5.62,5.62,0,0,0-1.17-3.76,4,4,0,0,0-3.2-1.37,4,4,0,0,0-3.23,1.46A6.18,6.18,0,0,0,301.59,49.54Z"/><path d="M319,55.9H317.1V33.19H319Z"/><path d="M335,49.45H324.72A6.19,6.19,0,0,0,326,53.4a3.9,3.9,0,0,0,3.17,1.44,4.19,4.19,0,0,0,2.52-.78,5.6,5.6,0,0,0,1.81-2.34l1.65.91a7.17,7.17,0,0,1-2.44,2.91,6.39,6.39,0,0,1-3.54.93,6,6,0,0,1-4.62-1.91,7.1,7.1,0,0,1-1.76-5,7.45,7.45,0,0,1,1.75-5.16,5.82,5.82,0,0,1,4.57-2,5.54,5.54,0,0,1,4.33,1.81A6.94,6.94,0,0,1,335,49.05Zm-2.14-1.54a4,4,0,0,0-1.18-2.77,4.07,4.07,0,0,0-2.86-1,3.88,3.88,0,0,0-2.75,1,4.19,4.19,0,0,0-1.28,2.72Z"/><path d="M340.59,45.51a8.13,8.13,0,0,1,2-2.39,3.66,3.66,0,0,1,2.23-.7,4,4,0,0,1,.77.07,5.16,5.16,0,0,1,.77.21l-.58,1.7a6,6,0,0,0-.61-.15,3.23,3.23,0,0,0-.61-.06,3.42,3.42,0,0,0-2.78,1.52,6.17,6.17,0,0,0-1.15,3.8V55.9h-1.8v-13h1.8Z"/><path d="M348.62,44.44h-2.39V42.9h2.39V37.57h1.77V42.9H353v1.54h-2.61V55.9h-1.77Z"/><path d="M365.28,55.9V53.52a4.88,4.88,0,0,1-1.81,2.19,5,5,0,0,1-2.75.76,5.72,5.72,0,0,1-4.5-1.92,7.34,7.34,0,0,1-1.71-5.07,7.56,7.56,0,0,1,1.68-5.09,5.89,5.89,0,0,1,7.22-1.25,4.82,4.82,0,0,1,1.87,2.13V42.9h1.8v13Zm-8.76-6.36a5.94,5.94,0,0,0,1.13,3.88,4,4,0,0,0,3.25,1.36,3.91,3.91,0,0,0,3.23-1.48,6.49,6.49,0,0,0,1.18-4.1,5.57,5.57,0,0,0-1.18-3.76,4.36,4.36,0,0,0-6.43.09A6.18,6.18,0,0,0,356.52,49.54Z"/><path d="M370.43,53.58l1.72-1a3.35,3.35,0,0,0,1.23,1.63,3.38,3.38,0,0,0,2,.55,2.67,2.67,0,0,0,1.82-.58,1.92,1.92,0,0,0,.67-1.54c0-1-.88-1.84-2.65-2.54a3.49,3.49,0,0,1-.43-.17,8.34,8.34,0,0,1-2.88-1.66,3,3,0,0,1-.82-2.12,3.49,3.49,0,0,1,1.18-2.72,4.32,4.32,0,0,1,3-1.06,5,5,0,0,1,2.69.69,4,4,0,0,1,1.63,2l-1.66.92a2.59,2.59,0,0,0-1-1.4,3,3,0,0,0-1.76-.49,2.26,2.26,0,0,0-1.55.55A1.8,1.8,0,0,0,373,46a1.72,1.72,0,0,0,.6,1.34,8.09,8.09,0,0,0,2.49,1.15A6.77,6.77,0,0,1,379,50.11a3.67,3.67,0,0,1,.74,2.43,3.56,3.56,0,0,1-1.28,2.86,5.87,5.87,0,0,1-6.27.31A4.2,4.2,0,0,1,370.43,53.58Z"/><path d="M401.63,55.9V53.52a4.67,4.67,0,0,1-4.52,2.95,5.74,5.74,0,0,1-4.51-1.92,7.38,7.38,0,0,1-1.7-5.07,7.56,7.56,0,0,1,1.68-5.09,5.47,5.47,0,0,1,4.35-2,5.39,5.39,0,0,1,2.85.72,4.84,4.84,0,0,1,1.85,2.13V33.19h1.84V55.9Zm-8.73-6.36A5.89,5.89,0,0,0,394,53.42a4,4,0,0,0,3.24,1.36,3.86,3.86,0,0,0,3.21-1.48,6.49,6.49,0,0,0,1.17-4.1,5.67,5.67,0,0,0-1.15-3.76,4.35,4.35,0,0,0-6.42.09A6.18,6.18,0,0,0,392.9,49.54Z"/><path d="M419.4,49.45H409.08a6.19,6.19,0,0,0,1.26,3.95,3.9,3.9,0,0,0,3.17,1.44,4.19,4.19,0,0,0,2.52-.78,5.6,5.6,0,0,0,1.81-2.34l1.65.91a7.17,7.17,0,0,1-2.44,2.91,6.39,6.39,0,0,1-3.54.93,6,6,0,0,1-4.62-1.91,7.15,7.15,0,0,1-1.76-5,7.45,7.45,0,0,1,1.75-5.16,5.82,5.82,0,0,1,4.58-2,5.53,5.53,0,0,1,4.32,1.81,6.94,6.94,0,0,1,1.62,4.82Zm-2.14-1.54a4,4,0,0,0-1.18-2.77,4.07,4.07,0,0,0-2.86-1,3.84,3.84,0,0,0-2.74,1,4.15,4.15,0,0,0-1.29,2.72Z"/><path d="M443,49.45H432.63a6.31,6.31,0,0,0,1.26,3.95,3.91,3.91,0,0,0,3.18,1.44,4.19,4.19,0,0,0,2.52-.78,5.66,5.66,0,0,0,1.8-2.34l1.66.91a7.25,7.25,0,0,1-2.44,2.91,6.42,6.42,0,0,1-3.54.93,6,6,0,0,1-4.62-1.91,7.11,7.11,0,0,1-1.77-5,7.45,7.45,0,0,1,1.75-5.16,5.85,5.85,0,0,1,4.58-2,5.5,5.5,0,0,1,4.32,1.81A6.9,6.9,0,0,1,443,49.05Zm-2.14-1.54a3.72,3.72,0,0,0-4-3.75,3.86,3.86,0,0,0-2.75,1,4.09,4.09,0,0,0-1.28,2.72Z"/><path d="M444.76,42.9h2l4,9.85,4-9.85h2l-6,13.83Z"/><path d="M469.1,55.9V53.52a4.93,4.93,0,0,1-1.8,2.19,5,5,0,0,1-2.75.76,5.71,5.71,0,0,1-4.5-1.92,7.34,7.34,0,0,1-1.71-5.07A7.56,7.56,0,0,1,460,44.39a5.89,5.89,0,0,1,7.22-1.25,4.8,4.8,0,0,1,1.86,2.13V42.9h1.81v13Zm-8.76-6.36a5.89,5.89,0,0,0,1.14,3.88,4,4,0,0,0,3.25,1.36A3.91,3.91,0,0,0,468,53.3a6.49,6.49,0,0,0,1.17-4.1A5.62,5.62,0,0,0,468,45.44a4,4,0,0,0-3.2-1.37,4,4,0,0,0-3.23,1.46A6.18,6.18,0,0,0,460.34,49.54Z"/><path d="M485.85,45.27a7.34,7.34,0,0,0-1.93-.94,7.19,7.19,0,0,0-2.11-.31A5,5,0,0,0,478,45.56a5.85,5.85,0,0,0-1.43,4.12A5.06,5.06,0,0,0,478,53.45a5.13,5.13,0,0,0,3.8,1.48,6.46,6.46,0,0,0,2.13-.37,8.05,8.05,0,0,0,2.11-1.1v2a7.71,7.71,0,0,1-2.11.81,10.81,10.81,0,0,1-2.47.27,6.53,6.53,0,0,1-4.88-2,6.86,6.86,0,0,1-1.9-5,6.79,6.79,0,0,1,7.15-7.15,9.71,9.71,0,0,1,2.2.23,7,7,0,0,1,1.84.65Z"/><path d="M491.22,42.9v6.49a7.68,7.68,0,0,0,.85,4.18,3.94,3.94,0,0,0,5.7,0,7.47,7.47,0,0,0,.87-4.16V42.9h1.78v7.41a6.69,6.69,0,0,1-1.39,4.6,5.2,5.2,0,0,1-4.09,1.56,5.26,5.26,0,0,1-4.11-1.56,6.65,6.65,0,0,1-1.41-4.6V42.9Z"/><path d="M514.82,55.9V53.52A4.88,4.88,0,0,1,513,55.71a4.94,4.94,0,0,1-2.74.76,5.74,5.74,0,0,1-4.51-1.92,7.33,7.33,0,0,1-1.7-5.07,7.56,7.56,0,0,1,1.68-5.09A5.88,5.88,0,0,1,513,43.14a4.82,4.82,0,0,1,1.87,2.13V42.9h1.8v13Zm-8.76-6.36a5.89,5.89,0,0,0,1.14,3.88,4,4,0,0,0,3.24,1.36,3.88,3.88,0,0,0,3.23-1.48,6.43,6.43,0,0,0,1.18-4.1,5.62,5.62,0,0,0-1.17-3.76,4,4,0,0,0-3.21-1.37,3.93,3.93,0,0,0-3.22,1.46A6.18,6.18,0,0,0,506.06,49.54Z"/><path d="M531.57,45.27a7.25,7.25,0,0,0-1.94-.94,7.09,7.09,0,0,0-2.11-.31,5,5,0,0,0-3.85,1.54,5.81,5.81,0,0,0-1.43,4.12,5.09,5.09,0,0,0,1.48,3.77,5.15,5.15,0,0,0,3.8,1.48,6.37,6.37,0,0,0,2.13-.37,8.1,8.1,0,0,0,2.12-1.1v2a7.84,7.84,0,0,1-2.11.81,10.81,10.81,0,0,1-2.47.27,6.52,6.52,0,0,1-4.88-2,6.86,6.86,0,0,1-1.91-5,6.81,6.81,0,0,1,7.15-7.15,9.79,9.79,0,0,1,2.21.23,6.93,6.93,0,0,1,1.83.65Z"/><path d="M534.8,37.83a1.32,1.32,0,0,1,.41-1,1.41,1.41,0,0,1,2,0,1.3,1.3,0,0,1,.42,1,1.34,1.34,0,0,1-.4,1,1.4,1.4,0,0,1-1,.39,1.33,1.33,0,0,1-1-.39A1.35,1.35,0,0,1,534.8,37.83Zm.46,18.07v-13h1.86v13Z"/><path d="M547.94,56.47a6.74,6.74,0,0,1-2.66-.55A7.59,7.59,0,0,1,543,54.34a6.53,6.53,0,0,1-1.49-2.22,7.13,7.13,0,0,1-.51-2.7,6.93,6.93,0,0,1,.52-2.69A7,7,0,0,1,545.26,43a6.82,6.82,0,0,1,2.68-.53,7.15,7.15,0,0,1,5,2,6.85,6.85,0,0,1,1.55,2.27,7,7,0,0,1,.53,2.68,6.87,6.87,0,0,1-2,4.92,7.14,7.14,0,0,1-5.07,2.13Zm.06-1.69a4.84,4.84,0,0,0,3.63-1.54,5.62,5.62,0,0,0,0-7.6,5,5,0,0,0-7.25,0,5.62,5.62,0,0,0,0,7.6A4.83,4.83,0,0,0,548,54.78Zm-2-14,3.12-5.13h2.41l-4.15,5.13Z"/><path d="M558.78,55.9v-13h1.72v2A5.25,5.25,0,0,1,562.44,43a5.5,5.5,0,0,1,2.64-.62,4.28,4.28,0,0,1,4.68,4.66V55.9h-1.84v-8a4.35,4.35,0,0,0-.81-2.89,3.14,3.14,0,0,0-2.51-1,3.64,3.64,0,0,0-3,1.23,6.12,6.12,0,0,0-1,3.84V55.9Z"/></svg>