<svg xmlns="http://www.w3.org/2000/svg" viewBox="0 0 356.75 320.4"><defs><style>.cls-1{isolation:isolate;}.cls-2{fill:#fff;}.cls-3{fill:#d31c25;}.cls-4{fill:#4d4d4d;}.cls-5{fill:gray;}.cls-6{fill:none;stroke:#666;stroke-miterlimit:10;stroke-width:2px;}.cls-7{fill:#ff4335;}.cls-8{fill:#9e151c;}.cls-9{fill:#301404;opacity:0.25;mix-blend-mode:multiply;}</style></defs><title>ponalsar</title><g class="cls-1"><g id="Capa_2" data-name="Capa 2"><g id="ALERTAS"><path class="cls-2" d="M343.67,0H13.08A13.07,13.07,0,0,0,0,13.08v98.08a13.07,13.07,0,0,0,13.08,13.08H151.19l26.57,46,26.56-46H343.67a13.07,13.07,0,0,0,13.08-13.08V13.08A13.07,13.07,0,0,0,343.67,0Z"/><path class="cls-2" d="M16.07,11.61h99.11a1.54,1.54,0,0,1,1.54,1.54v99.56a1.54,1.54,0,0,1-1.54,1.54H16.07a5.84,5.84,0,0,1-5.84-5.84v-91a5.84,5.84,0,0,1,5.84-5.84Z"/><path class="cls-3" d="M118.25,11.61H340.68a5.84,5.84,0,0,1,5.84,5.84v91a5.84,5.84,0,0,1-5.84,5.84H118.25a1.54,1.54,0,0,1-1.54-1.54V13.15a1.54,1.54,0,0,1,1.54-1.54Z"/><ellipse class="cls-4" cx="65.76" cy="78.91" rx="28.72" ry="12.64"/><rect class="cls-4" x="37.04" y="74.92" width="57.43" height="3.95" rx="1.54"/><ellipse class="cls-5" cx="65.76" cy="74.46" rx="28.72" ry="12.64"/><ellipse class="cls-6" cx="65.76" cy="74.46" rx="26.75" ry="10.67"/><ellipse class="cls-3" cx="66.13" cy="74.96" rx="23.97" ry="7.18"/><path class="cls-3" d="M42.57,72.6l5.35-30.39a2,2,0,0,1,1.95-1.63H82.4a2,2,0,0,1,1.95,1.63L89.7,72.6a2,2,0,0,1-1.94,2.32H44.51A2,2,0,0,1,42.57,72.6Z"/><ellipse class="cls-3" cx="66.13" cy="40.62" rx="17.93" ry="7.18"/><path class="cls-7" d="M66.13,46.12a33.58,33.58,0,0,1-12-2c-2.58-1-4.19-2.39-4.19-3.52s1.61-2.48,4.19-3.52a33.81,33.81,0,0,1,12-2,33.82,33.82,0,0,1,12.06,2c2.58,1,4.19,2.39,4.19,3.52s-1.61,2.48-4.19,3.52A33.6,33.6,0,0,1,66.13,46.12Z"/><path class="cls-7" d="M48.41,47.93,44.08,73.57a1.86,1.86,0,0,0,.21,1.27c.67,1.11,2.92,3,10.49,3.88A2,2,0,0,0,57,77.05l3.88-26a2,2,0,0,0-1.67-2.24,28.18,28.18,0,0,1-8-2.27A2,2,0,0,0,48.41,47.93Z"/><circle class="cls-8" cx="72.25" cy="75.59" r="2.86"/><path class="cls-8" d="M68.51,52l.88,15.12a2.92,2.92,0,0,0,2.73,2.94,2.86,2.86,0,0,0,3-2.85L76,52a1.28,1.28,0,0,0-1.28-1.28H69.79A1.28,1.28,0,0,0,68.51,52Z"/><circle class="cls-2" cx="73.82" cy="74.41" r="2.86"/><path class="cls-2" d="M70.08,50.85,71,66a2.92,2.92,0,0,0,2.73,2.94,2.86,2.86,0,0,0,3-2.85l.88-15.21a1.28,1.28,0,0,0-1.28-1.28H71.37A1.28,1.28,0,0,0,70.08,50.85Z"/><path class="cls-2" d="M142,34.64a2.71,2.71,0,0,1,.83-2,2.77,2.77,0,0,1,2-.83,2.78,2.78,0,0,1,2.81,2.81,2.8,2.8,0,0,1-2.81,2.81,2.77,2.77,0,0,1-2-.82A2.71,2.71,0,0,1,142,34.64Zm.48,5.33h4.69V57.19h-4.69Z"/><path class="cls-2" d="M151.75,56.55l9.19-24.17h5.91l9.33,24.17H170.3l-2-5.14H159l-1.69,5.14Zm15.38-9.2-2.7-7.81a11.51,11.51,0,0,1-.3-1.19c-.12-.56-.25-1.25-.38-2.06-.14.78-.28,1.48-.41,2.1s-.23,1-.3,1.25l-2.61,7.71Z"/><path class="cls-2" d="M180.08,56.55V32.38h5.16V52.15h8.26v4.4Z"/><path class="cls-2" d="M198.1,56.55V32.38h14.23v4.36h-9.06v5h9.06v4.4h-9.06v6h9.06v4.4Z"/><path class="cls-2" d="M236.24,56.55h-6l-6.36-11.3v11.3h-5.17V32.38h7.4q4.41,0,6.6,1.71a6.08,6.08,0,0,1,2.2,5.14,6.37,6.37,0,0,1-1.5,4.26,5.87,5.87,0,0,1-3.88,2.06ZM223.92,42.68h.78q3.13,0,4.14-.69a2.67,2.67,0,0,0,1-2.38,2.88,2.88,0,0,0-1.08-2.54,7.71,7.71,0,0,0-4.07-.75h-.78Z"/><path class="cls-2" d="M249.62,36.77V56.55h-5.18V36.77h-5.91V32.38h17v4.39Z"/><path class="cls-2" d="M255.55,56.55l9.2-24.17h5.91L280,56.55h-5.87l-2-5.14h-9.36l-1.68,5.14Zm15.39-9.2-2.71-7.81a11.51,11.51,0,0,1-.3-1.19c-.12-.56-.25-1.25-.38-2.06-.14.78-.28,1.48-.41,2.1s-.23,1-.3,1.25l-2.61,7.71Z"/><path class="cls-2" d="M284,54.35a2.71,2.71,0,0,1,.83-2,2.77,2.77,0,0,1,2-.82,2.78,2.78,0,0,1,2.81,2.81,2.77,2.77,0,0,1-.82,2,2.7,2.7,0,0,1-2,.83A2.85,2.85,0,0,1,284,54.35Zm.48-5.35V31.83h4.69V49Z"/><path class="cls-2" d="M141.91,95V70.86h5.94q4.76,0,7,1.82t2.27,5.61a7,7,0,0,1-2.29,5.52,9.29,9.29,0,0,1-6.33,2h-1.42V95Zm5.2-13.25h.74a4.43,4.43,0,0,0,3.07-.88,3.62,3.62,0,0,0,1-2.8,3.23,3.23,0,0,0-1-2.6,4.66,4.66,0,0,0-3.07-.82h-.74Z"/><path class="cls-2" d="M186.81,83a12.63,12.63,0,0,1-1,4.9A12.05,12.05,0,0,1,183.07,92a13.41,13.41,0,0,1-4.25,2.76,12.91,12.91,0,0,1-9.22.21,13.39,13.39,0,0,1-3.89-2.16,12.46,12.46,0,0,1-3.49-4.34A12.34,12.34,0,0,1,161,83a12.56,12.56,0,0,1,1-4.9,12.07,12.07,0,0,1,2.8-4.07,13.26,13.26,0,0,1,9.17-3.71,12.87,12.87,0,0,1,4.91,1A13.47,13.47,0,0,1,183.07,74a12.27,12.27,0,0,1,2.79,4.08A12.72,12.72,0,0,1,186.81,83Zm-12.87,8.07a7.09,7.09,0,0,0,5.42-2.3,8.82,8.82,0,0,0,0-11.55,7,7,0,0,0-5.39-2.34,7.13,7.13,0,0,0-5.45,2.33,8.87,8.87,0,0,0,0,11.58A7.17,7.17,0,0,0,173.94,91.07Z"/><path class="cls-2" d="M192.52,95V70.86h5.37l10.7,14.07a12.06,12.06,0,0,1,1,1.68c.37.72.75,1.57,1.15,2.55-.12-.72-.21-1.43-.26-2.13s-.09-1.59-.09-2.64V70.86h4.94V95h-5.07l-11-14.33a9.81,9.81,0,0,1-1-1.67c-.36-.72-.75-1.58-1.16-2.59.12.7.21,1.4.27,2.11s.08,1.6.08,2.68V95Z"/><path class="cls-2" d="M219.2,95l9.2-24.17h5.91L243.63,95h-5.87l-2-5.13h-9.36L224.75,95Zm15.39-9.19L231.88,78a11.51,11.51,0,0,1-.3-1.19c-.12-.56-.24-1.25-.38-2.06-.14.78-.28,1.48-.41,2.1s-.23,1-.3,1.25l-2.6,7.71Z"/><path class="cls-2" d="M247.53,95V70.86h5.17V90.64H261V95Z"/><path class="cls-2" d="M264,92l2.88-3.25a4.41,4.41,0,0,0,1.75,2.11,4.91,4.91,0,0,0,2.7.76,4.4,4.4,0,0,0,2.88-.86,2.82,2.82,0,0,0,1.05-2.31q0-1.71-3.51-3.41c-.76-.37-1.36-.66-1.8-.9a13.29,13.29,0,0,1-4.39-3.22,5.94,5.94,0,0,1-1.23-3.76,6,6,0,0,1,2.37-4.91,9.46,9.46,0,0,1,6.15-1.92,8.66,8.66,0,0,1,3.79.76,7.88,7.88,0,0,1,2.82,2.41l-3.06,2.92A3.7,3.7,0,0,0,275,74.8a4.35,4.35,0,0,0-2.17-.52,3.81,3.81,0,0,0-2.48.77,2.43,2.43,0,0,0-.94,2c0,1.28,1.24,2.44,3.73,3.5l1.14.49a12.92,12.92,0,0,1,4.55,3.17,6.14,6.14,0,0,1,1.48,4A6.87,6.87,0,0,1,278,93.66a9.22,9.22,0,0,1-6.24,2,10.82,10.82,0,0,1-4.75-1A6.46,6.46,0,0,1,264,92Z"/><path class="cls-2" d="M283,95l9.2-24.17h5.91L307.41,95h-5.88l-2-5.13H290.2L288.52,95Zm15.39-9.19L295.65,78c-.08-.23-.17-.63-.3-1.19s-.24-1.25-.38-2.06c-.14.78-.28,1.48-.41,2.1s-.23,1-.3,1.25l-2.6,7.71Z"/><path class="cls-2" d="M328.78,95h-6l-6.35-11.29V95H311.3V70.86h7.4q4.41,0,6.6,1.71a6.14,6.14,0,0,1,2.2,5.15A6.28,6.28,0,0,1,326,82,5.86,5.86,0,0,1,322.11,84ZM316.47,81.17h.77c2.09,0,3.48-.23,4.15-.69a2.67,2.67,0,0,0,1-2.38,2.88,2.88,0,0,0-1.08-2.54,7.68,7.68,0,0,0-4.07-.75h-.77Z"/><ellipse class="cls-9" cx="178.38" cy="297.27" rx="86.04" ry="23.13"/></g></g></g></svg>