<svg id="fondos" xmlns="http://www.w3.org/2000/svg" viewBox="0 0 838.12 100.16"><defs><style>.cls-1{fill:#e6e6e6;}</style></defs><title>ponalsar5</title><rect class="cls-1" width="838.12" height="100.16"/><path d="M72.53,58.89H70.16L62.63,48.67H61.45V58.89H59.51V37.45h3.94a8,8,0,0,1,5.22,1.45,5.39,5.39,0,0,1,1.73,4.39,5.21,5.21,0,0,1-1.48,3.94,5.66,5.66,0,0,1-4.1,1.44ZM61.45,39.15v7.92h2a6.22,6.22,0,0,0,3.8-.87,3.63,3.63,0,0,0,1.07-3,3.91,3.91,0,0,0-1.11-3.15,5.85,5.85,0,0,0-3.76-.94Z"/><path d="M85.71,52.45H75.38a6.31,6.31,0,0,0,1.26,3.95,3.92,3.92,0,0,0,3.18,1.44,4.19,4.19,0,0,0,2.52-.78,5.57,5.57,0,0,0,1.8-2.34l1.66.91a7.17,7.17,0,0,1-2.44,2.91,6.39,6.39,0,0,1-3.54.93,6,6,0,0,1-4.62-1.92,7.06,7.06,0,0,1-1.76-5,7.45,7.45,0,0,1,1.75-5.16,5.82,5.82,0,0,1,4.57-2,5.54,5.54,0,0,1,4.33,1.81,6.94,6.94,0,0,1,1.62,4.82Zm-2.14-1.54a4,4,0,0,0-1.18-2.77,4.07,4.07,0,0,0-2.86-1,3.88,3.88,0,0,0-2.75,1,4.19,4.19,0,0,0-1.28,2.72Z"/><path d="M99.57,48.27a7,7,0,0,0-1.93-.94A7.2,7.2,0,0,0,95.53,47a5,5,0,0,0-3.86,1.55,5.85,5.85,0,0,0-1.43,4.12,5.06,5.06,0,0,0,1.49,3.77,5.17,5.17,0,0,0,3.8,1.48,6.46,6.46,0,0,0,2.13-.37,8.05,8.05,0,0,0,2.11-1.1v2a7.77,7.77,0,0,1-2.1.81,11,11,0,0,1-2.48.27,6.53,6.53,0,0,1-4.88-2,6.86,6.86,0,0,1-1.9-5,6.79,6.79,0,0,1,7.15-7.15,10.32,10.32,0,0,1,2.2.22,7.38,7.38,0,0,1,1.84.66Z"/><path d="M114.31,52.45H104a6.31,6.31,0,0,0,1.26,3.95,3.91,3.91,0,0,0,3.18,1.44,4.23,4.23,0,0,0,2.52-.78,5.73,5.73,0,0,0,1.8-2.34l1.65.91A7.09,7.09,0,0,1,112,58.54a6.38,6.38,0,0,1-3.53.93,6,6,0,0,1-4.62-1.92,7.07,7.07,0,0,1-1.77-5,7.45,7.45,0,0,1,1.75-5.16,5.84,5.84,0,0,1,4.58-2,5.52,5.52,0,0,1,4.32,1.81,6.94,6.94,0,0,1,1.63,4.82Zm-2.14-1.54a3.72,3.72,0,0,0-4-3.75,3.84,3.84,0,0,0-2.74,1,4.15,4.15,0,0,0-1.29,2.72Z"/><path d="M118.06,65.43V45.9h1.74v2.43a5.69,5.69,0,0,1,2-2.16,5,5,0,0,1,2.69-.75,5.58,5.58,0,0,1,4.42,1.92,7.51,7.51,0,0,1,1.68,5.11,7.57,7.57,0,0,1-1.64,5.1,5.47,5.47,0,0,1-4.37,1.92,5.14,5.14,0,0,1-2.77-.76,5.55,5.55,0,0,1-2-2.22v8.94Zm10.53-13a6.22,6.22,0,0,0-1.15-4,3.83,3.83,0,0,0-3.17-1.45,4,4,0,0,0-3.26,1.4,5.79,5.79,0,0,0-1.18,3.85,6,6,0,0,0,1.26,4,4.2,4.2,0,0,0,3.35,1.48,3.65,3.65,0,0,0,3.06-1.4A6.24,6.24,0,0,0,128.59,52.48Z"/><path d="M144.39,48.27a6.9,6.9,0,0,0-1.93-.94,7.15,7.15,0,0,0-2.11-.32,5,5,0,0,0-3.85,1.55,5.81,5.81,0,0,0-1.44,4.12,5.1,5.1,0,0,0,1.49,3.77,5.19,5.19,0,0,0,3.8,1.48,6.46,6.46,0,0,0,2.13-.37,8.1,8.1,0,0,0,2.12-1.1v2a8,8,0,0,1-2.11.81,10.9,10.9,0,0,1-2.48.27,6.51,6.51,0,0,1-4.87-2,6.86,6.86,0,0,1-1.91-5,6.81,6.81,0,0,1,7.15-7.15,10.42,10.42,0,0,1,2.21.22,7.31,7.31,0,0,1,1.83.66Z"/><path d="M147.63,40.83A1.38,1.38,0,0,1,149,39.46a1.37,1.37,0,0,1,1,.4,1.3,1.3,0,0,1,.42,1,1.34,1.34,0,0,1-.4,1,1.37,1.37,0,0,1-1,.4,1.34,1.34,0,0,1-1-.4A1.3,1.3,0,0,1,147.63,40.83Zm.46,18.06v-13h1.85v13Z"/><path d="M160.77,59.47a6.79,6.79,0,0,1-2.67-.55,7.55,7.55,0,0,1-2.31-1.58,6.53,6.53,0,0,1-1.49-2.22,7,7,0,0,1-.52-2.7,6.92,6.92,0,0,1,2-5,7,7,0,0,1,5-2,7,7,0,0,1,2.73.53,7,7,0,0,1,3.86,9.14,6.73,6.73,0,0,1-1.52,2.25,7.14,7.14,0,0,1-5.07,2.13Zm.06-1.69a4.82,4.82,0,0,0,3.62-1.54,5.6,5.6,0,0,0,0-7.6,5,5,0,0,0-7.25,0,5.62,5.62,0,0,0,0,7.6A4.82,4.82,0,0,0,160.83,57.78Zm-2-14L162,38.68h2.4l-4.14,5.13Z"/><path d="M171.61,58.89v-13h1.71v2A5.4,5.4,0,0,1,175.26,46a5.54,5.54,0,0,1,2.65-.62,4.27,4.27,0,0,1,4.67,4.66v8.81h-1.83v-8a4.35,4.35,0,0,0-.81-2.89,3.14,3.14,0,0,0-2.52-1,3.62,3.62,0,0,0-3,1.23,6.12,6.12,0,0,0-1,3.84v6.78Z"/><path d="M205.51,58.89V56.52A4.7,4.7,0,0,1,201,59.47a5.71,5.71,0,0,1-4.5-1.92,7.34,7.34,0,0,1-1.71-5.07,7.56,7.56,0,0,1,1.68-5.09,5.49,5.49,0,0,1,4.35-2,5.39,5.39,0,0,1,2.85.72,4.86,4.86,0,0,1,1.86,2.13V36.19h1.83v22.7Zm-8.73-6.35a5.89,5.89,0,0,0,1.13,3.88,4,4,0,0,0,3.25,1.36,3.85,3.85,0,0,0,3.2-1.48,6.43,6.43,0,0,0,1.18-4.1,5.67,5.67,0,0,0-1.16-3.76,4.35,4.35,0,0,0-6.42.09A6.18,6.18,0,0,0,196.78,52.54Z"/><path d="M223.27,52.45H213a6.31,6.31,0,0,0,1.26,3.95,3.91,3.91,0,0,0,3.18,1.44,4.23,4.23,0,0,0,2.52-.78,5.73,5.73,0,0,0,1.8-2.34l1.65.91a7.09,7.09,0,0,1-2.44,2.91,6.38,6.38,0,0,1-3.53.93,6,6,0,0,1-4.63-1.92,7.11,7.11,0,0,1-1.76-5,7.45,7.45,0,0,1,1.75-5.16,5.84,5.84,0,0,1,4.58-2,5.52,5.52,0,0,1,4.32,1.81,6.94,6.94,0,0,1,1.62,4.82Zm-2.13-1.54a3.72,3.72,0,0,0-4-3.75,3.84,3.84,0,0,0-2.74,1,4.09,4.09,0,0,0-1.28,2.72Z"/><path d="M235.33,40.83a1.38,1.38,0,0,1,1.39-1.37,1.37,1.37,0,0,1,1,.4,1.3,1.3,0,0,1,.42,1,1.34,1.34,0,0,1-.4,1,1.37,1.37,0,0,1-1,.4,1.34,1.34,0,0,1-1-.4A1.3,1.3,0,0,1,235.33,40.83Zm.45,18.06v-13h1.87v13Z"/><path d="M242.57,58.89v-13h1.71v2A5.32,5.32,0,0,1,246.22,46a5.54,5.54,0,0,1,2.65-.62,4.27,4.27,0,0,1,4.67,4.66v8.81h-1.83v-8A4.35,4.35,0,0,0,250.9,48a3.17,3.17,0,0,0-2.52-1,3.65,3.65,0,0,0-3,1.23,6.12,6.12,0,0,0-1,3.84v6.78Z"/><path d="M258.62,58.89V47.44h-2.43V45.9h2.43V42.15c0-2.61.25-4.3.73-5.07A2.92,2.92,0,0,1,262,35.91,5.46,5.46,0,0,1,263,36a5.19,5.19,0,0,1,.82.23l-.34,1.58a3.37,3.37,0,0,0-.68-.26,2.31,2.31,0,0,0-.61-.09,1.41,1.41,0,0,0-1.35.75,6.78,6.78,0,0,0-.39,2.78V45.9h2.85v1.54h-2.85V58.89Z"/><path d="M271.86,59.47a6.78,6.78,0,0,1-2.66-.55,7.59,7.59,0,0,1-2.32-1.58,6.53,6.53,0,0,1-1.49-2.22,7.13,7.13,0,0,1-.51-2.7,7,7,0,0,1,.52-2.7,7.12,7.12,0,0,1,1.51-2.25,7,7,0,0,1,4.95-2,7,7,0,0,1,2.73.53,7.12,7.12,0,0,1,3.86,3.79,7,7,0,0,1,.53,2.68,6.87,6.87,0,0,1-.52,2.67,6.76,6.76,0,0,1-1.53,2.25,7.14,7.14,0,0,1-5.07,2.13Zm.06-1.69a4.84,4.84,0,0,0,3.63-1.54,5.63,5.63,0,0,0,0-7.6,5,5,0,0,0-7.26,0,5.65,5.65,0,0,0,0,7.6A4.83,4.83,0,0,0,271.92,57.78Z"/><path d="M284.51,48.51a8,8,0,0,1,1.95-2.39,3.66,3.66,0,0,1,2.23-.7,4,4,0,0,1,.77.07,5.16,5.16,0,0,1,.77.21l-.58,1.7a6,6,0,0,0-.61-.15,3.23,3.23,0,0,0-.61-.06,3.39,3.39,0,0,0-2.77,1.52,6.11,6.11,0,0,0-1.15,3.8v6.38H282.7v-13h1.81Z"/><path d="M294,58.89h-1.8v-13H294v2a4.72,4.72,0,0,1,1.7-1.88,4.61,4.61,0,0,1,2.44-.64,4.4,4.4,0,0,1,2.42.65A4.16,4.16,0,0,1,302.05,48,5.35,5.35,0,0,1,304,46.05a5.29,5.29,0,0,1,2.62-.63,4.27,4.27,0,0,1,3.25,1.25A4.81,4.81,0,0,1,311,50.11v8.78h-1.8V50.82a4.44,4.44,0,0,0-.79-2.87,2.83,2.83,0,0,0-2.33-1,3.16,3.16,0,0,0-2.74,1.21,6.72,6.72,0,0,0-.87,3.85v6.84h-1.78V50.82a4.59,4.59,0,0,0-.75-2.91,2.79,2.79,0,0,0-2.31-.92,3.22,3.22,0,0,0-2.8,1.23,6.53,6.53,0,0,0-.9,3.83Z"/><path d="M325.42,58.89V56.52a4.88,4.88,0,0,1-1.81,2.19,5,5,0,0,1-2.75.76,5.74,5.74,0,0,1-4.5-1.92,7.34,7.34,0,0,1-1.71-5.07,7.52,7.52,0,0,1,1.69-5.09,5.88,5.88,0,0,1,7.21-1.25,4.82,4.82,0,0,1,1.87,2.13V45.9h1.8v13Zm-8.76-6.35a5.94,5.94,0,0,0,1.13,3.88A4,4,0,0,0,321,57.78a3.9,3.9,0,0,0,3.23-1.48,6.49,6.49,0,0,0,1.18-4.1,5.62,5.62,0,0,0-1.17-3.76,4,4,0,0,0-3.21-1.37,4,4,0,0,0-3.23,1.46A6.18,6.18,0,0,0,316.66,52.54Z"/><path d="M342.16,48.27a6.9,6.9,0,0,0-1.93-.94,7.2,7.2,0,0,0-2.11-.32,5,5,0,0,0-3.85,1.55,5.81,5.81,0,0,0-1.44,4.12,5.1,5.1,0,0,0,1.49,3.77,5.19,5.19,0,0,0,3.8,1.48,6.46,6.46,0,0,0,2.13-.37,8.26,8.26,0,0,0,2.12-1.1v2a8,8,0,0,1-2.11.81,10.9,10.9,0,0,1-2.48.27,6.53,6.53,0,0,1-4.88-2,6.86,6.86,0,0,1-1.9-5,6.79,6.79,0,0,1,7.15-7.15,10.32,10.32,0,0,1,2.2.22,7.38,7.38,0,0,1,1.84.66Z"/><path d="M345.4,40.83a1.38,1.38,0,0,1,1.39-1.37,1.37,1.37,0,0,1,1,.4,1.3,1.3,0,0,1,.42,1,1.31,1.31,0,0,1-.41,1,1.44,1.44,0,0,1-2,0A1.3,1.3,0,0,1,345.4,40.83Zm.45,18.06v-13h1.86v13Z"/><path d="M358.54,59.47a6.79,6.79,0,0,1-2.67-.55,7.43,7.43,0,0,1-2.31-1.58,6.56,6.56,0,0,1-1.5-2.22,7.13,7.13,0,0,1-.51-2.7,7,7,0,0,1,.53-2.7,7,7,0,0,1,6.46-4.3,7.15,7.15,0,0,1,5,2,6.95,6.95,0,0,1,1.55,7.62,6.73,6.73,0,0,1-1.52,2.25,7.33,7.33,0,0,1-2.34,1.58A7.08,7.08,0,0,1,358.54,59.47Zm.06-1.69a4.83,4.83,0,0,0,3.62-1.54,5.6,5.6,0,0,0,0-7.6,5,5,0,0,0-7.25,0,5.62,5.62,0,0,0,0,7.6A4.82,4.82,0,0,0,358.6,57.78Zm-2-14,3.12-5.13h2.4L358,43.81Z"/><path d="M369.38,58.89v-13h1.71v2A5.4,5.4,0,0,1,373,46a5.54,5.54,0,0,1,2.65-.62,4.27,4.27,0,0,1,4.67,4.66v8.81h-1.83v-8a4.35,4.35,0,0,0-.81-2.89,3.16,3.16,0,0,0-2.52-1,3.65,3.65,0,0,0-3,1.23,6.19,6.19,0,0,0-1,3.84v6.78Z"/><path d="M392.17,56.58l1.72-1a3.19,3.19,0,0,0,3.2,2.18,2.69,2.69,0,0,0,1.82-.58,1.92,1.92,0,0,0,.67-1.54c0-1-.88-1.84-2.65-2.54l-.44-.17a8.37,8.37,0,0,1-2.87-1.66,3,3,0,0,1-.82-2.12A3.5,3.5,0,0,1,394,46.45a4.35,4.35,0,0,1,3-1.06,5,5,0,0,1,2.69.69,4,4,0,0,1,1.63,2l-1.66.92a2.64,2.64,0,0,0-1-1.4,3,3,0,0,0-1.76-.49,2.26,2.26,0,0,0-1.55.55,1.8,1.8,0,0,0-.6,1.37,1.69,1.69,0,0,0,.6,1.34,8.09,8.09,0,0,0,2.49,1.15,6.66,6.66,0,0,1,2.87,1.63,3.62,3.62,0,0,1,.74,2.43,3.55,3.55,0,0,1-1.27,2.86,5.18,5.18,0,0,1-3.43,1.07,5.27,5.27,0,0,1-2.85-.76A4.23,4.23,0,0,1,392.17,56.58Z"/><path d="M411,59.47a6.79,6.79,0,0,1-2.67-.55A7.43,7.43,0,0,1,406,57.34a6.56,6.56,0,0,1-1.5-2.22,7.13,7.13,0,0,1-.51-2.7,7,7,0,0,1,.53-2.7,7,7,0,0,1,6.46-4.3,7.15,7.15,0,0,1,5,2,6.95,6.95,0,0,1,1.55,7.62,6.73,6.73,0,0,1-1.52,2.25,7.33,7.33,0,0,1-2.34,1.58A7.08,7.08,0,0,1,411,59.47Zm.06-1.69a4.83,4.83,0,0,0,3.62-1.54,5.6,5.6,0,0,0,0-7.6,5,5,0,0,0-7.25,0,5.62,5.62,0,0,0,0,7.6A4.82,4.82,0,0,0,411.07,57.78Z"/><path d="M423.65,58.89h-1.8V36.19h1.8V48.27a4.9,4.9,0,0,1,1.85-2.13,5.86,5.86,0,0,1,7.2,1.25,7.52,7.52,0,0,1,1.69,5.09,7.34,7.34,0,0,1-1.71,5.07,5.74,5.74,0,0,1-4.5,1.92,4.67,4.67,0,0,1-4.53-2.95Zm8.73-6.35a6.13,6.13,0,0,0-1.19-4,4.34,4.34,0,0,0-6.41-.09,5.67,5.67,0,0,0-1.16,3.76,6.43,6.43,0,0,0,1.18,4.1A3.9,3.9,0,0,0,428,57.78a4,4,0,0,0,3.22-1.35A5.9,5.9,0,0,0,432.38,52.54Z"/><path d="M439.88,48.51a8.13,8.13,0,0,1,2-2.39,3.66,3.66,0,0,1,2.23-.7,4,4,0,0,1,.77.07,5.51,5.51,0,0,1,.77.21L445,47.4a5.84,5.84,0,0,0-.6-.15A3.28,3.28,0,0,0,441,48.71a6.11,6.11,0,0,0-1.15,3.8v6.38h-1.8v-13h1.8Z"/><path d="M458.69,52.45H448.36a6.31,6.31,0,0,0,1.26,3.95,3.91,3.91,0,0,0,3.18,1.44,4.19,4.19,0,0,0,2.52-.78,5.73,5.73,0,0,0,1.8-2.34l1.66.91a7.25,7.25,0,0,1-2.44,2.91,6.39,6.39,0,0,1-3.54.93,6,6,0,0,1-4.62-1.92,7.06,7.06,0,0,1-1.76-5,7.45,7.45,0,0,1,1.75-5.16,5.82,5.82,0,0,1,4.57-2,5.5,5.5,0,0,1,4.32,1.81,6.9,6.9,0,0,1,1.63,4.82Zm-2.14-1.54a3.72,3.72,0,0,0-4-3.75,3.88,3.88,0,0,0-2.75,1,4.14,4.14,0,0,0-1.28,2.72Z"/><path d="M473.06,58.89H471.2V36.19h1.86Z"/><path d="M487.58,58.89V56.52A4.74,4.74,0,0,1,483,59.47a5.72,5.72,0,0,1-4.5-1.92,7.34,7.34,0,0,1-1.71-5.07,7.52,7.52,0,0,1,1.69-5.09,5.45,5.45,0,0,1,4.34-2,5.51,5.51,0,0,1,2.87.72,4.88,4.88,0,0,1,1.87,2.13V45.9h1.8v13Zm-8.76-6.35A5.89,5.89,0,0,0,480,56.42a4,4,0,0,0,3.25,1.36,3.91,3.91,0,0,0,3.23-1.48,6.49,6.49,0,0,0,1.18-4.1,5.57,5.57,0,0,0-1.18-3.76,4,4,0,0,0-3.2-1.37A4,4,0,0,0,480,48.53,6.18,6.18,0,0,0,478.82,52.54Z"/><path d="M514,52.45H503.69A6.31,6.31,0,0,0,505,56.4a3.91,3.91,0,0,0,3.18,1.44,4.21,4.21,0,0,0,2.52-.78,5.73,5.73,0,0,0,1.8-2.34l1.65.91a7.15,7.15,0,0,1-2.43,2.91,6.44,6.44,0,0,1-3.54.93,6,6,0,0,1-4.62-1.92,7.07,7.07,0,0,1-1.77-5,7.5,7.5,0,0,1,1.75-5.16,5.84,5.84,0,0,1,4.58-2,5.5,5.5,0,0,1,4.32,1.81A6.9,6.9,0,0,1,514,52.05Zm-2.14-1.54a3.72,3.72,0,0,0-4-3.75,3.86,3.86,0,0,0-2.75,1,4.09,4.09,0,0,0-1.28,2.72Z"/><path d="M519.57,58.89h-1.8v-13h1.8v2a4.72,4.72,0,0,1,1.7-1.88,4.55,4.55,0,0,1,2.43-.64,4.37,4.37,0,0,1,2.42.65A4.18,4.18,0,0,1,527.67,48a4.91,4.91,0,0,1,4.53-2.56,4.29,4.29,0,0,1,3.25,1.25,4.81,4.81,0,0,1,1.18,3.44v8.78h-1.8V50.82a4.51,4.51,0,0,0-.78-2.87,2.84,2.84,0,0,0-2.34-1A3.13,3.13,0,0,0,529,48.2a6.72,6.72,0,0,0-.87,3.85v6.84h-1.79V50.82a4.66,4.66,0,0,0-.74-2.91,2.79,2.79,0,0,0-2.32-.92,3.23,3.23,0,0,0-2.8,1.23,6.62,6.62,0,0,0-.89,3.83Z"/><path d="M552.6,52.45H542.27a6.31,6.31,0,0,0,1.26,3.95,3.92,3.92,0,0,0,3.18,1.44,4.19,4.19,0,0,0,2.52-.78,5.65,5.65,0,0,0,1.8-2.34l1.66.91a7.25,7.25,0,0,1-2.44,2.91,6.39,6.39,0,0,1-3.54.93,6,6,0,0,1-4.62-1.92,7.06,7.06,0,0,1-1.76-5,7.45,7.45,0,0,1,1.75-5.16,5.82,5.82,0,0,1,4.57-2A5.54,5.54,0,0,1,551,47.23a6.94,6.94,0,0,1,1.62,4.82Zm-2.14-1.54a3.71,3.71,0,0,0-4-3.75,3.88,3.88,0,0,0-2.75,1,4.14,4.14,0,0,0-1.28,2.72Z"/><path d="M558.15,48.51a8.13,8.13,0,0,1,2-2.39,3.66,3.66,0,0,1,2.23-.7,4,4,0,0,1,.77.07,5.16,5.16,0,0,1,.77.21l-.59,1.7a5.26,5.26,0,0,0-.6-.15,3.31,3.31,0,0,0-.61-.06,3.42,3.42,0,0,0-2.78,1.52,6.17,6.17,0,0,0-1.15,3.8v6.38h-1.8v-13h1.8Z"/><path d="M577.23,45.9V56.64c0,1.71-.05,3-.14,3.91a6.3,6.3,0,0,1-.47,2,4.5,4.5,0,0,1-2.06,2.16,7.76,7.76,0,0,1-3.52.71,7,7,0,0,1-4-1,4.25,4.25,0,0,1-1.75-3h2.25a2.64,2.64,0,0,0,1.15,1.82,4.55,4.55,0,0,0,2.53.62,5.18,5.18,0,0,0,2.16-.43,3.14,3.14,0,0,0,1.44-1.17,3.32,3.32,0,0,0,.47-1.12,10.52,10.52,0,0,0,.13-2V56.49a4.8,4.8,0,0,1-1.83,2.19,5.23,5.23,0,0,1-2.84.79,5.48,5.48,0,0,1-4.37-1.91,7.57,7.57,0,0,1-1.63-5.11,7.51,7.51,0,0,1,1.67-5.11,5.56,5.56,0,0,1,4.42-1.92,5,5,0,0,1,2.79.8,4.47,4.47,0,0,1,1.79,2.11V45.9ZM571,47.07a3.85,3.85,0,0,0-3.18,1.45,6.11,6.11,0,0,0-1.17,4,6.12,6.12,0,0,0,1.11,3.9,3.68,3.68,0,0,0,3.07,1.4,4.12,4.12,0,0,0,3.33-1.48,5.91,5.91,0,0,0,1.25-4,5.79,5.79,0,0,0-1.17-3.85A4,4,0,0,0,571,47.07Z"/><path d="M593.19,52.45H582.86a6.31,6.31,0,0,0,1.26,3.95,3.93,3.93,0,0,0,3.18,1.44,4.19,4.19,0,0,0,2.52-.78,5.57,5.57,0,0,0,1.8-2.34l1.66.91a7.17,7.17,0,0,1-2.44,2.91,6.39,6.39,0,0,1-3.54.93,6,6,0,0,1-4.62-1.92,7.11,7.11,0,0,1-1.76-5,7.45,7.45,0,0,1,1.75-5.16,5.82,5.82,0,0,1,4.58-2,5.53,5.53,0,0,1,4.32,1.81,6.94,6.94,0,0,1,1.62,4.82Zm-2.14-1.54a4,4,0,0,0-1.18-2.77,4.07,4.07,0,0,0-2.86-1,3.88,3.88,0,0,0-2.75,1A4.19,4.19,0,0,0,583,50.91Z"/><path d="M596.94,58.89v-13h1.72v2A5.25,5.25,0,0,1,600.6,46a5.5,5.5,0,0,1,2.64-.62,4.27,4.27,0,0,1,4.67,4.66v8.81h-1.83v-8a4.35,4.35,0,0,0-.81-2.89,3.14,3.14,0,0,0-2.51-1,3.64,3.64,0,0,0-3,1.23,6.12,6.12,0,0,0-1,3.84v6.78Z"/><path d="M622.68,48.27a7,7,0,0,0-1.93-.94,7.2,7.2,0,0,0-2.11-.32,5,5,0,0,0-3.86,1.55,5.85,5.85,0,0,0-1.43,4.12,5.06,5.06,0,0,0,1.49,3.77,5.17,5.17,0,0,0,3.8,1.48,6.46,6.46,0,0,0,2.13-.37,8.05,8.05,0,0,0,2.11-1.1v2a7.71,7.71,0,0,1-2.11.81,10.81,10.81,0,0,1-2.47.27,6.53,6.53,0,0,1-4.88-2,6.86,6.86,0,0,1-1.9-5,6.79,6.79,0,0,1,7.15-7.15,10.32,10.32,0,0,1,2.2.22,7.38,7.38,0,0,1,1.84.66Z"/><path d="M625.92,40.83a1.29,1.29,0,0,1,.41-1,1.34,1.34,0,0,1,1-.4,1.37,1.37,0,0,1,1,.4,1.29,1.29,0,0,1,.41,1,1.3,1.3,0,0,1-.4,1,1.44,1.44,0,0,1-2,0A1.3,1.3,0,0,1,625.92,40.83Zm.45,18.06v-13h1.86v13Z"/><path d="M642.75,58.89V56.52a4.88,4.88,0,0,1-1.81,2.19,5,5,0,0,1-2.75.76,5.74,5.74,0,0,1-4.5-1.92A7.34,7.34,0,0,1,632,52.48a7.52,7.52,0,0,1,1.69-5.09,5.88,5.88,0,0,1,7.21-1.25,4.82,4.82,0,0,1,1.87,2.13V45.9h1.8v13ZM634,52.54a5.94,5.94,0,0,0,1.13,3.88,4,4,0,0,0,3.25,1.36,3.9,3.9,0,0,0,3.23-1.48,6.49,6.49,0,0,0,1.18-4.1,5.57,5.57,0,0,0-1.18-3.76,4.36,4.36,0,0,0-6.43.09A6.18,6.18,0,0,0,634,52.54Z"/></svg>