<svg id="fondos" xmlns="http://www.w3.org/2000/svg" viewBox="0 0 838.12 100.16"><defs><style>.cls-1{fill:#e6e6e6;}</style></defs><title>ponalsar1</title><rect class="cls-1" width="838.12" height="100.16"/><path d="M59.51,56.39V34.94H70.13v1.83H61.45v6.71h8.68v1.83H61.45v9.25h8.68v1.83Z"/><path d="M73.16,54.07l1.71-1a3.47,3.47,0,0,0,1.23,1.63,3.42,3.42,0,0,0,2,.55,2.74,2.74,0,0,0,1.82-.57,2,2,0,0,0,.67-1.55c0-1-.88-1.84-2.65-2.53l-.44-.18a8.27,8.27,0,0,1-2.87-1.66,3,3,0,0,1-.82-2.12A3.52,3.52,0,0,1,75,43.94a4.37,4.37,0,0,1,3-1.06,5,5,0,0,1,2.7.69,4,4,0,0,1,1.62,2l-1.65.92a2.66,2.66,0,0,0-1-1.4,3.09,3.09,0,0,0-1.76-.48,2.19,2.19,0,0,0-1.54.55,1.74,1.74,0,0,0-.61,1.36,1.71,1.71,0,0,0,.6,1.34A8.09,8.09,0,0,0,78.81,49a6.64,6.64,0,0,1,2.88,1.63A3.69,3.69,0,0,1,82.43,53a3.54,3.54,0,0,1-1.27,2.86A5.19,5.19,0,0,1,77.73,57a5.14,5.14,0,0,1-2.85-.76A4.18,4.18,0,0,1,73.16,54.07Z"/><path d="M86.47,44.93H84.09V43.39h2.38V38.06h1.78v5.33h2.6v1.54h-2.6V56.39H86.47Z"/><path d="M103.13,56.39V54a4.74,4.74,0,0,1-4.56,3A5.74,5.74,0,0,1,94.07,55,7.34,7.34,0,0,1,92.36,50a7.52,7.52,0,0,1,1.69-5.09,5.88,5.88,0,0,1,7.21-1.25,4.79,4.79,0,0,1,1.87,2.14V43.39h1.8v13ZM94.37,50a5.89,5.89,0,0,0,1.14,3.88,4,4,0,0,0,3.24,1.36A3.9,3.9,0,0,0,102,53.79a6.47,6.47,0,0,0,1.18-4.1A5.58,5.58,0,0,0,102,45.94a4,4,0,0,0-3.21-1.37A3.92,3.92,0,0,0,95.56,46,6.13,6.13,0,0,0,94.37,50Z"/><path d="M111.57,56.39h-1.81V33.68h1.81V45.77a4.81,4.81,0,0,1,1.85-2.14,5.86,5.86,0,0,1,7.2,1.25A7.56,7.56,0,0,1,122.3,50,7.38,7.38,0,0,1,120.6,55,5.74,5.74,0,0,1,116.09,57a4.67,4.67,0,0,1-4.52-3ZM120.3,50a6.18,6.18,0,0,0-1.19-4,4.36,4.36,0,0,0-6.42-.08,5.62,5.62,0,0,0-1.15,3.75,6.41,6.41,0,0,0,1.18,4.1A3.88,3.88,0,0,0,116,55.27a4,4,0,0,0,3.22-1.35A5.93,5.93,0,0,0,120.3,50Z"/><path d="M128,56.39h-1.86V33.68H128Z"/><path d="M144.06,49.94H133.73a6.37,6.37,0,0,0,1.26,4,3.93,3.93,0,0,0,3.18,1.43,4.29,4.29,0,0,0,2.52-.77,5.77,5.77,0,0,0,1.8-2.35l1.65.91A7.09,7.09,0,0,1,141.7,56a6.38,6.38,0,0,1-3.53.93,6,6,0,0,1-4.62-1.91,7.11,7.11,0,0,1-1.77-5,7.45,7.45,0,0,1,1.75-5.16,5.84,5.84,0,0,1,4.58-2,5.5,5.5,0,0,1,4.32,1.81,7,7,0,0,1,1.63,4.83Zm-2.14-1.54a3.72,3.72,0,0,0-4-3.75,3.84,3.84,0,0,0-2.74,1,4.09,4.09,0,0,0-1.28,2.72Z"/><path d="M157.91,45.77a6.94,6.94,0,0,0-1.93-1,7.14,7.14,0,0,0-2.11-.31A5,5,0,0,0,150,46.05a5.82,5.82,0,0,0-1.44,4.13,5.09,5.09,0,0,0,1.49,3.76,5.15,5.15,0,0,0,3.8,1.48,6.46,6.46,0,0,0,2.13-.37,8.26,8.26,0,0,0,2.12-1.1v2a8.35,8.35,0,0,1-2.11.82,10.9,10.9,0,0,1-2.48.27,6.46,6.46,0,0,1-4.87-2,6.86,6.86,0,0,1-1.91-5,6.81,6.81,0,0,1,7.15-7.15,10.24,10.24,0,0,1,2.2.23,7.24,7.24,0,0,1,1.84.65Z"/><path d="M172.65,49.94H162.32a6.37,6.37,0,0,0,1.26,4,3.93,3.93,0,0,0,3.18,1.43,4.25,4.25,0,0,0,2.52-.77,5.77,5.77,0,0,0,1.8-2.35l1.66.91A7.25,7.25,0,0,1,170.3,56a6.39,6.39,0,0,1-3.54.93,6,6,0,0,1-4.62-1.91,7.11,7.11,0,0,1-1.77-5,7.5,7.5,0,0,1,1.75-5.16,5.85,5.85,0,0,1,4.58-2A5.5,5.5,0,0,1,171,44.72a6.92,6.92,0,0,1,1.63,4.83Zm-2.14-1.54a3.71,3.71,0,0,0-4-3.75,3.86,3.86,0,0,0-2.75,1,4.14,4.14,0,0,0-1.28,2.72Z"/><path d="M178.2,46a8.13,8.13,0,0,1,2-2.39,3.66,3.66,0,0,1,2.23-.7,4,4,0,0,1,.77.07,5.51,5.51,0,0,1,.77.21l-.59,1.7a5.84,5.84,0,0,0-.6-.15,3.27,3.27,0,0,0-3.39,1.47A6.14,6.14,0,0,0,178.2,50v6.39h-1.8v-13h1.8Z"/><path d="M194.49,62.92V43.39h1.74v2.43a5.69,5.69,0,0,1,2-2.16,5,5,0,0,1,2.7-.75,5.55,5.55,0,0,1,4.41,1.93,7.47,7.47,0,0,1,1.68,5.1,7.61,7.61,0,0,1-1.64,5.11A5.47,5.47,0,0,1,201,57a5,5,0,0,1-2.77-.76,5.57,5.57,0,0,1-2-2.22v8.94ZM205,50a6.16,6.16,0,0,0-1.15-4,3.82,3.82,0,0,0-3.17-1.44A4.05,4.05,0,0,0,197.44,46a5.84,5.84,0,0,0-1.18,3.85,5.91,5.91,0,0,0,1.27,4,4.17,4.17,0,0,0,3.35,1.48,3.63,3.63,0,0,0,3.05-1.4A6.18,6.18,0,0,0,205,50Z"/><path d="M212.52,43.39v6.49a7.57,7.57,0,0,0,.85,4.18,3.21,3.21,0,0,0,2.84,1.21A3.24,3.24,0,0,0,219.07,54a7.46,7.46,0,0,0,.86-4.16V43.39h1.79v7.42a6.68,6.68,0,0,1-1.39,4.59A5.2,5.2,0,0,1,216.24,57a5.26,5.26,0,0,1-4.11-1.56,6.64,6.64,0,0,1-1.41-4.59V43.39Z"/><path d="M226.53,56.39v-13h1.71v2a5.4,5.4,0,0,1,1.94-1.87,5.54,5.54,0,0,1,2.65-.62,4.27,4.27,0,0,1,4.67,4.66v8.82h-1.83v-8a4.3,4.3,0,0,0-.82-2.89,3.12,3.12,0,0,0-2.51-.94,3.65,3.65,0,0,0-3,1.22,6.14,6.14,0,0,0-1,3.84v6.79Z"/><path d="M242.54,44.93h-2.39V43.39h2.39V38.06h1.77v5.33h2.61v1.54h-2.61V56.39h-1.77Z"/><path d="M255.5,57a6.53,6.53,0,0,1-2.66-.55,7.47,7.47,0,0,1-2.32-1.58A6.53,6.53,0,0,1,249,52.61a7,7,0,0,1,6.47-9.7,7.18,7.18,0,0,1,2.73.53,7,7,0,0,1,3.86,9.15,6.79,6.79,0,0,1-1.52,2.24,7.12,7.12,0,0,1-2.34,1.58A6.9,6.9,0,0,1,255.5,57Zm.06-1.69a4.85,4.85,0,0,0,3.63-1.54,5.62,5.62,0,0,0,0-7.6,5,5,0,0,0-7.25,0,5.62,5.62,0,0,0,0,7.6A4.82,4.82,0,0,0,255.56,55.27Z"/><path d="M264.86,54.07l1.72-1a3.19,3.19,0,0,0,3.2,2.18,2.72,2.72,0,0,0,1.82-.57,2,2,0,0,0,.67-1.55c0-1-.88-1.84-2.65-2.53l-.44-.18a8.37,8.37,0,0,1-2.87-1.66,3,3,0,0,1-.82-2.12,3.52,3.52,0,0,1,1.17-2.72,4.4,4.4,0,0,1,3-1.06,5,5,0,0,1,2.69.69,4,4,0,0,1,1.63,2l-1.66.92a2.59,2.59,0,0,0-1-1.4,3.11,3.11,0,0,0-1.76-.48,2.21,2.21,0,0,0-1.55.55,1.77,1.77,0,0,0-.61,1.36,1.71,1.71,0,0,0,.61,1.34A8.09,8.09,0,0,0,270.52,49a6.66,6.66,0,0,1,2.87,1.63,3.64,3.64,0,0,1,.74,2.43,3.54,3.54,0,0,1-1.27,2.86,5.89,5.89,0,0,1-6.28.31A4.23,4.23,0,0,1,264.86,54.07Z"/><path d="M296.06,56.39V54a4.67,4.67,0,0,1-4.52,3A5.74,5.74,0,0,1,287,55a7.33,7.33,0,0,1-1.7-5.07A7.56,7.56,0,0,1,287,44.88a5.86,5.86,0,0,1,7.2-1.25,4.81,4.81,0,0,1,1.85,2.14V33.68h1.83V56.39ZM287.33,50a5.89,5.89,0,0,0,1.14,3.88,4,4,0,0,0,3.24,1.36,3.86,3.86,0,0,0,3.21-1.48,6.47,6.47,0,0,0,1.17-4.1,5.57,5.57,0,0,0-1.16-3.75,4.35,4.35,0,0,0-6.41.08A6.18,6.18,0,0,0,287.33,50Z"/><path d="M313.83,49.94H303.51a6.3,6.3,0,0,0,1.25,4,3.94,3.94,0,0,0,3.18,1.43,4.25,4.25,0,0,0,2.52-.77,5.68,5.68,0,0,0,1.8-2.35l1.66.91A7.17,7.17,0,0,1,311.48,56a6.39,6.39,0,0,1-3.54.93,6,6,0,0,1-4.62-1.91,7.1,7.1,0,0,1-1.76-5,7.45,7.45,0,0,1,1.75-5.16,5.82,5.82,0,0,1,4.57-2,5.54,5.54,0,0,1,4.33,1.81,7,7,0,0,1,1.62,4.83Zm-2.14-1.54a3.71,3.71,0,0,0-4-3.75,3.88,3.88,0,0,0-2.75,1,4.19,4.19,0,0,0-1.28,2.72Z"/><path d="M337.39,49.94H327.06a6.37,6.37,0,0,0,1.26,4,3.93,3.93,0,0,0,3.18,1.43,4.29,4.29,0,0,0,2.52-.77,5.77,5.77,0,0,0,1.8-2.35l1.65.91A7.09,7.09,0,0,1,335,56a6.38,6.38,0,0,1-3.53.93,6,6,0,0,1-4.62-1.91,7.11,7.11,0,0,1-1.77-5,7.45,7.45,0,0,1,1.75-5.16,5.84,5.84,0,0,1,4.58-2,5.5,5.5,0,0,1,4.32,1.81,7,7,0,0,1,1.63,4.83Zm-2.14-1.54a3.72,3.72,0,0,0-4.05-3.75,3.84,3.84,0,0,0-2.74,1,4.09,4.09,0,0,0-1.28,2.72Z"/><path d="M341.14,56.39v-13h1.71v2a5.32,5.32,0,0,1,1.94-1.87,5.53,5.53,0,0,1,2.64-.62,4.27,4.27,0,0,1,4.68,4.66v8.82h-1.83v-8a4.3,4.3,0,0,0-.82-2.89,3.12,3.12,0,0,0-2.51-.94,3.65,3.65,0,0,0-3,1.22,6.14,6.14,0,0,0-1,3.84v6.79Z"/><path d="M366.87,45.77a6.94,6.94,0,0,0-1.93-1,7.14,7.14,0,0,0-2.11-.31A5,5,0,0,0,359,46.05a5.82,5.82,0,0,0-1.44,4.13A5.09,5.09,0,0,0,359,53.94a5.15,5.15,0,0,0,3.8,1.48,6.41,6.41,0,0,0,2.13-.37,8.1,8.1,0,0,0,2.12-1.1v2a8.35,8.35,0,0,1-2.11.82,10.9,10.9,0,0,1-2.48.27,6.48,6.48,0,0,1-4.87-2,6.86,6.86,0,0,1-1.91-5,6.81,6.81,0,0,1,7.15-7.15,10.41,10.41,0,0,1,2.21.23,7.3,7.3,0,0,1,1.83.65Z"/><path d="M372.25,43.39v6.49a7.67,7.67,0,0,0,.84,4.18,3.21,3.21,0,0,0,2.85,1.21A3.25,3.25,0,0,0,378.8,54a7.54,7.54,0,0,0,.86-4.16V43.39h1.79v7.42a6.68,6.68,0,0,1-1.39,4.59A5.2,5.2,0,0,1,376,57a5.27,5.27,0,0,1-4.12-1.56,6.68,6.68,0,0,1-1.4-4.59V43.39Z"/><path d="M397.42,49.94H387.09a6.37,6.37,0,0,0,1.26,4,3.93,3.93,0,0,0,3.18,1.43,4.29,4.29,0,0,0,2.52-.77,5.77,5.77,0,0,0,1.8-2.35l1.65.91A7.09,7.09,0,0,1,395.06,56a6.38,6.38,0,0,1-3.53.93,6,6,0,0,1-4.62-1.91,7.11,7.11,0,0,1-1.77-5,7.45,7.45,0,0,1,1.75-5.16,5.84,5.84,0,0,1,4.58-2,5.52,5.52,0,0,1,4.32,1.81,7,7,0,0,1,1.63,4.83Zm-2.14-1.54a3.72,3.72,0,0,0-4-3.75,3.84,3.84,0,0,0-2.74,1,4.09,4.09,0,0,0-1.28,2.72Z"/><path d="M401.17,56.39v-13h1.71v2a5.32,5.32,0,0,1,1.94-1.87,5.53,5.53,0,0,1,2.64-.62,4.27,4.27,0,0,1,4.68,4.66v8.82h-1.83v-8a4.35,4.35,0,0,0-.82-2.89,3.13,3.13,0,0,0-2.51-.94,3.63,3.63,0,0,0-3,1.22,6.14,6.14,0,0,0-1,3.84v6.79Z"/><path d="M417.18,44.93h-2.39V43.39h2.39V38.06H419v5.33h2.61v1.54H419V56.39h-1.77Z"/><path d="M426,46a7.83,7.83,0,0,1,2-2.39,3.64,3.64,0,0,1,2.23-.7A4.08,4.08,0,0,1,431,43a5.51,5.51,0,0,1,.77.21l-.59,1.7a5.44,5.44,0,0,0-.61-.15,3.23,3.23,0,0,0-.61-.06,3.38,3.38,0,0,0-2.77,1.53A6.08,6.08,0,0,0,426,50v6.39h-1.8v-13H426Z"/><path d="M439.59,57a6.62,6.62,0,0,1-2.67-.55,7.43,7.43,0,0,1-2.31-1.58,6.56,6.56,0,0,1-1.5-2.22,7.13,7.13,0,0,1-.51-2.7,7,7,0,0,1,.53-2.69A6.85,6.85,0,0,1,434.64,45a7,7,0,0,1,4.95-2.05,7.15,7.15,0,0,1,5,2.05,6.94,6.94,0,0,1,2.08,4.95,7,7,0,0,1-.53,2.68,6.79,6.79,0,0,1-1.52,2.24,7.33,7.33,0,0,1-2.34,1.58A6.9,6.9,0,0,1,439.59,57Zm.06-1.69a4.83,4.83,0,0,0,3.62-1.54,5.6,5.6,0,0,0,0-7.6,5,5,0,0,0-7.25,0,5.62,5.62,0,0,0,0,7.6A4.8,4.8,0,0,0,439.65,55.27Z"/><path d="M449,54.07l1.71-1a3.47,3.47,0,0,0,1.23,1.63,3.42,3.42,0,0,0,2,.55,2.74,2.74,0,0,0,1.82-.57,2,2,0,0,0,.67-1.55c0-1-.88-1.84-2.65-2.53l-.44-.18a8.27,8.27,0,0,1-2.87-1.66,3,3,0,0,1-.82-2.12,3.52,3.52,0,0,1,1.17-2.72,4.37,4.37,0,0,1,3-1.06,5,5,0,0,1,2.7.69,4,4,0,0,1,1.62,2l-1.65.92a2.66,2.66,0,0,0-1-1.4,3.08,3.08,0,0,0-1.75-.48,2.19,2.19,0,0,0-1.55.55,1.74,1.74,0,0,0-.61,1.36,1.71,1.71,0,0,0,.6,1.34A8.09,8.09,0,0,0,454.6,49a6.64,6.64,0,0,1,2.88,1.63,3.69,3.69,0,0,1,.74,2.43A3.54,3.54,0,0,1,457,55.89a5.89,5.89,0,0,1-6.28.31A4.18,4.18,0,0,1,449,54.07Z"/><path d="M468.75,43.39h1.92l3.72,10.17,3.43-10.17h1.92L473,62.92h-1.86l2.27-6.62Z"/><path d="M493.06,46A8,8,0,0,1,495,43.61a3.69,3.69,0,0,1,2.24-.7A3.91,3.91,0,0,1,498,43a5.16,5.16,0,0,1,.77.21l-.58,1.7a6,6,0,0,0-.61-.15,3.23,3.23,0,0,0-.61-.06,3.41,3.41,0,0,0-2.78,1.53A6.14,6.14,0,0,0,493.06,50v6.39h-1.81v-13h1.81Z"/><path d="M502.5,43.39v6.49a7.57,7.57,0,0,0,.85,4.18,3.21,3.21,0,0,0,2.84,1.21A3.24,3.24,0,0,0,509.05,54a7.44,7.44,0,0,0,.87-4.16V43.39h1.78v7.42a6.68,6.68,0,0,1-1.39,4.59A5.2,5.2,0,0,1,506.22,57a5.26,5.26,0,0,1-4.11-1.56,6.64,6.64,0,0,1-1.41-4.59V43.39Z"/><path d="M516.89,44.93H514.5V43.39h2.39V38.06h1.77v5.33h2.61v1.54h-2.61V56.39h-1.77Z"/><path d="M533.54,56.39V54A4.74,4.74,0,0,1,529,57,5.74,5.74,0,0,1,524.48,55a7.33,7.33,0,0,1-1.7-5.07,7.56,7.56,0,0,1,1.68-5.09,5.88,5.88,0,0,1,7.21-1.25,4.79,4.79,0,0,1,1.87,2.14V43.39h1.8v13ZM524.78,50a5.89,5.89,0,0,0,1.14,3.88,4,4,0,0,0,3.24,1.36,3.88,3.88,0,0,0,3.23-1.48,6.41,6.41,0,0,0,1.18-4.1,5.58,5.58,0,0,0-1.17-3.75,4,4,0,0,0-3.21-1.37A3.94,3.94,0,0,0,526,46,6.18,6.18,0,0,0,524.78,50Z"/><path d="M538.7,54.07l1.71-1a3.47,3.47,0,0,0,1.23,1.63,3.42,3.42,0,0,0,2,.55,2.74,2.74,0,0,0,1.82-.57,2,2,0,0,0,.67-1.55c0-1-.88-1.84-2.65-2.53l-.44-.18a8.27,8.27,0,0,1-2.87-1.66,3,3,0,0,1-.82-2.12,3.52,3.52,0,0,1,1.17-2.72,4.37,4.37,0,0,1,3-1.06,5,5,0,0,1,2.7.69,4,4,0,0,1,1.62,2l-1.65.92a2.61,2.61,0,0,0-1-1.4,3.05,3.05,0,0,0-1.75-.48,2.21,2.21,0,0,0-1.55.55,1.77,1.77,0,0,0-.61,1.36,1.71,1.71,0,0,0,.6,1.34A8.09,8.09,0,0,0,544.35,49a6.64,6.64,0,0,1,2.88,1.63A3.64,3.64,0,0,1,548,53a3.54,3.54,0,0,1-1.27,2.86,5.89,5.89,0,0,1-6.28.31A4.18,4.18,0,0,1,538.7,54.07Z"/><path d="M569.9,56.39V54a4.67,4.67,0,0,1-4.53,3,5.74,5.74,0,0,1-4.5-1.92A7.34,7.34,0,0,1,559.16,50a7.57,7.57,0,0,1,1.69-5.09,5.86,5.86,0,0,1,7.2-1.25,4.87,4.87,0,0,1,1.85,2.14V33.68h1.83V56.39ZM561.17,50a5.89,5.89,0,0,0,1.14,3.88,4,4,0,0,0,3.24,1.36,3.86,3.86,0,0,0,3.21-1.48,6.47,6.47,0,0,0,1.17-4.1,5.63,5.63,0,0,0-1.16-3.75,4.35,4.35,0,0,0-6.41.08A6.18,6.18,0,0,0,561.17,50Z"/><path d="M587.67,49.94H577.34a6.37,6.37,0,0,0,1.26,4,3.93,3.93,0,0,0,3.18,1.43,4.25,4.25,0,0,0,2.52-.77,5.77,5.77,0,0,0,1.8-2.35l1.66.91A7.25,7.25,0,0,1,585.32,56a6.39,6.39,0,0,1-3.54.93,6,6,0,0,1-4.62-1.91,7.11,7.11,0,0,1-1.77-5,7.5,7.5,0,0,1,1.75-5.16,5.85,5.85,0,0,1,4.58-2A5.5,5.5,0,0,1,586,44.72a6.92,6.92,0,0,1,1.63,4.83Zm-2.14-1.54a3.72,3.72,0,0,0-4-3.75,3.86,3.86,0,0,0-2.75,1,4.14,4.14,0,0,0-1.28,2.72Z"/><path d="M611.22,49.94H600.9a6.37,6.37,0,0,0,1.26,4,3.93,3.93,0,0,0,3.18,1.43,4.24,4.24,0,0,0,2.51-.77,5.7,5.7,0,0,0,1.81-2.35l1.65.91A7.09,7.09,0,0,1,608.87,56a6.38,6.38,0,0,1-3.53.93,6,6,0,0,1-4.63-1.91A7.15,7.15,0,0,1,599,50a7.45,7.45,0,0,1,1.75-5.16,5.84,5.84,0,0,1,4.58-2,5.53,5.53,0,0,1,4.32,1.81,7,7,0,0,1,1.62,4.83Zm-2.13-1.54A3.72,3.72,0,0,0,605,44.65a3.84,3.84,0,0,0-2.74,1A4.15,4.15,0,0,0,601,48.4Z"/><path d="M613,43.39h2l4,9.85,4-9.85h2l-6,13.83Z"/><path d="M637.37,56.39V54a4.74,4.74,0,0,1-4.55,3A5.74,5.74,0,0,1,628.31,55,7.34,7.34,0,0,1,626.6,50a7.57,7.57,0,0,1,1.69-5.09,5.88,5.88,0,0,1,7.21-1.25,4.79,4.79,0,0,1,1.87,2.14V43.39h1.8v13ZM628.61,50a5.89,5.89,0,0,0,1.14,3.88A4,4,0,0,0,633,55.27a3.9,3.9,0,0,0,3.23-1.48,6.41,6.41,0,0,0,1.18-4.1,5.58,5.58,0,0,0-1.17-3.75A4,4,0,0,0,633,44.57,3.92,3.92,0,0,0,629.8,46,6.18,6.18,0,0,0,628.61,50Z"/><path d="M654.11,45.77a6.94,6.94,0,0,0-1.93-1,7.14,7.14,0,0,0-2.11-.31,5,5,0,0,0-3.85,1.54,5.82,5.82,0,0,0-1.44,4.13,5.09,5.09,0,0,0,1.49,3.76,5.15,5.15,0,0,0,3.8,1.48,6.41,6.41,0,0,0,2.13-.37,8.1,8.1,0,0,0,2.12-1.1v2a8.35,8.35,0,0,1-2.11.82,10.87,10.87,0,0,1-2.47.27,6.49,6.49,0,0,1-4.88-2,6.86,6.86,0,0,1-1.91-5,6.81,6.81,0,0,1,7.15-7.15,10.41,10.41,0,0,1,2.21.23,7.3,7.3,0,0,1,1.83.65Z"/><path d="M659.49,43.39v6.49a7.67,7.67,0,0,0,.84,4.18,3.21,3.21,0,0,0,2.85,1.21A3.25,3.25,0,0,0,666,54a7.54,7.54,0,0,0,.86-4.16V43.39h1.79v7.42a6.68,6.68,0,0,1-1.39,4.59A5.2,5.2,0,0,1,663.21,57a5.28,5.28,0,0,1-4.12-1.56,6.68,6.68,0,0,1-1.4-4.59V43.39Z"/><path d="M683.09,56.39V54a4.74,4.74,0,0,1-4.56,3A5.74,5.74,0,0,1,674,55,7.34,7.34,0,0,1,672.32,50,7.52,7.52,0,0,1,674,44.88a5.88,5.88,0,0,1,7.21-1.25,4.79,4.79,0,0,1,1.87,2.14V43.39h1.8v13ZM674.33,50a5.89,5.89,0,0,0,1.14,3.88,4,4,0,0,0,3.24,1.36,3.9,3.9,0,0,0,3.23-1.48,6.41,6.41,0,0,0,1.18-4.1A5.58,5.58,0,0,0,682,45.94a4,4,0,0,0-3.21-1.37A3.92,3.92,0,0,0,675.52,46,6.18,6.18,0,0,0,674.33,50Z"/><path d="M699.83,45.77a6.94,6.94,0,0,0-1.93-1,7.14,7.14,0,0,0-2.11-.31,5,5,0,0,0-3.85,1.54,5.82,5.82,0,0,0-1.44,4.13A5.09,5.09,0,0,0,692,53.94a5.15,5.15,0,0,0,3.8,1.48,6.46,6.46,0,0,0,2.13-.37A8.26,8.26,0,0,0,700,54v2a8.35,8.35,0,0,1-2.11.82,10.9,10.9,0,0,1-2.48.27,6.46,6.46,0,0,1-4.87-2,6.86,6.86,0,0,1-1.91-5,6.81,6.81,0,0,1,7.15-7.15,10.24,10.24,0,0,1,2.2.23,7.24,7.24,0,0,1,1.84.65Z"/><path d="M703.07,38.32A1.38,1.38,0,0,1,704.46,37a1.37,1.37,0,0,1,1,.4,1.3,1.3,0,0,1,.42,1,1.37,1.37,0,0,1-.4,1,1.4,1.4,0,0,1-1,.39,1.37,1.37,0,0,1-1-.39A1.33,1.33,0,0,1,703.07,38.32Zm.45,18.07v-13h1.86v13Z"/><path d="M716.21,57a6.62,6.62,0,0,1-2.67-.55,7.43,7.43,0,0,1-2.31-1.58,6.53,6.53,0,0,1-1.49-2.22,7.18,7.18,0,0,1,0-5.39A6.85,6.85,0,0,1,711.26,45a7,7,0,0,1,5-2.05,7.18,7.18,0,0,1,2.73.53A7,7,0,0,1,721.25,45a6.94,6.94,0,0,1,2.08,4.95,7,7,0,0,1-.53,2.68,6.79,6.79,0,0,1-1.52,2.24,7.22,7.22,0,0,1-2.34,1.58A6.9,6.9,0,0,1,716.21,57Zm.06-1.69a4.83,4.83,0,0,0,3.62-1.54,5.6,5.6,0,0,0,0-7.6,5,5,0,0,0-7.25,0,5.62,5.62,0,0,0,0,7.6A4.82,4.82,0,0,0,716.27,55.27Zm-1.95-14,3.12-5.13h2.4L715.7,41.3Z"/><path d="M727.05,56.39v-13h1.71v2a5.4,5.4,0,0,1,1.94-1.87,5.54,5.54,0,0,1,2.65-.62A4.27,4.27,0,0,1,738,47.57v8.82h-1.83v-8a4.35,4.35,0,0,0-.81-2.89,3.14,3.14,0,0,0-2.52-.94,3.61,3.61,0,0,0-3,1.22,6.07,6.07,0,0,0-1,3.84v6.79Z"/></svg>