<svg id="fondos" xmlns="http://www.w3.org/2000/svg" viewBox="0 0 838.12 100.16"><defs><style>.cls-1{fill:#e6e6e6;}</style></defs><title>ponalsar3</title><rect class="cls-1" width="838.12" height="100.16"/><path d="M65,58.51,56.58,36.23h2.24L65,53.69l6.5-17.46h2.14Z"/><path d="M85.29,51.23H75a6.34,6.34,0,0,0,1.26,4,3.91,3.91,0,0,0,3.18,1.44,4.23,4.23,0,0,0,2.52-.78,5.8,5.8,0,0,0,1.8-2.34l1.65.9a7.09,7.09,0,0,1-2.44,2.91,6.38,6.38,0,0,1-3.53.93,6,6,0,0,1-4.62-1.91,7.09,7.09,0,0,1-1.77-5,7.43,7.43,0,0,1,1.75-5.15,5.85,5.85,0,0,1,4.58-2A5.53,5.53,0,0,1,83.66,46a6.94,6.94,0,0,1,1.63,4.83Zm-2.14-1.54a3.72,3.72,0,0,0-4.05-3.75,3.88,3.88,0,0,0-2.74,1,4.14,4.14,0,0,0-1.28,2.73Z"/><path d="M90.84,47.29a7.84,7.84,0,0,1,2-2.39A3.69,3.69,0,0,1,95,44.19a4.11,4.11,0,0,1,.77.08,7.27,7.27,0,0,1,.77.2L96,46.17a4.15,4.15,0,0,0-.61-.14,3.23,3.23,0,0,0-.61-.06A3.38,3.38,0,0,0,92,47.49a6.1,6.1,0,0,0-1.15,3.79v6.39H89v-13h1.8Z"/><path d="M98.15,39.61a1.27,1.27,0,0,1,.41-1,1.34,1.34,0,0,1,1-.41,1.38,1.38,0,0,1,1,.41,1.28,1.28,0,0,1,.42,1,1.31,1.31,0,0,1-.41,1,1.44,1.44,0,0,1-2,0A1.3,1.3,0,0,1,98.15,39.61Zm.45,18.06v-13h1.86v13Z"/><path d="M105.81,57.67V46.22h-2.43V44.68h2.43V40.93c0-2.61.24-4.3.73-5.08a2.93,2.93,0,0,1,2.68-1.16,5.64,5.64,0,0,1,.93.08A4.31,4.31,0,0,1,111,35l-.34,1.58a3.69,3.69,0,0,0-.68-.27,2.84,2.84,0,0,0-.61-.08A1.4,1.4,0,0,0,108,37a6.75,6.75,0,0,0-.39,2.78v4.92h2.85v1.54H107.6V57.67Z"/><path d="M112.81,39.61a1.31,1.31,0,0,1,.41-1,1.36,1.36,0,0,1,1-.41,1.38,1.38,0,0,1,1,.41,1.28,1.28,0,0,1,.42,1,1.34,1.34,0,0,1-.4,1,1.41,1.41,0,0,1-1,.4,1.38,1.38,0,0,1-1-.4A1.3,1.3,0,0,1,112.81,39.61Zm.45,18.06v-13h1.87v13Z"/><path d="M130.16,47.05a7,7,0,0,0-1.94-.94,7.1,7.1,0,0,0-2.11-.32,5,5,0,0,0-3.85,1.55,5.79,5.79,0,0,0-1.44,4.12,5.08,5.08,0,0,0,1.49,3.76,5.15,5.15,0,0,0,3.8,1.48,6.62,6.62,0,0,0,2.13-.36,8.42,8.42,0,0,0,2.12-1.1v2a7.84,7.84,0,0,1-2.11.81,10.9,10.9,0,0,1-2.48.27,6.51,6.51,0,0,1-4.87-1.95,6.9,6.9,0,0,1-1.91-5,6.82,6.82,0,0,1,7.15-7.15,10.41,10.41,0,0,1,2.21.23,7.3,7.3,0,0,1,1.83.65Z"/><path d="M143.32,57.67V55.3a4.88,4.88,0,0,1-1.81,2.19,4.93,4.93,0,0,1-2.74.75,5.74,5.74,0,0,1-4.51-1.92,7.37,7.37,0,0,1-1.7-5.06,7.56,7.56,0,0,1,1.68-5.09,5.45,5.45,0,0,1,4.35-2,5.51,5.51,0,0,1,2.87.73,4.75,4.75,0,0,1,1.86,2.13V44.68h1.81v13Zm-8.76-6.36a5.92,5.92,0,0,0,1.14,3.89,4,4,0,0,0,3.24,1.36,3.89,3.89,0,0,0,3.23-1.49A6.38,6.38,0,0,0,143.35,51a5.6,5.6,0,0,0-1.17-3.76A4,4,0,0,0,139,45.85a4,4,0,0,0-3.22,1.46A6.15,6.15,0,0,0,134.56,51.31Z"/><path d="M151.76,47.29a7.85,7.85,0,0,1,2-2.39,3.66,3.66,0,0,1,2.23-.71,4.11,4.11,0,0,1,.77.08,6.69,6.69,0,0,1,.77.2l-.59,1.7a3.75,3.75,0,0,0-.6-.14,3.31,3.31,0,0,0-.61-.06,3.38,3.38,0,0,0-2.78,1.52,6.1,6.1,0,0,0-1.15,3.79v6.39H150v-13h1.8Z"/><path d="M178.16,47.05a7,7,0,0,0-1.94-.94,7.1,7.1,0,0,0-2.11-.32,5,5,0,0,0-3.85,1.55,5.83,5.83,0,0,0-1.43,4.12,5.07,5.07,0,0,0,1.48,3.76,5.15,5.15,0,0,0,3.8,1.48,6.72,6.72,0,0,0,2.14-.36,8.53,8.53,0,0,0,2.11-1.1v2a7.84,7.84,0,0,1-2.11.81,10.81,10.81,0,0,1-2.47.27,6.53,6.53,0,0,1-4.88-1.95,6.9,6.9,0,0,1-1.9-5,6.81,6.81,0,0,1,7.14-7.15,10.41,10.41,0,0,1,2.21.23,7.38,7.38,0,0,1,1.84.65Z"/><path d="M187.64,58.24a6.62,6.62,0,0,1-2.67-.55,7.4,7.4,0,0,1-2.31-1.57,6.55,6.55,0,0,1-1.5-2.23,7.11,7.11,0,0,1-.51-2.69,6.86,6.86,0,0,1,2-5A6.89,6.89,0,0,1,185,44.72a7,7,0,0,1,2.69-.53,7.25,7.25,0,0,1,2.73.53,7.21,7.21,0,0,1,3.85,3.8,6.79,6.79,0,0,1,.54,2.68,6.91,6.91,0,0,1-.53,2.67,6.71,6.71,0,0,1-1.53,2.25,7.15,7.15,0,0,1-2.33,1.57A7,7,0,0,1,187.64,58.24Zm.05-1.68A4.85,4.85,0,0,0,191.32,55a5.59,5.59,0,0,0,0-7.59,4.84,4.84,0,0,0-3.64-1.54,4.79,4.79,0,0,0-3.61,1.54,5.61,5.61,0,0,0,0,7.59A4.8,4.8,0,0,0,187.69,56.56Z"/><path d="M198.48,57.67v-13h1.71v2a5.21,5.21,0,0,1,1.94-1.86,5.42,5.42,0,0,1,2.64-.63,4.28,4.28,0,0,1,4.68,4.66v8.82h-1.83v-8a4.35,4.35,0,0,0-.82-2.89,3.14,3.14,0,0,0-2.51-1,3.66,3.66,0,0,0-3,1.22,6.17,6.17,0,0,0-1,3.85v6.78Z"/><path d="M223.73,57.67V55.3a4.9,4.9,0,0,1-1.8,2.2,5,5,0,0,1-2.73.74,5.74,5.74,0,0,1-4.5-1.92A7.33,7.33,0,0,1,213,51.26a7.52,7.52,0,0,1,1.69-5.09,5.83,5.83,0,0,1,7.2-1.25,4.79,4.79,0,0,1,1.85,2.13V35h1.83v22.7ZM215,51.31a6,6,0,0,0,1.13,3.89,4,4,0,0,0,3.25,1.36,3.87,3.87,0,0,0,3.21-1.49A6.44,6.44,0,0,0,223.76,51a5.65,5.65,0,0,0-1.16-3.76,4.35,4.35,0,0,0-6.42.09A6.15,6.15,0,0,0,215,51.31Z"/><path d="M230,39.61a1.31,1.31,0,0,1,.41-1,1.34,1.34,0,0,1,1-.41,1.38,1.38,0,0,1,1,.41,1.28,1.28,0,0,1,.42,1,1.31,1.31,0,0,1-.41,1,1.44,1.44,0,0,1-2,0A1.3,1.3,0,0,1,230,39.61Zm.45,18.06v-13h1.86v13Z"/><path d="M247.34,47.05a6.9,6.9,0,0,0-1.93-.94,7.15,7.15,0,0,0-2.11-.32,5,5,0,0,0-3.85,1.55A5.79,5.79,0,0,0,238,51.46a5.08,5.08,0,0,0,1.49,3.76,5.15,5.15,0,0,0,3.8,1.48,6.71,6.71,0,0,0,2.13-.36,8.59,8.59,0,0,0,2.12-1.1v2a8,8,0,0,1-2.11.81,10.9,10.9,0,0,1-2.48.27,6.49,6.49,0,0,1-4.87-1.95,6.9,6.9,0,0,1-1.91-5,6.82,6.82,0,0,1,7.15-7.15,10.31,10.31,0,0,1,2.2.23,7.24,7.24,0,0,1,1.84.65Z"/><path d="M250.58,39.61a1.31,1.31,0,0,1,.41-1,1.34,1.34,0,0,1,1-.41,1.38,1.38,0,0,1,1,.41,1.28,1.28,0,0,1,.42,1,1.34,1.34,0,0,1-.4,1,1.41,1.41,0,0,1-1,.4,1.38,1.38,0,0,1-1-.4A1.3,1.3,0,0,1,250.58,39.61ZM251,57.67v-13h1.86v13Z"/><path d="M263.72,58.24a6.62,6.62,0,0,1-2.67-.55,7.4,7.4,0,0,1-2.31-1.57,6.67,6.67,0,0,1-1.49-2.23,6.93,6.93,0,0,1-.52-2.69,7,7,0,0,1,.53-2.7,6.7,6.7,0,0,1,1.51-2.25A6.79,6.79,0,0,1,261,44.72a7,7,0,0,1,2.68-.53,7.18,7.18,0,0,1,2.73.53,6.94,6.94,0,0,1,2.34,11.4,7.19,7.19,0,0,1-2.34,1.57A6.9,6.9,0,0,1,263.72,58.24Zm.06-1.68A4.84,4.84,0,0,0,267.4,55a5.59,5.59,0,0,0,0-7.59,5,5,0,0,0-7.25,0,5.61,5.61,0,0,0,0,7.59A4.82,4.82,0,0,0,263.78,56.56Z"/><path d="M274.56,57.67v-13h1.71v2a5.29,5.29,0,0,1,1.94-1.86,5.44,5.44,0,0,1,2.65-.63,4.28,4.28,0,0,1,4.67,4.66v8.82H283.7v-8a4.35,4.35,0,0,0-.81-2.89,3.16,3.16,0,0,0-2.52-1,3.64,3.64,0,0,0-3,1.22,6.11,6.11,0,0,0-1,3.85v6.78Z"/><path d="M301.35,51.23H291a6.34,6.34,0,0,0,1.26,4,3.92,3.92,0,0,0,3.18,1.44,4.19,4.19,0,0,0,2.52-.78,5.71,5.71,0,0,0,1.8-2.34l1.66.9A7.25,7.25,0,0,1,299,57.31a6.39,6.39,0,0,1-3.54.93,6,6,0,0,1-4.62-1.91,7.09,7.09,0,0,1-1.76-5,7.43,7.43,0,0,1,1.75-5.15,5.82,5.82,0,0,1,4.57-2A5.57,5.57,0,0,1,299.73,46a7,7,0,0,1,1.62,4.83Zm-2.14-1.54a3.71,3.71,0,0,0-4-3.75,3.92,3.92,0,0,0-2.75,1,4.19,4.19,0,0,0-1.28,2.73Z"/><path d="M303.62,55.36l1.72-1A3.39,3.39,0,0,0,306.57,56a3.44,3.44,0,0,0,2,.55,2.67,2.67,0,0,0,1.82-.58,1.94,1.94,0,0,0,.67-1.55c0-1-.88-1.84-2.65-2.53l-.44-.18a8.21,8.21,0,0,1-2.87-1.66,2.94,2.94,0,0,1-.82-2.12,3.5,3.5,0,0,1,1.17-2.71,4.35,4.35,0,0,1,3-1.06,5,5,0,0,1,2.69.68,4.07,4.07,0,0,1,1.63,2l-1.66.92a2.62,2.62,0,0,0-1-1.41,3.11,3.11,0,0,0-1.76-.48,2.21,2.21,0,0,0-1.55.55,1.79,1.79,0,0,0-.61,1.37,1.69,1.69,0,0,0,.61,1.33,8,8,0,0,0,2.49,1.16,6.66,6.66,0,0,1,2.87,1.63,3.6,3.6,0,0,1,.74,2.43,3.52,3.52,0,0,1-1.27,2.85,5.12,5.12,0,0,1-3.43,1.07,5.27,5.27,0,0,1-2.85-.75A4.28,4.28,0,0,1,303.62,55.36Z"/><path d="M334.82,57.67V55.3a4.9,4.9,0,0,1-1.8,2.2,5,5,0,0,1-2.72.74,5.74,5.74,0,0,1-4.51-1.92,7.32,7.32,0,0,1-1.7-5.06,7.56,7.56,0,0,1,1.68-5.09,5.83,5.83,0,0,1,7.2-1.25,4.79,4.79,0,0,1,1.85,2.13V35h1.83v22.7Zm-8.73-6.36a5.92,5.92,0,0,0,1.14,3.89,4,4,0,0,0,3.24,1.36,3.87,3.87,0,0,0,3.21-1.49A6.44,6.44,0,0,0,334.85,51a5.6,5.6,0,0,0-1.16-3.76,4.34,4.34,0,0,0-6.41.09A6.15,6.15,0,0,0,326.09,51.31Z"/><path d="M352.59,51.23H342.26a6.34,6.34,0,0,0,1.26,4,3.92,3.92,0,0,0,3.18,1.44,4.19,4.19,0,0,0,2.52-.78A5.71,5.71,0,0,0,351,53.5l1.66.9a7.25,7.25,0,0,1-2.44,2.91,6.39,6.39,0,0,1-3.54.93,6,6,0,0,1-4.62-1.91,7.09,7.09,0,0,1-1.76-5,7.43,7.43,0,0,1,1.75-5.15,5.82,5.82,0,0,1,4.57-2A5.57,5.57,0,0,1,351,46a7,7,0,0,1,1.62,4.83Zm-2.14-1.54a3.71,3.71,0,0,0-4-3.75,3.92,3.92,0,0,0-2.75,1,4.19,4.19,0,0,0-1.28,2.73Z"/><path d="M363.51,55.36l1.71-1A3.39,3.39,0,0,0,366.45,56a3.49,3.49,0,0,0,2,.55,2.66,2.66,0,0,0,1.81-.58,1.94,1.94,0,0,0,.68-1.55c0-1-.89-1.84-2.66-2.53l-.43-.18A8.18,8.18,0,0,1,365,50.06a3,3,0,0,1-.82-2.12,3.47,3.47,0,0,1,1.18-2.71,4.32,4.32,0,0,1,3-1.06,5,5,0,0,1,2.69.68,4,4,0,0,1,1.63,2l-1.65.92a2.68,2.68,0,0,0-1-1.41,3.09,3.09,0,0,0-1.76-.48,2.23,2.23,0,0,0-1.55.55,1.78,1.78,0,0,0-.6,1.37,1.69,1.69,0,0,0,.6,1.33,8,8,0,0,0,2.49,1.16A6.71,6.71,0,0,1,372,51.89a3.66,3.66,0,0,1,.74,2.43,3.53,3.53,0,0,1-1.28,2.85,5.11,5.11,0,0,1-3.42,1.07,5.22,5.22,0,0,1-2.85-.75A4.22,4.22,0,0,1,363.51,55.36Z"/><path d="M387.6,51.23H377.27a6.34,6.34,0,0,0,1.26,4,3.92,3.92,0,0,0,3.18,1.44,4.19,4.19,0,0,0,2.52-.78A5.71,5.71,0,0,0,386,53.5l1.66.9a7.25,7.25,0,0,1-2.44,2.91,6.39,6.39,0,0,1-3.54.93,6,6,0,0,1-4.62-1.91,7.09,7.09,0,0,1-1.76-5,7.43,7.43,0,0,1,1.75-5.15,5.82,5.82,0,0,1,4.57-2A5.57,5.57,0,0,1,386,46a7,7,0,0,1,1.62,4.83Zm-2.14-1.54a3.71,3.71,0,0,0-4-3.75,3.92,3.92,0,0,0-2.75,1,4.19,4.19,0,0,0-1.28,2.73Z"/><path d="M402.78,44.68V55.42c0,1.7,0,3-.14,3.91a6.63,6.63,0,0,1-.46,2,4.44,4.44,0,0,1-2.07,2.16,7.63,7.63,0,0,1-3.52.71,7,7,0,0,1-4-1,4.27,4.27,0,0,1-1.75-3h2.26A2.62,2.62,0,0,0,394.21,62a4.58,4.58,0,0,0,2.53.61,5.34,5.34,0,0,0,2.16-.42A3.21,3.21,0,0,0,400.34,61a3.41,3.41,0,0,0,.47-1.12,10.41,10.41,0,0,0,.14-2V55.27a4.79,4.79,0,0,1-1.84,2.18,5.14,5.14,0,0,1-2.84.79,5.47,5.47,0,0,1-4.37-1.9,7.59,7.59,0,0,1-1.63-5.11,7.51,7.51,0,0,1,1.67-5.11,5.56,5.56,0,0,1,4.42-1.93,5.08,5.08,0,0,1,2.79.8,4.51,4.51,0,0,1,1.8,2.12V44.68Zm-6.21,1.17a3.89,3.89,0,0,0-3.19,1.44,6.15,6.15,0,0,0-1.16,4,6.11,6.11,0,0,0,1.1,3.9,3.71,3.71,0,0,0,3.07,1.4,4.15,4.15,0,0,0,3.33-1.48,6,6,0,0,0,1.26-4,5.75,5.75,0,0,0-1.18-3.85A4,4,0,0,0,396.57,45.85Z"/><path d="M409.38,44.68v6.49a7.55,7.55,0,0,0,.85,4.17,3.93,3.93,0,0,0,5.7,0,7.47,7.47,0,0,0,.87-4.16V44.68h1.78v7.41a6.68,6.68,0,0,1-1.39,4.59,6.17,6.17,0,0,1-8.2,0,6.64,6.64,0,0,1-1.41-4.59V44.68Z"/><path d="M425.19,47.29a7.85,7.85,0,0,1,2-2.39,3.64,3.64,0,0,1,2.23-.71,4.11,4.11,0,0,1,.77.08,7.27,7.27,0,0,1,.77.2l-.59,1.7a3.88,3.88,0,0,0-.61-.14,3.23,3.23,0,0,0-.61-.06,3.36,3.36,0,0,0-2.77,1.52,6.1,6.1,0,0,0-1.15,3.79v6.39h-1.8v-13h1.8Z"/><path d="M432.5,39.61a1.31,1.31,0,0,1,.41-1,1.34,1.34,0,0,1,1-.41,1.38,1.38,0,0,1,1,.41,1.28,1.28,0,0,1,.42,1,1.31,1.31,0,0,1-.41,1,1.44,1.44,0,0,1-2,0A1.3,1.3,0,0,1,432.5,39.61ZM433,57.67v-13h1.86v13Z"/><path d="M449.36,57.67V55.3a4.9,4.9,0,0,1-1.8,2.2,5,5,0,0,1-2.73.74,5.74,5.74,0,0,1-4.5-1.92,7.33,7.33,0,0,1-1.71-5.06,7.52,7.52,0,0,1,1.69-5.09,5.83,5.83,0,0,1,7.2-1.25,4.79,4.79,0,0,1,1.85,2.13V35h1.83v22.7Zm-8.73-6.36a6,6,0,0,0,1.13,3.89A4,4,0,0,0,445,56.56a3.88,3.88,0,0,0,3.21-1.49A6.44,6.44,0,0,0,449.39,51a5.65,5.65,0,0,0-1.16-3.76,4.34,4.34,0,0,0-6.41.09A6.1,6.1,0,0,0,440.63,51.31Z"/><path d="M465.56,57.67V55.3a4.88,4.88,0,0,1-1.81,2.19,4.93,4.93,0,0,1-2.74.75,5.74,5.74,0,0,1-4.51-1.92,7.33,7.33,0,0,1-1.71-5.06,7.52,7.52,0,0,1,1.69-5.09,5.84,5.84,0,0,1,7.21-1.25,4.71,4.71,0,0,1,1.87,2.13V44.68h1.8v13Zm-8.76-6.36a5.92,5.92,0,0,0,1.14,3.89,4,4,0,0,0,3.24,1.36,3.91,3.91,0,0,0,3.23-1.49A6.38,6.38,0,0,0,465.59,51a5.6,5.6,0,0,0-1.17-3.76,4,4,0,0,0-3.21-1.37A3.93,3.93,0,0,0,458,47.31,6.15,6.15,0,0,0,456.8,51.31Z"/><path d="M481.82,57.67V55.3a4.9,4.9,0,0,1-1.8,2.2,5,5,0,0,1-2.73.74,5.74,5.74,0,0,1-4.5-1.92,7.33,7.33,0,0,1-1.71-5.06,7.52,7.52,0,0,1,1.69-5.09,5.83,5.83,0,0,1,7.2-1.25,4.79,4.79,0,0,1,1.85,2.13V35h1.83v22.7Zm-8.73-6.36a5.92,5.92,0,0,0,1.14,3.89,4,4,0,0,0,3.24,1.36,3.87,3.87,0,0,0,3.21-1.49A6.44,6.44,0,0,0,481.85,51a5.65,5.65,0,0,0-1.16-3.76,4.34,4.34,0,0,0-6.41.09A6.15,6.15,0,0,0,473.09,51.31Z"/></svg>