<svg xmlns="http://www.w3.org/2000/svg" viewBox="0 0 409.99 428.46"><defs><style>.cls-1{isolation:isolate;}.cls-2{fill:#fff;}.cls-3{fill:#301404;opacity:0.25;mix-blend-mode:multiply;}.cls-4{fill:#d31c25;}.cls-5{fill:#4d4d4d;}.cls-6{fill:gray;}.cls-7{fill:none;stroke:#666;stroke-miterlimit:10;stroke-width:2px;}.cls-8{fill:#ff4335;}.cls-9{fill:#9e151c;}</style></defs><title>refuerzos</title><g class="cls-1"><g id="Capa_2" data-name="Capa 2"><g id="ALERTAS"><path class="cls-2" d="M394.25,0H15.74A15.74,15.74,0,0,0,0,15.74V244.65A15.75,15.75,0,0,0,15.74,260.4H172.26l32,55.4,32-55.4h158A15.75,15.75,0,0,0,410,244.65V15.74A15.74,15.74,0,0,0,394.25,0Z"/><ellipse class="cls-3" cx="205.92" cy="405.37" rx="85.88" ry="23.09"/><path class="cls-4" d="M9.46,156.26H400.53a0,0,0,0,1,0,0v76.86a18.17,18.17,0,0,1-18.17,18.17H27.62A18.17,18.17,0,0,1,9.46,233.12V156.26a0,0,0,0,1,0,0Z"/><ellipse class="cls-5" cx="205.67" cy="120.96" rx="56.69" ry="24.94"/><rect class="cls-5" x="148.98" y="113.08" width="113.37" height="7.79"/><ellipse class="cls-6" cx="205.67" cy="112.17" rx="56.69" ry="24.94"/><ellipse class="cls-7" cx="205.67" cy="112.17" rx="52.8" ry="21.06"/><ellipse class="cls-4" cx="206.41" cy="113.17" rx="47.32" ry="14.17"/><polygon class="cls-4" points="159.09 113.08 171.03 45.29 241.8 45.29 253.73 113.08 159.09 113.08"/><ellipse class="cls-4" cx="206.41" cy="45.38" rx="35.39" ry="14.17"/><path class="cls-8" d="M206.41,56.23c-9,0-17.49-1.39-23.79-3.91-5.11-2-8.28-4.71-8.28-6.94s3.17-4.9,8.28-7c6.3-2.52,14.75-3.91,23.79-3.91s17.49,1.39,23.79,3.91c5.11,2,8.28,4.71,8.28,7s-3.17,4.89-8.28,6.94C223.9,54.84,215.45,56.23,206.41,56.23Z"/><path class="cls-8" d="M172.35,54.24l-9.61,57s-.53,7.62,25,9.7l8.8-59.09S181.63,61,172.35,54.24Z"/><circle class="cls-9" cx="218.48" cy="114.4" r="5.64"/><path class="cls-9" d="M211.1,67.9l1.74,29.84a5.75,5.75,0,0,0,5.38,5.81,5.64,5.64,0,0,0,5.9-5.63l1.74-30a2.54,2.54,0,0,0-2.54-2.53h-9.69A2.53,2.53,0,0,0,211.1,67.9Z"/><circle class="cls-2" cx="221.58" cy="112.08" r="5.64"/><path class="cls-2" d="M214.21,65.57l1.73,29.84a5.75,5.75,0,0,0,5.39,5.81,5.64,5.64,0,0,0,5.9-5.63l1.73-30A2.53,2.53,0,0,0,226.43,63h-9.69A2.53,2.53,0,0,0,214.21,65.57Z"/><path class="cls-2" d="M121.16,201.78V172.07h6.35v24.31h10.15v5.4Z"/><path class="cls-2" d="M143.32,201.78V172.07h6.35v24.31h10.14v5.4Z"/><path class="cls-2" d="M161.94,201.78l11.3-29.71h7.26L192,201.78h-7.22l-2.41-6.31h-11.5l-2.07,6.31Zm18.91-11.3-3.33-9.6a14.57,14.57,0,0,1-.36-1.46c-.15-.69-.31-1.54-.47-2.54-.18,1-.35,1.83-.51,2.59s-.28,1.27-.36,1.53l-3.21,9.48Z"/><path class="cls-2" d="M194.17,201.78l4.53-29.71h6.65l5.72,17.49a12.63,12.63,0,0,1,.4,1.6c.14.71.27,1.51.4,2.42.1-.92.22-1.74.36-2.47a10.75,10.75,0,0,1,.39-1.59l5.82-17.45H225l4.54,29.71h-6l-2.17-17.92q-.24-2-.33-3c0-.68-.08-1.31-.08-1.89,0-.31,0-.54,0-.7s0-.29,0-.41c-.2,1.16-.39,2.16-.57,3s-.35,1.48-.5,1.92l-6.29,19H210l-6.19-19c0-.18-.17-.67-.35-1.46s-.44-2-.76-3.49v.87a44,44,0,0,1-.37,5.07l0,.08-2.15,17.92Z"/><path class="cls-2" d="M231.79,201.78l11.3-29.71h7.26l11.46,29.71h-7.22l-2.41-6.31H240.67l-2.07,6.31Zm18.9-11.3-3.32-9.6a13.88,13.88,0,0,1-.37-1.46c-.15-.69-.3-1.54-.47-2.54-.17,1-.34,1.83-.5,2.59s-.29,1.27-.37,1.53l-3.2,9.48Z"/><path class="cls-2" d="M288.08,201.78h-7.32L273,187.9v13.88H266.6V172.07h9.09q5.42,0,8.11,2.1t2.7,6.32a7.82,7.82,0,0,1-1.85,5.24,7.17,7.17,0,0,1-4.76,2.53ZM273,184.73h.95c2.57,0,4.27-.28,5.09-.84a3.28,3.28,0,0,0,1.24-2.93,3.5,3.5,0,0,0-1.33-3.11c-.88-.62-2.55-.93-5-.93H273Z"/><path class="cls-2" d="M135,232.18H129.9l-5.38-9.58v9.58h-4.39v-20.5h6.28a9,9,0,0,1,5.59,1.45,5.17,5.17,0,0,1,1.87,4.36,5.41,5.41,0,0,1-1.28,3.62,5,5,0,0,1-3.29,1.75Zm-10.44-11.76h.65a7,7,0,0,0,3.52-.58,2.26,2.26,0,0,0,.85-2,2.4,2.4,0,0,0-.92-2.15,6.46,6.46,0,0,0-3.45-.64h-.65Z"/><path class="cls-2" d="M138.65,232.18v-20.5h12.07v3.7H143v4.21h7.69v3.73H143v5.14h7.69v3.72Z"/><path class="cls-2" d="M156.16,232.18v-20.5h12.07v3.7h-7.68v4.21h7.68v3.73h-7.68v8.86Z"/><path class="cls-2" d="M190.39,211.68v12.76c0,2.78-.73,4.85-2.2,6.23s-3.67,2.05-6.62,2.05-5.23-.68-6.69-2.05-2.2-3.45-2.2-6.23V211.68H177v12.07a5.66,5.66,0,0,0,1.13,3.82,4.2,4.2,0,0,0,3.34,1.28,4.31,4.31,0,0,0,3.39-1.29,5.6,5.6,0,0,0,1.15-3.81V211.68Z"/><path class="cls-2" d="M196.07,232.18v-20.5h12.07v3.7h-7.69v4.21h7.69v3.73h-7.69v5.14h7.69v3.72Z"/><path class="cls-2" d="M228.41,232.18h-5.06L218,222.6v9.58h-4.39v-20.5h6.28a9,9,0,0,1,5.59,1.45,5.17,5.17,0,0,1,1.87,4.36,5.41,5.41,0,0,1-1.28,3.62,5,5,0,0,1-3.29,1.75ZM218,220.42h.65a7,7,0,0,0,3.52-.58,2.26,2.26,0,0,0,.85-2,2.4,2.4,0,0,0-.92-2.15,6.46,6.46,0,0,0-3.45-.64H218Z"/><path class="cls-2" d="M247.09,232.18h-17.2l10.61-17H231v-3.5h16.55l-10.61,17h10.17Z"/><path class="cls-2" d="M272.4,222a10.61,10.61,0,0,1-.82,4.16,10.18,10.18,0,0,1-2.35,3.45,11.54,11.54,0,0,1-3.6,2.33,11,11,0,0,1-7.82.18,11.6,11.6,0,0,1-3.3-1.83,10.7,10.7,0,0,1-3.17-12.44,10.22,10.22,0,0,1,2.38-3.45,10.85,10.85,0,0,1,3.57-2.32,11.11,11.11,0,0,1,4.2-.83,11,11,0,0,1,4.16.83,11.21,11.21,0,0,1,3.58,2.32,10.4,10.4,0,0,1,2.36,3.46A10.68,10.68,0,0,1,272.4,222Zm-10.91,6.85a6,6,0,0,0,4.59-1.95,7.48,7.48,0,0,0,0-9.8,6.32,6.32,0,0,0-9.19,0,7.5,7.5,0,0,0,0,9.81A6.07,6.07,0,0,0,261.49,228.82Z"/><path class="cls-2" d="M275.93,229.58l2.44-2.76a3.69,3.69,0,0,0,1.48,1.78,4.14,4.14,0,0,0,2.3.65,3.78,3.78,0,0,0,2.43-.72,2.4,2.4,0,0,0,.9-2c0-1-1-1.94-3-2.9-.64-.31-1.15-.56-1.52-.76a11.21,11.21,0,0,1-3.72-2.74,5,5,0,0,1-1-3.18,5.11,5.11,0,0,1,2-4.16,8,8,0,0,1,5.21-1.64,7.31,7.31,0,0,1,3.22.66,6.49,6.49,0,0,1,2.38,2l-2.59,2.48a3.19,3.19,0,0,0-1.22-1.34,3.66,3.66,0,0,0-1.84-.44,3.23,3.23,0,0,0-2.1.65,2.1,2.1,0,0,0-.8,1.69q0,1.62,3.16,3l1,.42a10.86,10.86,0,0,1,3.86,2.69,5.17,5.17,0,0,1,1.25,3.41,5.8,5.8,0,0,1-2,4.6,7.76,7.76,0,0,1-5.28,1.71,9.2,9.2,0,0,1-4-.81A5.47,5.47,0,0,1,275.93,229.58Z"/></g></g></g></svg>