<svg id="fondos" xmlns="http://www.w3.org/2000/svg" viewBox="0 0 838.12 100.16"><defs><style>.cls-1{fill:#e6e6e6;}</style></defs><title>transito5</title><rect class="cls-1" width="838.12" height="100.16"/><path d="M57.76,35.38l1.5-.8a4.17,4.17,0,0,0,1.46,2.2,4,4,0,0,0,2.49.79,3.77,3.77,0,0,0,2.86-1.08,4.2,4.2,0,0,0,1-3,3.72,3.72,0,0,0-.7-2.32,9.48,9.48,0,0,0-3-2.13,13.15,13.15,0,0,1-3.87-2.72,4.26,4.26,0,0,1-1-2.82A4.39,4.39,0,0,1,60,20.15a5.62,5.62,0,0,1,6.13-.68,4.64,4.64,0,0,1,1.75,1.84l-1.36.82a2.9,2.9,0,0,0-1.19-1.26,3.54,3.54,0,0,0-1.83-.44,3,3,0,0,0-2.26.84,3,3,0,0,0-.85,2.26q0,2,3.35,3.78l.92.49a9.74,9.74,0,0,1,3.3,2.56,5.46,5.46,0,0,1,.83,3.13,5.73,5.73,0,0,1-8.89,4.7A6.09,6.09,0,0,1,57.76,35.38Z"/><path d="M82.5,32.82H73.2a5.69,5.69,0,0,0,1.13,3.56,3.54,3.54,0,0,0,2.86,1.29,3.75,3.75,0,0,0,2.27-.7,5.08,5.08,0,0,0,1.62-2.1l1.49.81a6.37,6.37,0,0,1-2.19,2.62,5.76,5.76,0,0,1-3.19.84A5.39,5.39,0,0,1,73,37.42a6.41,6.41,0,0,1-1.59-4.52A6.72,6.72,0,0,1,73,28.26a5.26,5.26,0,0,1,4.12-1.77A5,5,0,0,1,81,28.12a6.26,6.26,0,0,1,1.47,4.35Zm-1.93-1.38a3.36,3.36,0,0,0-3.64-3.38,3.48,3.48,0,0,0-2.47.93,3.71,3.71,0,0,0-1.15,2.45Z"/><path d="M95.27,29.28A7.14,7.14,0,0,1,97,27.13a3.3,3.3,0,0,1,2-.64,4,4,0,0,1,.69.07,5,5,0,0,1,.69.18l-.52,1.53-.55-.13a3.51,3.51,0,0,0-.55-.05,3.09,3.09,0,0,0-2.5,1.37,5.52,5.52,0,0,0-1,3.42v5.74H93.65V26.93h1.62Z"/><path d="M112.2,32.82h-9.3A5.75,5.75,0,0,0,104,36.38a3.51,3.51,0,0,0,2.86,1.29,3.8,3.8,0,0,0,2.27-.7,5.08,5.08,0,0,0,1.62-2.1l1.49.81a6.46,6.46,0,0,1-2.2,2.62,5.71,5.71,0,0,1-3.18.84,5.41,5.41,0,0,1-4.16-1.72,6.41,6.41,0,0,1-1.59-4.52,6.68,6.68,0,0,1,1.58-4.64,5.24,5.24,0,0,1,4.11-1.77,5,5,0,0,1,3.89,1.63,6.26,6.26,0,0,1,1.47,4.35Zm-1.93-1.38a3.36,3.36,0,0,0-3.64-3.38,3.5,3.5,0,0,0-2.47.93A3.71,3.71,0,0,0,103,31.44Z"/><path d="M115.57,44.5V26.93h1.57v2.19a5,5,0,0,1,1.76-1.95,4.46,4.46,0,0,1,2.42-.68,5,5,0,0,1,4,1.74,6.77,6.77,0,0,1,1.51,4.59,6.85,6.85,0,0,1-1.48,4.6,5,5,0,0,1-3.93,1.72,4.6,4.6,0,0,1-2.49-.68,5,5,0,0,1-1.77-2v8Zm9.48-11.65a5.6,5.6,0,0,0-1-3.57,3.47,3.47,0,0,0-2.86-1.3,3.64,3.64,0,0,0-2.93,1.26,5.2,5.2,0,0,0-1.06,3.46,5.32,5.32,0,0,0,1.14,3.58,3.73,3.73,0,0,0,3,1.34,3.28,3.28,0,0,0,2.75-1.26A5.61,5.61,0,0,0,125.05,32.85Z"/><path d="M135.49,39.14a6,6,0,0,1-2.4-.5A6.84,6.84,0,0,1,131,37.23a5.77,5.77,0,0,1-1.34-2,6.29,6.29,0,0,1-.47-2.42,6.2,6.2,0,0,1,.48-2.43,6.3,6.3,0,0,1,1.36-2,6.27,6.27,0,0,1,4.45-1.85A6.45,6.45,0,0,1,140,28.34a6.18,6.18,0,0,1,1.87,4.46,6.16,6.16,0,0,1-1.84,4.43A6.62,6.62,0,0,1,138,38.64,6.29,6.29,0,0,1,135.49,39.14Zm.06-1.52a4.34,4.34,0,0,0,3.26-1.39,4.74,4.74,0,0,0,1.34-3.41,4.8,4.8,0,0,0-1.33-3.43,4.55,4.55,0,0,0-6.53,0,5.06,5.06,0,0,0,0,6.84A4.33,4.33,0,0,0,135.55,37.62Z"/><path d="M146.87,29.28a7.29,7.29,0,0,1,1.76-2.15,3.35,3.35,0,0,1,2-.64,4,4,0,0,1,.69.07,5.53,5.53,0,0,1,.7.18l-.53,1.53-.55-.13a3.51,3.51,0,0,0-.55-.05,3.06,3.06,0,0,0-2.49,1.37,5.52,5.52,0,0,0-1,3.42v5.74h-1.62V26.93h1.62Z"/><path d="M154.1,28.31H152V26.93h2.15v-4.8h1.59v4.8H158v1.38h-2.35V38.62H154.1Z"/><path d="M169.09,38.62V36.49a4.26,4.26,0,0,1-4.1,2.65,5.19,5.19,0,0,1-4.06-1.73,6.62,6.62,0,0,1-1.53-4.56,6.8,6.8,0,0,1,1.51-4.58,5.27,5.27,0,0,1,6.5-1.12,4.31,4.31,0,0,1,1.68,1.91V26.93h1.62V38.62ZM161.2,32.9a5.3,5.3,0,0,0,1,3.49,3.6,3.6,0,0,0,2.92,1.23,3.5,3.5,0,0,0,2.91-1.34,5.76,5.76,0,0,0,1.06-3.68,5,5,0,0,0-1.05-3.38A3.6,3.6,0,0,0,165.17,28a3.53,3.53,0,0,0-2.9,1.32A5.54,5.54,0,0,0,161.2,32.9Z"/><path d="M192.88,32.82h-9.29a5.69,5.69,0,0,0,1.13,3.56,3.53,3.53,0,0,0,2.86,1.29,3.78,3.78,0,0,0,2.27-.7,5.08,5.08,0,0,0,1.62-2.1l1.49.81a6.52,6.52,0,0,1-2.19,2.62,5.76,5.76,0,0,1-3.19.84,5.43,5.43,0,0,1-4.16-1.72,6.41,6.41,0,0,1-1.58-4.52,6.72,6.72,0,0,1,1.57-4.64,5.25,5.25,0,0,1,4.12-1.77,5,5,0,0,1,3.89,1.63,6.26,6.26,0,0,1,1.46,4.35ZM191,31.44a3.36,3.36,0,0,0-3.64-3.38,3.48,3.48,0,0,0-2.47.93,3.72,3.72,0,0,0-1.16,2.45Z"/><path d="M198,38.62h-1.68V18.19H198Z"/><path d="M219.34,29.06a6.08,6.08,0,0,0-1.74-.84,6.39,6.39,0,0,0-1.9-.29,4.48,4.48,0,0,0-3.46,1.39,5.21,5.21,0,0,0-1.3,3.71,4.57,4.57,0,0,0,4.76,4.72,5.87,5.87,0,0,0,1.92-.33,7.58,7.58,0,0,0,1.91-1v1.79a7.73,7.73,0,0,1-1.9.73,10,10,0,0,1-2.23.24A5.86,5.86,0,0,1,211,37.43a6.18,6.18,0,0,1-1.71-4.5,6.12,6.12,0,0,1,6.43-6.44,9,9,0,0,1,2,.21,6.63,6.63,0,0,1,1.66.59Z"/><path d="M231.19,38.62V36.49a4.43,4.43,0,0,1-1.62,2,4.5,4.5,0,0,1-2.48.68A5.17,5.17,0,0,1,223,37.41a6.58,6.58,0,0,1-1.54-4.56A6.8,6.8,0,0,1,223,28.27a4.93,4.93,0,0,1,3.91-1.78,4.85,4.85,0,0,1,2.58.66,4.2,4.2,0,0,1,1.68,1.91V26.93h1.63V38.62Zm-7.88-5.72a5.3,5.3,0,0,0,1,3.49,3.59,3.59,0,0,0,2.92,1.23,3.5,3.5,0,0,0,2.91-1.34,5.76,5.76,0,0,0,1.06-3.68,5,5,0,0,0-1.05-3.38A3.6,3.6,0,0,0,227.28,28a3.53,3.53,0,0,0-2.9,1.32A5.54,5.54,0,0,0,223.31,32.9Z"/><path d="M235.83,36.54l1.55-.88a3.05,3.05,0,0,0,1.1,1.47,3.1,3.1,0,0,0,1.78.49,2.43,2.43,0,0,0,1.64-.52,1.75,1.75,0,0,0,.6-1.39c0-.9-.79-1.66-2.38-2.28l-.4-.16a7.21,7.21,0,0,1-2.58-1.5,2.63,2.63,0,0,1-.74-1.9,3.15,3.15,0,0,1,1.06-2.45,3.92,3.92,0,0,1,2.72-1,4.57,4.57,0,0,1,2.43.62,3.52,3.52,0,0,1,1.46,1.76l-1.49.83a2.35,2.35,0,0,0-.92-1.26,2.77,2.77,0,0,0-1.58-.44,2,2,0,0,0-1.39.5,1.58,1.58,0,0,0-.55,1.23,1.54,1.54,0,0,0,.54,1.2,7.23,7.23,0,0,0,2.24,1,6,6,0,0,1,2.59,1.47,3.23,3.23,0,0,1,.67,2.18A3.19,3.19,0,0,1,243,38.18a4.63,4.63,0,0,1-3.08,1,4.74,4.74,0,0,1-2.57-.68A3.84,3.84,0,0,1,235.83,36.54Z"/><path d="M252.79,39.14a6,6,0,0,1-2.4-.5,6.72,6.72,0,0,1-2.08-1.41,5.93,5.93,0,0,1-1.35-2,6.28,6.28,0,0,1-.46-2.42,6.37,6.37,0,0,1,.47-2.43,6.31,6.31,0,0,1,3.41-3.4,6.14,6.14,0,0,1,2.41-.48,6.42,6.42,0,0,1,2.46.48,6.34,6.34,0,0,1,2.07,1.37,6.24,6.24,0,0,1,1.88,4.46,6.12,6.12,0,0,1-.48,2.4,6,6,0,0,1-1.37,2,6.69,6.69,0,0,1-2.1,1.41A6.33,6.33,0,0,1,252.79,39.14Zm.05-1.52a4.34,4.34,0,0,0,3.26-1.39,4.7,4.7,0,0,0,1.34-3.41,4.76,4.76,0,0,0-1.33-3.43,4.54,4.54,0,0,0-6.52,0,5,5,0,0,0,0,6.84A4.3,4.3,0,0,0,252.84,37.62Z"/><path d="M279,38.62V36.49a4.26,4.26,0,0,1-4.1,2.65,5.19,5.19,0,0,1-4.06-1.73,6.62,6.62,0,0,1-1.53-4.56,6.8,6.8,0,0,1,1.51-4.58,5.27,5.27,0,0,1,6.5-1.12A4.31,4.31,0,0,1,279,29.06V26.93h1.62V38.62Zm-7.88-5.72a5.3,5.3,0,0,0,1,3.49A3.57,3.57,0,0,0,275,37.62a3.47,3.47,0,0,0,2.9-1.34A5.76,5.76,0,0,0,279,32.6a5,5,0,0,0-1.06-3.38A3.58,3.58,0,0,0,275,28a3.53,3.53,0,0,0-2.9,1.32A5.54,5.54,0,0,0,271.08,32.9Z"/><path d="M294.49,38.62h-1.68V18.19h1.68Z"/><path d="M307.55,38.62V36.49a4.38,4.38,0,0,1-1.63,2,4.44,4.44,0,0,1-2.47.68,5.15,5.15,0,0,1-4.05-1.73,6.58,6.58,0,0,1-1.54-4.56,6.8,6.8,0,0,1,1.52-4.58,4.91,4.91,0,0,1,3.91-1.78,4.85,4.85,0,0,1,2.58.66,4.2,4.2,0,0,1,1.68,1.91V26.93h1.62V38.62Zm-7.88-5.72a5.3,5.3,0,0,0,1,3.49,3.57,3.57,0,0,0,2.92,1.23,3.5,3.5,0,0,0,2.91-1.34,5.76,5.76,0,0,0,1.06-3.68,5,5,0,0,0-1.06-3.38,3.9,3.9,0,0,0-5.78.08A5.48,5.48,0,0,0,299.67,32.9Z"/><path d="M330.4,29.06a6.35,6.35,0,0,0-1.74-.84,6.44,6.44,0,0,0-1.9-.29,4.51,4.51,0,0,0-3.47,1.39A5.25,5.25,0,0,0,322,33a4.57,4.57,0,0,0,4.76,4.72,6,6,0,0,0,1.92-.33,7.58,7.58,0,0,0,1.91-1v1.79a7.73,7.73,0,0,1-1.9.73,10,10,0,0,1-2.23.24,5.86,5.86,0,0,1-4.39-1.76,6.15,6.15,0,0,1-1.72-4.5,6.14,6.14,0,0,1,6.44-6.44,9,9,0,0,1,2,.21,6.63,6.63,0,0,1,1.66.59Z"/><path d="M343.66,32.82h-9.29a5.69,5.69,0,0,0,1.13,3.56,3.53,3.53,0,0,0,2.86,1.29,3.78,3.78,0,0,0,2.27-.7,5.08,5.08,0,0,0,1.62-2.1l1.49.81a6.52,6.52,0,0,1-2.19,2.62,5.76,5.76,0,0,1-3.19.84,5.43,5.43,0,0,1-4.16-1.72,6.41,6.41,0,0,1-1.59-4.52,6.73,6.73,0,0,1,1.58-4.64,5.25,5.25,0,0,1,4.12-1.77,5,5,0,0,1,3.89,1.63,6.3,6.3,0,0,1,1.46,4.35Zm-1.92-1.38a3.36,3.36,0,0,0-3.64-3.38,3.46,3.46,0,0,0-2.47.93,3.72,3.72,0,0,0-1.16,2.45Z"/><path d="M347,38.62V26.93h1.54v1.81a4.86,4.86,0,0,1,1.75-1.69,5,5,0,0,1,2.38-.56,3.84,3.84,0,0,1,4.2,4.2v7.93h-1.65V31.41a3.9,3.9,0,0,0-.73-2.6,2.81,2.81,0,0,0-2.26-.85,3.25,3.25,0,0,0-2.73,1.1,5.5,5.5,0,0,0-.88,3.46v6.1Z"/><path d="M361.45,28.31H359.3V26.93h2.15v-4.8H363v4.8h2.35v1.38H363V38.62h-1.59Z"/><path d="M369.42,29.28a7.29,7.29,0,0,1,1.76-2.15,3.35,3.35,0,0,1,2-.64,4.26,4.26,0,0,1,.7.07,5.84,5.84,0,0,1,.69.18l-.53,1.53-.55-.13a3.39,3.39,0,0,0-.54-.05,3.06,3.06,0,0,0-2.5,1.37,5.52,5.52,0,0,0-1,3.42v5.74H367.8V26.93h1.62Z"/><path d="M384.94,38.62V36.49a4.26,4.26,0,0,1-4.1,2.65,5.15,5.15,0,0,1-4-1.73,6.58,6.58,0,0,1-1.54-4.56,6.8,6.8,0,0,1,1.52-4.58,4.91,4.91,0,0,1,3.91-1.78,4.85,4.85,0,0,1,2.58.66,4.2,4.2,0,0,1,1.68,1.91V26.93h1.62V38.62Zm-7.88-5.72a5.3,5.3,0,0,0,1,3.49A3.57,3.57,0,0,0,381,37.62a3.5,3.5,0,0,0,2.91-1.34A5.82,5.82,0,0,0,385,32.6a5,5,0,0,0-1.06-3.38A3.56,3.56,0,0,0,381,28a3.52,3.52,0,0,0-2.9,1.32A5.48,5.48,0,0,0,377.06,32.9Z"/><path d="M392.69,38.62H391V18.19h1.67Z"/><path d="M413.56,38.62V36.49a4.4,4.4,0,0,1-1.62,2,4.47,4.47,0,0,1-2.45.67,5.19,5.19,0,0,1-4.06-1.73,6.62,6.62,0,0,1-1.53-4.56,6.75,6.75,0,0,1,1.52-4.58,4.9,4.9,0,0,1,3.91-1.78,4.84,4.84,0,0,1,2.57.66,4.27,4.27,0,0,1,1.66,1.91V18.19h1.65V38.62Zm-7.85-5.72a5.3,5.3,0,0,0,1,3.49,3.57,3.57,0,0,0,2.92,1.23,3.44,3.44,0,0,0,2.88-1.34,5.76,5.76,0,0,0,1.06-3.68,5.1,5.1,0,0,0-1-3.38,3.9,3.9,0,0,0-5.78.08A5.54,5.54,0,0,0,405.71,32.9Z"/><path d="M429.55,32.82h-9.29a5.69,5.69,0,0,0,1.13,3.56,3.54,3.54,0,0,0,2.86,1.29,3.75,3.75,0,0,0,2.27-.7,5.08,5.08,0,0,0,1.62-2.1l1.49.81a6.45,6.45,0,0,1-2.19,2.62,5.76,5.76,0,0,1-3.19.84,5.43,5.43,0,0,1-4.16-1.72,6.45,6.45,0,0,1-1.58-4.52,6.72,6.72,0,0,1,1.57-4.64,5.25,5.25,0,0,1,4.12-1.77,5,5,0,0,1,3.89,1.63,6.26,6.26,0,0,1,1.46,4.35Zm-1.92-1.38A3.36,3.36,0,0,0,424,28.06a3.48,3.48,0,0,0-2.47.93,3.66,3.66,0,0,0-1.15,2.45Z"/><path d="M442.33,29.28a7.14,7.14,0,0,1,1.76-2.15,3.35,3.35,0,0,1,2-.64,4,4,0,0,1,.69.07,5.84,5.84,0,0,1,.69.18L447,28.27l-.55-.13a3.51,3.51,0,0,0-.55-.05,3.07,3.07,0,0,0-2.5,1.37,5.52,5.52,0,0,0-1,3.42v5.74h-1.62V26.93h1.62Z"/><path d="M457.84,38.62V36.49a4.36,4.36,0,0,1-1.62,2,4.49,4.49,0,0,1-2.47.68,5.19,5.19,0,0,1-4.06-1.73,6.62,6.62,0,0,1-1.53-4.56,6.8,6.8,0,0,1,1.51-4.58,5.27,5.27,0,0,1,6.5-1.12,4.23,4.23,0,0,1,1.67,1.91V26.93h1.63V38.62ZM450,32.9a5.3,5.3,0,0,0,1,3.49,3.6,3.6,0,0,0,2.92,1.23,3.5,3.5,0,0,0,2.91-1.34,5.76,5.76,0,0,0,1.06-3.68,5,5,0,0,0-1.05-3.38A3.6,3.6,0,0,0,453.93,28,3.53,3.53,0,0,0,451,29.3,5.54,5.54,0,0,0,450,32.9Z"/><path d="M472.48,38.62V36.49a4.19,4.19,0,0,1-4.07,2.65,5.19,5.19,0,0,1-4.06-1.73,6.62,6.62,0,0,1-1.53-4.56,6.8,6.8,0,0,1,1.51-4.58,4.93,4.93,0,0,1,3.92-1.78,4.81,4.81,0,0,1,2.56.66,4.29,4.29,0,0,1,1.67,1.91V18.19h1.65V38.62Zm-7.86-5.72a5.3,5.3,0,0,0,1,3.49,3.6,3.6,0,0,0,2.92,1.23,3.45,3.45,0,0,0,2.89-1.34,5.81,5.81,0,0,0,1.05-3.68,5,5,0,0,0-1-3.38,3.89,3.89,0,0,0-5.77.08A5.54,5.54,0,0,0,464.62,32.9Z"/><path d="M478.12,22.37a1.25,1.25,0,0,1,1.25-1.24,1.23,1.23,0,0,1,.89.36,1.23,1.23,0,0,1,0,1.76,1.23,1.23,0,0,1-.91.36,1.19,1.19,0,0,1-.88-.36A1.16,1.16,0,0,1,478.12,22.37Zm.41,16.25V26.93h1.67V38.62Z"/><path d="M490,39.14a6,6,0,0,1-2.4-.5,6.88,6.88,0,0,1-2.09-1.41,6.06,6.06,0,0,1-1.34-2,6.28,6.28,0,0,1-.46-2.42,6.37,6.37,0,0,1,.47-2.43,6.34,6.34,0,0,1,3.4-3.4,6.22,6.22,0,0,1,2.42-.48,6.42,6.42,0,0,1,2.46.48,6.34,6.34,0,0,1,2.07,1.37,6.18,6.18,0,0,1,1.87,4.46,6.16,6.16,0,0,1-1.84,4.43,6.69,6.69,0,0,1-2.1,1.41A6.33,6.33,0,0,1,490,39.14Zm.05-1.52a4.34,4.34,0,0,0,3.26-1.39,4.7,4.7,0,0,0,1.34-3.41,4.76,4.76,0,0,0-1.33-3.43,4.55,4.55,0,0,0-6.53,0,5.06,5.06,0,0,0,0,6.84A4.34,4.34,0,0,0,490,37.62Z"/><path d="M505.89,26.93h1.72L511,36.08l3.09-9.15h1.72l-6,17.57h-1.67l2-6Z"/><path d="M524.8,36.54l1.55-.88a3.05,3.05,0,0,0,1.1,1.47,3.1,3.1,0,0,0,1.78.49,2.43,2.43,0,0,0,1.64-.52,1.76,1.76,0,0,0,.61-1.39c0-.9-.8-1.66-2.39-2.28l-.4-.16a7.21,7.21,0,0,1-2.58-1.5,2.63,2.63,0,0,1-.74-1.9,3.18,3.18,0,0,1,1-2.45,4,4,0,0,1,2.74-1,4.56,4.56,0,0,1,2.42.62A3.52,3.52,0,0,1,533,28.85l-1.49.83a2.35,2.35,0,0,0-.92-1.26,2.77,2.77,0,0,0-1.58-.44,2,2,0,0,0-1.39.5,1.58,1.58,0,0,0-.55,1.23,1.54,1.54,0,0,0,.54,1.2,7.23,7.23,0,0,0,2.24,1,6,6,0,0,1,2.59,1.47,3.23,3.23,0,0,1,.67,2.18A3.19,3.19,0,0,1,532,38.18a4.63,4.63,0,0,1-3.08,1,4.74,4.74,0,0,1-2.57-.68A3.84,3.84,0,0,1,524.8,36.54Z"/><path d="M546.49,32.82H537.2a5.69,5.69,0,0,0,1.13,3.56,3.53,3.53,0,0,0,2.86,1.29,3.78,3.78,0,0,0,2.27-.7,5.08,5.08,0,0,0,1.62-2.1l1.49.81a6.46,6.46,0,0,1-2.2,2.62,5.71,5.71,0,0,1-3.18.84A5.43,5.43,0,0,1,537,37.42a6.41,6.41,0,0,1-1.59-4.52A6.73,6.73,0,0,1,537,28.26a5.25,5.25,0,0,1,4.12-1.77A5,5,0,0,1,545,28.12a6.3,6.3,0,0,1,1.46,4.35Zm-1.92-1.38a3.36,3.36,0,0,0-3.64-3.38,3.46,3.46,0,0,0-2.47.93,3.72,3.72,0,0,0-1.16,2.45Z"/><path d="M557.64,44.5V26.93h1.57v2.19A5.06,5.06,0,0,1,561,27.17a4.48,4.48,0,0,1,2.42-.68,5,5,0,0,1,4,1.74,6.77,6.77,0,0,1,1.51,4.59,6.85,6.85,0,0,1-1.48,4.6,4.93,4.93,0,0,1-3.93,1.72,4.6,4.6,0,0,1-2.49-.68,5,5,0,0,1-1.77-2v8Zm9.48-11.65a5.6,5.6,0,0,0-1-3.57,3.47,3.47,0,0,0-2.86-1.3,3.64,3.64,0,0,0-2.93,1.26,5.2,5.2,0,0,0-1.06,3.46,5.32,5.32,0,0,0,1.14,3.58,3.73,3.73,0,0,0,3,1.34,3.28,3.28,0,0,0,2.75-1.26A5.55,5.55,0,0,0,567.12,32.85Z"/><path d="M573.87,29.28a7.29,7.29,0,0,1,1.76-2.15,3.35,3.35,0,0,1,2-.64,4.26,4.26,0,0,1,.7.07,5.84,5.84,0,0,1,.69.18l-.53,1.53-.55-.13a3.5,3.5,0,0,0-.54-.05,3.06,3.06,0,0,0-2.5,1.37,5.52,5.52,0,0,0-1,3.42v5.74h-1.62V26.93h1.62Z"/><path d="M586.07,39.14a6,6,0,0,1-2.4-.5,6.72,6.72,0,0,1-2.08-1.41,5.93,5.93,0,0,1-1.35-2,6.28,6.28,0,0,1-.46-2.42,6.37,6.37,0,0,1,.47-2.43,6.31,6.31,0,0,1,3.41-3.4,6.14,6.14,0,0,1,2.41-.48,6.42,6.42,0,0,1,2.46.48,6.23,6.23,0,0,1,2.07,1.37,6.41,6.41,0,0,1,1.4,2,6.22,6.22,0,0,1,.48,2.42,6.22,6.22,0,0,1-1.85,4.43,6.69,6.69,0,0,1-2.1,1.41A6.33,6.33,0,0,1,586.07,39.14Zm0-1.52a4.34,4.34,0,0,0,3.26-1.39,4.7,4.7,0,0,0,1.34-3.41,4.76,4.76,0,0,0-1.33-3.43,4.55,4.55,0,0,0-6.53,0,5.06,5.06,0,0,0,0,6.84A4.34,4.34,0,0,0,586.12,37.62Z"/><path d="M604.92,29.06a6.08,6.08,0,0,0-1.74-.84,6.39,6.39,0,0,0-1.9-.29,4.5,4.5,0,0,0-3.47,1.39A5.25,5.25,0,0,0,596.52,33a4.57,4.57,0,0,0,4.76,4.72,5.92,5.92,0,0,0,1.92-.33,7.36,7.36,0,0,0,1.9-1v1.79a7.5,7.5,0,0,1-1.89.73,10,10,0,0,1-2.23.24,5.86,5.86,0,0,1-4.39-1.76,6.19,6.19,0,0,1-1.72-4.5,6.14,6.14,0,0,1,6.44-6.44,9,9,0,0,1,2,.21,6.63,6.63,0,0,1,1.66.59Z"/><path d="M618.18,32.82h-9.29A5.69,5.69,0,0,0,610,36.38a3.54,3.54,0,0,0,2.86,1.29,3.75,3.75,0,0,0,2.27-.7,5.08,5.08,0,0,0,1.62-2.1l1.49.81a6.45,6.45,0,0,1-2.19,2.62,5.76,5.76,0,0,1-3.19.84,5.43,5.43,0,0,1-4.16-1.72,6.45,6.45,0,0,1-1.58-4.52,6.72,6.72,0,0,1,1.57-4.64,5.25,5.25,0,0,1,4.12-1.77,5,5,0,0,1,3.89,1.63,6.26,6.26,0,0,1,1.46,4.35Zm-1.92-1.38a3.36,3.36,0,0,0-3.64-3.38,3.48,3.48,0,0,0-2.47.93A3.66,3.66,0,0,0,609,31.44Z"/><path d="M630.22,38.62V36.49a4.19,4.19,0,0,1-4.07,2.65,5.19,5.19,0,0,1-4.06-1.73,6.62,6.62,0,0,1-1.53-4.56,6.8,6.8,0,0,1,1.51-4.58A4.93,4.93,0,0,1,626,26.49a4.78,4.78,0,0,1,2.56.66,4.29,4.29,0,0,1,1.67,1.91V18.19h1.65V38.62Zm-7.86-5.72a5.3,5.3,0,0,0,1,3.49,3.6,3.6,0,0,0,2.92,1.23,3.45,3.45,0,0,0,2.89-1.34,5.82,5.82,0,0,0,1.06-3.68,5,5,0,0,0-1-3.38,3.89,3.89,0,0,0-5.77.08A5.54,5.54,0,0,0,622.36,32.9Z"/><path d="M646.21,32.82h-9.29a5.69,5.69,0,0,0,1.13,3.56,3.53,3.53,0,0,0,2.86,1.29,3.78,3.78,0,0,0,2.27-.7,5.08,5.08,0,0,0,1.62-2.1l1.49.81a6.46,6.46,0,0,1-2.2,2.62,5.71,5.71,0,0,1-3.18.84,5.43,5.43,0,0,1-4.16-1.72,6.41,6.41,0,0,1-1.59-4.52,6.73,6.73,0,0,1,1.58-4.64,5.25,5.25,0,0,1,4.12-1.77,5,5,0,0,1,3.89,1.63,6.3,6.3,0,0,1,1.46,4.35Zm-1.92-1.38a3.36,3.36,0,0,0-3.64-3.38,3.46,3.46,0,0,0-2.47.93A3.72,3.72,0,0,0,637,31.44Z"/><path d="M666,38.62V36.49a4.26,4.26,0,0,1-4.1,2.65,5.15,5.15,0,0,1-4-1.73,6.58,6.58,0,0,1-1.54-4.56,6.8,6.8,0,0,1,1.52-4.58,5.25,5.25,0,0,1,6.49-1.12A4.31,4.31,0,0,1,666,29.06V26.93h1.62V38.62Zm-7.88-5.72a5.3,5.3,0,0,0,1,3.49,3.57,3.57,0,0,0,2.92,1.23A3.5,3.5,0,0,0,665,36.28,5.82,5.82,0,0,0,666,32.6,5,5,0,0,0,665,29.22a3.91,3.91,0,0,0-5.79.08A5.54,5.54,0,0,0,658.12,32.9Z"/><path d="M681.37,29.28a7.29,7.29,0,0,1,1.76-2.15,3.35,3.35,0,0,1,2-.64,4.26,4.26,0,0,1,.7.07,5.84,5.84,0,0,1,.69.18L686,28.27l-.55-.13a3.5,3.5,0,0,0-.54-.05,3.06,3.06,0,0,0-2.5,1.37,5.52,5.52,0,0,0-1,3.42v5.74h-1.62V26.93h1.62Z"/><path d="M698.3,32.82H689a5.75,5.75,0,0,0,1.14,3.56A3.51,3.51,0,0,0,693,37.67a3.78,3.78,0,0,0,2.27-.7,5.08,5.08,0,0,0,1.62-2.1l1.49.81a6.46,6.46,0,0,1-2.2,2.62,5.71,5.71,0,0,1-3.18.84,5.43,5.43,0,0,1-4.16-1.72,6.41,6.41,0,0,1-1.59-4.52,6.73,6.73,0,0,1,1.58-4.64A5.25,5.25,0,0,1,693,26.49a5,5,0,0,1,3.89,1.63,6.3,6.3,0,0,1,1.46,4.35Zm-1.93-1.38A3.59,3.59,0,0,0,695.31,29a3.63,3.63,0,0,0-2.57-.89,3.5,3.5,0,0,0-2.48.93,3.75,3.75,0,0,0-1.15,2.45Z"/><path d="M710.31,38.62V36.49a4.26,4.26,0,0,1-4.1,2.65,5.15,5.15,0,0,1-4.05-1.73,6.58,6.58,0,0,1-1.54-4.56,6.75,6.75,0,0,1,1.52-4.58,5.25,5.25,0,0,1,6.49-1.12,4.25,4.25,0,0,1,1.68,1.91V26.93h1.62V38.62Zm-7.88-5.72a5.3,5.3,0,0,0,1,3.49,3.57,3.57,0,0,0,2.92,1.23,3.47,3.47,0,0,0,2.9-1.34,5.76,5.76,0,0,0,1.07-3.68,5,5,0,0,0-1.06-3.38,3.91,3.91,0,0,0-5.79.08A5.54,5.54,0,0,0,702.43,32.9Z"/><path d="M718.06,38.62h-1.67V18.19h1.67Z"/><path d="M722.19,22.37a1.18,1.18,0,0,1,.37-.88,1.21,1.21,0,0,1,.88-.36,1.25,1.25,0,0,1,.89.36,1.19,1.19,0,0,1,.38.88,1.16,1.16,0,0,1-.37.88,1.29,1.29,0,0,1-1.79,0A1.19,1.19,0,0,1,722.19,22.37Zm.41,16.25V26.93h1.67V38.62Z"/><path d="M726.84,38.62l6.53-10.23h-6.08V26.93h8.88L729.7,37.16h6.66v1.46Z"/><path d="M747.62,38.62V36.49a4.26,4.26,0,0,1-4.1,2.65,5.15,5.15,0,0,1-4-1.73,6.58,6.58,0,0,1-1.54-4.56,6.8,6.8,0,0,1,1.51-4.58,5.27,5.27,0,0,1,6.5-1.12,4.31,4.31,0,0,1,1.68,1.91V26.93h1.62V38.62Zm-7.88-5.72a5.3,5.3,0,0,0,1,3.49,3.57,3.57,0,0,0,2.92,1.23,3.5,3.5,0,0,0,2.91-1.34,5.82,5.82,0,0,0,1.06-3.68,5,5,0,0,0-1.06-3.38A3.58,3.58,0,0,0,743.7,28a3.53,3.53,0,0,0-2.9,1.32A5.54,5.54,0,0,0,739.74,32.9Z"/><path d="M755.21,29.28A7.29,7.29,0,0,1,757,27.13a3.35,3.35,0,0,1,2-.64,4,4,0,0,1,.69.07,5.53,5.53,0,0,1,.7.18l-.53,1.53-.55-.13a3.5,3.5,0,0,0-.54-.05,3.06,3.06,0,0,0-2.5,1.37,5.52,5.52,0,0,0-1,3.42v5.74h-1.62V26.93h1.62Z"/><path d="M771.65,38.62H770V18.19h1.67Z"/><path d="M784.72,38.62V36.49a4.26,4.26,0,0,1-4.1,2.65,5.15,5.15,0,0,1-4-1.73A6.58,6.58,0,0,1,775,32.85a6.8,6.8,0,0,1,1.51-4.58,5.27,5.27,0,0,1,6.5-1.12,4.31,4.31,0,0,1,1.68,1.91V26.93h1.62V38.62Zm-7.88-5.72a5.25,5.25,0,0,0,1,3.49,3.57,3.57,0,0,0,2.92,1.23,3.47,3.47,0,0,0,2.9-1.34,5.76,5.76,0,0,0,1.07-3.68,5,5,0,0,0-1.06-3.38A3.58,3.58,0,0,0,780.8,28a3.53,3.53,0,0,0-2.9,1.32A5.54,5.54,0,0,0,776.84,32.9Z"/><path d="M64.31,70.74a6,6,0,0,1-2.39-.5,6.88,6.88,0,0,1-2.09-1.41,5.77,5.77,0,0,1-1.34-2,6.33,6.33,0,0,1,3.41-8.25,6.21,6.21,0,0,1,2.41-.48,6.45,6.45,0,0,1,4.54,1.85,6.18,6.18,0,0,1,1.87,4.46,6.16,6.16,0,0,1-1.84,4.43,6.62,6.62,0,0,1-2.11,1.41A6.25,6.25,0,0,1,64.31,70.74Zm.06-1.52a4.34,4.34,0,0,0,3.26-1.39,5,5,0,0,0,0-6.83,4.53,4.53,0,0,0-6.53,0,5,5,0,0,0,0,6.83A4.33,4.33,0,0,0,64.37,69.22Z"/><path d="M75.69,60.88a7.29,7.29,0,0,1,1.76-2.15,3.35,3.35,0,0,1,2-.64,4,4,0,0,1,.69.07c.24.05.47.11.7.18l-.53,1.53-.55-.13a3.51,3.51,0,0,0-.55-.05,3.06,3.06,0,0,0-2.49,1.37,5.52,5.52,0,0,0-1,3.42v5.74H74.07V58.53h1.62Z"/><path d="M91.24,70.22V68.09a4.42,4.42,0,0,1-1.63,2,4.47,4.47,0,0,1-2.45.67,5.15,5.15,0,0,1-4-1.73,6.58,6.58,0,0,1-1.54-4.56,6.8,6.8,0,0,1,1.52-4.58A4.91,4.91,0,0,1,87,58.09a4.82,4.82,0,0,1,2.57.66,4.33,4.33,0,0,1,1.67,1.92V49.79h1.64V70.22ZM83.38,64.5a5.35,5.35,0,0,0,1,3.5,3.6,3.6,0,0,0,2.92,1.22,3.47,3.47,0,0,0,2.89-1.34,5.81,5.81,0,0,0,1.05-3.68,5,5,0,0,0-1-3.38,3.55,3.55,0,0,0-2.87-1.23,3.51,3.51,0,0,0-2.9,1.31A5.48,5.48,0,0,0,83.38,64.5Z"/><path d="M107.23,64.42h-9.3A5.69,5.69,0,0,0,99.07,68a3.51,3.51,0,0,0,2.86,1.29,3.81,3.81,0,0,0,2.26-.69,5.2,5.2,0,0,0,1.63-2.11l1.49.81a6.46,6.46,0,0,1-2.2,2.62,5.73,5.73,0,0,1-3.18.84A5.41,5.41,0,0,1,97.77,69a6.39,6.39,0,0,1-1.59-4.52,6.72,6.72,0,0,1,1.57-4.64,5.28,5.28,0,0,1,4.12-1.77,5,5,0,0,1,3.89,1.63,6.26,6.26,0,0,1,1.47,4.35ZM105.3,63a3.36,3.36,0,0,0-3.64-3.38,3.48,3.48,0,0,0-2.47.93A3.71,3.71,0,0,0,98,63Z"/><path d="M110.6,70.22V58.53h1.55v1.81a4.65,4.65,0,0,1,1.74-1.68,4.84,4.84,0,0,1,2.38-.57,3.85,3.85,0,0,1,4.21,4.2v7.93h-1.65V63a3.9,3.9,0,0,0-.73-2.6,2.83,2.83,0,0,0-2.26-.85,3.3,3.3,0,0,0-2.74,1.1,5.56,5.56,0,0,0-.88,3.46v6.1Z"/><path d="M141.11,70.22V68.09A4.19,4.19,0,0,1,137,70.74,5.17,5.17,0,0,1,133,69a6.62,6.62,0,0,1-1.53-4.56A6.8,6.8,0,0,1,133,59.87a4.93,4.93,0,0,1,3.92-1.78,4.78,4.78,0,0,1,2.56.66,4.27,4.27,0,0,1,1.67,1.92V49.79h1.65V70.22Zm-7.86-5.72a5.35,5.35,0,0,0,1,3.5,3.61,3.61,0,0,0,2.92,1.22,3.45,3.45,0,0,0,2.89-1.34,5.82,5.82,0,0,0,1.06-3.68,5,5,0,0,0-1-3.38,3.91,3.91,0,0,0-5.77.08A5.54,5.54,0,0,0,133.25,64.5Z"/><path d="M157.1,64.42h-9.29A5.69,5.69,0,0,0,148.94,68a3.53,3.53,0,0,0,2.86,1.29,3.84,3.84,0,0,0,2.27-.69,5.18,5.18,0,0,0,1.62-2.11l1.49.81A6.52,6.52,0,0,1,155,69.9a5.76,5.76,0,0,1-3.19.84A5.43,5.43,0,0,1,147.64,69a6.39,6.39,0,0,1-1.59-4.52,6.73,6.73,0,0,1,1.58-4.64,5.25,5.25,0,0,1,4.12-1.77,5,5,0,0,1,3.89,1.63,6.3,6.3,0,0,1,1.46,4.35ZM155.18,63a3.36,3.36,0,0,0-3.64-3.38,3.46,3.46,0,0,0-2.47.93A3.72,3.72,0,0,0,147.91,63Z"/><path d="M177.35,60.67a5.86,5.86,0,0,0-1.74-.85,6.39,6.39,0,0,0-1.9-.29,4.51,4.51,0,0,0-3.46,1.39,5.21,5.21,0,0,0-1.3,3.71,4.57,4.57,0,0,0,4.76,4.72,5.92,5.92,0,0,0,1.92-.33,7.87,7.87,0,0,0,1.91-1v1.78a7.73,7.73,0,0,1-1.9.73,10,10,0,0,1-2.23.24A5.86,5.86,0,0,1,169,69a6.18,6.18,0,0,1-1.71-4.5,6.12,6.12,0,0,1,6.43-6.44,9,9,0,0,1,2,.21,6.63,6.63,0,0,1,1.66.59Z"/><path d="M185.88,70.74a6,6,0,0,1-2.4-.5,6.84,6.84,0,0,1-2.08-1.41,5.93,5.93,0,0,1-1.35-2,6.47,6.47,0,0,1-.46-2.42,6.27,6.27,0,0,1,3.88-5.83,6.17,6.17,0,0,1,2.41-.48A6.41,6.41,0,0,1,191.81,62a6.22,6.22,0,0,1,.48,2.42,6.12,6.12,0,0,1-.48,2.4,6,6,0,0,1-1.37,2,6.47,6.47,0,0,1-2.1,1.41A6.33,6.33,0,0,1,185.88,70.74Zm.05-1.52a4.36,4.36,0,0,0,3.27-1.39,5,5,0,0,0,0-6.83,4.52,4.52,0,0,0-6.52,0,5,5,0,0,0,0,6.83A4.32,4.32,0,0,0,185.93,69.22Z"/><path d="M197.26,70.22h-1.62V58.53h1.62v1.83A4,4,0,0,1,201,58.09a3.92,3.92,0,0,1,2.18.59,3.81,3.81,0,0,1,1.39,1.72,4.48,4.48,0,0,1,4.07-2.31,3.85,3.85,0,0,1,2.93,1.13,4.32,4.32,0,0,1,1.07,3.09v7.91H211V63a4,4,0,0,0-.71-2.58,2.54,2.54,0,0,0-2.1-.87,2.81,2.81,0,0,0-2.46,1.09,6.07,6.07,0,0,0-.79,3.47v6.15h-1.6V63a4.11,4.11,0,0,0-.68-2.62,2.5,2.5,0,0,0-2.08-.83,2.91,2.91,0,0,0-2.52,1.1,6,6,0,0,0-.8,3.46Z"/><path d="M216.94,76.1V58.53h1.57v2.19a5,5,0,0,1,1.75-1.95,4.49,4.49,0,0,1,2.43-.68,5,5,0,0,1,4,1.74,6.72,6.72,0,0,1,1.51,4.59A6.85,6.85,0,0,1,226.7,69a5,5,0,0,1-3.93,1.72,4.6,4.6,0,0,1-2.49-.68,5,5,0,0,1-1.77-2v8Zm9.48-11.65a5.6,5.6,0,0,0-1-3.57,3.49,3.49,0,0,0-2.86-1.29,3.62,3.62,0,0,0-2.93,1.25,5.2,5.2,0,0,0-1.06,3.46,5.32,5.32,0,0,0,1.14,3.58,3.73,3.73,0,0,0,3,1.34A3.29,3.29,0,0,0,225.44,68,5.61,5.61,0,0,0,226.42,64.45Z"/><path d="M240.18,70.22V68.09a4.43,4.43,0,0,1-1.62,2,4.5,4.5,0,0,1-2.48.68A5.17,5.17,0,0,1,232,69a6.58,6.58,0,0,1-1.54-4.56A6.8,6.8,0,0,1,232,59.87a4.93,4.93,0,0,1,3.91-1.78,4.85,4.85,0,0,1,2.58.66,4.17,4.17,0,0,1,1.68,1.92V58.53h1.63V70.22ZM232.3,64.5a5.35,5.35,0,0,0,1,3.5,3.61,3.61,0,0,0,2.92,1.22,3.5,3.5,0,0,0,2.91-1.34,5.76,5.76,0,0,0,1.06-3.68,5,5,0,0,0-1.05-3.38,3.62,3.62,0,0,0-2.89-1.23,3.52,3.52,0,0,0-2.9,1.31A5.54,5.54,0,0,0,232.3,64.5Z"/><path d="M247.78,60.88a7,7,0,0,1,1.76-2.15,3.3,3.3,0,0,1,2-.64,4,4,0,0,1,.69.07l.69.18-.52,1.53-.55-.13a3.51,3.51,0,0,0-.55-.05,3.07,3.07,0,0,0-2.5,1.37,5.52,5.52,0,0,0-1,3.42v5.74h-1.62V58.53h1.62Z"/><path d="M264.71,64.42h-9.3A5.69,5.69,0,0,0,256.54,68a3.55,3.55,0,0,0,2.87,1.29,3.81,3.81,0,0,0,2.26-.69,5.18,5.18,0,0,0,1.62-2.11l1.49.81a6.37,6.37,0,0,1-2.19,2.62,5.75,5.75,0,0,1-3.18.84A5.41,5.41,0,0,1,255.25,69a6.39,6.39,0,0,1-1.59-4.52,6.72,6.72,0,0,1,1.57-4.64,5.26,5.26,0,0,1,4.12-1.77,5,5,0,0,1,3.89,1.63,6.26,6.26,0,0,1,1.47,4.35ZM262.78,63a3.36,3.36,0,0,0-3.64-3.38,3.48,3.48,0,0,0-2.47.93A3.71,3.71,0,0,0,255.52,63Z"/><path d="M268.08,70.22V58.53h1.54v1.81a4.75,4.75,0,0,1,1.75-1.68,4.84,4.84,0,0,1,2.38-.57,3.85,3.85,0,0,1,4.21,4.2v7.93h-1.65V63a4,4,0,0,0-.73-2.6,2.83,2.83,0,0,0-2.26-.85,3.3,3.3,0,0,0-2.74,1.1,5.56,5.56,0,0,0-.88,3.46v6.1Z"/><path d="M290.81,70.22V68.09a4.19,4.19,0,0,1-4.07,2.65A5.19,5.19,0,0,1,282.68,69a6.62,6.62,0,0,1-1.53-4.56,6.8,6.8,0,0,1,1.51-4.58,4.93,4.93,0,0,1,3.92-1.78,4.81,4.81,0,0,1,2.56.66,4.27,4.27,0,0,1,1.67,1.92V49.79h1.65V70.22ZM283,64.5a5.35,5.35,0,0,0,1,3.5,3.63,3.63,0,0,0,2.92,1.22,3.45,3.45,0,0,0,2.89-1.34,5.82,5.82,0,0,0,1.06-3.68,5,5,0,0,0-1-3.38,3.91,3.91,0,0,0-5.77.08A5.54,5.54,0,0,0,283,64.5Z"/><path d="M302.07,70.74a6,6,0,0,1-2.4-.5,6.72,6.72,0,0,1-2.08-1.41,5.93,5.93,0,0,1-1.35-2,6.28,6.28,0,0,1-.46-2.42,6.41,6.41,0,0,1,.47-2.43,6.31,6.31,0,0,1,3.41-3.4,6.14,6.14,0,0,1,2.41-.48,6.42,6.42,0,0,1,2.46.48,6.23,6.23,0,0,1,2.07,1.37,6.41,6.41,0,0,1,1.4,2,6.22,6.22,0,0,1,.48,2.42,6.22,6.22,0,0,1-1.85,4.43,6.69,6.69,0,0,1-2.1,1.41A6.33,6.33,0,0,1,302.07,70.74Zm.05-1.52a4.34,4.34,0,0,0,3.26-1.39,5,5,0,0,0,0-6.83,4.53,4.53,0,0,0-6.53,0,5,5,0,0,0,0,6.83A4.34,4.34,0,0,0,302.12,69.22Z"/><path d="M321.38,70.22h-1.67V49.79h1.67Z"/><path d="M327.43,58.53v5.84a6.93,6.93,0,0,0,.76,3.76,2.89,2.89,0,0,0,2.56,1.09,2.93,2.93,0,0,0,2.58-1.11,6.8,6.8,0,0,0,.77-3.74V58.53h1.61V65.2a6,6,0,0,1-1.25,4.13,4.66,4.66,0,0,1-3.68,1.41,4.71,4.71,0,0,1-3.7-1.41,5.94,5.94,0,0,1-1.27-4.13V58.53Z"/><path d="M350.08,64.42h-9.29A5.69,5.69,0,0,0,341.92,68a3.53,3.53,0,0,0,2.86,1.29,3.84,3.84,0,0,0,2.27-.69,5.18,5.18,0,0,0,1.62-2.11l1.49.81A6.52,6.52,0,0,1,348,69.9a5.76,5.76,0,0,1-3.19.84A5.43,5.43,0,0,1,340.62,69,6.39,6.39,0,0,1,339,64.5a6.73,6.73,0,0,1,1.58-4.64,5.25,5.25,0,0,1,4.12-1.77,5,5,0,0,1,3.89,1.63,6.3,6.3,0,0,1,1.46,4.35ZM348.16,63a3.36,3.36,0,0,0-3.64-3.38,3.46,3.46,0,0,0-2.47.93A3.72,3.72,0,0,0,340.89,63Z"/><path d="M363.74,58.53v9.66c0,1.54,0,2.71-.12,3.52a6,6,0,0,1-.42,1.81,4,4,0,0,1-1.86,1.94,6.86,6.86,0,0,1-3.16.64,6.28,6.28,0,0,1-3.63-.9A3.85,3.85,0,0,1,353,72.47h2a2.39,2.39,0,0,0,1,1.63,4.09,4.09,0,0,0,2.28.55,4.63,4.63,0,0,0,1.94-.38,2.81,2.81,0,0,0,1.3-1,3,3,0,0,0,.42-1,9.54,9.54,0,0,0,.12-1.78V68.06a4.31,4.31,0,0,1-1.65,2,4.68,4.68,0,0,1-2.55.71A4.9,4.9,0,0,1,354,69a6.81,6.81,0,0,1-1.47-4.6A6.72,6.72,0,0,1,354,59.83a5,5,0,0,1,4-1.74,4.57,4.57,0,0,1,2.51.72,4,4,0,0,1,1.61,1.91V58.53Zm-5.59,1.06a3.51,3.51,0,0,0-2.87,1.29,6.68,6.68,0,0,0,0,7.08A3.32,3.32,0,0,0,358,69.22a3.72,3.72,0,0,0,3-1.33,5.38,5.38,0,0,0,1.13-3.59,5.22,5.22,0,0,0-1.05-3.46A3.61,3.61,0,0,0,358.15,59.59Z"/><path d="M373.38,70.74a6,6,0,0,1-2.4-.5,6.72,6.72,0,0,1-2.08-1.41,5.93,5.93,0,0,1-1.35-2,6.28,6.28,0,0,1-.46-2.42,6.41,6.41,0,0,1,.47-2.43,6.31,6.31,0,0,1,3.41-3.4,6.14,6.14,0,0,1,2.41-.48,6.42,6.42,0,0,1,2.46.48,6.34,6.34,0,0,1,2.07,1.37,6.24,6.24,0,0,1,1.88,4.46,6.12,6.12,0,0,1-.48,2.4,6,6,0,0,1-1.37,2,6.69,6.69,0,0,1-2.1,1.41A6.33,6.33,0,0,1,373.38,70.74Zm.05-1.52a4.34,4.34,0,0,0,3.26-1.39,5,5,0,0,0,0-6.83,4.53,4.53,0,0,0-6.53,0,5,5,0,0,0,0,6.83A4.34,4.34,0,0,0,373.43,69.22Z"/><path d="M389.58,68.14l1.54-.88a3.13,3.13,0,0,0,1.11,1.47,3.08,3.08,0,0,0,1.78.49,2.43,2.43,0,0,0,1.64-.52,1.75,1.75,0,0,0,.6-1.39c0-.9-.79-1.66-2.38-2.28a3.65,3.65,0,0,1-.4-.16,7.36,7.36,0,0,1-2.58-1.49,2.63,2.63,0,0,1-.74-1.91A3.18,3.18,0,0,1,391.2,59a4,4,0,0,1,2.73-1,4.57,4.57,0,0,1,2.43.62,3.63,3.63,0,0,1,1.46,1.76l-1.49.84a2.34,2.34,0,0,0-.92-1.27,2.77,2.77,0,0,0-1.58-.43,2,2,0,0,0-1.4.49,1.6,1.6,0,0,0-.54,1.23,1.52,1.52,0,0,0,.54,1.2,7,7,0,0,0,2.24,1A6,6,0,0,1,397.26,65a3.28,3.28,0,0,1,.67,2.18,3.22,3.22,0,0,1-1.15,2.58,4.66,4.66,0,0,1-3.09,1,4.73,4.73,0,0,1-2.56-.68A3.79,3.79,0,0,1,389.58,68.14Z"/><path d="M411.27,64.42H402A5.75,5.75,0,0,0,403.11,68,3.51,3.51,0,0,0,406,69.27a3.84,3.84,0,0,0,2.27-.69,5.18,5.18,0,0,0,1.62-2.11l1.49.81a6.46,6.46,0,0,1-2.2,2.62,5.71,5.71,0,0,1-3.18.84A5.41,5.41,0,0,1,401.81,69a6.39,6.39,0,0,1-1.59-4.52,6.73,6.73,0,0,1,1.58-4.64,5.25,5.25,0,0,1,4.12-1.77,5,5,0,0,1,3.88,1.63,6.26,6.26,0,0,1,1.47,4.35ZM409.34,63a3.36,3.36,0,0,0-3.64-3.38,3.5,3.5,0,0,0-2.47.93A3.71,3.71,0,0,0,402.08,63Z"/><path d="M422.42,76.1V58.53H424v2.19a5,5,0,0,1,1.75-1.95,4.49,4.49,0,0,1,2.43-.68,5,5,0,0,1,4,1.74,6.72,6.72,0,0,1,1.51,4.59,6.85,6.85,0,0,1-1.47,4.6,5,5,0,0,1-3.93,1.72,4.6,4.6,0,0,1-2.49-.68,5,5,0,0,1-1.77-2v8Zm9.48-11.65a5.6,5.6,0,0,0-1-3.57A3.49,3.49,0,0,0,428,59.59a3.62,3.62,0,0,0-2.93,1.25A5.2,5.2,0,0,0,424,64.3a5.32,5.32,0,0,0,1.14,3.58,3.73,3.73,0,0,0,3,1.34A3.29,3.29,0,0,0,430.92,68,5.61,5.61,0,0,0,431.9,64.45Z"/><path d="M438.65,60.88a7.29,7.29,0,0,1,1.76-2.15,3.35,3.35,0,0,1,2-.64,4,4,0,0,1,.69.07c.24.05.47.11.7.18l-.53,1.53-.55-.13a3.51,3.51,0,0,0-.55-.05,3.09,3.09,0,0,0-2.5,1.37,5.58,5.58,0,0,0-1,3.42v5.74H437V58.53h1.62Z"/><path d="M450.84,70.74a6,6,0,0,1-2.39-.5,6.88,6.88,0,0,1-2.09-1.41,5.91,5.91,0,0,1-1.34-2,6.28,6.28,0,0,1-.46-2.42A6.41,6.41,0,0,1,445,62a6.34,6.34,0,0,1,3.4-3.4,6.21,6.21,0,0,1,2.41-.48,6.45,6.45,0,0,1,4.54,1.85,6.18,6.18,0,0,1,1.87,4.46,6.16,6.16,0,0,1-1.84,4.43,6.62,6.62,0,0,1-2.11,1.41A6.25,6.25,0,0,1,450.84,70.74Zm.06-1.52a4.34,4.34,0,0,0,3.26-1.39,5,5,0,0,0,0-6.83,4.53,4.53,0,0,0-6.53,0,5,5,0,0,0,0,6.83A4.33,4.33,0,0,0,450.9,69.22Z"/><path d="M469.7,60.67a6.1,6.1,0,0,0-1.74-.85,6.44,6.44,0,0,0-1.9-.29,4.53,4.53,0,0,0-3.47,1.39,5.25,5.25,0,0,0-1.29,3.71,4.57,4.57,0,0,0,4.76,4.72A6,6,0,0,0,468,69a7.81,7.81,0,0,0,1.9-1v1.78a7.43,7.43,0,0,1-1.9.73,9.84,9.84,0,0,1-2.23.24A5.85,5.85,0,0,1,461.37,69a6.15,6.15,0,0,1-1.72-4.5,6.14,6.14,0,0,1,6.44-6.44,9,9,0,0,1,2,.21,6.41,6.41,0,0,1,1.65.59Z"/><path d="M483,64.42h-9.29A5.69,5.69,0,0,0,474.8,68a3.53,3.53,0,0,0,2.86,1.29,3.84,3.84,0,0,0,2.27-.69,5.18,5.18,0,0,0,1.62-2.11l1.49.81a6.46,6.46,0,0,1-2.2,2.62,5.71,5.71,0,0,1-3.18.84A5.43,5.43,0,0,1,473.5,69a6.39,6.39,0,0,1-1.59-4.52,6.73,6.73,0,0,1,1.58-4.64,5.25,5.25,0,0,1,4.12-1.77,5,5,0,0,1,3.89,1.63A6.3,6.3,0,0,1,483,64.07ZM481,63a3.36,3.36,0,0,0-3.64-3.38,3.5,3.5,0,0,0-2.48.93A3.75,3.75,0,0,0,473.77,63Z"/><path d="M495,70.22V68.09a4.47,4.47,0,0,1-1.62,2,4.53,4.53,0,0,1-2.46.67A5.17,5.17,0,0,1,486.87,69a6.58,6.58,0,0,1-1.54-4.56,6.8,6.8,0,0,1,1.52-4.58,4.93,4.93,0,0,1,3.91-1.78,4.82,4.82,0,0,1,2.57.66A4.27,4.27,0,0,1,495,60.67V49.79h1.65V70.22Zm-7.86-5.72a5.35,5.35,0,0,0,1,3.5,3.61,3.61,0,0,0,2.92,1.22A3.47,3.47,0,0,0,494,67.88a5.81,5.81,0,0,0,1-3.68,5,5,0,0,0-1-3.38,3.91,3.91,0,0,0-5.77.08A5.54,5.54,0,0,0,487.14,64.5Z"/><path d="M511,64.42h-9.3A5.75,5.75,0,0,0,502.83,68a3.51,3.51,0,0,0,2.86,1.29,3.84,3.84,0,0,0,2.27-.69,5.18,5.18,0,0,0,1.62-2.11l1.49.81a6.46,6.46,0,0,1-2.2,2.62,5.71,5.71,0,0,1-3.18.84A5.43,5.43,0,0,1,501.53,69a6.39,6.39,0,0,1-1.59-4.52,6.73,6.73,0,0,1,1.58-4.64,5.25,5.25,0,0,1,4.12-1.77,5,5,0,0,1,3.88,1.63A6.26,6.26,0,0,1,511,64.07ZM509.06,63A3.59,3.59,0,0,0,508,60.55a3.64,3.64,0,0,0-2.58-.89,3.5,3.5,0,0,0-2.47.93A3.75,3.75,0,0,0,501.8,63Z"/><path d="M530.78,70.22V68.09a4.26,4.26,0,0,1-4.1,2.65A5.19,5.19,0,0,1,522.62,69a6.62,6.62,0,0,1-1.53-4.56,6.8,6.8,0,0,1,1.51-4.58,5.27,5.27,0,0,1,6.5-1.12,4.29,4.29,0,0,1,1.68,1.92V58.53h1.62V70.22Zm-7.89-5.72a5.29,5.29,0,0,0,1,3.5,3.6,3.6,0,0,0,2.92,1.22,3.48,3.48,0,0,0,2.9-1.34,5.76,5.76,0,0,0,1.06-3.68,5,5,0,0,0-1-3.38,3.61,3.61,0,0,0-2.89-1.23A3.52,3.52,0,0,0,524,60.9,5.54,5.54,0,0,0,522.89,64.5Z"/><path d="M544.23,54a1.21,1.21,0,0,1,.36-.88,1.23,1.23,0,0,1,.89-.36,1.25,1.25,0,0,1,.89.36,1.18,1.18,0,0,1,.37.88,1.19,1.19,0,0,1-.36.88,1.29,1.29,0,0,1-1.79,0A1.15,1.15,0,0,1,544.23,54Zm.4,16.25V58.53h1.68V70.22Z"/><path d="M550.74,70.22V58.53h1.54v1.81A4.67,4.67,0,0,1,554,58.66a4.84,4.84,0,0,1,2.38-.57,3.85,3.85,0,0,1,4.2,4.2v7.93H559V63a3.9,3.9,0,0,0-.73-2.6,2.8,2.8,0,0,0-2.26-.85,3.28,3.28,0,0,0-2.73,1.1,5.5,5.5,0,0,0-.88,3.46v6.1Z"/><path d="M566.42,70.22H564.8V58.53h1.62v1.83A4.17,4.17,0,0,1,568,58.68a4.13,4.13,0,0,1,2.19-.59,4,4,0,0,1,2.19.59,3.81,3.81,0,0,1,1.39,1.72,4.65,4.65,0,0,1,1.71-1.73,4.74,4.74,0,0,1,2.36-.58,3.86,3.86,0,0,1,2.93,1.13,4.31,4.31,0,0,1,1.06,3.09v7.91h-1.62V63a4,4,0,0,0-.7-2.58,2.55,2.55,0,0,0-2.11-.87,2.8,2.8,0,0,0-2.45,1.09,6,6,0,0,0-.79,3.47v6.15H572.5V63a4.12,4.12,0,0,0-.67-2.62,2.5,2.5,0,0,0-2.08-.83,2.89,2.89,0,0,0-2.52,1.1,5.9,5.9,0,0,0-.81,3.46Z"/><path d="M591.42,70.74a6,6,0,0,1-2.4-.5,6.84,6.84,0,0,1-2.08-1.41,5.93,5.93,0,0,1-1.35-2,6.47,6.47,0,0,1-.46-2.42,6.23,6.23,0,0,1,.48-2.43,6.14,6.14,0,0,1,1.36-2,6.27,6.27,0,0,1,4.45-1.85A6.41,6.41,0,0,1,597.35,62a6.22,6.22,0,0,1,.48,2.42,6.12,6.12,0,0,1-.48,2.4,6,6,0,0,1-1.37,2,6.47,6.47,0,0,1-2.1,1.41A6.33,6.33,0,0,1,591.42,70.74Zm.05-1.52a4.36,4.36,0,0,0,3.27-1.39,5,5,0,0,0,0-6.83,4.52,4.52,0,0,0-6.52,0,5,5,0,0,0,0,6.83A4.32,4.32,0,0,0,591.47,69.22Z"/><path d="M599.42,58.53h1.78l3.59,8.86,3.57-8.86h1.81L604.79,71Z"/><path d="M612.4,54a1.18,1.18,0,0,1,.37-.88,1.21,1.21,0,0,1,.88-.36,1.25,1.25,0,0,1,.89.36,1.19,1.19,0,0,1,.38.88,1.2,1.2,0,0,1-.37.88,1.29,1.29,0,0,1-1.79,0A1.19,1.19,0,0,1,612.4,54Zm.41,16.25V58.53h1.67V70.22Z"/><path d="M620.69,70.22H619V49.79h1.68Z"/><path d="M624.82,54a1.21,1.21,0,0,1,.36-.88,1.28,1.28,0,0,1,1.78,0,1.18,1.18,0,0,1,.37.88,1.19,1.19,0,0,1-.36.88,1.29,1.29,0,0,1-1.79,0A1.19,1.19,0,0,1,624.82,54Zm.4,16.25V58.53h1.68V70.22Z"/><path d="M629.47,70.22,636,60h-6.08V58.53h8.88l-6.47,10.23H639v1.46Z"/><path d="M650.25,70.22V68.09a4.26,4.26,0,0,1-4.1,2.65A5.19,5.19,0,0,1,642.09,69a6.62,6.62,0,0,1-1.53-4.56,6.8,6.8,0,0,1,1.51-4.58,5.27,5.27,0,0,1,6.5-1.12,4.29,4.29,0,0,1,1.68,1.92V58.53h1.62V70.22Zm-7.89-5.72a5.35,5.35,0,0,0,1,3.5,3.63,3.63,0,0,0,2.92,1.22,3.5,3.5,0,0,0,2.91-1.34,5.76,5.76,0,0,0,1.06-3.68,5,5,0,0,0-1-3.38,3.62,3.62,0,0,0-2.89-1.23,3.52,3.52,0,0,0-2.9,1.31A5.54,5.54,0,0,0,642.36,64.5Z"/><path d="M657.84,60.88a7.14,7.14,0,0,1,1.76-2.15,3.3,3.3,0,0,1,2-.64,4,4,0,0,1,.69.07c.24.05.47.11.7.18l-.53,1.53-.55-.13a3.51,3.51,0,0,0-.55-.05,3.09,3.09,0,0,0-2.5,1.37,5.52,5.52,0,0,0-1,3.42v5.74h-1.62V58.53h1.62Z"/><path d="M682.55,64.42h-9.3A5.69,5.69,0,0,0,674.39,68a3.51,3.51,0,0,0,2.86,1.29,3.81,3.81,0,0,0,2.26-.69,5.2,5.2,0,0,0,1.63-2.11l1.49.81a6.46,6.46,0,0,1-2.2,2.62,5.73,5.73,0,0,1-3.18.84A5.41,5.41,0,0,1,673.09,69a6.39,6.39,0,0,1-1.59-4.52,6.72,6.72,0,0,1,1.57-4.64,5.26,5.26,0,0,1,4.12-1.77,5,5,0,0,1,3.89,1.63,6.26,6.26,0,0,1,1.47,4.35ZM680.62,63A3.36,3.36,0,0,0,677,59.66a3.48,3.48,0,0,0-2.47.93A3.71,3.71,0,0,0,673.36,63Z"/><path d="M687.7,70.22H686V49.79h1.67Z"/><path d="M698.16,58.53h1.77l3.59,8.86,3.57-8.86h1.81L703.52,71Z"/><path d="M721.48,64.42h-9.3A5.69,5.69,0,0,0,713.32,68a3.51,3.51,0,0,0,2.86,1.29,3.81,3.81,0,0,0,2.26-.69,5.2,5.2,0,0,0,1.63-2.11l1.49.81a6.46,6.46,0,0,1-2.2,2.62,5.73,5.73,0,0,1-3.18.84A5.41,5.41,0,0,1,712,69a6.39,6.39,0,0,1-1.59-4.52A6.72,6.72,0,0,1,712,59.86a5.28,5.28,0,0,1,4.12-1.77A5,5,0,0,1,720,59.72a6.26,6.26,0,0,1,1.47,4.35ZM719.55,63a3.36,3.36,0,0,0-3.64-3.38,3.48,3.48,0,0,0-2.47.93A3.71,3.71,0,0,0,712.29,63Z"/><path d="M724.85,70.22V49.79h1.55V60.34a4.65,4.65,0,0,1,1.74-1.68,4.84,4.84,0,0,1,2.38-.57,3.85,3.85,0,0,1,4.21,4.2v7.93h-1.65V63a3.9,3.9,0,0,0-.73-2.6,2.83,2.83,0,0,0-2.26-.85,3.3,3.3,0,0,0-2.74,1.1,5.56,5.56,0,0,0-.88,3.46v6.1Z"/><path d="M738.11,56.64,740.92,52h2.17l-3.74,4.61ZM739,70.22V58.53h1.68V70.22Z"/><path d="M754.23,60.67a6.1,6.1,0,0,0-1.74-.85,6.44,6.44,0,0,0-1.9-.29,4.53,4.53,0,0,0-3.47,1.39,5.25,5.25,0,0,0-1.29,3.71A4.54,4.54,0,0,0,747.17,68a4.63,4.63,0,0,0,3.42,1.33A5.86,5.86,0,0,0,752.5,69a7.69,7.69,0,0,0,1.91-1v1.78a7.43,7.43,0,0,1-1.9.73,9.9,9.9,0,0,1-2.23.24A5.89,5.89,0,0,1,745.89,69a6.18,6.18,0,0,1-1.71-4.5,6.14,6.14,0,0,1,6.43-6.44,9,9,0,0,1,2,.21,6.41,6.41,0,0,1,1.65.59Z"/><path d="M759.06,58.53v5.84a6.93,6.93,0,0,0,.76,3.76,3.55,3.55,0,0,0,5.14,0,6.69,6.69,0,0,0,.78-3.74V58.53h1.6V65.2a6,6,0,0,1-1.25,4.13,5.53,5.53,0,0,1-7.38,0,5.94,5.94,0,0,1-1.27-4.13V58.53Z"/><path d="M773.45,70.22h-1.68V49.79h1.68Z"/><path d="M783.19,70.74a6,6,0,0,1-2.4-.5,6.72,6.72,0,0,1-2.08-1.41,5.93,5.93,0,0,1-1.35-2,6.49,6.49,0,0,1,0-4.85,6.11,6.11,0,0,1,1.35-2,6.25,6.25,0,0,1,2-1.37,6.14,6.14,0,0,1,2.41-.48,6.42,6.42,0,0,1,2.46.48,6.23,6.23,0,0,1,2.07,1.37,6.41,6.41,0,0,1,1.4,2,6.22,6.22,0,0,1,.48,2.42,6.12,6.12,0,0,1-.48,2.4,6,6,0,0,1-1.37,2,6.58,6.58,0,0,1-2.1,1.41A6.33,6.33,0,0,1,783.19,70.74Zm0-1.52a4.34,4.34,0,0,0,3.26-1.39,5,5,0,0,0,0-6.83A4.52,4.52,0,0,0,780,61a5,5,0,0,0,0,6.83A4.3,4.3,0,0,0,783.24,69.22Z"/><path d="M793.33,69.12a1.3,1.3,0,0,1,.39-1,1.28,1.28,0,0,1,.95-.39,1.35,1.35,0,1,1,0,2.69,1.28,1.28,0,0,1-.95-.39A1.3,1.3,0,0,1,793.33,69.12Z"/></svg>