<svg id="fondos" xmlns="http://www.w3.org/2000/svg" viewBox="0 0 838.12 100.16"><defs><style>.cls-1{fill:#e6e6e6;}</style></defs><title>transito1</title><rect class="cls-1" width="838.12" height="100.16"/><path d="M57.86,46.57l1.67-.89a4.7,4.7,0,0,0,1.62,2.45,4.47,4.47,0,0,0,2.77.87,4.17,4.17,0,0,0,3.17-1.2,4.64,4.64,0,0,0,1.15-3.32,4.18,4.18,0,0,0-.77-2.58,10.49,10.49,0,0,0-3.31-2.38,14.62,14.62,0,0,1-4.3-3,4.76,4.76,0,0,1-1.07-3.14,4.85,4.85,0,0,1,1.54-3.72,5.65,5.65,0,0,1,4-1.43,5.48,5.48,0,0,1,2.8.68,5.06,5.06,0,0,1,2,2l-1.51.91a3.3,3.3,0,0,0-1.33-1.41,4.09,4.09,0,0,0-2-.48,3.22,3.22,0,0,0-3.46,3.44q0,2.26,3.73,4.21l1,.54A10.53,10.53,0,0,1,69.17,41a6,6,0,0,1,.93,3.48,5.84,5.84,0,0,1-6.27,6.27,6.13,6.13,0,0,1-3.61-1A6.81,6.81,0,0,1,57.86,46.57Z"/><path d="M85.34,43.73H75a6.31,6.31,0,0,0,1.26,4,3.91,3.91,0,0,0,3.18,1.44A4.23,4.23,0,0,0,82,48.34,5.73,5.73,0,0,0,83.78,46l1.65.91A7,7,0,0,1,83,49.81a6.38,6.38,0,0,1-3.53.94,6,6,0,0,1-4.62-1.92,7.07,7.07,0,0,1-1.77-5,7.45,7.45,0,0,1,1.75-5.16,5.84,5.84,0,0,1,4.58-2,5.52,5.52,0,0,1,4.32,1.81,6.94,6.94,0,0,1,1.62,4.82Zm-2.13-1.54a3.72,3.72,0,0,0-4-3.75,3.84,3.84,0,0,0-2.74,1,4.09,4.09,0,0,0-1.28,2.72Z"/><path d="M107.36,50.17V47.8a4.67,4.67,0,0,1-4.52,3,5.74,5.74,0,0,1-4.51-1.92,7.34,7.34,0,0,1-1.71-5.07,7.57,7.57,0,0,1,1.69-5.09,5.86,5.86,0,0,1,7.2-1.25,4.9,4.9,0,0,1,1.85,2.13V27.47h1.83v22.7Zm-8.73-6.35a5.89,5.89,0,0,0,1.14,3.88A4,4,0,0,0,103,49.06a3.84,3.84,0,0,0,3.21-1.49,6.44,6.44,0,0,0,1.17-4.09,5.67,5.67,0,0,0-1.16-3.76,4.34,4.34,0,0,0-6.41.09A6.18,6.18,0,0,0,98.63,43.82Z"/><path d="M123.56,50.17V47.8A4.88,4.88,0,0,1,121.75,50a4.94,4.94,0,0,1-2.74.76,5.74,5.74,0,0,1-4.51-1.92,7.33,7.33,0,0,1-1.7-5.07,7.56,7.56,0,0,1,1.68-5.09,5.88,5.88,0,0,1,7.21-1.25,4.82,4.82,0,0,1,1.87,2.13V37.18h1.8v13Zm-8.76-6.35a5.89,5.89,0,0,0,1.14,3.88,4,4,0,0,0,3.24,1.36,3.87,3.87,0,0,0,3.23-1.49,6.38,6.38,0,0,0,1.18-4.09,5.62,5.62,0,0,0-1.17-3.76,4,4,0,0,0-3.21-1.37A3.93,3.93,0,0,0,116,39.81,6.18,6.18,0,0,0,114.8,43.82Z"/><path d="M140.82,50.17H139V27.47h1.86Z"/><path d="M155.34,50.17V47.8a4.74,4.74,0,0,1-4.56,3,5.72,5.72,0,0,1-4.5-1.92,7.34,7.34,0,0,1-1.71-5.07,7.56,7.56,0,0,1,1.68-5.09,5.89,5.89,0,0,1,7.22-1.25,4.88,4.88,0,0,1,1.87,2.13V37.18h1.8v13Zm-8.76-6.35a5.89,5.89,0,0,0,1.13,3.88A4,4,0,0,0,151,49.06a3.89,3.89,0,0,0,3.23-1.49,6.44,6.44,0,0,0,1.17-4.09,5.62,5.62,0,0,0-1.17-3.76,4,4,0,0,0-3.2-1.37,4,4,0,0,0-3.23,1.46A6.18,6.18,0,0,0,146.58,43.82Z"/><path d="M176.52,50.75a6.79,6.79,0,0,1-2.67-.55,7.61,7.61,0,0,1-2.31-1.58,6.45,6.45,0,0,1-1.5-2.23,7.24,7.24,0,0,1,0-5.39,6.7,6.7,0,0,1,1.51-2.25,6.86,6.86,0,0,1,5-2,7,7,0,0,1,5,2,6.95,6.95,0,0,1,1.55,7.62,6.73,6.73,0,0,1-1.52,2.25,7.5,7.5,0,0,1-2.34,1.58A7.16,7.16,0,0,1,176.52,50.75Zm.06-1.69a4.83,4.83,0,0,0,3.62-1.54,5.6,5.6,0,0,0,0-7.6,5,5,0,0,0-7.25,0,5.62,5.62,0,0,0,0,7.6A4.8,4.8,0,0,0,176.58,49.06Z"/><path d="M189.16,39.79a8,8,0,0,1,2-2.39,3.69,3.69,0,0,1,2.24-.7,4.08,4.08,0,0,1,.77.07,5.51,5.51,0,0,1,.77.21l-.59,1.7a6,6,0,0,0-.61-.15,3.21,3.21,0,0,0-.6-.06A3.41,3.41,0,0,0,190.31,40a6.11,6.11,0,0,0-1.15,3.8v6.38h-1.8v-13h1.8Z"/><path d="M206.43,50.17V47.8a4.67,4.67,0,0,1-4.53,3,5.74,5.74,0,0,1-4.5-1.92,7.34,7.34,0,0,1-1.71-5.07,7.52,7.52,0,0,1,1.69-5.09,5.86,5.86,0,0,1,7.2-1.25,4.9,4.9,0,0,1,1.85,2.13V27.47h1.83v22.7Zm-8.73-6.35a5.89,5.89,0,0,0,1.14,3.88,4,4,0,0,0,3.24,1.36,3.85,3.85,0,0,0,3.21-1.49,6.44,6.44,0,0,0,1.17-4.09,5.67,5.67,0,0,0-1.16-3.76,4.34,4.34,0,0,0-6.41.09A6.13,6.13,0,0,0,197.7,43.82Z"/><path d="M224.2,43.73H213.87a6.31,6.31,0,0,0,1.26,4,3.91,3.91,0,0,0,3.18,1.44,4.19,4.19,0,0,0,2.52-.78,5.73,5.73,0,0,0,1.8-2.34l1.66.91a7.14,7.14,0,0,1-2.44,2.9,6.42,6.42,0,0,1-3.54.94,6,6,0,0,1-4.62-1.92,7.07,7.07,0,0,1-1.77-5,7.45,7.45,0,0,1,1.75-5.16,5.85,5.85,0,0,1,4.58-2,5.5,5.5,0,0,1,4.32,1.81,6.9,6.9,0,0,1,1.63,4.82Zm-2.14-1.54a3.72,3.72,0,0,0-4-3.75,3.86,3.86,0,0,0-2.75,1A4.09,4.09,0,0,0,214,42.19Z"/><path d="M228,50.17v-13h1.71v2a5.4,5.4,0,0,1,1.94-1.87,5.54,5.54,0,0,1,2.65-.62,4.27,4.27,0,0,1,4.67,4.66v8.81h-1.83v-8a4.35,4.35,0,0,0-.81-2.89,3.16,3.16,0,0,0-2.52-1,3.65,3.65,0,0,0-3,1.23,6.12,6.12,0,0,0-1,3.84v6.78Z"/><path d="M261.84,50.17V47.8A4.84,4.84,0,0,1,260,50a4.89,4.89,0,0,1-2.72.75,5.74,5.74,0,0,1-4.51-1.92,7.33,7.33,0,0,1-1.7-5.07,7.56,7.56,0,0,1,1.68-5.09,5.86,5.86,0,0,1,7.2-1.25,4.78,4.78,0,0,1,1.85,2.13V27.47h1.83v22.7Zm-8.73-6.35a5.89,5.89,0,0,0,1.14,3.88,4,4,0,0,0,3.24,1.36,3.84,3.84,0,0,0,3.21-1.49,6.44,6.44,0,0,0,1.17-4.09,5.67,5.67,0,0,0-1.15-3.76,4,4,0,0,0-3.2-1.37,4,4,0,0,0-3.22,1.46A6.18,6.18,0,0,0,253.11,43.82Z"/><path d="M279.61,43.73H269.29a6.25,6.25,0,0,0,1.26,4,3.9,3.9,0,0,0,3.17,1.44,4.19,4.19,0,0,0,2.52-.78A5.66,5.66,0,0,0,278.05,46l1.65.91a7.07,7.07,0,0,1-2.44,2.9,6.39,6.39,0,0,1-3.54.94,6,6,0,0,1-4.62-1.92,7.06,7.06,0,0,1-1.76-5,7.45,7.45,0,0,1,1.75-5.16,5.82,5.82,0,0,1,4.58-2A5.53,5.53,0,0,1,278,38.51a6.94,6.94,0,0,1,1.62,4.82Zm-2.14-1.54a3.71,3.71,0,0,0-4-3.75,3.88,3.88,0,0,0-2.75,1,4.19,4.19,0,0,0-1.28,2.72Z"/><path d="M301.63,50.17V47.8a4.67,4.67,0,0,1-4.53,3,5.74,5.74,0,0,1-4.5-1.92,7.34,7.34,0,0,1-1.71-5.07,7.52,7.52,0,0,1,1.69-5.09,5.86,5.86,0,0,1,7.2-1.25,4.9,4.9,0,0,1,1.85,2.13V27.47h1.83v22.7Zm-8.73-6.35A5.94,5.94,0,0,0,294,47.7a4,4,0,0,0,3.25,1.36,3.84,3.84,0,0,0,3.21-1.49,6.44,6.44,0,0,0,1.17-4.09,5.67,5.67,0,0,0-1.16-3.76,4.34,4.34,0,0,0-6.41.09A6.13,6.13,0,0,0,292.9,43.82Z"/><path d="M319.4,43.73H309.07a6.31,6.31,0,0,0,1.26,4,3.91,3.91,0,0,0,3.18,1.44,4.19,4.19,0,0,0,2.52-.78,5.73,5.73,0,0,0,1.8-2.34l1.66.91a7.14,7.14,0,0,1-2.44,2.9,6.39,6.39,0,0,1-3.54.94,6,6,0,0,1-4.62-1.92,7.07,7.07,0,0,1-1.77-5,7.5,7.5,0,0,1,1.75-5.16,5.85,5.85,0,0,1,4.58-2,5.5,5.5,0,0,1,4.32,1.81,6.9,6.9,0,0,1,1.63,4.82Zm-2.14-1.54a3.72,3.72,0,0,0-4-3.75,3.86,3.86,0,0,0-2.75,1,4.14,4.14,0,0,0-1.28,2.72Z"/><path d="M323.53,38.72h-2.39V37.18h2.39V31.85h1.77v5.33h2.61v1.54H325.3V50.17h-1.77Z"/><path d="M341.75,43.73H331.42a6.31,6.31,0,0,0,1.26,4,3.92,3.92,0,0,0,3.18,1.44,4.19,4.19,0,0,0,2.52-.78,5.65,5.65,0,0,0,1.8-2.34l1.66.91a7.14,7.14,0,0,1-2.44,2.9,6.39,6.39,0,0,1-3.54.94,6,6,0,0,1-4.62-1.92,7.06,7.06,0,0,1-1.76-5,7.45,7.45,0,0,1,1.75-5.16,5.82,5.82,0,0,1,4.57-2,5.54,5.54,0,0,1,4.33,1.81,6.94,6.94,0,0,1,1.62,4.82Zm-2.14-1.54a3.71,3.71,0,0,0-4-3.75,3.88,3.88,0,0,0-2.75,1,4.19,4.19,0,0,0-1.28,2.72Z"/><path d="M345.5,50.17v-13h1.72v2a5.25,5.25,0,0,1,1.94-1.87,5.48,5.48,0,0,1,2.64-.62,4.27,4.27,0,0,1,4.67,4.66v8.81h-1.83v-8a4.35,4.35,0,0,0-.81-2.89,3.14,3.14,0,0,0-2.51-1,3.64,3.64,0,0,0-3,1.23,6.12,6.12,0,0,0-1,3.84v6.78Z"/><path d="M372.29,43.73H362a6.19,6.19,0,0,0,1.26,4,3.91,3.91,0,0,0,3.18,1.44,4.18,4.18,0,0,0,2.51-.78A5.66,5.66,0,0,0,370.73,46l1.65.91a7.07,7.07,0,0,1-2.44,2.9,6.38,6.38,0,0,1-3.53.94,6,6,0,0,1-4.63-1.92,7.11,7.11,0,0,1-1.76-5,7.45,7.45,0,0,1,1.75-5.16,5.82,5.82,0,0,1,4.58-2,5.53,5.53,0,0,1,4.32,1.81,6.94,6.94,0,0,1,1.62,4.82Zm-2.13-1.54a3.72,3.72,0,0,0-4.05-3.75,3.84,3.84,0,0,0-2.74,1,4.15,4.15,0,0,0-1.29,2.72Z"/><path d="M377.84,39.79a8.13,8.13,0,0,1,2-2.39,3.66,3.66,0,0,1,2.23-.7,4,4,0,0,1,.77.07,5.16,5.16,0,0,1,.77.21l-.58,1.7a6,6,0,0,0-.61-.15,3.23,3.23,0,0,0-.61-.06A3.39,3.39,0,0,0,379,40a6.12,6.12,0,0,0-1.16,3.8v6.38H376v-13h1.8Z"/><path d="M384,47.86l1.72-1a3.19,3.19,0,0,0,3.2,2.18,2.67,2.67,0,0,0,1.82-.58,1.92,1.92,0,0,0,.67-1.54c0-1-.88-1.84-2.65-2.54l-.44-.17a8.21,8.21,0,0,1-2.87-1.67,3,3,0,0,1-.82-2.11,3.5,3.5,0,0,1,1.17-2.72,4.35,4.35,0,0,1,3-1.06,5,5,0,0,1,2.69.69,4,4,0,0,1,1.63,2l-1.66.92a2.59,2.59,0,0,0-1-1.4,3,3,0,0,0-1.76-.49,2.26,2.26,0,0,0-1.55.55,1.78,1.78,0,0,0-.6,1.37,1.69,1.69,0,0,0,.6,1.33,7.82,7.82,0,0,0,2.49,1.16,6.66,6.66,0,0,1,2.87,1.63,3.6,3.6,0,0,1,.74,2.43A3.55,3.55,0,0,1,392,49.68a5.18,5.18,0,0,1-3.43,1.07,5.27,5.27,0,0,1-2.85-.76A4.23,4.23,0,0,1,384,47.86Z"/><path d="M408.11,43.73H397.78a6.31,6.31,0,0,0,1.26,4,3.91,3.91,0,0,0,3.18,1.44,4.19,4.19,0,0,0,2.52-.78,5.73,5.73,0,0,0,1.8-2.34l1.66.91a7.14,7.14,0,0,1-2.44,2.9,6.39,6.39,0,0,1-3.54.94,6,6,0,0,1-4.62-1.92,7.07,7.07,0,0,1-1.77-5,7.5,7.5,0,0,1,1.75-5.16,5.85,5.85,0,0,1,4.58-2,5.5,5.5,0,0,1,4.32,1.81,6.9,6.9,0,0,1,1.63,4.82ZM406,42.19a3.72,3.72,0,0,0-4-3.75,3.86,3.86,0,0,0-2.75,1,4.14,4.14,0,0,0-1.28,2.72Z"/><path d="M430.1,50.17V47.8A5,5,0,0,1,428.29,50a5,5,0,0,1-2.75.76,5.71,5.71,0,0,1-4.5-1.92,7.34,7.34,0,0,1-1.71-5.07A7.56,7.56,0,0,1,421,38.67a5.89,5.89,0,0,1,7.22-1.25,4.88,4.88,0,0,1,1.87,2.13V37.18h1.8v13Zm-8.76-6.35a5.89,5.89,0,0,0,1.13,3.88,4,4,0,0,0,3.25,1.36A3.89,3.89,0,0,0,429,47.57a6.44,6.44,0,0,0,1.18-4.09A5.57,5.57,0,0,0,429,39.72a4,4,0,0,0-3.2-1.37,4,4,0,0,0-3.23,1.46A6.18,6.18,0,0,0,421.34,43.82Z"/><path d="M438.71,50.17h-1.86V27.47h1.86Z"/><path d="M451.94,32.11a1.29,1.29,0,0,1,.41-1,1.34,1.34,0,0,1,1-.4,1.37,1.37,0,0,1,1,.4,1.3,1.3,0,0,1,.42,1,1.31,1.31,0,0,1-.41,1,1.44,1.44,0,0,1-2,0A1.3,1.3,0,0,1,451.94,32.11Zm.45,18.06v-13h1.86v13Z"/><path d="M459.17,50.17v-13h1.72v2a5.32,5.32,0,0,1,1.94-1.87,5.5,5.5,0,0,1,2.64-.62,4.68,4.68,0,0,1,3.45,1.23,4.63,4.63,0,0,1,1.23,3.43v8.81h-1.84v-8a4.35,4.35,0,0,0-.81-2.89,3.14,3.14,0,0,0-2.51-1,3.64,3.64,0,0,0-3,1.23,6.12,6.12,0,0,0-1,3.84v6.78Z"/><path d="M475.23,50.17V38.72H472.8V37.18h2.43V33.43c0-2.61.24-4.3.73-5.07a2.91,2.91,0,0,1,2.68-1.17,5.43,5.43,0,0,1,.92.08,4.65,4.65,0,0,1,.82.23l-.33,1.58a3.62,3.62,0,0,0-.68-.26,2.37,2.37,0,0,0-.61-.09,1.39,1.39,0,0,0-1.35.75,6.74,6.74,0,0,0-.4,2.78v4.92h2.86v1.54H477V50.17Z"/><path d="M484.37,39.79a7.83,7.83,0,0,1,2-2.39,3.64,3.64,0,0,1,2.23-.7,4.08,4.08,0,0,1,.77.07,5.51,5.51,0,0,1,.77.21l-.59,1.7a5.44,5.44,0,0,0-.61-.15,3.23,3.23,0,0,0-.61-.06A3.39,3.39,0,0,0,485.52,40a6.11,6.11,0,0,0-1.15,3.8v6.38h-1.8v-13h1.8Z"/><path d="M501.61,50.17V47.8A4.88,4.88,0,0,1,499.8,50a5,5,0,0,1-2.75.76,5.74,5.74,0,0,1-4.5-1.92,7.34,7.34,0,0,1-1.71-5.07,7.57,7.57,0,0,1,1.69-5.09,5.88,5.88,0,0,1,7.21-1.25,4.82,4.82,0,0,1,1.87,2.13V37.18h1.8v13Zm-8.76-6.35A5.89,5.89,0,0,0,494,47.7a4,4,0,0,0,3.24,1.36,3.88,3.88,0,0,0,3.23-1.49,6.38,6.38,0,0,0,1.18-4.09,5.62,5.62,0,0,0-1.17-3.76,4,4,0,0,0-3.21-1.37A3.93,3.93,0,0,0,494,39.81,6.18,6.18,0,0,0,492.85,43.82Z"/><path d="M518.35,39.55a6.9,6.9,0,0,0-1.93-.94,7.15,7.15,0,0,0-2.11-.32,5,5,0,0,0-3.85,1.55A5.79,5.79,0,0,0,509,44a5.1,5.1,0,0,0,1.49,3.77,5.19,5.19,0,0,0,3.8,1.48,6.46,6.46,0,0,0,2.13-.37,8.26,8.26,0,0,0,2.12-1.1v2a8,8,0,0,1-2.11.81,10.9,10.9,0,0,1-2.48.27,6.53,6.53,0,0,1-4.88-1.95,6.9,6.9,0,0,1-1.9-5,6.79,6.79,0,0,1,7.15-7.15,10.32,10.32,0,0,1,2.2.22,7.38,7.38,0,0,1,1.84.66Z"/><path d="M522.31,38.72h-2.39V37.18h2.39V31.85h1.77v5.33h2.61v1.54h-2.61V50.17h-1.77Z"/><path d="M535.27,50.75a6.74,6.74,0,0,1-2.66-.55,7.77,7.77,0,0,1-2.32-1.58,6.57,6.57,0,0,1-1.49-2.23,7.18,7.18,0,0,1,0-5.39,6.86,6.86,0,0,1,1.51-2.25,6.86,6.86,0,0,1,4.95-2,7.17,7.17,0,0,1,2.73.52,7,7,0,0,1,2.31,1.53A6.85,6.85,0,0,1,541.86,41a7,7,0,0,1,.53,2.68,6.87,6.87,0,0,1-2,4.92A7.27,7.27,0,0,1,538,50.2,7.08,7.08,0,0,1,535.27,50.75Zm.06-1.69A4.85,4.85,0,0,0,539,47.52a5.62,5.62,0,0,0,0-7.6,5,5,0,0,0-7.25,0,5.62,5.62,0,0,0,0,7.6A4.83,4.83,0,0,0,535.33,49.06Z"/><path d="M547.91,39.79a8.13,8.13,0,0,1,2-2.39,3.66,3.66,0,0,1,2.23-.7,4,4,0,0,1,.77.07,5.16,5.16,0,0,1,.77.21l-.58,1.7a6,6,0,0,0-.61-.15,3.31,3.31,0,0,0-.61-.06A3.41,3.41,0,0,0,549.06,40a6.17,6.17,0,0,0-1.15,3.8v6.38h-1.8v-13h1.8Z"/><path d="M553,48.94a1.47,1.47,0,0,1,1.49-1.49,1.42,1.42,0,0,1,1.06.43,1.44,1.44,0,0,1,.44,1.06,1.5,1.5,0,1,1-3,0Z"/></svg>