<svg id="fondos" xmlns="http://www.w3.org/2000/svg" viewBox="0 0 838.12 100.16"><defs><style>.cls-1{fill:#e6e6e6;}</style></defs><title>transito4</title><rect class="cls-1" width="838.12" height="100.16"/><path d="M57.86,52.29l1.67-.89a4.7,4.7,0,0,0,1.62,2.45,4.47,4.47,0,0,0,2.77.87,4.17,4.17,0,0,0,3.17-1.2,4.64,4.64,0,0,0,1.15-3.32,4.18,4.18,0,0,0-.77-2.58,10.5,10.5,0,0,0-3.31-2.37,14.79,14.79,0,0,1-4.3-3,4.76,4.76,0,0,1-1.07-3.14,4.85,4.85,0,0,1,1.54-3.72,5.69,5.69,0,0,1,4-1.43,5.48,5.48,0,0,1,2.8.68,5.06,5.06,0,0,1,2,2l-1.51.91a3.36,3.36,0,0,0-1.33-1.41,4.09,4.09,0,0,0-2-.48,3.22,3.22,0,0,0-3.46,3.44q0,2.27,3.73,4.21l1,.54a10.53,10.53,0,0,1,3.66,2.85,6,6,0,0,1,.93,3.48,5.84,5.84,0,0,1-6.27,6.27,6.13,6.13,0,0,1-3.61-1A6.81,6.81,0,0,1,57.86,52.29Z"/><path d="M85.34,49.45H75a6.31,6.31,0,0,0,1.26,3.95,3.91,3.91,0,0,0,3.18,1.44A4.23,4.23,0,0,0,82,54.06a5.66,5.66,0,0,0,1.8-2.34l1.65.91A7.09,7.09,0,0,1,83,55.54a6.38,6.38,0,0,1-3.53.93,6,6,0,0,1-4.62-1.91,7.11,7.11,0,0,1-1.77-5,7.45,7.45,0,0,1,1.75-5.16,5.84,5.84,0,0,1,4.58-2,5.52,5.52,0,0,1,4.32,1.81,6.94,6.94,0,0,1,1.62,4.82Zm-2.13-1.54a3.72,3.72,0,0,0-4-3.75,3.84,3.84,0,0,0-2.74,1,4.09,4.09,0,0,0-1.28,2.72Z"/><path d="M99.54,45.51a7.83,7.83,0,0,1,2-2.39,3.64,3.64,0,0,1,2.23-.7,4.08,4.08,0,0,1,.77.07,5.51,5.51,0,0,1,.77.21l-.59,1.7a5.44,5.44,0,0,0-.61-.15,3.21,3.21,0,0,0-.6-.06,3.41,3.41,0,0,0-2.78,1.52,6.11,6.11,0,0,0-1.15,3.8V55.9h-1.8v-13h1.8Z"/><path d="M118.35,49.45H108a6.31,6.31,0,0,0,1.26,3.95,3.91,3.91,0,0,0,3.18,1.44,4.19,4.19,0,0,0,2.52-.78,5.66,5.66,0,0,0,1.8-2.34l1.66.91A7.25,7.25,0,0,1,116,55.54a6.42,6.42,0,0,1-3.54.93,6,6,0,0,1-4.62-1.91,7.11,7.11,0,0,1-1.77-5,7.5,7.5,0,0,1,1.75-5.16,5.85,5.85,0,0,1,4.58-2,5.5,5.5,0,0,1,4.32,1.81,6.9,6.9,0,0,1,1.63,4.82Zm-2.14-1.54a3.72,3.72,0,0,0-4-3.75,3.86,3.86,0,0,0-2.75,1,4.09,4.09,0,0,0-1.28,2.72Z"/><path d="M131.69,55.9V53.52a4.88,4.88,0,0,1-1.81,2.19,4.94,4.94,0,0,1-2.74.76,5.74,5.74,0,0,1-4.51-1.92,7.38,7.38,0,0,1-1.7-5.07,7.56,7.56,0,0,1,1.68-5.09,5.89,5.89,0,0,1,7.22-1.25,4.86,4.86,0,0,1,1.86,2.13V42.9h1.81v13Zm-8.76-6.36a5.89,5.89,0,0,0,1.14,3.88,4,4,0,0,0,3.24,1.36,3.88,3.88,0,0,0,3.23-1.48,6.43,6.43,0,0,0,1.18-4.1,5.62,5.62,0,0,0-1.17-3.76,4,4,0,0,0-3.21-1.37,4,4,0,0,0-3.22,1.46A6.18,6.18,0,0,0,122.93,49.54Z"/><path d="M140.31,55.9h-1.86V33.19h1.86Z"/><path d="M144.89,37.83a1.32,1.32,0,0,1,.41-1,1.35,1.35,0,0,1,1-.4,1.37,1.37,0,0,1,1,.4,1.3,1.3,0,0,1,.42,1,1.38,1.38,0,0,1-.4,1,1.4,1.4,0,0,1-1,.39,1.37,1.37,0,0,1-1-.39A1.34,1.34,0,0,1,144.89,37.83Zm.45,18.07v-13h1.87v13Z"/><path d="M150.06,55.9l7.25-11.37h-6.75V42.9h9.87l-7.19,11.37h7.4V55.9Z"/><path d="M173.15,55.9V53.52a4.88,4.88,0,0,1-1.81,2.19,5,5,0,0,1-2.75.76,5.74,5.74,0,0,1-4.5-1.92,7.34,7.34,0,0,1-1.71-5.07,7.52,7.52,0,0,1,1.69-5.09,5.88,5.88,0,0,1,7.21-1.25,4.82,4.82,0,0,1,1.87,2.13V42.9H175v13Zm-8.76-6.36a5.94,5.94,0,0,0,1.13,3.88,4,4,0,0,0,3.25,1.36A3.9,3.9,0,0,0,172,53.3a6.49,6.49,0,0,0,1.18-4.1A5.57,5.57,0,0,0,172,45.44a4,4,0,0,0-3.2-1.37,3.93,3.93,0,0,0-3.22,1.46A6.13,6.13,0,0,0,164.39,49.54Z"/><path d="M190.4,55.9h-1.86V33.19h1.86Z"/><path d="M204.92,55.9V53.52a4.88,4.88,0,0,1-1.81,2.19,5,5,0,0,1-2.75.76,5.74,5.74,0,0,1-4.5-1.92,7.34,7.34,0,0,1-1.71-5.07,7.57,7.57,0,0,1,1.69-5.09,5.88,5.88,0,0,1,7.21-1.25,4.82,4.82,0,0,1,1.87,2.13V42.9h1.8v13Zm-8.76-6.36a5.89,5.89,0,0,0,1.14,3.88,4,4,0,0,0,3.24,1.36,3.9,3.9,0,0,0,3.23-1.48A6.43,6.43,0,0,0,205,49.2a5.62,5.62,0,0,0-1.17-3.76,4,4,0,0,0-3.21-1.37,3.93,3.93,0,0,0-3.22,1.46A6.18,6.18,0,0,0,196.16,49.54Z"/><path d="M226.1,56.47a6.74,6.74,0,0,1-2.66-.55,7.59,7.59,0,0,1-2.32-1.58,6.53,6.53,0,0,1-1.49-2.22,7.13,7.13,0,0,1-.52-2.7,7,7,0,0,1,2-5A7,7,0,0,1,223.42,43a6.82,6.82,0,0,1,2.68-.53,7.15,7.15,0,0,1,5,2,6.85,6.85,0,0,1,1.55,2.27,7,7,0,0,1,.53,2.68,6.7,6.7,0,0,1-.53,2.67,6.59,6.59,0,0,1-1.52,2.25,7.14,7.14,0,0,1-5.07,2.13Zm.06-1.69a4.85,4.85,0,0,0,3.63-1.54,5.62,5.62,0,0,0,0-7.6,5,5,0,0,0-7.25,0,5.62,5.62,0,0,0,0,7.6A4.83,4.83,0,0,0,226.16,54.78Z"/><path d="M238.74,45.51a8.13,8.13,0,0,1,2-2.39,3.66,3.66,0,0,1,2.23-.7,4,4,0,0,1,.77.07,5.16,5.16,0,0,1,.77.21l-.58,1.7a6,6,0,0,0-.61-.15,3.31,3.31,0,0,0-.61-.06,3.42,3.42,0,0,0-2.78,1.52,6.17,6.17,0,0,0-1.15,3.8V55.9h-1.8v-13h1.8Z"/><path d="M256,55.9V53.52a4.84,4.84,0,0,1-1.8,2.2,4.89,4.89,0,0,1-2.72.75A5.74,5.74,0,0,1,247,54.55a7.33,7.33,0,0,1-1.7-5.07A7.56,7.56,0,0,1,247,44.39a5.47,5.47,0,0,1,4.35-2,5.41,5.41,0,0,1,2.85.72A4.78,4.78,0,0,1,256,45.27V33.19h1.83V55.9Zm-8.73-6.36a5.89,5.89,0,0,0,1.14,3.88,4,4,0,0,0,3.24,1.36,3.86,3.86,0,0,0,3.21-1.48A6.49,6.49,0,0,0,256,49.2a5.67,5.67,0,0,0-1.15-3.76,4,4,0,0,0-3.2-1.37,4,4,0,0,0-3.22,1.46A6.18,6.18,0,0,0,247.28,49.54Z"/><path d="M273.78,49.45H263.46a6.19,6.19,0,0,0,1.26,3.95,3.9,3.9,0,0,0,3.17,1.44,4.19,4.19,0,0,0,2.52-.78,5.6,5.6,0,0,0,1.81-2.34l1.65.91a7.17,7.17,0,0,1-2.44,2.91,6.39,6.39,0,0,1-3.54.93,6,6,0,0,1-4.62-1.91,7.1,7.1,0,0,1-1.76-5,7.45,7.45,0,0,1,1.75-5.16,5.82,5.82,0,0,1,4.58-2,5.53,5.53,0,0,1,4.32,1.81,6.94,6.94,0,0,1,1.62,4.82Zm-2.14-1.54a4,4,0,0,0-1.18-2.77,4.07,4.07,0,0,0-2.86-1,3.88,3.88,0,0,0-2.75,1,4.19,4.19,0,0,0-1.28,2.72Z"/><path d="M277.53,55.9v-13h1.72v2A5.25,5.25,0,0,1,281.19,43a5.5,5.5,0,0,1,2.64-.62,4.27,4.27,0,0,1,4.67,4.66V55.9h-1.83v-8a4.35,4.35,0,0,0-.81-2.89,3.14,3.14,0,0,0-2.51-1,3.64,3.64,0,0,0-3,1.23,6.12,6.12,0,0,0-1,3.84V55.9Z"/><path d="M311.43,55.9V53.52a4.67,4.67,0,0,1-4.53,2.95,5.74,5.74,0,0,1-4.5-1.92,7.34,7.34,0,0,1-1.71-5.07,7.52,7.52,0,0,1,1.69-5.09,5.86,5.86,0,0,1,7.2-1.25,4.9,4.9,0,0,1,1.85,2.13V33.19h1.83V55.9Zm-8.73-6.36a5.89,5.89,0,0,0,1.14,3.88,4,4,0,0,0,3.24,1.36,3.87,3.87,0,0,0,3.21-1.48,6.49,6.49,0,0,0,1.17-4.1,5.67,5.67,0,0,0-1.16-3.76,4.34,4.34,0,0,0-6.41.09A6.13,6.13,0,0,0,302.7,49.54Z"/><path d="M329.2,49.45H318.87a6.31,6.31,0,0,0,1.26,3.95,3.91,3.91,0,0,0,3.18,1.44,4.19,4.19,0,0,0,2.52-.78,5.66,5.66,0,0,0,1.8-2.34l1.66.91a7.25,7.25,0,0,1-2.44,2.91,6.42,6.42,0,0,1-3.54.93,6,6,0,0,1-4.62-1.91,7.11,7.11,0,0,1-1.77-5,7.45,7.45,0,0,1,1.75-5.16,5.85,5.85,0,0,1,4.58-2,5.5,5.5,0,0,1,4.32,1.81,6.9,6.9,0,0,1,1.63,4.82Zm-2.14-1.54a3.72,3.72,0,0,0-4-3.75,3.86,3.86,0,0,0-2.75,1A4.09,4.09,0,0,0,319,47.91Z"/><path d="M351.7,45.27a7.25,7.25,0,0,0-1.94-.94,7.07,7.07,0,0,0-2.1-.31,5,5,0,0,0-3.86,1.54,5.81,5.81,0,0,0-1.43,4.12,5.09,5.09,0,0,0,1.48,3.77,5.15,5.15,0,0,0,3.81,1.48,6.46,6.46,0,0,0,2.13-.37,8.21,8.21,0,0,0,2.11-1.1v2a7.71,7.71,0,0,1-2.11.81,10.81,10.81,0,0,1-2.47.27,6.53,6.53,0,0,1-4.88-2,6.86,6.86,0,0,1-1.9-5,6.79,6.79,0,0,1,7.14-7.15,9.73,9.73,0,0,1,2.21.23,7,7,0,0,1,1.84.65Z"/><path d="M361.17,56.47a6.78,6.78,0,0,1-2.66-.55,7.59,7.59,0,0,1-2.32-1.58,6.53,6.53,0,0,1-1.49-2.22,7.13,7.13,0,0,1-.51-2.7,6.76,6.76,0,0,1,.53-2.69,6.87,6.87,0,0,1,1.5-2.26A7.06,7.06,0,0,1,358.5,43a6.73,6.73,0,0,1,2.67-.53,7.11,7.11,0,0,1,5,2,6.85,6.85,0,0,1,1.55,2.27,6.78,6.78,0,0,1,.53,2.68,6.87,6.87,0,0,1-.52,2.67,6.62,6.62,0,0,1-1.53,2.25,7.1,7.1,0,0,1-5.07,2.13Zm.06-1.69a4.84,4.84,0,0,0,3.63-1.54,5.6,5.6,0,0,0,0-7.6,4.88,4.88,0,0,0-3.64-1.54,4.83,4.83,0,0,0-3.61,1.54,5.62,5.62,0,0,0,0,7.6A4.79,4.79,0,0,0,361.23,54.78Z"/><path d="M373.82,55.9H372v-13h1.81v2a4.65,4.65,0,0,1,1.7-1.88,4.55,4.55,0,0,1,2.43-.64,4.37,4.37,0,0,1,2.42.65A4.18,4.18,0,0,1,381.92,45a5,5,0,0,1,4.52-2.56,4.29,4.29,0,0,1,3.26,1.25,4.81,4.81,0,0,1,1.18,3.44V55.9h-1.8V47.82A4.51,4.51,0,0,0,388.3,45,2.85,2.85,0,0,0,386,44a3.13,3.13,0,0,0-2.73,1.21,6.72,6.72,0,0,0-.87,3.85V55.9h-1.79V47.82a4.59,4.59,0,0,0-.75-2.91,2.77,2.77,0,0,0-2.31-.92,3.23,3.23,0,0,0-2.8,1.23,6.54,6.54,0,0,0-.89,3.83Z"/><path d="M395.69,62.43V42.9h1.74v2.43a5.69,5.69,0,0,1,1.95-2.16,5,5,0,0,1,2.69-.75,5.58,5.58,0,0,1,4.42,1.92,7.51,7.51,0,0,1,1.68,5.11,7.61,7.61,0,0,1-1.64,5.11,5.49,5.49,0,0,1-4.37,1.91,5.14,5.14,0,0,1-2.77-.76,5.55,5.55,0,0,1-2-2.22v8.94Zm10.53-13a6.16,6.16,0,0,0-1.15-4,3.84,3.84,0,0,0-3.17-1.45,4,4,0,0,0-3.26,1.4,5.79,5.79,0,0,0-1.18,3.85,5.92,5.92,0,0,0,1.27,4,4.17,4.17,0,0,0,3.34,1.48,3.65,3.65,0,0,0,3.06-1.4A6.24,6.24,0,0,0,406.22,49.48Z"/><path d="M421.51,55.9V53.52a4.88,4.88,0,0,1-1.81,2.19,4.94,4.94,0,0,1-2.74.76,5.74,5.74,0,0,1-4.51-1.92,7.33,7.33,0,0,1-1.7-5.07,7.56,7.56,0,0,1,1.68-5.09,5.88,5.88,0,0,1,7.21-1.25,4.82,4.82,0,0,1,1.87,2.13V42.9h1.8v13Zm-8.76-6.36a5.89,5.89,0,0,0,1.14,3.88,4,4,0,0,0,3.24,1.36,3.88,3.88,0,0,0,3.23-1.48,6.43,6.43,0,0,0,1.18-4.1,5.62,5.62,0,0,0-1.17-3.76,4,4,0,0,0-3.21-1.37,3.93,3.93,0,0,0-3.22,1.46A6.18,6.18,0,0,0,412.75,49.54Z"/><path d="M430,45.51a7.83,7.83,0,0,1,2-2.39,3.64,3.64,0,0,1,2.23-.7,4.08,4.08,0,0,1,.77.07,5.51,5.51,0,0,1,.77.21l-.59,1.7a5.44,5.44,0,0,0-.61-.15,3.21,3.21,0,0,0-.6-.06,3.41,3.41,0,0,0-2.78,1.52,6.11,6.11,0,0,0-1.15,3.8V55.9h-1.8v-13H430Z"/><path d="M448.76,49.45H438.43a6.31,6.31,0,0,0,1.26,3.95,3.91,3.91,0,0,0,3.18,1.44,4.19,4.19,0,0,0,2.52-.78,5.66,5.66,0,0,0,1.8-2.34l1.66.91a7.25,7.25,0,0,1-2.44,2.91,6.42,6.42,0,0,1-3.54.93,6,6,0,0,1-4.62-1.91,7.11,7.11,0,0,1-1.77-5,7.5,7.5,0,0,1,1.75-5.16,5.85,5.85,0,0,1,4.58-2,5.5,5.5,0,0,1,4.32,1.81,6.9,6.9,0,0,1,1.63,4.82Zm-2.14-1.54a3.72,3.72,0,0,0-4-3.75,3.86,3.86,0,0,0-2.75,1,4.14,4.14,0,0,0-1.28,2.72Z"/><path d="M452.51,55.9v-13h1.71v2A5.4,5.4,0,0,1,456.16,43a5.54,5.54,0,0,1,2.65-.62,4.27,4.27,0,0,1,4.67,4.66V55.9h-1.83v-8a4.35,4.35,0,0,0-.81-2.89,3.16,3.16,0,0,0-2.52-1,3.65,3.65,0,0,0-3,1.23,6.12,6.12,0,0,0-1,3.84V55.9Z"/><path d="M477.76,55.9V53.52a4.67,4.67,0,0,1-4.52,2.95,5.74,5.74,0,0,1-4.51-1.92A7.34,7.34,0,0,1,467,49.48a7.57,7.57,0,0,1,1.69-5.09,5.86,5.86,0,0,1,7.2-1.25,4.9,4.9,0,0,1,1.85,2.13V33.19h1.83V55.9ZM469,49.54a5.89,5.89,0,0,0,1.14,3.88,4,4,0,0,0,3.24,1.36,3.86,3.86,0,0,0,3.21-1.48,6.49,6.49,0,0,0,1.17-4.1,5.62,5.62,0,0,0-1.16-3.76,4.34,4.34,0,0,0-6.41.09A6.18,6.18,0,0,0,469,49.54Z"/><path d="M490.27,56.47a6.74,6.74,0,0,1-2.66-.55,7.59,7.59,0,0,1-2.32-1.58,6.53,6.53,0,0,1-1.49-2.22,7.13,7.13,0,0,1-.52-2.7,7,7,0,0,1,2-5A7,7,0,0,1,487.59,43a6.82,6.82,0,0,1,2.68-.53,7.15,7.15,0,0,1,5,2,6.85,6.85,0,0,1,1.55,2.27,7,7,0,0,1,.53,2.68,6.87,6.87,0,0,1-2.05,4.92,7.14,7.14,0,0,1-5.07,2.13Zm.06-1.69A4.85,4.85,0,0,0,494,53.24a5.62,5.62,0,0,0,0-7.6,5,5,0,0,0-7.25,0,5.62,5.62,0,0,0,0,7.6A4.83,4.83,0,0,0,490.33,54.78Z"/><path d="M501.54,54.66A1.43,1.43,0,0,1,502,53.6a1.52,1.52,0,0,1,2.12,0,1.43,1.43,0,0,1,.43,1.06,1.46,1.46,0,0,1-.43,1.07,1.52,1.52,0,0,1-2.12,0A1.46,1.46,0,0,1,501.54,54.66Z"/></svg>