<svg id="fondos" xmlns="http://www.w3.org/2000/svg" viewBox="0 0 838.12 100.16"><defs><style>.cls-1{fill:#e6e6e6;}</style></defs><title>transito2</title><rect class="cls-1" width="838.12" height="100.16"/><path d="M59.5,47.89V26.45H70.13v1.83H61.45V35h8.68v1.83H61.45v9.24h8.68v1.83Z"/><path d="M76.61,47.89H74.75V25.19h1.86Z"/><path d="M90.18,54.43V34.9h1.74v2.43a5.69,5.69,0,0,1,2-2.16,5,5,0,0,1,2.7-.75A5.58,5.58,0,0,1,101,36.34a7.51,7.51,0,0,1,1.68,5.11A7.61,7.61,0,0,1,101,46.56a5.49,5.49,0,0,1-4.37,1.91,5.1,5.1,0,0,1-2.76-.76,5.57,5.57,0,0,1-2-2.22v8.94Zm10.53-13a6.16,6.16,0,0,0-1.15-4,3.84,3.84,0,0,0-3.17-1.45,4,4,0,0,0-3.26,1.4A5.79,5.79,0,0,0,92,41.32a5.92,5.92,0,0,0,1.27,4,4.17,4.17,0,0,0,3.35,1.48,3.64,3.64,0,0,0,3.05-1.4A6.18,6.18,0,0,0,100.71,41.48Z"/><path d="M112.31,48.47a6.78,6.78,0,0,1-2.66-.55,7.59,7.59,0,0,1-2.32-1.58,6.53,6.53,0,0,1-1.49-2.22,7.13,7.13,0,0,1-.51-2.7,6.9,6.9,0,0,1,2-5A7,7,0,0,1,109.63,35a6.82,6.82,0,0,1,2.68-.53,7.15,7.15,0,0,1,5,2,6.85,6.85,0,0,1,1.55,2.27,7,7,0,0,1,.53,2.68,6.87,6.87,0,0,1-.52,2.67,6.76,6.76,0,0,1-1.53,2.25,7.14,7.14,0,0,1-5.07,2.13Zm.06-1.69A4.85,4.85,0,0,0,116,45.24a5.62,5.62,0,0,0,0-7.6,5,5,0,0,0-7.25,0,5.62,5.62,0,0,0,0,7.6A4.83,4.83,0,0,0,112.37,46.78Z"/><path d="M125.13,47.89h-1.86V25.19h1.86Z"/><path d="M129.72,29.83a1.29,1.29,0,0,1,.41-1,1.4,1.4,0,0,1,2,0,1.36,1.36,0,0,1,0,1.95,1.44,1.44,0,0,1-2,0A1.3,1.3,0,0,1,129.72,29.83Zm.45,18.06v-13H132v13Z"/><path d="M147.06,37.27a7,7,0,0,0-1.93-.94A7.19,7.19,0,0,0,143,36a5,5,0,0,0-3.86,1.54,5.85,5.85,0,0,0-1.43,4.12,5.06,5.06,0,0,0,1.49,3.77,5.17,5.17,0,0,0,3.8,1.48,6.46,6.46,0,0,0,2.13-.37,8.05,8.05,0,0,0,2.11-1.1v2a7.77,7.77,0,0,1-2.1.81,11,11,0,0,1-2.48.27,6.53,6.53,0,0,1-4.88-2,6.86,6.86,0,0,1-1.9-5,6.79,6.79,0,0,1,7.15-7.15,10.32,10.32,0,0,1,2.2.22,7.38,7.38,0,0,1,1.84.66Z"/><path d="M149.74,32.81l3.12-5.13h2.4l-4.14,5.13Zm1,15.08v-13h1.86v13Z"/><path d="M167.13,47.89V45.52a4.74,4.74,0,0,1-4.56,2.95,5.72,5.72,0,0,1-4.5-1.92,7.34,7.34,0,0,1-1.71-5.07,7.52,7.52,0,0,1,1.69-5.09,5.88,5.88,0,0,1,7.21-1.25,4.82,4.82,0,0,1,1.87,2.13V34.9h1.8v13Zm-8.76-6.35a5.94,5.94,0,0,0,1.13,3.88,4,4,0,0,0,3.25,1.36A3.91,3.91,0,0,0,166,45.3a6.49,6.49,0,0,0,1.18-4.1A5.62,5.62,0,0,0,166,37.44a4,4,0,0,0-3.21-1.37,4,4,0,0,0-3.23,1.46A6.18,6.18,0,0,0,158.37,41.54Z"/><path d="M180.93,45.58l1.71-1a3.35,3.35,0,0,0,1.23,1.63,3.42,3.42,0,0,0,2,.55,2.69,2.69,0,0,0,1.82-.58,2,2,0,0,0,.67-1.54c0-1-.89-1.84-2.65-2.54a3.15,3.15,0,0,1-.44-.17,8.18,8.18,0,0,1-2.87-1.66,3,3,0,0,1-.82-2.12,3.5,3.5,0,0,1,1.17-2.72,4.32,4.32,0,0,1,3-1.06,5,5,0,0,1,2.7.69,4,4,0,0,1,1.62,2l-1.65.92a2.66,2.66,0,0,0-1-1.4,3,3,0,0,0-1.76-.49,2.23,2.23,0,0,0-1.54.55,1.77,1.77,0,0,0-.61,1.37,1.72,1.72,0,0,0,.6,1.34,8.09,8.09,0,0,0,2.49,1.15,6.64,6.64,0,0,1,2.88,1.63,3.67,3.67,0,0,1,.74,2.43,3.56,3.56,0,0,1-1.28,2.86,5.15,5.15,0,0,1-3.42,1.07,5.22,5.22,0,0,1-2.85-.76A4.18,4.18,0,0,1,180.93,45.58Z"/><path d="M205,41.45H194.7A6.31,6.31,0,0,0,196,45.4a3.9,3.9,0,0,0,3.17,1.44,4.19,4.19,0,0,0,2.52-.78,5.6,5.6,0,0,0,1.81-2.34l1.65.91a7.17,7.17,0,0,1-2.44,2.91,6.39,6.39,0,0,1-3.54.93,6,6,0,0,1-4.62-1.91,7.15,7.15,0,0,1-1.76-5,7.45,7.45,0,0,1,1.75-5.16,5.84,5.84,0,0,1,4.58-2,5.53,5.53,0,0,1,4.32,1.81A6.94,6.94,0,0,1,205,41.05Zm-2.14-1.54a3.71,3.71,0,0,0-4-3.75,3.88,3.88,0,0,0-2.75,1,4.19,4.19,0,0,0-1.28,2.72Z"/><path d="M217.08,29.83a1.38,1.38,0,0,1,1.39-1.37,1.37,1.37,0,0,1,1,.4,1.3,1.3,0,0,1,.42,1,1.31,1.31,0,0,1-.41,1,1.44,1.44,0,0,1-2,0A1.3,1.3,0,0,1,217.08,29.83Zm.45,18.06v-13h1.86v13Z"/><path d="M233.94,47.89V45.52a4.67,4.67,0,0,1-4.53,2.95,5.74,5.74,0,0,1-4.5-1.92,7.34,7.34,0,0,1-1.71-5.07,7.52,7.52,0,0,1,1.69-5.09,5.86,5.86,0,0,1,7.2-1.25,4.9,4.9,0,0,1,1.85,2.13V25.19h1.83v22.7Zm-8.73-6.35a5.94,5.94,0,0,0,1.13,3.88,4,4,0,0,0,3.25,1.36,3.87,3.87,0,0,0,3.21-1.48A6.49,6.49,0,0,0,234,41.2a5.67,5.67,0,0,0-1.16-3.76,4.34,4.34,0,0,0-6.41.09A6.13,6.13,0,0,0,225.21,41.54Z"/><path d="M251.71,41.45H241.38a6.31,6.31,0,0,0,1.26,3.95,3.91,3.91,0,0,0,3.18,1.44,4.19,4.19,0,0,0,2.52-.78,5.66,5.66,0,0,0,1.8-2.34l1.66.91a7.25,7.25,0,0,1-2.44,2.91,6.42,6.42,0,0,1-3.54.93,6,6,0,0,1-4.62-1.91,7.11,7.11,0,0,1-1.77-5,7.45,7.45,0,0,1,1.75-5.16,5.85,5.85,0,0,1,4.58-2,5.5,5.5,0,0,1,4.32,1.81,6.9,6.9,0,0,1,1.63,4.82Zm-2.14-1.54a3.72,3.72,0,0,0-4-3.75,3.86,3.86,0,0,0-2.75,1,4.09,4.09,0,0,0-1.28,2.72Z"/><path d="M255.46,47.89v-13h1.71v2A5.32,5.32,0,0,1,259.11,35a5.54,5.54,0,0,1,2.65-.62,4.27,4.27,0,0,1,4.67,4.66v8.81H264.6v-8a4.35,4.35,0,0,0-.81-2.89,3.16,3.16,0,0,0-2.52-1,3.65,3.65,0,0,0-3,1.23,6.12,6.12,0,0,0-1,3.84v6.78Z"/><path d="M271.47,36.44h-2.39V34.9h2.39V29.57h1.77V34.9h2.61v1.54h-2.61V47.89h-1.77Z"/><path d="M278.19,29.83a1.32,1.32,0,0,1,.41-1,1.35,1.35,0,0,1,1-.4,1.37,1.37,0,0,1,1,.4,1.3,1.3,0,0,1,.42,1,1.34,1.34,0,0,1-.4,1,1.37,1.37,0,0,1-1,.4,1.37,1.37,0,0,1-1.39-1.38Zm.46,18.06v-13h1.86v13Z"/><path d="M285.85,47.89V36.44h-2.43V34.9h2.43V31.15c0-2.61.25-4.3.74-5.07a2.9,2.9,0,0,1,2.68-1.17,5.43,5.43,0,0,1,.92.08,5.19,5.19,0,0,1,.82.23l-.34,1.58a3.37,3.37,0,0,0-.68-.26,2.31,2.31,0,0,0-.61-.09,1.39,1.39,0,0,0-1.34.75,6.57,6.57,0,0,0-.4,2.78V34.9h2.86v1.54h-2.86V47.89Z"/><path d="M292.85,29.83a1.32,1.32,0,0,1,.41-1,1.43,1.43,0,0,1,2,0,1.32,1.32,0,0,1,.41,1,1.3,1.3,0,0,1-.4,1,1.44,1.44,0,0,1-2,0A1.31,1.31,0,0,1,292.85,29.83Zm.46,18.06v-13h1.86v13Z"/><path d="M310.2,37.27a7,7,0,0,0-1.94-.94,7.07,7.07,0,0,0-2.1-.31,5,5,0,0,0-3.86,1.54,5.85,5.85,0,0,0-1.43,4.12,5.09,5.09,0,0,0,1.48,3.77,5.19,5.19,0,0,0,3.81,1.48,6.46,6.46,0,0,0,2.13-.37,8.21,8.21,0,0,0,2.11-1.1v2a7.71,7.71,0,0,1-2.11.81,10.81,10.81,0,0,1-2.47.27,6.53,6.53,0,0,1-4.88-2,6.86,6.86,0,0,1-1.9-5,6.79,6.79,0,0,1,7.14-7.15,10.35,10.35,0,0,1,2.21.22,7.38,7.38,0,0,1,1.84.66Z"/><path d="M323.37,47.89V45.52a4.88,4.88,0,0,1-1.81,2.19,5,5,0,0,1-2.75.76,5.72,5.72,0,0,1-4.5-1.92,7.34,7.34,0,0,1-1.71-5.07,7.52,7.52,0,0,1,1.69-5.09,5.88,5.88,0,0,1,7.21-1.25,4.82,4.82,0,0,1,1.87,2.13V34.9h1.8v13Zm-8.76-6.35a5.94,5.94,0,0,0,1.13,3.88A4,4,0,0,0,319,46.78a3.91,3.91,0,0,0,3.23-1.48,6.49,6.49,0,0,0,1.18-4.1,5.62,5.62,0,0,0-1.17-3.76A4,4,0,0,0,319,36.07a4,4,0,0,0-3.23,1.46A6.18,6.18,0,0,0,314.61,41.54Z"/><path d="M332.35,44.17l2.12.9-3.87,7.54L329.37,52Z"/><path d="M358.45,41.45H348.12a6.31,6.31,0,0,0,1.26,3.95,3.91,3.91,0,0,0,3.18,1.44,4.19,4.19,0,0,0,2.52-.78,5.58,5.58,0,0,0,1.8-2.34l1.66.91a7.25,7.25,0,0,1-2.44,2.91,6.39,6.39,0,0,1-3.54.93,6,6,0,0,1-4.62-1.91,7.11,7.11,0,0,1-1.77-5,7.5,7.5,0,0,1,1.75-5.16,5.85,5.85,0,0,1,4.58-2,5.54,5.54,0,0,1,4.33,1.81,6.94,6.94,0,0,1,1.62,4.82Zm-2.14-1.54a3.71,3.71,0,0,0-4-3.75,3.86,3.86,0,0,0-2.75,1,4.14,4.14,0,0,0-1.28,2.72Z"/><path d="M360.25,34.9h2.24l3.18,4.78,3.18-4.78h2.2l-4.38,6.24,4.83,6.75h-2.22l-3.64-5.24-3.59,5.24H359.8l4.86-6.75Z"/><path d="M374,54.43V34.9h1.74v2.43a5.69,5.69,0,0,1,1.95-2.16,5,5,0,0,1,2.7-.75,5.58,5.58,0,0,1,4.42,1.92,7.56,7.56,0,0,1,1.67,5.11,7.56,7.56,0,0,1-1.64,5.11,5.47,5.47,0,0,1-4.36,1.91,5.11,5.11,0,0,1-2.77-.76,5.57,5.57,0,0,1-2-2.22v8.94Zm10.53-13a6.22,6.22,0,0,0-1.14-4,3.86,3.86,0,0,0-3.18-1.45,4.06,4.06,0,0,0-3.26,1.4,5.84,5.84,0,0,0-1.18,3.85,6,6,0,0,0,1.27,4,4.19,4.19,0,0,0,3.35,1.48,3.61,3.61,0,0,0,3-1.4A6.18,6.18,0,0,0,384.55,41.48Z"/><path d="M392.23,47.89h-1.86V25.19h1.86Z"/><path d="M396.82,29.83a1.29,1.29,0,0,1,.41-1,1.4,1.4,0,0,1,2,0,1.36,1.36,0,0,1,0,1.95,1.44,1.44,0,0,1-2,0A1.3,1.3,0,0,1,396.82,29.83Zm.45,18.06v-13h1.86v13Z"/><path d="M414.16,37.27a7,7,0,0,0-1.93-.94,7.19,7.19,0,0,0-2.11-.31,5,5,0,0,0-3.86,1.54,5.85,5.85,0,0,0-1.43,4.12,5.06,5.06,0,0,0,1.49,3.77,5.17,5.17,0,0,0,3.8,1.48,6.46,6.46,0,0,0,2.13-.37,8.05,8.05,0,0,0,2.11-1.1v2a7.71,7.71,0,0,1-2.11.81,10.81,10.81,0,0,1-2.47.27,6.53,6.53,0,0,1-4.88-2,6.86,6.86,0,0,1-1.9-5,6.79,6.79,0,0,1,7.15-7.15,10.32,10.32,0,0,1,2.2.22,7.38,7.38,0,0,1,1.84.66Z"/><path d="M427.33,47.89V45.52a4.88,4.88,0,0,1-1.81,2.19,5,5,0,0,1-2.75.76,5.74,5.74,0,0,1-4.5-1.92,7.34,7.34,0,0,1-1.71-5.07,7.52,7.52,0,0,1,1.69-5.09,5.88,5.88,0,0,1,7.21-1.25,4.82,4.82,0,0,1,1.87,2.13V34.9h1.8v13Zm-8.76-6.35a5.94,5.94,0,0,0,1.13,3.88A4,4,0,0,0,423,46.78a3.9,3.9,0,0,0,3.23-1.48,6.49,6.49,0,0,0,1.18-4.1,5.57,5.57,0,0,0-1.18-3.76,4.36,4.36,0,0,0-6.43.09A6.18,6.18,0,0,0,418.57,41.54Z"/><path d="M444.58,47.89h-1.86V25.19h1.86Z"/><path d="M459.1,47.89V45.52a4.88,4.88,0,0,1-1.81,2.19,5,5,0,0,1-2.75.76,5.74,5.74,0,0,1-4.5-1.92,7.34,7.34,0,0,1-1.71-5.07A7.57,7.57,0,0,1,450,36.39a5.88,5.88,0,0,1,7.21-1.25,4.82,4.82,0,0,1,1.87,2.13V34.9h1.8v13Zm-8.76-6.35a5.89,5.89,0,0,0,1.14,3.88,4,4,0,0,0,3.24,1.36A3.9,3.9,0,0,0,458,45.3a6.43,6.43,0,0,0,1.18-4.1A5.62,5.62,0,0,0,458,37.44a4,4,0,0,0-3.21-1.37,3.93,3.93,0,0,0-3.22,1.46A6.18,6.18,0,0,0,450.34,41.54Z"/><path d="M474,29.83a1.32,1.32,0,0,1,.41-1,1.35,1.35,0,0,1,1-.4,1.37,1.37,0,0,1,1,.4,1.3,1.3,0,0,1,.42,1,1.34,1.34,0,0,1-.4,1,1.37,1.37,0,0,1-1,.4,1.34,1.34,0,0,1-1-.4A1.3,1.3,0,0,1,474,29.83Zm.46,18.06v-13h1.86v13Z"/><path d="M481.28,47.89v-13H483v2A5.4,5.4,0,0,1,484.93,35a5.54,5.54,0,0,1,2.65-.62,4.27,4.27,0,0,1,4.67,4.66v8.81h-1.83v-8a4.35,4.35,0,0,0-.81-2.89,3.16,3.16,0,0,0-2.52-1,3.65,3.65,0,0,0-3,1.23,6.12,6.12,0,0,0-1,3.84v6.78Z"/><path d="M497.33,47.89V36.44H494.9V34.9h2.43V31.15c0-2.61.25-4.3.74-5.07a2.9,2.9,0,0,1,2.68-1.17,5.43,5.43,0,0,1,.92.08,4.91,4.91,0,0,1,.82.23l-.34,1.58a3.37,3.37,0,0,0-.68-.26,2.31,2.31,0,0,0-.61-.09,1.41,1.41,0,0,0-1.35.75,6.78,6.78,0,0,0-.39,2.78V34.9H502v1.54h-2.86V47.89Z"/><path d="M506.47,37.51a8.13,8.13,0,0,1,2-2.39,3.66,3.66,0,0,1,2.23-.7,4,4,0,0,1,.77.07,5.16,5.16,0,0,1,.77.21l-.59,1.7a5.26,5.26,0,0,0-.6-.15,3.31,3.31,0,0,0-.61-.06,3.42,3.42,0,0,0-2.78,1.52,6.17,6.17,0,0,0-1.15,3.8v6.38h-1.8v-13h1.8Z"/><path d="M523.71,47.89V45.52a4.93,4.93,0,0,1-1.8,2.19,5,5,0,0,1-2.75.76,5.71,5.71,0,0,1-4.5-1.92A7.34,7.34,0,0,1,513,41.48a7.56,7.56,0,0,1,1.68-5.09,5.89,5.89,0,0,1,7.22-1.25,4.86,4.86,0,0,1,1.86,2.13V34.9h1.81v13ZM515,41.54a5.89,5.89,0,0,0,1.14,3.88,4,4,0,0,0,3.25,1.36,3.91,3.91,0,0,0,3.23-1.48,6.49,6.49,0,0,0,1.17-4.1,5.62,5.62,0,0,0-1.17-3.76,4,4,0,0,0-3.21-1.37,4,4,0,0,0-3.22,1.46A6.18,6.18,0,0,0,515,41.54Z"/><path d="M540.46,37.27a7,7,0,0,0-1.94-.94,7.07,7.07,0,0,0-2.1-.31,5,5,0,0,0-3.86,1.54,5.81,5.81,0,0,0-1.43,4.12,5.09,5.09,0,0,0,1.48,3.77,5.19,5.19,0,0,0,3.81,1.48,6.46,6.46,0,0,0,2.13-.37,8.21,8.21,0,0,0,2.11-1.1v2a7.71,7.71,0,0,1-2.11.81,10.81,10.81,0,0,1-2.47.27,6.52,6.52,0,0,1-4.88-2,6.86,6.86,0,0,1-1.9-5,6.79,6.79,0,0,1,7.14-7.15,10.35,10.35,0,0,1,2.21.22,7.38,7.38,0,0,1,1.84.66Z"/><path d="M554.14,37.27a7,7,0,0,0-1.93-.94A7.19,7.19,0,0,0,550.1,36a5,5,0,0,0-3.86,1.54,5.85,5.85,0,0,0-1.43,4.12,5.06,5.06,0,0,0,1.49,3.77,5.17,5.17,0,0,0,3.8,1.48,6.46,6.46,0,0,0,2.13-.37,8.05,8.05,0,0,0,2.11-1.1v2a7.77,7.77,0,0,1-2.1.81,11,11,0,0,1-2.48.27,6.53,6.53,0,0,1-4.88-2,6.86,6.86,0,0,1-1.9-5,6.79,6.79,0,0,1,7.15-7.15,10.32,10.32,0,0,1,2.2.22,7.38,7.38,0,0,1,1.84.66Z"/><path d="M557.38,29.83a1.29,1.29,0,0,1,.41-1,1.34,1.34,0,0,1,1-.4,1.37,1.37,0,0,1,1,.4,1.29,1.29,0,0,1,.41,1,1.3,1.3,0,0,1-.4,1,1.44,1.44,0,0,1-2,0A1.3,1.3,0,0,1,557.38,29.83Zm.45,18.06v-13h1.86v13Z"/><path d="M570.52,48.47a6.79,6.79,0,0,1-2.67-.55,7.43,7.43,0,0,1-2.31-1.58,6.42,6.42,0,0,1-1.5-2.22,7.13,7.13,0,0,1-.51-2.7,7,7,0,0,1,2-5A6.92,6.92,0,0,1,567.84,35a6.75,6.75,0,0,1,2.68-.53,7.06,7.06,0,0,1,2.73.53,7.19,7.19,0,0,1,2.31,1.52,7,7,0,0,1,1.54,2.27,6.79,6.79,0,0,1,.54,2.68,6.88,6.88,0,0,1-.53,2.67,6.73,6.73,0,0,1-1.52,2.25,7.33,7.33,0,0,1-2.34,1.58A7.16,7.16,0,0,1,570.52,48.47Zm.06-1.69a4.83,4.83,0,0,0,3.62-1.54,5.6,5.6,0,0,0,0-7.6,5,5,0,0,0-7.25,0,5.62,5.62,0,0,0,0,7.6A4.8,4.8,0,0,0,570.58,46.78Zm-2-14,3.12-5.13h2.4L570,32.81Z"/><path d="M581.36,47.89v-13h1.71v2A5.32,5.32,0,0,1,585,35a5.54,5.54,0,0,1,2.65-.62,4.27,4.27,0,0,1,4.67,4.66v8.81H590.5v-8a4.3,4.3,0,0,0-.82-2.89,3.14,3.14,0,0,0-2.51-1,3.64,3.64,0,0,0-3,1.23,6.12,6.12,0,0,0-1,3.84v6.78Z"/><path d="M615.74,37.27a7,7,0,0,0-1.94-.94,7.09,7.09,0,0,0-2.11-.31,5,5,0,0,0-3.85,1.54,5.81,5.81,0,0,0-1.43,4.12,5.09,5.09,0,0,0,1.48,3.77,5.19,5.19,0,0,0,3.8,1.48,6.37,6.37,0,0,0,2.13-.37,8.1,8.1,0,0,0,2.12-1.1v2a7.84,7.84,0,0,1-2.11.81,10.81,10.81,0,0,1-2.47.27,6.52,6.52,0,0,1-4.88-2,6.86,6.86,0,0,1-1.91-5,6.81,6.81,0,0,1,7.15-7.15,10.42,10.42,0,0,1,2.21.22,7.31,7.31,0,0,1,1.83.66Z"/><path d="M625.21,48.47a6.78,6.78,0,0,1-2.66-.55,7.59,7.59,0,0,1-2.32-1.58,6.53,6.53,0,0,1-1.49-2.22,7.13,7.13,0,0,1-.51-2.7,6.9,6.9,0,0,1,2-5A7,7,0,0,1,622.53,35a6.82,6.82,0,0,1,2.68-.53,7.15,7.15,0,0,1,5,2,6.85,6.85,0,0,1,1.55,2.27,7,7,0,0,1,.53,2.68,6.87,6.87,0,0,1-.52,2.67,6.76,6.76,0,0,1-1.53,2.25,7.14,7.14,0,0,1-5.07,2.13Zm.06-1.69a4.84,4.84,0,0,0,3.63-1.54,5.63,5.63,0,0,0,0-7.6,5,5,0,0,0-7.26,0,5.62,5.62,0,0,0,0,7.6A4.83,4.83,0,0,0,625.27,46.78Z"/><path d="M637.85,47.89h-1.8v-13h1.8v2a4.72,4.72,0,0,1,1.7-1.88,4.61,4.61,0,0,1,2.44-.64,4.4,4.4,0,0,1,2.42.65A4.24,4.24,0,0,1,646,37a5,5,0,0,1,4.52-2.56,4.27,4.27,0,0,1,3.25,1.25,4.81,4.81,0,0,1,1.19,3.44v8.78h-1.8V39.82a4.51,4.51,0,0,0-.78-2.87A2.86,2.86,0,0,0,650,36a3.13,3.13,0,0,0-2.73,1.21,6.64,6.64,0,0,0-.87,3.85v6.84h-1.79V39.82a4.59,4.59,0,0,0-.75-2.91,2.79,2.79,0,0,0-2.31-.92,3.22,3.22,0,0,0-2.8,1.23,6.53,6.53,0,0,0-.9,3.83Z"/><path d="M670.89,41.45H660.56a6.31,6.31,0,0,0,1.26,3.95A3.91,3.91,0,0,0,665,46.84a4.19,4.19,0,0,0,2.52-.78,5.66,5.66,0,0,0,1.8-2.34l1.66.91a7.25,7.25,0,0,1-2.44,2.91,6.42,6.42,0,0,1-3.54.93,6,6,0,0,1-4.62-1.91,7.11,7.11,0,0,1-1.77-5,7.45,7.45,0,0,1,1.75-5.16,5.85,5.85,0,0,1,4.58-2,5.5,5.5,0,0,1,4.32,1.81,6.94,6.94,0,0,1,1.63,4.82Zm-2.14-1.54a4.07,4.07,0,0,0-1.19-2.77,4,4,0,0,0-2.85-1,3.86,3.86,0,0,0-2.75,1,4.09,4.09,0,0,0-1.28,2.72Z"/><path d="M675,36.44h-2.39V34.9H675V29.57h1.77V34.9h2.61v1.54h-2.61V47.89H675Z"/><path d="M681.74,29.83a1.38,1.38,0,0,1,1.39-1.37,1.37,1.37,0,0,1,1,.4,1.36,1.36,0,0,1,0,1.95,1.37,1.37,0,0,1-1,.4,1.38,1.38,0,0,1-1.39-1.38Zm.46,18.06v-13h1.86v13Z"/><path d="M698.6,47.89V45.52a4.67,4.67,0,0,1-4.52,2.95,5.74,5.74,0,0,1-4.51-1.92,7.34,7.34,0,0,1-1.71-5.07,7.57,7.57,0,0,1,1.69-5.09,5.86,5.86,0,0,1,7.2-1.25,4.9,4.9,0,0,1,1.85,2.13V25.19h1.83v22.7Zm-8.73-6.35A5.89,5.89,0,0,0,691,45.42a4,4,0,0,0,3.24,1.36,3.86,3.86,0,0,0,3.21-1.48,6.49,6.49,0,0,0,1.17-4.1,5.62,5.62,0,0,0-1.16-3.76,4.34,4.34,0,0,0-6.41.09A6.18,6.18,0,0,0,689.87,41.54Z"/><path d="M714.8,47.89V45.52A4.88,4.88,0,0,1,713,47.71a4.94,4.94,0,0,1-2.74.76,5.74,5.74,0,0,1-4.51-1.92,7.33,7.33,0,0,1-1.7-5.07,7.56,7.56,0,0,1,1.68-5.09,5.88,5.88,0,0,1,7.21-1.25,4.82,4.82,0,0,1,1.87,2.13V34.9h1.8v13ZM706,41.54a5.89,5.89,0,0,0,1.14,3.88,4,4,0,0,0,3.24,1.36,3.88,3.88,0,0,0,3.23-1.48,6.43,6.43,0,0,0,1.18-4.1,5.62,5.62,0,0,0-1.17-3.76,4,4,0,0,0-3.21-1.37,3.93,3.93,0,0,0-3.22,1.46A6.18,6.18,0,0,0,706,41.54Z"/><path d="M728.31,34.9h1.92L734,45.07l3.43-10.17h1.92l-6.73,19.53h-1.86L733,47.81Z"/><path d="M752.79,47.89h-1.86V25.19h1.86Z"/><path d="M763.61,48.47a6.74,6.74,0,0,1-2.66-.55,7.59,7.59,0,0,1-2.32-1.58,6.53,6.53,0,0,1-1.49-2.22,7.13,7.13,0,0,1-.52-2.7,7,7,0,0,1,2-5A7,7,0,0,1,760.93,35a6.78,6.78,0,0,1,2.68-.53,7.15,7.15,0,0,1,5,2,6.85,6.85,0,0,1,1.55,2.27,7,7,0,0,1,.53,2.68,6.87,6.87,0,0,1-2.05,4.92,7.14,7.14,0,0,1-5.07,2.13Zm.06-1.69a4.85,4.85,0,0,0,3.63-1.54,5.62,5.62,0,0,0,0-7.6,5,5,0,0,0-7.25,0,5.62,5.62,0,0,0,0,7.6A4.83,4.83,0,0,0,763.67,46.78Z"/><path d="M70.67,80H68.92V71.09a5.43,5.43,0,0,1-2,2.22,5.16,5.16,0,0,1-2.79.76,5.45,5.45,0,0,1-4.36-1.92,7.51,7.51,0,0,1-1.64-5.1,7.51,7.51,0,0,1,1.67-5.11A5.57,5.57,0,0,1,64.25,60a5,5,0,0,1,2.73.76,5.47,5.47,0,0,1,1.94,2.15V60.5h1.75ZM64.46,61.67a3.87,3.87,0,0,0-3.19,1.45,6.11,6.11,0,0,0-1.16,4,6.11,6.11,0,0,0,1.1,3.9,3.68,3.68,0,0,0,3.07,1.4,4.12,4.12,0,0,0,3.33-1.48,5.92,5.92,0,0,0,1.26-4,5.78,5.78,0,0,0-1.18-3.86A4,4,0,0,0,64.46,61.67Z"/><path d="M77.27,60.5V67a7.61,7.61,0,0,0,.85,4.18,3.94,3.94,0,0,0,5.7,0A7.47,7.47,0,0,0,84.69,67V60.5h1.78v7.41a6.71,6.71,0,0,1-1.39,4.6A5.19,5.19,0,0,1,81,74.07a5.27,5.27,0,0,1-4.12-1.56,6.66,6.66,0,0,1-1.41-4.6V60.5Z"/><path d="M102.44,67.05H92.11a6.31,6.31,0,0,0,1.26,4,3.91,3.91,0,0,0,3.18,1.44,4.19,4.19,0,0,0,2.52-.78,5.73,5.73,0,0,0,1.8-2.34l1.66.91a7.25,7.25,0,0,1-2.44,2.91,6.39,6.39,0,0,1-3.54.93,6,6,0,0,1-4.62-1.92,7.06,7.06,0,0,1-1.76-5A7.45,7.45,0,0,1,91.92,62a5.82,5.82,0,0,1,4.57-2,5.5,5.5,0,0,1,4.32,1.81,6.9,6.9,0,0,1,1.63,4.82Zm-2.14-1.54a3.72,3.72,0,0,0-4-3.75,3.88,3.88,0,0,0-2.75,1,4.14,4.14,0,0,0-1.28,2.72Z"/><path d="M113.35,71.18l1.72-1a3.35,3.35,0,0,0,1.23,1.63,3.38,3.38,0,0,0,2,.55,2.67,2.67,0,0,0,1.82-.58,1.92,1.92,0,0,0,.67-1.54c0-1-.88-1.84-2.65-2.54l-.44-.17a8.37,8.37,0,0,1-2.87-1.66,3,3,0,0,1-.82-2.12,3.48,3.48,0,0,1,1.18-2.72,4.32,4.32,0,0,1,3-1.06,5,5,0,0,1,2.69.69,4,4,0,0,1,1.63,2l-1.66.92a2.59,2.59,0,0,0-1-1.4,3,3,0,0,0-1.76-.49,2.26,2.26,0,0,0-1.55.55,1.8,1.8,0,0,0-.6,1.37,1.72,1.72,0,0,0,.6,1.34A8.09,8.09,0,0,0,119,66.08a6.77,6.77,0,0,1,2.88,1.63,3.66,3.66,0,0,1,.74,2.43A3.56,3.56,0,0,1,121.35,73a5.87,5.87,0,0,1-6.27.31A4.2,4.2,0,0,1,113.35,71.18Z"/><path d="M137.45,67.05H127.12a6.31,6.31,0,0,0,1.26,4,3.91,3.91,0,0,0,3.18,1.44,4.19,4.19,0,0,0,2.52-.78,5.73,5.73,0,0,0,1.8-2.34l1.66.91a7.25,7.25,0,0,1-2.44,2.91,6.39,6.39,0,0,1-3.54.93,6,6,0,0,1-4.62-1.92,7.07,7.07,0,0,1-1.77-5A7.5,7.5,0,0,1,126.92,62a5.85,5.85,0,0,1,4.58-2,5.5,5.5,0,0,1,4.32,1.81,6.9,6.9,0,0,1,1.63,4.82Zm-2.14-1.54a3.72,3.72,0,0,0-4-3.75,3.86,3.86,0,0,0-2.75,1,4.14,4.14,0,0,0-1.28,2.72Z"/><path d="M159.47,73.49V71.12a4.67,4.67,0,0,1-4.53,2.95,5.72,5.72,0,0,1-4.5-1.92,7.34,7.34,0,0,1-1.71-5.07A7.56,7.56,0,0,1,150.41,62a5.49,5.49,0,0,1,4.35-2,5.39,5.39,0,0,1,2.85.72,4.86,4.86,0,0,1,1.86,2.13V50.79h1.83v22.7Zm-8.73-6.35A5.89,5.89,0,0,0,151.87,71a4,4,0,0,0,3.25,1.36,3.83,3.83,0,0,0,3.2-1.49,6.44,6.44,0,0,0,1.18-4.09A5.67,5.67,0,0,0,158.34,63a4.35,4.35,0,0,0-6.42.09A6.18,6.18,0,0,0,150.74,67.14Z"/><path d="M177.24,67.05H166.91a6.31,6.31,0,0,0,1.26,4,3.91,3.91,0,0,0,3.18,1.44,4.23,4.23,0,0,0,2.52-.78,5.73,5.73,0,0,0,1.8-2.34l1.65.91a7.17,7.17,0,0,1-2.44,2.91,6.38,6.38,0,0,1-3.53.93,6,6,0,0,1-4.62-1.92,7.07,7.07,0,0,1-1.77-5A7.45,7.45,0,0,1,166.71,62a5.84,5.84,0,0,1,4.58-2,5.52,5.52,0,0,1,4.32,1.81,6.94,6.94,0,0,1,1.63,4.82Zm-2.14-1.54a3.72,3.72,0,0,0-4-3.75,3.84,3.84,0,0,0-2.74,1A4.15,4.15,0,0,0,167,65.51Z"/><path d="M182.79,73.49H181V50.79h1.8V62.87a4.84,4.84,0,0,1,1.85-2.13,5.86,5.86,0,0,1,7.2,1.25,7.56,7.56,0,0,1,1.68,5.09,7.38,7.38,0,0,1-1.7,5.07,5.74,5.74,0,0,1-4.51,1.92,4.67,4.67,0,0,1-4.52-2.95Zm8.73-6.35a6.18,6.18,0,0,0-1.19-4,4.34,4.34,0,0,0-6.41-.09,5.62,5.62,0,0,0-1.16,3.76,6.38,6.38,0,0,0,1.18,4.09,3.87,3.87,0,0,0,3.23,1.49A4,4,0,0,0,190.39,71,6,6,0,0,0,191.52,67.14Z"/><path d="M208.38,67.05H198.05a6.31,6.31,0,0,0,1.26,4,3.91,3.91,0,0,0,3.18,1.44,4.19,4.19,0,0,0,2.52-.78,5.73,5.73,0,0,0,1.8-2.34l1.66.91A7.25,7.25,0,0,1,206,73.14a6.42,6.42,0,0,1-3.54.93,6,6,0,0,1-4.62-1.92,7.07,7.07,0,0,1-1.77-5A7.45,7.45,0,0,1,197.85,62a5.85,5.85,0,0,1,4.58-2,5.5,5.5,0,0,1,4.32,1.81,6.9,6.9,0,0,1,1.63,4.82Zm-2.14-1.54a4.07,4.07,0,0,0-1.19-2.77,4,4,0,0,0-2.85-1,3.86,3.86,0,0,0-2.75,1,4.09,4.09,0,0,0-1.28,2.72Z"/><path d="M222.57,63.11a8.13,8.13,0,0,1,2-2.39,3.66,3.66,0,0,1,2.23-.7,4.08,4.08,0,0,1,.77.07,5.16,5.16,0,0,1,.77.21l-.59,1.7a5.26,5.26,0,0,0-.6-.15,3.31,3.31,0,0,0-.61-.06,3.41,3.41,0,0,0-2.78,1.52,6.11,6.11,0,0,0-1.15,3.8v6.38h-1.8v-13h1.8Z"/><path d="M241.38,67.05H231.05a6.31,6.31,0,0,0,1.26,4,3.91,3.91,0,0,0,3.18,1.44,4.19,4.19,0,0,0,2.52-.78,5.65,5.65,0,0,0,1.8-2.34l1.66.91A7.25,7.25,0,0,1,239,73.14a6.39,6.39,0,0,1-3.54.93,6,6,0,0,1-4.62-1.92,7.07,7.07,0,0,1-1.77-5A7.5,7.5,0,0,1,230.85,62a5.85,5.85,0,0,1,4.58-2,5.5,5.5,0,0,1,4.32,1.81,6.9,6.9,0,0,1,1.63,4.82Zm-2.14-1.54a3.71,3.71,0,0,0-4-3.75,3.86,3.86,0,0,0-2.75,1,4.14,4.14,0,0,0-1.28,2.72Z"/><path d="M254.73,73.49V71.12a5,5,0,0,1-1.81,2.19,5,5,0,0,1-2.75.76,5.71,5.71,0,0,1-4.5-1.92A7.34,7.34,0,0,1,244,67.08,7.56,7.56,0,0,1,245.64,62a5.89,5.89,0,0,1,7.22-1.25,4.88,4.88,0,0,1,1.87,2.13V60.5h1.8v13ZM246,67.14A5.89,5.89,0,0,0,247.1,71a4,4,0,0,0,3.24,1.36,3.9,3.9,0,0,0,3.24-1.49,6.44,6.44,0,0,0,1.17-4.09A5.62,5.62,0,0,0,253.58,63a4,4,0,0,0-3.21-1.37,4,4,0,0,0-3.22,1.46A6.18,6.18,0,0,0,246,67.14Z"/><path d="M263.34,73.49h-1.86V50.79h1.86Z"/><path d="M267.92,55.43a1.32,1.32,0,0,1,.41-1,1.36,1.36,0,0,1,1-.4,1.34,1.34,0,0,1,1,.4,1.36,1.36,0,0,1,0,1.95,1.35,1.35,0,0,1-1,.4,1.38,1.38,0,0,1-1.4-1.38Zm.46,18.06v-13h1.86v13Z"/><path d="M273.09,73.49l7.25-11.36h-6.75V60.5h9.88l-7.2,11.37h7.4v1.62Z"/><path d="M296.18,73.49V71.12a4.88,4.88,0,0,1-1.81,2.19,5,5,0,0,1-2.75.76,5.74,5.74,0,0,1-4.5-1.92,7.34,7.34,0,0,1-1.71-5.07A7.57,7.57,0,0,1,287.1,62a5.88,5.88,0,0,1,7.21-1.25,4.82,4.82,0,0,1,1.87,2.13V60.5H298v13Zm-8.76-6.35A5.89,5.89,0,0,0,288.56,71a4,4,0,0,0,3.24,1.36A3.88,3.88,0,0,0,295,70.89a6.38,6.38,0,0,0,1.18-4.09A5.62,5.62,0,0,0,295,63a4,4,0,0,0-3.21-1.37,3.93,3.93,0,0,0-3.22,1.46A6.18,6.18,0,0,0,287.42,67.14Z"/><path d="M304.62,63.11a8,8,0,0,1,1.95-2.39,3.69,3.69,0,0,1,2.24-.7,4.08,4.08,0,0,1,.77.07,5,5,0,0,1,.76.21l-.58,1.7a6,6,0,0,0-.61-.15,3.23,3.23,0,0,0-.61-.06,3.39,3.39,0,0,0-2.77,1.52,6.11,6.11,0,0,0-1.15,3.8v6.38h-1.8v-13h1.8Z"/><path d="M309.67,72.26a1.47,1.47,0,0,1,.43-1.06,1.46,1.46,0,0,1,1.07-.43,1.43,1.43,0,0,1,1.06.43,1.47,1.47,0,0,1,.43,1.06,1.5,1.5,0,0,1-.43,1.07,1.47,1.47,0,0,1-1.06.43,1.47,1.47,0,0,1-1.5-1.5Z"/></svg>