<svg xmlns="http://www.w3.org/2000/svg" viewBox="0 0 356.75 320.4"><defs><style>.cls-1{isolation:isolate;}.cls-2{fill:#fff;}.cls-3{fill:#d31c25;}.cls-4{fill:#4d4d4d;}.cls-5{fill:gray;}.cls-6{fill:none;stroke:#666;stroke-miterlimit:10;stroke-width:2px;}.cls-7{fill:#ff4335;}.cls-8{fill:#9e151c;}.cls-9{fill:#301404;opacity:0.25;mix-blend-mode:multiply;}</style></defs><title>flag_transito</title><g class="cls-1"><g id="Capa_2" data-name="Capa 2"><g id="ALERTAS"><path class="cls-2" d="M343.67,0H13.08A13.07,13.07,0,0,0,0,13.08v98.08a13.07,13.07,0,0,0,13.08,13.08H151.19l26.57,46,26.56-46H343.67a13.07,13.07,0,0,0,13.08-13.08V13.08A13.07,13.07,0,0,0,343.67,0Z"/><path class="cls-2" d="M21.51,11.61h99.11a1.54,1.54,0,0,1,1.54,1.54v99.56a1.54,1.54,0,0,1-1.54,1.54H21.51a5.84,5.84,0,0,1-5.84-5.84v-91A5.84,5.84,0,0,1,21.51,11.61Z"/><path class="cls-3" d="M123.69,11.61H335.24a5.84,5.84,0,0,1,5.84,5.84v91a5.84,5.84,0,0,1-5.84,5.84H123.69a1.54,1.54,0,0,1-1.54-1.54V13.15A1.54,1.54,0,0,1,123.69,11.61Z"/><ellipse class="cls-4" cx="71.2" cy="78.91" rx="28.72" ry="12.64"/><rect class="cls-4" x="42.48" y="74.92" width="57.43" height="3.95" rx="1.54"/><ellipse class="cls-5" cx="71.2" cy="74.46" rx="28.72" ry="12.64"/><ellipse class="cls-6" cx="71.2" cy="74.46" rx="26.75" ry="10.67"/><ellipse class="cls-3" cx="71.58" cy="74.96" rx="23.97" ry="7.18"/><path class="cls-3" d="M48,72.6l5.35-30.39a2,2,0,0,1,2-1.63H87.84a2,2,0,0,1,2,1.63L95.14,72.6a2,2,0,0,1-1.94,2.32H50A2,2,0,0,1,48,72.6Z"/><ellipse class="cls-3" cx="71.58" cy="40.62" rx="17.93" ry="7.18"/><path class="cls-7" d="M71.58,46.12a33.6,33.6,0,0,1-12.06-2c-2.58-1-4.19-2.39-4.19-3.52s1.61-2.48,4.19-3.52a33.82,33.82,0,0,1,12.06-2,33.81,33.81,0,0,1,12,2c2.58,1,4.19,2.39,4.19,3.52s-1.61,2.48-4.19,3.52A33.58,33.58,0,0,1,71.58,46.12Z"/><path class="cls-7" d="M53.85,47.93,49.52,73.57a1.86,1.86,0,0,0,.21,1.27c.67,1.11,2.92,3,10.49,3.88a2,2,0,0,0,2.18-1.67l3.88-26a2,2,0,0,0-1.67-2.24,28.18,28.18,0,0,1-8-2.27A2,2,0,0,0,53.85,47.93Z"/><circle class="cls-8" cx="77.69" cy="75.59" r="2.86"/><path class="cls-8" d="M74,52l.88,15.12a2.92,2.92,0,0,0,2.73,2.94,2.86,2.86,0,0,0,3-2.85L81.42,52a1.28,1.28,0,0,0-1.28-1.28H75.23A1.28,1.28,0,0,0,74,52Z"/><circle class="cls-2" cx="79.26" cy="74.41" r="2.86"/><path class="cls-2" d="M75.52,50.85,76.4,66a2.92,2.92,0,0,0,2.73,2.94,2.86,2.86,0,0,0,3-2.85L83,50.85a1.28,1.28,0,0,0-1.28-1.28H76.81A1.28,1.28,0,0,0,75.52,50.85Z"/><path class="cls-2" d="M147.48,34.64a2.71,2.71,0,0,1,.83-2,2.77,2.77,0,0,1,2-.83,2.78,2.78,0,0,1,2.81,2.81,2.84,2.84,0,0,1-4.82,2A2.71,2.71,0,0,1,147.48,34.64ZM148,40h4.69V57.19H148Z"/><path class="cls-2" d="M157.19,56.54l9.19-24.16h5.91l9.33,24.16h-5.88l-2-5.13h-9.36l-1.69,5.13Zm15.38-9.19-2.7-7.81a11.51,11.51,0,0,1-.3-1.19c-.12-.56-.25-1.25-.38-2.06-.14.78-.28,1.48-.41,2.1s-.23,1-.3,1.25l-2.61,7.71Z"/><path class="cls-2" d="M185.52,56.54V32.38h5.16V52.15h8.26v4.39Z"/><path class="cls-2" d="M203.54,56.54V32.38h14.23v4.35h-9.06v5h9.06v4.39h-9.06v6.06h9.06v4.39Z"/><path class="cls-2" d="M241.68,56.54h-6l-6.36-11.29V56.54h-5.17V32.38h7.4c2.94,0,5.14.56,6.6,1.7a6.11,6.11,0,0,1,2.2,5.15,6.37,6.37,0,0,1-1.5,4.26A5.91,5.91,0,0,1,235,45.55ZM229.36,42.68h.78q3.13,0,4.14-.69a2.67,2.67,0,0,0,1-2.38,2.88,2.88,0,0,0-1.08-2.54,7.71,7.71,0,0,0-4.07-.75h-.78Z"/><path class="cls-2" d="M255.06,36.77V56.54h-5.18V36.77H244V32.38h17v4.39Z"/><path class="cls-2" d="M261,56.54l9.2-24.16h5.91l9.32,24.16h-5.87l-2-5.13h-9.36l-1.68,5.13Zm15.39-9.19-2.71-7.81a11.51,11.51,0,0,1-.3-1.19c-.12-.56-.25-1.25-.38-2.06-.14.78-.28,1.48-.41,2.1s-.23,1-.3,1.25l-2.61,7.71Z"/><path class="cls-2" d="M289.45,54.35a2.7,2.7,0,0,1,.83-2,2.82,2.82,0,0,1,4.82,2,2.77,2.77,0,0,1-.82,2,2.71,2.71,0,0,1-2,.83,2.85,2.85,0,0,1-2.84-2.84Zm.48-5.35V31.83h4.69V49Z"/><path class="cls-2" d="M156.38,75.25V95H151.2V75.25h-5.91V70.86h17v4.39Z"/><path class="cls-2" d="M184.51,95h-6l-6.36-11.29V95H167V70.86h7.39q4.41,0,6.61,1.71a6.13,6.13,0,0,1,2.19,5.14,6.33,6.33,0,0,1-1.5,4.26A5.88,5.88,0,0,1,177.84,84ZM172.19,81.16H173c2.09,0,3.47-.22,4.14-.68a2.69,2.69,0,0,0,1-2.39A2.87,2.87,0,0,0,177,75.56a7.71,7.71,0,0,0-4.07-.75h-.78Z"/><path class="cls-2" d="M186,95l9.2-24.17h5.91L210.43,95h-5.88l-2-5.13h-9.36L191.54,95Zm15.39-9.19L198.67,78c-.07-.23-.17-.63-.29-1.19s-.25-1.25-.38-2.06c-.15.78-.28,1.48-.42,2.1s-.23,1-.29,1.25l-2.61,7.71Z"/><path class="cls-2" d="M214.32,95V70.86h5.37l10.7,14.07a11.3,11.3,0,0,1,1,1.67c.37.73.75,1.58,1.15,2.56q-.18-1.08-.27-2.13c-.05-.71-.08-1.59-.08-2.65V70.86h4.94V95h-5.07l-11-14.33a10.56,10.56,0,0,1-1-1.67c-.37-.72-.75-1.59-1.16-2.59.12.7.21,1.4.27,2.11s.08,1.6.08,2.68V95Z"/><path class="cls-2" d="M242.32,92l2.87-3.25a4.45,4.45,0,0,0,1.75,2.1,4.89,4.89,0,0,0,2.71.77,4.37,4.37,0,0,0,2.87-.86,2.8,2.8,0,0,0,1.06-2.31q0-1.71-3.52-3.42c-.76-.36-1.36-.66-1.8-.89a13.52,13.52,0,0,1-4.39-3.22A6.32,6.32,0,0,1,245,72.21a9.46,9.46,0,0,1,6.15-1.92,8.69,8.69,0,0,1,3.79.76,7.74,7.74,0,0,1,2.81,2.4l-3,2.93a3.72,3.72,0,0,0-1.45-1.58,4.23,4.23,0,0,0-2.17-.52,3.78,3.78,0,0,0-2.47.77,2.43,2.43,0,0,0-.94,2q0,1.9,3.73,3.5l1.14.49a12.75,12.75,0,0,1,4.54,3.17,6.09,6.09,0,0,1,1.48,4,6.8,6.8,0,0,1-2.32,5.42,9.12,9.12,0,0,1-6.23,2,10.79,10.79,0,0,1-4.75-1A6.41,6.41,0,0,1,242.32,92Z"/><path class="cls-2" d="M264.26,95V70.86h5.17V95Z"/><path class="cls-2" d="M285.32,75.25V95h-5.18V75.25h-5.91V70.86h17v4.39Z"/><path class="cls-2" d="M320.12,83a12.63,12.63,0,0,1-1,4.9A11.91,11.91,0,0,1,316.38,92a13.41,13.41,0,0,1-4.25,2.76,12.91,12.91,0,0,1-9.22.21A13.44,13.44,0,0,1,299,92.77a12.38,12.38,0,0,1-3.5-4.34,12.88,12.88,0,0,1-.25-10.33,12.21,12.21,0,0,1,2.8-4.07,13.24,13.24,0,0,1,4.22-2.74,13,13,0,0,1,4.95-1,12.87,12.87,0,0,1,4.91,1A13.35,13.35,0,0,1,316.38,74a12.27,12.27,0,0,1,2.79,4.08A12.54,12.54,0,0,1,320.12,83Zm-12.87,8.07a7.08,7.08,0,0,0,5.42-2.3,8.83,8.83,0,0,0,0-11.55,7.45,7.45,0,0,0-10.85,0,8.87,8.87,0,0,0,0,11.57A7.13,7.13,0,0,0,307.25,91.07Z"/><polygon class="cls-2" points="205 60.84 200.02 66.72 197.76 66.72 200.89 60.84 205 60.84"/><ellipse class="cls-9" cx="178.38" cy="297.27" rx="86.04" ry="23.13"/></g></g></g></svg>