<svg id="fondos" xmlns="http://www.w3.org/2000/svg" viewBox="0 0 838.12 100.16"><defs><style>.cls-1{fill:#e6e6e6;}</style></defs><title>transito3</title><rect class="cls-1" width="838.12" height="100.16"/><path d="M57.86,54.07l1.67-.9a4.69,4.69,0,0,0,1.62,2.46,4.47,4.47,0,0,0,2.77.87,4.17,4.17,0,0,0,3.17-1.2A4.64,4.64,0,0,0,68.24,52a4.22,4.22,0,0,0-.77-2.58A10.67,10.67,0,0,0,64.16,47a14.6,14.6,0,0,1-4.3-3,4.72,4.72,0,0,1-1.07-3.13,4.85,4.85,0,0,1,1.54-3.72,5.65,5.65,0,0,1,4-1.44,5.58,5.58,0,0,1,2.8.68,5.15,5.15,0,0,1,2,2l-1.51.91a3.3,3.3,0,0,0-1.33-1.41,4.09,4.09,0,0,0-2-.48,3.44,3.44,0,0,0-2.52.93,3.39,3.39,0,0,0-.94,2.51q0,2.25,3.73,4.2l1,.54a10.78,10.78,0,0,1,3.66,2.85A6,6,0,0,1,70.1,52a5.83,5.83,0,0,1-6.27,6.27,6.13,6.13,0,0,1-3.61-1.05A6.77,6.77,0,0,1,57.86,54.07Z"/><path d="M85.34,51.23H75a6.34,6.34,0,0,0,1.26,4,3.91,3.91,0,0,0,3.18,1.44A4.23,4.23,0,0,0,82,55.84a5.8,5.8,0,0,0,1.8-2.34l1.65.9A7.09,7.09,0,0,1,83,57.31a6.38,6.38,0,0,1-3.53.93,6,6,0,0,1-4.62-1.91,7.09,7.09,0,0,1-1.77-5,7.43,7.43,0,0,1,1.75-5.15,5.85,5.85,0,0,1,4.58-2A5.55,5.55,0,0,1,83.72,46a7,7,0,0,1,1.62,4.83Zm-2.13-1.54a3.72,3.72,0,0,0-4-3.75,3.88,3.88,0,0,0-2.74,1,4.14,4.14,0,0,0-1.28,2.73Z"/><path d="M99.72,57.67H97.85V35h1.87Z"/><path d="M115.8,51.23H105.47a6.34,6.34,0,0,0,1.26,4,3.91,3.91,0,0,0,3.18,1.44,4.19,4.19,0,0,0,2.52-.78,5.8,5.8,0,0,0,1.8-2.34l1.66.9a7.25,7.25,0,0,1-2.44,2.91,6.39,6.39,0,0,1-3.54.93,6,6,0,0,1-4.62-1.91,7.09,7.09,0,0,1-1.77-5,7.47,7.47,0,0,1,1.75-5.15,5.86,5.86,0,0,1,4.58-2A5.53,5.53,0,0,1,114.17,46a6.94,6.94,0,0,1,1.63,4.83Zm-2.14-1.54a3.72,3.72,0,0,0-4-3.75,3.9,3.9,0,0,0-2.75,1,4.19,4.19,0,0,0-1.28,2.73Z"/><path d="M126.71,55.36l1.72-1A3.39,3.39,0,0,0,129.66,56a3.44,3.44,0,0,0,2,.55,2.67,2.67,0,0,0,1.82-.58,1.94,1.94,0,0,0,.67-1.55c0-1-.88-1.84-2.65-2.53l-.44-.18a8.21,8.21,0,0,1-2.87-1.66,3,3,0,0,1-.82-2.12,3.5,3.5,0,0,1,1.17-2.71,4.37,4.37,0,0,1,3-1.06,5,5,0,0,1,2.69.68,4,4,0,0,1,1.63,2l-1.66.92a2.62,2.62,0,0,0-1-1.41,3.11,3.11,0,0,0-1.76-.48,2.21,2.21,0,0,0-1.55.55,1.78,1.78,0,0,0-.6,1.37,1.69,1.69,0,0,0,.6,1.33,8,8,0,0,0,2.49,1.16,6.77,6.77,0,0,1,2.88,1.63,3.66,3.66,0,0,1,.74,2.43,3.53,3.53,0,0,1-1.28,2.85,5.12,5.12,0,0,1-3.43,1.07,5.27,5.27,0,0,1-2.85-.75A4.28,4.28,0,0,1,126.71,55.36Z"/><path d="M145.55,58.24a6.62,6.62,0,0,1-2.67-.55,7.4,7.4,0,0,1-2.31-1.57,6.67,6.67,0,0,1-1.49-2.23,6.93,6.93,0,0,1-.52-2.69,7,7,0,0,1,.53-2.7,6.7,6.7,0,0,1,1.51-2.25,6.79,6.79,0,0,1,2.27-1.53,7,7,0,0,1,2.68-.53,7.18,7.18,0,0,1,2.73.53,6.85,6.85,0,0,1,2.31,1.53,6.83,6.83,0,0,1,2.08,5,6.91,6.91,0,0,1-.53,2.67,6.83,6.83,0,0,1-1.52,2.25,7.19,7.19,0,0,1-2.34,1.57A6.9,6.9,0,0,1,145.55,58.24Zm.06-1.68A4.88,4.88,0,0,0,149.24,55a5.61,5.61,0,0,0,0-7.59,5,5,0,0,0-7.25,0A5.61,5.61,0,0,0,142,55,4.82,4.82,0,0,0,145.61,56.56Z"/><path d="M158.37,57.67h-1.86V35h1.86Z"/><path d="M163,39.61a1.31,1.31,0,0,1,.41-1,1.39,1.39,0,0,1,2,0,1.28,1.28,0,0,1,.42,1,1.3,1.3,0,0,1-.4,1,1.4,1.4,0,0,1-1,.4,1.34,1.34,0,0,1-1-.4A1.31,1.31,0,0,1,163,39.61Zm.46,18.06v-13h1.86v13Z"/><path d="M180.3,47.05a7,7,0,0,0-1.94-.94,7.1,7.1,0,0,0-2.11-.32,5,5,0,0,0-3.85,1.55A5.79,5.79,0,0,0,171,51.46a5.07,5.07,0,0,0,1.48,3.76,5.15,5.15,0,0,0,3.8,1.48,6.62,6.62,0,0,0,2.13-.36,8.42,8.42,0,0,0,2.12-1.1v2a7.84,7.84,0,0,1-2.11.81,10.81,10.81,0,0,1-2.47.27A6.52,6.52,0,0,1,171,56.35a6.9,6.9,0,0,1-1.91-5,6.82,6.82,0,0,1,7.15-7.15,10.41,10.41,0,0,1,2.21.23,7.52,7.52,0,0,1,1.84.65Z"/><path d="M183.53,39.61a1.31,1.31,0,0,1,.41-1,1.39,1.39,0,0,1,2,0,1.28,1.28,0,0,1,.42,1,1.3,1.3,0,0,1-.4,1,1.4,1.4,0,0,1-1,.4,1.34,1.34,0,0,1-1-.4A1.31,1.31,0,0,1,183.53,39.61ZM184,57.67v-13h1.86v13Z"/><path d="M191.15,46.22h-2.39V44.68h2.39V39.35h1.77v5.33h2.61v1.54h-2.61V57.67h-1.77Z"/><path d="M207.81,57.67V55.3a4.71,4.71,0,0,1-4.56,2.94,5.72,5.72,0,0,1-4.5-1.92A7.33,7.33,0,0,1,197,51.26a7.56,7.56,0,0,1,1.68-5.09,5.85,5.85,0,0,1,7.22-1.25,4.71,4.71,0,0,1,1.87,2.13V44.68h1.8v13Zm-8.76-6.36a5.92,5.92,0,0,0,1.13,3.89,4,4,0,0,0,3.25,1.36,3.92,3.92,0,0,0,3.23-1.49A6.44,6.44,0,0,0,207.84,51a5.61,5.61,0,0,0-1.18-3.76,4,4,0,0,0-3.2-1.37,4,4,0,0,0-3.23,1.46A6.15,6.15,0,0,0,199.05,51.31Z"/><path d="M214.44,57.67v-13h1.72v2a5.14,5.14,0,0,1,1.94-1.86,5.4,5.4,0,0,1,2.64-.63,4.28,4.28,0,0,1,4.67,4.66v8.82h-1.83v-8a4.35,4.35,0,0,0-.81-2.89,3.14,3.14,0,0,0-2.51-1,3.66,3.66,0,0,0-3,1.22,6.17,6.17,0,0,0-1,3.85v6.78Z"/><path d="M240.69,57.67h-1.86V35h1.86Z"/><path d="M251.52,58.24a6.62,6.62,0,0,1-2.67-.55,7.4,7.4,0,0,1-2.31-1.57,6.55,6.55,0,0,1-1.5-2.23,7.11,7.11,0,0,1-.51-2.69,7,7,0,0,1,.53-2.7,6.7,6.7,0,0,1,1.51-2.25,6.79,6.79,0,0,1,2.27-1.53,7,7,0,0,1,2.68-.53,7.21,7.21,0,0,1,2.73.53,7.06,7.06,0,0,1,2.31,1.53,6.94,6.94,0,0,1,2.08,5,6.91,6.91,0,0,1-.53,2.67,6.83,6.83,0,0,1-1.52,2.25,7.3,7.3,0,0,1-2.34,1.57A7,7,0,0,1,251.52,58.24Zm.06-1.68A4.84,4.84,0,0,0,255.2,55a5.59,5.59,0,0,0,0-7.59,5,5,0,0,0-7.25,0A5.61,5.61,0,0,0,248,55,4.81,4.81,0,0,0,251.58,56.56Z"/><path d="M260.88,55.36l1.71-1A3.39,3.39,0,0,0,263.82,56a3.49,3.49,0,0,0,2,.55,2.69,2.69,0,0,0,1.82-.58,1.94,1.94,0,0,0,.67-1.55c0-1-.88-1.84-2.65-2.53l-.44-.18a8,8,0,0,1-2.87-1.66,2.94,2.94,0,0,1-.82-2.12,3.5,3.5,0,0,1,1.17-2.71,4.32,4.32,0,0,1,3-1.06,5,5,0,0,1,2.7.68,4,4,0,0,1,1.62,2l-1.65.92a2.68,2.68,0,0,0-1-1.41,3.09,3.09,0,0,0-1.76-.48,2.19,2.19,0,0,0-1.54.55,1.76,1.76,0,0,0-.61,1.37,1.69,1.69,0,0,0,.6,1.33,8,8,0,0,0,2.49,1.16,6.64,6.64,0,0,1,2.88,1.63,3.66,3.66,0,0,1,.74,2.43,3.52,3.52,0,0,1-1.27,2.85,5.14,5.14,0,0,1-3.43,1.07,5.22,5.22,0,0,1-2.85-.75A4.22,4.22,0,0,1,260.88,55.36Z"/><path d="M292.08,57.67V55.3a4.9,4.9,0,0,1-1.8,2.2,5,5,0,0,1-2.73.74,5.72,5.72,0,0,1-4.5-1.92,7.33,7.33,0,0,1-1.71-5.06A7.52,7.52,0,0,1,283,46.17a5.83,5.83,0,0,1,7.2-1.25,4.79,4.79,0,0,1,1.85,2.13V35h1.83v22.7Zm-8.73-6.36a6,6,0,0,0,1.13,3.89,4,4,0,0,0,3.25,1.36,3.87,3.87,0,0,0,3.21-1.49A6.44,6.44,0,0,0,292.11,51,5.65,5.65,0,0,0,291,47.22a4.35,4.35,0,0,0-6.42.09A6.15,6.15,0,0,0,283.35,51.31Z"/><path d="M304.59,58.24a6.62,6.62,0,0,1-2.67-.55,7.4,7.4,0,0,1-2.31-1.57,6.7,6.7,0,0,1-1.5-2.23,7.11,7.11,0,0,1-.51-2.69,7,7,0,0,1,.53-2.7,6.7,6.7,0,0,1,1.51-2.25,6.79,6.79,0,0,1,2.27-1.53,7,7,0,0,1,2.68-.53,7.18,7.18,0,0,1,2.73.53,7.06,7.06,0,0,1,2.31,1.53,6.94,6.94,0,0,1,2.08,5,6.91,6.91,0,0,1-.53,2.67,6.83,6.83,0,0,1-1.52,2.25,7.3,7.3,0,0,1-2.34,1.57A6.9,6.9,0,0,1,304.59,58.24Zm.06-1.68A4.84,4.84,0,0,0,308.27,55a5.59,5.59,0,0,0,0-7.59,5,5,0,0,0-7.25,0A5.61,5.61,0,0,0,301,55,4.81,4.81,0,0,0,304.65,56.56Z"/><path d="M325.54,47.05a7,7,0,0,0-1.94-.94,7.1,7.1,0,0,0-2.11-.32,5,5,0,0,0-3.85,1.55,5.79,5.79,0,0,0-1.44,4.12,5.08,5.08,0,0,0,1.49,3.76,5.15,5.15,0,0,0,3.8,1.48,6.62,6.62,0,0,0,2.13-.36,8.42,8.42,0,0,0,2.12-1.1v2a7.84,7.84,0,0,1-2.11.81,10.87,10.87,0,0,1-2.47.27,6.52,6.52,0,0,1-4.88-1.95,6.9,6.9,0,0,1-1.91-5,6.82,6.82,0,0,1,7.15-7.15,10.41,10.41,0,0,1,2.21.23,7.38,7.38,0,0,1,1.84.65Z"/><path d="M330.91,44.68v6.49a7.65,7.65,0,0,0,.84,4.17,3.94,3.94,0,0,0,5.71,0,7.48,7.48,0,0,0,.86-4.16V44.68h1.79v7.41a6.68,6.68,0,0,1-1.39,4.59,6.17,6.17,0,0,1-8.2,0,6.64,6.64,0,0,1-1.41-4.59V44.68Z"/><path d="M346.72,57.67h-1.8v-13h1.8v2a4.62,4.62,0,0,1,1.7-1.87,4.55,4.55,0,0,1,2.43-.65,4.29,4.29,0,0,1,2.42.66,4.13,4.13,0,0,1,1.55,1.91,4.94,4.94,0,0,1,4.52-2.57,4.26,4.26,0,0,1,3.26,1.26,4.78,4.78,0,0,1,1.18,3.43v8.79H362V49.6a4.49,4.49,0,0,0-.78-2.87,2.83,2.83,0,0,0-2.34-1A3.13,3.13,0,0,0,356.13,47a6.7,6.7,0,0,0-.87,3.85v6.84h-1.79V49.6a4.62,4.62,0,0,0-.75-2.92,2.8,2.8,0,0,0-2.31-.92,3.23,3.23,0,0,0-2.8,1.23,6.56,6.56,0,0,0-.89,3.84Z"/><path d="M379.75,51.23H369.42a6.34,6.34,0,0,0,1.26,4,3.91,3.91,0,0,0,3.18,1.44,4.19,4.19,0,0,0,2.52-.78,5.8,5.8,0,0,0,1.8-2.34l1.66.9a7.25,7.25,0,0,1-2.44,2.91,6.39,6.39,0,0,1-3.54.93,6,6,0,0,1-4.62-1.91,7.09,7.09,0,0,1-1.77-5,7.47,7.47,0,0,1,1.75-5.15,5.86,5.86,0,0,1,4.58-2A5.53,5.53,0,0,1,378.12,46a6.94,6.94,0,0,1,1.63,4.83Zm-2.14-1.54a3.72,3.72,0,0,0-4-3.75,3.9,3.9,0,0,0-2.75,1,4.19,4.19,0,0,0-1.28,2.73Z"/><path d="M383.5,57.67v-13h1.71v2a5.29,5.29,0,0,1,1.94-1.86,5.44,5.44,0,0,1,2.65-.63,4.28,4.28,0,0,1,4.67,4.66v8.82h-1.83v-8a4.35,4.35,0,0,0-.81-2.89,3.15,3.15,0,0,0-2.51-1A3.68,3.68,0,0,0,386.27,47a6.24,6.24,0,0,0-1,3.85v6.78Z"/><path d="M399.51,46.22h-2.39V44.68h2.39V39.35h1.77v5.33h2.61v1.54h-2.61V57.67h-1.77Z"/><path d="M412.47,58.24a6.6,6.6,0,0,1-2.66-.55,7.56,7.56,0,0,1-2.32-1.57A6.67,6.67,0,0,1,406,53.89a7.11,7.11,0,0,1-.51-2.69,6.86,6.86,0,0,1,2-5,6.89,6.89,0,0,1,2.27-1.53,7,7,0,0,1,2.68-.53,7.26,7.26,0,0,1,2.74.53,7.21,7.21,0,0,1,3.85,3.8,6.78,6.78,0,0,1,.53,2.68,6.77,6.77,0,0,1-2,4.92,7.15,7.15,0,0,1-2.33,1.57A7,7,0,0,1,412.47,58.24Zm.06-1.68A4.85,4.85,0,0,0,416.16,55a5.59,5.59,0,0,0,0-7.59,4.84,4.84,0,0,0-3.64-1.54,4.79,4.79,0,0,0-3.61,1.54,5.58,5.58,0,0,0,0,7.59A4.8,4.8,0,0,0,412.53,56.56Z"/><path d="M421.84,55.36l1.71-1A3.39,3.39,0,0,0,424.78,56a3.49,3.49,0,0,0,2,.55,2.66,2.66,0,0,0,1.81-.58,1.94,1.94,0,0,0,.68-1.55c0-1-.89-1.84-2.66-2.53l-.43-.18a8.18,8.18,0,0,1-2.88-1.66,3,3,0,0,1-.82-2.12,3.47,3.47,0,0,1,1.18-2.71,4.32,4.32,0,0,1,3-1.06,5,5,0,0,1,2.69.68,4,4,0,0,1,1.63,2l-1.65.92a2.68,2.68,0,0,0-1-1.41,3.09,3.09,0,0,0-1.76-.48,2.23,2.23,0,0,0-1.55.55,1.78,1.78,0,0,0-.6,1.37,1.69,1.69,0,0,0,.6,1.33,8,8,0,0,0,2.49,1.16,6.71,6.71,0,0,1,2.88,1.63,3.66,3.66,0,0,1,.74,2.43,3.53,3.53,0,0,1-1.28,2.85,5.11,5.11,0,0,1-3.42,1.07,5.22,5.22,0,0,1-2.85-.75A4.22,4.22,0,0,1,421.84,55.36Z"/><path d="M453,57.67V55.3a4.67,4.67,0,0,1-4.53,2.94A5.74,5.74,0,0,1,444,56.32a7.37,7.37,0,0,1-1.7-5.06A7.56,7.56,0,0,1,444,46.17a5.47,5.47,0,0,1,4.35-2,5.39,5.39,0,0,1,2.85.73A4.75,4.75,0,0,1,453,47.05V35h1.83v22.7Zm-8.73-6.36a5.92,5.92,0,0,0,1.13,3.89,4,4,0,0,0,3.24,1.36,3.87,3.87,0,0,0,3.21-1.49A6.44,6.44,0,0,0,453.07,51a5.65,5.65,0,0,0-1.16-3.76,4.35,4.35,0,0,0-6.42.09A6.15,6.15,0,0,0,444.31,51.31Z"/><path d="M470.8,51.23H460.48a6.34,6.34,0,0,0,1.26,4,3.91,3.91,0,0,0,3.18,1.44,4.18,4.18,0,0,0,2.51-.78,5.73,5.73,0,0,0,1.81-2.34l1.65.9a7.09,7.09,0,0,1-2.44,2.91,6.38,6.38,0,0,1-3.53.93,6,6,0,0,1-4.63-1.91,7.13,7.13,0,0,1-1.76-5,7.43,7.43,0,0,1,1.75-5.15,5.85,5.85,0,0,1,4.58-2A5.56,5.56,0,0,1,469.18,46a7,7,0,0,1,1.62,4.83Zm-2.13-1.54a3.72,3.72,0,0,0-4.05-3.75,3.88,3.88,0,0,0-2.74,1,4.2,4.2,0,0,0-1.29,2.73Z"/><path d="M476.53,57.67h-1.86V35h1.86Z"/><path d="M488.15,44.68h2l4,9.84,4-9.84h2l-6,13.83Z"/><path d="M514.06,51.23H503.73a6.34,6.34,0,0,0,1.26,4,3.91,3.91,0,0,0,3.18,1.44,4.19,4.19,0,0,0,2.52-.78,5.71,5.71,0,0,0,1.8-2.34l1.66.9a7.17,7.17,0,0,1-2.44,2.91,6.39,6.39,0,0,1-3.54.93,6,6,0,0,1-4.62-1.91,7.09,7.09,0,0,1-1.76-5,7.43,7.43,0,0,1,1.75-5.15,5.82,5.82,0,0,1,4.57-2A5.53,5.53,0,0,1,512.43,46a6.94,6.94,0,0,1,1.63,4.83Zm-2.14-1.54a4,4,0,0,0-1.18-2.77,4.07,4.07,0,0,0-2.86-1,3.92,3.92,0,0,0-2.75,1,4.23,4.23,0,0,0-1.28,2.73Z"/><path d="M517.81,57.67V35h1.71V46.68a5.24,5.24,0,0,1,2-1.86,5.37,5.37,0,0,1,2.64-.63,4.28,4.28,0,0,1,4.67,4.66v8.82H527v-8a4.35,4.35,0,0,0-.81-2.89,3.14,3.14,0,0,0-2.51-1,3.66,3.66,0,0,0-3,1.22,6.17,6.17,0,0,0-1,3.85v6.78Z"/><path d="M532.55,42.58l3.12-5.12h2.4l-4.15,5.12Zm1,15.09v-13h1.86v13Z"/><path d="M550.45,47.05a7,7,0,0,0-1.94-.94,7.08,7.08,0,0,0-2.1-.32,5,5,0,0,0-3.86,1.55,5.79,5.79,0,0,0-1.43,4.12,5.07,5.07,0,0,0,1.48,3.76,5.15,5.15,0,0,0,3.81,1.48,6.71,6.71,0,0,0,2.13-.36,8.53,8.53,0,0,0,2.11-1.1v2a7.71,7.71,0,0,1-2.11.81,10.81,10.81,0,0,1-2.47.27,6.53,6.53,0,0,1-4.88-1.95,6.9,6.9,0,0,1-1.9-5,6.81,6.81,0,0,1,7.14-7.15,10.34,10.34,0,0,1,2.21.23,7.38,7.38,0,0,1,1.84.65Z"/><path d="M555.82,44.68v6.49a7.55,7.55,0,0,0,.85,4.17,3.93,3.93,0,0,0,5.7,0,7.47,7.47,0,0,0,.87-4.16V44.68H565v7.41a6.68,6.68,0,0,1-1.39,4.59,5.2,5.2,0,0,1-4.09,1.56,5.26,5.26,0,0,1-4.11-1.56A6.64,6.64,0,0,1,554,52.09V44.68Z"/><path d="M571.81,57.67h-1.87V35h1.87Z"/><path d="M582.63,58.24a6.62,6.62,0,0,1-2.67-.55,7.4,7.4,0,0,1-2.31-1.57,6.67,6.67,0,0,1-1.49-2.23,6.93,6.93,0,0,1-.52-2.69,7,7,0,0,1,.53-2.7,6.7,6.7,0,0,1,1.51-2.25A6.79,6.79,0,0,1,580,44.72a7,7,0,0,1,2.68-.53,7.18,7.18,0,0,1,2.73.53,6.85,6.85,0,0,1,2.31,1.53,6.83,6.83,0,0,1,2.08,5,6.91,6.91,0,0,1-.53,2.67,6.83,6.83,0,0,1-1.52,2.25,7.19,7.19,0,0,1-2.34,1.57A6.9,6.9,0,0,1,582.63,58.24Zm.06-1.68A4.88,4.88,0,0,0,586.32,55a5.61,5.61,0,0,0,0-7.59,5,5,0,0,0-7.25,0,5.61,5.61,0,0,0,0,7.59A4.82,4.82,0,0,0,582.69,56.56Z"/><path d="M593.9,56.44a1.43,1.43,0,0,1,.43-1.06,1.42,1.42,0,0,1,1.06-.43,1.47,1.47,0,0,1,1.49,1.49,1.42,1.42,0,0,1-.43,1.06,1.43,1.43,0,0,1-1.06.43,1.47,1.47,0,0,1-1.49-1.49Z"/></svg>