<svg xmlns="http://www.w3.org/2000/svg" viewBox="0 0 227.18 71.52"><defs><style>.cls-1{fill:#6bbead;}.cls-2{fill:#fff;}</style></defs><title>salir</title><g id="Capa_2" data-name="Capa 2"><g id="fondos"><rect class="cls-1" width="227.18" height="71.52"/><path class="cls-2" d="M83.68,30.56a3.09,3.09,0,0,0-1.45-1,5,5,0,0,0-1.72-.33,4.23,4.23,0,0,0-1,.12,3.49,3.49,0,0,0-1,.35,2,2,0,0,0-.73.63,1.74,1.74,0,0,0,.39,2.32,6.12,6.12,0,0,0,1.7.81c.68.23,1.41.45,2.2.68a8.91,8.91,0,0,1,2.19,1A5.15,5.15,0,0,1,86,36.75a5,5,0,0,1,.67,2.78,6.36,6.36,0,0,1-.61,2.88,5.88,5.88,0,0,1-1.67,2.05A7,7,0,0,1,82,45.66a10.74,10.74,0,0,1-2.93.39,10.42,10.42,0,0,1-3.58-.59,8.89,8.89,0,0,1-3.08-1.9l3.11-3.42a4.49,4.49,0,0,0,1.69,1.39,4.8,4.8,0,0,0,2.12.49,4.55,4.55,0,0,0,1.08-.13,3.39,3.39,0,0,0,1-.38,2.05,2.05,0,0,0,.7-.64,1.65,1.65,0,0,0,.26-.92,1.7,1.7,0,0,0-.68-1.42,6.5,6.5,0,0,0-1.73-.88c-.69-.24-1.43-.49-2.24-.73a10,10,0,0,1-2.24-1,5.25,5.25,0,0,1-1.72-1.63A4.62,4.62,0,0,1,73,31.65a6,6,0,0,1,.63-2.8,6.2,6.2,0,0,1,1.68-2,7.29,7.29,0,0,1,2.43-1.21,9.55,9.55,0,0,1,2.83-.41,11,11,0,0,1,3.24.48,7.44,7.44,0,0,1,2.83,1.59Z"/><path class="cls-2" d="M96.48,25.71h3.61l8.63,19.84h-4.93l-1.71-4.2h-7.7l-1.65,4.2H87.91Zm1.68,5.77-2.41,6.17h4.85Z"/><path class="cls-2" d="M110.88,25.71h4.37v15.8h8.1v4H110.88Z"/><path class="cls-2" d="M125.7,25.71h4.37V45.55H125.7Z"/><path class="cls-2" d="M134.05,25.71h7.68a13.36,13.36,0,0,1,2.87.3A6.68,6.68,0,0,1,147,27a4.86,4.86,0,0,1,1.62,1.85,6.26,6.26,0,0,1,.61,2.9,5.81,5.81,0,0,1-1.1,3.57,4.91,4.91,0,0,1-3.19,1.86l5,8.38h-5.24l-4.14-7.93h-2.16v7.93h-4.37Zm4.37,8.21H141c.39,0,.8,0,1.24,0a3.92,3.92,0,0,0,1.19-.25,2.08,2.08,0,0,0,.89-.66,2,2,0,0,0,.35-1.26,1.91,1.91,0,0,0-1.1-1.89,3.24,3.24,0,0,0-1.09-.32,8.28,8.28,0,0,0-1.2-.09h-2.86Z"/></g></g></svg>