<svg xmlns="http://www.w3.org/2000/svg" viewBox="0 0 227.18 71.52"><defs><style>.cls-1{fill:#6bbead;}.cls-2{fill:#fff;}</style></defs><title>volver</title><g id="Capa_2" data-name="Capa 2"><g id="fondos"><rect class="cls-1" width="227.18" height="71.52"/><path class="cls-2" d="M55.56,25.71h5l4.9,13h.06l5-13h4.68L67,45.55h-3.5Z"/><path class="cls-2" d="M76.18,35.63a11.18,11.18,0,0,1,.8-4.31A9.53,9.53,0,0,1,79.21,28a9.75,9.75,0,0,1,3.39-2.08,12.94,12.94,0,0,1,8.57,0A9.75,9.75,0,0,1,94.56,28a9.53,9.53,0,0,1,2.23,3.3,12,12,0,0,1,0,8.62,9.53,9.53,0,0,1-2.23,3.3,9.75,9.75,0,0,1-3.39,2.08,12.94,12.94,0,0,1-8.57,0,9.75,9.75,0,0,1-3.39-2.08A9.53,9.53,0,0,1,77,39.94,11.18,11.18,0,0,1,76.18,35.63Zm4.54,0a7.2,7.2,0,0,0,.44,2.56,5.71,5.71,0,0,0,1.24,2,5.55,5.55,0,0,0,1.95,1.33,6.93,6.93,0,0,0,5.07,0,5.55,5.55,0,0,0,2-1.33,5.86,5.86,0,0,0,1.24-2,7.2,7.2,0,0,0,.44-2.56,7.34,7.34,0,0,0-.44-2.55,5.9,5.9,0,0,0-1.24-2,5.68,5.68,0,0,0-2-1.33,6.93,6.93,0,0,0-5.07,0,5.68,5.68,0,0,0-1.95,1.33,5.75,5.75,0,0,0-1.24,2A7.34,7.34,0,0,0,80.72,35.63Z"/><path class="cls-2" d="M100.72,25.71h4.37V41.52h8.1v4H100.72Z"/><path class="cls-2" d="M111.06,25.71h5l4.9,13H121l5-13h4.67l-8.18,19.84H119Z"/><path class="cls-2" d="M132.91,25.71h13.48v4h-9.11v3.7h8.61v4h-8.61v4h9.61v4h-14Z"/><path class="cls-2" d="M150.4,25.71h7.67a13.23,13.23,0,0,1,2.87.3,6.73,6.73,0,0,1,2.39,1A4.86,4.86,0,0,1,165,28.84a6.26,6.26,0,0,1,.6,2.9,5.8,5.8,0,0,1-1.09,3.57,4.91,4.91,0,0,1-3.19,1.86l5,8.38h-5.24l-4.15-7.93h-2.15v7.93H150.4Zm4.37,8.21h2.57c.4,0,.81,0,1.25,0a3.92,3.92,0,0,0,1.19-.25,2,2,0,0,0,.88-.66,2,2,0,0,0,.35-1.26,1.89,1.89,0,0,0-1.09-1.89,3.31,3.31,0,0,0-1.09-.32,8.31,8.31,0,0,0-1.21-.09h-2.85Z"/></g></g></svg>