<?xml version="1.0" encoding="utf-8"?>
<!-- Generator: Adobe Illustrator 24.0.0, SVG Export Plug-In . SVG Version: 6.00 Build 0)  -->
<svg version="1.1" id="Capa_1" xmlns="http://www.w3.org/2000/svg" xmlns:xlink="http://www.w3.org/1999/xlink" x="0px" y="0px"
	 viewBox="0 0 122 121" style="enable-background:new 0 0 122 121;" xml:space="preserve">
<title>Recurso10</title>
<g>
	<g id="Capa_2_1_">
		<g id="Capa_1-2">
			<path d="M75,13.1L62.4,3.6c-1.1-0.8-2.7-0.8-3.8,0l-12.6,9.4c-1.5,0.9-1.9,2.9-0.9,4.3s2.9,1.9,4.3,0.9c0.1-0.1,0.3-0.2,0.4-0.3
				l10.7-8l10.7,8c0.5,0.4,1.2,0.6,1.9,0.6c1.7,0,3.1-1.4,3.1-3.2C76.2,14.6,75.8,13.7,75,13.1z"/>
			<path d="M75.6,97.5c-1-1.4-3-1.7-4.4-0.6l-10.7,8l-10.7-8c-1.3-1.1-3.3-1-4.4,0.3s-1,3.3,0.3,4.4c0.1,0.1,0.2,0.2,0.4,0.3
				l12.6,9.4c1.1,0.8,2.7,0.8,3.8,0l12.6-9.4C76.4,100.8,76.7,98.9,75.6,97.5C75.6,97.5,75.6,97.5,75.6,97.5z"/>
			<path d="M13.1,57.5l8-10.7c1.1-1.3,1-3.3-0.3-4.4s-3.3-1-4.4,0.3c-0.1,0.1-0.2,0.2-0.3,0.4L6.7,55.6c-0.8,1.1-0.8,2.7,0,3.8
				l9.4,12.6c0.6,0.8,1.5,1.3,2.5,1.3c1.7,0,3.1-1.4,3.1-3.1c0-0.7-0.2-1.3-0.6-1.9L13.1,57.5z"/>
			<path d="M114.4,55.6L105,43c-0.9-1.5-2.9-1.9-4.3-0.9s-1.9,2.9-0.9,4.3c0.1,0.1,0.2,0.3,0.3,0.4l8,10.7l-8,10.7
				c-0.9,1.5-0.5,3.4,0.9,4.3c1.3,0.8,3,0.6,4.1-0.6l9.4-12.6C115.2,58.2,115.2,56.7,114.4,55.6z"/>
		</g>
	</g>
</g>
</svg>
