<svg xmlns="http://www.w3.org/2000/svg" viewBox="0 0 393 99"><defs><style>.cls-1{fill:#3a665f;}.cls-2{fill:#fff;}</style></defs><title>Recurso20</title><g id="Capa_2" data-name="Capa 2"><g id="Capa_1-2" data-name="Capa 1"><rect class="cls-1" width="393" height="99"/><path class="cls-2" d="M134.61,25.66h3.74q1.1,0,2.13.09a10.55,10.55,0,0,1,2,.36,9.18,9.18,0,0,1,3.64,1.95,9,9,0,0,1,2.5,3.39,11,11,0,0,1,.79,4.16,10.46,10.46,0,0,1-.79,4.06A9.43,9.43,0,0,1,146.14,43a10.3,10.3,0,0,1-1.79,1.28,9.33,9.33,0,0,1-1.86.76,10.87,10.87,0,0,1-2,.37c-.69.06-1.42.09-2.2.09h-3.68Zm3.81,17.8c.6,0,1.18,0,1.74-.08a9.46,9.46,0,0,0,1.62-.3,6.58,6.58,0,0,0,1.5-.64,7.73,7.73,0,0,0,3.27-3.7,8.23,8.23,0,0,0,.62-3.15,8.44,8.44,0,0,0-.65-3.27,7.11,7.11,0,0,0-1.94-2.68,6.63,6.63,0,0,0-2.88-1.57,14.15,14.15,0,0,0-3.28-.36h-1.6V43.46Z"/><path class="cls-2" d="M155.77,45.51h-2.21V25.66h2.21Z"/><path class="cls-2" d="M163.07,45.51h-2.21V25.66h2.86a16.06,16.06,0,0,1,2.73.22,6.81,6.81,0,0,1,2.32.83,4.64,4.64,0,0,1,1.62,1.67,5.62,5.62,0,0,1,.6,2.76,5.45,5.45,0,0,1-1.33,3.79A5.34,5.34,0,0,1,166,36.61l6.31,8.9h-2.71l-6-8.71h-.55Zm0-10.66h.68a13.76,13.76,0,0,0,1.84-.12,4.75,4.75,0,0,0,1.61-.5,3,3,0,0,0,1.15-1.08,3.46,3.46,0,0,0,.43-1.86,3.84,3.84,0,0,0-.42-1.93,2.77,2.77,0,0,0-1.12-1.08,4.66,4.66,0,0,0-1.61-.46,16.51,16.51,0,0,0-1.91-.11h-.65Z"/><path class="cls-2" d="M176.18,25.66h10.29v2.05h-8.08v5.9h7.85v2h-7.85v7.8h8.08v2H176.18Z"/><path class="cls-2" d="M206.43,30a8.67,8.67,0,0,0-2.75-1.93,8,8,0,0,0-3.31-.7,7.38,7.38,0,0,0-3.12.67,8.23,8.23,0,0,0-2.54,1.81A8.48,8.48,0,0,0,193,32.47a8,8,0,0,0,0,6.24,8.58,8.58,0,0,0,1.72,2.61,8.36,8.36,0,0,0,2.57,1.81,7.43,7.43,0,0,0,3.13.67,7.74,7.74,0,0,0,3.26-.72,9.68,9.68,0,0,0,2.75-1.91V43.9a10.43,10.43,0,0,1-2.82,1.44,9.74,9.74,0,0,1-3.11.51,9.93,9.93,0,0,1-4-.8A10.42,10.42,0,0,1,191,39.63a9.51,9.51,0,0,1-.83-4,10,10,0,0,1,.81-4,10.54,10.54,0,0,1,5.52-5.52,10,10,0,0,1,4-.81,9.64,9.64,0,0,1,5.93,1.95Z"/><path class="cls-2" d="M226.36,30a8.67,8.67,0,0,0-2.75-1.93,8,8,0,0,0-3.31-.7,7.38,7.38,0,0,0-3.12.67,8.23,8.23,0,0,0-2.54,1.81,8.48,8.48,0,0,0-1.71,2.62,8,8,0,0,0,0,6.24,8.43,8.43,0,0,0,1.73,2.61,8.2,8.2,0,0,0,2.56,1.81,7.43,7.43,0,0,0,3.13.67,7.74,7.74,0,0,0,3.26-.72,9.68,9.68,0,0,0,2.75-1.91V43.9a10.43,10.43,0,0,1-2.82,1.44,9.74,9.74,0,0,1-3.11.51,9.93,9.93,0,0,1-4-.8,10.42,10.42,0,0,1-5.53-5.42,9.51,9.51,0,0,1-.83-4,10,10,0,0,1,.81-4,10.54,10.54,0,0,1,5.52-5.52,10,10,0,0,1,4-.81,9.64,9.64,0,0,1,5.93,1.95Z"/><path class="cls-2" d="M233.41,45.51H231.2V25.66h2.21Z"/><path class="cls-2" d="M247.84,25.32a10.27,10.27,0,0,1,4,.8,10.37,10.37,0,0,1,5.51,5.49,10.17,10.17,0,0,1,0,8,10.09,10.09,0,0,1-2.22,3.25,10.58,10.58,0,0,1-3.29,2.19,10.48,10.48,0,0,1-8,0,10.51,10.51,0,0,1-3.3-2.19,10.26,10.26,0,0,1-2.22-3.25,10.17,10.17,0,0,1,0-8,10.62,10.62,0,0,1,2.22-3.28,10.4,10.4,0,0,1,3.3-2.21A10.18,10.18,0,0,1,247.84,25.32Zm0,2.05a8.07,8.07,0,0,0-5.78,2.41,8.33,8.33,0,0,0-1.72,2.62,8.14,8.14,0,0,0-.63,3.19,8,8,0,0,0,.63,3.17,8.13,8.13,0,0,0,1.74,2.6,8.25,8.25,0,0,0,2.59,1.78,7.94,7.94,0,0,0,6.34,0,8.41,8.41,0,0,0,2.6-1.78,8.27,8.27,0,0,0,1.73-2.6,7.88,7.88,0,0,0,.64-3.17,8,8,0,0,0-.64-3.19,8.33,8.33,0,0,0-1.72-2.62,8.07,8.07,0,0,0-5.78-2.41Zm3.74-7.27-4,4.06-1.31-.74,3.13-4.32Z"/><path class="cls-2" d="M262.37,24.82,277.85,41V25.66h2.22V46.41l-15.48-16.2v15.3h-2.22Z"/><path class="cls-2" d="M294.42,25.66h3.73c.74,0,1.45,0,2.14.09a10.55,10.55,0,0,1,2,.36,9.69,9.69,0,0,1,1.86.73,9.35,9.35,0,0,1,1.77,1.22,9,9,0,0,1,2.51,3.39,11,11,0,0,1,.78,4.16,10.45,10.45,0,0,1-.78,4.06A9.43,9.43,0,0,1,306,43a10.3,10.3,0,0,1-1.79,1.28,9.33,9.33,0,0,1-1.86.76,10.87,10.87,0,0,1-2,.37c-.69.06-1.43.09-2.2.09h-3.68Zm3.81,17.8c.6,0,1.18,0,1.74-.08a9.46,9.46,0,0,0,1.62-.3,6.58,6.58,0,0,0,1.5-.64,7.73,7.73,0,0,0,1.41-1,7.57,7.57,0,0,0,1.85-2.66,8,8,0,0,0,.62-3.15,8.43,8.43,0,0,0-.64-3.27,7.22,7.22,0,0,0-1.94-2.68,6.63,6.63,0,0,0-2.88-1.57,14.15,14.15,0,0,0-3.28-.36h-1.6V43.46Z"/><path class="cls-2" d="M313.32,25.66h10.29v2.05h-8.08v5.9h7.85v2h-7.85v7.8h8.08v2H313.32Z"/><path class="cls-2" d="M136.46,71.9h-1.81V55.66h1.81Z"/><path class="cls-2" d="M140.72,55l12.67,13.27V55.66h1.81v17L142.53,59.39V71.9h-1.81Z"/><path class="cls-2" d="M171.83,59.21a7.22,7.22,0,0,0-2.25-1.58,6.62,6.62,0,0,0-2.71-.57,6,6,0,0,0-2.55.55,6.71,6.71,0,0,0-2.08,1.47,7.26,7.26,0,0,0-1.4,2.15,6.63,6.63,0,0,0,0,5.1,7.11,7.11,0,0,0,1.41,2.14,6.94,6.94,0,0,0,2.1,1.48,6.09,6.09,0,0,0,2.57.55,6.39,6.39,0,0,0,2.66-.59,8.09,8.09,0,0,0,2.25-1.56v2.24a9,9,0,0,1-2.31,1.17,7.91,7.91,0,0,1-2.54.42,8.15,8.15,0,0,1-3.26-.66A8.44,8.44,0,0,1,161,69.73a8.64,8.64,0,0,1-1.84-2.64,8,8,0,0,1-.67-3.25,8.25,8.25,0,0,1,.66-3.28A8.81,8.81,0,0,1,161,57.87a8.51,8.51,0,0,1,2.7-1.82,8.05,8.05,0,0,1,3.28-.67A7.9,7.9,0,0,1,171.83,57Z"/><path class="cls-2" d="M183.39,55.38a8.42,8.42,0,0,1,6,2.47,8.43,8.43,0,0,1,1.82,2.68,8.34,8.34,0,0,1,0,6.55,8.3,8.3,0,0,1-1.82,2.65,8.56,8.56,0,0,1-2.69,1.79,8.51,8.51,0,0,1-6.57,0,8.44,8.44,0,0,1-2.69-1.79,8.3,8.3,0,0,1-1.82-2.65,8.34,8.34,0,0,1,0-6.55,8.43,8.43,0,0,1,1.82-2.68,8.42,8.42,0,0,1,6-2.47Zm0,1.68a6.59,6.59,0,0,0-4.72,2,6.64,6.64,0,0,0-1.41,2.14,6.57,6.57,0,0,0-.52,2.61,6.44,6.44,0,0,0,.52,2.59,6.51,6.51,0,0,0,1.42,2.14A6.83,6.83,0,0,0,180.8,70,6.51,6.51,0,0,0,186,70a6.83,6.83,0,0,0,2.12-1.45,6.67,6.67,0,0,0,1.42-2.14,6.44,6.44,0,0,0,.52-2.59,6.57,6.57,0,0,0-.52-2.61A6.64,6.64,0,0,0,188.12,59a6.59,6.59,0,0,0-4.73-2Z"/><path class="cls-2" d="M197,71.9h-1.8V55.66h2.34a13.34,13.34,0,0,1,2.23.18,5.51,5.51,0,0,1,1.9.68A3.7,3.7,0,0,1,203,57.89a4.52,4.52,0,0,1,.5,2.25,4.43,4.43,0,0,1-1.09,3.1,4.37,4.37,0,0,1-3,1.38l5.17,7.28h-2.22l-4.91-7.13H197Zm0-8.72h.56a12.35,12.35,0,0,0,1.51-.1,3.93,3.93,0,0,0,1.32-.41,2.45,2.45,0,0,0,.93-.88,2.83,2.83,0,0,0,.36-1.52,3.11,3.11,0,0,0-.35-1.58,2.22,2.22,0,0,0-.91-.89,3.77,3.77,0,0,0-1.32-.37,12.85,12.85,0,0,0-1.56-.09H197Z"/><path class="cls-2" d="M209.52,71.9h-1.81V55.66h2.67a16.33,16.33,0,0,1,2.1.13,4.26,4.26,0,0,1,1.93.73,4.06,4.06,0,0,1,1.37,1.62,4.83,4.83,0,0,1,.46,2.09,4.76,4.76,0,0,1-.4,1.92,3.93,3.93,0,0,1-1.15,1.56,4,4,0,0,1-1.83.89,10.73,10.73,0,0,1-2,.19h-1.31Zm0-8.79h1.21a7.21,7.21,0,0,0,1.42-.13,3.19,3.19,0,0,0,1.17-.46,2.4,2.4,0,0,0,.81-.89,3.09,3.09,0,0,0,.3-1.45,2.91,2.91,0,0,0-.36-1.56,2.34,2.34,0,0,0-1-.85,4.46,4.46,0,0,0-1.36-.36c-.5,0-1-.07-1.55-.07h-.67Z"/><path class="cls-2" d="M227.05,55.38a8.26,8.26,0,0,1,3.29.66A8.39,8.39,0,0,1,233,57.85a8.59,8.59,0,0,1,1.82,2.68,8.34,8.34,0,0,1,0,6.55A8.46,8.46,0,0,1,233,69.73a8.67,8.67,0,0,1-2.69,1.79,8.51,8.51,0,0,1-6.57,0,8.44,8.44,0,0,1-2.69-1.79,8.3,8.3,0,0,1-1.82-2.65,8.34,8.34,0,0,1,0-6.55,8.43,8.43,0,0,1,1.82-2.68,8.42,8.42,0,0,1,6-2.47Zm0,1.68a6.51,6.51,0,0,0-2.61.53A6.38,6.38,0,0,0,222.33,59a6.84,6.84,0,0,0-1.42,2.14,6.75,6.75,0,0,0-.51,2.61,6.61,6.61,0,0,0,.51,2.59,6.7,6.7,0,0,0,1.43,2.14A6.83,6.83,0,0,0,224.46,70a6.51,6.51,0,0,0,5.19,0,6.83,6.83,0,0,0,2.12-1.45,6.67,6.67,0,0,0,1.42-2.14,6.44,6.44,0,0,0,.52-2.59,6.57,6.57,0,0,0-.52-2.61,6.61,6.61,0,0,0-3.52-3.58A6.53,6.53,0,0,0,227.05,57.06Z"/><path class="cls-2" d="M240.64,71.9h-1.81V55.66h2.35a13.34,13.34,0,0,1,2.23.18,5.51,5.51,0,0,1,1.9.68,3.7,3.7,0,0,1,1.32,1.37,5.09,5.09,0,0,1-.59,5.35,4.39,4.39,0,0,1-3,1.38l5.17,7.28H246l-4.91-7.13h-.46Zm0-8.72h.56a12.35,12.35,0,0,0,1.51-.1,3.93,3.93,0,0,0,1.32-.41,2.45,2.45,0,0,0,.93-.88,2.83,2.83,0,0,0,.36-1.52,3.11,3.11,0,0,0-.35-1.58,2.22,2.22,0,0,0-.91-.89,3.77,3.77,0,0,0-1.32-.37,12.85,12.85,0,0,0-1.56-.09h-.54Z"/><path class="cls-2" d="M253.8,67.29l-2,4.61h-2l7.5-17,7.3,17h-2l-1.92-4.61Zm3.52-8.18-2.78,6.5H260Z"/><path class="cls-2" d="M279.67,59.21a7,7,0,0,0-2.25-1.58,6.54,6.54,0,0,0-2.7-.57,5.93,5.93,0,0,0-2.55.55,6.71,6.71,0,0,0-2.08,1.47,7.06,7.06,0,0,0-1.4,2.15,6.51,6.51,0,0,0,0,5.1A6.9,6.9,0,0,0,272.2,70a6,6,0,0,0,2.56.55,6.32,6.32,0,0,0,2.66-.59,7.81,7.81,0,0,0,2.25-1.56v2.24a8.75,8.75,0,0,1-2.3,1.17,8,8,0,0,1-2.54.42,8.24,8.24,0,0,1-3.27-.66,8.67,8.67,0,0,1-2.69-1.79A8.44,8.44,0,0,1,267,67.09a8,8,0,0,1-.68-3.25,8.09,8.09,0,0,1,.67-3.28,8.57,8.57,0,0,1,4.51-4.51,8.1,8.1,0,0,1,3.29-.67A7.9,7.9,0,0,1,279.67,57Z"/><path class="cls-2" d="M285.44,71.9h-1.8V55.66h1.8Z"/><path class="cls-2" d="M297.25,55.38a8.21,8.21,0,0,1,3.28.66,8.32,8.32,0,0,1,2.7,1.81,8.77,8.77,0,0,1,1.82,2.68,8.46,8.46,0,0,1,0,6.55,8.47,8.47,0,0,1-4.52,4.44,8.21,8.21,0,0,1-3.28.66,8.3,8.3,0,0,1-3.29-.66,8.67,8.67,0,0,1-2.69-1.79,8.46,8.46,0,0,1-1.82-2.65,8.34,8.34,0,0,1,0-6.55,8.59,8.59,0,0,1,1.82-2.68A8.39,8.39,0,0,1,294,56,8.3,8.3,0,0,1,297.25,55.38Zm0,1.68a6.59,6.59,0,0,0-4.73,2,6.64,6.64,0,0,0-1.41,2.14,6.75,6.75,0,0,0-.52,2.61,6.76,6.76,0,0,0,1.94,4.73A6.83,6.83,0,0,0,294.65,70a6.51,6.51,0,0,0,5.19,0A7,7,0,0,0,302,68.51a6.84,6.84,0,0,0,1.42-2.14,6.61,6.61,0,0,0,.51-2.59,6.75,6.75,0,0,0-.51-2.61A7,7,0,0,0,302,59a6.59,6.59,0,0,0-4.73-2Zm3.06-6L297,54.43l-1.08-.6,2.57-3.53Z"/><path class="cls-2" d="M309.14,55,321.8,68.24V55.66h1.81v17L311,59.39V71.9h-1.81Z"/><path class="cls-2" d="M104.91,25h-22a5.09,5.09,0,0,0-5.09,5.09V40.27a1.7,1.7,0,1,0,3.39,0V30.09a1.7,1.7,0,0,1,1.7-1.7h22a1.7,1.7,0,0,1,1.7,1.7V67.41a1.7,1.7,0,0,1-1.7,1.7h-22a1.7,1.7,0,0,1-1.7-1.7V57.23a1.7,1.7,0,0,0-3.39,0V67.41a5.09,5.09,0,0,0,5.09,5.09h22A5.09,5.09,0,0,0,110,67.41V30.09A5.09,5.09,0,0,0,104.91,25Z"/><path class="cls-2" d="M96.43,47.05H68.29l5.59-5.58a1.7,1.7,0,0,0-2.4-2.4L63,47.55a1.67,1.67,0,0,0-.37.55,1.72,1.72,0,0,0,0,1.3A1.57,1.57,0,0,0,63,50l8.48,8.48a1.69,1.69,0,1,0,2.44-2.35l0,0-5.59-5.59H96.43a1.7,1.7,0,0,0,0-3.4Z"/></g></g></svg>