<svg xmlns="http://www.w3.org/2000/svg" viewBox="0 0 864 194"><defs><style>.cls-1{fill:#3a665f;}.cls-2{fill:#fff;}</style></defs><title>Recurso 32</title><g id="Capa_2" data-name="Capa 2"><g id="Capa_1-2" data-name="Capa 1"><rect class="cls-1" width="864" height="194"/><path class="cls-2" d="M116.77,125h-6.72V64.7h6.72Z"/><path class="cls-2" d="M132.61,62.14l47,49.28V64.7h6.72v63l-47-49.2V125h-6.72Z"/><path class="cls-2" d="M229.49,76.46a15.91,15.91,0,0,0-4.2-4.84,10.32,10.32,0,0,0-6.2-1.72,10.75,10.75,0,0,0-3.8.68,10.26,10.26,0,0,0-3.2,1.92,9.06,9.06,0,0,0-2.2,3,9,9,0,0,0-.8,3.8,6.34,6.34,0,0,0,.92,3.4,10.28,10.28,0,0,0,2.28,2.6,14.51,14.51,0,0,0,3,1.92l3.2,1.52,4,1.76a60,60,0,0,1,5.56,2.76,22.63,22.63,0,0,1,4.6,3.44,14.8,14.8,0,0,1,3.16,4.56,15.21,15.21,0,0,1,1.16,6.2,18.25,18.25,0,0,1-1.48,7.4,17.94,17.94,0,0,1-4.08,5.88,19.54,19.54,0,0,1-6,3.92,18.87,18.87,0,0,1-7.36,1.44,19.66,19.66,0,0,1-6.72-1.12,18,18,0,0,1-5.56-3.16,18.43,18.43,0,0,1-4.12-4.92,20.89,20.89,0,0,1-2.4-6.4l6.56-1.84a13.6,13.6,0,0,0,1.36,4.36,13.33,13.33,0,0,0,2.6,3.56,11.55,11.55,0,0,0,8.12,3.28,12.5,12.5,0,0,0,4.64-.88,12.76,12.76,0,0,0,4-2.44,11.88,11.88,0,0,0,2.76-3.72,10.77,10.77,0,0,0,1-4.72,9.6,9.6,0,0,0-1-4.48,11,11,0,0,0-2.52-3.2A17.34,17.34,0,0,0,223.25,98c-1.33-.66-2.69-1.32-4.08-2l-3.68-1.6q-2.64-1.2-5-2.56a19.77,19.77,0,0,1-4.2-3.12,12.91,12.91,0,0,1-2.84-4.12,14,14,0,0,1-1-5.64,14.3,14.3,0,0,1,5.08-11.2,17.14,17.14,0,0,1,5.4-3.08,19,19,0,0,1,6.4-1.08A17.21,17.21,0,0,1,234.85,73Z"/><path class="cls-2" d="M266.05,125h-6.72V70.94H244.77V64.7h36v6.24H266.05Z"/><path class="cls-2" d="M297.57,125h-6.72V64.7h8.72a49.22,49.22,0,0,1,8.28.68,20.2,20.2,0,0,1,7,2.52A13.72,13.72,0,0,1,319.81,73a16.78,16.78,0,0,1,1.84,8.36,16.56,16.56,0,0,1-4,11.52q-4,4.48-11.08,5.12l19.2,27h-8.24L299.25,98.54h-1.68Zm0-32.4h2.08a42.72,42.72,0,0,0,5.6-.36,14,14,0,0,0,4.88-1.52,9.13,9.13,0,0,0,3.48-3.28,10.56,10.56,0,0,0,1.32-5.64,11.71,11.71,0,0,0-1.28-5.88,8.3,8.3,0,0,0-3.4-3.28,14.49,14.49,0,0,0-4.88-1.4,51.24,51.24,0,0,0-5.8-.32h-2Z"/><path class="cls-2" d="M344,100.62v3.44a25.91,25.91,0,0,0,.24,3.52,17.54,17.54,0,0,0,.8,3.4,11.3,11.3,0,0,0,1.6,3.08,12.59,12.59,0,0,0,5.4,4.28,16.75,16.75,0,0,0,6.76,1.48,16.19,16.19,0,0,0,6.52-1.4,13.71,13.71,0,0,0,5.32-4,10.22,10.22,0,0,0,1.8-3.12,19.28,19.28,0,0,0,.88-3.48,24.47,24.47,0,0,0,.28-3.64V64.7h6.72v37.76c0,1.66-.06,3.21-.16,4.68a26,26,0,0,1-.68,4.28,16.17,16.17,0,0,1-1.6,4,18.78,18.78,0,0,1-2.84,3.76,20.73,20.73,0,0,1-7.4,5.12,23.12,23.12,0,0,1-8.84,1.76,23.62,23.62,0,0,1-8.44-1.56,19.9,19.9,0,0,1-7.16-4.6A18.15,18.15,0,0,1,340,116a16.78,16.78,0,0,1-1.76-4.12,24.25,24.25,0,0,1-.8-4.52c-.14-1.57-.2-3.21-.2-4.92V64.7H344Z"/><path class="cls-2" d="M441.41,77.9A26.5,26.5,0,0,0,433.05,72a24.45,24.45,0,0,0-10-2.12,22.44,22.44,0,0,0-9.48,2,24.92,24.92,0,0,0-7.72,5.48,26.29,26.29,0,0,0-5.2,8,24.36,24.36,0,0,0,0,19,25.73,25.73,0,0,0,5.24,8,25.1,25.1,0,0,0,7.8,5.48,22.68,22.68,0,0,0,9.52,2,23.24,23.24,0,0,0,9.88-2.2,28.72,28.72,0,0,0,8.36-5.8v8.32a32.46,32.46,0,0,1-8.56,4.36,29.47,29.47,0,0,1-9.44,1.56,30.49,30.49,0,0,1-12.12-2.44,31.73,31.73,0,0,1-16.8-16.48,29.17,29.17,0,0,1-2.52-12,30.21,30.21,0,0,1,2.48-12.2,31.8,31.8,0,0,1,16.76-16.76,30.38,30.38,0,0,1,12.2-2.48,29.27,29.27,0,0,1,18,5.92Z"/><path class="cls-2" d="M502,77.9A26.5,26.5,0,0,0,493.61,72a24.48,24.48,0,0,0-10-2.12,22.44,22.44,0,0,0-9.48,2,24.92,24.92,0,0,0-7.72,5.48,26.29,26.29,0,0,0-5.2,8,24.36,24.36,0,0,0,0,19,25.73,25.73,0,0,0,5.24,8,25.1,25.1,0,0,0,7.8,5.48,22.68,22.68,0,0,0,9.52,2,23.28,23.28,0,0,0,9.88-2.2,28.72,28.72,0,0,0,8.36-5.8v8.32a32.46,32.46,0,0,1-8.56,4.36,29.47,29.47,0,0,1-9.44,1.56,30.49,30.49,0,0,1-12.12-2.44,31.73,31.73,0,0,1-16.8-16.48,29.17,29.17,0,0,1-2.52-12A30.21,30.21,0,0,1,455,82.9a31.8,31.8,0,0,1,16.76-16.76A30.38,30.38,0,0,1,484,63.66a29.27,29.27,0,0,1,18,5.92Z"/><path class="cls-2" d="M523.41,125h-6.72V64.7h6.72Z"/><path class="cls-2" d="M567.25,63.66a30.91,30.91,0,0,1,12.2,2.44,31.66,31.66,0,0,1,10,6.72,32.33,32.33,0,0,1,6.76,10,31.05,31.05,0,0,1,0,24.32,31.28,31.28,0,0,1-6.76,9.88,32.12,32.12,0,0,1-10,6.64,31.72,31.72,0,0,1-24.4,0,31.89,31.89,0,0,1-10-6.64,31,31,0,0,1-6.76-9.88,31.05,31.05,0,0,1,0-24.32,32,32,0,0,1,6.76-10,31.43,31.43,0,0,1,10-6.72A30.87,30.87,0,0,1,567.25,63.66Zm0,6.24a24.39,24.39,0,0,0-17.56,7.32,25.27,25.27,0,0,0-5.24,8,24.7,24.7,0,0,0-1.92,9.68,24.36,24.36,0,0,0,1.92,9.64,25,25,0,0,0,5.28,7.92,25.23,25.23,0,0,0,7.88,5.4,24.23,24.23,0,0,0,19.28,0,25.35,25.35,0,0,0,7.88-5.4,25,25,0,0,0,5.28-7.92A24.36,24.36,0,0,0,592,94.86a24.7,24.7,0,0,0-1.92-9.68,25.45,25.45,0,0,0-5.24-8A24.67,24.67,0,0,0,577,71.86,24.33,24.33,0,0,0,567.25,69.9Z"/><path class="cls-2" d="M611.41,62.14l47,49.28V64.7h6.72v63l-47-49.2V125h-6.72Z"/><path class="cls-2" d="M680.93,64.7h31.28v6.24H687.65V88.86h23.84V95.1H687.65v23.68h24.56V125H680.93Z"/><path class="cls-2" d="M754.21,76.46a15.91,15.91,0,0,0-4.2-4.84,10.34,10.34,0,0,0-6.2-1.72,10.71,10.71,0,0,0-3.8.68,10.26,10.26,0,0,0-3.2,1.92,8.92,8.92,0,0,0-2.2,3,8.8,8.8,0,0,0-.8,3.8,6.26,6.26,0,0,0,.92,3.4,10.28,10.28,0,0,0,2.28,2.6,14.25,14.25,0,0,0,3,1.92l3.2,1.52,4,1.76a61.25,61.25,0,0,1,5.56,2.76,22.91,22.91,0,0,1,4.6,3.44,15,15,0,0,1,3.16,4.56,15.21,15.21,0,0,1,1.16,6.2,18.42,18.42,0,0,1-1.48,7.4,17.94,17.94,0,0,1-4.08,5.88,19.66,19.66,0,0,1-6,3.92,18.9,18.9,0,0,1-7.36,1.44,19.66,19.66,0,0,1-6.72-1.12,17.93,17.93,0,0,1-5.56-3.16,18.43,18.43,0,0,1-4.12-4.92,20.89,20.89,0,0,1-2.4-6.4l6.56-1.84a13.73,13.73,0,0,0,4,7.92,11.42,11.42,0,0,0,3.64,2.4,11.3,11.3,0,0,0,4.48.88,12.54,12.54,0,0,0,4.64-.88,12.76,12.76,0,0,0,4-2.44,12.2,12.2,0,0,0,2.76-3.72,10.77,10.77,0,0,0,1-4.72,9.6,9.6,0,0,0-1-4.48,11,11,0,0,0-2.52-3.2A17.34,17.34,0,0,0,748,98c-1.34-.66-2.7-1.32-4.08-2l-3.68-1.6q-2.64-1.2-5-2.56a19.77,19.77,0,0,1-4.2-3.12,12.91,12.91,0,0,1-2.84-4.12,13.79,13.79,0,0,1-1-5.64,14.3,14.3,0,0,1,5.08-11.2,17.14,17.14,0,0,1,5.4-3.08,19,19,0,0,1,6.4-1.08A17.21,17.21,0,0,1,759.57,73Z"/></g></g></svg>