<svg xmlns="http://www.w3.org/2000/svg" viewBox="0 0 236 324.59"><defs><style>.cls-1{opacity:0.25;}</style></defs><title>Recurso1</title><g id="Capa_2" data-name="Capa 2"><g id="Capa_1-2" data-name="Capa 1"><g class="cls-1"><path d="M223.2,0H12.8A12.81,12.81,0,0,0,0,12.8V59.15a3.49,3.49,0,0,0,7,0V12.8A5.83,5.83,0,0,1,12.8,7H223.2A5.83,5.83,0,0,1,229,12.8V262.45a5.82,5.82,0,0,1-5.82,5.81H150.92a33.32,33.32,0,0,0,0-9.77H196.2a3.49,3.49,0,0,0,3.49-3.49,16.08,16.08,0,0,1,16.06-16.06,3.49,3.49,0,0,0,3.49-3.49V66.06a3.49,3.49,0,1,0-7,0V232.22A23.1,23.1,0,0,0,193,251.51H149.09a33.27,33.27,0,0,0-62.18,0H43a23.1,23.1,0,0,0-19.29-19.29V43A23.11,23.11,0,0,0,43,23.74H193A23.11,23.11,0,0,0,212.26,43v6.75a3.49,3.49,0,0,0,7,0v-10a3.49,3.49,0,0,0-3.49-3.49,16.09,16.09,0,0,1-16.06-16.06,3.49,3.49,0,0,0-3.49-3.49H39.8a3.49,3.49,0,0,0-3.49,3.49A16.09,16.09,0,0,1,20.25,36.31a3.49,3.49,0,0,0-3.49,3.49V235.45a3.49,3.49,0,0,0,3.49,3.49A16.08,16.08,0,0,1,36.31,255a3.49,3.49,0,0,0,3.49,3.49H85.08a33.39,33.39,0,0,0,0,9.78H12.8A5.83,5.83,0,0,1,7,262.45V75.38a3.49,3.49,0,0,0-7,0V262.45a12.82,12.82,0,0,0,12.8,12.8H86.91a33.31,33.31,0,0,0,4.79,8.49V321.1a3.49,3.49,0,0,0,4.81,3.23L118,315.56l21.49,8.77a3.53,3.53,0,0,0,1.32.26,3.5,3.5,0,0,0,3.49-3.49v-10a3.49,3.49,0,0,0-7,0v4.79l-18-7.35a3.54,3.54,0,0,0-2.64,0l-18,7.35V290.45a33.16,33.16,0,0,0,38.64,0v4.35a3.49,3.49,0,0,0,7,0V283.74a33.31,33.31,0,0,0,4.79-8.49H223.2a12.82,12.82,0,0,0,12.8-12.8V12.8A12.81,12.81,0,0,0,223.2,0ZM118,289.68a26.3,26.3,0,1,1,26.3-26.3A26.33,26.33,0,0,1,118,289.68Z"/><path d="M148.72,46.08a3.49,3.49,0,1,0,0-7H87.28a3.49,3.49,0,1,0,0,7Z"/><path d="M172,57.72H64a3.49,3.49,0,1,0,0,7H172a3.49,3.49,0,1,0,0-7Z"/><path d="M172,76.34H64a3.49,3.49,0,0,0,0,7H172a3.49,3.49,0,1,0,0-7Z"/><path d="M172,130.72H64a3.49,3.49,0,0,0,0,7H172a3.49,3.49,0,1,0,0-7Z"/><path d="M172,149.34H64a3.49,3.49,0,0,0,0,7H172a3.49,3.49,0,1,0,0-7Z"/><path d="M172,172.72H64a3.49,3.49,0,0,0,0,7H172a3.49,3.49,0,1,0,0-7Z"/><path d="M172,191.34H64a3.49,3.49,0,0,0,0,7H172a3.49,3.49,0,1,0,0-7Z"/><path d="M172,97.75H155.24a3.49,3.49,0,1,0,0,7H172a3.49,3.49,0,1,0,0-7Z"/><path d="M64,97.75a3.49,3.49,0,1,0,0,7H80.76a3.49,3.49,0,0,0,0-7Z"/><path d="M118,245a18.39,18.39,0,1,0,18.39,18.39A18.41,18.41,0,0,0,118,245Zm0,29.79a11.41,11.41,0,1,1,11.4-11.4A11.41,11.41,0,0,1,118,274.78Z"/><path d="M106.13,101.24A11.87,11.87,0,1,0,118,89.37,11.88,11.88,0,0,0,106.13,101.24Zm16.76,0A4.89,4.89,0,1,1,118,96.35,4.89,4.89,0,0,1,122.89,101.24Z"/></g></g></g></svg>