<svg xmlns="http://www.w3.org/2000/svg" viewBox="0 0 138.1 182.14"><defs><style>.cls-1{opacity:0.25;}.cls-2{fill:#1d3330;}</style></defs><title>Recurso3</title><g id="Capa_2" data-name="Capa 2"><g id="Capa_1-2" data-name="Capa 1"><g class="cls-1"><path class="cls-2" d="M92.3,22.7A51.87,51.87,0,0,0,28,100.8a2.87,2.87,0,0,0,4.53-3.53A46.13,46.13,0,0,1,89.71,27.82,2.87,2.87,0,1,0,92.3,22.7Z"/><path class="cls-2" d="M115.22,45.62a2.87,2.87,0,1,0-5.12,2.59,46.13,46.13,0,0,1-69.46,57.22A2.87,2.87,0,0,0,37.11,110a51.87,51.87,0,0,0,78.11-64.34Z"/><path class="cls-2" d="M107.81,34.69c-.71-.81-1.46-1.6-2.22-2.36s-1.56-1.51-2.37-2.22a2.87,2.87,0,1,0-3.8,4.3c.72.63,1.43,1.3,2.11,2s1.34,1.38,2,2.1a2.87,2.87,0,0,0,4.31-3.8Z"/><path class="cls-2" d="M136.67,74.14a9.76,9.76,0,0,0,0-10.18l-3.78-6.19a4,4,0,0,1-.54-2.73l1.12-7.15a9.73,9.73,0,0,0-3.9-9.43l-5.86-4.26a4,4,0,0,1-1.54-2.31l-1.71-7a9.73,9.73,0,0,0-7.2-7.21l-7.05-1.7a4.1,4.1,0,0,1-2.31-1.55L99.64,8.54a9.71,9.71,0,0,0-9.42-3.91L83.06,5.75a4,4,0,0,1-2.73-.54L74.14,1.44A9.72,9.72,0,0,0,64,1.44L57.77,5.21A4,4,0,0,1,55,5.75L47.89,4.63a9.73,9.73,0,0,0-9.43,3.9L34.2,14.39a4.06,4.06,0,0,1-2.31,1.55l-7,1.7a9.76,9.76,0,0,0-7.21,7.2l-1.7,7.05a4.06,4.06,0,0,1-1.55,2.31L8.54,38.46a9.71,9.71,0,0,0-3.91,9.42L5.75,55a4,4,0,0,1-.54,2.73L1.44,64a9.72,9.72,0,0,0,0,10.18l3.77,6.19a4,4,0,0,1,.54,2.73L4.63,90.21a9.73,9.73,0,0,0,3.9,9.43l5.86,4.26a4.06,4.06,0,0,1,1.55,2.31l1.7,7.05a9.77,9.77,0,0,0,7.2,7.2l2.94.71-19.9,44.4a2.88,2.88,0,0,0,3,4l16-1.92,9.23,13.23a2.86,2.86,0,0,0,2.36,1.23h.26a2.9,2.9,0,0,0,2.36-1.68L61.38,135.1,64,136.67a9.77,9.77,0,0,0,10.18,0L76.81,135l20.35,45.41a2.89,2.89,0,0,0,2.35,1.68h.27a2.86,2.86,0,0,0,2.36-1.23l9.22-13.23,16,1.92a2.88,2.88,0,0,0,3-4l-19.92-44.42,2.84-.69a9.74,9.74,0,0,0,7.2-7.2l1.7-7a4.09,4.09,0,0,1,1.55-2.32l5.86-4.26a9.72,9.72,0,0,0,3.9-9.42l-1.12-7.16a4,4,0,0,1,.54-2.72ZM37.89,173.47,30.58,163a2.87,2.87,0,0,0-2.7-1.21L15.19,163.3l18.14-40.46a4,4,0,0,1,.87.87l4.26,5.86a10.25,10.25,0,0,0,1.35,1.51l-9.54,21.29a2.87,2.87,0,0,0,5.23,2.35L45,133.5a9.47,9.47,0,0,0,2.86,0L55,132.35a3.93,3.93,0,0,1,1.28,0ZM123,163.3l-12.69-1.52a2.87,2.87,0,0,0-2.7,1.21l-7.31,10.48L81.89,132.34a4.17,4.17,0,0,1,1.17,0l7.15,1.12a9.61,9.61,0,0,0,3,0l9.52,21.24a2.87,2.87,0,0,0,5.24-2.35L98.37,131a10.22,10.22,0,0,0,1.27-1.43l4.26-5.85a4.12,4.12,0,0,1,1-1Zm8.73-92.15L128,77.35A9.75,9.75,0,0,0,126.68,84l1.12,7.15A4,4,0,0,1,126.19,95l-5.85,4.26a9.78,9.78,0,0,0-3.76,5.6l-1.7,7a4,4,0,0,1-3,3l-7,1.71a9.77,9.77,0,0,0-5.61,3.75L95,126.19a4,4,0,0,1-3.89,1.61L84,126.68A9.77,9.77,0,0,0,77.34,128l-6.19,3.77a4,4,0,0,1-4.2,0L60.76,128a9.8,9.8,0,0,0-5.1-1.43,9.61,9.61,0,0,0-1.51.12L47,127.8a4,4,0,0,1-3.89-1.61l-4.26-5.85a9.71,9.71,0,0,0-5.6-3.75l-7-1.71a4,4,0,0,1-3-3l-1.71-7a9.71,9.71,0,0,0-3.75-5.6L11.91,95a4,4,0,0,1-1.61-3.89L11.42,84a9.73,9.73,0,0,0-1.31-6.6l-3.77-6.2a4,4,0,0,1,0-4.2l3.77-6.19a9.77,9.77,0,0,0,1.31-6.61L10.3,47a4,4,0,0,1,1.61-3.89l5.86-4.26a9.81,9.81,0,0,0,3.75-5.6l1.7-7a4,4,0,0,1,3-3l7-1.7a9.83,9.83,0,0,0,5.61-3.76l4.25-5.85A4,4,0,0,1,47,10.3l7.16,1.12a9.77,9.77,0,0,0,6.61-1.31L67,6.34a4,4,0,0,1,4.2,0l6.2,3.77A9.73,9.73,0,0,0,84,11.42l7.16-1.12A4,4,0,0,1,95,11.91l4.26,5.86a9.81,9.81,0,0,0,5.6,3.75l7,1.7a4,4,0,0,1,3,3l1.71,7a9.77,9.77,0,0,0,3.75,5.61l5.85,4.25A4,4,0,0,1,127.8,47l-1.12,7.16A9.77,9.77,0,0,0,128,60.76L131.76,67A4,4,0,0,1,131.76,71.15Z"/><path class="cls-2" d="M102.64,60.12a5.13,5.13,0,0,0-4.32-3.55l-17.27-2L73.76,38.73a5.19,5.19,0,0,0-9.42,0L57.06,54.52l-17.28,2a5.19,5.19,0,0,0-2.91,9L49.64,77.34,46.25,94.4a5.14,5.14,0,0,0,2,5.21,5.21,5.21,0,0,0,3,1,5.27,5.27,0,0,0,2.54-.67l15.18-8.5,15.18,8.5a5.19,5.19,0,0,0,7.62-5.54L88.46,77.34l12.77-11.81A5.14,5.14,0,0,0,102.64,60.12ZM83.38,74.22a2.87,2.87,0,0,0-.87,2.66L86,94.34,70.45,85.65a2.83,2.83,0,0,0-2.8,0L52.12,94.34l3.47-17.46a2.87,2.87,0,0,0-.87-2.66L41.65,62.13,59.33,60a2.9,2.9,0,0,0,2.27-1.65l7.45-16.16,7.46,16.16A2.87,2.87,0,0,0,78.77,60l17.68,2.09Z"/></g></g></g></svg>