<svg xmlns="http://www.w3.org/2000/svg" viewBox="0 0 129 171.8"><defs><style>.cls-1{opacity:0.25;}.cls-2{fill:#1d3330;fill-rule:evenodd;}</style></defs><title>Recurso2</title><g id="Capa_2" data-name="Capa 2"><g id="Capa_1-2" data-name="Capa 1"><g class="cls-1"><path class="cls-2" d="M3.36,134.89a3.35,3.35,0,0,0,3.35-3.36V6.71H122.29v6.71a3.36,3.36,0,1,0,6.71,0V3.36A3.35,3.35,0,0,0,125.64,0H3.36A3.35,3.35,0,0,0,0,3.36V131.53A3.35,3.35,0,0,0,3.36,134.89Z"/><path class="cls-2" d="M125.64,36.91a3.35,3.35,0,0,0-3.35,3.36v89.92H90.74a3.35,3.35,0,0,0-3.35,3.35v31.55H6.71v-6.71a3.36,3.36,0,1,0-6.71,0v10.07a3.35,3.35,0,0,0,3.36,3.35H91.07l.17,0,.15,0,.17,0,.15,0,.15-.06.16,0,.14-.07.16-.07.12-.08.16-.09.14-.1.13-.1.24-.22L128,135.91c.1-.1.2-.22.29-.33l.06-.09a2.92,2.92,0,0,0,.24-.37v0a2.43,2.43,0,0,0,.16-.37.49.49,0,0,0,0-.11,2.77,2.77,0,0,0,.12-.41h0c0-.14,0-.28.05-.42v-.12a.37.37,0,0,0,0-.11V40.27A3.35,3.35,0,0,0,125.64,36.91ZM94.1,160.34V136.9h23.44Z"/><path class="cls-2" d="M31.62,103.61C40,96.85,52,93,64.5,93S89,96.85,97.38,103.61a3.35,3.35,0,1,0,4.21-5.22C92,90.68,78.51,86.26,64.5,86.26S37,90.68,27.41,98.39a3.35,3.35,0,1,0,4.21,5.22Z"/><path class="cls-2" d="M101.86,36.21a3.35,3.35,0,0,0-4.74,0L89.53,43.8,82,36.21A3.36,3.36,0,0,0,77.2,41l7.59,7.58L77.2,56.13A3.36,3.36,0,0,0,82,60.87l7.58-7.58,7.59,7.58a3.36,3.36,0,0,0,4.74,0,3.35,3.35,0,0,0,0-4.74l-7.58-7.59L101.86,41A3.36,3.36,0,0,0,101.86,36.21Z"/><path class="cls-2" d="M27.14,60.87a3.35,3.35,0,0,0,4.74,0l7.59-7.58,7.58,7.58a3.36,3.36,0,0,0,4.75-4.75l-7.59-7.58L51.8,41a3.36,3.36,0,0,0-4.75-4.75L39.47,43.8l-7.59-7.59A3.36,3.36,0,0,0,27.14,41l7.58,7.58-7.58,7.58A3.36,3.36,0,0,0,27.14,60.87Z"/><path class="cls-2" d="M3.36,148.31A3.36,3.36,0,1,0,0,145,3.36,3.36,0,0,0,3.36,148.31Z"/><path class="cls-2" d="M125.64,23.49A3.36,3.36,0,1,0,129,26.85,3.37,3.37,0,0,0,125.64,23.49Z"/></g></g></g></svg>