<svg xmlns="http://www.w3.org/2000/svg" viewBox="0 0 73.34 73.34"><defs><style>.cls-1{fill:#c3e678;}.cls-2{fill:#a5d76e;}.cls-3{fill:#fff;}</style></defs><title>Recurso4</title><g id="Capa_2" data-name="Capa 2"><g id="Capa_1-2" data-name="Capa 1"><path class="cls-1" d="M36.67,73.34A36.67,36.67,0,1,1,73.34,36.67,36.71,36.71,0,0,1,36.67,73.34Z"/><path class="cls-2" d="M53.79,61.12A36.61,36.61,0,0,1,24.86,2,36.65,36.65,0,1,0,65.6,59.13,36.4,36.4,0,0,1,53.79,61.12Z"/><path class="cls-3" d="M29.08,55.64a2.52,2.52,0,0,1-1.78-.74L12.12,39.72a2.53,2.53,0,0,1,3.58-3.57L29.08,49.53l26-26a2.53,2.53,0,1,1,3.57,3.58L30.87,54.9A2.53,2.53,0,0,1,29.08,55.64Z"/></g></g></svg>