<svg xmlns="http://www.w3.org/2000/svg" viewBox="0 0 491.45 105.46"><title>2</title><g id="Capa_2" data-name="Capa 2"><g id="Capa_1-2" data-name="Capa 1"><path d="M1.3,21.47V1.19H5a15.58,15.58,0,0,1,3.22.24A4.77,4.77,0,0,1,10,2.2,4.52,4.52,0,0,1,11.5,4.1,6.59,6.59,0,0,1,12,6.77,5.23,5.23,0,0,1,10.4,11q-1.62,1.35-5.12,1.35H3.14v9.1ZM3.14,10.75H4.4c2.24,0,3.74-.29,4.51-.85a3.49,3.49,0,0,0,1.16-3,5.1,5.1,0,0,0-.26-1.65A4,4,0,0,0,9,3.91a2.85,2.85,0,0,0-1.47-.86A13.5,13.5,0,0,0,4.4,2.8H3.14Z"/><path d="M22.76,21.47V19.23A4.45,4.45,0,0,1,18.45,22a5.47,5.47,0,0,1-4.26-1.81,6.93,6.93,0,0,1-1.61-4.8,7.15,7.15,0,0,1,1.59-4.81,5.16,5.16,0,0,1,4.11-1.86A5.12,5.12,0,0,1,21,9.41a4.56,4.56,0,0,1,1.77,2V9.18h1.7V21.47Zm-8.29-6a5.56,5.56,0,0,0,1.08,3.67,3.76,3.76,0,0,0,3.07,1.29A3.67,3.67,0,0,0,21.67,19a6.1,6.1,0,0,0,1.12-3.87,5.26,5.26,0,0,0-1.11-3.55,3.77,3.77,0,0,0-3-1.3,3.7,3.7,0,0,0-3,1.38A5.83,5.83,0,0,0,14.47,15.46Z"/><path d="M30.74,11.65a7.35,7.35,0,0,1,1.85-2.26,3.46,3.46,0,0,1,2.11-.66,3.51,3.51,0,0,1,.72.07,4.61,4.61,0,0,1,.73.19L35.6,10.6a3.77,3.77,0,0,0-.58-.14,2.91,2.91,0,0,0-.57-.06,3.22,3.22,0,0,0-2.63,1.44,5.82,5.82,0,0,0-1.08,3.59v6H29V9.18h1.71Z"/><path d="M47,21.47V19.23A4.45,4.45,0,0,1,42.73,22a5.47,5.47,0,0,1-4.26-1.81,7,7,0,0,1-1.61-4.8,7.15,7.15,0,0,1,1.59-4.81,5.16,5.16,0,0,1,4.12-1.86,5.11,5.11,0,0,1,2.7.68,4.56,4.56,0,0,1,1.77,2V9.18h1.7V21.47Zm-8.28-6a5.56,5.56,0,0,0,1.07,3.67,3.78,3.78,0,0,0,3.07,1.29A3.67,3.67,0,0,0,46,19a6,6,0,0,0,1.12-3.87A5.26,5.26,0,0,0,46,11.59a3.77,3.77,0,0,0-3-1.3,3.72,3.72,0,0,0-3,1.38A5.82,5.82,0,0,0,38.76,15.46Z"/><path d="M70,21.47V19.23a4.65,4.65,0,0,1-1.71,2.07A4.61,4.61,0,0,1,65.7,22a5.44,5.44,0,0,1-4.26-1.81,6.93,6.93,0,0,1-1.61-4.8,7.15,7.15,0,0,1,1.59-4.81,5.16,5.16,0,0,1,4.11-1.86,5.09,5.09,0,0,1,2.7.68,4.58,4.58,0,0,1,1.75,2V0h1.73V21.47Zm-8.26-6a5.56,5.56,0,0,0,1.08,3.67,3.74,3.74,0,0,0,3.06,1.29,3.65,3.65,0,0,0,3-1.41A6.1,6.1,0,0,0,70,15.14a5.31,5.31,0,0,0-1.1-3.55,4.1,4.1,0,0,0-6.06.08A5.83,5.83,0,0,0,61.72,15.46Z"/><path d="M86.78,15.37H77a6,6,0,0,0,1.2,3.74,3.67,3.67,0,0,0,3,1.36,4,4,0,0,0,2.38-.73,5.36,5.36,0,0,0,1.71-2.22l1.56.86a6.73,6.73,0,0,1-2.3,2.75,6,6,0,0,1-3.35.88,5.65,5.65,0,0,1-4.37-1.81,6.71,6.71,0,0,1-1.67-4.74,7,7,0,0,1,1.66-4.88,5.53,5.53,0,0,1,4.33-1.85,5.21,5.21,0,0,1,4.08,1.71A6.54,6.54,0,0,1,86.78,15Zm-2-1.45a3.86,3.86,0,0,0-1.12-2.62,3.83,3.83,0,0,0-2.71-.93,3.68,3.68,0,0,0-2.59,1,3.93,3.93,0,0,0-1.21,2.58Z"/><path d="M88.93,19.28l1.62-.93a3.22,3.22,0,0,0,1.16,1.55,3.29,3.29,0,0,0,1.87.52,2.59,2.59,0,0,0,1.72-.55,1.85,1.85,0,0,0,.64-1.46c0-.94-.84-1.74-2.51-2.4L93,15.85a7.82,7.82,0,0,1-2.71-1.58,2.76,2.76,0,0,1-.78-2A3.32,3.32,0,0,1,90.63,9.7a4.11,4.11,0,0,1,2.87-1,4.81,4.81,0,0,1,2.55.65,3.71,3.71,0,0,1,1.53,1.86L96,12.08a2.48,2.48,0,0,0-1-1.33,2.87,2.87,0,0,0-1.66-.46,2.07,2.07,0,0,0-1.46.52,1.67,1.67,0,0,0-.58,1.3,1.62,1.62,0,0,0,.57,1.26,7.73,7.73,0,0,0,2.35,1.09A6.32,6.32,0,0,1,97,16a3.49,3.49,0,0,1,.69,2.3,3.37,3.37,0,0,1-1.2,2.7,4.89,4.89,0,0,1-3.24,1,5,5,0,0,1-2.7-.71A4,4,0,0,1,88.93,19.28Z"/><path d="M101.16,27.65V9.18h1.65v2.3a5.29,5.29,0,0,1,1.84-2,4.67,4.67,0,0,1,2.55-.71,5.24,5.24,0,0,1,4.17,1.82A7.06,7.06,0,0,1,113,15.37a7.17,7.17,0,0,1-1.55,4.83A5.16,5.16,0,0,1,107.28,22a4.87,4.87,0,0,1-2.62-.71,5.3,5.3,0,0,1-1.85-2.1v8.45Zm10-12.25A5.86,5.86,0,0,0,110,11.66a3.63,3.63,0,0,0-3-1.37A3.81,3.81,0,0,0,104,11.61a5.52,5.52,0,0,0-1.12,3.64A5.6,5.6,0,0,0,104,19a4,4,0,0,0,3.17,1.41,3.42,3.42,0,0,0,2.88-1.33A5.85,5.85,0,0,0,111.12,15.4Z"/><path d="M118.37,21.47h-1.75V0h1.75Z"/><path d="M132.1,21.47V19.23a4.63,4.63,0,0,1-1.71,2.07,4.71,4.71,0,0,1-2.6.71,5.47,5.47,0,0,1-4.26-1.81,7,7,0,0,1-1.61-4.8,7.15,7.15,0,0,1,1.59-4.81,5.58,5.58,0,0,1,6.83-1.18,4.48,4.48,0,0,1,1.76,2V9.18h1.71V21.47Zm-8.28-6a5.61,5.61,0,0,0,1.07,3.67A3.78,3.78,0,0,0,128,20.42,3.67,3.67,0,0,0,131,19a6,6,0,0,0,1.12-3.87A5.26,5.26,0,0,0,131,11.59a3.77,3.77,0,0,0-3-1.3,3.72,3.72,0,0,0-3,1.38A5.82,5.82,0,0,0,123.82,15.46Z"/><path d="M136.42,21.47l6.86-10.75h-6.39V9.18h9.34l-6.8,10.75h7v1.54Z"/><path d="M158.25,21.47V19.23a4.63,4.63,0,0,1-1.71,2.07A4.7,4.7,0,0,1,154,22a5.44,5.44,0,0,1-4.26-1.81,6.94,6.94,0,0,1-1.62-4.8,7.11,7.11,0,0,1,1.6-4.81,5.57,5.57,0,0,1,6.82-1.18,4.48,4.48,0,0,1,1.76,2V9.18H160V21.47Zm-8.28-6A5.61,5.61,0,0,0,151,19.13a3.78,3.78,0,0,0,3.07,1.29A3.71,3.71,0,0,0,157.17,19a6.1,6.1,0,0,0,1.11-3.87,5.26,5.26,0,0,0-1.11-3.55,4.12,4.12,0,0,0-6.08.08A5.82,5.82,0,0,0,150,15.46Z"/><path d="M166.23,11.65a7.64,7.64,0,0,1,1.85-2.26,3.51,3.51,0,0,1,2.11-.66,3.61,3.61,0,0,1,.73.07,4.91,4.91,0,0,1,.73.19l-.56,1.61a3.39,3.39,0,0,0-.57-.14,2.93,2.93,0,0,0-.58-.06,3.2,3.2,0,0,0-2.62,1.44,5.76,5.76,0,0,0-1.09,3.59v6h-1.7V9.18h1.7Z"/><path d="M173.82,10.64h-2.26V9.18h2.26v-5h1.68v5H178v1.46H175.5V21.47h-1.68Z"/><path d="M191.05,15.37h-9.76a5.92,5.92,0,0,0,1.19,3.74,3.69,3.69,0,0,0,3,1.36,4,4,0,0,0,2.39-.73,5.42,5.42,0,0,0,1.7-2.22l1.57.86a6.82,6.82,0,0,1-2.31,2.75,6,6,0,0,1-3.35.88,5.67,5.67,0,0,1-4.37-1.81,6.7,6.7,0,0,1-1.66-4.74,7.09,7.09,0,0,1,1.65-4.88,5.55,5.55,0,0,1,4.33-1.85,5.24,5.24,0,0,1,4.09,1.71A6.58,6.58,0,0,1,191.05,15Zm-2-1.45a3.81,3.81,0,0,0-1.12-2.62,3.82,3.82,0,0,0-2.7-.93,3.71,3.71,0,0,0-2.6,1,3.93,3.93,0,0,0-1.21,2.58Z"/><path d="M211.24,21.47V19.23A4.45,4.45,0,0,1,206.93,22a5.44,5.44,0,0,1-4.26-1.81,6.93,6.93,0,0,1-1.61-4.8,7.15,7.15,0,0,1,1.59-4.81,5.57,5.57,0,0,1,6.82-1.18,4.56,4.56,0,0,1,1.77,2V9.18h1.7V21.47Zm-8.29-6A5.56,5.56,0,0,0,204,19.13a3.74,3.74,0,0,0,3.06,1.29A3.68,3.68,0,0,0,210.15,19a6.1,6.1,0,0,0,1.11-3.87,5.31,5.31,0,0,0-1.1-3.55,3.77,3.77,0,0,0-3-1.3,3.73,3.73,0,0,0-3.05,1.38A5.88,5.88,0,0,0,203,15.46Z"/><path d="M225.43,10.64h-2.25V9.18h2.25v-5h1.68v5h2.47v1.46h-2.47V21.47h-1.68Z"/><path d="M233.82,11.65a7.48,7.48,0,0,1,1.84-2.26,3.74,3.74,0,0,1,2.84-.59,4.61,4.61,0,0,1,.73.19l-.55,1.61a3.77,3.77,0,0,0-.58-.14,2.91,2.91,0,0,0-.57-.06,3.22,3.22,0,0,0-2.63,1.44,5.82,5.82,0,0,0-1.08,3.59v6h-1.71V9.18h1.71Z"/><path d="M250.12,21.47V19.23A4.45,4.45,0,0,1,245.81,22a5.47,5.47,0,0,1-4.26-1.81,7,7,0,0,1-1.61-4.8,7.15,7.15,0,0,1,1.59-4.81,5.57,5.57,0,0,1,6.82-1.18,4.56,4.56,0,0,1,1.77,2V9.18h1.7V21.47Zm-8.29-6a5.56,5.56,0,0,0,1.08,3.67A3.76,3.76,0,0,0,246,20.42,3.67,3.67,0,0,0,249,19a6.1,6.1,0,0,0,1.12-3.87A5.26,5.26,0,0,0,249,11.59a3.77,3.77,0,0,0-3-1.3,3.7,3.7,0,0,0-3,1.38A5.83,5.83,0,0,0,241.83,15.46Z"/><path d="M254.55,9.18h1.87l3.77,9.31,3.75-9.31h1.9l-5.65,13.08Z"/><path d="M279.05,15.37h-9.76a5.92,5.92,0,0,0,1.19,3.74,3.69,3.69,0,0,0,3,1.36,4,4,0,0,0,2.38-.73,5.42,5.42,0,0,0,1.7-2.22l1.57.86a6.82,6.82,0,0,1-2.31,2.75,6,6,0,0,1-3.34.88,5.64,5.64,0,0,1-4.37-1.81,6.66,6.66,0,0,1-1.67-4.74,7.09,7.09,0,0,1,1.65-4.88,5.55,5.55,0,0,1,4.33-1.85,5.24,5.24,0,0,1,4.09,1.71A6.58,6.58,0,0,1,279.05,15Zm-2-1.45a3.81,3.81,0,0,0-1.12-2.62,3.82,3.82,0,0,0-2.7-.93,3.71,3.71,0,0,0-2.6,1,3.93,3.93,0,0,0-1.21,2.58ZM271.45,7.2l2.95-4.85h2.27L272.75,7.2Z"/><path d="M281.2,19.28l1.62-.93a3,3,0,0,0,3,2.07,2.57,2.57,0,0,0,1.72-.55,1.82,1.82,0,0,0,.64-1.46c0-.94-.84-1.74-2.51-2.4l-.41-.16a7.78,7.78,0,0,1-2.72-1.58,2.75,2.75,0,0,1-.77-2,3.34,3.34,0,0,1,1.1-2.57,4.11,4.11,0,0,1,2.87-1,4.78,4.78,0,0,1,2.55.65,3.78,3.78,0,0,1,1.54,1.86l-1.57.87a2.43,2.43,0,0,0-1-1.33,2.85,2.85,0,0,0-1.66-.46,2.07,2.07,0,0,0-1.46.52,1.7,1.7,0,0,0-.58,1.3,1.62,1.62,0,0,0,.57,1.26,7.82,7.82,0,0,0,2.36,1.09A6.27,6.27,0,0,1,289.27,16a3.44,3.44,0,0,1,.7,2.3,3.35,3.35,0,0,1-1.21,2.7,4.89,4.89,0,0,1-3.24,1,5,5,0,0,1-2.69-.71A4,4,0,0,1,281.2,19.28Z"/><path d="M310.1,21.47V19.23A4.45,4.45,0,0,1,305.82,22a5.44,5.44,0,0,1-4.26-1.81,6.94,6.94,0,0,1-1.62-4.8,7.11,7.11,0,0,1,1.6-4.81,5.16,5.16,0,0,1,4.11-1.86,5.05,5.05,0,0,1,2.69.68,4.54,4.54,0,0,1,1.76,2V0h1.73V21.47Zm-8.26-6a5.61,5.61,0,0,0,1.07,3.67A3.78,3.78,0,0,0,306,20.42,3.65,3.65,0,0,0,309,19a6.16,6.16,0,0,0,1.1-3.87A5.31,5.31,0,0,0,309,11.59a4.11,4.11,0,0,0-6.07.08A5.82,5.82,0,0,0,301.84,15.46Z"/><path d="M326.9,15.37h-9.77a6,6,0,0,0,1.19,3.74,3.69,3.69,0,0,0,3,1.36,4,4,0,0,0,2.38-.73,5.44,5.44,0,0,0,1.71-2.22l1.56.86a6.82,6.82,0,0,1-2.31,2.75,6,6,0,0,1-3.34.88A5.65,5.65,0,0,1,317,20.2a6.71,6.71,0,0,1-1.67-4.74A7,7,0,0,1,317,10.58a5.52,5.52,0,0,1,4.32-1.85,5.23,5.23,0,0,1,4.09,1.71A6.54,6.54,0,0,1,326.9,15Zm-2-1.45a3.53,3.53,0,0,0-3.83-3.55,3.68,3.68,0,0,0-2.59,1,3.94,3.94,0,0,0-1.22,2.58Z"/><path d="M332.31,21.47h-1.76V0h1.76Z"/><path d="M346.24,21.47h-1.71V9.18h1.71v1.93a4.19,4.19,0,0,1,3.9-2.38,4.1,4.1,0,0,1,2.29.61,4,4,0,0,1,1.47,1.81,4.84,4.84,0,0,1,1.8-1.82,5,5,0,0,1,2.48-.6,4,4,0,0,1,3.07,1.18,4.52,4.52,0,0,1,1.12,3.25v8.31h-1.7V13.84a4.28,4.28,0,0,0-.74-2.72,2.68,2.68,0,0,0-2.21-.91,3,3,0,0,0-2.59,1.15,6.4,6.4,0,0,0-.82,3.64v6.47h-1.69V13.84a4.31,4.31,0,0,0-.71-2.76,2.64,2.64,0,0,0-2.18-.87,3.07,3.07,0,0,0-2.65,1.16,6.27,6.27,0,0,0-.84,3.63Z"/><path d="M376,21.47V19.23A4.45,4.45,0,0,1,371.68,22a5.47,5.47,0,0,1-4.26-1.81,7,7,0,0,1-1.61-4.8,7.15,7.15,0,0,1,1.59-4.81,5.57,5.57,0,0,1,6.82-1.18,4.56,4.56,0,0,1,1.77,2V9.18h1.7V21.47Zm-8.28-6a5.56,5.56,0,0,0,1.07,3.67,3.76,3.76,0,0,0,3.07,1.29,3.67,3.67,0,0,0,3-1.41A6.1,6.1,0,0,0,376,15.14a5.26,5.26,0,0,0-1.11-3.55,3.77,3.77,0,0,0-3-1.3,3.7,3.7,0,0,0-3,1.38A5.82,5.82,0,0,0,367.71,15.46Z"/><path d="M382.26,27.65V9.18h1.65v2.3a5.37,5.37,0,0,1,1.84-2,4.67,4.67,0,0,1,2.55-.71,5.26,5.26,0,0,1,4.18,1.82,7.05,7.05,0,0,1,1.58,4.82,7.11,7.11,0,0,1-1.55,4.83A5.14,5.14,0,0,1,388.39,22a4.85,4.85,0,0,1-2.62-.71,5.32,5.32,0,0,1-1.86-2.1v8.45Zm10-12.25a5.8,5.8,0,0,0-1.09-3.74,3.61,3.61,0,0,0-3-1.37,3.83,3.83,0,0,0-3.09,1.32,5.51,5.51,0,0,0-1.11,3.64,5.6,5.6,0,0,0,1.2,3.76,3.94,3.94,0,0,0,3.16,1.41,3.44,3.44,0,0,0,2.89-1.33A5.85,5.85,0,0,0,392.22,15.4Z"/><path d="M406.68,21.47V19.23A4.63,4.63,0,0,1,405,21.3a4.71,4.71,0,0,1-2.6.71,5.43,5.43,0,0,1-4.25-1.81,6.94,6.94,0,0,1-1.62-4.8,7.15,7.15,0,0,1,1.59-4.81,5.58,5.58,0,0,1,6.83-1.18,4.48,4.48,0,0,1,1.76,2V9.18h1.71V21.47Zm-8.28-6a5.61,5.61,0,0,0,1.07,3.67,3.78,3.78,0,0,0,3.07,1.29A3.71,3.71,0,0,0,405.6,19a6.1,6.1,0,0,0,1.11-3.87,5.26,5.26,0,0,0-1.11-3.55,4.12,4.12,0,0,0-6.08.08A5.82,5.82,0,0,0,398.4,15.46Z"/><path d="M422.23,21.47h-1.71V9.18h1.71v1.93a4.19,4.19,0,0,1,3.9-2.38,4.1,4.1,0,0,1,2.29.61,4,4,0,0,1,1.47,1.81,4.84,4.84,0,0,1,1.8-1.82,5,5,0,0,1,2.48-.6,4,4,0,0,1,3.07,1.18,4.52,4.52,0,0,1,1.12,3.25v8.31h-1.7V13.84a4.28,4.28,0,0,0-.74-2.72,2.68,2.68,0,0,0-2.21-.91,3,3,0,0,0-2.59,1.15A6.4,6.4,0,0,0,430.3,15v6.47h-1.69V13.84a4.31,4.31,0,0,0-.71-2.76,2.64,2.64,0,0,0-2.18-.87,3.07,3.07,0,0,0-2.65,1.16,6.27,6.27,0,0,0-.84,3.63Z"/><path d="M452,21.47V19.23A4.45,4.45,0,0,1,447.67,22a5.47,5.47,0,0,1-4.26-1.81,7,7,0,0,1-1.61-4.8,7.15,7.15,0,0,1,1.59-4.81,5.57,5.57,0,0,1,6.82-1.18,4.56,4.56,0,0,1,1.77,2V9.18h1.7V21.47Zm-8.29-6a5.56,5.56,0,0,0,1.08,3.67,3.76,3.76,0,0,0,3.07,1.29A3.67,3.67,0,0,0,450.89,19,6.1,6.1,0,0,0,452,15.14a5.26,5.26,0,0,0-1.11-3.55,3.77,3.77,0,0,0-3-1.3,3.7,3.7,0,0,0-3,1.38A5.83,5.83,0,0,0,443.69,15.46Z"/><path d="M458.61,10.64h-2.25V9.18h2.25v-5h1.68v5h2.46v1.46h-2.46V21.47h-1.68Z"/><path d="M475.84,15.37h-9.76a5.92,5.92,0,0,0,1.19,3.74,3.69,3.69,0,0,0,3,1.36,4,4,0,0,0,2.38-.73,5.42,5.42,0,0,0,1.7-2.22l1.57.86a6.82,6.82,0,0,1-2.31,2.75,6,6,0,0,1-3.34.88,5.65,5.65,0,0,1-4.37-1.81,6.66,6.66,0,0,1-1.67-4.74,7.09,7.09,0,0,1,1.65-4.88,5.56,5.56,0,0,1,4.33-1.85,5.24,5.24,0,0,1,4.09,1.71A6.58,6.58,0,0,1,475.84,15Zm-2-1.45a3.81,3.81,0,0,0-1.12-2.62,3.82,3.82,0,0,0-2.7-.93,3.71,3.71,0,0,0-2.6,1,3.93,3.93,0,0,0-1.21,2.58Z"/><path d="M479.39,21.47V9.18H481v1.9a5,5,0,0,1,1.84-1.76,5.05,5.05,0,0,1,2.5-.59,4.37,4.37,0,0,1,3.25,1.16,4.37,4.37,0,0,1,1.16,3.24v8.34H488V13.89a4,4,0,0,0-.77-2.73,2.94,2.94,0,0,0-2.37-.9A3.48,3.48,0,0,0,482,11.42a5.84,5.84,0,0,0-.92,3.64v6.41Z"/><path d="M1.05,55.38V36.92H2.7v2.3a5.33,5.33,0,0,1,1.84-2,4.75,4.75,0,0,1,2.55-.71,5.29,5.29,0,0,1,4.18,1.82,7.08,7.08,0,0,1,1.58,4.83,7.15,7.15,0,0,1-1.55,4.83,5.17,5.17,0,0,1-4.13,1.8A4.75,4.75,0,0,1,4.56,49a5.32,5.32,0,0,1-1.86-2.1v8.45ZM11,43.14a5.83,5.83,0,0,0-1.09-3.75,3.61,3.61,0,0,0-3-1.37,3.84,3.84,0,0,0-3.09,1.33A5.47,5.47,0,0,0,2.73,43a5.58,5.58,0,0,0,1.2,3.76,3.94,3.94,0,0,0,3.16,1.41A3.46,3.46,0,0,0,10,46.83,5.85,5.85,0,0,0,11,43.14Z"/><path d="M18.1,39.38A7.77,7.77,0,0,1,20,37.12a3.74,3.74,0,0,1,2.84-.59,6,6,0,0,1,.73.19L23,38.33a5.45,5.45,0,0,0-.58-.14,2.87,2.87,0,0,0-.57,0,3.22,3.22,0,0,0-2.63,1.44,5.8,5.8,0,0,0-1.09,3.58v6H16.4V36.92h1.7Z"/><path d="M35.89,43.11H26.12a6.07,6.07,0,0,0,1.19,3.74,3.72,3.72,0,0,0,3,1.36,4,4,0,0,0,2.38-.74,5.47,5.47,0,0,0,1.71-2.21l1.56.85a6.74,6.74,0,0,1-2.3,2.75,6,6,0,0,1-3.35.88A5.68,5.68,0,0,1,26,47.94a6.75,6.75,0,0,1-1.67-4.75,7,7,0,0,1,1.66-4.87,5.51,5.51,0,0,1,4.33-1.86,5.22,5.22,0,0,1,4.08,1.71,6.54,6.54,0,0,1,1.54,4.56Zm-2-1.46A3.53,3.53,0,0,0,30,38.11a3.64,3.64,0,0,0-2.59,1,3.94,3.94,0,0,0-1.22,2.57Z"/><path d="M38,47l1.62-.92a3.18,3.18,0,0,0,1.16,1.54,3.22,3.22,0,0,0,1.87.52,2.54,2.54,0,0,0,1.72-.55A1.83,1.83,0,0,0,45,46.14c0-.94-.83-1.74-2.5-2.39l-.42-.17A7.73,7.73,0,0,1,39.41,42a2.78,2.78,0,0,1-.78-2,3.3,3.3,0,0,1,1.11-2.57,4.1,4.1,0,0,1,2.87-1,4.83,4.83,0,0,1,2.55.65,3.8,3.8,0,0,1,1.53,1.86l-1.56.87a2.57,2.57,0,0,0-1-1.33A3,3,0,0,0,42.5,38a2.15,2.15,0,0,0-1.47.52,1.69,1.69,0,0,0-.57,1.3A1.6,1.6,0,0,0,41,41.1a7.49,7.49,0,0,0,2.35,1.09,6.42,6.42,0,0,1,2.72,1.54,3.45,3.45,0,0,1,.7,2.3,3.34,3.34,0,0,1-1.2,2.7,4.85,4.85,0,0,1-3.24,1,4.92,4.92,0,0,1-2.7-.71A4,4,0,0,1,38,47Z"/><path d="M50,32.12a1.25,1.25,0,0,1,.39-.92,1.26,1.26,0,0,1,.92-.38,1.32,1.32,0,0,1,.94.38,1.25,1.25,0,0,1,.39.92,1.23,1.23,0,0,1-.38.93,1.3,1.3,0,0,1-1,.38,1.27,1.27,0,0,1-.93-.38A1.23,1.23,0,0,1,50,32.12Zm.43,17.08V36.92h1.76V49.2Z"/><path d="M62.37,49.74a6.25,6.25,0,0,1-2.52-.52,7,7,0,0,1-2.19-1.49,6.07,6.07,0,0,1-1.41-2.1,6.73,6.73,0,0,1-.48-2.55,6.47,6.47,0,0,1,1.92-4.68A6.45,6.45,0,0,1,59.84,37a6.6,6.6,0,0,1,2.53-.5A6.86,6.86,0,0,1,65,37a6.72,6.72,0,0,1,3.64,3.59,6.38,6.38,0,0,1,.5,2.53,6.38,6.38,0,0,1-1.93,4.65A6.79,6.79,0,0,1,65,49.22,6.58,6.58,0,0,1,62.37,49.74Zm.06-1.59a4.6,4.6,0,0,0,3.43-1.46,5.3,5.3,0,0,0,0-7.18,4.75,4.75,0,0,0-6.85,0,5.3,5.3,0,0,0,0,7.18A4.56,4.56,0,0,0,62.43,48.15Z"/><path d="M72.62,49.2V36.92h1.62v1.89a5,5,0,0,1,1.84-1.76,5.19,5.19,0,0,1,2.5-.59A4,4,0,0,1,83,40.86V49.2H81.27V41.63a4.15,4.15,0,0,0-.77-2.74A3,3,0,0,0,78.12,38a3.44,3.44,0,0,0-2.87,1.15,5.8,5.8,0,0,0-.92,3.64V49.2Z"/><path d="M96.47,49.2V47a4.45,4.45,0,0,1-4.3,2.78,5.4,5.4,0,0,1-4.26-1.81,6.93,6.93,0,0,1-1.62-4.79,7.12,7.12,0,0,1,1.6-4.82,5.54,5.54,0,0,1,6.82-1.17,4.4,4.4,0,0,1,1.76,2V36.92h1.71V49.2Zm-8.28-6a5.61,5.61,0,0,0,1.07,3.67,3.78,3.78,0,0,0,3.07,1.29,3.69,3.69,0,0,0,3.06-1.41,6.06,6.06,0,0,0,1.11-3.87,5.28,5.28,0,0,0-1.11-3.55,3.78,3.78,0,0,0-3-1.3,3.73,3.73,0,0,0-3,1.38A5.88,5.88,0,0,0,88.19,43.19Z"/><path d="M111.85,49.2V47a4.39,4.39,0,0,1-4.28,2.78,5.43,5.43,0,0,1-4.26-1.81,6.92,6.92,0,0,1-1.61-4.79,7.16,7.16,0,0,1,1.59-4.82,5.16,5.16,0,0,1,4.11-1.86,5.09,5.09,0,0,1,2.7.69,4.5,4.5,0,0,1,1.75,2V27.73h1.73V49.2Zm-8.26-6a5.56,5.56,0,0,0,1.08,3.67,3.76,3.76,0,0,0,3.07,1.29,3.65,3.65,0,0,0,3-1.41,6.06,6.06,0,0,0,1.11-3.87,5.33,5.33,0,0,0-1.1-3.55,3.75,3.75,0,0,0-3-1.3,3.7,3.7,0,0,0-3,1.38A5.83,5.83,0,0,0,103.59,43.19Z"/><path d="M123.68,49.74a6.22,6.22,0,0,1-2.52-.52A6.82,6.82,0,0,1,119,47.73a6.07,6.07,0,0,1-1.41-2.1,6.55,6.55,0,0,1-.49-2.55,6.66,6.66,0,0,1,.5-2.55A6.5,6.5,0,0,1,119,38.4,6.41,6.41,0,0,1,121.14,37a6.65,6.65,0,0,1,2.54-.5,6.85,6.85,0,0,1,2.58.5,6.48,6.48,0,0,1,2.18,1.44,6.56,6.56,0,0,1,2,4.68,6.56,6.56,0,0,1-.5,2.53,6.23,6.23,0,0,1-1.44,2.12,6.69,6.69,0,0,1-2.21,1.49A6.54,6.54,0,0,1,123.68,49.74Zm0-1.59a4.6,4.6,0,0,0,3.43-1.46,5.29,5.29,0,0,0,0-7.18,4.76,4.76,0,0,0-6.86,0,5.3,5.3,0,0,0,0,7.18A4.59,4.59,0,0,0,123.73,48.15Z"/><path d="M155.31,43.11h-9.77a6.07,6.07,0,0,0,1.19,3.74,3.72,3.72,0,0,0,3,1.36,4,4,0,0,0,2.38-.74,5.56,5.56,0,0,0,1.71-2.21l1.56.85a6.75,6.75,0,0,1-2.31,2.75,6,6,0,0,1-3.34.88,5.68,5.68,0,0,1-4.37-1.8,6.75,6.75,0,0,1-1.67-4.75,7,7,0,0,1,1.66-4.87,5.5,5.5,0,0,1,4.32-1.86,5.24,5.24,0,0,1,4.09,1.71,6.59,6.59,0,0,1,1.54,4.56Zm-2-1.46A3.74,3.74,0,0,0,152.16,39a3.79,3.79,0,0,0-2.7-.93,3.68,3.68,0,0,0-2.6,1,3.93,3.93,0,0,0-1.21,2.57Z"/><path d="M160.72,49.2H159V27.73h1.76Z"/><path d="M185.76,39.16a6.46,6.46,0,0,0-1.83-.89,6.71,6.71,0,0,0-2-.3,4.76,4.76,0,0,0-3.65,1.46,5.52,5.52,0,0,0-1.35,3.9,4.79,4.79,0,0,0,1.4,3.56,4.91,4.91,0,0,0,3.6,1.4,6.26,6.26,0,0,0,2-.35,7.51,7.51,0,0,0,2-1v1.87a7.1,7.1,0,0,1-2,.77,10.29,10.29,0,0,1-2.34.26A6.19,6.19,0,0,1,177,48a6.5,6.5,0,0,1-1.8-4.73A6.45,6.45,0,0,1,182,36.46a9.94,9.94,0,0,1,2.09.21,7.13,7.13,0,0,1,1.74.62Z"/><path d="M190.84,36.92v6.13a7.25,7.25,0,0,0,.8,4,3,3,0,0,0,2.69,1.15A3.07,3.07,0,0,0,197,47a7.07,7.07,0,0,0,.82-3.94V36.92h1.69v7a6.33,6.33,0,0,1-1.32,4.34,4.9,4.9,0,0,1-3.86,1.47,5,5,0,0,1-3.89-1.47,6.28,6.28,0,0,1-1.33-4.34v-7Z"/><path d="M205.79,39.38a7.62,7.62,0,0,1,1.85-2.26,3.49,3.49,0,0,1,2.11-.66,3.68,3.68,0,0,1,.73.07,6.38,6.38,0,0,1,.72.19l-.55,1.61a5.45,5.45,0,0,0-.58-.14,2.81,2.81,0,0,0-.57,0,3.22,3.22,0,0,0-2.63,1.44,5.79,5.79,0,0,0-1.08,3.58v6h-1.71V36.92h1.71Z"/><path d="M211.62,47l1.62-.92a3.31,3.31,0,0,0,1.16,1.54,3.22,3.22,0,0,0,1.87.52A2.52,2.52,0,0,0,218,47.6a1.81,1.81,0,0,0,.64-1.46c0-.94-.84-1.74-2.51-2.39l-.41-.17A7.79,7.79,0,0,1,213,42a2.78,2.78,0,0,1-.78-2,3.3,3.3,0,0,1,1.11-2.57,4.12,4.12,0,0,1,2.87-1,4.78,4.78,0,0,1,2.55.65,3.87,3.87,0,0,1,1.54,1.86l-1.57.87a2.51,2.51,0,0,0-1-1.33,3,3,0,0,0-1.66-.46,2.12,2.12,0,0,0-1.46.52,1.67,1.67,0,0,0-.58,1.3,1.6,1.6,0,0,0,.57,1.26A7.46,7.46,0,0,0,217,42.19a6.55,6.55,0,0,1,2.72,1.54,3.51,3.51,0,0,1,.7,2.3,3.32,3.32,0,0,1-1.21,2.7,4.84,4.84,0,0,1-3.24,1,4.89,4.89,0,0,1-2.69-.71A4,4,0,0,1,211.62,47Z"/><path d="M229.43,49.74a6.22,6.22,0,0,1-2.52-.52,7,7,0,0,1-2.19-1.49,6.07,6.07,0,0,1-1.41-2.1,6.73,6.73,0,0,1-.49-2.55,6.54,6.54,0,0,1,1.93-4.68A6.45,6.45,0,0,1,226.9,37a6.6,6.6,0,0,1,2.53-.5A6.86,6.86,0,0,1,232,37a6.72,6.72,0,0,1,3.64,3.59,6.65,6.65,0,0,1,0,5.06,6.23,6.23,0,0,1-1.44,2.12,6.71,6.71,0,0,1-4.79,2Zm.06-1.59a4.6,4.6,0,0,0,3.43-1.46,5.3,5.3,0,0,0,0-7.18,4.75,4.75,0,0,0-6.85,0,5.3,5.3,0,0,0,0,7.18A4.56,4.56,0,0,0,229.49,48.15Z"/><path d="M241.39,39.38a7.61,7.61,0,0,1,1.84-2.26,3.74,3.74,0,0,1,2.84-.59,6,6,0,0,1,.73.19l-.55,1.61a5.45,5.45,0,0,0-.58-.14,2.87,2.87,0,0,0-.57,0,3.22,3.22,0,0,0-2.63,1.44,5.79,5.79,0,0,0-1.08,3.58v6h-1.71V36.92h1.71Z"/><path d="M269,39.16a6.6,6.6,0,0,0-1.83-.89,6.73,6.73,0,0,0-2-.3,4.75,4.75,0,0,0-3.64,1.46,5.53,5.53,0,0,0-1.36,3.9,4.8,4.8,0,0,0,1.41,3.56,4.9,4.9,0,0,0,3.59,1.4,6.27,6.27,0,0,0,2-.35,7.51,7.51,0,0,0,2-1v1.87a7.1,7.1,0,0,1-2,.77,10.29,10.29,0,0,1-2.34.26A6.18,6.18,0,0,1,260.24,48a6.5,6.5,0,0,1-1.8-4.73,6.45,6.45,0,0,1,6.76-6.76,9.94,9.94,0,0,1,2.09.21,7.13,7.13,0,0,1,1.74.62Z"/><path d="M278,49.74a6.22,6.22,0,0,1-2.52-.52,6.93,6.93,0,0,1-2.19-1.49,6.07,6.07,0,0,1-1.41-2.1,6.55,6.55,0,0,1-.49-2.55,6.66,6.66,0,0,1,.5-2.55A6.68,6.68,0,0,1,275.42,37a6.65,6.65,0,0,1,2.54-.5,6.81,6.81,0,0,1,2.58.5,6.78,6.78,0,0,1,3.65,3.59,6.65,6.65,0,0,1,0,5.06,6.23,6.23,0,0,1-1.44,2.12,6.76,6.76,0,0,1-4.79,2Zm.05-1.59a4.58,4.58,0,0,0,3.43-1.46,5.29,5.29,0,0,0,0-7.18,4.76,4.76,0,0,0-6.86,0,5.3,5.3,0,0,0,0,7.18A4.59,4.59,0,0,0,278,48.15Z"/><path d="M288.21,49.2V36.92h1.62v1.89a5,5,0,0,1,1.84-1.76,5.16,5.16,0,0,1,2.5-.59,4.42,4.42,0,0,1,3.25,1.16,4.37,4.37,0,0,1,1.16,3.24V49.2h-1.73V41.63a4.09,4.09,0,0,0-.77-2.74,3,3,0,0,0-2.37-.89,3.47,3.47,0,0,0-2.88,1.15,5.86,5.86,0,0,0-.92,3.64V49.2Z"/><path d="M323.37,39.16a6.46,6.46,0,0,0-1.83-.89,6.66,6.66,0,0,0-2-.3,4.76,4.76,0,0,0-3.65,1.46,5.52,5.52,0,0,0-1.35,3.9,4.83,4.83,0,0,0,1.4,3.56,4.91,4.91,0,0,0,3.6,1.4,6.26,6.26,0,0,0,2-.35,7.51,7.51,0,0,0,2-1v1.87a7.1,7.1,0,0,1-2,.77,10.29,10.29,0,0,1-2.34.26A6.15,6.15,0,0,1,314.62,48a6.5,6.5,0,0,1-1.8-4.73,6.43,6.43,0,0,1,6.75-6.76,9.94,9.94,0,0,1,2.09.21,7.13,7.13,0,0,1,1.74.62Z"/><path d="M328.62,49.2h-1.76V27.73h1.76Z"/><path d="M333,32.12a1.24,1.24,0,0,1,.38-.92,1.3,1.3,0,0,1,.93-.38,1.34,1.34,0,0,1,.94.38,1.25,1.25,0,0,1,.39.92,1.27,1.27,0,0,1-.38.93,1.3,1.3,0,0,1-1,.38,1.27,1.27,0,0,1-.93-.38A1.23,1.23,0,0,1,333,32.12Zm.42,17.08V36.92h1.76V49.2Z"/><path d="M349.36,39.16A6.7,6.7,0,0,0,345.53,38a4.74,4.74,0,0,0-3.64,1.46,5.48,5.48,0,0,0-1.36,3.9,4.8,4.8,0,0,0,1.41,3.56,4.88,4.88,0,0,0,3.59,1.4,6.27,6.27,0,0,0,2-.35,7.66,7.66,0,0,0,2-1v1.87a7.17,7.17,0,0,1-2,.77,10.29,10.29,0,0,1-2.34.26A6.17,6.17,0,0,1,340.6,48a6.5,6.5,0,0,1-1.8-4.73,6.45,6.45,0,0,1,6.76-6.76,9.84,9.84,0,0,1,2.08.21,7,7,0,0,1,1.74.62Z"/><path d="M363.24,32.12a1.25,1.25,0,0,1,.39-.92,1.33,1.33,0,0,1,1.86,0,1.29,1.29,0,0,1,0,1.85,1.33,1.33,0,0,1-.95.38,1.31,1.31,0,0,1-.94-.38A1.27,1.27,0,0,1,363.24,32.12Zm.43,17.08V36.92h1.76V49.2Z"/><path d="M368.13,49.2,375,38.45H368.6V36.92h9.34l-6.8,10.75h7V49.2Z"/><path d="M391.69,55.38H390V46.93a5.32,5.32,0,0,1-1.86,2.1,4.83,4.83,0,0,1-2.64.71,5.19,5.19,0,0,1-4.13-1.8,7.2,7.2,0,0,1-1.55-4.83,7.13,7.13,0,0,1,1.58-4.83,5.27,5.27,0,0,1,4.18-1.82,4.75,4.75,0,0,1,2.58.72,5.14,5.14,0,0,1,1.84,2v-2.3h1.65ZM385.82,38a3.65,3.65,0,0,0-3,1.37,5.78,5.78,0,0,0-1.11,3.75,5.79,5.79,0,0,0,1.05,3.69,3.49,3.49,0,0,0,2.9,1.32,3.93,3.93,0,0,0,3.15-1.4A5.64,5.64,0,0,0,390,43a5.48,5.48,0,0,0-1.11-3.64A3.78,3.78,0,0,0,385.82,38Z"/><path d="M397.94,36.92v6.13a7.26,7.26,0,0,0,.79,4,3.05,3.05,0,0,0,2.7,1.15,3.09,3.09,0,0,0,2.7-1.16,7.16,7.16,0,0,0,.82-3.94V36.92h1.69v7a6.33,6.33,0,0,1-1.32,4.34,4.91,4.91,0,0,1-3.86,1.47,5,5,0,0,1-3.9-1.47,6.33,6.33,0,0,1-1.33-4.34v-7Z"/><path d="M410.86,32.12a1.25,1.25,0,0,1,.39-.92,1.33,1.33,0,0,1,1.86,0,1.22,1.22,0,0,1,.4.92,1.27,1.27,0,0,1-.38.93,1.37,1.37,0,0,1-1.89,0A1.27,1.27,0,0,1,410.86,32.12Zm.43,17.08V36.92h1.76V49.2Z"/><path d="M428.26,43.11h-9.77a6.07,6.07,0,0,0,1.19,3.74,3.72,3.72,0,0,0,3,1.36,4,4,0,0,0,2.38-.74,5.47,5.47,0,0,0,1.71-2.21l1.56.85a6.81,6.81,0,0,1-2.3,2.75,6,6,0,0,1-3.35.88,5.68,5.68,0,0,1-4.37-1.8,6.75,6.75,0,0,1-1.67-4.75,7,7,0,0,1,1.66-4.87,5.5,5.5,0,0,1,4.32-1.86,5.23,5.23,0,0,1,4.09,1.71,6.54,6.54,0,0,1,1.54,4.56Zm-2-1.46a3.53,3.53,0,0,0-3.83-3.54,3.64,3.64,0,0,0-2.59,1,3.89,3.89,0,0,0-1.22,2.57Z"/><path d="M433.51,39.38a7.62,7.62,0,0,1,1.85-2.26,3.49,3.49,0,0,1,2.11-.66,3.68,3.68,0,0,1,.73.07,6.38,6.38,0,0,1,.72.19l-.55,1.61a5.27,5.27,0,0,0-.57-.14,3,3,0,0,0-.58,0,3.2,3.2,0,0,0-2.62,1.44,5.73,5.73,0,0,0-1.09,3.58v6H431.8V36.92h1.71Z"/><path d="M449.84,49.2V47a4.73,4.73,0,0,1-1.7,2.08,4.66,4.66,0,0,1-2.58.7,5.43,5.43,0,0,1-4.26-1.81,6.92,6.92,0,0,1-1.61-4.79,7.16,7.16,0,0,1,1.59-4.82,5.16,5.16,0,0,1,4.11-1.86,5.09,5.09,0,0,1,2.7.69,4.5,4.5,0,0,1,1.75,2V27.73h1.73V49.2Zm-8.26-6a5.56,5.56,0,0,0,1.08,3.67,3.76,3.76,0,0,0,3.06,1.29,3.65,3.65,0,0,0,3-1.41,6.06,6.06,0,0,0,1.11-3.87,5.33,5.33,0,0,0-1.1-3.55,3.75,3.75,0,0,0-3-1.3,3.7,3.7,0,0,0-3,1.38A5.83,5.83,0,0,0,441.58,43.19Z"/><path d="M461.67,49.74a6.22,6.22,0,0,1-2.52-.52A6.82,6.82,0,0,1,457,47.73a6.07,6.07,0,0,1-1.41-2.1,6.55,6.55,0,0,1-.49-2.55,6.66,6.66,0,0,1,.5-2.55A6.5,6.5,0,0,1,457,38.4,6.41,6.41,0,0,1,459.13,37a6.65,6.65,0,0,1,2.54-.5,6.85,6.85,0,0,1,2.58.5,6.48,6.48,0,0,1,2.18,1.44,6.56,6.56,0,0,1,2,4.68,6.56,6.56,0,0,1-.5,2.53,6.23,6.23,0,0,1-1.44,2.12,6.69,6.69,0,0,1-2.21,1.49A6.57,6.57,0,0,1,461.67,49.74Zm.05-1.59a4.6,4.6,0,0,0,3.43-1.46,5.29,5.29,0,0,0,0-7.18,4.76,4.76,0,0,0-6.86,0,5.3,5.3,0,0,0,0,7.18A4.57,4.57,0,0,0,461.72,48.15Z"/><path d="M481.07,36.92h1.81l3.52,9.61,3.24-9.61h1.81L485.1,55.38h-1.76l2.14-6.26Z"/><path d="M10.15,76.94V74.69a4.55,4.55,0,0,1-1.7,2.08,4.66,4.66,0,0,1-2.58.71,5.44,5.44,0,0,1-4.26-1.82A7,7,0,0,1,0,70.87a7.14,7.14,0,0,1,1.59-4.81,5.15,5.15,0,0,1,4.12-1.87,5.05,5.05,0,0,1,2.69.69,4.55,4.55,0,0,1,1.75,2V55.47h1.73V76.94Zm-8.25-6A5.63,5.63,0,0,0,3,74.6,3.77,3.77,0,0,0,6,75.88a3.64,3.64,0,0,0,3-1.4,6.1,6.1,0,0,0,1.11-3.87,5.35,5.35,0,0,0-1.09-3.56,3.75,3.75,0,0,0-3-1.29A3.72,3.72,0,0,0,3,67.14,5.82,5.82,0,0,0,1.9,70.93Z"/><path d="M27,70.84H17.19a6,6,0,0,0,1.19,3.74,3.69,3.69,0,0,0,3,1.36,4,4,0,0,0,2.38-.73A5.42,5.42,0,0,0,25.47,73l1.57.86a6.89,6.89,0,0,1-2.31,2.75,6.09,6.09,0,0,1-3.34.88A5.69,5.69,0,0,1,17,75.67a6.69,6.69,0,0,1-1.67-4.74A7.07,7.07,0,0,1,17,66.05a5.53,5.53,0,0,1,4.33-1.86,5.24,5.24,0,0,1,4.09,1.71A6.63,6.63,0,0,1,27,70.47Zm-2-1.45a3.52,3.52,0,0,0-3.82-3.55,3.72,3.72,0,0,0-2.6,1,4,4,0,0,0-1.21,2.58Z"/><path d="M29.1,74.75l1.62-.93a3,3,0,0,0,3,2.06,2.54,2.54,0,0,0,1.71-.54,1.82,1.82,0,0,0,.64-1.46c0-.95-.84-1.74-2.51-2.4a3.69,3.69,0,0,1-.41-.17,7.64,7.64,0,0,1-2.72-1.57,2.81,2.81,0,0,1-.77-2,3.32,3.32,0,0,1,1.11-2.57,4.07,4.07,0,0,1,2.86-1,4.69,4.69,0,0,1,2.55.65,3.75,3.75,0,0,1,1.54,1.85l-1.57.88a2.39,2.39,0,0,0-1-1.33,2.85,2.85,0,0,0-1.66-.46,2.07,2.07,0,0,0-1.46.52,1.67,1.67,0,0,0-.57,1.29,1.59,1.59,0,0,0,.56,1.26,7.54,7.54,0,0,0,2.36,1.1,6.27,6.27,0,0,1,2.72,1.54,3.44,3.44,0,0,1,.7,2.3,3.35,3.35,0,0,1-1.21,2.7,4.89,4.89,0,0,1-3.24,1,4.89,4.89,0,0,1-2.69-.72A4,4,0,0,1,29.1,74.75Z"/><path d="M41.33,83.11V64.65H43V67a5.23,5.23,0,0,1,1.84-2,4.68,4.68,0,0,1,2.55-.72A5.26,5.26,0,0,1,51.55,66a7.05,7.05,0,0,1,1.58,4.82,7.13,7.13,0,0,1-1.55,4.83,5.18,5.18,0,0,1-4.13,1.81,4.76,4.76,0,0,1-2.61-.72A5.22,5.22,0,0,1,43,74.67v8.44Zm10-12.24a5.83,5.83,0,0,0-1.09-3.75,3.6,3.6,0,0,0-3-1.36,3.83,3.83,0,0,0-3.09,1.32A5.5,5.5,0,0,0,43,70.72a5.6,5.6,0,0,0,1.2,3.76,3.93,3.93,0,0,0,3.16,1.4,3.46,3.46,0,0,0,2.89-1.32A5.85,5.85,0,0,0,51.29,70.87Z"/><path d="M58.55,76.94H56.79V55.47h1.76Z"/><path d="M72.28,76.94V74.69A4.48,4.48,0,0,1,68,77.48a5.41,5.41,0,0,1-4.26-1.82,6.91,6.91,0,0,1-1.61-4.79,7.14,7.14,0,0,1,1.59-4.81,5.53,5.53,0,0,1,6.82-1.18,4.59,4.59,0,0,1,1.77,2V64.65H74V76.94Zm-8.29-6a5.58,5.58,0,0,0,1.08,3.67,3.74,3.74,0,0,0,3.06,1.28,3.67,3.67,0,0,0,3.06-1.4,6.1,6.1,0,0,0,1.11-3.87,5.36,5.36,0,0,0-1.1-3.56,3.8,3.8,0,0,0-3-1.29,3.7,3.7,0,0,0-3,1.38A5.83,5.83,0,0,0,64,70.93Zm2.79-8.26,3-4.85H72l-3.92,4.85Z"/><path d="M76.6,76.94l6.85-10.75H77.07V64.65H86.4L79.6,75.4h7v1.54Z"/><path d="M98.43,76.94V74.69a4.48,4.48,0,0,1-4.31,2.79,5.44,5.44,0,0,1-4.26-1.82,6.91,6.91,0,0,1-1.61-4.79,7.14,7.14,0,0,1,1.59-4.81,5.53,5.53,0,0,1,6.82-1.18,4.59,4.59,0,0,1,1.77,2V64.65h1.7V76.94Zm-8.29-6a5.58,5.58,0,0,0,1.08,3.67,3.76,3.76,0,0,0,3.07,1.28,3.67,3.67,0,0,0,3-1.4,6.1,6.1,0,0,0,1.12-3.87,5.31,5.31,0,0,0-1.11-3.56,3.8,3.8,0,0,0-3-1.29,3.7,3.7,0,0,0-3,1.38A5.83,5.83,0,0,0,90.14,70.93Z"/><path d="M105.06,66.11H102.8V64.65h2.26v-5h1.68v5h2.46v1.46h-2.46V76.94h-1.68Z"/><path d="M122.29,70.84h-9.76a5.92,5.92,0,0,0,1.19,3.74,3.69,3.69,0,0,0,3,1.36,4,4,0,0,0,2.38-.73,5.42,5.42,0,0,0,1.7-2.22l1.57.86a6.89,6.89,0,0,1-2.31,2.75,6.09,6.09,0,0,1-3.34.88,5.67,5.67,0,0,1-4.37-1.81,6.69,6.69,0,0,1-1.67-4.74,7.07,7.07,0,0,1,1.65-4.88,5.52,5.52,0,0,1,4.33-1.86,5.24,5.24,0,0,1,4.09,1.71,6.63,6.63,0,0,1,1.53,4.57Zm-2-1.45a3.52,3.52,0,0,0-3.82-3.55,3.71,3.71,0,0,0-2.6,1,3.93,3.93,0,0,0-1.21,2.58Z"/><path d="M145.91,76.94V55.47h1.62V66.55a5.06,5.06,0,0,1,1.83-1.77,5.22,5.22,0,0,1,2.5-.59,4,4,0,0,1,4.42,4.41v8.34h-1.73V69.36a4.15,4.15,0,0,0-.77-2.74,3,3,0,0,0-2.37-.89,3.45,3.45,0,0,0-2.88,1.16,5.83,5.83,0,0,0-.92,3.63v6.42Z"/><path d="M169.76,76.94V74.69a4.48,4.48,0,0,1-4.31,2.79,5.44,5.44,0,0,1-4.26-1.82,7,7,0,0,1-1.61-4.79,7.14,7.14,0,0,1,1.59-4.81A5.53,5.53,0,0,1,168,64.88a4.59,4.59,0,0,1,1.77,2V64.65h1.7V76.94Zm-8.29-6a5.58,5.58,0,0,0,1.08,3.67,3.76,3.76,0,0,0,3.07,1.28,3.67,3.67,0,0,0,3-1.4,6.1,6.1,0,0,0,1.12-3.87,5.31,5.31,0,0,0-1.11-3.56,3.8,3.8,0,0,0-3-1.29,3.7,3.7,0,0,0-3,1.38A5.83,5.83,0,0,0,161.47,70.93Z"/><path d="M185.59,66.89a6.74,6.74,0,0,0-1.83-.89,6.66,6.66,0,0,0-2-.3,4.73,4.73,0,0,0-3.65,1.47,5.5,5.5,0,0,0-1.35,3.89,4.79,4.79,0,0,0,5,5,6.24,6.24,0,0,0,2-.34,7.81,7.81,0,0,0,2-1v1.87a7.42,7.42,0,0,1-2,.77,10.3,10.3,0,0,1-2.34.25,6.12,6.12,0,0,1-4.61-1.85A6.5,6.5,0,0,1,175,71a6.43,6.43,0,0,1,6.75-6.76,9.92,9.92,0,0,1,2.09.22,6.74,6.74,0,0,1,1.74.62Z"/><path d="M188.65,59.86a1.23,1.23,0,0,1,.39-.92,1.33,1.33,0,0,1,1.86,0,1.21,1.21,0,0,1,.4.92,1.27,1.27,0,0,1-.38.93,1.39,1.39,0,0,1-1.89,0A1.27,1.27,0,0,1,188.65,59.86Zm.43,17.08V64.65h1.76V76.94Z"/><path d="M204.57,76.94V74.69a4.48,4.48,0,0,1-4.31,2.79A5.43,5.43,0,0,1,196,75.66a6.91,6.91,0,0,1-1.61-4.79A7.14,7.14,0,0,1,196,66.06a5.53,5.53,0,0,1,6.82-1.18,4.59,4.59,0,0,1,1.77,2V64.65h1.7V76.94Zm-8.29-6a5.58,5.58,0,0,0,1.08,3.67,3.75,3.75,0,0,0,3.06,1.28,3.67,3.67,0,0,0,3.06-1.4,6.1,6.1,0,0,0,1.11-3.87,5.36,5.36,0,0,0-1.1-3.56,3.8,3.8,0,0,0-3-1.29,3.7,3.7,0,0,0-3,1.38A5.83,5.83,0,0,0,196.28,70.93Z"/><path d="M232.78,76.94H231V55.47h1.76Z"/><path d="M246.5,76.94V74.69a4.53,4.53,0,0,1-1.71,2.07,4.62,4.62,0,0,1-2.59.72,5.41,5.41,0,0,1-4.26-1.82,6.91,6.91,0,0,1-1.62-4.79,7.14,7.14,0,0,1,1.6-4.81,5.53,5.53,0,0,1,6.82-1.18,4.5,4.5,0,0,1,1.76,2V64.65h1.71V76.94Zm-8.28-6a5.58,5.58,0,0,0,1.08,3.67,3.74,3.74,0,0,0,3.06,1.28,3.68,3.68,0,0,0,3.06-1.4,6.1,6.1,0,0,0,1.11-3.87,5.31,5.31,0,0,0-1.11-3.56,3.77,3.77,0,0,0-3-1.29,3.73,3.73,0,0,0-3,1.38A5.88,5.88,0,0,0,238.22,70.93Z"/><path d="M282,76.94V74.69a4.44,4.44,0,0,1-4.28,2.79,5.41,5.41,0,0,1-4.26-1.82,6.91,6.91,0,0,1-1.62-4.79,7.09,7.09,0,0,1,1.6-4.81,5.13,5.13,0,0,1,4.11-1.87,5.05,5.05,0,0,1,2.69.69,4.57,4.57,0,0,1,1.76,2V55.47h1.73V76.94Zm-8.26-6a5.63,5.63,0,0,0,1.07,3.67,3.77,3.77,0,0,0,3.07,1.28,3.65,3.65,0,0,0,3-1.4,6.16,6.16,0,0,0,1.1-3.87,5.35,5.35,0,0,0-1.09-3.56,4.12,4.12,0,0,0-6.07.09A5.88,5.88,0,0,0,273.69,70.93Z"/><path d="M287.87,59.86a1.23,1.23,0,0,1,.39-.92,1.26,1.26,0,0,1,.93-.38,1.3,1.3,0,0,1,.94.38,1.23,1.23,0,0,1,.39.92,1.27,1.27,0,0,1-.38.93,1.29,1.29,0,0,1-.95.37,1.26,1.26,0,0,1-.93-.37A1.24,1.24,0,0,1,287.87,59.86Zm.43,17.08V64.65h1.76V76.94Z"/><path d="M296.42,67.12a7.51,7.51,0,0,1,1.85-2.26,3.51,3.51,0,0,1,2.11-.67,4.51,4.51,0,0,1,.73.07,5,5,0,0,1,.73.2l-.56,1.6a4.76,4.76,0,0,0-.57-.13,2.93,2.93,0,0,0-.58-.06,3.2,3.2,0,0,0-2.62,1.44,5.76,5.76,0,0,0-1.09,3.59v6h-1.7V64.65h1.7Z"/><path d="M314.21,70.84h-9.77a6,6,0,0,0,1.19,3.74,3.69,3.69,0,0,0,3,1.36,4,4,0,0,0,2.38-.73,5.42,5.42,0,0,0,1.7-2.22l1.57.86A6.89,6.89,0,0,1,312,76.6a6.09,6.09,0,0,1-3.34.88,5.69,5.69,0,0,1-4.37-1.81,6.74,6.74,0,0,1-1.67-4.74,7.07,7.07,0,0,1,1.65-4.88,5.53,5.53,0,0,1,4.33-1.86,5.24,5.24,0,0,1,4.09,1.71,6.63,6.63,0,0,1,1.54,4.57Zm-2-1.45a3.52,3.52,0,0,0-3.82-3.55,3.72,3.72,0,0,0-2.6,1,4,4,0,0,0-1.21,2.58Z"/><path d="M327.31,66.89a6.7,6.7,0,0,0-3.82-1.19,4.73,4.73,0,0,0-3.65,1.47,5.5,5.5,0,0,0-1.35,3.89,4.79,4.79,0,0,0,1.4,3.56,4.87,4.87,0,0,0,3.6,1.4,6.24,6.24,0,0,0,2-.34,7.81,7.81,0,0,0,2-1v1.87a7.42,7.42,0,0,1-2,.77,10.3,10.3,0,0,1-2.34.25,6.12,6.12,0,0,1-4.61-1.85A6.5,6.5,0,0,1,316.75,71a6.45,6.45,0,0,1,6.76-6.76,9.92,9.92,0,0,1,2.09.22,6.74,6.74,0,0,1,1.74.62Z"/><path d="M340.25,66.89a7,7,0,0,0-1.83-.89,6.73,6.73,0,0,0-2-.3,4.72,4.72,0,0,0-3.64,1.47,5.5,5.5,0,0,0-1.36,3.89,4.81,4.81,0,0,0,5,5,6.25,6.25,0,0,0,2-.34,7.81,7.81,0,0,0,2-1v1.87a7.42,7.42,0,0,1-2,.77,10.3,10.3,0,0,1-2.34.25,6.14,6.14,0,0,1-4.62-1.85,6.5,6.5,0,0,1-1.8-4.73,6.45,6.45,0,0,1,6.76-6.76,9.92,9.92,0,0,1,2.09.22,6.53,6.53,0,0,1,1.73.62Z"/><path d="M343.31,59.86a1.31,1.31,0,0,1,1.31-1.3,1.28,1.28,0,0,1,.94.38,1.3,1.3,0,0,1,0,1.85,1.29,1.29,0,0,1-.95.37,1.26,1.26,0,0,1-.93-.37A1.23,1.23,0,0,1,343.31,59.86Zm.43,17.08V64.65h1.76V76.94Z"/><path d="M355.73,77.48a6.46,6.46,0,0,1-2.52-.52A7.22,7.22,0,0,1,351,75.47a6.11,6.11,0,0,1-1.41-2.11,6.73,6.73,0,0,1-.48-2.55,6.52,6.52,0,0,1,1.92-4.68,6.77,6.77,0,0,1,2.15-1.44,6.6,6.6,0,0,1,2.53-.5,6.86,6.86,0,0,1,2.59.5,7,7,0,0,1,2.18,1.44A6.77,6.77,0,0,1,362,68.28a6.42,6.42,0,0,1,.5,2.53,6.55,6.55,0,0,1-.49,2.53,6.68,6.68,0,0,1-1.44,2.13A7,7,0,0,1,358.32,77,6.77,6.77,0,0,1,355.73,77.48Zm.06-1.6a4.56,4.56,0,0,0,3.43-1.46,5.3,5.3,0,0,0,0-7.18,4.77,4.77,0,0,0-6.85,0,5.3,5.3,0,0,0,0,7.18A4.52,4.52,0,0,0,355.79,75.88ZM354,62.67l2.95-4.85h2.27l-3.92,4.85Z"/><path d="M366,76.94V64.65h1.62v1.9a5,5,0,0,1,1.84-1.77,5.19,5.19,0,0,1,2.5-.59,4.05,4.05,0,0,1,4.42,4.41v8.34h-1.73V69.36a4.15,4.15,0,0,0-.77-2.74,3,3,0,0,0-2.38-.89,3.45,3.45,0,0,0-2.87,1.16,5.77,5.77,0,0,0-.92,3.63v6.42Z"/><path d="M411.38,70.84h-9.76a5.92,5.92,0,0,0,1.19,3.74,3.69,3.69,0,0,0,3,1.36,4,4,0,0,0,2.38-.73A5.42,5.42,0,0,0,409.9,73l1.57.86a6.89,6.89,0,0,1-2.31,2.75,6.09,6.09,0,0,1-3.34.88,5.67,5.67,0,0,1-4.37-1.81,6.69,6.69,0,0,1-1.67-4.74,7.07,7.07,0,0,1,1.65-4.88,5.52,5.52,0,0,1,4.33-1.86,5.24,5.24,0,0,1,4.09,1.71,6.63,6.63,0,0,1,1.53,4.57Zm-2-1.45a3.52,3.52,0,0,0-3.82-3.55,3.71,3.71,0,0,0-2.6,1,3.93,3.93,0,0,0-1.21,2.58Z"/><path d="M414.93,76.94V64.65h1.62v1.9a5,5,0,0,1,1.84-1.77,5.16,5.16,0,0,1,2.5-.59,4,4,0,0,1,4.41,4.41v8.34h-1.73V69.36a4.09,4.09,0,0,0-.77-2.74,3,3,0,0,0-2.37-.89,3.48,3.48,0,0,0-2.88,1.16,5.83,5.83,0,0,0-.92,3.63v6.42Z"/><path d="M460.58,83.11h-1.65V74.67a5.22,5.22,0,0,1-1.86,2.09,4.84,4.84,0,0,1-2.64.72,5.19,5.19,0,0,1-4.13-1.81,7.18,7.18,0,0,1-1.55-4.83A7.1,7.1,0,0,1,450.33,66a5.25,5.25,0,0,1,4.18-1.83,4.78,4.78,0,0,1,2.58.72,5.14,5.14,0,0,1,1.84,2v-2.3h1.65Zm-5.87-17.35a3.67,3.67,0,0,0-3,1.36,7,7,0,0,0-.05,7.44,3.49,3.49,0,0,0,2.9,1.32,3.92,3.92,0,0,0,3.15-1.39,5.66,5.66,0,0,0,1.19-3.77,5.46,5.46,0,0,0-1.11-3.64A3.78,3.78,0,0,0,454.71,65.76Z"/><path d="M466.83,64.65v6.14a7.22,7.22,0,0,0,.79,3.94,3.73,3.73,0,0,0,5.4,0,7.12,7.12,0,0,0,.82-3.93V64.65h1.69v7A6.31,6.31,0,0,1,474.21,76a4.9,4.9,0,0,1-3.87,1.48A5,5,0,0,1,466.45,76a6.31,6.31,0,0,1-1.33-4.34v-7Z"/><path d="M490.62,70.84h-9.76a5.92,5.92,0,0,0,1.19,3.74,3.69,3.69,0,0,0,3,1.36,4,4,0,0,0,2.38-.73,5.42,5.42,0,0,0,1.7-2.22l1.57.86a6.89,6.89,0,0,1-2.31,2.75,6.09,6.09,0,0,1-3.34.88,5.71,5.71,0,0,1-4.38-1.81A6.73,6.73,0,0,1,479,70.93a7.07,7.07,0,0,1,1.65-4.88A5.52,5.52,0,0,1,485,64.19a5.24,5.24,0,0,1,4.09,1.71,6.63,6.63,0,0,1,1.53,4.57Zm-2-1.45a3.52,3.52,0,0,0-3.82-3.55,3.71,3.71,0,0,0-2.6,1A3.93,3.93,0,0,0,481,69.39Z"/><path d="M10.15,104.67v-2.24a4.65,4.65,0,0,1-1.7,2.08,4.66,4.66,0,0,1-2.58.7,5.43,5.43,0,0,1-4.26-1.81A7,7,0,0,1,0,98.6a7.15,7.15,0,0,1,1.59-4.81,5.18,5.18,0,0,1,4.12-1.86,5.14,5.14,0,0,1,2.69.68,4.52,4.52,0,0,1,1.75,2V83.2h1.73v21.47Zm-8.25-6A5.61,5.61,0,0,0,3,102.33,3.78,3.78,0,0,0,6,103.62a3.65,3.65,0,0,0,3-1.41,6.06,6.06,0,0,0,1.11-3.87,5.32,5.32,0,0,0-1.09-3.55,3.76,3.76,0,0,0-3-1.3A3.72,3.72,0,0,0,3,94.87,5.82,5.82,0,0,0,1.9,98.66Z"/><path d="M27,98.58H17.19a6,6,0,0,0,1.19,3.74,3.71,3.71,0,0,0,3,1.35,4,4,0,0,0,2.38-.73,5.42,5.42,0,0,0,1.7-2.22l1.57.86a6.75,6.75,0,0,1-2.31,2.75,6,6,0,0,1-3.34.88A5.65,5.65,0,0,1,17,103.4a6.66,6.66,0,0,1-1.67-4.74A7.09,7.09,0,0,1,17,93.78a5.56,5.56,0,0,1,4.33-1.85,5.24,5.24,0,0,1,4.09,1.71A6.58,6.58,0,0,1,27,98.2Zm-2-1.46a3.5,3.5,0,0,0-3.82-3.54,3.68,3.68,0,0,0-2.6,1,3.93,3.93,0,0,0-1.21,2.57Z"/><path d="M29.1,102.48l1.62-.93a3.24,3.24,0,0,0,1.17,1.55,3.19,3.19,0,0,0,1.87.52,2.49,2.49,0,0,0,1.71-.55,1.81,1.81,0,0,0,.64-1.46c0-.94-.84-1.74-2.51-2.4l-.41-.16a7.79,7.79,0,0,1-2.72-1.57,2.82,2.82,0,0,1-.77-2,3.32,3.32,0,0,1,1.11-2.57,4.12,4.12,0,0,1,2.86-1,4.78,4.78,0,0,1,2.55.65,3.78,3.78,0,0,1,1.54,1.86l-1.57.87a2.46,2.46,0,0,0-1-1.33,2.92,2.92,0,0,0-1.66-.46A2.12,2.12,0,0,0,32.1,94a1.69,1.69,0,0,0-.57,1.3,1.59,1.59,0,0,0,.56,1.26,7.58,7.58,0,0,0,2.36,1.09,6.38,6.38,0,0,1,2.72,1.54,3.44,3.44,0,0,1,.7,2.3,3.32,3.32,0,0,1-1.21,2.7,4.89,4.89,0,0,1-3.24,1,5,5,0,0,1-2.69-.71A4,4,0,0,1,29.1,102.48Z"/><path d="M51.89,98.58H42.12a6.07,6.07,0,0,0,1.19,3.74,3.71,3.71,0,0,0,3,1.35,4,4,0,0,0,2.38-.73,5.42,5.42,0,0,0,1.7-2.22l1.57.86a6.75,6.75,0,0,1-2.31,2.75,6,6,0,0,1-3.34.88A5.65,5.65,0,0,1,42,103.4a6.71,6.71,0,0,1-1.67-4.74,7.09,7.09,0,0,1,1.65-4.88,5.56,5.56,0,0,1,4.33-1.85,5.24,5.24,0,0,1,4.09,1.71,6.59,6.59,0,0,1,1.54,4.56Zm-2-1.46A3.5,3.5,0,0,0,46,93.58a3.68,3.68,0,0,0-2.6,1,3.93,3.93,0,0,0-1.21,2.57Z"/><path d="M64.51,104.67v-2.24a4.48,4.48,0,0,1-4.31,2.78,5.4,5.4,0,0,1-4.26-1.81,6.94,6.94,0,0,1-1.62-4.8,7.16,7.16,0,0,1,1.6-4.81A5.16,5.16,0,0,1,60,91.93a5.22,5.22,0,0,1,2.71.68,4.56,4.56,0,0,1,1.77,2V92.39h1.7v12.28Zm-8.29-6a5.56,5.56,0,0,0,1.08,3.67,3.74,3.74,0,0,0,3.06,1.29,3.69,3.69,0,0,0,3.06-1.41,6.06,6.06,0,0,0,1.11-3.87,5.33,5.33,0,0,0-1.1-3.55,3.8,3.8,0,0,0-3-1.3,3.73,3.73,0,0,0-3,1.38A5.88,5.88,0,0,0,56.22,98.66Z"/><path d="M69.38,102.48l1.62-.93a3.24,3.24,0,0,0,1.17,1.55,3.19,3.19,0,0,0,1.87.52,2.49,2.49,0,0,0,1.71-.55,1.81,1.81,0,0,0,.64-1.46c0-.94-.84-1.74-2.51-2.4l-.41-.16a7.79,7.79,0,0,1-2.72-1.57,2.82,2.82,0,0,1-.77-2,3.32,3.32,0,0,1,1.11-2.57,4.12,4.12,0,0,1,2.86-1,4.78,4.78,0,0,1,2.55.65A3.78,3.78,0,0,1,78,94.41l-1.57.87a2.46,2.46,0,0,0-1-1.33,2.92,2.92,0,0,0-1.66-.46,2.12,2.12,0,0,0-1.46.52,1.69,1.69,0,0,0-.57,1.3,1.59,1.59,0,0,0,.56,1.26,7.58,7.58,0,0,0,2.36,1.09,6.38,6.38,0,0,1,2.72,1.54,3.44,3.44,0,0,1,.7,2.3,3.32,3.32,0,0,1-1.21,2.7,4.89,4.89,0,0,1-3.24,1A5,5,0,0,1,71,104.5,4,4,0,0,1,69.38,102.48Z"/><path d="M91.49,104.67H89.78V92.39h1.71v1.92a4.19,4.19,0,0,1,3.9-2.38,4.16,4.16,0,0,1,2.3.61,4,4,0,0,1,1.46,1.81,4.68,4.68,0,0,1,4.28-2.42,4,4,0,0,1,3.07,1.18,4.52,4.52,0,0,1,1.12,3.25v8.31h-1.7V97a4.28,4.28,0,0,0-.74-2.72,2.7,2.7,0,0,0-2.21-.91,3,3,0,0,0-2.58,1.15,6.33,6.33,0,0,0-.83,3.64v6.47H97.87V97a4.37,4.37,0,0,0-.7-2.76A2.65,2.65,0,0,0,95,93.41a3.08,3.08,0,0,0-2.65,1.16,6.27,6.27,0,0,0-.84,3.63Z"/><path d="M117.75,105.21a6.22,6.22,0,0,1-2.52-.52A7,7,0,0,1,113,103.2a6.17,6.17,0,0,1-1.41-2.1,6.82,6.82,0,0,1,0-5.1,6.66,6.66,0,0,1,3.58-3.57,6.38,6.38,0,0,1,2.53-.5,6.77,6.77,0,0,1,4.77,1.94A6.73,6.73,0,0,1,124,96a6.65,6.65,0,0,1,.5,2.54,6.45,6.45,0,0,1-1.94,4.65,6.59,6.59,0,0,1-2.21,1.49A6.5,6.5,0,0,1,117.75,105.21Zm.06-1.59a4.57,4.57,0,0,0,3.42-1.46,5.29,5.29,0,0,0,0-7.18,4.76,4.76,0,0,0-6.86,0,5.33,5.33,0,0,0,0,7.18A4.6,4.6,0,0,0,117.81,103.62Z"/><path d="M126.16,92.39H128l3.77,9.3,3.75-9.3h1.9l-5.65,13.07Z"/><path d="M150.66,98.58H140.9a5.94,5.94,0,0,0,1.19,3.74,3.69,3.69,0,0,0,3,1.35,4,4,0,0,0,2.39-.73,5.42,5.42,0,0,0,1.7-2.22l1.56.86a6.66,6.66,0,0,1-2.3,2.75,6,6,0,0,1-3.35.88,5.67,5.67,0,0,1-4.37-1.81,6.71,6.71,0,0,1-1.67-4.74,7.09,7.09,0,0,1,1.66-4.88A5.55,5.55,0,0,1,145,91.93a5.21,5.21,0,0,1,4.08,1.71,6.54,6.54,0,0,1,1.54,4.56Zm-2-1.46a3.5,3.5,0,0,0-3.82-3.54,3.66,3.66,0,0,0-2.6,1A3.88,3.88,0,0,0,141,97.12Z"/><path d="M155.91,94.85a7.62,7.62,0,0,1,1.85-2.26,3.49,3.49,0,0,1,2.11-.66,3.68,3.68,0,0,1,.73.07,4.91,4.91,0,0,1,.73.19l-.56,1.61a4.75,4.75,0,0,0-.57-.14,2.93,2.93,0,0,0-.58-.06A3.2,3.2,0,0,0,157,95a5.78,5.78,0,0,0-1.09,3.59v6h-1.7V92.39h1.7Z"/><path d="M163.5,93.84h-2.26V92.39h2.26v-5h1.68v5h2.46v1.45h-2.46v10.83H163.5Z"/><path d="M180.73,98.58H171a5.94,5.94,0,0,0,1.19,3.74,3.71,3.71,0,0,0,3,1.35,4,4,0,0,0,2.39-.73,5.42,5.42,0,0,0,1.7-2.22l1.57.86a6.75,6.75,0,0,1-2.31,2.75,6,6,0,0,1-3.35.88,5.67,5.67,0,0,1-4.37-1.81,6.71,6.71,0,0,1-1.67-4.74,7.09,7.09,0,0,1,1.66-4.88,5.55,5.55,0,0,1,4.33-1.85,5.21,5.21,0,0,1,4.08,1.71,6.54,6.54,0,0,1,1.54,4.56Zm-2-1.46a3.5,3.5,0,0,0-3.82-3.54,3.66,3.66,0,0,0-2.6,1,3.88,3.88,0,0,0-1.21,2.57Z"/><path d="M184.68,103.51a1.4,1.4,0,0,1,.41-1,1.36,1.36,0,0,1,1-.4,1.38,1.38,0,0,1,1.42,1.41,1.37,1.37,0,0,1-.41,1,1.4,1.4,0,0,1-1,.41,1.4,1.4,0,0,1-1.41-1.41Z"/></g></g></svg>