<svg xmlns="http://www.w3.org/2000/svg" viewBox="0 0 482.97 126.15"><title>Recurso 35</title><g id="Capa_2" data-name="Capa 2"><g id="Capa_1-2" data-name="Capa 1"><path d="M0,18.35l1.6-.86a4.45,4.45,0,0,0,1.56,2.36,4.29,4.29,0,0,0,2.65.83,4,4,0,0,0,3.05-1.15,4.46,4.46,0,0,0,1.1-3.2,4,4,0,0,0-.74-2.47,9.91,9.91,0,0,0-3.17-2.28,14.3,14.3,0,0,1-4.14-2.9,4.61,4.61,0,0,1-1-3A4.65,4.65,0,0,1,2.37,2.1,5.42,5.42,0,0,1,6.22.72a5.38,5.38,0,0,1,2.69.65,4.92,4.92,0,0,1,1.87,2l-1.45.88A3.15,3.15,0,0,0,8.05,2.86a3.84,3.84,0,0,0-1.94-.47,3.26,3.26,0,0,0-2.42.9,3.2,3.2,0,0,0-.9,2.41q0,2.16,3.57,4l1,.52A10.33,10.33,0,0,1,10.86,13a5.8,5.8,0,0,1,.89,3.34,6,6,0,0,1-1.62,4.4,6,6,0,0,1-4.4,1.63,5.92,5.92,0,0,1-3.47-1A6.54,6.54,0,0,1,0,18.35Z"/><path d="M21.92,22.36a6.41,6.41,0,0,1-2.56-.53,7.33,7.33,0,0,1-2.23-1.51,6.54,6.54,0,0,1-1.43-2.14,6.78,6.78,0,0,1-.49-2.59,6.86,6.86,0,0,1,.5-2.59,6.77,6.77,0,0,1,1.45-2.17,6.9,6.9,0,0,1,2.18-1.46,6.67,6.67,0,0,1,2.58-.51,6.83,6.83,0,0,1,2.62.51,7,7,0,0,1,2.22,1.46A6.64,6.64,0,0,1,28.24,13a6.5,6.5,0,0,1,.52,2.58,6.58,6.58,0,0,1-.51,2.57,6.71,6.71,0,0,1-1.46,2.16,7.07,7.07,0,0,1-2.25,1.51A6.74,6.74,0,0,1,21.92,22.36ZM22,20.74a4.67,4.67,0,0,0,3.48-1.49,5,5,0,0,0,1.43-3.63A5.05,5.05,0,0,0,25.46,12a4.83,4.83,0,0,0-7,0,5,5,0,0,0-1.42,3.66,5,5,0,0,0,1.42,3.63A4.64,4.64,0,0,0,22,20.74Z"/><path d="M34.81,21.81H33V0h1.79Z"/><path d="M41.84,9.33v6.23a7.33,7.33,0,0,0,.81,4,3.09,3.09,0,0,0,2.74,1.17,3.13,3.13,0,0,0,2.74-1.18,7.25,7.25,0,0,0,.83-4V9.33h1.72v7.12a6.44,6.44,0,0,1-1.34,4.41,5,5,0,0,1-3.93,1.5,5,5,0,0,1-3.95-1.5,6.39,6.39,0,0,1-1.35-4.41V9.33Z"/><path d="M65.58,11.61a6.55,6.55,0,0,0-1.86-.91,6.93,6.93,0,0,0-2-.3A4.81,4.81,0,0,0,58,11.88a5.59,5.59,0,0,0-1.38,4,4.88,4.88,0,0,0,5.08,5,6.45,6.45,0,0,0,2.05-.35,8.06,8.06,0,0,0,2-1.06v1.9a7.32,7.32,0,0,1-2,.78,10.1,10.1,0,0,1-2.38.26,6.23,6.23,0,0,1-4.69-1.88,6.59,6.59,0,0,1-1.83-4.8,6.55,6.55,0,0,1,6.87-6.87,10.21,10.21,0,0,1,2.12.22,7.14,7.14,0,0,1,1.76.63Z"/><path d="M69.26,4.46a1.25,1.25,0,0,1,.4-.94,1.31,1.31,0,0,1,.94-.38,1.36,1.36,0,0,1,1,.38,1.25,1.25,0,0,1,.4.94,1.24,1.24,0,0,1-.39.94,1.3,1.3,0,0,1-1,.38,1.27,1.27,0,0,1-.95-.38A1.24,1.24,0,0,1,69.26,4.46Zm.44,17.35V9.33h1.79V21.81Z"/><path d="M82.46,22.36a6.41,6.41,0,0,1-2.56-.53,7.33,7.33,0,0,1-2.23-1.51,6.54,6.54,0,0,1-1.43-2.14,6.78,6.78,0,0,1-.49-2.59,6.86,6.86,0,0,1,.5-2.59,6.77,6.77,0,0,1,1.45-2.17,6.9,6.9,0,0,1,2.18-1.46,6.67,6.67,0,0,1,2.58-.51,6.83,6.83,0,0,1,2.62.51,7,7,0,0,1,2.22,1.46A6.64,6.64,0,0,1,88.78,13a6.5,6.5,0,0,1,.52,2.58,6.58,6.58,0,0,1-.51,2.57,6.71,6.71,0,0,1-1.46,2.16,7.07,7.07,0,0,1-2.25,1.51A6.74,6.74,0,0,1,82.46,22.36Zm.06-1.62A4.67,4.67,0,0,0,86,19.25a5,5,0,0,0,1.43-3.63A5.05,5.05,0,0,0,86,12a4.83,4.83,0,0,0-7,0,5,5,0,0,0-1.42,3.66A5,5,0,0,0,79,19.25,4.64,4.64,0,0,0,82.52,20.74Z"/><path d="M93.45,21.81V9.33h1.64v1.93A5.09,5.09,0,0,1,97,9.46a5.21,5.21,0,0,1,2.54-.6,4.45,4.45,0,0,1,3.3,1.19A4.42,4.42,0,0,1,104,13.34v8.47h-1.76v-7.7a4.19,4.19,0,0,0-.78-2.78,3.05,3.05,0,0,0-2.42-.9,3.53,3.53,0,0,0-2.92,1.17,5.92,5.92,0,0,0-.93,3.69v6.52Z"/><path d="M118.25,21.81V19.53a4.56,4.56,0,0,1-4.37,2.83,5.5,5.5,0,0,1-4.33-1.85,7,7,0,0,1-1.64-4.86,7.25,7.25,0,0,1,1.62-4.89,5.62,5.62,0,0,1,6.93-1.2,4.56,4.56,0,0,1,1.79,2V9.33H120V21.81Zm-8.41-6.11a5.64,5.64,0,0,0,1.09,3.73A3.83,3.83,0,0,0,114,20.74a3.76,3.76,0,0,0,3.11-1.43,6.19,6.19,0,0,0,1.13-3.93,5.38,5.38,0,0,0-1.13-3.61,3.82,3.82,0,0,0-3.08-1.32,3.78,3.78,0,0,0-3.09,1.4A6,6,0,0,0,109.84,15.7Z"/><path d="M127.1,21.81h-1.79V0h1.79Z"/><path d="M138.07,22.36a6.45,6.45,0,0,1-2.56-.53,7.41,7.41,0,0,1-2.22-1.51,6.24,6.24,0,0,1-1.43-2.14,6.79,6.79,0,0,1-.5-2.59,6.68,6.68,0,0,1,.51-2.59,6.61,6.61,0,0,1,1.45-2.17,6.79,6.79,0,0,1,2.18-1.46,6.62,6.62,0,0,1,2.57-.51,6.88,6.88,0,0,1,2.63.51,6.81,6.81,0,0,1,2.21,1.46,6.56,6.56,0,0,1,2,4.76,6.76,6.76,0,0,1-.5,2.57,6.58,6.58,0,0,1-1.47,2.16,6.92,6.92,0,0,1-2.24,1.51A6.79,6.79,0,0,1,138.07,22.36Zm.06-1.62a4.64,4.64,0,0,0,3.48-1.49A5,5,0,0,0,143,15.62,5,5,0,0,0,141.62,12a4.83,4.83,0,0,0-7,0,5.05,5.05,0,0,0-1.43,3.66,5,5,0,0,0,1.43,3.63A4.61,4.61,0,0,0,138.13,20.74Z"/><path d="M147.64,19.58l1.65-.94a3.2,3.2,0,0,0,1.18,1.57,3.32,3.32,0,0,0,1.9.53,2.58,2.58,0,0,0,1.74-.56,1.85,1.85,0,0,0,.65-1.48c0-1-.85-1.77-2.55-2.44l-.42-.16A8,8,0,0,1,149,14.5a2.85,2.85,0,0,1-.78-2,3.36,3.36,0,0,1,1.12-2.61,4.17,4.17,0,0,1,2.91-1,4.82,4.82,0,0,1,2.59.66,3.76,3.76,0,0,1,1.56,1.88l-1.59.89a2.49,2.49,0,0,0-1-1.35,3,3,0,0,0-1.69-.47,2.13,2.13,0,0,0-1.48.53,1.7,1.7,0,0,0-.59,1.32,1.66,1.66,0,0,0,.58,1.28,7.52,7.52,0,0,0,2.39,1.11,6.55,6.55,0,0,1,2.77,1.56,3.54,3.54,0,0,1,.71,2.34,3.39,3.39,0,0,1-1.23,2.74,5.65,5.65,0,0,1-6,.3A4.06,4.06,0,0,1,147.64,19.58Z"/><path d="M183.09,21.81V19.53a4.62,4.62,0,0,1-1.73,2.11,4.69,4.69,0,0,1-2.61.72,5.52,5.52,0,0,1-4.33-1.85,7,7,0,0,1-1.64-4.86,7.25,7.25,0,0,1,1.62-4.89,5.61,5.61,0,0,1,6.92-1.2,4.59,4.59,0,0,1,1.77,2V0h1.76V21.81Zm-8.38-6.11a5.64,5.64,0,0,0,1.09,3.73,3.85,3.85,0,0,0,3.12,1.31A3.72,3.72,0,0,0,182,19.31a6.19,6.19,0,0,0,1.12-3.93A5.43,5.43,0,0,0,182,11.77a4.17,4.17,0,0,0-6.16.08A6,6,0,0,0,174.71,15.7Z"/><path d="M200.74,15.62h-9.92a6.11,6.11,0,0,0,1.21,3.8,3.75,3.75,0,0,0,3.05,1.37,4,4,0,0,0,2.42-.74,5.49,5.49,0,0,0,1.73-2.25l1.59.87a6.87,6.87,0,0,1-2.34,2.79,6.11,6.11,0,0,1-3.4.9,5.78,5.78,0,0,1-4.44-1.84A6.81,6.81,0,0,1,189,15.7a7.17,7.17,0,0,1,1.68-4.95A5.6,5.6,0,0,1,195,8.86a5.33,5.33,0,0,1,4.15,1.74,6.7,6.7,0,0,1,1.56,4.64Zm-2.06-1.48a3.84,3.84,0,0,0-1.14-2.66,3.85,3.85,0,0,0-2.74-.94,3.77,3.77,0,0,0-2.64,1,4,4,0,0,0-1.23,2.62Z"/><path d="M227.34,21.81V19.53A4.56,4.56,0,0,1,223,22.36a5.5,5.5,0,0,1-4.32-1.85A7,7,0,0,1,217,15.65a7.25,7.25,0,0,1,1.62-4.89,5.62,5.62,0,0,1,6.93-1.2,4.56,4.56,0,0,1,1.79,2V9.33h1.73V21.81Zm-8.41-6.11A5.64,5.64,0,0,0,220,19.43a3.81,3.81,0,0,0,3.11,1.31,3.76,3.76,0,0,0,3.11-1.43,6.19,6.19,0,0,0,1.13-3.93,5.38,5.38,0,0,0-1.13-3.61,3.82,3.82,0,0,0-3.08-1.32,3.78,3.78,0,0,0-3.09,1.4A6,6,0,0,0,218.93,15.7Z"/><path d="M244,11.61a6.43,6.43,0,0,0-1.86-.91,6.86,6.86,0,0,0-2-.3,4.78,4.78,0,0,0-3.7,1.48,5.59,5.59,0,0,0-1.38,4,4.89,4.89,0,0,0,1.42,3.62,5,5,0,0,0,3.66,1.42,6.43,6.43,0,0,0,2-.35,8.29,8.29,0,0,0,2-1.06v1.9a7.38,7.38,0,0,1-2,.78,10,10,0,0,1-2.38.26,6.22,6.22,0,0,1-4.68-1.88,6.59,6.59,0,0,1-1.83-4.8,6.53,6.53,0,0,1,6.86-6.87,10.21,10.21,0,0,1,2.12.22,7.37,7.37,0,0,1,1.77.63Z"/><path d="M249.74,9.33v6.23a7.33,7.33,0,0,0,.81,4,3.08,3.08,0,0,0,2.73,1.17A3.15,3.15,0,0,0,256,19.56a7.25,7.25,0,0,0,.83-4V9.33h1.71v7.12a6.44,6.44,0,0,1-1.33,4.41,5,5,0,0,1-3.93,1.5,5,5,0,0,1-3.95-1.5A6.39,6.39,0,0,1,248,16.45V9.33Z"/><path d="M274.49,15.62h-9.92a6.05,6.05,0,0,0,1.21,3.8,3.74,3.74,0,0,0,3.05,1.37,4,4,0,0,0,2.42-.74A5.58,5.58,0,0,0,273,17.8l1.59.87a6.87,6.87,0,0,1-2.34,2.79,6.13,6.13,0,0,1-3.4.9,5.78,5.78,0,0,1-4.44-1.84,6.81,6.81,0,0,1-1.69-4.82,7.17,7.17,0,0,1,1.68-4.95,5.59,5.59,0,0,1,4.39-1.89,5.3,5.3,0,0,1,4.15,1.74,6.65,6.65,0,0,1,1.57,4.64Zm-2.06-1.48a3.84,3.84,0,0,0-1.14-2.66,3.85,3.85,0,0,0-2.74-.94,3.77,3.77,0,0,0-2.64,1,4,4,0,0,0-1.23,2.62Z"/><path d="M280.4,11.83a7.56,7.56,0,0,1,1.87-2.29,3.55,3.55,0,0,1,2.15-.68,4.74,4.74,0,0,1,.74.07,6.77,6.77,0,0,1,.74.2l-.57,1.63-.58-.14a4,4,0,0,0-.58,0A3.26,3.26,0,0,0,281.5,12a5.86,5.86,0,0,0-1.1,3.64v6.14h-1.73V9.33h1.73Z"/><path d="M297.56,21.81V19.53a4.49,4.49,0,0,1-4.35,2.83,5.5,5.5,0,0,1-4.32-1.85,7,7,0,0,1-1.64-4.86,7.25,7.25,0,0,1,1.62-4.89,5.59,5.59,0,0,1,6.91-1.2,4.6,4.6,0,0,1,1.78,2V0h1.76V21.81Zm-8.39-6.11a5.7,5.7,0,0,0,1.09,3.73,3.85,3.85,0,0,0,3.12,1.31,3.72,3.72,0,0,0,3.08-1.43,6.19,6.19,0,0,0,1.13-3.93,5.43,5.43,0,0,0-1.11-3.61,4.18,4.18,0,0,0-6.17.08A6,6,0,0,0,289.17,15.7Z"/><path d="M310.15,22.36a6.45,6.45,0,0,1-2.56-.53,7.17,7.17,0,0,1-2.22-1.51,6.41,6.41,0,0,1-1.44-2.14,6.78,6.78,0,0,1-.49-2.59A6.68,6.68,0,0,1,304,13a6.46,6.46,0,0,1,1.45-2.17,6.68,6.68,0,0,1,2.18-1.46,6.58,6.58,0,0,1,2.57-.51A6.86,6.86,0,0,1,316.48,13a6.67,6.67,0,0,1,.51,2.58,6.6,6.6,0,0,1-2,4.73,7.14,7.14,0,0,1-2.24,1.51A6.79,6.79,0,0,1,310.15,22.36Zm.06-1.62a4.64,4.64,0,0,0,3.48-1.49,5,5,0,0,0,1.43-3.63A5.09,5.09,0,0,0,313.7,12a4.84,4.84,0,0,0-7,0,5.09,5.09,0,0,0-1.42,3.66,5.07,5.07,0,0,0,1.42,3.63A4.64,4.64,0,0,0,310.21,20.74Z"/><path d="M343.57,21.81V19.53a4.8,4.8,0,0,1-1.74,2.1,4.71,4.71,0,0,1-2.64.73,5.53,5.53,0,0,1-4.33-1.85,7,7,0,0,1-1.64-4.86,7.25,7.25,0,0,1,1.62-4.89,5.62,5.62,0,0,1,6.93-1.2,4.64,4.64,0,0,1,1.8,2V9.33h1.73V21.81Zm-8.42-6.11a5.64,5.64,0,0,0,1.09,3.73,3.85,3.85,0,0,0,3.12,1.31,3.74,3.74,0,0,0,3.1-1.43,6.13,6.13,0,0,0,1.13-3.93,5.38,5.38,0,0,0-1.12-3.61,3.84,3.84,0,0,0-3.08-1.32,3.79,3.79,0,0,0-3.1,1.4A6,6,0,0,0,335.15,15.7Z"/><path d="M364.09,10.81H361.8V9.33h2.29V4.21h1.7V9.33h2.51v1.48h-2.51v11h-1.7Z"/><path d="M373.18,9.33v6.23a7.33,7.33,0,0,0,.81,4,3.08,3.08,0,0,0,2.73,1.17,3.15,3.15,0,0,0,2.75-1.18,7.25,7.25,0,0,0,.83-4V9.33H382v7.12a6.44,6.44,0,0,1-1.33,4.41,5,5,0,0,1-3.93,1.5,5,5,0,0,1-3.95-1.5,6.39,6.39,0,0,1-1.35-4.41V9.33Z"/><path d="M410.12,11.61a6.43,6.43,0,0,0-1.86-.91,6.86,6.86,0,0,0-2-.3,4.8,4.8,0,0,0-3.7,1.48,5.59,5.59,0,0,0-1.38,4,4.88,4.88,0,0,0,5.08,5,6.49,6.49,0,0,0,2.05-.35,8.24,8.24,0,0,0,2-1.06v1.9a7.38,7.38,0,0,1-2,.78,10,10,0,0,1-2.37.26,6.23,6.23,0,0,1-4.69-1.88,6.59,6.59,0,0,1-1.83-4.8,6.55,6.55,0,0,1,6.87-6.87,10.12,10.12,0,0,1,2.11.22,7.22,7.22,0,0,1,1.77.63Z"/><path d="M415.86,11.83a7.72,7.72,0,0,1,1.88-2.29,3.52,3.52,0,0,1,2.14-.68,4.53,4.53,0,0,1,.74.07,6.21,6.21,0,0,1,.74.2l-.56,1.63-.58-.14a4.15,4.15,0,0,0-.59,0A3.23,3.23,0,0,0,417,12a5.86,5.86,0,0,0-1.11,3.64v6.14h-1.73V9.33h1.73Z"/><path d="M423.46,4.46a1.28,1.28,0,0,1,.39-.94,1.34,1.34,0,0,1,.94-.38,1.37,1.37,0,0,1,1,.38,1.29,1.29,0,0,1,.4.94,1.24,1.24,0,0,1-.39.94,1.3,1.3,0,0,1-1,.38,1.31,1.31,0,0,1-1.33-1.32Zm.43,17.35V9.33h1.79V21.81Z"/><path d="M431.35,10.81h-2.29V9.33h2.29V4.21h1.7V9.33h2.51v1.48h-2.51v11h-1.7Z"/><path d="M449.43,15.62h-9.92a6.11,6.11,0,0,0,1.21,3.8,3.75,3.75,0,0,0,3,1.37,4,4,0,0,0,2.42-.74,5.49,5.49,0,0,0,1.73-2.25l1.59.87a6.72,6.72,0,0,1-2.34,2.79,6.09,6.09,0,0,1-3.4.9,5.78,5.78,0,0,1-4.44-1.84,6.81,6.81,0,0,1-1.69-4.82,7.17,7.17,0,0,1,1.68-4.95,5.61,5.61,0,0,1,4.4-1.89,5.31,5.31,0,0,1,4.15,1.74,6.7,6.7,0,0,1,1.56,4.64Zm-2.05-1.48a3.93,3.93,0,0,0-1.14-2.66,3.87,3.87,0,0,0-2.75-.94,3.77,3.77,0,0,0-2.64,1,4.07,4.07,0,0,0-1.23,2.62Z"/><path d="M455.34,11.83a7.57,7.57,0,0,1,1.88-2.29,3.52,3.52,0,0,1,2.14-.68,4.63,4.63,0,0,1,.74.07,6.21,6.21,0,0,1,.74.2l-.56,1.63-.59-.14a3.9,3.9,0,0,0-.58,0A3.26,3.26,0,0,0,456.44,12a5.92,5.92,0,0,0-1.1,3.64v6.14h-1.73V9.33h1.73Z"/><path d="M462.94,4.46a1.28,1.28,0,0,1,.39-.94,1.37,1.37,0,0,1,1.89,0,1.25,1.25,0,0,1,.4.94,1.24,1.24,0,0,1-.38.94,1.3,1.3,0,0,1-1,.38,1.29,1.29,0,0,1-.95-.38A1.27,1.27,0,0,1,462.94,4.46Zm.43,17.35V9.33h1.79V21.81Z"/><path d="M476.13,22.36a6.45,6.45,0,0,1-2.56-.53,7.41,7.41,0,0,1-2.22-1.51,6.24,6.24,0,0,1-1.43-2.14,6.79,6.79,0,0,1-.5-2.59,6.68,6.68,0,0,1,.51-2.59,6.61,6.61,0,0,1,1.45-2.17,6.79,6.79,0,0,1,2.18-1.46,6.62,6.62,0,0,1,2.57-.51,6.88,6.88,0,0,1,2.63.51A6.81,6.81,0,0,1,481,10.83a6.56,6.56,0,0,1,2,4.76,6.58,6.58,0,0,1-.51,2.57A6.4,6.4,0,0,1,481,20.32a7,7,0,0,1-2.24,1.51A6.79,6.79,0,0,1,476.13,22.36Zm.06-1.62a4.64,4.64,0,0,0,3.48-1.49,5,5,0,0,0,1.43-3.63A5,5,0,0,0,479.68,12a4.84,4.84,0,0,0-7,0,5.09,5.09,0,0,0-1.42,3.66,5.07,5.07,0,0,0,1.42,3.63A4.64,4.64,0,0,0,476.19,20.74Z"/><path d="M7,56.93a6.44,6.44,0,0,1-2.56-.52,7.15,7.15,0,0,1-2.22-1.52A6.27,6.27,0,0,1,.77,52.76a7,7,0,0,1-.49-2.59,6.69,6.69,0,0,1,2-4.76A6.53,6.53,0,0,1,4.42,44,6.58,6.58,0,0,1,7,43.44,6.88,6.88,0,0,1,9.62,44a6.76,6.76,0,0,1,2.21,1.46,6.83,6.83,0,0,1,1.49,2.18,6.67,6.67,0,0,1,.51,2.58,6.54,6.54,0,0,1-.51,2.56,6.21,6.21,0,0,1-1.46,2.16,6.9,6.9,0,0,1-2.24,1.52A6.78,6.78,0,0,1,7,56.93Zm.06-1.61a4.64,4.64,0,0,0,3.48-1.49,5.37,5.37,0,0,0,0-7.29,4.64,4.64,0,0,0-3.49-1.48,4.63,4.63,0,0,0-3.48,1.48,5.39,5.39,0,0,0,0,7.29A4.64,4.64,0,0,0,7.05,55.32Z"/><path d="M19.13,46.41A7.72,7.72,0,0,1,21,44.12a3.55,3.55,0,0,1,2.15-.68,4.74,4.74,0,0,1,.74.07,5.08,5.08,0,0,1,.74.2l-.57,1.63a4.92,4.92,0,0,0-.58-.14,3,3,0,0,0-.58-.06,3.25,3.25,0,0,0-2.67,1.47,5.84,5.84,0,0,0-1.11,3.64v6.14H17.4V43.91h1.73Z"/><path d="M35.72,56.39V54.11a4.46,4.46,0,0,1-4.34,2.82,5.49,5.49,0,0,1-4.33-1.84,7.07,7.07,0,0,1-1.64-4.87A7.29,7.29,0,0,1,27,45.33a5.25,5.25,0,0,1,4.18-1.89,5.09,5.09,0,0,1,2.73.7,4.49,4.49,0,0,1,1.78,2V34.58h1.76V56.39Zm-8.38-6.11A5.66,5.66,0,0,0,28.43,54a3.81,3.81,0,0,0,3.11,1.31,3.73,3.73,0,0,0,3.09-1.43A6.19,6.19,0,0,0,35.75,50a5.41,5.41,0,0,0-1.11-3.61A3.79,3.79,0,0,0,31.57,45a3.78,3.78,0,0,0-3.09,1.4A5.93,5.93,0,0,0,27.34,50.28Z"/><path d="M52.79,50.2H42.87A6.08,6.08,0,0,0,44.08,54a3.76,3.76,0,0,0,3.05,1.38,4.08,4.08,0,0,0,2.42-.74,5.49,5.49,0,0,0,1.73-2.25l1.59.87A6.79,6.79,0,0,1,50.53,56a6.11,6.11,0,0,1-3.4.89,5.77,5.77,0,0,1-4.44-1.83A6.83,6.83,0,0,1,41,50.28a7.14,7.14,0,0,1,1.68-5,5.61,5.61,0,0,1,4.4-1.89,5.31,5.31,0,0,1,4.15,1.74,6.68,6.68,0,0,1,1.56,4.64Zm-2-1.48a3.57,3.57,0,0,0-3.89-3.6,3.72,3.72,0,0,0-2.64,1A4.07,4.07,0,0,0,43,48.72Z"/><path d="M56.39,56.39V43.91H58v1.92A5.12,5.12,0,0,1,59.9,44a5.24,5.24,0,0,1,2.54-.6,4.51,4.51,0,0,1,3.31,1.18,4.46,4.46,0,0,1,1.18,3.3v8.47H65.17v-7.7a4.19,4.19,0,0,0-.78-2.78A3,3,0,0,0,62,45a3.51,3.51,0,0,0-2.92,1.18,5.85,5.85,0,0,0-.94,3.69v6.52Z"/><path d="M80.62,56.39V54.11a4.67,4.67,0,0,1-1.74,2.1,4.74,4.74,0,0,1-2.64.72,5.49,5.49,0,0,1-4.32-1.84,7.07,7.07,0,0,1-1.64-4.87,7.29,7.29,0,0,1,1.62-4.89,5.63,5.63,0,0,1,6.93-1.19,4.51,4.51,0,0,1,1.79,2V43.91h1.73V56.39Zm-8.41-6.11A5.66,5.66,0,0,0,73.3,54a3.81,3.81,0,0,0,3.11,1.31,3.76,3.76,0,0,0,3.11-1.43A6.19,6.19,0,0,0,80.65,50a5.36,5.36,0,0,0-1.13-3.61A3.82,3.82,0,0,0,76.44,45a3.78,3.78,0,0,0-3.09,1.4A5.93,5.93,0,0,0,72.21,50.28Z"/><path d="M87,56.39V43.91h1.65v1.92A5.2,5.2,0,0,1,90.5,44a5.27,5.27,0,0,1,2.54-.6,4.51,4.51,0,0,1,3.31,1.18,4.46,4.46,0,0,1,1.18,3.3v8.47H95.77v-7.7A4.19,4.19,0,0,0,95,45.91,3,3,0,0,0,92.58,45a3.52,3.52,0,0,0-2.92,1.18,5.92,5.92,0,0,0-.94,3.69v6.52Z"/><path d="M111.25,56.39V54.11a4.46,4.46,0,0,1-4.35,2.82,5.49,5.49,0,0,1-4.32-1.84,7,7,0,0,1-1.64-4.87,7.33,7.33,0,0,1,1.61-4.89,5.26,5.26,0,0,1,4.18-1.89,5.12,5.12,0,0,1,2.74.7,4.55,4.55,0,0,1,1.78,2V34.58H113V56.39Zm-8.39-6.11A5.72,5.72,0,0,0,104,54a3.85,3.85,0,0,0,3.12,1.31,3.72,3.72,0,0,0,3.08-1.43A6.19,6.19,0,0,0,111.28,50a5.41,5.41,0,0,0-1.11-3.61,4.18,4.18,0,0,0-6.17.08A5.93,5.93,0,0,0,102.86,50.28Z"/><path d="M123.26,56.93a6.44,6.44,0,0,1-2.56-.52,7.27,7.27,0,0,1-2.22-1.52,6.11,6.11,0,0,1-1.43-2.13,6.79,6.79,0,0,1-.5-2.59,6.71,6.71,0,0,1,6.71-6.73,6.88,6.88,0,0,1,2.63.51,6.72,6.72,0,0,1,3.71,8.78,6.38,6.38,0,0,1-1.47,2.16,6.76,6.76,0,0,1-4.87,2Zm.06-1.61a4.64,4.64,0,0,0,3.48-1.49,5.37,5.37,0,0,0,0-7.29,4.83,4.83,0,0,0-7,0,5.36,5.36,0,0,0,0,7.29A4.61,4.61,0,0,0,123.32,55.32Z"/><path d="M145.77,56.39H144V34.58h1.79Z"/><path d="M159.71,56.39V54.11a4.67,4.67,0,0,1-1.74,2.1,4.73,4.73,0,0,1-2.63.72A5.49,5.49,0,0,1,151,55.09a7.07,7.07,0,0,1-1.64-4.87A7.29,7.29,0,0,1,151,45.33a5.63,5.63,0,0,1,6.93-1.19,4.51,4.51,0,0,1,1.79,2V43.91h1.73V56.39Zm-8.41-6.11A5.66,5.66,0,0,0,152.39,54a3.83,3.83,0,0,0,3.11,1.31,3.76,3.76,0,0,0,3.11-1.43A6.19,6.19,0,0,0,159.74,50a5.36,5.36,0,0,0-1.13-3.61A3.82,3.82,0,0,0,155.53,45a3.78,3.78,0,0,0-3.09,1.4A5.93,5.93,0,0,0,151.3,50.28Z"/><path d="M164.66,54.16l1.65-.94a3.06,3.06,0,0,0,3.08,2.1,2.63,2.63,0,0,0,1.75-.56,1.85,1.85,0,0,0,.64-1.48c0-1-.85-1.77-2.54-2.44a4.29,4.29,0,0,1-.43-.17,7.71,7.71,0,0,1-2.75-1.59,2.82,2.82,0,0,1-.79-2,3.36,3.36,0,0,1,1.12-2.61,4.19,4.19,0,0,1,2.92-1,4.86,4.86,0,0,1,2.59.66A3.89,3.89,0,0,1,173.46,46l-1.59.89a2.56,2.56,0,0,0-1-1.35,3,3,0,0,0-1.69-.47,2.13,2.13,0,0,0-1.48.53,1.69,1.69,0,0,0-.58,1.31,1.62,1.62,0,0,0,.57,1.28,7.83,7.83,0,0,0,2.39,1.12,6.38,6.38,0,0,1,2.77,1.56,3.52,3.52,0,0,1,.71,2.33,3.43,3.43,0,0,1-1.22,2.75,5.7,5.7,0,0,1-6,.3A4.07,4.07,0,0,1,164.66,54.16Z"/><path d="M189,46.41a7.57,7.57,0,0,1,1.88-2.29,3.52,3.52,0,0,1,2.14-.68,4.63,4.63,0,0,1,.74.07,4.76,4.76,0,0,1,.74.2L194,45.34a5.45,5.45,0,0,0-.58-.14,3.11,3.11,0,0,0-.59-.06,3.24,3.24,0,0,0-2.66,1.47A5.84,5.84,0,0,0,189,50.25v6.14h-1.73V43.91H189Z"/><path d="M207.08,50.2h-9.92A6,6,0,0,0,198.37,54a3.75,3.75,0,0,0,3,1.38,4.08,4.08,0,0,0,2.42-.74,5.58,5.58,0,0,0,1.73-2.25l1.59.87A6.94,6.94,0,0,1,204.82,56a6.13,6.13,0,0,1-3.4.89A5.77,5.77,0,0,1,197,55.1a6.83,6.83,0,0,1-1.69-4.82,7.14,7.14,0,0,1,1.68-5,5.59,5.59,0,0,1,4.39-1.89,5.3,5.3,0,0,1,4.15,1.74,6.64,6.64,0,0,1,1.57,4.64ZM205,48.72a3.57,3.57,0,0,0-3.88-3.6,3.72,3.72,0,0,0-2.64,1,4,4,0,0,0-1.23,2.62Z"/><path d="M209.26,54.16l1.64-.94a3.33,3.33,0,0,0,1.19,1.57,3.27,3.27,0,0,0,1.9.53,2.58,2.58,0,0,0,1.74-.56,1.85,1.85,0,0,0,.65-1.48c0-1-.85-1.77-2.55-2.44a3.25,3.25,0,0,1-.42-.17,7.77,7.77,0,0,1-2.76-1.59,2.86,2.86,0,0,1-.79-2A3.37,3.37,0,0,1,211,44.43a4.17,4.17,0,0,1,2.91-1,4.84,4.84,0,0,1,2.59.66A3.89,3.89,0,0,1,218.05,46l-1.59.89a2.54,2.54,0,0,0-1-1.35,3,3,0,0,0-1.69-.47,2.16,2.16,0,0,0-1.49.53,1.69,1.69,0,0,0-.58,1.31,1.6,1.6,0,0,0,.58,1.28,7.7,7.7,0,0,0,2.39,1.12,6.34,6.34,0,0,1,2.76,1.56,3.47,3.47,0,0,1,.71,2.33,3.4,3.4,0,0,1-1.22,2.75,5,5,0,0,1-3.29,1,5,5,0,0,1-2.74-.72A4,4,0,0,1,209.26,54.16Z"/><path d="M221.68,62.66V43.91h1.68v2.33a5.24,5.24,0,0,1,1.87-2.07,4.71,4.71,0,0,1,2.59-.73,5.37,5.37,0,0,1,4.24,1.85,7.24,7.24,0,0,1,1.61,4.91,7.29,7.29,0,0,1-1.58,4.9,5.26,5.26,0,0,1-4.19,1.83,4.93,4.93,0,0,1-2.66-.72,5.25,5.25,0,0,1-1.88-2.13v8.58ZM231.8,50.22a5.91,5.91,0,0,0-1.11-3.8,3.65,3.65,0,0,0-3-1.39,3.86,3.86,0,0,0-3.13,1.35,5.5,5.5,0,0,0-1.14,3.69,5.7,5.7,0,0,0,1.22,3.82,4,4,0,0,0,3.22,1.43A3.51,3.51,0,0,0,230.75,54,5.93,5.93,0,0,0,231.8,50.22Z"/><path d="M239,43.91v6.23a7.36,7.36,0,0,0,.81,4,3.77,3.77,0,0,0,5.48,0,7.18,7.18,0,0,0,.83-4V43.91h1.72V51a6.44,6.44,0,0,1-1.34,4.41,5,5,0,0,1-3.93,1.49,5,5,0,0,1-3.95-1.49A6.39,6.39,0,0,1,237.27,51V43.91Z"/><path d="M263.17,50.2h-9.92A6.08,6.08,0,0,0,254.46,54a3.76,3.76,0,0,0,3.06,1.38,4.1,4.1,0,0,0,2.42-.74,5.58,5.58,0,0,0,1.73-2.25l1.59.87A6.94,6.94,0,0,1,260.92,56a6.13,6.13,0,0,1-3.4.89,5.77,5.77,0,0,1-4.44-1.83,6.84,6.84,0,0,1-1.7-4.82,7.14,7.14,0,0,1,1.68-5,5.61,5.61,0,0,1,4.4-1.89,5.3,5.3,0,0,1,4.15,1.74,6.68,6.68,0,0,1,1.56,4.64Zm-2.05-1.48A3.91,3.91,0,0,0,260,46.06a3.86,3.86,0,0,0-2.74-.94,3.71,3.71,0,0,0-2.64,1,4,4,0,0,0-1.23,2.62Z"/><path d="M265.35,54.16l1.65-.94a3.06,3.06,0,0,0,3.08,2.1,2.63,2.63,0,0,0,1.75-.56,1.85,1.85,0,0,0,.64-1.48c0-1-.85-1.77-2.54-2.44a4.29,4.29,0,0,1-.43-.17,7.71,7.71,0,0,1-2.75-1.59,2.82,2.82,0,0,1-.79-2,3.36,3.36,0,0,1,1.12-2.61,4.19,4.19,0,0,1,2.92-1,4.86,4.86,0,0,1,2.59.66A3.89,3.89,0,0,1,274.15,46l-1.59.89a2.56,2.56,0,0,0-1-1.35,3,3,0,0,0-1.69-.47,2.13,2.13,0,0,0-1.48.53,1.69,1.69,0,0,0-.58,1.31,1.62,1.62,0,0,0,.57,1.28,7.92,7.92,0,0,0,2.4,1.12,6.4,6.4,0,0,1,2.76,1.56,3.52,3.52,0,0,1,.71,2.33A3.43,3.43,0,0,1,273,55.91a5.7,5.7,0,0,1-6,.3A4.07,4.07,0,0,1,265.35,54.16Z"/><path d="M278.14,45.38h-2.29V43.91h2.29V38.78h1.71v5.13h2.5v1.47h-2.5v11h-1.71Z"/><path d="M294.14,56.39V54.11a4.67,4.67,0,0,1-1.74,2.1,4.73,4.73,0,0,1-2.63.72,5.49,5.49,0,0,1-4.33-1.84,7.07,7.07,0,0,1-1.64-4.87,7.29,7.29,0,0,1,1.62-4.89,5.63,5.63,0,0,1,6.93-1.19,4.51,4.51,0,0,1,1.79,2V43.91h1.73V56.39Zm-8.41-6.11A5.66,5.66,0,0,0,286.82,54a3.81,3.81,0,0,0,3.11,1.31A3.76,3.76,0,0,0,293,53.89,6.19,6.19,0,0,0,294.17,50,5.36,5.36,0,0,0,293,46.35,3.82,3.82,0,0,0,290,45a3.78,3.78,0,0,0-3.09,1.4A5.93,5.93,0,0,0,285.73,50.28Z"/><path d="M299.09,54.16l1.65-.94a3.06,3.06,0,0,0,3.08,2.1,2.63,2.63,0,0,0,1.75-.56,1.85,1.85,0,0,0,.64-1.48c0-1-.85-1.77-2.54-2.44a4.29,4.29,0,0,1-.43-.17,7.71,7.71,0,0,1-2.75-1.59,2.82,2.82,0,0,1-.79-2,3.36,3.36,0,0,1,1.12-2.61,4.17,4.17,0,0,1,2.92-1,4.86,4.86,0,0,1,2.59.66A3.89,3.89,0,0,1,307.89,46l-1.59.89a2.56,2.56,0,0,0-1-1.35,3,3,0,0,0-1.69-.47,2.13,2.13,0,0,0-1.48.53,1.69,1.69,0,0,0-.58,1.31,1.62,1.62,0,0,0,.57,1.28,7.83,7.83,0,0,0,2.39,1.12,6.38,6.38,0,0,1,2.77,1.56,3.52,3.52,0,0,1,.71,2.33,3.43,3.43,0,0,1-1.22,2.75,5.7,5.7,0,0,1-6,.3A4.07,4.07,0,0,1,299.09,54.16Z"/><path d="M331,56.39V54.11a4.46,4.46,0,0,1-4.34,2.82,5.49,5.49,0,0,1-4.33-1.84,7.07,7.07,0,0,1-1.64-4.87,7.29,7.29,0,0,1,1.62-4.89,5.25,5.25,0,0,1,4.18-1.89,5.09,5.09,0,0,1,2.73.7,4.49,4.49,0,0,1,1.78,2V34.58h1.76V56.39Zm-8.38-6.11A5.66,5.66,0,0,0,323.66,54a3.81,3.81,0,0,0,3.11,1.31,3.74,3.74,0,0,0,3.09-1.43A6.19,6.19,0,0,0,331,50a5.41,5.41,0,0,0-1.11-3.61,4.17,4.17,0,0,0-6.16.08A5.93,5.93,0,0,0,322.57,50.28Z"/><path d="M348,50.2H338.1A6.08,6.08,0,0,0,339.31,54a3.76,3.76,0,0,0,3.05,1.38,4.08,4.08,0,0,0,2.42-.74,5.49,5.49,0,0,0,1.73-2.25l1.59.87A6.94,6.94,0,0,1,345.76,56a6.11,6.11,0,0,1-3.4.89,5.77,5.77,0,0,1-4.44-1.83,6.83,6.83,0,0,1-1.69-4.82,7.14,7.14,0,0,1,1.68-5,5.61,5.61,0,0,1,4.4-1.89,5.31,5.31,0,0,1,4.15,1.74A6.68,6.68,0,0,1,348,49.82ZM346,48.72a3.55,3.55,0,0,0-3.88-3.6,3.72,3.72,0,0,0-2.64,1,4.07,4.07,0,0,0-1.23,2.62Z"/><path d="M363.71,56.39h-1.78V34.58h1.78Z"/><path d="M377.66,56.39V54.11a4.53,4.53,0,0,1-4.38,2.82A5.52,5.52,0,0,1,369,55.09a7.07,7.07,0,0,1-1.64-4.87,7.29,7.29,0,0,1,1.62-4.89,5.25,5.25,0,0,1,4.18-1.89,5.18,5.18,0,0,1,2.75.7,4.53,4.53,0,0,1,1.8,2V43.91h1.73V56.39Zm-8.42-6.11A5.72,5.72,0,0,0,370.33,54a3.85,3.85,0,0,0,3.12,1.31,3.74,3.74,0,0,0,3.1-1.43A6.13,6.13,0,0,0,377.68,50a5.36,5.36,0,0,0-1.12-3.61A3.84,3.84,0,0,0,373.48,45a3.79,3.79,0,0,0-3.1,1.4A5.93,5.93,0,0,0,369.24,50.28Z"/><path d="M396,56.39h-1.73V43.91H396v2a4.27,4.27,0,0,1,4-2.42,4.16,4.16,0,0,1,2.33.63,4,4,0,0,1,1.48,1.83,4.75,4.75,0,0,1,4.35-2.46,4.1,4.1,0,0,1,3.12,1.2,4.63,4.63,0,0,1,1.14,3.3v8.45h-1.73V48.63a4.28,4.28,0,0,0-.75-2.75,2.71,2.71,0,0,0-2.24-.93A3,3,0,0,0,405,46.11a6.46,6.46,0,0,0-.84,3.71v6.57h-1.71V48.63a4.43,4.43,0,0,0-.72-2.8A2.69,2.69,0,0,0,399.5,45a3.09,3.09,0,0,0-2.69,1.18,6.36,6.36,0,0,0-.86,3.69Z"/><path d="M426.17,56.39V54.11a4.71,4.71,0,0,1-1.73,2.1,4.79,4.79,0,0,1-2.64.72,5.51,5.51,0,0,1-4.33-1.84,7.07,7.07,0,0,1-1.64-4.87,7.29,7.29,0,0,1,1.62-4.89,5.25,5.25,0,0,1,4.18-1.89,5.18,5.18,0,0,1,2.75.7,4.51,4.51,0,0,1,1.79,2V43.91h1.73V56.39Zm-8.41-6.11A5.66,5.66,0,0,0,418.85,54,3.85,3.85,0,0,0,422,55.32a3.76,3.76,0,0,0,3.1-1.43A6.19,6.19,0,0,0,426.2,50a5.36,5.36,0,0,0-1.12-3.61A3.84,3.84,0,0,0,422,45a3.79,3.79,0,0,0-3.1,1.4A5.93,5.93,0,0,0,417.76,50.28Z"/><path d="M432.55,56.39V43.91h1.64v1.92A5.15,5.15,0,0,1,436.06,44a5.21,5.21,0,0,1,2.54-.6,4.1,4.1,0,0,1,4.48,4.48v8.47h-1.75v-7.7a4.14,4.14,0,0,0-.79-2.78,3,3,0,0,0-2.41-.91,3.53,3.53,0,0,0-2.92,1.18,5.92,5.92,0,0,0-.93,3.69v6.52Z"/><path d="M458.28,50.2h-9.92A6.08,6.08,0,0,0,449.57,54a3.76,3.76,0,0,0,3.05,1.38,4.08,4.08,0,0,0,2.42-.74,5.51,5.51,0,0,0,1.74-2.25l1.59.87A6.88,6.88,0,0,1,456,56a6.08,6.08,0,0,1-3.4.89,5.75,5.75,0,0,1-4.43-1.83,6.79,6.79,0,0,1-1.7-4.82,7.14,7.14,0,0,1,1.68-5,5.61,5.61,0,0,1,4.4-1.89,5.31,5.31,0,0,1,4.15,1.74,6.68,6.68,0,0,1,1.56,4.64Zm-2-1.48a3.57,3.57,0,0,0-3.89-3.6,3.68,3.68,0,0,0-2.63,1,4,4,0,0,0-1.24,2.62Z"/><path d="M463.61,46.41a7.72,7.72,0,0,1,1.88-2.29,3.55,3.55,0,0,1,2.15-.68,4.74,4.74,0,0,1,.74.07,5,5,0,0,1,.73.2l-.56,1.63a5.45,5.45,0,0,0-.58-.14,3,3,0,0,0-.59-.06,3.24,3.24,0,0,0-2.66,1.47,5.84,5.84,0,0,0-1.11,3.64v6.14h-1.73V43.91h1.73Z"/><path d="M480.17,56.39V54.11a4.71,4.71,0,0,1-1.73,2.1,4.79,4.79,0,0,1-2.64.72,5.51,5.51,0,0,1-4.33-1.84,7.07,7.07,0,0,1-1.64-4.87,7.29,7.29,0,0,1,1.62-4.89,5.25,5.25,0,0,1,4.18-1.89,5.18,5.18,0,0,1,2.75.7,4.51,4.51,0,0,1,1.79,2V43.91h1.73V56.39Zm-8.41-6.11A5.66,5.66,0,0,0,472.85,54,3.85,3.85,0,0,0,476,55.32a3.76,3.76,0,0,0,3.1-1.43A6.19,6.19,0,0,0,480.2,50a5.36,5.36,0,0,0-1.12-3.61A3.84,3.84,0,0,0,476,45a3.79,3.79,0,0,0-3.1,1.4A5.93,5.93,0,0,0,471.76,50.28Z"/><path d="M12.3,97.24H10.62V88.66a5.48,5.48,0,0,1-1.89,2.13,5,5,0,0,1-2.68.72,5.24,5.24,0,0,1-4.19-1.83,8.36,8.36,0,0,1,0-9.81A5.36,5.36,0,0,1,6.13,78a4.81,4.81,0,0,1,2.62.73,5.3,5.3,0,0,1,1.87,2.07V78.48H12.3Zm-6-17.63A3.74,3.74,0,0,0,3.27,81a7.1,7.1,0,0,0-.06,7.56,3.55,3.55,0,0,0,3,1.34,4,4,0,0,0,3.2-1.42,5.66,5.66,0,0,0,1.21-3.82A5.56,5.56,0,0,0,9.44,81,3.83,3.83,0,0,0,6.33,79.61Z"/><path d="M18.64,78.48v6.24a7.36,7.36,0,0,0,.81,4,3.11,3.11,0,0,0,2.74,1.16,3.11,3.11,0,0,0,2.74-1.18,7.23,7.23,0,0,0,.83-4V78.48h1.72V85.6A6.44,6.44,0,0,1,26.14,90a5,5,0,0,1-3.93,1.5A5,5,0,0,1,18.26,90a6.39,6.39,0,0,1-1.35-4.41V78.48Z"/><path d="M42.81,84.77H32.89a6.09,6.09,0,0,0,1.21,3.8A3.76,3.76,0,0,0,37.16,90a4,4,0,0,0,2.42-.75A5.44,5.44,0,0,0,41.31,87l1.59.88a7,7,0,0,1-2.34,2.79,6.21,6.21,0,0,1-3.4.89,5.77,5.77,0,0,1-4.44-1.83A6.84,6.84,0,0,1,31,84.86a7.14,7.14,0,0,1,1.69-5A5.61,5.61,0,0,1,37.1,78a5.3,5.3,0,0,1,4.15,1.74,6.67,6.67,0,0,1,1.56,4.63Zm-2.05-1.48a3.58,3.58,0,0,0-3.88-3.6,3.73,3.73,0,0,0-2.64,1A4,4,0,0,0,33,83.29Z"/><path d="M51.78,88.74l1.64-.94a3.38,3.38,0,0,0,1.19,1.57,3.26,3.26,0,0,0,1.89.52,2.59,2.59,0,0,0,1.75-.55,1.87,1.87,0,0,0,.65-1.49q0-1.42-2.55-2.43l-.42-.17a7.92,7.92,0,0,1-2.76-1.6,2.8,2.8,0,0,1-.79-2A3.37,3.37,0,0,1,53.51,79a4.17,4.17,0,0,1,2.91-1,4.84,4.84,0,0,1,2.59.66,3.84,3.84,0,0,1,1.56,1.89L59,81.42a2.54,2.54,0,0,0-1-1.35,3,3,0,0,0-1.69-.46,2.11,2.11,0,0,0-1.49.53,1.69,1.69,0,0,0-.58,1.31,1.61,1.61,0,0,0,.58,1.28,7.52,7.52,0,0,0,2.39,1.11A6.33,6.33,0,0,1,60,85.41a3.47,3.47,0,0,1,.71,2.33,3.36,3.36,0,0,1-1.22,2.74,4.93,4.93,0,0,1-3.29,1,5,5,0,0,1-2.74-.72A4.09,4.09,0,0,1,51.78,88.74Z"/><path d="M74.92,84.77H65a6.09,6.09,0,0,0,1.21,3.8A3.76,3.76,0,0,0,69.27,90a4,4,0,0,0,2.42-.75A5.44,5.44,0,0,0,73.42,87l1.59.88a7,7,0,0,1-2.35,2.79,6.16,6.16,0,0,1-3.39.89,5.77,5.77,0,0,1-4.44-1.83,6.84,6.84,0,0,1-1.7-4.82,7.18,7.18,0,0,1,1.68-5A5.64,5.64,0,0,1,69.21,78a5.3,5.3,0,0,1,4.15,1.74,6.67,6.67,0,0,1,1.56,4.63Zm-2-1.48A3.58,3.58,0,0,0,69,79.69a3.69,3.69,0,0,0-2.63,1,4,4,0,0,0-1.23,2.61Z"/><path d="M94.55,91V88.68a4.63,4.63,0,0,1-1.73,2.11,4.7,4.7,0,0,1-2.62.72,5.49,5.49,0,0,1-4.32-1.84,7,7,0,0,1-1.64-4.87,7.3,7.3,0,0,1,1.61-4.89A5.26,5.26,0,0,1,90,78a5.15,5.15,0,0,1,2.74.7,4.58,4.58,0,0,1,1.78,2V69.15h1.76V91Zm-8.39-6.1a5.69,5.69,0,0,0,1.09,3.72,3.82,3.82,0,0,0,3.12,1.31,3.71,3.71,0,0,0,3.08-1.42,6.24,6.24,0,0,0,1.13-3.94,5.43,5.43,0,0,0-1.11-3.61,3.84,3.84,0,0,0-3.07-1.31A3.79,3.79,0,0,0,87.3,81,5.91,5.91,0,0,0,86.16,84.86Z"/><path d="M111.62,84.77H101.7a6,6,0,0,0,1.21,3.8A3.75,3.75,0,0,0,106,90a4,4,0,0,0,2.42-.75A5.44,5.44,0,0,0,110.11,87l1.59.88a7,7,0,0,1-2.34,2.79,6.21,6.21,0,0,1-3.4.89,5.77,5.77,0,0,1-4.44-1.83,6.83,6.83,0,0,1-1.69-4.82,7.18,7.18,0,0,1,1.68-5A5.61,5.61,0,0,1,105.9,78a5.3,5.3,0,0,1,4.15,1.74,6.67,6.67,0,0,1,1.57,4.63Zm-2.06-1.48a3.79,3.79,0,0,0-1.14-2.65,3.85,3.85,0,0,0-2.74-1,3.73,3.73,0,0,0-2.64,1,4,4,0,0,0-1.23,2.61Z"/><path d="M117,91h-1.73V69.15H117V80.76a4.52,4.52,0,0,1,1.78-2,5.09,5.09,0,0,1,2.73-.7,5.25,5.25,0,0,1,4.18,1.89,7.25,7.25,0,0,1,1.62,4.89,7.07,7.07,0,0,1-1.64,4.87,5.49,5.49,0,0,1-4.32,1.84,4.7,4.7,0,0,1-2.62-.72A4.63,4.63,0,0,1,117,88.68Zm8.38-6.1A5.91,5.91,0,0,0,124.19,81a4.18,4.18,0,0,0-6.16-.09,5.43,5.43,0,0,0-1.11,3.61,6.24,6.24,0,0,0,1.13,3.94,4.22,4.22,0,0,0,6.2.12A5.7,5.7,0,0,0,125.33,84.86Z"/><path d="M141.53,84.77h-9.92a6.09,6.09,0,0,0,1.21,3.8A3.76,3.76,0,0,0,135.87,90a4,4,0,0,0,2.42-.75A5.36,5.36,0,0,0,140,87l1.59.88a7,7,0,0,1-2.34,2.79,6.19,6.19,0,0,1-3.4.89,5.77,5.77,0,0,1-4.44-1.83,6.83,6.83,0,0,1-1.69-4.82,7.18,7.18,0,0,1,1.68-5,5.62,5.62,0,0,1,4.4-1.88A5.33,5.33,0,0,1,140,79.76a6.67,6.67,0,0,1,1.56,4.63Zm-2.06-1.48a3.79,3.79,0,0,0-1.14-2.65,3.85,3.85,0,0,0-2.74-1,3.73,3.73,0,0,0-2.64,1,4,4,0,0,0-1.23,2.61Z"/><path d="M146.86,81a7.63,7.63,0,0,1,1.88-2.3,3.52,3.52,0,0,1,2.14-.67,3.71,3.71,0,0,1,.74.07,4.76,4.76,0,0,1,.74.2l-.56,1.63a3.63,3.63,0,0,0-.59-.14,2.93,2.93,0,0,0-.58-.06A3.28,3.28,0,0,0,148,81.18a5.93,5.93,0,0,0-1.1,3.65V91h-1.73V78.48h1.73Z"/><path d="M153.35,76.47l3-4.92h2.31l-4,4.92Zm1,14.49V78.48h1.78V91Z"/><path d="M170.05,91V88.68a4.52,4.52,0,0,1-4.38,2.83,5.49,5.49,0,0,1-4.32-1.84,7,7,0,0,1-1.64-4.87,7.3,7.3,0,0,1,1.61-4.89A5.26,5.26,0,0,1,165.5,78a5.18,5.18,0,0,1,2.75.7,4.5,4.5,0,0,1,1.8,2V78.48h1.73V91Zm-8.42-6.1a5.69,5.69,0,0,0,1.09,3.72,3.82,3.82,0,0,0,3.12,1.31,3.74,3.74,0,0,0,3.1-1.42,6.18,6.18,0,0,0,1.14-3.94A5.38,5.38,0,0,0,169,80.92a3.86,3.86,0,0,0-3.08-1.31,3.79,3.79,0,0,0-3.1,1.4A5.91,5.91,0,0,0,161.63,84.86Z"/><path d="M192.42,91V88.68A4.52,4.52,0,0,1,188,91.51a5.49,5.49,0,0,1-4.32-1.84,7,7,0,0,1-1.64-4.87,7.25,7.25,0,0,1,1.62-4.89,5.63,5.63,0,0,1,6.93-1.19,4.54,4.54,0,0,1,1.79,2V78.48h1.73V91ZM184,84.86a5.63,5.63,0,0,0,1.1,3.72,3.79,3.79,0,0,0,3.11,1.31,3.74,3.74,0,0,0,3.1-1.42,6.18,6.18,0,0,0,1.14-3.94,5.38,5.38,0,0,0-1.13-3.61,3.86,3.86,0,0,0-3.08-1.31,3.8,3.8,0,0,0-3.1,1.4A5.91,5.91,0,0,0,184,84.86Z"/><path d="M208.5,80.76a7,7,0,0,0-1.86-.91,6.86,6.86,0,0,0-2-.3,4.81,4.81,0,0,0-3.7,1.49,5.59,5.59,0,0,0-1.38,4A4.84,4.84,0,0,0,201,88.61,4.93,4.93,0,0,0,204.62,90a6.17,6.17,0,0,0,2-.35,7.92,7.92,0,0,0,2-1.05v1.9a8.08,8.08,0,0,1-2,.78,10.59,10.59,0,0,1-2.38.26,6.26,6.26,0,0,1-4.68-1.88,6.59,6.59,0,0,1-1.83-4.81A6.55,6.55,0,0,1,204.64,78a9.51,9.51,0,0,1,2.12.22,7,7,0,0,1,1.77.62Z"/><path d="M212.3,80H210V78.48h2.3V73.36H214v5.12h2.5V80H214V91h-1.7Z"/><path d="M220.81,78.48v6.24a7.36,7.36,0,0,0,.81,4,3.79,3.79,0,0,0,5.48,0,7.23,7.23,0,0,0,.83-4V78.48h1.72V85.6A6.44,6.44,0,0,1,228.31,90a5,5,0,0,1-3.93,1.5,5,5,0,0,1-3.95-1.5,6.39,6.39,0,0,1-1.35-4.41V78.48Z"/><path d="M243.48,91V88.68a4.88,4.88,0,0,1-1.74,2.11,4.79,4.79,0,0,1-2.64.72,5.52,5.52,0,0,1-4.33-1.84,7.07,7.07,0,0,1-1.64-4.87,7.25,7.25,0,0,1,1.62-4.89A5.25,5.25,0,0,1,238.93,78a5.18,5.18,0,0,1,2.75.7,4.56,4.56,0,0,1,1.8,2V78.48h1.73V91Zm-8.42-6.1a5.69,5.69,0,0,0,1.09,3.72,3.82,3.82,0,0,0,3.12,1.31,3.74,3.74,0,0,0,3.1-1.42,6.18,6.18,0,0,0,1.13-3.94,5.38,5.38,0,0,0-1.12-3.61,3.86,3.86,0,0,0-3.08-1.31,3.79,3.79,0,0,0-3.1,1.4A5.91,5.91,0,0,0,235.06,84.86Z"/><path d="M251.58,81a7.63,7.63,0,0,1,1.88-2.3A3.52,3.52,0,0,1,255.6,78a3.71,3.71,0,0,1,.74.07,4.76,4.76,0,0,1,.74.2l-.56,1.63a3.63,3.63,0,0,0-.59-.14,2.93,2.93,0,0,0-.58-.06,3.28,3.28,0,0,0-2.67,1.46,5.93,5.93,0,0,0-1.1,3.65V91h-1.73V78.48h1.73Z"/><path d="M265.71,97.24V78.48h1.67v2.34a5.41,5.41,0,0,1,1.87-2.08,4.79,4.79,0,0,1,2.59-.72,5.36,5.36,0,0,1,4.24,1.85,7.17,7.17,0,0,1,1.61,4.9,7.29,7.29,0,0,1-1.57,4.91,5.26,5.26,0,0,1-4.2,1.83,4.87,4.87,0,0,1-2.65-.72,5.48,5.48,0,0,1-1.89-2.13v8.58ZM275.82,84.8a6,6,0,0,0-1.1-3.81,3.69,3.69,0,0,0-3.05-1.38A3.9,3.9,0,0,0,268.54,81a5.6,5.6,0,0,0-1.13,3.7,5.67,5.67,0,0,0,1.22,3.82,4,4,0,0,0,3.21,1.42,3.47,3.47,0,0,0,2.93-1.34A6,6,0,0,0,275.82,84.8Z"/><path d="M290.51,91V88.68a4.52,4.52,0,0,1-4.38,2.83,5.49,5.49,0,0,1-4.32-1.84,7.07,7.07,0,0,1-1.64-4.87,7.25,7.25,0,0,1,1.62-4.89,5.63,5.63,0,0,1,6.93-1.19,4.54,4.54,0,0,1,1.79,2V78.48h1.73V91Zm-8.41-6.1a5.63,5.63,0,0,0,1.09,3.72,4.23,4.23,0,0,0,6.22-.11,6.24,6.24,0,0,0,1.13-3.94,5.38,5.38,0,0,0-1.13-3.61,3.85,3.85,0,0,0-3.08-1.31,3.78,3.78,0,0,0-3.09,1.4A5.91,5.91,0,0,0,282.1,84.86Z"/><path d="M298.61,81a7.78,7.78,0,0,1,1.88-2.3,3.55,3.55,0,0,1,2.15-.67,3.78,3.78,0,0,1,.74.07,5.08,5.08,0,0,1,.74.2l-.57,1.63a3.51,3.51,0,0,0-.58-.14,3,3,0,0,0-.59-.06,3.27,3.27,0,0,0-2.66,1.46,5.87,5.87,0,0,0-1.11,3.65V91h-1.73V78.48h1.73Z"/><path d="M315.17,91V88.68a4.49,4.49,0,0,1-4.37,2.83,5.51,5.51,0,0,1-4.33-1.84,7.07,7.07,0,0,1-1.64-4.87,7.25,7.25,0,0,1,1.62-4.89A5.25,5.25,0,0,1,310.63,78a5.18,5.18,0,0,1,2.75.7,4.54,4.54,0,0,1,1.79,2V78.48h1.74V91Zm-8.41-6.1a5.63,5.63,0,0,0,1.09,3.72A3.82,3.82,0,0,0,311,89.89a3.75,3.75,0,0,0,3.1-1.42,6.18,6.18,0,0,0,1.13-3.94,5.38,5.38,0,0,0-1.12-3.61A3.86,3.86,0,0,0,311,79.61a3.79,3.79,0,0,0-3.1,1.4A5.91,5.91,0,0,0,306.76,84.86Z"/><path d="M328.33,97.24V78.48H330v2.34a5.43,5.43,0,0,1,1.88-2.08,4.75,4.75,0,0,1,2.58-.72,5.38,5.38,0,0,1,4.25,1.85,7.22,7.22,0,0,1,1.61,4.9,7.3,7.3,0,0,1-1.58,4.91,5.26,5.26,0,0,1-4.19,1.83,4.91,4.91,0,0,1-2.66-.72A5.48,5.48,0,0,1,330,88.66v8.58ZM338.45,84.8A6,6,0,0,0,337.34,81a3.67,3.67,0,0,0-3-1.38A3.87,3.87,0,0,0,331.17,81a5.55,5.55,0,0,0-1.14,3.7,5.72,5.72,0,0,0,1.22,3.82,4,4,0,0,0,3.21,1.42,3.5,3.5,0,0,0,2.94-1.34A6,6,0,0,0,338.45,84.8Z"/><path d="M345.65,81a7.63,7.63,0,0,1,1.88-2.3,3.52,3.52,0,0,1,2.14-.67,3.71,3.71,0,0,1,.74.07,4.76,4.76,0,0,1,.74.2l-.56,1.63a3.63,3.63,0,0,0-.59-.14,2.93,2.93,0,0,0-.58-.06,3.28,3.28,0,0,0-2.67,1.46,5.93,5.93,0,0,0-1.1,3.65V91h-1.73V78.48h1.73Z"/><path d="M358.66,91.51A6.28,6.28,0,0,1,356.1,91a7.23,7.23,0,0,1-2.22-1.51,6.15,6.15,0,0,1-1.43-2.14,6.75,6.75,0,0,1-.5-2.59,6.69,6.69,0,0,1,2-4.75,6.48,6.48,0,0,1,2.18-1.46,6.62,6.62,0,0,1,2.57-.51,6.88,6.88,0,0,1,2.63.51,6.87,6.87,0,0,1,3.7,3.64,6.62,6.62,0,0,1,.51,2.57,6.76,6.76,0,0,1-.5,2.57,6.58,6.58,0,0,1-1.47,2.16A6.76,6.76,0,0,1,361.29,91,6.61,6.61,0,0,1,358.66,91.51Zm.06-1.62a4.63,4.63,0,0,0,3.48-1.48,5.39,5.39,0,0,0,0-7.3,4.85,4.85,0,0,0-7,0,5.37,5.37,0,0,0,0,7.3A4.6,4.6,0,0,0,358.72,89.89Z"/><path d="M378.78,80.76a7.07,7.07,0,0,0-1.85-.91,7,7,0,0,0-2-.3A4.81,4.81,0,0,0,371.2,81a5.59,5.59,0,0,0-1.38,4,4.87,4.87,0,0,0,1.43,3.61A4.94,4.94,0,0,0,374.9,90a6.18,6.18,0,0,0,2.05-.35,7.86,7.86,0,0,0,2-1.05v1.9a8,8,0,0,1-2,.78,10.72,10.72,0,0,1-2.38.26,6.27,6.27,0,0,1-4.69-1.88,6.59,6.59,0,0,1-1.83-4.81A6.55,6.55,0,0,1,374.93,78a9.64,9.64,0,0,1,2.12.22,6.75,6.75,0,0,1,1.76.62Z"/><path d="M392.94,84.77H383a6.09,6.09,0,0,0,1.21,3.8,3.76,3.76,0,0,0,3,1.38,4,4,0,0,0,2.42-.75A5.36,5.36,0,0,0,391.43,87l1.59.88a7,7,0,0,1-2.34,2.79,6.19,6.19,0,0,1-3.4.89,5.77,5.77,0,0,1-4.44-1.83,6.83,6.83,0,0,1-1.69-4.82,7.18,7.18,0,0,1,1.68-5,5.64,5.64,0,0,1,4.4-1.88,5.33,5.33,0,0,1,4.15,1.74,6.67,6.67,0,0,1,1.56,4.63Zm-2.06-1.48a3.79,3.79,0,0,0-1.14-2.65,3.85,3.85,0,0,0-2.74-1,3.73,3.73,0,0,0-2.64,1,4,4,0,0,0-1.23,2.61Z"/><path d="M405.78,91V88.68a4.63,4.63,0,0,1-1.73,2.11,4.69,4.69,0,0,1-2.61.72,5.49,5.49,0,0,1-4.33-1.84,7.07,7.07,0,0,1-1.64-4.87,7.25,7.25,0,0,1,1.62-4.89A5.25,5.25,0,0,1,401.27,78a5.09,5.09,0,0,1,2.73.7,4.52,4.52,0,0,1,1.78,2V69.15h1.76V91Zm-8.38-6.1a5.63,5.63,0,0,0,1.09,3.72,3.79,3.79,0,0,0,3.11,1.31,3.72,3.72,0,0,0,3.09-1.42,6.24,6.24,0,0,0,1.12-3.94,5.43,5.43,0,0,0-1.11-3.61,4.18,4.18,0,0,0-6.16.09A5.91,5.91,0,0,0,397.4,84.86Z"/><path d="M422.85,84.77h-9.92a6.09,6.09,0,0,0,1.21,3.8A3.76,3.76,0,0,0,417.19,90a4,4,0,0,0,2.42-.75A5.36,5.36,0,0,0,421.34,87l1.59.88a6.85,6.85,0,0,1-2.34,2.79,6.17,6.17,0,0,1-3.4.89,5.77,5.77,0,0,1-4.44-1.83,6.83,6.83,0,0,1-1.69-4.82,7.18,7.18,0,0,1,1.68-5,5.64,5.64,0,0,1,4.4-1.88,5.31,5.31,0,0,1,4.15,1.74,6.67,6.67,0,0,1,1.56,4.63Zm-2.05-1.48a3.58,3.58,0,0,0-3.89-3.6,3.73,3.73,0,0,0-2.64,1A4,4,0,0,0,413,83.29Z"/><path d="M428.18,81a7.78,7.78,0,0,1,1.88-2.3,3.53,3.53,0,0,1,2.15-.67,3.78,3.78,0,0,1,.74.07,5,5,0,0,1,.73.2l-.56,1.63a3.77,3.77,0,0,0-.58-.14,3.11,3.11,0,0,0-.59-.06,3.25,3.25,0,0,0-2.66,1.46,5.87,5.87,0,0,0-1.11,3.65V91h-1.73V78.48h1.73Z"/><path d="M452,80.76a6.71,6.71,0,0,0-3.89-1.21,4.82,4.82,0,0,0-3.7,1.49,5.59,5.59,0,0,0-1.38,4,4.87,4.87,0,0,0,1.43,3.61A4.94,4.94,0,0,0,448.13,90a6.18,6.18,0,0,0,2.05-.35,7.71,7.71,0,0,0,2-1.05v1.9a8,8,0,0,1-2,.78,10.59,10.59,0,0,1-2.38.26,6.25,6.25,0,0,1-4.68-1.88,6.59,6.59,0,0,1-1.83-4.81A6.53,6.53,0,0,1,448.16,78a9.58,9.58,0,0,1,2.12.22,7,7,0,0,1,1.77.62Z"/><path d="M461.12,91.51a6.28,6.28,0,0,1-2.56-.53,7,7,0,0,1-2.22-1.51,6.31,6.31,0,0,1-1.44-2.14,6.75,6.75,0,0,1-.49-2.59,6.69,6.69,0,0,1,4.13-6.21,6.67,6.67,0,0,1,2.58-.51,6.83,6.83,0,0,1,2.62.51A6.64,6.64,0,0,1,466,80a6.54,6.54,0,0,1,1.48,2.18,6.45,6.45,0,0,1,.52,2.57,6.6,6.6,0,0,1-2,4.73A6.91,6.91,0,0,1,463.74,91,6.56,6.56,0,0,1,461.12,91.51Zm.06-1.62a4.63,4.63,0,0,0,3.48-1.48,5.06,5.06,0,0,0,1.43-3.64,5.12,5.12,0,0,0-1.42-3.66,4.87,4.87,0,0,0-7,0,5.4,5.4,0,0,0,0,7.3A4.63,4.63,0,0,0,461.18,89.89Z"/><path d="M471.53,91V78.48h1.65v1.93A5,5,0,0,1,475,78.62a5.27,5.27,0,0,1,2.54-.6,4.1,4.1,0,0,1,4.49,4.47V91h-1.76V83.27a4.17,4.17,0,0,0-.78-2.78,3,3,0,0,0-2.41-.91,3.48,3.48,0,0,0-2.92,1.18,5.85,5.85,0,0,0-.94,3.69V91Z"/><path d="M3.22,125.54H1.43V103.73H3.22Z"/><path d="M17.17,125.54v-2.28a4.8,4.8,0,0,1-1.74,2.1,4.71,4.71,0,0,1-2.64.73,5.51,5.51,0,0,1-4.33-1.84,7.07,7.07,0,0,1-1.64-4.87,7.25,7.25,0,0,1,1.62-4.89,5.25,5.25,0,0,1,4.18-1.89,5.27,5.27,0,0,1,2.75.69,4.7,4.7,0,0,1,1.8,2v-2.28H18.9v12.48Zm-8.42-6.11a5.64,5.64,0,0,0,1.09,3.73A3.82,3.82,0,0,0,13,124.47a3.73,3.73,0,0,0,3.1-1.43,6.13,6.13,0,0,0,1.13-3.93,5.38,5.38,0,0,0-1.12-3.61A3.86,3.86,0,0,0,13,114.19a3.76,3.76,0,0,0-3.1,1.4A5.9,5.9,0,0,0,8.75,119.43Z"/><path d="M30.42,123.32l1.64-.94a3.3,3.3,0,0,0,1.19,1.56,3.2,3.2,0,0,0,1.9.53,2.58,2.58,0,0,0,1.74-.55,1.89,1.89,0,0,0,.65-1.49Q37.54,121,35,120l-.42-.17a7.92,7.92,0,0,1-2.76-1.6,2.86,2.86,0,0,1-.79-2,3.37,3.37,0,0,1,1.13-2.61,4.17,4.17,0,0,1,2.91-1,4.84,4.84,0,0,1,2.59.66,3.86,3.86,0,0,1,1.56,1.88l-1.59.89a2.54,2.54,0,0,0-1-1.35,3,3,0,0,0-1.69-.46,2.15,2.15,0,0,0-1.49.52,1.71,1.71,0,0,0-.58,1.32,1.61,1.61,0,0,0,.58,1.28,7.52,7.52,0,0,0,2.39,1.11A6.44,6.44,0,0,1,38.61,120a3.5,3.5,0,0,1,.71,2.34,3.38,3.38,0,0,1-1.22,2.74,4.93,4.93,0,0,1-3.29,1,5,5,0,0,1-2.74-.73A4,4,0,0,1,30.42,123.32Z"/><path d="M42.52,108.19a1.27,1.27,0,0,1,.39-.93,1.34,1.34,0,0,1,1.89,0,1.25,1.25,0,0,1,.41.93,1.28,1.28,0,0,1-.39,1,1.34,1.34,0,0,1-1,.38,1.31,1.31,0,0,1-1.33-1.33ZM43,125.54V113.06h1.79v12.48Z"/><path d="M49.83,114.54H47.54v-1.48h2.29v-5.12h1.71v5.12H54v1.48h-2.5v11H49.83Z"/><path d="M58.35,113.06v6.23a7.33,7.33,0,0,0,.81,4,3.08,3.08,0,0,0,2.73,1.17,3.13,3.13,0,0,0,2.75-1.18,7.25,7.25,0,0,0,.83-4v-6.23h1.71v7.12a6.44,6.44,0,0,1-1.33,4.41,5,5,0,0,1-3.93,1.5,5,5,0,0,1-4-1.5,6.39,6.39,0,0,1-1.35-4.41v-7.12Z"/><path d="M81,125.54v-2.28a4.53,4.53,0,0,1-4.37,2.83,5.51,5.51,0,0,1-4.33-1.84,7.07,7.07,0,0,1-1.64-4.87,7.25,7.25,0,0,1,1.62-4.89,5.66,5.66,0,0,1,6.93-1.2,4.62,4.62,0,0,1,1.79,2v-2.28h1.73v12.48Zm-8.41-6.11a5.64,5.64,0,0,0,1.09,3.73,3.82,3.82,0,0,0,3.12,1.31,3.73,3.73,0,0,0,3.1-1.43A6.19,6.19,0,0,0,81,119.11a5.38,5.38,0,0,0-1.12-3.61,3.87,3.87,0,0,0-3.09-1.31,3.76,3.76,0,0,0-3.09,1.4A5.9,5.9,0,0,0,72.6,119.43Z"/><path d="M97.09,115.34a6.77,6.77,0,0,0-1.85-.91,6.93,6.93,0,0,0-2-.3,4.83,4.83,0,0,0-3.7,1.48,5.59,5.59,0,0,0-1.38,4,4.89,4.89,0,0,0,1.43,3.61,4.94,4.94,0,0,0,3.65,1.42,6.45,6.45,0,0,0,2.05-.35,8,8,0,0,0,2-1.05v1.89a7.66,7.66,0,0,1-2,.79,10.72,10.72,0,0,1-2.38.26,6.27,6.27,0,0,1-4.69-1.88,6.61,6.61,0,0,1-1.83-4.81,6.53,6.53,0,0,1,6.87-6.86,10.23,10.23,0,0,1,2.12.21,7.14,7.14,0,0,1,1.76.63Z"/><path d="M100.2,108.19a1.24,1.24,0,0,1,.4-.93,1.28,1.28,0,0,1,.94-.39,1.31,1.31,0,0,1,.95.39,1.24,1.24,0,0,1,.4.93,1.28,1.28,0,0,1-.39,1,1.39,1.39,0,0,1-1.91,0A1.28,1.28,0,0,1,100.2,108.19Zm.44,17.35V113.06h1.79v12.48Z"/><path d="M112.82,126.09a6.45,6.45,0,0,1-2.56-.53,7.23,7.23,0,0,1-2.22-1.51,6.15,6.15,0,0,1-1.43-2.14,6.79,6.79,0,0,1-.5-2.59,6.68,6.68,0,0,1,.51-2.59,6.57,6.57,0,0,1,1.45-2.16,6.66,6.66,0,0,1,2.18-1.47,6.8,6.8,0,0,1,2.57-.5,7.07,7.07,0,0,1,2.63.5,6.68,6.68,0,0,1,2.21,1.47,6.47,6.47,0,0,1,1.49,2.18,6.58,6.58,0,0,1,.51,2.57,6.76,6.76,0,0,1-.5,2.57,6.58,6.58,0,0,1-1.47,2.16,6.87,6.87,0,0,1-4.87,2Zm.06-1.62a4.63,4.63,0,0,0,3.48-1.48,5.39,5.39,0,0,0,0-7.3,4.83,4.83,0,0,0-7,0,5.37,5.37,0,0,0,0,7.3A4.6,4.6,0,0,0,112.88,124.47ZM111,111.05l3-4.93h2.3l-4,4.93Z"/><path d="M123.24,125.54V113.06h1.64V115a5.09,5.09,0,0,1,1.87-1.8,5.32,5.32,0,0,1,2.54-.59,4.1,4.1,0,0,1,4.48,4.47v8.47H132v-7.7a4.16,4.16,0,0,0-.79-2.77,3,3,0,0,0-2.41-.91,3.53,3.53,0,0,0-2.92,1.17A6,6,0,0,0,125,119v6.51Z"/></g></g></svg>