<svg xmlns="http://www.w3.org/2000/svg" viewBox="0 0 482.78 97.24"><title>Recurso 36</title><g id="Capa_2" data-name="Capa 2"><g id="Capa_1-2" data-name="Capa 1"><path d="M1.32,21.81V1.21h10.2V3H3.19V9.41h8.33v1.76H3.19v8.88h8.33v1.76Z"/><path d="M14,9.33h2.15l3.05,4.59,3-4.59h2.11l-4.2,6,4.64,6.49H22.65l-3.49-5-3.44,5H13.55l4.67-6.49Z"/><path d="M27.21,28.08V9.33h1.67v2.33a5.33,5.33,0,0,1,1.88-2.07,4.79,4.79,0,0,1,2.58-.73,5.38,5.38,0,0,1,4.25,1.85,7.24,7.24,0,0,1,1.61,4.91,7.27,7.27,0,0,1-1.58,4.9,5.26,5.26,0,0,1-4.19,1.84,4.85,4.85,0,0,1-2.66-.73,5.34,5.34,0,0,1-1.89-2.13v8.58ZM37.33,15.65a5.92,5.92,0,0,0-1.11-3.81,3.68,3.68,0,0,0-3-1.39,3.85,3.85,0,0,0-3.13,1.35,5.5,5.5,0,0,0-1.14,3.69,5.69,5.69,0,0,0,1.22,3.82,4,4,0,0,0,3.21,1.43,3.53,3.53,0,0,0,2.94-1.34A6,6,0,0,0,37.33,15.65Z"/><path d="M44.7,21.81H42.91V0H44.7Z"/><path d="M55.1,22.36a6.41,6.41,0,0,1-2.56-.53,7.33,7.33,0,0,1-2.23-1.51,6.38,6.38,0,0,1-1.43-2.14,6.78,6.78,0,0,1-.49-2.59,6.63,6.63,0,0,1,2-4.76,6.9,6.9,0,0,1,2.18-1.46,6.67,6.67,0,0,1,2.58-.51,6.83,6.83,0,0,1,2.62.51,7,7,0,0,1,2.22,1.46A6.8,6.8,0,0,1,61.42,13a6.67,6.67,0,0,1,.51,2.58,6.5,6.5,0,0,1-2,4.73,6.92,6.92,0,0,1-2.24,1.51A6.74,6.74,0,0,1,55.1,22.36Zm0-1.62a4.64,4.64,0,0,0,3.48-1.49,5,5,0,0,0,1.43-3.63A5,5,0,0,0,58.64,12a4.83,4.83,0,0,0-7,0,5,5,0,0,0-1.42,3.66,5,5,0,0,0,1.42,3.63A4.62,4.62,0,0,0,55.15,20.74Z"/><path d="M67.24,11.83a7.57,7.57,0,0,1,1.88-2.29,3.52,3.52,0,0,1,2.14-.68,4.63,4.63,0,0,1,.74.07,6.21,6.21,0,0,1,.74.2l-.56,1.63-.59-.14a3.9,3.9,0,0,0-.58,0A3.26,3.26,0,0,0,68.34,12a5.92,5.92,0,0,0-1.1,3.64v6.14H65.51V9.33h1.73Z"/><path d="M83.8,21.81V19.53a4.56,4.56,0,0,1-4.38,2.83,5.5,5.5,0,0,1-4.32-1.85,7,7,0,0,1-1.64-4.86,7.25,7.25,0,0,1,1.62-4.89,5.24,5.24,0,0,1,4.17-1.9,5.34,5.34,0,0,1,2.76.7,4.56,4.56,0,0,1,1.79,2V9.33h1.73V21.81ZM75.39,15.7a5.64,5.64,0,0,0,1.09,3.73,3.81,3.81,0,0,0,3.11,1.31,3.76,3.76,0,0,0,3.11-1.43,6.19,6.19,0,0,0,1.13-3.93,5.38,5.38,0,0,0-1.13-3.61,3.84,3.84,0,0,0-3.08-1.32,3.78,3.78,0,0,0-3.09,1.4A6,6,0,0,0,75.39,15.7Z"/><path d="M111.15,15.62h-9.92a6.11,6.11,0,0,0,1.21,3.8,3.75,3.75,0,0,0,3,1.37,4,4,0,0,0,2.42-.74,5.49,5.49,0,0,0,1.73-2.25l1.59.87a6.87,6.87,0,0,1-2.34,2.79,6.11,6.11,0,0,1-3.4.9,5.78,5.78,0,0,1-4.44-1.84,6.81,6.81,0,0,1-1.69-4.82A7.17,7.17,0,0,1,101,10.75a5.61,5.61,0,0,1,4.4-1.89,5.31,5.31,0,0,1,4.15,1.74,6.7,6.7,0,0,1,1.56,4.64Zm-2.06-1.48A3.88,3.88,0,0,0,108,11.48a3.87,3.87,0,0,0-2.75-.94,3.77,3.77,0,0,0-2.64,1,4.07,4.07,0,0,0-1.23,2.62Z"/><path d="M116.65,21.81h-1.79V0h1.79Z"/><path d="M133.36,21.81h-1.73V9.33h1.73v1.95A4.6,4.6,0,0,1,135,9.48a4.45,4.45,0,0,1,2.34-.62,4.16,4.16,0,0,1,2.33.63,4,4,0,0,1,1.48,1.84,4.79,4.79,0,0,1,4.35-2.47,4.1,4.1,0,0,1,3.12,1.21,4.6,4.6,0,0,1,1.14,3.3v8.44H148V14.06a4.33,4.33,0,0,0-.75-2.76,2.71,2.71,0,0,0-2.24-.93,3,3,0,0,0-2.63,1.17,6.42,6.42,0,0,0-.84,3.7v6.57h-1.71V14.06a4.41,4.41,0,0,0-.72-2.8,2.7,2.7,0,0,0-2.22-.89,3.09,3.09,0,0,0-2.69,1.18,6.36,6.36,0,0,0-.86,3.69Z"/><path d="M163.58,21.81V19.53a4.53,4.53,0,0,1-4.37,2.83,5.52,5.52,0,0,1-4.33-1.85,7,7,0,0,1-1.64-4.86,7.25,7.25,0,0,1,1.62-4.89,5.62,5.62,0,0,1,6.93-1.2,4.56,4.56,0,0,1,1.79,2V9.33h1.73V21.81Zm-8.41-6.11a5.64,5.64,0,0,0,1.09,3.73,3.85,3.85,0,0,0,3.12,1.31,3.76,3.76,0,0,0,3.1-1.43,6.19,6.19,0,0,0,1.13-3.93,5.38,5.38,0,0,0-1.12-3.61,3.84,3.84,0,0,0-3.08-1.32,3.79,3.79,0,0,0-3.1,1.4A6,6,0,0,0,155.17,15.7Z"/><path d="M170,28.08V9.33h1.67v2.33a5.31,5.31,0,0,1,1.87-2.07,4.8,4.8,0,0,1,2.59-.73,5.36,5.36,0,0,1,4.24,1.85,7.19,7.19,0,0,1,1.61,4.91,7.26,7.26,0,0,1-1.57,4.9,5.26,5.26,0,0,1-4.19,1.84,4.83,4.83,0,0,1-2.66-.73,5.34,5.34,0,0,1-1.89-2.13v8.58Zm10.11-12.43a5.92,5.92,0,0,0-1.1-3.81,3.7,3.7,0,0,0-3.05-1.39,3.87,3.87,0,0,0-3.13,1.35,5.55,5.55,0,0,0-1.13,3.69,5.63,5.63,0,0,0,1.22,3.82,4,4,0,0,0,3.21,1.43A3.5,3.5,0,0,0,179,19.4,6,6,0,0,0,180.07,15.65Z"/><path d="M194.76,21.81V19.53a4.56,4.56,0,0,1-4.37,2.83,5.5,5.5,0,0,1-4.33-1.85,7,7,0,0,1-1.64-4.86A7.25,7.25,0,0,1,186,10.76,5.62,5.62,0,0,1,193,9.56a4.56,4.56,0,0,1,1.79,2V9.33h1.73V21.81Zm-8.41-6.11a5.64,5.64,0,0,0,1.09,3.73,3.83,3.83,0,0,0,3.11,1.31,3.76,3.76,0,0,0,3.11-1.43,6.19,6.19,0,0,0,1.13-3.93,5.38,5.38,0,0,0-1.13-3.61,3.82,3.82,0,0,0-3.08-1.32,3.78,3.78,0,0,0-3.09,1.4A6,6,0,0,0,186.35,15.7Z"/><path d="M209.69,9.33h1.84l3.57,9.76,3.3-9.76h1.84l-6.46,18.75H212l2.18-6.36Z"/><path d="M244,15.62h-9.92a6.11,6.11,0,0,0,1.21,3.8,3.76,3.76,0,0,0,3.06,1.37,4,4,0,0,0,2.42-.74,5.58,5.58,0,0,0,1.73-2.25l1.59.87a6.82,6.82,0,0,1-2.35,2.79,6.08,6.08,0,0,1-3.39.9,5.78,5.78,0,0,1-4.44-1.84,6.82,6.82,0,0,1-1.7-4.82,7.17,7.17,0,0,1,1.68-4.95,5.61,5.61,0,0,1,4.4-1.89,5.3,5.3,0,0,1,4.15,1.74A6.7,6.7,0,0,1,244,15.24Zm-2.05-1.48a3.93,3.93,0,0,0-1.14-2.66,3.86,3.86,0,0,0-2.74-.94,3.75,3.75,0,0,0-2.64,1,4,4,0,0,0-1.23,2.62Z"/><path d="M247.58,21.81V9.33h1.64v1.93a5.15,5.15,0,0,1,1.86-1.8,5.28,5.28,0,0,1,2.55-.6,4.46,4.46,0,0,1,3.3,1.19,4.42,4.42,0,0,1,1.18,3.29v8.47h-1.76v-7.7a4.19,4.19,0,0,0-.78-2.78,3,3,0,0,0-2.41-.9,3.53,3.53,0,0,0-2.92,1.17,5.92,5.92,0,0,0-.93,3.69v6.52Z"/><path d="M272.3,11.61a6.69,6.69,0,0,0-1.86-.91,6.93,6.93,0,0,0-2-.3,4.81,4.81,0,0,0-3.7,1.48,5.59,5.59,0,0,0-1.38,4,4.88,4.88,0,0,0,5.08,5,6.45,6.45,0,0,0,2-.35,8.06,8.06,0,0,0,2-1.06v1.9a7.32,7.32,0,0,1-2,.78,10.1,10.1,0,0,1-2.38.26,6.23,6.23,0,0,1-4.69-1.88,6.59,6.59,0,0,1-1.83-4.8,6.55,6.55,0,0,1,6.87-6.87,10.21,10.21,0,0,1,2.12.22,7.14,7.14,0,0,1,1.76.63Z"/><path d="M277.46,9.33v6.23a7.33,7.33,0,0,0,.81,4A3.08,3.08,0,0,0,281,20.74a3.15,3.15,0,0,0,2.75-1.18,7.25,7.25,0,0,0,.83-4V9.33h1.71v7.12A6.44,6.44,0,0,1,285,20.86a5,5,0,0,1-3.93,1.5,5,5,0,0,1-3.95-1.5,6.39,6.39,0,0,1-1.35-4.41V9.33Z"/><path d="M301.63,15.62h-9.92a6.11,6.11,0,0,0,1.21,3.8A3.75,3.75,0,0,0,296,20.79a4,4,0,0,0,2.42-.74,5.51,5.51,0,0,0,1.74-2.25l1.58.87a6.72,6.72,0,0,1-2.34,2.79,6.09,6.09,0,0,1-3.4.9,5.76,5.76,0,0,1-4.43-1.84,6.77,6.77,0,0,1-1.7-4.82,7.17,7.17,0,0,1,1.68-4.95,5.61,5.61,0,0,1,4.4-1.89,5.31,5.31,0,0,1,4.15,1.74,6.7,6.7,0,0,1,1.56,4.64Zm-2.05-1.48a3.93,3.93,0,0,0-1.14-2.66,3.87,3.87,0,0,0-2.75-.94,3.77,3.77,0,0,0-2.64,1,4.07,4.07,0,0,0-1.23,2.62Z"/><path d="M305.23,21.81V9.33h1.65v1.93a5.07,5.07,0,0,1,1.86-1.8,5.27,5.27,0,0,1,2.54-.6,4.47,4.47,0,0,1,3.31,1.19,4.42,4.42,0,0,1,1.18,3.29v8.47H314v-7.7a4.19,4.19,0,0,0-.78-2.78,3,3,0,0,0-2.41-.9,3.51,3.51,0,0,0-2.92,1.17,5.85,5.85,0,0,0-.94,3.69v6.52Z"/><path d="M320.61,10.81h-2.29V9.33h2.29V4.21h1.7V9.33h2.51v1.48h-2.51v11h-1.7Z"/><path d="M329.12,11.83A7.72,7.72,0,0,1,331,9.54a3.55,3.55,0,0,1,2.15-.68,4.74,4.74,0,0,1,.74.07,6.61,6.61,0,0,1,.73.2l-.56,1.63-.58-.14a4,4,0,0,0-.59,0A3.23,3.23,0,0,0,330.23,12a5.86,5.86,0,0,0-1.11,3.64v6.14h-1.73V9.33h1.73Z"/><path d="M345.68,21.81V19.53a4.53,4.53,0,0,1-4.37,2.83A5.52,5.52,0,0,1,337,20.51a7,7,0,0,1-1.64-4.86A7.25,7.25,0,0,1,337,10.76a5.62,5.62,0,0,1,6.93-1.2,4.56,4.56,0,0,1,1.79,2V9.33h1.73V21.81Zm-8.41-6.11a5.64,5.64,0,0,0,1.09,3.73,3.85,3.85,0,0,0,3.12,1.31,3.76,3.76,0,0,0,3.1-1.43,6.19,6.19,0,0,0,1.13-3.93,5.38,5.38,0,0,0-1.12-3.61,3.86,3.86,0,0,0-3.09-1.32,3.78,3.78,0,0,0-3.09,1.4A6,6,0,0,0,337.27,15.7Z"/><path d="M364.21,21.81h-1.79V0h1.79Z"/><path d="M374.61,22.36a6.41,6.41,0,0,1-2.56-.53,7.33,7.33,0,0,1-2.23-1.51,6.54,6.54,0,0,1-1.43-2.14,6.78,6.78,0,0,1-.49-2.59,6.86,6.86,0,0,1,.5-2.59,6.61,6.61,0,0,1,1.45-2.17A6.9,6.9,0,0,1,372,9.37a6.67,6.67,0,0,1,2.58-.51,6.83,6.83,0,0,1,2.62.51,7,7,0,0,1,2.22,1.46A6.8,6.8,0,0,1,380.93,13a6.68,6.68,0,0,1,.52,2.58,6.58,6.58,0,0,1-.51,2.57,6.71,6.71,0,0,1-1.46,2.16,7.07,7.07,0,0,1-2.25,1.51A6.74,6.74,0,0,1,374.61,22.36Zm.05-1.62a4.68,4.68,0,0,0,3.49-1.49,5,5,0,0,0,1.42-3.63A5,5,0,0,0,378.15,12a4.83,4.83,0,0,0-7,0,5,5,0,0,0-1.42,3.66,5,5,0,0,0,1.42,3.63A4.62,4.62,0,0,0,374.66,20.74Z"/><path d="M383.6,19.58l1.64-.94a3.09,3.09,0,0,0,3.09,2.1,2.58,2.58,0,0,0,1.74-.56,1.85,1.85,0,0,0,.65-1.48c0-1-.85-1.77-2.55-2.44l-.42-.16A8,8,0,0,1,385,14.5a2.86,2.86,0,0,1-.79-2,3.37,3.37,0,0,1,1.13-2.61,4.17,4.17,0,0,1,2.91-1,4.84,4.84,0,0,1,2.59.66,3.86,3.86,0,0,1,1.56,1.88l-1.59.89a2.49,2.49,0,0,0-1-1.35,3,3,0,0,0-1.69-.47,2.16,2.16,0,0,0-1.49.53,1.69,1.69,0,0,0-.58,1.32,1.63,1.63,0,0,0,.58,1.28A7.52,7.52,0,0,0,389,14.69a6.44,6.44,0,0,1,2.76,1.56,3.48,3.48,0,0,1,.71,2.34,3.38,3.38,0,0,1-1.22,2.74,5.65,5.65,0,0,1-6,.3A4.06,4.06,0,0,1,383.6,19.58Z"/><path d="M406.28,28.08V9.33H408v2.33a5.31,5.31,0,0,1,1.87-2.07,4.82,4.82,0,0,1,2.59-.73,5.34,5.34,0,0,1,4.24,1.85,7.19,7.19,0,0,1,1.61,4.91,7.26,7.26,0,0,1-1.57,4.9,5.26,5.26,0,0,1-4.19,1.84,4.83,4.83,0,0,1-2.66-.73A5.34,5.34,0,0,1,408,19.5v8.58Zm10.11-12.43a5.92,5.92,0,0,0-1.1-3.81,3.7,3.7,0,0,0-3.05-1.39,3.87,3.87,0,0,0-3.13,1.35A5.55,5.55,0,0,0,408,15.49a5.63,5.63,0,0,0,1.22,3.82,4,4,0,0,0,3.21,1.43,3.5,3.5,0,0,0,2.93-1.34A6,6,0,0,0,416.39,15.65Z"/><path d="M423.6,9.33v6.23a7.33,7.33,0,0,0,.81,4,3.08,3.08,0,0,0,2.73,1.17,3.15,3.15,0,0,0,2.75-1.18,7.25,7.25,0,0,0,.83-4V9.33h1.71v7.12a6.44,6.44,0,0,1-1.33,4.41,5.92,5.92,0,0,1-7.88,0,6.39,6.39,0,0,1-1.35-4.41V9.33Z"/><path d="M437.05,21.81V9.33h1.64v1.93a5.09,5.09,0,0,1,1.87-1.8,5.21,5.21,0,0,1,2.54-.6,4.45,4.45,0,0,1,3.3,1.19,4.42,4.42,0,0,1,1.18,3.29v8.47h-1.75v-7.7a4.14,4.14,0,0,0-.79-2.78,3,3,0,0,0-2.41-.9,3.53,3.53,0,0,0-2.92,1.17,5.92,5.92,0,0,0-.93,3.69v6.52Z"/><path d="M452.42,10.81h-2.29V9.33h2.29V4.21h1.71V9.33h2.5v1.48h-2.5v11h-1.71Z"/><path d="M464.88,22.36a6.41,6.41,0,0,1-2.56-.53,7.33,7.33,0,0,1-2.23-1.51,6.38,6.38,0,0,1-1.43-2.14,6.78,6.78,0,0,1-.49-2.59,6.63,6.63,0,0,1,1.95-4.76,6.9,6.9,0,0,1,2.18-1.46,6.67,6.67,0,0,1,2.58-.51,6.83,6.83,0,0,1,2.62.51,7,7,0,0,1,2.22,1.46A6.8,6.8,0,0,1,471.2,13a6.67,6.67,0,0,1,.51,2.58,6.58,6.58,0,0,1-.5,2.57,6.71,6.71,0,0,1-1.46,2.16,7.07,7.07,0,0,1-2.25,1.51A6.74,6.74,0,0,1,464.88,22.36Zm.05-1.62a4.68,4.68,0,0,0,3.49-1.49,5,5,0,0,0,1.42-3.63A5,5,0,0,0,468.42,12a4.83,4.83,0,0,0-7,0A5,5,0,0,0,460,15.62a5,5,0,0,0,1.42,3.63A4.62,4.62,0,0,0,464.93,20.74Z"/><path d="M473.87,19.58l1.64-.94a3.09,3.09,0,0,0,3.09,2.1,2.58,2.58,0,0,0,1.74-.56A1.85,1.85,0,0,0,481,18.7c0-1-.85-1.77-2.55-2.44L478,16.1a8,8,0,0,1-2.76-1.6,2.86,2.86,0,0,1-.79-2,3.37,3.37,0,0,1,1.13-2.61,4.17,4.17,0,0,1,2.91-1,4.84,4.84,0,0,1,2.59.66,3.86,3.86,0,0,1,1.56,1.88l-1.59.89a2.49,2.49,0,0,0-1-1.35,3,3,0,0,0-1.69-.47,2.16,2.16,0,0,0-1.49.53,1.69,1.69,0,0,0-.58,1.32,1.63,1.63,0,0,0,.58,1.28,7.52,7.52,0,0,0,2.39,1.11,6.44,6.44,0,0,1,2.76,1.56,3.48,3.48,0,0,1,.71,2.34,3.38,3.38,0,0,1-1.22,2.74,5.65,5.65,0,0,1-6,.3A4.06,4.06,0,0,1,473.87,19.58Z"/><path d="M10.31,56.39V54.11a4.69,4.69,0,0,1-1.73,2.11A4.68,4.68,0,0,1,6,56.93a5.49,5.49,0,0,1-4.33-1.84A7.07,7.07,0,0,1,0,50.22a7.29,7.29,0,0,1,1.62-4.89A5.25,5.25,0,0,1,5.8,43.44a5.09,5.09,0,0,1,2.73.7,4.49,4.49,0,0,1,1.78,2V34.58h1.76V56.39ZM1.93,50.28A5.66,5.66,0,0,0,3,54a3.81,3.81,0,0,0,3.11,1.31,3.74,3.74,0,0,0,3.09-1.43A6.19,6.19,0,0,0,10.34,50a5.41,5.41,0,0,0-1.11-3.61A3.79,3.79,0,0,0,6.16,45a3.78,3.78,0,0,0-3.09,1.4A5.93,5.93,0,0,0,1.93,50.28Z"/><path d="M22.33,56.93a6.4,6.4,0,0,1-2.56-.52,7.19,7.19,0,0,1-2.23-1.52,6.39,6.39,0,0,1-1.43-2.13,7,7,0,0,1,0-5.18,6.61,6.61,0,0,1,1.45-2.17A6.74,6.74,0,0,1,19.75,44a6.67,6.67,0,0,1,2.58-.51,6.88,6.88,0,0,1,4.84,2,6.64,6.64,0,0,1,1.48,2.18,6.63,6.63,0,0,1-1.45,7.3A6.94,6.94,0,0,1,25,56.41,6.73,6.73,0,0,1,22.33,56.93Zm.05-1.61a4.68,4.68,0,0,0,3.49-1.49,5.39,5.39,0,0,0,0-7.29,4.83,4.83,0,0,0-7,0,5.39,5.39,0,0,0,0,7.29A4.62,4.62,0,0,0,22.38,55.32Z"/><path d="M32.74,56.39V43.91h1.65v1.92A5,5,0,0,1,36.25,44a5.24,5.24,0,0,1,2.54-.6,4.1,4.1,0,0,1,4.49,4.48v8.47H41.52v-7.7a4.19,4.19,0,0,0-.78-2.78A3,3,0,0,0,38.33,45a3.51,3.51,0,0,0-2.92,1.18,5.85,5.85,0,0,0-.94,3.69v6.52Z"/><path d="M57,56.39V54.11a4.46,4.46,0,0,1-4.35,2.82,5.52,5.52,0,0,1-4.33-1.84,7.07,7.07,0,0,1-1.64-4.87,7.29,7.29,0,0,1,1.62-4.89,5.25,5.25,0,0,1,4.18-1.89,5.15,5.15,0,0,1,2.74.7,4.61,4.61,0,0,1,1.78,2V34.58h1.75V56.39Zm-8.39-6.11A5.66,5.66,0,0,0,49.7,54a3.85,3.85,0,0,0,3.12,1.31,3.72,3.72,0,0,0,3.08-1.43A6.19,6.19,0,0,0,57,50a5.41,5.41,0,0,0-1.11-3.61,4.17,4.17,0,0,0-6.16.08A5.93,5.93,0,0,0,48.61,50.28Z"/><path d="M74.06,50.2H64.14A6.08,6.08,0,0,0,65.35,54a3.76,3.76,0,0,0,3.06,1.38,4.1,4.1,0,0,0,2.42-.74,5.58,5.58,0,0,0,1.73-2.25l1.59.87A6.88,6.88,0,0,1,71.8,56a6.07,6.07,0,0,1-3.39.89A5.77,5.77,0,0,1,64,55.1a6.84,6.84,0,0,1-1.7-4.82,7.14,7.14,0,0,1,1.68-5,5.61,5.61,0,0,1,4.4-1.89,5.3,5.3,0,0,1,4.15,1.74,6.68,6.68,0,0,1,1.56,4.64Zm-2-1.48a3.91,3.91,0,0,0-1.14-2.66,3.86,3.86,0,0,0-2.74-.94,3.71,3.71,0,0,0-2.64,1,4,4,0,0,0-1.23,2.62Z"/><path d="M101.82,50.2H91.9A6,6,0,0,0,93.11,54a3.75,3.75,0,0,0,3,1.38,4.08,4.08,0,0,0,2.42-.74,5.58,5.58,0,0,0,1.73-2.25l1.59.87A6.94,6.94,0,0,1,99.56,56a6.13,6.13,0,0,1-3.4.89,5.77,5.77,0,0,1-4.44-1.83A6.83,6.83,0,0,1,90,50.28a7.14,7.14,0,0,1,1.68-5,5.59,5.59,0,0,1,4.39-1.89,5.3,5.3,0,0,1,4.15,1.74,6.68,6.68,0,0,1,1.57,4.64Zm-2.06-1.48a3.57,3.57,0,0,0-3.88-3.6,3.72,3.72,0,0,0-2.64,1A4,4,0,0,0,92,48.72Z"/><path d="M104,54.16l1.64-.94a3.33,3.33,0,0,0,1.19,1.57,3.26,3.26,0,0,0,1.89.53,2.59,2.59,0,0,0,1.75-.56,1.85,1.85,0,0,0,.65-1.48c0-1-.85-1.77-2.55-2.44a3.25,3.25,0,0,1-.42-.17,7.77,7.77,0,0,1-2.76-1.59,2.82,2.82,0,0,1-.79-2,3.37,3.37,0,0,1,1.13-2.61,4.17,4.17,0,0,1,2.91-1,4.84,4.84,0,0,1,2.59.66A3.89,3.89,0,0,1,112.79,46l-1.59.89a2.59,2.59,0,0,0-1-1.35,3,3,0,0,0-1.69-.47,2.16,2.16,0,0,0-1.49.53,1.69,1.69,0,0,0-.58,1.31,1.6,1.6,0,0,0,.58,1.28,7.7,7.7,0,0,0,2.39,1.12,6.34,6.34,0,0,1,2.76,1.56,3.47,3.47,0,0,1,.71,2.33,3.4,3.4,0,0,1-1.22,2.75,5,5,0,0,1-3.29,1,5,5,0,0,1-2.74-.72A4,4,0,0,1,104,54.16Z"/><path d="M116.79,45.38h-2.3V43.91h2.3V38.78h1.7v5.13H121v1.47h-2.5v11h-1.7Z"/><path d="M132.78,56.39V54.11a4.71,4.71,0,0,1-1.73,2.1,4.79,4.79,0,0,1-2.64.72,5.51,5.51,0,0,1-4.33-1.84,7.07,7.07,0,0,1-1.64-4.87,7.29,7.29,0,0,1,1.62-4.89,5.25,5.25,0,0,1,4.18-1.89,5.18,5.18,0,0,1,2.75.7,4.51,4.51,0,0,1,1.79,2V43.91h1.73V56.39Zm-8.41-6.11A5.66,5.66,0,0,0,125.46,54a3.85,3.85,0,0,0,3.12,1.31,3.76,3.76,0,0,0,3.1-1.43A6.19,6.19,0,0,0,132.81,50a5.36,5.36,0,0,0-1.12-3.61A3.84,3.84,0,0,0,128.61,45a3.79,3.79,0,0,0-3.1,1.4A5.93,5.93,0,0,0,124.37,50.28Zm2.83-8.39,3-4.92h2.3l-4,4.92Z"/><path d="M139.16,56.39V43.91h1.64v1.92A5.15,5.15,0,0,1,142.67,44a5.21,5.21,0,0,1,2.54-.6,4.11,4.11,0,0,1,4.49,4.48v8.47h-1.76v-7.7a4.19,4.19,0,0,0-.78-2.78,3.06,3.06,0,0,0-2.42-.91,3.53,3.53,0,0,0-2.92,1.18,5.92,5.92,0,0,0-.93,3.69v6.52Z"/><path d="M173.27,56.93a6.4,6.4,0,0,1-2.56-.52,7,7,0,0,1-2.22-1.52,6.27,6.27,0,0,1-1.44-2.13A6.75,6.75,0,0,1,170.69,44a6.67,6.67,0,0,1,2.58-.51,6.88,6.88,0,0,1,4.84,2,6.64,6.64,0,0,1,1.48,2.18,6.67,6.67,0,0,1,0,5.14,6.35,6.35,0,0,1-1.46,2.16,6.94,6.94,0,0,1-2.25,1.52A6.73,6.73,0,0,1,173.27,56.93Zm.06-1.61a4.64,4.64,0,0,0,3.48-1.49,5.37,5.37,0,0,0,0-7.29,4.84,4.84,0,0,0-7,0,5.39,5.39,0,0,0,0,7.29A4.64,4.64,0,0,0,173.33,55.32Z"/><path d="M193.39,46.19a6.43,6.43,0,0,0-1.86-.91,6.86,6.86,0,0,0-2-.3,4.8,4.8,0,0,0-3.7,1.48,5.59,5.59,0,0,0-1.38,4A4.87,4.87,0,0,0,185.86,54a5,5,0,0,0,3.65,1.42,6.43,6.43,0,0,0,2-.35,8.29,8.29,0,0,0,2-1.06V56a7.38,7.38,0,0,1-2,.78,10.59,10.59,0,0,1-2.38.26,6.26,6.26,0,0,1-4.68-1.88,6.59,6.59,0,0,1-1.83-4.8,6.55,6.55,0,0,1,6.86-6.87,9.51,9.51,0,0,1,2.12.22,7,7,0,0,1,1.77.63Z"/><path d="M198.55,43.91v6.23a7.36,7.36,0,0,0,.81,4,3.77,3.77,0,0,0,5.48,0,7.1,7.1,0,0,0,.83-4V43.91h1.72V51a6.44,6.44,0,0,1-1.34,4.41,5,5,0,0,1-3.92,1.49,5,5,0,0,1-4-1.49A6.39,6.39,0,0,1,196.82,51V43.91Z"/><path d="M213.73,46.41a7.72,7.72,0,0,1,1.88-2.29,3.55,3.55,0,0,1,2.15-.68,4.74,4.74,0,0,1,.74.07,5.08,5.08,0,0,1,.74.2l-.57,1.63a4.92,4.92,0,0,0-.58-.14,3,3,0,0,0-.59-.06,3.25,3.25,0,0,0-2.66,1.47,5.84,5.84,0,0,0-1.11,3.64v6.14H212V43.91h1.73Z"/><path d="M222.81,46.41a7.57,7.57,0,0,1,1.88-2.29,3.52,3.52,0,0,1,2.14-.68,4.63,4.63,0,0,1,.74.07,4.76,4.76,0,0,1,.74.2l-.56,1.63a5.09,5.09,0,0,0-.59-.14,2.93,2.93,0,0,0-.58-.06,3.27,3.27,0,0,0-2.67,1.47,5.9,5.9,0,0,0-1.1,3.64v6.14h-1.73V43.91h1.73Z"/><path d="M229.83,39a1.28,1.28,0,0,1,.39-.94,1.31,1.31,0,0,1,.95-.38,1.32,1.32,0,0,1,1,.38,1.29,1.29,0,0,1,.4.94,1.26,1.26,0,0,1-.39.94,1.34,1.34,0,0,1-1,.38,1.31,1.31,0,0,1-.95-.38A1.26,1.26,0,0,1,229.83,39Zm.44,17.35V43.91h1.78V56.39Z"/><path d="M247.5,50.2h-9.92A6.08,6.08,0,0,0,238.79,54a3.76,3.76,0,0,0,3.06,1.38,4.1,4.1,0,0,0,2.42-.74A5.58,5.58,0,0,0,246,52.38l1.59.87A6.88,6.88,0,0,1,245.24,56a6.07,6.07,0,0,1-3.39.89,5.77,5.77,0,0,1-4.44-1.83,6.84,6.84,0,0,1-1.7-4.82,7.14,7.14,0,0,1,1.68-5,5.61,5.61,0,0,1,4.4-1.89,5.3,5.3,0,0,1,4.15,1.74,6.68,6.68,0,0,1,1.56,4.64Zm-2.05-1.48a3.57,3.57,0,0,0-3.89-3.6,3.68,3.68,0,0,0-2.63,1,4,4,0,0,0-1.23,2.62Z"/><path d="M251.1,56.39V43.91h1.65v1.92A5.2,5.2,0,0,1,254.61,44a5.27,5.27,0,0,1,2.54-.6,4.51,4.51,0,0,1,3.31,1.18,4.46,4.46,0,0,1,1.18,3.3v8.47h-1.76v-7.7a4.19,4.19,0,0,0-.78-2.78,3,3,0,0,0-2.41-.91,3.52,3.52,0,0,0-2.92,1.18,5.92,5.92,0,0,0-.94,3.69v6.52Z"/><path d="M275.36,56.39V54.11A4.46,4.46,0,0,1,271,56.93a5.49,5.49,0,0,1-4.32-1.84,7,7,0,0,1-1.64-4.87,7.29,7.29,0,0,1,1.62-4.89,5.23,5.23,0,0,1,4.17-1.89,5.12,5.12,0,0,1,2.74.7,4.49,4.49,0,0,1,1.78,2V34.58h1.76V56.39ZM267,50.28A5.66,5.66,0,0,0,268.07,54a3.81,3.81,0,0,0,3.11,1.31,3.71,3.71,0,0,0,3.08-1.43A6.19,6.19,0,0,0,275.39,50a5.41,5.41,0,0,0-1.11-3.61,4.17,4.17,0,0,0-6.16.08A5.93,5.93,0,0,0,267,50.28Z"/><path d="M287.38,56.93a6.37,6.37,0,0,1-2.56-.52,7.19,7.19,0,0,1-2.23-1.52,6.25,6.25,0,0,1-1.43-2.13,6.78,6.78,0,0,1-.49-2.59,6.63,6.63,0,0,1,1.95-4.76A6.74,6.74,0,0,1,284.8,44a6.67,6.67,0,0,1,2.58-.51A6.87,6.87,0,0,1,290,44a6.78,6.78,0,0,1,3.7,3.64,6.79,6.79,0,0,1,0,5.14,6.38,6.38,0,0,1-1.47,2.16,6.76,6.76,0,0,1-4.86,2Zm.05-1.61a4.64,4.64,0,0,0,3.48-1.49,5.37,5.37,0,0,0,0-7.29,4.83,4.83,0,0,0-7,0,5.39,5.39,0,0,0,0,7.29A4.61,4.61,0,0,0,287.43,55.32Z"/><path d="M309.8,54.16l1.64-.94a3.08,3.08,0,0,0,3.08,2.1,2.59,2.59,0,0,0,1.75-.56,1.85,1.85,0,0,0,.65-1.48c0-1-.85-1.77-2.55-2.44a3.25,3.25,0,0,1-.42-.17,7.68,7.68,0,0,1-2.76-1.59,2.82,2.82,0,0,1-.79-2,3.37,3.37,0,0,1,1.13-2.61,4.17,4.17,0,0,1,2.91-1,4.84,4.84,0,0,1,2.59.66A3.89,3.89,0,0,1,318.59,46l-1.59.89a2.59,2.59,0,0,0-1-1.35,3,3,0,0,0-1.69-.47,2.16,2.16,0,0,0-1.49.53,1.69,1.69,0,0,0-.58,1.31,1.6,1.6,0,0,0,.58,1.28,7.7,7.7,0,0,0,2.39,1.12A6.34,6.34,0,0,1,318,50.83a3.47,3.47,0,0,1,.71,2.33,3.43,3.43,0,0,1-1.22,2.75,5,5,0,0,1-3.29,1,5,5,0,0,1-2.74-.72A4,4,0,0,1,309.8,54.16Z"/><path d="M321.9,39a1.31,1.31,0,0,1,1.33-1.32,1.29,1.29,0,0,1,.95.38,1.33,1.33,0,0,1,0,1.88,1.34,1.34,0,0,1-1,.38,1.33,1.33,0,0,1-1-.38A1.29,1.29,0,0,1,321.9,39Zm.43,17.35V43.91h1.79V56.39Z"/><path d="M329.21,45.38h-2.29V43.91h2.29V38.78h1.71v5.13h2.5v1.47h-2.5v11h-1.71Z"/><path d="M337.73,43.91v6.23a7.46,7.46,0,0,0,.8,4,3.77,3.77,0,0,0,5.48,0,7.1,7.1,0,0,0,.83-4V43.91h1.72V51a6.39,6.39,0,0,1-1.34,4.41,5,5,0,0,1-3.92,1.49,5,5,0,0,1-3.95-1.49A6.39,6.39,0,0,1,336,51V43.91Z"/><path d="M360.39,56.39V54.11a4.67,4.67,0,0,1-1.74,2.1,4.73,4.73,0,0,1-2.63.72,5.49,5.49,0,0,1-4.33-1.84,7.07,7.07,0,0,1-1.64-4.87,7.29,7.29,0,0,1,1.62-4.89,5.63,5.63,0,0,1,6.93-1.19,4.51,4.51,0,0,1,1.79,2V43.91h1.73V56.39ZM352,50.28A5.66,5.66,0,0,0,353.07,54a3.81,3.81,0,0,0,3.11,1.31,3.76,3.76,0,0,0,3.11-1.43A6.19,6.19,0,0,0,360.42,50a5.36,5.36,0,0,0-1.13-3.61A3.82,3.82,0,0,0,356.21,45a3.78,3.78,0,0,0-3.09,1.4A5.93,5.93,0,0,0,352,50.28Z"/><path d="M376.47,46.19a6.5,6.5,0,0,0-1.85-.91,7,7,0,0,0-2-.3,4.8,4.8,0,0,0-3.7,1.48,5.59,5.59,0,0,0-1.38,4A4.91,4.91,0,0,0,368.94,54a5,5,0,0,0,3.65,1.42,6.49,6.49,0,0,0,2.05-.35,8.24,8.24,0,0,0,2-1.06V56a7.38,7.38,0,0,1-2,.78,10.56,10.56,0,0,1-2.37.26,6.27,6.27,0,0,1-4.69-1.88,6.59,6.59,0,0,1-1.83-4.8,6.55,6.55,0,0,1,6.87-6.87,9.64,9.64,0,0,1,2.12.22,6.89,6.89,0,0,1,1.76.63Z"/><path d="M379.58,39a1.25,1.25,0,0,1,.4-.94,1.27,1.27,0,0,1,.94-.38,1.32,1.32,0,0,1,.95.38,1.29,1.29,0,0,1,.4.94,1.26,1.26,0,0,1-.39.94,1.34,1.34,0,0,1-1,.38A1.31,1.31,0,0,1,380,40,1.26,1.26,0,0,1,379.58,39ZM380,56.39V43.91h1.78V56.39Z"/><path d="M392.2,56.93a6.44,6.44,0,0,1-2.56-.52,7.15,7.15,0,0,1-2.22-1.52A6.27,6.27,0,0,1,386,52.76a7,7,0,0,1-.49-2.59,6.65,6.65,0,0,1,.51-2.59,6.46,6.46,0,0,1,1.45-2.17,6.69,6.69,0,0,1,4.75-2,6.88,6.88,0,0,1,2.63.51A6.76,6.76,0,0,1,397,45.41a6.83,6.83,0,0,1,1.49,2.18,6.67,6.67,0,0,1,.51,2.58,6.54,6.54,0,0,1-.51,2.56,6.21,6.21,0,0,1-1.46,2.16,6.9,6.9,0,0,1-2.24,1.52A6.78,6.78,0,0,1,392.2,56.93Zm.06-1.61a4.64,4.64,0,0,0,3.48-1.49,5.37,5.37,0,0,0,0-7.29,4.84,4.84,0,0,0-7,0,5.39,5.39,0,0,0,0,7.29A4.64,4.64,0,0,0,392.26,55.32Z"/><path d="M402.61,56.39V43.91h1.65v1.92A5.2,5.2,0,0,1,406.12,44a5.27,5.27,0,0,1,2.54-.6A4.51,4.51,0,0,1,412,44.62a4.46,4.46,0,0,1,1.18,3.3v8.47h-1.76v-7.7a4.19,4.19,0,0,0-.78-2.78A3,3,0,0,0,408.2,45a3.52,3.52,0,0,0-2.92,1.18,5.92,5.92,0,0,0-.94,3.69v6.52Z"/><path d="M428.35,50.2h-9.92A6.08,6.08,0,0,0,419.64,54a3.76,3.76,0,0,0,3.05,1.38,4.08,4.08,0,0,0,2.42-.74,5.49,5.49,0,0,0,1.73-2.25l1.59.87A6.94,6.94,0,0,1,426.09,56a6.11,6.11,0,0,1-3.4.89,5.77,5.77,0,0,1-4.44-1.83,6.83,6.83,0,0,1-1.69-4.82,7.14,7.14,0,0,1,1.68-5,5.61,5.61,0,0,1,4.4-1.89,5.31,5.31,0,0,1,4.15,1.74,6.68,6.68,0,0,1,1.56,4.64Zm-2.06-1.48a3.57,3.57,0,0,0-3.88-3.6,3.72,3.72,0,0,0-2.64,1,4,4,0,0,0-1.23,2.62Z"/><path d="M430.53,54.16l1.64-.94a3.09,3.09,0,0,0,3.09,2.1,2.58,2.58,0,0,0,1.74-.56,1.85,1.85,0,0,0,.65-1.48c0-1-.85-1.77-2.55-2.44a3.25,3.25,0,0,1-.42-.17,7.87,7.87,0,0,1-2.76-1.59,2.86,2.86,0,0,1-.79-2,3.37,3.37,0,0,1,1.13-2.61,4.17,4.17,0,0,1,2.91-1,4.84,4.84,0,0,1,2.59.66A3.89,3.89,0,0,1,439.32,46l-1.59.89a2.49,2.49,0,0,0-1-1.35,3,3,0,0,0-1.69-.47,2.11,2.11,0,0,0-1.48.53,1.7,1.7,0,0,0-.59,1.31,1.6,1.6,0,0,0,.58,1.28A7.7,7.7,0,0,0,436,49.27a6.34,6.34,0,0,1,2.76,1.56,3.47,3.47,0,0,1,.71,2.33,3.4,3.4,0,0,1-1.22,2.75,5,5,0,0,1-3.29,1,5.07,5.07,0,0,1-2.74-.72A4.1,4.1,0,0,1,430.53,54.16Z"/><path d="M465.63,56.39V54.11a4.46,4.46,0,0,1-4.35,2.82A5.51,5.51,0,0,1,457,55.09a7.07,7.07,0,0,1-1.64-4.87,7.29,7.29,0,0,1,1.62-4.89,5.25,5.25,0,0,1,4.18-1.89,5.15,5.15,0,0,1,2.74.7,4.61,4.61,0,0,1,1.78,2V34.58h1.75V56.39Zm-8.39-6.11A5.66,5.66,0,0,0,458.33,54a3.85,3.85,0,0,0,3.12,1.31,3.72,3.72,0,0,0,3.08-1.43A6.19,6.19,0,0,0,465.65,50a5.41,5.41,0,0,0-1.11-3.61,4.17,4.17,0,0,0-6.16.08A5.93,5.93,0,0,0,457.24,50.28Z"/><path d="M482.69,50.2h-9.92A6.08,6.08,0,0,0,474,54,3.76,3.76,0,0,0,477,55.37a4.1,4.1,0,0,0,2.42-.74,5.58,5.58,0,0,0,1.73-2.25l1.59.87A6.88,6.88,0,0,1,480.43,56a6.07,6.07,0,0,1-3.39.89,5.77,5.77,0,0,1-4.44-1.83,6.84,6.84,0,0,1-1.7-4.82,7.14,7.14,0,0,1,1.68-5,5.61,5.61,0,0,1,4.4-1.89,5.3,5.3,0,0,1,4.15,1.74,6.68,6.68,0,0,1,1.56,4.64Zm-2.05-1.48a3.57,3.57,0,0,0-3.89-3.6,3.7,3.7,0,0,0-2.63,1,4,4,0,0,0-1.23,2.62Z"/><path d="M.75,73.62a1.28,1.28,0,0,1,.39-.94,1.29,1.29,0,0,1,.94-.39,1.31,1.31,0,0,1,.95.39,1.25,1.25,0,0,1,.4.94,1.31,1.31,0,0,1-.38.94,1.34,1.34,0,0,1-1,.38,1.33,1.33,0,0,1-1-.38A1.27,1.27,0,0,1,.75,73.62ZM1.18,91V78.48H3V91Z"/><path d="M7.7,91V78.48H9.34v1.93a5.06,5.06,0,0,1,1.87-1.79,5.21,5.21,0,0,1,2.54-.6,4.46,4.46,0,0,1,3.3,1.18,4.45,4.45,0,0,1,1.18,3.29V91H16.48V83.27a4.17,4.17,0,0,0-.79-2.78,3,3,0,0,0-2.41-.91,3.5,3.5,0,0,0-2.92,1.18,5.92,5.92,0,0,0-.93,3.69V91Z"/><path d="M21.29,88.74l1.64-.94a3.38,3.38,0,0,0,1.19,1.57,3.27,3.27,0,0,0,1.9.52,2.58,2.58,0,0,0,1.74-.55,1.87,1.87,0,0,0,.65-1.49q0-1.42-2.55-2.43l-.42-.17a8,8,0,0,1-2.76-1.6,2.84,2.84,0,0,1-.79-2A3.37,3.37,0,0,1,23,79a4.17,4.17,0,0,1,2.91-1,4.84,4.84,0,0,1,2.59.66,3.84,3.84,0,0,1,1.56,1.89l-1.59.88a2.54,2.54,0,0,0-1-1.35,3,3,0,0,0-1.69-.46,2.11,2.11,0,0,0-1.49.53,1.69,1.69,0,0,0-.58,1.31,1.61,1.61,0,0,0,.58,1.28,7.52,7.52,0,0,0,2.39,1.11,6.33,6.33,0,0,1,2.76,1.57,3.47,3.47,0,0,1,.71,2.33A3.36,3.36,0,0,1,29,90.48a4.93,4.93,0,0,1-3.29,1,5.07,5.07,0,0,1-2.74-.72A4.14,4.14,0,0,1,21.29,88.74Z"/><path d="M44.43,84.77H34.51a6.09,6.09,0,0,0,1.21,3.8A3.76,3.76,0,0,0,38.78,90a4,4,0,0,0,2.42-.75A5.44,5.44,0,0,0,42.93,87l1.59.88a7,7,0,0,1-2.35,2.79,6.16,6.16,0,0,1-3.39.89,5.77,5.77,0,0,1-4.44-1.83,6.84,6.84,0,0,1-1.7-4.82,7.18,7.18,0,0,1,1.68-5A5.64,5.64,0,0,1,38.72,78a5.3,5.3,0,0,1,4.15,1.74,6.67,6.67,0,0,1,1.56,4.63Zm-2-1.48a3.58,3.58,0,0,0-3.88-3.6,3.71,3.71,0,0,0-2.64,1,4,4,0,0,0-1.23,2.61Z"/><path d="M59,78.48V88.8c0,1.64,0,2.89-.13,3.75a5.87,5.87,0,0,1-.45,1.93,4.31,4.31,0,0,1-2,2.08,7.47,7.47,0,0,1-3.38.68,6.63,6.63,0,0,1-3.87-1,4.1,4.1,0,0,1-1.69-2.92h2.17a2.53,2.53,0,0,0,1.11,1.75,4.35,4.35,0,0,0,2.42.59,5.15,5.15,0,0,0,2.08-.41,3.05,3.05,0,0,0,1.38-1.12,3.08,3.08,0,0,0,.45-1.08,9.7,9.7,0,0,0,.13-1.89V88.66a4.47,4.47,0,0,1-1.77,2.09,4.91,4.91,0,0,1-2.72.76,5.26,5.26,0,0,1-4.2-1.83A7.31,7.31,0,0,1,47,84.77a7.22,7.22,0,0,1,1.61-4.9A5.35,5.35,0,0,1,52.85,78a4.84,4.84,0,0,1,2.68.77,4.3,4.3,0,0,1,1.72,2V78.48Zm-6,1.13A3.74,3.74,0,0,0,50,81a7.13,7.13,0,0,0,0,7.56,3.54,3.54,0,0,0,3,1.34,4,4,0,0,0,3.2-1.42,5.71,5.71,0,0,0,1.2-3.82A5.56,5.56,0,0,0,56.15,81,3.81,3.81,0,0,0,53,79.61Z"/><path d="M65.35,78.48v6.24a7.36,7.36,0,0,0,.81,4,3.79,3.79,0,0,0,5.48,0,7.14,7.14,0,0,0,.83-4V78.48h1.72V85.6A6.44,6.44,0,0,1,72.85,90a5,5,0,0,1-3.92,1.5A5.07,5.07,0,0,1,65,90a6.39,6.39,0,0,1-1.35-4.41V78.48Z"/><path d="M80.54,81a7.62,7.62,0,0,1,1.87-2.3A3.55,3.55,0,0,1,84.56,78a3.78,3.78,0,0,1,.74.07,5.08,5.08,0,0,1,.74.2l-.57,1.63a3.51,3.51,0,0,0-.58-.14,3,3,0,0,0-.58-.06,3.27,3.27,0,0,0-2.67,1.46,5.87,5.87,0,0,0-1.1,3.65V91H78.8V78.48h1.74Z"/><path d="M87.56,73.62a1.28,1.28,0,0,1,.39-.94,1.34,1.34,0,0,1,1.89,0,1.25,1.25,0,0,1,.4.94,1.31,1.31,0,0,1-.38.94,1.34,1.34,0,0,1-1,.38,1.33,1.33,0,0,1-1-.38A1.27,1.27,0,0,1,87.56,73.62ZM88,91V78.48h1.79V91Z"/><path d="M103.75,91V88.68A4.63,4.63,0,0,1,102,90.79a4.7,4.7,0,0,1-2.62.72,5.49,5.49,0,0,1-4.32-1.84,7,7,0,0,1-1.64-4.87,7.25,7.25,0,0,1,1.62-4.89A5.23,5.23,0,0,1,99.23,78a5.12,5.12,0,0,1,2.74.7,4.52,4.52,0,0,1,1.78,2V69.15h1.76V91Zm-8.38-6.1a5.63,5.63,0,0,0,1.09,3.72,3.79,3.79,0,0,0,3.11,1.31,3.7,3.7,0,0,0,3.08-1.42,6.24,6.24,0,0,0,1.13-3.94,5.43,5.43,0,0,0-1.11-3.61A4.19,4.19,0,0,0,96.5,81,6,6,0,0,0,95.37,84.86Z"/><path d="M119.31,91V88.68a4.52,4.52,0,0,1-4.37,2.83,5.49,5.49,0,0,1-4.33-1.84A7.07,7.07,0,0,1,109,84.8a7.25,7.25,0,0,1,1.62-4.89,5.63,5.63,0,0,1,6.93-1.19,4.54,4.54,0,0,1,1.79,2V78.48H121V91Zm-8.41-6.1A5.63,5.63,0,0,0,112,88.58a4.23,4.23,0,0,0,6.22-.11,6.24,6.24,0,0,0,1.13-3.94,5.38,5.38,0,0,0-1.13-3.61,3.85,3.85,0,0,0-3.08-1.31A3.78,3.78,0,0,0,112,81,5.91,5.91,0,0,0,110.9,84.86Z"/><path d="M134.93,91V88.68a4.63,4.63,0,0,1-1.73,2.11,4.72,4.72,0,0,1-2.62.72,5.52,5.52,0,0,1-4.33-1.84,7.06,7.06,0,0,1-1.63-4.87,7.24,7.24,0,0,1,1.61-4.89A5.25,5.25,0,0,1,130.41,78a5.15,5.15,0,0,1,2.74.7,4.58,4.58,0,0,1,1.78,2V69.15h1.76V91Zm-8.39-6.1a5.69,5.69,0,0,0,1.09,3.72,3.82,3.82,0,0,0,3.12,1.31,3.71,3.71,0,0,0,3.08-1.42A6.24,6.24,0,0,0,135,84.53a5.38,5.38,0,0,0-1.12-3.61,4.18,4.18,0,0,0-6.16.09A5.91,5.91,0,0,0,126.54,84.86Z"/><path d="M160.29,84.77h-9.91a6,6,0,0,0,1.21,3.8,3.75,3.75,0,0,0,3,1.38,4,4,0,0,0,2.42-.75A5.44,5.44,0,0,0,158.79,87l1.59.88A7,7,0,0,1,158,90.62a6.21,6.21,0,0,1-3.4.89,5.77,5.77,0,0,1-4.44-1.83,6.84,6.84,0,0,1-1.7-4.82,7.19,7.19,0,0,1,1.69-5A5.61,5.61,0,0,1,154.58,78a5.3,5.3,0,0,1,4.15,1.74,6.67,6.67,0,0,1,1.56,4.63Zm-2-1.48a3.79,3.79,0,0,0-1.14-2.65,3.85,3.85,0,0,0-2.74-1,3.73,3.73,0,0,0-2.64,1,4,4,0,0,0-1.23,2.61Z"/><path d="M163.9,91V78.48h1.64v1.93a5.06,5.06,0,0,1,1.87-1.79A5.21,5.21,0,0,1,170,78a4.11,4.11,0,0,1,4.49,4.47V91h-1.76V83.27a4.17,4.17,0,0,0-.78-2.78,3,3,0,0,0-2.42-.91,3.5,3.5,0,0,0-2.92,1.18,5.92,5.92,0,0,0-.93,3.69V91Z"/><path d="M189.11,91h-1.79V69.15h1.79Z"/><path d="M203.05,91V88.68a4.49,4.49,0,0,1-4.37,2.83,5.51,5.51,0,0,1-4.33-1.84,7.07,7.07,0,0,1-1.64-4.87,7.25,7.25,0,0,1,1.62-4.89A5.25,5.25,0,0,1,198.51,78a5.18,5.18,0,0,1,2.75.7,4.54,4.54,0,0,1,1.79,2V78.48h1.73V91Zm-8.41-6.1a5.63,5.63,0,0,0,1.09,3.72,3.82,3.82,0,0,0,3.12,1.31,3.75,3.75,0,0,0,3.1-1.42,6.24,6.24,0,0,0,1.13-3.94A5.38,5.38,0,0,0,202,80.92a3.86,3.86,0,0,0-3.08-1.31,3.79,3.79,0,0,0-3.1,1.4A5.91,5.91,0,0,0,194.64,84.86Z"/><path d="M227.44,80.76a7.29,7.29,0,0,0-1.86-.91,6.93,6.93,0,0,0-2-.3,4.81,4.81,0,0,0-3.7,1.49,5.59,5.59,0,0,0-1.38,4,4.87,4.87,0,0,0,1.43,3.61A4.94,4.94,0,0,0,223.55,90a6.18,6.18,0,0,0,2-.35,7.71,7.71,0,0,0,2-1.05v1.9a8,8,0,0,1-2,.78,10.65,10.65,0,0,1-2.38.26,6.27,6.27,0,0,1-4.69-1.88,6.59,6.59,0,0,1-1.83-4.81A6.55,6.55,0,0,1,223.58,78a9.58,9.58,0,0,1,2.12.22,6.75,6.75,0,0,1,1.76.62Z"/><path d="M230.54,73.62a1.35,1.35,0,0,1,1.34-1.33,1.31,1.31,0,0,1,1,.39,1.25,1.25,0,0,1,.4.94,1.28,1.28,0,0,1-.39.94,1.3,1.3,0,0,1-1,.38,1.33,1.33,0,0,1-.95-.38A1.28,1.28,0,0,1,230.54,73.62ZM231,91V78.48h1.79V91Z"/><path d="M239.23,78.48v6.24a7.46,7.46,0,0,0,.8,4,3.79,3.79,0,0,0,5.48,0,7.14,7.14,0,0,0,.83-4V78.48h1.72V85.6A6.39,6.39,0,0,1,246.72,90a5,5,0,0,1-3.92,1.5,5,5,0,0,1-4-1.5,6.39,6.39,0,0,1-1.35-4.41V78.48Z"/><path d="M261.92,91V88.68a4.63,4.63,0,0,1-1.73,2.11,4.7,4.7,0,0,1-2.62.72,5.49,5.49,0,0,1-4.32-1.84,7,7,0,0,1-1.64-4.87,7.3,7.3,0,0,1,1.61-4.89A5.26,5.26,0,0,1,257.4,78a5.12,5.12,0,0,1,2.74.7,4.58,4.58,0,0,1,1.78,2V69.15h1.76V91Zm-8.39-6.1a5.69,5.69,0,0,0,1.09,3.72,3.82,3.82,0,0,0,3.12,1.31,3.71,3.71,0,0,0,3.08-1.42A6.24,6.24,0,0,0,262,84.53a5.43,5.43,0,0,0-1.11-3.61,3.84,3.84,0,0,0-3.07-1.31,3.79,3.79,0,0,0-3.1,1.4A5.91,5.91,0,0,0,253.53,84.86Z"/><path d="M277.48,91V88.68a4.52,4.52,0,0,1-4.38,2.83,5.49,5.49,0,0,1-4.32-1.84,7.07,7.07,0,0,1-1.64-4.87,7.25,7.25,0,0,1,1.62-4.89,5.63,5.63,0,0,1,6.93-1.19,4.54,4.54,0,0,1,1.79,2V78.48h1.73V91Zm-8.41-6.1a5.63,5.63,0,0,0,1.09,3.72,4.23,4.23,0,0,0,6.22-.11,6.24,6.24,0,0,0,1.13-3.94,5.38,5.38,0,0,0-1.13-3.61,3.85,3.85,0,0,0-3.08-1.31,3.78,3.78,0,0,0-3.09,1.4A5.91,5.91,0,0,0,269.07,84.86Z"/><path d="M293.1,91V88.68a4.49,4.49,0,0,1-4.35,2.83,5.52,5.52,0,0,1-4.33-1.84,7.07,7.07,0,0,1-1.64-4.87,7.25,7.25,0,0,1,1.62-4.89A5.25,5.25,0,0,1,288.58,78a5.15,5.15,0,0,1,2.74.7,4.64,4.64,0,0,1,1.78,2V69.15h1.76V91Zm-8.39-6.1a5.69,5.69,0,0,0,1.09,3.72,3.82,3.82,0,0,0,3.12,1.31A3.71,3.71,0,0,0,292,88.47a6.24,6.24,0,0,0,1.13-3.94A5.43,5.43,0,0,0,292,80.92a4.18,4.18,0,0,0-6.16.09A5.91,5.91,0,0,0,284.71,84.86Z"/></g></g></svg>