<svg xmlns="http://www.w3.org/2000/svg" viewBox="0 0 507.87 97.24"><title>Recurso 34</title><g id="Capa_2" data-name="Capa 2"><g id="Capa_1-2" data-name="Capa 1"><path d="M.38,18.35,2,17.49a4.45,4.45,0,0,0,1.56,2.36,4.29,4.29,0,0,0,2.65.83,4,4,0,0,0,3.05-1.15,4.46,4.46,0,0,0,1.1-3.2,4,4,0,0,0-.74-2.47,9.91,9.91,0,0,0-3.17-2.28,14.3,14.3,0,0,1-4.14-2.9,4.61,4.61,0,0,1-1-3A4.65,4.65,0,0,1,2.75,2.1,5.42,5.42,0,0,1,6.6.72a5.38,5.38,0,0,1,2.69.65,4.92,4.92,0,0,1,1.87,2l-1.45.88A3.15,3.15,0,0,0,8.43,2.86a3.84,3.84,0,0,0-1.94-.47,3.26,3.26,0,0,0-2.42.9,3.2,3.2,0,0,0-.9,2.41q0,2.16,3.57,4l1,.52A10.33,10.33,0,0,1,11.24,13a5.8,5.8,0,0,1,.89,3.34,6,6,0,0,1-1.62,4.4,6,6,0,0,1-4.4,1.63,5.9,5.9,0,0,1-3.47-1A6.54,6.54,0,0,1,.38,18.35Z"/><path d="M21.72,22.36a6.45,6.45,0,0,1-2.56-.53,7.29,7.29,0,0,1-2.22-1.51,6.41,6.41,0,0,1-1.44-2.14A7,7,0,0,1,15,15.59,6.68,6.68,0,0,1,15.52,13,6.61,6.61,0,0,1,17,10.83a6.68,6.68,0,0,1,2.18-1.46,6.58,6.58,0,0,1,2.57-.51,6.88,6.88,0,0,1,2.63.51A6.87,6.87,0,0,1,28.05,13a6.67,6.67,0,0,1,.51,2.58,6.58,6.58,0,0,1-.51,2.57,6.4,6.4,0,0,1-1.46,2.16,7,7,0,0,1-2.24,1.51A6.79,6.79,0,0,1,21.72,22.36Zm.06-1.62a4.64,4.64,0,0,0,3.48-1.49,5,5,0,0,0,1.43-3.63A5,5,0,0,0,25.27,12a4.84,4.84,0,0,0-7,0,5.09,5.09,0,0,0-1.42,3.66,5.07,5.07,0,0,0,1.42,3.63A4.64,4.64,0,0,0,21.78,20.74Z"/><path d="M34,21.81H32.25V0H34Z"/><path d="M40.49,9.33v6.23a7.33,7.33,0,0,0,.81,4A3.09,3.09,0,0,0,44,20.74a3.13,3.13,0,0,0,2.74-1.18,7.25,7.25,0,0,0,.83-4V9.33h1.72v7.12A6.44,6.44,0,0,1,48,20.86a5,5,0,0,1-3.92,1.5,5.05,5.05,0,0,1-4-1.5,6.39,6.39,0,0,1-1.35-4.41V9.33Z"/><path d="M63.65,11.61a6.43,6.43,0,0,0-1.86-.91,6.86,6.86,0,0,0-2-.3,4.8,4.8,0,0,0-3.7,1.48,5.59,5.59,0,0,0-1.38,4,4.86,4.86,0,0,0,1.43,3.62,4.94,4.94,0,0,0,3.65,1.42,6.39,6.39,0,0,0,2-.35,8.29,8.29,0,0,0,2-1.06v1.9a7.38,7.38,0,0,1-2,.78,10,10,0,0,1-2.38.26,6.22,6.22,0,0,1-4.68-1.88,6.59,6.59,0,0,1-1.83-4.8,6.55,6.55,0,0,1,6.86-6.87,10.14,10.14,0,0,1,2.12.22,7.37,7.37,0,0,1,1.77.63Z"/><path d="M66.76,4.46a1.28,1.28,0,0,1,.39-.94,1.35,1.35,0,0,1,.95-.38,1.36,1.36,0,0,1,1,.38,1.29,1.29,0,0,1,.4.94,1.24,1.24,0,0,1-.39.94,1.3,1.3,0,0,1-1,.38,1.26,1.26,0,0,1-.95-.38A1.24,1.24,0,0,1,66.76,4.46Zm.44,17.35V9.33H69V21.81Z"/><path d="M79.38,22.36a6.41,6.41,0,0,1-2.56-.53,7.17,7.17,0,0,1-2.22-1.51,6.41,6.41,0,0,1-1.44-2.14,6.78,6.78,0,0,1-.49-2.59,6.86,6.86,0,0,1,.5-2.59,6.77,6.77,0,0,1,1.45-2.17A6.9,6.9,0,0,1,76.8,9.37a6.67,6.67,0,0,1,2.58-.51A6.83,6.83,0,0,1,82,9.37a7,7,0,0,1,2.22,1.46A6.64,6.64,0,0,1,85.7,13a6.5,6.5,0,0,1,.52,2.58,6.6,6.6,0,0,1-2,4.73A7.07,7.07,0,0,1,82,21.83,6.74,6.74,0,0,1,79.38,22.36Zm.06-1.62a4.64,4.64,0,0,0,3.48-1.49,5,5,0,0,0,1.43-3.63A5.09,5.09,0,0,0,82.93,12a4.84,4.84,0,0,0-7,0,5,5,0,0,0-1.42,3.66A5,5,0,0,0,76,19.25,4.64,4.64,0,0,0,79.44,20.74Z"/><path d="M89.79,21.81V9.33h1.65v1.93a5.07,5.07,0,0,1,1.86-1.8,5.24,5.24,0,0,1,2.54-.6,4.47,4.47,0,0,1,3.31,1.19,4.42,4.42,0,0,1,1.18,3.29v8.47H98.57v-7.7a4.19,4.19,0,0,0-.78-2.78,3,3,0,0,0-2.41-.9,3.5,3.5,0,0,0-2.92,1.17,5.85,5.85,0,0,0-.94,3.69v6.52Z"/><path d="M114,21.81V19.53a4.56,4.56,0,0,1-4.38,2.83,5.5,5.5,0,0,1-4.32-1.85,7,7,0,0,1-1.64-4.86,7.25,7.25,0,0,1,1.62-4.89,5.62,5.62,0,0,1,6.93-1.2,4.56,4.56,0,0,1,1.79,2V9.33h1.73V21.81Zm-8.41-6.11a5.64,5.64,0,0,0,1.09,3.73,3.81,3.81,0,0,0,3.11,1.31,3.76,3.76,0,0,0,3.11-1.43,6.19,6.19,0,0,0,1.13-3.93,5.38,5.38,0,0,0-1.13-3.61,3.82,3.82,0,0,0-3.08-1.32,3.78,3.78,0,0,0-3.09,1.4A6,6,0,0,0,105.61,15.7Z"/><path d="M132,10.81h-2.29V9.33H132V4.21h1.71V9.33h2.5v1.48h-2.5v11H132Z"/><path d="M144.49,22.36a6.38,6.38,0,0,1-2.56-.53,7.33,7.33,0,0,1-2.23-1.51,6.38,6.38,0,0,1-1.43-2.14,6.78,6.78,0,0,1-.49-2.59,6.63,6.63,0,0,1,1.95-4.76,6.9,6.9,0,0,1,2.18-1.46,6.67,6.67,0,0,1,2.58-.51,6.83,6.83,0,0,1,2.62.51,7,7,0,0,1,2.22,1.46A6.8,6.8,0,0,1,150.81,13a6.67,6.67,0,0,1,.51,2.58,6.5,6.5,0,0,1-2,4.73,6.92,6.92,0,0,1-2.24,1.51A6.74,6.74,0,0,1,144.49,22.36Zm0-1.62A4.64,4.64,0,0,0,148,19.25a5,5,0,0,0,1.43-3.63A5,5,0,0,0,148,12a4.83,4.83,0,0,0-7,0,5,5,0,0,0-1.42,3.66,5,5,0,0,0,1.42,3.63A4.61,4.61,0,0,0,144.54,20.74Z"/><path d="M164.14,21.81V19.53a4.49,4.49,0,0,1-4.35,2.83,5.5,5.5,0,0,1-4.32-1.85,7,7,0,0,1-1.64-4.86,7.25,7.25,0,0,1,1.62-4.89,5.26,5.26,0,0,1,4.18-1.9,5.18,5.18,0,0,1,2.73.7,4.55,4.55,0,0,1,1.78,2V0h1.76V21.81Zm-8.38-6.11a5.64,5.64,0,0,0,1.09,3.73A3.81,3.81,0,0,0,160,20.74,3.71,3.71,0,0,0,163,19.31a6.19,6.19,0,0,0,1.13-3.93,5.43,5.43,0,0,0-1.11-3.61,4.17,4.17,0,0,0-6.16.08A6,6,0,0,0,155.76,15.7Z"/><path d="M176.16,22.36a6.41,6.41,0,0,1-2.56-.53,7.33,7.33,0,0,1-2.23-1.51,6.54,6.54,0,0,1-1.43-2.14,6.78,6.78,0,0,1-.49-2.59A6.86,6.86,0,0,1,170,13a6.61,6.61,0,0,1,1.45-2.17,6.9,6.9,0,0,1,2.18-1.46,6.67,6.67,0,0,1,2.58-.51,6.83,6.83,0,0,1,2.62.51A7,7,0,0,1,181,10.83,6.8,6.8,0,0,1,182.48,13a6.68,6.68,0,0,1,.52,2.58,6.58,6.58,0,0,1-.51,2.57A6.71,6.71,0,0,1,181,20.32a7.07,7.07,0,0,1-2.25,1.51A6.74,6.74,0,0,1,176.16,22.36Zm.05-1.62a4.68,4.68,0,0,0,3.49-1.49,5,5,0,0,0,1.42-3.63A5,5,0,0,0,179.7,12a4.83,4.83,0,0,0-7,0,5,5,0,0,0-1.42,3.66,5,5,0,0,0,1.42,3.63A4.62,4.62,0,0,0,176.21,20.74Z"/><path d="M185.15,19.58l1.64-.94a3.09,3.09,0,0,0,3.09,2.1,2.58,2.58,0,0,0,1.74-.56,1.85,1.85,0,0,0,.65-1.48c0-1-.85-1.77-2.55-2.44l-.42-.16a8,8,0,0,1-2.76-1.6,2.86,2.86,0,0,1-.79-2,3.37,3.37,0,0,1,1.13-2.61,4.17,4.17,0,0,1,2.91-1,4.84,4.84,0,0,1,2.59.66,3.86,3.86,0,0,1,1.56,1.88l-1.59.89a2.49,2.49,0,0,0-1-1.35,3,3,0,0,0-1.69-.47,2.16,2.16,0,0,0-1.49.53,1.69,1.69,0,0,0-.58,1.32,1.63,1.63,0,0,0,.58,1.28,7.52,7.52,0,0,0,2.39,1.11,6.44,6.44,0,0,1,2.76,1.56,3.48,3.48,0,0,1,.71,2.34,3.38,3.38,0,0,1-1.22,2.74,5.65,5.65,0,0,1-6,.3A4.06,4.06,0,0,1,185.15,19.58Z"/><path d="M210.75,21.81H209V0h1.79Z"/><path d="M221.14,22.36a6.45,6.45,0,0,1-2.56-.53,7.41,7.41,0,0,1-2.22-1.51,6.41,6.41,0,0,1-1.44-2.14,7,7,0,0,1-.49-2.59,6.68,6.68,0,0,1,.51-2.59,6.61,6.61,0,0,1,1.45-2.17,6.79,6.79,0,0,1,2.18-1.46,6.58,6.58,0,0,1,2.57-.51,6.88,6.88,0,0,1,2.63.51A6.81,6.81,0,0,1,226,10.83a6.56,6.56,0,0,1,2,4.76,6.58,6.58,0,0,1-.51,2.57A6.4,6.4,0,0,1,226,20.32a7,7,0,0,1-2.24,1.51A6.79,6.79,0,0,1,221.14,22.36Zm.06-1.62a4.64,4.64,0,0,0,3.48-1.49,5,5,0,0,0,1.43-3.63A5,5,0,0,0,224.69,12a4.84,4.84,0,0,0-7,0,5.09,5.09,0,0,0-1.42,3.66,5.07,5.07,0,0,0,1.42,3.63A4.64,4.64,0,0,0,221.2,20.74Z"/><path d="M230.13,19.58l1.65-.94A3.26,3.26,0,0,0,233,20.21a3.32,3.32,0,0,0,1.9.53,2.63,2.63,0,0,0,1.75-.56,1.85,1.85,0,0,0,.64-1.48c0-1-.85-1.77-2.54-2.44l-.42-.16a7.82,7.82,0,0,1-2.76-1.6,2.81,2.81,0,0,1-.79-2,3.34,3.34,0,0,1,1.13-2.61,4.17,4.17,0,0,1,2.91-1,4.86,4.86,0,0,1,2.59.66,3.86,3.86,0,0,1,1.56,1.88l-1.59.89a2.56,2.56,0,0,0-1-1.35,2.94,2.94,0,0,0-1.68-.47,2.14,2.14,0,0,0-1.49.53,1.69,1.69,0,0,0-.58,1.32,1.65,1.65,0,0,0,.57,1.28,7.72,7.72,0,0,0,2.4,1.11,6.5,6.5,0,0,1,2.76,1.56,3.54,3.54,0,0,1,.71,2.34,3.41,3.41,0,0,1-1.22,2.74,5,5,0,0,1-3.3,1,4.93,4.93,0,0,1-2.73-.73A4,4,0,0,1,230.13,19.58Z"/><path d="M263.54,11.61a6.43,6.43,0,0,0-1.86-.91,6.86,6.86,0,0,0-2-.3,4.8,4.8,0,0,0-3.7,1.48,5.59,5.59,0,0,0-1.38,4,4.88,4.88,0,0,0,5.08,5,6.49,6.49,0,0,0,2-.35,8.24,8.24,0,0,0,2-1.06v1.9a7.38,7.38,0,0,1-2,.78,10,10,0,0,1-2.38.26,6.22,6.22,0,0,1-4.68-1.88,6.59,6.59,0,0,1-1.83-4.8,6.55,6.55,0,0,1,6.87-6.87,10.12,10.12,0,0,1,2.11.22,7.22,7.22,0,0,1,1.77.63Z"/><path d="M276.19,21.81V19.53a4.56,4.56,0,0,1-4.38,2.83,5.5,5.5,0,0,1-4.32-1.85,7,7,0,0,1-1.64-4.86,7.25,7.25,0,0,1,1.62-4.89,5.24,5.24,0,0,1,4.18-1.9,5.3,5.3,0,0,1,2.75.7,4.56,4.56,0,0,1,1.79,2V9.33h1.73V21.81Zm-8.41-6.11a5.64,5.64,0,0,0,1.09,3.73A3.81,3.81,0,0,0,272,20.74a3.76,3.76,0,0,0,3.11-1.43,6.19,6.19,0,0,0,1.13-3.93,5.38,5.38,0,0,0-1.13-3.61A3.82,3.82,0,0,0,272,10.45a3.78,3.78,0,0,0-3.09,1.4A6,6,0,0,0,267.78,15.7Z"/><path d="M281.14,19.58l1.65-.94A3.2,3.2,0,0,0,284,20.21a3.32,3.32,0,0,0,1.9.53,2.58,2.58,0,0,0,1.74-.56,1.82,1.82,0,0,0,.65-1.48c0-1-.85-1.77-2.55-2.44l-.42-.16a7.86,7.86,0,0,1-2.75-1.6,2.81,2.81,0,0,1-.79-2,3.36,3.36,0,0,1,1.12-2.61,4.17,4.17,0,0,1,2.92-1,4.8,4.8,0,0,1,2.58.66,3.83,3.83,0,0,1,1.57,1.88l-1.59.89a2.56,2.56,0,0,0-1-1.35,3,3,0,0,0-1.69-.47,2.13,2.13,0,0,0-1.48.53,1.7,1.7,0,0,0-.59,1.32,1.66,1.66,0,0,0,.58,1.28,7.63,7.63,0,0,0,2.39,1.11,6.55,6.55,0,0,1,2.77,1.56,3.54,3.54,0,0,1,.71,2.34,3.39,3.39,0,0,1-1.23,2.74,5.63,5.63,0,0,1-6,.3A4,4,0,0,1,281.14,19.58Z"/><path d="M299.24,22.36a6.38,6.38,0,0,1-2.56-.53,7.33,7.33,0,0,1-2.23-1.51A6.38,6.38,0,0,1,293,18.18a6.78,6.78,0,0,1-.49-2.59,6.63,6.63,0,0,1,2-4.76,6.9,6.9,0,0,1,2.18-1.46,6.67,6.67,0,0,1,2.58-.51,6.83,6.83,0,0,1,2.62.51,7,7,0,0,1,2.22,1.46A6.8,6.8,0,0,1,305.56,13a6.67,6.67,0,0,1,.51,2.58,6.5,6.5,0,0,1-2,4.73,6.92,6.92,0,0,1-2.24,1.51A6.74,6.74,0,0,1,299.24,22.36Zm.05-1.62a4.64,4.64,0,0,0,3.48-1.49,5,5,0,0,0,1.43-3.63A5,5,0,0,0,302.78,12a4.83,4.83,0,0,0-7,0,5,5,0,0,0-1.42,3.66,5,5,0,0,0,1.42,3.63A4.61,4.61,0,0,0,299.29,20.74Z"/><path d="M308.23,19.58l1.64-.94a3.09,3.09,0,0,0,3.09,2.1,2.58,2.58,0,0,0,1.74-.56,1.85,1.85,0,0,0,.65-1.48c0-1-.85-1.77-2.55-2.44l-.42-.16a7.92,7.92,0,0,1-2.76-1.6,2.81,2.81,0,0,1-.79-2A3.37,3.37,0,0,1,310,9.86a4.17,4.17,0,0,1,2.91-1,4.84,4.84,0,0,1,2.59.66A3.86,3.86,0,0,1,317,11.38l-1.59.89a2.54,2.54,0,0,0-1-1.35,3,3,0,0,0-1.69-.47,2.16,2.16,0,0,0-1.49.53,1.69,1.69,0,0,0-.58,1.32,1.63,1.63,0,0,0,.58,1.28,7.52,7.52,0,0,0,2.39,1.11,6.44,6.44,0,0,1,2.76,1.56,3.48,3.48,0,0,1,.71,2.34,3.38,3.38,0,0,1-1.22,2.74,5.65,5.65,0,0,1-6,.3A4,4,0,0,1,308.23,19.58Z"/><path d="M342.65,15.62h-9.92a6.11,6.11,0,0,0,1.21,3.8A3.75,3.75,0,0,0,337,20.79a4,4,0,0,0,2.42-.74,5.49,5.49,0,0,0,1.73-2.25l1.59.87a6.87,6.87,0,0,1-2.34,2.79,6.11,6.11,0,0,1-3.4.9,5.78,5.78,0,0,1-4.44-1.84,6.81,6.81,0,0,1-1.69-4.82,7.17,7.17,0,0,1,1.68-4.95,5.61,5.61,0,0,1,4.4-1.89,5.33,5.33,0,0,1,4.15,1.74,6.7,6.7,0,0,1,1.56,4.64Zm-2.06-1.48a3.84,3.84,0,0,0-1.14-2.66,3.85,3.85,0,0,0-2.74-.94,3.77,3.77,0,0,0-2.64,1,4,4,0,0,0-1.23,2.62Z"/><path d="M346.25,21.81V9.33h1.65v1.93a5,5,0,0,1,1.86-1.8,5.24,5.24,0,0,1,2.54-.6,4.47,4.47,0,0,1,3.31,1.19,4.46,4.46,0,0,1,1.18,3.29v8.47H355v-7.7a4.19,4.19,0,0,0-.78-2.78,3,3,0,0,0-2.41-.9,3.5,3.5,0,0,0-2.92,1.17,5.85,5.85,0,0,0-.94,3.69v6.52Z"/><path d="M374.44,21.81h-1.79V0h1.79Z"/><path d="M388.38,21.81V19.53A4.56,4.56,0,0,1,384,22.36a5.5,5.5,0,0,1-4.32-1.85A7,7,0,0,1,378,15.65a7.25,7.25,0,0,1,1.62-4.89,5.24,5.24,0,0,1,4.17-1.9,5.34,5.34,0,0,1,2.76.7,4.56,4.56,0,0,1,1.79,2V9.33h1.73V21.81ZM380,15.7a5.64,5.64,0,0,0,1.09,3.73,3.81,3.81,0,0,0,3.11,1.31,3.76,3.76,0,0,0,3.11-1.43,6.19,6.19,0,0,0,1.13-3.93,5.38,5.38,0,0,0-1.13-3.61,3.84,3.84,0,0,0-3.08-1.32,3.78,3.78,0,0,0-3.09,1.4A6,6,0,0,0,380,15.7Z"/><path d="M415.74,11.61a6.55,6.55,0,0,0-1.86-.91,6.93,6.93,0,0,0-2-.3,4.81,4.81,0,0,0-3.7,1.48,5.59,5.59,0,0,0-1.38,4,4.88,4.88,0,0,0,5.08,5,6.45,6.45,0,0,0,2-.35,8.06,8.06,0,0,0,2-1.06v1.9a7.32,7.32,0,0,1-2,.78,10.1,10.1,0,0,1-2.38.26,6.25,6.25,0,0,1-4.69-1.88,6.63,6.63,0,0,1-1.83-4.8,6.55,6.55,0,0,1,6.87-6.87,10.21,10.21,0,0,1,2.12.22,7.14,7.14,0,0,1,1.76.63Z"/><path d="M418.84,4.46a1.29,1.29,0,0,1,.4-.94,1.32,1.32,0,0,1,.94-.38,1.35,1.35,0,0,1,.95.38,1.25,1.25,0,0,1,.4.94,1.27,1.27,0,0,1-.38.94,1.3,1.3,0,0,1-1,.38,1.29,1.29,0,0,1-.95-.38A1.24,1.24,0,0,1,418.84,4.46Zm.44,17.35V9.33h1.79V21.81Z"/><path d="M427.53,9.33v6.23a7.44,7.44,0,0,0,.8,4,3.11,3.11,0,0,0,2.74,1.17,3.15,3.15,0,0,0,2.75-1.18,7.25,7.25,0,0,0,.83-4V9.33h1.71v7.12A6.44,6.44,0,0,1,435,20.86a5.92,5.92,0,0,1-7.88,0,6.39,6.39,0,0,1-1.35-4.41V9.33Z"/><path d="M450.22,21.81V19.53a4.49,4.49,0,0,1-4.35,2.83,5.5,5.5,0,0,1-4.32-1.85,7,7,0,0,1-1.64-4.86,7.25,7.25,0,0,1,1.62-4.89,5.59,5.59,0,0,1,6.91-1.2,4.55,4.55,0,0,1,1.78,2V0H452V21.81Zm-8.38-6.11a5.64,5.64,0,0,0,1.09,3.73A3.81,3.81,0,0,0,446,20.74a3.71,3.71,0,0,0,3.08-1.43,6.19,6.19,0,0,0,1.13-3.93,5.43,5.43,0,0,0-1.11-3.61,4.17,4.17,0,0,0-6.16.08A6,6,0,0,0,441.84,15.7Z"/><path d="M465.78,21.81V19.53a4.56,4.56,0,0,1-4.37,2.83,5.5,5.5,0,0,1-4.33-1.85,7,7,0,0,1-1.64-4.86,7.25,7.25,0,0,1,1.62-4.89A5.62,5.62,0,0,1,464,9.56a4.56,4.56,0,0,1,1.79,2V9.33h1.73V21.81Zm-8.41-6.11a5.64,5.64,0,0,0,1.09,3.73,3.84,3.84,0,0,0,3.12,1.31,3.76,3.76,0,0,0,3.1-1.43,6.19,6.19,0,0,0,1.13-3.93,5.38,5.38,0,0,0-1.13-3.61,3.82,3.82,0,0,0-3.08-1.32,3.78,3.78,0,0,0-3.09,1.4A6,6,0,0,0,457.37,15.7Z"/><path d="M481.4,21.81V19.53a4.49,4.49,0,0,1-4.35,2.83,5.53,5.53,0,0,1-4.33-1.85,7,7,0,0,1-1.63-4.86,7.3,7.3,0,0,1,1.61-4.89,5.61,5.61,0,0,1,6.92-1.2,4.6,4.6,0,0,1,1.78,2V0h1.76V21.81ZM473,15.7a5.7,5.7,0,0,0,1.09,3.73,3.85,3.85,0,0,0,3.12,1.31,3.72,3.72,0,0,0,3.08-1.43,6.19,6.19,0,0,0,1.13-3.93,5.43,5.43,0,0,0-1.11-3.61,4.18,4.18,0,0,0-6.17.08A6,6,0,0,0,473,15.7Z"/><path d="M497.32,9.33h1.84l3.57,9.76L506,9.33h1.84l-6.46,18.75h-1.79l2.18-6.36Z"/><path d="M10.92,56.39V54.11a4.73,4.73,0,0,1-1.74,2.1,4.79,4.79,0,0,1-2.64.72,5.49,5.49,0,0,1-4.32-1.84A7,7,0,0,1,.58,50.22a7.33,7.33,0,0,1,1.61-4.89,5.26,5.26,0,0,1,4.18-1.89,5.18,5.18,0,0,1,2.75.7,4.48,4.48,0,0,1,1.8,2V43.91h1.73V56.39ZM2.5,50.28A5.72,5.72,0,0,0,3.59,54a3.85,3.85,0,0,0,3.12,1.31,3.74,3.74,0,0,0,3.1-1.43A6.13,6.13,0,0,0,11,50a5.36,5.36,0,0,0-1.13-3.61A3.84,3.84,0,0,0,6.74,45a3.79,3.79,0,0,0-3.1,1.4A5.93,5.93,0,0,0,2.5,50.28Z"/><path d="M15.59,43.91h1.84L21,53.67l3.3-9.76h1.84L19.68,62.66H17.9l2.18-6.36Z"/><path d="M30.63,43.91v6.23a7.36,7.36,0,0,0,.81,4,3.08,3.08,0,0,0,2.73,1.17,3.13,3.13,0,0,0,2.75-1.19,7.18,7.18,0,0,0,.83-4V43.91h1.71V51a6.44,6.44,0,0,1-1.33,4.41,5,5,0,0,1-3.93,1.49,5,5,0,0,1-4-1.49A6.39,6.39,0,0,1,28.9,51V43.91Z"/><path d="M53.32,56.39V54.11A4.46,4.46,0,0,1,49,56.93a5.49,5.49,0,0,1-4.33-1.84A7.07,7.07,0,0,1,43,50.22a7.29,7.29,0,0,1,1.62-4.89,5.25,5.25,0,0,1,4.18-1.89,5.09,5.09,0,0,1,2.73.7,4.49,4.49,0,0,1,1.78,2V34.58h1.76V56.39Zm-8.38-6.11A5.66,5.66,0,0,0,46,54a3.81,3.81,0,0,0,3.11,1.31,3.74,3.74,0,0,0,3.09-1.43A6.19,6.19,0,0,0,53.35,50a5.41,5.41,0,0,0-1.11-3.61,4.17,4.17,0,0,0-6.16.08A5.93,5.93,0,0,0,44.94,50.28Z"/><path d="M68.88,56.39V54.11a4.71,4.71,0,0,1-1.73,2.1,4.79,4.79,0,0,1-2.64.72,5.51,5.51,0,0,1-4.33-1.84,7.07,7.07,0,0,1-1.64-4.87,7.29,7.29,0,0,1,1.62-4.89,5.25,5.25,0,0,1,4.18-1.89,5.18,5.18,0,0,1,2.75.7,4.51,4.51,0,0,1,1.79,2V43.91h1.73V56.39Zm-8.41-6.11A5.66,5.66,0,0,0,61.56,54a3.85,3.85,0,0,0,3.12,1.31,3.76,3.76,0,0,0,3.1-1.43A6.19,6.19,0,0,0,68.91,50a5.36,5.36,0,0,0-1.12-3.61A3.84,3.84,0,0,0,64.71,45a3.79,3.79,0,0,0-3.1,1.4A5.93,5.93,0,0,0,60.47,50.28Z"/><path d="M91.34,56.39V54.11a4.67,4.67,0,0,1-1.74,2.1,4.74,4.74,0,0,1-2.64.72,5.49,5.49,0,0,1-4.32-1.84A7,7,0,0,1,81,50.22a7.29,7.29,0,0,1,1.62-4.89,5.63,5.63,0,0,1,6.93-1.19,4.51,4.51,0,0,1,1.79,2V43.91h1.73V56.39Zm-8.41-6.11A5.66,5.66,0,0,0,84,54a3.81,3.81,0,0,0,3.11,1.31,3.76,3.76,0,0,0,3.11-1.43A6.19,6.19,0,0,0,91.37,50a5.36,5.36,0,0,0-1.13-3.61A3.84,3.84,0,0,0,87.16,45a3.78,3.78,0,0,0-3.09,1.4A5.93,5.93,0,0,0,82.93,50.28Z"/><path d="M114.29,46.19a6.43,6.43,0,0,0-1.86-.91,6.86,6.86,0,0,0-2-.3,4.8,4.8,0,0,0-3.7,1.48,5.59,5.59,0,0,0-1.38,4A4.91,4.91,0,0,0,106.75,54a5,5,0,0,0,3.66,1.42,6.43,6.43,0,0,0,2-.35,8.29,8.29,0,0,0,2-1.06V56a7.38,7.38,0,0,1-2,.78,10.59,10.59,0,0,1-2.38.26,6.26,6.26,0,0,1-4.68-1.88,6.59,6.59,0,0,1-1.83-4.8,6.53,6.53,0,0,1,6.86-6.87,9.58,9.58,0,0,1,2.12.22,7,7,0,0,1,1.77.63Z"/><path d="M123.39,56.93a6.44,6.44,0,0,1-2.56-.52,7,7,0,0,1-2.22-1.52,6.27,6.27,0,0,1-1.44-2.13,6.78,6.78,0,0,1-.49-2.59,6.65,6.65,0,0,1,.51-2.59,6.46,6.46,0,0,1,1.45-2.17,6.69,6.69,0,0,1,4.75-2A6.88,6.88,0,0,1,126,44a6.76,6.76,0,0,1,2.21,1.46,6.83,6.83,0,0,1,1.49,2.18,6.67,6.67,0,0,1,.51,2.58,6.54,6.54,0,0,1-.51,2.56,6.35,6.35,0,0,1-1.46,2.16A7,7,0,0,1,126,56.41,6.78,6.78,0,0,1,123.39,56.93Zm.06-1.61a4.64,4.64,0,0,0,3.48-1.49,5.37,5.37,0,0,0,0-7.29,4.84,4.84,0,0,0-7,0,5.39,5.39,0,0,0,0,7.29A4.64,4.64,0,0,0,123.45,55.32Z"/><path d="M135.53,56.39H133.8V43.91h1.73v2a4.49,4.49,0,0,1,1.64-1.8,4.38,4.38,0,0,1,2.33-.62,4.16,4.16,0,0,1,2.33.63,4,4,0,0,1,1.48,1.83,4.75,4.75,0,0,1,4.35-2.46,4.12,4.12,0,0,1,3.13,1.2,4.67,4.67,0,0,1,1.13,3.3v8.45h-1.73V48.63a4.28,4.28,0,0,0-.75-2.75A2.71,2.71,0,0,0,147.2,45a3,3,0,0,0-2.63,1.16,6.54,6.54,0,0,0-.83,3.71v6.57H142V48.63a4.43,4.43,0,0,0-.72-2.8,2.69,2.69,0,0,0-2.22-.88,3.09,3.09,0,0,0-2.69,1.18,6.36,6.36,0,0,0-.86,3.69Z"/><path d="M158.27,56.39h-1.73V34.58h1.73V46.19a4.55,4.55,0,0,1,1.78-2,5.12,5.12,0,0,1,2.74-.7A5.26,5.26,0,0,1,167,45.33a7.33,7.33,0,0,1,1.61,4.89,7,7,0,0,1-1.64,4.87,5.49,5.49,0,0,1-4.32,1.84,4.46,4.46,0,0,1-4.35-2.82Zm8.39-6.11a5.93,5.93,0,0,0-1.14-3.85,4.18,4.18,0,0,0-6.17-.08A5.41,5.41,0,0,0,158.24,50a6.13,6.13,0,0,0,1.14,3.93,3.73,3.73,0,0,0,3.1,1.43,3.81,3.81,0,0,0,3.09-1.3A5.73,5.73,0,0,0,166.66,50.28Z"/><path d="M181.34,56.39V54.11a4.71,4.71,0,0,1-1.73,2.1,4.79,4.79,0,0,1-2.64.72,5.51,5.51,0,0,1-4.33-1.84A7.07,7.07,0,0,1,171,50.22a7.29,7.29,0,0,1,1.62-4.89,5.25,5.25,0,0,1,4.18-1.89,5.18,5.18,0,0,1,2.75.7,4.51,4.51,0,0,1,1.79,2V43.91h1.74V56.39Zm-8.41-6.11A5.66,5.66,0,0,0,174,54a3.85,3.85,0,0,0,3.12,1.31,3.76,3.76,0,0,0,3.1-1.43A6.13,6.13,0,0,0,181.37,50a5.36,5.36,0,0,0-1.12-3.61A3.84,3.84,0,0,0,177.17,45a3.79,3.79,0,0,0-3.1,1.4A5.93,5.93,0,0,0,172.93,50.28Z"/><path d="M188.08,45.38h-2.29V43.91h2.29V38.78h1.71v5.13h2.5v1.47h-2.5v11h-1.71Z"/><path d="M194.54,39a1.25,1.25,0,0,1,.4-.94,1.27,1.27,0,0,1,.94-.38,1.32,1.32,0,0,1,1,.38,1.29,1.29,0,0,1,.4.94,1.26,1.26,0,0,1-.39.94,1.34,1.34,0,0,1-1,.38,1.31,1.31,0,0,1-.95-.38A1.26,1.26,0,0,1,194.54,39ZM195,56.39V43.91h1.78V56.39Z"/><path d="M203.22,46.41a7.72,7.72,0,0,1,1.88-2.29,3.53,3.53,0,0,1,2.15-.68,4.74,4.74,0,0,1,.74.07,5,5,0,0,1,.73.2l-.56,1.63a5.45,5.45,0,0,0-.58-.14,3,3,0,0,0-.59-.06,3.24,3.24,0,0,0-2.66,1.47,5.84,5.84,0,0,0-1.11,3.64v6.14h-1.73V43.91h1.73Z"/><path d="M228.16,50.2h-9.92A6,6,0,0,0,219.45,54a3.75,3.75,0,0,0,3.05,1.38,4.08,4.08,0,0,0,2.42-.74,5.58,5.58,0,0,0,1.73-2.25l1.59.87A6.94,6.94,0,0,1,225.9,56a6.13,6.13,0,0,1-3.4.89,5.77,5.77,0,0,1-4.44-1.83,6.83,6.83,0,0,1-1.69-4.82,7.14,7.14,0,0,1,1.68-5,5.59,5.59,0,0,1,4.39-1.89,5.3,5.3,0,0,1,4.15,1.74,6.68,6.68,0,0,1,1.57,4.64Zm-2.06-1.48a3.57,3.57,0,0,0-3.88-3.6,3.72,3.72,0,0,0-2.64,1,4,4,0,0,0-1.23,2.62Z"/><path d="M233.66,56.39h-1.79V34.58h1.79Z"/><path d="M255,46.19a6.43,6.43,0,0,0-1.86-.91,6.86,6.86,0,0,0-2-.3,4.8,4.8,0,0,0-3.7,1.48,5.59,5.59,0,0,0-1.38,4A4.87,4.87,0,0,0,247.43,54a5,5,0,0,0,3.65,1.42,6.49,6.49,0,0,0,2-.35,8.41,8.41,0,0,0,2-1.06V56a7.38,7.38,0,0,1-2,.78,10.59,10.59,0,0,1-2.38.26,6.26,6.26,0,0,1-4.68-1.88,6.59,6.59,0,0,1-1.83-4.8,6.55,6.55,0,0,1,6.87-6.87,9.49,9.49,0,0,1,2.11.22,7,7,0,0,1,1.77.63Z"/><path d="M260.12,46.41A7.72,7.72,0,0,1,262,44.12a3.55,3.55,0,0,1,2.15-.68,4.74,4.74,0,0,1,.74.07,5.44,5.44,0,0,1,.74.2l-.57,1.63a4.92,4.92,0,0,0-.58-.14,3,3,0,0,0-.59-.06,3.24,3.24,0,0,0-2.66,1.47,5.84,5.84,0,0,0-1.11,3.64v6.14h-1.73V43.91h1.73Z"/><path d="M267.14,39a1.33,1.33,0,0,1,1.34-1.32,1.31,1.31,0,0,1,.95.38,1.25,1.25,0,0,1,.4.94,1.29,1.29,0,0,1-.38.94,1.34,1.34,0,0,1-1,.38,1.33,1.33,0,0,1-1-.38A1.26,1.26,0,0,1,267.14,39Zm.44,17.35V43.91h1.79V56.39Z"/><path d="M275.83,56.39H274.1V43.91h1.73v2a4.27,4.27,0,0,1,4-2.42,4.16,4.16,0,0,1,2.33.63,4.08,4.08,0,0,1,1.49,1.83,5,5,0,0,1,1.83-1.85,5.1,5.1,0,0,1,2.51-.61,4.11,4.11,0,0,1,3.13,1.2,4.63,4.63,0,0,1,1.14,3.3v8.45h-1.73V48.63a4.22,4.22,0,0,0-.76-2.75,2.71,2.71,0,0,0-2.24-.93,3,3,0,0,0-2.62,1.16,6.46,6.46,0,0,0-.84,3.71v6.57h-1.72V48.63a4.43,4.43,0,0,0-.72-2.8,2.67,2.67,0,0,0-2.22-.88,3.1,3.1,0,0,0-2.69,1.18,6.36,6.36,0,0,0-.85,3.69Z"/><path d="M307.55,50.2h-9.92A6.08,6.08,0,0,0,298.84,54a3.76,3.76,0,0,0,3.06,1.38,4.1,4.1,0,0,0,2.42-.74,5.58,5.58,0,0,0,1.73-2.25l1.59.87A6.88,6.88,0,0,1,305.29,56a6.07,6.07,0,0,1-3.39.89,5.77,5.77,0,0,1-4.44-1.83,6.84,6.84,0,0,1-1.7-4.82,7.14,7.14,0,0,1,1.68-5,5.61,5.61,0,0,1,4.4-1.89A5.3,5.3,0,0,1,306,45.18a6.68,6.68,0,0,1,1.56,4.64Zm-2.05-1.48a3.91,3.91,0,0,0-1.14-2.66,3.86,3.86,0,0,0-2.74-.94,3.71,3.71,0,0,0-2.64,1,4,4,0,0,0-1.23,2.62Z"/><path d="M311.16,56.39V43.91h1.64v1.92A5.15,5.15,0,0,1,314.67,44a5.21,5.21,0,0,1,2.54-.6,4.1,4.1,0,0,1,4.48,4.48v8.47h-1.76v-7.7a4.19,4.19,0,0,0-.78-2.78,3,3,0,0,0-2.41-.91,3.53,3.53,0,0,0-2.92,1.18,5.92,5.92,0,0,0-.93,3.69v6.52Z"/><path d="M328.42,52.81l2,.86-3.71,7.25-1.19-.55Z"/><path d="M343.24,56.39h-1.79V34.58h1.79Z"/><path d="M357.18,56.39V54.11a4.67,4.67,0,0,1-1.74,2.1,4.74,4.74,0,0,1-2.64.72,5.49,5.49,0,0,1-4.32-1.84,7,7,0,0,1-1.64-4.87,7.29,7.29,0,0,1,1.62-4.89,5.62,5.62,0,0,1,6.92-1.19,4.48,4.48,0,0,1,1.8,2V43.91h1.73V56.39Zm-8.42-6.11a5.66,5.66,0,0,0,1.1,3.73A3.81,3.81,0,0,0,353,55.32a3.74,3.74,0,0,0,3.1-1.43A6.13,6.13,0,0,0,357.21,50a5.36,5.36,0,0,0-1.13-3.61,4.19,4.19,0,0,0-6.18.08A5.93,5.93,0,0,0,348.76,50.28Z"/><path d="M370.1,39a1.31,1.31,0,0,1,1.33-1.32,1.29,1.29,0,0,1,.95.38,1.25,1.25,0,0,1,.4.94,1.29,1.29,0,0,1-.38.94,1.34,1.34,0,0,1-1,.38,1.33,1.33,0,0,1-.95-.38A1.25,1.25,0,0,1,370.1,39Zm.43,17.35V43.91h1.79V56.39Z"/><path d="M377.05,56.39V43.91h1.64v1.92A5.15,5.15,0,0,1,380.56,44a5.21,5.21,0,0,1,2.54-.6,4.1,4.1,0,0,1,4.48,4.48v8.47h-1.75v-7.7a4.14,4.14,0,0,0-.79-2.78,3,3,0,0,0-2.41-.91,3.53,3.53,0,0,0-2.92,1.18,5.92,5.92,0,0,0-.93,3.69v6.52Z"/><path d="M390.64,54.16l1.64-.94a3.09,3.09,0,0,0,3.09,2.1,2.58,2.58,0,0,0,1.74-.56,1.85,1.85,0,0,0,.65-1.48c0-1-.85-1.77-2.55-2.44a3.25,3.25,0,0,1-.42-.17A7.87,7.87,0,0,1,392,49.08a2.86,2.86,0,0,1-.79-2,3.37,3.37,0,0,1,1.13-2.61,4.17,4.17,0,0,1,2.91-1,4.84,4.84,0,0,1,2.59.66A3.89,3.89,0,0,1,399.43,46l-1.59.89a2.49,2.49,0,0,0-1-1.35,3,3,0,0,0-1.69-.47,2.16,2.16,0,0,0-1.49.53,1.69,1.69,0,0,0-.58,1.31,1.6,1.6,0,0,0,.58,1.28,7.7,7.7,0,0,0,2.39,1.12,6.34,6.34,0,0,1,2.76,1.56,3.47,3.47,0,0,1,.71,2.33,3.4,3.4,0,0,1-1.22,2.75,5,5,0,0,1-3.29,1,5.07,5.07,0,0,1-2.74-.72A4.1,4.1,0,0,1,390.64,54.16Z"/><path d="M413.78,50.2h-9.92A6.08,6.08,0,0,0,405.07,54a3.76,3.76,0,0,0,3.06,1.38,4.1,4.1,0,0,0,2.42-.74,5.58,5.58,0,0,0,1.73-2.25l1.59.87A6.94,6.94,0,0,1,411.53,56a6.13,6.13,0,0,1-3.4.89,5.77,5.77,0,0,1-4.44-1.83,6.84,6.84,0,0,1-1.7-4.82,7.14,7.14,0,0,1,1.68-5,5.61,5.61,0,0,1,4.4-1.89,5.3,5.3,0,0,1,4.15,1.74,6.68,6.68,0,0,1,1.56,4.64Zm-2-1.48a3.91,3.91,0,0,0-1.14-2.66,3.86,3.86,0,0,0-2.74-.94,3.71,3.71,0,0,0-2.64,1A4,4,0,0,0,404,48.72Z"/><path d="M428.36,43.91V54.22c0,1.64,0,2.89-.13,3.76a5.87,5.87,0,0,1-.45,1.92,4.31,4.31,0,0,1-2,2.08,7.47,7.47,0,0,1-3.38.68,6.71,6.71,0,0,1-3.87-1,4.09,4.09,0,0,1-1.68-2.92H419a2.51,2.51,0,0,0,1.11,1.74,4.27,4.27,0,0,0,2.42.59,5.15,5.15,0,0,0,2.08-.4A3.13,3.13,0,0,0,426,59.58a3.08,3.08,0,0,0,.45-1.08,9.63,9.63,0,0,0,.13-1.89V54.08a4.47,4.47,0,0,1-1.77,2.09,4.91,4.91,0,0,1-2.72.76,5.29,5.29,0,0,1-4.2-1.82,7.33,7.33,0,0,1-1.57-4.91A7.24,7.24,0,0,1,418,45.29a5.35,5.35,0,0,1,4.25-1.85,4.9,4.9,0,0,1,2.68.77,4.34,4.34,0,0,1,1.72,2V43.91Zm-6,1.12a3.72,3.72,0,0,0-3.06,1.39,5.91,5.91,0,0,0-1.11,3.8A5.87,5.87,0,0,0,419.28,54a3.54,3.54,0,0,0,3,1.35,4,4,0,0,0,3.2-1.42,5.76,5.76,0,0,0,1.2-3.83,5.56,5.56,0,0,0-1.13-3.7A3.84,3.84,0,0,0,422.39,45Z"/><path d="M434.71,43.91v6.23a7.37,7.37,0,0,0,.8,4,3.77,3.77,0,0,0,5.48,0,7.1,7.1,0,0,0,.83-4V43.91h1.72V51a6.44,6.44,0,0,1-1.34,4.41,5,5,0,0,1-3.92,1.49,5,5,0,0,1-3.95-1.49A6.35,6.35,0,0,1,433,51V43.91Z"/><path d="M449.89,46.41a7.56,7.56,0,0,1,1.87-2.29,3.55,3.55,0,0,1,2.15-.68,4.74,4.74,0,0,1,.74.07,5.08,5.08,0,0,1,.74.2l-.56,1.63a5.63,5.63,0,0,0-.59-.14,3,3,0,0,0-.58-.06A3.27,3.27,0,0,0,451,46.61a5.84,5.84,0,0,0-1.1,3.64v6.14h-1.73V43.91h1.73Z"/><path d="M456.91,39a1.31,1.31,0,0,1,1.33-1.32,1.29,1.29,0,0,1,.95.38,1.33,1.33,0,0,1,0,1.88,1.34,1.34,0,0,1-1,.38,1.33,1.33,0,0,1-.95-.38A1.29,1.29,0,0,1,456.91,39Zm.43,17.35V43.91h1.79V56.39Z"/><path d="M473.1,56.39V54.11a4.46,4.46,0,0,1-4.35,2.82,5.49,5.49,0,0,1-4.32-1.84,7,7,0,0,1-1.64-4.87,7.29,7.29,0,0,1,1.62-4.89,5.25,5.25,0,0,1,4.18-1.89,5.09,5.09,0,0,1,2.73.7,4.49,4.49,0,0,1,1.78,2V34.58h1.76V56.39Zm-8.38-6.11A5.66,5.66,0,0,0,465.81,54a3.81,3.81,0,0,0,3.11,1.31A3.71,3.71,0,0,0,472,53.89,6.19,6.19,0,0,0,473.13,50,5.41,5.41,0,0,0,472,46.35a4.17,4.17,0,0,0-6.16.08A5.93,5.93,0,0,0,464.72,50.28Z"/><path d="M488.66,56.39V54.11a4.67,4.67,0,0,1-1.74,2.1,4.73,4.73,0,0,1-2.63.72A5.51,5.51,0,0,1,480,55.09a7.07,7.07,0,0,1-1.64-4.87,7.29,7.29,0,0,1,1.62-4.89,5.63,5.63,0,0,1,6.93-1.19,4.51,4.51,0,0,1,1.79,2V43.91h1.73V56.39Zm-8.41-6.11A5.66,5.66,0,0,0,481.34,54a3.85,3.85,0,0,0,3.12,1.31,3.76,3.76,0,0,0,3.1-1.43A6.19,6.19,0,0,0,488.69,50a5.36,5.36,0,0,0-1.12-3.61A3.86,3.86,0,0,0,484.48,45a3.78,3.78,0,0,0-3.09,1.4A5.93,5.93,0,0,0,480.25,50.28Z"/><path d="M504.28,56.39V54.11a4.46,4.46,0,0,1-4.35,2.82,5.49,5.49,0,0,1-4.32-1.84A7,7,0,0,1,494,50.22a7.33,7.33,0,0,1,1.61-4.89,5.26,5.26,0,0,1,4.18-1.89,5.12,5.12,0,0,1,2.74.7,4.55,4.55,0,0,1,1.78,2V34.58H506V56.39Zm-8.39-6.11A5.72,5.72,0,0,0,497,54a3.85,3.85,0,0,0,3.12,1.31,3.72,3.72,0,0,0,3.08-1.43A6.19,6.19,0,0,0,504.31,50a5.41,5.41,0,0,0-1.11-3.61,4.18,4.18,0,0,0-6.17.08A5.93,5.93,0,0,0,495.89,50.28Z"/><path d="M0,78.48H1.84l3.58,9.77,3.29-9.77h1.84L4.09,97.24H2.31l2.18-6.36Z"/><path d="M23.51,91H21.72V69.15h1.79Z"/><path d="M33.91,91.51A6.25,6.25,0,0,1,31.35,91a7.16,7.16,0,0,1-2.23-1.51,6.43,6.43,0,0,1-1.43-2.14,7,7,0,0,1,0-5.17A6.71,6.71,0,0,1,33.91,78a6.83,6.83,0,0,1,2.62.51,6.66,6.66,0,0,1,2.25,10.94A6.91,6.91,0,0,1,36.53,91,6.56,6.56,0,0,1,33.91,91.51ZM34,89.89a4.67,4.67,0,0,0,3.49-1.48,5.4,5.4,0,0,0,0-7.3,4.85,4.85,0,0,0-7,0,5.4,5.4,0,0,0,0,7.3A4.61,4.61,0,0,0,34,89.89Z"/><path d="M42.9,88.74l1.64-.94a3.38,3.38,0,0,0,1.19,1.57,3.29,3.29,0,0,0,1.9.52,2.58,2.58,0,0,0,1.74-.55A1.87,1.87,0,0,0,50,87.85q0-1.42-2.55-2.43l-.42-.17a8,8,0,0,1-2.76-1.6,2.84,2.84,0,0,1-.79-2A3.37,3.37,0,0,1,44.63,79a4.17,4.17,0,0,1,2.91-1,4.84,4.84,0,0,1,2.59.66,3.84,3.84,0,0,1,1.56,1.89l-1.59.88a2.49,2.49,0,0,0-1-1.35,3,3,0,0,0-1.69-.46,2.11,2.11,0,0,0-1.49.53,1.69,1.69,0,0,0-.58,1.31,1.61,1.61,0,0,0,.58,1.28,7.52,7.52,0,0,0,2.39,1.11,6.33,6.33,0,0,1,2.76,1.57,3.47,3.47,0,0,1,.71,2.33,3.36,3.36,0,0,1-1.22,2.74,4.93,4.93,0,0,1-3.29,1,5.07,5.07,0,0,1-2.74-.72A4.14,4.14,0,0,1,42.9,88.74Z"/><path d="M72.84,91V88.68a4.52,4.52,0,0,1-4.38,2.83,5.49,5.49,0,0,1-4.32-1.84A7,7,0,0,1,62.5,84.8a7.25,7.25,0,0,1,1.62-4.89A5.62,5.62,0,0,1,71,78.72a4.5,4.5,0,0,1,1.8,2V78.48h1.73V91Zm-8.42-6.1a5.63,5.63,0,0,0,1.1,3.72,3.79,3.79,0,0,0,3.11,1.31,3.74,3.74,0,0,0,3.1-1.42,6.18,6.18,0,0,0,1.14-3.94,5.38,5.38,0,0,0-1.13-3.61,3.86,3.86,0,0,0-3.08-1.31,3.8,3.8,0,0,0-3.1,1.4A5.91,5.91,0,0,0,64.42,84.86Z"/><path d="M88.92,80.76a7,7,0,0,0-1.86-.91,6.86,6.86,0,0,0-2-.3A4.81,4.81,0,0,0,81.34,81,5.59,5.59,0,0,0,80,85a4.84,4.84,0,0,0,1.43,3.61A4.93,4.93,0,0,0,85,90a6.17,6.17,0,0,0,2-.35,7.92,7.92,0,0,0,2-1.05v1.9a8.08,8.08,0,0,1-2,.78,10.59,10.59,0,0,1-2.38.26A6.26,6.26,0,0,1,80,89.69a6.59,6.59,0,0,1-1.83-4.81A6.55,6.55,0,0,1,85.06,78a9.51,9.51,0,0,1,2.12.22,7,7,0,0,1,1.77.62Z"/><path d="M102.06,80.76a7,7,0,0,0-1.86-.91,6.86,6.86,0,0,0-2-.3A4.81,4.81,0,0,0,94.48,81a5.59,5.59,0,0,0-1.38,4,4.84,4.84,0,0,0,1.43,3.61A4.94,4.94,0,0,0,98.18,90a6.12,6.12,0,0,0,2-.35,7.92,7.92,0,0,0,2-1.05v1.9a8.08,8.08,0,0,1-2,.78,10.59,10.59,0,0,1-2.38.26,6.26,6.26,0,0,1-4.68-1.88,6.59,6.59,0,0,1-1.83-4.81A6.55,6.55,0,0,1,98.21,78a9.49,9.49,0,0,1,2.11.22,7,7,0,0,1,1.77.62Z"/><path d="M105.17,73.62a1.28,1.28,0,0,1,.39-.94,1.31,1.31,0,0,1,1-.39,1.33,1.33,0,0,1,.95.39,1.32,1.32,0,0,1,0,1.88,1.34,1.34,0,0,1-1,.38,1.3,1.3,0,0,1-1-.38A1.28,1.28,0,0,1,105.17,73.62ZM105.61,91V78.48h1.78V91Z"/><path d="M121.36,91V88.68a4.63,4.63,0,0,1-1.73,2.11,4.69,4.69,0,0,1-2.61.72,5.49,5.49,0,0,1-4.33-1.84,7.07,7.07,0,0,1-1.64-4.87,7.25,7.25,0,0,1,1.62-4.89A5.25,5.25,0,0,1,116.85,78a5.09,5.09,0,0,1,2.73.7,4.52,4.52,0,0,1,1.78,2V69.15h1.76V91ZM113,84.86a5.63,5.63,0,0,0,1.09,3.72,3.79,3.79,0,0,0,3.11,1.31,3.72,3.72,0,0,0,3.09-1.42,6.24,6.24,0,0,0,1.12-3.94,5.43,5.43,0,0,0-1.11-3.61,4.18,4.18,0,0,0-6.16.09A5.91,5.91,0,0,0,113,84.86Z"/><path d="M138.43,84.77h-9.92a6.09,6.09,0,0,0,1.21,3.8A3.76,3.76,0,0,0,132.77,90a4,4,0,0,0,2.42-.75A5.36,5.36,0,0,0,136.92,87l1.59.88a6.85,6.85,0,0,1-2.34,2.79,6.17,6.17,0,0,1-3.4.89,5.77,5.77,0,0,1-4.44-1.83,6.83,6.83,0,0,1-1.69-4.82,7.18,7.18,0,0,1,1.68-5,5.64,5.64,0,0,1,4.4-1.88,5.31,5.31,0,0,1,4.15,1.74,6.67,6.67,0,0,1,1.56,4.63Zm-2.05-1.48a3.58,3.58,0,0,0-3.89-3.6,3.73,3.73,0,0,0-2.64,1,4,4,0,0,0-1.23,2.61Z"/><path d="M142,91V78.48h1.65v1.93a5,5,0,0,1,1.86-1.79,5.27,5.27,0,0,1,2.54-.6,4.1,4.1,0,0,1,4.49,4.47V91h-1.76V83.27a4.17,4.17,0,0,0-.78-2.78,3,3,0,0,0-2.41-.91,3.48,3.48,0,0,0-2.92,1.18,5.85,5.85,0,0,0-.94,3.69V91Z"/><path d="M157.41,80h-2.29V78.48h2.29V73.36h1.7v5.12h2.51V80h-2.51V91h-1.7Z"/><path d="M174.91,84.77H165a6.09,6.09,0,0,0,1.21,3.8A3.76,3.76,0,0,0,169.26,90a4,4,0,0,0,2.42-.75A5.44,5.44,0,0,0,173.41,87l1.59.88a7,7,0,0,1-2.34,2.79,6.21,6.21,0,0,1-3.4.89,5.77,5.77,0,0,1-4.44-1.83,6.84,6.84,0,0,1-1.7-4.82,7.18,7.18,0,0,1,1.68-5A5.64,5.64,0,0,1,169.2,78a5.3,5.3,0,0,1,4.15,1.74,6.67,6.67,0,0,1,1.56,4.63Zm-2-1.48a3.58,3.58,0,0,0-3.88-3.6,3.71,3.71,0,0,0-2.64,1,4,4,0,0,0-1.23,2.61Z"/><path d="M177.09,88.74l1.65-.94a3.36,3.36,0,0,0,1.18,1.57,3.31,3.31,0,0,0,1.9.52,2.62,2.62,0,0,0,1.75-.55,1.87,1.87,0,0,0,.64-1.49c0-.95-.85-1.76-2.54-2.43l-.42-.17a7.82,7.82,0,0,1-2.76-1.6,2.8,2.8,0,0,1-.79-2A3.34,3.34,0,0,1,178.83,79a4.17,4.17,0,0,1,2.91-1,4.86,4.86,0,0,1,2.59.66,3.84,3.84,0,0,1,1.56,1.89l-1.59.88a2.56,2.56,0,0,0-1-1.35,2.93,2.93,0,0,0-1.68-.46,2.09,2.09,0,0,0-1.49.53,1.69,1.69,0,0,0-.58,1.31,1.64,1.64,0,0,0,.57,1.28,7.72,7.72,0,0,0,2.4,1.11,6.4,6.4,0,0,1,2.76,1.57,3.52,3.52,0,0,1,.71,2.33,3.39,3.39,0,0,1-1.22,2.74,5.68,5.68,0,0,1-6,.31A4.11,4.11,0,0,1,177.09,88.74Z"/></g></g></svg>