<svg xmlns="http://www.w3.org/2000/svg" viewBox="0 0 144.1 278.35"><defs><style>.cls-1{opacity:0.2;}.cls-2{fill:#b27649;}.cls-3{fill:#f2f2f2;}.cls-4{fill:#fff;}.cls-5{fill:#93603d;}.cls-6{fill:#e5729c;}.cls-7{opacity:0.35;}.cls-8{fill:#dd437b;}.cls-9{fill:#1a1a1a;}</style></defs><title>Recurso 126</title><g id="Capa_2" data-name="Capa 2"><g id="personajes_individuales" data-name="personajes individuales"><g class="cls-1"><ellipse cx="72.05" cy="248.47" rx="72.05" ry="29.87"/></g><path class="cls-2" d="M35.8,206s1.5,19.07-9.88,8.23c-7.6-7.24-8.21-23.55-8.21-23.55Z"/><path class="cls-3" d="M18.91,190.74A20.14,20.14,0,0,0,34.46,204c-1.22-6.87-4.88-34.75,8.69-66.81-2.24-1.43,4.72-3.58,4.72-3.58s-15.26,30.08-10,73.48c-19-1-20.11-16.34-20.13-16.54Z"/><path class="cls-4" d="M47.87,133.64c-16.91,25-12,71.75-12,71.75a21.26,21.26,0,0,1-18.16-14.72s-4.58-36.9,9.53-65.9c2.82-5.81,10.55-7.93,15.6-3.89C48.65,125.53,47.87,133.64,47.87,133.64Z"/><path class="cls-2" d="M118.37,125l-.21.18c-5.91-15-15.14-9.29-17.09-17.85-1.62-7.15,3.79-13,5.63-14.81a122,122,0,0,1,.1-23.66A34.55,34.55,0,0,0,72.25,34.28c-19.07,0-29,15-29,34.07,0,.71.07,1.4.11,2.1l0,0c1.4,73.3-21.32,45.33-23.17,89.16,0,.48,0,.94,0,1.42,0,0,0,0,0,0,0,46.75,20.52,82,20.52,82h0c1.47,3.05,4.24,5.93,8.4,8.33,12.8,7.39,33.56,7.39,46.36,0,4.15-2.4,6.93-5.28,8.4-8.33h0s20.52-35.27,20.52-82c0,0,0,0,0-.07,0-.45,0-.92,0-1.38A100.21,100.21,0,0,0,118.37,125Z"/><path class="cls-2" d="M75.43,4.71c20.67,0,31.87,4.54,40.2,24.22,4.19,9.89,2.83,21-1.52,30.76a27.16,27.16,0,0,0-2,7.68,28,28,0,0,0-.13,5.61c.83,10.14-2,20.4-9,27.65-7.16,7.45-15.67,11.87-24,11.87-17.11,0-43-26.16-43-58.43S46.75,4.71,75.43,4.71Z"/><path class="cls-5" d="M100,121.33s-.46-.06-1.19-.23c-7.2-1.74-8.42-11.34-2.12-15.23a33.68,33.68,0,0,0,9.06-8.62s-13.92,8-15.46-3.35l-7.16,1.89A39.32,39.32,0,0,1,43.28,83.36h0S43.62,93.55,40,110c0,0,13.13,18.42,30.62,19.4S95.3,126.08,100,121.33Z"/><path class="cls-6" d="M118.82,125.09a21.54,21.54,0,0,0-13.57-12.59C91.33,124,81.7,128.81,60,124.38,52.15,122.79,44.9,115.9,40,110c-4.18,1.57-19.24,11.41-20.23,49.62,0,.47,0,.94,0,1.42h0c0,46.75,20.91,82,20.91,82h0c2.41,5,8.38,9.58,18.25,12.32a49.89,49.89,0,0,0,26.91,0c9.67-2.75,15.6-7.28,18-12.27h0s20.52-35.27,20.52-82c0,0,0,0,0-.07,0-.45,0-.92,0-1.38C124.37,147.11,122.65,135.44,118.82,125.09Z"/><path class="cls-5" d="M102,65.87s-4.45-3.93-6.65,3.75C95.38,69.62,97.67,64.47,102,65.87Z"/><path class="cls-5" d="M98.57,71.29s3-.75.32-3.91C98.89,67.38,100.42,69.84,98.57,71.29Z"/><g class="cls-7"><path class="cls-8" d="M101.16,198c-42-40.14-9.64-76-9.64-76h0c-8.4,4.24-17.41,5.3-31.53,2.42C52.15,122.79,44.9,115.9,40,110c-4.18,1.58-19.24,11.42-20.23,49.63,0,.47,0,.94,0,1.42,0,46.75,20.91,82,20.91,82h0c2.41,5,8.38,9.58,18.25,12.32a49.89,49.89,0,0,0,26.91,0c9.67-2.75,15.6-7.28,18-12.27h0s9.16-15.82,15.24-40.24Z"/></g><path class="cls-9" d="M120.4,41a4.68,4.68,0,0,0-1.83-3.66,4.58,4.58,0,0,0,.75-2.42,4.67,4.67,0,0,0-2.13-3.86,6,6,0,0,0,.75-2.87,6.06,6.06,0,0,0-4.54-5.86,4.47,4.47,0,0,0,.22-1.1,4.48,4.48,0,0,0-3.82-4.39c0-.05,0-.1,0-.15a6.06,6.06,0,0,0-5.58-6A4.51,4.51,0,0,0,100,7.61c-.09,0-.17,0-.26,0a4.49,4.49,0,0,0-4.34-3.52,4.37,4.37,0,0,0-2.18.63,4.37,4.37,0,0,0-7.5-.08,4.4,4.4,0,0,0-2.06-.55c-.15,0-.27.07-.42.08a4.46,4.46,0,0,0-7.13-1.5,6.07,6.07,0,0,0-10-.16,4.48,4.48,0,0,0-2.78-1,4.43,4.43,0,0,0-2.73,1,6,6,0,0,0-9.38,4.67,6.06,6.06,0,0,0-5.45,6,5.67,5.67,0,0,0,.1,1,6.07,6.07,0,0,0-5.62,6c0,.1,0,.21,0,.32a6,6,0,0,0-3.17,9.15,6,6,0,0,0-1.57,9,6.06,6.06,0,0,0-1.73,9.79A4.45,4.45,0,0,0,33,50.87a4.19,4.19,0,0,0,.22,1.28,4.53,4.53,0,0,0-1.46,1.49,4.47,4.47,0,0,0-.35,3.65,4.39,4.39,0,0,0-1.5,1.5,4.48,4.48,0,0,0,.94,5.57,4.45,4.45,0,0,0-.54.61,4.51,4.51,0,0,0,1.35,5.94,4.44,4.44,0,0,0,.65,3.6,4.46,4.46,0,0,0,2.08,7.28,4.47,4.47,0,0,0,.46,3.28,4.42,4.42,0,0,0,.57.65A4.46,4.46,0,0,0,38,93.9s0,0,0,.07a4.48,4.48,0,0,0,3.65,4.36,4.43,4.43,0,0,0,5.54,6.29,4.39,4.39,0,0,0,.51,2.66,4.5,4.5,0,0,0,5,2.06c0,.07,0,.16.08.24a4.42,4.42,0,0,0,7.34.66,3.5,3.5,0,0,0,1.67-.06,4.82,4.82,0,0,0,1.61,2.43,4.88,4.88,0,0,0,6.71-.74,4.48,4.48,0,0,0,5.56-.16c0,.05.08.11.13.15a4.5,4.5,0,0,0,5.31.1A4.52,4.52,0,0,0,87.3,111a4.44,4.44,0,0,0,.68-4,4.51,4.51,0,0,0,4.93-1.54,4.46,4.46,0,0,0-.11-5.54,4.39,4.39,0,0,0,2-1.73A4.48,4.48,0,0,0,94,92.73l0,0a4.48,4.48,0,0,0,.17-4,4.42,4.42,0,0,0,1.21-1.36,4.47,4.47,0,0,0-.82-5.46A3,3,0,0,0,93,76.55a3,3,0,0,0,.22-1.07A3,3,0,0,0,91.93,73a3,3,0,0,0,.59-1.72,3.22,3.22,0,0,0-.14-.7A3.07,3.07,0,0,0,93.93,68a3,3,0,0,0-.66-1.82,3,3,0,0,0,.66-1.83,3.07,3.07,0,0,0,2.8-1.81,4.67,4.67,0,0,0,6.35-3.15A4.61,4.61,0,0,0,109.63,56a4.62,4.62,0,0,0,2.24.63,4.69,4.69,0,0,0,4.07-2.45,2.23,2.23,0,0,0,1.06,0,2.38,2.38,0,0,0,1.76-2.86,2.25,2.25,0,0,0-.24-.52,4.54,4.54,0,0,0,.71-6.72A4.71,4.71,0,0,0,120.4,41Z"/><path class="cls-4" d="M25.65,193.72a123.33,123.33,0,0,0,17.82,5.94,91.93,91.93,0,0,0,18.44,2.64,86.49,86.49,0,0,0,18.6-.91c6.21-.75,12.23-2.49,18.31-4.17a80.43,80.43,0,0,1-18,5.81,78.51,78.51,0,0,1-19,1.42A82.85,82.85,0,0,1,43,201.26,80.4,80.4,0,0,1,25.65,193.72Z"/><path class="cls-3" d="M38.66,115.18a49,49,0,0,0,12.54,8.57A43.07,43.07,0,0,0,65.67,128a43.55,43.55,0,0,0,15-.72,65.53,65.53,0,0,0,14.38-5c-2.29,1.13-4.51,2.42-6.87,3.43a52.16,52.16,0,0,1-7.33,2.36,42.24,42.24,0,0,1-15.36,1A43.71,43.71,0,0,1,38.66,115.18Z"/><path class="cls-2" d="M101.63,209.21s-3.63,19.48,9.27,9.55c8.63-6.63,11-23.37,11-23.37Z"/><path class="cls-3" d="M120.68,195.32a20.82,20.82,0,0,1-17.46,12c2-6.94,8.81-35.28-1.68-69.79,2.46-1.23-4.48-4.2-4.48-4.2s12.46,32.66,2.32,76.81c19.69,1,22.51-14.65,22.56-14.85Z"/><path class="cls-4" d="M97.06,133.34c14.7,27.64,4.55,75.24,4.55,75.24a22.06,22.06,0,0,0,20.33-13.19s8.73-37.53-2.65-68.95c-2.28-6.29-10-9.32-15.66-5.71C97.14,124.89,97.06,133.34,97.06,133.34Z"/></g></g></svg>