<svg xmlns="http://www.w3.org/2000/svg" viewBox="0 0 144.1 280.23"><defs><style>.cls-1{opacity:0.2;}.cls-2{fill:#d8ca9a;}.cls-3{opacity:0.4;}.cls-4{fill:#c69c6d;}.cls-5{fill:#4d4d4d;}.cls-6{fill:#333;}.cls-7{opacity:0.25;}.cls-8{fill:#104055;}.cls-9{fill:#e6dab0;}.cls-10{fill:#666;}.cls-11{opacity:0.1;}.cls-12{fill:#1a1a1a;}.cls-13{opacity:0.5;}.cls-14{opacity:0.3;}.cls-15{opacity:0.17;}</style></defs><title>Recurso 132</title><g id="Capa_2" data-name="Capa 2"><g id="personajes_individuales" data-name="personajes individuales"><g class="cls-1"><ellipse cx="72.05" cy="250.36" rx="72.05" ry="29.87"/></g><path class="cls-2" d="M120,161.67a98.86,98.86,0,0,0-7.63-38.77h0a85.57,85.57,0,0,0-3.94-8h0l0-.07c-.31-.55-.63-1.08-1-1.61-2.25-4.21-7.36-16.69-5.06-40.27l0,0c0-.7.12-1.39.12-2.09a34.56,34.56,0,1,0-69.11,0c0,.73,1.86,14.94-.73,29.78,0,0,0,0,0,0a48.61,48.61,0,0,1-3.65,11.63,78.91,78.91,0,0,0-5.52,10.59h0a98.59,98.59,0,0,0-7.65,38.8c0,.46,0,.93,0,1.38,0,0,0,0,0,.07,0,46.75,20.52,82,20.52,82h0c1.46,3.06,4.24,5.93,8.39,8.34,12.8,7.39,33.56,7.39,46.36,0,4.16-2.41,6.94-5.28,8.4-8.33h0s20.52-35.27,20.52-82v0C120,162.61,120,162.14,120,161.67Z"/><g class="cls-3"><path class="cls-4" d="M101.78,84.11a117.83,117.83,0,0,1,.58-11.94l0,0c0-.7.12-1.39.12-2.1a34.56,34.56,0,0,0-69.11,0c0,.74,1.86,15-.73,29.79,0,0,0,0,0,0,0,.18-.08.32-.11.5,4,11.31,13.66,18,28.62,16.74C82,115.31,90.39,104.61,101.78,84.11Z"/></g><path class="cls-5" d="M112.36,122.9a85.57,85.57,0,0,0-3.94-8h0l0-.07c-.31-.55-.63-1.08-1-1.61a38.22,38.22,0,0,1-2.67-6.58c-5.17,6.8-12.3,13-19.65,18.33a36.77,36.77,0,0,1-55-14.85c-.05-.1-.09-.21-.14-.31-.36.93-.72,1.77-1,2.43a78.91,78.91,0,0,0-5.52,10.59h0a98.59,98.59,0,0,0-7.65,38.8c0,.46,0,.93,0,1.38,0,0,0,0,0,.07,0,46.75,20.52,82,20.52,82h0c2.39,5,8.32,9.53,18,12.27a50,50,0,0,0,26.91.06c9.87-2.74,15.84-7.3,18.25-12.32h0s20.52-35.27,20.52-82v0c0-.48,0-1,0-1.42A98.86,98.86,0,0,0,112.36,122.9Z"/><path class="cls-6" d="M37.24,246.71a21.45,21.45,0,0,0,7.45,6.76c12.8,7.39,33.56,7.39,46.36,0,4.16-2.41,6.94-5.28,8.4-8.33h0s.26-.46.64-1.17C71.31,261.55,48.23,253.12,37.24,246.71Z"/><path class="cls-6" d="M17,145.64s44.74,26.78,101.36-2.71A154.57,154.57,0,0,1,120,163.09s-68.24,35.19-104.23,1.53C15.74,164.62,15.5,153.19,17,145.64Z"/><g class="cls-7"><path class="cls-8" d="M104.75,106.67s-12.76,15-25.91,22C78.84,128.65,96.81,121.91,104.75,106.67Z"/></g><g class="cls-7"><path d="M18.28,165.1s24,19.12,65.58,12.27C83.86,177.37,40.15,189.32,18.28,165.1Z"/></g><g class="cls-7"><path d="M112.36,122.9a85.57,85.57,0,0,0-3.94-8h0l-.06-.07c-.3-.55-.62-1.08-.94-1.61a38.22,38.22,0,0,1-2.67-6.58c-5.17,6.8-12.3,13-19.65,18.33a36.29,36.29,0,0,1-5.27,3.12,50.21,50.21,0,0,0,.55,5c1.41,8.21,5,15.84,7.53,23.79a88.77,88.77,0,0,1-5.09,65.19c-6.08,12.31-15.11,23.59-17.72,37a50,50,0,0,0,16.1-1.63c9.87-2.74,15.84-7.3,18.25-12.32h0s20.52-35.27,20.52-82v0c0-.48,0-.94,0-1.42A98.86,98.86,0,0,0,112.36,122.9Z"/></g><path class="cls-9" d="M93,234.59s-4.8,23.09,10.79,11.59c10.43-7.67,13.71-27.53,13.71-27.53Z"/><path class="cls-10" d="M91.6,148.91C105.09,182.5,93,233.83,93,233.83a26.2,26.2,0,0,0,24.5-15.18s11.23-44.06-1.27-81.62c-2.58-7.74-11.67-11.9-18.63-7.64a15.41,15.41,0,0,0-5,5A16.06,16.06,0,0,0,91.6,148.91Z"/><g class="cls-11"><path class="cls-12" d="M112.86,141.25s4.83,54.53-4.18,90.83c0,0,9.14-18.18,10.37-51.25S112.86,141.25,112.86,141.25Z"/></g><g class="cls-13"><path class="cls-6" d="M91.54,148.71c0,.07,0,.14.06.2C105.09,182.5,93,233.83,93,233.83c.18,0,.34,0,.53,0a201.49,201.49,0,0,0,6.55-49C100.28,166.94,96,155.66,91.54,148.71Z"/></g><g class="cls-11"><path class="cls-8" d="M96.55,127.68s-12.41,5.64-5.25,24.5C91.3,152.18,87.6,135.88,96.55,127.68Z"/></g><path class="cls-9" d="M64.28,6.75c-20.67,0-31.87,4.53-40.2,24.22-4.19,9.89-2.83,20.94,1.52,30.76a27.16,27.16,0,0,1,2,7.68,27.16,27.16,0,0,1,.12,5.6c-.82,10.15,2,20.41,9,27.66,7.15,7.45,15.67,11.86,24,11.86,17.11,0,43-26.15,43-58.42S93,6.75,64.28,6.75Z"/><g class="cls-14"><path class="cls-4" d="M103.34,56.33c0-30.28-9.43-47.19-34.28-49.16-4.61,7.12-8.21,15.16-8.41,23.77a13.88,13.88,0,0,0,.67,5.17c1.62,4.4,6.29,6.7,10.29,9.12,7.25,4.39,14,11.7,13.24,20.13-.61,7-6.07,12.53-7.91,19.27-1.31,4.81-.7,9.9-.83,14.88A50,50,0,0,1,74.7,109.9C89.06,100.89,103.34,80.31,103.34,56.33Z"/></g><path d="M39.88,96a23.35,23.35,0,0,0,4.72.77,28.73,28.73,0,0,0,4.73,0,49.71,49.71,0,0,0,9.37-1.88,21.69,21.69,0,0,1-4.46,2,24.53,24.53,0,0,1-4.82,1C46.17,98,42.73,97.7,39.88,96Z"/><ellipse cx="57.63" cy="68.55" rx="2.5" ry="3.98"/><path d="M54.79,62.4a4.81,4.81,0,0,1,4-1,3.92,3.92,0,0,1,1.92,1.11,3.69,3.69,0,0,1,1,1.9,6,6,0,0,0-3.11-2A11.21,11.21,0,0,0,54.79,62.4Z"/><ellipse cx="38.09" cy="68.55" rx="2.5" ry="3.98"/><path d="M34.48,63.56A4.81,4.81,0,0,1,38,61.27a4,4,0,0,1,2.18.42,3.8,3.8,0,0,1,1.51,1.49,6,6,0,0,0-3.58-.83A11.17,11.17,0,0,0,34.48,63.56Z"/><path d="M45.31,71.8c0,3.81-1.88,7.36-3.51,10.61-.77,1.59-1.64,3.44-1.06,4.9s2.83,1.92,4.57,2.34c-1.78-.09-4-.05-5.31-2-1-2.11.16-4.07.83-5.75.89-1.69,1.8-3.26,2.58-4.94A24.88,24.88,0,0,0,45.31,71.8Z"/><path class="cls-6" d="M75.18,41.25s-3.64,10.29,8.67,12.51c0,0,4.44,10.49-1.61,20.38,0,0,6.45-4,8.88-16.44,2.25-11.55,17.6-.3,6.4,14.32a25,25,0,0,0-5.41,12.41c-.4,3.87.1,8.13,3.24,10.91,0,0-1.21-5.16,3.23-7.73,0,0,4.24,3.48,10.09-1.77,0,0-8.6-.4-5-7.87,0,0,19.13-69-30.9-77.07C40-4.38,24.28,14.54,17.78,32.71A17.17,17.17,0,0,0,37.44,55.39,137.29,137.29,0,0,0,75.18,41.25Z"/><path class="cls-12" d="M95,15.33a39.08,39.08,0,0,1,7.55,13.39,62.8,62.8,0,0,1,3.07,15.16,82.2,82.2,0,0,1-.35,15.45c-.32,2.56-.81,5.09-1.21,7.63l-1.86,7.48,1.34-7.57c.29-2.55.69-5.08.9-7.62A89.64,89.64,0,0,0,104.56,44a67.05,67.05,0,0,0-2.78-15A43.92,43.92,0,0,0,95,15.33Z"/><g class="cls-15"><path d="M100.19,57.59a11.77,11.77,0,0,0-2.55-1.2,4,4,0,0,0-2.52-.11c-1.62.44-2.69,2.11-3.77,3.72a7.84,7.84,0,0,1,1-2.79,4.82,4.82,0,0,1,2.45-2A5.18,5.18,0,0,1,100.19,57.59Z"/></g><g class="cls-7"><path d="M94.7,57.8a6.11,6.11,0,0,1,2.85,5.8,5.75,5.75,0,0,1-1.65,3,12.59,12.59,0,0,1-1.31,1l-1.48.7c1.57-1.46,3.1-3,3.38-4.9a5.22,5.22,0,0,0-.32-2.85A12.34,12.34,0,0,0,94.7,57.8Z"/></g><path class="cls-6" d="M32.46,55.71s-34.35-3.24-29-33.83c0,0,6.16,9.29,17.16,3.27S32.38,3.46,67.65,1.76"/><path class="cls-12" d="M5.79,28.46c1.92,5.39,6.66,9.89,12.36,10.3a9.28,9.28,0,0,0,7.69-2.33A37.39,37.39,0,0,0,31.34,30c3.43-4.58,6.77-9.45,11.42-13A22.68,22.68,0,0,1,50.51,13a28.19,28.19,0,0,1,4.29-.69c1.45,0,2.89.1,4.33.15A23,23,0,0,0,43.2,17.5c-4.46,3.57-7.64,8.43-11,13.09a37.27,37.27,0,0,1-5.79,6.53,10.55,10.55,0,0,1-3.9,2.13,11.88,11.88,0,0,1-4.43.23,13.57,13.57,0,0,1-7.89-3.62A16.91,16.91,0,0,1,5.79,28.46Z"/><g class="cls-7"><path class="cls-5" d="M105.35,54.84c.14,3.29-.5,7.06.71,9.89,2.75-20.46,2.66-58-33.45-63.83C44.7-3.6,29.19,9.48,21.18,24.69c-.25.15-.47.32-.73.46C10.86,30.39,5,24,3.6,22.29A21.37,21.37,0,0,0,16.18,38.11a33.25,33.25,0,0,0,11,2,82.63,82.63,0,0,0,31.69-4.93c4.5-1.65,8.87-3.69,13.53-4.83s9.74-1.31,14.08.73a27,27,0,0,1,4.72,3C98.08,39.32,105,46.18,105.35,54.84Z"/></g></g></g></svg>