<svg xmlns="http://www.w3.org/2000/svg" viewBox="0 0 144.1 269.93"><defs><style>.cls-1{opacity:0.2;}.cls-2{fill:#16a89f;}.cls-3{fill:#24d2c1;}.cls-4{fill:#0b5450;}.cls-5{fill:#fff;}.cls-6{fill:#ddcc9b;}.cls-7{opacity:0.4;}.cls-8{fill:#c69c6d;}.cls-9{opacity:0.15;}.cls-10{opacity:0.1;}.cls-11{fill:#104055;}.cls-12{fill:#935b00;}.cls-13{fill:#e6dab0;}.cls-14{fill:#c47900;}.cls-15{fill:#e58b0a;}</style></defs><title>Recurso 127</title><g id="Capa_2" data-name="Capa 2"><g id="personajes_individuales" data-name="personajes individuales"><g class="cls-1"><ellipse cx="72.05" cy="240.06" rx="72.05" ry="29.87"/></g><path class="cls-2" d="M25.93,113.25a98.59,98.59,0,0,0-7.65,38.8c0,.46,0,.93,0,1.38,0,0,0,0,0,.07,0,46.75,20.52,82,20.52,82h0c1.46,3,4.24,5.93,8.39,8.33,12.81,7.39,33.57,7.39,46.36,0,4.17-2.4,6.94-5.28,8.4-8.33h0s20.52-35.27,20.52-82v0c0-.48,0-.94,0-1.42a98.69,98.69,0,0,0-7.63-38.77Z"/><path class="cls-3" d="M33.36,159.65c-4.39,42.74,7.81,79.47,7.81,79.47s5.29,6.77,18.7,9.38c-.1-.63-9.54-56.2-5.47-83.9A61.48,61.48,0,0,1,33.36,159.65Z"/><path class="cls-4" d="M59.87,165.33h0c-8.94,0-25.4-1.43-35.34-11.05l-.31-.3,0-.43c-.06-.73-1.33-17.86,5.43-28.16l.61-.92.94.58c10.33,6.49,26.13,7.84,37.55,7.84h1.58l-.5,1.5c-4.13,12.19-3.46,29.4-3.44,29.58l0,1.06-1.06.11C65.23,165.14,63.16,165.33,59.87,165.33ZM26.41,153c9.4,8.81,25,10.13,33.46,10.13,1.82,0,3.27-.06,4.18-.11-.08-3.89-.11-17.11,3.11-27.82-11.21-.12-25.94-1.6-36.24-7.59C25.77,136.43,26.27,150.35,26.41,153Z"/><path class="cls-5" d="M30.55,126c-6.62,10.1-5.23,27.45-5.23,27.45C38.82,166.56,65.21,164,65.21,164s-.74-17.45,3.5-30C55.07,134,40.33,132.14,30.55,126Z"/><path class="cls-4" d="M25.71,113.78l89.17-.5s6.5,21.11-45.25,21.11C15.82,134.39,25.71,113.78,25.71,113.78Z"/><path class="cls-6" d="M110.94,105.31h0l-.06-.07c-.3-.55-.63-1.08-.94-1.61-2.25-4.21-7.36-16.69-5.07-40.27a0,0,0,0,1,0,0c0-.7.11-1.39.11-2.09a34.56,34.56,0,1,0-69.11,0c0,.73,1.87,14.94-.73,29.78,0,0,0,0,0,0a48.51,48.51,0,0,1-3.66,11.63,80,80,0,0,0-5.51,10.59s-5.87,19.48,42.12,19.48c46.83,0,46.83-19.44,46.83-19.44A80.87,80.87,0,0,0,110.94,105.31Z"/><path class="cls-4" d="M40.4,238.08c-2.14-7.09-11.81-42-7.67-77.94a.55.55,0,0,1,.63-.49.54.54,0,0,1,.49.62c-4.58,39.79,7.9,78.38,8,78.76a5.76,5.76,0,0,1,.26,1A8.56,8.56,0,0,1,40.4,238.08Z"/><path class="cls-4" d="M59.33,248.28c-.09-.48-9.34-48.63-5.55-83.19a.53.53,0,0,1,.62-.49.56.56,0,0,1,.5.62c-3.77,34.38,5.49,82.8,5.59,83.28A2.22,2.22,0,0,1,59.33,248.28Z"/><g class="cls-7"><path class="cls-8" d="M104.31,75.3a117.77,117.77,0,0,1,.57-11.94l0,0c0-.7.11-1.39.11-2.09a34.56,34.56,0,0,0-69.11,0c0,.74,1.87,14.94-.73,29.78,0,0,0,0,0,0,0,.18-.08.32-.12.49,4,11.31,13.66,18,28.62,16.74C84.56,106.5,92.92,95.81,104.31,75.3Z"/></g><path class="cls-4" d="M72.14,132.67c-.44-.27,11.21-2.58,14.3-8.83s7.69-19.87,25.32-17c0,0,4.6,7.46,7.57,20.59C119.33,127.39,102.81,151.08,72.14,132.67Z"/><path class="cls-2" d="M73.87,134.4c-.45-.27,11.21-2.58,14.3-8.82s6.85-20,24.47-17.18c0,0,4.1,7.24,7.35,20.7C120,129.1,104.54,152.81,73.87,134.4Z"/><g class="cls-9"><path d="M122.49,153.47c0-.48,0-.94,0-1.42a98.69,98.69,0,0,0-7.63-38.77,80.87,80.87,0,0,0-3.94-8h0l-.06-.07c-.31-.55-.63-1.08-.94-1.61a46.34,46.34,0,0,1-4.28-13.09l-.72,0s3,29.7-17,40.66c0,0,34.26,14.93,12.77,56.71S60,213.69,52.9,246.44c12.67,4.63,29.63,3.79,40.67-2.59,4.17-2.4,6.94-5.28,8.4-8.33h0s20.52-35.27,20.52-82Z"/></g><path class="cls-6" d="M87.86,201s-5.37,18.36,8,10.07c8.92-5.53,12.86-21.37,12.86-21.37Z"/><path class="cls-6" d="M92.22,131.56c8.78,28-4.31,68.82-4.31,68.82a21.26,21.26,0,0,0,20.79-10.69s12-35.18,4.14-66.45c-1.57-6.27-8.71-9.92-14.47-7a12,12,0,0,0-2.51,1.69A13,13,0,0,0,92.22,131.56Z"/><g class="cls-10"><path class="cls-11" d="M109.93,126.81s.38,44.4-9.25,73.16c0,0,8.56-14.1,11.69-40.76S109.93,126.81,109.93,126.81Z"/></g><path class="cls-12" d="M29.86,42.79S37.1,78.16,19.29,84.33c0,0,47,17.51,76.87-20.77L45.21,27Z"/><path class="cls-13" d="M62,25.81c-15.56,0-28.76,11-33.6,26.3C26.7,57.41,27.9,63.05,30.51,68A17.13,17.13,0,0,1,32.3,73.9a19.14,19.14,0,0,1,.09,3.76c-.57,6.8,1.36,13.68,6.14,18.54s10.75,8,16.43,8c19.66,0,42.61-17.54,42.61-39.17S81.63,25.81,62,25.81Z"/><g class="cls-7"><path class="cls-8" d="M97.57,65c0-21.64-15.94-39.18-35.6-39.18-15.56,0-28.76,11-33.6,26.3a18,18,0,0,0-.32,9.13,10.83,10.83,0,0,1,3.81.9c2.41,1.1,4.51,2.76,6.88,4,8.44,4.26,18.95,2.41,27.45,6.55S79.25,86,80.2,95.38C90.18,88.2,97.57,77.26,97.57,65Z"/></g><path class="cls-14" d="M46.36,42.58s7.52,25.1,36.41,25.1c0,0,14.44,19.25-4.82,28.88,0,0,8.74,13.79,26,6.89s17.3-21.33,12.48-35.77S126.09,5.1,73.14.28,25,53.23,25,67.68C25,67.68,43.65,60.81,46.36,42.58Z"/><path class="cls-15" d="M52.89,19.17a39.06,39.06,0,0,0,2.87,11.24,35.39,35.39,0,0,0,5.82,9.78A37.66,37.66,0,0,0,70,47.65c3.1,2,6.72,3.64,10.17,5.73C87,57.51,93.46,62.7,97.64,69.77A23.9,23.9,0,0,1,101,81.43a19.32,19.32,0,0,1-3.83,11.21,20.4,20.4,0,0,0-1.69-21.55,40.81,40.81,0,0,0-7.67-8.31,63.11,63.11,0,0,0-9.34-6.64c-3.21-2-6.78-3.62-10.21-6a35.5,35.5,0,0,1-8.68-8.48A35.09,35.09,0,0,1,52.89,19.17Z"/><path class="cls-15" d="M28.54,58.66A107.65,107.65,0,0,0,39,41a63.45,63.45,0,0,0,3.43-9.54A51.54,51.54,0,0,0,43.9,21.33a29.79,29.79,0,0,1,.17,10.49A41.37,41.37,0,0,1,41,41.91,51.1,51.1,0,0,1,35.61,51,44.57,44.57,0,0,1,28.54,58.66Z"/><path class="cls-15" d="M59.43,4.49a50.09,50.09,0,0,1,17.66-.92,41.75,41.75,0,0,1,17,5.74A40.66,40.66,0,0,1,97.85,12l3.35,3.13c1.82,2.44,3.89,4.75,5,7.61a38.07,38.07,0,0,1,3,8.47,67.55,67.55,0,0,1,.94,8.81c-1.57-5.67-3-11.32-6.09-16.09A32.81,32.81,0,0,0,92.42,12.06,48.67,48.67,0,0,0,76.7,6a56.65,56.65,0,0,0-8.54-1.21A68.46,68.46,0,0,0,59.43,4.49Z"/><path class="cls-15" d="M29.67,37.92a34.16,34.16,0,0,1,1.74-9.21,39.28,39.28,0,0,1,3.95-8.59,32.62,32.62,0,0,1,6.06-7.29,27,27,0,0,1,7.95-5A52.81,52.81,0,0,0,42.59,14a48.92,48.92,0,0,0-5.4,7.25A76.54,76.54,0,0,0,29.67,37.92Z"/><path d="M47.71,70.11a9.41,9.41,0,0,1-5.21,7.72l.09-.85a52.92,52.92,0,0,1,5.12,4.93,51.7,51.7,0,0,1-5.77-4.14l-.6-.48.69-.37A12.69,12.69,0,0,0,47.71,70.11Z"/><path d="M42.27,87.25c5.1,1.18,10.08.37,15.12-.94A16.6,16.6,0,0,1,53.82,88a19.53,19.53,0,0,1-3.88.81A13.11,13.11,0,0,1,42.27,87.25Z"/><ellipse cx="56.53" cy="69.22" rx="2.01" ry="4.24"/><path d="M54.24,63.23a3.67,3.67,0,0,1,3.28-.92,3.19,3.19,0,0,1,1.57.93,2.88,2.88,0,0,1,.71,1.59,5.29,5.29,0,0,0-2.53-1.47A10.93,10.93,0,0,0,54.24,63.23Z"/><ellipse cx="40.82" cy="69.22" rx="2.01" ry="4.24"/><path d="M37.92,64.17a3.66,3.66,0,0,1,2.79-2,3.19,3.19,0,0,1,1.8.37,2.78,2.78,0,0,1,1.18,1.27,5.26,5.26,0,0,0-2.86-.57A10.94,10.94,0,0,0,37.92,64.17Z"/><path d="M38.41,64.76A2,2,0,0,0,39.25,66a3.47,3.47,0,0,0,1.41.51A2,2,0,0,1,39,66.3,1.56,1.56,0,0,1,38.41,64.76Z"/><path d="M39.28,64c.09,1.07.89,1.55,1.82,2a2.14,2.14,0,0,1-1.51-.46A1.37,1.37,0,0,1,39.28,64Z"/><path d="M41,63.47c-.37,1,.15,1.78.81,2.58a2.09,2.09,0,0,1-1.18-1A1.37,1.37,0,0,1,41,63.47Z"/><path d="M54.37,64.77A2.1,2.1,0,0,0,55.22,66a3.47,3.47,0,0,0,1.41.51A2,2,0,0,1,55,66.31,1.56,1.56,0,0,1,54.37,64.77Z"/><path d="M55.25,64c.09,1.07.89,1.55,1.82,2a2.12,2.12,0,0,1-1.52-.45A1.38,1.38,0,0,1,55.25,64Z"/><path d="M56.91,63.48c-.37,1,.16,1.78.82,2.58a2.12,2.12,0,0,1-1.18-1A1.38,1.38,0,0,1,56.91,63.48Z"/></g></g></svg>