<svg xmlns="http://www.w3.org/2000/svg" viewBox="0 0 144.1 273.65"><defs><style>.cls-1{opacity:0.2;}.cls-2{fill:#664020;}.cls-3{opacity:0.4;}.cls-4{fill:#603813;}.cls-5{fill:#a9ddf3;}.cls-6{opacity:0.25;}.cls-7{fill:#041015;}.cls-8{opacity:0.15;}.cls-9{fill:#104055;}.cls-10{fill:#754c24;}.cls-11{opacity:0.17;}.cls-12{fill:#b3b3b3;}.cls-13{fill:#fff;}.cls-14{fill:#e6e6e6;}</style></defs><title>Recurso 128</title><g id="Capa_2" data-name="Capa 2"><g id="personajes_individuales" data-name="personajes individuales"><g class="cls-1"><ellipse cx="72.05" cy="243.78" rx="72.05" ry="29.87"/></g><path class="cls-2" d="M123.09,154.92a98.86,98.86,0,0,0-7.62-38.77h0a83.21,83.21,0,0,0-4-8h0l-.06-.08c-.3-.54-.63-1.08-.94-1.6-2.25-4.21-7.36-16.69-5.07-40.27l0,0c0-.7.11-1.39.11-2.1a34.56,34.56,0,0,0-69.11,0c0,.74,1.87,15-.73,29.79,0,0,0,0,0,0A48.51,48.51,0,0,1,32,105.52a80,80,0,0,0-5.51,10.59h0a98.64,98.64,0,0,0-7.65,38.81c0,.46,0,.92,0,1.38,0,0,0,0,0,.07,0,46.74,20.52,82,20.52,82h0c1.46,3.06,4.25,5.93,8.39,8.34,12.81,7.38,33.57,7.38,46.36,0,4.17-2.41,6.94-5.28,8.4-8.33h0s20.52-35.28,20.52-82v0C123.08,155.86,123.09,155.39,123.09,154.92Z"/><g class="cls-3"><path class="cls-4" d="M107.52,98.78c-3.52-5.3-2.48-29-2.06-33.36l0,0c0-.7.11-1.39.11-2.1a34.56,34.56,0,0,0-69.11,0,93.35,93.35,0,0,1-.31,28.1c3.59,5.89,12.72,18.17,28.07,18.9C85.19,111.31,91.77,89.37,107.52,98.78Z"/></g><path class="cls-5" d="M115.47,116.15a83.21,83.21,0,0,0-4-8h0l-.06-.08c-.3-.54-.63-1.08-.94-1.6a38.22,38.22,0,0,1-2.67-6.58c-5.17,6.8-12.3,13-19.65,18.33a36.77,36.77,0,0,1-55-14.85c-.05-.11-.1-.21-.14-.31-.36.93-.72,1.77-1,2.43a80,80,0,0,0-5.51,10.59h0a98.64,98.64,0,0,0-7.65,38.81c0,.46,0,.92,0,1.38,0,0,0,0,0,.07,0,46.74,20.52,82,20.52,82h0c2.39,5,8.32,9.53,18,12.27a50,50,0,0,0,26.9.06c9.87-2.74,15.85-7.3,18.25-12.32h0s20.52-35.28,20.52-82v0c0-.48,0-1,0-1.42A98.86,98.86,0,0,0,115.47,116.15Z"/><g class="cls-6"><path class="cls-7" d="M107.66,100.18s-12.76,15-25.91,22C81.75,122.17,99.72,115.43,107.66,100.18Z"/></g><g class="cls-6"><path class="cls-7" d="M21.87,156.08s25.25,17.45,66.26,7.81C88.13,163.89,45.32,178.77,21.87,156.08Z"/></g><g class="cls-8"><path class="cls-9" d="M115.47,116.15a83.21,83.21,0,0,0-4-8h0l-.06-.08c-.3-.54-.63-1.08-.94-1.6a38.22,38.22,0,0,1-2.67-6.58c-5.17,6.8-12.3,13-19.65,18.33a36.76,36.76,0,0,1-5.27,3.11,45.4,45.4,0,0,0,.55,5c1.41,8.21,5,15.84,7.53,23.79a88.77,88.77,0,0,1-5.09,65.19c-6.09,12.3-15.11,23.59-17.72,37A49.92,49.92,0,0,0,84.3,250.7c9.87-2.74,15.85-7.29,18.25-12.31h0s20.52-35.28,20.52-82v0c0-.48,0-1,0-1.42A98.86,98.86,0,0,0,115.47,116.15Z"/></g><path class="cls-10" d="M67.8,0A74.07,74.07,0,0,0,52.65,1.3c-1.54.5-25.33,8.87-25.74,42.11a27.74,27.74,0,0,0,2.18,11.52l0,0a26.75,26.75,0,0,1,2.05,7.68,27.16,27.16,0,0,1,.12,5.6c-.82,10.14,2,20.4,9,27.66,7.15,7.44,15.67,11.86,24,11.86,17.11,0,43-26.15,43-58.43S96.47,0,67.8,0Z"/><path d="M43.4,89.28a23.35,23.35,0,0,0,4.72.77,29.87,29.87,0,0,0,4.73,0,49.71,49.71,0,0,0,9.37-1.88,22.24,22.24,0,0,1-4.46,2,25.44,25.44,0,0,1-4.82,1C49.69,91.25,46.25,90.94,43.4,89.28Z"/><ellipse cx="61.15" cy="61.8" rx="2.5" ry="3.98"/><path d="M58.3,55.65a4.8,4.8,0,0,1,4.05-1,3.92,3.92,0,0,1,1.92,1.11,3.77,3.77,0,0,1,1,1.9,6,6,0,0,0-3.11-2A11,11,0,0,0,58.3,55.65Z"/><ellipse cx="41.61" cy="61.8" rx="2.5" ry="3.98"/><path d="M38,56.81a4.79,4.79,0,0,1,3.48-2.29,4,4,0,0,1,2.18.42,3.83,3.83,0,0,1,1.52,1.49,6.05,6.05,0,0,0-3.58-.84A11.21,11.21,0,0,0,38,56.81Z"/><path d="M48.83,65.05c0,3.81-1.88,7.36-3.51,10.61-.77,1.59-1.64,3.44-1.06,4.9.73,1.43,2.83,1.92,4.57,2.33-1.78-.08-4,0-5.31-2-1-2.11.16-4.07.83-5.75.89-1.69,1.8-3.26,2.58-4.94A25.46,25.46,0,0,0,48.83,65.05Z"/><g class="cls-3"><path class="cls-4" d="M106.3,34.83s.62,15.41-10.58,19.54c0,0,7.23,3,11.46-3.77C107.18,50.6,107.43,41.15,106.3,34.83Z"/></g><g class="cls-3"><path class="cls-4" d="M98.83,14.12C97,30.93,93.39,52.78,87,64.08h0c-1.91,4.65-5.15,9-6.49,13.85s-.7,9.9-.83,14.89a49.14,49.14,0,0,1-1.42,10.38c14.36-9,28.65-29.58,28.65-53.57C106.88,34.28,104.45,22.39,98.83,14.12Z"/></g><path class="cls-10" d="M94.36,56s10.81-14.45,16.74.23S99.91,78.55,94.47,70.53"/><g class="cls-11"><path d="M107.18,57a11.77,11.77,0,0,0-2.55-1.2,4,4,0,0,0-2.52-.11c-1.62.44-2.69,2.12-3.77,3.72a7.84,7.84,0,0,1,1-2.79,4.82,4.82,0,0,1,2.45-2A5.18,5.18,0,0,1,107.18,57Z"/></g><g class="cls-6"><path d="M101.69,57.22a6.11,6.11,0,0,1,2.85,5.8,5.75,5.75,0,0,1-1.65,3,12.59,12.59,0,0,1-1.31,1l-1.48.7c1.57-1.46,3.1-3,3.38-4.9a5.22,5.22,0,0,0-.32-2.85A12.34,12.34,0,0,0,101.69,57.22Z"/></g><path class="cls-10" d="M84.64,230.28s-7.14,24.11,10.44,13.27c11.76-7.23,17-28,17-28Z"/><path class="cls-12" d="M110.51,215.27a26.47,26.47,0,0,1-23.62,12.85c3.45-8.5,15.77-43.36,7.07-88.3,3.27-1.23-3.91-4-3.91-4s10.23,41-8.37,95.36C106.39,235,112,215.65,112.1,215.4Z"/><path class="cls-13" d="M90.75,139.29c11.26,36.88-6,90.19-6,90.19a28,28,0,0,0,27.39-14s15.82-45.83,5.86-86.85c-2.06-8.46-11.35-13.67-19.13-9.77a16.08,16.08,0,0,0-3.31,2.22C90.41,125.54,88.78,132.83,90.75,139.29Z"/><path class="cls-14" d="M113.45,125.23s3.62,58.26-7,96.7c0,0,10.25-19.12,12.48-54.34S113.45,125.23,113.45,125.23Z"/></g></g></svg>