<svg xmlns="http://www.w3.org/2000/svg" viewBox="0 0 144.1 283.3"><defs><style>.cls-1{fill:#4d4d4d;}.cls-2{fill:#e6dab0;}.cls-3{fill:#363125;}.cls-4{opacity:0.25;}.cls-5{fill:#041015;}.cls-6{opacity:0.4;}.cls-7{fill:#c69c6d;}.cls-8{fill:#43402f;}.cls-9{fill:#1a1a1a;}.cls-10{fill:#fbb03b;}.cls-11{fill:#c19416;}.cls-12{fill:#ebba16;}.cls-13{fill:#ffeab6;}.cls-14{fill:#f9d367;}.cls-15{opacity:0.15;}.cls-16{fill:#272624;}.cls-17{opacity:0.1;}.cls-18{fill:#603813;}.cls-19{fill:#a67c52;}.cls-20{opacity:0.17;}.cls-21{opacity:0.32;}</style></defs><title>Recurso 149</title><g id="Capa_2" data-name="Capa 2"><g id="personajes_individuales" data-name="personajes individuales"><ellipse class="cls-1" cx="72.05" cy="253.43" rx="72.05" ry="29.87"/><path class="cls-2" d="M141.35,170.17a98.86,98.86,0,0,0-7.63-38.77h0a85.57,85.57,0,0,0-3.94-8h0l-.06-.08c-.3-.54-.62-1.08-.94-1.6-2.25-4.21-7.36-16.69-5.06-40.27l0,0c0-.7.12-1.39.12-2.09a34.56,34.56,0,1,0-69.11,0c0,.73,1.86,14.94-.73,29.78,0,0,0,0,0,0a48.61,48.61,0,0,1-3.65,11.63,78.91,78.91,0,0,0-5.52,10.59h0a98.64,98.64,0,0,0-7.65,38.81c0,.46,0,.92,0,1.38,0,0,0,0,0,.07,0,46.74,20.52,82,20.52,82h0c1.46,3.06,4.24,5.93,8.39,8.34,12.8,7.39,33.56,7.39,46.36,0,4.16-2.41,6.94-5.28,8.4-8.33h0s20.52-35.28,20.52-82v0C141.33,171.11,141.35,170.64,141.35,170.17Z"/><path class="cls-3" d="M133.72,131.4a85.57,85.57,0,0,0-3.94-8h0l-.06-.08c-.3-.54-.62-1.08-.94-1.6a38.22,38.22,0,0,1-2.67-6.58c-5.17,6.8-12.3,13-19.65,18.33a36.77,36.77,0,0,1-55-14.85c-.05-.1-.09-.21-.14-.31-.36.93-.72,1.77-1,2.43a78.91,78.91,0,0,0-5.52,10.59h0a98.64,98.64,0,0,0-7.65,38.81c0,.46,0,.92,0,1.38,0,0,0,0,0,.07,0,46.74,20.52,82,20.52,82h0c2.39,5,8.32,9.53,18,12.27a50,50,0,0,0,26.91.06c9.87-2.74,15.84-7.3,18.25-12.32h0s20.52-35.28,20.52-82v0c0-.48,0-1,0-1.42A98.86,98.86,0,0,0,133.72,131.4Z"/><g class="cls-4"><path class="cls-5" d="M125.87,115.45s-12.76,15-25.91,22C100,137.43,117.93,130.69,125.87,115.45Z"/></g><g class="cls-6"><g class="cls-6"><path class="cls-7" d="M126.16,115.17c-3.59-9.49-3.14-28.94-2.82-33.31l0,0c0-.7.09-1.39.07-2.09a34.55,34.55,0,1,0-69.09,1.59,93.29,93.29,0,0,1,.33,28.1c3.73,5.8,13.14,17.87,28.5,18.25C104.13,128.21,110.2,106.13,126.16,115.17Z"/></g></g><path class="cls-8" d="M63.14,133.2s18.5,14.42,40.71,2L67.09,154.35Z"/><g class="cls-4"><polygon class="cls-5" points="67.09 154.35 91.05 164.01 91.05 148.55 113.48 157.87 108.35 132.11 110.83 154.96 89.78 146.31 89.65 161.56 67.09 154.35"/></g><g class="cls-4"><polygon class="cls-5" points="65.33 154.35 53.15 157.59 58.64 144.2 42.33 140.83 52.86 124.08 44.2 140.28 60.35 143.09 55.16 155.88 65.33 154.35"/></g><path class="cls-9" d="M41.7,210.64s14.37,19.1,95.38-1.48l-3.73,14.08s-55.77,18-87.5,2.74C45.85,226,42.8,215.66,41.7,210.64Z"/><path class="cls-9" d="M65.33,157.59c-.88,4.6-1.36,9.25-1.78,13.89s-.67,9.3-.77,14c-.3,9.33,0,18.66.36,28-.58-4.65-1-9.31-1.26-14s-.26-9.36-.18-14.05C62.08,176.06,62.84,166.64,65.33,157.59Z"/><path class="cls-10" d="M42.69,158.23a46.63,46.63,0,0,0,17.51,4.05s-.62,2.9-.85,5c0,0-11.18.25-17-4Z"/><path class="cls-3" d="M43.24,159.12l-.34,3.8s4.07,3.83,15.88,3.66a35.11,35.11,0,0,1,.67-3.61A41.78,41.78,0,0,1,43.24,159.12Z"/><path class="cls-10" d="M55.25,135.23a38.16,38.16,0,0,1-5.56-1.5l-2.59,5.06a14,14,0,0,0,5.82,1.3Z"/><path class="cls-3" d="M54.24,135.7a37.61,37.61,0,0,1-4-1.17l-2.13,3.89a12.47,12.47,0,0,0,4.24,1Z"/><g class="cls-4"><path class="cls-5" d="M96.16,175.73v0a1.76,1.76,0,0,0-.31-.75,4.87,4.87,0,0,1-.69-2.73,6.5,6.5,0,0,1,1.24-2.84l-2-2.24a2.53,2.53,0,0,1-1.88.41,3.14,3.14,0,0,1-2.09-.65,3.1,3.1,0,0,1-2.14.39,2.53,2.53,0,0,1-1.81-.64l-2.24,2a6.57,6.57,0,0,1,.87,3,4.84,4.84,0,0,1-1,2.63,1.8,1.8,0,0,0-.39.7v0a3.87,3.87,0,0,0,2.07,4.53c1.43.7,3.78,2,3.73,2.7.05-.73,2.54-1.7,4.05-2.22A3.88,3.88,0,0,0,96.16,175.73Z"/></g><path class="cls-11" d="M95.67,175.4v0a1.78,1.78,0,0,0-.3-.74,4.87,4.87,0,0,1-.7-2.74,6.5,6.5,0,0,1,1.24-2.84l-2-2.24a2.56,2.56,0,0,1-1.88.42,3.17,3.17,0,0,1-2.09-.66,3.1,3.1,0,0,1-2.14.39,2.54,2.54,0,0,1-1.81-.64l-2.24,2a6.58,6.58,0,0,1,.87,3,4.87,4.87,0,0,1-1,2.63,1.86,1.86,0,0,0-.39.7v0a3.87,3.87,0,0,0,2.07,4.53c1.43.71,3.78,2,3.73,2.7,0-.73,2.54-1.69,4-2.22A3.87,3.87,0,0,0,95.67,175.4Z"/><path class="cls-12" d="M89.1,180.22a16.87,16.87,0,0,0-3.37-2,2.82,2.82,0,0,1-1.52-3.29v0a.78.78,0,0,1,.16-.28,5.92,5.92,0,0,0,1.31-3.28,6.3,6.3,0,0,0-.63-2.78l1-.89a3.94,3.94,0,0,0,1.42.35h.3a5.48,5.48,0,0,0,2.09-.24,5.42,5.42,0,0,0,2.05.5l.29,0a4.11,4.11,0,0,0,1.46-.17l.89,1a6.33,6.33,0,0,0-1,2.68,5.78,5.78,0,0,0,.88,3.42.67.67,0,0,1,.13.3v0a2.82,2.82,0,0,1-1.91,3.08A17.43,17.43,0,0,0,89.1,180.22Z"/><path class="cls-13" d="M92.43,173.6a2.91,2.91,0,1,1-2.72-3.08A2.91,2.91,0,0,1,92.43,173.6Z"/><path class="cls-14" d="M89.42,176.32l.88,3.27c.29-.14.61-.28,1-.42l-.81-3A2.79,2.79,0,0,1,89.42,176.32Z"/><path class="cls-14" d="M89,170.57,88.3,168h-.81l-.3,0,.8,3A2.85,2.85,0,0,1,89,170.57Z"/><g class="cls-15"><path d="M133.73,131.41a83.21,83.21,0,0,0-3.95-8h0l-.06-.07c-.3-.55-.63-1.08-.94-1.61a38.22,38.22,0,0,1-2.67-6.58c-5.17,6.8-12.3,13-19.65,18.33a37.79,37.79,0,0,1-5.27,3.12,45.22,45.22,0,0,0,.55,5c1.41,8.21,5,15.84,7.53,23.79a88.77,88.77,0,0,1-5.09,65.19c-6.09,12.3-15.11,23.59-17.72,37A49.91,49.91,0,0,0,102.56,266c9.87-2.74,15.85-7.3,18.25-12.32h0s20.52-35.27,20.52-82c0,0,0,0,0,0,0-.48,0-.95,0-1.42A98.86,98.86,0,0,0,133.73,131.41Z"/></g><path class="cls-2" d="M111.87,235.1s-4.59,22,10.3,11.07c10-7.32,13.09-26.28,13.09-26.28Z"/><path class="cls-16" d="M133.84,219.79A23.71,23.71,0,0,1,113.72,233c2.44-7.84,10.85-39.85-.25-79.3,2.83-1.34-5-4.88-5-4.88s13.37,37.39.81,87.29c22.32,1.6,25.91-16.1,26-16.33Z"/><path class="cls-3" d="M108.49,148.83c16,31.75,3.38,85.55,3.38,85.55a25,25,0,0,0,23.39-14.49s10.81-42.41-1.36-78.36c-2.44-7.2-11.15-10.82-17.64-6.86C108.78,139.24,108.49,148.83,108.49,148.83Z"/><path class="cls-10" d="M132.17,147.75a49.5,49.5,0,0,1-17.52,7.57s1.21,2.91,1.85,5.09c0,0,11.73-1.87,17-7.4Z"/><path class="cls-3" d="M131.77,148.77l1.08,3.91s-3.52,4.78-15.89,6.86c0,0-.77-2.36-1.39-3.65A44.24,44.24,0,0,0,131.77,148.77Z"/><g class="cls-4"><path class="cls-5" d="M115.16,146.57s7.55,51.71.93,86.8c0,0,6.4-18.07,5.79-49.66S115.16,146.57,115.16,146.57Z"/></g><path class="cls-2" d="M85.76,15.94c-20.67,0-31.87,4.53-40.2,24.22C41.37,50,42.73,61.1,47.08,70.92a27.09,27.09,0,0,1,2,7.67,28,28,0,0,1,.13,5.61c-.83,10.14,2,20.4,9,27.66,7.16,7.44,15.67,11.86,24,11.86,17.11,0,43-26.16,43-58.43S114.44,15.94,85.76,15.94Z"/><g class="cls-17"><path class="cls-18" d="M117.09,29.7c-1.88,16.81-5.44,38.66-11.85,50h0c-1.9,4.66-5.15,8.95-6.49,13.85s-.7,9.91-.82,14.89a49.79,49.79,0,0,1-1.42,10.38c14.36-9,28.65-29.58,28.65-53.56C125.15,49.86,122.71,38,117.09,29.7Z"/></g><path d="M61.36,105.22a23.33,23.33,0,0,0,4.72.76,27.79,27.79,0,0,0,4.74,0,49.74,49.74,0,0,0,9.36-1.87,22.24,22.24,0,0,1-4.46,2,25.18,25.18,0,0,1-4.81,1C67.65,107.19,64.21,106.88,61.36,105.22Z"/><ellipse cx="79.11" cy="77.73" rx="2.5" ry="3.98"/><path d="M76.27,71.59a4.75,4.75,0,0,1,4-1,4,4,0,0,1,1.93,1.1,3.79,3.79,0,0,1,.94,1.91,6,6,0,0,0-3.11-2A11,11,0,0,0,76.27,71.59Z"/><ellipse cx="59.57" cy="77.73" rx="2.5" ry="3.98"/><path d="M56,72.75a4.78,4.78,0,0,1,3.49-2.29,3.91,3.91,0,0,1,2.18.42,3.74,3.74,0,0,1,1.51,1.49,6,6,0,0,0-3.58-.84A11,11,0,0,0,56,72.75Z"/><path d="M66.79,81c0,3.81-1.88,7.36-3.5,10.61-.78,1.58-1.65,3.43-1.07,4.9.73,1.42,2.83,1.92,4.57,2.33-1.78-.09-4,0-5.31-2-1-2.11.16-4.07.84-5.75.88-1.7,1.8-3.26,2.57-4.94A24.88,24.88,0,0,0,66.79,81Z"/><path class="cls-19" d="M96.66,50.44S93,60.73,105.33,63c0,0,4.44,10.49-1.61,20.37,0,0,6.46-4,8.88-16.44,2.26-11.57,17.67-.24,6.32,14.43A24.57,24.57,0,0,0,113.55,94c-.32,3.76.26,7.82,3.28,10.49,0,0-1.21-5.16,3.23-7.73,0,0,4.24,3.48,10.09-1.76,0,0-8.6-.41-5-7.87,0,0,19.12-69-30.91-77.07S41.41,50.62,43,66.56C43,66.56,61,69.81,96.66,50.44Z"/><path class="cls-7" d="M47.71,62.23c10.68-2.66,21.28-5.41,31.4-9.44a78.14,78.14,0,0,0,14.57-7.15c4.5-2.89,8.83-6.46,11.14-11.52-1.47,5.44-5.76,9.65-10.21,12.89A69.52,69.52,0,0,1,79.9,54.79,130.47,130.47,0,0,1,64,59.62,115.89,115.89,0,0,1,47.71,62.23Z"/><path class="cls-7" d="M44.69,55.69a46.48,46.48,0,0,1,3.53-17.35A42.75,42.75,0,0,1,58.33,23.58c4.49-4,9.65-7.39,15.41-9.06,2.78-1.16,5.8-1.4,8.68-2.08,2.94-.34,5.91-.42,8.84-.53-2.9.6-5.82.88-8.65,1.56-2.78.89-5.69,1.3-8.3,2.61a42,42,0,0,0-14.5,9.07A43.8,43.8,0,0,0,49.73,39,59.77,59.77,0,0,0,44.69,55.69Z"/><path class="cls-7" d="M116.49,24.52A38.67,38.67,0,0,1,124,37.91a63.2,63.2,0,0,1,3.08,15.16,83.07,83.07,0,0,1-.36,15.45c-.31,2.56-.81,5.09-1.21,7.62l-1.86,7.49L125,76.05c.29-2.54.69-5.07.9-7.62A89.63,89.63,0,0,0,126,53.15a67,67,0,0,0-2.78-15A43.92,43.92,0,0,0,116.49,24.52Z"/><g class="cls-20"><path d="M121.67,66.78a12.31,12.31,0,0,0-2.55-1.21,4.05,4.05,0,0,0-2.52-.11c-1.62.44-2.69,2.12-3.77,3.73a7.89,7.89,0,0,1,1-2.8,4.8,4.8,0,0,1,2.45-2A5.17,5.17,0,0,1,121.67,66.78Z"/></g><g class="cls-4"><path d="M116.19,67A6.11,6.11,0,0,1,119,72.78a5.67,5.67,0,0,1-1.65,3,16,16,0,0,1-1.31,1l-1.48.69c1.58-1.45,3.11-3,3.38-4.89a5.17,5.17,0,0,0-.32-2.86A12.23,12.23,0,0,0,116.19,67Z"/></g><path class="cls-7" d="M48.51,59.07a187.21,187.21,0,0,0,20.05-9.53c6.38-3.63,12.42-7.87,16.82-14a27.11,27.11,0,0,1-6.57,9.16,46.8,46.8,0,0,1-9.18,6.67,65.58,65.58,0,0,1-10.27,4.7A61.13,61.13,0,0,1,48.51,59.07Z"/><path class="cls-8" d="M126.84,36.19a51.51,51.51,0,0,1-.18,5.36c-.1.15-.18.26-.29.4v0c-.32.47-.65.94-1,1.37a63.4,63.4,0,0,1-4.06,5,50.8,50.8,0,0,1-7,6.3c-.83.62-1.67,1.2-2.54,1.74a2.71,2.71,0,0,1-.43.29,12.41,12.41,0,0,1-1.12.69,6.4,6.4,0,0,1-1,.54c-.07.08-.11.11-.18.11a20.22,20.22,0,0,1-2.5,1.27c-.8.4-1.6.76-2.39,1.09h0a.31.31,0,0,1-.22.11,7.8,7.8,0,0,1-1.27.5,10.52,10.52,0,0,1-1.3.47,2,2,0,0,1-.65.22.47.47,0,0,1-.22.07,8.74,8.74,0,0,1-1.34.44c-.47.14-.94.25-1.41.4l-.87.21h0c-1.12.29-2.32.55-3.51.77l-.69.1L90.47,64h-.26c-4.85-3-9.56-5.8-14.16-8.19C66.08,50.57,56.7,47,48,45.28a.8.8,0,0,1-.26,0c-1.45-.25-2.86-.47-4.27-.62l.94-12.1.65-8.3a16.5,16.5,0,0,1,6.23-11.74C70.5-2.36,91.26-4.39,114,8.69,122.68,15.43,126.66,24.74,126.84,36.19Z"/><path class="cls-3" d="M109.13,58s-21,13.91-31.51,21.92c-4.46,3.44-12.43,5.62-17.83,1.34-.33-.25-.65-.51-1-.76a59.39,59.39,0,0,0-16.71-7.83c-.18-.07-.36-.11-.54-.18a56,56,0,0,0-14-2.43,23.74,23.74,0,0,0-10.43,1.67C16.46,72,16,71,16.49,70.5c3.55-3.66,13.61-12.64,16.8-16,4.89-5.22,8.94-9.08,10.22-9.86C64.21,32,97.53,59.23,109.13,58Z"/><path class="cls-12" d="M48.45,28.77a10.17,10.17,0,0,1,1.95-.32,3.68,3.68,0,0,1,2.68.55,2.83,2.83,0,0,1,1,2.07,3.3,3.3,0,0,1-.65,2.38,3.46,3.46,0,0,1-2.29,1.09l-.37,0,.25,3.6-1.88.14ZM50.65,33a1.4,1.4,0,0,0,.3,0c.95-.07,1.33-.78,1.26-1.68s-.45-1.48-1.32-1.42a1.37,1.37,0,0,0-.46.1Z"/><path class="cls-12" d="M62.34,33.55c-.34,3.64-1.76,5-3.6,4.83-2.19-.2-2.84-2.6-2.6-5.25s1.5-4.83,3.64-4.63C62.12,28.71,62.54,31.34,62.34,33.55Zm-4.25-.22c-.2,2.2.11,3.35.87,3.43s1.23-1.34,1.41-3.3c.15-1.7,0-3.26-.81-3.33S58.28,31.25,58.09,33.33Z"/><path class="cls-12" d="M65.52,29.4l1.85.38-1.61,7.95,2.45.49-.32,1.57-4.29-.87Z"/><path class="cls-12" d="M73.94,31.4l-2.57,9.37-1.82-.5,2.57-9.37Z"/><path class="cls-12" d="M78,42.78a3.74,3.74,0,0,1-1.46-.25c-2.34-.79-2.8-3.1-1.92-5.7,1.17-3.46,3.54-4.16,5.33-3.55a2.57,2.57,0,0,1,1.15.66l-.8,1.4a1.81,1.81,0,0,0-.77-.46c-1-.34-2.22.22-3,2.49s-.2,3.33.89,3.7a3.57,3.57,0,0,0,.9.16Z"/><path class="cls-12" d="M85,35.26l-3.6,9-1.76-.7,3.6-9Z"/><path class="cls-12" d="M86,43.82l-1.31,1.84L83,44.91l5.91-8,2,.93-2.28,9.61L87,46.73l.53-2.19Zm2-.69.55-2c.15-.58.43-1.51.62-2.13l0,0c-.36.55-.91,1.41-1.23,1.87l-1.16,1.69Z"/><g class="cls-21"><path class="cls-9" d="M48.51,19.74a64.53,64.53,0,0,1,18.76.56,72.36,72.36,0,0,1,18.06,5.56A35.32,35.32,0,0,0,93.81,29a21.11,21.11,0,0,0,8.84-.4c5.82-1.55,10.82-5.7,14.6-10.6-3.06,5.41-7.91,10.14-14.12,12.19a20.62,20.62,0,0,1-9.65.75,37,37,0,0,1-9.06-3.14A78.56,78.56,0,0,0,67,21.93,90.42,90.42,0,0,0,48.51,19.74Z"/></g></g></g></svg>