<svg xmlns="http://www.w3.org/2000/svg" viewBox="0 0 144.1 274.18"><defs><style>.cls-1{opacity:0.2;}.cls-2{fill:#754c24;}.cls-3{fill:#f7931e;}.cls-4{fill:#fbb03b;}.cls-5{opacity:0.1;}.cls-6{fill:#664020;}.cls-7{opacity:0.4;}.cls-8{fill:#603813;}.cls-9{opacity:0.15;}.cls-10{fill:#1a1a1a;}</style></defs><title>Recurso 131</title><g id="Capa_2" data-name="Capa 2"><g id="personajes_individuales" data-name="personajes individuales"><g class="cls-1"><ellipse cx="72.05" cy="244.31" rx="72.05" ry="29.87"/></g><path class="cls-2" d="M4.26,193.81S-7,209.26,8.37,206c10.26-2.18,19.33-15.76,19.33-15.76Z"/><path class="cls-3" d="M26.64,189.65a20.15,20.15,0,0,1-20.21,3.18c4.64-5.21,22.35-27.05,27.58-61.47,2.66,0-2.15-5.51-2.15-5.51s-2.74,33.62-29.94,67.84c16.72,9.06,25.69-3.38,25.82-3.54Z"/><path class="cls-4" d="M31.86,125.85c1.3,30.18-27.34,67.4-27.34,67.4a21.27,21.27,0,0,0,23.18-3s23.22-29,26.39-61.12c.64-6.44-4.84-12.29-11.25-11.49C35.45,118.52,31.86,125.85,31.86,125.85Z"/><g class="cls-5"><path d="M43.32,117.61a16.16,16.16,0,0,0-1.44,2.24c1.29,30.18-27.35,67.4-27.35,67.4l.17.08a15.45,15.45,0,0,0,19.22-6c7.12-11,18.06-31,20.17-52.27C54.71,122.83,49.52,117.16,43.32,117.61Z"/></g><path class="cls-4" d="M119.05,187.13a24.72,24.72,0,0,1,3.48-12.71c6.34-10.61,10.16-22.62,8.81-34.91a80.59,80.59,0,0,0-7-25.15l-88.95,0a98.43,98.43,0,0,0-7.66,38.81c0,.46,0,.92,0,1.38,0,0,0,0,0,.07,0,46.74,20.52,82,20.52,82h0c2.39,5,8.32,9.53,18,12.26a50,50,0,0,0,26.89.06c9.88-2.73,15.86-7.29,18.27-12.31h0a124.6,124.6,0,0,0,5.82-12.1c4.34-10.17,4.53-21.42,2.27-32.25A24.63,24.63,0,0,1,119.05,187.13Z"/><path class="cls-3" d="M124.39,114.36h0s0,19.44-46.83,19.44c-43.27,0-42.76-15.83-42.24-18.94h-.07s-9.89,20.61,43.93,20.61C130.88,135.47,124.39,114.36,124.39,114.36Z"/><path class="cls-3" d="M124.39,114.36h0s0,19.44-46.83,19.44c-43.27,0-42.76-15.83-42.24-18.94h-.07s-9.89,20.61,43.93,20.61C130.88,135.47,124.39,114.36,124.39,114.36Z"/><path class="cls-6" d="M120.41,106.39h0l0-.08c-.31-.54-.63-1.08-.94-1.6-2.26-4.21-7.37-16.69-5.07-40.27l0,0c0-.7.12-1.39.12-2.1a34.56,34.56,0,0,0-69.11,0c0,.74,1.86,14.95-.73,29.79,0,0,0,0,0,0a48.72,48.72,0,0,1-3.65,11.64,77.15,77.15,0,0,0-5.51,10.59S29.53,133.8,77.52,133.8c46.83,0,46.83-19.44,46.83-19.44A84.35,84.35,0,0,0,120.41,106.39Z"/><path class="cls-3" d="M82,133.74c-.45-.27,11.21-2.58,14.3-8.83s7.26-20,24.89-17.19c0,0,5,7.61,8,20.74C129.13,128.46,112.62,152.15,82,133.74Z"/><path class="cls-4" d="M83.67,135.47c-.44-.27,11.21-2.58,14.3-8.82s6.61-20,24.24-17.17c0,0,4.33,7.23,7.58,20.69C129.79,130.17,114.34,153.88,83.67,135.47Z"/><g class="cls-7"><path class="cls-8" d="M113.77,76.38c0-3.61.16-7.58.58-11.94l0,0c0-.7.12-1.39.12-2.09a34.56,34.56,0,1,0-69.11,0c0,.73,1.86,14.94-.73,29.78,0,0,0,0,0,0,0,.19-.07.33-.11.5,4,11.31,13.66,18,28.62,16.74C94,107.58,102.38,96.88,113.77,76.38Z"/></g><g class="cls-9"><path d="M124.39,114.36h0a84.35,84.35,0,0,0-3.94-8h0l0-.08c-.31-.54-.63-1.08-.94-1.6a36.52,36.52,0,0,1-2-4.61c-10.21,1.28-24.81,5.33-26.48,18.08-2.59,19.82,12.65,9.26,0,35.89s24.1,45-14.15,85.66c-3.36,3.57-6.28,6.7-8.85,9.46a50.05,50.05,0,0,0,25.29-.28c9.88-2.73,15.86-7.29,18.27-12.31h0a121.74,121.74,0,0,0,5.82-12.1c4.34-10.17,4.53-21.42,2.27-32.25a25,25,0,0,1,3-17.83c6.34-10.61,10.16-22.62,8.81-34.91A80.59,80.59,0,0,0,124.39,114.36Z"/></g><path class="cls-2" d="M71.44,26.89c-15.56,0-28.77,11-33.6,26.3C36.17,58.49,37.37,64.13,40,69a17.25,17.25,0,0,1,1.8,6,18.35,18.35,0,0,1,.08,3.76c-.56,6.8,1.36,13.68,6.15,18.54s10.74,8,16.43,8c19.66,0,42.6-17.53,42.6-39.17S91.1,26.89,71.44,26.89Z"/><g class="cls-9"><path d="M107,66c0-21.63-15.93-39.17-35.59-39.17-15.56,0-28.77,11-33.6,26.3a17.87,17.87,0,0,0-.32,9.12,11.34,11.34,0,0,1,3.81.9c2.41,1.11,4.51,2.77,6.87,4,8.44,4.26,19,2.42,27.45,6.56s13.06,13.37,14,22.73C99.64,89.23,107,78.28,107,66Z"/></g><path d="M57.18,71.19A9.42,9.42,0,0,1,52,78.91l.09-.85A54.1,54.1,0,0,1,57.18,83a53.14,53.14,0,0,1-5.78-4.14l-.59-.49L51.5,78A12.73,12.73,0,0,0,57.18,71.19Z"/><path d="M51.73,88.32c5.1,1.19,10.08.38,15.12-.93a16.53,16.53,0,0,1-3.56,1.67,20.43,20.43,0,0,1-3.88.81A13.15,13.15,0,0,1,51.73,88.32Z"/><ellipse cx="65.99" cy="70.3" rx="2.01" ry="4.24"/><path d="M63.71,64.31A3.65,3.65,0,0,1,67,63.39a3.15,3.15,0,0,1,1.58.93,2.87,2.87,0,0,1,.7,1.59,5.26,5.26,0,0,0-2.52-1.47A11,11,0,0,0,63.71,64.31Z"/><ellipse cx="50.29" cy="70.3" rx="2.01" ry="4.24"/><path d="M47.39,65.24a3.65,3.65,0,0,1,2.79-1.94,3.17,3.17,0,0,1,1.79.37,2.86,2.86,0,0,1,1.19,1.27,5.29,5.29,0,0,0-2.87-.57A11.09,11.09,0,0,0,47.39,65.24Z"/><path d="M47.87,65.84A2.1,2.1,0,0,0,48.72,67a3.28,3.28,0,0,0,1.41.5,2,2,0,0,1-1.66-.15A1.57,1.57,0,0,1,47.87,65.84Z"/><path d="M48.75,65.06c.08,1.07.89,1.55,1.82,2a2.07,2.07,0,0,1-1.52-.46A1.37,1.37,0,0,1,48.75,65.06Z"/><path d="M50.41,64.55c-.37,1,.16,1.78.82,2.58a2.07,2.07,0,0,1-1.18-1.06A1.37,1.37,0,0,1,50.41,64.55Z"/><path d="M63.84,65.85A2,2,0,0,0,64.68,67a3.25,3.25,0,0,0,1.42.51,2,2,0,0,1-1.66-.15A1.57,1.57,0,0,1,63.84,65.85Z"/><path d="M64.71,65.06c.09,1.07.89,1.55,1.83,2A2.06,2.06,0,0,1,65,66.6,1.38,1.38,0,0,1,64.71,65.06Z"/><path d="M66.38,64.56c-.37,1,.15,1.78.81,2.58A2.11,2.11,0,0,1,66,66.08,1.37,1.37,0,0,1,66.38,64.56Z"/><path class="cls-10" d="M55.82,43.66s-1.51,6.14,5,7.26c0,0,.11,5.42,5.26,6.06,0,0,2.47,8.28,11.92,4.59,0,0,.26,5.26,6.79,6s8-3,8-3S91,68.42,95,73.45c0,0-3.88,5.81-.36,10.11a10.54,10.54,0,0,0-1.12,11.59s-3,5,3.7,8.16c0,0,4.17,6.53,12.56,3.7s5.65-8.16,5.65-8.16A5.18,5.18,0,0,0,122,97.13a7.36,7.36,0,0,0,.9-7.73s4-1.44,4.38-5.23a7.14,7.14,0,0,0-2.7-6.08s3.27-1.43,2.74-6.9-4.62-6.33-4.62-6.33,3.59-1,3.59-6.12-3.19-6-3.19-6a11.12,11.12,0,0,0,2.59-8c-.2-5.18-3.29-5.79-3.29-5.79s2.4-7.18-.6-12.11-5.68-6.65-5.68-6.65.6-5.56-5.29-9.55-8.27-1.79-8.27-1.79-1.4-6.57-9.77-7.82S82.55,3.82,82.55,3.82,80.19-.37,72.05,0s-9.69,5-9.69,5-4.43-2.65-10.07.74-4.9,8.37-4.9,8.37a4.74,4.74,0,0,0-5,2.3,7,7,0,0,0-.9,5.93s-3.48,1.24-4,4.48A10.26,10.26,0,0,0,38,32.33a7.15,7.15,0,0,0-2.83,5.58c-.28,4,1.9,4.79,1.9,4.79s-3.07.2-3.67,5.48,1.77,5.59,1.77,5.59a7.1,7.1,0,0,0-1.87,6c.4,4,1.87,4.8,1.87,4.8s-1.37,5,4.71,5.26c0,0,6.28-2.27,3.29-8.75,0,0,4.24.6,5.11-3.59,0,0,5.32-3,2.4-7.28C50.68,50.17,55,51.5,55.82,43.66Z"/><path class="cls-2" d="M96.39,202s-6.8,18.41,7.46,10.87c9.52-5,14.67-21,14.67-21Z"/><path class="cls-3" d="M117.31,191.58a20.63,20.63,0,0,1-19,8.8c3.11-6.44,14.49-33,10-68.4,2.61-.79-3.67-4.84-3.67-4.84s6.7,34-10.57,75.35c19,4.26,24.42-10.53,24.5-10.73Z"/><path class="cls-4" d="M104.61,127.14c9.73,29.43-8.13,74.19-8.13,74.19a21.82,21.82,0,0,0,22-9.48s14.79-35.16,8.94-67.73c-1.17-6.52-8.21-10.77-14.32-8.19C106.1,118.9,104.61,127.14,104.61,127.14Z"/><g class="cls-5"><path d="M113.61,115.8a17.33,17.33,0,0,0-.79,2.61c9.73,29.44-8.13,74.19-8.13,74.19l.19,0c7.71,1.2,15.05-3.89,17.34-11.36,3.94-12.86,9.12-35.57,5.24-57.15C126.32,117.76,119.61,113.62,113.61,115.8Z"/></g></g></g></svg>