<svg xmlns="http://www.w3.org/2000/svg" viewBox="0 0 162.97 267.35"><defs><style>.cls-1{opacity:0.2;}.cls-2{fill:#e6dab0;}.cls-3{opacity:0.1;}.cls-4{fill:#104055;}.cls-5{fill:#c1272d;}.cls-6{fill:#f7931e;}.cls-7{fill:#911d22;}.cls-8{fill:#ddcd9b;}.cls-9{opacity:0.4;}.cls-10{fill:#c69c6d;}.cls-11{opacity:0.15;}.cls-12{fill:#6e4400;}.cls-13{fill:#935b00;}</style></defs><title>Recurso 129</title><g id="Capa_2" data-name="Capa 2"><g id="personajes_individuales" data-name="personajes individuales"><g class="cls-1"><ellipse cx="90.92" cy="237.47" rx="72.05" ry="29.87"/></g><path class="cls-2" d="M5.82,185.59s-14.11,12.91,1.6,12.75c10.5-.1,22.08-11.61,22.08-11.61Z"/><path class="cls-2" d="M45.54,128.48C38.52,157,6.18,185.1,6.18,185.1a21.26,21.26,0,0,0,23.32,1.63s28.52-23.85,38-54.68c1.89-6.17-2.31-13-8.75-13.49a12.09,12.09,0,0,0-3,.15A13,13,0,0,0,45.54,128.48Z"/><g class="cls-3"><path class="cls-4" d="M63.15,133.6s-22.69,38.16-45.83,57.77c0,0,14.63-7.63,31.13-28.8S63.15,133.6,63.15,133.6Z"/></g><path class="cls-5" d="M131.81,188.19a24.63,24.63,0,0,1,3.48-12.71c6.34-10.61,10.16-22.62,8.81-34.91a80.51,80.51,0,0,0-6.95-25.15l-89,0a98.6,98.6,0,0,0-7.65,38.81c0,.46,0,.92,0,1.38,0,0,0,0,0,.06,0,46.75,20.52,82,20.52,82h0c2.39,5,8.32,9.52,18,12.26A50.11,50.11,0,0,0,106,250c9.88-2.73,15.86-7.29,18.27-12.31h0a124.6,124.6,0,0,0,5.82-12.1c4.34-10.17,4.53-21.42,2.27-32.25A24.63,24.63,0,0,1,131.81,188.19Z"/><path class="cls-6" d="M137.15,115.42h0s0,19.44-46.83,19.44C47,134.86,47.52,119,48,115.92H48s-9.89,20.61,43.93,20.61C143.64,136.53,137.15,115.42,137.15,115.42Z"/><path class="cls-7" d="M137.15,115.42h0s0,19.44-46.83,19.44C47,134.86,47.52,119,48,115.92H48s-9.89,20.61,43.93,20.61C143.64,136.53,137.15,115.42,137.15,115.42Z"/><path class="cls-8" d="M133.17,107.45h0l-.06-.08c-.3-.55-.62-1.08-.94-1.6-2.25-4.21-7.36-16.69-5.06-40.27l0,0c0-.7.12-1.39.12-2.1a34.56,34.56,0,0,0-69.11,0c0,.74,1.86,14.95-.73,29.79,0,0,0,0,0,0a48.72,48.72,0,0,1-3.65,11.64,78.31,78.31,0,0,0-5.52,10.59s-5.86,19.48,42.13,19.48c46.83,0,46.83-19.44,46.83-19.44A83.18,83.18,0,0,0,133.17,107.45Z"/><path class="cls-7" d="M94.71,134.79c-.45-.26,11.2-2.57,14.3-8.82s7.26-20,24.89-17.19c0,0,5,7.61,8,20.74C141.89,129.52,125.38,153.21,94.71,134.79Z"/><path class="cls-5" d="M96.43,136.53c-.44-.27,11.21-2.58,14.3-8.82s6.61-20,24.24-17.17c0,0,4.33,7.23,7.58,20.68C142.55,131.22,127.1,154.94,96.43,136.53Z"/><g class="cls-9"><path class="cls-10" d="M126.53,77.44a115,115,0,0,1,.58-11.94l0,0c0-.7.12-1.39.12-2.1a34.56,34.56,0,0,0-69.11,0c0,.74,1.86,14.95-.73,29.79,0,0,0,0,0,0,0,.18-.08.32-.11.5,4,11.31,13.66,18,28.61,16.74C106.78,108.64,115.14,97.94,126.53,77.44Z"/></g><g class="cls-11"><path d="M137.15,115.21h0a84.35,84.35,0,0,0-3.94-8h0l-.06-.07c-.3-.55-.62-1.09-.94-1.61a35.33,35.33,0,0,1-2-4.61c-10.22,1.28-24.81,5.33-26.48,18.08-2.59,19.82,12.65,9.26,0,35.89s24.1,45-14.15,85.66c-3.36,3.58-6.28,6.7-8.85,9.46a50.05,50.05,0,0,0,25.29-.28c9.88-2.73,15.86-7.29,18.27-12.31h0a124.6,124.6,0,0,0,5.82-12.1c4.34-10.17,4.53-21.42,2.27-32.25a25,25,0,0,1,2.95-17.83c6.34-10.61,10.16-22.62,8.81-34.91A80.59,80.59,0,0,0,137.15,115.21Z"/></g><path class="cls-2" d="M120.9,202.09s-3.89,18.73,8.76,9.41c8.45-6.22,11.12-22.33,11.12-22.33Z"/><path class="cls-2" d="M119.72,132.54c11,27.24,1.18,68.94,1.18,68.94a21.26,21.26,0,0,0,19.88-12.31s9.18-36-1.16-66.57c-2.07-6.12-9.47-9.2-15-5.83a12.08,12.08,0,0,0-2.36,1.89A13,13,0,0,0,119.72,132.54Z"/><g class="cls-3"><path class="cls-4" d="M137,126.39s3.91,44.23-3.4,73.67c0,0,7.41-14.75,8.41-41.57S137,126.39,137,126.39Z"/></g><path class="cls-12" d="M52.05,52.22s7,25.81-5.78,49c0,0,18.64,4.95,21.68-10.92l-2-60.86Z"/><path class="cls-2" d="M85.62,15.3c-15.55,0-28.76,11-33.59,26.3-1.68,5.3-.48,10.94,2.13,15.84a17.47,17.47,0,0,1,1.8,6A18.35,18.35,0,0,1,56,67.15c-.57,6.8,1.36,13.68,6.15,18.54s10.74,8,16.43,8c19.66,0,42.6-17.53,42.6-39.17S105.28,15.3,85.62,15.3Z"/><g class="cls-9"><path class="cls-10" d="M121.22,54.47c0-21.63-15.94-39.17-35.6-39.17-15.56,0-28.77,11-33.6,26.3a17.87,17.87,0,0,0-.32,9.12,11.29,11.29,0,0,1,3.81.9c2.41,1.11,4.51,2.77,6.87,4,8.44,4.26,18.95,2.42,27.45,6.56s13.07,13.37,14,22.73C113.83,77.69,121.22,66.74,121.22,54.47Z"/></g><path d="M71.37,59.6a9.45,9.45,0,0,1-5.22,7.72l.1-.85a54.1,54.1,0,0,1,5.12,4.93,53.14,53.14,0,0,1-5.78-4.14L65,66.77l.69-.36A12.73,12.73,0,0,0,71.37,59.6Z"/><path d="M65.92,76.73C71,77.91,76,77.11,81,75.8a16.49,16.49,0,0,1-3.56,1.66,19.7,19.7,0,0,1-3.88.82A13.15,13.15,0,0,1,65.92,76.73Z"/><ellipse cx="80.18" cy="58.71" rx="2.01" ry="4.24"/><path d="M77.9,52.72a3.65,3.65,0,0,1,3.27-.92,3.08,3.08,0,0,1,1.57.93,2.81,2.81,0,0,1,.71,1.59,5.29,5.29,0,0,0-2.52-1.48A11,11,0,0,0,77.9,52.72Z"/><ellipse cx="64.48" cy="58.71" rx="2.01" ry="4.24"/><path d="M61.57,53.65a3.69,3.69,0,0,1,2.8-1.94,3.25,3.25,0,0,1,1.79.36,2.94,2.94,0,0,1,1.19,1.28,5.29,5.29,0,0,0-2.87-.57A11.27,11.27,0,0,0,61.57,53.65Z"/><path d="M62.06,54.25a2.07,2.07,0,0,0,.84,1.18,3.25,3.25,0,0,0,1.42.51,2,2,0,0,1-1.66-.15A1.57,1.57,0,0,1,62.06,54.25Z"/><path d="M62.93,53.47c.09,1.06.89,1.55,1.83,2A2.06,2.06,0,0,1,63.24,55,1.37,1.37,0,0,1,62.93,53.47Z"/><path d="M64.6,53c-.37,1,.15,1.78.81,2.58a2.14,2.14,0,0,1-1.18-1.06A1.37,1.37,0,0,1,64.6,53Z"/><path d="M78,54.26a2,2,0,0,0,.84,1.18,3.21,3.21,0,0,0,1.41.51,2,2,0,0,1-1.65-.15A1.57,1.57,0,0,1,78,54.26Z"/><path d="M78.9,53.47c.09,1.07.89,1.55,1.83,2A2.06,2.06,0,0,1,79.21,55,1.37,1.37,0,0,1,78.9,53.47Z"/><path d="M80.57,53c-.37,1,.15,1.78.81,2.58a2.11,2.11,0,0,1-1.18-1.06A1.37,1.37,0,0,1,80.57,53Z"/><path class="cls-13" d="M70.82,33.78s9.44,17.85,27.83,16c0,0,9.2,36.29-2.7,65.75,0,0,37.06-.56,38.68-29.24S141.63-1.42,86.24,0C34.83,1.37,47.71,55.55,47.71,55.55S62.54,58.64,70.82,33.78Z"/><path class="cls-12" d="M49.36,52.22a41.33,41.33,0,0,0,6.81-4.8,36.11,36.11,0,0,0,5.65-6A31.43,31.43,0,0,0,66,34.34a41.17,41.17,0,0,0,2.6-7.91,29.31,29.31,0,0,1-6,15.63A31.17,31.17,0,0,1,49.36,52.22Z"/><path class="cls-12" d="M73.48,29.48a37.51,37.51,0,0,0,5.25,7.15,29.23,29.23,0,0,0,6.82,5.49,22.6,22.6,0,0,0,8.17,3,31.85,31.85,0,0,0,8.84.25,25,25,0,0,1-9,.57A22,22,0,0,1,85,43.05,28,28,0,0,1,73.48,29.48Z"/><path class="cls-12" d="M123.58,18.2a71.73,71.73,0,0,1,6.81,18,121.74,121.74,0,0,1,3.07,19.08,133.93,133.93,0,0,1-.4,19.32c-.17,3.22-.8,6.39-1.18,9.58-.57,3.17-1.33,6.3-2,9.44,1-6.34,2-12.68,2.45-19.08a135.07,135.07,0,0,0,0-19.19,119.17,119.17,0,0,0-2.69-19A90.52,90.52,0,0,0,123.58,18.2Z"/><path class="cls-12" d="M47.74,38.56c.31-9.39,3.59-19,10-26.09a29.77,29.77,0,0,1,11.75-8,34.78,34.78,0,0,1,6.86-1.92c2.33-.42,4.72-.39,7.06-.6-4.67.6-9.36,1.31-13.61,3.29a36.37,36.37,0,0,0-6.11,3.3,35.1,35.1,0,0,0-5.16,4.65A38.37,38.37,0,0,0,51.23,25,51.86,51.86,0,0,0,47.74,38.56Z"/><path class="cls-12" d="M104.18,76.81a88.26,88.26,0,0,1-.83,18.58c-.49,3.07-1.09,6.12-1.88,9.13a64.79,64.79,0,0,1-3,8.8A173.8,173.8,0,0,0,104.18,76.81Z"/><path class="cls-12" d="M114.59,31.88a64.72,64.72,0,0,1,5.83,16.63,95.89,95.89,0,0,1,2.23,17.55,101,101,0,0,1-1.31,17.63c-.36,2.93-1.13,5.78-1.73,8.66S117.89,98,117,100.8a147.91,147.91,0,0,0,3.59-17.22,101.43,101.43,0,0,0,.94-17.5,96.27,96.27,0,0,0-1.84-17.42A84.5,84.5,0,0,0,114.59,31.88Z"/><path class="cls-12" d="M88,4.64a34.92,34.92,0,0,1,23.54,6.87,29.49,29.49,0,0,1,8.06,9.54,35.46,35.46,0,0,1,2.49,5.73c.64,2,1,4,1.47,6a46.25,46.25,0,0,0-4.68-11.36,29.89,29.89,0,0,0-8-9.11,34.15,34.15,0,0,0-10.77-5.64A43.81,43.81,0,0,0,88,4.64Z"/></g></g></svg>