<svg xmlns="http://www.w3.org/2000/svg" viewBox="0 0 144.1 273.8"><defs><style>.cls-1{opacity:0.2;}.cls-2{fill:#e6dab0;}.cls-3{fill:#2b8838;}.cls-4{fill:#39b54a;}.cls-5{opacity:0.4;}.cls-6{fill:#c69c6d;}.cls-7{fill:#8cc63f;}.cls-8{fill:#fff;}.cls-9{opacity:0.5;}.cls-10{fill:#69952f;}.cls-11{fill:#935b00;}.cls-12{fill:#6e4400;}.cls-13{fill:#ccc;}</style></defs><title>Recurso 125</title><g id="Capa_2" data-name="Capa 2"><g id="personajes_individuales" data-name="personajes individuales"><g class="cls-1"><ellipse cx="72.05" cy="243.93" rx="72.05" ry="29.87"/></g><path class="cls-2" d="M35.8,205.44s1.5,19.07-9.88,8.23c-7.6-7.24-8.21-23.56-8.21-23.56Z"/><path class="cls-3" d="M18.91,190.18a20.15,20.15,0,0,0,15.55,13.3c-1.22-6.87-4.88-34.75,8.69-66.81-2.24-1.44,4.72-3.58,4.72-3.58s-15.26,30.08-10,73.48c-19-1-20.11-16.34-20.13-16.54Z"/><path class="cls-4" d="M47.87,133.09c-16.91,25-12,71.74-12,71.74a21.25,21.25,0,0,1-18.16-14.72s-4.58-36.89,9.53-65.89c2.82-5.81,10.55-7.93,15.6-3.89C48.65,125,47.87,133.09,47.87,133.09Z"/><path class="cls-2" d="M118.37,124.42l-.21.18c-5.91-15-15.14-9.29-17.09-17.85-1.62-7.15,3.79-13,5.63-14.81a122,122,0,0,1,.1-23.66A34.55,34.55,0,0,0,72.25,33.72c-19.07,0-29,15-29,34.08,0,.7.07,1.4.11,2.09,0,0,0,0,0,0,1.4,73.3-21.32,45.33-23.17,89.16,0,.47,0,.94,0,1.42v0c0,46.75,20.52,82,20.52,82h0c1.47,3,4.24,5.92,8.4,8.33,12.8,7.39,33.56,7.39,46.36,0,4.15-2.41,6.93-5.28,8.4-8.34h0s20.52-35.27,20.52-82c0,0,0-.05,0-.07,0-.46,0-.92,0-1.38A100.21,100.21,0,0,0,118.37,124.42Z"/><path class="cls-2" d="M75.43,4.16c20.67,0,31.87,4.53,40.2,24.22,4.19,9.89,2.83,20.94-1.52,30.76a27.07,27.07,0,0,0-2,7.68,27.91,27.91,0,0,0-.13,5.6c.83,10.14-2,20.41-9,27.66-7.16,7.45-15.67,11.86-24,11.86-17.11,0-43-26.15-43-58.42S46.75,4.16,75.43,4.16Z"/><g class="cls-5"><path class="cls-6" d="M100,120.77s-14.29-5.35-6.39-22.51c0,0,6.71,3.95,12.14-1.57,0,0-8,3.12-9.51-8.21l-36.95,13-17.46-17s3,8.34-1.91,25c0,0,13.13,18.42,30.62,19.4S95.3,125.53,100,120.77Z"/></g><path class="cls-7" d="M118.37,124.42s-3.66-9.78-11.27-11.62A36.74,36.74,0,0,1,55,122.41c-6.47-4.68-10.12-7.07-15.06-12.93-4.18,1.58-19.24,11.42-20.23,49.63,0,.47,0,.94,0,1.42h0c0,46.75,20.91,82,20.91,82h0c2.41,5,8.38,9.58,18.25,12.32a50,50,0,0,0,26.91-.06c9.67-2.74,15.6-7.27,18-12.27h0s20.52-35.27,20.52-82c0,0,0-.05,0-.07,0-.46,0-.92,0-1.38A100.21,100.21,0,0,0,118.37,124.42Z"/><path class="cls-6" d="M102,65.31s-4.45-3.92-6.65,3.76C95.38,69.07,97.67,63.92,102,65.31Z"/><path class="cls-6" d="M98.57,70.74s3-.76.32-3.91C98.89,66.83,100.42,69.29,98.57,70.74Z"/><path class="cls-8" d="M23.41,194.94s37.45,17.06,98-3.12l-1.07,5.3s-57.83,23.61-96.07,1.67Z"/><g class="cls-9"><path class="cls-10" d="M95.78,204.83s-20,19.67,9.32,35.42L103,244.09s-2.64,5.5-13.8,9.66-30.09,6.74-47-8.37c0,0-13.23-20.45-17.91-46.59C24.26,198.79,50.16,217.06,95.78,204.83Z"/></g><g class="cls-9"><path class="cls-10" d="M91.05,131.86s-28.71,46.53,5.74,66.4c0,0-40.85,9.42-73.38-3.32,0,0-10-44.65,7.66-73.37C31.07,121.57,51.4,138.75,91.05,131.86Z"/></g><path class="cls-11" d="M73.88.28C29.24,4.16,32.68,38.5,35.62,67.36c0,.22,3.49,35.12-6.71,60.35,0,0,44.18,19.81,73.12-1.5,0,0-7.85-17.26-2-46.24h0c.19-.65.36-1.28.49-1.83a2.47,2.47,0,0,0-1.87-3.06c-5-.85-6.66-8.15-3.22-11.6a6.56,6.56,0,0,1,5.24-2.24A2.23,2.23,0,0,0,102.93,59v-2.1c0-1.5,1.18-2.45,2.55-3.07,18.89-8.59,20.2-24.11,20.2-24.11S115.46-3.34,73.88.28Z"/><path class="cls-12" d="M74.68,3a53.13,53.13,0,0,0-13,3.33,40.8,40.8,0,0,0-11.47,6.74A30.51,30.51,0,0,0,41.94,23.4c-2.18,3.91-3.16,8.35-4,12.77.46-4.46,1.16-9,3.26-13.14a30.35,30.35,0,0,1,8.3-10.8A42.29,42.29,0,0,1,74.68,3Z"/><path class="cls-12" d="M93.69,124.07c-4-5.68-5.54-12.79-5.81-19.69a51.93,51.93,0,0,1,1-10.34c.29-1.71.86-3.36,1.28-5s1.19-3.24,1.78-4.85a87.34,87.34,0,0,0-2.24,10A57.75,57.75,0,0,0,89,104.36a49.21,49.21,0,0,0,1.23,10.11A37.24,37.24,0,0,0,93.69,124.07Z"/><path class="cls-12" d="M38.72,89.77a87.47,87.47,0,0,1-.83,18.57A89.22,89.22,0,0,1,36,117.48a63.44,63.44,0,0,1-3,8.8C36.37,114.35,37.94,102.13,38.72,89.77Z"/><path class="cls-12" d="M42.91,57.75A92.49,92.49,0,0,1,45.3,75a171.15,171.15,0,0,1,.08,17.4c-.45,5.79-1,11.57-2,17.29-.41,2.87-1.06,5.7-1.6,8.55s-1.43,5.62-2.13,8.42c1.11-5.68,2.2-11.36,3-17.08S44,98.07,44.31,92.31A169.41,169.41,0,0,0,44.58,75,138.9,138.9,0,0,0,42.91,57.75Z"/><path class="cls-12" d="M69.47,83.57a145.52,145.52,0,0,1-1.15,24.33c-.52,4-1.1,8-1.81,12s-1.56,8-2.5,11.92c1.08-8,2.32-16.05,3.25-24.09.52-4,.93-8,1.32-12.07S69.32,87.63,69.47,83.57Z"/><path class="cls-12" d="M84.25,5.5a34.83,34.83,0,0,1,23.53,6.87,29.36,29.36,0,0,1,8.06,9.54,35.13,35.13,0,0,1,2.5,5.73c.64,2,1,4,1.46,6a45.87,45.87,0,0,0-4.68-11.36,30.07,30.07,0,0,0-8-9.1A33.94,33.94,0,0,0,96.36,7.58,43.51,43.51,0,0,0,84.25,5.5Z"/><path class="cls-12" d="M82,13.35a25.92,25.92,0,0,0-8.68,6.19,30.16,30.16,0,0,0-5.8,8.87,40.72,40.72,0,0,0-2.84,10.28c-.28,1.76-.35,3.56-.54,5.35L64,49.45,63.58,44c.08-1.81.06-3.63.24-5.45A38.23,38.23,0,0,1,66.5,28C69.45,21.33,74.94,15.43,82,13.35Z"/><path class="cls-13" d="M23.41,194.94a41.68,41.68,0,0,0,10.24,4.42,74.86,74.86,0,0,0,10.87,2.53,100,100,0,0,0,22.28.77A152,152,0,0,0,89,199.8l10.9-2.6,10.79-3L100,197.71,89.11,200.5a151.6,151.6,0,0,1-22.25,3.23A101.14,101.14,0,0,1,44.4,202.6C37.05,201.29,29.64,199.15,23.41,194.94Z"/><path class="cls-13" d="M25.59,199.57a79.87,79.87,0,0,0,20,6.35,103.1,103.1,0,0,0,20.9,1.61,117.09,117.09,0,0,0,20.85-2.33,171.13,171.13,0,0,0,20.27-5.63c-3.29,1.21-6.56,2.53-9.9,3.65-3.41.88-6.75,2.07-10.23,2.68a116.42,116.42,0,0,1-21,2.7,103.29,103.29,0,0,1-21.06-2A66.83,66.83,0,0,1,25.59,199.57Z"/><path class="cls-2" d="M111.66,214.62s-1.56,19.75,10.23,8.52c7.88-7.5,8.52-24.41,8.52-24.41Z"/><path class="cls-3" d="M129.15,198.81A20.85,20.85,0,0,1,113,212.58c1.27-7.11,5.06-36-9-69.23,2.32-1.48-4.9-3.7-4.9-3.7s15.82,31.17,10.39,76.14c19.68-1.08,20.84-16.93,20.86-17.14Z"/><path class="cls-4" d="M99.14,139.65C116.67,165.59,111.58,214,111.58,214a22.05,22.05,0,0,0,18.83-15.26s4.73-38.23-9.88-68.28c-2.93-6-10.94-8.21-16.17-4C98.33,131.23,99.14,139.65,99.14,139.65Z"/></g></g></svg>