<svg xmlns="http://www.w3.org/2000/svg" viewBox="0 0 144.1 274.71"><defs><style>.cls-1{opacity:0.2;}.cls-2{fill:#e6dab0;}.cls-3{opacity:0.1;}.cls-4{fill:#104055;}.cls-5{fill:#29abe2;}.cls-6{fill:#f7931e;}.cls-7{fill:#0071bc;}.cls-8{fill:#ddcd9b;}.cls-9{opacity:0.4;}.cls-10{fill:#c69c6d;}.cls-11{opacity:0.15;}.cls-12{fill:#bdb319;}.cls-13{fill:#efd90c;}.cls-14{fill:#d7a500;}</style></defs><title>Recurso 130</title><g id="Capa_2" data-name="Capa 2"><g id="personajes_individuales" data-name="personajes individuales"><g class="cls-1"><ellipse cx="72.05" cy="244.84" rx="72.05" ry="29.87"/></g><path class="cls-2" d="M37.32,202.45s-3.12,18.87,9.13,9c8.2-6.56,10.2-22.77,10.2-22.77Z"/><path class="cls-2" d="M33.29,133c12.1,26.77,4,68.84,4,68.84a21.27,21.27,0,0,0,19.36-13.12s7.7-36.37-3.88-66.46c-2.32-6-9.85-8.81-15.22-5.21a11.94,11.94,0,0,0-2.28,2A13,13,0,0,0,33.29,133Z"/><g class="cls-3"><path class="cls-4" d="M50.3,126.15s5.72,44-.37,73.75c0,0,6.8-15,6.7-41.88S50.3,126.15,50.3,126.15Z"/></g><path class="cls-5" d="M115.87,188.19a24.63,24.63,0,0,1,3.48-12.71c6.34-10.61,10.16-22.62,8.81-34.91a80.78,80.78,0,0,0-7-25.15l-89,0a98.6,98.6,0,0,0-7.65,38.81c0,.46,0,.92,0,1.38,0,0,0,0,0,.06,0,46.75,20.52,82,20.52,82h0c2.4,5,8.33,9.52,18,12.26A50.14,50.14,0,0,0,90,250c9.88-2.73,15.86-7.29,18.26-12.31h0a124.6,124.6,0,0,0,5.82-12.1c4.34-10.17,4.53-21.42,2.26-32.25A25.33,25.33,0,0,1,115.87,188.19Z"/><path class="cls-6" d="M121.21,115.42h0s0,19.44-46.84,19.44c-43.26,0-42.75-15.83-42.23-18.94H32S22.14,136.53,76,136.53C127.7,136.53,121.21,115.42,121.21,115.42Z"/><path class="cls-7" d="M121.21,115.42h0s0,19.44-46.84,19.44c-43.26,0-42.75-15.83-42.23-18.94H32S22.14,136.53,76,136.53C127.7,136.53,121.21,115.42,121.21,115.42Z"/><path class="cls-8" d="M117.23,107.45h0l-.06-.08c-.3-.55-.63-1.08-.94-1.6-2.25-4.21-7.36-16.69-5.06-40.27l0,0c0-.7.11-1.39.11-2.1a34.56,34.56,0,0,0-69.11,0c0,.74,1.87,14.95-.72,29.79,0,0,0,0,0,0a48.63,48.63,0,0,1-3.66,11.64,79.43,79.43,0,0,0-5.51,10.59s-5.86,19.48,42.12,19.48c46.84,0,46.84-19.44,46.84-19.44A83.18,83.18,0,0,0,117.23,107.45Z"/><path class="cls-7" d="M78.77,134.79c-.45-.26,11.2-2.57,14.29-8.82s7.27-20,24.9-17.19c0,0,5,7.61,8,20.74C126,129.52,109.43,153.21,78.77,134.79Z"/><path class="cls-5" d="M80.49,136.53c-.45-.27,11.21-2.58,14.3-8.82s6.61-20,24.24-17.17c0,0,4.33,7.23,7.58,20.68C126.61,131.22,111.16,154.94,80.49,136.53Z"/><g class="cls-9"><path class="cls-10" d="M110.59,77.44a115,115,0,0,1,.58-11.94l0,0c0-.7.11-1.39.11-2.1a34.56,34.56,0,0,0-69.11,0c0,.74,1.87,14.95-.72,29.79,0,0,0,0,0,0,0,.18-.08.32-.11.5,4,11.31,13.66,18,28.61,16.74C90.84,108.64,99.2,97.94,110.59,77.44Z"/></g><g class="cls-11"><path d="M121.21,115.61h0a85.57,85.57,0,0,0-3.94-8h0l-.06-.07c-.3-.55-.63-1.09-.94-1.61a34.72,34.72,0,0,1-2-4.61c-10.22,1.28-24.81,5.33-26.48,18.08-2.59,19.82,12.65,9.26,0,35.89s24.1,45-14.15,85.67c-3.36,3.57-6.28,6.69-8.86,9.45a50,50,0,0,0,25.3-.28c9.88-2.73,15.86-7.28,18.26-12.31h0a123.51,123.51,0,0,0,5.82-12.09c4.34-10.18,4.53-21.43,2.26-32.26a25.26,25.26,0,0,1-.52-5.12,24.65,24.65,0,0,1,3.48-12.71c6.34-10.61,10.16-22.62,8.81-34.9A80.85,80.85,0,0,0,121.21,115.61Z"/></g><path class="cls-2" d="M105,202.09s-3.89,18.73,8.76,9.41c8.45-6.22,11.12-22.33,11.12-22.33Z"/><path class="cls-2" d="M103.78,132.54c11,27.24,1.18,68.94,1.18,68.94a21.27,21.27,0,0,0,19.88-12.31s9.18-36-1.16-66.57c-2.07-6.12-9.47-9.2-15-5.83a11.79,11.79,0,0,0-2.36,1.89A13,13,0,0,0,103.78,132.54Z"/><g class="cls-3"><path class="cls-4" d="M121.06,126.39s3.91,44.23-3.4,73.67c0,0,7.41-14.75,8.41-41.57S121.06,126.39,121.06,126.39Z"/></g><path class="cls-12" d="M36.11,52.22s7,25.81-5.78,49c0,0,7,7.62,19.65,0V29.48Z"/><path class="cls-2" d="M69.68,15.3c-15.56,0-28.76,11-33.59,26.3-1.68,5.3-.48,10.94,2.13,15.84a17.25,17.25,0,0,1,1.79,6,17.7,17.7,0,0,1,.09,3.76c-.57,6.8,1.36,13.68,6.14,18.54s10.75,8,16.44,8c19.65,0,42.6-17.53,42.6-39.17S89.34,15.3,69.68,15.3Z"/><g class="cls-9"><path class="cls-10" d="M105.27,54.47c0-21.63-15.93-39.17-35.59-39.17-15.56,0-28.77,11-33.6,26.3a17.87,17.87,0,0,0-.32,9.12,11.34,11.34,0,0,1,3.81.9c2.41,1.11,4.51,2.77,6.87,4,8.44,4.26,19,2.42,27.45,6.56S87,75.51,87.91,84.87C97.88,77.69,105.27,66.74,105.27,54.47Z"/></g><path d="M55.42,59.6a9.42,9.42,0,0,1-5.21,7.72l.1-.85a52.82,52.82,0,0,1,5.11,4.93,54,54,0,0,1-5.77-4.14l-.6-.49.69-.36A12.73,12.73,0,0,0,55.42,59.6Z"/><path d="M50,76.73c5.1,1.18,10.08.38,15.12-.93a17,17,0,0,1-3.56,1.67,20.37,20.37,0,0,1-3.89.81A13.13,13.13,0,0,1,50,76.73Z"/><ellipse cx="64.24" cy="58.71" rx="2.01" ry="4.24"/><path d="M62,52.72a3.7,3.7,0,0,1,3.28-.93,3.17,3.17,0,0,1,1.57.94,2.88,2.88,0,0,1,.71,1.59A5.29,5.29,0,0,0,65,52.84,11.45,11.45,0,0,0,62,52.72Z"/><ellipse cx="48.53" cy="58.71" rx="2.01" ry="4.24"/><path d="M45.63,53.65a3.67,3.67,0,0,1,2.8-1.94,3.25,3.25,0,0,1,1.79.36,2.86,2.86,0,0,1,1.18,1.28,5.26,5.26,0,0,0-2.86-.57A10.89,10.89,0,0,0,45.63,53.65Z"/><path d="M46.12,54.25A2,2,0,0,0,47,55.43a3.25,3.25,0,0,0,1.42.51,2,2,0,0,1-1.66-.15A1.57,1.57,0,0,1,46.12,54.25Z"/><path d="M47,53.46c.09,1.07.89,1.56,1.83,2A2.06,2.06,0,0,1,47.3,55,1.38,1.38,0,0,1,47,53.46Z"/><path d="M48.66,53c-.37,1,.15,1.78.81,2.58a2.11,2.11,0,0,1-1.18-1.06A1.37,1.37,0,0,1,48.66,53Z"/><path d="M62.08,54.26a2.07,2.07,0,0,0,.85,1.18,3.21,3.21,0,0,0,1.41.51,2,2,0,0,1-1.65-.15A1.6,1.6,0,0,1,62.08,54.26Z"/><path d="M63,53.47c.09,1.07.89,1.55,1.82,2A2,2,0,0,1,63.27,55,1.37,1.37,0,0,1,63,53.47Z"/><path d="M64.63,53c-.37,1,.15,1.78.81,2.58a2.11,2.11,0,0,1-1.18-1.06A1.35,1.35,0,0,1,64.63,53Z"/><path class="cls-13" d="M54.88,33.78s9.44,17.85,27.83,16c0,0,9.2,36.29-2.7,65.75,0,0,37.05-.56,38.68-29.24S125.68-1.42,70.3,0C18.89,1.37,31.76,55.55,31.76,55.55S46.6,58.64,54.88,33.78Z"/><path class="cls-14" d="M33.42,52.22a41.33,41.33,0,0,0,6.81-4.8,36.53,36.53,0,0,0,5.65-6,31.81,31.81,0,0,0,4.22-7.07,41.88,41.88,0,0,0,2.6-7.91,29.31,29.31,0,0,1-6,15.63A31.23,31.23,0,0,1,33.42,52.22Z"/><path class="cls-14" d="M57.54,29.48a37.51,37.51,0,0,0,5.25,7.15,29.23,29.23,0,0,0,6.82,5.49,22.47,22.47,0,0,0,8.17,3,31.85,31.85,0,0,0,8.84.25,25,25,0,0,1-9,.57,21.92,21.92,0,0,1-8.58-2.91A28,28,0,0,1,57.54,29.48Z"/><path class="cls-14" d="M107.64,18.2a71.33,71.33,0,0,1,6.8,18,120.58,120.58,0,0,1,3.07,19.08,132.51,132.51,0,0,1-.39,19.32c-.17,3.22-.8,6.39-1.18,9.58-.58,3.17-1.33,6.3-2,9.44,1-6.34,2-12.68,2.45-19.08a135.07,135.07,0,0,0,0-19.19,120.32,120.32,0,0,0-2.69-19A91.15,91.15,0,0,0,107.64,18.2Z"/><path class="cls-14" d="M31.8,38.56c.3-9.4,3.59-19,10-26.09a29.77,29.77,0,0,1,11.75-8,34.88,34.88,0,0,1,6.85-1.92c2.34-.42,4.73-.39,7.07-.6-4.67.6-9.36,1.31-13.61,3.29a36.37,36.37,0,0,0-6.11,3.3,35.1,35.1,0,0,0-5.16,4.65A38.37,38.37,0,0,0,35.29,25,51.86,51.86,0,0,0,31.8,38.56Z"/><path class="cls-14" d="M88.24,76.81a87.6,87.6,0,0,1-.84,18.58,91.75,91.75,0,0,1-1.87,9.13,64.79,64.79,0,0,1-3,8.8A173.8,173.8,0,0,0,88.24,76.81Z"/><path class="cls-14" d="M98.65,31.88a64.72,64.72,0,0,1,5.83,16.63,95,95,0,0,1,2.22,17.55,100,100,0,0,1-1.3,17.63c-.36,2.93-1.13,5.78-1.73,8.66S102,98,101.1,100.79a147.32,147.32,0,0,0,3.59-17.21,101.43,101.43,0,0,0,.94-17.5,95.4,95.4,0,0,0-1.85-17.42A83.81,83.81,0,0,0,98.65,31.88Z"/></g></g></svg>