<svg xmlns="http://www.w3.org/2000/svg" viewBox="0 0 144.1 279.26"><defs><style>.cls-1{opacity:0.2;}.cls-2{fill:#d8ca9a;}.cls-3{opacity:0.4;}.cls-4{fill:#c69c6d;}.cls-5{fill:#fff;}.cls-6{fill:#999;}.cls-7{fill:#ccc;}.cls-8{opacity:0.25;}.cls-9{fill:#104055;}.cls-10{opacity:0.15;}.cls-11{fill:#e6dab0;}.cls-12{opacity:0.1;}.cls-13{fill:#b5ac93;}.cls-14{fill:#f2f2f2;}.cls-15{opacity:0.3;}.cls-16{fill:#f7931e;}.cls-17{opacity:0.17;}.cls-18{fill:#fbb03b;}.cls-19{opacity:0.13;}</style></defs><title>Recurso 134</title><g id="Capa_2" data-name="Capa 2"><g id="personajes_individuales" data-name="personajes individuales"><g class="cls-1"><ellipse cx="72.05" cy="249.39" rx="72.05" ry="29.87"/></g><path class="cls-2" d="M126.37,161.67a98.69,98.69,0,0,0-7.63-38.77h0a85.57,85.57,0,0,0-3.94-8h0l0-.07c-.31-.55-.63-1.09-.94-1.61-2.25-4.21-7.36-16.69-5.07-40.27l0,0c0-.7.11-1.39.11-2.09a34.56,34.56,0,1,0-69.11,0c0,.73,1.86,14.94-.73,29.78,0,0,0,0,0,0a48.51,48.51,0,0,1-3.66,11.63,78.87,78.87,0,0,0-5.51,10.59h0a98.59,98.59,0,0,0-7.66,38.8c0,.46,0,.92,0,1.38,0,0,0,0,0,.07,0,46.74,20.52,82,20.52,82h0c1.46,3.06,4.24,5.93,8.39,8.34,12.8,7.39,33.57,7.39,46.36,0,4.16-2.41,6.94-5.28,8.4-8.33h0s20.52-35.28,20.52-82v0C126.35,162.61,126.37,162.14,126.37,161.67Z"/><g class="cls-3"><path class="cls-4" d="M108.17,84.11a117.51,117.51,0,0,1,.57-11.94l0,0c0-.7.11-1.39.11-2.1a34.56,34.56,0,0,0-69.11,0c0,.74,1.86,15-.73,29.79,0,0,0,0,0,0,0,.18-.08.32-.12.5,4,11.31,13.66,18,28.62,16.74C88.41,115.31,96.77,104.61,108.17,84.11Z"/></g><path class="cls-5" d="M118.74,122.9a85.57,85.57,0,0,0-3.94-8h0l0-.07c-.31-.55-.63-1.09-.94-1.61a38.06,38.06,0,0,1-2.68-6.58c-5.17,6.8-12.29,13-19.64,18.33a36.78,36.78,0,0,1-55-14.85l-.13-.31c-.37.93-.72,1.77-1,2.43a78.87,78.87,0,0,0-5.51,10.59h0a98.59,98.59,0,0,0-7.66,38.8c0,.46,0,.92,0,1.38,0,0,0,0,0,.07,0,46.74,20.52,82,20.52,82h0c2.39,5,8.32,9.53,18,12.27a50,50,0,0,0,26.91.06c9.87-2.74,15.84-7.3,18.25-12.32h0s20.52-35.28,20.52-82v0c0-.48,0-1,0-1.42A98.69,98.69,0,0,0,118.74,122.9Z"/><path class="cls-6" d="M43.62,246.71a21.45,21.45,0,0,0,7.45,6.76c12.8,7.39,33.57,7.39,46.36,0,4.16-2.41,6.94-5.28,8.4-8.33h0l.65-1.17C77.7,261.55,54.62,253.12,43.62,246.71Z"/><path class="cls-7" d="M23.35,145.64s44.73,26.78,101.35-2.71a154.57,154.57,0,0,1,1.65,20.16s-68.24,35.19-104.23,1.53C22.12,164.62,21.89,153.19,23.35,145.64Z"/><g class="cls-8"><path class="cls-9" d="M111.13,106.67s-12.76,15-25.91,22C85.22,128.65,103.2,121.91,111.13,106.67Z"/></g><g class="cls-8"><path class="cls-9" d="M24.66,165.1s24,19.12,65.59,12.27C90.25,177.37,46.53,189.32,24.66,165.1Z"/></g><path class="cls-5" d="M62.65,188.59l-23.46-1.73h0A145.08,145.08,0,0,1,42.41,143h0l23.47,1.73h0a145.06,145.06,0,0,0-3.23,43.82Z"/><g class="cls-10"><path class="cls-9" d="M119.31,122.9a83.21,83.21,0,0,0-4-8h0l-.06-.07c-.3-.55-.63-1.08-.94-1.61a38.22,38.22,0,0,1-2.67-6.58c-5.17,6.8-12.3,13-19.65,18.33a36.83,36.83,0,0,1-5.27,3.12,45,45,0,0,0,.55,5c1.41,8.21,5,15.84,7.53,23.79a88.77,88.77,0,0,1-5.09,65.19c-6.09,12.3-15.11,23.59-17.72,37a49.91,49.91,0,0,0,16.09-1.63c9.87-2.74,15.85-7.3,18.25-12.32h0s20.52-35.27,20.52-82v0c0-.48,0-.94,0-1.42A98.86,98.86,0,0,0,119.31,122.9Z"/></g><path class="cls-11" d="M99.43,228.44s-4.51,21.68,10.13,10.89c9.79-7.21,12.88-25.85,12.88-25.85Z"/><path class="cls-11" d="M98.16,148.15c12.57,31.54,1.27,79.58,1.27,79.58a24.63,24.63,0,0,0,23-14.25s10.63-41.71-1.34-77.07c-2.4-7.09-11-10.65-17.35-6.75a14,14,0,0,0-2.74,2.18A15.29,15.29,0,0,0,98.16,148.15Z"/><g class="cls-12"><path class="cls-9" d="M118.06,140.8s4.53,51.2-3.93,85.28c0,0,8.58-17.07,9.74-48.12S118.06,140.8,118.06,140.8Z"/></g><path class="cls-13" d="M97.62,146c0,.06,0,.13.06.2,13.49,33.59,1.42,84.92,1.42,84.92l.53,0a201.57,201.57,0,0,0,6.56-49C106.36,164.25,102.09,153,97.62,146Z"/><path class="cls-14" d="M99.48,130c-3.87,4.08-7.56,11.63-3.13,24.44a5.52,5.52,0,0,0,4.48,3.73c6,.74,18.88,1,26.28-8.68a3.12,3.12,0,0,0,.6-2.33c-.58-4.55-3.36-19.48-14.89-21.6A14.9,14.9,0,0,0,99.48,130Z"/><g class="cls-12"><path class="cls-9" d="M102.94,129s-12.42,5.64-5.26,24.5C97.68,153.54,94,137.24,102.94,129Z"/></g><path class="cls-11" d="M70.67,6.75C50,6.75,38.8,11.28,30.46,31,26.27,40.86,27.63,51.91,32,61.73A27.5,27.5,0,0,1,34,69.41a28.63,28.63,0,0,1,.12,5.6c-.83,10.15,2,20.41,9,27.66,7.16,7.45,15.67,11.86,24,11.86,17.1,0,43-26.15,43-58.42S99.34,6.75,70.67,6.75Z"/><g class="cls-15"><path class="cls-4" d="M109.65,56.26c0-30.28-9.43-47.18-34.27-49.16C70.76,14.23,67.16,22.26,67,30.87a14,14,0,0,0,.67,5.18c1.62,4.39,6.29,6.69,10.29,9.12,7.25,4.38,14,11.69,13.24,20.13-.61,7-6.07,12.53-7.91,19.26-1.31,4.81-.7,9.9-.83,14.89A49.78,49.78,0,0,1,81,109.83C95.37,100.83,109.65,80.25,109.65,56.26Z"/></g><path class="cls-16" d="M101.4,15.33A39.08,39.08,0,0,1,109,28.72,63.28,63.28,0,0,1,112,43.88a83,83,0,0,1-.36,15.45c-.31,2.56-.81,5.09-1.21,7.63l-1.85,7.48,1.33-7.57c.29-2.55.7-5.08.9-7.62A89.64,89.64,0,0,0,111,44a67.07,67.07,0,0,0-2.79-15A44.11,44.11,0,0,0,101.4,15.33Z"/><g class="cls-17"><path d="M106.58,57.59a11.84,11.84,0,0,0-2.56-1.2,4,4,0,0,0-2.51-.11c-1.62.44-2.7,2.11-3.78,3.72a7.84,7.84,0,0,1,1-2.79,4.8,4.8,0,0,1,2.46-2A5.19,5.19,0,0,1,106.58,57.59Z"/></g><g class="cls-8"><path d="M101.09,57.8a6.1,6.1,0,0,1,2.84,5.8,5.68,5.68,0,0,1-1.65,3,12.49,12.49,0,0,1-1.3,1l-1.49.7c1.58-1.46,3.11-3,3.38-4.9a5.13,5.13,0,0,0-.32-2.85A12.29,12.29,0,0,0,101.09,57.8Z"/></g><path class="cls-18" d="M110.05,78S129.17,9,79.14.9C51.23-3.6,35.71,9.48,27.7,24.69c-.24.15-.47.32-.72.46-11,6-17.16-3.27-17.16-3.27C5.31,47.76,29.12,54,36.6,55.37l.39.07c1.14.19,1.85.27,1.85.27h0a17.92,17.92,0,0,0,5-.3A137.58,137.58,0,0,0,81.56,41.25s-3.63,10.29,8.68,12.51c0,0,4.43,10.49-1.62,20.38,0,0,6.46-4,8.88-16.45,2.25-11.54,17.6-.29,6.41,14.33a24.94,24.94,0,0,0-5.42,12.41c-.4,3.88.11,8.13,3.25,10.9,0,0-1.21-5.15,3.22-7.72,0,0,4.24,3.48,10.09-1.77C115.05,85.84,106.45,85.44,110.05,78Z"/><g class="cls-19"><path d="M111.88,54.84c.14,3.29-.5,7.06.71,9.89,2.75-20.46,2.66-58-33.45-63.83C51.23-3.6,35.71,9.48,27.7,24.69c-.24.15-.47.32-.72.46-9.59,5.24-15.5-1.14-16.86-2.86A21.38,21.38,0,0,0,22.71,38.11a33.25,33.25,0,0,0,11,2,82.55,82.55,0,0,0,31.68-4.93c4.51-1.65,8.88-3.69,13.54-4.83S88.65,29,93,31.05a26.6,26.6,0,0,1,4.71,3C104.61,39.32,111.52,46.18,111.88,54.84Z"/></g><path d="M46.27,96A23.13,23.13,0,0,0,51,96.8a28.73,28.73,0,0,0,4.73,0,49.87,49.87,0,0,0,9.37-1.88,22.58,22.58,0,0,1-4.47,2,24.44,24.44,0,0,1-4.81,1C52.55,98,49.11,97.7,46.27,96Z"/><ellipse cx="64.02" cy="68.55" rx="2.5" ry="3.98"/><path d="M61.17,62.4a4.81,4.81,0,0,1,4-1,4,4,0,0,1,1.93,1.11,3.76,3.76,0,0,1,.94,1.9,6,6,0,0,0-3.11-2A11.21,11.21,0,0,0,61.17,62.4Z"/><ellipse cx="44.47" cy="68.55" rx="2.5" ry="3.98"/><path d="M40.86,63.56a4.81,4.81,0,0,1,3.49-2.29,4,4,0,0,1,2.18.42A3.74,3.74,0,0,1,48,63.18a6.05,6.05,0,0,0-3.58-.84A11.54,11.54,0,0,0,40.86,63.56Z"/><path d="M51.7,71.8c0,3.81-1.88,7.36-3.51,10.61-.78,1.59-1.65,3.44-1.07,4.9.74,1.43,2.83,1.92,4.58,2.33-1.79-.08-4,0-5.31-2-1-2.11.15-4.07.83-5.75.89-1.69,1.8-3.26,2.57-4.94A25.49,25.49,0,0,0,51.7,71.8Z"/><path class="cls-16" d="M12.17,28.46c1.92,5.39,6.66,9.89,12.37,10.3a9.29,9.29,0,0,0,7.68-2.33A36.53,36.53,0,0,0,37.72,30c3.43-4.58,6.77-9.46,11.42-13A22.77,22.77,0,0,1,56.89,13a27,27,0,0,1,4.29-.69c1.45,0,2.9.1,4.33.15A23,23,0,0,0,49.59,17.5c-4.47,3.57-7.64,8.43-11,13.09a37.74,37.74,0,0,1-5.8,6.53,10.47,10.47,0,0,1-3.9,2.13,11.86,11.86,0,0,1-4.43.23,13.54,13.54,0,0,1-7.88-3.62A17,17,0,0,1,12.17,28.46Z"/></g></g></svg>