<svg xmlns="http://www.w3.org/2000/svg" viewBox="0 0 149.37 277.67"><defs><style>.cls-1{fill:#4d4d4d;}.cls-2{fill:#e6dab0;}.cls-3{fill:#2d2c28;}.cls-4{opacity:0.25;}.cls-5{fill:#041015;}.cls-6{opacity:0.4;}.cls-7{fill:#c69c6d;}.cls-8{fill:#fbb03b;}.cls-9{fill:#363125;}.cls-10{fill:#1a1a1a;}.cls-11{fill:#d6f568;}.cls-12{opacity:0.15;}.cls-13{fill:#111;}.cls-14{fill:#272624;}.cls-15{fill:#f2f2f2;}.cls-16{opacity:0.5;}</style></defs><title>Recurso 137</title><g id="Capa_2" data-name="Capa 2"><g id="personajes_individuales" data-name="personajes individuales"><ellipse class="cls-1" cx="72.05" cy="247.8" rx="72.05" ry="29.87"/><path class="cls-2" d="M142.94,166.85a98.6,98.6,0,0,0-7.63-38.76h0a84.54,84.54,0,0,0-3.94-8h0l-.05-.07c-.31-.55-.63-1.08-.94-1.61-2.25-4.21-7.36-16.68-5.07-40.27a0,0,0,0,1,0,0c0-.7.11-1.39.11-2.09a34.56,34.56,0,1,0-69.11,0c0,.73,1.86,14.94-.73,29.78,0,0,0,0,0,0a48.51,48.51,0,0,1-3.66,11.63,78.4,78.4,0,0,0-5.51,10.6h0a98.59,98.59,0,0,0-7.66,38.8c0,.46,0,.93,0,1.38,0,0,0,.05,0,.07,0,46.75,20.53,82,20.53,82h0c1.46,3.05,4.24,5.93,8.39,8.33,12.8,7.39,33.57,7.39,46.36,0,4.16-2.4,6.94-5.28,8.4-8.33h0s20.52-35.27,20.52-82c0,0,0,0,0,0C142.92,167.79,142.94,167.33,142.94,166.85Z"/><path class="cls-3" d="M135.31,128.09a84.54,84.54,0,0,0-3.94-8h0l-.05-.07c-.31-.55-.63-1.08-.94-1.61a38.06,38.06,0,0,1-2.68-6.58c-5.17,6.8-12.29,13-19.64,18.33a36.78,36.78,0,0,1-55-14.85c0-.1-.09-.2-.13-.31-.37.94-.72,1.77-1,2.43a78.4,78.4,0,0,0-5.51,10.6h0a98.8,98.8,0,0,0-7.76,38.84c0,.47,0,.86,0,1.31h0c0,46.75,20.63,82.12,20.63,82.12h0c2.39,5,8.32,9.52,18,12.27a50.08,50.08,0,0,0,26.91.05c9.87-2.74,15.84-7.3,18.25-12.32h0s20.52-35.27,20.52-82c0,0,0,0,0,0,0-.48,0-.94,0-1.42A98.6,98.6,0,0,0,135.31,128.09Z"/><g class="cls-4"><path class="cls-5" d="M128,111.85s-12.76,15-25.91,22C102.12,133.84,120.09,127.09,128,111.85Z"/></g><g class="cls-6"><g class="cls-6"><path class="cls-7" d="M127.76,111.86c-3.6-9.5-3.15-28.95-2.83-33.32a0,0,0,0,1,0,0c0-.7.08-1.39.06-2.09A34.55,34.55,0,1,0,55.86,78a93.29,93.29,0,0,1,.33,28.1c3.74,5.8,13.15,17.87,28.51,18.25C105.72,124.9,111.8,102.81,127.76,111.86Z"/></g></g><g class="cls-4"><polygon class="cls-5" points="68.68 151.03 92.65 160.7 92.65 145.23 115.07 154.56 109.95 128.79 112.42 151.64 91.38 142.99 91.24 158.24 68.68 151.03"/></g><g class="cls-4"><polygon class="cls-5" points="66.92 151.03 54.74 154.27 60.23 140.88 43.92 137.52 54.45 120.76 45.8 136.96 61.95 139.77 56.75 152.56 66.92 151.03"/></g><path class="cls-8" d="M56.84,131.91a38.16,38.16,0,0,1-5.56-1.5l-2.59,5.06a14,14,0,0,0,5.83,1.3Z"/><path class="cls-9" d="M55.83,132.38a34.59,34.59,0,0,1-4-1.17l-2.12,3.89a12.46,12.46,0,0,0,4.23,1Z"/><g class="cls-4"><path class="cls-5" d="M68,165.44a55.94,55.94,0,0,1-.15,10.36c-.25,1.7-.64,3.41-.78,5.14a30.82,30.82,0,0,0,.11,5.17A85.94,85.94,0,0,1,67,206.82h-.22A57.45,57.45,0,0,1,66,186.09a42.81,42.81,0,0,0,.37-5.18c0-1.73-.25-3.47-.31-5.22a31.3,31.3,0,0,1,1.73-10.28Z"/></g><path class="cls-10" d="M43.3,207.32s14.37,19.1,95.38-1.48l-3.74,14.08s-55.76,18-87.5,2.75C47.44,222.67,44.39,212.34,43.3,207.32Z"/><path class="cls-11" d="M97.71,172a98.33,98.33,0,0,1-14.19-1.16l-.34-.05,0-.3s.35-4.23.36-5.94v-.42l.49.11c.08,0,8.79,1.93,22,.42l.44-.05v6.52l-.26.08A33.5,33.5,0,0,1,97.71,172ZM84,170.2c13.63,2,20.38.72,21.74.41v-5.29a76.49,76.49,0,0,1-21.41-.39C84.28,166.52,84.07,169.29,84,170.2Z"/><path class="cls-11" d="M53.42,167.54a66,66,0,0,1-11-2.94l-.27-.09.07-.27s.92-3.88,1.2-5.46l.07-.39.36.16c.06,0,6.63,2.95,17.3,3.28h.35l-1,6-.21,0A23.37,23.37,0,0,1,53.42,167.54Zm-10.53-3.43c10.44,3.62,16,3.34,17.07,3.23l.81-4.9A52.29,52.29,0,0,1,44,159.27C43.68,160.74,43.08,163.27,42.89,164.11Z"/><path class="cls-3" d="M64.74,129.88s18.5,14.43,40.7,2L68.68,151Z"/><path class="cls-11" d="M65.16,132.17,68.68,151l26.94-14C80.78,141.09,68.88,134.59,65.16,132.17Z"/><g class="cls-12"><path d="M135.31,128.09a84.54,84.54,0,0,0-3.94-8h0l-.05-.07c-.31-.55-.63-1.08-.94-1.61a38.06,38.06,0,0,1-2.68-6.58c-5.17,6.8-12.29,13-19.64,18.33a37.39,37.39,0,0,1-5.27,3.12,45,45,0,0,0,.55,5c1.4,8.21,5,15.84,7.53,23.79a88.82,88.82,0,0,1-5.09,65.19c-6.09,12.31-15.12,23.59-17.72,37a49.91,49.91,0,0,0,16.09-1.63c9.87-2.74,15.84-7.3,18.25-12.32h0s20.52-35.27,20.52-82c0,0,0,0,0,0,0-.48,0-.94,0-1.42A98.6,98.6,0,0,0,135.31,128.09Z"/></g><path class="cls-13" d="M120.18,228.5S115.7,250,130.25,239.31C140,232.16,143,213.63,143,213.63Z"/><path class="cls-14" d="M141.64,213.54A23.13,23.13,0,0,1,122,226.45c2.38-7.65,10.59-38.93-.24-77.47,2.76-1.31-4.87-4.76-4.87-4.76s13.06,36.52.79,85.27c21.81,1.56,25.31-15.73,25.36-16Z"/><path class="cls-3" d="M116.88,144.22c15.66,31,3.3,83.57,3.3,83.57A24.45,24.45,0,0,0,143,213.63s10.56-41.42-1.33-76.54c-2.38-7-10.89-10.57-17.23-6.7C117.17,134.85,116.88,144.22,116.88,144.22Z"/><path class="cls-11" d="M121.08,212.33s15.3-1.92,24.69-13.84l-2.3,13.27a50.24,50.24,0,0,1-24.33,11.39Z"/><path class="cls-15" d="M120.48,215.68S137,212,145.16,202l-1,5.91s-7.68,8.21-24.46,12.28Z"/><path class="cls-11" d="M121.76,167.57a66.53,66.53,0,0,0,26.5-12.86l1.11,10.66s-11.59,9.9-26.73,12.51Z"/><path class="cls-15" d="M122,170.89s18.37-3.58,26.52-13.59L149,162s-9.83,9.1-26.61,13.17Z"/><g class="cls-4"><path class="cls-10" d="M137.33,132.62s8.27,50.38,2.4,84.76c0,0,5.94-17.75,4.8-48.59S137.33,132.62,137.33,132.62Z"/></g><path class="cls-2" d="M86.32,13.54c-20.67,0-31.87,4.54-40.21,24.22-4.18,9.89-2.82,21,1.53,30.76A28.53,28.53,0,0,1,49.8,81.81c-.82,10.14,2,20.4,9,27.65,7.15,7.45,15.67,11.87,24,11.87,17.11,0,43-26.16,43-58.43S115,13.54,86.32,13.54Z"/><ellipse cx="79.18" cy="79.98" rx="2.5" ry="3.98"/><path d="M76.33,73.83a4.79,4.79,0,0,1,4-1,4,4,0,0,1,1.92,1.11,3.68,3.68,0,0,1,.94,1.9,6,6,0,0,0-3.1-2A11,11,0,0,0,76.33,73.83Z"/><ellipse cx="59.03" cy="77.75" rx="2.5" ry="3.98"/><path d="M55.42,72.76a4.77,4.77,0,0,1,3.49-2.28,4,4,0,0,1,2.18.41,3.8,3.8,0,0,1,1.51,1.49A6,6,0,0,0,59,71.55,11.25,11.25,0,0,0,55.42,72.76Z"/><g class="cls-6"><path class="cls-7" d="M103.83,74.89s1.48,21.32-5.49,40.76c0,0,19.77-13.46,21.39-29.28l-8.24-20.29Z"/></g><path d="M63.12,81.07a36.8,36.8,0,0,1,.1,6.64A24.8,24.8,0,0,1,62.78,91a27.72,27.72,0,0,0-.63,3.08c0,2,2.79,2,4.82,2.22a17.27,17.27,0,0,0,6.42-.88A13.78,13.78,0,0,1,67,97.15a14.69,14.69,0,0,1-3.37-.31,2.91,2.91,0,0,1-2.51-2.67c0-1.45.58-2.22.74-3.35s.39-2.13.58-3.21Q62.87,84.37,63.12,81.07Z"/><path d="M92.21,105.06a23.33,23.33,0,0,0-4.76-.5,29.8,29.8,0,0,0-4.72.32,50.11,50.11,0,0,0-9.24,2.41,22.2,22.2,0,0,1,4.34-2.22,24.79,24.79,0,0,1,4.75-1.25C85.82,103.45,89.27,103.56,92.21,105.06Z"/><g class="cls-6"><path class="cls-7" d="M52.12,98.76c4.32-19.11,1.86-24.35-.38-26s-6.46-11.32-6.85-12.2a48.67,48.67,0,0,0,2.75,8A28.53,28.53,0,0,1,49.8,81.81,38.94,38.94,0,0,0,52.12,98.76Z"/></g><path d="M62.85,88.17l0-2.71-1.46-4.52,2.73.21a9.09,9.09,0,0,1,5.79,3.95l.18.23c1.75,2.16,3.72,4.63,7.53,5.33a20.75,20.75,0,0,0,9.06-.15C101,86.71,99.47,67,99.41,66.14l-.18-2.28L43,58.69l.64,3.55C43.78,63.27,48.47,88,62.85,88.17Zm.66-12.72-2.79-.21-.38,6.94c-5.76-2.41-9.14-12.29-10.55-17.37l44.2,4c-.07,4.5-1.16,14.36-8.69,16.37a15.23,15.23,0,0,1-6.66.07c-1.82-.33-2.78-1.53-4.24-3.35C72.37,79.38,69.61,75.94,63.51,75.45Z"/><path class="cls-10" d="M96.69,66.36S98.74,91.7,78.11,88c-6.27-1.16-5.92-9.11-14.83-9.82l-.4,7.3c-12.29-.14-16.62-23.72-16.62-23.72Z"/><path d="M98.34,68.79S81.41,72.7,65.43,70.06c-17.79-2.89-21-6.91-21-6.91l.74-5.06,52.54,3.12Z"/><path d="M100.4,68.24c6.94,6.65,4.69,32.19,10,29.28,2.76-3.41,4.51-5.89,4.51-5.89l.82-30.06L99.17,50.48,64.1,50l-14,3.73,3,11.42S71.23,74,100.4,68.24Z"/><path class="cls-3" d="M136.7,32.11a50.28,50.28,0,0,0-96.57,25.8c.14,1.34,21.9,15.42,61.58,7.55,9.09,10.94,6,31.73,8.83,31C155.73,84.38,137.28,33.34,136.7,32.11Z"/><g class="cls-16"><path class="cls-11" d="M136.2,41.36q-3.15,3-6.44,6c-2.29,1.82-4.68,3.53-7,5.32-2.5,1.55-5.07,3-7.65,4.47-2.7,1.19-5.33,2.61-8.12,3.61a76.53,76.53,0,0,1-35.17,4.51,86.85,86.85,0,0,1-17.46-3.7A86.9,86.9,0,0,1,46,58.26a7.35,7.35,0,0,1-4-4,8.88,8.88,0,0,1-.18-5.22A76.25,76.25,0,0,1,46.7,32c2.47-5.3,5.79-10.74,11.08-13.5-4.69,3.56-7.34,8.88-9.11,14.26a74.73,74.73,0,0,0-3.51,16.76c-.17,1.59-.26,2.47.22,3.36a3.69,3.69,0,0,0,2.15,1.93,81.26,81.26,0,0,0,8,2.82,87.07,87.07,0,0,0,16.68,3.32,83.17,83.17,0,0,0,33.63-3.35C116.81,54.26,126.89,48.36,136.2,41.36Z"/></g><path class="cls-10" d="M71.89,118.92c-.4-.25,8.1-8.8,23-1.14C94.84,117.78,83.71,126.47,71.89,118.92Z"/><path class="cls-10" d="M93.77,118.39a36.68,36.68,0,0,0,6.36-4.5,26.66,26.66,0,0,0,5-5.81,19.53,19.53,0,0,0,2.9-7,26.31,26.31,0,0,0,.41-7.74,20.14,20.14,0,0,1,.41,7.89,19.07,19.07,0,0,1-2.81,7.47A25.21,25.21,0,0,1,93.77,118.39Z"/></g></g></svg>