<svg xmlns="http://www.w3.org/2000/svg" viewBox="0 0 145.37 283.3"><defs><style>.cls-1{fill:#4d4d4d;}.cls-2{fill:#e6dab0;}.cls-3{fill:#363125;}.cls-4{opacity:0.25;}.cls-5{fill:#041015;}.cls-6{opacity:0.4;}.cls-7{fill:#c69c6d;}.cls-8{fill:#43402f;}.cls-9{fill:#1a1a1a;}.cls-10{fill:#fbb03b;}.cls-11{fill:#0e0c09;}.cls-12{opacity:0.3;}.cls-13{opacity:0.15;}.cls-14{opacity:0.1;}.cls-15{fill:#603813;}.cls-16{fill:#a67c52;}.cls-17{opacity:0.17;}.cls-18{fill:#1e1e1e;}.cls-19{opacity:0.32;}.cls-20{fill:#5e5a51;}.cls-21{fill:#272624;}</style></defs><title>Recurso 139</title><g id="Capa_2" data-name="Capa 2"><g id="personajes_individuales" data-name="personajes individuales"><ellipse class="cls-1" cx="72.05" cy="253.43" rx="72.05" ry="29.87"/><path class="cls-2" d="M142.63,170.17A98.86,98.86,0,0,0,135,131.4h0a83.21,83.21,0,0,0-3.95-8h0l-.06-.08c-.3-.54-.63-1.08-.94-1.6-2.25-4.21-7.36-16.69-5.06-40.27l0,0c0-.7.11-1.39.11-2.09a34.56,34.56,0,1,0-69.11,0c0,.73,1.87,14.94-.72,29.78,0,0,0,0,0,0a48.51,48.51,0,0,1-3.66,11.63A80,80,0,0,0,46,131.36h0a98.64,98.64,0,0,0-7.65,38.81c0,.46,0,.92,0,1.38,0,0,0,0,0,.07,0,46.74,20.52,82,20.52,82h0c1.46,3.06,4.25,5.93,8.39,8.34,12.81,7.39,33.57,7.39,46.37,0,4.16-2.41,6.93-5.28,8.39-8.33h0s20.52-35.28,20.52-82v0C142.61,171.11,142.63,170.64,142.63,170.17Z"/><path class="cls-3" d="M135,131.4a83.21,83.21,0,0,0-3.95-8h0l-.06-.08c-.3-.54-.63-1.08-.94-1.6a38.22,38.22,0,0,1-2.67-6.58c-5.17,6.8-12.3,13-19.65,18.33a36.77,36.77,0,0,1-55-14.85c0-.1-.09-.21-.14-.31-.36.93-.72,1.77-1,2.43A80,80,0,0,0,46,131.36h0a98.64,98.64,0,0,0-7.65,38.81c0,.46,0,.92,0,1.38,0,0,0,0,0,.07,0,46.74,20.52,82,20.52,82h0c2.39,5,8.33,9.53,18,12.27a50,50,0,0,0,26.9.06c9.87-2.74,15.85-7.3,18.25-12.32h0s20.52-35.28,20.52-82v0c0-.48,0-1,0-1.42A98.86,98.86,0,0,0,135,131.4Z"/><g class="cls-4"><path class="cls-5" d="M127.34,115.45s-12.76,15-25.91,22C101.43,137.43,119.41,130.69,127.34,115.45Z"/></g><g class="cls-6"><g class="cls-6"><path class="cls-7" d="M127.44,115.17c-3.59-9.49-3.15-28.94-2.82-33.31l-.05,0c0-.7.08-1.39.07-2.09a34.55,34.55,0,1,0-69.09,1.59,93.67,93.67,0,0,1,.33,28.1c3.73,5.8,13.14,17.87,28.5,18.25C105.4,128.21,111.48,106.13,127.44,115.17Z"/></g></g><path class="cls-8" d="M64.42,133.2s18.5,14.42,40.71,2L68.36,154.35Z"/><g class="cls-4"><polygon class="cls-5" points="68.36 154.35 92.33 164.01 92.33 148.55 114.76 157.87 109.63 132.11 112.1 154.96 91.06 146.31 90.92 161.56 68.36 154.35"/></g><g class="cls-4"><polygon class="cls-5" points="66.6 154.35 54.43 157.59 59.91 144.2 43.6 140.83 54.13 124.08 45.48 140.28 61.63 143.09 56.44 155.88 66.6 154.35"/></g><path class="cls-9" d="M43,210.64s14.37,19.1,95.38-1.48l-3.73,14.08s-55.77,18-87.5,2.74C47.13,226,44.07,215.66,43,210.64Z"/><path class="cls-10" d="M56.52,135.23a38.65,38.65,0,0,1-5.56-1.5l-2.58,5.06a14,14,0,0,0,5.82,1.3Z"/><path class="cls-3" d="M55.51,135.7a38.14,38.14,0,0,1-4-1.17l-2.13,3.89a12.35,12.35,0,0,0,4.23,1Z"/><path class="cls-11" d="M127.37,115.17c-2.71,9.75-17.49,18.56-17.49,18.56l4.81,24.14-22.43-9.32V164l-14.09-5.68-4.91,5.77a6.4,6.4,0,0,1-10.92-2l-2.11-6-5.87,1.56,5.49-13.39-16.31-3.37,10.53-16.75-1.55-5.74a13.08,13.08,0,0,1-1,2.43c-.56.93-21.61,28-9.62,85.07,0,0,22.46,12.14,59.87,6.17,9.59-1.53,21.43-10.86,33.61-12.54a6.57,6.57,0,0,0,5.74-5.54c1.72-12.15,4.57-42.42-5.85-61.82Z"/><g class="cls-12"><path class="cls-3" d="M67.65,168.76a57.73,57.73,0,0,1-.15,10.36c-.25,1.7-.65,3.41-.79,5.13a33.23,33.23,0,0,0,.11,5.18,85.86,85.86,0,0,1-.11,20.7H66.5a57.17,57.17,0,0,1-.86-20.73,43,43,0,0,0,.37-5.18c0-1.73-.25-3.48-.31-5.22a31.31,31.31,0,0,1,1.74-10.28Z"/></g><g class="cls-12"><path class="cls-3" d="M77.22,191c-.23,6.46-.71,12.75,0,19.16a26.38,26.38,0,0,1-1.42-9.58A37.31,37.31,0,0,1,77.22,191Z"/></g><g class="cls-12"><path class="cls-3" d="M86.26,189.44c-.23,6.46-.71,12.75,0,19.16A26,26,0,0,1,84.84,199,36.88,36.88,0,0,1,86.26,189.44Z"/></g><g class="cls-12"><path class="cls-3" d="M96.87,189.44c-.23,6.46-.71,12.75,0,19.16A26.42,26.42,0,0,1,95.45,199,37.75,37.75,0,0,1,96.87,189.44Z"/></g><g class="cls-12"><path class="cls-3" d="M108.86,186.6c-.22,6.46-.7,12.75,0,19.16a26.38,26.38,0,0,1-1.42-9.58A37.75,37.75,0,0,1,108.86,186.6Z"/></g><g class="cls-12"><path class="cls-3" d="M71.73,185.28c6.45.46,12.72,1.18,19.15.7a26.32,26.32,0,0,1-9.63,1.07A37.21,37.21,0,0,1,71.73,185.28Z"/></g><g class="cls-12"><path class="cls-3" d="M97.13,185.42c6.25-1.67,12.41-3,18.33-5.58a26.21,26.21,0,0,1-8.75,4.15A37.45,37.45,0,0,1,97.13,185.42Z"/></g><g class="cls-12"><path class="cls-3" d="M43.62,177.4c6,2.5,11.67,5.18,17.92,6.79a26.19,26.19,0,0,1-9.47-2.07A37.45,37.45,0,0,1,43.62,177.4Z"/></g><g class="cls-12"><path class="cls-3" d="M45,162.23c6,2.5,11.67,5.18,17.92,6.79A26.39,26.39,0,0,1,53.44,167,37.88,37.88,0,0,1,45,162.23Z"/></g><g class="cls-12"><path class="cls-3" d="M49.08,184.1c-.23,6.46-.71,12.75,0,19.16a26.38,26.38,0,0,1-1.42-9.58A37.88,37.88,0,0,1,49.08,184.1Z"/></g><g class="cls-12"><path class="cls-3" d="M58.68,188.31c-.23,6.46-.71,12.75,0,19.16a26.38,26.38,0,0,1-1.42-9.58A37.88,37.88,0,0,1,58.68,188.31Z"/></g><g class="cls-13"><path d="M135,131.4a84.35,84.35,0,0,0-3.94-8h0l-.05-.08c-.31-.54-.63-1.08-.94-1.6a37.26,37.26,0,0,1-2.68-6.58c-5.17,6.8-12.29,13-19.64,18.33a37.31,37.31,0,0,1-5.27,3.11,45.4,45.4,0,0,0,.55,5c1.4,8.21,5,15.84,7.53,23.79a88.82,88.82,0,0,1-5.09,65.19c-6.09,12.3-15.12,23.59-17.72,37A50,50,0,0,0,103.83,266c9.87-2.74,15.84-7.29,18.25-12.31h0s20.52-35.28,20.52-82a0,0,0,0,0,0,0c0-.48,0-1,0-1.42A98.65,98.65,0,0,0,135,131.4Z"/></g><path class="cls-2" d="M87,15.94c-20.67,0-31.87,4.53-40.21,24.22C42.65,50,44,61.1,48.35,70.92a26.77,26.77,0,0,1,2,7.67,28,28,0,0,1,.12,5.61c-.82,10.14,2,20.4,9,27.66,7.15,7.44,15.67,11.86,24,11.86,17.11,0,43-26.16,43-58.43S115.71,15.94,87,15.94Z"/><g class="cls-14"><path class="cls-15" d="M118.13,29.32c-1.88,16.81-5.44,38.67-11.85,50h0c-1.91,4.65-5.16,8.94-6.5,13.85S99.08,103,99,108a49.89,49.89,0,0,1-1.42,10.39c14.36-9,28.65-29.59,28.65-53.57C126.19,49.49,123.75,37.59,118.13,29.32Z"/></g><path d="M62.64,105.22a23.33,23.33,0,0,0,4.72.76,27.67,27.67,0,0,0,4.73,0,49.68,49.68,0,0,0,9.37-1.87A22.24,22.24,0,0,1,77,106a25.44,25.44,0,0,1-4.82,1C68.93,107.19,65.49,106.88,62.64,105.22Z"/><ellipse cx="80.39" cy="77.73" rx="2.5" ry="3.98"/><path d="M77.54,71.59a4.76,4.76,0,0,1,4-1,3.9,3.9,0,0,1,1.92,1.1,3.8,3.8,0,0,1,.95,1.91,6,6,0,0,0-3.11-2A11,11,0,0,0,77.54,71.59Z"/><ellipse cx="60.84" cy="77.73" rx="2.5" ry="3.98"/><path d="M57.24,72.75a4.76,4.76,0,0,1,3.48-2.29,3.89,3.89,0,0,1,2.18.42,3.76,3.76,0,0,1,1.52,1.49,6,6,0,0,0-3.58-.84A10.89,10.89,0,0,0,57.24,72.75Z"/><path d="M68.07,81c0,3.81-1.88,7.36-3.51,10.61-.77,1.58-1.64,3.43-1.06,4.9.73,1.42,2.83,1.92,4.57,2.33-1.78-.09-4,0-5.31-2-1-2.11.16-4.07.83-5.75.89-1.7,1.8-3.26,2.58-4.94A24.88,24.88,0,0,0,68.07,81Z"/><path class="cls-16" d="M97.94,50.44S94.3,60.73,106.61,63c0,0,4.44,10.49-1.61,20.37,0,0,6.45-4,8.87-16.44,2.26-11.57,17.68-.24,6.33,14.43A24.49,24.49,0,0,0,114.83,94c-.33,3.76.25,7.82,3.28,10.49,0,0-1.21-5.16,3.23-7.73,0,0,4.24,3.48,10.09-1.76,0,0-8.6-.41-5-7.87,0,0,19.13-69-30.91-77.07S42.69,50.62,44.3,66.56C44.3,66.56,62.22,69.81,97.94,50.44Z"/><path class="cls-7" d="M49,62.23c10.67-2.66,21.28-5.41,31.4-9.44A77.75,77.75,0,0,0,95,45.64c4.5-2.89,8.84-6.46,11.15-11.52-1.48,5.44-5.76,9.65-10.21,12.89a69.36,69.36,0,0,1-14.72,7.78,129.94,129.94,0,0,1-15.86,4.83A115.53,115.53,0,0,1,49,62.23Z"/><path class="cls-7" d="M46,55.69A46.48,46.48,0,0,1,49.5,38.34,42.75,42.75,0,0,1,59.61,23.58c4.49-4,9.64-7.39,15.41-9.06,2.77-1.16,5.8-1.4,8.67-2.08,3-.34,5.92-.42,8.85-.53-2.9.6-5.82.88-8.65,1.56-2.78.89-5.7,1.3-8.3,2.61a41.91,41.91,0,0,0-14.5,9.07A43.8,43.8,0,0,0,51,39,59.77,59.77,0,0,0,46,55.69Z"/><path class="cls-7" d="M117.77,24.52a39,39,0,0,1,7.55,13.39,63.18,63.18,0,0,1,3.07,15.16A81.38,81.38,0,0,1,128,68.52c-.31,2.56-.8,5.09-1.2,7.62L125,83.63l1.34-7.58c.29-2.54.69-5.07.9-7.62a89.63,89.63,0,0,0,.11-15.28,67,67,0,0,0-2.78-15A43.92,43.92,0,0,0,117.77,24.52Z"/><g class="cls-17"><path d="M123,66.78a12.31,12.31,0,0,0-2.55-1.21,4.05,4.05,0,0,0-2.52-.11c-1.62.44-2.69,2.12-3.77,3.73a8.07,8.07,0,0,1,1-2.8,4.82,4.82,0,0,1,2.46-2A5.17,5.17,0,0,1,123,66.78Z"/></g><g class="cls-4"><path d="M117.46,67a6.1,6.1,0,0,1,2.85,5.79,5.81,5.81,0,0,1-1.65,3,16,16,0,0,1-1.31,1l-1.48.69c1.57-1.45,3.1-3,3.38-4.89a5.36,5.36,0,0,0-.32-2.86A12.28,12.28,0,0,0,117.46,67Z"/></g><path class="cls-7" d="M49.79,59.07a187.21,187.21,0,0,0,20.05-9.53c6.38-3.63,12.42-7.87,16.82-14a27.14,27.14,0,0,1-6.58,9.16,46.21,46.21,0,0,1-9.18,6.67,65.06,65.06,0,0,1-10.26,4.7A61.13,61.13,0,0,1,49.79,59.07Z"/><path class="cls-18" d="M128.12,36.19a51.51,51.51,0,0,1-.18,5.36c-.11.15-.18.26-.29.4v0c-.32.47-.65.94-1,1.37a61.13,61.13,0,0,1-4,5,52,52,0,0,1-7,6.3c-.84.62-1.67,1.2-2.54,1.74a2.71,2.71,0,0,1-.43.29,12.59,12.59,0,0,1-1.13.69,5.89,5.89,0,0,1-1,.54c-.08.08-.11.11-.19.11a19.54,19.54,0,0,1-2.5,1.27c-.79.4-1.59.76-2.39,1.09h0a.35.35,0,0,1-.22.11A7.8,7.8,0,0,1,104,61a10.52,10.52,0,0,1-1.3.47,2.05,2.05,0,0,1-.66.22.44.44,0,0,1-.21.07,9.11,9.11,0,0,1-1.34.44c-.48.14-.94.25-1.42.4l-.87.21h0c-1.13.29-2.32.55-3.52.77l-.69.1L91.74,64h-.25c-4.86-3-9.56-5.8-14.17-8.19-10-5.22-19.35-8.84-28-10.51a.72.72,0,0,1-.25,0c-1.45-.25-2.86-.47-4.28-.62l.95-12.1.65-8.3a16.43,16.43,0,0,1,6.23-11.74C71.78-2.36,92.54-4.39,115.22,8.69,124,15.43,127.94,24.74,128.12,36.19Z"/><path class="cls-11" d="M110.4,58s-21,13.91-31.5,21.92c-4.46,3.44-12.43,5.62-17.83,1.34-.33-.25-.65-.51-1-.76a59.19,59.19,0,0,0-16.7-7.83c-.18-.07-.36-.11-.54-.18a56,56,0,0,0-14-2.43,23.72,23.72,0,0,0-10.43,1.67c-.66.29-1.09-.72-.62-1.23,3.55-3.66,13.61-12.64,16.8-16,4.89-5.22,8.94-9.08,10.21-9.86C65.49,32,98.81,59.23,110.4,58Z"/><g class="cls-19"><path class="cls-20" d="M49.79,19.74a64.53,64.53,0,0,1,18.76.56,72.16,72.16,0,0,1,18,5.56A35.39,35.39,0,0,0,95.09,29a21.11,21.11,0,0,0,8.84-.4c5.82-1.55,10.81-5.7,14.6-10.6-3.06,5.41-7.91,10.14-14.12,12.19a20.62,20.62,0,0,1-9.65.75,37.27,37.27,0,0,1-9.07-3.14,78.3,78.3,0,0,0-17.45-5.88A90.42,90.42,0,0,0,49.79,19.74Z"/></g><path class="cls-2" d="M117.74,229.08s-4.55,21.89,10.24,11c9.88-7.27,13-26.1,13-26.1Z"/><path class="cls-21" d="M139.56,213.87a23.52,23.52,0,0,1-20,13.13c2.43-7.78,10.77-39.58-.24-78.75,2.81-1.33-5-4.84-5-4.84s13.27,37.12.8,86.67c22.17,1.59,25.73-16,25.78-16.21Z"/><path class="cls-3" d="M114.39,143.41c15.92,31.52,3.35,85,3.35,85A24.85,24.85,0,0,0,141,214s10.74-42.11-1.35-77.81c-2.42-7.16-11.07-10.75-17.52-6.82C114.68,133.88,114.39,143.41,114.39,143.41Z"/><path class="cls-10" d="M137.9,142.33a49.24,49.24,0,0,1-17.4,7.52s1.21,2.89,1.84,5.05c0,0,11.65-1.86,16.91-7.34Z"/><path class="cls-3" d="M137.51,143.35l1.07,3.88S135.08,152,122.8,154a37.52,37.52,0,0,0-1.38-3.62A44.19,44.19,0,0,0,137.51,143.35Z"/><g class="cls-4"><path class="cls-5" d="M120.25,140.27s8.4,51.21,2.44,86.17c0,0,6-18.05,4.88-49.41S120.25,140.27,120.25,140.27Z"/></g></g></g></svg>