<svg xmlns="http://www.w3.org/2000/svg" viewBox="0 0 252.33 282.87"><defs><style>.cls-1{fill:#272624;}.cls-2{fill:#232323;}.cls-3{opacity:0.25;}.cls-4{fill:#041015;}.cls-5{fill:#4d4d4d;}.cls-6{fill:#4f4f4f;}.cls-7{opacity:0.5;}.cls-8{fill:#383838;}.cls-9{opacity:0.15;}.cls-10{fill:#cfcfcf;}.cls-11{opacity:0.1;}.cls-12{fill:#25a4c4;}</style></defs><title>Recurso 143</title><g id="Capa_2" data-name="Capa 2"><g id="personajes_individuales" data-name="personajes individuales"><path d="M100.63,191.1s-19.09,12.52-.55,15.33c12.39,1.88,28.24-9.46,28.24-9.46Z"/><path class="cls-1" d="M127.37,195.87a24,24,0,0,1-23.91-4.94c7.37-3.87,36.36-20.81,56.7-57.06,3,1.07-.08-7.07-.08-7.07s-17.22,36.4-62,63.18c14.87,17.16,30.13,7,30.33,6.91Z"/><path class="cls-2" d="M160.08,126.8c-11.27,34.27-58.93,63.78-58.93,63.78A25.38,25.38,0,0,0,128.32,197s38.17-22.66,55.22-57.18c3.42-6.91-.23-15.76-7.73-17.57C167.17,120.13,160.08,126.8,160.08,126.8Z"/><g class="cls-3"><path class="cls-4" d="M164.48,130.42S133.89,171.47,105,191.19c0,0,17.7-7,39.15-29.3S164.48,130.42,164.48,130.42Z"/></g><ellipse class="cls-5" cx="174.19" cy="253" rx="72.05" ry="29.87"/><path class="cls-6" d="M250.16,168.46a98.81,98.81,0,0,0-7.63-38.76h0a83.18,83.18,0,0,0-3.94-8h0l-.06-.08c-.3-.55-.63-1.08-.94-1.61-2.25-4.21-7.36-16.68-5.06-40.26,0,0,0,0-.05,0,.05-.7.11-1.39.11-2.09a34.55,34.55,0,0,0-69.1,0c0,.74,1.86,14.94-.73,29.78,0,0,0,0,0,0a48.06,48.06,0,0,1-3.66,11.63,79.56,79.56,0,0,0-5.51,10.6h0a98.59,98.59,0,0,0-7.65,38.8c0,.46,0,.93,0,1.38,0,0,0,0,0,.07,0,46.75,20.52,82,20.52,82h0c1.47,3,4.25,5.93,8.4,8.33,12.8,7.39,33.56,7.39,46.36,0,4.16-2.4,6.93-5.28,8.4-8.33h0s20.52-35.27,20.52-82v0C250.14,169.4,250.16,168.94,250.16,168.46Z"/><g class="cls-7"><path class="cls-8" d="M232,90.9A115.12,115.12,0,0,1,232.53,79l-.05,0c.05-.7.11-1.39.11-2.09a34.55,34.55,0,1,0-69.1,0c0,.73,2,15.06-.62,29.9,0,0,13.42,18.35,28.37,17.1C212.2,122.1,220.56,111.4,232,90.9Z"/></g><path class="cls-8" d="M242.53,129.7a83.18,83.18,0,0,0-3.94-8h0l-.06-.08c-.3-.55-.63-1.08-.94-1.61a38.22,38.22,0,0,1-2.67-6.58c-5.17,6.81-12.3,13-19.65,18.33a36.77,36.77,0,0,1-55-14.85l-.14-.3c-.36.93-.72,1.76-1,2.42a79.56,79.56,0,0,0-5.51,10.6h0a98.59,98.59,0,0,0-7.65,38.8c0,.46,0,.93,0,1.38,0,0,0,0,0,.07,0,46.75,20.52,82,20.52,82h0c2.4,5,8.33,9.52,18,12.27a50,50,0,0,0,26.91.05c9.87-2.74,15.84-7.3,18.25-12.32h0s20.52-35.27,20.52-82v0c0-.48,0-.94,0-1.42A98.81,98.81,0,0,0,242.53,129.7Z"/><g class="cls-3"><path class="cls-4" d="M235.24,113.46s-12.76,15-25.91,22C209.33,135.45,227.3,128.7,235.24,113.46Z"/></g><path d="M150.51,208.93s38.29,15.61,96.22-5.42c0,0-2.8,12.79-3.94,15.92,0,0-49.19,14.69-88.13,4.85C154.66,224.28,151.61,214,150.51,208.93Z"/><path class="cls-6" d="M154.93,138.32c-2.82,10-6.39,28.9-3.1,53.57a19.23,19.23,0,0,0,15.79,16.47,125,125,0,0,0,36.13.81A15.62,15.62,0,0,0,217.25,195c1.05-12.26,1.9-31.76-1.21-47.27A4.61,4.61,0,0,0,211,144c-10,1.21-36,3.09-48.64-7.92A4.56,4.56,0,0,0,154.93,138.32Z"/><g class="cls-7"><path class="cls-8" d="M154.66,152.8s24.25,16.9,58.18,6.73v1.68s-32.58,10.14-58.18-6.76Z"/></g><g class="cls-7"><path class="cls-8" d="M154.66,168s24.25,16.9,58.18,6.73v1.68s-32.58,10.14-58.18-6.76Z"/></g><g class="cls-7"><path class="cls-8" d="M154.66,185.64s24.25,16.89,58.18,6.72V194s-32.58,10.15-58.18-6.75Z"/></g><g class="cls-7"><path class="cls-8" d="M228.28,107.16S216,126,202,130.15C202,130.15,217.51,120.32,228.28,107.16Z"/></g><g class="cls-7"><path class="cls-8" d="M163.77,116a17.72,17.72,0,0,0,9,11.86S165.55,121.28,163.77,116Z"/></g><path class="cls-2" d="M196.45,138.63a10.11,10.11,0,0,1-4.3-8.48,14.6,14.6,0,0,1,3-9.23,28.86,28.86,0,0,1-12.2-1,12.39,12.39,0,0,0-3.76,8v0c-.07,5.43-1.68,7.09-1.68,7.09a17.39,17.39,0,0,0,6.32,2.38l0,0A34.9,34.9,0,0,0,196.45,138.63Z"/><path class="cls-6" d="M187.42,122.44a12.14,12.14,0,0,0-1.67,3,15.55,15.55,0,0,0-.9,3.22,37.2,37.2,0,0,0-.49,6.82,14.52,14.52,0,0,1-.74-3.46,15.19,15.19,0,0,1,.17-3.56C184.28,126.12,185.35,123.7,187.42,122.44Z"/><g class="cls-9"><path d="M242.53,129.7a83.18,83.18,0,0,0-3.94-8h0l-.06-.08c-.3-.55-.63-1.08-.94-1.61a38.22,38.22,0,0,1-2.67-6.58c-5.17,6.8-12.3,13-19.65,18.33a35.41,35.41,0,0,1-5.27,3.12,47.44,47.44,0,0,0,.55,5c1.41,8.21,5,15.84,7.53,23.79A88.77,88.77,0,0,1,213,228.92c-6.09,12.31-15.11,23.59-17.72,37a50.26,50.26,0,0,0,16.1-1.64c9.87-2.74,15.84-7.3,18.25-12.32h0s20.52-35.27,20.52-82v0c0-.48,0-.94,0-1.42A98.81,98.81,0,0,0,242.53,129.7Z"/></g><path d="M223.51,230.23s-4.65,22.36,10.45,11.23c10.1-7.43,13.28-26.66,13.28-26.66Z"/><path class="cls-1" d="M245.8,214.7a24,24,0,0,1-20.41,13.41c2.48-8,11-40.42-.25-80.44,2.87-1.36-5-4.94-5-4.94s13.56,37.92.82,88.53c22.64,1.62,26.28-16.33,26.33-16.56Z"/><path class="cls-2" d="M220.09,142.73c16.26,32.2,3.42,86.77,3.42,86.77a25.39,25.39,0,0,0,23.73-14.7s11-43-1.38-79.47c-2.47-7.31-11.31-11-17.89-7C220.38,133,220.09,142.73,220.09,142.73Z"/><path class="cls-10" d="M244.63,149.38c1.08,4-.25,7.76-3.18,8.55s-4.69-2.17-5.76-6.12-1.05-7.4,1.87-8.2S243.56,145.43,244.63,149.38Z"/><path d="M252.31,191.48a9.28,9.28,0,0,1-9.9,8.85c-5.3-.35-6.63-4.69-6.29-9.92s2.25-9.36,7.54-9A9.28,9.28,0,0,1,252.31,191.48Z"/><path d="M226.34,186.16s3.17,5.59,10.14,1.49v7.82s-5.26-4.73-10.32-.23Z"/><g class="cls-3"><path class="cls-4" d="M225.76,142.18s7.39,50.66.91,85c0,0,7.56-17.45,7-48.39S225.76,142.18,225.76,142.18Z"/></g><path class="cls-2" d="M122.9,205.75a1.92,1.92,0,0,0,1.84-.32,5.88,5.88,0,0,0,2.32-4.72,1.93,1.93,0,0,0-.89-1.63l-122-60L.9,145.81Z"/><path class="cls-8" d="M2.7,145.5A5.86,5.86,0,0,0,5,140.77c-.13-1.66-1.36-2.26-2.75-1.32A5.79,5.79,0,0,0,0,144.17C.11,145.83,1.32,146.41,2.7,145.5Z"/><path class="cls-2" d="M93.09,208.47l6.62-18.3a1.88,1.88,0,0,0-.52-1.79,5.86,5.86,0,0,0-5-1.77,2,2,0,0,0-1.53,1.08L86.09,206Z"/><path class="cls-8" d="M86.61,207.78a5.84,5.84,0,0,0,5,1.78c1.63-.32,2.09-1.6,1-2.87a5.83,5.83,0,0,0-5-1.76C86,205.23,85.51,206.5,86.61,207.78Z"/><path class="cls-2" d="M194.86,13.54c-20.67,0-31.87,4.54-40.2,24.22-4.19,9.89-2.83,21,1.52,30.76a28.53,28.53,0,0,1,2.16,13.29c-.82,10.14,2,20.4,9,27.65,7.16,7.45,15.67,11.87,24,11.87,17.11,0,43-26.16,43-58.43S223.54,13.54,194.86,13.54Z"/><g class="cls-11"><path d="M226.35,26.44c-1.87,16.81-5.43,38.66-11.84,50h0c-1.91,4.66-5.15,9-6.49,13.85s-.7,9.91-.83,14.89a49.14,49.14,0,0,1-1.42,10.38c14.36-9,28.65-29.58,28.65-53.56C234.41,46.6,232,34.71,226.35,26.44Z"/></g><path d="M208.94,68.24c6.94,6.65,4.7,32.19,10,29.28,2.76-3.41,4.51-5.89,4.51-5.89l.82-30.06L207.71,50.48,172.64,50l-14,3.73,3,11.42S179.77,74,208.94,68.24Z"/><path d="M171.39,88.17l0-2.71L170,80.94l2.73.21a9.09,9.09,0,0,1,5.79,3.95l.18.23c1.75,2.16,3.72,4.63,7.53,5.33a20.8,20.8,0,0,0,9.07-.15C209.5,86.71,208,67,208,66.14l-.19-2.28L151.5,58.69l.64,3.55C152.32,63.27,157,88,171.39,88.17Zm.66-12.72-2.79-.21-.38,6.94c-5.76-2.41-9.14-12.29-10.55-17.37l44.2,4c-.06,4.5-1.16,14.36-8.69,16.37a15.23,15.23,0,0,1-6.66.07c-1.82-.33-2.78-1.53-4.24-3.35C180.91,79.38,178.16,75.94,172.05,75.45Z"/><path class="cls-12" d="M205.23,66.36S207.29,91.7,186.66,88c-6.27-1.16-5.93-9.11-14.84-9.82l-.4,7.3c-12.29-.14-16.62-23.72-16.62-23.72Z"/><path d="M206.88,68.79S190,72.7,174,70.06c-17.8-2.89-21-6.91-21-6.91l.74-5.06,52.54,3.12Z"/><path class="cls-8" d="M245.24,32.11a50.28,50.28,0,0,0-96.57,25.8c.14,1.34,21.9,15.42,61.58,7.55,9.09,10.94,6,31.73,8.83,31C264.27,84.38,245.82,33.34,245.24,32.11Z"/><path d="M183.63,96c-1.67,3.4-11.48,2.5-11.48,2.5Z"/></g></g></svg>