<svg xmlns="http://www.w3.org/2000/svg" viewBox="0 0 144.1 283.87"><defs><style>.cls-1{fill:#4d4d4d;}.cls-2{fill:#e6dab0;}.cls-3{fill:#363125;}.cls-4{opacity:0.25;}.cls-5{fill:#041015;}.cls-6{opacity:0.4;}.cls-7{fill:#c69c6d;}.cls-8{fill:#ccf764;}.cls-9{fill:#f2f2f2;}.cls-10{fill:#43402f;}.cls-11{fill:#1a1a1a;}.cls-12{fill:#f9fbf8;opacity:0.5;}.cls-13{fill:#fff;}.cls-14{fill:#fbb03b;}.cls-15{opacity:0.15;}.cls-16{fill:#acbac7;}.cls-17{fill:#272624;}.cls-18{fill:#d6fc77;}.cls-19{fill:#111f06;}.cls-20{opacity:0.1;}.cls-21{fill:#603813;}.cls-22{fill:#a67c52;}.cls-23{opacity:0.17;}.cls-24{fill:#28231b;}.cls-25{fill:#a1bd59;}.cls-26{fill:#f5b400;}.cls-27{fill:#cf7c00;}</style></defs><title>Recurso 116</title><g id="Capa_2" data-name="Capa 2"><g id="personajes_individuales" data-name="personajes individuales"><ellipse class="cls-1" cx="72.05" cy="254" rx="72.05" ry="29.87"/><path class="cls-2" d="M142,170.74A98.83,98.83,0,0,0,134.4,132h0a83.18,83.18,0,0,0-3.94-8h0l-.06-.08c-.3-.55-.63-1.08-.94-1.6-2.25-4.22-7.36-16.69-5.06-40.27l-.05,0c.05-.7.11-1.39.11-2.1a34.56,34.56,0,0,0-69.11,0c0,.74,1.87,14.95-.72,29.79,0,0,0,0,0,0A48.63,48.63,0,0,1,51,121.34a79.43,79.43,0,0,0-5.51,10.59h0a98.64,98.64,0,0,0-7.65,38.81c0,.46,0,.92,0,1.37,0,0,0,0,0,.07,0,46.75,20.52,82,20.52,82h0c1.46,3.05,4.25,5.93,8.39,8.33,12.81,7.39,33.57,7.39,46.37,0,4.16-2.4,6.93-5.28,8.39-8.33h0s20.53-35.27,20.53-82c0,0,0,0,0,0C142,171.68,142,171.21,142,170.74Z"/><path class="cls-3" d="M134.4,132a83.18,83.18,0,0,0-3.94-8h0l-.06-.08c-.3-.55-.63-1.08-.94-1.6a38.75,38.75,0,0,1-2.67-6.59c-5.17,6.81-12.3,13-19.65,18.34a36.77,36.77,0,0,1-55-14.86l-.14-.3c-.36.93-.72,1.77-1,2.43a79.43,79.43,0,0,0-5.51,10.59h0a98.64,98.64,0,0,0-7.65,38.81c0,.46,0,.92,0,1.37,0,0,0,0,0,.07,0,46.75,20.52,82,20.52,82h0c2.4,5,8.33,9.52,18,12.27a49.85,49.85,0,0,0,26.9,0c9.87-2.74,15.85-7.29,18.25-12.32h0s20.53-35.27,20.53-82c0,0,0,0,0,0,0-.48,0-.95,0-1.42A98.83,98.83,0,0,0,134.4,132Z"/><g class="cls-4"><path class="cls-5" d="M126.6,116s-12.76,15-25.91,22C100.69,138,118.66,131.21,126.6,116Z"/></g><g class="cls-6"><g class="cls-6"><path class="cls-7" d="M126.84,115.74c-3.59-9.5-3.15-28.95-2.82-33.31l0,0c0-.7.08-1.39.07-2.1A34.55,34.55,0,0,0,55,81.91,93.59,93.59,0,0,1,55.28,110c3.73,5.81,13.14,17.88,28.5,18.26C104.8,128.78,110.88,106.69,126.84,115.74Z"/></g></g><path class="cls-8" d="M126.84,115.73c-2.71,9.75-17.49,18.56-17.49,18.56l4.81,24.14-22.43-9.32v15.46l-14.09-5.68-4.91,5.78a6.41,6.41,0,0,1-10.92-2l-2.11-6-5.87,1.56,5.49-13.39L43,141.39l10.52-16.75L52,118.9a13.08,13.08,0,0,1-1,2.43c-.56.93-21.61,28-9.62,85.07,0,0,22.46,12.14,59.87,6.17,9.59-1.53,21.43-10.86,33.61-12.54a6.57,6.57,0,0,0,5.74-5.54c1.72-12.15,4.57-42.42-5.86-61.82Z"/><path class="cls-9" d="M37.66,172q0,5.85.47,12.41c51.55,14.24,88.78,1.34,103.93-5.83.19-3.91.26-8.15.11-12.51C108.89,186.34,55.38,176.2,37.66,172Z"/><path class="cls-9" d="M52.59,180.33a81.19,81.19,0,0,1,1.26-22.18h0l.05-.11a63.16,63.16,0,0,1,4.33-13.51l-9.67-2c-9.25,20-9.09,41-9.09,41Z"/><path class="cls-9" d="M95.26,150.58A68.65,68.65,0,0,0,91.73,162v2.58l-.48-.19a76.58,76.58,0,0,0-1.34,16.76h10c.22-11.2,1.77-20,4.16-26.92Z"/><path class="cls-9" d="M133.42,129.92,130,122.63l-.58-.31a50.58,50.58,0,0,0-8,2.16,61.62,61.62,0,0,1-12.12,9.81l1.44,7.2A30.37,30.37,0,0,1,133.42,129.92Z"/><path class="cls-10" d="M63.82,133.77s18.5,14.42,40.71,2L67.76,154.91Z"/><g class="cls-4"><polygon class="cls-5" points="67.76 154.91 91.73 164.58 91.73 149.11 114.16 158.44 109.03 132.68 111.5 155.52 90.46 146.88 90.33 162.13 67.76 154.91"/></g><g class="cls-4"><polygon class="cls-5" points="66 154.91 53.83 158.16 59.31 144.76 43.01 141.4 53.53 124.64 44.88 140.85 61.03 143.66 55.84 156.44 66 154.91"/></g><path class="cls-11" d="M42.38,211.2s14.37,19.11,95.38-1.48L134,223.8s-55.77,18-87.5,2.75C46.53,226.55,43.47,216.22,42.38,211.2Z"/><path class="cls-12" d="M65.94,167.71a66.68,66.68,0,0,0-1.72,11.68A99.84,99.84,0,0,0,64.1,191a169.78,169.78,0,0,0,2.76,23,81.27,81.27,0,0,1-3.07-11.31,86,86,0,0,1-1.38-11.53C62.27,183.38,62.73,175.52,65.94,167.71Z"/><path class="cls-13" d="M43.37,158.8a46.63,46.63,0,0,0,17.51,4s-.63,2.9-.85,5c0,0-11.19.26-17-4Z"/><path class="cls-3" d="M43.92,159.68l-.34,3.8s4.07,3.84,15.88,3.67c0,0,.31-2.32.66-3.62A41.53,41.53,0,0,1,43.92,159.68Z"/><path class="cls-14" d="M55.92,135.8a39.34,39.34,0,0,1-5.56-1.51l-2.58,5.07a14,14,0,0,0,5.82,1.3Z"/><path class="cls-3" d="M54.91,136.27a36,36,0,0,1-4-1.18L48.76,139A12.65,12.65,0,0,0,53,140Z"/><g class="cls-15"><path d="M134.39,132a83.18,83.18,0,0,0-3.94-8h0l-.06-.08c-.3-.55-.63-1.08-.94-1.6a38.75,38.75,0,0,1-2.67-6.59c-5.17,6.81-12.3,13-19.65,18.34a36.22,36.22,0,0,1-5.27,3.11,47.44,47.44,0,0,0,.55,5c1.41,8.21,5,15.85,7.53,23.79a88.79,88.79,0,0,1-5.09,65.2c-6.09,12.3-15.11,23.59-17.72,37a50,50,0,0,0,16.1-1.64c9.87-2.74,15.84-7.29,18.25-12.32h0S142,219,142,172.2v0c0-.48,0-1,0-1.42A98.83,98.83,0,0,0,134.39,132Z"/></g><path class="cls-16" d="M112.8,234.71s-4.53,21.84,10.21,11c9.86-7.26,13-26,13-26Z"/><path class="cls-17" d="M134.57,219.54a23.47,23.47,0,0,1-19.93,13.1c2.42-7.76,10.75-39.48-.24-78.56,2.8-1.33-4.94-4.83-4.94-4.83s13.24,37,.8,86.47c22.12,1.58,25.67-15.95,25.72-16.18Z"/><path class="cls-18" d="M111.33,153.35c13,31.76,1.47,80.65,1.47,80.65A24.81,24.81,0,0,0,136,219.64s10.73-42.08-1.38-77.71c-2.45-7.21-10.94-10.68-17.44-6.71a14.64,14.64,0,0,0-5.83,18.13Z"/><g class="cls-4"><path class="cls-5" d="M116.07,147s7.48,51.23.92,86c0,0,6.34-17.9,5.73-49.19S116.07,147,116.07,147Z"/></g><path class="cls-13" d="M140.09,190.2c.65-11.48.29-25.07-2.72-38.39-6.75-.32-14.61,3.1-14.61,3.1,4.56,11.5-1.39,20.41-5.69,25,.31,4,.44,8,.43,11.87C127.35,194,135,192.33,140.09,190.2Z"/><path class="cls-19" d="M126.71,191.8a41,41,0,0,1-8.21-.86c0-3.69-.14-7.29-.4-10.71,4.15-4.5,10-13.37,5.94-24.75,2.08-.81,7.49-2.69,12.41-2.69h.11a138.72,138.72,0,0,1,2.57,36.72,33.75,33.75,0,0,1-12.42,2.29Z"/><path class="cls-2" d="M88.31,16.5c-20.67,0-31.87,4.54-40.2,24.22-4.19,9.89-2.83,21,1.52,30.76a27.16,27.16,0,0,1,2,7.68,28,28,0,0,1,.13,5.61c-.83,10.14,2,20.4,9,27.65,7.16,7.45,15.67,11.87,24,11.87,17.11,0,43-26.16,43-58.43S117,16.5,88.31,16.5Z"/><g class="cls-20"><path class="cls-21" d="M119.64,30.64c-1.88,16.81-5.44,38.66-11.85,50h0c-1.91,4.65-5.16,9-6.5,13.85s-.7,9.9-.82,14.89a49.79,49.79,0,0,1-1.42,10.38c14.36-9,28.65-29.58,28.65-53.57C127.7,50.8,125.26,38.91,119.64,30.64Z"/></g><path d="M63.91,105.78a22.66,22.66,0,0,0,4.73.77,28.75,28.75,0,0,0,4.73,0,49,49,0,0,0,9.36-1.88,22.28,22.28,0,0,1-4.46,2,25.16,25.16,0,0,1-4.81,1C70.2,107.75,66.76,107.45,63.91,105.78Z"/><ellipse cx="81.66" cy="78.3" rx="2.5" ry="3.98"/><path d="M78.82,72.15a4.81,4.81,0,0,1,4-1,4,4,0,0,1,1.93,1.11,3.79,3.79,0,0,1,.94,1.9,6,6,0,0,0-3.11-2A11.47,11.47,0,0,0,78.82,72.15Z"/><ellipse cx="62.12" cy="78.3" rx="2.5" ry="3.98"/><path d="M58.51,73.31A4.8,4.8,0,0,1,62,71a3.91,3.91,0,0,1,2.18.42,3.78,3.78,0,0,1,1.51,1.48,6,6,0,0,0-3.58-.83A11.25,11.25,0,0,0,58.51,73.31Z"/><path d="M69.35,81.55c0,3.82-1.89,7.36-3.51,10.61-.78,1.59-1.65,3.44-1.07,4.9.73,1.43,2.83,1.92,4.58,2.34-1.79-.09-4-.05-5.32-2-1-2.11.16-4.08.84-5.75.88-1.7,1.8-3.27,2.57-5A25.49,25.49,0,0,0,69.35,81.55Z"/><path class="cls-22" d="M99.21,51s-3.63,10.29,8.67,12.51c0,0,4.44,10.5-1.61,20.38,0,0,6.46-4,8.88-16.44,2.26-11.57,17.68-.24,6.32,14.43A24.62,24.62,0,0,0,116.1,94.6c-.32,3.76.26,7.81,3.28,10.49,0,0-1.21-5.16,3.23-7.73,0,0,4.24,3.48,10.09-1.77,0,0-8.6-.4-5-7.86,0,0,19.12-69-30.91-77.08S44,51.19,45.58,67.13C45.58,67.13,63.5,70.37,99.21,51Z"/><path class="cls-7" d="M50.26,62.8c10.68-2.66,21.28-5.42,31.4-9.45A77.53,77.53,0,0,0,96.23,46.2c4.5-2.88,8.83-6.45,11.14-11.51-1.47,5.44-5.75,9.65-10.21,12.88a69.11,69.11,0,0,1-14.71,7.79,130.47,130.47,0,0,1-15.86,4.83A115.89,115.89,0,0,1,50.26,62.8Z"/><path class="cls-7" d="M47.24,56.25A46.34,46.34,0,0,1,50.78,38.9a42.77,42.77,0,0,1,10.1-14.76c4.49-4,9.65-7.38,15.42-9,2.77-1.16,5.79-1.4,8.67-2.09,2.94-.34,5.91-.41,8.84-.53-2.9.61-5.82.89-8.65,1.57-2.78.89-5.69,1.29-8.3,2.61a42,42,0,0,0-14.5,9.06A43.91,43.91,0,0,0,52.28,39.57,60.11,60.11,0,0,0,47.24,56.25Z"/><path class="cls-7" d="M119.05,25.09a38.71,38.71,0,0,1,7.54,13.39,63.22,63.22,0,0,1,3.08,15.15,83.18,83.18,0,0,1-.36,15.46c-.31,2.55-.81,5.08-1.21,7.62l-1.86,7.48,1.34-7.57c.29-2.54.69-5.07.9-7.62a89.63,89.63,0,0,0,.11-15.28,66.86,66.86,0,0,0-2.78-15A44,44,0,0,0,119.05,25.09Z"/><g class="cls-23"><path d="M124.23,67.34a12.06,12.06,0,0,0-2.56-1.2,4,4,0,0,0-2.51-.11c-1.62.44-2.7,2.12-3.78,3.73a7.82,7.82,0,0,1,1-2.8,4.75,4.75,0,0,1,2.45-2A5.2,5.2,0,0,1,124.23,67.34Z"/></g><g class="cls-4"><path d="M118.74,67.56a6.1,6.1,0,0,1,2.84,5.79,5.67,5.67,0,0,1-1.65,3,12.79,12.79,0,0,1-1.31,1l-1.48.7c1.58-1.45,3.11-3,3.38-4.89a5.15,5.15,0,0,0-.32-2.86A12.23,12.23,0,0,0,118.74,67.56Z"/></g><path class="cls-7" d="M51.06,59.64a185.37,185.37,0,0,0,20-9.54c6.38-3.63,12.42-7.86,16.82-14a27,27,0,0,1-6.57,9.17A47.21,47.21,0,0,1,72.18,52a66.5,66.5,0,0,1-10.27,4.7A61.13,61.13,0,0,1,51.06,59.64Z"/><path d="M102.59,64.53s-25,24.91-54.59,5c-13.5-9.11-1.73-25.09-1.73-25.09Z"/><path class="cls-24" d="M58.58,17.36C75,9,101.64,9,118.07,17.37c8.21,4.18,12.32,9.65,12.32,15.13V44.39c0,5.48-4.11,11-12.32,15.14-16.43,8.36-43.06,8.36-59.49,0-8.21-4.18-12.31-9.66-12.31-15.14V32.5C46.27,27,50.37,21.55,58.58,17.36Z"/><path class="cls-18" d="M50.26,18.18a36.59,36.59,0,0,1,7.05-4.58c17.25-8.79,45.23-8.79,62.49,0S130.24,42,120.82,51c-18.34,8-43.51,5.13-59.46-3.22-21.62-11.27-28.21-28-28.21-28Z"/><path class="cls-24" d="M38.46,16.11c2.45-1.13,5.65-2.59,9.61-4.61C68.87.92,102.6-2.65,123.39,7.94s20.81,31.32,0,41.91S68.87,37.62,48.07,27c-10.41-5.3-15.61-6.81-15.61-8.33V16.11Z"/><path class="cls-25" d="M48.07,24.59c20.8,10.58,54.53,32.28,75.32,21.69s20.81-27.75,0-38.34-54.52-10.59-75.32,0S27.26,14,48.07,24.59Z"/><path class="cls-26" d="M56.57,36.69c0-.67-.56-1.17-.61-1.38s1.21-.66,1.35-.62.81.83,1.13,1,.92,0,1.18.18.87.87,1.19,1,1,0,1.12.15a10.19,10.19,0,0,1,1.35,2c0,.16-.57.13-.61.75s1.31,3.39.75,4.81-2.69.35-3,.32-.58.28-.84.15-.56-.75-.83-1-2.41-1.34-3-3.33S56.6,37.18,56.57,36.69Z"/><path class="cls-27" d="M61.7,37.62a10.11,10.11,0,0,1,.73,1s0,0,0,0a1,1,0,0,0-.45.8,3.43,3.43,0,0,0,.24,1c.3.93.8,2.49.51,3.39s-1.54.61-2.13.41a1,1,0,0,0-.3-.08.84.84,0,0,0-.41.11.84.84,0,0,1-.23.09,3.38,3.38,0,0,1-.23-.32,2.73,2.73,0,0,0-.4-.53,2.06,2.06,0,0,0-.31-.23,4.71,4.71,0,0,1-2.12-2.58,4.23,4.23,0,0,1,.5-2.86,1.83,1.83,0,0,0,.25-.72,2.65,2.65,0,0,0-.5-1.24l0-.06a2.86,2.86,0,0,1,.76-.34l.29.28a4.63,4.63,0,0,0,.81.7,1.48,1.48,0,0,0,.66.11,1.48,1.48,0,0,1,.33,0,4,4,0,0,1,.33.31,3.36,3.36,0,0,0,.66.55,1.89,1.89,0,0,0,.81.13Zm0-.27c-.15-.08-.86,0-1.12-.14s-.77-.75-1-.87-.72,0-1-.14-1-.93-1.13-1h0c-.12,0-1.07.33-1,.51S57,36.44,57,37c0,.43-1.19,1.83-.74,3.65s2.34,2.83,2.58,3,.51.82.74.94.5-.2.74-.18,2.13,1,2.58-.43-.75-4-.73-4.4.49-.68.52-.82a6.38,6.38,0,0,0-1-1.48Z"/></g></g></svg>