<svg xmlns="http://www.w3.org/2000/svg" viewBox="0 0 155.66 297.74"><defs><style>.cls-1{isolation:isolate;}.cls-2{fill:#4d4d4d;}.cls-3{fill:#bca577;}.cls-4{fill:#30312c;}.cls-5{opacity:0.25;}.cls-6{fill:#041015;}.cls-7{opacity:0.4;}.cls-8{fill:#603813;}.cls-9{fill:#828c84;}.cls-10{fill:#1a1a1a;}.cls-11{fill:#fbb03b;}.cls-12{fill:#363125;}.cls-13{fill:#e39a19;}.cls-14{fill:#1b1610;}.cls-15{fill:#fff;}.cls-16{fill:#98271c;}.cls-17{fill:#07615f;}.cls-18{fill:#40a3b8;}.cls-19{fill:#f67811;}.cls-20{fill:#ffaf66;}.cls-21{fill:#bf834d;}.cls-22{fill:#bec0d0;}.cls-23{fill:#dfe0e7;}.cls-24{fill:#a9abc0;}.cls-25{fill:#7d81a0;}.cls-26{fill:#686c90;}.cls-27{mix-blend-mode:multiply;}.cls-28{fill:#f5b400;}.cls-29{opacity:0.7;}.cls-30{opacity:0.15;}.cls-31{fill:#c1ac7c;}.cls-32{fill:#272624;}.cls-33{opacity:0.1;}.cls-34{opacity:0.17;}.cls-35{fill:#2c2c24;}</style></defs><title>Recurso 144</title><g class="cls-1"><g id="Capa_2" data-name="Capa 2"><g id="personajes_individuales" data-name="personajes individuales"><ellipse class="cls-2" cx="73.96" cy="267.87" rx="72.05" ry="29.87"/><path class="cls-3" d="M130,183.52a98.86,98.86,0,0,0-7.63-38.77h0a85.57,85.57,0,0,0-3.94-8h0l0-.07c-.31-.55-.63-1.08-.94-1.61-2.26-4.21-7.37-16.69-5.07-40.27l0,0c0-.7.12-1.39.12-2.09a34.56,34.56,0,1,0-69.11,0c0,.73,1.86,14.94-.73,29.78,0,0,0,0,0,0a48.61,48.61,0,0,1-3.65,11.63,77.73,77.73,0,0,0-5.51,10.59h0a98.59,98.59,0,0,0-7.66,38.8c0,.46,0,.93,0,1.38,0,0,0,0,0,.07,0,46.75,20.52,82,20.52,82h0c1.46,3.06,4.24,5.93,8.39,8.34,12.8,7.39,33.56,7.39,46.36,0,4.16-2.41,6.94-5.28,8.4-8.33h0s20.52-35.27,20.52-82v0C129.93,184.46,130,184,130,183.52Z"/><path class="cls-4" d="M122.32,144.75a85.57,85.57,0,0,0-3.94-8h0l0-.07c-.31-.55-.63-1.08-.94-1.61a37.26,37.26,0,0,1-2.68-6.58c-5.17,6.8-12.3,13-19.64,18.33a36.78,36.78,0,0,1-55-14.85l-.13-.31c-.37.93-.72,1.77-1,2.43a77.73,77.73,0,0,0-5.51,10.59h0a98.59,98.59,0,0,0-7.66,38.8c0,.46,0,.93,0,1.38,0,0,0,0,0,.07,0,46.75,20.52,82,20.52,82h0c2.39,5,8.32,9.53,18,12.27a50,50,0,0,0,26.91.06C101,276.57,107,272,109.41,267h0s20.52-35.27,20.52-82v0c0-.48,0-.95,0-1.42A98.86,98.86,0,0,0,122.32,144.75Z"/><g class="cls-5"><path class="cls-6" d="M115,128.52s-12.76,15-25.91,22C89.13,150.5,107.1,143.76,115,128.52Z"/></g><g class="cls-7"><path class="cls-8" d="M114.76,128.53c-3.59-9.5-3.14-28.95-2.82-33.32a0,0,0,0,1,0,0c0-.7.08-1.39.06-2.09a34.55,34.55,0,1,0-69.09,1.59,93.29,93.29,0,0,1,.33,28.1c3.73,5.8,13.14,17.87,28.51,18.25C92.73,141.56,98.8,119.48,114.76,128.53Z"/></g><path class="cls-9" d="M51.75,146.55s18.49,14.42,40.7,2L55.69,167.7Z"/><g class="cls-5"><polygon class="cls-6" points="55.69 167.7 79.65 177.37 79.65 161.9 102.08 171.22 96.95 145.46 99.43 168.31 78.39 159.66 78.25 174.91 55.69 167.7"/></g><g class="cls-5"><polygon class="cls-6" points="53.93 167.7 41.75 170.94 47.24 157.55 30.93 154.19 41.46 137.43 32.8 153.63 48.95 156.44 43.76 169.23 53.93 167.7"/></g><path class="cls-10" d="M30.3,224s57.12,6.49,96.21-5.36c0,0-3.56,14.35-4.69,18.26,0,0-48.42,12.29-87.37,2.45C34.45,239.34,31.4,229,30.3,224Z"/><path class="cls-10" d="M53.93,170.94c-.88,4.6-1.36,9.25-1.78,13.89s-.67,9.3-.77,14c-.3,9.33,0,18.66.37,28-.58-4.64-1-9.31-1.27-14s-.26-9.36-.18-14.05C50.68,189.41,51.44,180,53.93,170.94Z"/><path class="cls-11" d="M43.85,148.58a38.16,38.16,0,0,1-5.56-1.5l-2.59,5.06a13.9,13.9,0,0,0,5.83,1.3Z"/><path class="cls-12" d="M42.84,149.05a34.59,34.59,0,0,1-4-1.17l-2.12,3.89a12.46,12.46,0,0,0,4.23,1Z"/><polygon class="cls-13" points="55.69 167.7 58.52 150.5 51.75 146.55 55.69 167.7"/><path class="cls-13" d="M55.69,167.7l15.45-14.25a39.21,39.21,0,0,0,21.31-4.89Z"/><path class="cls-14" d="M60.5,151.15l-2.77,4.14-2,12.41L66.19,158l.6-5.1A30.77,30.77,0,0,1,60.5,151.15Z"/><path class="cls-15" d="M34.35,176.91A25.16,25.16,0,0,0,44,179.07s-.33,1.63-.43,2.82c0,0-6.13.22-9.36-2.11Z"/><path class="cls-16" d="M34.65,177.41l-.16,2.13s2.26,2.12,8.73,2a19.57,19.57,0,0,1,.34-2A22.47,22.47,0,0,1,34.65,177.41Z"/><path class="cls-17" d="M34.55,173.23a26.66,26.66,0,0,0,10,2.2s-.34,1.66-.45,2.88c0,0-6.4.22-9.77-2.16Z"/><path class="cls-18" d="M34.86,173.73l-.16,2.18s2.35,2.16,9.1,2c0,0,.17-1.33.36-2.07A23.91,23.91,0,0,1,34.86,173.73Z"/><path class="cls-19" d="M29,183.59a7.3,7.3,0,0,1-.63-.64,1.84,1.84,0,0,1-.56.15,9.41,9.41,0,0,1,.69,1.22A1.87,1.87,0,0,1,29,183.59Z"/><path class="cls-19" d="M31.47,156.61a10,10,0,0,1,.8-1.12,1.22,1.22,0,0,1-.33-.27,8,8,0,0,1-.61.55A2.18,2.18,0,0,1,31.47,156.61Z"/><path class="cls-19" d="M28.79,186.49a1.69,1.69,0,0,1,.48-.67,9.25,9.25,0,0,1-.65-.69,1.73,1.73,0,0,1-.54.14A8.55,8.55,0,0,1,28.79,186.49Z"/><path class="cls-19" d="M27.46,183.24l0,0c-.13,0-.18.34-.21.54a1.09,1.09,0,0,0,.09.74c.18.26.66.23,1,.09A3.93,3.93,0,0,0,27.46,183.24Z"/><path class="cls-19" d="M28.44,169.52c-.15-.51-.39-1.05-.6-1.06h0c-.11,0-.23.25-.36.64a1.36,1.36,0,0,0-.09.65C27.46,170,28,169.82,28.44,169.52Z"/><path class="cls-19" d="M28.73,167.4c-.13-.49-.33-1-.53-1,0,0,0,0,0,0s-.23.25-.37.64a1.61,1.61,0,0,0-.11.66C27.78,168,28.31,167.72,28.73,167.4Z"/><path class="cls-19" d="M28.12,182.43a3.85,3.85,0,0,0-.91-1.35h0c-.13,0-.21.17-.27.53a1.19,1.19,0,0,0,.05.7C27.14,182.62,27.71,182.57,28.12,182.43Z"/><path class="cls-19" d="M30,161.07c-.07-.4-.22-.91-.44-.87a.11.11,0,0,0-.07,0c-.13.07-.26.29-.42.67a1.78,1.78,0,0,0-.18.61C29,161.81,29.52,161.48,30,161.07Z"/><path class="cls-19" d="M29.8,186.34c-.23-.15-.5.27-.68.67.44.49,1,1,1.16.93s0-.34-.11-.78A2.16,2.16,0,0,0,29.8,186.34Z"/><path class="cls-19" d="M29.51,184.1c-.2-.14-.51.3-.68.72.41.48,1,1,1.1.86s0-.34-.08-.78C29.77,184.64,29.66,184.2,29.51,184.1Z"/><path class="cls-19" d="M27.65,185.34h0c-.13,0-.19.32-.2.52a1.2,1.2,0,0,0,.11.73c.19.28.67.28,1,.17A4.59,4.59,0,0,0,27.65,185.34Z"/><path class="cls-19" d="M30.58,159c-.06-.39-.17-.88-.38-.83,0,0,0,0-.06,0a1.63,1.63,0,0,0-.44.68,1.81,1.81,0,0,0-.19.6C29.54,159.78,30.1,159.41,30.58,159Z"/><path class="cls-19" d="M30.1,161.44a6.52,6.52,0,0,1-.58.46,3.74,3.74,0,0,1,.26.94,6.48,6.48,0,0,1,.72-1.07A2.68,2.68,0,0,1,30.1,161.44Z"/><path class="cls-19" d="M31.21,156.93c0-.38-.11-.86-.31-.79l-.07,0a2,2,0,0,0-.44.69,2.27,2.27,0,0,0-.21.6C30.19,157.73,30.74,157.38,31.21,156.93Z"/><path class="cls-19" d="M29.53,163.16c-.09-.46-.22-.94-.41-.92h0a1.53,1.53,0,0,0-.38.67,2,2,0,0,0-.16.65C28.6,163.82,29.12,163.52,29.53,163.16Z"/><path class="cls-19" d="M29.63,163.55a5.87,5.87,0,0,1-.58.46,3.71,3.71,0,0,1,.29,1,6.33,6.33,0,0,1,.69-1A1.48,1.48,0,0,1,29.63,163.55Z"/><path class="cls-19" d="M31.26,157.27a4.75,4.75,0,0,1-.62.54,3.24,3.24,0,0,1,.2.87,10.55,10.55,0,0,1,.78-1.11A1,1,0,0,1,31.26,157.27Z"/><path class="cls-19" d="M30.65,159.34a5,5,0,0,1-.63.52,3,3,0,0,1,.25.9,8.72,8.72,0,0,1,.78-1.09A1.17,1.17,0,0,1,30.65,159.34Z"/><path class="cls-19" d="M29.75,168.58c-.19-.11-.6.48-.89,1,.35.36.84.72,1,.43a1.62,1.62,0,0,0,.07-.7C29.91,168.86,29.86,168.63,29.75,168.58Z"/><path class="cls-19" d="M30.38,164.21c-.19-.08-.59.54-.9,1,.31.32.72.6.89.31a1.92,1.92,0,0,0,.12-.7C30.5,164.48,30.47,164.25,30.38,164.21Z"/><path class="cls-19" d="M32.57,155.66c-.18-.06-.68.67-1,1.17.26.25.64.41.85,0a2.53,2.53,0,0,0,.17-.62C32.65,155.9,32.65,155.7,32.57,155.66Z"/><path class="cls-19" d="M29.45,181.92c-.25-.17-.6.33-.81.72.45.49,1.08,1,1.22.84s0-.51-.06-.74C29.68,182.28,29.58,182,29.45,181.92Z"/><path class="cls-19" d="M30.79,162.05c-.18-.07-.59.55-.9,1.08.27.3.66.55.85.25a2.12,2.12,0,0,0,.13-.69C30.9,162.29,30.87,162.09,30.79,162.05Z"/><path class="cls-19" d="M32,157.77c-.2-.08-.67.64-1,1.14.26.27.69.46.89.1a1.67,1.67,0,0,0,.16-.63C32.05,158,32,157.79,32,157.77Z"/><path class="cls-19" d="M28.27,180.78a2.28,2.28,0,0,1-.61.2,8.41,8.41,0,0,1,.69,1.21,2.41,2.41,0,0,1,.57-.75A7.64,7.64,0,0,1,28.27,180.78Z"/><path class="cls-19" d="M31.4,159.89c-.2-.09-.69.63-1,1.12.31.3.76.5,1,.16a2,2,0,0,0,.14-.64C31.51,160.14,31.5,159.93,31.4,159.89Z"/><path class="cls-19" d="M29.22,175.21c-.21-.12-.57.43-.79.87.37.41.88.84,1,.63a1.64,1.64,0,0,0,0-.74C29.4,175.52,29.33,175.27,29.22,175.21Z"/><path class="cls-19" d="M29.23,177.44c-.23-.13-.59.41-.8.82.4.44.94.9,1.09.7a1.44,1.44,0,0,0,0-.74C29.42,177.77,29.33,177.5,29.23,177.44Z"/><path class="cls-19" d="M29.3,179.68c-.25-.16-.59.36-.8.76.43.47,1,1,1.15.78s0-.53,0-.75A1.54,1.54,0,0,0,29.3,179.68Z"/><path class="cls-19" d="M29.09,165.27c-.09-.47-.26-1-.46-1h-.05c-.1.05-.22.27-.37.66a1.51,1.51,0,0,0-.13.65C28.16,165.89,28.68,165.61,29.09,165.27Z"/><path class="cls-19" d="M29.29,173c-.2-.11-.57.47-.79.91.35.39.81.79,1,.57a1.61,1.61,0,0,0,0-.74C29.45,173.28,29.39,173,29.29,173Z"/><path class="cls-19" d="M30,166.38c-.19-.09-.61.51-.89,1,.31.34.77.65.94.36a1.75,1.75,0,0,0,.09-.7C30.18,166.66,30.13,166.43,30,166.38Z"/><path class="cls-19" d="M29.43,170.77c-.2-.1-.56.49-.79.95.31.36.76.73.91.5a1.85,1.85,0,0,0,.06-.73C29.58,171.06,29.52,170.81,29.43,170.77Z"/><path class="cls-19" d="M26.87,178.14c.17.28.69.18,1.08,0-.22-.51-.53-1.18-.77-1.25,0,0,0,0,0,0s-.19.2-.28.57A1.41,1.41,0,0,0,26.87,178.14Z"/><path class="cls-19" d="M28.19,178.6a2.1,2.1,0,0,1-.59.24,6.74,6.74,0,0,1,.63,1.17,2.83,2.83,0,0,1,.57-.79A6.83,6.83,0,0,1,28.19,178.6Z"/><path class="cls-19" d="M28.39,172.11a2.19,2.19,0,0,1-.55.34,5.4,5.4,0,0,1,.46,1.06,4,4,0,0,1,.58-.89A3.69,3.69,0,0,1,28.39,172.11Z"/><path class="cls-19" d="M28.26,174.26a2.65,2.65,0,0,1-.57.31,5.78,5.78,0,0,1,.52,1.1,3.67,3.67,0,0,1,.57-.86A4.15,4.15,0,0,1,28.26,174.26Z"/><path class="cls-19" d="M28.19,176.43a2.74,2.74,0,0,1-.57.28,6.66,6.66,0,0,1,.57,1.13,2.93,2.93,0,0,1,.57-.83A4.32,4.32,0,0,1,28.19,176.43Z"/><path class="cls-19" d="M26.93,176.06c.14.27.66.14,1-.1-.2-.5-.49-1.15-.7-1.19a0,0,0,0,0,0,0c-.1,0-.21.21-.29.59A1.39,1.39,0,0,0,26.93,176.06Z"/><path class="cls-19" d="M26.88,180.23c.18.29.72.22,1.12,0-.24-.53-.6-1.22-.84-1.3h0c-.11,0-.22.18-.27.55A1.31,1.31,0,0,0,26.88,180.23Z"/><path class="cls-19" d="M28.22,171.66c-.15-.47-.36-1.08-.57-1.1h0c-.11,0-.22.24-.31.62a1.44,1.44,0,0,0-.07.69C27.36,172.14,27.84,171.94,28.22,171.66Z"/><path class="cls-19" d="M28.6,169.94a4.26,4.26,0,0,1-.56.36,5.23,5.23,0,0,1,.42,1,4.76,4.76,0,0,1,.61-.95A2.57,2.57,0,0,1,28.6,169.94Z"/><path class="cls-19" d="M28.87,167.81a4.11,4.11,0,0,1-.6.4,4.36,4.36,0,0,1,.41,1,5.85,5.85,0,0,1,.67-1A4.46,4.46,0,0,1,28.87,167.81Z"/><path class="cls-19" d="M29.21,165.67a3.59,3.59,0,0,1-.58.44,4,4,0,0,1,.35,1,7.27,7.27,0,0,1,.67-1A3,3,0,0,1,29.21,165.67Z"/><path class="cls-19" d="M27.05,174c.13.26.64.09,1-.16-.17-.49-.44-1.12-.63-1.15h0c-.1,0-.21.23-.3.61A1.42,1.42,0,0,0,27.05,174Z"/><path class="cls-19" d="M29.24,162.22a1.33,1.33,0,0,0-.45.68c-.19.51-.17.75-.11.89l-.2-.07c0-.14,0-.28.05-.42s.1-.36.16-.53.15-.31.22-.47l.25-.15.17-.05"/><path class="cls-19" d="M33.68,158.39a8.07,8.07,0,0,1-.87,1.1,2.24,2.24,0,0,1,.53.24c.16-.13.43-.34.72-.53A2.09,2.09,0,0,1,33.68,158.39Z"/><path class="cls-19" d="M31.86,187a5.81,5.81,0,0,1,.51.64,1.12,1.12,0,0,1,.37-.22,9.29,9.29,0,0,1-.61-1.23A2.35,2.35,0,0,1,31.86,187Z"/><path class="cls-19" d="M33.38,157.38a1.82,1.82,0,0,1,.52.24,7.42,7.42,0,0,1,.75-.58,1.78,1.78,0,0,1-.37-.74A7.92,7.92,0,0,1,33.38,157.38Z"/><path class="cls-19" d="M33.52,158.09c-.33-.18-.79-.3-1-.07a1.14,1.14,0,0,0-.2.72c0,.21,0,.56.12.56s0,0,0,0C32.68,159.24,33.13,158.63,33.52,158.09Z"/><path class="cls-19" d="M30.17,172.58a1.3,1.3,0,0,0,0,.66c.06.4.15.63.25.69h0c.21,0,.53-.47.76-.95C30.82,172.63,30.33,172.32,30.17,172.58Z"/><path class="cls-19" d="M30.17,174.67a1.47,1.47,0,0,0,0,.66c.07.41.14.63.25.7l0,0c.2,0,.48-.45.69-.92C30.8,174.75,30.31,174.42,30.17,174.67Z"/><path class="cls-19" d="M31.79,160.14a1.2,1.2,0,0,0-.16.68c0,.37.06.55.18.57h0c.25,0,.77-.7,1.12-1.19C32.59,160,32,159.85,31.79,160.14Z"/><path class="cls-19" d="M30.38,181a1.59,1.59,0,0,0,.08.63,1.43,1.43,0,0,0,.31.74l.06,0c.21.08.44-.4.57-.78C31,181.11,30.48,180.68,30.38,181Z"/><path class="cls-19" d="M35.08,158a1.3,1.3,0,0,0,.2-.75c-.13-.15-.74.27-1.22.67.1.44.33.93.55.82S35,158.28,35.08,158Z"/><path class="cls-19" d="M34.11,156c-.35-.17-.82-.25-1.06,0a1.36,1.36,0,0,0-.23.71c0,.2,0,.55.12.55h0A4.42,4.42,0,0,0,34.11,156Z"/><path class="cls-19" d="M30.65,183.08a1.82,1.82,0,0,0,.1.62,1.66,1.66,0,0,0,.32.75s0,0,.06,0c.19.08.39-.38.5-.76C31.23,183.24,30.74,182.78,30.65,183.08Z"/><path class="cls-19" d="M32,181a7.08,7.08,0,0,1-.54-1.17,3.27,3.27,0,0,1-.41.89,5.59,5.59,0,0,1,.51.55A1.61,1.61,0,0,1,32,181Z"/><path class="cls-19" d="M31,185.17a2.39,2.39,0,0,0,.12.63,1.93,1.93,0,0,0,.32.75l.06,0c.19.09.35-.37.43-.74C31.53,185.35,31.05,184.91,31,185.17Z"/><path class="cls-19" d="M30.36,178.88a1.84,1.84,0,0,0,.05.67,1.52,1.52,0,0,0,.27.72l0,0c.18.05.39-.4.55-.85C30.92,179,30.46,178.64,30.36,178.88Z"/><path class="cls-19" d="M31.88,178.75a6.35,6.35,0,0,1-.51-1.11,3.88,3.88,0,0,1-.44.89,3.74,3.74,0,0,1,.49.55A2.11,2.11,0,0,1,31.88,178.75Z"/><path class="cls-19" d="M31.4,187.28a1.84,1.84,0,0,0,.13.62,2,2,0,0,0,.34.76l.05.05c.18.1.32-.35.37-.71C31.9,187.48,31.43,187,31.4,187.28Z"/><path class="cls-19" d="M32.44,185.29a11.21,11.21,0,0,1-.6-1.21,3.43,3.43,0,0,1-.33.82,6.2,6.2,0,0,1,.52.63A1.16,1.16,0,0,1,32.44,185.29Z"/><path class="cls-19" d="M32.21,183.13a7.87,7.87,0,0,1-.6-1.2,2.52,2.52,0,0,1-.39.85,5.92,5.92,0,0,1,.54.61A1.4,1.4,0,0,1,32.21,183.13Z"/><path class="cls-19" d="M32.64,173.47a1.5,1.5,0,0,0,0-.71c-.12-.31-.66,0-1.06.26.21.54.52,1.18.73,1.11S32.56,173.87,32.64,173.47Z"/><path class="cls-19" d="M32.49,177.91a2.1,2.1,0,0,0,0-.71c-.13-.32-.58-.11-.94.16.23.56.53,1.23.72,1.18S32.43,178.3,32.49,177.91Z"/><path class="cls-19" d="M33.18,186.75a2.51,2.51,0,0,0-.08-.65c-.14-.38-.55-.29-.84-.08.25.55.62,1.34.8,1.31S33.18,187.11,33.18,186.75Z"/><path class="cls-19" d="M34.68,160.16c.09-.22.24-.62.18-.72s-.82.22-1.34.64c.15.42.41,1,.68.83S34.49,160.6,34.68,160.16Z"/><path class="cls-19" d="M32.51,180.12a2,2,0,0,0,0-.7c-.14-.33-.56-.14-.88.11.22.58.53,1.25.71,1.21S32.48,180.52,32.51,180.12Z"/><path class="cls-19" d="M32.94,184.56a1.91,1.91,0,0,0,0-.65c-.15-.39-.6-.27-.91,0,.25.54.6,1.33.81,1.29S32.92,185,32.94,184.56Z"/><path class="cls-19" d="M33.6,161.31a2.51,2.51,0,0,1-.44-.84,9,9,0,0,1-.87,1.09,1.91,1.91,0,0,1,.56.29A7.62,7.62,0,0,1,33.6,161.31Z"/><path class="cls-19" d="M33.48,188.91a2.9,2.9,0,0,0-.09-.64c-.16-.39-.52-.31-.79-.12.24.55.66,1.36.8,1.33S33.5,189.29,33.48,188.91Z"/><path class="cls-19" d="M32.78,182.36a2,2,0,0,0,0-.66c-.14-.37-.62-.24-1,0,.23.54.6,1.32.81,1.27S32.74,182.75,32.78,182.36Z"/><path class="cls-19" d="M33.26,166.79a1.56,1.56,0,0,0,.11-.73c-.11-.23-.68.11-1.12.46.15.46.42,1.06.65,1S33.12,167.22,33.26,166.79Z"/><path class="cls-19" d="M33.66,164.57c.08-.21.2-.6.13-.73s-.72.15-1.19.52c.15.45.42,1,.66.94S33.51,165,33.66,164.57Z"/><path class="cls-19" d="M34.13,162.37c.07-.21.23-.62.16-.73s-.77.19-1.27.58c.15.43.4,1,.67.88S34,162.8,34.13,162.37Z"/><path class="cls-19" d="M30.23,176.77c-.07.11,0,.43,0,.67.09.41.16.64.26.71l0,0c.2,0,.45-.42.62-.88C30.82,176.88,30.36,176.53,30.23,176.77Z"/><path class="cls-19" d="M32.93,169a1.52,1.52,0,0,0,.09-.73c-.12-.24-.64.08-1.05.4.15.48.42,1.11.64,1S32.82,169.45,32.93,169Z"/><path class="cls-19" d="M32.53,175.7a1.73,1.73,0,0,0,0-.71c-.12-.31-.62-.08-1,.21.2.55.51,1.2.72,1.15S32.47,176.09,32.53,175.7Z"/><path class="cls-19" d="M32.68,171.24a1.79,1.79,0,0,0,.06-.74c-.11-.25-.61,0-1,.35.16.49.42,1.13.63,1.07S32.59,171.66,32.68,171.24Z"/><path class="cls-19" d="M30.93,164.93c0,.38.07.58.18.61s0,0,0,0c.24,0,.66-.63,1-1.11-.35-.26-.85-.45-1.06-.2A1.42,1.42,0,0,0,30.93,164.93Z"/><path class="cls-19" d="M33.13,163.47a2.65,2.65,0,0,1-.44-.87,6.79,6.79,0,0,1-.81,1.06,2.2,2.2,0,0,1,.55.33A5.77,5.77,0,0,1,33.13,163.47Z"/><path class="cls-19" d="M32.15,170a4,4,0,0,1-.44-1,5.12,5.12,0,0,1-.62,1,2.47,2.47,0,0,1,.49.43A3.48,3.48,0,0,1,32.15,170Z"/><path class="cls-19" d="M32.4,167.83a4.16,4.16,0,0,1-.43-.94,6.24,6.24,0,0,1-.68,1,3,3,0,0,1,.5.4A4.61,4.61,0,0,1,32.4,167.83Z"/><path class="cls-19" d="M32.73,165.65a3,3,0,0,1-.43-.91,7.44,7.44,0,0,1-.75,1,2.29,2.29,0,0,1,.53.36A3.64,3.64,0,0,1,32.73,165.65Z"/><path class="cls-19" d="M30.67,167c0,.39.09.6.2.63h0c.22,0,.6-.61.88-1.07-.34-.3-.83-.51-1-.27A1.46,1.46,0,0,0,30.67,167Z"/><path class="cls-19" d="M31.25,162.86c0,.38.07.58.18.6h0c.24,0,.71-.66,1-1.15-.36-.24-.88-.4-1.11-.14A1.34,1.34,0,0,0,31.25,162.86Z"/><path class="cls-19" d="M30.41,170.48a1.39,1.39,0,0,0-.05.69c0,.39.11.62.21.66h0c.21,0,.52-.55.74-1C31,170.51,30.57,170.24,30.41,170.48Z"/><path class="cls-19" d="M32,172.22a4.66,4.66,0,0,1-.46-1,5.08,5.08,0,0,1-.58,1,3.42,3.42,0,0,1,.5.44A2.73,2.73,0,0,1,32,172.22Z"/><path class="cls-19" d="M31.91,174.38a4.85,4.85,0,0,1-.5-1.07,5.2,5.2,0,0,1-.57.95,3.64,3.64,0,0,1,.52.49A4.68,4.68,0,0,1,31.91,174.38Z"/><path class="cls-19" d="M31.86,176.57a7,7,0,0,1-.51-1.09,4.08,4.08,0,0,1-.5.91,3.47,3.47,0,0,1,.51.53A2.84,2.84,0,0,1,31.86,176.57Z"/><path class="cls-19" d="M30.49,169.08c0,.39.1.61.19.64h0c.2,0,.56-.58.81-1-.33-.31-.8-.56-1-.32A1.22,1.22,0,0,0,30.49,169.08Z"/><path class="cls-19" d="M30.9,180.46l-.16-.08-.22-.19c-.05-.16-.1-.33-.14-.49s-.05-.37-.08-.55,0-.29,0-.43l.21,0c-.08.12-.14.36,0,.89a1.36,1.36,0,0,0,.33.75"/><path class="cls-19" d="M50.43,189.28a4.76,4.76,0,0,1,.27.64,4.14,4.14,0,0,1,.55-.22c-.06-.39-.08-.94-.1-1.34A3.1,3.1,0,0,1,50.43,189.28Z"/><path class="cls-19" d="M51.53,185.57a4.14,4.14,0,0,1-.54,1.16,3,3,0,0,1,.35.64,4,4,0,0,1,.5-.44A13.55,13.55,0,0,1,51.53,185.57Z"/><path class="cls-19" d="M51.64,189.47h0c.11,0,.31-.48.41-.77a2.57,2.57,0,0,0,.2-1c-.07-.3-.5,0-.84.26A4.18,4.18,0,0,0,51.64,189.47Z"/><path class="cls-19" d="M41.12,197c-.43.16-.94.32-.95.52a0,0,0,0,0,0,0c0,.1.24.23.62.32a1.44,1.44,0,0,0,.65.07C41.7,197.8,41.41,197.33,41.12,197Z"/><path class="cls-19" d="M39.24,196.61c-.45,0-1,.1-1,.27,0,0,0,0,0,0s.19.26.56.44a1.3,1.3,0,0,0,.62.2C39.69,197.52,39.48,197,39.24,196.61Z"/><path class="cls-19" d="M50.7,190.48c0,.58-.1,1.36,0,1.48s0,0,0,0,.28-.16.54-.58a2.21,2.21,0,0,0,.33-.82C51.64,190.19,51.12,190.32,50.7,190.48Z"/><path class="cls-19" d="M34.35,193.09c-.35-.24-.84-.64-1-.52l0,.05a1.74,1.74,0,0,0,.29.78,2,2,0,0,0,.4.58C34.35,194.2,34.38,193.62,34.35,193.09Z"/><path class="cls-19" d="M50.67,186.3c.15.1.49-.57.69-1.29-.28-.45-.67-.8-.8-.54a3.1,3.1,0,0,0,0,1A2.35,2.35,0,0,0,50.67,186.3Z"/><path class="cls-19" d="M50.23,188.79c.12.13.54-.38.83-1-.19-.47-.51-.88-.67-.69a2.36,2.36,0,0,0-.16.84C50.21,188.25,50.15,188.7,50.23,188.79Z"/><path class="cls-19" d="M52.23,186.6s0,0,0,0,.23-.61.29-1a3.34,3.34,0,0,0,0-1.18c-.13-.31-.52.13-.82.55C51.91,185.76,52.07,186.57,52.23,186.6Z"/><path class="cls-19" d="M33.18,191.09c-.3-.35-.71-.91-.83-.84l0,0a2,2,0,0,0,.16.88,2.32,2.32,0,0,0,.31.7C33,192.18,33.14,191.63,33.18,191.09Z"/><path class="cls-19" d="M34.69,193.3c0,.14,0,.4.05.63.27.09.66.3.9.41a4.72,4.72,0,0,1-.48-1A1.46,1.46,0,0,1,34.69,193.3Z"/><path class="cls-19" d="M35.8,194.67c-.43-.19-.91-.4-1-.28v0c0,.1.12.34.4.66a2.1,2.1,0,0,0,.52.47C36,195.64,35.91,195.12,35.8,194.67Z"/><path class="cls-19" d="M36.16,194.79a3.63,3.63,0,0,1,.16.62,6.7,6.7,0,0,1,.93.14,3.89,3.89,0,0,1-.6-.88A1.91,1.91,0,0,1,36.16,194.79Z"/><path class="cls-19" d="M32.58,189.12c0,.14-.07.44-.13.67l.7.93a6.35,6.35,0,0,1-.14-1.28A1.38,1.38,0,0,1,32.58,189.12Z"/><path class="cls-19" d="M33.47,191.41a4.56,4.56,0,0,1,0,.68c.27.18.62.47.84.65a5.09,5.09,0,0,1-.31-1.18A1.29,1.29,0,0,1,33.47,191.41Z"/><path class="cls-19" d="M40.3,195.8c-.09.18.37.56.82.79.29-.32.5-.78.27-.92a1.32,1.32,0,0,0-.54,0C40.53,195.66,40.35,195.71,40.3,195.8Z"/><path class="cls-19" d="M37,194.51c-.13.1.2.63.56,1,.35-.15.67-.44.49-.64a1.46,1.46,0,0,0-.5-.27C37.23,194.5,37.05,194.46,37,194.51Z"/><path class="cls-19" d="M49.34,190.84c.13.19.66-.17,1-.58-.16-.52-.46-1-.66-.85a2,2,0,0,0-.26.67C49.32,190.51,49.28,190.74,49.34,190.84Z"/><path class="cls-19" d="M35.52,193.28c-.13.05.12.67.42,1.13.36,0,.71-.23.56-.47a2.11,2.11,0,0,0-.46-.39C35.76,193.35,35.59,193.25,35.52,193.28Z"/><path class="cls-19" d="M33.57,189.74c-.18-.06-.11.78,0,1.33.37.19.76.17.67-.18a5.18,5.18,0,0,0-.29-.58C33.77,190,33.65,189.77,33.57,189.74Z"/><path class="cls-19" d="M32.15,189.86c.1.06.19-.45.2-.8-.19-.17-.42-.22-.43,0a2.46,2.46,0,0,0,.08.39A1.17,1.17,0,0,0,32.15,189.86Z"/><path class="cls-19" d="M49.7,192.07a5.5,5.5,0,0,1,.61-.07c0-.4,0-.93.07-1.28a2.48,2.48,0,0,1-.85.63A4,4,0,0,1,49.7,192.07Z"/><path class="cls-19" d="M34.34,191.59c-.19,0,0,.78.19,1.27.4.06.79-.08.66-.4a3.91,3.91,0,0,0-.37-.46C34.58,191.73,34.42,191.58,34.34,191.59Z"/><path class="cls-19" d="M45.43,195c0,.22.59.25,1,.18.09-.47.08-1-.14-1s-.37.2-.5.32S45.42,194.93,45.43,195Z"/><path class="cls-19" d="M46.94,194c.05.22.64.13,1.07-.05,0-.49-.09-1-.32-1s-.32.3-.43.45S46.91,193.89,46.94,194Z"/><path class="cls-19" d="M48.26,192.6c.09.21.65,0,1.06-.3-.07-.51-.27-1.05-.49-.94s-.27.38-.36.56C48.3,192.27,48.22,192.49,48.26,192.6Z"/><path class="cls-19" d="M37.45,195.85c-.45-.06-1-.15-1,0a0,0,0,0,0,0,0c0,.1.16.31.49.56a1.35,1.35,0,0,0,.58.33C37.77,196.78,37.62,196.29,37.45,195.85Z"/><path class="cls-19" d="M43.78,195.69c0,.21.54.35,1,.37.17-.4.24-.9,0-.95a1.19,1.19,0,0,0-.54.21C43.94,195.48,43.78,195.6,43.78,195.69Z"/><path class="cls-19" d="M38.6,195.34c-.12.15.29.62.69.92.33-.24.61-.61.4-.79a1.39,1.39,0,0,0-.53-.15C38.85,195.29,38.66,195.28,38.6,195.34Z"/><path class="cls-19" d="M42,196c0,.19.49.43.93.54.22-.34.37-.8.16-.88s-.4,0-.56.08C42.25,195.82,42.07,195.9,42,196Z"/><path class="cls-19" d="M49,194.76c.09-.3-.38-.42-.8-.48-.2.46-.5,1.06-.4,1.24l0,0c.08.06.3,0,.65-.25A1.66,1.66,0,0,0,49,194.76Z"/><path class="cls-19" d="M48.4,193.82a3.2,3.2,0,0,1,.6.08,11.87,11.87,0,0,1,.27-1.17,2.17,2.17,0,0,1-.91.39A3,3,0,0,1,48.4,193.82Z"/><path class="cls-19" d="M43.35,196.66a2.68,2.68,0,0,1,.46.38,9.15,9.15,0,0,1,.73-.69,2.54,2.54,0,0,1-.91-.23A2.06,2.06,0,0,1,43.35,196.66Z"/><path class="cls-19" d="M45.17,196.12a2.45,2.45,0,0,1,.51.3,6,6,0,0,1,.61-.87,2.54,2.54,0,0,1-.95,0A2.51,2.51,0,0,1,45.17,196.12Z"/><path class="cls-19" d="M46.87,195.17a2.75,2.75,0,0,1,.56.2,9.93,9.93,0,0,1,.46-1,2.53,2.53,0,0,1-1,.16A2.19,2.19,0,0,1,46.87,195.17Z"/><path class="cls-19" d="M47.35,196.17c.13-.25-.31-.48-.7-.61-.27.39-.66.91-.59,1.08s0,0,0,0,.29.05.66-.1A1.43,1.43,0,0,0,47.35,196.17Z"/><path class="cls-19" d="M50.5,192.88c0-.33-.46-.34-.89-.3-.12.53-.31,1.22-.18,1.38l0,0c.09,0,.3-.08.61-.41A1.87,1.87,0,0,0,50.5,192.88Z"/><path class="cls-19" d="M43,196.9c-.37.21-.88.51-.87.67s0,0,0,0,.26.15.65.17a1.45,1.45,0,0,0,.66-.09C43.69,197.53,43.35,197.16,43,196.9Z"/><path class="cls-19" d="M41.47,196.8a5.83,5.83,0,0,1,.38.46c.24-.17.62-.38.85-.51a2.57,2.57,0,0,1-.89-.41A2.1,2.1,0,0,1,41.47,196.8Z"/><path class="cls-19" d="M39.62,196.53a3.36,3.36,0,0,1,.32.56,6,6,0,0,1,.91-.33,3.44,3.44,0,0,1-.81-.61A2.65,2.65,0,0,1,39.62,196.53Z"/><path class="cls-19" d="M37.82,195.86a4.76,4.76,0,0,1,.25.6,8.24,8.24,0,0,1,.94-.11,3.23,3.23,0,0,1-.72-.75A1.41,1.41,0,0,1,37.82,195.86Z"/><path class="cls-19" d="M45.47,197.15c.17-.21-.22-.51-.58-.72-.33.31-.79.72-.75.89s0,0,0,0,.28.1.67,0A1.36,1.36,0,0,0,45.47,197.15Z"/><path class="cls-19" d="M34.85,194.31a1.47,1.47,0,0,0,.38.7,1.55,1.55,0,0,0,.74.56l-.14.11-.37-.27c-.14-.14-.27-.27-.4-.42l-.3-.44a1.93,1.93,0,0,0,0-.24,1.12,1.12,0,0,0,0-.13"/><circle class="cls-20" cx="51.78" cy="185.09" r="2.23"/><path class="cls-21" d="M52.25,183a2.21,2.21,0,0,1,1.14,1.91,2.23,2.23,0,0,1-2.24,2.23,2.6,2.6,0,0,1-.47-.09,2.18,2.18,0,0,0,1.1.33,2.21,2.21,0,0,0,.47-4.38Z"/><circle class="cls-20" cx="50.51" cy="203.2" r="2.23"/><path class="cls-21" d="M51,201.06a2.21,2.21,0,0,1,1.14,1.9,2.24,2.24,0,0,1-2.24,2.24,2.63,2.63,0,0,1-.47-.1,2.18,2.18,0,0,0,1.1.33,2.23,2.23,0,0,0,2.24-2.23A2.21,2.21,0,0,0,51,201.06Z"/><circle class="cls-20" cx="50.94" cy="220.68" r="2.23"/><path class="cls-21" d="M51.41,218.54a2.21,2.21,0,0,1-1.1,4.14,2,2,0,0,1-.48-.1,2.19,2.19,0,0,0,3.34-1.9A2.2,2.2,0,0,0,51.41,218.54Z"/><path class="cls-22" d="M75.14,165.36a.06.06,0,0,1-.06-.05l-.07-.15a.09.09,0,0,1,.17-.07l.07.15a.09.09,0,0,1,0,.12Z"/><path class="cls-23" d="M73.72,166a.1.1,0,0,1-.06-.05.1.1,0,0,1,0-.13l1.58-.69a.1.1,0,0,1,.13,0,.09.09,0,0,1,0,.12l-1.58.7Z"/><path class="cls-24" d="M71.49,167.5a.45.45,0,0,1-.21-.2.09.09,0,0,1,0-.12.1.1,0,0,1,.13,0,.24.24,0,0,0,.1.1.2.2,0,0,0,.15,0,.2.2,0,0,0,.09-.11.17.17,0,0,0,0-.14A.09.09,0,1,1,72,167a.39.39,0,0,1,0,.28.36.36,0,0,1-.19.21A.37.37,0,0,1,71.49,167.5Z"/><path class="cls-24" d="M72.46,167.17h0l-.29-.19a.09.09,0,1,1,.1-.15l.29.18a.11.11,0,0,1,0,.14A.09.09,0,0,1,72.46,167.17Z"/><path class="cls-24" d="M70.71,167.52s0,0,0,0l-.2-.22a.09.09,0,1,1,.13-.12l.21.22a.09.09,0,0,1,0,.13A.08.08,0,0,1,70.71,167.52Z"/><path class="cls-25" d="M69.27,168.18l1.41-.83.41-.38,0,0,2.59-1.14a.1.1,0,0,1,.12.05l.12.26a.09.09,0,0,1,0,.13l-2.55,1.12-.12.34a.08.08,0,0,1,0,0l-.23.1-1.08,1.3a.09.09,0,0,1-.15,0l-.49-.84A.1.1,0,0,1,69.27,168.18Z"/><path class="cls-26" d="M72.51,166.34l.83-.37.21.44-.83.36Z"/><path class="cls-22" d="M72,164.11a.08.08,0,0,1-.05-.05.09.09,0,0,1,0-.12l.15-.06a.09.09,0,0,1,.12.05.1.1,0,0,1,0,.12l-.14.06Z"/><path class="cls-23" d="M72.74,165.59a.08.08,0,0,1,0-.05l-.78-1.65a.11.11,0,0,1,0-.13.11.11,0,0,1,.13.05l.77,1.66a.08.08,0,0,1,0,.12Z"/><path class="cls-24" d="M73.5,168.31a.37.37,0,0,1-.21-.2.37.37,0,0,1,0-.29.31.31,0,0,1,.19-.2.09.09,0,0,1,.12,0,.1.1,0,0,1,0,.12.19.19,0,0,0-.1.1.26.26,0,0,0,0,.15.22.22,0,0,0,.11.1.17.17,0,0,0,.14,0,.1.1,0,0,1,.13.05.09.09,0,0,1,0,.12A.34.34,0,0,1,73.5,168.31Z"/><path class="cls-24" d="M73,167.38a.1.1,0,0,1-.06-.11.08.08,0,0,1,.1-.07l.34.06a.11.11,0,0,1,.08.11.1.1,0,0,1-.11.08l-.33-.07Z"/><path class="cls-24" d="M74.08,168.88a.09.09,0,0,1-.06-.08.09.09,0,0,1,.08-.1l.29,0a.09.09,0,0,1,.1.09.08.08,0,0,1-.07.1l-.3,0Z"/><path class="cls-25" d="M74.77,170.41l-.57-1.63-.07-.59a0,0,0,0,1,0,0l-1.27-2.69a.09.09,0,0,0-.12-.05l-.25.11a.09.09,0,0,0,0,.12l1.25,2.66-.11.34a.09.09,0,0,0,0,.07l.12.24,0,1.75a.1.1,0,0,0,.13.1l.87-.28A.1.1,0,0,0,74.77,170.41Z"/><g class="cls-27"><path class="cls-28" d="M74.77,170.41l-.53-1.53h.18a.1.1,0,0,0,.08-.1.11.11,0,0,0-.11-.09l-.2,0-.06-.51a0,0,0,0,1,0,0l-.78-1.67.57-.25a.09.09,0,0,0,0-.13l-.08-.17,1.5-.66a.09.09,0,0,0,0-.12.1.1,0,0,0-.13,0l-.08,0,0-.06a.09.09,0,0,0-.17.07l0,.07-1.33.58-.37.16h0l-.21.1-.28-.6h0l-.65-1.39.06,0a.1.1,0,0,0,0-.12.09.09,0,0,0-.12-.05l-.06,0,0-.09a.11.11,0,0,0-.13-.05.11.11,0,0,0,0,.13l.73,1.56-.16.08a.09.09,0,0,0,0,.12l.28.6-.2.09h0l-1.39.61,0,0-.35.33-.14-.15a.09.09,0,1,0-.13.12l.12.14-1.32.77a.1.1,0,0,0,0,.13l.49.84a.09.09,0,0,0,.15,0l1.08-1.3.23-.1a.08.08,0,0,0,0,0l.12-.34s.07.11.13.13a.37.37,0,0,0,.29,0,.36.36,0,0,0,.19-.21.31.31,0,0,0,0-.19l.23-.1.24.16h0a.08.08,0,0,0,.11,0,.1.1,0,0,0,0-.13l-.14-.09.52-.23.25.55-.16,0a.08.08,0,0,0-.1.07.1.1,0,0,0,.06.11h0l.28.06.11.23a.33.33,0,0,0-.11.15.37.37,0,0,0,0,.29.37.37,0,0,0,.21.2.28.28,0,0,0,.18,0l-.11.32a.09.09,0,0,0,0,.07l.12.24,0,1.75a.1.1,0,0,0,.13.1l.87-.28A.1.1,0,0,0,74.77,170.41Zm-3-3.19a.17.17,0,0,1-.09.11.17.17,0,0,1-.14,0l0,0,.27-.12S71.8,167.21,71.79,167.22Zm1.66.82a.26.26,0,0,1,0-.15l0,0,.13.28h0A.22.22,0,0,1,73.45,168Z"/></g><g class="cls-29"><polygon class="cls-10" points="68.2 205.9 69.92 214.41 100.66 214.41 100.66 215.79 69.22 215.61 68.2 205.9"/></g><g class="cls-29"><polygon class="cls-10" points="68.2 181.87 69.92 190.39 100.66 190.39 100.66 191.77 69.22 191.59 68.2 181.87"/></g><g class="cls-30"><path d="M122.26,144.75a85.57,85.57,0,0,0-3.94-8h0l-.06-.07c-.3-.55-.62-1.08-.94-1.61a38.22,38.22,0,0,1-2.67-6.58c-5.17,6.8-12.3,13-19.65,18.33A36.29,36.29,0,0,1,89.73,150a50.21,50.21,0,0,0,.55,5c1.41,8.21,5,15.84,7.53,23.79A88.77,88.77,0,0,1,92.72,244c-6.08,12.3-15.11,23.59-17.72,37a50,50,0,0,0,16.1-1.63c9.87-2.74,15.84-7.3,18.25-12.32h0s20.52-35.27,20.52-82v0c0-.48,0-.95,0-1.42A98.86,98.86,0,0,0,122.26,144.75Z"/></g><path class="cls-31" d="M105,248.31s-4.79,23.06,10.79,11.58c10.41-7.66,13.69-27.5,13.69-27.5Z"/><path class="cls-32" d="M128,232.29a24.77,24.77,0,0,1-21,13.83c2.56-8.2,11.35-41.7-.25-83,3-1.4-5.22-5.1-5.22-5.1s14,39.12.85,91.32c23.35,1.67,27.1-16.84,27.16-17.08Z"/><path class="cls-4" d="M101.51,158.05c16.78,33.21,3.53,89.51,3.53,89.51a26.2,26.2,0,0,0,24.48-15.17s11.31-44.36-1.42-82c-2.55-7.54-11.67-11.33-18.46-7.18C101.82,148,101.51,158.05,101.51,158.05Z"/><path class="cls-22" d="M116.82,149.35a.17.17,0,0,1-.12,0l-.23-.12a.15.15,0,0,1-.06-.2.16.16,0,0,1,.2-.06l.23.12a.14.14,0,0,1,.07.2A.13.13,0,0,1,116.82,149.35Z"/><path class="cls-23" d="M115.64,151.52a.17.17,0,0,1-.12,0,.13.13,0,0,1-.07-.19l1.33-2.42a.15.15,0,0,1,.2-.06.14.14,0,0,1,.07.2l-1.33,2.42A.14.14,0,0,1,115.64,151.52Z"/><path class="cls-24" d="M114.3,155.59a.7.7,0,0,1-.47-.05.15.15,0,1,1,.14-.26.34.34,0,0,0,.24,0,.31.31,0,0,0,.18-.14.28.28,0,0,0,0-.22.27.27,0,0,0-.15-.18.14.14,0,0,1-.06-.19.14.14,0,0,1,.2-.06.59.59,0,0,1,.31.35.56.56,0,0,1,0,.44A.64.64,0,0,1,114.3,155.59Z"/><path class="cls-24" d="M115.2,154.23h0l-.55,0a.16.16,0,0,1-.17-.13.15.15,0,0,1,.13-.16l.55,0a.15.15,0,0,1,.17.13A.14.14,0,0,1,115.2,154.23Z"/><path class="cls-24" d="M113.33,156.37h-.07l-.48-.08a.16.16,0,0,1-.13-.17.14.14,0,0,1,.18-.11l.47.08a.15.15,0,0,1,.13.17A.14.14,0,0,1,113.33,156.37Z"/><path class="cls-25" d="M112.15,158.61l1-2.42.15-.89s0,0,0,0l2.16-3.95a.16.16,0,0,1,.21-.06l.41.21a.15.15,0,0,1,.06.2L114,155.55l.18.54a.14.14,0,0,1,0,.11l-.19.35-.1,2.7a.15.15,0,0,1-.21.12l-1.43-.57A.15.15,0,0,1,112.15,158.61Z"/><path class="cls-26" d="M114.46,153.13l.69-1.27.68.35-.69,1.27Z"/><path class="cls-22" d="M111.7,150.77a.14.14,0,0,1-.11,0,.14.14,0,0,1-.07-.2l.12-.21a.16.16,0,0,1,.21-.06.15.15,0,0,1,.06.2l-.12.21A.13.13,0,0,1,111.7,150.77Z"/><path class="cls-23" d="M114,152a.17.17,0,0,1-.12,0l-2.59-1.33a.15.15,0,0,1-.06-.2.15.15,0,0,1,.2,0L114,151.7a.16.16,0,0,1,.07.2A.2.2,0,0,1,114,152Z"/><path class="cls-24" d="M117.62,154.66a.64.64,0,0,1-.77-.39.55.55,0,0,1,0-.45.15.15,0,0,1,.2,0,.13.13,0,0,1,.07.19.3.3,0,0,0,0,.23.35.35,0,0,0,.15.17.29.29,0,0,0,.24,0,.28.28,0,0,0,.17-.13.15.15,0,0,1,.21-.06.14.14,0,0,1,.07.2A.58.58,0,0,1,117.62,154.66Z"/><path class="cls-24" d="M116.05,154a.18.18,0,0,1-.18-.08.13.13,0,0,1,0-.19l.49-.25a.16.16,0,0,1,.2.07.13.13,0,0,1-.06.19l-.48.24Z"/><path class="cls-24" d="M118.91,154.82a.2.2,0,0,1-.16,0,.15.15,0,0,1,0-.21l.34-.31a.17.17,0,0,1,.22,0,.13.13,0,0,1,0,.2l-.34.32Z"/><path class="cls-25" d="M121.26,156.08l-2.3-1.51-.66-.67,0,0L114,151.7a.16.16,0,0,0-.21.06l-.21.38a.15.15,0,0,0,.07.2l4.16,2.14.18.54a.14.14,0,0,0,.08.09l.37.19,1.74,2.19a.15.15,0,0,0,.25,0l.83-1.2A.14.14,0,0,0,121.26,156.08Z"/><g class="cls-27"><path class="cls-28" d="M121.26,156.08l-2.16-1.42.21-.19a.13.13,0,0,0,0-.2.17.17,0,0,0-.22,0l-.24.21-.56-.57,0,0-2.61-1.35.48-.87a.15.15,0,0,0-.06-.2l-.28-.14,1.26-2.29a.14.14,0,0,0-.07-.2.15.15,0,0,0-.2.06l-.07.12-.1,0a.16.16,0,0,0-.2.06.15.15,0,0,0,.06.2l.1.05-1.12,2-.3.55h0l-.18.32-.93-.48h0l-2.18-1.12,0-.09a.15.15,0,0,0-.06-.2.16.16,0,0,0-.21.06l0,.09-.14-.07a.15.15,0,0,0-.2,0,.15.15,0,0,0,.06.2l2.45,1.26-.14.26a.16.16,0,0,0,.07.2l.93.48-.16.31h0l-1.17,2.13a.06.06,0,0,0,0,0l-.13.76-.32-.06a.15.15,0,0,0-.18.12.16.16,0,0,0,.13.17l.29.05-.92,2.27a.15.15,0,0,0,.09.19l1.43.57a.15.15,0,0,0,.21-.12l.1-2.7.19-.35a.14.14,0,0,0,0-.11l-.18-.54a.63.63,0,0,0,.3,0,.64.64,0,0,0,.36-.28.56.56,0,0,0,0-.44.7.7,0,0,0-.19-.26l.19-.34.47,0h0a.14.14,0,0,0,.1-.15.15.15,0,0,0-.17-.13l-.26,0,.43-.8.86.44-.24.12a.13.13,0,0,0,0,.19.18.18,0,0,0,.18.08l0,0,.41-.2.37.19a.51.51,0,0,0,0,.3.64.64,0,0,0,.77.39.53.53,0,0,0,.24-.14l.17.5a.14.14,0,0,0,.08.09l.37.19,1.74,2.19a.15.15,0,0,0,.25,0l.83-1.2A.14.14,0,0,0,121.26,156.08ZM114.4,155a.28.28,0,0,1,0,.22.31.31,0,0,1-.18.14h-.07l.22-.4S114.4,154.92,114.4,155Zm2.89-.59a.35.35,0,0,1-.15-.17s0-.05,0-.07l.43.22s0,0,0,0A.29.29,0,0,1,117.29,154.36Z"/></g><path class="cls-11" d="M127.3,160.91A51.92,51.92,0,0,1,109,168.83s1.26,3,1.93,5.33c0,0,12.28-2,17.82-7.75Z"/><path class="cls-12" d="M126.88,162l1.13,4.09s-3.68,5-16.63,7.18a40,40,0,0,0-1.45-3.82A46.37,46.37,0,0,0,126.88,162Z"/><g class="cls-5"><path class="cls-6" d="M103.62,157.55s17.06,39,3.06,89.27c0,0,11.33-18.41,8.84-51.37C113,162.75,103.62,157.55,103.62,157.55Z"/></g><path class="cls-31" d="M72.78,30.68a74.59,74.59,0,0,0-15.11,1.65C56.13,32.87,32.54,41.78,32.9,75a27.75,27.75,0,0,0,2.45,11.47l0,.05a26.73,26.73,0,0,1,2.22,7.63,28.24,28.24,0,0,1,.26,5.6c-.59,10.16,2.45,20.35,9.6,27.44,7.32,7.28,15.94,11.5,24.23,11.31,17.1-.4,42.36-27.14,41.61-59.4S101.45,30,72.78,30.68Z"/><path d="M50.45,120.5a23.22,23.22,0,0,0,4.73.66,28.67,28.67,0,0,0,4.73-.16,49.66,49.66,0,0,0,9.32-2.09A22.76,22.76,0,0,1,64.82,121,24.45,24.45,0,0,1,60,122.07C56.78,122.33,53.33,122.1,50.45,120.5Z"/><ellipse cx="67.56" cy="92.62" rx="2.5" ry="3.98" transform="translate(-2.12 1.58) rotate(-1.32)"/><path d="M64.57,86.54a4.79,4.79,0,0,1,4-1.12,4,4,0,0,1,2,1.07,3.74,3.74,0,0,1,1,1.88,6,6,0,0,0-3.16-1.89A11.09,11.09,0,0,0,64.57,86.54Z"/><ellipse cx="48.02" cy="93.07" rx="2.5" ry="3.98" transform="translate(-2.13 1.13) rotate(-1.32)"/><path d="M44.29,88.17a4.8,4.8,0,0,1,3.44-2.37,3.93,3.93,0,0,1,2.19.37,3.66,3.66,0,0,1,1.54,1.45,5.93,5.93,0,0,0-3.59-.75A11,11,0,0,0,44.29,88.17Z"/><path d="M55.32,96.15c.08,3.81-1.71,7.41-3.27,10.69-.74,1.61-1.56,3.47-.95,4.93.77,1.4,2.87,1.85,4.63,2.22-1.79,0-4,.05-5.36-1.83-1-2.08.07-4.07.7-5.76.85-1.72,1.73-3.31,2.46-5A24.92,24.92,0,0,0,55.32,96.15Z"/><g class="cls-33"><path class="cls-8" d="M105.25,44.85c-1.88,16.81-5.43,38.66-11.85,50h0c-1.91,4.66-5.16,9-6.49,13.85s-.7,9.91-.83,14.89a49.79,49.79,0,0,1-1.42,10.38c14.36-9,28.65-29.58,28.65-53.56C113.31,65,110.87,53.12,105.25,44.85Z"/></g><path class="cls-31" d="M100.63,86s10.46-14.69,16.73-.15-10.66,22.62-16.29,14.73"/><g class="cls-34"><path d="M113.47,86.77a11.76,11.76,0,0,0-2.59-1.14,3.87,3.87,0,0,0-2.51,0c-1.61.47-2.65,2.17-3.69,3.81a7.85,7.85,0,0,1,.95-2.82,4.81,4.81,0,0,1,2.41-2A5.19,5.19,0,0,1,113.47,86.77Z"/></g><g class="cls-5"><path d="M108,87.11a6.09,6.09,0,0,1,3,5.73,5.74,5.74,0,0,1-1.58,3,16,16,0,0,1-1.28,1.06l-1.47.73c1.54-1.49,3-3.06,3.27-5a5.25,5.25,0,0,0-.39-2.85A12.32,12.32,0,0,0,108,87.11Z"/></g><path class="cls-4" d="M155.66,45.3s-6.39-14.22-46.55-17.72C95,26,46.28,19,41.28,20.27c-42.55,10-44,41.45-39.61,48.8.87,3.51,23.71,24.34,57.7,18.54,8.11-.44,36.05-12.35,36.05-12.35l21.88-7.43,21.2-11.21Z"/><path class="cls-10" d="M116.67,35.17c3.77,4.4,3.79,10.83,3.79,10.83s-1.13,9.49-17.69,17.19C64.85,80.84,34.18,67.3,33.43,59.1a25.36,25.36,0,0,1,1.09-9.41s15.76,19.22,59,5.39C114.44,48.4,115,33.46,116.67,35.17Z"/><path class="cls-35" d="M116.67,35.17s-5.56-17.46-7.3-24.47C106.94.93,75.7-3.92,66.72,3.86c-11,9.58-29.37,16.06-32.49,19.6s.29,26.23.29,26.23.54,8.33,15.1,11.43c6.22,1.32,26.41,4.5,54.6-9.3C119.51,44.34,116.67,35.17,116.67,35.17Z"/><path class="cls-4" d="M111.73,32.76c-7.51,19.06-37.34,10.89-40.13,4.82-1.67-3.64,2.46-6.76,2.46-6.76S87.11,47.7,111.73,32.76Z"/><path class="cls-4" d="M105.8,13s-28,4.76-43,13.64c-8.5-4.18-25.66-3.23-25.66-3.23s21.64,4.8,27,6.88C71.62,24.28,105.8,13,105.8,13Z"/><path class="cls-10" d="M155.66,45.3c-.27-1.19-12.52-.28-30.66,8.23C93.46,68.33,89.67,77,59.37,87.61,76,87.66,150.06,61.29,155.66,45.3Z"/><path class="cls-22" d="M48.82,44.16a.17.17,0,0,1-.14-.07l-.26-.25a.2.2,0,0,1,0-.29.22.22,0,0,1,.3,0l.25.26a.21.21,0,0,1,0,.29A.2.2,0,0,1,48.82,44.16Z"/><path class="cls-23" d="M46.32,46.5a.26.26,0,0,1-.15-.07.2.2,0,0,1,0-.29L49,43.53a.22.22,0,0,1,.3,0,.19.19,0,0,1,0,.28l-2.8,2.61A.24.24,0,0,1,46.32,46.5Z"/><path class="cls-24" d="M42.78,51.27a.9.9,0,0,1-.59-.27.2.2,0,1,1,.29-.27.43.43,0,0,0,.3.13.41.41,0,0,0,.3-.1.4.4,0,0,0,.12-.29.41.41,0,0,0-.13-.29.21.21,0,0,1,0-.29.22.22,0,0,1,.3,0,.87.87,0,0,1,.25.59.79.79,0,0,1-.84.78Z"/><path class="cls-24" d="M44.55,49.88h0l-.74-.18a.21.21,0,0,1-.16-.25.2.2,0,0,1,.24-.15l.74.18a.22.22,0,0,1,.17.25A.21.21,0,0,1,44.55,49.88Z"/><path class="cls-24" d="M41.16,51.88a.19.19,0,0,1-.1,0l-.59-.32a.19.19,0,0,1-.09-.27.2.2,0,0,1,.28-.08l.59.32a.19.19,0,0,1,.09.27A.2.2,0,0,1,41.16,51.88Z"/><path class="cls-25" d="M38.64,54.31,41,51.55l.58-1.1a.21.21,0,0,1,0-.06l4.57-4.25a.21.21,0,0,1,.29,0l.45.46a.21.21,0,0,1,0,.29L42.4,51.1v.78a.18.18,0,0,1-.06.14l-.41.38-1.3,3.51a.2.2,0,0,1-.33.07L38.67,54.6A.2.2,0,0,1,38.64,54.31Z"/><path class="cls-26" d="M44.06,48.1l1.47-1.37.74.76L44.8,48.86Z"/><path class="cls-22" d="M41.46,43.8a.21.21,0,0,1-.14-.07.19.19,0,0,1,0-.29l.25-.23a.21.21,0,0,1,.29,0,.19.19,0,0,1,0,.29l-.25.24A.25.25,0,0,1,41.46,43.8Z"/><path class="cls-23" d="M44,46.38a.18.18,0,0,1-.15-.07L41,43.43a.2.2,0,1,1,.29-.28L44.14,46a.21.21,0,0,1,0,.29A.21.21,0,0,1,44,46.38Z"/><path class="cls-24" d="M47.56,51.51a1,1,0,0,1-.6-.27.84.84,0,0,1-.24-.59.76.76,0,0,1,.24-.57.21.21,0,0,1,.3,0,.19.19,0,0,1,0,.28.41.41,0,0,0-.13.29.46.46,0,0,0,.13.29.47.47,0,0,0,.29.14.44.44,0,0,0,.3-.11.22.22,0,0,1,.3,0,.21.21,0,0,1,0,.29A.84.84,0,0,1,47.56,51.51Z"/><path class="cls-24" d="M45.78,49.94a.23.23,0,0,1-.21-.18.2.2,0,0,1,.16-.23l.74-.11a.22.22,0,0,1,.25.18.2.2,0,0,1-.16.23l-.74.11Z"/><path class="cls-24" d="M49.19,52.27a.22.22,0,0,1-.19-.12.2.2,0,0,1,.09-.27l.59-.26a.22.22,0,0,1,.28.11.19.19,0,0,1-.09.27l-.59.26A.14.14,0,0,1,49.19,52.27Z"/><path class="cls-25" d="M51.73,55l-2.37-3-.58-1.17,0,0L44.14,46a.23.23,0,0,0-.3,0l-.44.42a.2.2,0,0,0,0,.29l4.54,4.64v.78a.2.2,0,0,0,.06.15l.41.42,1.33,3.64a.22.22,0,0,0,.33.1l1.63-1.22A.2.2,0,0,0,51.73,55Z"/><g class="cls-27"><path class="cls-28" d="M51.73,55l-2.22-2.8.36-.16a.19.19,0,0,0,.09-.27.22.22,0,0,0-.28-.11l-.4.18-.5-1,0,0L45.9,47.84l1-.94a.21.21,0,0,0,0-.29l-.3-.3,2.66-2.48a.19.19,0,0,0,0-.28.21.21,0,0,0-.3,0l-.15.14-.1-.11a.22.22,0,0,0-.3,0,.19.19,0,0,0,0,.28l.11.11-2.36,2.2-.64.59h0l-.37.35-1-1h0l-2.37-2.43.1-.1a.19.19,0,0,0,0-.29.21.21,0,0,0-.29,0l-.11.1-.15-.16a.2.2,0,1,0-.29.28l2.67,2.73-.29.28a.2.2,0,0,0,0,.29l1,1-.36.33h0L41.6,50.39a.21.21,0,0,0,0,.06l-.5.95-.4-.22a.2.2,0,0,0-.28.07.21.21,0,0,0,.09.28l.36.2-2.19,2.58a.2.2,0,0,0,0,.29L40.3,56a.2.2,0,0,0,.33-.07l1.3-3.51.41-.38a.18.18,0,0,0,.06-.14V51.1a.93.93,0,0,0,.38.17.79.79,0,0,0,.84-.78.9.9,0,0,0-.13-.41l.39-.36.63.15h0a.21.21,0,0,0,.21-.16.22.22,0,0,0-.17-.25l-.35-.08.92-.86.93.95-.36.05a.2.2,0,0,0-.16.23.23.23,0,0,0,.21.18h0l.63-.1.39.41a.78.78,0,0,0-.12.4.84.84,0,0,0,.24.59,1,1,0,0,0,.6.27.85.85,0,0,0,.38-.09v.73a.2.2,0,0,0,.06.15l.41.42,1.33,3.64a.22.22,0,0,0,.33.1l1.63-1.22A.2.2,0,0,0,51.73,55ZM43.2,50.47a.4.4,0,0,1-.12.29.41.41,0,0,1-.3.1s-.05,0-.09,0l.47-.43S43.2,50.44,43.2,50.47Zm4.06.49a.41.41,0,0,1-.13-.29l0-.09.47.49s0,0-.09,0A.47.47,0,0,1,47.26,51Z"/></g></g></g></g></svg>