<svg xmlns="http://www.w3.org/2000/svg" viewBox="0 0 144.1 270.93"><defs><style>.cls-1{fill:#4d4d4d;}.cls-2{fill:#e6dab0;}.cls-3{fill:#363125;}.cls-4{opacity:0.25;}.cls-5{fill:#041015;}.cls-6{opacity:0.4;}.cls-7{fill:#c69c6d;}.cls-8{fill:#43402f;}.cls-9{fill:#1a1a1a;}.cls-10{fill:#fbb03b;}.cls-11{fill:#c19416;}.cls-12{fill:#ebba16;}.cls-13{fill:#ffeab6;}.cls-14{fill:#f9d367;}.cls-15{opacity:0.15;}.cls-16{opacity:0.1;}.cls-17{fill:#603813;}.cls-18{fill:#553c22;}.cls-19{fill:#745635;}.cls-20{opacity:0.17;}.cls-21{opacity:0.19;}.cls-22{fill:#8c6239;}.cls-23{fill:#272624;}</style></defs><title>Recurso 140</title><g id="Capa_2" data-name="Capa 2"><g id="personajes_individuales" data-name="personajes individuales"><ellipse class="cls-1" cx="72.05" cy="241.05" rx="72.05" ry="29.87"/><path class="cls-2" d="M132.77,161a98.81,98.81,0,0,0-7.63-38.76h0a83.18,83.18,0,0,0-3.94-8h0a.5.5,0,0,0-.06-.08c-.3-.55-.63-1.08-.94-1.61-2.25-4.21-7.36-16.68-5.06-40.26l0,0c0-.69.11-1.39.11-2.09a34.55,34.55,0,0,0-69.1,0C46.1,71,48,85.15,45.37,100c0,0,0,0,0,0a48.06,48.06,0,0,1-3.66,11.63,80.18,80.18,0,0,0-5.51,10.6h0A98.59,98.59,0,0,0,28.53,161c0,.46,0,.93,0,1.38,0,0,0,.05,0,.07,0,46.75,20.52,82,20.52,82h0c1.47,3.05,4.25,5.93,8.4,8.33,12.8,7.39,33.56,7.39,46.36,0,4.16-2.4,6.93-5.28,8.4-8.33h0s20.52-35.27,20.52-82c0,0,0,0,0,0C132.75,162,132.77,161.49,132.77,161Z"/><path class="cls-3" d="M125.14,122.25a83.18,83.18,0,0,0-3.94-8h0a.5.5,0,0,0-.06-.08c-.3-.55-.63-1.08-.94-1.61a38.22,38.22,0,0,1-2.67-6.58c-5.17,6.81-12.3,13-19.65,18.33a36.77,36.77,0,0,1-55-14.85l-.14-.3c-.36.93-.72,1.76-1,2.42a80.18,80.18,0,0,0-5.51,10.6h0A98.59,98.59,0,0,0,28.53,161c0,.46,0,.93,0,1.38,0,0,0,.05,0,.07,0,46.75,20.52,82,20.52,82h0c2.4,5,8.33,9.52,18,12.27A50,50,0,0,0,94,256.8c9.87-2.74,15.84-7.3,18.25-12.32h0s20.52-35.27,20.52-82c0,0,0,0,0,0,0-.48,0-.94,0-1.42A98.81,98.81,0,0,0,125.14,122.25Z"/><g class="cls-4"><path class="cls-5" d="M117.85,106s-12.76,15-25.91,22C91.94,128,109.91,121.25,117.85,106Z"/></g><g class="cls-6"><g class="cls-6"><path class="cls-7" d="M117.58,106c-3.59-9.5-3.14-28.95-2.82-33.31l-.05,0c0-.7.08-1.4.07-2.1a34.55,34.55,0,1,0-69.09,1.6A93.57,93.57,0,0,1,46,100.28c3.73,5.81,13.14,17.87,28.5,18.25C95.55,119.06,101.62,97,117.58,106Z"/></g></g><path class="cls-8" d="M54.56,124s18.5,14.43,40.71,2L58.5,145.19Z"/><g class="cls-4"><polygon class="cls-5" points="58.51 145.19 82.47 154.86 82.47 139.39 104.9 148.72 99.77 122.95 102.24 145.8 81.2 137.15 81.07 152.41 58.51 145.19"/></g><g class="cls-4"><polygon class="cls-5" points="56.74 145.19 44.57 148.44 50.06 135.04 33.75 131.68 44.27 114.92 35.62 131.13 51.77 133.94 46.58 146.72 56.74 145.19"/></g><path class="cls-9" d="M33.12,201.48S47.49,220.59,128.5,200l-3.73,14.08s-55.77,18-87.5,2.75C37.27,216.83,34.22,206.5,33.12,201.48Z"/><path class="cls-9" d="M56.75,148.43c-.88,4.6-1.36,9.25-1.79,13.89s-.66,9.3-.76,14c-.3,9.32,0,18.65.36,28-.58-4.64-1-9.3-1.26-14s-.26-9.37-.18-14.06C53.49,166.91,54.26,157.48,56.75,148.43Z"/><path class="cls-10" d="M34.11,149.08a46.63,46.63,0,0,0,17.51,4s-.63,2.89-.85,5c0,0-11.18.25-17-4Z"/><path class="cls-3" d="M34.66,150l-.34,3.8s4.07,3.84,15.88,3.67c0,0,.31-2.32.66-3.62A41.75,41.75,0,0,1,34.66,150Z"/><path class="cls-10" d="M46.66,126.07a38.23,38.23,0,0,1-5.55-1.5l-2.59,5.06a13.74,13.74,0,0,0,5.82,1.3Z"/><path class="cls-3" d="M45.65,126.54a33.89,33.89,0,0,1-4-1.17l-2.13,3.89a12.58,12.58,0,0,0,4.24,1Z"/><g class="cls-4"><path class="cls-5" d="M87.57,166.58v0a1.8,1.8,0,0,0-.31-.74,4.91,4.91,0,0,1-.69-2.74,6.47,6.47,0,0,1,1.23-2.83l-2-2.24a2.59,2.59,0,0,1-1.88.41,3.17,3.17,0,0,1-2.09-.66,3.13,3.13,0,0,1-2.14.4,2.59,2.59,0,0,1-1.82-.65l-2.24,2a6.54,6.54,0,0,1,.88,3,4.87,4.87,0,0,1-1,2.63,1.73,1.73,0,0,0-.39.7v0a3.88,3.88,0,0,0,2.06,4.53c1.44.71,3.79,2,3.74,2.7,0-.73,2.54-1.69,4-2.21A3.89,3.89,0,0,0,87.57,166.58Z"/></g><path class="cls-11" d="M87.09,166.25v0a1.72,1.72,0,0,0-.31-.74,4.91,4.91,0,0,1-.69-2.74,6.47,6.47,0,0,1,1.23-2.83l-2-2.24a2.53,2.53,0,0,1-1.88.41,3.17,3.17,0,0,1-2.09-.66,3.06,3.06,0,0,1-2.14.4,2.53,2.53,0,0,1-1.81-.64l-2.24,2a6.58,6.58,0,0,1,.87,3,4.87,4.87,0,0,1-1,2.63,1.73,1.73,0,0,0-.39.7v0A3.87,3.87,0,0,0,76.68,170c1.44.71,3.79,2,3.74,2.7,0-.73,2.54-1.69,4-2.21A3.89,3.89,0,0,0,87.09,166.25Z"/><path class="cls-12" d="M80.52,171.07a16.87,16.87,0,0,0-3.37-2,2.83,2.83,0,0,1-1.52-3.29v0a.83.83,0,0,1,.16-.29,5.77,5.77,0,0,0,1.3-3.28,6.15,6.15,0,0,0-.62-2.77l1-.89a3.94,3.94,0,0,0,1.42.35h.3a5.32,5.32,0,0,0,2.09-.23,5.39,5.39,0,0,0,2,.49l.3,0a4,4,0,0,0,1.45-.17l.9,1a6.42,6.42,0,0,0-1,2.68,5.88,5.88,0,0,0,.89,3.41.71.71,0,0,1,.13.31v0a2.81,2.81,0,0,1-1.91,3.08A17.08,17.08,0,0,0,80.52,171.07Z"/><path class="cls-13" d="M83.84,164.45a2.91,2.91,0,1,1-2.72-3.08A2.9,2.9,0,0,1,83.84,164.45Z"/><path class="cls-14" d="M80.84,167.17l.87,3.26c.3-.13.62-.27,1-.41l-.81-3A2.82,2.82,0,0,1,80.84,167.17Z"/><path class="cls-14" d="M80.39,161.42l-.68-2.55a4.25,4.25,0,0,1-.5,0h-.3l-.3,0,.8,3A2.62,2.62,0,0,1,80.39,161.42Z"/><g class="cls-15"><path d="M125.14,122.25a83.18,83.18,0,0,0-3.94-8h0a.5.5,0,0,0-.06-.08c-.3-.55-.63-1.08-.94-1.61a38.22,38.22,0,0,1-2.67-6.58c-5.17,6.8-12.3,13-19.65,18.33a35.41,35.41,0,0,1-5.27,3.12,47.44,47.44,0,0,0,.55,5c1.41,8.21,5,15.84,7.53,23.79a88.77,88.77,0,0,1-5.09,65.19c-6.09,12.31-15.11,23.59-17.72,37A50.26,50.26,0,0,0,94,256.8c9.87-2.74,15.84-7.3,18.25-12.32h0s20.52-35.27,20.52-82c0,0,0,0,0,0,0-.48,0-.94,0-1.42A98.81,98.81,0,0,0,125.14,122.25Z"/></g><path class="cls-2" d="M77.47,6.75C56.8,6.75,45.6,11.28,37.27,31c-4.19,9.89-2.83,20.94,1.52,30.76a27.16,27.16,0,0,1,2,7.68A27.91,27.91,0,0,1,41,75c-.83,10.15,2,20.41,9,27.66,7.16,7.45,15.67,11.86,24,11.86,17.11,0,43-26.15,43-58.42S106.15,6.75,77.47,6.75Z"/><g class="cls-16"><path class="cls-17" d="M109.3,20c-1.88,16.82-5.43,38.67-11.85,50h0c-1.91,4.65-5.16,8.94-6.49,13.85s-.71,9.9-.83,14.89a49.79,49.79,0,0,1-1.42,10.38c14.36-9,28.65-29.59,28.65-53.57C117.36,40.2,114.92,28.31,109.3,20Z"/></g><path d="M53.07,96a23.35,23.35,0,0,0,4.72.77,28.86,28.86,0,0,0,4.74,0,49.77,49.77,0,0,0,9.36-1.88,21.69,21.69,0,0,1-4.46,2,24.44,24.44,0,0,1-4.81,1C59.36,98,55.92,97.7,53.07,96Z"/><ellipse cx="70.82" cy="68.55" rx="2.5" ry="3.98"/><path d="M68,62.4a4.81,4.81,0,0,1,4-1A4,4,0,0,1,74,62.49a3.76,3.76,0,0,1,.94,1.9,6,6,0,0,0-3.11-2A11.21,11.21,0,0,0,68,62.4Z"/><ellipse cx="51.28" cy="68.55" rx="2.5" ry="3.98"/><path d="M47.67,63.56a4.81,4.81,0,0,1,3.49-2.29,4,4,0,0,1,2.18.42,3.8,3.8,0,0,1,1.51,1.49,6,6,0,0,0-3.58-.83A11.25,11.25,0,0,0,47.67,63.56Z"/><path d="M56.67,72.52a25.72,25.72,0,0,1-1.45,7.29c-.83,2.32-2,4.75-4.28,6.23l-.06-.82c2,1,3.89,2,5.79,3.08-2.09-.66-4.14-1.41-6.17-2.23l-.76-.32.71-.5c1.85-1.32,2.95-3.59,3.88-5.78A70.85,70.85,0,0,0,56.67,72.52Z"/><g class="cls-6"><path class="cls-7" d="M68.82,102.14c-4.66,2.53-11,.73-11,.73Z"/></g><path class="cls-18" d="M88.37,41.25S84.74,51.54,97,53.76c0,0,4.44,10.49-1.61,20.38,0,0,6.46-4,8.88-16.44,2.25-11.58,17.67-.25,6.32,14.43a24.53,24.53,0,0,0-5.37,12.72c-.32,3.76.26,7.81,3.28,10.49,0,0-1.21-5.16,3.23-7.73,0,0,4.24,3.48,10.09-1.77,0,0-8.6-.4-5-7.87C116.86,78,136,9,86,.9S25.62,41.25,27.23,57.19C27.23,57.19,52.66,60.62,88.37,41.25Z"/><path class="cls-19" d="M30.8,54.28c10.73-2.4,21.4-4.9,31.62-8.69A77.48,77.48,0,0,0,77.15,38.8c4.57-2.78,9-6.24,11.42-11.25C87,33,82.58,37.06,78.05,40.19a69.35,69.35,0,0,1-14.9,7.43,130.84,130.84,0,0,1-16,4.44A116,116,0,0,1,30.8,54.28Z"/><path class="cls-19" d="M32.84,47.67a46.48,46.48,0,0,1,3.53-17.35A42.61,42.61,0,0,1,46.48,15.56c4.49-4,9.64-7.38,15.41-9.06,2.77-1.16,5.8-1.4,8.67-2.08,3-.34,5.92-.42,8.85-.53-2.9.6-5.82.88-8.65,1.57-2.78.88-5.7,1.29-8.3,2.6A41.91,41.91,0,0,0,48,17.13,43.91,43.91,0,0,0,37.88,31,59.77,59.77,0,0,0,32.84,47.67Z"/><path class="cls-19" d="M108.2,15.33a39.08,39.08,0,0,1,7.55,13.39,63.3,63.3,0,0,1,3.08,15.16,83,83,0,0,1-.36,15.45c-.31,2.56-.81,5.09-1.21,7.63l-1.86,7.48,1.34-7.57c.29-2.55.69-5.08.9-7.62A89.64,89.64,0,0,0,117.75,44,67.05,67.05,0,0,0,115,29,43.92,43.92,0,0,0,108.2,15.33Z"/><g class="cls-20"><path d="M113.38,57.59a11.77,11.77,0,0,0-2.55-1.2,4,4,0,0,0-2.52-.11c-1.62.44-2.69,2.11-3.77,3.72a7.84,7.84,0,0,1,1-2.79,4.82,4.82,0,0,1,2.45-2A5.18,5.18,0,0,1,113.38,57.59Z"/></g><g class="cls-4"><path d="M107.9,57.8a6.12,6.12,0,0,1,2.84,5.8,5.68,5.68,0,0,1-1.65,3,12.59,12.59,0,0,1-1.31,1l-1.48.7c1.58-1.46,3.1-3,3.38-4.9a5.13,5.13,0,0,0-.32-2.85A12.29,12.29,0,0,0,107.9,57.8Z"/></g><path class="cls-19" d="M31.67,51.14a187.94,187.94,0,0,0,20.28-9c6.46-3.47,12.61-7.56,17.15-13.55a27,27,0,0,1-6.79,9A47,47,0,0,1,53,44a66.34,66.34,0,0,1-10.38,4.45A61.36,61.36,0,0,1,31.67,51.14Z"/><g class="cls-21"><path class="cls-22" d="M112.1,46.4a10.37,10.37,0,0,1,6.1,6,25.66,25.66,0,0,1,1.61,8.66v.13C122,40.25,120.08,6.41,86,.9,47-5.39,32.11,22.61,28.21,42.83c13.93,1.29,28.05-1.13,41.45-5.23,7.4-2.26,14.75-5,22.47-5.57a5.55,5.55,0,0,1,2.66.27c1.82.8,2.38,3.1,2.39,5.08s-.25,4.11.73,5.83c1.26,2.19,4.11,2.89,6.64,2.9S109.68,45.65,112.1,46.4Z"/></g><path class="cls-2" d="M106.39,226s-4.56,22,10.27,11c9.91-7.29,13-26.17,13-26.17Z"/><path class="cls-23" d="M128.27,210.8a23.57,23.57,0,0,1-20,13.16c2.43-7.8,10.8-39.68-.25-79,2.82-1.33-5-4.85-5-4.85s13.31,37.23.81,86.91c22.23,1.6,25.8-16,25.85-16.25Z"/><path class="cls-3" d="M103,140.14c16,31.61,3.36,85.19,3.36,85.19a24.94,24.94,0,0,0,23.3-14.44s10.76-42.22-1.35-78c-2.43-7.17-11.11-10.77-17.57-6.83C103.32,130.59,103,140.14,103,140.14Z"/><path class="cls-10" d="M126.61,139.06a49.26,49.26,0,0,1-17.45,7.54s1.21,2.9,1.85,5.07c0,0,11.68-1.87,16.95-7.37Z"/><path class="cls-3" d="M126.21,140.08l1.08,3.89s-3.51,4.76-15.82,6.84a38.24,38.24,0,0,0-1.39-3.64A44.14,44.14,0,0,0,126.21,140.08Z"/><g class="cls-4"><path class="cls-5" d="M109.67,137.89s7.52,51.49.93,86.42c0,0,6.37-18,5.76-49.44S109.67,137.89,109.67,137.89Z"/></g></g></g></svg>