<svg xmlns="http://www.w3.org/2000/svg" viewBox="0 0 144.1 279.98"><defs><style>.cls-1{fill:#4d4d4d;}.cls-2{fill:#e6dab0;}.cls-3{fill:#363125;}.cls-4{opacity:0.25;}.cls-5{fill:#041015;}.cls-6{opacity:0.4;}.cls-7{fill:#c69c6d;}.cls-8{fill:#43402f;}.cls-9{fill:#1a1a1a;}.cls-10{fill:#fbb03b;}.cls-11{opacity:0.3;}.cls-12{opacity:0.15;}.cls-13{fill:#272624;}.cls-14{opacity:0.1;}.cls-15{fill:#603813;}</style></defs><title>Recurso 138</title><g id="Capa_2" data-name="Capa 2"><g id="personajes_individuales" data-name="personajes individuales"><ellipse class="cls-1" cx="72.05" cy="250.11" rx="72.05" ry="29.87"/><path class="cls-2" d="M133.32,166.85a98.78,98.78,0,0,0-7.63-38.76h0a84.54,84.54,0,0,0-3.94-8h0l0-.07c-.31-.55-.63-1.08-1-1.61-2.25-4.21-7.36-16.68-5.06-40.27a.06.06,0,0,1,0,0c0-.7.12-1.39.12-2.09a34.56,34.56,0,1,0-69.11,0c0,.73,1.86,14.94-.73,29.78,0,0,0,0,0,0a48.61,48.61,0,0,1-3.65,11.63,78.44,78.44,0,0,0-5.52,10.6h0a98.59,98.59,0,0,0-7.65,38.8c0,.46,0,.93,0,1.38,0,0,0,.05,0,.07,0,46.75,20.52,82,20.52,82h0c1.46,3.05,4.24,5.93,8.39,8.33,12.8,7.39,33.56,7.39,46.36,0,4.16-2.4,6.94-5.28,8.4-8.33h0s20.52-35.27,20.52-82c0,0,0,0,0,0C133.3,167.79,133.32,167.33,133.32,166.85Z"/><path class="cls-3" d="M125.69,128.09a84.54,84.54,0,0,0-3.94-8h0l0-.07c-.31-.55-.63-1.08-1-1.61a38.22,38.22,0,0,1-2.67-6.58c-5.17,6.8-12.3,13-19.65,18.33a36.77,36.77,0,0,1-55-14.85c-.05-.1-.09-.2-.14-.31-.36.94-.72,1.77-1,2.43a78.44,78.44,0,0,0-5.52,10.6h0a98.59,98.59,0,0,0-7.65,38.8c0,.46,0,.93,0,1.38,0,0,0,.05,0,.07,0,46.75,20.52,82,20.52,82h0c2.39,5,8.32,9.52,18,12.27a50.08,50.08,0,0,0,26.91.05c9.87-2.74,15.84-7.3,18.25-12.32h0s20.52-35.27,20.52-82c0,0,0,0,0,0,0-.48,0-.94,0-1.42A98.78,98.78,0,0,0,125.69,128.09Z"/><g class="cls-4"><path class="cls-5" d="M118.4,111.85s-12.76,15-25.91,22C92.49,133.84,110.47,127.09,118.4,111.85Z"/></g><g class="cls-6"><g class="cls-6"><path class="cls-7" d="M118.13,111.86c-3.59-9.5-3.14-28.95-2.82-33.32a0,0,0,0,1,0,0c0-.7.08-1.39.06-2.09A34.55,34.55,0,1,0,46.24,78a93.29,93.29,0,0,1,.33,28.1c3.73,5.8,13.14,17.87,28.5,18.25C96.1,124.9,102.17,102.81,118.13,111.86Z"/></g></g><path class="cls-8" d="M55.11,129.88s18.5,14.43,40.71,2L59.06,151Z"/><g class="cls-4"><polygon class="cls-5" points="59.06 151.03 83.02 160.7 83.02 145.23 105.45 154.56 100.32 128.79 102.8 151.64 81.75 142.99 81.62 158.24 59.06 151.03"/></g><g class="cls-4"><polygon class="cls-5" points="57.3 151.03 45.12 154.27 50.61 140.88 34.3 137.52 44.83 120.76 36.17 136.96 52.32 139.77 47.13 152.56 57.3 151.03"/></g><path class="cls-9" d="M33.67,207.32s14.37,19.1,95.38-1.48l-3.73,14.08s-55.77,18-87.5,2.75C37.82,222.67,34.77,212.34,33.67,207.32Z"/><path class="cls-10" d="M47.22,131.91a38.16,38.16,0,0,1-5.56-1.5l-2.59,5.06a13.9,13.9,0,0,0,5.83,1.3Z"/><path class="cls-3" d="M46.21,132.38a33.5,33.5,0,0,1-4-1.17l-2.13,3.89a12.58,12.58,0,0,0,4.24,1Z"/><path class="cls-9" d="M118.13,111.86c-2.7,9.75-17.49,18.55-17.49,18.55l4.81,24.14L83,145.23V160.7L68.93,155,64,160.79a6.41,6.41,0,0,1-10.92-2l-2.11-6-5.87,1.56,5.49-13.39L34.3,137.52l10.53-16.76L43.28,115a13.51,13.51,0,0,1-1,2.43c-.57.93-21.62,28-9.63,85.07,0,0,22.46,12.14,59.87,6.17,9.59-1.53,21.43-10.86,33.61-12.54a6.57,6.57,0,0,0,5.74-5.54c1.72-12.15,4.57-42.41-5.85-61.82Z"/><g class="cls-11"><path class="cls-3" d="M58.34,165.44a55.94,55.94,0,0,1-.15,10.36c-.25,1.7-.65,3.41-.79,5.14a31.92,31.92,0,0,0,.12,5.17,85.94,85.94,0,0,1-.12,20.71h-.21a57,57,0,0,1-.85-20.74,42.81,42.81,0,0,0,.37-5.18c0-1.73-.25-3.47-.31-5.22a31.3,31.3,0,0,1,1.73-10.28Z"/></g><g class="cls-11"><path class="cls-3" d="M67.91,187.66c-.22,6.46-.71,12.75,0,19.16a26.38,26.38,0,0,1-1.42-9.58A37.75,37.75,0,0,1,67.91,187.66Z"/></g><g class="cls-11"><path class="cls-3" d="M77,186.12c-.23,6.46-.71,12.75,0,19.16a26.38,26.38,0,0,1-1.42-9.58A37.75,37.75,0,0,1,77,186.12Z"/></g><g class="cls-11"><path class="cls-3" d="M87.56,186.12c-.22,6.46-.7,12.75,0,19.16a26.38,26.38,0,0,1-1.42-9.58A37.75,37.75,0,0,1,87.56,186.12Z"/></g><g class="cls-11"><path class="cls-3" d="M99.56,183.28c-.23,6.46-.71,12.75,0,19.16a26.18,26.18,0,0,1-1.43-9.58A37.38,37.38,0,0,1,99.56,183.28Z"/></g><g class="cls-11"><path class="cls-3" d="M62.43,182c6.44.47,12.71,1.18,19.15.71A26.58,26.58,0,0,1,72,183.74,37.5,37.5,0,0,1,62.43,182Z"/></g><g class="cls-11"><path class="cls-3" d="M87.83,182.1c6.24-1.66,12.4-3,18.33-5.58a26.26,26.26,0,0,1-8.76,4.15A37.37,37.37,0,0,1,87.83,182.1Z"/></g><g class="cls-11"><path class="cls-3" d="M62.43,166.13c6.44.47,12.71,1.18,19.15.71A26.37,26.37,0,0,1,72,167.91,37.5,37.5,0,0,1,62.43,166.13Z"/></g><g class="cls-11"><path class="cls-3" d="M87.83,166.27c6.24-1.66,12.4-3,18.33-5.57a26.46,26.46,0,0,1-8.76,4.15A37.36,37.36,0,0,1,87.83,166.27Z"/></g><g class="cls-11"><path class="cls-3" d="M34.31,174.08c6,2.5,11.67,5.18,17.92,6.79a26.34,26.34,0,0,1-9.46-2.06A37.73,37.73,0,0,1,34.31,174.08Z"/></g><g class="cls-11"><path class="cls-3" d="M35.68,158.91c6,2.5,11.67,5.19,17.92,6.8a26.57,26.57,0,0,1-9.46-2.07A37.73,37.73,0,0,1,35.68,158.91Z"/></g><g class="cls-11"><path class="cls-3" d="M39.78,180.79c-.23,6.45-.71,12.75,0,19.16a26.21,26.21,0,0,1-1.43-9.58A37.32,37.32,0,0,1,39.78,180.79Z"/></g><g class="cls-11"><path class="cls-3" d="M49.37,185c-.22,6.46-.7,12.76,0,19.17A26.44,26.44,0,0,1,48,194.57,37.88,37.88,0,0,1,49.37,185Z"/></g><g class="cls-12"><path d="M125.73,128.09a84.54,84.54,0,0,0-3.94-8h0l-.06-.07c-.3-.55-.63-1.08-.94-1.61a38.22,38.22,0,0,1-2.67-6.58c-5.17,6.8-12.3,13-19.65,18.33a36.29,36.29,0,0,1-5.27,3.12,47.44,47.44,0,0,0,.55,5c1.41,8.21,5,15.84,7.53,23.79a88.77,88.77,0,0,1-5.09,65.19c-6.09,12.31-15.11,23.59-17.72,37a50,50,0,0,0,16.1-1.63c9.87-2.74,15.84-7.3,18.24-12.32h0s20.52-35.27,20.52-82c0,0,0,0,0,0,0-.48,0-.94,0-1.42A98.78,98.78,0,0,0,125.73,128.09Z"/></g><path class="cls-2" d="M109.4,227s-4.56,21.94,10.26,11c9.91-7.29,13-26.16,13-26.16Z"/><path class="cls-13" d="M131.27,211.71a23.58,23.58,0,0,1-20,13.16c2.43-7.8,10.79-39.67-.25-78.93,2.82-1.34-5-4.85-5-4.85s13.31,37.21.81,86.87c22.22,1.59,25.79-16,25.84-16.25Z"/><path class="cls-3" d="M106,141.09c16,31.59,3.36,85.14,3.36,85.14a24.92,24.92,0,0,0,23.29-14.42s10.76-42.21-1.35-78c-2.43-7.17-11.1-10.77-17.56-6.83C106.34,131.54,106,141.09,106,141.09Z"/><path class="cls-10" d="M129.61,140a49.47,49.47,0,0,1-17.44,7.54s1.21,2.89,1.85,5.06c0,0,11.67-1.86,16.94-7.36Z"/><path class="cls-3" d="M129.21,141l1.08,3.89s-3.5,4.76-15.82,6.83a38.17,38.17,0,0,0-1.38-3.64A44,44,0,0,0,129.21,141Z"/><g class="cls-4"><path class="cls-5" d="M111.92,138s8.42,51.32,2.45,86.35c0,0,6-18.09,4.89-49.51S111.92,138,111.92,138Z"/></g><path class="cls-2" d="M76.7,13.54c-20.68,0-31.87,4.54-40.21,24.22-4.19,9.89-2.82,21,1.52,30.76a27.16,27.16,0,0,1,2.05,7.68,28.72,28.72,0,0,1,.12,5.61c-.83,10.14,2,20.4,9,27.65,7.16,7.45,15.68,11.87,24,11.87,17.11,0,43-26.16,43-58.43S105.37,13.54,76.7,13.54Z"/><ellipse cx="69.55" cy="79.98" rx="2.5" ry="3.98"/><path d="M66.71,73.83a4.78,4.78,0,0,1,4-1,4,4,0,0,1,1.93,1.11,3.76,3.76,0,0,1,.94,1.9,6,6,0,0,0-3.11-2A11,11,0,0,0,66.71,73.83Z"/><ellipse cx="49.4" cy="77.75" rx="2.5" ry="3.98"/><path d="M45.8,72.76a4.79,4.79,0,0,1,3.48-2.29,4.07,4.07,0,0,1,2.18.42A3.83,3.83,0,0,1,53,72.38a6,6,0,0,0-3.58-.83A11.09,11.09,0,0,0,45.8,72.76Z"/><path d="M53.49,81.07a35.91,35.91,0,0,1,.1,6.64A24.78,24.78,0,0,1,53.16,91a27.72,27.72,0,0,0-.63,3.08c0,2,2.79,2,4.82,2.22a17.19,17.19,0,0,0,6.41-.88,13.71,13.71,0,0,1-6.43,1.71A14.69,14.69,0,0,1,54,96.84a2.92,2.92,0,0,1-2.51-2.67c0-1.45.59-2.22.75-3.35s.39-2.13.57-3.21C53.08,85.45,53.33,83.27,53.49,81.07Z"/><path d="M82.58,105.06a23.16,23.16,0,0,0-4.75-.5,29.72,29.72,0,0,0-4.72.32,50.42,50.42,0,0,0-9.25,2.41,22.77,22.77,0,0,1,4.34-2.22A25.18,25.18,0,0,1,73,103.82C76.19,103.45,79.65,103.56,82.58,105.06Z"/><g class="cls-14"><path class="cls-15" d="M107.71,27.33c-1.88,16.81-5.43,38.67-11.85,50h0C94,81.94,90.7,86.23,89.37,91.14s-.7,9.9-.83,14.88a50,50,0,0,1-1.42,10.39c14.36-9,28.65-29.59,28.65-53.57C115.77,47.5,113.33,35.6,107.71,27.33Z"/></g><path d="M53.22,88.17l0-2.71L51.8,80.94l2.73.21a9.07,9.07,0,0,1,5.78,3.95l.18.23C62.25,87.49,64.21,90,68,90.66a20.75,20.75,0,0,0,9.06-.15C91.34,86.71,89.85,67,89.79,66.14l-.18-2.28L33.33,58.69,34,62.24C34.15,63.27,38.85,88,53.22,88.17Zm.67-12.72-2.79-.21-.39,6.94C45,79.77,41.58,69.89,40.17,64.81l44.2,4c-.07,4.5-1.17,14.36-8.69,16.37a15.27,15.27,0,0,1-6.67.07c-1.82-.33-2.78-1.53-4.23-3.35C62.75,79.38,60,75.94,53.89,75.45Z"/><path class="cls-9" d="M87.06,66.36S89.12,91.7,68.49,88c-6.27-1.16-5.92-9.11-14.84-9.82l-.4,7.3C41,85.32,36.64,61.74,36.64,61.74Z"/><path d="M88.71,68.79s-16.92,3.91-32.9,1.27c-17.8-2.89-21-6.91-21-6.91l.75-5.06,52.53,3.12Z"/><path d="M90.78,68.24c6.94,6.65,4.69,32.19,10,29.28,2.75-3.41,4.5-5.89,4.5-5.89l.82-30.06L89.55,50.48,54.48,50l-14,3.73,3,11.42S61.61,74,90.78,68.24Z"/><path class="cls-3" d="M127.08,32.11a50.28,50.28,0,0,0-96.57,25.8c.13,1.34,21.89,15.42,61.57,7.55,9.1,10.94,6,31.73,8.83,31C146.1,84.38,127.66,33.34,127.08,32.11Z"/><path d="M32.26,54.12a81.63,81.63,0,0,0,11.85,4.33c2,.62,4.06,1.07,6.08,1.61l6.17,1.15a83.1,83.1,0,0,0,24.94.31,76.81,76.81,0,0,0,23.91-6.93c7.71-3.29,14.57-8.22,21.37-13.23-3.2,2.74-6.29,5.68-9.74,8.15-3.56,2.29-7,4.85-10.91,6.58a74.23,74.23,0,0,1-24.35,7.56,79.34,79.34,0,0,1-25.5-.81A77.24,77.24,0,0,1,32.26,54.12Z"/><path class="cls-9" d="M62.27,118.92c-.4-.25,8.09-8.8,22.95-1.14C85.22,117.78,74.09,126.47,62.27,118.92Z"/><path class="cls-9" d="M84.15,118.39a36.22,36.22,0,0,0,6.35-4.5,26.44,26.44,0,0,0,5-5.81,19.53,19.53,0,0,0,2.9-7,26.31,26.31,0,0,0,.41-7.74,20.33,20.33,0,0,1,.4,7.89,18.92,18.92,0,0,1-2.81,7.47A25.18,25.18,0,0,1,84.15,118.39Z"/></g></g></svg>