<svg xmlns="http://www.w3.org/2000/svg" viewBox="0 0 65.75 109.93"><defs><style>.cls-1{isolation:isolate;}.cls-2{fill:#c47f42;}.cls-3{fill:#eff8fa;}.cls-4{fill:#3c3c3c;}.cls-5{fill:#d3e3e6;}.cls-6{fill:#b3b3b3;}.cls-7{fill:#8c5c2e;}.cls-8{fill:#eee;}.cls-9{fill:#bd8142;}.cls-10{opacity:0.56;mix-blend-mode:multiply;}.cls-11{fill:#232d36;}.cls-12{fill:#030201;}.cls-13{fill:#2d2d2d;}.cls-14{fill:#935f32;}.cls-15{fill:#d6f568;}</style></defs><title>Recurso 136</title><g class="cls-1"><g id="Capa_2" data-name="Capa 2"><g id="personajes_individuales" data-name="personajes individuales"><path class="cls-2" d="M43.61,91.1c.23,2.77,2.58,5.58,2,8.3,1.32-1.31,3.21-1.3,4.79-2A22.83,22.83,0,0,0,62.9,83.7a20.3,20.3,0,0,0,1.31-10.24,7.76,7.76,0,0,0-2.47-4.7c-1.17-1-2.57-.76-2.65.83-.61,11.39-2,14.3-6.37,18.39C49.2,91.3,45.89,89.68,43.61,91.1Z"/><path class="cls-3" d="M62.2,81.35l-1.13-1.93c-1.55,1.77-1.59,6.11-4.64,5.31a5.42,5.42,0,0,1-.72-.11c2.07-3,2.94-6.82,3.38-15,.08-1.59,1.48-1.85,2.65-.83a7.76,7.76,0,0,1,2.47,4.7,14.75,14.75,0,0,1,.19,3.09C63,76.89,65.05,80.51,62.2,81.35Z"/><path class="cls-4" d="M64.4,76.55a24.14,24.14,0,0,1-1.5,7.15Q62.48,84.9,62,86c-4.51,4.63-10.4,7.77-15.75,4.38,1.91-.18,4.16-.2,6.5-2.41a20.7,20.7,0,0,0,3-3.36,5.42,5.42,0,0,0,.72.11c3,.8,3.09-3.54,4.64-5.31l1.13,1.93C65.05,80.51,63,76.89,64.4,76.55Z"/><path class="cls-5" d="M54,66.75a43.77,43.77,0,0,0-3.39-17.19h0A36.34,36.34,0,0,0,48.89,46h0l0,0c-.13-.24-.28-.48-.41-.71-1-1.87-3.27-7.4-2.25-17.86h0c0-.31,0-.62,0-.93a15.33,15.33,0,1,0-30.65,0,51.38,51.38,0,0,1-.33,13.21h0a21.46,21.46,0,0,1-1.63,5.16,36.48,36.48,0,0,0-2.44,4.7h0a43.65,43.65,0,0,0-3.4,17.21c0,.21,0,.41,0,.61,0,0,0,0,0,0a79.35,79.35,0,0,0,9.11,36.38h0a8.91,8.91,0,0,0,3.72,3.7c5.68,3.28,14.89,3.28,20.56,0a8.92,8.92,0,0,0,3.73-3.69h0A79.42,79.42,0,0,0,54,67.4v0C54,67.17,54,67,54,66.75Z"/><path class="cls-4" d="M34.51,64.39a30.87,30.87,0,0,0-8.06-1.32c-1.71,0-3.74.2-4.79-1.14-.48-.61-.63-1.42-1.05-2.07-1-1.51-3.08-1.72-4.88-1.71s-3.85,0-5.07-1.31a12.86,12.86,0,0,1-1.31-2,45.29,45.29,0,0,0-1.6,11.92v.65a79.42,79.42,0,0,0,9.1,36.38h0a8.91,8.91,0,0,0,3.72,3.7,22.08,22.08,0,0,0,12.81,2.32,4.23,4.23,0,0,0,.3-1.32c.05-1.31-.56-2.56-.66-3.87-.13-1.88.8-3.68.89-5.57a12.55,12.55,0,0,0-1.28-5.23L30.3,88a3.58,3.58,0,0,1-.37-2.4c.49-1.47,2.47-1.64,3.75-2.51,1.59-1.09,2-3.23,2.17-5.15s.32-4,1.65-5.42c.73-.76,1.75-1.23,2.28-2.13a3.47,3.47,0,0,0-1-4.18A10.25,10.25,0,0,0,34.51,64.39Z"/><path class="cls-6" d="M39,39.74h0l-4,1.58Z"/><path class="cls-6" d="M50,48.22c-.35-.74-.69-1.5-1.08-2.2h0l0,0c-.13-.24-.28-.48-.41-.71-1-1.87-3.27-7.4-2.25-17.86h0c0-.31,0-.62,0-.93A15.29,15.29,0,0,0,35.37,11.89c0,.59.08,1.22.15,1.95L36,19l-.51-5.11c-.07-.73-.12-1.36-.15-1.95A15.12,15.12,0,0,0,15.58,26.48a51.38,51.38,0,0,1-.33,13.21h0a21.46,21.46,0,0,1-1.63,5.16,36.48,36.48,0,0,0-2.44,4.7h0c-.17.39-.29.81-.44,1.21a12.08,12.08,0,0,0,3.63.22,13.7,13.7,0,0,0,6.68-3.11,30.21,30.21,0,0,1,5.19-3.06L35,41.33,26.24,44.8c1.62-.76,3.29-1.43,5-2.08s3.25-1.41,4.93-2l.81-.29c.68-.23,1.36-.46,2.06-.67l0,0c.44.93.84,1.87,1.32,2.78A10.09,10.09,0,0,0,50,48.22Z"/><path class="cls-7" d="M5.21,35.51c2.08-2.66,3.58-5.74,5.88-8.25a29.73,29.73,0,0,0,4.57-6.07L15.81,20a31.37,31.37,0,0,1,2-9.14,14.69,14.69,0,0,1,9.56-8.93c.34-.11.66-.27,1-.41C23.56-.85,18.85.17,14.85,4.91,10.61,10,6.34,15,3,20.68A22.54,22.54,0,0,0,.34,26.44C-.31,28.83-.15,31,1.88,32.71A27.73,27.73,0,0,0,5.21,35.51Z"/><path class="cls-8" d="M15.32,32.11c1.45,5.79,5.4,9.37,10,10.37a30.68,30.68,0,0,0-5.2,3.06,13.76,13.76,0,0,1-6.67,3.11c-3.06.33-7.79-.82-9.91-3.83-.19-.28-3.91-3.45-2.22-7.1a26.6,26.6,0,0,1,1.38-3c.82-1,1.55-2.17,2.28-3.29C9.69,30.58,14.25,27.28,15.32,32.11Z"/><path class="cls-9" d="M5,31.4c4.69-.81,9.25-4.12,10.32.71,1.44,5.79,5.4,9.36,10,10.37,1.62-.77,3.28-1.44,5-2.08s3.26-1.41,4.93-2L36,38.1c.69-.24,1.39-.47,2.08-.68-1.83-8.55-2.65-17.23-3.5-25.91-.26-2.66-.3-4.34.21-5.51A2.64,2.64,0,0,1,35,5.71c.77-1.4,2.48-2,5.79-2.91A18.94,18.94,0,0,0,25.92.65c-.34.13-.66.3-1,.41A14.67,14.67,0,0,0,15.36,10a30.26,30.26,0,0,0-2,8.63c0,.17-.36,2.05-.44,2.2A32.25,32.25,0,0,1,8.6,26.44,35.84,35.84,0,0,0,5,31.4Z"/><path class="cls-7" d="M40.77,2.8C34.63,4.42,34,5.24,34.62,11.52a225.83,225.83,0,0,0,3.51,25.89c.43.93.84,1.87,1.31,2.77a10.18,10.18,0,0,0,11.21,5.56A27.35,27.35,0,0,0,64.09,39c1.93-1.68,1.83-3.85,1.42-6a32.36,32.36,0,0,0-3.62-9.07l-1.25-2.41c-2.82-4.29-5.55-8.66-8.49-12.87C49.42,4.7,45.77,2.35,40.77,2.8Z"/><g class="cls-10"><path class="cls-4" d="M32.72,13.14A235.5,235.5,0,0,0,36,38.1c.69-.24,1.39-.47,2.08-.68-1.83-8.55-2.65-17.23-3.5-25.91-.26-2.66-.3-4.34.21-5.51A2.64,2.64,0,0,1,35,5.71C32.49,6.91,32.28,8.59,32.72,13.14Z"/></g><path class="cls-11" d="M24.91,23.9c-.35,1.6.34,3.15,1.53,3.35,1.6.27,2.07-.94,2.37-2.14.39-1.52-.33-3.09-1.52-3.26C25.73,21.62,25.22,22.75,24.91,23.9Z"/><path class="cls-11" d="M14,20.7c-.28,1.32.28,2.61,1.27,2.77,1.32.22,1.71-.78,2-1.77.31-1.26-.27-2.55-1.26-2.7C14.63,18.81,14.21,19.75,14,20.7Z"/><path class="cls-12" d="M3.52,43.86c2.38,2.18,4.78,1,6.07-1.53a1.9,1.9,0,0,0-.09-2.2,7.48,7.48,0,0,0-5.12-2.69A2,2,0,0,0,2,38.57a7.88,7.88,0,0,0-.08,1.34A6.43,6.43,0,0,0,3.52,43.86Z"/><path class="cls-13" d="M32.12,109.86c-4.06-3-8.3-5.82-11.54-9.67-3.89-4.62-6.09-10.46-7.42-16.35S11.29,71.9,10.31,65.93Q9.82,63,9.17,60c-.1-.46-.22-1.56-.43-2.59a45.71,45.71,0,0,0-1,9.34c0,.21,0,.41,0,.61,0,0,0,0,0,0a79.28,79.28,0,0,0,9.11,36.37h0a8.85,8.85,0,0,0,3.72,3.7A21.53,21.53,0,0,0,32.12,109.86Z"/><path class="cls-2" d="M43.23,73.75c-2,1.63-2.36,4.46-2.52,7s-.33,5.36-2.11,7.2-4.32,2.13-6.44,3.32a9.17,9.17,0,0,0-4.43,6c-.54,2.48-.17,5.45-2,7.15-1.43,1.3-3.74,1.38-5,2.88a1.86,1.86,0,0,0-.11.19h0c5.68,3.28,14.89,3.28,20.56,0a8.88,8.88,0,0,0,3.73-3.7h0A79.6,79.6,0,0,0,53.85,72C50.37,72.93,46.21,71.31,43.23,73.75Z"/><path class="cls-14" d="M34.43,104a20,20,0,0,1-3.18,1,22,22,0,0,1-6.05-.28c-1.46,1.07-3.69,1.31-4.58,2.8,5.68,3.23,14.91,3.26,20.56,0a8.88,8.88,0,0,0,3.73-3.7h0s.35-.6.91-1.71A33.09,33.09,0,0,0,34.43,104Z"/><path d="M9.89,52.58s23.54,4.33,39.24-6.1A28.73,28.73,0,0,1,51,50.33S34,61.86,8.84,56.7Z"/><path class="cls-15" d="M9.58,83.78S35.14,91.28,53.49,76c0,0,2.57-14-2.54-25.66A60.37,60.37,0,0,1,8.84,56.7S5.59,67.56,9.58,83.78Z"/><path class="cls-3" d="M7.59,67.43S36.9,71.84,53.29,58a11.72,11.72,0,0,1,1.13,4.3,2.33,2.33,0,0,1-1,2.08c-4,2.75-19.4,11.79-44.63,8.47a1.43,1.43,0,0,1-1.23-1.15A9.2,9.2,0,0,1,7.59,67.43Z"/></g></g></g></svg>