<svg xmlns="http://www.w3.org/2000/svg" viewBox="0 0 200.81 414.63"><defs><style>.cls-1{fill:#4d4d4d;}.cls-2{fill:#251008;}.cls-3{fill:#7c3623;}.cls-4{fill:#4a2010;}.cls-5{fill:#8e3e25;}.cls-6{fill:#d6f568;}.cls-7{fill:#eff8fa;}.cls-8{fill:#a34c2b;}.cls-9{fill:#89341c;}.cls-10{fill:#d37c61;}.cls-11{fill:#d77d1d;}.cls-12{fill:#dfa126;}</style></defs><title>Recurso 135</title><g id="Capa_2" data-name="Capa 2"><g id="personajes_individuales" data-name="personajes individuales"><ellipse class="cls-1" cx="105.6" cy="384.76" rx="72.05" ry="29.87"/><path class="cls-2" d="M181.33,281.19l2.85-7.27C90,215.18,27,276,27,276L29,281.43C49.36,293.45,106.65,318.78,181.33,281.19Z"/><path class="cls-3" d="M27.49,280.49c6.28,57.23,29.78,97.66,29.78,97.66h0c2.23,4.66,6.48,9.05,12.81,12.72,19.55,11.28,51.25,11.28,70.78,0,6.35-3.67,10.59-8.06,12.82-12.72h0S177.37,337.5,183.58,280C105.92,320.25,46.67,292.2,27.49,280.49Z"/><path class="cls-4" d="M27,276l1.39,11.9s69.33,46,154.52-2.14l1.25-11.87S105.6,321.13,27,276Z"/><path class="cls-3" d="M27.05,272.92c.51,1.93,9.05,29.49,83.52,25,62.22-3.73,72-19.15,73.39-25,.7-7.48,1.11-15.23,1.11-23.2l0,0c0-.73,0-1.44,0-2.17,0-21.68-4.25-41.95-11.65-59.18a126.28,126.28,0,0,0-6-12.17h0a.74.74,0,0,1-.08-.12c-.47-.83-1-1.65-1.44-2.45-3.44-6.43-11.24-25.47-7.73-61.47,0,0,0,0-.07,0,.07-1.07.17-2.13.17-3.2a52.76,52.76,0,0,0-105.51,0c0,1.12,2.85,22.81-1.11,45.47,0,.05,0,0,0,0a74.5,74.5,0,0,1-5.58,17.77,120.79,120.79,0,0,0-8.42,16.17h0q-2.1,4.88-3.85,10.07A153.91,153.91,0,0,0,26,247.54c0,.71,0,1.41,0,2.1,0,.05,0,.08,0,.11C26,257.71,26.35,265.44,27.05,272.92Z"/><path class="cls-5" d="M123.56,122.5c14.23-37.26-18.71-56.73-34.5-63.68a52.77,52.77,0,0,0-36.3,50.1c0,1.12,2.85,22.81-1.11,45.47,0,.05,0,0,0,0a74.5,74.5,0,0,1-5.58,17.77,120.79,120.79,0,0,0-8.42,16.17h0q-2.1,4.88-3.85,10.07A153.91,153.91,0,0,0,26,247.54c0,.71,0,1.41,0,2.1,0,.05,0,.08,0,.11,0,8,.4,15.69,1.1,23.17.48,1.86,8.42,27.33,75,25.39C80.93,222.91,106.7,166.64,123.56,122.5Z"/><path class="cls-6" d="M27.28,226.86c18.17,7.61,73.89,24.44,154.83-10.11a141.08,141.08,0,0,0-8.68-28.39,126.28,126.28,0,0,0-6-12.17h0a.74.74,0,0,1-.08-.12c-.35-.62-.71-1.21-1.07-1.81-20.2,9.61-75,30.87-125.72,7.88-1,2-2,4-2.92,6.16h0q-2.1,4.88-3.85,10.07A149,149,0,0,0,27.28,226.86Z"/><path class="cls-7" d="M30.23,210.78c67.1,22.28,121.51-4.19,144.6-18.9-.46-1.17-.9-2.37-1.4-3.52-.31-.72-.66-1.42-1-2.13C159.15,193.7,134.6,204.61,99,209c-35.18,4.29-55.76-1.93-66.27-7.22C31.8,204.69,31,207.7,30.23,210.78Z"/><path d="M167.42,176.19h0a.74.74,0,0,1-.08-.12c-.47-.83-1-1.65-1.44-2.45-.33-.61-.7-1.37-1.09-2.22h0c-53.9,31-123.15,8.8-123.31,8.75-1,1.89-1.87,3.88-2.77,5.86,61.3,21.82,113.93-.86,129.27-8.73C167.8,176.92,167.62,176.55,167.42,176.19Z"/><path class="cls-4" d="M27,276l1.39,11.9s69.33,46,154.52-2.14l1.25-11.87S105.6,321.13,27,276Z"/><path class="cls-4" d="M16.05,225.19c-8.26-29.49,25.1-73.63,25.44-74.07l-3.64-2.78c-1.44,1.88-35.08,46.39-26.21,78.08A33.87,33.87,0,0,0,26,245.79c0-1.85.06-3.7.14-5.54A29,29,0,0,1,16.05,225.19Z"/><path class="cls-3" d="M145.05,125a32.26,32.26,0,0,0,13.1-13.94c0-.73.12-1.45.12-2.18a52.76,52.76,0,0,0-105.51,0c0,1.12,2.85,22.81-1.11,45.47,0,.05,0,0,0,0-.11.56-.24,1-.36,1.55,19.34-8.35,57.59-15.53,66.62-18.06C126.26,135.5,137.4,129.18,145.05,125Z"/><path class="cls-8" d="M39.67,6.46a40.06,40.06,0,0,1,19.51,6.82C68.33,19.73,83,37,83,37l-3.53,3.6S43.45,15.77,39.67,6.46Z"/><path class="cls-9" d="M72.28,42.57s-14.14-.1-23.38-18.1l-9.23-18S56,12.76,62.15,20.87,79.43,40.58,79.43,40.58Z"/><path class="cls-8" d="M119.5,129.3c8.22-2.85,19-9.84,26.34-14.43,13.13-8.16,17.53-25.54,16.4-41,0-.07,0-.15,0-.22-1-13.36-9.25-25.21-21.07-31.52C119.67,30.69,95.36,26.28,70.35,41c-8.24,4.85-15.8,21.51-19.8,32.73s-26.43,48-38.79,57.62S-5.42,163.26,8.24,170a26.39,26.39,0,0,0,14.05,2.42c6.59,9.5,16.82-1.74,21.39-12.89C48.43,147.94,108.06,133.26,119.5,129.3Z"/><path class="cls-10" d="M69.8,59.35c-2-5.58-7.68-9.34-14.27,2.24-4.9,8.61-27.82,48.58-33.5,58.35-5.77,6.62-8.65,8.7-12.5,14.43-2.6,3.87,4.77,2.79,9.21-.75,7.89-6.29,13.24-15.05,27.71-38.7C55.83,79.59,73.68,70.16,69.8,59.35Z"/><path class="cls-9" d="M74,101.35a3.28,3.28,0,0,1-4-3.17c0-4.24.92-11.26,6.92-16.34,3.5-3,6.33-5.25,8.48-6.92a5.19,5.19,0,0,1,8.27,3A15,15,0,0,1,90.6,90.33,28.88,28.88,0,0,1,74,101.35Z"/><path class="cls-11" d="M181.9,110.92c5.69-47.45-10.12-48.08-17.71-65.79S156.84,17,138.85,16.67,113,7.75,92.16,8.43,74.36,43.53,44.84,26.6c0,0,11,22.95,38.12,14,13.54-4.48,29.13-6.21,42.26-2,.08.06,9.17,7.27,2.84,19.81s26.2,14.12,24.28,44.63c-2.25,12.09-7.45,25.66-18.83,36.67-27.21,26.28-13.6,69.61,13.6,71.83,0,0-22.19-15.82-11.26-33.85,0,0,1.75,19.93,18.05,24.67s18.51,51.24-21.66,55c0,0,50.9,14.81,65.16-40.49S176.21,158.36,181.9,110.92Z"/><path class="cls-12" d="M181.9,110.92c5.69-47.45-10.12-48.08-17.71-65.79S156.84,17,138.85,16.67,113,7.75,92.16,8.43c-20.42.66-17.92,33.88-45.84,19,5.59,5.28,13.28,8.26,20.83,9.08C78,37.65,88.91,35,99.4,31.92c6.73-2,13.56-4.09,20.57-3.85,14.51.49,26.88,11.13,34.78,23.31a83.44,83.44,0,0,1,12.09,60c-2.54,13.54-8.55,27.45-4.3,40.55,3.43,10.57,12.79,17.94,18.94,27.2,6.76,10.18,10,23.11,17.12,32.63C209.46,161.33,176.38,156.87,181.9,110.92Z"/><path class="cls-8" d="M116.16,0s6.13,10.17,7.09,20.5c1.4,15.19-4.53,28.53-4.53,28.53h-5.38S110.74,8.66,116.16,0Z"/><path class="cls-9" d="M107,45.56S97.74,36,107,18l9.21-18s5.38,15.07,2.56,24.52S113.34,49,113.34,49Z"/><path class="cls-4" d="M108.64,75.86a65.15,65.15,0,0,0-8.44-12.4,29.41,29.41,0,0,0-12.83-8.61A40.76,40.76,0,0,0,72.47,53a57.21,57.21,0,0,0-14.23,3l0,.35c9.36-2,19.25-2.5,28.18,1A28.77,28.77,0,0,1,97.83,65.5a62.55,62.55,0,0,1,7.76,11.94,69.54,69.54,0,0,1,6.84,19.8,7.5,7.5,0,0,0-1.29,7.19,17.91,17.91,0,0,1-2.34,2.93,33.45,33.45,0,0,1-6.46,5.62,125.33,125.33,0,0,1-15.15,8.8C81.93,124.53,76.45,127,71,129.64c-4.31,2-8.62,4.16-13,6.43-.69-2.23-3-2.76-4.26-2.86a20.67,20.67,0,0,0-4.9-7.74,25.12,25.12,0,0,0-13-6.38,29.52,29.52,0,0,0-13.81.68l0,.34a43.92,43.92,0,0,1,13.06,1.58,26.45,26.45,0,0,1,11.38,6.24,19,19,0,0,1,5.81,11.43c.6,2.13.23,4.37.37,6.56-.18,2.19-.59,4.36-.87,6.55l.34.07A53.92,53.92,0,0,0,54.47,146c.12-1.3.38-2.63.52-4,1.23-.72,3.18-2.26,3.22-4.69a172.09,172.09,0,0,0,31.05-11.51,74.86,74.86,0,0,0,15.43-10.22,31.19,31.19,0,0,0,7.39-9.22,13.29,13.29,0,0,0,1.28,1.74,59.22,59.22,0,0,1-5,24.4l.31.14a54.23,54.23,0,0,0,5.69-13.44A58,58,0,0,0,116,104.55C115.94,94.57,113,84.78,108.64,75.86Z"/><path class="cls-4" d="M18.7,151.28c.78-1.84,2.62-3.37,4.6-3.17a5.34,5.34,0,0,1,.38,1.5c.08,1.5-1.06,2.79-2.28,3.66a19.47,19.47,0,0,0-2.06,1.51,4.47,4.47,0,0,0-1.16,1.81A9.23,9.23,0,0,1,18.7,151.28Z"/><circle cx="80.15" cy="91.07" r="3.44"/><path class="cls-9" d="M74.12,91s8,.67,10.41-4.43C84.53,86.58,76.46,82,74.12,91Z"/><path class="cls-4" d="M185,242.48l-8.22,8.86a29.61,29.61,0,0,1-9.46,6.87c-40.32,18.2-68.46,20.21-83.67,6-34.67-32.43,6.82-138.94,7.24-140l-4.25-1.68c-1.78,4.49-43,110.48-6.12,145Q91.79,278.08,111,278.07c14.67,0,32.77-4.64,54.18-13.9a24.82,24.82,0,0,1,19.5-.12h0A139.33,139.33,0,0,0,185,242.48Z"/></g></g></svg>