<svg xmlns="http://www.w3.org/2000/svg" viewBox="0 0 144.1 265.72"><defs><style>.cls-1{fill:#4d4d4d;}.cls-2{fill:#bca577;}.cls-3{fill:#363125;}.cls-4{opacity:0.25;}.cls-5{fill:#041015;}.cls-6{opacity:0.4;}.cls-7{fill:#603813;}.cls-8{fill:#43402f;}.cls-9{fill:#1a1a1a;}.cls-10{fill:#fbb03b;}.cls-11{fill:#c19416;}.cls-12{fill:#ebba16;}.cls-13{fill:#ffeab6;}.cls-14{fill:#f9d367;}.cls-15{opacity:0.15;}.cls-16{fill:#c1ac7c;}.cls-17{opacity:0.1;}.cls-18{opacity:0.17;}.cls-19{fill:#272624;}</style></defs><title>Recurso 118</title><g id="Capa_2" data-name="Capa 2"><g id="personajes_individuales" data-name="personajes individuales"><ellipse class="cls-1" cx="72.05" cy="235.85" rx="72.05" ry="29.87"/><path class="cls-2" d="M123.12,152.86a98.83,98.83,0,0,0-7.63-38.77h0a83.18,83.18,0,0,0-3.94-8h0l-.06-.08c-.3-.55-.63-1.08-.94-1.6-2.25-4.22-7.36-16.69-5.06-40.27l0,0c0-.7.11-1.39.11-2.1a34.56,34.56,0,0,0-69.11,0c0,.74,1.87,15-.72,29.79,0,0,0,0,0,0A48.79,48.79,0,0,1,32,103.46a79.43,79.43,0,0,0-5.51,10.59h0a98.64,98.64,0,0,0-7.65,38.81c0,.46,0,.92,0,1.37,0,0,0,.05,0,.07,0,46.75,20.52,82,20.52,82h0c1.46,3.05,4.25,5.93,8.4,8.33,12.8,7.39,33.56,7.39,46.36,0,4.16-2.4,6.93-5.28,8.39-8.33h0s20.52-35.27,20.52-82a0,0,0,0,0,0,0C123.1,153.8,123.12,153.33,123.12,152.86Z"/><path class="cls-3" d="M115.49,114.09a83.18,83.18,0,0,0-3.94-8h0l-.06-.08c-.3-.55-.63-1.08-.94-1.6a38.75,38.75,0,0,1-2.67-6.59c-5.17,6.81-12.3,13-19.65,18.34a36.77,36.77,0,0,1-55-14.86l-.14-.3c-.36.93-.72,1.77-1,2.43a79.43,79.43,0,0,0-5.51,10.59h0a98.64,98.64,0,0,0-7.65,38.81c0,.46,0,.92,0,1.37,0,0,0,.05,0,.07,0,46.75,20.52,82,20.52,82h0c2.4,5,8.33,9.52,18,12.27a49.85,49.85,0,0,0,26.9,0c9.88-2.74,15.85-7.29,18.25-12.32h0s20.52-35.27,20.52-82a0,0,0,0,0,0,0c0-.48,0-.95,0-1.42A98.83,98.83,0,0,0,115.49,114.09Z"/><g class="cls-4"><path class="cls-5" d="M108.2,97.85s-12.76,15-25.91,22C82.29,119.84,100.26,113.1,108.2,97.85Z"/></g><g class="cls-6"><path class="cls-7" d="M107.93,97.86c-3.59-9.5-3.15-28.95-2.82-33.31l0,0c0-.7.08-1.39.07-2.1A34.55,34.55,0,0,0,36,64a93.57,93.57,0,0,1,.33,28.09c3.73,5.81,13.14,17.88,28.5,18.26C85.9,110.9,92,88.81,107.93,97.86Z"/></g><path class="cls-8" d="M44.91,115.89s18.5,14.42,40.71,2L48.85,137Z"/><g class="cls-4"><polygon class="cls-5" points="48.85 137.03 72.82 146.7 72.82 131.23 95.25 140.56 90.12 114.8 92.59 137.64 71.55 128.99 71.42 144.25 48.85 137.03"/></g><g class="cls-4"><polygon class="cls-5" points="47.09 137.03 34.92 140.28 40.41 126.88 24.1 123.52 34.62 106.76 25.97 122.97 42.12 125.78 36.93 138.56 47.09 137.03"/></g><path class="cls-9" d="M23.47,193.32s14.37,19.11,95.38-1.48l-3.73,14.08s-55.77,18-87.5,2.75C27.62,208.67,24.56,198.34,23.47,193.32Z"/><path class="cls-9" d="M47.09,140.28c-.87,4.59-1.35,9.24-1.78,13.88s-.66,9.31-.76,14c-.3,9.32,0,18.65.36,28-.58-4.64-1-9.3-1.26-14s-.26-9.37-.18-14.05C43.84,158.75,44.6,149.33,47.09,140.28Z"/><path class="cls-10" d="M24.46,140.92A46.63,46.63,0,0,0,42,145s-.63,2.9-.85,5c0,0-11.18.26-17-4Z"/><path class="cls-3" d="M25,141.8l-.34,3.8s4.07,3.84,15.88,3.67c0,0,.31-2.32.66-3.62A41.53,41.53,0,0,1,25,141.8Z"/><path class="cls-10" d="M37,117.92a39.34,39.34,0,0,1-5.56-1.51l-2.58,5.07a14,14,0,0,0,5.82,1.3Z"/><path class="cls-3" d="M36,118.38a33.89,33.89,0,0,1-4-1.17l-2.13,3.9a12.76,12.76,0,0,0,4.23,1Z"/><g class="cls-4"><path class="cls-5" d="M77.92,158.42v0a1.86,1.86,0,0,0-.31-.74,4.9,4.9,0,0,1-.69-2.74,6.47,6.47,0,0,1,1.23-2.83l-2-2.24a2.53,2.53,0,0,1-1.88.41,3.13,3.13,0,0,1-2.09-.66,3.06,3.06,0,0,1-2.14.4,2.56,2.56,0,0,1-1.82-.64l-2.24,2a6.54,6.54,0,0,1,.88,3,4.87,4.87,0,0,1-1,2.63,1.73,1.73,0,0,0-.39.7v0a3.89,3.89,0,0,0,2.06,4.54c1.44.7,3.78,2,3.74,2.69,0-.73,2.54-1.69,4-2.21A3.89,3.89,0,0,0,77.92,158.42Z"/></g><path class="cls-11" d="M77.43,158.09v0a1.84,1.84,0,0,0-.31-.75,4.87,4.87,0,0,1-.69-2.73,6.54,6.54,0,0,1,1.23-2.84l-2-2.24a2.53,2.53,0,0,1-1.88.41,3.17,3.17,0,0,1-2.09-.66,3.06,3.06,0,0,1-2.14.4,2.56,2.56,0,0,1-1.82-.64l-2.24,2a6.48,6.48,0,0,1,.88,3,4.87,4.87,0,0,1-1,2.63,1.73,1.73,0,0,0-.39.7v0A3.88,3.88,0,0,0,67,161.85c1.44.7,3.79,2,3.74,2.7,0-.74,2.54-1.7,4-2.22A3.89,3.89,0,0,0,77.43,158.09Z"/><path class="cls-12" d="M70.87,162.91a16.87,16.87,0,0,0-3.37-2A2.82,2.82,0,0,1,66,157.61v0a.92.92,0,0,1,.16-.29,5.75,5.75,0,0,0,1.3-3.27,6.16,6.16,0,0,0-.62-2.78l1-.89a3.94,3.94,0,0,0,1.42.35h.3a5.48,5.48,0,0,0,2.09-.24,5.2,5.2,0,0,0,2,.49,1.87,1.87,0,0,0,.3,0,3.63,3.63,0,0,0,1.45-.17l.89,1a6.55,6.55,0,0,0-1,2.68,5.88,5.88,0,0,0,.89,3.41.71.71,0,0,1,.13.31v0a2.81,2.81,0,0,1-1.91,3.07A17.36,17.36,0,0,0,70.87,162.91Z"/><path class="cls-13" d="M74.19,156.29a2.91,2.91,0,1,1-2.72-3.08A2.9,2.9,0,0,1,74.19,156.29Z"/><path class="cls-14" d="M71.19,159l.87,3.26c.3-.13.62-.27,1-.41l-.81-3A3,3,0,0,1,71.19,159Z"/><path class="cls-14" d="M70.74,153.26l-.68-2.54h-.8l-.3,0,.79,3A2.93,2.93,0,0,1,70.74,153.26Z"/><g class="cls-15"><path d="M115.49,114.09a83.18,83.18,0,0,0-3.94-8h0l-.06-.08c-.3-.55-.63-1.08-.94-1.6a38.75,38.75,0,0,1-2.67-6.59c-5.17,6.81-12.3,13-19.65,18.33A35.41,35.41,0,0,1,83,119.3a47.44,47.44,0,0,0,.55,5c1.41,8.21,5,15.85,7.53,23.79A88.79,88.79,0,0,1,86,213.32c-6.09,12.3-15.11,23.58-17.72,37a50,50,0,0,0,16.1-1.64c9.87-2.74,15.84-7.29,18.24-12.32h0s20.52-35.27,20.52-82a0,0,0,0,0,0,0c0-.48,0-.95,0-1.42A98.83,98.83,0,0,0,115.49,114.09Z"/></g><path class="cls-16" d="M66,0A74.06,74.06,0,0,0,50.83,1.67c-1.53.54-25.12,9.45-24.77,42.69a27.86,27.86,0,0,0,2.45,11.46l0,.06a26.89,26.89,0,0,1,2.22,7.62A27.6,27.6,0,0,1,31,69.11c-.59,10.15,2.46,20.35,9.6,27.44,7.33,7.28,15.94,11.5,24.23,11.3,17.11-.39,42.36-27.13,41.62-59.4S94.61-.64,66,0Z"/><path d="M43.61,89.84a22.62,22.62,0,0,0,4.74.65,28.74,28.74,0,0,0,4.73-.15,49.69,49.69,0,0,0,9.32-2.1A22.22,22.22,0,0,1,58,90.32a26.09,26.09,0,0,1-4.8,1.09C49.94,91.66,46.5,91.44,43.61,89.84Z"/><ellipse cx="60.72" cy="61.95" rx="2.5" ry="3.98" transform="translate(-1.41 1.42) rotate(-1.32)"/><path d="M57.74,55.87a4.81,4.81,0,0,1,4-1.11,3.94,3.94,0,0,1,2,1.06,3.8,3.8,0,0,1,1,1.88,6,6,0,0,0-3.15-1.89A11.35,11.35,0,0,0,57.74,55.87Z"/><ellipse cx="41.18" cy="62.4" rx="2.5" ry="3.98" transform="translate(-1.43 0.97) rotate(-1.32)"/><path d="M37.46,57.5a4.81,4.81,0,0,1,3.43-2.37,4,4,0,0,1,2.19.37A3.77,3.77,0,0,1,44.63,57,6,6,0,0,0,41,56.2,11.24,11.24,0,0,0,37.46,57.5Z"/><path d="M48.48,65.49c.09,3.81-1.71,7.4-3.26,10.69-.74,1.6-1.57,3.47-.95,4.92S47.14,83,48.9,83.33c-1.79,0-4,0-5.36-1.83-1-2.09.06-4.08.7-5.77.85-1.71,1.72-3.3,2.46-5A25.09,25.09,0,0,0,48.48,65.49Z"/><g class="cls-17"><path class="cls-7" d="M98.36,14.18c-1.88,16.81-5.44,38.67-11.85,50h0C84.6,68.79,81.35,73.08,80,78s-.7,9.9-.83,14.89a49.78,49.78,0,0,1-1.41,10.38c14.36-9,28.64-29.59,28.64-53.57C106.41,34.35,104,22.46,98.36,14.18Z"/></g><path class="cls-16" d="M93.79,55.34s10.47-14.7,16.74-.15S99.86,77.81,94.24,69.92"/><g class="cls-18"><path d="M106.63,56.11A12.22,12.22,0,0,0,104.05,55a4,4,0,0,0-2.52-.05c-1.61.48-2.64,2.18-3.69,3.81a7.87,7.87,0,0,1,1-2.82,4.83,4.83,0,0,1,2.41-2A5.18,5.18,0,0,1,106.63,56.11Z"/></g><g class="cls-4"><path d="M101.15,56.45a6.09,6.09,0,0,1,3,5.72,5.77,5.77,0,0,1-1.58,3,12.86,12.86,0,0,1-1.29,1.05L99.8,67c1.54-1.49,3-3.06,3.26-5a5.17,5.17,0,0,0-.38-2.85A12.09,12.09,0,0,0,101.15,56.45Z"/></g><g class="cls-15"><path class="cls-7" d="M65.94,0A74,74,0,0,0,50.83,1.67c-1.53.54-25.12,9.45-24.77,42.69,0,.48.06,1,.09,1.45a20.85,20.85,0,0,0,4.8.55,316.91,316.91,0,0,0,40.41-1.27A8.55,8.55,0,0,1,76,45.5c1.5.75,2.4,2.3,3.2,3.77L88.8,66.7a4,4,0,0,0,.71,1c1.11,1,3,.25,3.74-1a8.2,8.2,0,0,0,.6-4.35c-.17-4.77.83-10.5,5.22-12.38a22.94,22.94,0,0,1,3.51-.93,17.44,17.44,0,0,0,3.83-1.54C105.46,15.86,94.31-.64,65.94,0Z"/></g><path class="cls-16" d="M98.44,221.24S93.7,244,109.1,232.68c10.28-7.57,13.53-27.17,13.53-27.17Z"/><path class="cls-19" d="M121.16,205.41a24.5,24.5,0,0,1-20.81,13.67c2.53-8.1,11.22-41.2-.25-82,2.93-1.38-5.15-5-5.15-5s13.82,38.65.84,90.24c23.08,1.65,26.78-16.64,26.84-16.88Z"/><path class="cls-3" d="M95,132.05c16.58,32.82,3.49,88.45,3.49,88.45a25.9,25.9,0,0,0,24.19-15s11.17-43.84-1.41-81c-2.52-7.45-11.53-11.19-18.24-7.1C95.25,122.13,95,132.05,95,132.05Z"/><path class="cls-10" d="M119.43,130.93a51.21,51.21,0,0,1-18.11,7.83s1.25,3,1.91,5.26c0,0,12.13-1.93,17.61-7.65Z"/><path class="cls-3" d="M119,132l1.12,4s-3.64,4.95-16.43,7.1a37.71,37.71,0,0,0-1.44-3.78A45.78,45.78,0,0,0,119,132Z"/><g class="cls-4"><path class="cls-5" d="M101.84,129.71s7.81,53.46,1,89.74c0,0,6.62-18.68,6-51.34S101.84,129.71,101.84,129.71Z"/></g></g></g></svg>