<svg xmlns="http://www.w3.org/2000/svg" viewBox="0 0 144.1 283.3"><defs><style>.cls-1{fill:#4d4d4d;}.cls-2{fill:#e6dab0;}.cls-3{fill:#363125;}.cls-4{opacity:0.25;}.cls-5{fill:#041015;}.cls-6{opacity:0.4;}.cls-7{fill:#c69c6d;}.cls-8{fill:#ecf63f;}.cls-9{fill:#43402f;}.cls-10{fill:#1a1a1a;}.cls-11{fill:#fbb03b;}.cls-12{opacity:0.15;}.cls-13{fill:#272624;}.cls-14{fill:#fff;}.cls-15{fill:#ebba16;}.cls-16{opacity:0.1;}.cls-17{fill:#603813;}.cls-18{fill:#a67c52;}.cls-19{opacity:0.17;}.cls-20{opacity:0.32;}</style></defs><title>Recurso 148</title><g id="Capa_2" data-name="Capa 2"><g id="personajes_individuales" data-name="personajes individuales"><ellipse class="cls-1" cx="72.05" cy="253.43" rx="72.05" ry="29.87"/><path class="cls-2" d="M141.35,170.17a98.86,98.86,0,0,0-7.63-38.77h0a85.57,85.57,0,0,0-3.94-8h0l-.06-.08c-.3-.54-.62-1.08-.94-1.6-2.25-4.21-7.36-16.69-5.06-40.27l0,0c0-.7.12-1.39.12-2.09a34.56,34.56,0,1,0-69.11,0c0,.73,1.86,14.94-.73,29.78,0,0,0,0,0,0a48.61,48.61,0,0,1-3.65,11.63,78.91,78.91,0,0,0-5.52,10.59h0a98.64,98.64,0,0,0-7.65,38.81c0,.46,0,.92,0,1.38,0,0,0,0,0,.07,0,46.74,20.52,82,20.52,82h0c1.46,3.06,4.24,5.93,8.39,8.34,12.8,7.39,33.56,7.39,46.36,0,4.16-2.41,6.94-5.28,8.4-8.33h0s20.52-35.28,20.52-82v0C141.33,171.11,141.35,170.64,141.35,170.17Z" transform="translate(0)"/><path class="cls-3" d="M133.72,131.4a85.57,85.57,0,0,0-3.94-8h0l-.06-.08c-.3-.54-.62-1.08-.94-1.6a38.22,38.22,0,0,1-2.67-6.58c-5.17,6.8-12.3,13-19.65,18.33a36.77,36.77,0,0,1-55-14.85c-.05-.1-.09-.21-.14-.31-.36.93-.72,1.77-1,2.43a78.91,78.91,0,0,0-5.52,10.59h0a98.64,98.64,0,0,0-7.65,38.81c0,.46,0,.92,0,1.38,0,0,0,0,0,.07,0,46.74,20.52,82,20.52,82h0c2.39,5,8.32,9.53,18,12.27a50,50,0,0,0,26.91.06c9.87-2.74,15.84-7.3,18.25-12.32h0s20.52-35.28,20.52-82v0c0-.48,0-1,0-1.42A98.86,98.86,0,0,0,133.72,131.4Z" transform="translate(0)"/><g class="cls-4"><path class="cls-5" d="M125.87,115.45s-12.76,15-25.91,22C100,137.43,117.93,130.69,125.87,115.45Z" transform="translate(0)"/></g><g class="cls-6"><g class="cls-6"><path class="cls-7" d="M126.16,115.17c-3.59-9.49-3.14-28.94-2.82-33.31l0,0c0-.7.09-1.39.07-2.09a34.55,34.55,0,1,0-69.09,1.59,93.29,93.29,0,0,1,.33,28.1c3.73,5.8,13.14,17.87,28.5,18.25C104.13,128.21,110.2,106.13,126.16,115.17Z" transform="translate(0)"/></g></g><path class="cls-8" d="M126.11,115.16c-2.71,9.75-17.49,18.56-17.49,18.56l4.81,24.14L91,148.54V164l-14.09-5.68L72,164.09a6.4,6.4,0,0,1-10.92-2L59,156l-5.87,1.56,5.49-13.39-16.31-3.37L52.8,124.07l-1.54-5.74a13.08,13.08,0,0,1-1,2.43c-.56.93-21.61,28-9.62,85.07,0,0,22.46,12.14,59.87,6.17,9.59-1.53,21.43-10.86,33.61-12.54a6.58,6.58,0,0,0,5.74-5.54c1.72-12.15,4.57-42.42-5.86-61.82Z" transform="translate(0)"/><path class="cls-9" d="M63.14,133.2s18.5,14.42,40.71,2L67.09,154.35Z" transform="translate(0)"/><g class="cls-4"><polygon class="cls-5" points="67.09 154.35 91.05 164.01 91.05 148.55 113.48 157.87 108.35 132.11 110.83 154.96 89.78 146.31 89.65 161.56 67.09 154.35"/></g><g class="cls-4"><polygon class="cls-5" points="65.33 154.35 53.15 157.59 58.64 144.2 42.33 140.83 52.86 124.08 44.2 140.28 60.35 143.09 55.16 155.88 65.33 154.35"/></g><path class="cls-10" d="M41.7,210.64s14.37,19.1,95.38-1.48l-3.73,14.08s-55.77,18-87.5,2.74C45.85,226,42.8,215.66,41.7,210.64Z" transform="translate(0)"/><path class="cls-3" d="M65.33,161.06c-.88,4.6-1.36,9.25-1.78,13.89s-.67,9.3-.77,14c-.3,9.33,0,18.66.36,28-.58-4.64-1-9.31-1.26-14s-.26-9.36-.18-14.05C62.08,179.53,62.84,170.11,65.33,161.06Z" transform="translate(0)"/><path class="cls-11" d="M55.25,135.23a38.16,38.16,0,0,1-5.56-1.5l-2.59,5.06a14,14,0,0,0,5.82,1.3Z" transform="translate(0)"/><path class="cls-3" d="M54.24,135.7a37.61,37.61,0,0,1-4-1.17l-2.13,3.89a12.47,12.47,0,0,0,4.24,1Z" transform="translate(0)"/><g class="cls-12"><path d="M133.73,131.41a83.21,83.21,0,0,0-3.95-8h0l-.06-.07c-.3-.55-.63-1.08-.94-1.61a38.22,38.22,0,0,1-2.67-6.58c-5.17,6.8-12.3,13-19.65,18.33a37.79,37.79,0,0,1-5.27,3.12,45.22,45.22,0,0,0,.55,5c1.41,8.21,5,15.84,7.53,23.79a88.77,88.77,0,0,1-5.09,65.19c-6.09,12.3-15.11,23.59-17.72,37A49.91,49.91,0,0,0,102.56,266c9.87-2.74,15.85-7.3,18.25-12.32h0s20.52-35.27,20.52-82c0,0,0,0,0,0,0-.48,0-.95,0-1.42A98.86,98.86,0,0,0,133.73,131.41Z" transform="translate(0)"/></g><path class="cls-2" d="M111.87,235.1s-4.59,22,10.3,11.07c10-7.32,13.09-26.28,13.09-26.28Z" transform="translate(0)"/><path class="cls-13" d="M133.84,219.79A23.71,23.71,0,0,1,113.72,233c2.44-7.84,10.85-39.85-.25-79.3,2.83-1.34-4.15-4.88-4.15-4.88s12.54,37.39,0,87.29c22.32,1.6,25.91-16.1,26-16.33Z" transform="translate(0)"/><path class="cls-3" d="M110.49,153.25c12.92,32.07,1.38,81.13,1.38,81.13a25,25,0,0,0,23.39-14.49s10.83-42.48-1.39-78.45c-2.47-7.28-11.05-10.77-17.61-6.77a14.3,14.3,0,0,0-3.36,2.85A15.25,15.25,0,0,0,110.49,153.25Z" transform="translate(0)"/><path class="cls-11" d="M114.38,152.21a49.45,49.45,0,0,1,18.11-6.05s-1-3-1.41-5.23c0,0-11.85.86-17.6,5.92Z" transform="translate(0)"/><path class="cls-3" d="M114.87,151.22l-.74-4s3.91-4.46,16.41-5.47c0,0,.57,2.41,1.08,3.75A44.24,44.24,0,0,0,114.87,151.22Z" transform="translate(0)"/><g class="cls-4"><path class="cls-5" d="M115.16,146.57s7.55,51.71.93,86.8c0,0,6.4-18.07,5.79-49.66S115.16,146.57,115.16,146.57Z" transform="translate(0)"/></g><path class="cls-14" d="M130.74,150.16a44.4,44.4,0,0,0-7,1.92,2,2,0,0,0-1.21,2.48c3.31,10.64-2.25,18.88-6.32,23.19.31,4,.44,8,.43,11.87,9.85,2.22,17.49.58,22.59-1.54.25-4.46.35-9.24.2-14.2-6.2-7.14-7-15.39-6.39-21.55A2,2,0,0,0,130.74,150.16Z" transform="translate(0)"/><path d="M119.1,179.84a4.55,4.55,0,0,1,.94-.06,1.87,1.87,0,0,1,1.24.38,1.4,1.4,0,0,1,.38,1,1.52,1.52,0,0,1-.42,1.1,1.6,1.6,0,0,1-1.14.42h-.19l0,1.7-.91,0Zm.83,2.11.15,0c.46,0,.67-.31.68-.74s-.15-.72-.56-.73a.75.75,0,0,0-.23,0Z" transform="translate(0)"/><path d="M124.94,182.07c0,1.73-.61,2.43-1.51,2.43-1.08,0-1.48-1.12-1.47-2.38s.53-2.32,1.55-2.32S124.94,181,124.94,182.07Zm-2,.08c0,1,.18,1.57.56,1.57s.53-.68.53-1.61-.12-1.53-.53-1.53S122.91,181.16,122.91,182.15Z" transform="translate(0)"/><path d="M125.5,179.85h.89c0,1.53,0,2.29.07,3.83l1.21,0c0,.3,0,.45,0,.76-.86,0-1.29,0-2.14,0Z" transform="translate(0)"/><path d="M129,179.77c.07,1.83.1,2.75.17,4.58l-.93,0c-.05-1.83-.08-2.75-.13-4.58Z" transform="translate(0)"/><path d="M132.23,184.14a1.88,1.88,0,0,1-.7.15c-1.21.06-1.83-.88-1.88-2.18-.07-1.73.86-2.44,1.75-2.49a1.3,1.3,0,0,1,.63.08c0,.31-.06.46-.11.76a.93.93,0,0,0-.42-.06c-.51,0-.95.48-.89,1.62s.5,1.5,1,1.47a1.8,1.8,0,0,0,.44-.09C132.15,183.7,132.18,183.84,132.23,184.14Z" transform="translate(0)"/><path d="M133.36,179.54c.12,1.83.19,2.75.31,4.58l-.92.06c-.11-1.83-.17-2.75-.28-4.58Z" transform="translate(0)"/><path d="M135.15,183c-.05.43-.07.64-.12,1.06l-.89.07c.28-1.86.41-2.79.67-4.65l1.07-.09c.51,1.8.77,2.7,1.3,4.49l-.89.08c-.12-.41-.18-.61-.29-1Zm.71-.75c-.09-.38-.14-.56-.23-.94s-.17-.73-.24-1h0c0,.31-.05.79-.08,1.06s-.06.58-.09,1Z" transform="translate(0)"/><path d="M119.29,185.51l.77.15,0,.29-.43-.07c0,.18,0,.27-.09.45l.41.07-.05.29-.41-.08-.13.73-.36-.07C119.08,186.57,119.15,186.22,119.29,185.51Z" transform="translate(0)"/><path d="M120.67,185.76l-.28,1.76-.36-.05c.12-.71.18-1.06.29-1.77Z" transform="translate(0)"/><path d="M120.73,187.21a.69.69,0,0,0,.29.12c.17,0,.27-.05.29-.17s-.06-.2-.2-.32a.61.61,0,0,1-.28-.54.6.6,0,0,1,.92-.34c0,.11,0,.17-.09.29a.41.41,0,0,0-.22-.09c-.15,0-.24.06-.25.15s0,.17.21.31a.57.57,0,0,1,.26.55.55.55,0,0,1-.68.46.78.78,0,0,1-.35-.13Z" transform="translate(0)"/><path d="M122.71,187.79a.73.73,0,0,1-.28,0c-.48-.05-.67-.46-.6-1,.08-.67.49-.89.83-.85a.52.52,0,0,1,.24.07c0,.12-.05.17-.08.29a.34.34,0,0,0-.16-.05c-.2,0-.4.12-.45.56s.1.61.32.64h.17C122.71,187.62,122.71,187.68,122.71,187.79Z" transform="translate(0)"/><path d="M123.29,187.46l-.12.4-.35,0c.23-.7.34-1,.56-1.74l.42,0c.08.73.13,1.09.23,1.81l-.36,0,0-.42Zm.32-.24c0-.15,0-.23,0-.38s0-.29,0-.41h0c0,.12-.07.3-.1.4l-.1.37Z" transform="translate(0)"/><path d="M124.35,186.16l.35,0c0,.6,0,.9-.09,1.49l.48,0V188l-.85,0C124.28,187.23,124.3,186.87,124.35,186.16Z" transform="translate(0)"/><path d="M125.91,188c0-.27,0-.41,0-.68-.15-.45-.23-.67-.37-1.12h.37l.12.43.09.38h0l.09-.39c0-.16.07-.25.12-.41h.36c-.16.44-.25.65-.42,1.09,0,.28,0,.42,0,.7Z" transform="translate(0)"/><path d="M127.56,187.62c0,.16,0,.24-.07.41h-.36c.16-.71.24-1.07.38-1.79h.42c.16.71.24,1.07.41,1.78H128c0-.16-.06-.24-.09-.41Zm.3-.28-.07-.37-.07-.41h0c0,.12,0,.31-.06.41s0,.23-.06.38Z" transform="translate(0)"/><path d="M128.48,186.24l.36-.05a.74.74,0,0,1,.51.13,1,1,0,0,1,.28.71,1,1,0,0,1-.21.77.85.85,0,0,1-.57.2h-.3C128.52,187.29,128.51,186.94,128.48,186.24Zm.42,1.47H129c.17,0,.31-.18.29-.67s-.13-.59-.35-.57h-.07C128.87,187,128.88,187.22,128.9,187.71Z" transform="translate(0)"/><path d="M130.13,186.12c0,.46.06.69.09,1.16,0,.26.11.33.21.32s.17-.08.15-.35c0-.47-.06-.7-.11-1.16l.35,0c.05.43.07.65.11,1.09s-.12.73-.48.76-.56-.22-.59-.67-.05-.66-.08-1.1Z" transform="translate(0)"/><path d="M131.54,187.37c0,.17,0,.25,0,.41l-.35,0c.09-.73.13-1.09.21-1.82l.42-.05c.22.7.34,1,.58,1.73l-.36,0-.13-.4Zm.27-.3-.1-.37-.11-.39h0c0,.12,0,.3,0,.41s0,.23,0,.38Z" transform="translate(0)"/><path d="M132.56,187.66c-.09-.71-.14-1.07-.24-1.78l.32,0,.38.65c.08.13.2.34.27.49h0c0-.18-.11-.49-.16-.81,0-.16,0-.24-.06-.4l.3,0c.12.7.17,1.06.29,1.76l-.34.06-.38-.64c-.08-.14-.19-.35-.26-.5h0c0,.18.08.45.13.8l.06.4Z" transform="translate(0)"/><path d="M134.63,186.53l-.42.07c0,.19,0,.29.09.48l.47-.09c0,.12,0,.18.06.3l-.84.15-.3-1.76.77-.14c0,.12,0,.18.06.29l-.43.08.07.41.41-.08C134.59,186.36,134.6,186.41,134.63,186.53Z" transform="translate(0)"/><path d="M134.73,185.51l.37-.11a.75.75,0,0,1,.5,0,.47.47,0,0,1,.22.34.44.44,0,0,1-.18.49h0c.14,0,.22.12.3.3a2.48,2.48,0,0,0,.22.44l-.37.09a1.56,1.56,0,0,1-.18-.4c-.08-.21-.15-.26-.27-.24h-.05c.05.28.08.42.14.7l-.36.07C134.94,186.55,134.87,186.21,134.73,185.51Zm.5.7h.07a.26.26,0,0,0,.18-.33c0-.15-.12-.24-.27-.21l-.08,0Z" transform="translate(0)"/><path d="M136.56,186.5c0,.17,0,.25,0,.42l-.35.08c0-.73,0-1.1,0-1.83l.41-.1c.31.66.46,1,.78,1.65l-.34.08c-.07-.15-.11-.22-.18-.38Zm.24-.33-.15-.35c-.05-.1-.11-.27-.16-.38h0c0,.12,0,.31,0,.41s0,.23,0,.38Z" transform="translate(0)"/><path class="cls-15" d="M126.6,189.8a66.6,66.6,0,0,1-7.35-.43,2.26,2.26,0,0,1-2-2.24v-7.24a2.25,2.25,0,0,1,2.33-2.25c8.59.3,13.79-.27,16.64-.8a2.24,2.24,0,0,1,1.83.48,2.28,2.28,0,0,1,.81,1.74v7.17a2.26,2.26,0,0,1-1.51,2.13A35,35,0,0,1,126.6,189.8Zm-7.09-11.66a1.74,1.74,0,0,0-1.75,1.75v7.24a1.75,1.75,0,0,0,1.55,1.74c3.37.39,11.84,1.07,17.88-1a1.72,1.72,0,0,0,1.18-1.65v-7.17a1.74,1.74,0,0,0-.63-1.35,1.71,1.71,0,0,0-1.42-.37,79.49,79.49,0,0,1-16.74.8Z" transform="translate(0)"/><path class="cls-2" d="M85.76,15.94c-20.67,0-31.87,4.53-40.2,24.22C41.37,50,42.73,61.1,47.08,70.92a27.09,27.09,0,0,1,2,7.67,28,28,0,0,1,.13,5.61c-.83,10.14,2,20.4,9,27.66,7.16,7.44,15.67,11.86,24,11.86,17.11,0,43-26.16,43-58.43S114.44,15.94,85.76,15.94Z" transform="translate(0)"/><g class="cls-16"><path class="cls-17" d="M117.09,29.7c-1.88,16.81-5.44,38.66-11.85,50h0c-1.9,4.66-5.15,8.95-6.49,13.85s-.7,9.91-.82,14.89a49.79,49.79,0,0,1-1.42,10.38c14.36-9,28.65-29.58,28.65-53.56C125.15,49.86,122.71,38,117.09,29.7Z" transform="translate(0)"/></g><path d="M61.36,105.22a23.33,23.33,0,0,0,4.72.76,27.79,27.79,0,0,0,4.74,0,49.74,49.74,0,0,0,9.36-1.87,22.24,22.24,0,0,1-4.46,2,25.18,25.18,0,0,1-4.81,1C67.65,107.19,64.21,106.88,61.36,105.22Z" transform="translate(0)"/><ellipse cx="79.11" cy="77.73" rx="2.5" ry="3.98"/><path d="M76.27,71.59a4.75,4.75,0,0,1,4-1,4,4,0,0,1,1.93,1.1,3.79,3.79,0,0,1,.94,1.91,6,6,0,0,0-3.11-2A11,11,0,0,0,76.27,71.59Z" transform="translate(0)"/><ellipse cx="59.57" cy="77.73" rx="2.5" ry="3.98"/><path d="M56,72.75a4.78,4.78,0,0,1,3.49-2.29,3.91,3.91,0,0,1,2.18.42,3.74,3.74,0,0,1,1.51,1.49,6,6,0,0,0-3.58-.84A11,11,0,0,0,56,72.75Z" transform="translate(0)"/><path d="M66.79,81c0,3.81-1.88,7.36-3.5,10.61-.78,1.58-1.65,3.43-1.07,4.9.73,1.42,2.83,1.92,4.57,2.33-1.78-.09-4,0-5.31-2-1-2.11.16-4.07.84-5.75.88-1.7,1.8-3.26,2.57-4.94A24.88,24.88,0,0,0,66.79,81Z" transform="translate(0)"/><path class="cls-18" d="M96.66,50.44S93,60.73,105.33,63c0,0,4.44,10.49-1.61,20.37,0,0,6.46-4,8.88-16.44,2.26-11.57,17.67-.24,6.32,14.43A24.57,24.57,0,0,0,113.55,94c-.32,3.76.26,7.82,3.28,10.49,0,0-1.21-5.16,3.23-7.73,0,0,4.24,3.48,10.09-1.76,0,0-8.6-.41-5-7.87,0,0,19.12-69-30.91-77.07S41.41,50.62,43,66.56C43,66.56,61,69.81,96.66,50.44Z" transform="translate(0)"/><path class="cls-7" d="M47.71,62.23c10.68-2.66,21.28-5.41,31.4-9.44a78.14,78.14,0,0,0,14.57-7.15c4.5-2.89,8.83-6.46,11.14-11.52-1.47,5.44-5.76,9.65-10.21,12.89A69.52,69.52,0,0,1,79.9,54.79,130.47,130.47,0,0,1,64,59.62,115.89,115.89,0,0,1,47.71,62.23Z" transform="translate(0)"/><path class="cls-7" d="M44.69,55.69a46.48,46.48,0,0,1,3.53-17.35A42.75,42.75,0,0,1,58.33,23.58c4.49-4,9.65-7.39,15.41-9.06,2.78-1.16,5.8-1.4,8.68-2.08,2.94-.34,5.91-.42,8.84-.53-2.9.6-5.82.88-8.65,1.56-2.78.89-5.69,1.3-8.3,2.61a42,42,0,0,0-14.5,9.07A43.8,43.8,0,0,0,49.73,39,59.77,59.77,0,0,0,44.69,55.69Z" transform="translate(0)"/><path class="cls-7" d="M116.49,24.52A38.67,38.67,0,0,1,124,37.91a63.2,63.2,0,0,1,3.08,15.16,83.07,83.07,0,0,1-.36,15.45c-.31,2.56-.81,5.09-1.21,7.62l-1.86,7.49L125,76.05c.29-2.54.69-5.07.9-7.62A89.63,89.63,0,0,0,126,53.15a67,67,0,0,0-2.78-15A43.92,43.92,0,0,0,116.49,24.52Z" transform="translate(0)"/><g class="cls-19"><path d="M121.67,66.78a12.31,12.31,0,0,0-2.55-1.21,4.05,4.05,0,0,0-2.52-.11c-1.62.44-2.69,2.12-3.77,3.73a7.89,7.89,0,0,1,1-2.8,4.8,4.8,0,0,1,2.45-2A5.17,5.17,0,0,1,121.67,66.78Z" transform="translate(0)"/></g><g class="cls-4"><path d="M116.19,67A6.11,6.11,0,0,1,119,72.78a5.67,5.67,0,0,1-1.65,3,16,16,0,0,1-1.31,1l-1.48.69c1.58-1.45,3.11-3,3.38-4.89a5.17,5.17,0,0,0-.32-2.86A12.23,12.23,0,0,0,116.19,67Z" transform="translate(0)"/></g><path class="cls-7" d="M48.51,59.07a187.21,187.21,0,0,0,20.05-9.53c6.38-3.63,12.42-7.87,16.82-14a27.11,27.11,0,0,1-6.57,9.16,46.8,46.8,0,0,1-9.18,6.67,65.58,65.58,0,0,1-10.27,4.7A61.13,61.13,0,0,1,48.51,59.07Z" transform="translate(0)"/><path class="cls-9" d="M126.84,36.19a51.51,51.51,0,0,1-.18,5.36c-.1.15-.18.26-.29.4v0c-.32.47-.65.94-1,1.37a63.4,63.4,0,0,1-4.06,5,50.8,50.8,0,0,1-7,6.3c-.83.62-1.67,1.2-2.54,1.74a2.71,2.71,0,0,1-.43.29,12.41,12.41,0,0,1-1.12.69,6.4,6.4,0,0,1-1,.54c-.07.08-.11.11-.18.11a20.22,20.22,0,0,1-2.5,1.27c-.8.4-1.6.76-2.39,1.09h0a.31.31,0,0,1-.22.11,7.8,7.8,0,0,1-1.27.5,10.52,10.52,0,0,1-1.3.47,2,2,0,0,1-.65.22.47.47,0,0,1-.22.07,8.74,8.74,0,0,1-1.34.44c-.47.14-.94.25-1.41.4l-.87.21h0c-1.12.29-2.32.55-3.51.77l-.69.1L90.47,64h-.26c-4.85-3-9.56-5.8-14.16-8.19C66.08,50.57,56.7,47,48,45.28a.8.8,0,0,1-.26,0c-1.45-.25-2.86-.47-4.27-.62l.94-12.1.65-8.3a16.5,16.5,0,0,1,6.23-11.74C70.5-2.36,91.26-4.39,114,8.69,122.68,15.43,126.66,24.74,126.84,36.19Z" transform="translate(0)"/><path class="cls-3" d="M109.13,58s-21,13.91-31.51,21.92c-4.46,3.44-12.43,5.62-17.83,1.34-.33-.25-.65-.51-1-.76a59.39,59.39,0,0,0-16.71-7.83c-.18-.07-.36-.11-.54-.18a56,56,0,0,0-14-2.43,23.74,23.74,0,0,0-10.43,1.67C16.46,72,16,71,16.49,70.5c3.55-3.66,13.61-12.64,16.8-16,4.89-5.22,8.94-9.08,10.22-9.86C64.21,32,97.53,59.23,109.13,58Z" transform="translate(0)"/><path class="cls-15" d="M48.45,28.77a10.17,10.17,0,0,1,1.95-.32,3.68,3.68,0,0,1,2.68.55,2.83,2.83,0,0,1,1,2.07,3.3,3.3,0,0,1-.65,2.38,3.46,3.46,0,0,1-2.29,1.09l-.37,0,.25,3.6-1.88.14ZM50.65,33a1.4,1.4,0,0,0,.3,0c.95-.07,1.33-.78,1.26-1.68s-.45-1.48-1.32-1.42a1.37,1.37,0,0,0-.46.1Z" transform="translate(0)"/><path class="cls-15" d="M62.34,33.55c-.34,3.64-1.76,5-3.6,4.83-2.19-.2-2.84-2.6-2.6-5.25s1.5-4.83,3.64-4.63C62.12,28.71,62.54,31.34,62.34,33.55Zm-4.25-.22c-.2,2.2.11,3.35.87,3.43s1.23-1.34,1.41-3.3c.15-1.7,0-3.26-.81-3.33S58.28,31.25,58.09,33.33Z" transform="translate(0)"/><path class="cls-15" d="M65.52,29.4l1.85.38-1.61,7.95,2.45.49-.32,1.57-4.29-.87Z" transform="translate(0)"/><path class="cls-15" d="M73.94,31.4l-2.57,9.37-1.82-.5,2.57-9.37Z" transform="translate(0)"/><path class="cls-15" d="M78,42.78a3.74,3.74,0,0,1-1.46-.25c-2.34-.79-2.8-3.1-1.92-5.7,1.17-3.46,3.54-4.16,5.33-3.55a2.57,2.57,0,0,1,1.15.66l-.8,1.4a1.81,1.81,0,0,0-.77-.46c-1-.34-2.22.22-3,2.49s-.2,3.33.89,3.7a3.57,3.57,0,0,0,.9.16Z" transform="translate(0)"/><path class="cls-15" d="M85,35.26l-3.6,9-1.76-.7,3.6-9Z" transform="translate(0)"/><path class="cls-15" d="M86,43.82l-1.31,1.84L83,44.91l5.91-8,2,.93-2.28,9.61L87,46.73l.53-2.19Zm2-.69.55-2c.15-.58.43-1.51.62-2.13l0,0c-.36.55-.91,1.41-1.23,1.87l-1.16,1.69Z" transform="translate(0)"/><g class="cls-20"><path class="cls-10" d="M48.51,19.74a64.53,64.53,0,0,1,18.76.56,72.36,72.36,0,0,1,18.06,5.56A35.32,35.32,0,0,0,93.81,29a21.11,21.11,0,0,0,8.84-.4c5.82-1.55,10.82-5.7,14.6-10.6-3.06,5.41-7.91,10.14-14.12,12.19a20.62,20.62,0,0,1-9.65.75,37,37,0,0,1-9.06-3.14A78.56,78.56,0,0,0,67,21.93,90.42,90.42,0,0,0,48.51,19.74Z" transform="translate(0)"/></g></g></g></svg>