<svg xmlns="http://www.w3.org/2000/svg" viewBox="0 0 144.1 283.87"><defs><style>.cls-1{fill:#4d4d4d;}.cls-2{fill:#e6dab0;}.cls-3{fill:#363125;}.cls-4{opacity:0.25;}.cls-5{fill:#041015;}.cls-6{opacity:0.4;}.cls-7{fill:#c69c6d;}.cls-8{fill:#43402f;}.cls-9{fill:#1a1a1a;}.cls-10{fill:#fbb03b;}.cls-11{fill:#c19416;}.cls-12{fill:#ebba16;}.cls-13{fill:#ffeab6;}.cls-14{fill:#f9d367;}.cls-15{opacity:0.15;}.cls-16{fill:#272624;}.cls-17{opacity:0.1;}.cls-18{fill:#603813;}.cls-19{fill:#a67c52;}.cls-20{opacity:0.17;}.cls-21{fill:#28231b;}.cls-22{fill:#f5b400;}.cls-23{fill:#cf7c00;}</style></defs><title>Recurso 147</title><g id="Capa_2" data-name="Capa 2"><g id="personajes_individuales" data-name="personajes individuales"><ellipse class="cls-1" cx="72.05" cy="254" rx="72.05" ry="29.87"/><path class="cls-2" d="M142,170.74A98.83,98.83,0,0,0,134.4,132h0a83.18,83.18,0,0,0-3.94-8h0l-.06-.08c-.3-.55-.63-1.08-.94-1.6-2.25-4.22-7.36-16.69-5.06-40.27l-.05,0c.05-.7.11-1.39.11-2.1a34.56,34.56,0,0,0-69.11,0c0,.74,1.87,14.95-.72,29.79,0,0,0,0,0,0A48.63,48.63,0,0,1,51,121.34a79.43,79.43,0,0,0-5.51,10.59h0a98.64,98.64,0,0,0-7.65,38.81c0,.46,0,.92,0,1.37,0,0,0,0,0,.07,0,46.75,20.52,82,20.52,82h0c1.46,3.05,4.25,5.93,8.39,8.33,12.81,7.39,33.57,7.39,46.37,0,4.16-2.4,6.93-5.28,8.39-8.33h0s20.53-35.27,20.53-82c0,0,0,0,0,0C142,171.68,142,171.21,142,170.74Z"/><path class="cls-3" d="M134.4,132a83.18,83.18,0,0,0-3.94-8h0l-.06-.08c-.3-.55-.63-1.08-.94-1.6a38.75,38.75,0,0,1-2.67-6.59c-5.17,6.81-12.3,13-19.65,18.34a36.77,36.77,0,0,1-55-14.86l-.14-.3c-.36.93-.72,1.77-1,2.43a79.43,79.43,0,0,0-5.51,10.59h0a98.64,98.64,0,0,0-7.65,38.81c0,.46,0,.92,0,1.37,0,0,0,0,0,.07,0,46.75,20.52,82,20.52,82h0c2.4,5,8.33,9.52,18,12.27a49.85,49.85,0,0,0,26.9,0c9.87-2.74,15.85-7.29,18.25-12.32h0s20.53-35.27,20.53-82c0,0,0,0,0,0,0-.48,0-.95,0-1.42A98.83,98.83,0,0,0,134.4,132Z"/><g class="cls-4"><path class="cls-5" d="M126.6,116s-12.76,15-25.91,22C100.69,138,118.66,131.21,126.6,116Z"/></g><g class="cls-6"><g class="cls-6"><path class="cls-7" d="M126.84,115.74c-3.59-9.5-3.15-28.95-2.82-33.31l0,0c0-.7.08-1.39.07-2.1A34.55,34.55,0,0,0,55,81.91,93.59,93.59,0,0,1,55.28,110c3.73,5.81,13.14,17.88,28.5,18.26C104.8,128.78,110.88,106.69,126.84,115.74Z"/></g></g><path class="cls-8" d="M63.82,133.77s18.5,14.42,40.71,2L67.76,154.91Z"/><g class="cls-4"><polygon class="cls-5" points="67.76 154.91 91.73 164.58 91.73 149.11 114.16 158.44 109.03 132.68 111.5 155.52 90.46 146.88 90.33 162.13 67.76 154.91"/></g><g class="cls-4"><polygon class="cls-5" points="66 154.91 53.83 158.16 59.31 144.76 43.01 141.4 53.53 124.64 44.88 140.85 61.03 143.66 55.84 156.44 66 154.91"/></g><path class="cls-9" d="M42.38,211.2s14.37,19.11,95.38-1.48L134,223.8s-55.77,18-87.5,2.75C46.53,226.55,43.47,216.22,42.38,211.2Z"/><path class="cls-9" d="M66,158.16c-.87,4.59-1.35,9.24-1.78,13.88s-.66,9.31-.76,14c-.3,9.32,0,18.65.36,28-.58-4.64-1-9.3-1.26-14s-.26-9.37-.18-14.05C62.75,176.63,63.51,167.21,66,158.16Z"/><path class="cls-10" d="M43.37,158.8a46.63,46.63,0,0,0,17.51,4s-.63,2.9-.85,5c0,0-11.19.26-17-4Z"/><path class="cls-3" d="M43.92,159.68l-.34,3.8s4.07,3.84,15.88,3.67c0,0,.31-2.32.66-3.62A41.53,41.53,0,0,1,43.92,159.68Z"/><path class="cls-10" d="M55.92,135.8a39.34,39.34,0,0,1-5.56-1.51l-2.58,5.07a14,14,0,0,0,5.82,1.3Z"/><path class="cls-3" d="M54.91,136.27a36,36,0,0,1-4-1.18L48.76,139A12.65,12.65,0,0,0,53,140Z"/><g class="cls-4"><path class="cls-5" d="M96.83,176.3v0a1.84,1.84,0,0,0-.31-.75,4.9,4.9,0,0,1-.69-2.74A6.54,6.54,0,0,1,97.06,170l-2-2.24a2.51,2.51,0,0,1-1.87.41,3.13,3.13,0,0,1-2.09-.66,3.06,3.06,0,0,1-2.14.4,2.56,2.56,0,0,1-1.82-.64l-2.24,2a6.54,6.54,0,0,1,.88,3,4.87,4.87,0,0,1-1,2.63,1.73,1.73,0,0,0-.39.7v0a3.88,3.88,0,0,0,2.06,4.53c1.44.7,3.78,2,3.74,2.69,0-.73,2.54-1.69,4-2.21A3.89,3.89,0,0,0,96.83,176.3Z"/></g><path class="cls-11" d="M96.34,176v0a1.84,1.84,0,0,0-.31-.75,4.87,4.87,0,0,1-.69-2.73,6.54,6.54,0,0,1,1.23-2.84l-2-2.24a2.53,2.53,0,0,1-1.88.41,3.13,3.13,0,0,1-2.09-.66,3.06,3.06,0,0,1-2.14.4,2.56,2.56,0,0,1-1.82-.64l-2.24,2a6.48,6.48,0,0,1,.88,3,4.87,4.87,0,0,1-1,2.63,1.73,1.73,0,0,0-.39.7v0a3.88,3.88,0,0,0,2.06,4.53c1.44.7,3.78,2,3.74,2.7,0-.74,2.54-1.7,4-2.22A3.89,3.89,0,0,0,96.34,176Z"/><path class="cls-12" d="M89.78,180.79a17.18,17.18,0,0,0-3.37-2,2.82,2.82,0,0,1-1.52-3.29v0a.92.92,0,0,1,.16-.29,5.75,5.75,0,0,0,1.3-3.27,6.3,6.3,0,0,0-.62-2.78l1-.89a3.94,3.94,0,0,0,1.42.35h.3a5.48,5.48,0,0,0,2.09-.24,5.2,5.2,0,0,0,2,.49,1.87,1.87,0,0,0,.3,0,3.63,3.63,0,0,0,1.45-.17l.89,1a6.55,6.55,0,0,0-1,2.68,5.88,5.88,0,0,0,.89,3.41.85.85,0,0,1,.13.31v0a2.81,2.81,0,0,1-1.91,3.07A17.36,17.36,0,0,0,89.78,180.79Z"/><path class="cls-13" d="M93.1,174.17a2.91,2.91,0,1,1-2.72-3.08A2.9,2.9,0,0,1,93.1,174.17Z"/><path class="cls-14" d="M90.1,176.89l.87,3.26c.3-.13.62-.27,1-.41l-.81-3A3,3,0,0,1,90.1,176.89Z"/><path class="cls-14" d="M89.65,171.14,89,168.6h-.8l-.3,0,.79,3A2.93,2.93,0,0,1,89.65,171.14Z"/><g class="cls-15"><path d="M134.39,132a83.18,83.18,0,0,0-3.94-8h0l-.06-.08c-.3-.55-.63-1.08-.94-1.6a38.75,38.75,0,0,1-2.67-6.59c-5.17,6.81-12.3,13-19.65,18.34a36.22,36.22,0,0,1-5.27,3.11,47.44,47.44,0,0,0,.55,5c1.41,8.21,5,15.85,7.53,23.79a88.79,88.79,0,0,1-5.09,65.2c-6.09,12.3-15.11,23.59-17.72,37a50,50,0,0,0,16.1-1.64c9.87-2.74,15.84-7.29,18.25-12.32h0S142,219,142,172.2v0c0-.48,0-1,0-1.42A98.83,98.83,0,0,0,134.39,132Z"/></g><path class="cls-2" d="M112.8,234.71s-4.53,21.84,10.21,11c9.86-7.26,13-26,13-26Z"/><path class="cls-16" d="M134.57,219.54a23.47,23.47,0,0,1-19.93,13.1c2.42-7.76,10.75-39.48-.24-78.56,2.8-1.33-4.94-4.83-4.94-4.83s13.24,37,.8,86.47c22.12,1.58,25.67-15.95,25.72-16.18Z"/><path class="cls-3" d="M109.46,149.25C125.34,180.7,112.8,234,112.8,234A24.81,24.81,0,0,0,136,219.64s10.71-42-1.35-77.62c-2.41-7.14-11-10.72-17.47-6.8C109.75,139.75,109.46,149.25,109.46,149.25Z"/><path class="cls-10" d="M132.92,148.17a49,49,0,0,1-17.36,7.51s1.2,2.88,1.83,5c0,0,11.63-1.86,16.87-7.33Z"/><path class="cls-3" d="M132.52,149.19l1.07,3.87s-3.49,4.74-15.74,6.8a37.52,37.52,0,0,0-1.38-3.62A43.89,43.89,0,0,0,132.52,149.19Z"/><g class="cls-4"><path class="cls-5" d="M116.07,147s7.48,51.23.92,86c0,0,6.34-17.9,5.73-49.19S116.07,147,116.07,147Z"/></g><path class="cls-2" d="M88.31,16.5c-20.67,0-31.87,4.54-40.2,24.22-4.19,9.89-2.83,21,1.52,30.76a27.16,27.16,0,0,1,2,7.68,28,28,0,0,1,.13,5.61c-.83,10.14,2,20.4,9,27.65,7.16,7.45,15.67,11.87,24,11.87,17.11,0,43-26.16,43-58.43S117,16.5,88.31,16.5Z"/><g class="cls-17"><path class="cls-18" d="M119.64,30.64c-1.88,16.81-5.44,38.66-11.85,50h0c-1.91,4.65-5.16,9-6.5,13.85s-.7,9.9-.82,14.89a49.79,49.79,0,0,1-1.42,10.38c14.36-9,28.65-29.58,28.65-53.57C127.7,50.8,125.26,38.91,119.64,30.64Z"/></g><path d="M63.91,105.78a22.66,22.66,0,0,0,4.73.77,28.75,28.75,0,0,0,4.73,0,49,49,0,0,0,9.36-1.88,22.28,22.28,0,0,1-4.46,2,25.16,25.16,0,0,1-4.81,1C70.2,107.75,66.76,107.45,63.91,105.78Z"/><ellipse cx="81.66" cy="78.3" rx="2.5" ry="3.98"/><path d="M78.82,72.15a4.81,4.81,0,0,1,4-1,4,4,0,0,1,1.93,1.11,3.79,3.79,0,0,1,.94,1.9,6,6,0,0,0-3.11-2A11.47,11.47,0,0,0,78.82,72.15Z"/><ellipse cx="62.12" cy="78.3" rx="2.5" ry="3.98"/><path d="M58.51,73.31A4.8,4.8,0,0,1,62,71a3.91,3.91,0,0,1,2.18.42,3.78,3.78,0,0,1,1.51,1.48,6,6,0,0,0-3.58-.83A11.25,11.25,0,0,0,58.51,73.31Z"/><path d="M69.35,81.55c0,3.82-1.89,7.36-3.51,10.61-.78,1.59-1.65,3.44-1.07,4.9.73,1.43,2.83,1.92,4.58,2.34-1.79-.09-4-.05-5.32-2-1-2.11.16-4.08.84-5.75.88-1.7,1.8-3.27,2.57-5A25.49,25.49,0,0,0,69.35,81.55Z"/><path class="cls-19" d="M99.21,51s-3.63,10.29,8.67,12.51c0,0,4.44,10.5-1.61,20.38,0,0,6.46-4,8.88-16.44,2.26-11.57,17.68-.24,6.32,14.43A24.62,24.62,0,0,0,116.1,94.6c-.32,3.76.26,7.81,3.28,10.49,0,0-1.21-5.16,3.23-7.73,0,0,4.24,3.48,10.09-1.77,0,0-8.6-.4-5-7.86,0,0,19.12-69-30.91-77.08S44,51.19,45.58,67.13C45.58,67.13,63.5,70.37,99.21,51Z"/><path class="cls-7" d="M50.26,62.8c10.68-2.66,21.28-5.42,31.4-9.45A77.53,77.53,0,0,0,96.23,46.2c4.5-2.88,8.83-6.45,11.14-11.51-1.47,5.44-5.75,9.65-10.21,12.88a69.11,69.11,0,0,1-14.71,7.79,130.47,130.47,0,0,1-15.86,4.83A115.89,115.89,0,0,1,50.26,62.8Z"/><path class="cls-7" d="M47.24,56.25A46.34,46.34,0,0,1,50.78,38.9a42.77,42.77,0,0,1,10.1-14.76c4.49-4,9.65-7.38,15.42-9,2.77-1.16,5.79-1.4,8.67-2.09,2.94-.34,5.91-.41,8.84-.53-2.9.61-5.82.89-8.65,1.57-2.78.89-5.69,1.29-8.3,2.61a42,42,0,0,0-14.5,9.06A43.91,43.91,0,0,0,52.28,39.57,60.11,60.11,0,0,0,47.24,56.25Z"/><path class="cls-7" d="M119.05,25.09a38.71,38.71,0,0,1,7.54,13.39,63.22,63.22,0,0,1,3.08,15.15,83.18,83.18,0,0,1-.36,15.46c-.31,2.55-.81,5.08-1.21,7.62l-1.86,7.48,1.34-7.57c.29-2.54.69-5.07.9-7.62a89.63,89.63,0,0,0,.11-15.28,66.86,66.86,0,0,0-2.78-15A44,44,0,0,0,119.05,25.09Z"/><g class="cls-20"><path d="M124.23,67.34a12.06,12.06,0,0,0-2.56-1.2,4,4,0,0,0-2.51-.11c-1.62.44-2.7,2.12-3.78,3.73a7.82,7.82,0,0,1,1-2.8,4.75,4.75,0,0,1,2.45-2A5.2,5.2,0,0,1,124.23,67.34Z"/></g><g class="cls-4"><path d="M118.74,67.56a6.1,6.1,0,0,1,2.84,5.79,5.67,5.67,0,0,1-1.65,3,12.79,12.79,0,0,1-1.31,1l-1.48.7c1.58-1.45,3.11-3,3.38-4.89a5.15,5.15,0,0,0-.32-2.86A12.23,12.23,0,0,0,118.74,67.56Z"/></g><path class="cls-7" d="M51.06,59.64a185.37,185.37,0,0,0,20-9.54c6.38-3.63,12.42-7.86,16.82-14a27,27,0,0,1-6.57,9.17A47.21,47.21,0,0,1,72.18,52a66.5,66.5,0,0,1-10.27,4.7A61.13,61.13,0,0,1,51.06,59.64Z"/><path d="M102.59,64.53s-25,24.91-54.59,5c-13.5-9.11-1.73-25.09-1.73-25.09Z"/><path class="cls-21" d="M58.58,17.36C75,9,101.64,9,118.07,17.37c8.21,4.18,12.32,9.65,12.32,15.13V44.39c0,5.48-4.11,11-12.32,15.14-16.43,8.36-43.06,8.36-59.49,0-8.21-4.18-12.31-9.66-12.31-15.14V32.5C46.27,27,50.37,21.55,58.58,17.36Z"/><path class="cls-3" d="M50.26,18.18a36.59,36.59,0,0,1,7.05-4.58c17.25-8.79,45.23-8.79,62.49,0S130.24,42,120.82,51c-18.34,8-43.51,5.13-59.46-3.22-21.62-11.27-28.21-28-28.21-28Z"/><path class="cls-21" d="M38.46,16.11c2.45-1.13,5.65-2.59,9.61-4.61C68.87.92,102.6-2.65,123.39,7.94s20.81,31.32,0,41.91S68.87,37.62,48.07,27c-10.41-5.3-15.61-6.81-15.61-8.33V16.11Z"/><path class="cls-3" d="M48.07,24.59c20.8,10.58,54.53,32.28,75.32,21.69s20.81-27.75,0-38.34-54.52-10.59-75.32,0S27.26,14,48.07,24.59Z"/><path class="cls-22" d="M53.68,40.75c-.08-1.45-1.23-2.56-1.33-3s2.66-1.46,3-1.37,1.77,1.83,2.47,2.19,2,.11,2.6.39,1.91,1.91,2.61,2.27,2.15.09,2.48.32,3.08,4,3,4.4-1.25.29-1.34,1.66c-.06,1,2.88,7.44,1.65,10.58s-5.93.77-6.53.71-1.26.61-1.84.32S59.17,57.55,58.57,57s-5.29-2.95-6.52-7.35S53.75,41.85,53.68,40.75Z"/><path class="cls-23" d="M65,42.81a21.63,21.63,0,0,1,1.6,2.29l-.09.08a2.2,2.2,0,0,0-1,1.77A8.41,8.41,0,0,0,66,49.06c.66,2,1.75,5.48,1.11,7.44-.73,2.25-3.39,1.35-4.67.92a2.55,2.55,0,0,0-.68-.19,1.83,1.83,0,0,0-.89.25,1.63,1.63,0,0,1-.51.2c-.12-.14-.35-.49-.5-.71A6.67,6.67,0,0,0,59,55.8a5.64,5.64,0,0,0-.68-.49c-1.28-.88-3.94-2.69-4.67-5.67a9.39,9.39,0,0,1,1.12-6.31,3.75,3.75,0,0,0,.53-1.57A5.81,5.81,0,0,0,54.21,39s-.05-.09-.07-.14a6.19,6.19,0,0,1,1.67-.73l.63.61a9.44,9.44,0,0,0,1.79,1.53,3.41,3.41,0,0,0,1.46.26,2.84,2.84,0,0,1,.71.06,5.65,5.65,0,0,1,.73.67,7.19,7.19,0,0,0,1.45,1.23,4.23,4.23,0,0,0,1.78.27l.62,0Zm.06-.6c-.33-.17-1.89,0-2.46-.3S60.88,40.25,60.4,40s-1.58,0-2.17-.31-2.16-2-2.49-2.21h0c-.27-.08-2.35.72-2.26,1.12s1.22,1.63,1.26,2.9c0,.95-2.6,4-1.62,8s5.15,6.23,5.67,6.73,1.13,1.79,1.63,2,1.11-.43,1.63-.39S66.72,60,67.71,57s-1.65-8.76-1.62-9.68c0-1.21,1.09-1.49,1.16-1.81s-1.92-3-2.18-3.24Z"/></g></g></svg>