<svg xmlns="http://www.w3.org/2000/svg" viewBox="0 0 165.98 296.5"><defs><style>.cls-1{isolation:isolate;}.cls-2{fill:#4d4d4d;}.cls-3{fill:#664020;}.cls-4{fill:#30312c;}.cls-5{opacity:0.25;}.cls-6{fill:#041015;}.cls-7{opacity:0.4;}.cls-8{fill:#603813;}.cls-9{fill:#828c84;}.cls-10{fill:#1a1a1a;}.cls-11{fill:#fbb03b;}.cls-12{fill:#363125;}.cls-13{opacity:0.15;}.cls-14{fill:#e39a19;}.cls-15{fill:#1b1610;}.cls-16{fill:#fff;}.cls-17{fill:#98271c;}.cls-18{fill:#07615f;}.cls-19{fill:#40a3b8;}.cls-20{fill:#f67811;}.cls-21{fill:#ffaf66;}.cls-22{fill:#bf834d;}.cls-23{fill:#bec0d0;}.cls-24{fill:#dfe0e7;}.cls-25{fill:#a9abc0;}.cls-26{fill:#7d81a0;}.cls-27{fill:#686c90;}.cls-28{mix-blend-mode:multiply;}.cls-29{fill:#f5b400;}.cls-30{opacity:0.7;}.cls-31{fill:#754c24;}.cls-32{fill:#272624;}.cls-33{opacity:0.17;}.cls-34{fill:#2c2c24;}</style></defs><title>Recurso 145</title><g class="cls-1"><g id="Capa_2" data-name="Capa 2"><g id="personajes_individuales" data-name="personajes individuales"><ellipse class="cls-2" cx="72.05" cy="266.63" rx="72.05" ry="29.87"/><path class="cls-3" d="M140.27,183.52a98.69,98.69,0,0,0-7.63-38.77h0a85.57,85.57,0,0,0-3.94-8h0l0-.07c-.31-.55-.63-1.08-.94-1.61-2.25-4.21-7.36-16.69-5.07-40.27l0,0c0-.7.11-1.39.11-2.09a34.56,34.56,0,1,0-69.11,0c0,.73,1.86,14.94-.73,29.78,0,0,0,0,0,0a48.51,48.51,0,0,1-3.66,11.63,78.87,78.87,0,0,0-5.51,10.59h0A98.59,98.59,0,0,0,36,183.52c0,.46,0,.93,0,1.38,0,0,0,0,0,.07,0,46.75,20.52,82,20.52,82h0C58,270,60.82,272.91,65,275.32c12.8,7.39,33.57,7.39,46.36,0,4.16-2.41,6.94-5.28,8.4-8.33h0s20.52-35.27,20.52-82v0C140.25,184.46,140.27,184,140.27,183.52Z"/><path class="cls-4" d="M132.64,144.75a85.57,85.57,0,0,0-3.94-8h0l0-.07c-.31-.55-.63-1.08-.94-1.61a38.06,38.06,0,0,1-2.68-6.58c-5.17,6.8-12.29,13-19.64,18.33a36.78,36.78,0,0,1-55-14.85l-.13-.31c-.37.93-.72,1.77-1,2.43a78.87,78.87,0,0,0-5.51,10.59h0A98.59,98.59,0,0,0,36,183.52c0,.46,0,.93,0,1.38,0,0,0,0,0,.07,0,46.75,20.52,82,20.52,82h0c2.39,5,8.32,9.53,18,12.27a50,50,0,0,0,26.91.06c9.87-2.74,15.84-7.3,18.25-12.32h0s20.52-35.27,20.52-82v0c0-.48,0-.95,0-1.42A98.69,98.69,0,0,0,132.64,144.75Z"/><g class="cls-5"><path class="cls-6" d="M125.36,128.52s-12.76,15-25.91,22C99.45,150.5,117.42,143.76,125.36,128.52Z"/></g><g class="cls-7"><path class="cls-8" d="M125.09,128.53c-3.6-9.5-3.15-28.95-2.83-33.32a0,0,0,0,1,0,0c0-.7.08-1.39.06-2.09a34.55,34.55,0,1,0-69.09,1.59,93.29,93.29,0,0,1,.33,28.1C57.26,128.59,66.67,140.66,82,141,103.05,141.56,109.13,119.48,125.09,128.53Z"/></g><path class="cls-9" d="M62.07,146.55s18.5,14.42,40.7,2L66,167.7Z"/><g class="cls-5"><polygon class="cls-6" points="66.01 167.7 89.98 177.37 89.98 161.9 112.4 171.22 107.28 145.46 109.75 168.31 88.71 159.66 88.57 174.91 66.01 167.7"/></g><g class="cls-5"><polygon class="cls-6" points="64.25 167.7 52.07 170.94 57.56 157.55 41.25 154.19 51.78 137.43 43.13 153.63 59.28 156.44 54.08 169.23 64.25 167.7"/></g><path class="cls-10" d="M40.63,224s57.12,6.49,96.2-5.36c0,0-3.56,14.35-4.69,18.26,0,0-48.42,12.29-87.37,2.45C44.77,239.34,41.72,229,40.63,224Z"/><path class="cls-10" d="M64.25,170.94c-.88,4.6-1.35,9.25-1.78,13.89s-.67,9.3-.77,14c-.3,9.33,0,18.66.37,28-.58-4.64-1-9.31-1.27-14s-.26-9.36-.18-14.05C61,189.41,61.76,180,64.25,170.94Z"/><path class="cls-11" d="M54.17,148.58a38.16,38.16,0,0,1-5.56-1.5L46,152.14a14,14,0,0,0,5.83,1.3Z"/><path class="cls-12" d="M53.16,149.05a34.59,34.59,0,0,1-4-1.17L47,151.77a12.46,12.46,0,0,0,4.23,1Z"/><g class="cls-13"><path d="M132.64,144.75a85.57,85.57,0,0,0-3.94-8h0l0-.07c-.31-.55-.63-1.08-.94-1.61a38.06,38.06,0,0,1-2.68-6.58c-5.17,6.8-12.29,13-19.64,18.33a37.39,37.39,0,0,1-5.27,3.12,45,45,0,0,0,.55,5c1.4,8.21,5,15.84,7.53,23.79A88.82,88.82,0,0,1,103.11,244c-6.09,12.3-15.12,23.59-17.72,37a49.91,49.91,0,0,0,16.09-1.63c9.87-2.74,15.84-7.3,18.25-12.32h0s20.52-35.27,20.52-82v0c0-.48,0-.95,0-1.42A98.69,98.69,0,0,0,132.64,144.75Z"/></g><polygon class="cls-14" points="64.42 131.14 67.25 113.95 60.48 110 64.42 131.14"/><path class="cls-14" d="M66,167.7l15.46-14.25a39.18,39.18,0,0,0,21.3-4.89Z"/><path class="cls-15" d="M69.23,114.59l-2.77,4.14-2,12.41,10.51-9.68.59-5.09A30.45,30.45,0,0,1,69.23,114.59Z"/><path class="cls-16" d="M45.09,176.36a25.09,25.09,0,0,0,9.62,2.16s-.33,1.63-.44,2.82c0,0-6.12.21-9.35-2.12Z"/><path class="cls-17" d="M45.39,176.85,45.23,179s2.25,2.13,8.72,2c0,0,.16-1.3.34-2A22.36,22.36,0,0,1,45.39,176.85Z"/><path class="cls-18" d="M45.28,172.68a26.64,26.64,0,0,0,10,2.19s-.34,1.67-.46,2.89c0,0-6.39.21-9.76-2.16Z"/><path class="cls-19" d="M45.6,173.18l-.17,2.17s2.36,2.17,9.11,2a19.85,19.85,0,0,1,.36-2.07A24,24,0,0,1,45.6,173.18Z"/><path class="cls-20" d="M39.78,184a7.21,7.21,0,0,1-.63-.64,2.28,2.28,0,0,1-.57.15,7.44,7.44,0,0,1,.69,1.22A1.89,1.89,0,0,1,39.78,184Z"/><path class="cls-20" d="M42.21,157.06a8.07,8.07,0,0,1,.79-1.12,1,1,0,0,1-.32-.28,6.2,6.2,0,0,1-.61.55A2.7,2.7,0,0,1,42.21,157.06Z"/><path class="cls-20" d="M39.53,186.93a1.85,1.85,0,0,1,.47-.67,8.85,8.85,0,0,1-.64-.69,1.85,1.85,0,0,1-.55.15A8.18,8.18,0,0,1,39.53,186.93Z"/><path class="cls-20" d="M38.2,183.68h0c-.13,0-.18.33-.21.54A1.19,1.19,0,0,0,38,185c.19.26.67.22,1,.09A4.34,4.34,0,0,0,38.2,183.68Z"/><path class="cls-20" d="M39.17,170c-.15-.51-.38-1.05-.59-1.06h0c-.11,0-.23.26-.35.64a1.29,1.29,0,0,0-.1.66C38.19,170.49,38.73,170.26,39.17,170Z"/><path class="cls-20" d="M39.47,167.84c-.13-.49-.34-1-.53-1h0c-.12,0-.22.26-.36.65a1.47,1.47,0,0,0-.12.66C38.51,168.41,39.05,168.17,39.47,167.84Z"/><path class="cls-20" d="M38.85,182.88a3.66,3.66,0,0,0-.91-1.36h0c-.12,0-.21.17-.27.54a1.23,1.23,0,0,0,0,.69C37.87,183.07,38.45,183,38.85,182.88Z"/><path class="cls-20" d="M40.74,161.51c-.07-.39-.21-.9-.43-.87l-.07,0c-.13.07-.26.29-.43.68a1.49,1.49,0,0,0-.17.6C39.69,162.26,40.26,161.92,40.74,161.51Z"/><path class="cls-20" d="M40.53,186.79c-.22-.16-.5.26-.68.66.44.5,1,1.05,1.16.93s.05-.34-.1-.77C40.82,187.35,40.69,186.89,40.53,186.79Z"/><path class="cls-20" d="M40.25,184.54c-.2-.14-.51.31-.68.73.41.47,1,1,1.1.86a1.38,1.38,0,0,0-.08-.78A2.12,2.12,0,0,0,40.25,184.54Z"/><path class="cls-20" d="M38.39,185.79l0,0c-.13,0-.19.32-.2.52a1.3,1.3,0,0,0,.11.74c.2.28.68.28,1.05.16A4.4,4.4,0,0,0,38.39,185.79Z"/><path class="cls-20" d="M41.31,159.43c-.05-.39-.17-.88-.37-.83l-.07,0a1.63,1.63,0,0,0-.43.69,1.6,1.6,0,0,0-.2.6C40.28,160.22,40.83,159.86,41.31,159.43Z"/><path class="cls-20" d="M40.84,161.88a5.35,5.35,0,0,1-.59.46,3.06,3.06,0,0,1,.26.94,7.66,7.66,0,0,1,.72-1.06A1.77,1.77,0,0,1,40.84,161.88Z"/><path class="cls-20" d="M41.94,157.38c0-.38-.1-.86-.31-.8l-.06,0a1.88,1.88,0,0,0-.44.7,1.94,1.94,0,0,0-.22.6C40.93,158.18,41.48,157.82,41.94,157.38Z"/><path class="cls-20" d="M40.26,163.61c-.08-.47-.22-1-.4-.93l0,0c-.11.05-.23.27-.39.66a1.78,1.78,0,0,0-.15.66C39.34,164.27,39.85,164,40.26,163.61Z"/><path class="cls-20" d="M40.36,164a4.69,4.69,0,0,1-.58.46,4.19,4.19,0,0,1,.3,1,6.39,6.39,0,0,1,.68-1A2.13,2.13,0,0,1,40.36,164Z"/><path class="cls-20" d="M42,157.72a5.48,5.48,0,0,1-.62.53,3.38,3.38,0,0,1,.19.88,11.25,11.25,0,0,1,.79-1.11A1,1,0,0,1,42,157.72Z"/><path class="cls-20" d="M41.39,159.79a5.9,5.9,0,0,1-.63.51,2.94,2.94,0,0,1,.25.91,8.61,8.61,0,0,1,.77-1.1A1.09,1.09,0,0,1,41.39,159.79Z"/><path class="cls-20" d="M40.49,169c-.2-.1-.61.48-.9,1,.35.36.84.72,1,.43a1.85,1.85,0,0,0,.07-.71C40.65,169.31,40.6,169.08,40.49,169Z"/><path class="cls-20" d="M41.11,164.66c-.18-.09-.59.53-.9,1.05.31.32.72.6.9.31a1.77,1.77,0,0,0,.11-.7C41.23,164.92,41.2,164.7,41.11,164.66Z"/><path class="cls-20" d="M43.3,156.11c-.18-.06-.67.66-1,1.16.25.26.64.42.84.06a2.52,2.52,0,0,0,.18-.62C43.38,156.34,43.39,156.14,43.3,156.11Z"/><path class="cls-20" d="M40.19,182.37c-.26-.17-.6.32-.81.71.44.49,1.08,1,1.22.85s0-.52-.07-.74C40.42,182.72,40.32,182.45,40.19,182.37Z"/><path class="cls-20" d="M41.52,162.49c-.17-.07-.58.55-.89,1.09.27.29.66.55.84.25a1.88,1.88,0,0,0,.13-.69C41.63,162.74,41.61,162.53,41.52,162.49Z"/><path class="cls-20" d="M42.68,158.21c-.2-.07-.67.65-1,1.15.27.26.69.46.9.1a2.23,2.23,0,0,0,.16-.63C42.78,158.44,42.77,158.24,42.68,158.21Z"/><path class="cls-20" d="M39,181.22a1.9,1.9,0,0,1-.6.2,9,9,0,0,1,.69,1.21,2.62,2.62,0,0,1,.56-.75A7.69,7.69,0,0,1,39,181.22Z"/><path class="cls-20" d="M42.14,160.34c-.21-.09-.69.63-1,1.12.3.29.75.5,1,.15a2.26,2.26,0,0,0,.13-.64C42.25,160.58,42.24,160.37,42.14,160.34Z"/><path class="cls-20" d="M40,175.65c-.22-.11-.57.44-.8.87.38.41.88.85,1,.63a1.64,1.64,0,0,0,0-.74C40.14,176,40.06,175.71,40,175.65Z"/><path class="cls-20" d="M40,177.89c-.22-.14-.58.4-.8.82.4.44.94.9,1.09.7a1.33,1.33,0,0,0,0-.74C40.16,178.21,40.07,178,40,177.89Z"/><path class="cls-20" d="M40,180.12c-.26-.15-.6.37-.81.77.43.46,1,1,1.16.77s0-.52,0-.74A1.7,1.7,0,0,0,40,180.12Z"/><path class="cls-20" d="M39.83,165.72c-.09-.48-.27-1-.47-1h0c-.11.06-.22.28-.37.66s-.19.53-.14.66S39.41,166.06,39.83,165.72Z"/><path class="cls-20" d="M40,173.43c-.21-.11-.57.47-.8.91.35.39.82.79,1,.57a1.6,1.6,0,0,0,0-.74C40.19,173.72,40.12,173.48,40,173.43Z"/><path class="cls-20" d="M40.77,166.83c-.2-.09-.61.5-.9,1,.32.34.78.66,1,.37a1.78,1.78,0,0,0,.09-.7C40.91,167.11,40.86,166.88,40.77,166.83Z"/><path class="cls-20" d="M40.16,171.21c-.19-.09-.56.5-.79,1,.32.36.76.73.91.5a1.71,1.71,0,0,0,.06-.74C40.32,171.5,40.25,171.26,40.16,171.21Z"/><path class="cls-20" d="M37.6,178.58c.17.29.7.18,1.09,0-.23-.52-.54-1.18-.77-1.25h0c-.11,0-.2.19-.28.57A1.5,1.5,0,0,0,37.6,178.58Z"/><path class="cls-20" d="M38.93,179.05a2.1,2.1,0,0,1-.59.24,7.91,7.91,0,0,1,.63,1.17,2.69,2.69,0,0,1,.57-.79A6.83,6.83,0,0,1,38.93,179.05Z"/><path class="cls-20" d="M39.13,172.55a2.38,2.38,0,0,1-.56.35,5.33,5.33,0,0,1,.46,1,5.07,5.07,0,0,1,.59-.89A3.2,3.2,0,0,1,39.13,172.55Z"/><path class="cls-20" d="M39,174.71a2.54,2.54,0,0,1-.56.31,5.93,5.93,0,0,1,.51,1.09,3.83,3.83,0,0,1,.58-.86A4.34,4.34,0,0,1,39,174.71Z"/><path class="cls-20" d="M38.93,176.88a2.26,2.26,0,0,1-.58.27,6.31,6.31,0,0,1,.57,1.13,3.11,3.11,0,0,1,.57-.82A4.12,4.12,0,0,1,38.93,176.88Z"/><path class="cls-20" d="M37.66,176.51c.15.27.66.13,1.05-.1-.21-.51-.49-1.15-.7-1.2h0c-.11,0-.21.21-.29.59A1.43,1.43,0,0,0,37.66,176.51Z"/><path class="cls-20" d="M37.62,180.67c.17.3.71.22,1.11.05-.23-.54-.6-1.23-.83-1.3h0c-.11,0-.22.18-.28.56A1.37,1.37,0,0,0,37.62,180.67Z"/><path class="cls-20" d="M39,172.11c-.15-.48-.37-1.08-.57-1.11h0c-.1,0-.21.24-.31.62a1.41,1.41,0,0,0-.06.69C38.1,172.58,38.58,172.38,39,172.11Z"/><path class="cls-20" d="M39.33,170.39a2.76,2.76,0,0,1-.56.35,4.9,4.9,0,0,1,.42,1,4.86,4.86,0,0,1,.61-.94A3,3,0,0,1,39.33,170.39Z"/><path class="cls-20" d="M39.61,168.25a3.83,3.83,0,0,1-.6.41,4.63,4.63,0,0,1,.41,1,5.38,5.38,0,0,1,.66-1A3.45,3.45,0,0,1,39.61,168.25Z"/><path class="cls-20" d="M40,166.11a3.21,3.21,0,0,1-.59.44,3.39,3.39,0,0,1,.35,1,6.76,6.76,0,0,1,.68-1A2.26,2.26,0,0,1,40,166.11Z"/><path class="cls-20" d="M37.79,174.42c.13.26.64.09,1-.16-.17-.49-.44-1.12-.64-1.15a0,0,0,0,0,0,0c-.1,0-.21.22-.3.6C37.79,173.91,37.7,174.26,37.79,174.42Z"/><path class="cls-20" d="M40,162.66a1.53,1.53,0,0,0-.44.69c-.19.5-.18.75-.12.88l-.2-.06c0-.14,0-.29,0-.43s.11-.35.16-.53l.23-.46.24-.16.17,0"/><path class="cls-20" d="M44.42,158.84a7.45,7.45,0,0,1-.88,1.1,1.8,1.8,0,0,1,.53.23c.17-.13.43-.34.73-.53A1.86,1.86,0,0,1,44.42,158.84Z"/><path class="cls-20" d="M42.6,187.48a7.78,7.78,0,0,1,.51.64,1.18,1.18,0,0,1,.36-.22,10.47,10.47,0,0,1-.6-1.23A2.67,2.67,0,0,1,42.6,187.48Z"/><path class="cls-20" d="M44.12,157.83a1.64,1.64,0,0,1,.51.23c.17-.14.47-.38.75-.58a1.67,1.67,0,0,1-.36-.73A8.73,8.73,0,0,1,44.12,157.83Z"/><path class="cls-20" d="M44.25,158.54c-.32-.19-.79-.3-1-.07a1.17,1.17,0,0,0-.2.71c0,.21,0,.57.12.57h0C43.41,159.69,43.87,159.08,44.25,158.54Z"/><path class="cls-20" d="M40.91,173a1.34,1.34,0,0,0,0,.67c.06.4.14.63.24.68s0,0,0,0c.21,0,.53-.47.75-.94C41.56,173.07,41.06,172.76,40.91,173Z"/><path class="cls-20" d="M40.9,175.11a1.52,1.52,0,0,0,0,.67c.08.41.15.63.26.7h0c.19,0,.48-.45.68-.91C41.54,175.19,41,174.87,40.9,175.11Z"/><path class="cls-20" d="M42.52,160.59a1.17,1.17,0,0,0-.15.67c0,.37.05.56.17.57h.05c.24-.05.76-.69,1.11-1.19C43.33,160.44,42.77,160.3,42.52,160.59Z"/><path class="cls-20" d="M41.12,181.42a1.68,1.68,0,0,0,.07.62,1.5,1.5,0,0,0,.32.74.08.08,0,0,0,.06,0c.21.07.44-.41.57-.79C41.73,181.55,41.22,181.13,41.12,181.42Z"/><path class="cls-20" d="M45.81,158.48c.19-.41.25-.68.2-.75s-.74.26-1.22.67c.1.44.34.93.56.82S45.69,158.73,45.81,158.48Z"/><path class="cls-20" d="M44.85,156.45a1,1,0,0,0-1.07,0,1.3,1.3,0,0,0-.22.71c0,.2,0,.55.12.54h0A4.57,4.57,0,0,0,44.85,156.45Z"/><path class="cls-20" d="M41.39,183.52a1.49,1.49,0,0,0,.1.63,1.56,1.56,0,0,0,.32.75l0,0c.2.08.39-.39.51-.76C42,183.68,41.47,183.23,41.39,183.52Z"/><path class="cls-20" d="M42.73,181.42a7,7,0,0,1-.53-1.17,3.6,3.6,0,0,1-.41.89,4.38,4.38,0,0,1,.5.54A2.54,2.54,0,0,1,42.73,181.42Z"/><path class="cls-20" d="M41.73,185.62a2.3,2.3,0,0,0,.11.63,1.89,1.89,0,0,0,.33.75s0,0,.06,0c.19.1.34-.37.43-.73C42.27,185.79,41.79,185.35,41.73,185.62Z"/><path class="cls-20" d="M41.09,179.32a2.07,2.07,0,0,0,0,.67,1.63,1.63,0,0,0,.27.73s0,0,0,0c.18,0,.39-.41.55-.85C41.66,179.46,41.19,179.09,41.09,179.32Z"/><path class="cls-20" d="M42.62,179.2a6.7,6.7,0,0,1-.51-1.11,4.38,4.38,0,0,1-.45.89,4.54,4.54,0,0,1,.5.54A1.9,1.9,0,0,1,42.62,179.2Z"/><path class="cls-20" d="M42.13,187.72a1.9,1.9,0,0,0,.14.63,2.19,2.19,0,0,0,.34.76l0,0c.18.1.31-.35.37-.71C42.64,187.93,42.17,187.44,42.13,187.72Z"/><path class="cls-20" d="M43.17,185.74a9.51,9.51,0,0,1-.59-1.22,3.16,3.16,0,0,1-.34.83,5.52,5.52,0,0,1,.53.63A1,1,0,0,1,43.17,185.74Z"/><path class="cls-20" d="M42.94,183.58a8.77,8.77,0,0,1-.59-1.2,3.25,3.25,0,0,1-.39.85,6.08,6.08,0,0,1,.54.61A1.11,1.11,0,0,1,42.94,183.58Z"/><path class="cls-20" d="M43.38,173.92a1.83,1.83,0,0,0,0-.71c-.12-.31-.66,0-1.06.26.2.54.51,1.18.72,1.11S43.3,174.32,43.38,173.92Z"/><path class="cls-20" d="M43.22,178.35a1.64,1.64,0,0,0,0-.7c-.12-.32-.58-.11-.93.16.22.56.52,1.23.72,1.18S43.17,178.75,43.22,178.35Z"/><path class="cls-20" d="M43.91,187.19a3,3,0,0,0-.07-.64c-.15-.39-.55-.29-.85-.08.25.54.62,1.34.81,1.31S43.91,187.56,43.91,187.19Z"/><path class="cls-20" d="M45.41,160.61c.1-.22.25-.62.18-.73s-.82.23-1.34.64c.15.42.41,1,.69.84S45.22,161,45.41,160.61Z"/><path class="cls-20" d="M43.25,180.57a2,2,0,0,0,0-.71c-.13-.32-.56-.13-.87.12.22.57.52,1.25.71,1.21S43.21,181,43.25,180.57Z"/><path class="cls-20" d="M43.67,185a1.72,1.72,0,0,0-.05-.65c-.15-.38-.59-.26-.9,0,.25.55.6,1.33.81,1.29S43.66,185.39,43.67,185Z"/><path class="cls-20" d="M44.33,161.75a2.44,2.44,0,0,1-.43-.83A7.59,7.59,0,0,1,43,162a2.25,2.25,0,0,1,.57.3A7.45,7.45,0,0,1,44.33,161.75Z"/><path class="cls-20" d="M44.22,189.35a3,3,0,0,0-.1-.64c-.16-.39-.52-.3-.78-.11.23.55.66,1.35.8,1.33S44.24,189.73,44.22,189.35Z"/><path class="cls-20" d="M43.51,182.8a1.72,1.72,0,0,0,0-.65c-.15-.38-.62-.25-1,0,.24.53.6,1.32.82,1.27S43.48,183.19,43.51,182.8Z"/><path class="cls-20" d="M44,167.24c.06-.22.17-.61.1-.73s-.68.11-1.11.45c.15.47.41,1.07.64,1S43.86,167.67,44,167.24Z"/><path class="cls-20" d="M44.39,165a1.4,1.4,0,0,0,.14-.73c-.12-.22-.72.14-1.19.52.14.44.41,1,.66.93S44.24,165.45,44.39,165Z"/><path class="cls-20" d="M44.87,162.81c.07-.21.23-.61.15-.72s-.76.19-1.26.57c.14.43.39,1,.67.89C44.55,163.49,44.69,163.25,44.87,162.81Z"/><path class="cls-20" d="M41,177.22a1.39,1.39,0,0,0,0,.66c.08.41.16.65.26.71s0,0,0,0c.19,0,.44-.42.61-.88C41.56,177.33,41.09,177,41,177.22Z"/><path class="cls-20" d="M43.67,169.46a1.67,1.67,0,0,0,.09-.73c-.12-.25-.65.07-1.06.4.16.47.42,1.1.64,1S43.55,169.89,43.67,169.46Z"/><path class="cls-20" d="M43.26,176.14a1.71,1.71,0,0,0,0-.7c-.12-.32-.63-.08-1,.2.21.55.52,1.21.72,1.15S43.2,176.54,43.26,176.14Z"/><path class="cls-20" d="M43.41,171.68a1.61,1.61,0,0,0,.07-.73c-.12-.25-.62,0-1,.35.16.49.42,1.13.63,1.07S43.32,172.1,43.41,171.68Z"/><path class="cls-20" d="M41.66,165.37c0,.39.08.59.19.61h0c.24,0,.65-.64,1-1.11-.35-.27-.85-.45-1.06-.2A1.36,1.36,0,0,0,41.66,165.37Z"/><path class="cls-20" d="M43.86,163.92a2.94,2.94,0,0,1-.43-.87,8.23,8.23,0,0,1-.81,1,2.22,2.22,0,0,1,.54.33C43.31,164.31,43.58,164.1,43.86,163.92Z"/><path class="cls-20" d="M42.88,170.45a4.81,4.81,0,0,1-.43-1,5.52,5.52,0,0,1-.63,1,2.28,2.28,0,0,1,.5.43A3.33,3.33,0,0,1,42.88,170.45Z"/><path class="cls-20" d="M43.14,168.27a3.31,3.31,0,0,1-.43-.94,5.77,5.77,0,0,1-.69,1,2.32,2.32,0,0,1,.51.4A4,4,0,0,1,43.14,168.27Z"/><path class="cls-20" d="M43.47,166.09a2.89,2.89,0,0,1-.44-.9,6.55,6.55,0,0,1-.74,1,2.19,2.19,0,0,1,.52.37A4.9,4.9,0,0,1,43.47,166.09Z"/><path class="cls-20" d="M41.41,167.44c0,.38.09.59.19.63h0c.21,0,.6-.6.88-1.07-.34-.29-.83-.51-1-.26S41.41,167.23,41.41,167.44Z"/><path class="cls-20" d="M42,163.31c0,.38.07.57.18.59h0c.25,0,.72-.65,1-1.14-.37-.24-.89-.4-1.11-.14A1.32,1.32,0,0,0,42,163.31Z"/><path class="cls-20" d="M41.14,170.92a1.57,1.57,0,0,0,0,.7c0,.38.1.62.2.66h0c.2,0,.51-.56.74-1C41.75,171,41.3,170.68,41.14,170.92Z"/><path class="cls-20" d="M42.71,172.67a4.61,4.61,0,0,1-.45-1,5.41,5.41,0,0,1-.58,1,2.8,2.8,0,0,1,.49.44A2.28,2.28,0,0,1,42.71,172.67Z"/><path class="cls-20" d="M42.64,174.82a5.6,5.6,0,0,1-.5-1.06,4.22,4.22,0,0,1-.57.94,3.29,3.29,0,0,1,.53.5A3.7,3.7,0,0,1,42.64,174.82Z"/><path class="cls-20" d="M42.6,177a6.2,6.2,0,0,1-.51-1.09,3.93,3.93,0,0,1-.5.92,3.33,3.33,0,0,1,.5.52A2.62,2.62,0,0,1,42.6,177Z"/><path class="cls-20" d="M41.22,169.52c0,.39.1.61.2.65a0,0,0,0,0,0,0c.2,0,.57-.57.81-1-.32-.31-.8-.55-1-.32A1.45,1.45,0,0,0,41.22,169.52Z"/><path class="cls-20" d="M41.63,180.9l-.16-.07-.21-.2-.15-.49c0-.18,0-.36-.08-.55s0-.28,0-.43l.21,0a1.29,1.29,0,0,0,0,.9,1.62,1.62,0,0,0,.33.75"/><path class="cls-20" d="M61.17,189.72a3.36,3.36,0,0,1,.26.65,3.47,3.47,0,0,1,.55-.22c-.06-.39-.08-.94-.1-1.34A2.91,2.91,0,0,1,61.17,189.72Z"/><path class="cls-20" d="M62.27,186a4.16,4.16,0,0,1-.55,1.16,2.27,2.27,0,0,1,.35.64,4.05,4.05,0,0,1,.51-.44A10,10,0,0,1,62.27,186Z"/><path class="cls-20" d="M62.38,189.92h0c.11,0,.31-.47.41-.76a2.73,2.73,0,0,0,.19-1c-.07-.29-.49,0-.84.27A3.93,3.93,0,0,0,62.38,189.92Z"/><path class="cls-20" d="M51.85,197.41c-.43.16-.93.33-1,.52a.07.07,0,0,0,0,0c0,.1.23.23.62.32a1.27,1.27,0,0,0,.65.06C52.43,198.25,52.14,197.77,51.85,197.41Z"/><path class="cls-20" d="M50,197.06c-.45.05-1,.09-1,.27v0c0,.1.2.25.56.44a1.3,1.3,0,0,0,.63.2C50.42,198,50.21,197.46,50,197.06Z"/><path class="cls-20" d="M61.44,190.92c0,.59-.11,1.37,0,1.49h0c.09,0,.28-.16.53-.58a2,2,0,0,0,.33-.83C62.37,190.64,61.85,190.77,61.44,190.92Z"/><path class="cls-20" d="M45.08,193.54c-.35-.25-.83-.64-.95-.53s0,0,0,.05a1.66,1.66,0,0,0,.28.79,2.57,2.57,0,0,0,.41.58C45.09,194.64,45.12,194.07,45.08,193.54Z"/><path class="cls-20" d="M61.41,186.74c.14.1.49-.56.69-1.28-.29-.45-.67-.81-.8-.55a2.87,2.87,0,0,0,0,1C61.29,186.17,61.32,186.69,61.41,186.74Z"/><path class="cls-20" d="M61,189.23c.12.14.54-.38.83-.95-.19-.48-.51-.89-.67-.69a2.53,2.53,0,0,0-.17.84C60.94,188.7,60.89,189.14,61,189.23Z"/><path class="cls-20" d="M63,187.05h0c.12,0,.23-.6.29-1a3.06,3.06,0,0,0,0-1.17c-.12-.32-.51.12-.81.55C62.64,186.2,62.81,187,63,187.05Z"/><path class="cls-20" d="M43.91,191.54c-.3-.36-.71-.91-.82-.85s0,0,0,.05a2.13,2.13,0,0,0,.16.87,3.29,3.29,0,0,0,.31.71C43.78,192.63,43.88,192.07,43.91,191.54Z"/><path class="cls-20" d="M45.42,193.75a4.58,4.58,0,0,1,0,.63c.27.09.67.29.91.4a4.31,4.31,0,0,1-.48-1A1.31,1.31,0,0,1,45.42,193.75Z"/><path class="cls-20" d="M46.53,195.12c-.42-.19-.9-.4-1-.29a.06.06,0,0,0,0,0,1.42,1.42,0,0,0,.39.65,2,2,0,0,0,.53.48C46.72,196.09,46.64,195.56,46.53,195.12Z"/><path class="cls-20" d="M46.9,195.23a5.7,5.7,0,0,1,.15.62c.29,0,.69.1.93.14a4,4,0,0,1-.6-.88A1.52,1.52,0,0,1,46.9,195.23Z"/><path class="cls-20" d="M43.31,189.57a4.81,4.81,0,0,1-.13.67c.23.29.53.69.71.93a6.45,6.45,0,0,1-.14-1.29A1.78,1.78,0,0,1,43.31,189.57Z"/><path class="cls-20" d="M44.21,191.85c0,.16,0,.43-.05.69.27.18.63.47.84.64a4.84,4.84,0,0,1-.3-1.18A1,1,0,0,1,44.21,191.85Z"/><path class="cls-20" d="M51,196.25c-.09.17.36.55.82.79.29-.33.49-.78.27-.92a1.36,1.36,0,0,0-.55,0C51.27,196.11,51.08,196.16,51,196.25Z"/><path class="cls-20" d="M47.73,195c-.14.11.2.64.55,1,.36-.14.68-.43.5-.64a1.6,1.6,0,0,0-.51-.26C48,195,47.79,194.91,47.73,195Z"/><path class="cls-20" d="M60.08,191.28c.12.19.65-.16,1-.58-.16-.52-.46-1-.65-.85a2.05,2.05,0,0,0-.27.68C60.06,191,60,191.18,60.08,191.28Z"/><path class="cls-20" d="M46.26,193.72c-.14.06.11.67.41,1.13.36,0,.72-.23.56-.47a1.81,1.81,0,0,0-.45-.38C46.5,193.79,46.33,193.69,46.26,193.72Z"/><path class="cls-20" d="M44.3,190.19c-.18-.06-.1.77,0,1.32.37.19.76.18.67-.17a3.48,3.48,0,0,0-.29-.59C44.5,190.4,44.38,190.21,44.3,190.19Z"/><path class="cls-20" d="M42.89,190.3c.09.07.18-.44.2-.79-.19-.18-.43-.23-.43,0a2.8,2.8,0,0,0,.08.4C42.8,190.14,42.84,190.28,42.89,190.3Z"/><path class="cls-20" d="M60.43,192.52a3.11,3.11,0,0,1,.61-.07,10.34,10.34,0,0,1,.08-1.28,2.73,2.73,0,0,1-.85.63A3.85,3.85,0,0,1,60.43,192.52Z"/><path class="cls-20" d="M45.08,192c-.19,0,0,.77.18,1.27.41.05.8-.09.66-.4a3,3,0,0,0-.36-.47C45.31,192.17,45.16,192,45.08,192Z"/><path class="cls-20" d="M56.16,195.47c0,.22.6.25,1.05.18.09-.47.07-1-.15-1s-.37.21-.5.33S56.15,195.37,56.16,195.47Z"/><path class="cls-20" d="M57.68,194.44c0,.21.63.12,1.07-.05,0-.49-.1-1-.32-1s-.33.29-.44.44S57.65,194.34,57.68,194.44Z"/><path class="cls-20" d="M59,193c.09.21.65,0,1.06-.3-.08-.51-.28-1-.49-.93s-.27.38-.36.56C59,192.72,59,192.94,59,193Z"/><path class="cls-20" d="M48.18,196.29c-.44-.06-1-.15-1,0a0,0,0,0,0,0,0c0,.1.16.3.48.55a1.48,1.48,0,0,0,.59.34C48.5,197.23,48.35,196.73,48.18,196.29Z"/><path class="cls-20" d="M54.51,196.14c0,.21.55.34,1,.37.16-.4.23-.91,0-.95a1.23,1.23,0,0,0-.54.21C54.68,195.93,54.52,196.05,54.51,196.14Z"/><path class="cls-20" d="M49.33,195.79c-.11.14.29.61.7.92.33-.24.61-.61.39-.79a1.34,1.34,0,0,0-.53-.15C49.58,195.73,49.39,195.72,49.33,195.79Z"/><path class="cls-20" d="M52.78,196.43c-.06.19.49.44.92.55.23-.34.37-.8.17-.88s-.41,0-.57.08S52.8,196.35,52.78,196.43Z"/><path class="cls-20" d="M59.78,195.2c.09-.3-.39-.42-.8-.48-.21.47-.5,1.07-.41,1.24l0,0c.07.06.29,0,.64-.25A1.63,1.63,0,0,0,59.78,195.2Z"/><path class="cls-20" d="M59.14,194.27a3,3,0,0,1,.59.07,11.61,11.61,0,0,1,.28-1.16,2.2,2.2,0,0,1-.92.38A3.17,3.17,0,0,1,59.14,194.27Z"/><path class="cls-20" d="M54.09,197.1a4.18,4.18,0,0,1,.46.39,7.71,7.71,0,0,1,.73-.69,2.83,2.83,0,0,1-.92-.23A1.84,1.84,0,0,1,54.09,197.1Z"/><path class="cls-20" d="M55.9,196.56a4.62,4.62,0,0,1,.52.3A7.59,7.59,0,0,1,57,196a2.51,2.51,0,0,1-.94-.05A2.35,2.35,0,0,1,55.9,196.56Z"/><path class="cls-20" d="M57.61,195.62a2.45,2.45,0,0,1,.56.19,9.74,9.74,0,0,1,.45-1,2.45,2.45,0,0,1-.94.16A3.13,3.13,0,0,1,57.61,195.62Z"/><path class="cls-20" d="M58.08,196.62c.14-.26-.3-.49-.7-.62-.27.39-.66.91-.59,1.08l0,0c.07.06.29,0,.67-.1A1.56,1.56,0,0,0,58.08,196.62Z"/><path class="cls-20" d="M61.24,193.33c0-.34-.46-.35-.89-.3-.13.52-.32,1.22-.19,1.38l0,0c.09,0,.29-.08.6-.41A2,2,0,0,0,61.24,193.33Z"/><path class="cls-20" d="M53.76,197.35c-.38.21-.88.51-.87.67a0,0,0,0,0,0,0c0,.08.25.16.64.18a1.36,1.36,0,0,0,.67-.1C54.42,198,54.08,197.6,53.76,197.35Z"/><path class="cls-20" d="M52.21,197.24c.09.1.24.28.38.47a7.54,7.54,0,0,1,.84-.51,3.12,3.12,0,0,1-.89-.41A1.8,1.8,0,0,1,52.21,197.24Z"/><path class="cls-20" d="M50.35,197a3.6,3.6,0,0,1,.33.56,5.71,5.71,0,0,1,.91-.34,3.23,3.23,0,0,1-.82-.61A2.05,2.05,0,0,1,50.35,197Z"/><path class="cls-20" d="M48.56,196.31a4.7,4.7,0,0,1,.24.59,6.55,6.55,0,0,1,.94-.1,3.45,3.45,0,0,1-.72-.75A1.58,1.58,0,0,1,48.56,196.31Z"/><path class="cls-20" d="M56.2,197.6c.18-.21-.22-.51-.58-.72-.33.31-.79.71-.75.89,0,0,0,0,0,0s.27.1.66,0A1.36,1.36,0,0,0,56.2,197.6Z"/><path class="cls-20" d="M45.59,194.75a1.34,1.34,0,0,0,.37.71,1.55,1.55,0,0,0,.75.56l-.14.11-.37-.27-.41-.42c-.1-.14-.2-.29-.29-.44a2,2,0,0,1,0-.25l0-.12"/><circle class="cls-21" cx="62.52" cy="185.54" r="2.23"/><path class="cls-22" d="M63,183.4a2.21,2.21,0,0,1-1.1,4.14,2,2,0,0,1-.48-.1,2.19,2.19,0,0,0,3.34-1.9A2.2,2.2,0,0,0,63,183.4Z"/><circle class="cls-21" cx="61.25" cy="203.64" r="2.23"/><path class="cls-22" d="M61.72,201.5a2.21,2.21,0,0,1-1.1,4.14,2.3,2.3,0,0,1-.47-.09,2.18,2.18,0,0,0,1.1.33,2.21,2.21,0,0,0,.47-4.38Z"/><circle class="cls-21" cx="61.67" cy="221.12" r="2.23"/><path class="cls-22" d="M62.14,219a2.21,2.21,0,0,1,1.14,1.91A2.23,2.23,0,0,1,61,223.12a2.6,2.6,0,0,1-.47-.09,2.18,2.18,0,0,0,1.1.33,2.21,2.21,0,0,0,.47-4.38Z"/><path class="cls-23" d="M85.46,165.36s0,0-.06-.05l-.07-.15a.09.09,0,0,1,.17-.07l.07.15a.09.09,0,0,1,0,.12Z"/><path class="cls-24" d="M84,166l-.06-.05a.1.1,0,0,1,0-.13l1.58-.69a.1.1,0,0,1,.13,0,.09.09,0,0,1,0,.12l-1.58.7Z"/><path class="cls-25" d="M81.82,167.5a.43.43,0,0,1-.22-.2.09.09,0,0,1,.05-.12.09.09,0,0,1,.12,0,.22.22,0,0,0,.11.1.17.17,0,0,0,.14,0,.17.17,0,0,0,.09-.11.14.14,0,0,0,0-.14.09.09,0,0,1,.05-.12.08.08,0,0,1,.12,0,.39.39,0,0,1,0,.28.33.33,0,0,1-.19.21A.34.34,0,0,1,81.82,167.5Z"/><path class="cls-25" d="M82.78,167.17h0l-.29-.19a.1.1,0,0,1,0-.13.09.09,0,0,1,.13,0l.29.18a.11.11,0,0,1,0,.14A.09.09,0,0,1,82.78,167.17Z"/><path class="cls-25" d="M81,167.52l0,0-.21-.22a.09.09,0,1,1,.13-.12l.21.22a.1.1,0,0,1,0,.13A.1.1,0,0,1,81,167.52Z"/><path class="cls-26" d="M79.59,168.18l1.41-.83.42-.38,0,0L84,165.81a.1.1,0,0,1,.12.05l.12.26a.09.09,0,0,1,0,.13l-2.55,1.12-.12.34a.1.1,0,0,1,0,0l-.24.1-1.08,1.3c0,.05-.11,0-.15,0l-.49-.84A.1.1,0,0,1,79.59,168.18Z"/><path class="cls-27" d="M82.83,166.34l.84-.37.2.44-.83.36Z"/><path class="cls-23" d="M82.37,164.11s-.05,0-.06-.05a.09.09,0,0,1,0-.12l.14-.06a.09.09,0,0,1,.12.05.09.09,0,0,1,0,.12l-.14.06Z"/><path class="cls-24" d="M83.06,165.59a.08.08,0,0,1,0-.05l-.78-1.65a.11.11,0,0,1,0-.13.11.11,0,0,1,.13.05l.77,1.66a.08.08,0,0,1,0,.12Z"/><path class="cls-25" d="M83.82,168.31a.37.37,0,0,1-.21-.2.37.37,0,0,1,0-.29.31.31,0,0,1,.19-.2.09.09,0,0,1,.12,0,.08.08,0,0,1,0,.12.18.18,0,0,0-.09.1.19.19,0,0,0,0,.15.27.27,0,0,0,.11.1.17.17,0,0,0,.14,0,.1.1,0,0,1,.13.05.09.09,0,0,1-.05.12A.34.34,0,0,1,83.82,168.31Z"/><path class="cls-25" d="M83.29,167.38a.11.11,0,0,1-.06-.11.09.09,0,0,1,.11-.07l.33.06a.11.11,0,0,1,.08.11.1.1,0,0,1-.11.08l-.33-.07Z"/><path class="cls-25" d="M84.4,168.88a.1.1,0,0,1-.06-.08.09.09,0,0,1,.08-.1l.29,0a.11.11,0,0,1,.11.09.1.1,0,0,1-.08.1l-.29,0Z"/><path class="cls-26" d="M85.09,170.41l-.57-1.63-.07-.59v0l-1.27-2.69a.09.09,0,0,0-.12-.05l-.25.11a.08.08,0,0,0,0,.12L84,168.31l-.11.34a.09.09,0,0,0,0,.07L84,169l0,1.75a.1.1,0,0,0,.13.1l.87-.28A.09.09,0,0,0,85.09,170.41Z"/><g class="cls-28"><path class="cls-29" d="M85.09,170.41l-.53-1.53h.18a.1.1,0,0,0,.08-.1.11.11,0,0,0-.11-.09l-.2,0-.06-.51v0l-.78-1.67.57-.25a.09.09,0,0,0,0-.13l-.08-.17,1.5-.66a.09.09,0,0,0,0-.12.1.1,0,0,0-.13,0l-.08,0,0-.06a.09.09,0,0,0-.17.07l0,.07-1.33.58-.36.16h0l-.22.1-.28-.6h0l-.65-1.39.06,0a.09.09,0,0,0,0-.12.09.09,0,0,0-.12-.05l-.06,0,0-.09a.11.11,0,0,0-.13-.05.11.11,0,0,0,0,.13l.74,1.56-.17.08a.08.08,0,0,0,0,.12l.28.6-.21.09h0l-1.39.61,0,0-.36.33-.14-.15a.09.09,0,1,0-.13.12l.12.14-1.32.77a.1.1,0,0,0,0,.13l.49.84s.12.06.15,0l1.08-1.3.24-.1a.1.1,0,0,0,0,0l.12-.34a.35.35,0,0,0,.14.13.34.34,0,0,0,.28,0,.33.33,0,0,0,.19-.21.4.4,0,0,0,0-.19l.22-.1.24.16h0a.08.08,0,0,0,.11,0,.1.1,0,0,0,0-.13l-.14-.09.52-.23.26.55-.16,0a.09.09,0,0,0-.11.07.11.11,0,0,0,.06.11h0l.28.06.11.23a.33.33,0,0,0-.11.15.37.37,0,0,0,0,.29.37.37,0,0,0,.21.2.28.28,0,0,0,.18,0l-.11.32a.09.09,0,0,0,0,.07L84,169l0,1.75a.1.1,0,0,0,.13.1l.87-.28A.09.09,0,0,0,85.09,170.41Zm-3-3.19a.17.17,0,0,1-.09.11.17.17,0,0,1-.14,0l0,0,.26-.12S82.12,167.21,82.11,167.22Zm1.66.82a.19.19,0,0,1,0-.15l0,0,.13.28h0A.27.27,0,0,1,83.77,168Z"/></g><g class="cls-30"><polygon class="cls-10" points="78.52 205.9 80.24 214.41 110.99 214.41 110.99 215.79 79.54 215.61 78.52 205.9"/></g><g class="cls-30"><polygon class="cls-10" points="78.52 181.87 80.24 190.39 110.99 190.39 110.99 191.77 79.54 191.59 78.52 181.87"/></g><path class="cls-31" d="M112.12,254s-6.35,22.23,9.72,12.11c10.75-6.74,15.39-25.92,15.39-25.92Z"/><path class="cls-32" d="M135.78,240a24.34,24.34,0,0,1-21.6,12c3.09-7.84,14.11-40,5.72-81.23,3-1.16-4.74-5.36-4.74-5.36s10.88,39.29-5.74,89.44c22.74,3.32,27.74-14.53,27.82-14.77Z"/><path class="cls-4" d="M115.16,165.45c14,33.71-3,87.86-3,87.86a25.72,25.72,0,0,0,25-13.08s14.26-42.61,4.51-80.34c-2-7.57-10.61-11.93-17.55-8.36C116.19,155.64,115.16,165.45,115.16,165.45Z"/><path class="cls-23" d="M130.77,158a.15.15,0,0,1-.11,0l-.22-.13a.15.15,0,0,1-.05-.2.15.15,0,0,1,.21,0l.22.13a.15.15,0,0,1,.05.2A.17.17,0,0,1,130.77,158Z"/><path class="cls-24" d="M129.46,160.07a.18.18,0,0,1-.12,0,.14.14,0,0,1-.05-.19l1.48-2.28a.15.15,0,0,1,.2,0,.15.15,0,0,1,.05.2L129.55,160A.13.13,0,0,1,129.46,160.07Z"/><path class="cls-25" d="M127.86,164a.63.63,0,0,1-.45-.08.14.14,0,0,1,0-.2.15.15,0,0,1,.2,0,.31.31,0,0,0,.23,0,.26.26,0,0,0,.18-.12.28.28,0,0,0,0-.22.31.31,0,0,0-.14-.18.15.15,0,0,1-.05-.2.16.16,0,0,1,.21,0,.67.67,0,0,1,.27.37.54.54,0,0,1-.07.43A.59.59,0,0,1,127.86,164Z"/><path class="cls-25" d="M128.83,162.69h-.57a.15.15,0,0,1-.15-.14.14.14,0,0,1,.14-.15h.54a.16.16,0,0,1,.16.14A.14.14,0,0,1,128.83,162.69Z"/><path class="cls-25" d="M126.85,164.65h-.07l-.46-.12a.14.14,0,0,1-.11-.17.13.13,0,0,1,.17-.1l.47.11a.15.15,0,0,1,.11.18A.14.14,0,0,1,126.85,164.65Z"/><path class="cls-26" d="M125.54,166.76l1.13-2.3.21-.86s0,0,0,0l2.4-3.71a.15.15,0,0,1,.21,0l.38.23a.14.14,0,0,1,.05.2l-2.36,3.66.13.54a.12.12,0,0,1,0,.1l-.22.34-.29,2.63a.14.14,0,0,1-.21.1l-1.36-.66A.15.15,0,0,1,125.54,166.76Z"/><path class="cls-27" d="M128.19,161.56l.77-1.19.64.39-.77,1.19Z"/><path class="cls-23" d="M125.66,159.06a.17.17,0,0,1-.11,0,.14.14,0,0,1,0-.19l.13-.21a.17.17,0,0,1,.21,0,.15.15,0,0,1,0,.2l-.13.2A.17.17,0,0,1,125.66,159.06Z"/><path class="cls-24" d="M127.84,160.39a.14.14,0,0,1-.11,0l-2.44-1.49a.15.15,0,0,1-.05-.2.16.16,0,0,1,.21,0l2.43,1.49a.14.14,0,0,1,.05.2A.15.15,0,0,1,127.84,160.39Z"/><path class="cls-25" d="M131.17,163.29a.65.65,0,0,1-.45-.08.62.62,0,0,1-.27-.37.54.54,0,0,1,.07-.43.15.15,0,0,1,.2,0,.14.14,0,0,1,.05.2.28.28,0,0,0,0,.22.31.31,0,0,0,.14.18.33.33,0,0,0,.22,0,.29.29,0,0,0,.19-.13.15.15,0,0,1,.2,0,.14.14,0,0,1,0,.2A.54.54,0,0,1,131.17,163.29Z"/><path class="cls-25" d="M129.68,162.52a.16.16,0,0,1-.17-.08.14.14,0,0,1,.07-.19l.49-.2a.16.16,0,0,1,.2.07.15.15,0,0,1-.07.19l-.49.2Z"/><path class="cls-25" d="M132.43,163.53a.14.14,0,0,1-.15-.05.13.13,0,0,1,0-.2l.36-.28a.15.15,0,0,1,.21,0,.13.13,0,0,1,0,.2l-.36.29Z"/><path class="cls-26" d="M134.63,164.94l-2.14-1.65-.6-.7,0,0-4-2.43a.14.14,0,0,0-.2,0l-.24.36a.15.15,0,0,0,0,.2l3.92,2.4.14.54a.15.15,0,0,0,.07.09l.35.21,1.54,2.27a.16.16,0,0,0,.25,0l.9-1.11A.13.13,0,0,0,134.63,164.94Z"/><g class="cls-28"><path class="cls-29" d="M134.63,164.94l-2-1.54.22-.18a.13.13,0,0,0,0-.2.15.15,0,0,0-.21,0l-.24.19-.52-.6,0,0-2.45-1.5.53-.82a.14.14,0,0,0-.05-.2l-.25-.16,1.39-2.15a.15.15,0,0,0-.05-.2.15.15,0,0,0-.2,0l-.08.12-.09-.05a.15.15,0,0,0-.21,0,.15.15,0,0,0,.05.2l.09.05-1.24,1.92-.33.52h0l-.2.3-.88-.54h0l-2-1.26.06-.08a.15.15,0,0,0,0-.2.17.17,0,0,0-.21,0l0,.09-.13-.08a.14.14,0,1,0-.16.24l2.31,1.41-.16.24a.14.14,0,0,0,.06.2l.88.54-.19.29h0l-1.3,2s0,0,0,0l-.18.74-.32-.08a.13.13,0,0,0-.17.1.14.14,0,0,0,.11.17l.28.07-1.06,2.16a.15.15,0,0,0,.07.19l1.36.66a.14.14,0,0,0,.21-.1l.29-2.63.22-.34a.12.12,0,0,0,0-.1l-.13-.54a.58.58,0,0,0,.29,0,.59.59,0,0,0,.37-.24.54.54,0,0,0,.07-.43.57.57,0,0,0-.16-.26l.2-.32h.49a.14.14,0,0,0,.12-.14.16.16,0,0,0-.16-.14h-.26l.49-.75.8.49-.24.1a.14.14,0,0,0-.07.19.16.16,0,0,0,.17.08h0l.42-.17.34.21a.48.48,0,0,0,0,.29.62.62,0,0,0,.27.37.65.65,0,0,0,.45.08.55.55,0,0,0,.25-.13l.13.51a.15.15,0,0,0,.07.09l.35.21,1.54,2.27a.16.16,0,0,0,.25,0l.9-1.11A.13.13,0,0,0,134.63,164.94ZM128,163.33a.29.29,0,0,1,0,.22.26.26,0,0,1-.18.12s-.05,0-.07,0l.25-.38Zm2.87-.36a.31.31,0,0,1-.14-.18s0,0,0-.07l.41.25-.06,0A.34.34,0,0,1,130.88,163Z"/></g><path class="cls-11" d="M140.2,170.1a50.84,50.84,0,0,1-18.52,6.43s1,3.07,1.52,5.35c0,0,12.15-1,18-6.29Z"/><path class="cls-12" d="M139.71,171.12l.81,4.08s-4,4.63-16.79,5.83a37.93,37.93,0,0,0-1.14-3.84A45.59,45.59,0,0,0,139.71,171.12Z"/><g class="cls-5"><path class="cls-6" d="M117.26,165.1s13.89,39.4-3.43,87.6c0,0,12.42-17.2,12.35-49.64C126.11,170.87,117.26,165.1,117.26,165.1Z"/></g><path class="cls-31" d="M83.1,30.68A74.67,74.67,0,0,0,68,32.33c-1.54.54-25.12,9.45-24.77,42.69a27.75,27.75,0,0,0,2.45,11.47l0,.05a27.06,27.06,0,0,1,2.23,7.63,28.21,28.21,0,0,1,.25,5.6c-.59,10.16,2.46,20.35,9.6,27.44,7.32,7.28,15.94,11.5,24.23,11.31,17.1-.4,42.36-27.14,41.61-59.4S111.77,30,83.1,30.68Z"/><g class="cls-7"><path class="cls-8" d="M114.94,45.82c-1.88,16.81-5.44,38.66-11.85,50h0c-1.91,4.66-5.15,9-6.49,13.85s-.7,9.91-.83,14.89a49.14,49.14,0,0,1-1.42,10.38c14.36-9,28.65-29.58,28.65-53.56C123,66,120.56,54.09,114.94,45.82Z"/></g><path d="M60.77,120.5a23.22,23.22,0,0,0,4.74.66,28.59,28.59,0,0,0,4.72-.16,49.59,49.59,0,0,0,9.33-2.09A22.84,22.84,0,0,1,75.14,121a24.45,24.45,0,0,1-4.79,1.09C67.1,122.33,63.65,122.1,60.77,120.5Z"/><ellipse cx="77.88" cy="92.62" rx="2.5" ry="3.98" transform="translate(-2.12 1.82) rotate(-1.32)"/><path d="M74.89,86.54a4.79,4.79,0,0,1,4-1.12,4,4,0,0,1,2,1.07,3.74,3.74,0,0,1,1,1.88,6,6,0,0,0-3.15-1.89A11.15,11.15,0,0,0,74.89,86.54Z"/><ellipse cx="58.34" cy="93.07" rx="2.5" ry="3.98" transform="translate(-2.13 1.37) rotate(-1.32)"/><path d="M54.62,88.17a4.78,4.78,0,0,1,3.43-2.37,3.93,3.93,0,0,1,2.19.37,3.81,3.81,0,0,1,1.55,1.45,6,6,0,0,0-3.6-.75A11,11,0,0,0,54.62,88.17Z"/><path d="M65.64,96.15c.08,3.81-1.71,7.4-3.26,10.69-.74,1.61-1.57,3.47-1,4.93.77,1.4,2.88,1.85,4.63,2.22-1.79,0-4,.05-5.35-1.83-1-2.08.06-4.07.69-5.76.85-1.72,1.73-3.31,2.46-5A24.92,24.92,0,0,0,65.64,96.15Z"/><path class="cls-31" d="M111,86s10.46-14.69,16.73-.15S117,108.47,111.39,100.58"/><g class="cls-33"><path d="M123.79,86.77a11.9,11.9,0,0,0-2.58-1.14,4,4,0,0,0-2.52,0c-1.61.47-2.65,2.17-3.69,3.81a8,8,0,0,1,1-2.82,4.79,4.79,0,0,1,2.42-2A5.18,5.18,0,0,1,123.79,86.77Z"/></g><g class="cls-5"><path d="M118.31,87.11a6.09,6.09,0,0,1,3,5.73,5.72,5.72,0,0,1-1.57,3c-.4.4-.87.71-1.29,1.06l-1.47.73c1.54-1.49,3-3.06,3.27-5a5.34,5.34,0,0,0-.38-2.85A12.79,12.79,0,0,0,118.31,87.11Z"/></g><path class="cls-4" d="M166,45.3s-6.39-14.22-46.55-17.72C105.27,26,56.6,19,51.6,20.27c-42.55,10-44,41.45-39.61,48.8.87,3.51,23.72,24.34,57.7,18.54,8.11-.44,36.05-12.35,36.05-12.35l21.89-7.43,21.2-11.21Z"/><path class="cls-10" d="M127,35.17c3.77,4.4,3.79,10.83,3.79,10.83s-1.13,9.49-17.69,17.19C75.17,80.84,44.5,67.3,43.76,59.1a25.24,25.24,0,0,1,1.08-9.41s15.76,19.22,59,5.39C124.76,48.4,125.31,33.46,127,35.17Z"/><path class="cls-34" d="M127,35.17s-5.56-17.46-7.3-24.47C117.27.93,86-3.92,77,3.86,66,13.44,47.67,19.92,44.55,23.46s.29,26.23.29,26.23.55,8.33,15.1,11.43c6.22,1.32,26.41,4.5,54.6-9.3C129.83,44.34,127,35.17,127,35.17Z"/><path class="cls-4" d="M122.05,32.76c-7.51,19.06-37.34,10.89-40.13,4.82-1.67-3.64,2.46-6.76,2.46-6.76S97.43,47.7,122.05,32.76Z"/><path class="cls-4" d="M116.12,13s-28,4.76-43,13.64c-8.5-4.18-25.66-3.23-25.66-3.23s21.64,4.8,27,6.88C81.94,24.28,116.12,13,116.12,13Z"/><path class="cls-10" d="M166,45.3c-.27-1.19-12.52-.28-30.66,8.23C103.78,68.33,100,77,69.69,87.61,86.36,87.66,160.39,61.29,166,45.3Z"/><path class="cls-23" d="M59.15,44.16a.18.18,0,0,1-.15-.07l-.26-.25a.2.2,0,0,1,0-.29.22.22,0,0,1,.3,0l.25.26a.2.2,0,0,1,0,.29A.19.19,0,0,1,59.15,44.16Z"/><path class="cls-24" d="M56.64,46.5a.3.3,0,0,1-.15-.07.2.2,0,0,1,0-.29l2.8-2.61a.22.22,0,0,1,.3,0,.19.19,0,0,1,0,.28l-2.8,2.61A.22.22,0,0,1,56.64,46.5Z"/><path class="cls-25" d="M53.1,51.27a.9.9,0,0,1-.59-.27.21.21,0,0,1,0-.29.22.22,0,0,1,.3,0,.41.41,0,0,0,.29.13.41.41,0,0,0,.3-.1.41.41,0,0,0,0-.58.19.19,0,0,1,0-.29.21.21,0,0,1,.29,0,.87.87,0,0,1,.25.59.77.77,0,0,1-.84.78Z"/><path class="cls-25" d="M54.88,49.88h-.05l-.74-.18a.22.22,0,0,1-.16-.25.2.2,0,0,1,.24-.15l.74.18a.22.22,0,0,1,.17.25A.2.2,0,0,1,54.88,49.88Z"/><path class="cls-25" d="M51.48,51.88l-.09,0-.6-.32a.2.2,0,0,1-.09-.27.2.2,0,0,1,.28-.08l.59.32a.21.21,0,0,1,.1.27A.21.21,0,0,1,51.48,51.88Z"/><path class="cls-26" d="M49,54.31l2.34-2.76.58-1.1a.21.21,0,0,1,0-.06l4.57-4.25a.22.22,0,0,1,.3,0l.44.46a.21.21,0,0,1,0,.29l-4.51,4.2v.78a.18.18,0,0,1-.06.14l-.41.38L51,55.91a.2.2,0,0,1-.33.07L49,54.6A.21.21,0,0,1,49,54.31Z"/><path class="cls-27" d="M54.38,48.1l1.47-1.37.74.76-1.47,1.37Z"/><path class="cls-23" d="M51.79,43.8a.21.21,0,0,1-.15-.07.21.21,0,0,1,0-.29l.25-.23a.21.21,0,0,1,.29,0,.2.2,0,0,1,0,.29l-.26.24A.24.24,0,0,1,51.79,43.8Z"/><path class="cls-24" d="M54.31,46.38a.19.19,0,0,1-.15-.07l-2.82-2.88a.21.21,0,0,1,0-.29.22.22,0,0,1,.3,0L54.46,46a.21.21,0,0,1,0,.29A.21.21,0,0,1,54.31,46.38Z"/><path class="cls-25" d="M57.88,51.51a1,1,0,0,1-.6-.27.89.89,0,0,1-.24-.59.76.76,0,0,1,.24-.57.21.21,0,0,1,.3,0,.19.19,0,0,1,0,.28.41.41,0,0,0,0,.58.47.47,0,0,0,.3.14.44.44,0,0,0,.29-.11.22.22,0,0,1,.3,0,.21.21,0,0,1,0,.29A.84.84,0,0,1,57.88,51.51Z"/><path class="cls-25" d="M56.1,49.94a.23.23,0,0,1-.21-.18.2.2,0,0,1,.16-.23l.74-.11a.22.22,0,0,1,.25.18.2.2,0,0,1-.16.23l-.74.11Z"/><path class="cls-25" d="M59.51,52.27a.22.22,0,0,1-.19-.12.2.2,0,0,1,.09-.27l.59-.26a.22.22,0,0,1,.28.11.19.19,0,0,1-.09.27l-.59.26A.14.14,0,0,1,59.51,52.27Z"/><path class="cls-26" d="M62.05,55l-2.37-3L59.1,50.8l0,0L54.46,46a.23.23,0,0,0-.3,0l-.44.42a.2.2,0,0,0,0,.29l4.54,4.64v.78a.2.2,0,0,0,.06.15l.42.42,1.32,3.64a.22.22,0,0,0,.33.1L62,55.24A.19.19,0,0,0,62.05,55Z"/><g class="cls-28"><path class="cls-29" d="M62.05,55l-2.22-2.8.36-.16a.19.19,0,0,0,.09-.27.22.22,0,0,0-.28-.11l-.4.18-.5-1,0,0-2.84-2.91,1-.94a.21.21,0,0,0,0-.29l-.3-.3,2.66-2.48a.19.19,0,0,0,0-.28.21.21,0,0,0-.3,0l-.15.14-.1-.11a.22.22,0,0,0-.3,0,.19.19,0,0,0,0,.28l.11.11-2.36,2.2-.64.59h0l-.37.35-1-1h0l-2.38-2.43.11-.1a.2.2,0,0,0,0-.29.22.22,0,0,0-.3,0l-.11.1-.14-.16a.22.22,0,0,0-.3,0,.21.21,0,0,0,0,.29L54,46.16l-.29.28a.2.2,0,0,0,0,.29l1,1-.36.33h0l-2.46,2.29a.21.21,0,0,0,0,.06l-.5.95-.4-.22a.21.21,0,0,0-.28.07.21.21,0,0,0,.09.28l.36.2L49,54.31a.21.21,0,0,0,0,.29L50.62,56a.2.2,0,0,0,.33-.07l1.3-3.51.41-.38a.18.18,0,0,0,.06-.14V51.1a.93.93,0,0,0,.38.17.77.77,0,0,0,.84-.78.79.79,0,0,0-.13-.41l.39-.36.63.15h0a.21.21,0,0,0,.21-.16.22.22,0,0,0-.17-.25l-.35-.08.92-.86.93.95-.36.05a.2.2,0,0,0-.16.23.23.23,0,0,0,.21.18h0l.63-.1.39.41a.78.78,0,0,0-.12.4.85.85,0,0,0,.25.59.9.9,0,0,0,.59.27.82.82,0,0,0,.38-.09v.73a.2.2,0,0,0,.06.15l.42.42,1.32,3.64a.22.22,0,0,0,.33.1L62,55.24A.19.19,0,0,0,62.05,55Zm-8.53-4.49a.4.4,0,0,1-.12.29.41.41,0,0,1-.3.1s-.05,0-.08,0l.46-.43S53.52,50.44,53.52,50.47Zm4.06.49a.4.4,0,0,1-.12-.29.32.32,0,0,1,0-.09l.47.49s-.05,0-.08,0A.47.47,0,0,1,57.58,51Z"/></g><polygon class="cls-14" points="66.04 167.7 68.87 150.5 62.09 146.55 66.04 167.7"/><path class="cls-15" d="M70.85,151.15l-2.77,4.14L66,167.7,76.54,158l.6-5.1A30.77,30.77,0,0,1,70.85,151.15Z"/></g></g></g></svg>