<svg xmlns="http://www.w3.org/2000/svg" viewBox="0 0 144.1 264.24"><defs><style>.cls-1{fill:#4d4d4d;}.cls-2{fill:#e6dab0;}.cls-3{fill:#363125;}.cls-4{opacity:0.25;}.cls-5{fill:#041015;}.cls-6{opacity:0.4;}.cls-7{fill:#603813;}.cls-8{fill:#43402f;}.cls-9{fill:#1a1a1a;}.cls-10{fill:#fbb03b;}.cls-11{fill:#c19416;}.cls-12{fill:#ebba16;}.cls-13{fill:#ffeab6;}.cls-14{fill:#f9d367;}.cls-15{opacity:0.15;}.cls-16{opacity:0.1;}.cls-17{opacity:0.17;}.cls-18{fill:#272624;}</style></defs><title>Recurso 119</title><g id="Capa_2" data-name="Capa 2"><g id="personajes_individuales" data-name="personajes individuales"><ellipse class="cls-1" cx="72.05" cy="234.37" rx="72.05" ry="29.87"/><path class="cls-2" d="M137.43,152.86a98.83,98.83,0,0,0-7.63-38.77h0a83.18,83.18,0,0,0-3.94-8h0l0-.08c-.31-.55-.63-1.08-.94-1.6-2.26-4.22-7.37-16.69-5.07-40.27l0,0c0-.7.11-1.39.11-2.1a34.56,34.56,0,0,0-69.11,0c0,.74,1.86,15-.73,29.79,0,0,0,0,0,0a48.88,48.88,0,0,1-3.65,11.64,77.15,77.15,0,0,0-5.51,10.59h0a98.64,98.64,0,0,0-7.66,38.81c0,.46,0,.92,0,1.37,0,0,0,.05,0,.07,0,46.75,20.52,82,20.52,82h0c1.46,3.05,4.24,5.93,8.39,8.33,12.8,7.39,33.56,7.39,46.36,0,4.16-2.4,6.94-5.28,8.4-8.33h0s20.52-35.27,20.52-82a0,0,0,0,0,0,0C137.41,153.8,137.43,153.33,137.43,152.86Z"/><path class="cls-3" d="M129.8,114.09a83.18,83.18,0,0,0-3.94-8h0l0-.08c-.31-.55-.63-1.08-.94-1.6a37.78,37.78,0,0,1-2.68-6.59c-5.17,6.81-12.3,13-19.64,18.34a36.79,36.79,0,0,1-55-14.86l-.13-.3c-.37.93-.72,1.77-1,2.43a77.15,77.15,0,0,0-5.51,10.59h0a98.64,98.64,0,0,0-7.66,38.81c0,.46,0,.92,0,1.37,0,0,0,.05,0,.07,0,46.75,20.52,82,20.52,82h0c2.39,5,8.32,9.52,18,12.27a49.89,49.89,0,0,0,26.91,0c9.87-2.74,15.84-7.29,18.25-12.32h0s20.52-35.27,20.52-82a0,0,0,0,0,0,0c0-.48,0-.95,0-1.42A98.83,98.83,0,0,0,129.8,114.09Z"/><g class="cls-4"><path class="cls-5" d="M122.52,97.85s-12.76,15-25.91,22C96.61,119.84,114.58,113.1,122.52,97.85Z"/></g><g class="cls-6"><path class="cls-7" d="M122.24,97.86c-3.59-9.5-3.14-28.95-2.82-33.31l0,0c0-.7.08-1.39.06-2.1A34.55,34.55,0,0,0,50.35,64a93.19,93.19,0,0,1,.33,28.09c3.73,5.81,13.15,17.88,28.51,18.26C100.21,110.9,106.28,88.81,122.24,97.86Z"/></g><path class="cls-8" d="M59.23,115.89s18.49,14.42,40.7,2L63.17,137Z"/><g class="cls-4"><polygon class="cls-5" points="63.17 137.03 87.13 146.7 87.13 131.23 109.56 140.56 104.44 114.8 106.91 137.64 85.87 128.99 85.73 144.25 63.17 137.03"/></g><g class="cls-4"><polygon class="cls-5" points="61.41 137.03 49.23 140.28 54.72 126.88 38.41 123.52 48.94 106.76 40.28 122.97 56.44 125.78 51.24 138.56 61.41 137.03"/></g><path class="cls-9" d="M37.78,193.32s14.38,19.11,95.39-1.48l-3.74,14.08s-55.76,18-87.5,2.75C41.93,208.67,38.88,198.34,37.78,193.32Z"/><path class="cls-9" d="M61.41,140.28c-.88,4.59-1.36,9.24-1.78,13.88s-.67,9.31-.77,14c-.3,9.32,0,18.65.37,28-.58-4.64-1-9.3-1.27-14s-.26-9.37-.18-14.05C58.16,158.75,58.92,149.33,61.41,140.28Z"/><path class="cls-10" d="M38.78,140.92A46.56,46.56,0,0,0,56.29,145s-.63,2.9-.86,5c0,0-11.18.26-17-4Z"/><path class="cls-3" d="M39.32,141.8,39,145.6s4.07,3.84,15.88,3.67a35.62,35.62,0,0,1,.67-3.62A41.56,41.56,0,0,1,39.32,141.8Z"/><path class="cls-10" d="M51.33,117.92a38.83,38.83,0,0,1-5.56-1.51l-2.59,5.07a14.05,14.05,0,0,0,5.83,1.3Z"/><path class="cls-3" d="M50.32,118.38a34.59,34.59,0,0,1-4-1.17l-2.12,3.9a12.65,12.65,0,0,0,4.23,1Z"/><g class="cls-4"><path class="cls-5" d="M92.24,158.42v0a1.84,1.84,0,0,0-.3-.74,4.85,4.85,0,0,1-.7-2.74,6.56,6.56,0,0,1,1.24-2.83l-2-2.24a2.53,2.53,0,0,1-1.88.41,3.17,3.17,0,0,1-2.09-.66,3.06,3.06,0,0,1-2.14.4,2.54,2.54,0,0,1-1.81-.64l-2.24,2a6.45,6.45,0,0,1,.87,3,4.91,4.91,0,0,1-1,2.63,1.75,1.75,0,0,0-.4.7v0a3.89,3.89,0,0,0,2.07,4.54c1.44.7,3.78,2,3.73,2.69.05-.73,2.54-1.69,4.06-2.21A3.89,3.89,0,0,0,92.24,158.42Z"/></g><path class="cls-11" d="M91.75,158.09v0a1.82,1.82,0,0,0-.3-.75,4.83,4.83,0,0,1-.7-2.73A6.63,6.63,0,0,1,92,151.74l-2-2.24a2.53,2.53,0,0,1-1.88.41,3.17,3.17,0,0,1-2.09-.66,3.06,3.06,0,0,1-2.14.4,2.54,2.54,0,0,1-1.81-.64l-2.24,2a6.39,6.39,0,0,1,.87,3,4.91,4.91,0,0,1-1,2.63,1.75,1.75,0,0,0-.4.7v0a3.89,3.89,0,0,0,2.07,4.53c1.44.7,3.78,2,3.73,2.7,0-.74,2.54-1.7,4.06-2.22A3.89,3.89,0,0,0,91.75,158.09Z"/><path class="cls-12" d="M85.18,162.91a16.87,16.87,0,0,0-3.37-2,2.81,2.81,0,0,1-1.51-3.29v0a1,1,0,0,1,.17-.29,5.83,5.83,0,0,0,1.3-3.27,6.44,6.44,0,0,0-.62-2.78l1-.89a3.84,3.84,0,0,0,1.42.35h.29a5.48,5.48,0,0,0,2.09-.24A5.31,5.31,0,0,0,88,151a1.74,1.74,0,0,0,.3,0,3.63,3.63,0,0,0,1.45-.17l.89,1a6.28,6.28,0,0,0-1,2.68,5.84,5.84,0,0,0,.88,3.41.71.71,0,0,1,.13.31v0a2.82,2.82,0,0,1-1.92,3.07A17.88,17.88,0,0,0,85.18,162.91Z"/><path class="cls-13" d="M88.51,156.29a2.91,2.91,0,1,1-2.72-3.08A2.91,2.91,0,0,1,88.51,156.29Z"/><path class="cls-14" d="M85.51,159l.87,3.26c.29-.13.62-.27,1-.41l-.8-3A3.07,3.07,0,0,1,85.51,159Z"/><path class="cls-14" d="M85.06,153.26l-.68-2.54h-.8l-.31,0,.8,3A2.85,2.85,0,0,1,85.06,153.26Z"/><g class="cls-15"><path d="M129.8,114.09a83.18,83.18,0,0,0-3.94-8h0l0-.08c-.31-.55-.63-1.08-.94-1.6a37.78,37.78,0,0,1-2.68-6.59c-5.17,6.81-12.29,13-19.64,18.33a36.46,36.46,0,0,1-5.27,3.12,45,45,0,0,0,.55,5c1.4,8.21,5,15.85,7.52,23.79a88.79,88.79,0,0,1-5.08,65.2c-6.09,12.3-15.12,23.58-17.72,37a50,50,0,0,0,16.09-1.64c9.87-2.74,15.84-7.29,18.25-12.32h0s20.52-35.27,20.52-82a0,0,0,0,0,0,0c0-.48,0-.95,0-1.42A98.83,98.83,0,0,0,129.8,114.09Z"/></g><path class="cls-2" d="M80.26,0A73.88,73.88,0,0,0,65.15,1.67C63.61,2.21,40,11.12,40.38,44.36a27.7,27.7,0,0,0,2.45,11.46l0,.06a26.89,26.89,0,0,1,2.23,7.62,29.12,29.12,0,0,1,.25,5.61c-.59,10.15,2.45,20.35,9.6,27.44,7.32,7.28,15.94,11.5,24.23,11.3,17.1-.39,42.36-27.13,41.61-59.4S108.93-.64,80.26,0Z"/><path d="M57.93,89.84a22.53,22.53,0,0,0,4.73.65,28.67,28.67,0,0,0,4.73-.15,49.69,49.69,0,0,0,9.32-2.1,22,22,0,0,1-4.41,2.08,26,26,0,0,1-4.79,1.09C64.26,91.66,60.81,91.44,57.93,89.84Z"/><ellipse cx="75.04" cy="61.95" rx="2.5" ry="3.98" transform="translate(-1.41 1.75) rotate(-1.32)"/><path d="M72.05,55.87a4.82,4.82,0,0,1,4-1.11,3.9,3.9,0,0,1,2,1.06,3.74,3.74,0,0,1,1,1.88,6,6,0,0,0-3.16-1.89A11.35,11.35,0,0,0,72.05,55.87Z"/><ellipse cx="55.5" cy="62.4" rx="2.5" ry="3.98" transform="translate(-1.42 1.3) rotate(-1.32)"/><path d="M51.77,57.5a4.83,4.83,0,0,1,3.44-2.37,4,4,0,0,1,2.19.37A3.74,3.74,0,0,1,58.94,57a6,6,0,0,0-3.59-.76A11.37,11.37,0,0,0,51.77,57.5Z"/><path d="M62.8,65.49c.08,3.81-1.71,7.4-3.27,10.69-.74,1.6-1.56,3.47-1,4.92.77,1.41,2.87,1.85,4.63,2.23-1.79,0-4,0-5.36-1.83-1-2.09.07-4.08.7-5.77.85-1.71,1.73-3.3,2.46-5A25.12,25.12,0,0,0,62.8,65.49Z"/><g class="cls-16"><path class="cls-7" d="M112.57,14.18c-1.88,16.81-5.44,38.67-11.85,50h0c-1.9,4.65-5.15,8.94-6.49,13.85s-.7,9.9-.82,14.89A49.79,49.79,0,0,1,92,103.26c14.36-9,28.65-29.59,28.65-53.57C120.63,34.35,118.19,22.46,112.57,14.18Z"/></g><path class="cls-2" d="M108.11,55.34s10.46-14.7,16.73-.15-10.66,22.62-16.29,14.73"/><g class="cls-17"><path d="M121,56.11A12.3,12.3,0,0,0,118.36,55a4,4,0,0,0-2.51-.05c-1.61.48-2.65,2.18-3.69,3.81a7.85,7.85,0,0,1,1-2.82,4.91,4.91,0,0,1,2.41-2A5.19,5.19,0,0,1,121,56.11Z"/></g><g class="cls-4"><path d="M115.47,56.45a6.08,6.08,0,0,1,3,5.72,5.7,5.7,0,0,1-1.58,3,14,14,0,0,1-1.28,1.05l-1.47.73c1.54-1.49,3-3.06,3.27-5a5.27,5.27,0,0,0-.39-2.85A12,12,0,0,0,115.47,56.45Z"/></g><g class="cls-16"><path class="cls-7" d="M80.26,0A73.88,73.88,0,0,0,65.15,1.67C63.61,2.21,40,11.12,40.38,44.36c0,.48,0,1,.08,1.45a20.87,20.87,0,0,0,4.81.55,317,317,0,0,0,40.41-1.27,8.56,8.56,0,0,1,4.64.41c1.5.75,2.39,2.3,3.2,3.77q4.8,8.71,9.59,17.43a3.8,3.8,0,0,0,.72,1c1.1,1,3,.25,3.74-1a8.19,8.19,0,0,0,.59-4.35c-.16-4.77.83-10.5,5.22-12.38A23.37,23.37,0,0,1,116.9,49a17.64,17.64,0,0,0,3.83-1.54C119.78,15.86,108.63-.64,80.26,0Z"/></g><path class="cls-2" d="M112.68,219s-4.64,22.3,10.43,11.2c10.07-7.41,13.25-26.6,13.25-26.6Z"/><path class="cls-18" d="M134.92,203.52a24,24,0,0,1-20.36,13.38c2.47-7.93,11-40.33-.25-80.26,2.86-1.36-5-4.93-5-4.93s13.52,37.83.81,88.33c22.6,1.62,26.22-16.29,26.28-16.52Z"/><path class="cls-3" d="M109.27,131.71c16.22,32.13,3.41,86.58,3.41,86.58a25.34,25.34,0,0,0,23.68-14.67s10.94-42.91-1.38-79.3c-2.47-7.29-11.28-10.95-17.85-6.94C109.56,122,109.27,131.71,109.27,131.71Z"/><path class="cls-10" d="M133.23,130.61a50.12,50.12,0,0,1-17.73,7.67s1.22,2.94,1.87,5.15c0,0,11.88-1.9,17.23-7.49Z"/><path class="cls-3" d="M132.83,131.65l1.09,3.95s-3.56,4.84-16.08,7a39.57,39.57,0,0,0-1.41-3.7A44.91,44.91,0,0,0,132.83,131.65Z"/><g class="cls-4"><path class="cls-5" d="M116,129.42s7.65,52.33.94,87.84c0,0,6.48-18.28,5.86-50.25S116,129.42,116,129.42Z"/></g></g></g></svg>