<svg xmlns="http://www.w3.org/2000/svg" viewBox="0 0 144.1 278.95"><defs><style>.cls-1{opacity:0.2;}.cls-2{fill:#d8ca9a;}.cls-3{opacity:0.4;}.cls-4{fill:#c69c6d;}.cls-5{fill:#f2f2f2;}.cls-6{fill:#4d4d4d;}.cls-7{fill:#fff;}.cls-8{fill:#1a1a1a;}.cls-9{fill:#333;}.cls-10{opacity:0.25;}.cls-11{fill:#041015;}.cls-12{fill:#e6dab0;}.cls-13{opacity:0.3;}.cls-14{fill:#754807;}.cls-15{fill:#663c00;}.cls-16{opacity:0.17;}.cls-17{fill:#6d4a2f;}.cls-18{fill:#875536;}.cls-19{fill:#bf8d5b;}.cls-20{fill:#3b3b3a;}.cls-21{fill:#fbbd09;}.cls-22{fill:#fce66d;}.cls-23{fill:#9d6941;}.cls-24{fill:#2d2d2d;}</style></defs><title>Recurso 120</title><g id="Capa_2" data-name="Capa 2"><g id="personajes_individuales" data-name="personajes individuales"><g class="cls-1"><ellipse cx="72.05" cy="249.07" rx="72.05" ry="29.87"/></g><path class="cls-2" d="M122.12,161.67a98.69,98.69,0,0,0-7.63-38.77h0a80.87,80.87,0,0,0-3.94-8h0l-.06-.07c-.31-.55-.63-1.08-.94-1.61C107.31,109,102.2,96.56,104.49,73l0,0c0-.7.11-1.39.11-2.09a34.56,34.56,0,1,0-69.11,0c0,.73,1.87,14.94-.73,29.78,0,0,0,0,0,0a48.51,48.51,0,0,1-3.66,11.63,80,80,0,0,0-5.51,10.59h0a98.59,98.59,0,0,0-7.65,38.8c0,.46,0,.93,0,1.38,0,0,0,0,0,.07,0,46.75,20.52,82,20.52,82h0c1.46,3.06,4.24,5.93,8.39,8.34,12.8,7.39,33.57,7.39,46.36,0,4.17-2.41,6.94-5.28,8.4-8.33h0s20.52-35.27,20.52-82v0C122.11,162.61,122.12,162.14,122.12,161.67Z"/><g class="cls-3"><path class="cls-4" d="M103.92,84.11a117.64,117.64,0,0,1,.57-11.94l0,0c0-.7.11-1.39.11-2.1a34.56,34.56,0,0,0-69.11,0c0,.74,1.87,15-.73,29.79,0,0,0,0,0,0,0,.18-.08.32-.12.5,4,11.31,13.66,18,28.62,16.74C84.17,115.31,92.53,104.61,103.92,84.11Z"/></g><path class="cls-5" d="M106.89,106.67s-47.67,30.25-74.8,3.17c0,0,4.13,21.85,22,35.8C54.06,145.64,99,127.39,106.89,106.67Z"/><path class="cls-6" d="M114.49,122.9a80.87,80.87,0,0,0-3.94-8h0l-.06-.07c-.31-.55-.63-1.08-.94-1.61a38.22,38.22,0,0,1-2.67-6.58C90.41,128.35,54.05,144,54.05,144c-8.45-5.7-17.47-24.06-22-34.16-.37.93-.72,1.77-1,2.43a80,80,0,0,0-5.51,10.59h0a98.59,98.59,0,0,0-7.65,38.8c0,.46,0,.93,0,1.38,0,0,0,0,0,.07,0,46.75,20.52,82,20.52,82h0c1.46,3.06,4.24,5.93,8.39,8.34,12.8,7.39,33.57,7.39,46.36,0,4.17-2.41,6.94-5.28,8.4-8.33h0s20.52-35.27,20.52-82v0c0-.48,0-1,0-1.42A98.69,98.69,0,0,0,114.49,122.9Z"/><path class="cls-7" d="M60.84,121.11,70,137.44s29.05-10.9,36.89-30.77C106.89,106.67,85.46,121.45,60.84,121.11Z"/><path class="cls-7" d="M53.08,120.47,42.72,132.91s-9.85-13.5-10.63-23.07C32.09,109.84,42.89,118.12,53.08,120.47Z"/><path class="cls-8" d="M51.43,132.91l-2.23,6.61s2.85,3.71,4.85,4.48l8.5-4.07-1.95-6.58Z"/><path class="cls-8" d="M48,126.55s1.73,4.87,3.42,6.36a12.29,12.29,0,0,0,9.27.76,10.76,10.76,0,0,0,3.8-6l-3.66-6.53s-4.81-.31-7.76-.64Z"/><path class="cls-9" d="M55.34,257.23c-6.73-54.91-1.88-112.7-1.83-113.28l1.07.1c0,.57-4.88,58.26,1.83,113.05Z"/><path class="cls-9" d="M39.37,246.71a21.45,21.45,0,0,0,7.45,6.76c12.8,7.39,33.57,7.39,46.36,0,4.17-2.41,6.94-5.28,8.4-8.33h0l.65-1.17C73.45,261.55,50.37,253.12,39.37,246.71Z"/><circle class="cls-6" cx="53.21" cy="166.52" r="3.88"/><circle class="cls-8" cx="53.21" cy="166.52" r="2.97"/><circle class="cls-6" cx="52.29" cy="186.07" r="3.88"/><circle class="cls-8" cx="52.29" cy="186.07" r="2.97"/><circle class="cls-6" cx="52.29" cy="206.01" r="3.88"/><circle class="cls-8" cx="52.29" cy="206.01" r="2.97"/><g class="cls-10"><path class="cls-11" d="M105.09,111.06s-12.76,15-25.91,22C79.18,133.05,97.15,126.31,105.09,111.06Z"/></g><g class="cls-10"><path class="cls-11" d="M27,215.19s24.12,14.29,60.88,2.89C87.87,218.08,49.81,234.37,27,215.19Z"/></g><g class="cls-10"><path class="cls-11" d="M114.49,122.91a83.18,83.18,0,0,0-3.94-8h0a.5.5,0,0,0-.06-.08c-.3-.55-.63-1.08-.94-1.61a38.22,38.22,0,0,1-2.67-6.58c-4.68,13.06-22.29,23.74-24.09,24.63C81,142.24,87.55,149,90,156.94A88.77,88.77,0,0,1,85,222.13c-6.09,12.31-15.11,23.59-17.72,37a50.26,50.26,0,0,0,16.1-1.64c9.87-2.74,15.84-7.3,18.24-12.32h0s20.52-35.27,20.52-82v0c0-.48,0-.94,0-1.42A98.81,98.81,0,0,0,114.49,122.91Z"/></g><path class="cls-12" d="M66.42,6.75C45.74,6.75,34.55,11.28,26.21,31,22,40.86,23.39,51.91,27.73,61.73a27.16,27.16,0,0,1,2.05,7.68A28.63,28.63,0,0,1,29.9,75c-.83,10.15,2,20.41,9,27.66,7.16,7.45,15.68,11.86,24,11.86,17.1,0,43-26.15,43-58.42S95.09,6.75,66.42,6.75Z"/><g class="cls-13"><path class="cls-4" d="M105.44,56.18C105.44,25.9,96,9,71.16,7,66.54,14.15,63,22.19,62.74,30.79A13.93,13.93,0,0,0,63.41,36c1.62,4.39,6.29,6.7,10.3,9.12,7.24,4.39,14,11.69,13.23,20.13-.6,7-6.06,12.53-7.9,19.26-1.32,4.81-.7,9.91-.83,14.89a49.14,49.14,0,0,1-1.42,10.38C91.15,100.75,105.44,80.17,105.44,56.18Z"/></g><path d="M42,96a23.13,23.13,0,0,0,4.72.77,28.73,28.73,0,0,0,4.73,0,49.71,49.71,0,0,0,9.37-1.88,22.61,22.61,0,0,1-4.47,2,25.16,25.16,0,0,1-4.81,1C48.31,98,44.86,97.7,42,96Z"/><ellipse cx="59.77" cy="68.55" rx="2.5" ry="3.98"/><path d="M56.92,62.4a4.83,4.83,0,0,1,4-1,4,4,0,0,1,1.92,1.11,3.76,3.76,0,0,1,.94,1.9,5.94,5.94,0,0,0-3.11-2A11.21,11.21,0,0,0,56.92,62.4Z"/><ellipse cx="40.22" cy="68.55" rx="2.5" ry="3.98"/><path d="M36.61,63.56a4.83,4.83,0,0,1,3.49-2.29,4.09,4.09,0,0,1,2.18.42,3.74,3.74,0,0,1,1.51,1.49,6,6,0,0,0-3.57-.83A11.22,11.22,0,0,0,36.61,63.56Z"/><path d="M47.45,71.8c0,3.81-1.88,7.36-3.51,10.61-.78,1.59-1.65,3.44-1.07,4.9.74,1.43,2.83,1.92,4.58,2.34-1.79-.09-4-.05-5.31-2-1-2.11.15-4.07.83-5.75.89-1.69,1.8-3.26,2.57-4.94A24.91,24.91,0,0,0,47.45,71.8Z"/><path class="cls-14" d="M77.31,41.25S73.68,51.54,86,53.76c0,0,4.44,10.49-1.62,20.38,0,0,6.46-4,8.88-16.44,2.26-11.58,17.68-.25,6.32,14.43a24.52,24.52,0,0,0-5.36,12.72c-.33,3.76.25,7.81,3.28,10.49,0,0-1.21-5.16,3.23-7.73,0,0,4.23,3.48,10.08-1.77,0,0-8.59-.4-5-7.87,0,0,19.13-69-30.91-77.07S14.56,41.25,16.18,57.19C16.18,57.19,41.6,60.62,77.31,41.25Z"/><path class="cls-15" d="M19.74,54.28c10.74-2.4,21.41-4.9,31.62-8.69A77.48,77.48,0,0,0,66.09,38.8c4.57-2.78,9-6.24,11.42-11.25-1.6,5.41-6,9.51-10.51,12.64a69.35,69.35,0,0,1-14.9,7.43,131.49,131.49,0,0,1-16,4.44A116,116,0,0,1,19.74,54.28Z"/><path class="cls-15" d="M21.78,47.67a46.3,46.3,0,0,1,3.54-17.35,42.59,42.59,0,0,1,10.1-14.76c4.49-4,9.65-7.38,15.42-9.06,2.77-1.16,5.79-1.4,8.67-2.08,2.94-.34,5.91-.42,8.84-.53-2.9.6-5.82.88-8.65,1.57-2.78.88-5.69,1.29-8.3,2.6a42.1,42.1,0,0,0-14.5,9.07A44.07,44.07,0,0,0,26.82,31,60.11,60.11,0,0,0,21.78,47.67Z"/><path class="cls-15" d="M97.15,15.33a39.08,39.08,0,0,1,7.55,13.39,63.28,63.28,0,0,1,3.07,15.16,83,83,0,0,1-.36,15.45c-.31,2.56-.81,5.09-1.21,7.63l-1.85,7.48,1.33-7.57c.29-2.55.7-5.08.91-7.62A90.68,90.68,0,0,0,106.7,44a67.07,67.07,0,0,0-2.79-15A43.89,43.89,0,0,0,97.15,15.33Z"/><g class="cls-16"><path d="M102.33,57.59a11.84,11.84,0,0,0-2.56-1.2,4,4,0,0,0-2.51-.11c-1.62.44-2.7,2.11-3.78,3.72a7.84,7.84,0,0,1,1-2.79,4.8,4.8,0,0,1,2.46-2A5.19,5.19,0,0,1,102.33,57.59Z"/></g><g class="cls-10"><path d="M96.84,57.8a6.09,6.09,0,0,1,2.84,5.8,5.74,5.74,0,0,1-1.64,3,13.75,13.75,0,0,1-1.31,1l-1.49.7c1.58-1.46,3.11-3,3.38-4.9a5.13,5.13,0,0,0-.32-2.85A12.29,12.29,0,0,0,96.84,57.8Z"/></g><path class="cls-15" d="M20.62,51.14a187.78,187.78,0,0,0,20.27-9C47.35,38.62,53.5,34.53,58,28.54a27,27,0,0,1-6.79,9A46.68,46.68,0,0,1,41.91,44a65.93,65.93,0,0,1-10.38,4.45A61.26,61.26,0,0,1,20.62,51.14Z"/><path class="cls-17" d="M74.16,274c2,1,5,2.44,6.44,3.18,0-5.07-1.89-27.86-1.88-32.93a8.76,8.76,0,0,1,.75-4.07,1.85,1.85,0,0,0,.09-.49l-6.11-3.55c-.11-.07-.22-.17-.33-.25a6.59,6.59,0,0,0-1.06,4.05c0,4.66,0,23,0,30.7A3.73,3.73,0,0,0,74.16,274Z"/><polygon class="cls-17" points="125.34 229.34 125.34 243.68 78.69 271.3 78.71 253.03 125.34 229.34"/><path class="cls-18" d="M125.32,246.39a8.87,8.87,0,0,1-.76,4.07,1.93,1.93,0,0,0-.09.49c-.34.14-.45.49-.64.75-1.07,1.54-2.69,2.29-4.25,3.16-2.28,1.26-4.48,2.64-6.73,3.94-3,1.72-5.95,3.41-8.92,5.12-1.68,1-3.35,2-5.05,2.95-3.66,2.08-7.32,4.18-10.94,6.35-1.83,1.1-3.74,2.08-5.57,3.19-.57.34-1.23.36-1.77.73-1.41-.55-1.88-1.3-1.88-3.09,0-4.84,0-8.28,0-8.28l26.93-15.35,0-.15a7.66,7.66,0,0,0,.72-.27l3.16-1.8,1-.57c.47-.25.93-.51,1.39-.77l3.07-1.75c1.78-1,3.56-2.07,5.35-3.09.19-.11.41-.18.53-.4l.14.06,4.39-2.5S125.32,241.33,125.32,246.39Z"/><path class="cls-19" d="M73.12,235.85c.11.08.22.18.33.25l6.11,3.55c.34-.14.46-.49.64-.75,1.08-1.53,2.69-2.29,4.26-3.16,2.27-1.26,4.48-2.63,6.73-3.94l8.91-5.12c1.69-1,3.36-2,5.05-3,3.67-2.08,7.33-4.17,10.94-6.35,1.84-1.1,3.74-2.08,5.58-3.19.56-.34,1.23-.36,1.76-.73a42.16,42.16,0,0,0-4.28-2.57c-2.25-1.29-2.18-1.66-4.26-.5l-1.18.68a15.62,15.62,0,0,1-1.63.94l-6.33,3.66,0,.07c-3.29,1.9-6.58,3.81-9.89,5.68A21.63,21.63,0,0,1,93.1,223l-6.48,3.75,0,.05-8.29,4.75-.29.17-2.73,1.59A4.27,4.27,0,0,0,73.12,235.85Zm35.41-19.23,2.83-1.59-2.83,1.59Zm-17.3,10a10.38,10.38,0,0,1,1.29-.65c0-.12,0-.24,0-.35,0,.11,0,.23,0,.35A10.38,10.38,0,0,0,91.23,226.62Zm-1.72,1,.61-.34Z"/><path class="cls-20" d="M111.36,215c.42-.91.11-1.87.19-2.8-.17-2-1.4-3.1-3-4.18-2.25-1.47-4.08-1.13-6.18.19-3.08,1.95-6.24,3.75-9.44,5.48-3.41,1.84-5.12,4.8-5.94,8.42a11.19,11.19,0,0,0-.12,4.08l2.68,1.4c1-.53,1.95-1.22,3-1.65a17.69,17.69,0,0,1,.08-2.82,4.84,4.84,0,0,1,2.48-3.5c3.38-1.91,6.74-3.88,10.11-5.81.17-.1.32-.34.59-.19.11.52-.09,1.07.13,1.58a18.77,18.77,0,0,1,2.62,1.39Z"/><path class="cls-21" d="M89.51,227.62l-2.68-1.4-.24.56a8.58,8.58,0,0,1,.06,2c0,.28,0,.57.24.77a6.25,6.25,0,0,0,2.42,1.33C89.7,229.79,89.35,228.69,89.51,227.62Z"/><path class="cls-22" d="M89.51,227.62c-.16,1.07.19,2.17-.2,3.22,1.19,0,2-.93,3-1.37.4-.18.23-.65.24-1,0-.84,0-1.68,0-2.51C91.46,226.4,90.53,227.09,89.51,227.62Z"/><path class="cls-22" d="M111.36,215l-2.83,1.59-.06,3.29a11.93,11.93,0,0,0,2.88-1.49.35.35,0,0,0,.17-.26A9.66,9.66,0,0,0,111.36,215Z"/><path class="cls-21" d="M108.47,219.91l.06-3.29a18.77,18.77,0,0,0-2.62-1.39c-.06.17-.12.34-.19.51a5.25,5.25,0,0,1,.11,2,1.07,1.07,0,0,0,.52,1A7.32,7.32,0,0,0,108.47,219.91Z"/><path class="cls-23" d="M78.7,259.42h0l0-15.2a8.76,8.76,0,0,1,.75-4.07,1.85,1.85,0,0,0,.09-.49c.34-.14.46-.49.64-.75,1.08-1.53,2.69-2.29,4.26-3.16,2.27-1.26,4.48-2.63,6.73-3.94l8.91-5.12c1.69-1,3.36-2,5.05-3,3.67-2.08,7.33-4.17,10.94-6.35,1.84-1.1,3.74-2.08,5.58-3.19.56-.34,1.23-.36,1.76-.73,1.42.55,1.88,1.3,1.89,3.09l0,14.53h0v6.71L98.41,253.15v.15c-.25.08-.49.17-.73.27l-3.16,1.8c-.31.19-.63.39-1,.57l-1.39.77-3.07,1.75-5.34,3.09c-.19.11-.42.18-.53.4l-.14-.06-4.39,2.5Z"/><path class="cls-21" d="M108.3,242.88l-7.83,4.64a.71.71,0,0,0-.34.6v7.79a.7.7,0,0,0,1.05.61L109,252a.7.7,0,0,0,.35-.6v-7.89A.7.7,0,0,0,108.3,242.88Z"/><path class="cls-22" d="M101.18,255.37l7.83-4.55a.71.71,0,0,0,.35-.61v1.16a.7.7,0,0,1-.35.6l-7.83,4.55a.7.7,0,0,1-1.05-.61v-1.15A.7.7,0,0,0,101.18,255.37Z"/><path class="cls-12" d="M94.3,226s-4.57,22,10.27,11c9.92-7.3,13.05-26.2,13.05-26.2Z"/><path class="cls-24" d="M116.2,210.76a23.6,23.6,0,0,1-20.06,13.18c2.44-7.81,10.82-39.73-.24-79.06,2.82-1.33-4.07-4.62-4.07-4.62s12.43,37-.09,86.78c22.25,1.59,25.83-16,25.88-16.28Z"/><path class="cls-6" d="M93,144.65c12.74,32,1.29,80.66,1.29,80.66a25,25,0,0,0,23.32-14.45s10.78-42.27-1.35-78.11c-2.44-7.18-11.12-10.79-17.59-6.84a13.77,13.77,0,0,0-2.78,2.22C91.69,132.44,90.78,139.05,93,144.65Z"/></g></g></svg>