<svg xmlns="http://www.w3.org/2000/svg" viewBox="0 0 144.1 278.95"><defs><style>.cls-1{opacity:0.2;}.cls-2{fill:#bca577;}.cls-3{opacity:0.54;}.cls-4{fill:#91815d;}.cls-5{fill:#f2f2f2;}.cls-6{fill:gray;}.cls-7{fill:#fff;}.cls-8{fill:#1a1a1a;}.cls-9{fill:#333;}.cls-10{fill:#4d4d4d;}.cls-11{opacity:0.25;}.cls-12{fill:#041015;}.cls-13{opacity:0.15;}.cls-14{fill:#1e1e1e;}.cls-15{fill:#c1ac7c;}.cls-16{opacity:0.3;}.cls-17{opacity:0.17;}.cls-18{fill:#6d4a2f;}.cls-19{fill:#875536;}.cls-20{fill:#bf8d5b;}.cls-21{fill:#3b3b3a;}.cls-22{fill:#fbbd09;}.cls-23{fill:#fce66d;}.cls-24{fill:#9d6941;}.cls-25{fill:#e6dab0;}</style></defs><title>Recurso 121</title><g id="Capa_2" data-name="Capa 2"><g id="personajes_individuales" data-name="personajes individuales"><g class="cls-1"><ellipse cx="72.05" cy="249.07" rx="72.05" ry="29.87"/></g><path class="cls-2" d="M123.14,161.67a98.69,98.69,0,0,0-7.63-38.77h0a80.87,80.87,0,0,0-3.94-8h0l-.06-.07c-.3-.55-.63-1.08-.94-1.61-2.25-4.21-7.36-16.69-5.07-40.27l0,0c0-.7.11-1.39.11-2.09a34.56,34.56,0,1,0-69.11,0c0,.73,1.87,14.94-.73,29.78,0,0,0,0,0,0a48.51,48.51,0,0,1-3.66,11.63,80,80,0,0,0-5.51,10.59h0a98.59,98.59,0,0,0-7.65,38.8c0,.46,0,.93,0,1.38,0,0,0,0,0,.07,0,46.75,20.52,82,20.52,82h0c1.46,3.06,4.24,5.93,8.39,8.34,12.81,7.39,33.57,7.39,46.36,0,4.17-2.41,6.94-5.28,8.4-8.33h0s20.52-35.27,20.52-82v0C123.13,162.61,123.14,162.14,123.14,161.67Z"/><g class="cls-3"><path class="cls-4" d="M104.94,84.11a117.64,117.64,0,0,1,.57-11.94l0,0c0-.7.11-1.39.11-2.1a34.56,34.56,0,0,0-69.11,0c0,.74,1.87,15-.73,29.79,0,0,0,0,0,0,0,.18-.08.32-.12.5,4,11.31,13.66,18,28.62,16.74C85.19,115.31,93.55,104.61,104.94,84.11Z"/></g><path class="cls-5" d="M107.91,106.67s-47.67,30.25-74.8,3.17c0,0,4.13,21.85,22,35.8C55.08,145.64,100,127.39,107.91,106.67Z"/><path class="cls-6" d="M115.51,122.9a80.87,80.87,0,0,0-3.94-8h0l-.06-.07c-.3-.55-.63-1.08-.94-1.61a38.22,38.22,0,0,1-2.67-6.58C91.43,128.35,55.07,144,55.07,144c-8.45-5.7-17.46-24.06-22-34.16-.36.93-.72,1.77-1,2.43a80,80,0,0,0-5.51,10.59h0a98.59,98.59,0,0,0-7.65,38.8c0,.46,0,.93,0,1.38,0,0,0,0,0,.07,0,46.75,20.52,82,20.52,82h0c1.46,3.06,4.24,5.93,8.39,8.34,12.81,7.39,33.57,7.39,46.36,0,4.17-2.41,6.94-5.28,8.4-8.33h0s20.52-35.27,20.52-82v0c0-.48,0-1,0-1.42A98.69,98.69,0,0,0,115.51,122.9Z"/><path class="cls-7" d="M61.86,121.11,71,137.44s29-10.9,36.88-30.77C107.91,106.67,86.48,121.45,61.86,121.11Z"/><path class="cls-7" d="M54.1,120.47,43.74,132.91s-9.84-13.5-10.63-23.07C33.11,109.84,43.91,118.12,54.1,120.47Z"/><path class="cls-8" d="M52.45,132.91l-2.22,6.61s2.84,3.71,4.84,4.48l8.5-4.07-2-6.58Z"/><path class="cls-8" d="M49,126.55s1.73,4.87,3.42,6.36a12.29,12.29,0,0,0,9.27.76,10.76,10.76,0,0,0,3.8-6l-3.66-6.53s-4.81-.31-7.76-.64Z"/><path class="cls-9" d="M56.36,257.23c-6.73-54.9-1.88-112.7-1.83-113.28l1.07.09c-.05.58-4.88,58.27,1.83,113.06Z"/><path class="cls-10" d="M40.39,246.71a21.45,21.45,0,0,0,7.45,6.76c12.81,7.39,33.57,7.39,46.36,0,4.17-2.41,6.94-5.28,8.4-8.33h0l.65-1.17C74.47,261.55,51.39,253.12,40.39,246.71Z"/><circle class="cls-6" cx="53.71" cy="171.78" r="3.88"/><circle class="cls-8" cx="53.71" cy="171.78" r="2.97"/><circle class="cls-6" cx="53.04" cy="191.35" r="3.88"/><circle class="cls-8" cx="53.04" cy="191.35" r="2.97"/><circle class="cls-6" cx="53.29" cy="211.29" r="3.88"/><circle class="cls-8" cx="53.29" cy="211.29" r="2.97"/><g class="cls-11"><path class="cls-12" d="M106.65,111.06s-12.76,15-25.91,22C80.74,133.05,98.71,126.31,106.65,111.06Z"/></g><g class="cls-11"><path class="cls-12" d="M28.39,215.19s24.13,14.29,60.88,2.89C89.27,218.08,51.21,234.37,28.39,215.19Z"/></g><g class="cls-13"><path class="cls-12" d="M115.52,122.92a83.18,83.18,0,0,0-3.94-8h0l0-.08c-.31-.55-.63-1.08-1-1.61a38.22,38.22,0,0,1-2.67-6.58c-4.68,13.07-22.28,23.74-24.09,24.64C82,142.25,88.58,149,91.07,157A88.81,88.81,0,0,1,86,222.14c-6.09,12.31-15.12,23.59-17.73,37a50.26,50.26,0,0,0,16.1-1.64c9.87-2.74,15.84-7.3,18.25-12.32h0s20.52-35.27,20.52-82c0,0,0,0,0,0,0-.48,0-.94,0-1.42A98.81,98.81,0,0,0,115.52,122.92Z"/></g><ellipse class="cls-14" cx="29.87" cy="52.37" rx="8.87" ry="11.19"/><path class="cls-15" d="M67.44,6.75C46.76,6.75,35.57,11.28,27.23,31,23,40.86,24.41,51.91,28.75,61.73a27.16,27.16,0,0,1,2.05,7.68,28.63,28.63,0,0,1,.12,5.6c-.83,10.15,2,20.41,9,27.66,7.16,7.45,15.68,11.86,24,11.86,17.11,0,43-26.15,43-58.42S96.11,6.75,67.44,6.75Z"/><g class="cls-16"><path class="cls-4" d="M107.17,55.6c0-30.28-9.43-47.19-34.27-49.16-4.62,7.12-8.22,15.16-8.42,23.77a13.88,13.88,0,0,0,.67,5.17c1.62,4.4,6.29,6.7,10.29,9.12,7.25,4.39,14,11.7,13.24,20.14-.6,7-6.07,12.52-7.91,19.26-1.31,4.81-.7,9.9-.83,14.88a50,50,0,0,1-1.41,10.39C92.89,100.16,107.17,79.58,107.17,55.6Z"/></g><path d="M43,96a23.13,23.13,0,0,0,4.72.77,28.73,28.73,0,0,0,4.73,0,49.71,49.71,0,0,0,9.37-1.88,22.18,22.18,0,0,1-4.46,2,24.68,24.68,0,0,1-4.82,1C49.33,98,45.88,97.7,43,96Z"/><ellipse cx="60.79" cy="68.55" rx="2.5" ry="3.98"/><path d="M57.94,62.4a4.83,4.83,0,0,1,4.05-1,4,4,0,0,1,1.92,1.11,3.76,3.76,0,0,1,.94,1.9,5.94,5.94,0,0,0-3.11-2A11.2,11.2,0,0,0,57.94,62.4Z"/><ellipse cx="41.24" cy="68.55" rx="2.5" ry="3.98"/><path d="M37.63,63.56a4.83,4.83,0,0,1,3.49-2.29,4,4,0,0,1,2.18.42,3.74,3.74,0,0,1,1.51,1.49,5.94,5.94,0,0,0-3.57-.83A11.22,11.22,0,0,0,37.63,63.56Z"/><path d="M48.47,71.8c0,3.81-1.88,7.36-3.51,10.61-.78,1.59-1.65,3.44-1.07,4.9.74,1.43,2.83,1.92,4.58,2.34-1.79-.09-4-.05-5.31-2-1-2.11.15-4.07.83-5.75.89-1.69,1.8-3.26,2.57-4.94A24.91,24.91,0,0,0,48.47,71.8Z"/><path class="cls-9" d="M78.33,41.25S74.7,51.54,87,53.76c0,0,4.44,10.49-1.62,20.38,0,0,6.46-4,8.88-16.44,2.25-11.55,17.6-.3,6.41,14.32a24.83,24.83,0,0,0-5.41,12.41c-.41,3.87.1,8.13,3.24,10.91,0,0-1.21-5.16,3.23-7.73,0,0,4.23,3.48,10.08-1.77,0,0-8.59-.4-5-7.87C106.82,78,126,9,75.91.9c-32.75-5.28-48.47,13.64-55,31.81A17.17,17.17,0,0,0,40.6,55.39,137.24,137.24,0,0,0,78.33,41.25Z"/><path class="cls-8" d="M98.17,15.33a39.08,39.08,0,0,1,7.55,13.39,63.28,63.28,0,0,1,3.07,15.16,83,83,0,0,1-.36,15.45c-.31,2.56-.81,5.09-1.21,7.63l-1.85,7.48,1.33-7.57c.29-2.55.7-5.08.91-7.62A90.68,90.68,0,0,0,107.72,44a67.07,67.07,0,0,0-2.79-15A43.89,43.89,0,0,0,98.17,15.33Z"/><g class="cls-17"><path d="M103.35,57.59a11.84,11.84,0,0,0-2.56-1.2,4,4,0,0,0-2.51-.11c-1.62.44-2.7,2.11-3.78,3.72a7.84,7.84,0,0,1,1-2.79,4.8,4.8,0,0,1,2.46-2A5.18,5.18,0,0,1,103.35,57.59Z"/></g><g class="cls-11"><path d="M97.86,57.8a6.11,6.11,0,0,1,2.85,5.8,5.82,5.82,0,0,1-1.65,3,13.75,13.75,0,0,1-1.31,1l-1.48.7c1.57-1.46,3.1-3,3.37-4.9a5.21,5.21,0,0,0-.31-2.85A12.34,12.34,0,0,0,97.86,57.8Z"/></g><path class="cls-9" d="M35.61,55.71s-34.35-3.24-29-33.83c0,0,6.16,9.29,17.16,3.27S35.53,3.46,70.8,1.76"/><path class="cls-8" d="M9,28.46c1.91,5.39,6.65,9.89,12.36,10.31A9.29,9.29,0,0,0,29,36.43,36.53,36.53,0,0,0,34.49,30c3.44-4.58,6.77-9.45,11.43-13A22.63,22.63,0,0,1,53.66,13a28.32,28.32,0,0,1,4.3-.69c1.44,0,2.89.1,4.32.15A23,23,0,0,0,46.36,17.5c-4.46,3.57-7.64,8.43-11,13.09a37.74,37.74,0,0,1-5.8,6.53,10.47,10.47,0,0,1-3.9,2.13,11.85,11.85,0,0,1-4.43.23,13.54,13.54,0,0,1-7.88-3.62A16.91,16.91,0,0,1,9,28.46Z"/><g class="cls-11"><path class="cls-10" d="M108.29,56.6c.14,3.29-.5,7.06.71,9.89,2.75-20.46,2.66-58-33.45-63.83-27.91-4.5-43.43,8.58-51.44,23.79-.24.15-.47.32-.72.46-9.59,5.24-15.5-1.14-16.86-2.86A21.38,21.38,0,0,0,19.12,39.87a33.25,33.25,0,0,0,11,2,82.55,82.55,0,0,0,31.68-4.93c4.51-1.65,8.88-3.69,13.54-4.83s9.74-1.31,14.08.72a27.23,27.23,0,0,1,4.71,3C101,41.08,107.93,47.94,108.29,56.6Z"/></g><path class="cls-18" d="M77,274c2,1,5,2.44,6.44,3.18,0-5.07-1.89-27.86-1.88-32.93a8.76,8.76,0,0,1,.75-4.07,1.3,1.3,0,0,0,.09-.49l-6.1-3.55a4.08,4.08,0,0,1-.33-.25,6.6,6.6,0,0,0-1.07,4.05c0,4.66,0,23,0,30.7A3.73,3.73,0,0,0,77,274Z"/><polygon class="cls-18" points="128.16 229.34 128.16 243.68 81.5 271.3 81.52 253.03 128.16 229.34"/><path class="cls-19" d="M128.13,246.39a8.75,8.75,0,0,1-.76,4.07,1.57,1.57,0,0,0-.08.49c-.34.14-.46.49-.65.75-1.07,1.54-2.69,2.29-4.25,3.16-2.27,1.26-4.48,2.64-6.73,3.94-3,1.72-6,3.41-8.91,5.12-1.69,1-3.36,2-5,2.95-3.67,2.08-7.33,4.18-10.94,6.35-1.84,1.1-3.75,2.08-5.58,3.19-.57.34-1.23.36-1.77.73-1.41-.55-1.88-1.3-1.88-3.09,0-4.84,0-8.28,0-8.28l26.94-15.35v-.15c.25-.08.49-.17.73-.27l3.15-1.8,1-.57c.47-.25.93-.51,1.39-.77l3.07-1.75c1.79-1,3.56-2.07,5.35-3.09.19-.11.42-.18.53-.4l.14.06,4.39-2.5S128.13,241.33,128.13,246.39Z"/><path class="cls-20" d="M75.94,235.85a4.08,4.08,0,0,0,.33.25l6.1,3.55c.34-.14.46-.49.64-.75,1.08-1.53,2.7-2.29,4.26-3.16,2.27-1.26,4.48-2.63,6.73-3.94l8.91-5.12c1.69-1,3.36-2,5-3,3.67-2.08,7.33-4.17,10.94-6.35,1.84-1.1,3.75-2.08,5.58-3.19.57-.34,1.23-.36,1.77-.73a43.44,43.44,0,0,0-4.29-2.57c-2.25-1.29-2.18-1.66-4.26-.5l-1.18.68a14.65,14.65,0,0,1-1.63.94l-6.33,3.66,0,.07c-3.29,1.9-6.58,3.81-9.89,5.68A22.23,22.23,0,0,1,95.92,223l-6.49,3.75,0,.05c-2.77,1.59-5.54,3.16-8.29,4.75l-.3.17-2.73,1.59A4.22,4.22,0,0,0,75.94,235.85Zm35.4-19.23,2.84-1.59-2.84,1.59Zm-17.3,10a10.51,10.51,0,0,1,1.3-.65v0A10.51,10.51,0,0,0,94,226.62Zm-1.72,1,.62-.34Z"/><path class="cls-21" d="M114.18,215c.41-.91.1-1.87.18-2.8-.17-2-1.4-3.1-3-4.18-2.24-1.47-4.08-1.13-6.18.19-3.07,1.95-6.24,3.75-9.44,5.48-3.41,1.84-5.12,4.8-5.93,8.42a11.19,11.19,0,0,0-.13,4.08l2.68,1.4c1-.53,2-1.22,3-1.65a16.59,16.59,0,0,1,.07-2.82,4.84,4.84,0,0,1,2.48-3.5c3.39-1.91,6.74-3.88,10.11-5.81.18-.1.33-.34.59-.19.11.52-.08,1.07.14,1.58a19.23,19.23,0,0,1,2.61,1.39Z"/><path class="cls-22" d="M92.32,227.62l-2.68-1.4c-.08.18-.16.37-.23.56a9.18,9.18,0,0,1,0,2c0,.28,0,.57.24.77a6.32,6.32,0,0,0,2.42,1.33C92.51,229.79,92.16,228.69,92.32,227.62Z"/><path class="cls-23" d="M92.32,227.62c-.16,1.07.19,2.17-.2,3.22,1.2,0,2-.93,2.95-1.37.4-.18.24-.65.25-1,0-.84,0-1.68,0-2.51C94.27,226.4,93.34,227.09,92.32,227.62Z"/><path class="cls-23" d="M114.18,215l-2.84,1.59c0,1.09,0,2.19,0,3.29a12,12,0,0,0,2.87-1.49.36.36,0,0,0,.18-.26A10,10,0,0,0,114.18,215Z"/><path class="cls-22" d="M111.29,219.91c0-1.1,0-2.2,0-3.29a19.23,19.23,0,0,0-2.61-1.39l-.2.51a5.25,5.25,0,0,1,.11,2,1.07,1.07,0,0,0,.52,1A7.38,7.38,0,0,0,111.29,219.91Z"/><path class="cls-24" d="M81.51,259.42h0l0-15.2a8.76,8.76,0,0,1,.75-4.07,1.3,1.3,0,0,0,.09-.49c.34-.14.46-.49.64-.75,1.08-1.53,2.7-2.29,4.26-3.16,2.27-1.26,4.48-2.63,6.73-3.94l8.91-5.12c1.69-1,3.36-2,5-3,3.67-2.08,7.33-4.17,10.94-6.35,1.84-1.1,3.75-2.08,5.58-3.19.57-.34,1.23-.36,1.77-.73,1.41.55,1.87,1.3,1.88,3.09l0,14.53h0v6.71l-26.94,15.35v.15c-.25.08-.49.17-.73.27l-3.15,1.8c-.32.19-.64.39-1,.57l-1.38.77-3.07,1.75-5.35,3.09c-.19.11-.42.18-.53.4l-.14-.06-4.39,2.5Z"/><path class="cls-22" d="M111.11,242.88l-7.82,4.64a.7.7,0,0,0-.35.6v7.79a.71.71,0,0,0,1.06.61l7.82-4.55a.7.7,0,0,0,.35-.6v-7.89A.7.7,0,0,0,111.11,242.88Z"/><path class="cls-23" d="M104,255.37l7.82-4.55a.71.71,0,0,0,.35-.61v1.16a.7.7,0,0,1-.35.6L104,256.52a.71.71,0,0,1-1.06-.61v-1.15A.71.71,0,0,0,104,255.37Z"/><path class="cls-25" d="M95.94,226s-4.57,22,10.28,11c9.92-7.3,13-26.2,13-26.2Z"/><path class="cls-10" d="M117.85,210.76a23.64,23.64,0,0,1-20.06,13.18c2.43-7.81,10.81-39.73-.25-79.06,2.82-1.33-4.07-4.62-4.07-4.62s12.43,37-.09,86.78c22.26,1.59,25.83-16,25.88-16.28Z"/><path class="cls-6" d="M94.66,144.65c12.73,32,1.28,80.66,1.28,80.66a25,25,0,0,0,23.32-14.45s10.78-42.27-1.35-78.11c-2.43-7.18-11.12-10.79-17.59-6.84a14,14,0,0,0-2.77,2.22C93.33,132.44,92.42,139.05,94.66,144.65Z"/></g></g></svg>