<svg xmlns="http://www.w3.org/2000/svg" viewBox="0 0 144.1 277.23"><defs><style>.cls-1{opacity:0.2;}.cls-2{fill:#664020;}.cls-3{opacity:0.4;}.cls-4{fill:#603813;}.cls-5{fill:#333;}.cls-6{opacity:0.25;}.cls-7{fill:#041015;}.cls-8{fill:#754c24;}.cls-9{fill:#161616;}.cls-10{opacity:0.17;}.cls-11{fill:#1a1a1a;}</style></defs><title>Recurso 122</title><g id="Capa_2" data-name="Capa 2"><g id="personajes_individuales" data-name="personajes individuales"><g class="cls-1"><ellipse cx="72.05" cy="247.36" rx="72.05" ry="29.87"/></g><path class="cls-2" d="M124.17,160a98.81,98.81,0,0,0-7.63-38.76h0a83.18,83.18,0,0,0-3.94-8h0l0-.08c-.31-.55-.63-1.08-1-1.61-2.25-4.21-7.36-16.68-5.06-40.26l-.05,0c.05-.69.12-1.39.12-2.09a34.56,34.56,0,0,0-69.11,0c0,.74,1.86,14.94-.73,29.78,0,0,0,0,0,0a48.61,48.61,0,0,1-3.65,11.63,77.86,77.86,0,0,0-5.51,10.6h0A98.59,98.59,0,0,0,19.93,160c0,.46,0,.93,0,1.38,0,0,0,0,0,.07,0,46.75,20.52,82,20.52,82h0c1.46,3.05,4.24,5.93,8.39,8.33,12.8,7.39,33.56,7.39,46.36,0,4.16-2.4,6.94-5.28,8.4-8.33h0s20.52-35.27,20.52-82c0,0,0,0,0,0C124.15,160.89,124.17,160.43,124.17,160Z"/><g class="cls-3"><path class="cls-4" d="M106,82.39a118,118,0,0,1,.58-11.94l-.05,0c.05-.7.12-1.39.12-2.09a34.56,34.56,0,1,0-69.11,0c0,.73,1.86,14.94-.73,29.78,0,0,0,0,0,0,0,.19-.07.33-.11.5,4,11.31,13.66,18,28.62,16.74C86.21,113.59,94.57,102.89,106,82.39Z"/></g><path class="cls-5" d="M116.54,121.19a83.18,83.18,0,0,0-3.94-8h0l0-.08c-.31-.55-.63-1.08-1-1.61a38.22,38.22,0,0,1-2.67-6.58c-5.17,6.81-12.3,13-19.64,18.33a36.77,36.77,0,0,1-55-14.85c0-.1-.09-.2-.14-.3-.36.93-.71,1.76-1,2.42a77.86,77.86,0,0,0-5.51,10.6h0A98.59,98.59,0,0,0,19.93,160c0,.46,0,.93,0,1.38,0,0,0,0,0,.07,0,46.75,20.52,82,20.52,82h0c2.39,5,8.32,9.52,18,12.27a49.89,49.89,0,0,0,26.91.05c9.87-2.74,15.84-7.3,18.25-12.32h0s20.52-35.27,20.52-82c0,0,0,0,0,0,0-.48,0-.94,0-1.42A98.81,98.81,0,0,0,116.54,121.19Z"/><g class="cls-6"><path class="cls-7" d="M108.9,106.85s-12.76,15-25.91,22C83,128.84,101,122.1,108.9,106.85Z"/></g><g class="cls-6"><path class="cls-7" d="M22.94,161.11s25.25,17.45,66.27,7.82C89.21,168.93,46.4,183.8,22.94,161.11Z"/></g><g class="cls-6"><path class="cls-7" d="M116.54,121.17a83.21,83.21,0,0,0-4-8h0l-.06-.07c-.3-.55-.63-1.08-.94-1.61a38.22,38.22,0,0,1-2.67-6.58c-5.17,6.8-12.3,13-19.65,18.33a39.73,39.73,0,0,1-5.23,3.65,36,36,0,0,0,.51,4.5c1.41,8.21,5,15.84,7.53,23.79A88.77,88.77,0,0,1,87,220.4c-6.09,12.3-15.11,23.59-17.72,37a49.91,49.91,0,0,0,16.09-1.63c9.87-2.74,15.85-7.3,18.25-12.32h0s20.53-35.27,20.53-82l0,0c0-.48,0-1,0-1.42A98.86,98.86,0,0,0,116.54,121.17Z"/></g><path class="cls-8" d="M96.71,224.31s-4.57,22,10.28,11c9.92-7.3,13-26.2,13-26.2Z"/><path class="cls-9" d="M118.62,209a23.62,23.62,0,0,1-20.06,13.18c2.43-7.81,10.81-39.73-.25-79.05,2.82-1.34-4.07-4.63-4.07-4.63s12.43,37-.09,86.78c22.26,1.6,25.83-16,25.88-16.28Z"/><path class="cls-5" d="M95.43,142.94c12.73,32,1.28,80.65,1.28,80.65A24.94,24.94,0,0,0,120,209.14s10.78-42.27-1.35-78.11c-2.43-7.18-11.12-10.79-17.59-6.84a14.35,14.35,0,0,0-2.77,2.22C94.1,130.73,93.19,137.33,95.43,142.94Z"/><ellipse cx="34.52" cy="49.96" rx="8.16" ry="8.46"/><path class="cls-8" d="M68.88,5C48.2,5,42.94,6.64,34.61,26.33c-4.19,9.88-6.48,21.26-2.13,31.08a27.09,27.09,0,0,1,2,7.67c.24,2-2,6.45-2.16,8.22-.83,10.14,2,20.4,9,27.65,7.16,7.45,15.67,11.87,24,11.87,17.1,0,43-26.16,43-58.43S97.55,5,68.88,5Z"/><path d="M44.48,94.31a22.46,22.46,0,0,0,4.72.77,28.73,28.73,0,0,0,4.73,0,49.09,49.09,0,0,0,9.37-1.88,22.61,22.61,0,0,1-4.47,2,25.16,25.16,0,0,1-4.81,1C50.76,96.28,47.32,96,44.48,94.31Z"/><ellipse cx="62.23" cy="66.83" rx="2.5" ry="3.98"/><path d="M59.38,60.68a4.81,4.81,0,0,1,4-1,4,4,0,0,1,1.93,1.11,3.79,3.79,0,0,1,.94,1.9,6,6,0,0,0-3.11-2A11.47,11.47,0,0,0,59.38,60.68Z"/><ellipse cx="42.68" cy="66.83" rx="2.5" ry="3.98"/><path d="M39.07,61.85a4.78,4.78,0,0,1,3.49-2.29,3.91,3.91,0,0,1,2.18.42,3.71,3.71,0,0,1,1.51,1.48,6,6,0,0,0-3.58-.83A11,11,0,0,0,39.07,61.85Z"/><path d="M49.91,70.08c0,3.82-1.88,7.36-3.51,10.61-.78,1.59-1.65,3.44-1.07,4.9.74,1.43,2.83,1.92,4.58,2.34-1.79-.09-4-.05-5.31-2-1-2.11.15-4.08.83-5.75.89-1.7,1.8-3.27,2.57-5A25.49,25.49,0,0,0,49.91,70.08Z"/><g class="cls-3"><path class="cls-4" d="M107.86,54.46c0-30.28-9.44-47.19-34.28-49.16C69,12.42,65.37,20.46,65.16,29.07a13.9,13.9,0,0,0,.67,5.17c1.62,4.39,6.29,6.7,10.3,9.12,7.24,4.39,14,11.69,13.23,20.13-.6,7-6.07,12.53-7.91,19.26-1.31,4.81-.7,9.91-.82,14.89A50.47,50.47,0,0,1,79.21,108C93.57,99,107.86,78.44,107.86,54.46Z"/></g><path class="cls-8" d="M95.44,61s10.8-14.45,16.73.24S101,83.58,95.55,75.57"/><g class="cls-10"><path d="M108.26,62a12.86,12.86,0,0,0-2.56-1.2,4,4,0,0,0-2.51-.11c-1.62.44-2.7,2.12-3.78,3.73a7.82,7.82,0,0,1,1-2.8,4.78,4.78,0,0,1,2.46-2A5.18,5.18,0,0,1,108.26,62Z"/></g><g class="cls-6"><path d="M102.77,62.26a6.07,6.07,0,0,1,2.84,5.79,5.73,5.73,0,0,1-1.64,3,15.42,15.42,0,0,1-1.31,1l-1.49.7c1.58-1.45,3.11-3,3.38-4.89a5.17,5.17,0,0,0-.32-2.86A12.23,12.23,0,0,0,102.77,62.26Z"/></g><path class="cls-11" d="M110.49,44.76A3.31,3.31,0,0,0,109.1,42c.92-2.45,1.69-6.33-.85-9.36a3.4,3.4,0,0,0,.3-1.39,3.33,3.33,0,0,0-1.26-2.58c.34-2,.24-4.78-2.2-6.51a3.32,3.32,0,0,0,.49-1.65,3.4,3.4,0,0,0-3.4-3.39,2.56,2.56,0,0,0-.27.05,8.05,8.05,0,0,0-7.58-5.93s-2.79-8-9.94-6.3a3.32,3.32,0,0,0-5.51-2.43C77.52,1.19,75.33.07,71.62,0,67.31-.07,65,1.12,63.73,2.37A3.2,3.2,0,0,0,59.08,3a11.73,11.73,0,0,0-8.26-.51c-3.21.95-4.77,2.57-5.56,4a3.47,3.47,0,0,0-1.37-.3,3.37,3.37,0,0,0-3.32,3,8.48,8.48,0,0,0-4.66,2A7.51,7.51,0,0,0,33.5,15a2.21,2.21,0,0,0-.25,0,3.4,3.4,0,0,0-3.4,3.39,3.25,3.25,0,0,0,.53,1.7,6.08,6.08,0,0,0-2.86,3.16,6.94,6.94,0,0,0-.68,2.48,3.25,3.25,0,0,0-2.45,4.83c-1.42.94-2.57,2.6-2.33,5.52a3.21,3.21,0,0,0-.73,4.77A3.34,3.34,0,0,0,23,45.16a3.29,3.29,0,0,0-.27,1.33,3.4,3.4,0,0,0,3.39,3.4A3.35,3.35,0,0,0,29,48.28a5.31,5.31,0,0,0,2.29.51s4.25-.63,5.39-4.43c0,0,3.47,6.91,11.39,5.67s7-6.22,7-6.22A5.9,5.9,0,0,0,61.54,46a6.7,6.7,0,0,0,4.08-3.13,3.42,3.42,0,0,0,1.11.22,3.39,3.39,0,0,0,.84-.17A7.67,7.67,0,0,0,74,45.05a6.38,6.38,0,0,0,4.7-2.13,3.29,3.29,0,0,0,1.74.55,2.45,2.45,0,0,0,.39-.08,13.49,13.49,0,0,0,6.07,6.79,6.55,6.55,0,0,0,2.79.1,3.33,3.33,0,0,0,1.77,2.17,11.46,11.46,0,0,0,.88,7.61c3.16,7.39,5.9,2.79,7.71-2.5l1.84-.43a4.5,4.5,0,0,0,5-1.18l1.35-.32s0-.45,0-1.23h0A7.88,7.88,0,0,0,109.5,47,3.29,3.29,0,0,0,110.49,44.76Z"/></g></g></svg>