<svg xmlns="http://www.w3.org/2000/svg" viewBox="0 0 144.1 281.89"><defs><style>.cls-1{opacity:0.2;}.cls-2{fill:#d8ca9a;}.cls-3{opacity:0.4;}.cls-4{fill:#c69c6d;}.cls-5{fill:#999;}.cls-6{opacity:0.25;}.cls-7{fill:#041015;}.cls-8{opacity:0.15;}.cls-9{fill:#104055;}.cls-10{fill:#666;}.cls-11{fill:#b3b3b3;}.cls-12{fill:#ccc;}.cls-13{fill:#e6dab0;}.cls-14{opacity:0.3;}.cls-15{fill:#a67c52;}.cls-16{opacity:0.17;}</style></defs><title>Recurso 124</title><g id="Capa_2" data-name="Capa 2"><g id="personajes_individuales" data-name="personajes individuales"><g class="cls-1"><ellipse cx="72.05" cy="252.01" rx="72.05" ry="29.87"/></g><path class="cls-2" d="M122,161.67a98.86,98.86,0,0,0-7.63-38.77h0a85.57,85.57,0,0,0-3.94-8h0l-.06-.07c-.3-.55-.62-1.08-.94-1.61-2.25-4.21-7.36-16.69-5.06-40.27l0,0c0-.7.11-1.39.11-2.09a34.55,34.55,0,1,0-69.1,0c0,.73,1.86,14.94-.73,29.78,0,0,0,0,0,0a48.06,48.06,0,0,1-3.66,11.63,80,80,0,0,0-5.51,10.59h0a98.59,98.59,0,0,0-7.65,38.8c0,.46,0,.93,0,1.38,0,0,0,0,0,.07,0,46.75,20.52,82,20.52,82h0c1.47,3.06,4.25,5.93,8.4,8.34,12.8,7.39,33.56,7.39,46.36,0,4.16-2.41,6.93-5.28,8.4-8.33h0s20.52-35.27,20.52-82v0C122,162.61,122,162.14,122,161.67Z"/><g class="cls-3"><path class="cls-4" d="M103.8,84.11a115,115,0,0,1,.58-11.94l0,0c0-.7.11-1.39.11-2.1a34.55,34.55,0,0,0-69.1,0c0,.74,1.86,15-.73,29.79,0,0,0,0,0,0,0,.18-.08.32-.11.5,4,11.31,13.66,18,28.61,16.74C84.05,115.31,92.41,104.61,103.8,84.11Z"/></g><path class="cls-5" d="M114.38,122.9a85.57,85.57,0,0,0-3.94-8h0l-.06-.07c-.3-.55-.62-1.08-.94-1.61a38.22,38.22,0,0,1-2.67-6.58C90.29,128.35,53.93,144,53.93,144c-8.44-5.7-17.46-24.06-22-34.16-.36.93-.72,1.77-1,2.43a80,80,0,0,0-5.51,10.59h0a98.59,98.59,0,0,0-7.65,38.8c0,.46,0,.93,0,1.38,0,0,0,0,0,.07,0,46.75,20.52,82,20.52,82h0c1.47,3.06,4.25,5.93,8.4,8.34,12.8,7.39,33.56,7.39,46.36,0,4.16-2.41,6.93-5.28,8.4-8.33h0s20.52-35.27,20.52-82v0c0-.48,0-1,0-1.42A98.86,98.86,0,0,0,114.38,122.9Z"/><g class="cls-6"><path class="cls-7" d="M106.3,107.25s-12.76,15-25.91,22C80.39,129.23,98.36,122.49,106.3,107.25Z"/></g><g class="cls-6"><path class="cls-7" d="M18.09,159.84s24,19.12,65.59,12.27C83.68,172.11,40,184.06,18.09,159.84Z"/></g><g class="cls-8"><path class="cls-9" d="M114.38,122.9a85.57,85.57,0,0,0-3.94-8h0l-.06-.07c-.3-.55-.62-1.08-.94-1.61a38.22,38.22,0,0,1-2.67-6.58c-5.17,6.8-12.3,13-19.65,18.33a39.73,39.73,0,0,1-5.23,3.65,38.26,38.26,0,0,0,.51,4.5c1.41,8.21,5,15.84,7.53,23.79a88.77,88.77,0,0,1-5.09,65.19c-6.08,12.3-15.11,23.59-17.72,37a50,50,0,0,0,16.1-1.63c9.87-2.74,15.84-7.3,18.25-12.32h0s20.52-35.27,20.52-82v0c0-.48,0-1,0-1.42A98.86,98.86,0,0,0,114.38,122.9Z"/></g><path class="cls-2" d="M82.88,236.83s-7.13,24.11,10.45,13.28c11.76-7.23,17-28.05,17-28.05Z"/><path class="cls-10" d="M108.76,221.82a26.48,26.48,0,0,1-23.62,12.86c3.44-8.5,15.76-43.37,7.07-88.31,3.27-1.23-3.92-4-3.92-4s10.24,41-8.36,95.36c24.71,3.85,30.33-15.52,30.41-15.77Z"/><path class="cls-11" d="M89,145.85C100.26,182.73,83,236,83,236a28,28,0,0,0,27.39-14s15.82-45.83,5.85-86.85c-2-8.45-11.34-13.67-19.12-9.76a15.78,15.78,0,0,0-3.31,2.21C88.66,132.09,87,139.38,89,145.85Z"/><path class="cls-12" d="M111.69,131.79s3.63,58.26-7,96.7c0,0,10.24-19.13,12.48-54.34S111.69,131.79,111.69,131.79Z"/><path class="cls-13" d="M66.71,6.75C46,6.75,34.84,11.28,26.51,31,22.32,40.86,23.68,51.91,28,61.73a27.16,27.16,0,0,1,2,7.68A27.91,27.91,0,0,1,30.2,75c-.83,10.15,2,20.41,9,27.66,7.16,7.45,15.67,11.86,24,11.86,17.11,0,43-26.15,43-58.42S95.39,6.75,66.71,6.75Z"/><g class="cls-14"><path class="cls-4" d="M105.62,56.4c0-30.28-9.43-47.19-34.28-49.16C66.72,14.36,63.13,22.4,62.92,31a14.08,14.08,0,0,0,.67,5.17c1.63,4.4,6.29,6.7,10.3,9.12,7.25,4.39,14,11.7,13.23,20.14-.6,7-6.06,12.52-7.9,19.26-1.31,4.81-.7,9.9-.83,14.88A49.32,49.32,0,0,1,77,110C91.33,101,105.62,80.38,105.62,56.4Z"/></g><path d="M42.31,96A23.33,23.33,0,0,0,47,96.8a28.75,28.75,0,0,0,4.73,0,49.77,49.77,0,0,0,9.36-1.88,22.28,22.28,0,0,1-4.46,2,25.16,25.16,0,0,1-4.81,1C48.6,98,45.16,97.7,42.31,96Z"/><ellipse cx="60.06" cy="68.55" rx="2.5" ry="3.98"/><path d="M57.22,62.4a4.81,4.81,0,0,1,4-1,4,4,0,0,1,1.93,1.11,3.76,3.76,0,0,1,.94,1.9,6,6,0,0,0-3.11-2A11.21,11.21,0,0,0,57.22,62.4Z"/><ellipse cx="40.52" cy="68.55" rx="2.5" ry="3.98"/><path d="M36.91,63.56a4.81,4.81,0,0,1,3.49-2.29,4.09,4.09,0,0,1,2.18.42,3.8,3.8,0,0,1,1.51,1.49,6.05,6.05,0,0,0-3.58-.84A11.54,11.54,0,0,0,36.91,63.56Z"/><path d="M47.75,71.8c0,3.81-1.89,7.36-3.51,10.61-.78,1.59-1.65,3.44-1.07,4.9s2.83,1.92,4.58,2.34c-1.79-.09-4-.05-5.32-2-1-2.11.16-4.07.84-5.75.88-1.69,1.8-3.26,2.57-4.94A25.49,25.49,0,0,0,47.75,71.8Z"/><path class="cls-15" d="M77.61,41.25S74,51.54,86.28,53.76c0,0,4.44,10.49-1.61,20.38,0,0,6.46-4,8.88-16.44,2.26-11.58,17.68-.25,6.32,14.43A24.62,24.62,0,0,0,94.5,84.85c-.32,3.76.26,7.81,3.28,10.49,0,0-1.21-5.16,3.23-7.73,0,0,4.24,3.48,10.09-1.77,0,0-8.6-.4-5-7.87,0,0,19.12-69-30.91-77.07S14.86,41.25,16.48,57.19C16.48,57.19,41.9,60.62,77.61,41.25Z"/><path class="cls-4" d="M20,54.28c10.73-2.4,21.4-4.9,31.62-8.69A77.48,77.48,0,0,0,66.39,38.8c4.57-2.78,9-6.24,11.42-11.25-1.61,5.41-6,9.51-10.52,12.64a69.35,69.35,0,0,1-14.9,7.43,130.84,130.84,0,0,1-16,4.44A116,116,0,0,1,20,54.28Z"/><path class="cls-4" d="M22.08,47.67a46.48,46.48,0,0,1,3.53-17.35A42.75,42.75,0,0,1,35.72,15.56c4.49-4,9.64-7.38,15.41-9.06,2.77-1.16,5.8-1.4,8.67-2.08,3-.34,5.92-.42,8.85-.53-2.9.6-5.82.88-8.65,1.57-2.78.88-5.7,1.29-8.3,2.6a42,42,0,0,0-14.5,9.07A43.91,43.91,0,0,0,27.12,31,59.77,59.77,0,0,0,22.08,47.67Z"/><path class="cls-4" d="M97.45,15.33A38.9,38.9,0,0,1,105,28.72a63.3,63.3,0,0,1,3.08,15.16,83,83,0,0,1-.36,15.45c-.31,2.56-.81,5.09-1.21,7.63l-1.86,7.48L106,66.87c.29-2.55.69-5.08.9-7.62A89.64,89.64,0,0,0,107,44a67.05,67.05,0,0,0-2.78-15A44.11,44.11,0,0,0,97.45,15.33Z"/><g class="cls-16"><path d="M102.63,57.59a12.06,12.06,0,0,0-2.56-1.2,4,4,0,0,0-2.51-.11c-1.63.44-2.7,2.11-3.78,3.72a7.84,7.84,0,0,1,1-2.79,4.82,4.82,0,0,1,2.45-2A5.21,5.21,0,0,1,102.63,57.59Z"/></g><g class="cls-6"><path d="M97.14,57.8A6.12,6.12,0,0,1,100,63.6a5.68,5.68,0,0,1-1.65,3,11.62,11.62,0,0,1-1.31,1l-1.48.7c1.58-1.46,3.11-3,3.38-4.9a5.13,5.13,0,0,0-.32-2.85A12.29,12.29,0,0,0,97.14,57.8Z"/></g><path class="cls-4" d="M20.91,51.14a187.94,187.94,0,0,0,20.28-9c6.46-3.47,12.61-7.56,17.15-13.55a27,27,0,0,1-6.79,9A47,47,0,0,1,42.21,44a65.93,65.93,0,0,1-10.38,4.45A61.36,61.36,0,0,1,20.91,51.14Z"/></g></g></svg>